  0
SECTION
  2
HEADER
  9
$ACADVER
  1
AC1024
  9
$ACADMAINTVER
 70
     6
  9
$DWGCODEPAGE
  3
ANSI_1252
  9
$INSBASE
 10
0.0
 20
0.0
 30
0.0
  9
$EXTMIN
 10
1.000000000000000E+20
 20
1.000000000000000E+20
 30
1.000000000000000E+20
  9
$EXTMAX
 10
-1.000000000000000E+20
 20
-1.000000000000000E+20
 30
-1.000000000000000E+20
  9
$LIMMIN
 10
0.0
 20
0.0
  9
$LIMMAX
 10
12.0
 20
9.0
  9
$ORTHOMODE
 70
     0
  9
$REGENMODE
 70
     1
  9
$FILLMODE
 70
     1
  9
$QTEXTMODE
 70
     0
  9
$MIRRTEXT
 70
     1
  9
$LTSCALE
 40
1.0
  9
$ATTMODE
 70
     1
  9
$TEXTSIZE
 40
0.2
  9
$TRACEWID
 40
0.05
  9
$TEXTSTYLE
  7
Standard
  9
$CLAYER
  8
0
  9
$CELTYPE
  6
ByLayer
  9
$CECOLOR
 62
   256
  9
$CELTSCALE
 40
1.0
  9
$DISPSILH
 70
     0
  9
$DIMSCALE
 40
1.0
  9
$DIMASZ
 40
0.18
  9
$DIMEXO
 40
0.0625
  9
$DIMDLI
 40
0.38
  9
$DIMRND
 40
0.0
  9
$DIMDLE
 40
0.0
  9
$DIMEXE
 40
0.18
  9
$DIMTP
 40
0.0
  9
$DIMTM
 40
0.0
  9
$DIMTXT
 40
0.18
  9
$DIMCEN
 40
0.09
  9
$DIMTSZ
 40
0.0
  9
$DIMTOL
 70
     0
  9
$DIMLIM
 70
     0
  9
$DIMTIH
 70
     1
  9
$DIMTOH
 70
     1
  9
$DIMSE1
 70
     0
  9
$DIMSE2
 70
     0
  9
$DIMTAD
 70
     0
  9
$DIMZIN
 70
     0
  9
$DIMBLK
  1

  9
$DIMASO
 70
     1
  9
$DIMSHO
 70
     1
  9
$DIMPOST
  1

  9
$DIMAPOST
  1

  9
$DIMALT
 70
     0
  9
$DIMALTD
 70
     2
  9
$DIMALTF
 40
25.4
  9
$DIMLFAC
 40
1.0
  9
$DIMTOFL
 70
     0
  9
$DIMTVP
 40
0.0
  9
$DIMTIX
 70
     0
  9
$DIMSOXD
 70
     0
  9
$DIMSAH
 70
     0
  9
$DIMBLK1
  1

  9
$DIMBLK2
  1

  9
$DIMSTYLE
  2
Standard
  9
$DIMCLRD
 70
     0
  9
$DIMCLRE
 70
     0
  9
$DIMCLRT
 70
     0
  9
$DIMTFAC
 40
1.0
  9
$DIMGAP
 40
0.09
  9
$DIMJUST
 70
     0
  9
$DIMSD1
 70
     0
  9
$DIMSD2
 70
     0
  9
$DIMTOLJ
 70
     1
  9
$DIMTZIN
 70
     0
  9
$DIMALTZ
 70
     0
  9
$DIMALTTZ
 70
     0
  9
$DIMUPT
 70
     0
  9
$DIMDEC
 70
     4
  9
$DIMTDEC
 70
     4
  9
$DIMALTU
 70
     2
  9
$DIMALTTD
 70
     2
  9
$DIMTXSTY
  7
Standard
  9
$DIMAUNIT
 70
     0
  9
$DIMADEC
 70
     0
  9
$DIMALTRND
 40
0.0
  9
$DIMAZIN
 70
     0
  9
$DIMDSEP
 70
    46
  9
$DIMATFIT
 70
     3
  9
$DIMFRAC
 70
     0
  9
$DIMLDRBLK
  1

  9
$DIMLUNIT
 70
     2
  9
$DIMLWD
 70
    -2
  9
$DIMLWE
 70
    -2
  9
$DIMTMOVE
 70
     0
  9
$DIMFXL
 40
1.0
  9
$DIMFXLON
 70
     0
  9
$DIMJOGANG
 40
0.7853981633974483
  9
$DIMTFILL
 70
     0
  9
$DIMTFILLCLR
 70
     0
  9
$DIMARCSYM
 70
     0
  9
$DIMLTYPE
  6

  9
$DIMLTEX1
  6

  9
$DIMLTEX2
  6

  9
$DIMTXTDIRECTION
 70
     0
  9
$LUNITS
 70
     2
  9
$LUPREC
 70
     4
  9
$SKETCHINC
 40
0.1
  9
$FILLETRAD
 40
0.5
  9
$AUNITS
 70
     0
  9
$AUPREC
 70
     0
  9
$MENU
  1
.
  9
$ELEVATION
 40
0.0
  9
$PELEVATION
 40
0.0
  9
$THICKNESS
 40
0.0
  9
$LIMCHECK
 70
     0
  9
$CHAMFERA
 40
0.5
  9
$CHAMFERB
 40
0.5
  9
$CHAMFERC
 40
1.0
  9
$CHAMFERD
 40
0.0
  9
$SKPOLY
 70
     0
  9
$TDCREATE
 40
2459171.836267083
  9
$TDUCREATE
 40
2459172.169600416
  9
$TDUPDATE
 40
2459171.836267118
  9
$TDUUPDATE
 40
2459172.169600451
  9
$TDINDWG
 40
0.0000000116
  9
$TDUSRTIMER
 40
0.0000000116
  9
$USRTIMER
 70
     1
  9
$ANGBASE
 50
0.0
  9
$ANGDIR
 70
     0
  9
$PDMODE
 70
     0
  9
$PDSIZE
 40
0.0
  9
$PLINEWID
 40
0.0
  9
$SPLFRAME
 70
     0
  9
$SPLINETYPE
 70
     6
  9
$SPLINESEGS
 70
     8
  9
$HANDSEED
  5
D8
  9
$SURFTAB1
 70
     6
  9
$SURFTAB2
 70
     6
  9
$SURFTYPE
 70
     6
  9
$SURFU
 70
     6
  9
$SURFV
 70
     6
  9
$UCSBASE
  2

  9
$UCSNAME
  2

  9
$UCSORG
 10
0.0
 20
0.0
 30
0.0
  9
$UCSXDIR
 10
1.0
 20
0.0
 30
0.0
  9
$UCSYDIR
 10
0.0
 20
1.0
 30
0.0
  9
$UCSORTHOREF
  2

  9
$UCSORTHOVIEW
 70
     0
  9
$UCSORGTOP
 10
0.0
 20
0.0
 30
0.0
  9
$UCSORGBOTTOM
 10
0.0
 20
0.0
 30
0.0
  9
$UCSORGLEFT
 10
0.0
 20
0.0
 30
0.0
  9
$UCSORGRIGHT
 10
0.0
 20
0.0
 30
0.0
  9
$UCSORGFRONT
 10
0.0
 20
0.0
 30
0.0
  9
$UCSORGBACK
 10
0.0
 20
0.0
 30
0.0
  9
$PUCSBASE
  2

  9
$PUCSNAME
  2

  9
$PUCSORG
 10
0.0
 20
0.0
 30
0.0
  9
$PUCSXDIR
 10
1.0
 20
0.0
 30
0.0
  9
$PUCSYDIR
 10
0.0
 20
1.0
 30
0.0
  9
$PUCSORTHOREF
  2

  9
$PUCSORTHOVIEW
 70
     0
  9
$PUCSORGTOP
 10
0.0
 20
0.0
 30
0.0
  9
$PUCSORGBOTTOM
 10
0.0
 20
0.0
 30
0.0
  9
$PUCSORGLEFT
 10
0.0
 20
0.0
 30
0.0
  9
$PUCSORGRIGHT
 10
0.0
 20
0.0
 30
0.0
  9
$PUCSORGFRONT
 10
0.0
 20
0.0
 30
0.0
  9
$PUCSORGBACK
 10
0.0
 20
0.0
 30
0.0
  9
$USERI1
 70
     0
  9
$USERI2
 70
     0
  9
$USERI3
 70
     0
  9
$USERI4
 70
     0
  9
$USERI5
 70
     0
  9
$USERR1
 40
0.0
  9
$USERR2
 40
0.0
  9
$USERR3
 40
0.0
  9
$USERR4
 40
0.0
  9
$USERR5
 40
0.0
  9
$WORLDVIEW
 70
     1
  9
$SHADEDGE
 70
     3
  9
$SHADEDIF
 70
    70
  9
$TILEMODE
 70
     1
  9
$MAXACTVP
 70
    64
  9
$PINSBASE
 10
0.0
 20
0.0
 30
0.0
  9
$PLIMCHECK
 70
     0
  9
$PEXTMIN
 10
1.000000000000000E+20
 20
1.000000000000000E+20
 30
1.000000000000000E+20
  9
$PEXTMAX
 10
-1.000000000000000E+20
 20
-1.000000000000000E+20
 30
-1.000000000000000E+20
  9
$PLIMMIN
 10
0.0
 20
0.0
  9
$PLIMMAX
 10
12.0
 20
9.0
  9
$UNITMODE
 70
     0
  9
$VISRETAIN
 70
     1
  9
$PLINEGEN
 70
     0
  9
$PSLTSCALE
 70
     1
  9
$TREEDEPTH
 70
  3020
  9
$CMLSTYLE
  2
Standard
  9
$CMLJUST
 70
     0
  9
$CMLSCALE
 40
1.0
  9
$PROXYGRAPHICS
 70
     1
  9
$MEASUREMENT
 70
     0
  9
$CELWEIGHT
370
    -1
  9
$ENDCAPS
280
     0
  9
$JOINSTYLE
280
     0
  9
$LWDISPLAY
290
     1
  9
$INSUNITS
 70
     4
  9
$HYPERLINKBASE
  1

  9
$STYLESHEET
  1

  9
$XEDIT
290
     1
  9
$CEPSNTYPE
380
     0
  9
$PSTYLEMODE
290
     1
  9
$FINGERPRINTGUID
  2
{C49C686E-95DC-4C3B-A8F9-F0E504ECB951}
  9
$VERSIONGUID
  2
{FAEB1C32-E019-11D5-929B-00C0DF256EC4}
  9
$EXTNAMES
290
     1
  9
$PSVPSCALE
 40
0.0
  9
$OLESTARTUP
290
     0
  9
$SORTENTS
280
   127
  9
$INDEXCTL
280
     0
  9
$HIDETEXT
280
     1
  9
$XCLIPFRAME
280
     2
  9
$HALOGAP
280
     0
  9
$OBSCOLOR
 70
   257
  9
$OBSLTYPE
280
     0
  9
$INTERSECTIONDISPLAY
280
     0
  9
$INTERSECTIONCOLOR
 70
   257
  9
$DIMASSOC
280
     2
  9
$PROJECTNAME
  1

  9
$CAMERADISPLAY
290
     0
  9
$LENSLENGTH
 40
50.0
  9
$CAMERAHEIGHT
 40
0.0
  9
$STEPSPERSEC
 40
2.0
  9
$STEPSIZE
 40
6.0
  9
$3DDWFPREC
 40
2.0
  9
$PSOLWIDTH
 40
0.25
  9
$PSOLHEIGHT
 40
4.0
  9
$LOFTANG1
 40
1.570796326794897
  9
$LOFTANG2
 40
1.570796326794897
  9
$LOFTMAG1
 40
0.0
  9
$LOFTMAG2
 40
0.0
  9
$LOFTPARAM
 70
     7
  9
$LOFTNORMALS
280
     1
  9
$LATITUDE
 40
37.795
  9
$LONGITUDE
 40
-122.394
  9
$NORTHDIRECTION
 40
0.0
  9
$TIMEZONE
 70
 -8000
  9
$LIGHTGLYPHDISPLAY
280
     1
  9
$TILEMODELIGHTSYNCH
280
     1
  9
$CMATERIAL
347
3C
  9
$SOLIDHIST
280
     1
  9
$SHOWHIST
280
     1
  9
$DWFFRAME
280
     2
  9
$DGNFRAME
280
     2
  9
$REALWORLDSCALE
290
     1
  9
$INTERFERECOLOR
 62
   256
  9
$CSHADOW
280
     0
  9
$SHADOWPLANELOCATION
 40
0.0
  0
ENDSEC
  0
SECTION
  2
CLASSES
  0
CLASS
  1
ACDBDICTIONARYWDFLT
  2
AcDbDictionaryWithDefault
  3
ObjectDBX Classes
 90
        0
 91
        4
280
     0
281
     0
  0
CLASS
  1
VISUALSTYLE
  2
AcDbVisualStyle
  3
ObjectDBX Classes
 90
     4095
 91
        4
280
     0
281
     0
  0
CLASS
  1
MATERIAL
  2
AcDbMaterial
  3
ObjectDBX Classes
 90
     1153
 91
        4
280
     0
281
     0
  0
CLASS
  1
SUN
  2
AcDbSun
  3
SCENEOE
 90
     1024
 91
        4
280
     0
281
     0
  0
ENDSEC
  0
SECTION
  2
TABLES
  0
TABLE
  2
VPORT
  5
8
330
0
100
AcDbSymbolTable
 70
     1
  0
VPORT
  5
29
330
8
100
AcDbSymbolTableRecord
100
AcDbViewportTableRecord
  2
*Active
 70
     0
 10
0.0
 20
0.0
 11
1.0
 21
1.0
 12
0.0
 22
0.0
 13
0.0
 23
0.0
 14
0.5
 24
0.5
 15
0.5
 25
0.5
 16
0.0
 26
0.0
 36
1.0
 17
959.99999976
 27
539.999999865
 37
0.0
 40
1079.99999973
 41
1.777777777777778
 42
50.0
 43
0.0
 44
0.0
 50
0.0
 51
0.0
 71
     0
 72
   100
 73
     1
 74
     3
 75
     0
 76
     0
 77
     0
 78
     0
281
     0
 65
     1
110
0.0
120
0.0
130
0.0
111
1.0
121
0.0
131
0.0
112
0.0
122
1.0
132
0.0
 79
     0
146
0.0
 60
     3
 61
     5
292
     1
282
     1
141
0.0
142
0.0
 63
   250
361
3F
  0
ENDTAB
  0
TABLE
  2
LTYPE
  5
5
330
0
100
AcDbSymbolTable
 70
     1
  0
LTYPE
  5
14
330
5
100
AcDbSymbolTableRecord
100
AcDbLinetypeTableRecord
  2
ByBlock
 70
     0
  3

 72
    65
 73
     0
 40
0.0
  0
LTYPE
  5
15
330
5
100
AcDbSymbolTableRecord
100
AcDbLinetypeTableRecord
  2
ByLayer
 70
     0
  3

 72
    65
 73
     0
 40
0.0
  0
LTYPE
  5
16
330
5
100
AcDbSymbolTableRecord
100
AcDbLinetypeTableRecord
  2
Continuous
 70
     0
  3
Solid line
 72
    65
 73
     0
 40
0.0
  0
ENDTAB
  0
TABLE
  2
LAYER
  5
2
330
0
100
AcDbSymbolTable
 70
     1
  0
LAYER
  5
10
330
2
100
AcDbSymbolTableRecord
100
AcDbLayerTableRecord
  2
0
 70
     0
 62
     7
  6
Continuous
370
    -3
390
F
347
3E
  0
ENDTAB
  0
TABLE
  2
STYLE
  5
3
330
0
100
AcDbSymbolTable
 70
     1
  0
STYLE
  5
11
330
3
100
AcDbSymbolTableRecord
100
AcDbTextStyleTableRecord
  2
Standard
 70
     0
 40
0.0
 41
1.0
 50
0.0
 71
     0
 42
0.2
  3
txt
  4

  0
ENDTAB
  0
TABLE
  2
VIEW
  5
6
330
0
100
AcDbSymbolTable
 70
     0
  0
ENDTAB
  0
TABLE
  2
UCS
  5
7
330
0
100
AcDbSymbolTable
 70
     0
  0
ENDTAB
  0
TABLE
  2
APPID
  5
9
330
0
100
AcDbSymbolTable
 70
     1
  0
APPID
  5
12
330
9
100
AcDbSymbolTableRecord
100
AcDbRegAppTableRecord
  2
ACAD
 70
     0
  0
ENDTAB
  0
TABLE
  2
DIMSTYLE
  5
A
330
0
100
AcDbSymbolTable
 70
     1
100
AcDbDimStyleTable
  0
DIMSTYLE
105
27
330
A
100
AcDbSymbolTableRecord
100
AcDbDimStyleTableRecord
  2
Standard
 70
     0
178
     0
340
11
  0
ENDTAB
  0
TABLE
  2
BLOCK_RECORD
  5
1
330
0
100
AcDbSymbolTable
 70
    15
  0
BLOCK_RECORD
  5
1F
330
1
100
AcDbSymbolTableRecord
100
AcDbBlockTableRecord
  2
*Model_Space
340
22
 70
     0
280
     1
281
     0
  0
BLOCK_RECORD
  5
1B
330
1
100
AcDbSymbolTableRecord
100
AcDbBlockTableRecord
  2
*Paper_Space
340
1E
 70
     0
280
     1
281
     0
  0
BLOCK_RECORD
  5
23
330
1
100
AcDbSymbolTableRecord
100
AcDbBlockTableRecord
  2
*Paper_Space0
340
26
 70
     0
280
     1
281
     0
  0
BLOCK_RECORD
  5
40
330
1
100
AcDbSymbolTableRecord
100
AcDbBlockTableRecord
  2
block 2
340
0
102
{BLKREFS
331
41
102
}
 70
     0
280
     1
281
     0
  0
BLOCK_RECORD
  5
4B
330
1
100
AcDbSymbolTableRecord
100
AcDbBlockTableRecord
  2
block 3
340
0
102
{BLKREFS
331
4C
102
}
 70
     0
280
     1
281
     0
  0
BLOCK_RECORD
  5
50
330
1
100
AcDbSymbolTableRecord
100
AcDbBlockTableRecord
  2
block 4
340
0
102
{BLKREFS
331
51
102
}
 70
     0
280
     1
281
     0
  0
BLOCK_RECORD
  5
55
330
1
100
AcDbSymbolTableRecord
100
AcDbBlockTableRecord
  2
block 5
340
0
102
{BLKREFS
331
56
102
}
 70
     0
280
     1
281
     0
  0
BLOCK_RECORD
  5
68
330
1
100
AcDbSymbolTableRecord
100
AcDbBlockTableRecord
  2
block 6
340
0
102
{BLKREFS
331
69
102
}
 70
     0
280
     1
281
     0
  0
BLOCK_RECORD
  5
6D
330
1
100
AcDbSymbolTableRecord
100
AcDbBlockTableRecord
  2
block 7
340
0
102
{BLKREFS
331
6E
102
}
 70
     0
280
     1
281
     0
  0
BLOCK_RECORD
  5
72
330
1
100
AcDbSymbolTableRecord
100
AcDbBlockTableRecord
  2
block 8
340
0
102
{BLKREFS
331
73
102
}
 70
     0
280
     1
281
     0
  0
BLOCK_RECORD
  5
77
330
1
100
AcDbSymbolTableRecord
100
AcDbBlockTableRecord
  2
block 9
340
0
102
{BLKREFS
331
78
102
}
 70
     0
280
     1
281
     0
  0
BLOCK_RECORD
  5
7C
330
1
100
AcDbSymbolTableRecord
100
AcDbBlockTableRecord
  2
block 10
340
0
102
{BLKREFS
331
7D
102
}
 70
     0
280
     1
281
     0
  0
BLOCK_RECORD
  5
81
330
1
100
AcDbSymbolTableRecord
100
AcDbBlockTableRecord
  2
block 11
340
0
102
{BLKREFS
331
82
102
}
 70
     0
280
     1
281
     0
  0
BLOCK_RECORD
  5
86
330
1
100
AcDbSymbolTableRecord
100
AcDbBlockTableRecord
  2
block 12
340
0
102
{BLKREFS
331
87
102
}
 70
     0
280
     1
281
     0
  0
BLOCK_RECORD
  5
8B
330
1
100
AcDbSymbolTableRecord
100
AcDbBlockTableRecord
  2
block 13
340
0
102
{BLKREFS
331
8C
102
}
 70
     0
280
     1
281
     0
  0
BLOCK_RECORD
  5
90
330
1
100
AcDbSymbolTableRecord
100
AcDbBlockTableRecord
  2
block 14
340
0
102
{BLKREFS
331
91
102
}
 70
     0
280
     1
281
     0
  0
BLOCK_RECORD
  5
95
330
1
100
AcDbSymbolTableRecord
100
AcDbBlockTableRecord
  2
block 15
340
0
102
{BLKREFS
331
96
102
}
 70
     0
280
     1
281
     0
  0
ENDTAB
  0
ENDSEC
  0
SECTION
  2
BLOCKS
  0
BLOCK
  5
20
330
1F
100
AcDbEntity
  8
0
100
AcDbBlockBegin
  2
*Model_Space
 70
     0
 10
0.0
 20
0.0
 30
0.0
  3
*Model_Space
  1

  0
ENDBLK
  5
21
330
1F
100
AcDbEntity
  8
0
100
AcDbBlockEnd
  0
BLOCK
  5
1C
330
1B
100
AcDbEntity
 67
     1
  8
0
100
AcDbBlockBegin
  2
*Paper_Space
 70
     0
 10
0.0
 20
0.0
 30
0.0
  3
*Paper_Space
  1

  0
ENDBLK
  5
1D
330
1B
100
AcDbEntity
 67
     1
  8
0
100
AcDbBlockEnd
  0
BLOCK
  5
24
330
23
100
AcDbEntity
  8
0
100
AcDbBlockBegin
  2
*Paper_Space0
 70
     0
 10
0.0
 20
0.0
 30
0.0
  3
*Paper_Space0
  1

  0
ENDBLK
  5
25
330
23
100
AcDbEntity
  8
0
100
AcDbBlockEnd
  0
BLOCK
  5
42
330
40
100
AcDbEntity
  8
0
100
AcDbBlockBegin
  2
block 2
 70
     0
 10
0.0
 20
0.0
 30
0.0
  3
block 2
  1

  0
POLYLINE
  5
44
330
40
100
AcDbEntity
  8
0
 62
     7
420
 16777215
370
    25
100
AcDb2dPolyline
 66
     1
 10
0.0
 20
0.0
 30
0.0
  0
VERTEX
  5
45
330
44
100
AcDbEntity
  8
0
 62
     7
420
 16777215
370
    25
100
AcDbVertex
100
AcDb2dVertex
 10
820.152219216083
 20
520.6529311059494
 30
0.0
  0
VERTEX
  5
46
330
44
100
AcDbEntity
  8
0
 62
     7
420
 16777215
370
    25
100
AcDbVertex
100
AcDb2dVertex
 10
820.152219216083
 20
544.9529310998755
 30
0.0
  0
VERTEX
  5
47
330
44
100
AcDbEntity
  8
0
 62
     7
420
 16777215
370
    25
100
AcDbVertex
100
AcDb2dVertex
 10
812.5522192179836
 20
544.9529310998755
 30
0.0
  0
VERTEX
  5
48
330
44
100
AcDbEntity
  8
0
 62
     7
420
 16777215
370
    25
100
AcDbVertex
100
AcDb2dVertex
 10
812.5522192179836
 20
520.6529311059512
 30
0.0
  0
VERTEX
  5
49
330
44
100
AcDbEntity
  8
0
 62
     7
420
 16777215
370
    25
100
AcDbVertex
100
AcDb2dVertex
 10
820.152219216083
 20
520.6529311059494
 30
0.0
  0
SEQEND
  5
4A
330
44
100
AcDbEntity
  8
0
 62
     7
420
 16777215
370
    25
  0
ENDBLK
  5
43
330
40
100
AcDbEntity
  8
0
100
AcDbBlockEnd
  0
BLOCK
  5
4D
330
4B
100
AcDbEntity
  8
0
100
AcDbBlockBegin
  2
block 3
 70
     0
 10
0.0
 20
0.0
 30
0.0
  3
block 3
  1

  0
SPLINE
  5
4F
330
4B
100
AcDbEntity
  8
0
 62
     7
420
 16777215
370
    25
100
AcDbSpline
210
0.0
220
0.0
230
1.0
 70
    11
 71
     3
 72
    32
 73
    28
 74
     0
 42
0.0000000001
 43
0.0000000001
 12
1.0
 22
0.0
 32
0.0
 13
1.0
 23
0.0
 33
0.0
 40
0.0
 40
0.0
 40
0.0
 40
0.0
 40
1.0
 40
1.0
 40
1.0
 40
2.0
 40
2.0
 40
2.0
 40
3.0
 40
3.0
 40
3.0
 40
4.0
 40
4.0
 40
4.0
 40
5.0
 40
5.0
 40
5.0
 40
6.0
 40
6.0
 40
6.0
 40
7.0
 40
7.0
 40
7.0
 40
8.0
 40
8.0
 40
8.0
 40
9.0
 40
9.0
 40
9.0
 40
9.0
 10
813.4741349203231
 20
573.2593740249764
 30
0.0
 10
813.4741349203231
 20
573.2593740249764
 30
0.0
 10
832.5241349155608
 20
573.2593740249764
 30
0.0
 10
832.5241349155608
 20
573.2593740249764
 30
0.0
 10
832.5241349155608
 20
573.2593740249764
 30
0.0
 10
832.5241349155608
 20
554.2093740297388
 30
0.0
 10
832.5241349155608
 20
554.2093740297388
 30
0.0
 10
832.5241349155608
 20
554.2093740297388
 30
0.0
 10
852.5241349105607
 20
554.2093740297388
 30
0.0
 10
852.5241349105607
 20
554.2093740297388
 30
0.0
 10
852.5241349105607
 20
554.2093740297388
 30
0.0
 10
852.5241349105607
 20
573.2593740249764
 30
0.0
 10
852.5241349105607
 20
573.2593740249764
 30
0.0
 10
852.5241349105607
 20
573.2593740249764
 30
0.0
 10
871.5741349057985
 20
573.2593740249764
 30
0.0
 10
871.5741349057985
 20
573.2593740249764
 30
0.0
 10
871.5741349057985
 20
573.2593740249764
 30
0.0
 10
871.5741349057985
 20
593.2593740199765
 30
0.0
 10
871.5741349057985
 20
593.2593740199765
 30
0.0
 10
871.5741349057985
 20
593.2593740199765
 30
0.0
 10
814.5115614591657
 20
593.2593740199765
 30
0.0
 10
814.5115614591657
 20
593.2593740199765
 30
0.0
 10
814.5115614591657
 20
593.2594049203309
 30
0.0
 10
813.4741349203231
 20
593.2594049203309
 30
0.0
 10
813.4741349203231
 20
593.2594049203309
 30
0.0
 10
813.4741349203231
 20
593.2594049203309
 30
0.0
 10
813.4741349203231
 20
573.2593740249764
 30
0.0
 10
813.4741349203231
 20
573.2593740249764
 30
0.0
  0
ENDBLK
  5
4E
330
4B
100
AcDbEntity
  8
0
100
AcDbBlockEnd
  0
BLOCK
  5
52
330
50
100
AcDbEntity
  8
0
100
AcDbBlockBegin
  2
block 4
 70
     0
 10
0.0
 20
0.0
 30
0.0
  3
block 4
  1

  0
SPLINE
  5
54
330
50
100
AcDbEntity
  8
0
 62
     7
420
 16777215
370
    25
100
AcDbSpline
210
0.0
220
0.0
230
1.0
 70
    11
 71
     3
 72
    29
 73
    25
 74
     0
 42
0.0000000001
 43
0.0000000001
 12
1.0
 22
0.0
 32
0.0
 13
1.0
 23
0.0
 33
0.0
 40
0.0
 40
0.0
 40
0.0
 40
0.0
 40
1.0
 40
1.0
 40
1.0
 40
2.0
 40
2.0
 40
2.0
 40
3.0
 40
3.0
 40
3.0
 40
4.0
 40
4.0
 40
4.0
 40
5.0
 40
5.0
 40
5.0
 40
6.0
 40
6.0
 40
6.0
 40
7.0
 40
7.0
 40
7.0
 40
8.0
 40
8.0
 40
8.0
 40
8.0
 10
1114.988438055572
 20
479.2155948115507
 30
0.0
 10
1114.988438055572
 20
479.2155948115507
 30
0.0
 10
805.0115614644275
 20
479.2155948115507
 30
0.0
 10
805.0115614644275
 20
479.2155948115507
 30
0.0
 10
802.2501377159634
 20
479.2155948115507
 30
0.0
 10
800.0115614656775
 20
481.4541710618367
 30
0.0
 10
800.0115614656775
 20
484.2155948103007
 30
0.0
 10
800.0115614656775
 20
484.2155948103007
 30
0.0
 10
800.0115614656775
 20
595.7844049196992
 30
0.0
 10
800.0115614656775
 20
595.7844049196992
 30
0.0
 10
800.0115614656775
 20
598.5458286681633
 30
0.0
 10
802.2501377159634
 20
600.7844049184492
 30
0.0
 10
805.0115614644275
 20
600.7844049184492
 30
0.0
 10
805.0115614644275
 20
600.7844049184492
 30
0.0
 10
1114.988438055572
 20
600.7844049184492
 30
0.0
 10
1114.988438055572
 20
600.7844049184492
 30
0.0
 10
1117.749861804037
 20
600.7844049184492
 30
0.0
 10
1119.988438054323
 20
598.5458286681633
 30
0.0
 10
1119.988438054323
 20
595.7844049196992
 30
0.0
 10
1119.988438054323
 20
595.7844049196992
 30
0.0
 10
1119.988438054323
 20
484.2155948103007
 30
0.0
 10
1119.988438054323
 20
484.2155948103007
 30
0.0
 10
1119.988438054323
 20
481.4541710618367
 30
0.0
 10
1117.749861804037
 20
479.2155948115507
 30
0.0
 10
1114.988438055572
 20
479.2155948115507
 30
0.0
  0
ENDBLK
  5
53
330
50
100
AcDbEntity
  8
0
100
AcDbBlockEnd
  0
BLOCK
  5
57
330
55
100
AcDbEntity
  8
0
100
AcDbBlockBegin
  2
block 5
 70
     0
 10
0.0
 20
0.0
 30
0.0
  3
block 5
  1

  0
POLYLINE
  5
59
330
55
100
AcDbEntity
  8
0
 62
     7
420
 16777215
370
    25
100
AcDb2dPolyline
 66
     1
 10
0.0
 20
0.0
 30
0.0
  0
VERTEX
  5
5A
330
59
100
AcDbEntity
  8
0
 62
     7
420
 16777215
370
    25
100
AcDbVertex
100
AcDb2dVertex
 10
1090.174438061776
 20
588.4968740211673
 30
0.0
  0
VERTEX
  5
5B
330
59
100
AcDbEntity
  8
0
 62
     7
420
 16777215
370
    25
100
AcDbVertex
100
AcDb2dVertex
 10
1090.174438061776
 20
568.971874026048
 30
0.0
  0
VERTEX
  5
5C
330
59
100
AcDbEntity
  8
0
 62
     7
420
 16777215
370
    25
100
AcDbVertex
100
AcDb2dVertex
 10
1080.649438064157
 20
568.971874026048
 30
0.0
  0
VERTEX
  5
5D
330
59
100
AcDbEntity
  8
0
 62
     7
420
 16777215
370
    25
100
AcDbVertex
100
AcDb2dVertex
 10
1080.649438064157
 20
588.4968740211673
 30
0.0
  0
VERTEX
  5
5E
330
59
100
AcDbEntity
  8
0
 62
     7
420
 16777215
370
    25
100
AcDbVertex
100
AcDb2dVertex
 10
875.3866349048453
 20
588.4968740211673
 30
0.0
  0
VERTEX
  5
5F
330
59
100
AcDbEntity
  8
0
 62
     7
420
 16777215
370
    25
100
AcDbVertex
100
AcDb2dVertex
 10
875.3866349048453
 20
569.4468740259296
 30
0.0
  0
VERTEX
  5
60
330
59
100
AcDbEntity
  8
0
 62
     7
420
 16777215
370
    25
100
AcDbVertex
100
AcDb2dVertex
 10
856.3366349096077
 20
569.4468740259296
 30
0.0
  0
VERTEX
  5
61
330
59
100
AcDbEntity
  8
0
 62
     7
420
 16777215
370
    25
100
AcDbVertex
100
AcDb2dVertex
 10
856.3366349096077
 20
550.3968740306918
 30
0.0
  0
VERTEX
  5
62
330
59
100
AcDbEntity
  8
0
 62
     7
420
 16777215
370
    25
100
AcDbVertex
100
AcDb2dVertex
 10
827.7616349167516
 20
550.3968740306918
 30
0.0
  0
VERTEX
  5
63
330
59
100
AcDbEntity
  8
0
 62
     7
420
 16777215
370
    25
100
AcDbVertex
100
AcDb2dVertex
 10
827.7616349167516
 20
492.2968740452165
 30
0.0
  0
VERTEX
  5
64
330
59
100
AcDbEntity
  8
0
 62
     7
420
 16777215
370
    25
100
AcDbVertex
100
AcDb2dVertex
 10
1114.463438055704
 20
492.2968740452165
 30
0.0
  0
VERTEX
  5
65
330
59
100
AcDbEntity
  8
0
 62
     7
420
 16777215
370
    25
100
AcDbVertex
100
AcDb2dVertex
 10
1114.463438055704
 20
588.4968740211673
 30
0.0
  0
VERTEX
  5
66
330
59
100
AcDbEntity
  8
0
 62
     7
420
 16777215
370
    25
100
AcDbVertex
100
AcDb2dVertex
 10
1090.174438061776
 20
588.4968740211673
 30
0.0
  0
SEQEND
  5
67
330
59
100
AcDbEntity
  8
0
 62
     7
420
 16777215
370
    25
  0
ENDBLK
  5
58
330
55
100
AcDbEntity
  8
0
100
AcDbBlockEnd
  0
BLOCK
  5
6A
330
68
100
AcDbEntity
  8
0
100
AcDbBlockBegin
  2
block 6
 70
     0
 10
0.0
 20
0.0
 30
0.0
  3
block 6
  1

  0
SPLINE
  5
6C
330
68
100
AcDbEntity
  8
0
 62
     7
420
 16777215
370
    25
100
AcDbSpline
210
0.0
220
0.0
230
1.0
 70
    11
 71
     3
 72
    20
 73
    16
 74
     0
 42
0.0000000001
 43
0.0000000001
 12
1.0
 22
0.0
 32
0.0
 13
1.0
 23
0.0
 33
0.0
 40
0.0
 40
0.0
 40
0.0
 40
0.0
 40
1.0
 40
1.0
 40
1.0
 40
2.0
 40
2.0
 40
2.0
 40
3.0
 40
3.0
 40
3.0
 40
4.0
 40
4.0
 40
4.0
 40
5.0
 40
5.0
 40
5.0
 40
5.0
 10
807.3303967755116
 20
502.2842114810584
 30
0.0
 10
807.3303967755116
 20
507.254774228294
 30
0.0
 10
811.359834026027
 20
511.2842114788084
 30
0.0
 10
816.3303967732616
 20
511.2842114788084
 30
0.0
 10
821.3009595204953
 20
511.2842114788084
 30
0.0
 10
825.3303967710116
 20
507.254774228294
 30
0.0
 10
825.3303967710116
 20
502.2842114810584
 30
0.0
 10
825.3303967710116
 20
497.3136487338247
 30
0.0
 10
821.3009595204953
 20
493.2842114833084
 30
0.0
 10
816.3303967732616
 20
493.2842114833084
 30
0.0
 10
811.359834026027
 20
493.2842114833084
 30
0.0
 10
807.3303967755116
 20
497.3136487338247
 30
0.0
 10
807.3303967755116
 20
502.2842114810584
 30
0.0
 10
807.3303967755116
 20
502.2842114810584
 30
0.0
 10
807.3303967755116
 20
502.2842114810584
 30
0.0
 10
807.3303967755116
 20
502.2842114810584
 30
0.0
  0
ENDBLK
  5
6B
330
68
100
AcDbEntity
  8
0
100
AcDbBlockEnd
  0
BLOCK
  5
6F
330
6D
100
AcDbEntity
  8
0
100
AcDbBlockBegin
  2
block 7
 70
     0
 10
0.0
 20
0.0
 30
0.0
  3
block 7
  1

  0
SPLINE
  5
71
330
6D
100
AcDbEntity
  8
0
 62
     7
420
 16777215
370
    25
100
AcDbSpline
210
0.0
220
0.0
230
1.0
 70
    11
 71
     3
 72
    20
 73
    16
 74
     0
 42
0.0000000001
 43
0.0000000001
 12
1.0
 22
0.0
 32
0.0
 13
1.0
 23
0.0
 33
0.0
 40
0.0
 40
0.0
 40
0.0
 40
0.0
 40
1.0
 40
1.0
 40
1.0
 40
2.0
 40
2.0
 40
2.0
 40
3.0
 40
3.0
 40
3.0
 40
4.0
 40
4.0
 40
4.0
 40
5.0
 40
5.0
 40
5.0
 40
5.0
 10
1113.413438055966
 20
596.2594049195809
 30
0.0
 10
1113.413438055966
 20
596.8393039067578
 30
0.0
 10
1113.883539068527
 20
597.3094049193186
 30
0.0
 10
1114.463438055704
 20
597.3094049193186
 30
0.0
 10
1115.043337042881
 20
597.3094049193186
 30
0.0
 10
1115.513438055441
 20
596.8393039067578
 30
0.0
 10
1115.513438055441
 20
596.2594049195809
 30
0.0
 10
1115.513438055441
 20
595.6795059324039
 30
0.0
 10
1115.043337042881
 20
595.2094049198432
 30
0.0
 10
1114.463438055704
 20
595.2094049198432
 30
0.0
 10
1113.883539068527
 20
595.2094049198432
 30
0.0
 10
1113.413438055966
 20
595.6795059324039
 30
0.0
 10
1113.413438055966
 20
596.2594049195809
 30
0.0
 10
1113.413438055966
 20
596.2594049195809
 30
0.0
 10
1113.413438055966
 20
596.2594049195809
 30
0.0
 10
1113.413438055966
 20
596.2594049195809
 30
0.0
  0
ENDBLK
  5
70
330
6D
100
AcDbEntity
  8
0
100
AcDbBlockEnd
  0
BLOCK
  5
74
330
72
100
AcDbEntity
  8
0
100
AcDbBlockBegin
  2
block 8
 70
     0
 10
0.0
 20
0.0
 30
0.0
  3
block 8
  1

  0
SPLINE
  5
76
330
72
100
AcDbEntity
  8
0
 62
     7
420
 16777215
370
    25
100
AcDbSpline
210
0.0
220
0.0
230
1.0
 70
    11
 71
     3
 72
    20
 73
    16
 74
     0
 42
0.0000000001
 43
0.0000000001
 12
1.0
 22
0.0
 32
0.0
 13
1.0
 23
0.0
 33
0.0
 40
0.0
 40
0.0
 40
0.0
 40
0.0
 40
1.0
 40
1.0
 40
1.0
 40
2.0
 40
2.0
 40
2.0
 40
3.0
 40
3.0
 40
3.0
 40
4.0
 40
4.0
 40
4.0
 40
5.0
 40
5.0
 40
5.0
 40
5.0
 10
804.4865614645581
 20
483.7405948104191
 30
0.0
 10
804.4865614645581
 20
484.3204937975961
 30
0.0
 10
804.9566624771188
 20
484.7905948101577
 30
0.0
 10
805.5365614642958
 20
484.7905948101577
 30
0.0
 10
806.1164604514728
 20
484.7905948101577
 30
0.0
 10
806.5865614640335
 20
484.3204937975961
 30
0.0
 10
806.5865614640335
 20
483.7405948104191
 30
0.0
 10
806.5865614640335
 20
483.1606958232422
 30
0.0
 10
806.1164604514728
 20
482.6905948106823
 30
0.0
 10
805.5365614642958
 20
482.6905948106823
 30
0.0
 10
804.9566624771188
 20
482.6905948106823
 30
0.0
 10
804.4865614645581
 20
483.1606958232422
 30
0.0
 10
804.4865614645581
 20
483.7405948104191
 30
0.0
 10
804.4865614645581
 20
483.7405948104191
 30
0.0
 10
804.4865614645581
 20
483.7405948104191
 30
0.0
 10
804.4865614645581
 20
483.7405948104191
 30
0.0
  0
ENDBLK
  5
75
330
72
100
AcDbEntity
  8
0
100
AcDbBlockEnd
  0
BLOCK
  5
79
330
77
100
AcDbEntity
  8
0
100
AcDbBlockBegin
  2
block 9
 70
     0
 10
0.0
 20
0.0
 30
0.0
  3
block 9
  1

  0
SPLINE
  5
7B
330
77
100
AcDbEntity
  8
0
 62
     7
420
 16777215
370
    25
100
AcDbSpline
210
0.0
220
0.0
230
1.0
 70
    11
 71
     3
 72
    20
 73
    16
 74
     0
 42
0.0000000001
 43
0.0000000001
 12
1.0
 22
0.0
 32
0.0
 13
1.0
 23
0.0
 33
0.0
 40
0.0
 40
0.0
 40
0.0
 40
0.0
 40
1.0
 40
1.0
 40
1.0
 40
2.0
 40
2.0
 40
2.0
 40
3.0
 40
3.0
 40
3.0
 40
4.0
 40
4.0
 40
4.0
 40
5.0
 40
5.0
 40
5.0
 40
5.0
 10
1113.413438055966
 20
483.7405948104191
 30
0.0
 10
1113.413438055966
 20
484.3204937975961
 30
0.0
 10
1113.883539068527
 20
484.7905948101577
 30
0.0
 10
1114.463438055704
 20
484.7905948101577
 30
0.0
 10
1115.043337042881
 20
484.7905948101577
 30
0.0
 10
1115.513438055441
 20
484.3204937975961
 30
0.0
 10
1115.513438055441
 20
483.7405948104191
 30
0.0
 10
1115.513438055441
 20
483.1606958232422
 30
0.0
 10
1115.043337042881
 20
482.6905948106823
 30
0.0
 10
1114.463438055704
 20
482.6905948106823
 30
0.0
 10
1113.883539068527
 20
482.6905948106823
 30
0.0
 10
1113.413438055966
 20
483.1606958232422
 30
0.0
 10
1113.413438055966
 20
483.7405948104191
 30
0.0
 10
1113.413438055966
 20
483.7405948104191
 30
0.0
 10
1113.413438055966
 20
483.7405948104191
 30
0.0
 10
1113.413438055966
 20
483.7405948104191
 30
0.0
  0
ENDBLK
  5
7A
330
77
100
AcDbEntity
  8
0
100
AcDbBlockEnd
  0
BLOCK
  5
7E
330
7C
100
AcDbEntity
  8
0
100
AcDbBlockBegin
  2
block 10
 70
     0
 10
0.0
 20
0.0
 30
0.0
  3
block 10
  1

  0
SPLINE
  5
80
330
7C
100
AcDbEntity
  8
0
 62
     7
420
 16777215
370
    25
100
AcDbSpline
210
0.0
220
0.0
230
1.0
 70
    11
 71
     3
 72
    20
 73
    16
 74
     0
 42
0.0000000001
 43
0.0000000001
 12
1.0
 22
0.0
 32
0.0
 13
1.0
 23
0.0
 33
0.0
 40
0.0
 40
0.0
 40
0.0
 40
0.0
 40
1.0
 40
1.0
 40
1.0
 40
2.0
 40
2.0
 40
2.0
 40
3.0
 40
3.0
 40
3.0
 40
4.0
 40
4.0
 40
4.0
 40
5.0
 40
5.0
 40
5.0
 40
5.0
 10
804.4865614645581
 20
596.2594049195809
 30
0.0
 10
804.4865614645581
 20
596.8393039067578
 30
0.0
 10
804.9566624771188
 20
597.3094049193186
 30
0.0
 10
805.5365614642958
 20
597.3094049193186
 30
0.0
 10
806.1164604514728
 20
597.3094049193186
 30
0.0
 10
806.5865614640335
 20
596.8393039067578
 30
0.0
 10
806.5865614640335
 20
596.2594049195809
 30
0.0
 10
806.5865614640335
 20
595.6795059324039
 30
0.0
 10
806.1164604514728
 20
595.2094049198432
 30
0.0
 10
805.5365614642958
 20
595.2094049198432
 30
0.0
 10
804.9566624771188
 20
595.2094049198432
 30
0.0
 10
804.4865614645581
 20
595.6795059324039
 30
0.0
 10
804.4865614645581
 20
596.2594049195809
 30
0.0
 10
804.4865614645581
 20
596.2594049195809
 30
0.0
 10
804.4865614645581
 20
596.2594049195809
 30
0.0
 10
804.4865614645581
 20
596.2594049195809
 30
0.0
  0
ENDBLK
  5
7F
330
7C
100
AcDbEntity
  8
0
100
AcDbBlockEnd
  0
BLOCK
  5
83
330
81
100
AcDbEntity
  8
0
100
AcDbBlockBegin
  2
block 11
 70
     0
 10
0.0
 20
0.0
 30
0.0
  3
block 11
  1

  0
SPLINE
  5
85
330
81
100
AcDbEntity
  8
0
 62
     7
420
 16777215
370
    25
100
AcDbSpline
210
0.0
220
0.0
230
1.0
 70
    11
 71
     3
 72
    20
 73
    16
 74
     0
 42
0.0000000001
 43
0.0000000001
 12
1.0
 22
0.0
 32
0.0
 13
1.0
 23
0.0
 33
0.0
 40
0.0
 40
0.0
 40
0.0
 40
0.0
 40
1.0
 40
1.0
 40
1.0
 40
2.0
 40
2.0
 40
2.0
 40
3.0
 40
3.0
 40
3.0
 40
4.0
 40
4.0
 40
4.0
 40
5.0
 40
5.0
 40
5.0
 40
5.0
 10
1011.944218914174
 20
596.2594049195809
 30
0.0
 10
1011.944218914174
 20
596.8393039067578
 30
0.0
 10
1012.414319926734
 20
597.3094049193186
 30
0.0
 10
1012.994218913911
 20
597.3094049193186
 30
0.0
 10
1013.574117901088
 20
597.3094049193186
 30
0.0
 10
1014.044218913648
 20
596.8393039067578
 30
0.0
 10
1014.044218913648
 20
596.2594049195809
 30
0.0
 10
1014.044218913648
 20
595.6795059324039
 30
0.0
 10
1013.574117901088
 20
595.2094049198432
 30
0.0
 10
1012.994218913911
 20
595.2094049198432
 30
0.0
 10
1012.414319926734
 20
595.2094049198432
 30
0.0
 10
1011.944218914174
 20
595.6795059324039
 30
0.0
 10
1011.944218914174
 20
596.2594049195809
 30
0.0
 10
1011.944218914174
 20
596.2594049195809
 30
0.0
 10
1011.944218914174
 20
596.2594049195809
 30
0.0
 10
1011.944218914174
 20
596.2594049195809
 30
0.0
  0
ENDBLK
  5
84
330
81
100
AcDbEntity
  8
0
100
AcDbBlockEnd
  0
BLOCK
  5
88
330
86
100
AcDbEntity
  8
0
100
AcDbBlockBegin
  2
block 12
 70
     0
 10
0.0
 20
0.0
 30
0.0
  3
block 12
  1

  0
SPLINE
  5
8A
330
86
100
AcDbEntity
  8
0
 62
     7
420
 16777215
370
    25
100
AcDbSpline
210
0.0
220
0.0
230
1.0
 70
    11
 71
     3
 72
    20
 73
    16
 74
     0
 42
0.0000000001
 43
0.0000000001
 12
1.0
 22
0.0
 32
0.0
 13
1.0
 23
0.0
 33
0.0
 40
0.0
 40
0.0
 40
0.0
 40
0.0
 40
1.0
 40
1.0
 40
1.0
 40
2.0
 40
2.0
 40
2.0
 40
3.0
 40
3.0
 40
3.0
 40
4.0
 40
4.0
 40
4.0
 40
5.0
 40
5.0
 40
5.0
 40
5.0
 10
905.955780606351
 20
483.7405948104191
 30
0.0
 10
905.955780606351
 20
484.3204937975961
 30
0.0
 10
906.4258816189108
 20
484.7905948101577
 30
0.0
 10
907.0057806060887
 20
484.7905948101577
 30
0.0
 10
907.5856795932657
 20
484.7905948101577
 30
0.0
 10
908.0557806058255
 20
484.3204937975961
 30
0.0
 10
908.0557806058255
 20
483.7405948104191
 30
0.0
 10
908.0557806058255
 20
483.1606958232422
 30
0.0
 10
907.5856795932657
 20
482.6905948106823
 30
0.0
 10
907.0057806060887
 20
482.6905948106823
 30
0.0
 10
906.4258816189108
 20
482.6905948106823
 30
0.0
 10
905.955780606351
 20
483.1606958232422
 30
0.0
 10
905.955780606351
 20
483.7405948104191
 30
0.0
 10
905.955780606351
 20
483.7405948104191
 30
0.0
 10
905.955780606351
 20
483.7405948104191
 30
0.0
 10
905.955780606351
 20
483.7405948104191
 30
0.0
  0
ENDBLK
  5
89
330
86
100
AcDbEntity
  8
0
100
AcDbBlockEnd
  0
BLOCK
  5
8D
330
8B
100
AcDbEntity
  8
0
100
AcDbBlockBegin
  2
block 13
 70
     0
 10
0.0
 20
0.0
 30
0.0
  3
block 13
  1

  0
SPLINE
  5
8F
330
8B
100
AcDbEntity
  8
0
 62
     7
420
 16777215
370
    25
100
AcDbSpline
210
0.0
220
0.0
230
1.0
 70
    11
 71
     3
 72
    20
 73
    16
 74
     0
 42
0.0000000001
 43
0.0000000001
 12
1.0
 22
0.0
 32
0.0
 13
1.0
 23
0.0
 33
0.0
 40
0.0
 40
0.0
 40
0.0
 40
0.0
 40
1.0
 40
1.0
 40
1.0
 40
2.0
 40
2.0
 40
2.0
 40
3.0
 40
3.0
 40
3.0
 40
4.0
 40
4.0
 40
4.0
 40
5.0
 40
5.0
 40
5.0
 40
5.0
 10
1011.944218914174
 20
483.7405948104191
 30
0.0
 10
1011.944218914174
 20
484.3204937975961
 30
0.0
 10
1012.414319926734
 20
484.7905948101577
 30
0.0
 10
1012.994218913911
 20
484.7905948101577
 30
0.0
 10
1013.574117901088
 20
484.7905948101577
 30
0.0
 10
1014.044218913648
 20
484.3204937975961
 30
0.0
 10
1014.044218913648
 20
483.7405948104191
 30
0.0
 10
1014.044218913648
 20
483.1606958232422
 30
0.0
 10
1013.574117901088
 20
482.6905948106823
 30
0.0
 10
1012.994218913911
 20
482.6905948106823
 30
0.0
 10
1012.414319926734
 20
482.6905948106823
 30
0.0
 10
1011.944218914174
 20
483.1606958232422
 30
0.0
 10
1011.944218914174
 20
483.7405948104191
 30
0.0
 10
1011.944218914174
 20
483.7405948104191
 30
0.0
 10
1011.944218914174
 20
483.7405948104191
 30
0.0
 10
1011.944218914174
 20
483.7405948104191
 30
0.0
  0
ENDBLK
  5
8E
330
8B
100
AcDbEntity
  8
0
100
AcDbBlockEnd
  0
BLOCK
  5
92
330
90
100
AcDbEntity
  8
0
100
AcDbBlockBegin
  2
block 14
 70
     0
 10
0.0
 20
0.0
 30
0.0
  3
block 14
  1

  0
SPLINE
  5
94
330
90
100
AcDbEntity
  8
0
 62
     7
420
 16777215
370
    25
100
AcDbSpline
210
0.0
220
0.0
230
1.0
 70
    11
 71
     3
 72
    20
 73
    16
 74
     0
 42
0.0000000001
 43
0.0000000001
 12
1.0
 22
0.0
 32
0.0
 13
1.0
 23
0.0
 33
0.0
 40
0.0
 40
0.0
 40
0.0
 40
0.0
 40
1.0
 40
1.0
 40
1.0
 40
2.0
 40
2.0
 40
2.0
 40
3.0
 40
3.0
 40
3.0
 40
4.0
 40
4.0
 40
4.0
 40
5.0
 40
5.0
 40
5.0
 40
5.0
 10
905.955780606351
 20
596.2594049195809
 30
0.0
 10
905.955780606351
 20
596.8393039067578
 30
0.0
 10
906.4258816189108
 20
597.3094049193186
 30
0.0
 10
907.0057806060887
 20
597.3094049193186
 30
0.0
 10
907.5856795932657
 20
597.3094049193186
 30
0.0
 10
908.0557806058255
 20
596.8393039067578
 30
0.0
 10
908.0557806058255
 20
596.2594049195809
 30
0.0
 10
908.0557806058255
 20
595.6795059324039
 30
0.0
 10
907.5856795932657
 20
595.2094049198432
 30
0.0
 10
907.0057806060887
 20
595.2094049198432
 30
0.0
 10
906.4258816189108
 20
595.2094049198432
 30
0.0
 10
905.955780606351
 20
595.6795059324039
 30
0.0
 10
905.955780606351
 20
596.2594049195809
 30
0.0
 10
905.955780606351
 20
596.2594049195809
 30
0.0
 10
905.955780606351
 20
596.2594049195809
 30
0.0
 10
905.955780606351
 20
596.2594049195809
 30
0.0
  0
ENDBLK
  5
93
330
90
100
AcDbEntity
  8
0
100
AcDbBlockEnd
  0
BLOCK
  5
97
330
95
100
AcDbEntity
  8
0
100
AcDbBlockBegin
  2
block 15
 70
     0
 10
0.0
 20
0.0
 30
0.0
  3
block 15
  1

  0
SPLINE
  5
99
330
95
100
AcDbEntity
  8
0
 62
   240
420
 15539236
370
    35
100
AcDbSpline
210
0.0
220
0.0
230
1.0
 70
    11
 71
     3
 72
    71
 73
    67
 74
     0
 42
0.0000000001
 43
0.0000000001
 12
1.0
 22
0.0
 32
0.0
 13
1.0
 23
0.0
 33
0.0
 40
0.0
 40
0.0
 40
0.0
 40
0.0
 40
1.0
 40
1.0
 40
1.0
 40
2.0
 40
2.0
 40
2.0
 40
3.0
 40
3.0
 40
3.0
 40
4.0
 40
4.0
 40
4.0
 40
5.0
 40
5.0
 40
5.0
 40
6.0
 40
6.0
 40
6.0
 40
7.0
 40
7.0
 40
7.0
 40
8.0
 40
8.0
 40
8.0
 40
9.0
 40
9.0
 40
9.0
 40
10.0
 40
10.0
 40
10.0
 40
11.0
 40
11.0
 40
11.0
 40
12.0
 40
12.0
 40
12.0
 40
13.0
 40
13.0
 40
13.0
 40
14.0
 40
14.0
 40
14.0
 40
15.0
 40
15.0
 40
15.0
 40
16.0
 40
16.0
 40
16.0
 40
17.0
 40
17.0
 40
17.0
 40
18.0
 40
18.0
 40
18.0
 40
19.0
 40
19.0
 40
19.0
 40
20.0
 40
20.0
 40
20.0
 40
21.0
 40
21.0
 40
21.0
 40
22.0
 40
22.0
 40
22.0
 40
22.0
 10
812.9995115155001
 20
605.990868573273
 30
0.0
 10
812.9995115155001
 20
605.990868573273
 30
0.0
 10
810.948241984763
 20
614.0743646650021
 30
0.0
 10
810.948241984763
 20
614.0743646650021
 30
0.0
 10
810.948241984763
 20
614.0743646650021
 30
0.0
 10
812.051757609487
 20
614.0743646650021
 30
0.0
 10
812.051757609487
 20
614.0743646650021
 30
0.0
 10
812.051757609487
 20
614.0743646650021
 30
0.0
 10
813.0112302654971
 20
609.9845209160246
 30
0.0
 10
813.0112302654971
 20
609.9845209160246
 30
0.0
 10
813.2509763591872
 20
608.9771966975264
 30
0.0
 10
813.4672849528831
 20
607.9698724790283
 30
0.0
 10
813.6108396403473
 20
607.1900873229732
 30
0.0
 10
813.6108396403473
 20
607.1900873229732
 30
0.0
 10
813.6347654215913
 20
607.1900873229732
 30
0.0
 10
813.6347654215913
 20
607.1900873229732
 30
0.0
 10
813.7670896403082
 20
607.9937982602722
 30
0.0
 10
814.0185544839953
 20
608.9532709162823
 30
0.0
 10
814.2944333901763
 20
609.9967279472716
 30
0.0
 10
814.2944333901763
 20
609.9967279472716
 30
0.0
 10
815.3740232336564
 20
614.0743646650021
 30
0.0
 10
815.3740232336564
 20
614.0743646650021
 30
0.0
 10
815.3740232336564
 20
614.0743646650021
 30
0.0
 10
816.4653318271337
 20
614.0743646650021
 30
0.0
 10
816.4653318271337
 20
614.0743646650021
 30
0.0
 10
816.4653318271337
 20
614.0743646650021
 30
0.0
 10
817.4487302643878
 20
609.9728021660276
 30
0.0
 10
817.4487302643878
 20
609.9728021660276
 30
0.0
 10
817.6767576080808
 20
609.0133295100173
 30
0.0
 10
817.8925779205268
 20
608.0538568540072
 30
0.0
 10
818.0126951079968
 20
607.2022943542202
 30
0.0
 10
818.0126951079968
 20
607.2022943542202
 30
0.0
 10
818.0366208892408
 20
607.2022943542202
 30
0.0
 10
818.0366208892408
 20
607.2022943542202
 30
0.0
 10
818.2045896391988
 20
608.0895013852484
 30
0.0
 10
818.432128701642
 20
608.9894037287734
 30
0.0
 10
818.684081826579
 20
609.9967279472716
 30
0.0
 10
818.684081826579
 20
609.9967279472716
 30
0.0
 10
819.7514646388121
 20
614.0743646650021
 30
0.0
 10
819.7514646388121
 20
614.0743646650021
 30
0.0
 10
819.7514646388121
 20
614.0743646650021
 30
0.0
 10
820.8188474510453
 20
614.0743646650021
 30
0.0
 10
820.8188474510453
 20
614.0743646650021
 30
0.0
 10
820.8188474510453
 20
614.0743646650021
 30
0.0
 10
818.5283201078679
 20
605.990868573273
 30
0.0
 10
818.5283201078679
 20
605.990868573273
 30
0.0
 10
818.5283201078679
 20
605.990868573273
 30
0.0
 10
817.4370115143907
 20
605.990868573273
 30
0.0
 10
817.4370115143907
 20
605.990868573273
 30
0.0
 10
817.4370115143907
 20
605.990868573273
 30
0.0
 10
816.4174802646456
 20
610.2003412284706
 30
0.0
 10
816.4174802646456
 20
610.2003412284706
 30
0.0
 10
816.1655271397086
 20
611.2320795094627
 30
0.0
 10
815.9975583897506
 20
612.0235834155148
 30
0.0
 10
815.8896482335276
 20
612.839013102811
 30
0.0
 10
815.8896482335276
 20
612.839013102811
 30
0.0
 10
815.8657224522835
 20
612.839013102811
 30
0.0
 10
815.8657224522835
 20
612.839013102811
 30
0.0
 10
815.7216794835696
 20
612.0357904467618
 30
0.0
 10
815.5419919836145
 20
611.2437982594598
 30
0.0
 10
815.2421872961894
 20
610.2003412284706
 30
0.0
 10
815.2421872961894
 20
610.2003412284706
 30
0.0
 10
814.0908201089773
 20
605.990868573273
 30
0.0
 10
814.0908201089773
 20
605.990868573273
 30
0.0
 10
814.0908201089773
 20
605.990868573273
 30
0.0
 10
812.9995115155001
 20
605.990868573273
 30
0.0
 10
812.9995115155001
 20
605.990868573273
 30
0.0
  0
HATCH
  5
9A
330
95
100
AcDbEntity
  8
0
 62
   240
420
 15539236
100
AcDbHatch
 10
0.0
 20
0.0
 30
0.0
210
0.0
220
0.0
230
1.0
  2
SOLID
 70
     1
 71
     0
 91
        1
 92
        1
 93
        1
 72
     4
 94
        3
 73
     0
 74
     1
 95
       71
 96
       67
 40
0.0
 40
0.0
 40
0.0
 40
0.0
 40
1.0
 40
1.0
 40
1.0
 40
2.0
 40
2.0
 40
2.0
 40
3.0
 40
3.0
 40
3.0
 40
4.0
 40
4.0
 40
4.0
 40
5.0
 40
5.0
 40
5.0
 40
6.0
 40
6.0
 40
6.0
 40
7.0
 40
7.0
 40
7.0
 40
8.0
 40
8.0
 40
8.0
 40
9.0
 40
9.0
 40
9.0
 40
10.0
 40
10.0
 40
10.0
 40
11.0
 40
11.0
 40
11.0
 40
12.0
 40
12.0
 40
12.0
 40
13.0
 40
13.0
 40
13.0
 40
14.0
 40
14.0
 40
14.0
 40
15.0
 40
15.0
 40
15.0
 40
16.0
 40
16.0
 40
16.0
 40
17.0
 40
17.0
 40
17.0
 40
18.0
 40
18.0
 40
18.0
 40
19.0
 40
19.0
 40
19.0
 40
20.0
 40
20.0
 40
20.0
 40
21.0
 40
21.0
 40
21.0
 40
22.0
 40
22.0
 40
22.0
 40
22.0
 10
812.9995115155001
 20
605.990868573273
 10
812.9995115155001
 20
605.990868573273
 10
810.948241984763
 20
614.0743646650021
 10
810.948241984763
 20
614.0743646650021
 10
810.948241984763
 20
614.0743646650021
 10
812.051757609487
 20
614.0743646650021
 10
812.051757609487
 20
614.0743646650021
 10
812.051757609487
 20
614.0743646650021
 10
813.0112302654971
 20
609.9845209160246
 10
813.0112302654971
 20
609.9845209160246
 10
813.2509763591872
 20
608.9771966975264
 10
813.4672849528831
 20
607.9698724790283
 10
813.6108396403473
 20
607.1900873229732
 10
813.6108396403473
 20
607.1900873229732
 10
813.6347654215913
 20
607.1900873229732
 10
813.6347654215913
 20
607.1900873229732
 10
813.7670896403082
 20
607.9937982602722
 10
814.0185544839953
 20
608.9532709162823
 10
814.2944333901763
 20
609.9967279472716
 10
814.2944333901763
 20
609.9967279472716
 10
815.3740232336564
 20
614.0743646650021
 10
815.3740232336564
 20
614.0743646650021
 10
815.3740232336564
 20
614.0743646650021
 10
816.4653318271337
 20
614.0743646650021
 10
816.4653318271337
 20
614.0743646650021
 10
816.4653318271337
 20
614.0743646650021
 10
817.4487302643878
 20
609.9728021660276
 10
817.4487302643878
 20
609.9728021660276
 10
817.6767576080808
 20
609.0133295100173
 10
817.8925779205268
 20
608.0538568540072
 10
818.0126951079968
 20
607.2022943542202
 10
818.0126951079968
 20
607.2022943542202
 10
818.0366208892408
 20
607.2022943542202
 10
818.0366208892408
 20
607.2022943542202
 10
818.2045896391988
 20
608.0895013852484
 10
818.432128701642
 20
608.9894037287734
 10
818.684081826579
 20
609.9967279472716
 10
818.684081826579
 20
609.9967279472716
 10
819.7514646388121
 20
614.0743646650021
 10
819.7514646388121
 20
614.0743646650021
 10
819.7514646388121
 20
614.0743646650021
 10
820.8188474510453
 20
614.0743646650021
 10
820.8188474510453
 20
614.0743646650021
 10
820.8188474510453
 20
614.0743646650021
 10
818.5283201078679
 20
605.990868573273
 10
818.5283201078679
 20
605.990868573273
 10
818.5283201078679
 20
605.990868573273
 10
817.4370115143907
 20
605.990868573273
 10
817.4370115143907
 20
605.990868573273
 10
817.4370115143907
 20
605.990868573273
 10
816.4174802646456
 20
610.2003412284706
 10
816.4174802646456
 20
610.2003412284706
 10
816.1655271397086
 20
611.2320795094627
 10
815.9975583897506
 20
612.0235834155148
 10
815.8896482335276
 20
612.839013102811
 10
815.8896482335276
 20
612.839013102811
 10
815.8657224522835
 20
612.839013102811
 10
815.8657224522835
 20
612.839013102811
 10
815.7216794835696
 20
612.0357904467618
 10
815.5419919836145
 20
611.2437982594598
 10
815.2421872961894
 20
610.2003412284706
 10
815.2421872961894
 20
610.2003412284706
 10
814.0908201089773
 20
605.990868573273
 10
814.0908201089773
 20
605.990868573273
 10
814.0908201089773
 20
605.990868573273
 10
812.9995115155001
 20
605.990868573273
 10
812.9995115155001
 20
605.990868573273
 97
        0
 97
        0
 75
     2
 76
     1
 98
        0
  0
SPLINE
  5
9B
330
95
100
AcDbEntity
  8
0
 62
   240
420
 15539236
370
    35
100
AcDbSpline
210
0.0
220
0.0
230
1.0
 70
    11
 71
     3
 72
    47
 73
    43
 74
     0
 42
0.0000000001
 43
0.0000000001
 12
1.0
 22
0.0
 32
0.0
 13
1.0
 23
0.0
 33
0.0
 40
0.0
 40
0.0
 40
0.0
 40
0.0
 40
1.0
 40
1.0
 40
1.0
 40
2.0
 40
2.0
 40
2.0
 40
3.0
 40
3.0
 40
3.0
 40
4.0
 40
4.0
 40
4.0
 40
5.0
 40
5.0
 40
5.0
 40
6.0
 40
6.0
 40
6.0
 40
7.0
 40
7.0
 40
7.0
 40
8.0
 40
8.0
 40
8.0
 40
9.0
 40
9.0
 40
9.0
 40
10.0
 40
10.0
 40
10.0
 40
11.0
 40
11.0
 40
11.0
 40
12.0
 40
12.0
 40
12.0
 40
13.0
 40
13.0
 40
13.0
 40
14.0
 40
14.0
 40
14.0
 40
14.0
 10
821.832031044542
 20
614.0743646650021
 30
0.0
 10
821.832031044542
 20
614.0743646650021
 30
0.0
 10
822.8754880755312
 20
614.0743646650021
 30
0.0
 10
822.8754880755312
 20
614.0743646650021
 30
0.0
 10
822.8754880755312
 20
614.0743646650021
 30
0.0
 10
822.8754880755312
 20
610.1764154472266
 30
0.0
 10
822.8754880755312
 20
610.1764154472266
 30
0.0
 10
822.8754880755312
 20
610.1764154472266
 30
0.0
 10
822.9111326067722
 20
610.1764154472266
 30
0.0
 10
822.9111326067722
 20
610.1764154472266
 30
0.0
 10
823.1269529192183
 20
610.4884271658987
 30
0.0
 10
823.3432615129142
 20
610.7760248220767
 30
0.0
 10
823.5468747941133
 20
611.0401849782606
 30
0.0
 10
823.5468747941133
 20
611.0401849782606
 30
0.0
 10
826.0175779184956
 20
614.0743646650021
 30
0.0
 10
826.0175779184956
 20
614.0743646650021
 30
0.0
 10
826.0175779184956
 20
614.0743646650021
 30
0.0
 10
827.3129880744217
 20
614.0743646650021
 30
0.0
 10
827.3129880744217
 20
614.0743646650021
 30
0.0
 10
827.3129880744217
 20
614.0743646650021
 30
0.0
 10
824.3867185439033
 20
610.6441888846097
 30
0.0
 10
824.3867185439033
 20
610.6441888846097
 30
0.0
 10
824.3867185439033
 20
610.6441888846097
 30
0.0
 10
827.5410154181147
 20
605.990868573273
 30
0.0
 10
827.5410154181147
 20
605.990868573273
 30
0.0
 10
827.5410154181147
 20
605.990868573273
 30
0.0
 10
826.3056638559235
 20
605.990868573273
 30
0.0
 10
826.3056638559235
 20
605.990868573273
 30
0.0
 10
826.3056638559235
 20
605.990868573273
 30
0.0
 10
823.6430662003393
 20
609.9605951347805
 30
0.0
 10
823.6430662003393
 20
609.9605951347805
 30
0.0
 10
823.6430662003393
 20
609.9605951347805
 30
0.0
 10
822.8754880755312
 20
609.0733881037523
 30
0.0
 10
822.8754880755312
 20
609.0733881037523
 30
0.0
 10
822.8754880755312
 20
609.0733881037523
 30
0.0
 10
822.8754880755312
 20
605.990868573273
 30
0.0
 10
822.8754880755312
 20
605.990868573273
 30
0.0
 10
822.8754880755312
 20
605.990868573273
 30
0.0
 10
821.832031044542
 20
605.990868573273
 30
0.0
 10
821.832031044542
 20
605.990868573273
 30
0.0
 10
821.832031044542
 20
605.990868573273
 30
0.0
 10
821.832031044542
 20
614.0743646650021
 30
0.0
 10
821.832031044542
 20
614.0743646650021
 30
0.0
  0
HATCH
  5
9C
330
95
100
AcDbEntity
  8
0
 62
   240
420
 15539236
100
AcDbHatch
 10
0.0
 20
0.0
 30
0.0
210
0.0
220
0.0
230
1.0
  2
SOLID
 70
     1
 71
     0
 91
        1
 92
        1
 93
        1
 72
     4
 94
        3
 73
     0
 74
     1
 95
       47
 96
       43
 40
0.0
 40
0.0
 40
0.0
 40
0.0
 40
1.0
 40
1.0
 40
1.0
 40
2.0
 40
2.0
 40
2.0
 40
3.0
 40
3.0
 40
3.0
 40
4.0
 40
4.0
 40
4.0
 40
5.0
 40
5.0
 40
5.0
 40
6.0
 40
6.0
 40
6.0
 40
7.0
 40
7.0
 40
7.0
 40
8.0
 40
8.0
 40
8.0
 40
9.0
 40
9.0
 40
9.0
 40
10.0
 40
10.0
 40
10.0
 40
11.0
 40
11.0
 40
11.0
 40
12.0
 40
12.0
 40
12.0
 40
13.0
 40
13.0
 40
13.0
 40
14.0
 40
14.0
 40
14.0
 40
14.0
 10
821.832031044542
 20
614.0743646650021
 10
821.832031044542
 20
614.0743646650021
 10
822.8754880755312
 20
614.0743646650021
 10
822.8754880755312
 20
614.0743646650021
 10
822.8754880755312
 20
614.0743646650021
 10
822.8754880755312
 20
610.1764154472266
 10
822.8754880755312
 20
610.1764154472266
 10
822.8754880755312
 20
610.1764154472266
 10
822.9111326067722
 20
610.1764154472266
 10
822.9111326067722
 20
610.1764154472266
 10
823.1269529192183
 20
610.4884271658987
 10
823.3432615129142
 20
610.7760248220767
 10
823.5468747941133
 20
611.0401849782606
 10
823.5468747941133
 20
611.0401849782606
 10
826.0175779184956
 20
614.0743646650021
 10
826.0175779184956
 20
614.0743646650021
 10
826.0175779184956
 20
614.0743646650021
 10
827.3129880744217
 20
614.0743646650021
 10
827.3129880744217
 20
614.0743646650021
 10
827.3129880744217
 20
614.0743646650021
 10
824.3867185439033
 20
610.6441888846097
 10
824.3867185439033
 20
610.6441888846097
 10
824.3867185439033
 20
610.6441888846097
 10
827.5410154181147
 20
605.990868573273
 10
827.5410154181147
 20
605.990868573273
 10
827.5410154181147
 20
605.990868573273
 10
826.3056638559235
 20
605.990868573273
 10
826.3056638559235
 20
605.990868573273
 10
826.3056638559235
 20
605.990868573273
 10
823.6430662003393
 20
609.9605951347805
 10
823.6430662003393
 20
609.9605951347805
 10
823.6430662003393
 20
609.9605951347805
 10
822.8754880755312
 20
609.0733881037523
 10
822.8754880755312
 20
609.0733881037523
 10
822.8754880755312
 20
609.0733881037523
 10
822.8754880755312
 20
605.990868573273
 10
822.8754880755312
 20
605.990868573273
 10
822.8754880755312
 20
605.990868573273
 10
821.832031044542
 20
605.990868573273
 10
821.832031044542
 20
605.990868573273
 10
821.832031044542
 20
605.990868573273
 10
821.832031044542
 20
614.0743646650021
 10
821.832031044542
 20
614.0743646650021
 97
        0
 97
        0
 75
     2
 76
     1
 98
        0
  0
POLYLINE
  5
9D
330
95
100
AcDbEntity
  8
0
 62
   240
420
 15539236
370
    35
100
AcDb2dPolyline
 66
     1
 10
0.0
 20
0.0
 30
0.0
  0
VERTEX
  5
9E
330
9D
100
AcDbEntity
  8
0
 62
   240
420
 15539236
370
    35
100
AcDbVertex
100
AcDb2dVertex
 10
828.335937292916
 20
614.0743646650021
 30
0.0
  0
VERTEX
  5
9F
330
9D
100
AcDbEntity
  8
0
 62
   240
420
 15539236
370
    35
100
AcDbVertex
100
AcDb2dVertex
 10
829.3793943239051
 20
614.0743646650021
 30
0.0
  0
VERTEX
  5
A0
330
9D
100
AcDbEntity
  8
0
 62
   240
420
 15539236
370
    35
100
AcDbVertex
100
AcDb2dVertex
 10
829.3793943239051
 20
606.8663568543042
 30
0.0
  0
VERTEX
  5
A1
330
9D
100
AcDbEntity
  8
0
 62
   240
420
 15539236
370
    35
100
AcDbVertex
100
AcDb2dVertex
 10
832.8334958855417
 20
606.8663568543042
 30
0.0
  0
VERTEX
  5
A2
330
9D
100
AcDbEntity
  8
0
 62
   240
420
 15539236
370
    35
100
AcDbVertex
100
AcDb2dVertex
 10
832.8334958855417
 20
605.990868573273
 30
0.0
  0
VERTEX
  5
A3
330
9D
100
AcDbEntity
  8
0
 62
   240
420
 15539236
370
    35
100
AcDbVertex
100
AcDb2dVertex
 10
828.335937292916
 20
605.990868573273
 30
0.0
  0
VERTEX
  5
A4
330
9D
100
AcDbEntity
  8
0
 62
   240
420
 15539236
370
    35
100
AcDbVertex
100
AcDb2dVertex
 10
828.335937292916
 20
614.0743646650021
 30
0.0
  0
SEQEND
  5
A5
330
9D
100
AcDbEntity
  8
0
 62
   240
420
 15539236
370
    35
  0
HATCH
  5
A6
330
95
100
AcDbEntity
  8
0
 62
   240
420
 15539236
100
AcDbHatch
 10
0.0
 20
0.0
 30
0.0
210
0.0
220
0.0
230
1.0
  2
SOLID
 70
     1
 71
     0
 91
        1
 92
        1
 93
        6
 72
     1
 10
828.335937292916
 20
614.0743646650021
 11
829.3793943239051
 21
614.0743646650021
 72
     1
 10
829.3793943239051
 20
614.0743646650021
 11
829.3793943239051
 21
606.8663568543042
 72
     1
 10
829.3793943239051
 20
606.8663568543042
 11
832.8334958855417
 21
606.8663568543042
 72
     1
 10
832.8334958855417
 20
606.8663568543042
 11
832.8334958855417
 21
605.990868573273
 72
     1
 10
832.8334958855417
 20
605.990868573273
 11
828.335937292916
 21
605.990868573273
 72
     1
 10
828.335937292916
 20
605.990868573273
 11
828.335937292916
 21
614.0743646650021
 97
        0
 75
     2
 76
     1
 98
        0
  0
POLYLINE
  5
A7
330
95
100
AcDbEntity
  8
0
 62
   240
420
 15539236
370
    35
100
AcDb2dPolyline
 66
     1
 10
0.0
 20
0.0
 30
0.0
  0
VERTEX
  5
A8
330
A7
100
AcDbEntity
  8
0
 62
   240
420
 15539236
370
    35
100
AcDbVertex
100
AcDb2dVertex
 10
836.5434568221141
 20
614.0743646650021
 30
0.0
  0
VERTEX
  5
A9
330
A7
100
AcDbEntity
  8
0
 62
   240
420
 15539236
370
    35
100
AcDbVertex
100
AcDb2dVertex
 10
837.5869138531033
 20
614.0743646650021
 30
0.0
  0
VERTEX
  5
AA
330
A7
100
AcDbEntity
  8
0
 62
   240
420
 15539236
370
    35
100
AcDbVertex
100
AcDb2dVertex
 10
837.5869138531033
 20
606.8663568543042
 30
0.0
  0
VERTEX
  5
AB
330
A7
100
AcDbEntity
  8
0
 62
   240
420
 15539236
370
    35
100
AcDbVertex
100
AcDb2dVertex
 10
841.0410154147397
 20
606.8663568543042
 30
0.0
  0
VERTEX
  5
AC
330
A7
100
AcDbEntity
  8
0
 62
   240
420
 15539236
370
    35
100
AcDbVertex
100
AcDb2dVertex
 10
841.0410154147397
 20
605.990868573273
 30
0.0
  0
VERTEX
  5
AD
330
A7
100
AcDbEntity
  8
0
 62
   240
420
 15539236
370
    35
100
AcDbVertex
100
AcDb2dVertex
 10
836.5434568221141
 20
605.990868573273
 30
0.0
  0
VERTEX
  5
AE
330
A7
100
AcDbEntity
  8
0
 62
   240
420
 15539236
370
    35
100
AcDbVertex
100
AcDb2dVertex
 10
836.5434568221141
 20
614.0743646650021
 30
0.0
  0
SEQEND
  5
AF
330
A7
100
AcDbEntity
  8
0
 62
   240
420
 15539236
370
    35
  0
HATCH
  5
B0
330
95
100
AcDbEntity
  8
0
 62
   240
420
 15539236
100
AcDbHatch
 10
0.0
 20
0.0
 30
0.0
210
0.0
220
0.0
230
1.0
  2
SOLID
 70
     1
 71
     0
 91
        1
 92
        1
 93
        6
 72
     1
 10
836.5434568221141
 20
614.0743646650021
 11
837.5869138531033
 21
614.0743646650021
 72
     1
 10
837.5869138531033
 20
614.0743646650021
 11
837.5869138531033
 21
606.8663568543042
 72
     1
 10
837.5869138531033
 20
606.8663568543042
 11
841.0410154147397
 21
606.8663568543042
 72
     1
 10
841.0410154147397
 20
606.8663568543042
 11
841.0410154147397
 21
605.990868573273
 72
     1
 10
841.0410154147397
 20
605.990868573273
 11
836.5434568221141
 21
605.990868573273
 72
     1
 10
836.5434568221141
 20
605.990868573273
 11
836.5434568221141
 21
614.0743646650021
 97
        0
 75
     2
 76
     1
 98
        0
  0
POLYLINE
  5
B1
330
95
100
AcDbEntity
  8
0
 62
   240
420
 15539236
370
    35
100
AcDb2dPolyline
 66
     1
 10
0.0
 20
0.0
 30
0.0
  0
VERTEX
  5
B2
330
B1
100
AcDbEntity
  8
0
 62
   240
420
 15539236
370
    35
100
AcDbVertex
100
AcDb2dVertex
 10
844.1264646327184
 20
612.8033685715699
 30
0.0
  0
VERTEX
  5
B3
330
B1
100
AcDbEntity
  8
0
 62
   240
420
 15539236
370
    35
100
AcDbVertex
100
AcDb2dVertex
 10
844.1025388514744
 20
612.8033685715699
 30
0.0
  0
VERTEX
  5
B4
330
B1
100
AcDbEntity
  8
0
 62
   240
420
 15539236
370
    35
100
AcDbVertex
100
AcDb2dVertex
 10
842.7470701018132
 20
612.0714349780029
 30
0.0
  0
VERTEX
  5
B5
330
B1
100
AcDbEntity
  8
0
 62
   240
420
 15539236
370
    35
100
AcDbVertex
100
AcDb2dVertex
 10
842.5429685393642
 20
612.8751459153019
 30
0.0
  0
VERTEX
  5
B6
330
B1
100
AcDbEntity
  8
0
 62
   240
420
 15539236
370
    35
100
AcDbVertex
100
AcDb2dVertex
 10
844.2460935389385
 20
613.7867670088241
 30
0.0
  0
VERTEX
  5
B7
330
B1
100
AcDbEntity
  8
0
 62
   240
420
 15539236
370
    35
100
AcDbVertex
100
AcDb2dVertex
 10
845.1459958824635
 20
613.7867670088241
 30
0.0
  0
VERTEX
  5
B8
330
B1
100
AcDbEntity
  8
0
 62
   240
420
 15539236
370
    35
100
AcDbVertex
100
AcDb2dVertex
 10
845.1459958824635
 20
605.990868573273
 30
0.0
  0
VERTEX
  5
B9
330
B1
100
AcDbEntity
  8
0
 62
   240
420
 15539236
370
    35
100
AcDbVertex
100
AcDb2dVertex
 10
844.1264646327184
 20
605.990868573273
 30
0.0
  0
VERTEX
  5
BA
330
B1
100
AcDbEntity
  8
0
 62
   240
420
 15539236
370
    35
100
AcDbVertex
100
AcDb2dVertex
 10
844.1264646327184
 20
612.8033685715699
 30
0.0
  0
SEQEND
  5
BB
330
B1
100
AcDbEntity
  8
0
 62
   240
420
 15539236
370
    35
  0
HATCH
  5
BC
330
95
100
AcDbEntity
  8
0
 62
   240
420
 15539236
100
AcDbHatch
 10
0.0
 20
0.0
 30
0.0
210
0.0
220
0.0
230
1.0
  2
SOLID
 70
     1
 71
     0
 91
        1
 92
        1
 93
        8
 72
     1
 10
844.1264646327184
 20
612.8033685715699
 11
844.1025388514744
 21
612.8033685715699
 72
     1
 10
844.1025388514744
 20
612.8033685715699
 11
842.7470701018132
 21
612.0714349780029
 72
     1
 10
842.7470701018132
 20
612.0714349780029
 11
842.5429685393642
 21
612.8751459153019
 72
     1
 10
842.5429685393642
 20
612.8751459153019
 11
844.2460935389385
 21
613.7867670088241
 72
     1
 10
844.2460935389385
 20
613.7867670088241
 11
845.1459958824635
 21
613.7867670088241
 72
     1
 10
845.1459958824635
 20
613.7867670088241
 11
845.1459958824635
 21
605.990868573273
 72
     1
 10
845.1459958824635
 20
605.990868573273
 11
844.1264646327184
 21
605.990868573273
 72
     1
 10
844.1264646327184
 20
605.990868573273
 11
844.1264646327184
 21
612.8033685715699
 97
        0
 75
     2
 76
     1
 98
        0
  0
SPLINE
  5
BD
330
95
100
AcDbEntity
  8
0
 62
   240
420
 15539236
370
    35
100
AcDbSpline
210
0.0
220
0.0
230
1.0
 70
    11
 71
     3
 72
    47
 73
    43
 74
     0
 42
0.0000000001
 43
0.0000000001
 12
1.0
 22
0.0
 32
0.0
 13
1.0
 23
0.0
 33
0.0
 40
0.0
 40
0.0
 40
0.0
 40
0.0
 40
1.0
 40
1.0
 40
1.0
 40
2.0
 40
2.0
 40
2.0
 40
3.0
 40
3.0
 40
3.0
 40
4.0
 40
4.0
 40
4.0
 40
5.0
 40
5.0
 40
5.0
 40
6.0
 40
6.0
 40
6.0
 40
7.0
 40
7.0
 40
7.0
 40
8.0
 40
8.0
 40
8.0
 40
9.0
 40
9.0
 40
9.0
 40
10.0
 40
10.0
 40
10.0
 40
11.0
 40
11.0
 40
11.0
 40
12.0
 40
12.0
 40
12.0
 40
13.0
 40
13.0
 40
13.0
 40
14.0
 40
14.0
 40
14.0
 40
14.0
 10
850.7631833810592
 20
607.2623529479552
 30
0.0
 10
851.2309568184422
 20
606.9742670105271
 30
0.0
 10
851.9145505682714
 20
606.7345209168371
 30
0.0
 10
852.6342771305914
 20
606.7345209168371
 30
0.0
 10
853.7016599428246
 20
606.7345209168371
 30
0.0
 10
854.3251950989187
 20
607.2979974791962
 30
0.0
 10
854.3251950989187
 20
608.1139154477422
 30
0.0
 10
854.3251950989187
 20
608.8692865413034
 30
0.0
 10
853.8935544740266
 20
609.3009271661955
 30
0.0
 10
852.8022458805494
 20
609.7208490410906
 30
0.0
 10
851.4829099433792
 20
610.1886224784736
 30
0.0
 10
850.6669919748332
 20
610.8722162283027
 30
0.0
 10
850.6669919748332
 20
612.0113763842679
 30
0.0
 10
850.6669919748332
 20
613.270653727703
 30
0.0
 10
851.7104490058224
 20
614.2062006024692
 30
0.0
 10
853.2817380679295
 20
614.2062006024692
 30
0.0
 10
854.1093747864726
 20
614.2062006024692
 30
0.0
 10
854.7089841613227
 20
614.0143060712671
 30
0.0
 10
855.0688474424828
 20
613.8106927900681
 30
0.0
 10
855.0688474424828
 20
613.8106927900681
 30
0.0
 10
854.7807615050548
 20
612.959130290281
 30
0.0
 10
854.7807615050548
 20
612.959130290281
 30
0.0
 10
854.5170896301207
 20
613.103173258995
 30
0.0
 10
853.9775388490056
 20
613.342919352685
 30
0.0
 10
853.2456052554386
 20
613.342919352685
 30
0.0
 10
852.1425779119643
 20
613.342919352685
 30
0.0
 10
851.7226560370693
 20
612.6832513840999
 30
0.0
 10
851.7226560370693
 20
612.1314935717378
 30
0.0
 10
851.7226560370693
 20
611.3761224781767
 30
0.0
 10
852.2143552556964
 20
611.0040521657697
 30
0.0
 10
853.3295896304176
 20
610.5724115408776
 30
0.0
 10
854.6972654113257
 20
610.0445795097596
 30
0.0
 10
855.3925779111519
 20
609.3849115411745
 30
0.0
 10
855.3925779111519
 20
608.1978998227213
 30
0.0
 10
855.3925779111519
 20
606.9503412292831
 30
0.0
 10
854.4692380676327
 20
605.870751385803
 30
0.0
 10
852.5620115056095
 20
605.870751385803
 30
0.0
 10
851.7827146308043
 20
605.870751385803
 30
0.0
 10
850.9311521310171
 20
606.0987787294961
 30
0.0
 10
850.4995115061251
 20
606.386864666924
 30
0.0
 10
850.4995115061251
 20
606.386864666924
 30
0.0
 10
850.7631833810592
 20
607.2623529479552
 30
0.0
 10
850.7631833810592
 20
607.2623529479552
 30
0.0
  0
HATCH
  5
BE
330
95
100
AcDbEntity
  8
0
 62
   240
420
 15539236
100
AcDbHatch
 10
0.0
 20
0.0
 30
0.0
210
0.0
220
0.0
230
1.0
  2
SOLID
 70
     1
 71
     0
 91
        1
 92
        1
 93
        1
 72
     4
 94
        3
 73
     0
 74
     1
 95
       47
 96
       43
 40
0.0
 40
0.0
 40
0.0
 40
0.0
 40
1.0
 40
1.0
 40
1.0
 40
2.0
 40
2.0
 40
2.0
 40
3.0
 40
3.0
 40
3.0
 40
4.0
 40
4.0
 40
4.0
 40
5.0
 40
5.0
 40
5.0
 40
6.0
 40
6.0
 40
6.0
 40
7.0
 40
7.0
 40
7.0
 40
8.0
 40
8.0
 40
8.0
 40
9.0
 40
9.0
 40
9.0
 40
10.0
 40
10.0
 40
10.0
 40
11.0
 40
11.0
 40
11.0
 40
12.0
 40
12.0
 40
12.0
 40
13.0
 40
13.0
 40
13.0
 40
14.0
 40
14.0
 40
14.0
 40
14.0
 10
850.7631833810592
 20
607.2623529479552
 10
851.2309568184422
 20
606.9742670105271
 10
851.9145505682714
 20
606.7345209168371
 10
852.6342771305914
 20
606.7345209168371
 10
853.7016599428246
 20
606.7345209168371
 10
854.3251950989187
 20
607.2979974791962
 10
854.3251950989187
 20
608.1139154477422
 10
854.3251950989187
 20
608.8692865413034
 10
853.8935544740266
 20
609.3009271661955
 10
852.8022458805494
 20
609.7208490410906
 10
851.4829099433792
 20
610.1886224784736
 10
850.6669919748332
 20
610.8722162283027
 10
850.6669919748332
 20
612.0113763842679
 10
850.6669919748332
 20
613.270653727703
 10
851.7104490058224
 20
614.2062006024692
 10
853.2817380679295
 20
614.2062006024692
 10
854.1093747864726
 20
614.2062006024692
 10
854.7089841613227
 20
614.0143060712671
 10
855.0688474424828
 20
613.8106927900681
 10
855.0688474424828
 20
613.8106927900681
 10
854.7807615050548
 20
612.959130290281
 10
854.7807615050548
 20
612.959130290281
 10
854.5170896301207
 20
613.103173258995
 10
853.9775388490056
 20
613.342919352685
 10
853.2456052554386
 20
613.342919352685
 10
852.1425779119643
 20
613.342919352685
 10
851.7226560370693
 20
612.6832513840999
 10
851.7226560370693
 20
612.1314935717378
 10
851.7226560370693
 20
611.3761224781767
 10
852.2143552556964
 20
611.0040521657697
 10
853.3295896304176
 20
610.5724115408776
 10
854.6972654113257
 20
610.0445795097596
 10
855.3925779111519
 20
609.3849115411745
 10
855.3925779111519
 20
608.1978998227213
 10
855.3925779111519
 20
606.9503412292831
 10
854.4692380676327
 20
605.870751385803
 10
852.5620115056095
 20
605.870751385803
 10
851.7827146308043
 20
605.870751385803
 10
850.9311521310171
 20
606.0987787294961
 10
850.4995115061251
 20
606.386864666924
 10
850.4995115061251
 20
606.386864666924
 10
850.7631833810592
 20
607.2623529479552
 10
850.7631833810592
 20
607.2623529479552
 97
        0
 97
        0
 75
     2
 76
     1
 98
        0
  0
SPLINE
  5
BF
330
95
100
AcDbEntity
  8
0
 62
   240
420
 15539236
370
    35
100
AcDbSpline
210
0.0
220
0.0
230
1.0
 70
    11
 71
     3
 72
    56
 73
    52
 74
     0
 42
0.0000000001
 43
0.0000000001
 12
1.0
 22
0.0
 32
0.0
 13
1.0
 23
0.0
 33
0.0
 40
0.0
 40
0.0
 40
0.0
 40
0.0
 40
1.0
 40
1.0
 40
1.0
 40
2.0
 40
2.0
 40
2.0
 40
3.0
 40
3.0
 40
3.0
 40
4.0
 40
4.0
 40
4.0
 40
5.0
 40
5.0
 40
5.0
 40
6.0
 40
6.0
 40
6.0
 40
7.0
 40
7.0
 40
7.0
 40
8.0
 40
8.0
 40
8.0
 40
9.0
 40
9.0
 40
9.0
 40
10.0
 40
10.0
 40
10.0
 40
11.0
 40
11.0
 40
11.0
 40
12.0
 40
12.0
 40
12.0
 40
13.0
 40
13.0
 40
13.0
 40
14.0
 40
14.0
 40
14.0
 40
15.0
 40
15.0
 40
15.0
 40
16.0
 40
16.0
 40
16.0
 40
17.0
 40
17.0
 40
17.0
 40
17.0
 10
858.0224607229943
 20
613.462548258905
 30
0.0
 10
858.0224607229943
 20
613.462548258905
 30
0.0
 10
858.0224607229943
 20
611.7955560718218
 30
0.0
 10
858.0224607229943
 20
611.7955560718218
 30
0.0
 10
858.0224607229943
 20
611.7955560718218
 30
0.0
 10
859.5336911913665
 20
611.7955560718218
 30
0.0
 10
859.5336911913665
 20
611.7955560718218
 30
0.0
 10
859.5336911913665
 20
611.7955560718218
 30
0.0
 10
859.5336911913665
 20
610.9923334157727
 30
0.0
 10
859.5336911913665
 20
610.9923334157727
 30
0.0
 10
859.5336911913665
 20
610.9923334157727
 30
0.0
 10
858.0224607229943
 20
610.9923334157727
 30
0.0
 10
858.0224607229943
 20
610.9923334157727
 30
0.0
 10
858.0224607229943
 20
610.9923334157727
 30
0.0
 10
858.0224607229943
 20
607.8619623228052
 30
0.0
 10
858.0224607229943
 20
607.8619623228052
 30
0.0
 10
858.0224607229943
 20
607.1422357604852
 30
0.0
 10
858.2260740041935
 20
606.7345209168371
 30
0.0
 10
858.8139646290465
 20
606.7345209168371
 30
0.0
 10
859.0898435352275
 20
606.7345209168371
 30
0.0
 10
859.2934568164267
 20
606.770653729328
 30
0.0
 10
859.4257810351436
 20
606.8062982605692
 30
0.0
 10
859.4257810351436
 20
606.8062982605692
 30
0.0
 10
859.4736325976315
 20
606.014794354517
 30
0.0
 10
859.4736325976315
 20
606.014794354517
 30
0.0
 10
859.2695310351826
 20
605.930809979538
 30
0.0
 10
858.9458005665135
 20
605.870751385803
 30
0.0
 10
858.5380857228655
 20
605.870751385803
 30
0.0
 10
858.0463865042384
 20
605.870751385803
 30
0.0
 10
857.6503904105874
 20
606.0270013857639
 30
0.0
 10
857.3984372856504
 20
606.3145990419421
 30
0.0
 10
857.0986325982253
 20
606.6266107606141
 30
0.0
 10
856.9907224420023
 20
607.1422357604852
 30
0.0
 10
856.9907224420023
 20
607.8258295103143
 30
0.0
 10
856.9907224420023
 20
607.8258295103143
 30
0.0
 10
856.9907224420023
 20
610.9923334157727
 30
0.0
 10
856.9907224420023
 20
610.9923334157727
 30
0.0
 10
856.9907224420023
 20
610.9923334157727
 30
0.0
 10
856.0913083797271
 20
610.9923334157727
 30
0.0
 10
856.0913083797271
 20
610.9923334157727
 30
0.0
 10
856.0913083797271
 20
610.9923334157727
 30
0.0
 10
856.0913083797271
 20
611.7955560718218
 30
0.0
 10
856.0913083797271
 20
611.7955560718218
 30
0.0
 10
856.0913083797271
 20
611.7955560718218
 30
0.0
 10
856.9907224420023
 20
611.7955560718218
 30
0.0
 10
856.9907224420023
 20
611.7955560718218
 30
0.0
 10
856.9907224420023
 20
611.7955560718218
 30
0.0
 10
856.9907224420023
 20
613.1871576339739
 30
0.0
 10
856.9907224420023
 20
613.1871576339739
 30
0.0
 10
856.9907224420023
 20
613.1871576339739
 30
0.0
 10
858.0224607229943
 20
613.462548258905
 30
0.0
 10
858.0224607229943
 20
613.462548258905
 30
0.0
  0
HATCH
  5
C0
330
95
100
AcDbEntity
  8
0
 62
   240
420
 15539236
100
AcDbHatch
 10
0.0
 20
0.0
 30
0.0
210
0.0
220
0.0
230
1.0
  2
SOLID
 70
     1
 71
     0
 91
        1
 92
        1
 93
        1
 72
     4
 94
        3
 73
     0
 74
     1
 95
       56
 96
       52
 40
0.0
 40
0.0
 40
0.0
 40
0.0
 40
1.0
 40
1.0
 40
1.0
 40
2.0
 40
2.0
 40
2.0
 40
3.0
 40
3.0
 40
3.0
 40
4.0
 40
4.0
 40
4.0
 40
5.0
 40
5.0
 40
5.0
 40
6.0
 40
6.0
 40
6.0
 40
7.0
 40
7.0
 40
7.0
 40
8.0
 40
8.0
 40
8.0
 40
9.0
 40
9.0
 40
9.0
 40
10.0
 40
10.0
 40
10.0
 40
11.0
 40
11.0
 40
11.0
 40
12.0
 40
12.0
 40
12.0
 40
13.0
 40
13.0
 40
13.0
 40
14.0
 40
14.0
 40
14.0
 40
15.0
 40
15.0
 40
15.0
 40
16.0
 40
16.0
 40
16.0
 40
17.0
 40
17.0
 40
17.0
 40
17.0
 10
858.0224607229943
 20
613.462548258905
 10
858.0224607229943
 20
613.462548258905
 10
858.0224607229943
 20
611.7955560718218
 10
858.0224607229943
 20
611.7955560718218
 10
858.0224607229943
 20
611.7955560718218
 10
859.5336911913665
 20
611.7955560718218
 10
859.5336911913665
 20
611.7955560718218
 10
859.5336911913665
 20
611.7955560718218
 10
859.5336911913665
 20
610.9923334157727
 10
859.5336911913665
 20
610.9923334157727
 10
859.5336911913665
 20
610.9923334157727
 10
858.0224607229943
 20
610.9923334157727
 10
858.0224607229943
 20
610.9923334157727
 10
858.0224607229943
 20
610.9923334157727
 10
858.0224607229943
 20
607.8619623228052
 10
858.0224607229943
 20
607.8619623228052
 10
858.0224607229943
 20
607.1422357604852
 10
858.2260740041935
 20
606.7345209168371
 10
858.8139646290465
 20
606.7345209168371
 10
859.0898435352275
 20
606.7345209168371
 10
859.2934568164267
 20
606.770653729328
 10
859.4257810351436
 20
606.8062982605692
 10
859.4257810351436
 20
606.8062982605692
 10
859.4736325976315
 20
606.014794354517
 10
859.4736325976315
 20
606.014794354517
 10
859.2695310351826
 20
605.930809979538
 10
858.9458005665135
 20
605.870751385803
 10
858.5380857228655
 20
605.870751385803
 10
858.0463865042384
 20
605.870751385803
 10
857.6503904105874
 20
606.0270013857639
 10
857.3984372856504
 20
606.3145990419421
 10
857.0986325982253
 20
606.6266107606141
 10
856.9907224420023
 20
607.1422357604852
 10
856.9907224420023
 20
607.8258295103143
 10
856.9907224420023
 20
607.8258295103143
 10
856.9907224420023
 20
610.9923334157727
 10
856.9907224420023
 20
610.9923334157727
 10
856.9907224420023
 20
610.9923334157727
 10
856.0913083797271
 20
610.9923334157727
 10
856.0913083797271
 20
610.9923334157727
 10
856.0913083797271
 20
610.9923334157727
 10
856.0913083797271
 20
611.7955560718218
 10
856.0913083797271
 20
611.7955560718218
 10
856.0913083797271
 20
611.7955560718218
 10
856.9907224420023
 20
611.7955560718218
 10
856.9907224420023
 20
611.7955560718218
 10
856.9907224420023
 20
611.7955560718218
 10
856.9907224420023
 20
613.1871576339739
 10
856.9907224420023
 20
613.1871576339739
 10
856.9907224420023
 20
613.1871576339739
 10
858.0224607229943
 20
613.462548258905
 10
858.0224607229943
 20
613.462548258905
 97
        0
 97
        0
 75
     2
 76
     1
 98
        0
  0
SPLINE
  5
C1
330
95
100
AcDbEntity
  8
0
 62
   240
420
 15539236
370
    35
100
AcDbSpline
210
0.0
220
0.0
230
1.0
 70
    11
 71
     3
 72
    44
 73
    40
 74
     0
 42
0.0000000001
 43
0.0000000001
 12
1.0
 22
0.0
 32
0.0
 13
1.0
 23
0.0
 33
0.0
 40
0.0
 40
0.0
 40
0.0
 40
0.0
 40
1.0
 40
1.0
 40
1.0
 40
2.0
 40
2.0
 40
2.0
 40
3.0
 40
3.0
 40
3.0
 40
4.0
 40
4.0
 40
4.0
 40
5.0
 40
5.0
 40
5.0
 40
6.0
 40
6.0
 40
6.0
 40
7.0
 40
7.0
 40
7.0
 40
8.0
 40
8.0
 40
8.0
 40
9.0
 40
9.0
 40
9.0
 40
10.0
 40
10.0
 40
10.0
 40
11.0
 40
11.0
 40
11.0
 40
12.0
 40
12.0
 40
12.0
 40
13.0
 40
13.0
 40
13.0
 40
13.0
 10
860.7231443160692
 20
609.9845209160246
 30
0.0
 10
860.7231443160692
 20
610.6681146658538
 30
0.0
 10
860.7109372848222
 20
611.2560052907068
 30
0.0
 10
860.6752927535812
 20
611.7955560718218
 30
0.0
 10
860.6752927535812
 20
611.7955560718218
 30
0.0
 10
861.5986325971003
 20
611.7955560718218
 30
0.0
 10
861.5986325971003
 20
611.7955560718218
 30
0.0
 10
861.5986325971003
 20
611.7955560718218
 30
0.0
 10
861.6347654095913
 20
610.6563959158566
 30
0.0
 10
861.6347654095913
 20
610.6563959158566
 30
0.0
 10
861.6347654095913
 20
610.6563959158566
 30
0.0
 10
861.6826169720794
 20
610.6563959158566
 30
0.0
 10
861.6826169720794
 20
610.6563959158566
 30
0.0
 10
861.9462888470134
 20
611.4356927906618
 30
0.0
 10
862.5820310343545
 20
611.9273920092888
 30
0.0
 10
863.2895505654276
 20
611.9273920092888
 30
0.0
 10
863.4096677528976
 20
611.9273920092888
 30
0.0
 10
863.4936521278765
 20
611.9156732592918
 30
0.0
 10
863.5898435341026
 20
611.8917474780478
 30
0.0
 10
863.5898435341026
 20
611.8917474780478
 30
0.0
 10
863.5898435341026
 20
610.8961420095467
 30
0.0
 10
863.5898435341026
 20
610.8961420095467
 30
0.0
 10
863.4814450966296
 20
610.9200677907907
 30
0.0
 10
863.3735349404066
 20
610.9322748220377
 30
0.0
 10
863.2299802529425
 20
610.9322748220377
 30
0.0
 10
862.4863279093784
 20
610.9322748220377
 30
0.0
 10
861.9584958782604
 20
610.3683099784287
 30
0.0
 10
861.8144529095464
 20
609.5768060723765
 30
0.0
 10
861.7905271283023
 20
609.4327631036625
 30
0.0
 10
861.7666013470583
 20
609.2652826349544
 30
0.0
 10
861.7666013470583
 20
609.0851068537495
 30
0.0
 10
861.7666013470583
 20
609.0851068537495
 30
0.0
 10
861.7666013470583
 20
605.990868573273
 30
0.0
 10
861.7666013470583
 20
605.990868573273
 30
0.0
 10
861.7666013470583
 20
605.990868573273
 30
0.0
 10
860.7231443160692
 20
605.990868573273
 30
0.0
 10
860.7231443160692
 20
605.990868573273
 30
0.0
 10
860.7231443160692
 20
605.990868573273
 30
0.0
 10
860.7231443160692
 20
609.9845209160246
 30
0.0
 10
860.7231443160692
 20
609.9845209160246
 30
0.0
  0
HATCH
  5
C2
330
95
100
AcDbEntity
  8
0
 62
   240
420
 15539236
100
AcDbHatch
 10
0.0
 20
0.0
 30
0.0
210
0.0
220
0.0
230
1.0
  2
SOLID
 70
     1
 71
     0
 91
        1
 92
        1
 93
        1
 72
     4
 94
        3
 73
     0
 74
     1
 95
       44
 96
       40
 40
0.0
 40
0.0
 40
0.0
 40
0.0
 40
1.0
 40
1.0
 40
1.0
 40
2.0
 40
2.0
 40
2.0
 40
3.0
 40
3.0
 40
3.0
 40
4.0
 40
4.0
 40
4.0
 40
5.0
 40
5.0
 40
5.0
 40
6.0
 40
6.0
 40
6.0
 40
7.0
 40
7.0
 40
7.0
 40
8.0
 40
8.0
 40
8.0
 40
9.0
 40
9.0
 40
9.0
 40
10.0
 40
10.0
 40
10.0
 40
11.0
 40
11.0
 40
11.0
 40
12.0
 40
12.0
 40
12.0
 40
13.0
 40
13.0
 40
13.0
 40
13.0
 10
860.7231443160692
 20
609.9845209160246
 10
860.7231443160692
 20
610.6681146658538
 10
860.7109372848222
 20
611.2560052907068
 10
860.6752927535812
 20
611.7955560718218
 10
860.6752927535812
 20
611.7955560718218
 10
861.5986325971003
 20
611.7955560718218
 10
861.5986325971003
 20
611.7955560718218
 10
861.5986325971003
 20
611.7955560718218
 10
861.6347654095913
 20
610.6563959158566
 10
861.6347654095913
 20
610.6563959158566
 10
861.6347654095913
 20
610.6563959158566
 10
861.6826169720794
 20
610.6563959158566
 10
861.6826169720794
 20
610.6563959158566
 10
861.9462888470134
 20
611.4356927906618
 10
862.5820310343545
 20
611.9273920092888
 10
863.2895505654276
 20
611.9273920092888
 10
863.4096677528976
 20
611.9273920092888
 10
863.4936521278765
 20
611.9156732592918
 10
863.5898435341026
 20
611.8917474780478
 10
863.5898435341026
 20
611.8917474780478
 10
863.5898435341026
 20
610.8961420095467
 10
863.5898435341026
 20
610.8961420095467
 10
863.4814450966296
 20
610.9200677907907
 10
863.3735349404066
 20
610.9322748220377
 10
863.2299802529425
 20
610.9322748220377
 10
862.4863279093784
 20
610.9322748220377
 10
861.9584958782604
 20
610.3683099784287
 10
861.8144529095464
 20
609.5768060723765
 10
861.7905271283023
 20
609.4327631036625
 10
861.7666013470583
 20
609.2652826349544
 10
861.7666013470583
 20
609.0851068537495
 10
861.7666013470583
 20
609.0851068537495
 10
861.7666013470583
 20
605.990868573273
 10
861.7666013470583
 20
605.990868573273
 10
861.7666013470583
 20
605.990868573273
 10
860.7231443160692
 20
605.990868573273
 10
860.7231443160692
 20
605.990868573273
 10
860.7231443160692
 20
605.990868573273
 10
860.7231443160692
 20
609.9845209160246
 10
860.7231443160692
 20
609.9845209160246
 97
        0
 97
        0
 75
     2
 76
     1
 98
        0
  0
SPLINE
  5
C3
330
95
100
AcDbEntity
  8
0
 62
   240
420
 15539236
370
    35
100
AcDbSpline
210
0.0
220
0.0
230
1.0
 70
    11
 71
     3
 72
    47
 73
    43
 74
     0
 42
0.0000000001
 43
0.0000000001
 12
1.0
 22
0.0
 32
0.0
 13
1.0
 23
0.0
 33
0.0
 40
0.0
 40
0.0
 40
0.0
 40
0.0
 40
1.0
 40
1.0
 40
1.0
 40
2.0
 40
2.0
 40
2.0
 40
3.0
 40
3.0
 40
3.0
 40
4.0
 40
4.0
 40
4.0
 40
5.0
 40
5.0
 40
5.0
 40
6.0
 40
6.0
 40
6.0
 40
7.0
 40
7.0
 40
7.0
 40
8.0
 40
8.0
 40
8.0
 40
9.0
 40
9.0
 40
9.0
 40
10.0
 40
10.0
 40
10.0
 40
11.0
 40
11.0
 40
11.0
 40
12.0
 40
12.0
 40
12.0
 40
13.0
 40
13.0
 40
13.0
 40
14.0
 40
14.0
 40
14.0
 40
14.0
 10
867.8017575955496
 20
605.990868573273
 30
0.0
 10
867.8017575955496
 20
605.990868573273
 30
0.0
 10
867.7177732205705
 20
606.7223138855901
 30
0.0
 10
867.7177732205705
 20
606.7223138855901
 30
0.0
 10
867.7177732205705
 20
606.7223138855901
 30
0.0
 10
867.6816404080796
 20
606.7223138855901
 30
0.0
 10
867.6816404080796
 20
606.7223138855901
 30
0.0
 10
867.3579099394105
 20
606.266747479454
 30
0.0
 10
866.7343747833164
 20
605.859032635806
 30
0.0
 10
865.9067380647733
 20
605.859032635806
 30
0.0
 10
864.7314450963171
 20
605.859032635806
 30
0.0
 10
864.131835721467
 20
606.6866693543491
 30
0.0
 10
864.131835721467
 20
607.5260248228892
 30
0.0
 10
864.131835721467
 20
608.9293451350384
 30
0.0
 10
865.3789060336553
 20
609.6969232598465
 30
0.0
 10
867.6215818143446
 20
609.6847162285995
 30
0.0
 10
867.6215818143446
 20
609.6847162285995
 30
0.0
 10
867.6215818143446
 20
609.8048334160695
 30
0.0
 10
867.6215818143446
 20
609.8048334160695
 30
0.0
 10
867.6215818143446
 20
610.2843256034496
 30
0.0
 10
867.4897458768776
 20
611.1480951344837
 30
0.0
 10
866.3027341584243
 20
611.1480951344837
 30
0.0
 10
865.7626950960594
 20
611.1480951344837
 30
0.0
 10
865.1992185337002
 20
610.9801263845256
 30
0.0
 10
864.7915036900521
 20
610.7164545095916
 30
0.0
 10
864.7915036900521
 20
610.7164545095916
 30
0.0
 10
864.5512693151121
 20
611.4117670094178
 30
0.0
 10
864.5512693151121
 20
611.4117670094178
 30
0.0
 10
865.0312497837422
 20
611.7237787280898
 30
0.0
 10
865.7265622835683
 20
611.9273920092888
 30
0.0
 10
866.4584958771353
 20
611.9273920092888
 30
0.0
 10
868.2333982204416
 20
611.9273920092888
 30
0.0
 10
868.6650388453337
 20
610.7164545095916
 30
0.0
 10
868.6650388453337
 20
609.5528802911325
 30
0.0
 10
868.6650388453337
 20
609.5528802911325
 30
0.0
 10
868.6650388453337
 20
607.3819818541753
 30
0.0
 10
868.6650388453337
 20
607.3819818541753
 30
0.0
 10
868.6650388453337
 20
606.8785638855511
 30
0.0
 10
868.6889646265778
 20
606.386864666924
 30
0.0
 10
868.7612302515597
 20
605.990868573273
 30
0.0
 10
868.7612302515597
 20
605.990868573273
 30
0.0
 10
867.8017575955496
 20
605.990868573273
 30
0.0
 10
867.8017575955496
 20
605.990868573273
 30
0.0
  0
SPLINE
  5
C4
330
95
100
AcDbEntity
  8
0
 62
   240
420
 15539236
370
    35
100
AcDbSpline
210
0.0
220
0.0
230
1.0
 70
    11
 71
     3
 72
    20
 73
    16
 74
     0
 42
0.0000000001
 43
0.0000000001
 12
1.0
 22
0.0
 32
0.0
 13
1.0
 23
0.0
 33
0.0
 40
0.0
 40
0.0
 40
0.0
 40
0.0
 40
1.0
 40
1.0
 40
1.0
 40
2.0
 40
2.0
 40
2.0
 40
3.0
 40
3.0
 40
3.0
 40
4.0
 40
4.0
 40
4.0
 40
5.0
 40
5.0
 40
5.0
 40
5.0
 10
867.6455075955886
 20
608.9532709162823
 30
0.0
 10
866.4941404083764
 20
608.9771966975264
 30
0.0
 10
865.1870115024532
 20
608.7730951350775
 30
0.0
 10
865.1870115024532
 20
607.6461420103592
 30
0.0
 10
865.1870115024532
 20
606.9625482605301
 30
0.0
 10
865.6430661898393
 20
606.6383295106111
 30
0.0
 10
866.1826169709543
 20
606.6383295106111
 30
0.0
 10
866.9379880645155
 20
606.6383295106111
 30
0.0
 10
867.4179685331455
 20
607.1183099792412
 30
0.0
 10
867.5859372831035
 20
607.6100091978682
 30
0.0
 10
867.6215818143446
 20
607.7179193540912
 30
0.0
 10
867.6455075955886
 20
607.8380365415612
 30
0.0
 10
867.6455075955886
 20
607.9459466977843
 30
0.0
 10
867.6455075955886
 20
607.9459466977843
 30
0.0
 10
867.6455075955886
 20
608.9532709162823
 30
0.0
 10
867.6455075955886
 20
608.9532709162823
 30
0.0
  0
HATCH
  5
C5
330
95
100
AcDbEntity
  8
0
 62
   240
420
 15539236
100
AcDbHatch
 10
0.0
 20
0.0
 30
0.0
210
0.0
220
0.0
230
1.0
  2
SOLID
 70
     1
 71
     0
 91
        2
 92
        1
 93
        1
 72
     4
 94
        3
 73
     0
 74
     1
 95
       47
 96
       43
 40
0.0
 40
0.0
 40
0.0
 40
0.0
 40
1.0
 40
1.0
 40
1.0
 40
2.0
 40
2.0
 40
2.0
 40
3.0
 40
3.0
 40
3.0
 40
4.0
 40
4.0
 40
4.0
 40
5.0
 40
5.0
 40
5.0
 40
6.0
 40
6.0
 40
6.0
 40
7.0
 40
7.0
 40
7.0
 40
8.0
 40
8.0
 40
8.0
 40
9.0
 40
9.0
 40
9.0
 40
10.0
 40
10.0
 40
10.0
 40
11.0
 40
11.0
 40
11.0
 40
12.0
 40
12.0
 40
12.0
 40
13.0
 40
13.0
 40
13.0
 40
14.0
 40
14.0
 40
14.0
 40
14.0
 10
867.8017575955496
 20
605.990868573273
 10
867.8017575955496
 20
605.990868573273
 10
867.7177732205705
 20
606.7223138855901
 10
867.7177732205705
 20
606.7223138855901
 10
867.7177732205705
 20
606.7223138855901
 10
867.6816404080796
 20
606.7223138855901
 10
867.6816404080796
 20
606.7223138855901
 10
867.3579099394105
 20
606.266747479454
 10
866.7343747833164
 20
605.859032635806
 10
865.9067380647733
 20
605.859032635806
 10
864.7314450963171
 20
605.859032635806
 10
864.131835721467
 20
606.6866693543491
 10
864.131835721467
 20
607.5260248228892
 10
864.131835721467
 20
608.9293451350384
 10
865.3789060336553
 20
609.6969232598465
 10
867.6215818143446
 20
609.6847162285995
 10
867.6215818143446
 20
609.6847162285995
 10
867.6215818143446
 20
609.8048334160695
 10
867.6215818143446
 20
609.8048334160695
 10
867.6215818143446
 20
610.2843256034496
 10
867.4897458768776
 20
611.1480951344837
 10
866.3027341584243
 20
611.1480951344837
 10
865.7626950960594
 20
611.1480951344837
 10
865.1992185337002
 20
610.9801263845256
 10
864.7915036900521
 20
610.7164545095916
 10
864.7915036900521
 20
610.7164545095916
 10
864.5512693151121
 20
611.4117670094178
 10
864.5512693151121
 20
611.4117670094178
 10
865.0312497837422
 20
611.7237787280898
 10
865.7265622835683
 20
611.9273920092888
 10
866.4584958771353
 20
611.9273920092888
 10
868.2333982204416
 20
611.9273920092888
 10
868.6650388453337
 20
610.7164545095916
 10
868.6650388453337
 20
609.5528802911325
 10
868.6650388453337
 20
609.5528802911325
 10
868.6650388453337
 20
607.3819818541753
 10
868.6650388453337
 20
607.3819818541753
 10
868.6650388453337
 20
606.8785638855511
 10
868.6889646265778
 20
606.386864666924
 10
868.7612302515597
 20
605.990868573273
 10
868.7612302515597
 20
605.990868573273
 10
867.8017575955496
 20
605.990868573273
 10
867.8017575955496
 20
605.990868573273
 97
        0
 97
        0
 92
        1
 93
        1
 72
     4
 94
        3
 73
     0
 74
     1
 95
       20
 96
       16
 40
0.0
 40
0.0
 40
0.0
 40
0.0
 40
1.0
 40
1.0
 40
1.0
 40
2.0
 40
2.0
 40
2.0
 40
3.0
 40
3.0
 40
3.0
 40
4.0
 40
4.0
 40
4.0
 40
5.0
 40
5.0
 40
5.0
 40
5.0
 10
867.6455075955886
 20
608.9532709162823
 10
866.4941404083764
 20
608.9771966975264
 10
865.1870115024532
 20
608.7730951350775
 10
865.1870115024532
 20
607.6461420103592
 10
865.1870115024532
 20
606.9625482605301
 10
865.6430661898393
 20
606.6383295106111
 10
866.1826169709543
 20
606.6383295106111
 10
866.9379880645155
 20
606.6383295106111
 10
867.4179685331455
 20
607.1183099792412
 10
867.5859372831035
 20
607.6100091978682
 10
867.6215818143446
 20
607.7179193540912
 10
867.6455075955886
 20
607.8380365415612
 10
867.6455075955886
 20
607.9459466977843
 10
867.6455075955886
 20
607.9459466977843
 10
867.6455075955886
 20
608.9532709162823
 10
867.6455075955886
 20
608.9532709162823
 97
        0
 97
        0
 75
     2
 76
     1
 98
        0
  0
SPLINE
  5
C6
330
95
100
AcDbEntity
  8
0
 62
   240
420
 15539236
370
    35
100
AcDbSpline
210
0.0
220
0.0
230
1.0
 70
    11
 71
     3
 72
    17
 73
    13
 74
     0
 42
0.0000000001
 43
0.0000000001
 12
1.0
 22
0.0
 32
0.0
 13
1.0
 23
0.0
 33
0.0
 40
0.0
 40
0.0
 40
0.0
 40
0.0
 40
1.0
 40
1.0
 40
1.0
 40
2.0
 40
2.0
 40
2.0
 40
3.0
 40
3.0
 40
3.0
 40
4.0
 40
4.0
 40
4.0
 40
4.0
 10
871.5463865008634
 20
613.426903727664
 30
0.0
 10
871.5585935321103
 20
613.0670404465039
 30
0.0
 10
871.2944333759264
 20
612.778954509076
 30
0.0
 10
870.8749997822812
 20
612.778954509076
 30
0.0
 10
870.5029294698743
 20
612.778954509076
 30
0.0
 10
870.2392575949401
 20
613.0670404465039
 30
0.0
 10
870.2392575949401
 20
613.426903727664
 30
0.0
 10
870.2392575949401
 20
613.7984857588211
 30
0.0
 10
870.5151365011212
 20
614.086571696249
 30
0.0
 10
870.8989255635253
 20
614.086571696249
 30
0.0
 10
871.2944333759264
 20
614.086571696249
 30
0.0
 10
871.5463865008634
 20
613.7984857588211
 30
0.0
 10
871.5463865008634
 20
613.426903727664
 30
0.0
  0
POLYLINE
  5
C7
330
95
100
AcDbEntity
  8
0
 62
   240
420
 15539236
370
    35
100
AcDb2dPolyline
 66
     1
 10
0.0
 20
0.0
 30
0.0
  0
VERTEX
  5
C8
330
C7
100
AcDbEntity
  8
0
 62
   240
420
 15539236
370
    35
100
AcDbVertex
100
AcDb2dVertex
 10
870.3710935324073
 20
605.990868573273
 30
0.0
  0
VERTEX
  5
C9
330
C7
100
AcDbEntity
  8
0
 62
   240
420
 15539236
370
    35
100
AcDbVertex
100
AcDb2dVertex
 10
870.3710935324073
 20
611.7955560718218
 30
0.0
  0
VERTEX
  5
CA
330
C7
100
AcDbEntity
  8
0
 62
   240
420
 15539236
370
    35
100
AcDbVertex
100
AcDb2dVertex
 10
871.4267575946433
 20
611.7955560718218
 30
0.0
  0
VERTEX
  5
CB
330
C7
100
AcDbEntity
  8
0
 62
   240
420
 15539236
370
    35
100
AcDbVertex
100
AcDb2dVertex
 10
871.4267575946433
 20
605.990868573273
 30
0.0
  0
VERTEX
  5
CC
330
C7
100
AcDbEntity
  8
0
 62
   240
420
 15539236
370
    35
100
AcDbVertex
100
AcDb2dVertex
 10
870.3710935324073
 20
605.990868573273
 30
0.0
  0
SEQEND
  5
CD
330
C7
100
AcDbEntity
  8
0
 62
   240
420
 15539236
370
    35
  0
HATCH
  5
CE
330
95
100
AcDbEntity
  8
0
 62
   240
420
 15539236
100
AcDbHatch
 10
0.0
 20
0.0
 30
0.0
210
0.0
220
0.0
230
1.0
  2
SOLID
 70
     1
 71
     0
 91
        2
 92
        1
 93
        1
 72
     4
 94
        3
 73
     0
 74
     1
 95
       17
 96
       13
 40
0.0
 40
0.0
 40
0.0
 40
0.0
 40
1.0
 40
1.0
 40
1.0
 40
2.0
 40
2.0
 40
2.0
 40
3.0
 40
3.0
 40
3.0
 40
4.0
 40
4.0
 40
4.0
 40
4.0
 10
871.5463865008634
 20
613.426903727664
 10
871.5585935321103
 20
613.0670404465039
 10
871.2944333759264
 20
612.778954509076
 10
870.8749997822812
 20
612.778954509076
 10
870.5029294698743
 20
612.778954509076
 10
870.2392575949401
 20
613.0670404465039
 10
870.2392575949401
 20
613.426903727664
 10
870.2392575949401
 20
613.7984857588211
 10
870.5151365011212
 20
614.086571696249
 10
870.8989255635253
 20
614.086571696249
 10
871.2944333759264
 20
614.086571696249
 10
871.5463865008634
 20
613.7984857588211
 10
871.5463865008634
 20
613.426903727664
 97
        0
 97
        0
 92
        1
 93
        4
 72
     1
 10
870.3710935324073
 20
605.990868573273
 11
870.3710935324073
 21
611.7955560718218
 72
     1
 10
870.3710935324073
 20
611.7955560718218
 11
871.4267575946433
 21
611.7955560718218
 72
     1
 10
871.4267575946433
 20
611.7955560718218
 11
871.4267575946433
 21
605.990868573273
 72
     1
 10
871.4267575946433
 20
605.990868573273
 11
870.3710935324073
 21
605.990868573273
 97
        0
 75
     2
 76
     1
 98
        0
  0
SPLINE
  5
CF
330
95
100
AcDbEntity
  8
0
 62
   240
420
 15539236
370
    35
100
AcDbSpline
210
0.0
220
0.0
230
1.0
 70
    11
 71
     3
 72
    56
 73
    52
 74
     0
 42
0.0000000001
 43
0.0000000001
 12
1.0
 22
0.0
 32
0.0
 13
1.0
 23
0.0
 33
0.0
 40
0.0
 40
0.0
 40
0.0
 40
0.0
 40
1.0
 40
1.0
 40
1.0
 40
2.0
 40
2.0
 40
2.0
 40
3.0
 40
3.0
 40
3.0
 40
4.0
 40
4.0
 40
4.0
 40
5.0
 40
5.0
 40
5.0
 40
6.0
 40
6.0
 40
6.0
 40
7.0
 40
7.0
 40
7.0
 40
8.0
 40
8.0
 40
8.0
 40
9.0
 40
9.0
 40
9.0
 40
10.0
 40
10.0
 40
10.0
 40
11.0
 40
11.0
 40
11.0
 40
12.0
 40
12.0
 40
12.0
 40
13.0
 40
13.0
 40
13.0
 40
14.0
 40
14.0
 40
14.0
 40
15.0
 40
15.0
 40
15.0
 40
16.0
 40
16.0
 40
16.0
 40
17.0
 40
17.0
 40
17.0
 40
17.0
 10
878.1806638429548
 20
611.7955560718218
 30
0.0
 10
878.1562497804609
 20
611.3761224781767
 30
0.0
 10
878.1323239992169
 20
610.9083490407936
 30
0.0
 10
878.1323239992169
 20
610.2003412284706
 30
0.0
 10
878.1323239992169
 20
610.2003412284706
 30
0.0
 10
878.1323239992169
 20
606.8302240418132
 30
0.0
 10
878.1323239992169
 20
606.8302240418132
 30
0.0
 10
878.1323239992169
 20
605.4991693546459
 30
0.0
 10
877.8686521242828
 20
604.6837396673498
 30
0.0
 10
877.3051755619236
 20
604.1798334174757
 30
0.0
 10
876.7412107183147
 20
603.6520013863577
 30
0.0
 10
875.9257810310186
 20
603.4840326363997
 30
0.0
 10
875.1943357187014
 20
603.4840326363997
 30
0.0
 10
874.4985349376253
 20
603.4840326363997
 30
0.0
 10
873.7309568128172
 20
603.6520013863577
 30
0.0
 10
873.2631833754342
 20
603.9640131050297
 30
0.0
 10
873.2631833754342
 20
603.9640131050297
 30
0.0
 10
873.5268552503683
 20
604.7677240423288
 30
0.0
 10
873.5268552503683
 20
604.7677240423288
 30
0.0
 10
873.9106443127723
 20
604.5274896673889
 30
0.0
 10
874.5107419688723
 20
604.3116693549428
 30
0.0
 10
875.2299802499425
 20
604.3116693549428
 30
0.0
 10
876.3095700934226
 20
604.3116693549428
 30
0.0
 10
877.1010739994747
 20
604.8756341985518
 30
0.0
 10
877.1010739994747
 20
606.338524823186
 30
0.0
 10
877.1010739994747
 20
606.338524823186
 30
0.0
 10
877.1010739994747
 20
606.9864740417742
 30
0.0
 10
877.1010739994747
 20
606.9864740417742
 30
0.0
 10
877.1010739994747
 20
606.9864740417742
 30
0.0
 10
877.0771482182307
 20
606.9864740417742
 30
0.0
 10
877.0771482182307
 20
606.9864740417742
 30
0.0
 10
876.7534177495617
 20
606.4464349794091
 30
0.0
 10
876.1293943122176
 20
606.014794354517
 30
0.0
 10
875.2299802499425
 20
606.014794354517
 30
0.0
 10
873.7910154065522
 20
606.014794354517
 30
0.0
 10
872.7592771255602
 20
607.2379388854613
 30
0.0
 10
872.7592771255602
 20
608.8453607600594
 30
0.0
 10
872.7592771255602
 20
610.8121576345677
 30
0.0
 10
874.0429685314892
 20
611.9273920092888
 30
0.0
 10
875.3740232186565
 20
611.9273920092888
 30
0.0
 10
876.3813474371547
 20
611.9273920092888
 30
0.0
 10
876.9331052495168
 20
611.4000482594207
 30
0.0
 10
877.1850583744537
 20
610.9200677907907
 30
0.0
 10
877.1850583744537
 20
610.9200677907907
 30
0.0
 10
877.2089841556977
 20
610.9200677907907
 30
0.0
 10
877.2089841556977
 20
610.9200677907907
 30
0.0
 10
877.2089841556977
 20
610.9200677907907
 30
0.0
 10
877.2568357181858
 20
611.7955560718218
 30
0.0
 10
877.2568357181858
 20
611.7955560718218
 30
0.0
 10
877.2568357181858
 20
611.7955560718218
 30
0.0
 10
878.1806638429548
 20
611.7955560718218
 30
0.0
 10
878.1806638429548
 20
611.7955560718218
 30
0.0
  0
SPLINE
  5
D0
330
95
100
AcDbEntity
  8
0
 62
   240
420
 15539236
370
    35
100
AcDbSpline
210
0.0
220
0.0
230
1.0
 70
    11
 71
     3
 72
    26
 73
    22
 74
     0
 42
0.0000000001
 43
0.0000000001
 12
1.0
 22
0.0
 32
0.0
 13
1.0
 23
0.0
 33
0.0
 40
0.0
 40
0.0
 40
0.0
 40
0.0
 40
1.0
 40
1.0
 40
1.0
 40
2.0
 40
2.0
 40
2.0
 40
3.0
 40
3.0
 40
3.0
 40
4.0
 40
4.0
 40
4.0
 40
5.0
 40
5.0
 40
5.0
 40
6.0
 40
6.0
 40
6.0
 40
7.0
 40
7.0
 40
7.0
 40
7.0
 10
877.0888669682278
 20
609.5050287286444
 30
0.0
 10
877.0888669682278
 20
609.6847162285995
 30
0.0
 10
877.0771482182307
 20
609.8409662285604
 30
0.0
 10
877.0292966557427
 20
609.9845209160246
 30
0.0
 10
876.8374021245406
 20
610.5963373221216
 30
0.0
 10
876.3212888434197
 20
611.1002435719956
 30
0.0
 10
875.5537107186116
 20
611.1002435719956
 30
0.0
 10
874.5463865001134
 20
611.1002435719956
 30
0.0
 10
873.8266599377934
 20
610.2486810722086
 30
0.0
 10
873.8266599377934
 20
608.9054193537944
 30
0.0
 10
873.8266599377934
 20
607.7657709165793
 30
0.0
 10
874.4023435313994
 20
606.8185052918161
 30
0.0
 10
875.5419919686145
 20
606.8185052918161
 30
0.0
 10
876.1894529059526
 20
606.8185052918161
 30
0.0
 10
876.7773435308056
 20
607.2262201354641
 30
0.0
 10
877.0048825932488
 20
607.8976068540463
 30
0.0
 10
877.0649411869838
 20
608.0777826352513
 30
0.0
 10
877.0888669682278
 20
608.2813959164504
 30
0.0
 10
877.0888669682278
 20
608.4615716976554
 30
0.0
 10
877.0888669682278
 20
608.4615716976554
 30
0.0
 10
877.0888669682278
 20
609.5050287286444
 30
0.0
 10
877.0888669682278
 20
609.5050287286444
 30
0.0
  0
HATCH
  5
D1
330
95
100
AcDbEntity
  8
0
 62
   240
420
 15539236
100
AcDbHatch
 10
0.0
 20
0.0
 30
0.0
210
0.0
220
0.0
230
1.0
  2
SOLID
 70
     1
 71
     0
 91
        2
 92
        1
 93
        1
 72
     4
 94
        3
 73
     0
 74
     1
 95
       56
 96
       52
 40
0.0
 40
0.0
 40
0.0
 40
0.0
 40
1.0
 40
1.0
 40
1.0
 40
2.0
 40
2.0
 40
2.0
 40
3.0
 40
3.0
 40
3.0
 40
4.0
 40
4.0
 40
4.0
 40
5.0
 40
5.0
 40
5.0
 40
6.0
 40
6.0
 40
6.0
 40
7.0
 40
7.0
 40
7.0
 40
8.0
 40
8.0
 40
8.0
 40
9.0
 40
9.0
 40
9.0
 40
10.0
 40
10.0
 40
10.0
 40
11.0
 40
11.0
 40
11.0
 40
12.0
 40
12.0
 40
12.0
 40
13.0
 40
13.0
 40
13.0
 40
14.0
 40
14.0
 40
14.0
 40
15.0
 40
15.0
 40
15.0
 40
16.0
 40
16.0
 40
16.0
 40
17.0
 40
17.0
 40
17.0
 40
17.0
 10
878.1806638429548
 20
611.7955560718218
 10
878.1562497804609
 20
611.3761224781767
 10
878.1323239992169
 20
610.9083490407936
 10
878.1323239992169
 20
610.2003412284706
 10
878.1323239992169
 20
610.2003412284706
 10
878.1323239992169
 20
606.8302240418132
 10
878.1323239992169
 20
606.8302240418132
 10
878.1323239992169
 20
605.4991693546459
 10
877.8686521242828
 20
604.6837396673498
 10
877.3051755619236
 20
604.1798334174757
 10
876.7412107183147
 20
603.6520013863577
 10
875.9257810310186
 20
603.4840326363997
 10
875.1943357187014
 20
603.4840326363997
 10
874.4985349376253
 20
603.4840326363997
 10
873.7309568128172
 20
603.6520013863577
 10
873.2631833754342
 20
603.9640131050297
 10
873.2631833754342
 20
603.9640131050297
 10
873.5268552503683
 20
604.7677240423288
 10
873.5268552503683
 20
604.7677240423288
 10
873.9106443127723
 20
604.5274896673889
 10
874.5107419688723
 20
604.3116693549428
 10
875.2299802499425
 20
604.3116693549428
 10
876.3095700934226
 20
604.3116693549428
 10
877.1010739994747
 20
604.8756341985518
 10
877.1010739994747
 20
606.338524823186
 10
877.1010739994747
 20
606.338524823186
 10
877.1010739994747
 20
606.9864740417742
 10
877.1010739994747
 20
606.9864740417742
 10
877.1010739994747
 20
606.9864740417742
 10
877.0771482182307
 20
606.9864740417742
 10
877.0771482182307
 20
606.9864740417742
 10
876.7534177495617
 20
606.4464349794091
 10
876.1293943122176
 20
606.014794354517
 10
875.2299802499425
 20
606.014794354517
 10
873.7910154065522
 20
606.014794354517
 10
872.7592771255602
 20
607.2379388854613
 10
872.7592771255602
 20
608.8453607600594
 10
872.7592771255602
 20
610.8121576345677
 10
874.0429685314892
 20
611.9273920092888
 10
875.3740232186565
 20
611.9273920092888
 10
876.3813474371547
 20
611.9273920092888
 10
876.9331052495168
 20
611.4000482594207
 10
877.1850583744537
 20
610.9200677907907
 10
877.1850583744537
 20
610.9200677907907
 10
877.2089841556977
 20
610.9200677907907
 10
877.2089841556977
 20
610.9200677907907
 10
877.2089841556977
 20
610.9200677907907
 10
877.2568357181858
 20
611.7955560718218
 10
877.2568357181858
 20
611.7955560718218
 10
877.2568357181858
 20
611.7955560718218
 10
878.1806638429548
 20
611.7955560718218
 10
878.1806638429548
 20
611.7955560718218
 97
        0
 97
        0
 92
        1
 93
        1
 72
     4
 94
        3
 73
     0
 74
     1
 95
       26
 96
       22
 40
0.0
 40
0.0
 40
0.0
 40
0.0
 40
1.0
 40
1.0
 40
1.0
 40
2.0
 40
2.0
 40
2.0
 40
3.0
 40
3.0
 40
3.0
 40
4.0
 40
4.0
 40
4.0
 40
5.0
 40
5.0
 40
5.0
 40
6.0
 40
6.0
 40
6.0
 40
7.0
 40
7.0
 40
7.0
 40
7.0
 10
877.0888669682278
 20
609.5050287286444
 10
877.0888669682278
 20
609.6847162285995
 10
877.0771482182307
 20
609.8409662285604
 10
877.0292966557427
 20
609.9845209160246
 10
876.8374021245406
 20
610.5963373221216
 10
876.3212888434197
 20
611.1002435719956
 10
875.5537107186116
 20
611.1002435719956
 10
874.5463865001134
 20
611.1002435719956
 10
873.8266599377934
 20
610.2486810722086
 10
873.8266599377934
 20
608.9054193537944
 10
873.8266599377934
 20
607.7657709165793
 10
874.4023435313994
 20
606.8185052918161
 10
875.5419919686145
 20
606.8185052918161
 10
876.1894529059526
 20
606.8185052918161
 10
876.7773435308056
 20
607.2262201354641
 10
877.0048825932488
 20
607.8976068540463
 10
877.0649411869838
 20
608.0777826352513
 10
877.0888669682278
 20
608.2813959164504
 10
877.0888669682278
 20
608.4615716976554
 10
877.0888669682278
 20
608.4615716976554
 10
877.0888669682278
 20
609.5050287286444
 10
877.0888669682278
 20
609.5050287286444
 97
        0
 97
        0
 75
     2
 76
     1
 98
        0
  0
SPLINE
  5
D2
330
95
100
AcDbEntity
  8
0
 62
   240
420
 15539236
370
    35
100
AcDbSpline
210
0.0
220
0.0
230
1.0
 70
    11
 71
     3
 72
    50
 73
    46
 74
     0
 42
0.0000000001
 43
0.0000000001
 12
1.0
 22
0.0
 32
0.0
 13
1.0
 23
0.0
 33
0.0
 40
0.0
 40
0.0
 40
0.0
 40
0.0
 40
1.0
 40
1.0
 40
1.0
 40
2.0
 40
2.0
 40
2.0
 40
3.0
 40
3.0
 40
3.0
 40
4.0
 40
4.0
 40
4.0
 40
5.0
 40
5.0
 40
5.0
 40
6.0
 40
6.0
 40
6.0
 40
7.0
 40
7.0
 40
7.0
 40
8.0
 40
8.0
 40
8.0
 40
9.0
 40
9.0
 40
9.0
 40
10.0
 40
10.0
 40
10.0
 40
11.0
 40
11.0
 40
11.0
 40
12.0
 40
12.0
 40
12.0
 40
13.0
 40
13.0
 40
13.0
 40
14.0
 40
14.0
 40
14.0
 40
15.0
 40
15.0
 40
15.0
 40
15.0
 10
879.8867185300282
 20
614.5060052898942
 30
0.0
 10
879.8867185300282
 20
614.5060052898942
 30
0.0
 10
880.9423825922644
 20
614.5060052898942
 30
0.0
 10
880.9423825922644
 20
614.5060052898942
 30
0.0
 10
880.9423825922644
 20
614.5060052898942
 30
0.0
 10
880.9423825922644
 20
610.8844232595496
 30
0.0
 10
880.9423825922644
 20
610.8844232595496
 30
0.0
 10
880.9423825922644
 20
610.8844232595496
 30
0.0
 10
880.9663083735084
 20
610.8844232595496
 30
0.0
 10
880.9663083735084
 20
610.8844232595496
 30
0.0
 10
881.1342771234664
 20
611.1842279469747
 30
0.0
 10
881.3979489984005
 20
611.4478998219088
 30
0.0
 10
881.7216794670695
 20
611.6275873218639
 30
0.0
 10
882.0336911857415
 20
611.8077631030687
 30
0.0
 10
882.4052732168986
 20
611.9273920092888
 30
0.0
 10
882.8012693105496
 20
611.9273920092888
 30
0.0
 10
883.5805661853549
 20
611.9273920092888
 30
0.0
 10
884.8281247787929
 20
611.4478998219088
 30
0.0
 10
884.8281247787929
 20
609.4449701349095
 30
0.0
 10
884.8281247787929
 20
609.4449701349095
 30
0.0
 10
884.8281247787929
 20
605.990868573273
 30
0.0
 10
884.8281247787929
 20
605.990868573273
 30
0.0
 10
884.8281247787929
 20
605.990868573273
 30
0.0
 10
883.7724607165569
 20
605.990868573273
 30
0.0
 10
883.7724607165569
 20
605.990868573273
 30
0.0
 10
883.7724607165569
 20
605.990868573273
 30
0.0
 10
883.7724607165569
 20
609.3248529474395
 30
0.0
 10
883.7724607165569
 20
609.3248529474395
 30
0.0
 10
883.7724607165569
 20
610.2603998222056
 30
0.0
 10
883.4248044666438
 20
611.0519037282578
 30
0.0
 10
882.4291989981427
 20
611.0519037282578
 30
0.0
 10
881.7456052483136
 20
611.0519037282578
 30
0.0
 10
881.2060544671984
 20
610.5724115408776
 30
0.0
 10
881.0141599359964
 20
609.9967279472716
 30
0.0
 10
880.9541013422614
 20
609.8526849785576
 30
0.0
 10
880.9423825922644
 20
609.6969232598465
 30
0.0
 10
880.9423825922644
 20
609.4928216973975
 30
0.0
 10
880.9423825922644
 20
609.4928216973975
 30
0.0
 10
880.9423825922644
 20
605.990868573273
 30
0.0
 10
880.9423825922644
 20
605.990868573273
 30
0.0
 10
880.9423825922644
 20
605.990868573273
 30
0.0
 10
879.8867185300282
 20
605.990868573273
 30
0.0
 10
879.8867185300282
 20
605.990868573273
 30
0.0
 10
879.8867185300282
 20
605.990868573273
 30
0.0
 10
879.8867185300282
 20
614.5060052898942
 30
0.0
 10
879.8867185300282
 20
614.5060052898942
 30
0.0
  0
HATCH
  5
D3
330
95
100
AcDbEntity
  8
0
 62
   240
420
 15539236
100
AcDbHatch
 10
0.0
 20
0.0
 30
0.0
210
0.0
220
0.0
230
1.0
  2
SOLID
 70
     1
 71
     0
 91
        1
 92
        1
 93
        1
 72
     4
 94
        3
 73
     0
 74
     1
 95
       50
 96
       46
 40
0.0
 40
0.0
 40
0.0
 40
0.0
 40
1.0
 40
1.0
 40
1.0
 40
2.0
 40
2.0
 40
2.0
 40
3.0
 40
3.0
 40
3.0
 40
4.0
 40
4.0
 40
4.0
 40
5.0
 40
5.0
 40
5.0
 40
6.0
 40
6.0
 40
6.0
 40
7.0
 40
7.0
 40
7.0
 40
8.0
 40
8.0
 40
8.0
 40
9.0
 40
9.0
 40
9.0
 40
10.0
 40
10.0
 40
10.0
 40
11.0
 40
11.0
 40
11.0
 40
12.0
 40
12.0
 40
12.0
 40
13.0
 40
13.0
 40
13.0
 40
14.0
 40
14.0
 40
14.0
 40
15.0
 40
15.0
 40
15.0
 40
15.0
 10
879.8867185300282
 20
614.5060052898942
 10
879.8867185300282
 20
614.5060052898942
 10
880.9423825922644
 20
614.5060052898942
 10
880.9423825922644
 20
614.5060052898942
 10
880.9423825922644
 20
614.5060052898942
 10
880.9423825922644
 20
610.8844232595496
 10
880.9423825922644
 20
610.8844232595496
 10
880.9423825922644
 20
610.8844232595496
 10
880.9663083735084
 20
610.8844232595496
 10
880.9663083735084
 20
610.8844232595496
 10
881.1342771234664
 20
611.1842279469747
 10
881.3979489984005
 20
611.4478998219088
 10
881.7216794670695
 20
611.6275873218639
 10
882.0336911857415
 20
611.8077631030687
 10
882.4052732168986
 20
611.9273920092888
 10
882.8012693105496
 20
611.9273920092888
 10
883.5805661853549
 20
611.9273920092888
 10
884.8281247787929
 20
611.4478998219088
 10
884.8281247787929
 20
609.4449701349095
 10
884.8281247787929
 20
609.4449701349095
 10
884.8281247787929
 20
605.990868573273
 10
884.8281247787929
 20
605.990868573273
 10
884.8281247787929
 20
605.990868573273
 10
883.7724607165569
 20
605.990868573273
 10
883.7724607165569
 20
605.990868573273
 10
883.7724607165569
 20
605.990868573273
 10
883.7724607165569
 20
609.3248529474395
 10
883.7724607165569
 20
609.3248529474395
 10
883.7724607165569
 20
610.2603998222056
 10
883.4248044666438
 20
611.0519037282578
 10
882.4291989981427
 20
611.0519037282578
 10
881.7456052483136
 20
611.0519037282578
 10
881.2060544671984
 20
610.5724115408776
 10
881.0141599359964
 20
609.9967279472716
 10
880.9541013422614
 20
609.8526849785576
 10
880.9423825922644
 20
609.6969232598465
 10
880.9423825922644
 20
609.4928216973975
 10
880.9423825922644
 20
609.4928216973975
 10
880.9423825922644
 20
605.990868573273
 10
880.9423825922644
 20
605.990868573273
 10
880.9423825922644
 20
605.990868573273
 10
879.8867185300282
 20
605.990868573273
 10
879.8867185300282
 20
605.990868573273
 10
879.8867185300282
 20
605.990868573273
 10
879.8867185300282
 20
614.5060052898942
 10
879.8867185300282
 20
614.5060052898942
 97
        0
 97
        0
 75
     2
 76
     1
 98
        0
  0
SPLINE
  5
D4
330
95
100
AcDbEntity
  8
0
 62
   240
420
 15539236
370
    35
100
AcDbSpline
210
0.0
220
0.0
230
1.0
 70
    11
 71
     3
 72
    56
 73
    52
 74
     0
 42
0.0000000001
 43
0.0000000001
 12
1.0
 22
0.0
 32
0.0
 13
1.0
 23
0.0
 33
0.0
 40
0.0
 40
0.0
 40
0.0
 40
0.0
 40
1.0
 40
1.0
 40
1.0
 40
2.0
 40
2.0
 40
2.0
 40
3.0
 40
3.0
 40
3.0
 40
4.0
 40
4.0
 40
4.0
 40
5.0
 40
5.0
 40
5.0
 40
6.0
 40
6.0
 40
6.0
 40
7.0
 40
7.0
 40
7.0
 40
8.0
 40
8.0
 40
8.0
 40
9.0
 40
9.0
 40
9.0
 40
10.0
 40
10.0
 40
10.0
 40
11.0
 40
11.0
 40
11.0
 40
12.0
 40
12.0
 40
12.0
 40
13.0
 40
13.0
 40
13.0
 40
14.0
 40
14.0
 40
14.0
 40
15.0
 40
15.0
 40
15.0
 40
16.0
 40
16.0
 40
16.0
 40
17.0
 40
17.0
 40
17.0
 40
17.0
 10
887.7705075905574
 20
613.462548258905
 30
0.0
 10
887.7705075905574
 20
613.462548258905
 30
0.0
 10
887.7705075905574
 20
611.7955560718218
 30
0.0
 10
887.7705075905574
 20
611.7955560718218
 30
0.0
 10
887.7705075905574
 20
611.7955560718218
 30
0.0
 10
889.2817380589296
 20
611.7955560718218
 30
0.0
 10
889.2817380589296
 20
611.7955560718218
 30
0.0
 10
889.2817380589296
 20
611.7955560718218
 30
0.0
 10
889.2817380589296
 20
610.9923334157727
 30
0.0
 10
889.2817380589296
 20
610.9923334157727
 30
0.0
 10
889.2817380589296
 20
610.9923334157727
 30
0.0
 10
887.7705075905574
 20
610.9923334157727
 30
0.0
 10
887.7705075905574
 20
610.9923334157727
 30
0.0
 10
887.7705075905574
 20
610.9923334157727
 30
0.0
 10
887.7705075905574
 20
607.8619623228052
 30
0.0
 10
887.7705075905574
 20
607.8619623228052
 30
0.0
 10
887.7705075905574
 20
607.1422357604852
 30
0.0
 10
887.9741208717564
 20
606.7345209168371
 30
0.0
 10
888.5620114966094
 20
606.7345209168371
 30
0.0
 10
888.8378904027905
 20
606.7345209168371
 30
0.0
 10
889.0415036839896
 20
606.770653729328
 30
0.0
 10
889.1738279027065
 20
606.8062982605692
 30
0.0
 10
889.1738279027065
 20
606.8062982605692
 30
0.0
 10
889.2216794651946
 20
606.014794354517
 30
0.0
 10
889.2216794651946
 20
606.014794354517
 30
0.0
 10
889.0175779027456
 20
605.930809979538
 30
0.0
 10
888.6938474340765
 20
605.870751385803
 30
0.0
 10
888.2861325904285
 20
605.870751385803
 30
0.0
 10
887.7944333718013
 20
605.870751385803
 30
0.0
 10
887.3984372781504
 20
606.0270013857639
 30
0.0
 10
887.1464841532134
 20
606.3145990419421
 30
0.0
 10
886.8466794657883
 20
606.6266107606141
 30
0.0
 10
886.7387693095653
 20
607.1422357604852
 30
0.0
 10
886.7387693095653
 20
607.8258295103143
 30
0.0
 10
886.7387693095653
 20
607.8258295103143
 30
0.0
 10
886.7387693095653
 20
610.9923334157727
 30
0.0
 10
886.7387693095653
 20
610.9923334157727
 30
0.0
 10
886.7387693095653
 20
610.9923334157727
 30
0.0
 10
885.8393552472901
 20
610.9923334157727
 30
0.0
 10
885.8393552472901
 20
610.9923334157727
 30
0.0
 10
885.8393552472901
 20
610.9923334157727
 30
0.0
 10
885.8393552472901
 20
611.7955560718218
 30
0.0
 10
885.8393552472901
 20
611.7955560718218
 30
0.0
 10
885.8393552472901
 20
611.7955560718218
 30
0.0
 10
886.7387693095653
 20
611.7955560718218
 30
0.0
 10
886.7387693095653
 20
611.7955560718218
 30
0.0
 10
886.7387693095653
 20
611.7955560718218
 30
0.0
 10
886.7387693095653
 20
613.1871576339739
 30
0.0
 10
886.7387693095653
 20
613.1871576339739
 30
0.0
 10
886.7387693095653
 20
613.1871576339739
 30
0.0
 10
887.7705075905574
 20
613.462548258905
 30
0.0
 10
887.7705075905574
 20
613.462548258905
 30
0.0
  0
HATCH
  5
D5
330
95
100
AcDbEntity
  8
0
 62
   240
420
 15539236
100
AcDbHatch
 10
0.0
 20
0.0
 30
0.0
210
0.0
220
0.0
230
1.0
  2
SOLID
 70
     1
 71
     0
 91
        1
 92
        1
 93
        1
 72
     4
 94
        3
 73
     0
 74
     1
 95
       56
 96
       52
 40
0.0
 40
0.0
 40
0.0
 40
0.0
 40
1.0
 40
1.0
 40
1.0
 40
2.0
 40
2.0
 40
2.0
 40
3.0
 40
3.0
 40
3.0
 40
4.0
 40
4.0
 40
4.0
 40
5.0
 40
5.0
 40
5.0
 40
6.0
 40
6.0
 40
6.0
 40
7.0
 40
7.0
 40
7.0
 40
8.0
 40
8.0
 40
8.0
 40
9.0
 40
9.0
 40
9.0
 40
10.0
 40
10.0
 40
10.0
 40
11.0
 40
11.0
 40
11.0
 40
12.0
 40
12.0
 40
12.0
 40
13.0
 40
13.0
 40
13.0
 40
14.0
 40
14.0
 40
14.0
 40
15.0
 40
15.0
 40
15.0
 40
16.0
 40
16.0
 40
16.0
 40
17.0
 40
17.0
 40
17.0
 40
17.0
 10
887.7705075905574
 20
613.462548258905
 10
887.7705075905574
 20
613.462548258905
 10
887.7705075905574
 20
611.7955560718218
 10
887.7705075905574
 20
611.7955560718218
 10
887.7705075905574
 20
611.7955560718218
 10
889.2817380589296
 20
611.7955560718218
 10
889.2817380589296
 20
611.7955560718218
 10
889.2817380589296
 20
611.7955560718218
 10
889.2817380589296
 20
610.9923334157727
 10
889.2817380589296
 20
610.9923334157727
 10
889.2817380589296
 20
610.9923334157727
 10
887.7705075905574
 20
610.9923334157727
 10
887.7705075905574
 20
610.9923334157727
 10
887.7705075905574
 20
610.9923334157727
 10
887.7705075905574
 20
607.8619623228052
 10
887.7705075905574
 20
607.8619623228052
 10
887.7705075905574
 20
607.1422357604852
 10
887.9741208717564
 20
606.7345209168371
 10
888.5620114966094
 20
606.7345209168371
 10
888.8378904027905
 20
606.7345209168371
 10
889.0415036839896
 20
606.770653729328
 10
889.1738279027065
 20
606.8062982605692
 10
889.1738279027065
 20
606.8062982605692
 10
889.2216794651946
 20
606.014794354517
 10
889.2216794651946
 20
606.014794354517
 10
889.0175779027456
 20
605.930809979538
 10
888.6938474340765
 20
605.870751385803
 10
888.2861325904285
 20
605.870751385803
 10
887.7944333718013
 20
605.870751385803
 10
887.3984372781504
 20
606.0270013857639
 10
887.1464841532134
 20
606.3145990419421
 10
886.8466794657883
 20
606.6266107606141
 10
886.7387693095653
 20
607.1422357604852
 10
886.7387693095653
 20
607.8258295103143
 10
886.7387693095653
 20
607.8258295103143
 10
886.7387693095653
 20
610.9923334157727
 10
886.7387693095653
 20
610.9923334157727
 10
886.7387693095653
 20
610.9923334157727
 10
885.8393552472901
 20
610.9923334157727
 10
885.8393552472901
 20
610.9923334157727
 10
885.8393552472901
 20
610.9923334157727
 10
885.8393552472901
 20
611.7955560718218
 10
885.8393552472901
 20
611.7955560718218
 10
885.8393552472901
 20
611.7955560718218
 10
886.7387693095653
 20
611.7955560718218
 10
886.7387693095653
 20
611.7955560718218
 10
886.7387693095653
 20
611.7955560718218
 10
886.7387693095653
 20
613.1871576339739
 10
886.7387693095653
 20
613.1871576339739
 10
886.7387693095653
 20
613.1871576339739
 10
887.7705075905574
 20
613.462548258905
 10
887.7705075905574
 20
613.462548258905
 97
        0
 97
        0
 75
     2
 76
     1
 98
        0
  0
ENDBLK
  5
98
330
95
100
AcDbEntity
  8
0
100
AcDbBlockEnd
  0
ENDSEC
  0
SECTION
  2
ENTITIES
  0
INSERT
  5
41
330
1F
100
AcDbEntity
  8
0
100
AcDbBlockReference
  2
block 2
 10
0.0
 20
0.0
 30
0.0
  0
INSERT
  5
4C
330
1F
100
AcDbEntity
  8
0
100
AcDbBlockReference
  2
block 3
 10
0.0
 20
0.0
 30
0.0
  0
INSERT
  5
51
330
1F
100
AcDbEntity
  8
0
100
AcDbBlockReference
  2
block 4
 10
0.0
 20
0.0
 30
0.0
  0
INSERT
  5
56
330
1F
100
AcDbEntity
  8
0
100
AcDbBlockReference
  2
block 5
 10
0.0
 20
0.0
 30
0.0
  0
INSERT
  5
69
330
1F
100
AcDbEntity
  8
0
100
AcDbBlockReference
  2
block 6
 10
0.0
 20
0.0
 30
0.0
  0
INSERT
  5
6E
330
1F
100
AcDbEntity
  8
0
100
AcDbBlockReference
  2
block 7
 10
0.0
 20
0.0
 30
0.0
  0
INSERT
  5
73
330
1F
100
AcDbEntity
  8
0
100
AcDbBlockReference
  2
block 8
 10
0.0
 20
0.0
 30
0.0
  0
INSERT
  5
78
330
1F
100
AcDbEntity
  8
0
100
AcDbBlockReference
  2
block 9
 10
0.0
 20
0.0
 30
0.0
  0
INSERT
  5
7D
330
1F
100
AcDbEntity
  8
0
100
AcDbBlockReference
  2
block 10
 10
0.0
 20
0.0
 30
0.0
  0
INSERT
  5
82
330
1F
100
AcDbEntity
  8
0
100
AcDbBlockReference
  2
block 11
 10
0.0
 20
0.0
 30
0.0
  0
INSERT
  5
87
330
1F
100
AcDbEntity
  8
0
100
AcDbBlockReference
  2
block 12
 10
0.0
 20
0.0
 30
0.0
  0
INSERT
  5
8C
330
1F
100
AcDbEntity
  8
0
100
AcDbBlockReference
  2
block 13
 10
0.0
 20
0.0
 30
0.0
  0
INSERT
  5
91
330
1F
100
AcDbEntity
  8
0
100
AcDbBlockReference
  2
block 14
 10
0.0
 20
0.0
 30
0.0
  0
INSERT
  5
96
330
1F
100
AcDbEntity
  8
0
100
AcDbBlockReference
  2
block 15
 10
0.0
 20
0.0
 30
0.0
  0
ENDSEC
  0
SECTION
  2
OBJECTS
  0
DICTIONARY
  5
C
330
0
100
AcDbDictionary
281
     1
  3
ACAD_GROUP
350
D
  3
ACAD_LAYOUT
350
1A
  3
ACAD_MATERIAL
350
3B
  3
ACAD_MLEADERSTYLE
350
D7
  3
ACAD_MLINESTYLE
350
17
  3
ACAD_PLOTSETTINGS
350
19
  3
ACAD_PLOTSTYLENAME
350
E
  3
ACAD_TABLESTYLE
350
D6
  3
ACAD_VISUALSTYLE
350
2A
  0
SUN
  5
3F
330
29
100
AcDbSun
 90
        1
290
     0
 63
     7
421
 16777215
 40
1.0
291
     1
 91
  2455826
 92
 54000000
292
     0
 70
     2
 71
   256
280
     1
  0
DICTIONARY
  5
D
102
{ACAD_REACTORS
330
C
102
}
330
C
100
AcDbDictionary
281
     1
  0
DICTIONARY
  5
1A
102
{ACAD_REACTORS
330
C
102
}
330
C
100
AcDbDictionary
281
     1
  3
Layout1
350
1E
  3
Layout2
350
26
  3
Model
350
22
  0
DICTIONARY
  5
3B
102
{ACAD_REACTORS
330
C
102
}
330
C
100
AcDbDictionary
281
     1
  3
ByBlock
350
3D
  3
ByLayer
350
3C
  3
Global
350
3E
  0
DICTIONARY
  5
D7
102
{ACAD_REACTORS
330
C
102
}
330
C
100
AcDbDictionary
281
     1
  0
DICTIONARY
  5
17
102
{ACAD_REACTORS
330
C
102
}
330
C
100
AcDbDictionary
281
     1
  3
Standard
350
18
  0
DICTIONARY
  5
19
102
{ACAD_REACTORS
330
C
102
}
330
C
100
AcDbDictionary
281
     1
  0
ACDBDICTIONARYWDFLT
  5
E
102
{ACAD_REACTORS
330
C
102
}
330
C
100
AcDbDictionary
281
     1
  3
Normal
350
F
100
AcDbDictionaryWithDefault
340
F
  0
DICTIONARY
  5
D6
102
{ACAD_REACTORS
330
C
102
}
330
C
100
AcDbDictionary
281
     1
  0
DICTIONARY
  5
2A
102
{ACAD_REACTORS
330
C
102
}
330
C
100
AcDbDictionary
281
     1
  3
2dWireframe
350
2F
  3
3D Hidden
350
31
  3
3dWireframe
350
30
  3
Basic
350
32
  3
Brighten
350
36
  3
ColorChange
350
3A
  3
Conceptual
350
34
  3
Dim
350
35
  3
Facepattern
350
39
  3
Flat
350
2B
  3
FlatWithEdges
350
2C
  3
Gouraud
350
2D
  3
GouraudWithEdges
350
2E
  3
Linepattern
350
38
  3
Realistic
350
33
  3
Thicken
350
37
  0
LAYOUT
  5
1E
102
{ACAD_REACTORS
330
1A
102
}
330
1A
100
AcDbPlotSettings
  1

  2
none_device
  4

  6

 40
0.0
 41
0.0
 42
0.0
 43
0.0
 44
0.0
 45
0.0
 46
0.0
 47
0.0
 48
0.0
 49
0.0
140
0.0
141
0.0
142
1.0
143
1.0
 70
   688
 72
     0
 73
     0
 74
     5
  7

 75
    16
 76
     0
 77
     2
 78
   300
147
1.0
148
0.0
149
0.0
100
AcDbLayout
  1
Layout1
 70
     1
 71
     1
 10
0.0
 20
0.0
 11
12.0
 21
9.0
 12
0.0
 22
0.0
 32
0.0
 14
1.000000000000000E+20
 24
1.000000000000000E+20
 34
1.000000000000000E+20
 15
-1.000000000000000E+20
 25
-1.000000000000000E+20
 35
-1.000000000000000E+20
146
0.0
 13
0.0
 23
0.0
 33
0.0
 16
1.0
 26
0.0
 36
0.0
 17
0.0
 27
1.0
 37
0.0
 76
     0
330
1B
  0
LAYOUT
  5
26
102
{ACAD_REACTORS
330
1A
102
}
330
1A
100
AcDbPlotSettings
  1

  2
none_device
  4

  6

 40
0.0
 41
0.0
 42
0.0
 43
0.0
 44
0.0
 45
0.0
 46
0.0
 47
0.0
 48
0.0
 49
0.0
140
0.0
141
0.0
142
1.0
143
1.0
 70
   688
 72
     0
 73
     0
 74
     5
  7

 75
    16
 76
     0
 77
     2
 78
   300
147
1.0
148
0.0
149
0.0
100
AcDbLayout
  1
Layout2
 70
     1
 71
     2
 10
0.0
 20
0.0
 11
0.0
 21
0.0
 12
0.0
 22
0.0
 32
0.0
 14
0.0
 24
0.0
 34
0.0
 15
0.0
 25
0.0
 35
0.0
146
0.0
 13
0.0
 23
0.0
 33
0.0
 16
1.0
 26
0.0
 36
0.0
 17
0.0
 27
1.0
 37
0.0
 76
     0
330
23
  0
LAYOUT
  5
22
102
{ACAD_REACTORS
330
1A
102
}
330
1A
100
AcDbPlotSettings
  1

  2
none_device
  4

  6

 40
0.0
 41
0.0
 42
0.0
 43
0.0
 44
0.0
 45
0.0
 46
0.0
 47
0.0
 48
0.0
 49
0.0
140
0.0
141
0.0
142
1.0
143
1.0
 70
  1712
 72
     0
 73
     0
 74
     0
  7

 75
     0
 76
     0
 77
     2
 78
   300
147
1.0
148
0.0
149
0.0
100
AcDbLayout
  1
Model
 70
     1
 71
     0
 10
0.0
 20
0.0
 11
12.0
 21
9.0
 12
0.0
 22
0.0
 32
0.0
 14
1.000000000000000E+20
 24
1.000000000000000E+20
 34
1.000000000000000E+20
 15
-1.000000000000000E+20
 25
-1.000000000000000E+20
 35
-1.000000000000000E+20
146
0.0
 13
0.0
 23
0.0
 33
0.0
 16
1.0
 26
0.0
 36
0.0
 17
0.0
 27
1.0
 37
0.0
 76
     0
330
1F
331
29
  0
MATERIAL
  5
3D
102
{ACAD_REACTORS
330
3B
102
}
330
3B
100
AcDbMaterial
  1
ByBlock
 72
     1
 94
      127
  0
MATERIAL
  5
3C
102
{ACAD_REACTORS
330
3B
102
}
330
3B
100
AcDbMaterial
  1
ByLayer
 72
     1
 94
      127
  0
MATERIAL
  5
3E
102
{ACAD_REACTORS
330
3B
102
}
330
3B
100
AcDbMaterial
  1
Global
 72
     1
 94
      127
  0
MLINESTYLE
  5
18
102
{ACAD_REACTORS
330
17
102
}
330
17
100
AcDbMlineStyle
  2
Standard
 70
     0
  3

 62
   256
 51
90.0
 52
90.0
 71
     2
 49
0.5
 62
   256
  6
BYLAYER
 49
-0.5
 62
   256
  6
BYLAYER
  0
ACDBPLACEHOLDER
  5
F
102
{ACAD_REACTORS
330
E
102
}
330
E
  0
VISUALSTYLE
  5
2F
102
{ACAD_REACTORS
330
2A
102
}
330
2A
100
AcDbVisualStyle
  2
2dWireframe
 70
     4
177
     2
291
     0
 71
     0
176
     1
 72
     2
176
     1
 73
     0
176
     1
 90
        0
176
     1
 40
-0.6
176
     1
 41
-30.0
176
     1
 62
     5
 63
     7
421
 16777215
176
     1
 74
     1
176
     1
 91
        4
176
     1
 64
     7
176
     1
 65
   257
176
     1
 75
     1
176
     1
175
     1
176
     1
 42
1.0
176
     1
 92
        0
176
     1
 66
   257
176
     1
 43
1.0
176
     1
 76
     1
176
     1
 77
     6
176
     1
 78
     2
176
     1
 67
     7
176
     1
 79
     5
176
     1
170
     0
176
     1
171
     0
176
     1
290
     0
176
     1
 93
        1
176
     1
 44
0.0
176
     1
173
     0
176
     1
  0
VISUALSTYLE
  5
31
102
{ACAD_REACTORS
330
2A
102
}
330
2A
100
AcDbVisualStyle
  2
3D Hidden
 70
     6
177
     2
291
     0
 71
     1
176
     1
 72
     2
176
     1
 73
     2
176
     1
 90
        0
176
     1
 40
-0.6
176
     1
 41
-30.0
176
     1
 62
     5
 63
     7
421
 16777215
176
     1
 74
     2
176
     1
 91
        2
176
     1
 64
     7
176
     1
 65
   257
176
     1
 75
     2
176
     1
175
     1
176
     1
 42
40.0
176
     1
 92
        0
176
     1
 66
   257
176
     1
 43
1.0
176
     1
 76
     1
176
     1
 77
     6
176
     1
 78
     2
176
     1
 67
     7
176
     1
 79
     3
176
     1
170
     0
176
     1
171
     0
176
     1
290
     0
176
     1
 93
        1
176
     1
 44
0.0
176
     1
173
     0
176
     1
  0
VISUALSTYLE
  5
30
102
{ACAD_REACTORS
330
2A
102
}
330
2A
100
AcDbVisualStyle
  2
3dWireframe
 70
     5
177
     2
291
     0
 71
     0
176
     1
 72
     2
176
     1
 73
     0
176
     1
 90
        0
176
     1
 40
-0.6
176
     1
 41
-30.0
176
     1
 62
     5
 63
     7
421
 16777215
176
     1
 74
     1
176
     1
 91
        4
176
     1
 64
     7
176
     1
 65
   257
176
     1
 75
     1
176
     1
175
     1
176
     1
 42
1.0
176
     1
 92
        0
176
     1
 66
   257
176
     1
 43
1.0
176
     1
 76
     1
176
     1
 77
     6
176
     1
 78
     2
176
     1
 67
     7
176
     1
 79
     5
176
     1
170
     0
176
     1
171
     0
176
     1
290
     0
176
     1
 93
        1
176
     1
 44
0.0
176
     1
173
     0
176
     1
  0
VISUALSTYLE
  5
32
102
{ACAD_REACTORS
330
2A
102
}
330
2A
100
AcDbVisualStyle
  2
Basic
 70
     7
177
     2
291
     1
 71
     1
176
     1
 72
     0
176
     1
 73
     1
176
     1
 90
        0
176
     1
 40
-0.6
176
     1
 41
-30.0
176
     1
 62
     5
 63
     7
421
 16777215
176
     1
 74
     0
176
     1
 91
        4
176
     1
 64
     7
176
     1
 65
   257
176
     1
 75
     1
176
     1
175
     1
176
     1
 42
1.0
176
     1
 92
        8
176
     1
 66
     7
176
     1
 43
1.0
176
     1
 76
     1
176
     1
 77
     6
176
     1
 78
     2
176
     1
 67
     7
176
     1
 79
     5
176
     1
170
     0
176
     1
171
     0
176
     1
290
     0
176
     1
 93
        1
176
     1
 44
0.0
176
     1
173
     0
176
     1
  0
VISUALSTYLE
  5
36
102
{ACAD_REACTORS
330
2A
102
}
330
2A
100
AcDbVisualStyle
  2
Brighten
 70
    12
177
     2
291
     1
 71
     2
176
     1
 72
     2
176
     1
 73
     0
176
     1
 90
        0
176
     1
 40
-0.6
176
     1
 41
-30.0
176
     1
 62
     5
 63
     7
421
 16777215
176
     1
 74
     1
176
     1
 91
        4
176
     1
 64
     7
176
     1
 65
   257
176
     1
 75
     1
176
     1
175
     1
176
     1
 42
1.0
176
     1
 92
        8
176
     1
 66
     7
176
     1
 43
1.0
176
     1
 76
     1
176
     1
 77
     6
176
     1
 78
     2
176
     1
 67
     7
176
     1
 79
     5
176
     1
170
     0
176
     1
171
     0
176
     1
290
     0
176
     1
 93
        1
176
     1
 44
50.0
176
     1
173
     0
176
     1
  0
VISUALSTYLE
  5
3A
102
{ACAD_REACTORS
330
2A
102
}
330
2A
100
AcDbVisualStyle
  2
ColorChange
 70
    16
177
     2
291
     1
 71
     2
176
     1
 72
     2
176
     1
 73
     3
176
     1
 90
        0
176
     1
 40
-0.6
176
     1
 41
-30.0
176
     1
 62
     5
 63
     8
421
  8421504
176
     1
 74
     1
176
     1
 91
        4
176
     1
 64
     7
176
     1
 65
   257
176
     1
 75
     1
176
     1
175
     1
176
     1
 42
1.0
176
     1
 92
        8
176
     1
 66
     8
424
  8421504
176
     1
 43
1.0
176
     1
 76
     1
176
     1
 77
     6
176
     1
 78
     2
176
     1
 67
     7
176
     1
 79
     5
176
     1
170
     0
176
     1
171
     0
176
     1
290
     0
176
     1
 93
        1
176
     1
 44
0.0
176
     1
173
     0
176
     1
  0
VISUALSTYLE
  5
34
102
{ACAD_REACTORS
330
2A
102
}
330
2A
100
AcDbVisualStyle
  2
Conceptual
 70
     9
177
     2
291
     0
 71
     3
176
     1
 72
     2
176
     1
 73
     0
176
     1
 90
        0
176
     1
 40
-0.6
176
     1
 41
-30.0
176
     1
 62
     5
 63
     7
421
 16777215
176
     1
 74
     2
176
     1
 91
        2
176
     1
 64
     7
176
     1
 65
   257
176
     1
 75
     1
176
     1
175
     1
176
     1
 42
40.0
176
     1
 92
        8
176
     1
 66
     7
176
     1
 43
1.0
176
     1
 76
     1
176
     1
 77
     6
176
     1
 78
     2
176
     1
 67
     7
176
     1
 79
     3
176
     1
170
     0
176
     1
171
     0
176
     1
290
     0
176
     1
 93
        1
176
     1
 44
0.0
176
     1
173
     0
176
     1
  0
VISUALSTYLE
  5
35
102
{ACAD_REACTORS
330
2A
102
}
330
2A
100
AcDbVisualStyle
  2
Dim
 70
    11
177
     2
291
     1
 71
     2
176
     1
 72
     2
176
     1
 73
     0
176
     1
 90
        0
176
     1
 40
-0.6
176
     1
 41
-30.0
176
     1
 62
     5
 63
     7
421
 16777215
176
     1
 74
     1
176
     1
 91
        4
176
     1
 64
     7
176
     1
 65
   257
176
     1
 75
     1
176
     1
175
     1
176
     1
 42
1.0
176
     1
 92
        8
176
     1
 66
     7
176
     1
 43
1.0
176
     1
 76
     1
176
     1
 77
     6
176
     1
 78
     2
176
     1
 67
     7
176
     1
 79
     5
176
     1
170
     0
176
     1
171
     0
176
     1
290
     0
176
     1
 93
        1
176
     1
 44
-50.0
176
     1
173
     0
176
     1
  0
VISUALSTYLE
  5
39
102
{ACAD_REACTORS
330
2A
102
}
330
2A
100
AcDbVisualStyle
  2
Facepattern
 70
    15
177
     2
291
     1
 71
     2
176
     1
 72
     2
176
     1
 73
     0
176
     1
 90
        0
176
     1
 40
-0.6
176
     1
 41
-30.0
176
     1
 62
     5
 63
     7
421
 16777215
176
     1
 74
     1
176
     1
 91
        4
176
     1
 64
     7
176
     1
 65
   257
176
     1
 75
     1
176
     1
175
     1
176
     1
 42
1.0
176
     1
 92
        8
176
     1
 66
     7
176
     1
 43
1.0
176
     1
 76
     1
176
     1
 77
     6
176
     1
 78
     2
176
     1
 67
     7
176
     1
 79
     5
176
     1
170
     0
176
     1
171
     0
176
     1
290
     0
176
     1
 93
        1
176
     1
 44
0.0
176
     1
173
     0
176
     1
  0
VISUALSTYLE
  5
2B
102
{ACAD_REACTORS
330
2A
102
}
330
2A
100
AcDbVisualStyle
  2
Flat
 70
     0
177
     2
291
     1
 71
     2
176
     1
 72
     1
176
     1
 73
     1
176
     1
 90
        2
176
     1
 40
-0.6
176
     1
 41
30.0
176
     1
 62
     5
 63
     7
421
 16777215
176
     1
 74
     0
176
     1
 91
        4
176
     1
 64
     7
176
     1
 65
   257
176
     1
 75
     1
176
     1
175
     1
176
     1
 42
1.0
176
     1
 92
        8
176
     1
 66
     7
176
     1
 43
1.0
176
     1
 76
     1
176
     1
 77
     6
176
     1
 78
     2
176
     1
 67
     7
176
     1
 79
     5
176
     1
170
     0
176
     1
171
     0
176
     1
290
     0
176
     1
 93
       13
176
     1
 44
0.0
176
     1
173
     0
176
     1
  0
VISUALSTYLE
  5
2C
102
{ACAD_REACTORS
330
2A
102
}
330
2A
100
AcDbVisualStyle
  2
FlatWithEdges
 70
     1
177
     2
291
     1
 71
     2
176
     1
 72
     1
176
     1
 73
     1
176
     1
 90
        2
176
     1
 40
-0.6
176
     1
 41
30.0
176
     1
 62
     5
 63
     7
421
 16777215
176
     1
 74
     1
176
     1
 91
        4
176
     1
 64
     7
176
     1
 65
   257
176
     1
 75
     1
176
     1
175
     1
176
     1
 42
1.0
176
     1
 92
        0
176
     1
 66
   257
176
     1
 43
1.0
176
     1
 76
     1
176
     1
 77
     6
176
     1
 78
     2
176
     1
 67
     7
176
     1
 79
     5
176
     1
170
     0
176
     1
171
     0
176
     1
290
     0
176
     1
 93
       13
176
     1
 44
0.0
176
     1
173
     0
176
     1
  0
VISUALSTYLE
  5
2D
102
{ACAD_REACTORS
330
2A
102
}
330
2A
100
AcDbVisualStyle
  2
Gouraud
 70
     2
177
     2
291
     1
 71
     2
176
     1
 72
     2
176
     1
 73
     1
176
     1
 90
        2
176
     1
 40
-0.6
176
     1
 41
30.0
176
     1
 62
     5
 63
     7
421
 16777215
176
     1
 74
     0
176
     1
 91
        4
176
     1
 64
     7
176
     1
 65
   257
176
     1
 75
     1
176
     1
175
     1
176
     1
 42
1.0
176
     1
 92
        0
176
     1
 66
     7
176
     1
 43
1.0
176
     1
 76
     1
176
     1
 77
     6
176
     1
 78
     2
176
     1
 67
     7
176
     1
 79
     5
176
     1
170
     0
176
     1
171
     0
176
     1
290
     0
176
     1
 93
       13
176
     1
 44
0.0
176
     1
173
     0
176
     1
  0
VISUALSTYLE
  5
2E
102
{ACAD_REACTORS
330
2A
102
}
330
2A
100
AcDbVisualStyle
  2
GouraudWithEdges
 70
     3
177
     2
291
     1
 71
     2
176
     1
 72
     2
176
     1
 73
     1
176
     1
 90
        2
176
     1
 40
-0.6
176
     1
 41
30.0
176
     1
 62
     5
 63
     7
421
 16777215
176
     1
 74
     1
176
     1
 91
        4
176
     1
 64
     7
176
     1
 65
   257
176
     1
 75
     1
176
     1
175
     1
176
     1
 42
1.0
176
     1
 92
        0
176
     1
 66
   257
176
     1
 43
1.0
176
     1
 76
     1
176
     1
 77
     6
176
     1
 78
     2
176
     1
 67
     7
176
     1
 79
     5
176
     1
170
     0
176
     1
171
     0
176
     1
290
     0
176
     1
 93
       13
176
     1
 44
0.0
176
     1
173
     0
176
     1
  0
VISUALSTYLE
  5
38
102
{ACAD_REACTORS
330
2A
102
}
330
2A
100
AcDbVisualStyle
  2
Linepattern
 70
    14
177
     2
291
     1
 71
     2
176
     1
 72
     2
176
     1
 73
     0
176
     1
 90
        0
176
     1
 40
-0.6
176
     1
 41
-30.0
176
     1
 62
     5
 63
     7
421
 16777215
176
     1
 74
     1
176
     1
 91
        4
176
     1
 64
     7
176
     1
 65
   257
176
     1
 75
     7
176
     1
175
     7
176
     1
 42
1.0
176
     1
 92
        8
176
     1
 66
     7
176
     1
 43
1.0
176
     1
 76
     1
176
     1
 77
     6
176
     1
 78
     2
176
     1
 67
     7
176
     1
 79
     5
176
     1
170
     0
176
     1
171
     0
176
     1
290
     0
176
     1
 93
        1
176
     1
 44
0.0
176
     1
173
     0
176
     1
  0
VISUALSTYLE
  5
33
102
{ACAD_REACTORS
330
2A
102
}
330
2A
100
AcDbVisualStyle
  2
Realistic
 70
     8
177
     2
291
     0
 71
     2
176
     1
 72
     2
176
     1
 73
     0
176
     1
 90
        0
176
     1
 40
-0.6
176
     1
 41
-30.0
176
     1
 62
     5
 63
     7
421
 16777215
176
     1
 74
     1
176
     1
 91
        0
176
     1
 64
     7
176
     1
 65
   257
176
     1
 75
     1
176
     1
175
     1
176
     1
 42
1.0
176
     1
 92
        8
176
     1
 66
     8
424
  7895160
176
     1
 43
1.0
176
     1
 76
     1
176
     1
 77
     6
176
     1
 78
     2
176
     1
 67
     7
176
     1
 79
     5
176
     1
170
     0
176
     1
171
     0
176
     1
290
     0
176
     1
 93
       13
176
     1
 44
0.0
176
     1
173
     0
176
     1
  0
VISUALSTYLE
  5
37
102
{ACAD_REACTORS
330
2A
102
}
330
2A
100
AcDbVisualStyle
  2
Thicken
 70
    13
177
     2
291
     1
 71
     2
176
     1
 72
     2
176
     1
 73
     0
176
     1
 90
        0
176
     1
 40
-0.6
176
     1
 41
-30.0
176
     1
 62
     5
 63
     7
421
 16777215
176
     1
 74
     1
176
     1
 91
        4
176
     1
 64
     7
176
     1
 65
   257
176
     1
 75
     1
176
     1
175
     1
176
     1
 42
1.0
176
     1
 92
       12
176
     1
 66
     7
176
     1
 43
1.0
176
     1
 76
     1
176
     1
 77
     6
176
     1
 78
     2
176
     1
 67
     7
176
     1
 79
     5
176
     1
170
     0
176
     1
171
     0
176
     1
290
     0
176
     1
 93
        1
176
     1
 44
0.0
176
     1
173
     0
176
     1
  0
ENDSEC
  0
EOF
