  0
SECTION
  2
HEADER
  9
$ACADVER
  1
AC1024
  9
$ACADMAINTVER
 70
     6
  9
$DWGCODEPAGE
  3
ANSI_1252
  9
$INSBASE
 10
0.0
 20
0.0
 30
0.0
  9
$EXTMIN
 10
1.000000000000000E+20
 20
1.000000000000000E+20
 30
1.000000000000000E+20
  9
$EXTMAX
 10
-1.000000000000000E+20
 20
-1.000000000000000E+20
 30
-1.000000000000000E+20
  9
$LIMMIN
 10
0.0
 20
0.0
  9
$LIMMAX
 10
12.0
 20
9.0
  9
$ORTHOMODE
 70
     0
  9
$REGENMODE
 70
     1
  9
$FILLMODE
 70
     1
  9
$QTEXTMODE
 70
     0
  9
$MIRRTEXT
 70
     1
  9
$LTSCALE
 40
1.0
  9
$ATTMODE
 70
     1
  9
$TEXTSIZE
 40
0.2
  9
$TRACEWID
 40
0.05
  9
$TEXTSTYLE
  7
Standard
  9
$CLAYER
  8
0
  9
$CELTYPE
  6
ByLayer
  9
$CECOLOR
 62
   256
  9
$CELTSCALE
 40
1.0
  9
$DISPSILH
 70
     0
  9
$DIMSCALE
 40
1.0
  9
$DIMASZ
 40
0.18
  9
$DIMEXO
 40
0.0625
  9
$DIMDLI
 40
0.38
  9
$DIMRND
 40
0.0
  9
$DIMDLE
 40
0.0
  9
$DIMEXE
 40
0.18
  9
$DIMTP
 40
0.0
  9
$DIMTM
 40
0.0
  9
$DIMTXT
 40
0.18
  9
$DIMCEN
 40
0.09
  9
$DIMTSZ
 40
0.0
  9
$DIMTOL
 70
     0
  9
$DIMLIM
 70
     0
  9
$DIMTIH
 70
     1
  9
$DIMTOH
 70
     1
  9
$DIMSE1
 70
     0
  9
$DIMSE2
 70
     0
  9
$DIMTAD
 70
     0
  9
$DIMZIN
 70
     0
  9
$DIMBLK
  1

  9
$DIMASO
 70
     1
  9
$DIMSHO
 70
     1
  9
$DIMPOST
  1

  9
$DIMAPOST
  1

  9
$DIMALT
 70
     0
  9
$DIMALTD
 70
     2
  9
$DIMALTF
 40
25.4
  9
$DIMLFAC
 40
1.0
  9
$DIMTOFL
 70
     0
  9
$DIMTVP
 40
0.0
  9
$DIMTIX
 70
     0
  9
$DIMSOXD
 70
     0
  9
$DIMSAH
 70
     0
  9
$DIMBLK1
  1

  9
$DIMBLK2
  1

  9
$DIMSTYLE
  2
Standard
  9
$DIMCLRD
 70
     0
  9
$DIMCLRE
 70
     0
  9
$DIMCLRT
 70
     0
  9
$DIMTFAC
 40
1.0
  9
$DIMGAP
 40
0.09
  9
$DIMJUST
 70
     0
  9
$DIMSD1
 70
     0
  9
$DIMSD2
 70
     0
  9
$DIMTOLJ
 70
     1
  9
$DIMTZIN
 70
     0
  9
$DIMALTZ
 70
     0
  9
$DIMALTTZ
 70
     0
  9
$DIMUPT
 70
     0
  9
$DIMDEC
 70
     4
  9
$DIMTDEC
 70
     4
  9
$DIMALTU
 70
     2
  9
$DIMALTTD
 70
     2
  9
$DIMTXSTY
  7
Standard
  9
$DIMAUNIT
 70
     0
  9
$DIMADEC
 70
     0
  9
$DIMALTRND
 40
0.0
  9
$DIMAZIN
 70
     0
  9
$DIMDSEP
 70
    46
  9
$DIMATFIT
 70
     3
  9
$DIMFRAC
 70
     0
  9
$DIMLDRBLK
  1

  9
$DIMLUNIT
 70
     2
  9
$DIMLWD
 70
    -2
  9
$DIMLWE
 70
    -2
  9
$DIMTMOVE
 70
     0
  9
$DIMFXL
 40
1.0
  9
$DIMFXLON
 70
     0
  9
$DIMJOGANG
 40
0.7853981633974483
  9
$DIMTFILL
 70
     0
  9
$DIMTFILLCLR
 70
     0
  9
$DIMARCSYM
 70
     0
  9
$DIMLTYPE
  6

  9
$DIMLTEX1
  6

  9
$DIMLTEX2
  6

  9
$DIMTXTDIRECTION
 70
     0
  9
$LUNITS
 70
     2
  9
$LUPREC
 70
     4
  9
$SKETCHINC
 40
0.1
  9
$FILLETRAD
 40
0.5
  9
$AUNITS
 70
     0
  9
$AUPREC
 70
     0
  9
$MENU
  1
.
  9
$ELEVATION
 40
0.0
  9
$PELEVATION
 40
0.0
  9
$THICKNESS
 40
0.0
  9
$LIMCHECK
 70
     0
  9
$CHAMFERA
 40
0.5
  9
$CHAMFERB
 40
0.5
  9
$CHAMFERC
 40
1.0
  9
$CHAMFERD
 40
0.0
  9
$SKPOLY
 70
     0
  9
$TDCREATE
 40
2459171.878811273
  9
$TDUCREATE
 40
2459172.212144606
  9
$TDUPDATE
 40
2459171.878811308
  9
$TDUUPDATE
 40
2459172.212144641
  9
$TDINDWG
 40
0.0000000116
  9
$TDUSRTIMER
 40
0.0000000116
  9
$USRTIMER
 70
     1
  9
$ANGBASE
 50
0.0
  9
$ANGDIR
 70
     0
  9
$PDMODE
 70
     0
  9
$PDSIZE
 40
0.0
  9
$PLINEWID
 40
0.0
  9
$SPLFRAME
 70
     0
  9
$SPLINETYPE
 70
     6
  9
$SPLINESEGS
 70
     8
  9
$HANDSEED
  5
C0
  9
$SURFTAB1
 70
     6
  9
$SURFTAB2
 70
     6
  9
$SURFTYPE
 70
     6
  9
$SURFU
 70
     6
  9
$SURFV
 70
     6
  9
$UCSBASE
  2

  9
$UCSNAME
  2

  9
$UCSORG
 10
0.0
 20
0.0
 30
0.0
  9
$UCSXDIR
 10
1.0
 20
0.0
 30
0.0
  9
$UCSYDIR
 10
0.0
 20
1.0
 30
0.0
  9
$UCSORTHOREF
  2

  9
$UCSORTHOVIEW
 70
     0
  9
$UCSORGTOP
 10
0.0
 20
0.0
 30
0.0
  9
$UCSORGBOTTOM
 10
0.0
 20
0.0
 30
0.0
  9
$UCSORGLEFT
 10
0.0
 20
0.0
 30
0.0
  9
$UCSORGRIGHT
 10
0.0
 20
0.0
 30
0.0
  9
$UCSORGFRONT
 10
0.0
 20
0.0
 30
0.0
  9
$UCSORGBACK
 10
0.0
 20
0.0
 30
0.0
  9
$PUCSBASE
  2

  9
$PUCSNAME
  2

  9
$PUCSORG
 10
0.0
 20
0.0
 30
0.0
  9
$PUCSXDIR
 10
1.0
 20
0.0
 30
0.0
  9
$PUCSYDIR
 10
0.0
 20
1.0
 30
0.0
  9
$PUCSORTHOREF
  2

  9
$PUCSORTHOVIEW
 70
     0
  9
$PUCSORGTOP
 10
0.0
 20
0.0
 30
0.0
  9
$PUCSORGBOTTOM
 10
0.0
 20
0.0
 30
0.0
  9
$PUCSORGLEFT
 10
0.0
 20
0.0
 30
0.0
  9
$PUCSORGRIGHT
 10
0.0
 20
0.0
 30
0.0
  9
$PUCSORGFRONT
 10
0.0
 20
0.0
 30
0.0
  9
$PUCSORGBACK
 10
0.0
 20
0.0
 30
0.0
  9
$USERI1
 70
     0
  9
$USERI2
 70
     0
  9
$USERI3
 70
     0
  9
$USERI4
 70
     0
  9
$USERI5
 70
     0
  9
$USERR1
 40
0.0
  9
$USERR2
 40
0.0
  9
$USERR3
 40
0.0
  9
$USERR4
 40
0.0
  9
$USERR5
 40
0.0
  9
$WORLDVIEW
 70
     1
  9
$SHADEDGE
 70
     3
  9
$SHADEDIF
 70
    70
  9
$TILEMODE
 70
     1
  9
$MAXACTVP
 70
    64
  9
$PINSBASE
 10
0.0
 20
0.0
 30
0.0
  9
$PLIMCHECK
 70
     0
  9
$PEXTMIN
 10
1.000000000000000E+20
 20
1.000000000000000E+20
 30
1.000000000000000E+20
  9
$PEXTMAX
 10
-1.000000000000000E+20
 20
-1.000000000000000E+20
 30
-1.000000000000000E+20
  9
$PLIMMIN
 10
0.0
 20
0.0
  9
$PLIMMAX
 10
12.0
 20
9.0
  9
$UNITMODE
 70
     0
  9
$VISRETAIN
 70
     1
  9
$PLINEGEN
 70
     0
  9
$PSLTSCALE
 70
     1
  9
$TREEDEPTH
 70
  3020
  9
$CMLSTYLE
  2
Standard
  9
$CMLJUST
 70
     0
  9
$CMLSCALE
 40
1.0
  9
$PROXYGRAPHICS
 70
     1
  9
$MEASUREMENT
 70
     0
  9
$CELWEIGHT
370
    -1
  9
$ENDCAPS
280
     0
  9
$JOINSTYLE
280
     0
  9
$LWDISPLAY
290
     1
  9
$INSUNITS
 70
     4
  9
$HYPERLINKBASE
  1

  9
$STYLESHEET
  1

  9
$XEDIT
290
     1
  9
$CEPSNTYPE
380
     0
  9
$PSTYLEMODE
290
     1
  9
$FINGERPRINTGUID
  2
{C7027674-1A98-47EB-9A8C-01C9195EA6A9}
  9
$VERSIONGUID
  2
{FAEB1C32-E019-11D5-929B-00C0DF256EC4}
  9
$EXTNAMES
290
     1
  9
$PSVPSCALE
 40
0.0
  9
$OLESTARTUP
290
     0
  9
$SORTENTS
280
   127
  9
$INDEXCTL
280
     0
  9
$HIDETEXT
280
     1
  9
$XCLIPFRAME
280
     2
  9
$HALOGAP
280
     0
  9
$OBSCOLOR
 70
   257
  9
$OBSLTYPE
280
     0
  9
$INTERSECTIONDISPLAY
280
     0
  9
$INTERSECTIONCOLOR
 70
   257
  9
$DIMASSOC
280
     2
  9
$PROJECTNAME
  1

  9
$CAMERADISPLAY
290
     0
  9
$LENSLENGTH
 40
50.0
  9
$CAMERAHEIGHT
 40
0.0
  9
$STEPSPERSEC
 40
2.0
  9
$STEPSIZE
 40
6.0
  9
$3DDWFPREC
 40
2.0
  9
$PSOLWIDTH
 40
0.25
  9
$PSOLHEIGHT
 40
4.0
  9
$LOFTANG1
 40
1.570796326794897
  9
$LOFTANG2
 40
1.570796326794897
  9
$LOFTMAG1
 40
0.0
  9
$LOFTMAG2
 40
0.0
  9
$LOFTPARAM
 70
     7
  9
$LOFTNORMALS
280
     1
  9
$LATITUDE
 40
37.795
  9
$LONGITUDE
 40
-122.394
  9
$NORTHDIRECTION
 40
0.0
  9
$TIMEZONE
 70
 -8000
  9
$LIGHTGLYPHDISPLAY
280
     1
  9
$TILEMODELIGHTSYNCH
280
     1
  9
$CMATERIAL
347
3C
  9
$SOLIDHIST
280
     1
  9
$SHOWHIST
280
     1
  9
$DWFFRAME
280
     2
  9
$DGNFRAME
280
     2
  9
$REALWORLDSCALE
290
     1
  9
$INTERFERECOLOR
 62
   256
  9
$CSHADOW
280
     0
  9
$SHADOWPLANELOCATION
 40
0.0
  0
ENDSEC
  0
SECTION
  2
CLASSES
  0
CLASS
  1
ACDBDICTIONARYWDFLT
  2
AcDbDictionaryWithDefault
  3
ObjectDBX Classes
 90
        0
 91
        4
280
     0
281
     0
  0
CLASS
  1
VISUALSTYLE
  2
AcDbVisualStyle
  3
ObjectDBX Classes
 90
     4095
 91
        4
280
     0
281
     0
  0
CLASS
  1
MATERIAL
  2
AcDbMaterial
  3
ObjectDBX Classes
 90
     1153
 91
        4
280
     0
281
     0
  0
CLASS
  1
SUN
  2
AcDbSun
  3
SCENEOE
 90
     1024
 91
        4
280
     0
281
     0
  0
ENDSEC
  0
SECTION
  2
TABLES
  0
TABLE
  2
VPORT
  5
8
330
0
100
AcDbSymbolTable
 70
     1
  0
VPORT
  5
29
330
8
100
AcDbSymbolTableRecord
100
AcDbViewportTableRecord
  2
*Active
 70
     0
 10
0.0
 20
0.0
 11
1.0
 21
1.0
 12
0.0
 22
0.0
 13
0.0
 23
0.0
 14
0.5
 24
0.5
 15
0.5
 25
0.5
 16
0.0
 26
0.0
 36
1.0
 17
959.99999976
 27
539.999999865
 37
0.0
 40
1079.99999973
 41
1.777777777777778
 42
50.0
 43
0.0
 44
0.0
 50
0.0
 51
0.0
 71
     0
 72
   100
 73
     1
 74
     3
 75
     0
 76
     0
 77
     0
 78
     0
281
     0
 65
     1
110
0.0
120
0.0
130
0.0
111
1.0
121
0.0
131
0.0
112
0.0
122
1.0
132
0.0
 79
     0
146
0.0
 60
     3
 61
     5
292
     1
282
     1
141
0.0
142
0.0
 63
   250
361
3F
  0
ENDTAB
  0
TABLE
  2
LTYPE
  5
5
330
0
100
AcDbSymbolTable
 70
     1
  0
LTYPE
  5
14
330
5
100
AcDbSymbolTableRecord
100
AcDbLinetypeTableRecord
  2
ByBlock
 70
     0
  3

 72
    65
 73
     0
 40
0.0
  0
LTYPE
  5
15
330
5
100
AcDbSymbolTableRecord
100
AcDbLinetypeTableRecord
  2
ByLayer
 70
     0
  3

 72
    65
 73
     0
 40
0.0
  0
LTYPE
  5
16
330
5
100
AcDbSymbolTableRecord
100
AcDbLinetypeTableRecord
  2
Continuous
 70
     0
  3
Solid line
 72
    65
 73
     0
 40
0.0
  0
ENDTAB
  0
TABLE
  2
LAYER
  5
2
330
0
100
AcDbSymbolTable
 70
     1
  0
LAYER
  5
10
330
2
100
AcDbSymbolTableRecord
100
AcDbLayerTableRecord
  2
0
 70
     0
 62
     7
  6
Continuous
370
    -3
390
F
347
3E
  0
ENDTAB
  0
TABLE
  2
STYLE
  5
3
330
0
100
AcDbSymbolTable
 70
     1
  0
STYLE
  5
11
330
3
100
AcDbSymbolTableRecord
100
AcDbTextStyleTableRecord
  2
Standard
 70
     0
 40
0.0
 41
1.0
 50
0.0
 71
     0
 42
0.2
  3
txt
  4

  0
ENDTAB
  0
TABLE
  2
VIEW
  5
6
330
0
100
AcDbSymbolTable
 70
     0
  0
ENDTAB
  0
TABLE
  2
UCS
  5
7
330
0
100
AcDbSymbolTable
 70
     0
  0
ENDTAB
  0
TABLE
  2
APPID
  5
9
330
0
100
AcDbSymbolTable
 70
     1
  0
APPID
  5
12
330
9
100
AcDbSymbolTableRecord
100
AcDbRegAppTableRecord
  2
ACAD
 70
     0
  0
ENDTAB
  0
TABLE
  2
DIMSTYLE
  5
A
330
0
100
AcDbSymbolTable
 70
     1
100
AcDbDimStyleTable
  0
DIMSTYLE
105
27
330
A
100
AcDbSymbolTableRecord
100
AcDbDimStyleTableRecord
  2
Standard
 70
     0
178
     0
340
11
  0
ENDTAB
  0
TABLE
  2
BLOCK_RECORD
  5
1
330
0
100
AcDbSymbolTable
 70
    15
  0
BLOCK_RECORD
  5
1F
330
1
100
AcDbSymbolTableRecord
100
AcDbBlockTableRecord
  2
*Model_Space
340
22
 70
     0
280
     1
281
     0
  0
BLOCK_RECORD
  5
1B
330
1
100
AcDbSymbolTableRecord
100
AcDbBlockTableRecord
  2
*Paper_Space
340
1E
 70
     0
280
     1
281
     0
  0
BLOCK_RECORD
  5
23
330
1
100
AcDbSymbolTableRecord
100
AcDbBlockTableRecord
  2
*Paper_Space0
340
26
 70
     0
280
     1
281
     0
  0
BLOCK_RECORD
  5
40
330
1
100
AcDbSymbolTableRecord
100
AcDbBlockTableRecord
  2
block 2
340
0
102
{BLKREFS
331
41
102
}
 70
     0
280
     1
281
     0
  0
BLOCK_RECORD
  5
45
330
1
100
AcDbSymbolTableRecord
100
AcDbBlockTableRecord
  2
block 3
340
0
102
{BLKREFS
331
46
102
}
 70
     0
280
     1
281
     0
  0
BLOCK_RECORD
  5
54
330
1
100
AcDbSymbolTableRecord
100
AcDbBlockTableRecord
  2
block 4
340
0
102
{BLKREFS
331
55
102
}
 70
     0
280
     1
281
     0
  0
BLOCK_RECORD
  5
5F
330
1
100
AcDbSymbolTableRecord
100
AcDbBlockTableRecord
  2
block 5
340
0
102
{BLKREFS
331
60
102
}
 70
     0
280
     1
281
     0
  0
BLOCK_RECORD
  5
6E
330
1
100
AcDbSymbolTableRecord
100
AcDbBlockTableRecord
  2
block 6
340
0
102
{BLKREFS
331
6F
102
}
 70
     0
280
     1
281
     0
  0
BLOCK_RECORD
  5
73
330
1
100
AcDbSymbolTableRecord
100
AcDbBlockTableRecord
  2
block 7
340
0
102
{BLKREFS
331
74
102
}
 70
     0
280
     1
281
     0
  0
BLOCK_RECORD
  5
78
330
1
100
AcDbSymbolTableRecord
100
AcDbBlockTableRecord
  2
block 8
340
0
102
{BLKREFS
331
79
102
}
 70
     0
280
     1
281
     0
  0
BLOCK_RECORD
  5
7D
330
1
100
AcDbSymbolTableRecord
100
AcDbBlockTableRecord
  2
block 9
340
0
102
{BLKREFS
331
7E
102
}
 70
     0
280
     1
281
     0
  0
BLOCK_RECORD
  5
82
330
1
100
AcDbSymbolTableRecord
100
AcDbBlockTableRecord
  2
block 10
340
0
102
{BLKREFS
331
83
102
}
 70
     0
280
     1
281
     0
  0
BLOCK_RECORD
  5
87
330
1
100
AcDbSymbolTableRecord
100
AcDbBlockTableRecord
  2
block 11
340
0
102
{BLKREFS
331
88
102
}
 70
     0
280
     1
281
     0
  0
BLOCK_RECORD
  5
8C
330
1
100
AcDbSymbolTableRecord
100
AcDbBlockTableRecord
  2
block 12
340
0
102
{BLKREFS
331
8D
102
}
 70
     0
280
     1
281
     0
  0
BLOCK_RECORD
  5
91
330
1
100
AcDbSymbolTableRecord
100
AcDbBlockTableRecord
  2
block 13
340
0
102
{BLKREFS
331
92
102
}
 70
     0
280
     1
281
     0
  0
BLOCK_RECORD
  5
96
330
1
100
AcDbSymbolTableRecord
100
AcDbBlockTableRecord
  2
block 14
340
0
102
{BLKREFS
331
97
102
}
 70
     0
280
     1
281
     0
  0
BLOCK_RECORD
  5
9B
330
1
100
AcDbSymbolTableRecord
100
AcDbBlockTableRecord
  2
block 15
340
0
102
{BLKREFS
331
9C
102
}
 70
     0
280
     1
281
     0
  0
ENDTAB
  0
ENDSEC
  0
SECTION
  2
BLOCKS
  0
BLOCK
  5
20
330
1F
100
AcDbEntity
  8
0
100
AcDbBlockBegin
  2
*Model_Space
 70
     0
 10
0.0
 20
0.0
 30
0.0
  3
*Model_Space
  1

  0
ENDBLK
  5
21
330
1F
100
AcDbEntity
  8
0
100
AcDbBlockEnd
  0
BLOCK
  5
1C
330
1B
100
AcDbEntity
 67
     1
  8
0
100
AcDbBlockBegin
  2
*Paper_Space
 70
     0
 10
0.0
 20
0.0
 30
0.0
  3
*Paper_Space
  1

  0
ENDBLK
  5
1D
330
1B
100
AcDbEntity
 67
     1
  8
0
100
AcDbBlockEnd
  0
BLOCK
  5
24
330
23
100
AcDbEntity
  8
0
100
AcDbBlockBegin
  2
*Paper_Space0
 70
     0
 10
0.0
 20
0.0
 30
0.0
  3
*Paper_Space0
  1

  0
ENDBLK
  5
25
330
23
100
AcDbEntity
  8
0
100
AcDbBlockEnd
  0
BLOCK
  5
42
330
40
100
AcDbEntity
  8
0
100
AcDbBlockBegin
  2
block 2
 70
     0
 10
0.0
 20
0.0
 30
0.0
  3
block 2
  1

  0
SPLINE
  5
44
330
40
100
AcDbEntity
  8
0
 62
     7
420
 16777215
370
    25
100
AcDbSpline
210
0.0
220
0.0
230
1.0
 70
    11
 71
     3
 72
    29
 73
    25
 74
     0
 42
0.0000000001
 43
0.0000000001
 12
1.0
 22
0.0
 32
0.0
 13
1.0
 23
0.0
 33
0.0
 40
0.0
 40
0.0
 40
0.0
 40
0.0
 40
1.0
 40
1.0
 40
1.0
 40
2.0
 40
2.0
 40
2.0
 40
3.0
 40
3.0
 40
3.0
 40
4.0
 40
4.0
 40
4.0
 40
5.0
 40
5.0
 40
5.0
 40
6.0
 40
6.0
 40
6.0
 40
7.0
 40
7.0
 40
7.0
 40
8.0
 40
8.0
 40
8.0
 40
8.0
 10
801.0114997997467
 20
475.2154998811964
 30
0.0
 10
798.2500760512836
 20
475.2154998811964
 30
0.0
 10
796.0114998009967
 20
477.4540761314824
 30
0.0
 10
796.0114998009967
 20
480.2154998799464
 30
0.0
 10
796.0114998009967
 20
480.2154998799464
 30
0.0
 10
796.0114998009967
 20
599.7844998500536
 30
0.0
 10
796.0114998009967
 20
599.7844998500536
 30
0.0
 10
796.0114998009967
 20
602.5459235985176
 30
0.0
 10
798.2500760512836
 20
604.7844998488036
 30
0.0
 10
801.0114997997467
 20
604.7844998488036
 30
0.0
 10
801.0114997997467
 20
604.7844998488036
 30
0.0
 10
1118.988499720252
 20
604.7844998488036
 30
0.0
 10
1118.988499720252
 20
604.7844998488036
 30
0.0
 10
1121.749923468716
 20
604.7844998488036
 30
0.0
 10
1123.988499719002
 20
602.5459235985176
 30
0.0
 10
1123.988499719002
 20
599.7844998500536
 30
0.0
 10
1123.988499719002
 20
599.7844998500536
 30
0.0
 10
1123.988499719002
 20
480.2154998799464
 30
0.0
 10
1123.988499719002
 20
480.2154998799464
 30
0.0
 10
1123.988499719002
 20
477.4540761314824
 30
0.0
 10
1121.749923468716
 20
475.2154998811964
 30
0.0
 10
1118.988499720252
 20
475.2154998811964
 30
0.0
 10
1118.988499720252
 20
475.2154998811964
 30
0.0
 10
801.0114997997467
 20
475.2154998811964
 30
0.0
 10
801.0114997997467
 20
475.2154998811964
 30
0.0
  0
ENDBLK
  5
43
330
40
100
AcDbEntity
  8
0
100
AcDbBlockEnd
  0
BLOCK
  5
47
330
45
100
AcDbEntity
  8
0
100
AcDbBlockBegin
  2
block 3
 70
     0
 10
0.0
 20
0.0
 30
0.0
  3
block 3
  1

  0
POLYLINE
  5
49
330
45
100
AcDbEntity
  8
0
 62
     7
420
 16777215
370
    25
100
AcDb2dPolyline
 66
     1
 10
0.0
 20
0.0
 30
0.0
  0
VERTEX
  5
4A
330
49
100
AcDbEntity
  8
0
 62
     7
420
 16777215
370
    25
100
AcDbVertex
100
AcDb2dVertex
 10
832.5241349155608
 20
573.2593740249764
 30
0.0
  0
VERTEX
  5
4B
330
49
100
AcDbEntity
  8
0
 62
     7
420
 16777215
370
    25
100
AcDbVertex
100
AcDb2dVertex
 10
832.5241349155608
 20
554.2093740297388
 30
0.0
  0
VERTEX
  5
4C
330
49
100
AcDbEntity
  8
0
 62
     7
420
 16777215
370
    25
100
AcDbVertex
100
AcDb2dVertex
 10
852.5241349105607
 20
554.2093740297388
 30
0.0
  0
VERTEX
  5
4D
330
49
100
AcDbEntity
  8
0
 62
     7
420
 16777215
370
    25
100
AcDbVertex
100
AcDb2dVertex
 10
852.5241349105607
 20
573.2593740249764
 30
0.0
  0
VERTEX
  5
4E
330
49
100
AcDbEntity
  8
0
 62
     7
420
 16777215
370
    25
100
AcDbVertex
100
AcDb2dVertex
 10
871.5741349057985
 20
573.2593740249764
 30
0.0
  0
VERTEX
  5
4F
330
49
100
AcDbEntity
  8
0
 62
     7
420
 16777215
370
    25
100
AcDbVertex
100
AcDb2dVertex
 10
871.5741349057985
 20
593.2593740199765
 30
0.0
  0
VERTEX
  5
50
330
49
100
AcDbEntity
  8
0
 62
     7
420
 16777215
370
    25
100
AcDbVertex
100
AcDb2dVertex
 10
813.4741349203231
 20
593.2593740199765
 30
0.0
  0
VERTEX
  5
51
330
49
100
AcDbEntity
  8
0
 62
     7
420
 16777215
370
    25
100
AcDbVertex
100
AcDb2dVertex
 10
813.4741349203231
 20
573.2593740249764
 30
0.0
  0
VERTEX
  5
52
330
49
100
AcDbEntity
  8
0
 62
     7
420
 16777215
370
    25
100
AcDbVertex
100
AcDb2dVertex
 10
832.5241349155608
 20
573.2593740249764
 30
0.0
  0
SEQEND
  5
53
330
49
100
AcDbEntity
  8
0
 62
     7
420
 16777215
370
    25
  0
ENDBLK
  5
48
330
45
100
AcDbEntity
  8
0
100
AcDbBlockEnd
  0
BLOCK
  5
56
330
54
100
AcDbEntity
  8
0
100
AcDbBlockBegin
  2
block 4
 70
     0
 10
0.0
 20
0.0
 30
0.0
  3
block 4
  1

  0
POLYLINE
  5
58
330
54
100
AcDbEntity
  8
0
 62
     7
420
 16777215
370
    25
100
AcDb2dPolyline
 66
     1
 10
0.0
 20
0.0
 30
0.0
  0
VERTEX
  5
59
330
58
100
AcDbEntity
  8
0
 62
     7
420
 16777215
370
    25
100
AcDbVertex
100
AcDb2dVertex
 10
809.3522192187838
 20
513.9629311076231
 30
0.0
  0
VERTEX
  5
5A
330
58
100
AcDbEntity
  8
0
 62
     7
420
 16777215
370
    25
100
AcDbVertex
100
AcDb2dVertex
 10
823.3522192152828
 20
513.9629311076231
 30
0.0
  0
VERTEX
  5
5B
330
58
100
AcDbEntity
  8
0
 62
     7
420
 16777215
370
    25
100
AcDbVertex
100
AcDb2dVertex
 10
823.3522192152838
 20
553.9629310976233
 30
0.0
  0
VERTEX
  5
5C
330
58
100
AcDbEntity
  8
0
 62
     7
420
 16777215
370
    25
100
AcDbVertex
100
AcDb2dVertex
 10
809.3522192187838
 20
553.9629310976233
 30
0.0
  0
VERTEX
  5
5D
330
58
100
AcDbEntity
  8
0
 62
     7
420
 16777215
370
    25
100
AcDbVertex
100
AcDb2dVertex
 10
809.3522192187838
 20
513.9629311076231
 30
0.0
  0
SEQEND
  5
5E
330
58
100
AcDbEntity
  8
0
 62
     7
420
 16777215
370
    25
  0
ENDBLK
  5
57
330
54
100
AcDbEntity
  8
0
100
AcDbBlockEnd
  0
BLOCK
  5
61
330
5F
100
AcDbEntity
  8
0
100
AcDbBlockBegin
  2
block 5
 70
     0
 10
0.0
 20
0.0
 30
0.0
  3
block 5
  1

  0
POLYLINE
  5
63
330
5F
100
AcDbEntity
  8
0
 62
     7
420
 16777215
370
    25
100
AcDb2dPolyline
 66
     1
 10
0.0
 20
0.0
 30
0.0
  0
VERTEX
  5
64
330
63
100
AcDbEntity
  8
0
 62
     7
420
 16777215
370
    25
100
AcDbVertex
100
AcDb2dVertex
 10
875.3866349048453
 20
588.4968740211673
 30
0.0
  0
VERTEX
  5
65
330
63
100
AcDbEntity
  8
0
 62
     7
420
 16777215
370
    25
100
AcDbVertex
100
AcDb2dVertex
 10
875.3866349048453
 20
569.4468740259296
 30
0.0
  0
VERTEX
  5
66
330
63
100
AcDbEntity
  8
0
 62
     7
420
 16777215
370
    25
100
AcDbVertex
100
AcDb2dVertex
 10
856.3366349096077
 20
569.4468740259296
 30
0.0
  0
VERTEX
  5
67
330
63
100
AcDbEntity
  8
0
 62
     7
420
 16777215
370
    25
100
AcDbVertex
100
AcDb2dVertex
 10
856.3366349096077
 20
550.3968740306918
 30
0.0
  0
VERTEX
  5
68
330
63
100
AcDbEntity
  8
0
 62
     7
420
 16777215
370
    25
100
AcDbVertex
100
AcDb2dVertex
 10
827.7616349167516
 20
550.3968740306918
 30
0.0
  0
VERTEX
  5
69
330
63
100
AcDbEntity
  8
0
 62
     7
420
 16777215
370
    25
100
AcDbVertex
100
AcDb2dVertex
 10
827.7616349167516
 20
492.2968740452165
 30
0.0
  0
VERTEX
  5
6A
330
63
100
AcDbEntity
  8
0
 62
     7
420
 16777215
370
    25
100
AcDbVertex
100
AcDb2dVertex
 10
1114.463438055704
 20
492.2968740452165
 30
0.0
  0
VERTEX
  5
6B
330
63
100
AcDbEntity
  8
0
 62
     7
420
 16777215
370
    25
100
AcDbVertex
100
AcDb2dVertex
 10
1114.463438055704
 20
588.4968740211673
 30
0.0
  0
VERTEX
  5
6C
330
63
100
AcDbEntity
  8
0
 62
     7
420
 16777215
370
    25
100
AcDbVertex
100
AcDb2dVertex
 10
875.3866349048453
 20
588.4968740211673
 30
0.0
  0
SEQEND
  5
6D
330
63
100
AcDbEntity
  8
0
 62
     7
420
 16777215
370
    25
  0
ENDBLK
  5
62
330
5F
100
AcDbEntity
  8
0
100
AcDbBlockEnd
  0
BLOCK
  5
70
330
6E
100
AcDbEntity
  8
0
100
AcDbBlockBegin
  2
block 6
 70
     0
 10
0.0
 20
0.0
 30
0.0
  3
block 6
  1

  0
SPLINE
  5
72
330
6E
100
AcDbEntity
  8
0
 62
     7
420
 16777215
370
    25
100
AcDbSpline
210
0.0
220
0.0
230
1.0
 70
    11
 71
     3
 72
    20
 73
    16
 74
     0
 42
0.0000000001
 43
0.0000000001
 12
1.0
 22
0.0
 32
0.0
 13
1.0
 23
0.0
 33
0.0
 40
0.0
 40
0.0
 40
0.0
 40
0.0
 40
1.0
 40
1.0
 40
1.0
 40
2.0
 40
2.0
 40
2.0
 40
3.0
 40
3.0
 40
3.0
 40
4.0
 40
4.0
 40
4.0
 40
5.0
 40
5.0
 40
5.0
 40
5.0
 10
905.4557806064761
 20
483.7405948104191
 30
0.0
 10
905.4557806064761
 20
484.5966361724432
 30
0.0
 10
906.1497392440646
 20
485.2905948100309
 30
0.0
 10
907.0057806060887
 20
485.2905948100309
 30
0.0
 10
907.8618219681119
 20
485.2905948100309
 30
0.0
 10
908.5557806057005
 20
484.5966361724432
 30
0.0
 10
908.5557806057014
 20
483.7405948104191
 30
0.0
 10
908.5557806057005
 20
482.884553448395
 30
0.0
 10
907.8618219681119
 20
482.1905948108073
 30
0.0
 10
907.0057806060887
 20
482.1905948108073
 30
0.0
 10
906.1497392440646
 20
482.1905948108073
 30
0.0
 10
905.4557806064761
 20
482.884553448395
 30
0.0
 10
905.4557806064761
 20
483.7405948104191
 30
0.0
 10
905.4557806064761
 20
483.7405948104191
 30
0.0
 10
905.4557806064761
 20
483.7405948104191
 30
0.0
 10
905.4557806064761
 20
483.7405948104191
 30
0.0
  0
ENDBLK
  5
71
330
6E
100
AcDbEntity
  8
0
100
AcDbBlockEnd
  0
BLOCK
  5
75
330
73
100
AcDbEntity
  8
0
100
AcDbBlockBegin
  2
block 7
 70
     0
 10
0.0
 20
0.0
 30
0.0
  3
block 7
  1

  0
SPLINE
  5
77
330
73
100
AcDbEntity
  8
0
 62
     7
420
 16777215
370
    25
100
AcDbSpline
210
0.0
220
0.0
230
1.0
 70
    11
 71
     3
 72
    20
 73
    16
 74
     0
 42
0.0000000001
 43
0.0000000001
 12
1.0
 22
0.0
 32
0.0
 13
1.0
 23
0.0
 33
0.0
 40
0.0
 40
0.0
 40
0.0
 40
0.0
 40
1.0
 40
1.0
 40
1.0
 40
2.0
 40
2.0
 40
2.0
 40
3.0
 40
3.0
 40
3.0
 40
4.0
 40
4.0
 40
4.0
 40
5.0
 40
5.0
 40
5.0
 40
5.0
 10
1011.444218914299
 20
596.2594049195809
 30
0.0
 10
1011.444218914299
 20
597.115446281604
 30
0.0
 10
1012.138177551887
 20
597.8094049191926
 30
0.0
 10
1012.994218913911
 20
597.8094049191926
 30
0.0
 10
1013.850260275935
 20
597.8094049191926
 30
0.0
 10
1014.544218913523
 20
597.115446281604
 30
0.0
 10
1014.544218913523
 20
596.2594049195809
 30
0.0
 10
1014.544218913523
 20
595.4033635575568
 30
0.0
 10
1013.850260275935
 20
594.7094049199682
 30
0.0
 10
1012.994218913911
 20
594.7094049199682
 30
0.0
 10
1012.138177551887
 20
594.7094049199682
 30
0.0
 10
1011.444218914299
 20
595.4033635575568
 30
0.0
 10
1011.444218914299
 20
596.2594049195809
 30
0.0
 10
1011.444218914299
 20
596.2594049195809
 30
0.0
 10
1011.444218914299
 20
596.2594049195809
 30
0.0
 10
1011.444218914299
 20
596.2594049195809
 30
0.0
  0
ENDBLK
  5
76
330
73
100
AcDbEntity
  8
0
100
AcDbBlockEnd
  0
BLOCK
  5
7A
330
78
100
AcDbEntity
  8
0
100
AcDbBlockBegin
  2
block 8
 70
     0
 10
0.0
 20
0.0
 30
0.0
  3
block 8
  1

  0
SPLINE
  5
7C
330
78
100
AcDbEntity
  8
0
 62
     7
420
 16777215
370
    25
100
AcDbSpline
210
0.0
220
0.0
230
1.0
 70
    11
 71
     3
 72
    20
 73
    16
 74
     0
 42
0.0000000001
 43
0.0000000001
 12
1.0
 22
0.0
 32
0.0
 13
1.0
 23
0.0
 33
0.0
 40
0.0
 40
0.0
 40
0.0
 40
0.0
 40
1.0
 40
1.0
 40
1.0
 40
2.0
 40
2.0
 40
2.0
 40
3.0
 40
3.0
 40
3.0
 40
4.0
 40
4.0
 40
4.0
 40
5.0
 40
5.0
 40
5.0
 40
5.0
 10
905.4557806064761
 20
596.2594049195809
 30
0.0
 10
905.4557806064761
 20
597.115446281604
 30
0.0
 10
906.1497392440646
 20
597.8094049191926
 30
0.0
 10
907.0057806060887
 20
597.8094049191935
 30
0.0
 10
907.8618219681119
 20
597.8094049191926
 30
0.0
 10
908.5557806057005
 20
597.115446281604
 30
0.0
 10
908.5557806057014
 20
596.2594049195809
 30
0.0
 10
908.5557806057005
 20
595.4033635575568
 30
0.0
 10
907.8618219681119
 20
594.7094049199682
 30
0.0
 10
907.0057806060887
 20
594.7094049199682
 30
0.0
 10
906.1497392440646
 20
594.7094049199682
 30
0.0
 10
905.4557806064761
 20
595.4033635575568
 30
0.0
 10
905.4557806064761
 20
596.2594049195809
 30
0.0
 10
905.4557806064761
 20
596.2594049195809
 30
0.0
 10
905.4557806064761
 20
596.2594049195809
 30
0.0
 10
905.4557806064761
 20
596.2594049195809
 30
0.0
  0
ENDBLK
  5
7B
330
78
100
AcDbEntity
  8
0
100
AcDbBlockEnd
  0
BLOCK
  5
7F
330
7D
100
AcDbEntity
  8
0
100
AcDbBlockBegin
  2
block 9
 70
     0
 10
0.0
 20
0.0
 30
0.0
  3
block 9
  1

  0
SPLINE
  5
81
330
7D
100
AcDbEntity
  8
0
 62
     7
420
 16777215
370
    25
100
AcDbSpline
210
0.0
220
0.0
230
1.0
 70
    11
 71
     3
 72
    20
 73
    16
 74
     0
 42
0.0000000001
 43
0.0000000001
 12
1.0
 22
0.0
 32
0.0
 13
1.0
 23
0.0
 33
0.0
 40
0.0
 40
0.0
 40
0.0
 40
0.0
 40
1.0
 40
1.0
 40
1.0
 40
2.0
 40
2.0
 40
2.0
 40
3.0
 40
3.0
 40
3.0
 40
4.0
 40
4.0
 40
4.0
 40
5.0
 40
5.0
 40
5.0
 40
5.0
 10
1011.444218914299
 20
483.7405948104191
 30
0.0
 10
1011.444218914299
 20
484.5966361724432
 30
0.0
 10
1012.138177551887
 20
485.2905948100309
 30
0.0
 10
1012.994218913911
 20
485.2905948100309
 30
0.0
 10
1013.850260275935
 20
485.2905948100309
 30
0.0
 10
1014.544218913523
 20
484.5966361724432
 30
0.0
 10
1014.544218913523
 20
483.7405948104191
 30
0.0
 10
1014.544218913523
 20
482.884553448395
 30
0.0
 10
1013.850260275935
 20
482.1905948108073
 30
0.0
 10
1012.994218913911
 20
482.1905948108073
 30
0.0
 10
1012.138177551887
 20
482.1905948108073
 30
0.0
 10
1011.444218914299
 20
482.884553448395
 30
0.0
 10
1011.444218914299
 20
483.7405948104191
 30
0.0
 10
1011.444218914299
 20
483.7405948104191
 30
0.0
 10
1011.444218914299
 20
483.7405948104191
 30
0.0
 10
1011.444218914299
 20
483.7405948104191
 30
0.0
  0
ENDBLK
  5
80
330
7D
100
AcDbEntity
  8
0
100
AcDbBlockEnd
  0
BLOCK
  5
84
330
82
100
AcDbEntity
  8
0
100
AcDbBlockBegin
  2
block 10
 70
     0
 10
0.0
 20
0.0
 30
0.0
  3
block 10
  1

  0
SPLINE
  5
86
330
82
100
AcDbEntity
  8
0
 62
     7
420
 16777215
370
    25
100
AcDbSpline
210
0.0
220
0.0
230
1.0
 70
    11
 71
     3
 72
    20
 73
    16
 74
     0
 42
0.0000000001
 43
0.0000000001
 12
1.0
 22
0.0
 32
0.0
 13
1.0
 23
0.0
 33
0.0
 40
0.0
 40
0.0
 40
0.0
 40
0.0
 40
1.0
 40
1.0
 40
1.0
 40
2.0
 40
2.0
 40
2.0
 40
3.0
 40
3.0
 40
3.0
 40
4.0
 40
4.0
 40
4.0
 40
5.0
 40
5.0
 40
5.0
 40
5.0
 10
803.9865614646832
 20
483.7405948104191
 30
0.0
 10
803.9865614646832
 20
484.5966361724432
 30
0.0
 10
804.6805201022718
 20
485.2905948100309
 30
0.0
 10
805.5365614642958
 20
485.2905948100309
 30
0.0
 10
806.39260282632
 20
485.2905948100309
 30
0.0
 10
807.0865614639085
 20
484.5966361724432
 30
0.0
 10
807.0865614639085
 20
483.7405948104191
 30
0.0
 10
807.0865614639085
 20
482.884553448395
 30
0.0
 10
806.39260282632
 20
482.1905948108073
 30
0.0
 10
805.5365614642958
 20
482.1905948108073
 30
0.0
 10
804.6805201022718
 20
482.1905948108073
 30
0.0
 10
803.9865614646832
 20
482.884553448395
 30
0.0
 10
803.9865614646832
 20
483.7405948104191
 30
0.0
 10
803.9865614646832
 20
483.7405948104191
 30
0.0
 10
803.9865614646832
 20
483.7405948104191
 30
0.0
 10
803.9865614646832
 20
483.7405948104191
 30
0.0
  0
ENDBLK
  5
85
330
82
100
AcDbEntity
  8
0
100
AcDbBlockEnd
  0
BLOCK
  5
89
330
87
100
AcDbEntity
  8
0
100
AcDbBlockBegin
  2
block 11
 70
     0
 10
0.0
 20
0.0
 30
0.0
  3
block 11
  1

  0
SPLINE
  5
8B
330
87
100
AcDbEntity
  8
0
 62
     7
420
 16777215
370
    25
100
AcDbSpline
210
0.0
220
0.0
230
1.0
 70
    11
 71
     3
 72
    20
 73
    16
 74
     0
 42
0.0000000001
 43
0.0000000001
 12
1.0
 22
0.0
 32
0.0
 13
1.0
 23
0.0
 33
0.0
 40
0.0
 40
0.0
 40
0.0
 40
0.0
 40
1.0
 40
1.0
 40
1.0
 40
2.0
 40
2.0
 40
2.0
 40
3.0
 40
3.0
 40
3.0
 40
4.0
 40
4.0
 40
4.0
 40
5.0
 40
5.0
 40
5.0
 40
5.0
 10
1112.913438056091
 20
596.2594049195809
 30
0.0
 10
1112.913438056091
 20
597.115446281604
 30
0.0
 10
1113.60739669368
 20
597.8094049191926
 30
0.0
 10
1114.463438055704
 20
597.8094049191926
 30
0.0
 10
1115.319479417728
 20
597.8094049191926
 30
0.0
 10
1116.013438055316
 20
597.115446281604
 30
0.0
 10
1116.013438055316
 20
596.2594049195809
 30
0.0
 10
1116.013438055316
 20
595.4033635575568
 30
0.0
 10
1115.319479417728
 20
594.7094049199682
 30
0.0
 10
1114.463438055704
 20
594.7094049199682
 30
0.0
 10
1113.60739669368
 20
594.7094049199682
 30
0.0
 10
1112.913438056091
 20
595.4033635575568
 30
0.0
 10
1112.913438056091
 20
596.2594049195809
 30
0.0
 10
1112.913438056091
 20
596.2594049195809
 30
0.0
 10
1112.913438056091
 20
596.2594049195809
 30
0.0
 10
1112.913438056091
 20
596.2594049195809
 30
0.0
  0
ENDBLK
  5
8A
330
87
100
AcDbEntity
  8
0
100
AcDbBlockEnd
  0
BLOCK
  5
8E
330
8C
100
AcDbEntity
  8
0
100
AcDbBlockBegin
  2
block 12
 70
     0
 10
0.0
 20
0.0
 30
0.0
  3
block 12
  1

  0
SPLINE
  5
90
330
8C
100
AcDbEntity
  8
0
 62
     7
420
 16777215
370
    25
100
AcDbSpline
210
0.0
220
0.0
230
1.0
 70
    11
 71
     3
 72
    20
 73
    16
 74
     0
 42
0.0000000001
 43
0.0000000001
 12
1.0
 22
0.0
 32
0.0
 13
1.0
 23
0.0
 33
0.0
 40
0.0
 40
0.0
 40
0.0
 40
0.0
 40
1.0
 40
1.0
 40
1.0
 40
2.0
 40
2.0
 40
2.0
 40
3.0
 40
3.0
 40
3.0
 40
4.0
 40
4.0
 40
4.0
 40
5.0
 40
5.0
 40
5.0
 40
5.0
 10
803.9865614646832
 20
596.2594049195809
 30
0.0
 10
803.9865614646832
 20
597.115446281604
 30
0.0
 10
804.6805201022718
 20
597.8094049191926
 30
0.0
 10
805.5365614642958
 20
597.8094049191935
 30
0.0
 10
806.39260282632
 20
597.8094049191926
 30
0.0
 10
807.0865614639085
 20
597.115446281604
 30
0.0
 10
807.0865614639085
 20
596.2594049195809
 30
0.0
 10
807.0865614639085
 20
595.4033635575568
 30
0.0
 10
806.39260282632
 20
594.7094049199682
 30
0.0
 10
805.5365614642958
 20
594.7094049199682
 30
0.0
 10
804.6805201022718
 20
594.7094049199682
 30
0.0
 10
803.9865614646832
 20
595.4033635575568
 30
0.0
 10
803.9865614646832
 20
596.2594049195809
 30
0.0
 10
803.9865614646832
 20
596.2594049195809
 30
0.0
 10
803.9865614646832
 20
596.2594049195809
 30
0.0
 10
803.9865614646832
 20
596.2594049195809
 30
0.0
  0
ENDBLK
  5
8F
330
8C
100
AcDbEntity
  8
0
100
AcDbBlockEnd
  0
BLOCK
  5
93
330
91
100
AcDbEntity
  8
0
100
AcDbBlockBegin
  2
block 13
 70
     0
 10
0.0
 20
0.0
 30
0.0
  3
block 13
  1

  0
SPLINE
  5
95
330
91
100
AcDbEntity
  8
0
 62
     7
420
 16777215
370
    25
100
AcDbSpline
210
0.0
220
0.0
230
1.0
 70
    11
 71
     3
 72
    20
 73
    16
 74
     0
 42
0.0000000001
 43
0.0000000001
 12
1.0
 22
0.0
 32
0.0
 13
1.0
 23
0.0
 33
0.0
 40
0.0
 40
0.0
 40
0.0
 40
0.0
 40
1.0
 40
1.0
 40
1.0
 40
2.0
 40
2.0
 40
2.0
 40
3.0
 40
3.0
 40
3.0
 40
4.0
 40
4.0
 40
4.0
 40
5.0
 40
5.0
 40
5.0
 40
5.0
 10
1112.913438056091
 20
483.7405948104191
 30
0.0
 10
1112.913438056091
 20
484.5966361724432
 30
0.0
 10
1113.60739669368
 20
485.2905948100309
 30
0.0
 10
1114.463438055704
 20
485.2905948100309
 30
0.0
 10
1115.319479417728
 20
485.2905948100309
 30
0.0
 10
1116.013438055316
 20
484.5966361724432
 30
0.0
 10
1116.013438055316
 20
483.7405948104191
 30
0.0
 10
1116.013438055316
 20
482.884553448395
 30
0.0
 10
1115.319479417728
 20
482.1905948108073
 30
0.0
 10
1114.463438055704
 20
482.1905948108073
 30
0.0
 10
1113.60739669368
 20
482.1905948108073
 30
0.0
 10
1112.913438056091
 20
482.884553448395
 30
0.0
 10
1112.913438056091
 20
483.7405948104191
 30
0.0
 10
1112.913438056091
 20
483.7405948104191
 30
0.0
 10
1112.913438056091
 20
483.7405948104191
 30
0.0
 10
1112.913438056091
 20
483.7405948104191
 30
0.0
  0
ENDBLK
  5
94
330
91
100
AcDbEntity
  8
0
100
AcDbBlockEnd
  0
BLOCK
  5
98
330
96
100
AcDbEntity
  8
0
100
AcDbBlockBegin
  2
block 14
 70
     0
 10
0.0
 20
0.0
 30
0.0
  3
block 14
  1

  0
SPLINE
  5
9A
330
96
100
AcDbEntity
  8
0
 62
     7
420
 16777215
370
    25
100
AcDbSpline
210
0.0
220
0.0
230
1.0
 70
    11
 71
     3
 72
    20
 73
    16
 74
     0
 42
0.0000000001
 43
0.0000000001
 12
1.0
 22
0.0
 32
0.0
 13
1.0
 23
0.0
 33
0.0
 40
0.0
 40
0.0
 40
0.0
 40
0.0
 40
1.0
 40
1.0
 40
1.0
 40
2.0
 40
2.0
 40
2.0
 40
3.0
 40
3.0
 40
3.0
 40
4.0
 40
4.0
 40
4.0
 40
5.0
 40
5.0
 40
5.0
 40
5.0
 10
807.8303967753866
 20
502.2842114810584
 30
0.0
 10
807.8303967753866
 20
506.9786318534468
 30
0.0
 10
811.6359764008731
 20
510.7842114789334
 30
0.0
 10
816.3303967732616
 20
510.7842114789334
 30
0.0
 10
821.0248171456491
 20
510.7842114789334
 30
0.0
 10
824.8303967711366
 20
506.9786318534468
 30
0.0
 10
824.8303967711366
 20
502.2842114810584
 30
0.0
 10
824.8303967711366
 20
497.5897911086718
 30
0.0
 10
821.0248171456491
 20
493.7842114831834
 30
0.0
 10
816.3303967732616
 20
493.7842114831834
 30
0.0
 10
811.6359764008731
 20
493.7842114831834
 30
0.0
 10
807.8303967753866
 20
497.5897911086718
 30
0.0
 10
807.8303967753866
 20
502.2842114810584
 30
0.0
 10
807.8303967753866
 20
502.2842114810584
 30
0.0
 10
807.8303967753866
 20
502.2842114810584
 30
0.0
 10
807.8303967753866
 20
502.2842114810584
 30
0.0
  0
ENDBLK
  5
99
330
96
100
AcDbEntity
  8
0
100
AcDbBlockEnd
  0
BLOCK
  5
9D
330
9B
100
AcDbEntity
  8
0
100
AcDbBlockBegin
  2
block 15
 70
     0
 10
0.0
 20
0.0
 30
0.0
  3
block 15
  1

  0
POLYLINE
  5
9F
330
9B
100
AcDbEntity
  8
0
 62
   240
420
 15539236
370
    35
100
AcDb2dPolyline
 66
     1
 10
0.0
 20
0.0
 30
0.0
  0
VERTEX
  5
A0
330
9F
100
AcDbEntity
  8
0
 62
   240
420
 15539236
370
    35
100
AcDbVertex
100
AcDb2dVertex
 10
807.9980466730004
 20
618.0971678142257
 30
0.0
  0
VERTEX
  5
A1
330
9F
100
AcDbEntity
  8
0
 62
   240
420
 15539236
370
    35
100
AcDbVertex
100
AcDb2dVertex
 10
809.0415037039896
 20
618.0971678142257
 30
0.0
  0
VERTEX
  5
A2
330
9F
100
AcDbEntity
  8
0
 62
   240
420
 15539236
370
    35
100
AcDbVertex
100
AcDb2dVertex
 10
809.0415037039896
 20
610.8891600035276
 30
0.0
  0
VERTEX
  5
A3
330
9F
100
AcDbEntity
  8
0
 62
   240
420
 15539236
370
    35
100
AcDbVertex
100
AcDb2dVertex
 10
812.4956052656261
 20
610.8891600035276
 30
0.0
  0
VERTEX
  5
A4
330
9F
100
AcDbEntity
  8
0
 62
   240
420
 15539236
370
    35
100
AcDbVertex
100
AcDb2dVertex
 10
812.4956052656261
 20
610.0136717224966
 30
0.0
  0
VERTEX
  5
A5
330
9F
100
AcDbEntity
  8
0
 62
   240
420
 15539236
370
    35
100
AcDbVertex
100
AcDb2dVertex
 10
807.9980466730004
 20
610.0136717224966
 30
0.0
  0
VERTEX
  5
A6
330
9F
100
AcDbEntity
  8
0
 62
   240
420
 15539236
370
    35
100
AcDbVertex
100
AcDb2dVertex
 10
807.9980466730004
 20
618.0971678142257
 30
0.0
  0
SEQEND
  5
A7
330
9F
100
AcDbEntity
  8
0
 62
   240
420
 15539236
370
    35
  0
HATCH
  5
A8
330
9B
100
AcDbEntity
  8
0
 62
   240
420
 15539236
100
AcDbHatch
 10
0.0
 20
0.0
 30
0.0
210
0.0
220
0.0
230
1.0
  2
SOLID
 70
     1
 71
     0
 91
        1
 92
        1
 93
        6
 72
     1
 10
807.9980466730004
 20
618.0971678142257
 11
809.0415037039896
 21
618.0971678142257
 72
     1
 10
809.0415037039896
 20
618.0971678142257
 11
809.0415037039896
 21
610.8891600035276
 72
     1
 10
809.0415037039896
 20
610.8891600035276
 11
812.4956052656261
 21
610.8891600035276
 72
     1
 10
812.4956052656261
 20
610.8891600035276
 11
812.4956052656261
 21
610.0136717224966
 72
     1
 10
812.4956052656261
 20
610.0136717224966
 11
807.9980466730004
 21
610.0136717224966
 72
     1
 10
807.9980466730004
 20
610.0136717224966
 11
807.9980466730004
 21
618.0971678142257
 97
        0
 75
     2
 76
     1
 98
        0
  0
SPLINE
  5
A9
330
9B
100
AcDbEntity
  8
0
 62
   240
420
 15539236
370
    35
100
AcDbSpline
210
0.0
220
0.0
230
1.0
 70
    11
 71
     3
 72
    59
 73
    55
 74
     0
 42
0.0000000001
 43
0.0000000001
 12
1.0
 22
0.0
 32
0.0
 13
1.0
 23
0.0
 33
0.0
 40
0.0
 40
0.0
 40
0.0
 40
0.0
 40
1.0
 40
1.0
 40
1.0
 40
2.0
 40
2.0
 40
2.0
 40
3.0
 40
3.0
 40
3.0
 40
4.0
 40
4.0
 40
4.0
 40
5.0
 40
5.0
 40
5.0
 40
6.0
 40
6.0
 40
6.0
 40
7.0
 40
7.0
 40
7.0
 40
8.0
 40
8.0
 40
8.0
 40
9.0
 40
9.0
 40
9.0
 40
10.0
 40
10.0
 40
10.0
 40
11.0
 40
11.0
 40
11.0
 40
12.0
 40
12.0
 40
12.0
 40
13.0
 40
13.0
 40
13.0
 40
14.0
 40
14.0
 40
14.0
 40
15.0
 40
15.0
 40
15.0
 40
16.0
 40
16.0
 40
16.0
 40
17.0
 40
17.0
 40
17.0
 40
18.0
 40
18.0
 40
18.0
 40
18.0
 10
813.5419919841145
 20
611.2250975034437
 30
0.0
 10
813.8417966715396
 20
611.0332029722417
 30
0.0
 10
814.5375974526156
 20
610.7333982848166
 30
0.0
 10
815.2690427649327
 20
610.7333982848166
 30
0.0
 10
816.6245115145939
 20
610.7333982848166
 30
0.0
 10
817.043945108239
 20
611.5966795346009
 30
0.0
 10
817.0322263582419
 20
612.2446287531889
 30
0.0
 10
817.020019326995
 20
613.335937346666
 30
0.0
 10
816.0366208897408
 20
613.803710784049
 30
0.0
 10
815.0170896399957
 20
613.803710784049
 30
0.0
 10
815.0170896399957
 20
613.803710784049
 30
0.0
 10
814.4296872963926
 20
613.803710784049
 30
0.0
 10
814.4296872963926
 20
613.803710784049
 30
0.0
 10
814.4296872963926
 20
613.803710784049
 30
0.0
 10
814.4296872963926
 20
614.5952146901012
 30
0.0
 10
814.4296872963926
 20
614.5952146901012
 30
0.0
 10
814.4296872963926
 20
614.5952146901012
 30
0.0
 10
815.0170896399957
 20
614.5952146901012
 30
0.0
 10
815.0170896399957
 20
614.5952146901012
 30
0.0
 10
815.7846677648038
 20
614.5952146901012
 30
0.0
 10
816.7563474520609
 20
614.9907225025023
 30
0.0
 10
816.7563474520609
 20
615.9145506272713
 30
0.0
 10
816.7563474520609
 20
616.5380857833654
 30
0.0
 10
816.3603513584098
 20
617.0898435957275
 30
0.0
 10
815.3891599524027
 20
617.0898435957275
 30
0.0
 10
814.7651365150587
 20
617.0898435957275
 30
0.0
 10
814.1655271402086
 20
616.8139646895465
 30
0.0
 10
813.8300779215425
 20
616.5742185958565
 30
0.0
 10
813.8300779215425
 20
616.5742185958565
 30
0.0
 10
813.5541990153614
 20
617.3417967206645
 30
0.0
 10
813.5541990153614
 20
617.3417967206645
 30
0.0
 10
813.9619138590095
 20
617.6416014080896
 30
0.0
 10
814.7534177650616
 20
617.9414060955146
 30
0.0
 10
815.5927732336017
 20
617.9414060955146
 30
0.0
 10
817.127929483218
 20
617.9414060955146
 30
0.0
 10
817.823730264294
 20
617.0297850019925
 30
0.0
 10
817.823730264294
 20
616.0825193772293
 30
0.0
 10
817.823730264294
 20
615.2788084399302
 30
0.0
 10
817.343749795664
 20
614.5952146901012
 30
0.0
 10
816.3842771396539
 20
614.2475584401881
 30
0.0
 10
816.3842771396539
 20
614.2475584401881
 30
0.0
 10
816.3842771396539
 20
614.2231443776942
 30
0.0
 10
816.3842771396539
 20
614.2231443776942
 30
0.0
 10
817.343749795664
 20
614.0312498464922
 30
0.0
 10
818.1235349517191
 20
613.312011565422
 30
0.0
 10
818.1235349517191
 20
612.2207029719448
 30
0.0
 10
818.1235349517191
 20
610.9731443785067
 30
0.0
 10
817.151855264462
 20
609.8818357850296
 30
0.0
 10
815.2812497961796
 20
609.8818357850296
 30
0.0
 10
814.4057615151486
 20
609.8818357850296
 30
0.0
 10
813.6381833903405
 20
610.1577146912106
 30
0.0
 10
813.2543943279364
 20
610.4096678161476
 30
0.0
 10
813.2543943279364
 20
610.4096678161476
 30
0.0
 10
813.5419919841145
 20
611.2250975034437
 30
0.0
 10
813.5419919841145
 20
611.2250975034437
 30
0.0
  0
HATCH
  5
AA
330
9B
100
AcDbEntity
  8
0
 62
   240
420
 15539236
100
AcDbHatch
 10
0.0
 20
0.0
 30
0.0
210
0.0
220
0.0
230
1.0
  2
SOLID
 70
     1
 71
     0
 91
        1
 92
        1
 93
        1
 72
     4
 94
        3
 73
     0
 74
     1
 95
       59
 96
       55
 40
0.0
 40
0.0
 40
0.0
 40
0.0
 40
1.0
 40
1.0
 40
1.0
 40
2.0
 40
2.0
 40
2.0
 40
3.0
 40
3.0
 40
3.0
 40
4.0
 40
4.0
 40
4.0
 40
5.0
 40
5.0
 40
5.0
 40
6.0
 40
6.0
 40
6.0
 40
7.0
 40
7.0
 40
7.0
 40
8.0
 40
8.0
 40
8.0
 40
9.0
 40
9.0
 40
9.0
 40
10.0
 40
10.0
 40
10.0
 40
11.0
 40
11.0
 40
11.0
 40
12.0
 40
12.0
 40
12.0
 40
13.0
 40
13.0
 40
13.0
 40
14.0
 40
14.0
 40
14.0
 40
15.0
 40
15.0
 40
15.0
 40
16.0
 40
16.0
 40
16.0
 40
17.0
 40
17.0
 40
17.0
 40
18.0
 40
18.0
 40
18.0
 40
18.0
 10
813.5419919841145
 20
611.2250975034437
 10
813.8417966715396
 20
611.0332029722417
 10
814.5375974526156
 20
610.7333982848166
 10
815.2690427649327
 20
610.7333982848166
 10
816.6245115145939
 20
610.7333982848166
 10
817.043945108239
 20
611.5966795346009
 10
817.0322263582419
 20
612.2446287531889
 10
817.020019326995
 20
613.335937346666
 10
816.0366208897408
 20
613.803710784049
 10
815.0170896399957
 20
613.803710784049
 10
815.0170896399957
 20
613.803710784049
 10
814.4296872963926
 20
613.803710784049
 10
814.4296872963926
 20
613.803710784049
 10
814.4296872963926
 20
613.803710784049
 10
814.4296872963926
 20
614.5952146901012
 10
814.4296872963926
 20
614.5952146901012
 10
814.4296872963926
 20
614.5952146901012
 10
815.0170896399957
 20
614.5952146901012
 10
815.0170896399957
 20
614.5952146901012
 10
815.7846677648038
 20
614.5952146901012
 10
816.7563474520609
 20
614.9907225025023
 10
816.7563474520609
 20
615.9145506272713
 10
816.7563474520609
 20
616.5380857833654
 10
816.3603513584098
 20
617.0898435957275
 10
815.3891599524027
 20
617.0898435957275
 10
814.7651365150587
 20
617.0898435957275
 10
814.1655271402086
 20
616.8139646895465
 10
813.8300779215425
 20
616.5742185958565
 10
813.8300779215425
 20
616.5742185958565
 10
813.5541990153614
 20
617.3417967206645
 10
813.5541990153614
 20
617.3417967206645
 10
813.9619138590095
 20
617.6416014080896
 10
814.7534177650616
 20
617.9414060955146
 10
815.5927732336017
 20
617.9414060955146
 10
817.127929483218
 20
617.9414060955146
 10
817.823730264294
 20
617.0297850019925
 10
817.823730264294
 20
616.0825193772293
 10
817.823730264294
 20
615.2788084399302
 10
817.343749795664
 20
614.5952146901012
 10
816.3842771396539
 20
614.2475584401881
 10
816.3842771396539
 20
614.2475584401881
 10
816.3842771396539
 20
614.2231443776942
 10
816.3842771396539
 20
614.2231443776942
 10
817.343749795664
 20
614.0312498464922
 10
818.1235349517191
 20
613.312011565422
 10
818.1235349517191
 20
612.2207029719448
 10
818.1235349517191
 20
610.9731443785067
 10
817.151855264462
 20
609.8818357850296
 10
815.2812497961796
 20
609.8818357850296
 10
814.4057615151486
 20
609.8818357850296
 10
813.6381833903405
 20
610.1577146912106
 10
813.2543943279364
 20
610.4096678161476
 10
813.2543943279364
 20
610.4096678161476
 10
813.5419919841145
 20
611.2250975034437
 10
813.5419919841145
 20
611.2250975034437
 97
        0
 97
        0
 75
     2
 76
     1
 98
        0
  0
SPLINE
  5
AB
330
9B
100
AcDbEntity
  8
0
 62
   240
420
 15539236
370
    35
100
AcDbSpline
210
0.0
220
0.0
230
1.0
 70
    11
 71
     3
 72
    47
 73
    43
 74
     0
 42
0.0000000001
 43
0.0000000001
 12
1.0
 22
0.0
 32
0.0
 13
1.0
 23
0.0
 33
0.0
 40
0.0
 40
0.0
 40
0.0
 40
0.0
 40
1.0
 40
1.0
 40
1.0
 40
2.0
 40
2.0
 40
2.0
 40
3.0
 40
3.0
 40
3.0
 40
4.0
 40
4.0
 40
4.0
 40
5.0
 40
5.0
 40
5.0
 40
6.0
 40
6.0
 40
6.0
 40
7.0
 40
7.0
 40
7.0
 40
8.0
 40
8.0
 40
8.0
 40
9.0
 40
9.0
 40
9.0
 40
10.0
 40
10.0
 40
10.0
 40
11.0
 40
11.0
 40
11.0
 40
12.0
 40
12.0
 40
12.0
 40
13.0
 40
13.0
 40
13.0
 40
14.0
 40
14.0
 40
14.0
 40
14.0
 10
822.2172849506957
 20
611.2851560971787
 30
0.0
 10
822.6850583880787
 20
610.9970701597507
 30
0.0
 10
823.3686521379078
 20
610.7573240660606
 30
0.0
 10
824.0883787002278
 20
610.7573240660606
 30
0.0
 10
825.155761512461
 20
610.7573240660606
 30
0.0
 10
825.7792966685552
 20
611.3208006284198
 30
0.0
 10
825.7792966685552
 20
612.1367185969658
 30
0.0
 10
825.7792966685552
 20
612.892089690527
 30
0.0
 10
825.347656043663
 20
613.3237303154191
 30
0.0
 10
824.2563474501859
 20
613.743652190314
 30
0.0
 10
822.9370115130157
 20
614.2114256276972
 30
0.0
 10
822.1215818257195
 20
614.8950193775262
 30
0.0
 10
822.1215818257195
 20
616.0341795334914
 30
0.0
 10
822.1215818257195
 20
617.2934568769266
 30
0.0
 10
823.1645505754589
 20
618.2290037516927
 30
0.0
 10
824.7358396375661
 20
618.2290037516927
 30
0.0
 10
825.5634763561092
 20
618.2290037516927
 30
0.0
 10
826.1630857309592
 20
618.0371092204907
 30
0.0
 10
826.5229490121193
 20
617.8334959392917
 30
0.0
 10
826.5229490121193
 20
617.8334959392917
 30
0.0
 10
826.2348630746912
 20
616.9819334395045
 30
0.0
 10
826.2348630746912
 20
616.9819334395045
 30
0.0
 10
825.9711911997572
 20
617.1259764082185
 30
0.0
 10
825.431640418642
 20
617.3657225019085
 30
0.0
 10
824.699706825075
 20
617.3657225019085
 30
0.0
 10
823.5966794816009
 20
617.3657225019085
 30
0.0
 10
823.1767576067058
 20
616.7060545333235
 30
0.0
 10
823.1767576067058
 20
616.1542967209614
 30
0.0
 10
823.1767576067058
 20
615.3989256274002
 30
0.0
 10
823.6684568253329
 20
615.0268553149933
 30
0.0
 10
824.783691200054
 20
614.5952146901012
 30
0.0
 10
826.1508786997123
 20
614.0673826589831
 30
0.0
 10
826.8466794807883
 20
613.407714690398
 30
0.0
 10
826.8466794807883
 20
612.2207029719448
 30
0.0
 10
826.8466794807883
 20
610.9731443785067
 30
0.0
 10
825.9233396372691
 20
609.8935545350266
 30
0.0
 10
824.0161130752459
 20
609.8935545350266
 30
0.0
 10
823.2368162004408
 20
609.8935545350266
 30
0.0
 10
822.3852537006537
 20
610.1215818787196
 30
0.0
 10
821.9536130757616
 20
610.4096678161476
 30
0.0
 10
821.9536130757616
 20
610.4096678161476
 30
0.0
 10
822.2172849506957
 20
611.2851560971787
 30
0.0
 10
822.2172849506957
 20
611.2851560971787
 30
0.0
  0
HATCH
  5
AC
330
9B
100
AcDbEntity
  8
0
 62
   240
420
 15539236
100
AcDbHatch
 10
0.0
 20
0.0
 30
0.0
210
0.0
220
0.0
230
1.0
  2
SOLID
 70
     1
 71
     0
 91
        1
 92
        1
 93
        1
 72
     4
 94
        3
 73
     0
 74
     1
 95
       47
 96
       43
 40
0.0
 40
0.0
 40
0.0
 40
0.0
 40
1.0
 40
1.0
 40
1.0
 40
2.0
 40
2.0
 40
2.0
 40
3.0
 40
3.0
 40
3.0
 40
4.0
 40
4.0
 40
4.0
 40
5.0
 40
5.0
 40
5.0
 40
6.0
 40
6.0
 40
6.0
 40
7.0
 40
7.0
 40
7.0
 40
8.0
 40
8.0
 40
8.0
 40
9.0
 40
9.0
 40
9.0
 40
10.0
 40
10.0
 40
10.0
 40
11.0
 40
11.0
 40
11.0
 40
12.0
 40
12.0
 40
12.0
 40
13.0
 40
13.0
 40
13.0
 40
14.0
 40
14.0
 40
14.0
 40
14.0
 10
822.2172849506957
 20
611.2851560971787
 10
822.6850583880787
 20
610.9970701597507
 10
823.3686521379078
 20
610.7573240660606
 10
824.0883787002278
 20
610.7573240660606
 10
825.155761512461
 20
610.7573240660606
 10
825.7792966685552
 20
611.3208006284198
 10
825.7792966685552
 20
612.1367185969658
 10
825.7792966685552
 20
612.892089690527
 10
825.347656043663
 20
613.3237303154191
 10
824.2563474501859
 20
613.743652190314
 10
822.9370115130157
 20
614.2114256276972
 10
822.1215818257195
 20
614.8950193775262
 10
822.1215818257195
 20
616.0341795334914
 10
822.1215818257195
 20
617.2934568769266
 10
823.1645505754589
 20
618.2290037516927
 10
824.7358396375661
 20
618.2290037516927
 10
825.5634763561092
 20
618.2290037516927
 10
826.1630857309592
 20
618.0371092204907
 10
826.5229490121193
 20
617.8334959392917
 10
826.5229490121193
 20
617.8334959392917
 10
826.2348630746912
 20
616.9819334395045
 10
826.2348630746912
 20
616.9819334395045
 10
825.9711911997572
 20
617.1259764082185
 10
825.431640418642
 20
617.3657225019085
 10
824.699706825075
 20
617.3657225019085
 10
823.5966794816009
 20
617.3657225019085
 10
823.1767576067058
 20
616.7060545333235
 10
823.1767576067058
 20
616.1542967209614
 10
823.1767576067058
 20
615.3989256274002
 10
823.6684568253329
 20
615.0268553149933
 10
824.783691200054
 20
614.5952146901012
 10
826.1508786997123
 20
614.0673826589831
 10
826.8466794807883
 20
613.407714690398
 10
826.8466794807883
 20
612.2207029719448
 10
826.8466794807883
 20
610.9731443785067
 10
825.9233396372691
 20
609.8935545350266
 10
824.0161130752459
 20
609.8935545350266
 10
823.2368162004408
 20
609.8935545350266
 10
822.3852537006537
 20
610.1215818787196
 10
821.9536130757616
 20
610.4096678161476
 10
821.9536130757616
 20
610.4096678161476
 10
822.2172849506957
 20
611.2851560971787
 10
822.2172849506957
 20
611.2851560971787
 97
        0
 97
        0
 75
     2
 76
     1
 98
        0
  0
SPLINE
  5
AD
330
9B
100
AcDbEntity
  8
0
 62
   240
420
 15539236
370
    35
100
AcDbSpline
210
0.0
220
0.0
230
1.0
 70
    11
 71
     3
 72
    56
 73
    52
 74
     0
 42
0.0000000001
 43
0.0000000001
 12
1.0
 22
0.0
 32
0.0
 13
1.0
 23
0.0
 33
0.0
 40
0.0
 40
0.0
 40
0.0
 40
0.0
 40
1.0
 40
1.0
 40
1.0
 40
2.0
 40
2.0
 40
2.0
 40
3.0
 40
3.0
 40
3.0
 40
4.0
 40
4.0
 40
4.0
 40
5.0
 40
5.0
 40
5.0
 40
6.0
 40
6.0
 40
6.0
 40
7.0
 40
7.0
 40
7.0
 40
8.0
 40
8.0
 40
8.0
 40
9.0
 40
9.0
 40
9.0
 40
10.0
 40
10.0
 40
10.0
 40
11.0
 40
11.0
 40
11.0
 40
12.0
 40
12.0
 40
12.0
 40
13.0
 40
13.0
 40
13.0
 40
14.0
 40
14.0
 40
14.0
 40
15.0
 40
15.0
 40
15.0
 40
16.0
 40
16.0
 40
16.0
 40
17.0
 40
17.0
 40
17.0
 40
17.0
 10
829.4770505738808
 20
617.4853514081286
 30
0.0
 10
829.4770505738808
 20
617.4853514081286
 30
0.0
 10
829.4770505738808
 20
615.8183592210454
 30
0.0
 10
829.4770505738808
 20
615.8183592210454
 30
0.0
 10
829.4770505738808
 20
615.8183592210454
 30
0.0
 10
830.9882810422529
 20
615.8183592210454
 30
0.0
 10
830.9882810422529
 20
615.8183592210454
 30
0.0
 10
830.9882810422529
 20
615.8183592210454
 30
0.0
 10
830.9882810422529
 20
615.0151365649962
 30
0.0
 10
830.9882810422529
 20
615.0151365649962
 30
0.0
 10
830.9882810422529
 20
615.0151365649962
 30
0.0
 10
829.4770505738808
 20
615.0151365649962
 30
0.0
 10
829.4770505738808
 20
615.0151365649962
 30
0.0
 10
829.4770505738808
 20
615.0151365649962
 30
0.0
 10
829.4770505738808
 20
611.8847654720288
 30
0.0
 10
829.4770505738808
 20
611.8847654720288
 30
0.0
 10
829.4770505738808
 20
611.1650389097088
 30
0.0
 10
829.6806638550798
 20
610.7573240660606
 30
0.0
 10
830.2685544799328
 20
610.7573240660606
 30
0.0
 10
830.5444333861138
 20
610.7573240660606
 30
0.0
 10
830.748046667313
 20
610.7934568785516
 30
0.0
 10
830.8803708860299
 20
610.8291014097927
 30
0.0
 10
830.8803708860299
 20
610.8291014097927
 30
0.0
 10
830.9282224485179
 20
610.0375975037406
 30
0.0
 10
830.9282224485179
 20
610.0375975037406
 30
0.0
 10
830.7241208860689
 20
609.9536131287616
 30
0.0
 10
830.4003904173999
 20
609.8935545350266
 30
0.0
 10
829.9926755737519
 20
609.8935545350266
 30
0.0
 10
829.5009763551247
 20
609.8935545350266
 30
0.0
 10
829.1049802614738
 20
610.0498045349875
 30
0.0
 10
828.8530271365368
 20
610.3374021911657
 30
0.0
 10
828.5532224491117
 20
610.6494139098377
 30
0.0
 10
828.4453122928886
 20
611.1650389097088
 30
0.0
 10
828.4453122928886
 20
611.8486326595379
 30
0.0
 10
828.4453122928886
 20
611.8486326595379
 30
0.0
 10
828.4453122928886
 20
615.0151365649962
 30
0.0
 10
828.4453122928886
 20
615.0151365649962
 30
0.0
 10
828.4453122928886
 20
615.0151365649962
 30
0.0
 10
827.5458982306135
 20
615.0151365649962
 30
0.0
 10
827.5458982306135
 20
615.0151365649962
 30
0.0
 10
827.5458982306135
 20
615.0151365649962
 30
0.0
 10
827.5458982306135
 20
615.8183592210454
 30
0.0
 10
827.5458982306135
 20
615.8183592210454
 30
0.0
 10
827.5458982306135
 20
615.8183592210454
 30
0.0
 10
828.4453122928886
 20
615.8183592210454
 30
0.0
 10
828.4453122928886
 20
615.8183592210454
 30
0.0
 10
828.4453122928886
 20
615.8183592210454
 30
0.0
 10
828.4453122928886
 20
617.2099607831975
 30
0.0
 10
828.4453122928886
 20
617.2099607831975
 30
0.0
 10
828.4453122928886
 20
617.2099607831975
 30
0.0
 10
829.4770505738808
 20
617.4853514081286
 30
0.0
 10
829.4770505738808
 20
617.4853514081286
 30
0.0
  0
HATCH
  5
AE
330
9B
100
AcDbEntity
  8
0
 62
   240
420
 15539236
100
AcDbHatch
 10
0.0
 20
0.0
 30
0.0
210
0.0
220
0.0
230
1.0
  2
SOLID
 70
     1
 71
     0
 91
        1
 92
        1
 93
        1
 72
     4
 94
        3
 73
     0
 74
     1
 95
       56
 96
       52
 40
0.0
 40
0.0
 40
0.0
 40
0.0
 40
1.0
 40
1.0
 40
1.0
 40
2.0
 40
2.0
 40
2.0
 40
3.0
 40
3.0
 40
3.0
 40
4.0
 40
4.0
 40
4.0
 40
5.0
 40
5.0
 40
5.0
 40
6.0
 40
6.0
 40
6.0
 40
7.0
 40
7.0
 40
7.0
 40
8.0
 40
8.0
 40
8.0
 40
9.0
 40
9.0
 40
9.0
 40
10.0
 40
10.0
 40
10.0
 40
11.0
 40
11.0
 40
11.0
 40
12.0
 40
12.0
 40
12.0
 40
13.0
 40
13.0
 40
13.0
 40
14.0
 40
14.0
 40
14.0
 40
15.0
 40
15.0
 40
15.0
 40
16.0
 40
16.0
 40
16.0
 40
17.0
 40
17.0
 40
17.0
 40
17.0
 10
829.4770505738808
 20
617.4853514081286
 10
829.4770505738808
 20
617.4853514081286
 10
829.4770505738808
 20
615.8183592210454
 10
829.4770505738808
 20
615.8183592210454
 10
829.4770505738808
 20
615.8183592210454
 10
830.9882810422529
 20
615.8183592210454
 10
830.9882810422529
 20
615.8183592210454
 10
830.9882810422529
 20
615.8183592210454
 10
830.9882810422529
 20
615.0151365649962
 10
830.9882810422529
 20
615.0151365649962
 10
830.9882810422529
 20
615.0151365649962
 10
829.4770505738808
 20
615.0151365649962
 10
829.4770505738808
 20
615.0151365649962
 10
829.4770505738808
 20
615.0151365649962
 10
829.4770505738808
 20
611.8847654720288
 10
829.4770505738808
 20
611.8847654720288
 10
829.4770505738808
 20
611.1650389097088
 10
829.6806638550798
 20
610.7573240660606
 10
830.2685544799328
 20
610.7573240660606
 10
830.5444333861138
 20
610.7573240660606
 10
830.748046667313
 20
610.7934568785516
 10
830.8803708860299
 20
610.8291014097927
 10
830.8803708860299
 20
610.8291014097927
 10
830.9282224485179
 20
610.0375975037406
 10
830.9282224485179
 20
610.0375975037406
 10
830.7241208860689
 20
609.9536131287616
 10
830.4003904173999
 20
609.8935545350266
 10
829.9926755737519
 20
609.8935545350266
 10
829.5009763551247
 20
609.8935545350266
 10
829.1049802614738
 20
610.0498045349875
 10
828.8530271365368
 20
610.3374021911657
 10
828.5532224491117
 20
610.6494139098377
 10
828.4453122928886
 20
611.1650389097088
 10
828.4453122928886
 20
611.8486326595379
 10
828.4453122928886
 20
611.8486326595379
 10
828.4453122928886
 20
615.0151365649962
 10
828.4453122928886
 20
615.0151365649962
 10
828.4453122928886
 20
615.0151365649962
 10
827.5458982306135
 20
615.0151365649962
 10
827.5458982306135
 20
615.0151365649962
 10
827.5458982306135
 20
615.0151365649962
 10
827.5458982306135
 20
615.8183592210454
 10
827.5458982306135
 20
615.8183592210454
 10
827.5458982306135
 20
615.8183592210454
 10
828.4453122928886
 20
615.8183592210454
 10
828.4453122928886
 20
615.8183592210454
 10
828.4453122928886
 20
615.8183592210454
 10
828.4453122928886
 20
617.2099607831975
 10
828.4453122928886
 20
617.2099607831975
 10
828.4453122928886
 20
617.2099607831975
 10
829.4770505738808
 20
617.4853514081286
 10
829.4770505738808
 20
617.4853514081286
 97
        0
 97
        0
 75
     2
 76
     1
 98
        0
  0
SPLINE
  5
AF
330
9B
100
AcDbEntity
  8
0
 62
   240
420
 15539236
370
    35
100
AcDbSpline
210
0.0
220
0.0
230
1.0
 70
    11
 71
     3
 72
    32
 73
    28
 74
     0
 42
0.0000000001
 43
0.0000000001
 12
1.0
 22
0.0
 32
0.0
 13
1.0
 23
0.0
 33
0.0
 40
0.0
 40
0.0
 40
0.0
 40
0.0
 40
1.0
 40
1.0
 40
1.0
 40
2.0
 40
2.0
 40
2.0
 40
3.0
 40
3.0
 40
3.0
 40
4.0
 40
4.0
 40
4.0
 40
5.0
 40
5.0
 40
5.0
 40
6.0
 40
6.0
 40
6.0
 40
7.0
 40
7.0
 40
7.0
 40
8.0
 40
8.0
 40
8.0
 40
9.0
 40
9.0
 40
9.0
 40
9.0
 10
832.6933591668267
 20
612.7241209405689
 30
0.0
 10
832.7172849480706
 20
611.2968748471758
 30
0.0
 10
833.6284177603429
 20
610.7094725035727
 30
0.0
 10
834.684081822579
 20
610.7094725035727
 30
0.0
 10
835.4394529161401
 20
610.7094725035727
 30
0.0
 10
835.8955076035261
 20
610.8413084410397
 30
0.0
 10
836.2910154159272
 20
611.0092771909976
 30
0.0
 10
836.2910154159272
 20
611.0092771909976
 30
0.0
 10
836.4711911971322
 20
610.2534178161866
 30
0.0
 10
836.4711911971322
 20
610.2534178161866
 30
0.0
 10
836.0991208847252
 20
610.0854490662286
 30
0.0
 10
835.463866978634
 20
609.8935545350266
 30
0.0
 10
834.540038853865
 20
609.8935545350266
 30
0.0
 10
832.7529294793118
 20
609.8935545350266
 30
0.0
 10
831.6855466670786
 20
611.0693357847326
 30
0.0
 10
831.6855466670786
 20
612.8203123467949
 30
0.0
 10
831.6855466670786
 20
614.5712889088571
 30
0.0
 10
832.7172849480706
 20
615.9501951585124
 30
0.0
 10
834.408202916398
 20
615.9501951585124
 30
0.0
 10
836.3032224471742
 20
615.9501951585124
 30
0.0
 10
836.8071286970483
 20
614.2832029714292
 30
0.0
 10
836.8071286970483
 20
613.215820159196
 30
0.0
 10
836.8071286970483
 20
612.99999984675
 30
0.0
 10
836.7827146345543
 20
612.832031096792
 30
0.0
 10
836.7709958845572
 20
612.7241209405689
 30
0.0
 10
836.7709958845572
 20
612.7241209405689
 30
0.0
 10
832.6933591668267
 20
612.7241209405689
 30
0.0
 10
832.6933591668267
 20
612.7241209405689
 30
0.0
  0
SPLINE
  5
B0
330
9B
100
AcDbEntity
  8
0
 62
   240
420
 15539236
370
    35
100
AcDbSpline
210
0.0
220
0.0
230
1.0
 70
    11
 71
     3
 72
    14
 73
    10
 74
     0
 42
0.0000000001
 43
0.0000000001
 12
1.0
 22
0.0
 32
0.0
 13
1.0
 23
0.0
 33
0.0
 40
0.0
 40
0.0
 40
0.0
 40
0.0
 40
1.0
 40
1.0
 40
1.0
 40
2.0
 40
2.0
 40
2.0
 40
3.0
 40
3.0
 40
3.0
 40
3.0
 10
835.787597447303
 20
613.47998031538
 30
0.0
 10
835.7993161973002
 20
614.1513670339622
 30
0.0
 10
835.511718541122
 20
615.1948240649513
 30
0.0
 10
834.3242185414189
 20
615.1948240649513
 30
0.0
 10
833.2568357291858
 20
615.1948240649513
 30
0.0
 10
832.7890622918027
 20
614.2114256276972
 30
0.0
 10
832.7050779168237
 20
613.47998031538
 30
0.0
 10
832.7050779168237
 20
613.47998031538
 30
0.0
 10
835.787597447303
 20
613.47998031538
 30
0.0
 10
835.787597447303
 20
613.47998031538
 30
0.0
  0
HATCH
  5
B1
330
9B
100
AcDbEntity
  8
0
 62
   240
420
 15539236
100
AcDbHatch
 10
0.0
 20
0.0
 30
0.0
210
0.0
220
0.0
230
1.0
  2
SOLID
 70
     1
 71
     0
 91
        2
 92
        1
 93
        1
 72
     4
 94
        3
 73
     0
 74
     1
 95
       32
 96
       28
 40
0.0
 40
0.0
 40
0.0
 40
0.0
 40
1.0
 40
1.0
 40
1.0
 40
2.0
 40
2.0
 40
2.0
 40
3.0
 40
3.0
 40
3.0
 40
4.0
 40
4.0
 40
4.0
 40
5.0
 40
5.0
 40
5.0
 40
6.0
 40
6.0
 40
6.0
 40
7.0
 40
7.0
 40
7.0
 40
8.0
 40
8.0
 40
8.0
 40
9.0
 40
9.0
 40
9.0
 40
9.0
 10
832.6933591668267
 20
612.7241209405689
 10
832.7172849480706
 20
611.2968748471758
 10
833.6284177603429
 20
610.7094725035727
 10
834.684081822579
 20
610.7094725035727
 10
835.4394529161401
 20
610.7094725035727
 10
835.8955076035261
 20
610.8413084410397
 10
836.2910154159272
 20
611.0092771909976
 10
836.2910154159272
 20
611.0092771909976
 10
836.4711911971322
 20
610.2534178161866
 10
836.4711911971322
 20
610.2534178161866
 10
836.0991208847252
 20
610.0854490662286
 10
835.463866978634
 20
609.8935545350266
 10
834.540038853865
 20
609.8935545350266
 10
832.7529294793118
 20
609.8935545350266
 10
831.6855466670786
 20
611.0693357847326
 10
831.6855466670786
 20
612.8203123467949
 10
831.6855466670786
 20
614.5712889088571
 10
832.7172849480706
 20
615.9501951585124
 10
834.408202916398
 20
615.9501951585124
 10
836.3032224471742
 20
615.9501951585124
 10
836.8071286970483
 20
614.2832029714292
 10
836.8071286970483
 20
613.215820159196
 10
836.8071286970483
 20
612.99999984675
 10
836.7827146345543
 20
612.832031096792
 10
836.7709958845572
 20
612.7241209405689
 10
836.7709958845572
 20
612.7241209405689
 10
832.6933591668267
 20
612.7241209405689
 10
832.6933591668267
 20
612.7241209405689
 97
        0
 97
        0
 92
        1
 93
        1
 72
     4
 94
        3
 73
     0
 74
     1
 95
       14
 96
       10
 40
0.0
 40
0.0
 40
0.0
 40
0.0
 40
1.0
 40
1.0
 40
1.0
 40
2.0
 40
2.0
 40
2.0
 40
3.0
 40
3.0
 40
3.0
 40
3.0
 10
835.787597447303
 20
613.47998031538
 10
835.7993161973002
 20
614.1513670339622
 10
835.511718541122
 20
615.1948240649513
 10
834.3242185414189
 20
615.1948240649513
 10
833.2568357291858
 20
615.1948240649513
 10
832.7890622918027
 20
614.2114256276972
 10
832.7050779168237
 20
613.47998031538
 10
832.7050779168237
 20
613.47998031538
 10
835.787597447303
 20
613.47998031538
 10
835.787597447303
 20
613.47998031538
 97
        0
 97
        0
 75
     2
 76
     1
 98
        0
  0
SPLINE
  5
B2
330
9B
100
AcDbEntity
  8
0
 62
   240
420
 15539236
370
    35
100
AcDbSpline
210
0.0
220
0.0
230
1.0
 70
    11
 71
     3
 72
    41
 73
    37
 74
     0
 42
0.0000000001
 43
0.0000000001
 12
1.0
 22
0.0
 32
0.0
 13
1.0
 23
0.0
 33
0.0
 40
0.0
 40
0.0
 40
0.0
 40
0.0
 40
1.0
 40
1.0
 40
1.0
 40
2.0
 40
2.0
 40
2.0
 40
3.0
 40
3.0
 40
3.0
 40
4.0
 40
4.0
 40
4.0
 40
5.0
 40
5.0
 40
5.0
 40
6.0
 40
6.0
 40
6.0
 40
7.0
 40
7.0
 40
7.0
 40
8.0
 40
8.0
 40
8.0
 40
9.0
 40
9.0
 40
9.0
 40
10.0
 40
10.0
 40
10.0
 40
11.0
 40
11.0
 40
11.0
 40
12.0
 40
12.0
 40
12.0
 40
12.0
 10
838.1171872904707
 20
613.9233396902691
 30
0.0
 10
838.1171872904707
 20
614.6669920338333
 30
0.0
 10
838.0932615092266
 20
615.2666014086833
 30
0.0
 10
838.0693357279827
 20
615.8183592210454
 30
0.0
 10
838.0693357279827
 20
615.8183592210454
 30
0.0
 10
839.0166013527459
 20
615.8183592210454
 30
0.0
 10
839.0166013527459
 20
615.8183592210454
 30
0.0
 10
839.0166013527459
 20
615.8183592210454
 30
0.0
 10
839.0649411964838
 20
614.8232420337941
 30
0.0
 10
839.0649411964838
 20
614.8232420337941
 30
0.0
 10
839.0649411964838
 20
614.8232420337941
 30
0.0
 10
839.0888669777278
 20
614.8232420337941
 30
0.0
 10
839.0888669777278
 20
614.8232420337941
 30
0.0
 10
839.5205076026199
 20
615.5307615648672
 30
0.0
 10
840.2041013524489
 20
615.9501951585124
 30
0.0
 10
841.1513669772121
 20
615.9501951585124
 30
0.0
 10
842.5546872893613
 20
615.9501951585124
 30
0.0
 10
843.6103513515974
 20
614.7631834400592
 30
0.0
 10
843.6103513515974
 20
612.99999984675
 30
0.0
 10
843.6103513515974
 20
610.9130857847717
 30
0.0
 10
842.3388669769153
 20
609.8818357850296
 30
0.0
 10
840.9716794772571
 20
609.8818357850296
 30
0.0
 10
840.2041013524489
 20
609.8818357850296
 30
0.0
 10
839.5322263526169
 20
610.2177732849456
 30
0.0
 10
839.1845701027038
 20
610.7934568785516
 30
0.0
 10
839.1845701027038
 20
610.7934568785516
 30
0.0
 10
839.1606443214598
 20
610.7934568785516
 30
0.0
 10
839.1606443214598
 20
610.7934568785516
 30
0.0
 10
839.1606443214598
 20
610.7934568785516
 30
0.0
 10
839.1606443214598
 20
607.6391600043402
 30
0.0
 10
839.1606443214598
 20
607.6391600043402
 30
0.0
 10
839.1606443214598
 20
607.6391600043402
 30
0.0
 10
838.1171872904707
 20
607.6391600043402
 30
0.0
 10
838.1171872904707
 20
607.6391600043402
 30
0.0
 10
838.1171872904707
 20
607.6391600043402
 30
0.0
 10
838.1171872904707
 20
613.9233396902691
 30
0.0
 10
838.1171872904707
 20
613.9233396902691
 30
0.0
  0
SPLINE
  5
B3
330
9B
100
AcDbEntity
  8
0
 62
   240
420
 15539236
370
    35
100
AcDbSpline
210
0.0
220
0.0
230
1.0
 70
    11
 71
     3
 72
    26
 73
    22
 74
     0
 42
0.0000000001
 43
0.0000000001
 12
1.0
 22
0.0
 32
0.0
 13
1.0
 23
0.0
 33
0.0
 40
0.0
 40
0.0
 40
0.0
 40
0.0
 40
1.0
 40
1.0
 40
1.0
 40
2.0
 40
2.0
 40
2.0
 40
3.0
 40
3.0
 40
3.0
 40
4.0
 40
4.0
 40
4.0
 40
5.0
 40
5.0
 40
5.0
 40
6.0
 40
6.0
 40
6.0
 40
7.0
 40
7.0
 40
7.0
 40
7.0
 10
839.1606443214598
 20
612.3764646906559
 30
0.0
 10
839.1606443214598
 20
612.2207029719448
 30
0.0
 10
839.1845701027038
 20
612.0766600032308
 30
0.0
 10
839.2084958839479
 20
611.9448240657638
 30
0.0
 10
839.4003904151499
 20
611.2128904721968
 30
0.0
 10
840.036132602491
 20
610.7094725035727
 30
0.0
 10
840.7915036960521
 20
610.7094725035727
 30
0.0
 10
841.9072263520231
 20
610.7094725035727
 30
0.0
 10
842.5546872893613
 20
611.6206053158448
 30
0.0
 10
842.5546872893613
 20
612.952148284262
 30
0.0
 10
842.5546872893613
 20
614.1152342214712
 30
0.0
 10
841.9428708832643
 20
615.1108396899723
 30
0.0
 10
840.827636508543
 20
615.1108396899723
 30
0.0
 10
840.107909946223
 20
615.1108396899723
 30
0.0
 10
839.4365232276408
 20
614.5952146901012
 30
0.0
 10
839.2324216651919
 20
613.803710784049
 30
0.0
 10
839.1967771339508
 20
613.671874846582
 30
0.0
 10
839.1606443214598
 20
613.5156248466211
 30
0.0
 10
839.1606443214598
 20
613.3720701591569
 30
0.0
 10
839.1606443214598
 20
613.3720701591569
 30
0.0
 10
839.1606443214598
 20
612.3764646906559
 30
0.0
 10
839.1606443214598
 20
612.3764646906559
 30
0.0
  0
HATCH
  5
B4
330
9B
100
AcDbEntity
  8
0
 62
   240
420
 15539236
100
AcDbHatch
 10
0.0
 20
0.0
 30
0.0
210
0.0
220
0.0
230
1.0
  2
SOLID
 70
     1
 71
     0
 91
        2
 92
        1
 93
        1
 72
     4
 94
        3
 73
     0
 74
     1
 95
       41
 96
       37
 40
0.0
 40
0.0
 40
0.0
 40
0.0
 40
1.0
 40
1.0
 40
1.0
 40
2.0
 40
2.0
 40
2.0
 40
3.0
 40
3.0
 40
3.0
 40
4.0
 40
4.0
 40
4.0
 40
5.0
 40
5.0
 40
5.0
 40
6.0
 40
6.0
 40
6.0
 40
7.0
 40
7.0
 40
7.0
 40
8.0
 40
8.0
 40
8.0
 40
9.0
 40
9.0
 40
9.0
 40
10.0
 40
10.0
 40
10.0
 40
11.0
 40
11.0
 40
11.0
 40
12.0
 40
12.0
 40
12.0
 40
12.0
 10
838.1171872904707
 20
613.9233396902691
 10
838.1171872904707
 20
614.6669920338333
 10
838.0932615092266
 20
615.2666014086833
 10
838.0693357279827
 20
615.8183592210454
 10
838.0693357279827
 20
615.8183592210454
 10
839.0166013527459
 20
615.8183592210454
 10
839.0166013527459
 20
615.8183592210454
 10
839.0166013527459
 20
615.8183592210454
 10
839.0649411964838
 20
614.8232420337941
 10
839.0649411964838
 20
614.8232420337941
 10
839.0649411964838
 20
614.8232420337941
 10
839.0888669777278
 20
614.8232420337941
 10
839.0888669777278
 20
614.8232420337941
 10
839.5205076026199
 20
615.5307615648672
 10
840.2041013524489
 20
615.9501951585124
 10
841.1513669772121
 20
615.9501951585124
 10
842.5546872893613
 20
615.9501951585124
 10
843.6103513515974
 20
614.7631834400592
 10
843.6103513515974
 20
612.99999984675
 10
843.6103513515974
 20
610.9130857847717
 10
842.3388669769153
 20
609.8818357850296
 10
840.9716794772571
 20
609.8818357850296
 10
840.2041013524489
 20
609.8818357850296
 10
839.5322263526169
 20
610.2177732849456
 10
839.1845701027038
 20
610.7934568785516
 10
839.1845701027038
 20
610.7934568785516
 10
839.1606443214598
 20
610.7934568785516
 10
839.1606443214598
 20
610.7934568785516
 10
839.1606443214598
 20
610.7934568785516
 10
839.1606443214598
 20
607.6391600043402
 10
839.1606443214598
 20
607.6391600043402
 10
839.1606443214598
 20
607.6391600043402
 10
838.1171872904707
 20
607.6391600043402
 10
838.1171872904707
 20
607.6391600043402
 10
838.1171872904707
 20
607.6391600043402
 10
838.1171872904707
 20
613.9233396902691
 10
838.1171872904707
 20
613.9233396902691
 97
        0
 97
        0
 92
        1
 93
        1
 72
     4
 94
        3
 73
     0
 74
     1
 95
       26
 96
       22
 40
0.0
 40
0.0
 40
0.0
 40
0.0
 40
1.0
 40
1.0
 40
1.0
 40
2.0
 40
2.0
 40
2.0
 40
3.0
 40
3.0
 40
3.0
 40
4.0
 40
4.0
 40
4.0
 40
5.0
 40
5.0
 40
5.0
 40
6.0
 40
6.0
 40
6.0
 40
7.0
 40
7.0
 40
7.0
 40
7.0
 10
839.1606443214598
 20
612.3764646906559
 10
839.1606443214598
 20
612.2207029719448
 10
839.1845701027038
 20
612.0766600032308
 10
839.2084958839479
 20
611.9448240657638
 10
839.4003904151499
 20
611.2128904721968
 10
840.036132602491
 20
610.7094725035727
 10
840.7915036960521
 20
610.7094725035727
 10
841.9072263520231
 20
610.7094725035727
 10
842.5546872893613
 20
611.6206053158448
 10
842.5546872893613
 20
612.952148284262
 10
842.5546872893613
 20
614.1152342214712
 10
841.9428708832643
 20
615.1108396899723
 10
840.827636508543
 20
615.1108396899723
 10
840.107909946223
 20
615.1108396899723
 10
839.4365232276408
 20
614.5952146901012
 10
839.2324216651919
 20
613.803710784049
 10
839.1967771339508
 20
613.671874846582
 10
839.1606443214598
 20
613.5156248466211
 10
839.1606443214598
 20
613.3720701591569
 10
839.1606443214598
 20
613.3720701591569
 10
839.1606443214598
 20
612.3764646906559
 10
839.1606443214598
 20
612.3764646906559
 97
        0
 97
        0
 75
     2
 76
     1
 98
        0
  0
SPLINE
  5
B5
330
9B
100
AcDbEntity
  8
0
 62
   240
420
 15539236
370
    35
100
AcDbSpline
210
0.0
220
0.0
230
1.0
 70
    11
 71
     3
 72
    41
 73
    37
 74
     0
 42
0.0000000001
 43
0.0000000001
 12
1.0
 22
0.0
 32
0.0
 13
1.0
 23
0.0
 33
0.0
 40
0.0
 40
0.0
 40
0.0
 40
0.0
 40
1.0
 40
1.0
 40
1.0
 40
2.0
 40
2.0
 40
2.0
 40
3.0
 40
3.0
 40
3.0
 40
4.0
 40
4.0
 40
4.0
 40
5.0
 40
5.0
 40
5.0
 40
6.0
 40
6.0
 40
6.0
 40
7.0
 40
7.0
 40
7.0
 40
8.0
 40
8.0
 40
8.0
 40
9.0
 40
9.0
 40
9.0
 40
10.0
 40
10.0
 40
10.0
 40
11.0
 40
11.0
 40
11.0
 40
12.0
 40
12.0
 40
12.0
 40
12.0
 10
844.9453122887636
 20
613.9233396902691
 30
0.0
 10
844.9453122887636
 20
614.6669920338333
 30
0.0
 10
844.9213865075196
 20
615.2666014086833
 30
0.0
 10
844.8974607262757
 20
615.8183592210454
 30
0.0
 10
844.8974607262757
 20
615.8183592210454
 30
0.0
 10
845.8447263510388
 20
615.8183592210454
 30
0.0
 10
845.8447263510388
 20
615.8183592210454
 30
0.0
 10
845.8447263510388
 20
615.8183592210454
 30
0.0
 10
845.8930661947767
 20
614.8232420337941
 30
0.0
 10
845.8930661947767
 20
614.8232420337941
 30
0.0
 10
845.8930661947767
 20
614.8232420337941
 30
0.0
 10
845.9169919760208
 20
614.8232420337941
 30
0.0
 10
845.9169919760208
 20
614.8232420337941
 30
0.0
 10
846.3486326009129
 20
615.5307615648672
 30
0.0
 10
847.0322263507419
 20
615.9501951585124
 30
0.0
 10
847.9794919755051
 20
615.9501951585124
 30
0.0
 10
849.3828122876542
 20
615.9501951585124
 30
0.0
 10
850.4384763498904
 20
614.7631834400592
 30
0.0
 10
850.4384763498904
 20
612.99999984675
 30
0.0
 10
850.4384763498904
 20
610.9130857847717
 30
0.0
 10
849.1669919752082
 20
609.8818357850296
 30
0.0
 10
847.79980447555
 20
609.8818357850296
 30
0.0
 10
847.0322263507419
 20
609.8818357850296
 30
0.0
 10
846.3603513509099
 20
610.2177732849456
 30
0.0
 10
846.0126951009968
 20
610.7934568785516
 30
0.0
 10
846.0126951009968
 20
610.7934568785516
 30
0.0
 10
845.9887693197528
 20
610.7934568785516
 30
0.0
 10
845.9887693197528
 20
610.7934568785516
 30
0.0
 10
845.9887693197528
 20
610.7934568785516
 30
0.0
 10
845.9887693197528
 20
607.6391600043402
 30
0.0
 10
845.9887693197528
 20
607.6391600043402
 30
0.0
 10
845.9887693197528
 20
607.6391600043402
 30
0.0
 10
844.9453122887636
 20
607.6391600043402
 30
0.0
 10
844.9453122887636
 20
607.6391600043402
 30
0.0
 10
844.9453122887636
 20
607.6391600043402
 30
0.0
 10
844.9453122887636
 20
613.9233396902691
 30
0.0
 10
844.9453122887636
 20
613.9233396902691
 30
0.0
  0
SPLINE
  5
B6
330
9B
100
AcDbEntity
  8
0
 62
   240
420
 15539236
370
    35
100
AcDbSpline
210
0.0
220
0.0
230
1.0
 70
    11
 71
     3
 72
    26
 73
    22
 74
     0
 42
0.0000000001
 43
0.0000000001
 12
1.0
 22
0.0
 32
0.0
 13
1.0
 23
0.0
 33
0.0
 40
0.0
 40
0.0
 40
0.0
 40
0.0
 40
1.0
 40
1.0
 40
1.0
 40
2.0
 40
2.0
 40
2.0
 40
3.0
 40
3.0
 40
3.0
 40
4.0
 40
4.0
 40
4.0
 40
5.0
 40
5.0
 40
5.0
 40
6.0
 40
6.0
 40
6.0
 40
7.0
 40
7.0
 40
7.0
 40
7.0
 10
845.9887693197528
 20
612.3764646906559
 30
0.0
 10
845.9887693197528
 20
612.2207029719448
 30
0.0
 10
846.0126951009968
 20
612.0766600032308
 30
0.0
 10
846.0366208822409
 20
611.9448240657638
 30
0.0
 10
846.2285154134429
 20
611.2128904721968
 30
0.0
 10
846.864257600784
 20
610.7094725035727
 30
0.0
 10
847.6196286943451
 20
610.7094725035727
 30
0.0
 10
848.7353513503161
 20
610.7094725035727
 30
0.0
 10
849.3828122876542
 20
611.6206053158448
 30
0.0
 10
849.3828122876542
 20
612.952148284262
 30
0.0
 10
849.3828122876542
 20
614.1152342214712
 30
0.0
 10
848.7709958815573
 20
615.1108396899723
 30
0.0
 10
847.655761506836
 20
615.1108396899723
 30
0.0
 10
846.936034944516
 20
615.1108396899723
 30
0.0
 10
846.2646482259338
 20
614.5952146901012
 30
0.0
 10
846.0605466634848
 20
613.803710784049
 30
0.0
 10
846.0249021322437
 20
613.671874846582
 30
0.0
 10
845.9887693197528
 20
613.5156248466211
 30
0.0
 10
845.9887693197528
 20
613.3720701591569
 30
0.0
 10
845.9887693197528
 20
613.3720701591569
 30
0.0
 10
845.9887693197528
 20
612.3764646906559
 30
0.0
 10
845.9887693197528
 20
612.3764646906559
 30
0.0
  0
HATCH
  5
B7
330
9B
100
AcDbEntity
  8
0
 62
   240
420
 15539236
100
AcDbHatch
 10
0.0
 20
0.0
 30
0.0
210
0.0
220
0.0
230
1.0
  2
SOLID
 70
     1
 71
     0
 91
        2
 92
        1
 93
        1
 72
     4
 94
        3
 73
     0
 74
     1
 95
       41
 96
       37
 40
0.0
 40
0.0
 40
0.0
 40
0.0
 40
1.0
 40
1.0
 40
1.0
 40
2.0
 40
2.0
 40
2.0
 40
3.0
 40
3.0
 40
3.0
 40
4.0
 40
4.0
 40
4.0
 40
5.0
 40
5.0
 40
5.0
 40
6.0
 40
6.0
 40
6.0
 40
7.0
 40
7.0
 40
7.0
 40
8.0
 40
8.0
 40
8.0
 40
9.0
 40
9.0
 40
9.0
 40
10.0
 40
10.0
 40
10.0
 40
11.0
 40
11.0
 40
11.0
 40
12.0
 40
12.0
 40
12.0
 40
12.0
 10
844.9453122887636
 20
613.9233396902691
 10
844.9453122887636
 20
614.6669920338333
 10
844.9213865075196
 20
615.2666014086833
 10
844.8974607262757
 20
615.8183592210454
 10
844.8974607262757
 20
615.8183592210454
 10
845.8447263510388
 20
615.8183592210454
 10
845.8447263510388
 20
615.8183592210454
 10
845.8447263510388
 20
615.8183592210454
 10
845.8930661947767
 20
614.8232420337941
 10
845.8930661947767
 20
614.8232420337941
 10
845.8930661947767
 20
614.8232420337941
 10
845.9169919760208
 20
614.8232420337941
 10
845.9169919760208
 20
614.8232420337941
 10
846.3486326009129
 20
615.5307615648672
 10
847.0322263507419
 20
615.9501951585124
 10
847.9794919755051
 20
615.9501951585124
 10
849.3828122876542
 20
615.9501951585124
 10
850.4384763498904
 20
614.7631834400592
 10
850.4384763498904
 20
612.99999984675
 10
850.4384763498904
 20
610.9130857847717
 10
849.1669919752082
 20
609.8818357850296
 10
847.79980447555
 20
609.8818357850296
 10
847.0322263507419
 20
609.8818357850296
 10
846.3603513509099
 20
610.2177732849456
 10
846.0126951009968
 20
610.7934568785516
 10
846.0126951009968
 20
610.7934568785516
 10
845.9887693197528
 20
610.7934568785516
 10
845.9887693197528
 20
610.7934568785516
 10
845.9887693197528
 20
610.7934568785516
 10
845.9887693197528
 20
607.6391600043402
 10
845.9887693197528
 20
607.6391600043402
 10
845.9887693197528
 20
607.6391600043402
 10
844.9453122887636
 20
607.6391600043402
 10
844.9453122887636
 20
607.6391600043402
 10
844.9453122887636
 20
607.6391600043402
 10
844.9453122887636
 20
613.9233396902691
 10
844.9453122887636
 20
613.9233396902691
 97
        0
 97
        0
 92
        1
 93
        1
 72
     4
 94
        3
 73
     0
 74
     1
 95
       26
 96
       22
 40
0.0
 40
0.0
 40
0.0
 40
0.0
 40
1.0
 40
1.0
 40
1.0
 40
2.0
 40
2.0
 40
2.0
 40
3.0
 40
3.0
 40
3.0
 40
4.0
 40
4.0
 40
4.0
 40
5.0
 40
5.0
 40
5.0
 40
6.0
 40
6.0
 40
6.0
 40
7.0
 40
7.0
 40
7.0
 40
7.0
 10
845.9887693197528
 20
612.3764646906559
 10
845.9887693197528
 20
612.2207029719448
 10
846.0126951009968
 20
612.0766600032308
 10
846.0366208822409
 20
611.9448240657638
 10
846.2285154134429
 20
611.2128904721968
 10
846.864257600784
 20
610.7094725035727
 10
847.6196286943451
 20
610.7094725035727
 10
848.7353513503161
 20
610.7094725035727
 10
849.3828122876542
 20
611.6206053158448
 10
849.3828122876542
 20
612.952148284262
 10
849.3828122876542
 20
614.1152342214712
 10
848.7709958815573
 20
615.1108396899723
 10
847.655761506836
 20
615.1108396899723
 10
846.936034944516
 20
615.1108396899723
 10
846.2646482259338
 20
614.5952146901012
 10
846.0605466634848
 20
613.803710784049
 10
846.0249021322437
 20
613.671874846582
 10
845.9887693197528
 20
613.5156248466211
 10
845.9887693197528
 20
613.3720701591569
 10
845.9887693197528
 20
613.3720701591569
 10
845.9887693197528
 20
612.3764646906559
 10
845.9887693197528
 20
612.3764646906559
 97
        0
 97
        0
 75
     2
 76
     1
 98
        0
  0
SPLINE
  5
B8
330
9B
100
AcDbEntity
  8
0
 62
   240
420
 15539236
370
    35
100
AcDbSpline
210
0.0
220
0.0
230
1.0
 70
    11
 71
     3
 72
    32
 73
    28
 74
     0
 42
0.0000000001
 43
0.0000000001
 12
1.0
 22
0.0
 32
0.0
 13
1.0
 23
0.0
 33
0.0
 40
0.0
 40
0.0
 40
0.0
 40
0.0
 40
1.0
 40
1.0
 40
1.0
 40
2.0
 40
2.0
 40
2.0
 40
3.0
 40
3.0
 40
3.0
 40
4.0
 40
4.0
 40
4.0
 40
5.0
 40
5.0
 40
5.0
 40
6.0
 40
6.0
 40
6.0
 40
7.0
 40
7.0
 40
7.0
 40
8.0
 40
8.0
 40
8.0
 40
9.0
 40
9.0
 40
9.0
 40
9.0
 10
852.3608396306598
 20
612.7241209405689
 30
0.0
 10
852.3842771306539
 20
611.2968748471758
 30
0.0
 10
853.2963865054259
 20
610.7094725035727
 30
0.0
 10
854.352050567662
 20
610.7094725035727
 30
0.0
 10
855.1069333799733
 20
610.7094725035727
 30
0.0
 10
855.5629880673592
 20
610.8413084410397
 30
0.0
 10
855.9584958797603
 20
611.0092771909976
 30
0.0
 10
855.9584958797603
 20
611.0092771909976
 30
0.0
 10
856.1381833797154
 20
610.2534178161866
 30
0.0
 10
856.1381833797154
 20
610.2534178161866
 30
0.0
 10
855.7670896298082
 20
610.0854490662286
 30
0.0
 10
855.1313474424671
 20
609.8935545350266
 30
0.0
 10
854.2075193176981
 20
609.8935545350266
 30
0.0
 10
852.4204099431449
 20
609.8935545350266
 30
0.0
 10
851.3530271309118
 20
611.0693357847326
 30
0.0
 10
851.3530271309118
 20
612.8203123467949
 30
0.0
 10
851.3530271309118
 20
614.5712889088571
 30
0.0
 10
852.3842771306539
 20
615.9501951585124
 30
0.0
 10
854.0756833802311
 20
615.9501951585124
 30
0.0
 10
855.9702146297574
 20
615.9501951585124
 30
0.0
 10
856.4741208796314
 20
614.2832029714292
 30
0.0
 10
856.4741208796314
 20
613.215820159196
 30
0.0
 10
856.4741208796314
 20
612.99999984675
 30
0.0
 10
856.4506833796373
 20
612.832031096792
 30
0.0
 10
856.4379880671405
 20
612.7241209405689
 30
0.0
 10
856.4379880671405
 20
612.7241209405689
 30
0.0
 10
852.3608396306598
 20
612.7241209405689
 30
0.0
 10
852.3608396306598
 20
612.7241209405689
 30
0.0
  0
SPLINE
  5
B9
330
9B
100
AcDbEntity
  8
0
 62
   240
420
 15539236
370
    35
100
AcDbSpline
210
0.0
220
0.0
230
1.0
 70
    11
 71
     3
 72
    14
 73
    10
 74
     0
 42
0.0000000001
 43
0.0000000001
 12
1.0
 22
0.0
 32
0.0
 13
1.0
 23
0.0
 33
0.0
 40
0.0
 40
0.0
 40
0.0
 40
0.0
 40
1.0
 40
1.0
 40
1.0
 40
2.0
 40
2.0
 40
2.0
 40
3.0
 40
3.0
 40
3.0
 40
3.0
 10
855.4545896298863
 20
613.47998031538
 30
0.0
 10
855.4672849423831
 20
614.1513670339622
 30
0.0
 10
855.1791990049552
 20
615.1948240649513
 30
0.0
 10
853.991699005252
 20
615.1948240649513
 30
0.0
 10
852.9243161930189
 20
615.1948240649513
 30
0.0
 10
852.4565427556358
 20
614.2114256276972
 30
0.0
 10
852.3725583806569
 20
613.47998031538
 30
0.0
 10
852.3725583806569
 20
613.47998031538
 30
0.0
 10
855.4545896298863
 20
613.47998031538
 30
0.0
 10
855.4545896298863
 20
613.47998031538
 30
0.0
  0
HATCH
  5
BA
330
9B
100
AcDbEntity
  8
0
 62
   240
420
 15539236
100
AcDbHatch
 10
0.0
 20
0.0
 30
0.0
210
0.0
220
0.0
230
1.0
  2
SOLID
 70
     1
 71
     0
 91
        2
 92
        1
 93
        1
 72
     4
 94
        3
 73
     0
 74
     1
 95
       32
 96
       28
 40
0.0
 40
0.0
 40
0.0
 40
0.0
 40
1.0
 40
1.0
 40
1.0
 40
2.0
 40
2.0
 40
2.0
 40
3.0
 40
3.0
 40
3.0
 40
4.0
 40
4.0
 40
4.0
 40
5.0
 40
5.0
 40
5.0
 40
6.0
 40
6.0
 40
6.0
 40
7.0
 40
7.0
 40
7.0
 40
8.0
 40
8.0
 40
8.0
 40
9.0
 40
9.0
 40
9.0
 40
9.0
 10
852.3608396306598
 20
612.7241209405689
 10
852.3842771306539
 20
611.2968748471758
 10
853.2963865054259
 20
610.7094725035727
 10
854.352050567662
 20
610.7094725035727
 10
855.1069333799733
 20
610.7094725035727
 10
855.5629880673592
 20
610.8413084410397
 10
855.9584958797603
 20
611.0092771909976
 10
855.9584958797603
 20
611.0092771909976
 10
856.1381833797154
 20
610.2534178161866
 10
856.1381833797154
 20
610.2534178161866
 10
855.7670896298082
 20
610.0854490662286
 10
855.1313474424671
 20
609.8935545350266
 10
854.2075193176981
 20
609.8935545350266
 10
852.4204099431449
 20
609.8935545350266
 10
851.3530271309118
 20
611.0693357847326
 10
851.3530271309118
 20
612.8203123467949
 10
851.3530271309118
 20
614.5712889088571
 10
852.3842771306539
 20
615.9501951585124
 10
854.0756833802311
 20
615.9501951585124
 10
855.9702146297574
 20
615.9501951585124
 10
856.4741208796314
 20
614.2832029714292
 10
856.4741208796314
 20
613.215820159196
 10
856.4741208796314
 20
612.99999984675
 10
856.4506833796373
 20
612.832031096792
 10
856.4379880671405
 20
612.7241209405689
 10
856.4379880671405
 20
612.7241209405689
 10
852.3608396306598
 20
612.7241209405689
 10
852.3608396306598
 20
612.7241209405689
 97
        0
 97
        0
 92
        1
 93
        1
 72
     4
 94
        3
 73
     0
 74
     1
 95
       14
 96
       10
 40
0.0
 40
0.0
 40
0.0
 40
0.0
 40
1.0
 40
1.0
 40
1.0
 40
2.0
 40
2.0
 40
2.0
 40
3.0
 40
3.0
 40
3.0
 40
3.0
 10
855.4545896298863
 20
613.47998031538
 10
855.4672849423831
 20
614.1513670339622
 10
855.1791990049552
 20
615.1948240649513
 10
853.991699005252
 20
615.1948240649513
 10
852.9243161930189
 20
615.1948240649513
 10
852.4565427556358
 20
614.2114256276972
 10
852.3725583806569
 20
613.47998031538
 10
852.3725583806569
 20
613.47998031538
 10
855.4545896298863
 20
613.47998031538
 10
855.4545896298863
 20
613.47998031538
 97
        0
 97
        0
 75
     2
 76
     1
 98
        0
  0
SPLINE
  5
BB
330
9B
100
AcDbEntity
  8
0
 62
   240
420
 15539236
370
    35
100
AcDbSpline
210
0.0
220
0.0
230
1.0
 70
    11
 71
     3
 72
    41
 73
    37
 74
     0
 42
0.0000000001
 43
0.0000000001
 12
1.0
 22
0.0
 32
0.0
 13
1.0
 23
0.0
 33
0.0
 40
0.0
 40
0.0
 40
0.0
 40
0.0
 40
1.0
 40
1.0
 40
1.0
 40
2.0
 40
2.0
 40
2.0
 40
3.0
 40
3.0
 40
3.0
 40
4.0
 40
4.0
 40
4.0
 40
5.0
 40
5.0
 40
5.0
 40
6.0
 40
6.0
 40
6.0
 40
7.0
 40
7.0
 40
7.0
 40
8.0
 40
8.0
 40
8.0
 40
9.0
 40
9.0
 40
9.0
 40
10.0
 40
10.0
 40
10.0
 40
11.0
 40
11.0
 40
11.0
 40
12.0
 40
12.0
 40
12.0
 40
12.0
 10
862.7983396280504
 20
618.5288084391178
 30
0.0
 10
862.7983396280504
 20
618.5288084391178
 30
0.0
 10
862.7983396280504
 20
611.5126951596218
 30
0.0
 10
862.7983396280504
 20
611.5126951596218
 30
0.0
 10
862.7983396280504
 20
610.9970701597507
 30
0.0
 10
862.8100583780474
 20
610.4096678161476
 30
0.0
 10
862.8461911905384
 20
610.0136717224966
 30
0.0
 10
862.8461911905384
 20
610.0136717224966
 30
0.0
 10
861.8989255657752
 20
610.0136717224966
 30
0.0
 10
861.8989255657752
 20
610.0136717224966
 30
0.0
 10
861.8989255657752
 20
610.0136717224966
 30
0.0
 10
861.8510740032872
 20
611.0209959409948
 30
0.0
 10
861.8510740032872
 20
611.0209959409948
 30
0.0
 10
861.8510740032872
 20
611.0209959409948
 30
0.0
 10
861.8266599407933
 20
611.0209959409948
 30
0.0
 10
861.8266599407933
 20
611.0209959409948
 30
0.0
 10
861.5034177533742
 20
610.3735350036566
 30
0.0
 10
860.7954099410512
 20
609.8818357850296
 30
0.0
 10
859.848144316288
 20
609.8818357850296
 30
0.0
 10
858.4448240041388
 20
609.8818357850296
 30
0.0
 10
857.3657224419086
 20
611.0693357847326
 30
0.0
 10
857.3657224419086
 20
612.832031096792
 30
0.0
 10
857.3530271294118
 20
614.7631834400592
 30
0.0
 10
858.5532224416116
 20
615.9501951585124
 30
0.0
 10
859.968261503758
 20
615.9501951585124
 30
0.0
 10
860.855956816036
 20
615.9501951585124
 30
0.0
 10
861.4555661908861
 20
615.5307615648672
 30
0.0
 10
861.7192380658202
 20
615.0629881274842
 30
0.0
 10
861.7192380658202
 20
615.0629881274842
 30
0.0
 10
861.7426755658144
 20
615.0629881274842
 30
0.0
 10
861.7426755658144
 20
615.0629881274842
 30
0.0
 10
861.7426755658144
 20
615.0629881274842
 30
0.0
 10
861.7426755658144
 20
618.5288084391178
 30
0.0
 10
861.7426755658144
 20
618.5288084391178
 30
0.0
 10
861.7426755658144
 20
618.5288084391178
 30
0.0
 10
862.7983396280504
 20
618.5288084391178
 30
0.0
 10
862.7983396280504
 20
618.5288084391178
 30
0.0
  0
SPLINE
  5
BC
330
9B
100
AcDbEntity
  8
0
 62
   240
420
 15539236
370
    35
100
AcDbSpline
210
0.0
220
0.0
230
1.0
 70
    11
 71
     3
 72
    26
 73
    22
 74
     0
 42
0.0000000001
 43
0.0000000001
 12
1.0
 22
0.0
 32
0.0
 13
1.0
 23
0.0
 33
0.0
 40
0.0
 40
0.0
 40
0.0
 40
0.0
 40
1.0
 40
1.0
 40
1.0
 40
2.0
 40
2.0
 40
2.0
 40
3.0
 40
3.0
 40
3.0
 40
4.0
 40
4.0
 40
4.0
 40
5.0
 40
5.0
 40
5.0
 40
6.0
 40
6.0
 40
6.0
 40
7.0
 40
7.0
 40
7.0
 40
7.0
 10
861.7426755658144
 20
613.4555662528861
 30
0.0
 10
861.7426755658144
 20
613.587890471603
 30
0.0
 10
861.7309568158172
 20
613.7675779715581
 30
0.0
 10
861.6948240033263
 20
613.8994139090252
 30
0.0
 10
861.539550565865
 20
614.5712889088571
 30
0.0
 10
860.9633786910091
 20
615.1230467212192
 30
0.0
 10
860.1723630662069
 20
615.1230467212192
 30
0.0
 10
859.0805661914799
 20
615.1230467212192
 30
0.0
 10
858.4331052541417
 20
614.1635740652091
 30
0.0
 10
858.4331052541417
 20
612.87988265928
 30
0.0
 10
858.4331052541417
 20
611.7045896908238
 30
0.0
 10
859.008300566498
 20
610.7333982848166
 30
0.0
 10
860.1479490037129
 20
610.7333982848166
 30
0.0
 10
860.855956816036
 20
610.7333982848166
 30
0.0
 10
861.5034177533742
 20
611.2011717221997
 30
0.0
 10
861.6948240033263
 20
611.9926756282518
 30
0.0
 10
861.7309568158172
 20
612.1367185969658
 30
0.0
 10
861.7426755658144
 20
612.2802732844299
 30
0.0
 10
861.7426755658144
 20
612.4482420343879
 30
0.0
 10
861.7426755658144
 20
612.4482420343879
 30
0.0
 10
861.7426755658144
 20
613.4555662528861
 30
0.0
 10
861.7426755658144
 20
613.4555662528861
 30
0.0
  0
HATCH
  5
BD
330
9B
100
AcDbEntity
  8
0
 62
   240
420
 15539236
100
AcDbHatch
 10
0.0
 20
0.0
 30
0.0
210
0.0
220
0.0
230
1.0
  2
SOLID
 70
     1
 71
     0
 91
        2
 92
        1
 93
        1
 72
     4
 94
        3
 73
     0
 74
     1
 95
       41
 96
       37
 40
0.0
 40
0.0
 40
0.0
 40
0.0
 40
1.0
 40
1.0
 40
1.0
 40
2.0
 40
2.0
 40
2.0
 40
3.0
 40
3.0
 40
3.0
 40
4.0
 40
4.0
 40
4.0
 40
5.0
 40
5.0
 40
5.0
 40
6.0
 40
6.0
 40
6.0
 40
7.0
 40
7.0
 40
7.0
 40
8.0
 40
8.0
 40
8.0
 40
9.0
 40
9.0
 40
9.0
 40
10.0
 40
10.0
 40
10.0
 40
11.0
 40
11.0
 40
11.0
 40
12.0
 40
12.0
 40
12.0
 40
12.0
 10
862.7983396280504
 20
618.5288084391178
 10
862.7983396280504
 20
618.5288084391178
 10
862.7983396280504
 20
611.5126951596218
 10
862.7983396280504
 20
611.5126951596218
 10
862.7983396280504
 20
610.9970701597507
 10
862.8100583780474
 20
610.4096678161476
 10
862.8461911905384
 20
610.0136717224966
 10
862.8461911905384
 20
610.0136717224966
 10
861.8989255657752
 20
610.0136717224966
 10
861.8989255657752
 20
610.0136717224966
 10
861.8989255657752
 20
610.0136717224966
 10
861.8510740032872
 20
611.0209959409948
 10
861.8510740032872
 20
611.0209959409948
 10
861.8510740032872
 20
611.0209959409948
 10
861.8266599407933
 20
611.0209959409948
 10
861.8266599407933
 20
611.0209959409948
 10
861.5034177533742
 20
610.3735350036566
 10
860.7954099410512
 20
609.8818357850296
 10
859.848144316288
 20
609.8818357850296
 10
858.4448240041388
 20
609.8818357850296
 10
857.3657224419086
 20
611.0693357847326
 10
857.3657224419086
 20
612.832031096792
 10
857.3530271294118
 20
614.7631834400592
 10
858.5532224416116
 20
615.9501951585124
 10
859.968261503758
 20
615.9501951585124
 10
860.855956816036
 20
615.9501951585124
 10
861.4555661908861
 20
615.5307615648672
 10
861.7192380658202
 20
615.0629881274842
 10
861.7192380658202
 20
615.0629881274842
 10
861.7426755658144
 20
615.0629881274842
 10
861.7426755658144
 20
615.0629881274842
 10
861.7426755658144
 20
615.0629881274842
 10
861.7426755658144
 20
618.5288084391178
 10
861.7426755658144
 20
618.5288084391178
 10
861.7426755658144
 20
618.5288084391178
 10
862.7983396280504
 20
618.5288084391178
 10
862.7983396280504
 20
618.5288084391178
 97
        0
 97
        0
 92
        1
 93
        1
 72
     4
 94
        3
 73
     0
 74
     1
 95
       26
 96
       22
 40
0.0
 40
0.0
 40
0.0
 40
0.0
 40
1.0
 40
1.0
 40
1.0
 40
2.0
 40
2.0
 40
2.0
 40
3.0
 40
3.0
 40
3.0
 40
4.0
 40
4.0
 40
4.0
 40
5.0
 40
5.0
 40
5.0
 40
6.0
 40
6.0
 40
6.0
 40
7.0
 40
7.0
 40
7.0
 40
7.0
 10
861.7426755658144
 20
613.4555662528861
 10
861.7426755658144
 20
613.587890471603
 10
861.7309568158172
 20
613.7675779715581
 10
861.6948240033263
 20
613.8994139090252
 10
861.539550565865
 20
614.5712889088571
 10
860.9633786910091
 20
615.1230467212192
 10
860.1723630662069
 20
615.1230467212192
 10
859.0805661914799
 20
615.1230467212192
 10
858.4331052541417
 20
614.1635740652091
 10
858.4331052541417
 20
612.87988265928
 10
858.4331052541417
 20
611.7045896908238
 10
859.008300566498
 20
610.7333982848166
 10
860.1479490037129
 20
610.7333982848166
 10
860.855956816036
 20
610.7333982848166
 10
861.5034177533742
 20
611.2011717221997
 10
861.6948240033263
 20
611.9926756282518
 10
861.7309568158172
 20
612.1367185969658
 10
861.7426755658144
 20
612.2802732844299
 10
861.7426755658144
 20
612.4482420343879
 10
861.7426755658144
 20
612.4482420343879
 10
861.7426755658144
 20
613.4555662528861
 10
861.7426755658144
 20
613.4555662528861
 97
        0
 97
        0
 75
     2
 76
     1
 98
        0
  0
ENDBLK
  5
9E
330
9B
100
AcDbEntity
  8
0
100
AcDbBlockEnd
  0
ENDSEC
  0
SECTION
  2
ENTITIES
  0
INSERT
  5
41
330
1F
100
AcDbEntity
  8
0
100
AcDbBlockReference
  2
block 2
 10
0.0
 20
0.0
 30
0.0
  0
INSERT
  5
46
330
1F
100
AcDbEntity
  8
0
100
AcDbBlockReference
  2
block 3
 10
0.0
 20
0.0
 30
0.0
  0
INSERT
  5
55
330
1F
100
AcDbEntity
  8
0
100
AcDbBlockReference
  2
block 4
 10
0.0
 20
0.0
 30
0.0
  0
INSERT
  5
60
330
1F
100
AcDbEntity
  8
0
100
AcDbBlockReference
  2
block 5
 10
0.0
 20
0.0
 30
0.0
  0
INSERT
  5
6F
330
1F
100
AcDbEntity
  8
0
100
AcDbBlockReference
  2
block 6
 10
0.0
 20
0.0
 30
0.0
  0
INSERT
  5
74
330
1F
100
AcDbEntity
  8
0
100
AcDbBlockReference
  2
block 7
 10
0.0
 20
0.0
 30
0.0
  0
INSERT
  5
79
330
1F
100
AcDbEntity
  8
0
100
AcDbBlockReference
  2
block 8
 10
0.0
 20
0.0
 30
0.0
  0
INSERT
  5
7E
330
1F
100
AcDbEntity
  8
0
100
AcDbBlockReference
  2
block 9
 10
0.0
 20
0.0
 30
0.0
  0
INSERT
  5
83
330
1F
100
AcDbEntity
  8
0
100
AcDbBlockReference
  2
block 10
 10
0.0
 20
0.0
 30
0.0
  0
INSERT
  5
88
330
1F
100
AcDbEntity
  8
0
100
AcDbBlockReference
  2
block 11
 10
0.0
 20
0.0
 30
0.0
  0
INSERT
  5
8D
330
1F
100
AcDbEntity
  8
0
100
AcDbBlockReference
  2
block 12
 10
0.0
 20
0.0
 30
0.0
  0
INSERT
  5
92
330
1F
100
AcDbEntity
  8
0
100
AcDbBlockReference
  2
block 13
 10
0.0
 20
0.0
 30
0.0
  0
INSERT
  5
97
330
1F
100
AcDbEntity
  8
0
100
AcDbBlockReference
  2
block 14
 10
0.0
 20
0.0
 30
0.0
  0
INSERT
  5
9C
330
1F
100
AcDbEntity
  8
0
100
AcDbBlockReference
  2
block 15
 10
0.0
 20
0.0
 30
0.0
  0
ENDSEC
  0
SECTION
  2
OBJECTS
  0
DICTIONARY
  5
C
330
0
100
AcDbDictionary
281
     1
  3
ACAD_GROUP
350
D
  3
ACAD_LAYOUT
350
1A
  3
ACAD_MATERIAL
350
3B
  3
ACAD_MLEADERSTYLE
350
BF
  3
ACAD_MLINESTYLE
350
17
  3
ACAD_PLOTSETTINGS
350
19
  3
ACAD_PLOTSTYLENAME
350
E
  3
ACAD_TABLESTYLE
350
BE
  3
ACAD_VISUALSTYLE
350
2A
  0
SUN
  5
3F
330
29
100
AcDbSun
 90
        1
290
     0
 63
     7
421
 16777215
 40
1.0
291
     1
 91
  2455826
 92
 54000000
292
     0
 70
     2
 71
   256
280
     1
  0
DICTIONARY
  5
D
102
{ACAD_REACTORS
330
C
102
}
330
C
100
AcDbDictionary
281
     1
  0
DICTIONARY
  5
1A
102
{ACAD_REACTORS
330
C
102
}
330
C
100
AcDbDictionary
281
     1
  3
Layout1
350
1E
  3
Layout2
350
26
  3
Model
350
22
  0
DICTIONARY
  5
3B
102
{ACAD_REACTORS
330
C
102
}
330
C
100
AcDbDictionary
281
     1
  3
ByBlock
350
3D
  3
ByLayer
350
3C
  3
Global
350
3E
  0
DICTIONARY
  5
BF
102
{ACAD_REACTORS
330
C
102
}
330
C
100
AcDbDictionary
281
     1
  0
DICTIONARY
  5
17
102
{ACAD_REACTORS
330
C
102
}
330
C
100
AcDbDictionary
281
     1
  3
Standard
350
18
  0
DICTIONARY
  5
19
102
{ACAD_REACTORS
330
C
102
}
330
C
100
AcDbDictionary
281
     1
  0
ACDBDICTIONARYWDFLT
  5
E
102
{ACAD_REACTORS
330
C
102
}
330
C
100
AcDbDictionary
281
     1
  3
Normal
350
F
100
AcDbDictionaryWithDefault
340
F
  0
DICTIONARY
  5
BE
102
{ACAD_REACTORS
330
C
102
}
330
C
100
AcDbDictionary
281
     1
  0
DICTIONARY
  5
2A
102
{ACAD_REACTORS
330
C
102
}
330
C
100
AcDbDictionary
281
     1
  3
2dWireframe
350
2F
  3
3D Hidden
350
31
  3
3dWireframe
350
30
  3
Basic
350
32
  3
Brighten
350
36
  3
ColorChange
350
3A
  3
Conceptual
350
34
  3
Dim
350
35
  3
Facepattern
350
39
  3
Flat
350
2B
  3
FlatWithEdges
350
2C
  3
Gouraud
350
2D
  3
GouraudWithEdges
350
2E
  3
Linepattern
350
38
  3
Realistic
350
33
  3
Thicken
350
37
  0
LAYOUT
  5
1E
102
{ACAD_REACTORS
330
1A
102
}
330
1A
100
AcDbPlotSettings
  1

  2
none_device
  4

  6

 40
0.0
 41
0.0
 42
0.0
 43
0.0
 44
0.0
 45
0.0
 46
0.0
 47
0.0
 48
0.0
 49
0.0
140
0.0
141
0.0
142
1.0
143
1.0
 70
   688
 72
     0
 73
     0
 74
     5
  7

 75
    16
 76
     0
 77
     2
 78
   300
147
1.0
148
0.0
149
0.0
100
AcDbLayout
  1
Layout1
 70
     1
 71
     1
 10
0.0
 20
0.0
 11
12.0
 21
9.0
 12
0.0
 22
0.0
 32
0.0
 14
1.000000000000000E+20
 24
1.000000000000000E+20
 34
1.000000000000000E+20
 15
-1.000000000000000E+20
 25
-1.000000000000000E+20
 35
-1.000000000000000E+20
146
0.0
 13
0.0
 23
0.0
 33
0.0
 16
1.0
 26
0.0
 36
0.0
 17
0.0
 27
1.0
 37
0.0
 76
     0
330
1B
  0
LAYOUT
  5
26
102
{ACAD_REACTORS
330
1A
102
}
330
1A
100
AcDbPlotSettings
  1

  2
none_device
  4

  6

 40
0.0
 41
0.0
 42
0.0
 43
0.0
 44
0.0
 45
0.0
 46
0.0
 47
0.0
 48
0.0
 49
0.0
140
0.0
141
0.0
142
1.0
143
1.0
 70
   688
 72
     0
 73
     0
 74
     5
  7

 75
    16
 76
     0
 77
     2
 78
   300
147
1.0
148
0.0
149
0.0
100
AcDbLayout
  1
Layout2
 70
     1
 71
     2
 10
0.0
 20
0.0
 11
0.0
 21
0.0
 12
0.0
 22
0.0
 32
0.0
 14
0.0
 24
0.0
 34
0.0
 15
0.0
 25
0.0
 35
0.0
146
0.0
 13
0.0
 23
0.0
 33
0.0
 16
1.0
 26
0.0
 36
0.0
 17
0.0
 27
1.0
 37
0.0
 76
     0
330
23
  0
LAYOUT
  5
22
102
{ACAD_REACTORS
330
1A
102
}
330
1A
100
AcDbPlotSettings
  1

  2
none_device
  4

  6

 40
0.0
 41
0.0
 42
0.0
 43
0.0
 44
0.0
 45
0.0
 46
0.0
 47
0.0
 48
0.0
 49
0.0
140
0.0
141
0.0
142
1.0
143
1.0
 70
  1712
 72
     0
 73
     0
 74
     0
  7

 75
     0
 76
     0
 77
     2
 78
   300
147
1.0
148
0.0
149
0.0
100
AcDbLayout
  1
Model
 70
     1
 71
     0
 10
0.0
 20
0.0
 11
12.0
 21
9.0
 12
0.0
 22
0.0
 32
0.0
 14
1.000000000000000E+20
 24
1.000000000000000E+20
 34
1.000000000000000E+20
 15
-1.000000000000000E+20
 25
-1.000000000000000E+20
 35
-1.000000000000000E+20
146
0.0
 13
0.0
 23
0.0
 33
0.0
 16
1.0
 26
0.0
 36
0.0
 17
0.0
 27
1.0
 37
0.0
 76
     0
330
1F
331
29
  0
MATERIAL
  5
3D
102
{ACAD_REACTORS
330
3B
102
}
330
3B
100
AcDbMaterial
  1
ByBlock
 72
     1
 94
      127
  0
MATERIAL
  5
3C
102
{ACAD_REACTORS
330
3B
102
}
330
3B
100
AcDbMaterial
  1
ByLayer
 72
     1
 94
      127
  0
MATERIAL
  5
3E
102
{ACAD_REACTORS
330
3B
102
}
330
3B
100
AcDbMaterial
  1
Global
 72
     1
 94
      127
  0
MLINESTYLE
  5
18
102
{ACAD_REACTORS
330
17
102
}
330
17
100
AcDbMlineStyle
  2
Standard
 70
     0
  3

 62
   256
 51
90.0
 52
90.0
 71
     2
 49
0.5
 62
   256
  6
BYLAYER
 49
-0.5
 62
   256
  6
BYLAYER
  0
ACDBPLACEHOLDER
  5
F
102
{ACAD_REACTORS
330
E
102
}
330
E
  0
VISUALSTYLE
  5
2F
102
{ACAD_REACTORS
330
2A
102
}
330
2A
100
AcDbVisualStyle
  2
2dWireframe
 70
     4
177
     2
291
     0
 71
     0
176
     1
 72
     2
176
     1
 73
     0
176
     1
 90
        0
176
     1
 40
-0.6
176
     1
 41
-30.0
176
     1
 62
     5
 63
     7
421
 16777215
176
     1
 74
     1
176
     1
 91
        4
176
     1
 64
     7
176
     1
 65
   257
176
     1
 75
     1
176
     1
175
     1
176
     1
 42
1.0
176
     1
 92
        0
176
     1
 66
   257
176
     1
 43
1.0
176
     1
 76
     1
176
     1
 77
     6
176
     1
 78
     2
176
     1
 67
     7
176
     1
 79
     5
176
     1
170
     0
176
     1
171
     0
176
     1
290
     0
176
     1
 93
        1
176
     1
 44
0.0
176
     1
173
     0
176
     1
  0
VISUALSTYLE
  5
31
102
{ACAD_REACTORS
330
2A
102
}
330
2A
100
AcDbVisualStyle
  2
3D Hidden
 70
     6
177
     2
291
     0
 71
     1
176
     1
 72
     2
176
     1
 73
     2
176
     1
 90
        0
176
     1
 40
-0.6
176
     1
 41
-30.0
176
     1
 62
     5
 63
     7
421
 16777215
176
     1
 74
     2
176
     1
 91
        2
176
     1
 64
     7
176
     1
 65
   257
176
     1
 75
     2
176
     1
175
     1
176
     1
 42
40.0
176
     1
 92
        0
176
     1
 66
   257
176
     1
 43
1.0
176
     1
 76
     1
176
     1
 77
     6
176
     1
 78
     2
176
     1
 67
     7
176
     1
 79
     3
176
     1
170
     0
176
     1
171
     0
176
     1
290
     0
176
     1
 93
        1
176
     1
 44
0.0
176
     1
173
     0
176
     1
  0
VISUALSTYLE
  5
30
102
{ACAD_REACTORS
330
2A
102
}
330
2A
100
AcDbVisualStyle
  2
3dWireframe
 70
     5
177
     2
291
     0
 71
     0
176
     1
 72
     2
176
     1
 73
     0
176
     1
 90
        0
176
     1
 40
-0.6
176
     1
 41
-30.0
176
     1
 62
     5
 63
     7
421
 16777215
176
     1
 74
     1
176
     1
 91
        4
176
     1
 64
     7
176
     1
 65
   257
176
     1
 75
     1
176
     1
175
     1
176
     1
 42
1.0
176
     1
 92
        0
176
     1
 66
   257
176
     1
 43
1.0
176
     1
 76
     1
176
     1
 77
     6
176
     1
 78
     2
176
     1
 67
     7
176
     1
 79
     5
176
     1
170
     0
176
     1
171
     0
176
     1
290
     0
176
     1
 93
        1
176
     1
 44
0.0
176
     1
173
     0
176
     1
  0
VISUALSTYLE
  5
32
102
{ACAD_REACTORS
330
2A
102
}
330
2A
100
AcDbVisualStyle
  2
Basic
 70
     7
177
     2
291
     1
 71
     1
176
     1
 72
     0
176
     1
 73
     1
176
     1
 90
        0
176
     1
 40
-0.6
176
     1
 41
-30.0
176
     1
 62
     5
 63
     7
421
 16777215
176
     1
 74
     0
176
     1
 91
        4
176
     1
 64
     7
176
     1
 65
   257
176
     1
 75
     1
176
     1
175
     1
176
     1
 42
1.0
176
     1
 92
        8
176
     1
 66
     7
176
     1
 43
1.0
176
     1
 76
     1
176
     1
 77
     6
176
     1
 78
     2
176
     1
 67
     7
176
     1
 79
     5
176
     1
170
     0
176
     1
171
     0
176
     1
290
     0
176
     1
 93
        1
176
     1
 44
0.0
176
     1
173
     0
176
     1
  0
VISUALSTYLE
  5
36
102
{ACAD_REACTORS
330
2A
102
}
330
2A
100
AcDbVisualStyle
  2
Brighten
 70
    12
177
     2
291
     1
 71
     2
176
     1
 72
     2
176
     1
 73
     0
176
     1
 90
        0
176
     1
 40
-0.6
176
     1
 41
-30.0
176
     1
 62
     5
 63
     7
421
 16777215
176
     1
 74
     1
176
     1
 91
        4
176
     1
 64
     7
176
     1
 65
   257
176
     1
 75
     1
176
     1
175
     1
176
     1
 42
1.0
176
     1
 92
        8
176
     1
 66
     7
176
     1
 43
1.0
176
     1
 76
     1
176
     1
 77
     6
176
     1
 78
     2
176
     1
 67
     7
176
     1
 79
     5
176
     1
170
     0
176
     1
171
     0
176
     1
290
     0
176
     1
 93
        1
176
     1
 44
50.0
176
     1
173
     0
176
     1
  0
VISUALSTYLE
  5
3A
102
{ACAD_REACTORS
330
2A
102
}
330
2A
100
AcDbVisualStyle
  2
ColorChange
 70
    16
177
     2
291
     1
 71
     2
176
     1
 72
     2
176
     1
 73
     3
176
     1
 90
        0
176
     1
 40
-0.6
176
     1
 41
-30.0
176
     1
 62
     5
 63
     8
421
  8421504
176
     1
 74
     1
176
     1
 91
        4
176
     1
 64
     7
176
     1
 65
   257
176
     1
 75
     1
176
     1
175
     1
176
     1
 42
1.0
176
     1
 92
        8
176
     1
 66
     8
424
  8421504
176
     1
 43
1.0
176
     1
 76
     1
176
     1
 77
     6
176
     1
 78
     2
176
     1
 67
     7
176
     1
 79
     5
176
     1
170
     0
176
     1
171
     0
176
     1
290
     0
176
     1
 93
        1
176
     1
 44
0.0
176
     1
173
     0
176
     1
  0
VISUALSTYLE
  5
34
102
{ACAD_REACTORS
330
2A
102
}
330
2A
100
AcDbVisualStyle
  2
Conceptual
 70
     9
177
     2
291
     0
 71
     3
176
     1
 72
     2
176
     1
 73
     0
176
     1
 90
        0
176
     1
 40
-0.6
176
     1
 41
-30.0
176
     1
 62
     5
 63
     7
421
 16777215
176
     1
 74
     2
176
     1
 91
        2
176
     1
 64
     7
176
     1
 65
   257
176
     1
 75
     1
176
     1
175
     1
176
     1
 42
40.0
176
     1
 92
        8
176
     1
 66
     7
176
     1
 43
1.0
176
     1
 76
     1
176
     1
 77
     6
176
     1
 78
     2
176
     1
 67
     7
176
     1
 79
     3
176
     1
170
     0
176
     1
171
     0
176
     1
290
     0
176
     1
 93
        1
176
     1
 44
0.0
176
     1
173
     0
176
     1
  0
VISUALSTYLE
  5
35
102
{ACAD_REACTORS
330
2A
102
}
330
2A
100
AcDbVisualStyle
  2
Dim
 70
    11
177
     2
291
     1
 71
     2
176
     1
 72
     2
176
     1
 73
     0
176
     1
 90
        0
176
     1
 40
-0.6
176
     1
 41
-30.0
176
     1
 62
     5
 63
     7
421
 16777215
176
     1
 74
     1
176
     1
 91
        4
176
     1
 64
     7
176
     1
 65
   257
176
     1
 75
     1
176
     1
175
     1
176
     1
 42
1.0
176
     1
 92
        8
176
     1
 66
     7
176
     1
 43
1.0
176
     1
 76
     1
176
     1
 77
     6
176
     1
 78
     2
176
     1
 67
     7
176
     1
 79
     5
176
     1
170
     0
176
     1
171
     0
176
     1
290
     0
176
     1
 93
        1
176
     1
 44
-50.0
176
     1
173
     0
176
     1
  0
VISUALSTYLE
  5
39
102
{ACAD_REACTORS
330
2A
102
}
330
2A
100
AcDbVisualStyle
  2
Facepattern
 70
    15
177
     2
291
     1
 71
     2
176
     1
 72
     2
176
     1
 73
     0
176
     1
 90
        0
176
     1
 40
-0.6
176
     1
 41
-30.0
176
     1
 62
     5
 63
     7
421
 16777215
176
     1
 74
     1
176
     1
 91
        4
176
     1
 64
     7
176
     1
 65
   257
176
     1
 75
     1
176
     1
175
     1
176
     1
 42
1.0
176
     1
 92
        8
176
     1
 66
     7
176
     1
 43
1.0
176
     1
 76
     1
176
     1
 77
     6
176
     1
 78
     2
176
     1
 67
     7
176
     1
 79
     5
176
     1
170
     0
176
     1
171
     0
176
     1
290
     0
176
     1
 93
        1
176
     1
 44
0.0
176
     1
173
     0
176
     1
  0
VISUALSTYLE
  5
2B
102
{ACAD_REACTORS
330
2A
102
}
330
2A
100
AcDbVisualStyle
  2
Flat
 70
     0
177
     2
291
     1
 71
     2
176
     1
 72
     1
176
     1
 73
     1
176
     1
 90
        2
176
     1
 40
-0.6
176
     1
 41
30.0
176
     1
 62
     5
 63
     7
421
 16777215
176
     1
 74
     0
176
     1
 91
        4
176
     1
 64
     7
176
     1
 65
   257
176
     1
 75
     1
176
     1
175
     1
176
     1
 42
1.0
176
     1
 92
        8
176
     1
 66
     7
176
     1
 43
1.0
176
     1
 76
     1
176
     1
 77
     6
176
     1
 78
     2
176
     1
 67
     7
176
     1
 79
     5
176
     1
170
     0
176
     1
171
     0
176
     1
290
     0
176
     1
 93
       13
176
     1
 44
0.0
176
     1
173
     0
176
     1
  0
VISUALSTYLE
  5
2C
102
{ACAD_REACTORS
330
2A
102
}
330
2A
100
AcDbVisualStyle
  2
FlatWithEdges
 70
     1
177
     2
291
     1
 71
     2
176
     1
 72
     1
176
     1
 73
     1
176
     1
 90
        2
176
     1
 40
-0.6
176
     1
 41
30.0
176
     1
 62
     5
 63
     7
421
 16777215
176
     1
 74
     1
176
     1
 91
        4
176
     1
 64
     7
176
     1
 65
   257
176
     1
 75
     1
176
     1
175
     1
176
     1
 42
1.0
176
     1
 92
        0
176
     1
 66
   257
176
     1
 43
1.0
176
     1
 76
     1
176
     1
 77
     6
176
     1
 78
     2
176
     1
 67
     7
176
     1
 79
     5
176
     1
170
     0
176
     1
171
     0
176
     1
290
     0
176
     1
 93
       13
176
     1
 44
0.0
176
     1
173
     0
176
     1
  0
VISUALSTYLE
  5
2D
102
{ACAD_REACTORS
330
2A
102
}
330
2A
100
AcDbVisualStyle
  2
Gouraud
 70
     2
177
     2
291
     1
 71
     2
176
     1
 72
     2
176
     1
 73
     1
176
     1
 90
        2
176
     1
 40
-0.6
176
     1
 41
30.0
176
     1
 62
     5
 63
     7
421
 16777215
176
     1
 74
     0
176
     1
 91
        4
176
     1
 64
     7
176
     1
 65
   257
176
     1
 75
     1
176
     1
175
     1
176
     1
 42
1.0
176
     1
 92
        0
176
     1
 66
     7
176
     1
 43
1.0
176
     1
 76
     1
176
     1
 77
     6
176
     1
 78
     2
176
     1
 67
     7
176
     1
 79
     5
176
     1
170
     0
176
     1
171
     0
176
     1
290
     0
176
     1
 93
       13
176
     1
 44
0.0
176
     1
173
     0
176
     1
  0
VISUALSTYLE
  5
2E
102
{ACAD_REACTORS
330
2A
102
}
330
2A
100
AcDbVisualStyle
  2
GouraudWithEdges
 70
     3
177
     2
291
     1
 71
     2
176
     1
 72
     2
176
     1
 73
     1
176
     1
 90
        2
176
     1
 40
-0.6
176
     1
 41
30.0
176
     1
 62
     5
 63
     7
421
 16777215
176
     1
 74
     1
176
     1
 91
        4
176
     1
 64
     7
176
     1
 65
   257
176
     1
 75
     1
176
     1
175
     1
176
     1
 42
1.0
176
     1
 92
        0
176
     1
 66
   257
176
     1
 43
1.0
176
     1
 76
     1
176
     1
 77
     6
176
     1
 78
     2
176
     1
 67
     7
176
     1
 79
     5
176
     1
170
     0
176
     1
171
     0
176
     1
290
     0
176
     1
 93
       13
176
     1
 44
0.0
176
     1
173
     0
176
     1
  0
VISUALSTYLE
  5
38
102
{ACAD_REACTORS
330
2A
102
}
330
2A
100
AcDbVisualStyle
  2
Linepattern
 70
    14
177
     2
291
     1
 71
     2
176
     1
 72
     2
176
     1
 73
     0
176
     1
 90
        0
176
     1
 40
-0.6
176
     1
 41
-30.0
176
     1
 62
     5
 63
     7
421
 16777215
176
     1
 74
     1
176
     1
 91
        4
176
     1
 64
     7
176
     1
 65
   257
176
     1
 75
     7
176
     1
175
     7
176
     1
 42
1.0
176
     1
 92
        8
176
     1
 66
     7
176
     1
 43
1.0
176
     1
 76
     1
176
     1
 77
     6
176
     1
 78
     2
176
     1
 67
     7
176
     1
 79
     5
176
     1
170
     0
176
     1
171
     0
176
     1
290
     0
176
     1
 93
        1
176
     1
 44
0.0
176
     1
173
     0
176
     1
  0
VISUALSTYLE
  5
33
102
{ACAD_REACTORS
330
2A
102
}
330
2A
100
AcDbVisualStyle
  2
Realistic
 70
     8
177
     2
291
     0
 71
     2
176
     1
 72
     2
176
     1
 73
     0
176
     1
 90
        0
176
     1
 40
-0.6
176
     1
 41
-30.0
176
     1
 62
     5
 63
     7
421
 16777215
176
     1
 74
     1
176
     1
 91
        0
176
     1
 64
     7
176
     1
 65
   257
176
     1
 75
     1
176
     1
175
     1
176
     1
 42
1.0
176
     1
 92
        8
176
     1
 66
     8
424
  7895160
176
     1
 43
1.0
176
     1
 76
     1
176
     1
 77
     6
176
     1
 78
     2
176
     1
 67
     7
176
     1
 79
     5
176
     1
170
     0
176
     1
171
     0
176
     1
290
     0
176
     1
 93
       13
176
     1
 44
0.0
176
     1
173
     0
176
     1
  0
VISUALSTYLE
  5
37
102
{ACAD_REACTORS
330
2A
102
}
330
2A
100
AcDbVisualStyle
  2
Thicken
 70
    13
177
     2
291
     1
 71
     2
176
     1
 72
     2
176
     1
 73
     0
176
     1
 90
        0
176
     1
 40
-0.6
176
     1
 41
-30.0
176
     1
 62
     5
 63
     7
421
 16777215
176
     1
 74
     1
176
     1
 91
        4
176
     1
 64
     7
176
     1
 65
   257
176
     1
 75
     1
176
     1
175
     1
176
     1
 42
1.0
176
     1
 92
       12
176
     1
 66
     7
176
     1
 43
1.0
176
     1
 76
     1
176
     1
 77
     6
176
     1
 78
     2
176
     1
 67
     7
176
     1
 79
     5
176
     1
170
     0
176
     1
171
     0
176
     1
290
     0
176
     1
 93
        1
176
     1
 44
0.0
176
     1
173
     0
176
     1
  0
ENDSEC
  0
EOF
