  0
SECTION
  2
HEADER
  9
$ACADVER
  1
AC1024
  9
$ACADMAINTVER
 70
     6
  9
$DWGCODEPAGE
  3
ANSI_1252
  9
$INSBASE
 10
0.0
 20
0.0
 30
0.0
  9
$EXTMIN
 10
1.000000000000000E+20
 20
1.000000000000000E+20
 30
1.000000000000000E+20
  9
$EXTMAX
 10
-1.000000000000000E+20
 20
-1.000000000000000E+20
 30
-1.000000000000000E+20
  9
$LIMMIN
 10
0.0
 20
0.0
  9
$LIMMAX
 10
12.0
 20
9.0
  9
$ORTHOMODE
 70
     0
  9
$REGENMODE
 70
     1
  9
$FILLMODE
 70
     1
  9
$QTEXTMODE
 70
     0
  9
$MIRRTEXT
 70
     1
  9
$LTSCALE
 40
1.0
  9
$ATTMODE
 70
     1
  9
$TEXTSIZE
 40
0.2
  9
$TRACEWID
 40
0.05
  9
$TEXTSTYLE
  7
Standard
  9
$CLAYER
  8
0
  9
$CELTYPE
  6
ByLayer
  9
$CECOLOR
 62
   256
  9
$CELTSCALE
 40
1.0
  9
$DISPSILH
 70
     0
  9
$DIMSCALE
 40
1.0
  9
$DIMASZ
 40
0.18
  9
$DIMEXO
 40
0.0625
  9
$DIMDLI
 40
0.38
  9
$DIMRND
 40
0.0
  9
$DIMDLE
 40
0.0
  9
$DIMEXE
 40
0.18
  9
$DIMTP
 40
0.0
  9
$DIMTM
 40
0.0
  9
$DIMTXT
 40
0.18
  9
$DIMCEN
 40
0.09
  9
$DIMTSZ
 40
0.0
  9
$DIMTOL
 70
     0
  9
$DIMLIM
 70
     0
  9
$DIMTIH
 70
     1
  9
$DIMTOH
 70
     1
  9
$DIMSE1
 70
     0
  9
$DIMSE2
 70
     0
  9
$DIMTAD
 70
     0
  9
$DIMZIN
 70
     0
  9
$DIMBLK
  1

  9
$DIMASO
 70
     1
  9
$DIMSHO
 70
     1
  9
$DIMPOST
  1

  9
$DIMAPOST
  1

  9
$DIMALT
 70
     0
  9
$DIMALTD
 70
     2
  9
$DIMALTF
 40
25.4
  9
$DIMLFAC
 40
1.0
  9
$DIMTOFL
 70
     0
  9
$DIMTVP
 40
0.0
  9
$DIMTIX
 70
     0
  9
$DIMSOXD
 70
     0
  9
$DIMSAH
 70
     0
  9
$DIMBLK1
  1

  9
$DIMBLK2
  1

  9
$DIMSTYLE
  2
Standard
  9
$DIMCLRD
 70
     0
  9
$DIMCLRE
 70
     0
  9
$DIMCLRT
 70
     0
  9
$DIMTFAC
 40
1.0
  9
$DIMGAP
 40
0.09
  9
$DIMJUST
 70
     0
  9
$DIMSD1
 70
     0
  9
$DIMSD2
 70
     0
  9
$DIMTOLJ
 70
     1
  9
$DIMTZIN
 70
     0
  9
$DIMALTZ
 70
     0
  9
$DIMALTTZ
 70
     0
  9
$DIMUPT
 70
     0
  9
$DIMDEC
 70
     4
  9
$DIMTDEC
 70
     4
  9
$DIMALTU
 70
     2
  9
$DIMALTTD
 70
     2
  9
$DIMTXSTY
  7
Standard
  9
$DIMAUNIT
 70
     0
  9
$DIMADEC
 70
     0
  9
$DIMALTRND
 40
0.0
  9
$DIMAZIN
 70
     0
  9
$DIMDSEP
 70
    46
  9
$DIMATFIT
 70
     3
  9
$DIMFRAC
 70
     0
  9
$DIMLDRBLK
  1

  9
$DIMLUNIT
 70
     2
  9
$DIMLWD
 70
    -2
  9
$DIMLWE
 70
    -2
  9
$DIMTMOVE
 70
     0
  9
$DIMFXL
 40
1.0
  9
$DIMFXLON
 70
     0
  9
$DIMJOGANG
 40
0.7853981633974483
  9
$DIMTFILL
 70
     0
  9
$DIMTFILLCLR
 70
     0
  9
$DIMARCSYM
 70
     0
  9
$DIMLTYPE
  6

  9
$DIMLTEX1
  6

  9
$DIMLTEX2
  6

  9
$DIMTXTDIRECTION
 70
     0
  9
$LUNITS
 70
     2
  9
$LUPREC
 70
     4
  9
$SKETCHINC
 40
0.1
  9
$FILLETRAD
 40
0.5
  9
$AUNITS
 70
     0
  9
$AUPREC
 70
     0
  9
$MENU
  1
.
  9
$ELEVATION
 40
0.0
  9
$PELEVATION
 40
0.0
  9
$THICKNESS
 40
0.0
  9
$LIMCHECK
 70
     0
  9
$CHAMFERA
 40
0.5
  9
$CHAMFERB
 40
0.5
  9
$CHAMFERC
 40
1.0
  9
$CHAMFERD
 40
0.0
  9
$SKPOLY
 70
     0
  9
$TDCREATE
 40
2459171.90925647
  9
$TDUCREATE
 40
2459172.242589803
  9
$TDUPDATE
 40
2459171.909256493
  9
$TDUUPDATE
 40
2459172.242589826
  9
$TDINDWG
 40
0.0000000116
  9
$TDUSRTIMER
 40
0.0000000116
  9
$USRTIMER
 70
     1
  9
$ANGBASE
 50
0.0
  9
$ANGDIR
 70
     0
  9
$PDMODE
 70
     0
  9
$PDSIZE
 40
0.0
  9
$PLINEWID
 40
0.0
  9
$SPLFRAME
 70
     0
  9
$SPLINETYPE
 70
     6
  9
$SPLINESEGS
 70
     8
  9
$HANDSEED
  5
C3
  9
$SURFTAB1
 70
     6
  9
$SURFTAB2
 70
     6
  9
$SURFTYPE
 70
     6
  9
$SURFU
 70
     6
  9
$SURFV
 70
     6
  9
$UCSBASE
  2

  9
$UCSNAME
  2

  9
$UCSORG
 10
0.0
 20
0.0
 30
0.0
  9
$UCSXDIR
 10
1.0
 20
0.0
 30
0.0
  9
$UCSYDIR
 10
0.0
 20
1.0
 30
0.0
  9
$UCSORTHOREF
  2

  9
$UCSORTHOVIEW
 70
     0
  9
$UCSORGTOP
 10
0.0
 20
0.0
 30
0.0
  9
$UCSORGBOTTOM
 10
0.0
 20
0.0
 30
0.0
  9
$UCSORGLEFT
 10
0.0
 20
0.0
 30
0.0
  9
$UCSORGRIGHT
 10
0.0
 20
0.0
 30
0.0
  9
$UCSORGFRONT
 10
0.0
 20
0.0
 30
0.0
  9
$UCSORGBACK
 10
0.0
 20
0.0
 30
0.0
  9
$PUCSBASE
  2

  9
$PUCSNAME
  2

  9
$PUCSORG
 10
0.0
 20
0.0
 30
0.0
  9
$PUCSXDIR
 10
1.0
 20
0.0
 30
0.0
  9
$PUCSYDIR
 10
0.0
 20
1.0
 30
0.0
  9
$PUCSORTHOREF
  2

  9
$PUCSORTHOVIEW
 70
     0
  9
$PUCSORGTOP
 10
0.0
 20
0.0
 30
0.0
  9
$PUCSORGBOTTOM
 10
0.0
 20
0.0
 30
0.0
  9
$PUCSORGLEFT
 10
0.0
 20
0.0
 30
0.0
  9
$PUCSORGRIGHT
 10
0.0
 20
0.0
 30
0.0
  9
$PUCSORGFRONT
 10
0.0
 20
0.0
 30
0.0
  9
$PUCSORGBACK
 10
0.0
 20
0.0
 30
0.0
  9
$USERI1
 70
     0
  9
$USERI2
 70
     0
  9
$USERI3
 70
     0
  9
$USERI4
 70
     0
  9
$USERI5
 70
     0
  9
$USERR1
 40
0.0
  9
$USERR2
 40
0.0
  9
$USERR3
 40
0.0
  9
$USERR4
 40
0.0
  9
$USERR5
 40
0.0
  9
$WORLDVIEW
 70
     1
  9
$SHADEDGE
 70
     3
  9
$SHADEDIF
 70
    70
  9
$TILEMODE
 70
     1
  9
$MAXACTVP
 70
    64
  9
$PINSBASE
 10
0.0
 20
0.0
 30
0.0
  9
$PLIMCHECK
 70
     0
  9
$PEXTMIN
 10
1.000000000000000E+20
 20
1.000000000000000E+20
 30
1.000000000000000E+20
  9
$PEXTMAX
 10
-1.000000000000000E+20
 20
-1.000000000000000E+20
 30
-1.000000000000000E+20
  9
$PLIMMIN
 10
0.0
 20
0.0
  9
$PLIMMAX
 10
12.0
 20
9.0
  9
$UNITMODE
 70
     0
  9
$VISRETAIN
 70
     1
  9
$PLINEGEN
 70
     0
  9
$PSLTSCALE
 70
     1
  9
$TREEDEPTH
 70
  3020
  9
$CMLSTYLE
  2
Standard
  9
$CMLJUST
 70
     0
  9
$CMLSCALE
 40
1.0
  9
$PROXYGRAPHICS
 70
     1
  9
$MEASUREMENT
 70
     0
  9
$CELWEIGHT
370
    -1
  9
$ENDCAPS
280
     0
  9
$JOINSTYLE
280
     0
  9
$LWDISPLAY
290
     1
  9
$INSUNITS
 70
     4
  9
$HYPERLINKBASE
  1

  9
$STYLESHEET
  1

  9
$XEDIT
290
     1
  9
$CEPSNTYPE
380
     0
  9
$PSTYLEMODE
290
     1
  9
$FINGERPRINTGUID
  2
{B701902C-7B4B-480E-93B3-EA975ADB2542}
  9
$VERSIONGUID
  2
{FAEB1C32-E019-11D5-929B-00C0DF256EC4}
  9
$EXTNAMES
290
     1
  9
$PSVPSCALE
 40
0.0
  9
$OLESTARTUP
290
     0
  9
$SORTENTS
280
   127
  9
$INDEXCTL
280
     0
  9
$HIDETEXT
280
     1
  9
$XCLIPFRAME
280
     2
  9
$HALOGAP
280
     0
  9
$OBSCOLOR
 70
   257
  9
$OBSLTYPE
280
     0
  9
$INTERSECTIONDISPLAY
280
     0
  9
$INTERSECTIONCOLOR
 70
   257
  9
$DIMASSOC
280
     2
  9
$PROJECTNAME
  1

  9
$CAMERADISPLAY
290
     0
  9
$LENSLENGTH
 40
50.0
  9
$CAMERAHEIGHT
 40
0.0
  9
$STEPSPERSEC
 40
2.0
  9
$STEPSIZE
 40
6.0
  9
$3DDWFPREC
 40
2.0
  9
$PSOLWIDTH
 40
0.25
  9
$PSOLHEIGHT
 40
4.0
  9
$LOFTANG1
 40
1.570796326794897
  9
$LOFTANG2
 40
1.570796326794897
  9
$LOFTMAG1
 40
0.0
  9
$LOFTMAG2
 40
0.0
  9
$LOFTPARAM
 70
     7
  9
$LOFTNORMALS
280
     1
  9
$LATITUDE
 40
37.795
  9
$LONGITUDE
 40
-122.394
  9
$NORTHDIRECTION
 40
0.0
  9
$TIMEZONE
 70
 -8000
  9
$LIGHTGLYPHDISPLAY
280
     1
  9
$TILEMODELIGHTSYNCH
280
     1
  9
$CMATERIAL
347
3C
  9
$SOLIDHIST
280
     1
  9
$SHOWHIST
280
     1
  9
$DWFFRAME
280
     2
  9
$DGNFRAME
280
     2
  9
$REALWORLDSCALE
290
     1
  9
$INTERFERECOLOR
 62
   256
  9
$CSHADOW
280
     0
  9
$SHADOWPLANELOCATION
 40
0.0
  0
ENDSEC
  0
SECTION
  2
CLASSES
  0
CLASS
  1
ACDBDICTIONARYWDFLT
  2
AcDbDictionaryWithDefault
  3
ObjectDBX Classes
 90
        0
 91
        4
280
     0
281
     0
  0
CLASS
  1
VISUALSTYLE
  2
AcDbVisualStyle
  3
ObjectDBX Classes
 90
     4095
 91
        4
280
     0
281
     0
  0
CLASS
  1
MATERIAL
  2
AcDbMaterial
  3
ObjectDBX Classes
 90
     1153
 91
        4
280
     0
281
     0
  0
CLASS
  1
SUN
  2
AcDbSun
  3
SCENEOE
 90
     1024
 91
        4
280
     0
281
     0
  0
ENDSEC
  0
SECTION
  2
TABLES
  0
TABLE
  2
VPORT
  5
8
330
0
100
AcDbSymbolTable
 70
     1
  0
VPORT
  5
29
330
8
100
AcDbSymbolTableRecord
100
AcDbViewportTableRecord
  2
*Active
 70
     0
 10
0.0
 20
0.0
 11
1.0
 21
1.0
 12
0.0
 22
0.0
 13
0.0
 23
0.0
 14
0.5
 24
0.5
 15
0.5
 25
0.5
 16
0.0
 26
0.0
 36
1.0
 17
959.99999976
 27
539.999999865
 37
0.0
 40
1079.99999973
 41
1.777777777777778
 42
50.0
 43
0.0
 44
0.0
 50
0.0
 51
0.0
 71
     0
 72
   100
 73
     1
 74
     3
 75
     0
 76
     0
 77
     0
 78
     0
281
     0
 65
     1
110
0.0
120
0.0
130
0.0
111
1.0
121
0.0
131
0.0
112
0.0
122
1.0
132
0.0
 79
     0
146
0.0
 60
     3
 61
     5
292
     1
282
     1
141
0.0
142
0.0
 63
   250
361
3F
  0
ENDTAB
  0
TABLE
  2
LTYPE
  5
5
330
0
100
AcDbSymbolTable
 70
     1
  0
LTYPE
  5
14
330
5
100
AcDbSymbolTableRecord
100
AcDbLinetypeTableRecord
  2
ByBlock
 70
     0
  3

 72
    65
 73
     0
 40
0.0
  0
LTYPE
  5
15
330
5
100
AcDbSymbolTableRecord
100
AcDbLinetypeTableRecord
  2
ByLayer
 70
     0
  3

 72
    65
 73
     0
 40
0.0
  0
LTYPE
  5
16
330
5
100
AcDbSymbolTableRecord
100
AcDbLinetypeTableRecord
  2
Continuous
 70
     0
  3
Solid line
 72
    65
 73
     0
 40
0.0
  0
ENDTAB
  0
TABLE
  2
LAYER
  5
2
330
0
100
AcDbSymbolTable
 70
     1
  0
LAYER
  5
10
330
2
100
AcDbSymbolTableRecord
100
AcDbLayerTableRecord
  2
0
 70
     0
 62
     7
  6
Continuous
370
    -3
390
F
347
3E
  0
ENDTAB
  0
TABLE
  2
STYLE
  5
3
330
0
100
AcDbSymbolTable
 70
     1
  0
STYLE
  5
11
330
3
100
AcDbSymbolTableRecord
100
AcDbTextStyleTableRecord
  2
Standard
 70
     0
 40
0.0
 41
1.0
 50
0.0
 71
     0
 42
0.2
  3
txt
  4

  0
ENDTAB
  0
TABLE
  2
VIEW
  5
6
330
0
100
AcDbSymbolTable
 70
     0
  0
ENDTAB
  0
TABLE
  2
UCS
  5
7
330
0
100
AcDbSymbolTable
 70
     0
  0
ENDTAB
  0
TABLE
  2
APPID
  5
9
330
0
100
AcDbSymbolTable
 70
     1
  0
APPID
  5
12
330
9
100
AcDbSymbolTableRecord
100
AcDbRegAppTableRecord
  2
ACAD
 70
     0
  0
ENDTAB
  0
TABLE
  2
DIMSTYLE
  5
A
330
0
100
AcDbSymbolTable
 70
     1
100
AcDbDimStyleTable
  0
DIMSTYLE
105
27
330
A
100
AcDbSymbolTableRecord
100
AcDbDimStyleTableRecord
  2
Standard
 70
     0
178
     0
340
11
  0
ENDTAB
  0
TABLE
  2
BLOCK_RECORD
  5
1
330
0
100
AcDbSymbolTable
 70
    12
  0
BLOCK_RECORD
  5
1F
330
1
100
AcDbSymbolTableRecord
100
AcDbBlockTableRecord
  2
*Model_Space
340
22
 70
     0
280
     1
281
     0
  0
BLOCK_RECORD
  5
1B
330
1
100
AcDbSymbolTableRecord
100
AcDbBlockTableRecord
  2
*Paper_Space
340
1E
 70
     0
280
     1
281
     0
  0
BLOCK_RECORD
  5
23
330
1
100
AcDbSymbolTableRecord
100
AcDbBlockTableRecord
  2
*Paper_Space0
340
26
 70
     0
280
     1
281
     0
  0
BLOCK_RECORD
  5
40
330
1
100
AcDbSymbolTableRecord
100
AcDbBlockTableRecord
  2
block 2
340
0
102
{BLKREFS
331
41
102
}
 70
     0
280
     1
281
     0
  0
BLOCK_RECORD
  5
45
330
1
100
AcDbSymbolTableRecord
100
AcDbBlockTableRecord
  2
block 3
340
0
102
{BLKREFS
331
46
102
}
 70
     0
280
     1
281
     0
  0
BLOCK_RECORD
  5
50
330
1
100
AcDbSymbolTableRecord
100
AcDbBlockTableRecord
  2
block 4
340
0
102
{BLKREFS
331
51
102
}
 70
     0
280
     1
281
     0
  0
BLOCK_RECORD
  5
55
330
1
100
AcDbSymbolTableRecord
100
AcDbBlockTableRecord
  2
block 5
340
0
102
{BLKREFS
331
56
102
}
 70
     0
280
     1
281
     0
  0
BLOCK_RECORD
  5
5A
330
1
100
AcDbSymbolTableRecord
100
AcDbBlockTableRecord
  2
block 6
340
0
102
{BLKREFS
331
5B
102
}
 70
     0
280
     1
281
     0
  0
BLOCK_RECORD
  5
5F
330
1
100
AcDbSymbolTableRecord
100
AcDbBlockTableRecord
  2
block 7
340
0
102
{BLKREFS
331
60
102
}
 70
     0
280
     1
281
     0
  0
BLOCK_RECORD
  5
64
330
1
100
AcDbSymbolTableRecord
100
AcDbBlockTableRecord
  2
block 8
340
0
102
{BLKREFS
331
65
102
}
 70
     0
280
     1
281
     0
  0
BLOCK_RECORD
  5
69
330
1
100
AcDbSymbolTableRecord
100
AcDbBlockTableRecord
  2
block 9
340
0
102
{BLKREFS
331
6A
102
}
 70
     0
280
     1
281
     0
  0
BLOCK_RECORD
  5
6E
330
1
100
AcDbSymbolTableRecord
100
AcDbBlockTableRecord
  2
block 10
340
0
102
{BLKREFS
331
6F
102
}
 70
     0
280
     1
281
     0
  0
BLOCK_RECORD
  5
73
330
1
100
AcDbSymbolTableRecord
100
AcDbBlockTableRecord
  2
block 11
340
0
102
{BLKREFS
331
74
102
}
 70
     0
280
     1
281
     0
  0
BLOCK_RECORD
  5
78
330
1
100
AcDbSymbolTableRecord
100
AcDbBlockTableRecord
  2
block 12
340
0
102
{BLKREFS
331
79
102
}
 70
     0
280
     1
281
     0
  0
ENDTAB
  0
ENDSEC
  0
SECTION
  2
BLOCKS
  0
BLOCK
  5
20
330
1F
100
AcDbEntity
  8
0
100
AcDbBlockBegin
  2
*Model_Space
 70
     0
 10
0.0
 20
0.0
 30
0.0
  3
*Model_Space
  1

  0
ENDBLK
  5
21
330
1F
100
AcDbEntity
  8
0
100
AcDbBlockEnd
  0
BLOCK
  5
1C
330
1B
100
AcDbEntity
 67
     1
  8
0
100
AcDbBlockBegin
  2
*Paper_Space
 70
     0
 10
0.0
 20
0.0
 30
0.0
  3
*Paper_Space
  1

  0
ENDBLK
  5
1D
330
1B
100
AcDbEntity
 67
     1
  8
0
100
AcDbBlockEnd
  0
BLOCK
  5
24
330
23
100
AcDbEntity
  8
0
100
AcDbBlockBegin
  2
*Paper_Space0
 70
     0
 10
0.0
 20
0.0
 30
0.0
  3
*Paper_Space0
  1

  0
ENDBLK
  5
25
330
23
100
AcDbEntity
  8
0
100
AcDbBlockEnd
  0
BLOCK
  5
42
330
40
100
AcDbEntity
  8
0
100
AcDbBlockBegin
  2
block 2
 70
     0
 10
0.0
 20
0.0
 30
0.0
  3
block 2
  1

  0
SPLINE
  5
44
330
40
100
AcDbEntity
  8
0
 62
     7
420
 16777215
370
    25
100
AcDbSpline
210
0.0
220
0.0
230
1.0
 70
    11
 71
     3
 72
    29
 73
    25
 74
     0
 42
0.0000000001
 43
0.0000000001
 12
1.0
 22
0.0
 32
0.0
 13
1.0
 23
0.0
 33
0.0
 40
0.0
 40
0.0
 40
0.0
 40
0.0
 40
1.0
 40
1.0
 40
1.0
 40
2.0
 40
2.0
 40
2.0
 40
3.0
 40
3.0
 40
3.0
 40
4.0
 40
4.0
 40
4.0
 40
5.0
 40
5.0
 40
5.0
 40
6.0
 40
6.0
 40
6.0
 40
7.0
 40
7.0
 40
7.0
 40
8.0
 40
8.0
 40
8.0
 40
8.0
 10
1119.988438054323
 20
484.2155948103007
 30
0.0
 10
1119.988438054323
 20
481.4541710618367
 30
0.0
 10
1117.749861804037
 20
479.2155948115507
 30
0.0
 10
1114.988438055572
 20
479.2155948115507
 30
0.0
 10
1114.988438055572
 20
479.2155948115507
 30
0.0
 10
805.0115614644275
 20
479.2155948115507
 30
0.0
 10
805.0115614644275
 20
479.2155948115507
 30
0.0
 10
802.2501377159634
 20
479.2155948115507
 30
0.0
 10
800.0115614656775
 20
481.4541710618367
 30
0.0
 10
800.0115614656775
 20
484.2155948103007
 30
0.0
 10
800.0115614656775
 20
484.2155948103007
 30
0.0
 10
800.0115614656775
 20
595.7844049196992
 30
0.0
 10
800.0115614656775
 20
595.7844049196992
 30
0.0
 10
800.0115614656775
 20
598.5458286681633
 30
0.0
 10
802.2501377159634
 20
600.7844049184492
 30
0.0
 10
805.0115614644275
 20
600.7844049184492
 30
0.0
 10
805.0115614644275
 20
600.7844049184492
 30
0.0
 10
1114.988438055572
 20
600.7844049184492
 30
0.0
 10
1114.988438055572
 20
600.7844049184492
 30
0.0
 10
1117.749861804037
 20
600.7844049184492
 30
0.0
 10
1119.988438054323
 20
598.5458286681633
 30
0.0
 10
1119.988438054323
 20
595.7844049196992
 30
0.0
 10
1119.988438054323
 20
595.7844049196992
 30
0.0
 10
1119.988438054323
 20
484.2155948103007
 30
0.0
 10
1119.988438054323
 20
484.2155948103007
 30
0.0
  0
ENDBLK
  5
43
330
40
100
AcDbEntity
  8
0
100
AcDbBlockEnd
  0
BLOCK
  5
47
330
45
100
AcDbEntity
  8
0
100
AcDbBlockBegin
  2
block 3
 70
     0
 10
0.0
 20
0.0
 30
0.0
  3
block 3
  1

  0
POLYLINE
  5
49
330
45
100
AcDbEntity
  8
0
 62
     7
420
 16777215
370
    25
100
AcDb2dPolyline
 66
     1
 10
0.0
 20
0.0
 30
0.0
  0
VERTEX
  5
4A
330
49
100
AcDbEntity
  8
0
 62
     7
420
 16777215
370
    25
100
AcDbVertex
100
AcDb2dVertex
 10
805.5365614642958
 20
486.7405948096691
 30
0.0
  0
VERTEX
  5
4B
330
49
100
AcDbEntity
  8
0
 62
     7
420
 16777215
370
    25
100
AcDbVertex
100
AcDb2dVertex
 10
1114.463438055704
 20
486.7405948096691
 30
0.0
  0
VERTEX
  5
4C
330
49
100
AcDbEntity
  8
0
 62
     7
420
 16777215
370
    25
100
AcDbVertex
100
AcDb2dVertex
 10
1114.463438055704
 20
593.2594049203309
 30
0.0
  0
VERTEX
  5
4D
330
49
100
AcDbEntity
  8
0
 62
     7
420
 16777215
370
    25
100
AcDbVertex
100
AcDb2dVertex
 10
805.5365614642958
 20
593.2594049203309
 30
0.0
  0
VERTEX
  5
4E
330
49
100
AcDbEntity
  8
0
 62
     7
420
 16777215
370
    25
100
AcDbVertex
100
AcDb2dVertex
 10
805.5365614642958
 20
486.7405948096691
 30
0.0
  0
SEQEND
  5
4F
330
49
100
AcDbEntity
  8
0
 62
     7
420
 16777215
370
    25
  0
ENDBLK
  5
48
330
45
100
AcDbEntity
  8
0
100
AcDbBlockEnd
  0
BLOCK
  5
52
330
50
100
AcDbEntity
  8
0
100
AcDbBlockBegin
  2
block 4
 70
     0
 10
0.0
 20
0.0
 30
0.0
  3
block 4
  1

  0
SPLINE
  5
54
330
50
100
AcDbEntity
  8
0
 62
     7
420
 16777215
370
    25
100
AcDbSpline
210
0.0
220
0.0
230
1.0
 70
    11
 71
     3
 72
    20
 73
    16
 74
     0
 42
0.0000000001
 43
0.0000000001
 12
1.0
 22
0.0
 32
0.0
 13
1.0
 23
0.0
 33
0.0
 40
0.0
 40
0.0
 40
0.0
 40
0.0
 40
1.0
 40
1.0
 40
1.0
 40
2.0
 40
2.0
 40
2.0
 40
3.0
 40
3.0
 40
3.0
 40
4.0
 40
4.0
 40
4.0
 40
5.0
 40
5.0
 40
5.0
 40
5.0
 10
905.4557806064761
 20
483.7405948104191
 30
0.0
 10
905.4557806064761
 20
484.5966361724432
 30
0.0
 10
906.1497392440646
 20
485.2905948100327
 30
0.0
 10
907.0057806060887
 20
485.2905948100327
 30
0.0
 10
907.8618219681119
 20
485.2905948100327
 30
0.0
 10
908.5557806057005
 20
484.5966361724432
 30
0.0
 10
908.5557806057014
 20
483.7405948104191
 30
0.0
 10
908.5557806057005
 20
482.884553448395
 30
0.0
 10
907.8618219681119
 20
482.1905948108073
 30
0.0
 10
907.0057806060887
 20
482.1905948108073
 30
0.0
 10
906.1497392440646
 20
482.1905948108073
 30
0.0
 10
905.4557806064761
 20
482.884553448395
 30
0.0
 10
905.4557806064761
 20
483.7405948104191
 30
0.0
 10
905.4557806064761
 20
483.7405948104191
 30
0.0
 10
905.4557806064761
 20
483.7405948104191
 30
0.0
 10
905.4557806064761
 20
483.7405948104191
 30
0.0
  0
ENDBLK
  5
53
330
50
100
AcDbEntity
  8
0
100
AcDbBlockEnd
  0
BLOCK
  5
57
330
55
100
AcDbEntity
  8
0
100
AcDbBlockBegin
  2
block 5
 70
     0
 10
0.0
 20
0.0
 30
0.0
  3
block 5
  1

  0
SPLINE
  5
59
330
55
100
AcDbEntity
  8
0
 62
     7
420
 16777215
370
    25
100
AcDbSpline
210
0.0
220
0.0
230
1.0
 70
    11
 71
     3
 72
    20
 73
    16
 74
     0
 42
0.0000000001
 43
0.0000000001
 12
1.0
 22
0.0
 32
0.0
 13
1.0
 23
0.0
 33
0.0
 40
0.0
 40
0.0
 40
0.0
 40
0.0
 40
1.0
 40
1.0
 40
1.0
 40
2.0
 40
2.0
 40
2.0
 40
3.0
 40
3.0
 40
3.0
 40
4.0
 40
4.0
 40
4.0
 40
5.0
 40
5.0
 40
5.0
 40
5.0
 10
1011.444218914299
 20
596.2594049195809
 30
0.0
 10
1011.444218914299
 20
597.1154462816049
 30
0.0
 10
1012.138177551887
 20
597.8094049191935
 30
0.0
 10
1012.994218913911
 20
597.8094049191935
 30
0.0
 10
1013.850260275935
 20
597.8094049191935
 30
0.0
 10
1014.544218913523
 20
597.1154462816049
 30
0.0
 10
1014.544218913523
 20
596.2594049195809
 30
0.0
 10
1014.544218913523
 20
595.4033635575568
 30
0.0
 10
1013.850260275935
 20
594.7094049199682
 30
0.0
 10
1012.994218913911
 20
594.7094049199682
 30
0.0
 10
1012.138177551887
 20
594.7094049199682
 30
0.0
 10
1011.444218914299
 20
595.4033635575568
 30
0.0
 10
1011.444218914299
 20
596.2594049195809
 30
0.0
 10
1011.444218914299
 20
596.2594049195809
 30
0.0
 10
1011.444218914299
 20
596.2594049195809
 30
0.0
 10
1011.444218914299
 20
596.2594049195809
 30
0.0
  0
ENDBLK
  5
58
330
55
100
AcDbEntity
  8
0
100
AcDbBlockEnd
  0
BLOCK
  5
5C
330
5A
100
AcDbEntity
  8
0
100
AcDbBlockBegin
  2
block 6
 70
     0
 10
0.0
 20
0.0
 30
0.0
  3
block 6
  1

  0
SPLINE
  5
5E
330
5A
100
AcDbEntity
  8
0
 62
     7
420
 16777215
370
    25
100
AcDbSpline
210
0.0
220
0.0
230
1.0
 70
    11
 71
     3
 72
    20
 73
    16
 74
     0
 42
0.0000000001
 43
0.0000000001
 12
1.0
 22
0.0
 32
0.0
 13
1.0
 23
0.0
 33
0.0
 40
0.0
 40
0.0
 40
0.0
 40
0.0
 40
1.0
 40
1.0
 40
1.0
 40
2.0
 40
2.0
 40
2.0
 40
3.0
 40
3.0
 40
3.0
 40
4.0
 40
4.0
 40
4.0
 40
5.0
 40
5.0
 40
5.0
 40
5.0
 10
905.4557806064761
 20
596.2594049195809
 30
0.0
 10
905.4557806064761
 20
597.1154462816049
 30
0.0
 10
906.1497392440646
 20
597.8094049191935
 30
0.0
 10
907.0057806060887
 20
597.8094049191935
 30
0.0
 10
907.8618219681119
 20
597.8094049191935
 30
0.0
 10
908.5557806057005
 20
597.1154462816049
 30
0.0
 10
908.5557806057014
 20
596.2594049195809
 30
0.0
 10
908.5557806057005
 20
595.4033635575568
 30
0.0
 10
907.8618219681119
 20
594.7094049199682
 30
0.0
 10
907.0057806060887
 20
594.7094049199682
 30
0.0
 10
906.1497392440646
 20
594.7094049199682
 30
0.0
 10
905.4557806064761
 20
595.4033635575568
 30
0.0
 10
905.4557806064761
 20
596.2594049195809
 30
0.0
 10
905.4557806064761
 20
596.2594049195809
 30
0.0
 10
905.4557806064761
 20
596.2594049195809
 30
0.0
 10
905.4557806064761
 20
596.2594049195809
 30
0.0
  0
ENDBLK
  5
5D
330
5A
100
AcDbEntity
  8
0
100
AcDbBlockEnd
  0
BLOCK
  5
61
330
5F
100
AcDbEntity
  8
0
100
AcDbBlockBegin
  2
block 7
 70
     0
 10
0.0
 20
0.0
 30
0.0
  3
block 7
  1

  0
SPLINE
  5
63
330
5F
100
AcDbEntity
  8
0
 62
     7
420
 16777215
370
    25
100
AcDbSpline
210
0.0
220
0.0
230
1.0
 70
    11
 71
     3
 72
    20
 73
    16
 74
     0
 42
0.0000000001
 43
0.0000000001
 12
1.0
 22
0.0
 32
0.0
 13
1.0
 23
0.0
 33
0.0
 40
0.0
 40
0.0
 40
0.0
 40
0.0
 40
1.0
 40
1.0
 40
1.0
 40
2.0
 40
2.0
 40
2.0
 40
3.0
 40
3.0
 40
3.0
 40
4.0
 40
4.0
 40
4.0
 40
5.0
 40
5.0
 40
5.0
 40
5.0
 10
1011.444218914299
 20
483.7405948104191
 30
0.0
 10
1011.444218914299
 20
484.5966361724432
 30
0.0
 10
1012.138177551887
 20
485.2905948100327
 30
0.0
 10
1012.994218913911
 20
485.2905948100327
 30
0.0
 10
1013.850260275935
 20
485.2905948100327
 30
0.0
 10
1014.544218913523
 20
484.5966361724432
 30
0.0
 10
1014.544218913523
 20
483.7405948104191
 30
0.0
 10
1014.544218913523
 20
482.884553448395
 30
0.0
 10
1013.850260275935
 20
482.1905948108073
 30
0.0
 10
1012.994218913911
 20
482.1905948108073
 30
0.0
 10
1012.138177551887
 20
482.1905948108073
 30
0.0
 10
1011.444218914299
 20
482.884553448395
 30
0.0
 10
1011.444218914299
 20
483.7405948104191
 30
0.0
 10
1011.444218914299
 20
483.7405948104191
 30
0.0
 10
1011.444218914299
 20
483.7405948104191
 30
0.0
 10
1011.444218914299
 20
483.7405948104191
 30
0.0
  0
ENDBLK
  5
62
330
5F
100
AcDbEntity
  8
0
100
AcDbBlockEnd
  0
BLOCK
  5
66
330
64
100
AcDbEntity
  8
0
100
AcDbBlockBegin
  2
block 8
 70
     0
 10
0.0
 20
0.0
 30
0.0
  3
block 8
  1

  0
SPLINE
  5
68
330
64
100
AcDbEntity
  8
0
 62
     7
420
 16777215
370
    25
100
AcDbSpline
210
0.0
220
0.0
230
1.0
 70
    11
 71
     3
 72
    20
 73
    16
 74
     0
 42
0.0000000001
 43
0.0000000001
 12
1.0
 22
0.0
 32
0.0
 13
1.0
 23
0.0
 33
0.0
 40
0.0
 40
0.0
 40
0.0
 40
0.0
 40
1.0
 40
1.0
 40
1.0
 40
2.0
 40
2.0
 40
2.0
 40
3.0
 40
3.0
 40
3.0
 40
4.0
 40
4.0
 40
4.0
 40
5.0
 40
5.0
 40
5.0
 40
5.0
 10
803.9865614646832
 20
483.7405948104191
 30
0.0
 10
803.9865614646832
 20
484.5966361724432
 30
0.0
 10
804.6805201022718
 20
485.2905948100327
 30
0.0
 10
805.5365614642958
 20
485.2905948100327
 30
0.0
 10
806.39260282632
 20
485.2905948100327
 30
0.0
 10
807.0865614639085
 20
484.5966361724432
 30
0.0
 10
807.0865614639085
 20
483.7405948104191
 30
0.0
 10
807.0865614639085
 20
482.884553448395
 30
0.0
 10
806.39260282632
 20
482.1905948108073
 30
0.0
 10
805.5365614642958
 20
482.1905948108073
 30
0.0
 10
804.6805201022718
 20
482.1905948108073
 30
0.0
 10
803.9865614646832
 20
482.884553448395
 30
0.0
 10
803.9865614646832
 20
483.7405948104191
 30
0.0
 10
803.9865614646832
 20
483.7405948104191
 30
0.0
 10
803.9865614646832
 20
483.7405948104191
 30
0.0
 10
803.9865614646832
 20
483.7405948104191
 30
0.0
  0
ENDBLK
  5
67
330
64
100
AcDbEntity
  8
0
100
AcDbBlockEnd
  0
BLOCK
  5
6B
330
69
100
AcDbEntity
  8
0
100
AcDbBlockBegin
  2
block 9
 70
     0
 10
0.0
 20
0.0
 30
0.0
  3
block 9
  1

  0
SPLINE
  5
6D
330
69
100
AcDbEntity
  8
0
 62
     7
420
 16777215
370
    25
100
AcDbSpline
210
0.0
220
0.0
230
1.0
 70
    11
 71
     3
 72
    20
 73
    16
 74
     0
 42
0.0000000001
 43
0.0000000001
 12
1.0
 22
0.0
 32
0.0
 13
1.0
 23
0.0
 33
0.0
 40
0.0
 40
0.0
 40
0.0
 40
0.0
 40
1.0
 40
1.0
 40
1.0
 40
2.0
 40
2.0
 40
2.0
 40
3.0
 40
3.0
 40
3.0
 40
4.0
 40
4.0
 40
4.0
 40
5.0
 40
5.0
 40
5.0
 40
5.0
 10
1112.913438056091
 20
596.2594049195809
 30
0.0
 10
1112.913438056091
 20
597.1154462816049
 30
0.0
 10
1113.60739669368
 20
597.8094049191935
 30
0.0
 10
1114.463438055704
 20
597.8094049191935
 30
0.0
 10
1115.319479417728
 20
597.8094049191935
 30
0.0
 10
1116.013438055316
 20
597.1154462816049
 30
0.0
 10
1116.013438055316
 20
596.2594049195809
 30
0.0
 10
1116.013438055316
 20
595.4033635575568
 30
0.0
 10
1115.319479417728
 20
594.7094049199682
 30
0.0
 10
1114.463438055704
 20
594.7094049199682
 30
0.0
 10
1113.60739669368
 20
594.7094049199682
 30
0.0
 10
1112.913438056091
 20
595.4033635575568
 30
0.0
 10
1112.913438056091
 20
596.2594049195809
 30
0.0
 10
1112.913438056091
 20
596.2594049195809
 30
0.0
 10
1112.913438056091
 20
596.2594049195809
 30
0.0
 10
1112.913438056091
 20
596.2594049195809
 30
0.0
  0
ENDBLK
  5
6C
330
69
100
AcDbEntity
  8
0
100
AcDbBlockEnd
  0
BLOCK
  5
70
330
6E
100
AcDbEntity
  8
0
100
AcDbBlockBegin
  2
block 10
 70
     0
 10
0.0
 20
0.0
 30
0.0
  3
block 10
  1

  0
SPLINE
  5
72
330
6E
100
AcDbEntity
  8
0
 62
     7
420
 16777215
370
    25
100
AcDbSpline
210
0.0
220
0.0
230
1.0
 70
    11
 71
     3
 72
    20
 73
    16
 74
     0
 42
0.0000000001
 43
0.0000000001
 12
1.0
 22
0.0
 32
0.0
 13
1.0
 23
0.0
 33
0.0
 40
0.0
 40
0.0
 40
0.0
 40
0.0
 40
1.0
 40
1.0
 40
1.0
 40
2.0
 40
2.0
 40
2.0
 40
3.0
 40
3.0
 40
3.0
 40
4.0
 40
4.0
 40
4.0
 40
5.0
 40
5.0
 40
5.0
 40
5.0
 10
803.9865614646832
 20
596.2594049195809
 30
0.0
 10
803.9865614646832
 20
597.1154462816049
 30
0.0
 10
804.6805201022718
 20
597.8094049191935
 30
0.0
 10
805.5365614642958
 20
597.8094049191935
 30
0.0
 10
806.39260282632
 20
597.8094049191935
 30
0.0
 10
807.0865614639085
 20
597.1154462816049
 30
0.0
 10
807.0865614639085
 20
596.2594049195809
 30
0.0
 10
807.0865614639085
 20
595.4033635575568
 30
0.0
 10
806.39260282632
 20
594.7094049199682
 30
0.0
 10
805.5365614642958
 20
594.7094049199682
 30
0.0
 10
804.6805201022718
 20
594.7094049199682
 30
0.0
 10
803.9865614646832
 20
595.4033635575568
 30
0.0
 10
803.9865614646832
 20
596.2594049195809
 30
0.0
 10
803.9865614646832
 20
596.2594049195809
 30
0.0
 10
803.9865614646832
 20
596.2594049195809
 30
0.0
 10
803.9865614646832
 20
596.2594049195809
 30
0.0
  0
ENDBLK
  5
71
330
6E
100
AcDbEntity
  8
0
100
AcDbBlockEnd
  0
BLOCK
  5
75
330
73
100
AcDbEntity
  8
0
100
AcDbBlockBegin
  2
block 11
 70
     0
 10
0.0
 20
0.0
 30
0.0
  3
block 11
  1

  0
SPLINE
  5
77
330
73
100
AcDbEntity
  8
0
 62
     7
420
 16777215
370
    25
100
AcDbSpline
210
0.0
220
0.0
230
1.0
 70
    11
 71
     3
 72
    20
 73
    16
 74
     0
 42
0.0000000001
 43
0.0000000001
 12
1.0
 22
0.0
 32
0.0
 13
1.0
 23
0.0
 33
0.0
 40
0.0
 40
0.0
 40
0.0
 40
0.0
 40
1.0
 40
1.0
 40
1.0
 40
2.0
 40
2.0
 40
2.0
 40
3.0
 40
3.0
 40
3.0
 40
4.0
 40
4.0
 40
4.0
 40
5.0
 40
5.0
 40
5.0
 40
5.0
 10
1112.913438056091
 20
483.7405948104191
 30
0.0
 10
1112.913438056091
 20
484.5966361724432
 30
0.0
 10
1113.60739669368
 20
485.2905948100327
 30
0.0
 10
1114.463438055704
 20
485.2905948100327
 30
0.0
 10
1115.319479417728
 20
485.2905948100327
 30
0.0
 10
1116.013438055316
 20
484.5966361724432
 30
0.0
 10
1116.013438055316
 20
483.7405948104191
 30
0.0
 10
1116.013438055316
 20
482.884553448395
 30
0.0
 10
1115.319479417728
 20
482.1905948108073
 30
0.0
 10
1114.463438055704
 20
482.1905948108073
 30
0.0
 10
1113.60739669368
 20
482.1905948108073
 30
0.0
 10
1112.913438056091
 20
482.884553448395
 30
0.0
 10
1112.913438056091
 20
483.7405948104191
 30
0.0
 10
1112.913438056091
 20
483.7405948104191
 30
0.0
 10
1112.913438056091
 20
483.7405948104191
 30
0.0
 10
1112.913438056091
 20
483.7405948104191
 30
0.0
  0
ENDBLK
  5
76
330
73
100
AcDbEntity
  8
0
100
AcDbBlockEnd
  0
BLOCK
  5
7A
330
78
100
AcDbEntity
  8
0
100
AcDbBlockBegin
  2
block 12
 70
     0
 10
0.0
 20
0.0
 30
0.0
  3
block 12
  1

  0
POLYLINE
  5
7C
330
78
100
AcDbEntity
  8
0
 62
   240
420
 15539236
370
    35
100
AcDb2dPolyline
 66
     1
 10
0.0
 20
0.0
 30
0.0
  0
VERTEX
  5
7D
330
7C
100
AcDbEntity
  8
0
 62
   240
420
 15539236
370
    35
100
AcDbVertex
100
AcDb2dVertex
 10
811.4707029221323
 20
607.0240383200667
 30
0.0
  0
VERTEX
  5
7E
330
7C
100
AcDbEntity
  8
0
 62
   240
420
 15539236
370
    35
100
AcDbVertex
100
AcDb2dVertex
 10
811.4707029221323
 20
615.6138820679192
 30
0.0
  0
VERTEX
  5
7F
330
7C
100
AcDbEntity
  8
0
 62
   240
420
 15539236
370
    35
100
AcDbVertex
100
AcDb2dVertex
 10
812.6074216718481
 20
615.6138820679192
 30
0.0
  0
VERTEX
  5
80
330
7C
100
AcDbEntity
  8
0
 62
   240
420
 15539236
370
    35
100
AcDbVertex
100
AcDb2dVertex
 10
812.6074216718481
 20
608.0377101948133
 30
0.0
  0
VERTEX
  5
81
330
7C
100
AcDbEntity
  8
0
 62
   240
420
 15539236
370
    35
100
AcDbVertex
100
AcDb2dVertex
 10
816.8378904207905
 20
608.0377101948133
 30
0.0
  0
VERTEX
  5
82
330
7C
100
AcDbEntity
  8
0
 62
   240
420
 15539236
370
    35
100
AcDbVertex
100
AcDb2dVertex
 10
816.8378904207905
 20
607.0240383200667
 30
0.0
  0
VERTEX
  5
83
330
7C
100
AcDbEntity
  8
0
 62
   240
420
 15539236
370
    35
100
AcDbVertex
100
AcDb2dVertex
 10
811.4707029221323
 20
607.0240383200667
 30
0.0
  0
SEQEND
  5
84
330
7C
100
AcDbEntity
  8
0
 62
   240
420
 15539236
370
    35
  0
HATCH
  5
85
330
78
100
AcDbEntity
  8
0
 62
   240
420
 15539236
100
AcDbHatch
 10
0.0
 20
0.0
 30
0.0
210
0.0
220
0.0
230
1.0
  2
SOLID
 70
     1
 71
     0
 91
        1
 92
        1
 93
        6
 72
     1
 10
811.4707029221323
 20
607.0240383200667
 11
811.4707029221323
 21
615.6138820679192
 72
     1
 10
811.4707029221323
 20
615.6138820679192
 11
812.6074216718481
 21
615.6138820679192
 72
     1
 10
812.6074216718481
 20
615.6138820679192
 11
812.6074216718481
 21
608.0377101948133
 72
     1
 10
812.6074216718481
 20
608.0377101948133
 11
816.8378904207905
 21
608.0377101948133
 72
     1
 10
816.8378904207905
 20
608.0377101948133
 11
816.8378904207905
 21
607.0240383200667
 72
     1
 10
816.8378904207905
 20
607.0240383200667
 11
811.4707029221323
 21
607.0240383200667
 97
        0
 75
     2
 76
     1
 98
        0
  0
POLYLINE
  5
86
330
78
100
AcDbEntity
  8
0
 62
   240
420
 15539236
370
    35
100
AcDb2dPolyline
 66
     1
 10
0.0
 20
0.0
 30
0.0
  0
VERTEX
  5
87
330
86
100
AcDbEntity
  8
0
 62
   240
420
 15539236
370
    35
100
AcDbVertex
100
AcDb2dVertex
 10
821.1445310447139
 20
607.0240383200667
 30
0.0
  0
VERTEX
  5
88
330
86
100
AcDbEntity
  8
0
 62
   240
420
 15539236
370
    35
100
AcDbVertex
100
AcDb2dVertex
 10
821.1445310447139
 20
609.0806789445525
 30
0.0
  0
VERTEX
  5
89
330
86
100
AcDbEntity
  8
0
 62
   240
420
 15539236
370
    35
100
AcDbVertex
100
AcDb2dVertex
 10
817.4179685456455
 20
609.0806789445525
 30
0.0
  0
VERTEX
  5
8A
330
86
100
AcDbEntity
  8
0
 62
   240
420
 15539236
370
    35
100
AcDbVertex
100
AcDb2dVertex
 10
817.4179685456455
 20
610.0474758193108
 30
0.0
  0
VERTEX
  5
8B
330
86
100
AcDbEntity
  8
0
 62
   240
420
 15539236
370
    35
100
AcDbVertex
100
AcDb2dVertex
 10
821.3378904196655
 20
615.6138820679192
 30
0.0
  0
VERTEX
  5
8C
330
86
100
AcDbEntity
  8
0
 62
   240
420
 15539236
370
    35
100
AcDbVertex
100
AcDb2dVertex
 10
822.1992185444502
 20
615.6138820679192
 30
0.0
  0
VERTEX
  5
8D
330
86
100
AcDbEntity
  8
0
 62
   240
420
 15539236
370
    35
100
AcDbVertex
100
AcDb2dVertex
 10
822.1992185444502
 20
610.0474758193108
 30
0.0
  0
VERTEX
  5
8E
330
86
100
AcDbEntity
  8
0
 62
   240
420
 15539236
370
    35
100
AcDbVertex
100
AcDb2dVertex
 10
823.3593747941601
 20
610.0474758193108
 30
0.0
  0
VERTEX
  5
8F
330
86
100
AcDbEntity
  8
0
 62
   240
420
 15539236
370
    35
100
AcDbVertex
100
AcDb2dVertex
 10
823.3593747941601
 20
609.0806789445525
 30
0.0
  0
VERTEX
  5
90
330
86
100
AcDbEntity
  8
0
 62
   240
420
 15539236
370
    35
100
AcDbVertex
100
AcDb2dVertex
 10
822.1992185444502
 20
609.0806789445525
 30
0.0
  0
VERTEX
  5
91
330
86
100
AcDbEntity
  8
0
 62
   240
420
 15539236
370
    35
100
AcDbVertex
100
AcDb2dVertex
 10
822.1992185444502
 20
607.0240383200667
 30
0.0
  0
VERTEX
  5
92
330
86
100
AcDbEntity
  8
0
 62
   240
420
 15539236
370
    35
100
AcDbVertex
100
AcDb2dVertex
 10
821.1445310447139
 20
607.0240383200667
 30
0.0
  0
SEQEND
  5
93
330
86
100
AcDbEntity
  8
0
 62
   240
420
 15539236
370
    35
  0
POLYLINE
  5
94
330
78
100
AcDbEntity
  8
0
 62
   240
420
 15539236
370
    35
100
AcDb2dPolyline
 66
     1
 10
0.0
 20
0.0
 30
0.0
  0
VERTEX
  5
95
330
94
100
AcDbEntity
  8
0
 62
   240
420
 15539236
370
    35
100
AcDbVertex
100
AcDb2dVertex
 10
821.1445310447139
 20
610.0474758193108
 30
0.0
  0
VERTEX
  5
96
330
94
100
AcDbEntity
  8
0
 62
   240
420
 15539236
370
    35
100
AcDbVertex
100
AcDb2dVertex
 10
821.1445310447139
 20
613.9205226933425
 30
0.0
  0
VERTEX
  5
97
330
94
100
AcDbEntity
  8
0
 62
   240
420
 15539236
370
    35
100
AcDbVertex
100
AcDb2dVertex
 10
818.4550779203862
 20
610.0474758193108
 30
0.0
  0
VERTEX
  5
98
330
94
100
AcDbEntity
  8
0
 62
   240
420
 15539236
370
    35
100
AcDbVertex
100
AcDb2dVertex
 10
821.1445310447139
 20
610.0474758193108
 30
0.0
  0
SEQEND
  5
99
330
94
100
AcDbEntity
  8
0
 62
   240
420
 15539236
370
    35
  0
HATCH
  5
9A
330
78
100
AcDbEntity
  8
0
 62
   240
420
 15539236
100
AcDbHatch
 10
0.0
 20
0.0
 30
0.0
210
0.0
220
0.0
230
1.0
  2
SOLID
 70
     1
 71
     0
 91
        2
 92
        1
 93
       11
 72
     1
 10
821.1445310447139
 20
607.0240383200667
 11
821.1445310447139
 21
609.0806789445525
 72
     1
 10
821.1445310447139
 20
609.0806789445525
 11
817.4179685456455
 21
609.0806789445525
 72
     1
 10
817.4179685456455
 20
609.0806789445525
 11
817.4179685456455
 21
610.0474758193108
 72
     1
 10
817.4179685456455
 20
610.0474758193108
 11
821.3378904196655
 21
615.6138820679192
 72
     1
 10
821.3378904196655
 20
615.6138820679192
 11
822.1992185444502
 21
615.6138820679192
 72
     1
 10
822.1992185444502
 20
615.6138820679192
 11
822.1992185444502
 21
610.0474758193108
 72
     1
 10
822.1992185444502
 20
610.0474758193108
 11
823.3593747941601
 21
610.0474758193108
 72
     1
 10
823.3593747941601
 20
610.0474758193108
 11
823.3593747941601
 21
609.0806789445525
 72
     1
 10
823.3593747941601
 20
609.0806789445525
 11
822.1992185444502
 21
609.0806789445525
 72
     1
 10
822.1992185444502
 20
609.0806789445525
 11
822.1992185444502
 21
607.0240383200667
 72
     1
 10
822.1992185444502
 20
607.0240383200667
 11
821.1445310447139
 21
607.0240383200667
 97
        0
 92
        1
 93
        3
 72
     1
 10
821.1445310447139
 20
610.0474758193108
 11
821.1445310447139
 21
613.9205226933425
 72
     1
 10
821.1445310447139
 20
613.9205226933425
 11
818.4550779203862
 21
610.0474758193108
 72
     1
 10
818.4550779203862
 20
610.0474758193108
 11
821.1445310447139
 21
610.0474758193108
 97
        0
 75
     2
 76
     1
 98
        0
  0
SPLINE
  5
9B
330
78
100
AcDbEntity
  8
0
 62
   240
420
 15539236
370
    35
100
AcDbSpline
210
0.0
220
0.0
230
1.0
 70
    11
 71
     3
 72
   110
 73
   106
 74
     0
 42
0.0000000001
 43
0.0000000001
 12
1.0
 22
0.0
 32
0.0
 13
1.0
 23
0.0
 33
0.0
 40
0.0
 40
0.0
 40
0.0
 40
0.0
 40
1.0
 40
1.0
 40
1.0
 40
2.0
 40
2.0
 40
2.0
 40
3.0
 40
3.0
 40
3.0
 40
4.0
 40
4.0
 40
4.0
 40
5.0
 40
5.0
 40
5.0
 40
6.0
 40
6.0
 40
6.0
 40
7.0
 40
7.0
 40
7.0
 40
8.0
 40
8.0
 40
8.0
 40
9.0
 40
9.0
 40
9.0
 40
10.0
 40
10.0
 40
10.0
 40
11.0
 40
11.0
 40
11.0
 40
12.0
 40
12.0
 40
12.0
 40
13.0
 40
13.0
 40
13.0
 40
14.0
 40
14.0
 40
14.0
 40
15.0
 40
15.0
 40
15.0
 40
16.0
 40
16.0
 40
16.0
 40
17.0
 40
17.0
 40
17.0
 40
18.0
 40
18.0
 40
18.0
 40
19.0
 40
19.0
 40
19.0
 40
20.0
 40
20.0
 40
20.0
 40
21.0
 40
21.0
 40
21.0
 40
22.0
 40
22.0
 40
22.0
 40
23.0
 40
23.0
 40
23.0
 40
24.0
 40
24.0
 40
24.0
 40
25.0
 40
25.0
 40
25.0
 40
26.0
 40
26.0
 40
26.0
 40
27.0
 40
27.0
 40
27.0
 40
28.0
 40
28.0
 40
28.0
 40
29.0
 40
29.0
 40
29.0
 40
30.0
 40
30.0
 40
30.0
 40
31.0
 40
31.0
 40
31.0
 40
32.0
 40
32.0
 40
32.0
 40
33.0
 40
33.0
 40
33.0
 40
34.0
 40
34.0
 40
34.0
 40
35.0
 40
35.0
 40
35.0
 40
35.0
 10
827.8124997930469
 20
609.7838039443767
 30
0.0
 10
827.8124997930469
 20
609.7838039443767
 30
0.0
 10
828.8847654177788
 20
609.8775539443533
 30
0.0
 10
828.8847654177788
 20
609.8775539443533
 30
0.0
 10
828.9355466677661
 20
609.4478664444607
 30
0.0
 10
829.0537107302365
 20
609.0953273820488
 30
0.0
 10
829.2392576051901
 20
608.8199367571177
 30
0.0
 10
829.4248044801437
 20
608.5445461321865
 30
0.0
 10
829.7128904175718
 20
608.3218898822422
 30
0.0
 10
830.1035154174741
 20
608.1519680072847
 30
0.0
 10
830.4941404173765
 20
607.9820461323271
 30
0.0
 10
830.9335935422666
 20
607.8970851948484
 30
0.0
 10
831.4218747921445
 20
607.8970851948484
 30
0.0
 10
831.8554685420361
 20
607.8970851948484
 30
0.0
 10
832.2382810419405
 20
607.9615383198322
 30
0.0
 10
832.5703122918574
 20
608.0904445698001
 30
0.0
 10
832.9023435417744
 20
608.2193508197678
 30
0.0
 10
833.1494138542126
 20
608.3961086322237
 30
0.0
 10
833.311523229172
 20
608.6207180071675
 30
0.0
 10
833.4736326041316
 20
608.8453273821113
 30
0.0
 10
833.5546872916113
 20
609.0904445695501
 30
0.0
 10
833.5546872916113
 20
609.3560695694837
 30
0.0
 10
833.5546872916113
 20
609.6256008194163
 30
0.0
 10
833.4765622916309
 20
609.8609523818574
 30
0.0
 10
833.3203122916699
 20
610.0621242568071
 30
0.0
 10
833.164062291709
 20
610.2632961317569
 30
0.0
 10
832.9062497917735
 20
610.4322414442146
 30
0.0
 10
832.5468747918633
 20
610.5689601941805
 30
0.0
 10
832.3164060419209
 20
610.658803944158
 30
0.0
 10
831.8066404170484
 20
610.7984523816231
 30
0.0
 10
831.0175779172456
 20
610.9879055065757
 30
0.0
 10
830.2285154174428
 20
611.1773586315284
 30
0.0
 10
829.6757810425811
 20
611.3560695689837
 30
0.0
 10
829.3593747926601
 20
611.5240383189416
 30
0.0
 10
828.9492185427627
 20
611.738882068888
 30
0.0
 10
828.643554480339
 20
612.0054836313213
 30
0.0
 10
828.4423826053894
 20
612.3238430062418
 30
0.0
 10
828.2412107304397
 20
612.6422023811621
 30
0.0
 10
828.1406247929648
 20
612.998647693573
 30
0.0
 10
828.1406247929648
 20
613.3931789434744
 30
0.0
 10
828.1406247929648
 20
613.826772693366
 30
0.0
 10
828.2636716679341
 20
614.2320461307646
 30
0.0
 10
828.5097654178726
 20
614.6089992556704
 30
0.0
 10
828.755859167811
 20
614.9859523805761
 30
0.0
 10
829.1152341677212
 20
615.2720851930046
 30
0.0
 10
829.587890417603
 20
615.4673976929558
 30
0.0
 10
830.0605466674848
 20
615.662710192907
 30
0.0
 10
830.5859372923535
 20
615.7603664428826
 30
0.0
 10
831.164062292209
 20
615.7603664428826
 30
0.0
 10
831.8007810420498
 20
615.7603664428826
 30
0.0
 10
832.3623044794094
 20
615.6578273804082
 30
0.0
 10
832.8486326042878
 20
615.4527492554595
 30
0.0
 10
833.3349607291663
 20
615.2476711305108
 30
0.0
 10
833.7089841665727
 20
614.9459133180862
 30
0.0
 10
833.9707029165073
 20
614.5474758181858
 30
0.0
 10
834.2324216664418
 20
614.1490383182854
 30
0.0
 10
834.3730466664067
 20
613.6978664433982
 30
0.0
 10
834.3925779164018
 20
613.1939601935242
 30
0.0
 10
834.3925779164018
 20
613.1939601935242
 30
0.0
 10
833.3027341666743
 20
613.1119289435446
 30
0.0
 10
833.3027341666743
 20
613.1119289435446
 30
0.0
 10
833.244140416689
 20
613.6548976934089
 30
0.0
 10
833.0458982292386
 20
614.0650539433065
 30
0.0
 10
832.708007604323
 20
614.3423976932371
 30
0.0
 10
832.3701169794075
 20
614.6197414431678
 30
0.0
 10
831.8710935420322
 20
614.7584133181331
 30
0.0
 10
831.2109372921973
 20
614.7584133181331
 30
0.0
 10
830.5234372923691
 20
614.7584133181331
 30
0.0
 10
830.0224607299944
 20
614.6324367556646
 30
0.0
 10
829.708007605073
 20
614.3804836307276
 30
0.0
 10
829.3935544801516
 20
614.1285305057905
 30
0.0
 10
829.2363279176909
 20
613.8248195683665
 30
0.0
 10
829.2363279176909
 20
613.4693508184554
 30
0.0
 10
829.2363279176909
 20
613.1607570685325
 30
0.0
 10
829.3476560426631
 20
612.9068508185959
 30
0.0
 10
829.5703122926074
 20
612.7076320686458
 30
0.0
 10
829.7890622925527
 20
612.5084133186956
 30
0.0
 10
830.3603513549099
 20
612.3043117562465
 30
0.0
 10
831.284179479679
 20
612.0953273812988
 30
0.0
 10
832.208007604448
 20
611.8863430063511
 30
0.0
 10
832.8417966667895
 20
611.7037258188967
 30
0.0
 10
833.1855466667035
 20
611.5474758189358
 30
0.0
 10
833.6855466665786
 20
611.3170070689935
 30
0.0
 10
834.0546872914863
 20
611.0250148815664
 30
0.0
 10
834.2929685414267
 20
610.6714992566548
 30
0.0
 10
834.5312497913671
 20
610.3179836317431
 30
0.0
 10
834.6503904163374
 20
609.910757069345
 30
0.0
 10
834.6503904163374
 20
609.4498195694603
 30
0.0
 10
834.6503904163374
 20
608.9927883195745
 30
0.0
 10
834.5195310413701
 20
608.5621242571822
 30
0.0
 10
834.2578122914356
 20
608.1578273822832
 30
0.0
 10
833.996093541501
 20
607.7535305073843
 30
0.0
 10
833.620116979095
 20
607.4390773824629
 30
0.0
 10
833.1298826042175
 20
607.214468007519
 30
0.0
 10
832.6396482293401
 20
606.9898586325752
 30
0.0
 10
832.087890416978
 20
606.8775539451033
 30
0.0
 10
831.4746091671313
 20
606.8775539451033
 30
0.0
 10
830.6972654173256
 20
606.8775539451033
 30
0.0
 10
830.0458982299886
 20
606.990835195075
 30
0.0
 10
829.5205076051199
 20
607.2173976950183
 30
0.0
 10
828.9951169802512
 20
607.4439601949616
 30
0.0
 10
828.5830076053543
 20
607.7847805073765
 30
0.0
 10
828.284179480429
 20
608.2398586322627
 30
0.0
 10
827.9853513555037
 20
608.694936757149
 30
0.0
 10
827.828124793043
 20
609.2095851945203
 30
0.0
 10
827.8124997930469
 20
609.7838039443767
 30
0.0
  0
HATCH
  5
9C
330
78
100
AcDbEntity
  8
0
 62
   240
420
 15539236
100
AcDbHatch
 10
0.0
 20
0.0
 30
0.0
210
0.0
220
0.0
230
1.0
  2
SOLID
 70
     1
 71
     0
 91
        1
 92
        1
 93
        1
 72
     4
 94
        3
 73
     0
 74
     1
 95
      110
 96
      106
 40
0.0
 40
0.0
 40
0.0
 40
0.0
 40
1.0
 40
1.0
 40
1.0
 40
2.0
 40
2.0
 40
2.0
 40
3.0
 40
3.0
 40
3.0
 40
4.0
 40
4.0
 40
4.0
 40
5.0
 40
5.0
 40
5.0
 40
6.0
 40
6.0
 40
6.0
 40
7.0
 40
7.0
 40
7.0
 40
8.0
 40
8.0
 40
8.0
 40
9.0
 40
9.0
 40
9.0
 40
10.0
 40
10.0
 40
10.0
 40
11.0
 40
11.0
 40
11.0
 40
12.0
 40
12.0
 40
12.0
 40
13.0
 40
13.0
 40
13.0
 40
14.0
 40
14.0
 40
14.0
 40
15.0
 40
15.0
 40
15.0
 40
16.0
 40
16.0
 40
16.0
 40
17.0
 40
17.0
 40
17.0
 40
18.0
 40
18.0
 40
18.0
 40
19.0
 40
19.0
 40
19.0
 40
20.0
 40
20.0
 40
20.0
 40
21.0
 40
21.0
 40
21.0
 40
22.0
 40
22.0
 40
22.0
 40
23.0
 40
23.0
 40
23.0
 40
24.0
 40
24.0
 40
24.0
 40
25.0
 40
25.0
 40
25.0
 40
26.0
 40
26.0
 40
26.0
 40
27.0
 40
27.0
 40
27.0
 40
28.0
 40
28.0
 40
28.0
 40
29.0
 40
29.0
 40
29.0
 40
30.0
 40
30.0
 40
30.0
 40
31.0
 40
31.0
 40
31.0
 40
32.0
 40
32.0
 40
32.0
 40
33.0
 40
33.0
 40
33.0
 40
34.0
 40
34.0
 40
34.0
 40
35.0
 40
35.0
 40
35.0
 40
35.0
 10
827.8124997930469
 20
609.7838039443767
 10
827.8124997930469
 20
609.7838039443767
 10
828.8847654177788
 20
609.8775539443533
 10
828.8847654177788
 20
609.8775539443533
 10
828.9355466677661
 20
609.4478664444607
 10
829.0537107302365
 20
609.0953273820488
 10
829.2392576051901
 20
608.8199367571177
 10
829.4248044801437
 20
608.5445461321865
 10
829.7128904175718
 20
608.3218898822422
 10
830.1035154174741
 20
608.1519680072847
 10
830.4941404173765
 20
607.9820461323271
 10
830.9335935422666
 20
607.8970851948484
 10
831.4218747921445
 20
607.8970851948484
 10
831.8554685420361
 20
607.8970851948484
 10
832.2382810419405
 20
607.9615383198322
 10
832.5703122918574
 20
608.0904445698001
 10
832.9023435417744
 20
608.2193508197678
 10
833.1494138542126
 20
608.3961086322237
 10
833.311523229172
 20
608.6207180071675
 10
833.4736326041316
 20
608.8453273821113
 10
833.5546872916113
 20
609.0904445695501
 10
833.5546872916113
 20
609.3560695694837
 10
833.5546872916113
 20
609.6256008194163
 10
833.4765622916309
 20
609.8609523818574
 10
833.3203122916699
 20
610.0621242568071
 10
833.164062291709
 20
610.2632961317569
 10
832.9062497917735
 20
610.4322414442146
 10
832.5468747918633
 20
610.5689601941805
 10
832.3164060419209
 20
610.658803944158
 10
831.8066404170484
 20
610.7984523816231
 10
831.0175779172456
 20
610.9879055065757
 10
830.2285154174428
 20
611.1773586315284
 10
829.6757810425811
 20
611.3560695689837
 10
829.3593747926601
 20
611.5240383189416
 10
828.9492185427627
 20
611.738882068888
 10
828.643554480339
 20
612.0054836313213
 10
828.4423826053894
 20
612.3238430062418
 10
828.2412107304397
 20
612.6422023811621
 10
828.1406247929648
 20
612.998647693573
 10
828.1406247929648
 20
613.3931789434744
 10
828.1406247929648
 20
613.826772693366
 10
828.2636716679341
 20
614.2320461307646
 10
828.5097654178726
 20
614.6089992556704
 10
828.755859167811
 20
614.9859523805761
 10
829.1152341677212
 20
615.2720851930046
 10
829.587890417603
 20
615.4673976929558
 10
830.0605466674848
 20
615.662710192907
 10
830.5859372923535
 20
615.7603664428826
 10
831.164062292209
 20
615.7603664428826
 10
831.8007810420498
 20
615.7603664428826
 10
832.3623044794094
 20
615.6578273804082
 10
832.8486326042878
 20
615.4527492554595
 10
833.3349607291663
 20
615.2476711305108
 10
833.7089841665727
 20
614.9459133180862
 10
833.9707029165073
 20
614.5474758181858
 10
834.2324216664418
 20
614.1490383182854
 10
834.3730466664067
 20
613.6978664433982
 10
834.3925779164018
 20
613.1939601935242
 10
834.3925779164018
 20
613.1939601935242
 10
833.3027341666743
 20
613.1119289435446
 10
833.3027341666743
 20
613.1119289435446
 10
833.244140416689
 20
613.6548976934089
 10
833.0458982292386
 20
614.0650539433065
 10
832.708007604323
 20
614.3423976932371
 10
832.3701169794075
 20
614.6197414431678
 10
831.8710935420322
 20
614.7584133181331
 10
831.2109372921973
 20
614.7584133181331
 10
830.5234372923691
 20
614.7584133181331
 10
830.0224607299944
 20
614.6324367556646
 10
829.708007605073
 20
614.3804836307276
 10
829.3935544801516
 20
614.1285305057905
 10
829.2363279176909
 20
613.8248195683665
 10
829.2363279176909
 20
613.4693508184554
 10
829.2363279176909
 20
613.1607570685325
 10
829.3476560426631
 20
612.9068508185959
 10
829.5703122926074
 20
612.7076320686458
 10
829.7890622925527
 20
612.5084133186956
 10
830.3603513549099
 20
612.3043117562465
 10
831.284179479679
 20
612.0953273812988
 10
832.208007604448
 20
611.8863430063511
 10
832.8417966667895
 20
611.7037258188967
 10
833.1855466667035
 20
611.5474758189358
 10
833.6855466665786
 20
611.3170070689935
 10
834.0546872914863
 20
611.0250148815664
 10
834.2929685414267
 20
610.6714992566548
 10
834.5312497913671
 20
610.3179836317431
 10
834.6503904163374
 20
609.910757069345
 10
834.6503904163374
 20
609.4498195694603
 10
834.6503904163374
 20
608.9927883195745
 10
834.5195310413701
 20
608.5621242571822
 10
834.2578122914356
 20
608.1578273822832
 10
833.996093541501
 20
607.7535305073843
 10
833.620116979095
 20
607.4390773824629
 10
833.1298826042175
 20
607.214468007519
 10
832.6396482293401
 20
606.9898586325752
 10
832.087890416978
 20
606.8775539451033
 10
831.4746091671313
 20
606.8775539451033
 10
830.6972654173256
 20
606.8775539451033
 10
830.0458982299886
 20
606.990835195075
 10
829.5205076051199
 20
607.2173976950183
 10
828.9951169802512
 20
607.4439601949616
 10
828.5830076053543
 20
607.7847805073765
 10
828.284179480429
 20
608.2398586322627
 10
827.9853513555037
 20
608.694936757149
 10
827.828124793043
 20
609.2095851945203
 10
827.8124997930469
 20
609.7838039443767
 97
        0
 97
        0
 75
     2
 76
     1
 98
        0
  0
SPLINE
  5
9D
330
78
100
AcDbEntity
  8
0
 62
   240
420
 15539236
370
    35
100
AcDbSpline
210
0.0
220
0.0
230
1.0
 70
    11
 71
     3
 72
    65
 73
    61
 74
     0
 42
0.0000000001
 43
0.0000000001
 12
1.0
 22
0.0
 32
0.0
 13
1.0
 23
0.0
 33
0.0
 40
0.0
 40
0.0
 40
0.0
 40
0.0
 40
1.0
 40
1.0
 40
1.0
 40
2.0
 40
2.0
 40
2.0
 40
3.0
 40
3.0
 40
3.0
 40
4.0
 40
4.0
 40
4.0
 40
5.0
 40
5.0
 40
5.0
 40
6.0
 40
6.0
 40
6.0
 40
7.0
 40
7.0
 40
7.0
 40
8.0
 40
8.0
 40
8.0
 40
9.0
 40
9.0
 40
9.0
 40
10.0
 40
10.0
 40
10.0
 40
11.0
 40
11.0
 40
11.0
 40
12.0
 40
12.0
 40
12.0
 40
13.0
 40
13.0
 40
13.0
 40
14.0
 40
14.0
 40
14.0
 40
15.0
 40
15.0
 40
15.0
 40
16.0
 40
16.0
 40
16.0
 40
17.0
 40
17.0
 40
17.0
 40
18.0
 40
18.0
 40
18.0
 40
19.0
 40
19.0
 40
19.0
 40
20.0
 40
20.0
 40
20.0
 40
20.0
 10
838.3710935404072
 20
607.9673976948308
 30
0.0
 10
838.3710935404072
 20
607.9673976948308
 30
0.0
 10
838.5234372903691
 20
607.0357570700637
 30
0.0
 10
838.5234372903691
 20
607.0357570700637
 30
0.0
 10
838.2265622904433
 20
606.9732570700794
 30
0.0
 10
837.9609372905097
 20
606.9420070700871
 30
0.0
 10
837.7265622905684
 20
606.9420070700871
 30
0.0
 10
837.343749790664
 20
606.9420070700871
 30
0.0
 10
837.0468747907382
 20
607.002553945072
 30
0.0
 10
836.835937290791
 20
607.1236476950418
 30
0.0
 10
836.6249997908437
 20
607.2447414450115
 30
0.0
 10
836.4765622908808
 20
607.4039211324717
 30
0.0
 10
836.3906247909023
 20
607.6011867574224
 30
0.0
 10
836.3046872909238
 20
607.7984523823731
 30
0.0
 10
836.2617185409346
 20
608.2134914447693
 30
0.0
 10
836.2617185409346
 20
608.8463039446111
 30
0.0
 10
836.2617185409346
 20
608.8463039446111
 30
0.0
 10
836.2617185409346
 20
612.4263820687161
 30
0.0
 10
836.2617185409346
 20
612.4263820687161
 30
0.0
 10
836.2617185409346
 20
612.4263820687161
 30
0.0
 10
835.488281041128
 20
612.4263820687161
 30
0.0
 10
835.488281041128
 20
612.4263820687161
 30
0.0
 10
835.488281041128
 20
612.4263820687161
 30
0.0
 10
835.488281041128
 20
613.246694568511
 30
0.0
 10
835.488281041128
 20
613.246694568511
 30
0.0
 10
835.488281041128
 20
613.246694568511
 30
0.0
 10
836.2617185409346
 20
613.246694568511
 30
0.0
 10
836.2617185409346
 20
613.246694568511
 30
0.0
 10
836.2617185409346
 20
613.246694568511
 30
0.0
 10
836.2617185409346
 20
614.7877101931257
 30
0.0
 10
836.2617185409346
 20
614.7877101931257
 30
0.0
 10
836.2617185409346
 20
614.7877101931257
 30
0.0
 10
837.3105466656723
 20
615.4205226929676
 30
0.0
 10
837.3105466656723
 20
615.4205226929676
 30
0.0
 10
837.3105466656723
 20
615.4205226929676
 30
0.0
 10
837.3105466656723
 20
613.246694568511
 30
0.0
 10
837.3105466656723
 20
613.246694568511
 30
0.0
 10
837.3105466656723
 20
613.246694568511
 30
0.0
 10
838.3710935404072
 20
613.246694568511
 30
0.0
 10
838.3710935404072
 20
613.246694568511
 30
0.0
 10
838.3710935404072
 20
613.246694568511
 30
0.0
 10
838.3710935404072
 20
612.4263820687161
 30
0.0
 10
838.3710935404072
 20
612.4263820687161
 30
0.0
 10
838.3710935404072
 20
612.4263820687161
 30
0.0
 10
837.3105466656723
 20
612.4263820687161
 30
0.0
 10
837.3105466656723
 20
612.4263820687161
 30
0.0
 10
837.3105466656723
 20
612.4263820687161
 30
0.0
 10
837.3105466656723
 20
608.7877101946258
 30
0.0
 10
837.3105466656723
 20
608.7877101946258
 30
0.0
 10
837.3105466656723
 20
608.4869289447009
 30
0.0
 10
837.3291013531677
 20
608.2935695697493
 30
0.0
 10
837.3662107281584
 20
608.2076320697707
 30
0.0
 10
837.4033201031491
 20
608.1216945697922
 30
0.0
 10
837.463866978134
 20
608.0533351948093
 30
0.0
 10
837.5478513531131
 20
608.002553944822
 30
0.0
 10
837.631835728092
 20
607.9517726948347
 30
0.0
 10
837.751952915562
 20
607.9263820698411
 30
0.0
 10
837.9082029155229
 20
607.9263820698411
 30
0.0
 10
838.0253904154937
 20
607.9263820698411
 30
0.0
 10
838.179687290455
 20
607.9400539448377
 30
0.0
 10
838.3710935404072
 20
607.9673976948308
 30
0.0
  0
HATCH
  5
9E
330
78
100
AcDbEntity
  8
0
 62
   240
420
 15539236
100
AcDbHatch
 10
0.0
 20
0.0
 30
0.0
210
0.0
220
0.0
230
1.0
  2
SOLID
 70
     1
 71
     0
 91
        1
 92
        1
 93
        1
 72
     4
 94
        3
 73
     0
 74
     1
 95
       65
 96
       61
 40
0.0
 40
0.0
 40
0.0
 40
0.0
 40
1.0
 40
1.0
 40
1.0
 40
2.0
 40
2.0
 40
2.0
 40
3.0
 40
3.0
 40
3.0
 40
4.0
 40
4.0
 40
4.0
 40
5.0
 40
5.0
 40
5.0
 40
6.0
 40
6.0
 40
6.0
 40
7.0
 40
7.0
 40
7.0
 40
8.0
 40
8.0
 40
8.0
 40
9.0
 40
9.0
 40
9.0
 40
10.0
 40
10.0
 40
10.0
 40
11.0
 40
11.0
 40
11.0
 40
12.0
 40
12.0
 40
12.0
 40
13.0
 40
13.0
 40
13.0
 40
14.0
 40
14.0
 40
14.0
 40
15.0
 40
15.0
 40
15.0
 40
16.0
 40
16.0
 40
16.0
 40
17.0
 40
17.0
 40
17.0
 40
18.0
 40
18.0
 40
18.0
 40
19.0
 40
19.0
 40
19.0
 40
20.0
 40
20.0
 40
20.0
 40
20.0
 10
838.3710935404072
 20
607.9673976948308
 10
838.3710935404072
 20
607.9673976948308
 10
838.5234372903691
 20
607.0357570700637
 10
838.5234372903691
 20
607.0357570700637
 10
838.2265622904433
 20
606.9732570700794
 10
837.9609372905097
 20
606.9420070700871
 10
837.7265622905684
 20
606.9420070700871
 10
837.343749790664
 20
606.9420070700871
 10
837.0468747907382
 20
607.002553945072
 10
836.835937290791
 20
607.1236476950418
 10
836.6249997908437
 20
607.2447414450115
 10
836.4765622908808
 20
607.4039211324717
 10
836.3906247909023
 20
607.6011867574224
 10
836.3046872909238
 20
607.7984523823731
 10
836.2617185409346
 20
608.2134914447693
 10
836.2617185409346
 20
608.8463039446111
 10
836.2617185409346
 20
608.8463039446111
 10
836.2617185409346
 20
612.4263820687161
 10
836.2617185409346
 20
612.4263820687161
 10
836.2617185409346
 20
612.4263820687161
 10
835.488281041128
 20
612.4263820687161
 10
835.488281041128
 20
612.4263820687161
 10
835.488281041128
 20
612.4263820687161
 10
835.488281041128
 20
613.246694568511
 10
835.488281041128
 20
613.246694568511
 10
835.488281041128
 20
613.246694568511
 10
836.2617185409346
 20
613.246694568511
 10
836.2617185409346
 20
613.246694568511
 10
836.2617185409346
 20
613.246694568511
 10
836.2617185409346
 20
614.7877101931257
 10
836.2617185409346
 20
614.7877101931257
 10
836.2617185409346
 20
614.7877101931257
 10
837.3105466656723
 20
615.4205226929676
 10
837.3105466656723
 20
615.4205226929676
 10
837.3105466656723
 20
615.4205226929676
 10
837.3105466656723
 20
613.246694568511
 10
837.3105466656723
 20
613.246694568511
 10
837.3105466656723
 20
613.246694568511
 10
838.3710935404072
 20
613.246694568511
 10
838.3710935404072
 20
613.246694568511
 10
838.3710935404072
 20
613.246694568511
 10
838.3710935404072
 20
612.4263820687161
 10
838.3710935404072
 20
612.4263820687161
 10
838.3710935404072
 20
612.4263820687161
 10
837.3105466656723
 20
612.4263820687161
 10
837.3105466656723
 20
612.4263820687161
 10
837.3105466656723
 20
612.4263820687161
 10
837.3105466656723
 20
608.7877101946258
 10
837.3105466656723
 20
608.7877101946258
 10
837.3105466656723
 20
608.4869289447009
 10
837.3291013531677
 20
608.2935695697493
 10
837.3662107281584
 20
608.2076320697707
 10
837.4033201031491
 20
608.1216945697922
 10
837.463866978134
 20
608.0533351948093
 10
837.5478513531131
 20
608.002553944822
 10
837.631835728092
 20
607.9517726948347
 10
837.751952915562
 20
607.9263820698411
 10
837.9082029155229
 20
607.9263820698411
 10
838.0253904154937
 20
607.9263820698411
 10
838.179687290455
 20
607.9400539448377
 10
838.3710935404072
 20
607.9673976948308
 97
        0
 97
        0
 75
     2
 76
     1
 98
        0
  0
SPLINE
  5
9F
330
78
100
AcDbEntity
  8
0
 62
   240
420
 15539236
370
    35
100
AcDbSpline
210
0.0
220
0.0
230
1.0
 70
    11
 71
     3
 72
    44
 73
    40
 74
     0
 42
0.0000000001
 43
0.0000000001
 12
1.0
 22
0.0
 32
0.0
 13
1.0
 23
0.0
 33
0.0
 40
0.0
 40
0.0
 40
0.0
 40
0.0
 40
1.0
 40
1.0
 40
1.0
 40
2.0
 40
2.0
 40
2.0
 40
3.0
 40
3.0
 40
3.0
 40
4.0
 40
4.0
 40
4.0
 40
5.0
 40
5.0
 40
5.0
 40
6.0
 40
6.0
 40
6.0
 40
7.0
 40
7.0
 40
7.0
 40
8.0
 40
8.0
 40
8.0
 40
9.0
 40
9.0
 40
9.0
 40
10.0
 40
10.0
 40
10.0
 40
11.0
 40
11.0
 40
11.0
 40
12.0
 40
12.0
 40
12.0
 40
13.0
 40
13.0
 40
13.0
 40
13.0
 10
839.3906247901523
 20
607.0240383200667
 30
0.0
 10
839.3906247901523
 20
607.0240383200667
 30
0.0
 10
839.3906247901523
 20
613.246694568511
 30
0.0
 10
839.3906247901523
 20
613.246694568511
 30
0.0
 10
839.3906247901523
 20
613.246694568511
 30
0.0
 10
840.339843539915
 20
613.246694568511
 30
0.0
 10
840.339843539915
 20
613.246694568511
 30
0.0
 10
840.339843539915
 20
613.246694568511
 30
0.0
 10
840.339843539915
 20
612.3033351937469
 30
0.0
 10
840.339843539915
 20
612.3033351937469
 30
0.0
 10
840.5820310398544
 20
612.7447414436365
 30
0.0
 10
840.8056638522986
 20
613.0357570685637
 30
0.0
 10
841.0107419772473
 20
613.1763820685286
 30
0.0
 10
841.2158201021961
 20
613.3170070684935
 30
0.0
 10
841.4414060396397
 20
613.3873195684758
 30
0.0
 10
841.687499789578
 20
613.3873195684758
 30
0.0
 10
842.0429685394893
 20
613.3873195684758
 30
0.0
 10
842.4042966643989
 20
613.2740383185042
 30
0.0
 10
842.7714841643071
 20
613.0474758185608
 30
0.0
 10
842.7714841643071
 20
613.0474758185608
 30
0.0
 10
842.408202914398
 20
612.0689601938054
 30
0.0
 10
842.408202914398
 20
612.0689601938054
 30
0.0
 10
842.1503904144624
 20
612.2213039437673
 30
0.0
 10
841.8925779145268
 20
612.2974758187482
 30
0.0
 10
841.6347654145912
 20
612.2974758187482
 30
0.0
 10
841.4042966646489
 20
612.2974758187482
 30
0.0
 10
841.1972654147006
 20
612.2281398812656
 30
0.0
 10
841.0136716647465
 20
612.0894680063003
 30
0.0
 10
840.8300779147925
 20
611.950796131335
 30
0.0
 10
840.6992185398252
 20
611.7584133188831
 30
0.0
 10
840.6210935398448
 20
611.5123195689446
 30
0.0
 10
840.503906039874
 20
611.1373195690384
 30
0.0
 10
840.4453122898886
 20
610.7271633191409
 30
0.0
 10
840.4453122898886
 20
610.2818508192522
 30
0.0
 10
840.4453122898886
 20
610.2818508192522
 30
0.0
 10
840.4453122898886
 20
607.0240383200667
 30
0.0
 10
840.4453122898886
 20
607.0240383200667
 30
0.0
 10
840.4453122898886
 20
607.0240383200667
 30
0.0
 10
839.3906247901523
 20
607.0240383200667
 30
0.0
 10
839.3906247901523
 20
607.0240383200667
 30
0.0
  0
HATCH
  5
A0
330
78
100
AcDbEntity
  8
0
 62
   240
420
 15539236
100
AcDbHatch
 10
0.0
 20
0.0
 30
0.0
210
0.0
220
0.0
230
1.0
  2
SOLID
 70
     1
 71
     0
 91
        1
 92
        1
 93
        1
 72
     4
 94
        3
 73
     0
 74
     1
 95
       44
 96
       40
 40
0.0
 40
0.0
 40
0.0
 40
0.0
 40
1.0
 40
1.0
 40
1.0
 40
2.0
 40
2.0
 40
2.0
 40
3.0
 40
3.0
 40
3.0
 40
4.0
 40
4.0
 40
4.0
 40
5.0
 40
5.0
 40
5.0
 40
6.0
 40
6.0
 40
6.0
 40
7.0
 40
7.0
 40
7.0
 40
8.0
 40
8.0
 40
8.0
 40
9.0
 40
9.0
 40
9.0
 40
10.0
 40
10.0
 40
10.0
 40
11.0
 40
11.0
 40
11.0
 40
12.0
 40
12.0
 40
12.0
 40
13.0
 40
13.0
 40
13.0
 40
13.0
 10
839.3906247901523
 20
607.0240383200667
 10
839.3906247901523
 20
607.0240383200667
 10
839.3906247901523
 20
613.246694568511
 10
839.3906247901523
 20
613.246694568511
 10
839.3906247901523
 20
613.246694568511
 10
840.339843539915
 20
613.246694568511
 10
840.339843539915
 20
613.246694568511
 10
840.339843539915
 20
613.246694568511
 10
840.339843539915
 20
612.3033351937469
 10
840.339843539915
 20
612.3033351937469
 10
840.5820310398544
 20
612.7447414436365
 10
840.8056638522986
 20
613.0357570685637
 10
841.0107419772473
 20
613.1763820685286
 10
841.2158201021961
 20
613.3170070684935
 10
841.4414060396397
 20
613.3873195684758
 10
841.687499789578
 20
613.3873195684758
 10
842.0429685394893
 20
613.3873195684758
 10
842.4042966643989
 20
613.2740383185042
 10
842.7714841643071
 20
613.0474758185608
 10
842.7714841643071
 20
613.0474758185608
 10
842.408202914398
 20
612.0689601938054
 10
842.408202914398
 20
612.0689601938054
 10
842.1503904144624
 20
612.2213039437673
 10
841.8925779145268
 20
612.2974758187482
 10
841.6347654145912
 20
612.2974758187482
 10
841.4042966646489
 20
612.2974758187482
 10
841.1972654147006
 20
612.2281398812656
 10
841.0136716647465
 20
612.0894680063003
 10
840.8300779147925
 20
611.950796131335
 10
840.6992185398252
 20
611.7584133188831
 10
840.6210935398448
 20
611.5123195689446
 10
840.503906039874
 20
611.1373195690384
 10
840.4453122898886
 20
610.7271633191409
 10
840.4453122898886
 20
610.2818508192522
 10
840.4453122898886
 20
610.2818508192522
 10
840.4453122898886
 20
607.0240383200667
 10
840.4453122898886
 20
607.0240383200667
 10
840.4453122898886
 20
607.0240383200667
 10
839.3906247901523
 20
607.0240383200667
 10
839.3906247901523
 20
607.0240383200667
 97
        0
 97
        0
 75
     2
 76
     1
 98
        0
  0
SPLINE
  5
A1
330
78
100
AcDbEntity
  8
0
 62
   240
420
 15539236
370
    35
100
AcDbSpline
210
0.0
220
0.0
230
1.0
 70
    11
 71
     3
 72
    86
 73
    82
 74
     0
 42
0.0000000001
 43
0.0000000001
 12
1.0
 22
0.0
 32
0.0
 13
1.0
 23
0.0
 33
0.0
 40
0.0
 40
0.0
 40
0.0
 40
0.0
 40
1.0
 40
1.0
 40
1.0
 40
2.0
 40
2.0
 40
2.0
 40
3.0
 40
3.0
 40
3.0
 40
4.0
 40
4.0
 40
4.0
 40
5.0
 40
5.0
 40
5.0
 40
6.0
 40
6.0
 40
6.0
 40
7.0
 40
7.0
 40
7.0
 40
8.0
 40
8.0
 40
8.0
 40
9.0
 40
9.0
 40
9.0
 40
10.0
 40
10.0
 40
10.0
 40
11.0
 40
11.0
 40
11.0
 40
12.0
 40
12.0
 40
12.0
 40
13.0
 40
13.0
 40
13.0
 40
14.0
 40
14.0
 40
14.0
 40
15.0
 40
15.0
 40
15.0
 40
16.0
 40
16.0
 40
16.0
 40
17.0
 40
17.0
 40
17.0
 40
18.0
 40
18.0
 40
18.0
 40
19.0
 40
19.0
 40
19.0
 40
20.0
 40
20.0
 40
20.0
 40
21.0
 40
21.0
 40
21.0
 40
22.0
 40
22.0
 40
22.0
 40
23.0
 40
23.0
 40
23.0
 40
24.0
 40
24.0
 40
24.0
 40
25.0
 40
25.0
 40
25.0
 40
26.0
 40
26.0
 40
26.0
 40
27.0
 40
27.0
 40
27.0
 40
27.0
 10
847.4589841631353
 20
607.7916164448748
 30
0.0
 10
847.0683591632329
 20
607.4595851949578
 30
0.0
 10
846.6923826008269
 20
607.2252101950164
 30
0.0
 10
846.3310544759172
 20
607.0884914450505
 30
0.0
 10
845.9697263510076
 20
606.9517726950847
 30
0.0
 10
845.5820310386044
 20
606.8834133201018
 30
0.0
 10
845.167968538708
 20
606.8834133201018
 30
0.0
 10
844.4843747888789
 20
606.8834133201018
 30
0.0
 10
843.9589841640102
 20
607.0504055075601
 30
0.0
 10
843.591796664102
 20
607.3843898824765
 30
0.0
 10
843.2246091641938
 20
607.7183742573931
 30
0.0
 10
843.0410154142397
 20
608.1451320697864
 30
0.0
 10
843.0410154142397
 20
608.6646633196565
 30
0.0
 10
843.0410154142397
 20
608.9693508195803
 30
0.0
 10
843.1103513517224
 20
609.2476711320107
 30
0.0
 10
843.2490232266878
 20
609.4996242569478
 30
0.0
 10
843.3876951016531
 20
609.7515773818848
 30
0.0
 10
843.5693357266076
 20
609.9537258193342
 30
0.0
 10
843.7939451015515
 20
610.1060695692961
 30
0.0
 10
844.0185544764953
 20
610.258413319258
 30
0.0
 10
844.2714841639321
 20
610.3736476942292
 30
0.0
 10
844.5527341638618
 20
610.4517726942097
 30
0.0
 10
844.75976541381
 20
610.506460194196
 30
0.0
 10
845.0722654137319
 20
610.5591945691829
 30
0.0
 10
845.4902341636274
 20
610.6099758191701
 30
0.0
 10
846.3417966634146
 20
610.7115383191448
 30
0.0
 10
846.9687497882578
 20
610.8326320691145
 30
0.0
 10
847.3710935381572
 20
610.9732570690793
 30
0.0
 10
847.3749997881563
 20
611.1177883190433
 30
0.0
 10
847.3769529131557
 20
611.2095851940203
 30
0.0
 10
847.3769529131557
 20
611.2486476940105
 30
0.0
 10
847.3769529131557
 20
611.6783351939031
 30
0.0
 10
847.2773435381806
 20
611.9810695688274
 30
0.0
 10
847.0781247882304
 20
612.1568508187835
 30
0.0
 10
846.8085935382978
 20
612.3951320687239
 30
0.0
 10
846.408202913398
 20
612.5142726936941
 30
0.0
 10
845.8769529135308
 20
612.5142726936941
 30
0.0
 10
845.3808591636548
 20
612.5142726936941
 30
0.0
 10
845.0146482262463
 20
612.4273586312158
 30
0.0
 10
844.7783201013054
 20
612.2535305062593
 30
0.0
 10
844.5419919763644
 20
612.0797023813027
 30
0.0
 10
844.3671872889082
 20
611.7720851938797
 30
0.0
 10
844.2539060389365
 20
611.33067894399
 30
0.0
 10
844.2539060389365
 20
611.33067894399
 30
0.0
 10
843.2226560391944
 20
611.4713039439548
 30
0.0
 10
843.2226560391944
 20
611.4713039439548
 30
0.0
 10
843.3164060391708
 20
611.9127101938445
 30
0.0
 10
843.4707029141323
 20
612.2691555062554
 30
0.0
 10
843.6855466640786
 20
612.5406398811875
 30
0.0
 10
843.9003904140249
 20
612.8121242561197
 30
0.0
 10
844.2109372889472
 20
613.0211086310674
 30
0.0
 10
844.6171872888457
 20
613.1675930060308
 30
0.0
 10
845.0234372887442
 20
613.3140773809941
 30
0.0
 10
845.4941404136265
 20
613.3873195684758
 30
0.0
 10
846.0292966634927
 20
613.3873195684758
 30
0.0
 10
846.5605466633599
 20
613.3873195684758
 30
0.0
 10
846.9921872882519
 20
613.3248195684914
 30
0.0
 10
847.3242185381689
 20
613.1998195685227
 30
0.0
 10
847.6562497880859
 20
613.074819568554
 30
0.0
 10
847.9003904130249
 20
612.9175930060933
 30
0.0
 10
848.0566404129859
 20
612.7281398811406
 30
0.0
 10
848.2128904129468
 20
612.538686756188
 30
0.0
 10
848.3222654129194
 20
612.2994289437478
 30
0.0
 10
848.3847654129038
 20
612.0103664438201
 30
0.0
 10
848.419921662895
 20
611.830678943865
 30
0.0
 10
848.4374997878906
 20
611.506460193946
 30
0.0
 10
848.4374997878906
 20
611.0377101940633
 30
0.0
 10
848.4374997878906
 20
611.0377101940633
 30
0.0
 10
848.4374997878906
 20
609.6314601944148
 30
0.0
 10
848.4374997878906
 20
609.6314601944148
 30
0.0
 10
848.4374997878906
 20
608.6509914446599
 30
0.0
 10
848.459960725385
 20
608.030874257315
 30
0.0
 10
848.5048826003738
 20
607.7711086323799
 30
0.0
 10
848.5498044753625
 20
607.5113430074448
 30
0.0
 10
848.6386716628404
 20
607.2623195700071
 30
0.0
 10
848.7714841628072
 20
607.0240383200667
 30
0.0
 10
848.7714841628072
 20
607.0240383200667
 30
0.0
 10
847.6699216630825
 20
607.0240383200667
 30
0.0
 10
847.6699216630825
 20
607.0240383200667
 30
0.0
 10
847.5605466631098
 20
607.242788320012
 30
0.0
 10
847.4902341631274
 20
607.498647694948
 30
0.0
 10
847.4589841631353
 20
607.7916164448748
 30
0.0
  0
SPLINE
  5
A2
330
78
100
AcDbEntity
  8
0
 62
   240
420
 15539236
370
    35
100
AcDbSpline
210
0.0
220
0.0
230
1.0
 70
    11
 71
     3
 72
    35
 73
    31
 74
     0
 42
0.0000000001
 43
0.0000000001
 12
1.0
 22
0.0
 32
0.0
 13
1.0
 23
0.0
 33
0.0
 40
0.0
 40
0.0
 40
0.0
 40
0.0
 40
1.0
 40
1.0
 40
1.0
 40
2.0
 40
2.0
 40
2.0
 40
3.0
 40
3.0
 40
3.0
 40
4.0
 40
4.0
 40
4.0
 40
5.0
 40
5.0
 40
5.0
 40
6.0
 40
6.0
 40
6.0
 40
7.0
 40
7.0
 40
7.0
 40
8.0
 40
8.0
 40
8.0
 40
9.0
 40
9.0
 40
9.0
 40
10.0
 40
10.0
 40
10.0
 40
10.0
 10
847.3710935381572
 20
610.1470851942859
 30
0.0
 10
846.9882810382529
 20
609.990835194325
 30
0.0
 10
846.4140622883965
 20
609.8580226943582
 30
0.0
 10
845.6484372885878
 20
609.7486476943855
 30
0.0
 10
845.2148435386963
 20
609.6861476944011
 30
0.0
 10
844.9082029137729
 20
609.6158351944187
 30
0.0
 10
844.7285154138178
 20
609.5377101944382
 30
0.0
 10
844.5488279138627
 20
609.4595851944578
 30
0.0
 10
844.4101560388974
 20
609.3453273819863
 30
0.0
 10
844.3124997889219
 20
609.1949367570239
 30
0.0
 10
844.2148435389463
 20
609.0445461320616
 30
0.0
 10
844.1660154139585
 20
608.8775539446033
 30
0.0
 10
844.1660154139585
 20
608.6939601946492
 30
0.0
 10
844.1660154139585
 20
608.4127101947195
 30
0.0
 10
844.2724607264319
 20
608.1783351947781
 30
0.0
 10
844.4853513513787
 20
607.990835194825
 30
0.0
 10
844.6982419763254
 20
607.8033351948718
 30
0.0
 10
845.0097654137476
 20
607.7095851948952
 30
0.0
 10
845.419921663645
 20
607.7095851948952
 30
0.0
 10
845.8261716635434
 20
607.7095851948952
 30
0.0
 10
846.1874997884531
 20
607.7984523823731
 30
0.0
 10
846.503906038374
 20
607.9761867573286
 30
0.0
 10
846.8203122882949
 20
608.1539211322842
 30
0.0
 10
847.0527341632368
 20
608.3970851947234
 30
0.0
 10
847.2011716631997
 20
608.7056789446463
 30
0.0
 10
847.3144529131714
 20
608.9439601945867
 30
0.0
 10
847.3710935381572
 20
609.2955226944988
 30
0.0
 10
847.3710935381572
 20
609.7603664443826
 30
0.0
 10
847.3710935381572
 20
609.7603664443826
 30
0.0
 10
847.3710935381572
 20
610.1470851942859
 30
0.0
 10
847.3710935381572
 20
610.1470851942859
 30
0.0
  0
HATCH
  5
A3
330
78
100
AcDbEntity
  8
0
 62
   240
420
 15539236
100
AcDbHatch
 10
0.0
 20
0.0
 30
0.0
210
0.0
220
0.0
230
1.0
  2
SOLID
 70
     1
 71
     0
 91
        2
 92
        1
 93
        1
 72
     4
 94
        3
 73
     0
 74
     1
 95
       86
 96
       82
 40
0.0
 40
0.0
 40
0.0
 40
0.0
 40
1.0
 40
1.0
 40
1.0
 40
2.0
 40
2.0
 40
2.0
 40
3.0
 40
3.0
 40
3.0
 40
4.0
 40
4.0
 40
4.0
 40
5.0
 40
5.0
 40
5.0
 40
6.0
 40
6.0
 40
6.0
 40
7.0
 40
7.0
 40
7.0
 40
8.0
 40
8.0
 40
8.0
 40
9.0
 40
9.0
 40
9.0
 40
10.0
 40
10.0
 40
10.0
 40
11.0
 40
11.0
 40
11.0
 40
12.0
 40
12.0
 40
12.0
 40
13.0
 40
13.0
 40
13.0
 40
14.0
 40
14.0
 40
14.0
 40
15.0
 40
15.0
 40
15.0
 40
16.0
 40
16.0
 40
16.0
 40
17.0
 40
17.0
 40
17.0
 40
18.0
 40
18.0
 40
18.0
 40
19.0
 40
19.0
 40
19.0
 40
20.0
 40
20.0
 40
20.0
 40
21.0
 40
21.0
 40
21.0
 40
22.0
 40
22.0
 40
22.0
 40
23.0
 40
23.0
 40
23.0
 40
24.0
 40
24.0
 40
24.0
 40
25.0
 40
25.0
 40
25.0
 40
26.0
 40
26.0
 40
26.0
 40
27.0
 40
27.0
 40
27.0
 40
27.0
 10
847.4589841631353
 20
607.7916164448748
 10
847.0683591632329
 20
607.4595851949578
 10
846.6923826008269
 20
607.2252101950164
 10
846.3310544759172
 20
607.0884914450505
 10
845.9697263510076
 20
606.9517726950847
 10
845.5820310386044
 20
606.8834133201018
 10
845.167968538708
 20
606.8834133201018
 10
844.4843747888789
 20
606.8834133201018
 10
843.9589841640102
 20
607.0504055075601
 10
843.591796664102
 20
607.3843898824765
 10
843.2246091641938
 20
607.7183742573931
 10
843.0410154142397
 20
608.1451320697864
 10
843.0410154142397
 20
608.6646633196565
 10
843.0410154142397
 20
608.9693508195803
 10
843.1103513517224
 20
609.2476711320107
 10
843.2490232266878
 20
609.4996242569478
 10
843.3876951016531
 20
609.7515773818848
 10
843.5693357266076
 20
609.9537258193342
 10
843.7939451015515
 20
610.1060695692961
 10
844.0185544764953
 20
610.258413319258
 10
844.2714841639321
 20
610.3736476942292
 10
844.5527341638618
 20
610.4517726942097
 10
844.75976541381
 20
610.506460194196
 10
845.0722654137319
 20
610.5591945691829
 10
845.4902341636274
 20
610.6099758191701
 10
846.3417966634146
 20
610.7115383191448
 10
846.9687497882578
 20
610.8326320691145
 10
847.3710935381572
 20
610.9732570690793
 10
847.3749997881563
 20
611.1177883190433
 10
847.3769529131557
 20
611.2095851940203
 10
847.3769529131557
 20
611.2486476940105
 10
847.3769529131557
 20
611.6783351939031
 10
847.2773435381806
 20
611.9810695688274
 10
847.0781247882304
 20
612.1568508187835
 10
846.8085935382978
 20
612.3951320687239
 10
846.408202913398
 20
612.5142726936941
 10
845.8769529135308
 20
612.5142726936941
 10
845.3808591636548
 20
612.5142726936941
 10
845.0146482262463
 20
612.4273586312158
 10
844.7783201013054
 20
612.2535305062593
 10
844.5419919763644
 20
612.0797023813027
 10
844.3671872889082
 20
611.7720851938797
 10
844.2539060389365
 20
611.33067894399
 10
844.2539060389365
 20
611.33067894399
 10
843.2226560391944
 20
611.4713039439548
 10
843.2226560391944
 20
611.4713039439548
 10
843.3164060391708
 20
611.9127101938445
 10
843.4707029141323
 20
612.2691555062554
 10
843.6855466640786
 20
612.5406398811875
 10
843.9003904140249
 20
612.8121242561197
 10
844.2109372889472
 20
613.0211086310674
 10
844.6171872888457
 20
613.1675930060308
 10
845.0234372887442
 20
613.3140773809941
 10
845.4941404136265
 20
613.3873195684758
 10
846.0292966634927
 20
613.3873195684758
 10
846.5605466633599
 20
613.3873195684758
 10
846.9921872882519
 20
613.3248195684914
 10
847.3242185381689
 20
613.1998195685227
 10
847.6562497880859
 20
613.074819568554
 10
847.9003904130249
 20
612.9175930060933
 10
848.0566404129859
 20
612.7281398811406
 10
848.2128904129468
 20
612.538686756188
 10
848.3222654129194
 20
612.2994289437478
 10
848.3847654129038
 20
612.0103664438201
 10
848.419921662895
 20
611.830678943865
 10
848.4374997878906
 20
611.506460193946
 10
848.4374997878906
 20
611.0377101940633
 10
848.4374997878906
 20
611.0377101940633
 10
848.4374997878906
 20
609.6314601944148
 10
848.4374997878906
 20
609.6314601944148
 10
848.4374997878906
 20
608.6509914446599
 10
848.459960725385
 20
608.030874257315
 10
848.5048826003738
 20
607.7711086323799
 10
848.5498044753625
 20
607.5113430074448
 10
848.6386716628404
 20
607.2623195700071
 10
848.7714841628072
 20
607.0240383200667
 10
848.7714841628072
 20
607.0240383200667
 10
847.6699216630825
 20
607.0240383200667
 10
847.6699216630825
 20
607.0240383200667
 10
847.5605466631098
 20
607.242788320012
 10
847.4902341631274
 20
607.498647694948
 10
847.4589841631353
 20
607.7916164448748
 97
        0
 97
        0
 92
        1
 93
        1
 72
     4
 94
        3
 73
     0
 74
     1
 95
       35
 96
       31
 40
0.0
 40
0.0
 40
0.0
 40
0.0
 40
1.0
 40
1.0
 40
1.0
 40
2.0
 40
2.0
 40
2.0
 40
3.0
 40
3.0
 40
3.0
 40
4.0
 40
4.0
 40
4.0
 40
5.0
 40
5.0
 40
5.0
 40
6.0
 40
6.0
 40
6.0
 40
7.0
 40
7.0
 40
7.0
 40
8.0
 40
8.0
 40
8.0
 40
9.0
 40
9.0
 40
9.0
 40
10.0
 40
10.0
 40
10.0
 40
10.0
 10
847.3710935381572
 20
610.1470851942859
 10
846.9882810382529
 20
609.990835194325
 10
846.4140622883965
 20
609.8580226943582
 10
845.6484372885878
 20
609.7486476943855
 10
845.2148435386963
 20
609.6861476944011
 10
844.9082029137729
 20
609.6158351944187
 10
844.7285154138178
 20
609.5377101944382
 10
844.5488279138627
 20
609.4595851944578
 10
844.4101560388974
 20
609.3453273819863
 10
844.3124997889219
 20
609.1949367570239
 10
844.2148435389463
 20
609.0445461320616
 10
844.1660154139585
 20
608.8775539446033
 10
844.1660154139585
 20
608.6939601946492
 10
844.1660154139585
 20
608.4127101947195
 10
844.2724607264319
 20
608.1783351947781
 10
844.4853513513787
 20
607.990835194825
 10
844.6982419763254
 20
607.8033351948718
 10
845.0097654137476
 20
607.7095851948952
 10
845.419921663645
 20
607.7095851948952
 10
845.8261716635434
 20
607.7095851948952
 10
846.1874997884531
 20
607.7984523823731
 10
846.503906038374
 20
607.9761867573286
 10
846.8203122882949
 20
608.1539211322842
 10
847.0527341632368
 20
608.3970851947234
 10
847.2011716631997
 20
608.7056789446463
 10
847.3144529131714
 20
608.9439601945867
 10
847.3710935381572
 20
609.2955226944988
 10
847.3710935381572
 20
609.7603664443826
 10
847.3710935381572
 20
609.7603664443826
 10
847.3710935381572
 20
610.1470851942859
 10
847.3710935381572
 20
610.1470851942859
 97
        0
 97
        0
 75
     2
 76
     1
 98
        0
  0
POLYLINE
  5
A4
330
78
100
AcDbEntity
  8
0
 62
   240
420
 15539236
370
    35
100
AcDb2dPolyline
 66
     1
 10
0.0
 20
0.0
 30
0.0
  0
VERTEX
  5
A5
330
A4
100
AcDbEntity
  8
0
 62
   240
420
 15539236
370
    35
100
AcDbVertex
100
AcDb2dVertex
 10
850.0781247874804
 20
614.4009914432224
 30
0.0
  0
VERTEX
  5
A6
330
A4
100
AcDbEntity
  8
0
 62
   240
420
 15539236
370
    35
100
AcDbVertex
100
AcDb2dVertex
 10
850.0781247874804
 20
615.6138820679192
 30
0.0
  0
VERTEX
  5
A7
330
A4
100
AcDbEntity
  8
0
 62
   240
420
 15539236
370
    35
100
AcDbVertex
100
AcDb2dVertex
 10
851.1328122872168
 20
615.6138820679192
 30
0.0
  0
VERTEX
  5
A8
330
A4
100
AcDbEntity
  8
0
 62
   240
420
 15539236
370
    35
100
AcDbVertex
100
AcDb2dVertex
 10
851.1328122872168
 20
614.4009914432224
 30
0.0
  0
VERTEX
  5
A9
330
A4
100
AcDbEntity
  8
0
 62
   240
420
 15539236
370
    35
100
AcDbVertex
100
AcDb2dVertex
 10
850.0781247874804
 20
614.4009914432224
 30
0.0
  0
SEQEND
  5
AA
330
A4
100
AcDbEntity
  8
0
 62
   240
420
 15539236
370
    35
  0
POLYLINE
  5
AB
330
78
100
AcDbEntity
  8
0
 62
   240
420
 15539236
370
    35
100
AcDb2dPolyline
 66
     1
 10
0.0
 20
0.0
 30
0.0
  0
VERTEX
  5
AC
330
AB
100
AcDbEntity
  8
0
 62
   240
420
 15539236
370
    35
100
AcDbVertex
100
AcDb2dVertex
 10
850.0781247874804
 20
607.0240383200667
 30
0.0
  0
VERTEX
  5
AD
330
AB
100
AcDbEntity
  8
0
 62
   240
420
 15539236
370
    35
100
AcDbVertex
100
AcDb2dVertex
 10
850.0781247874804
 20
613.246694568511
 30
0.0
  0
VERTEX
  5
AE
330
AB
100
AcDbEntity
  8
0
 62
   240
420
 15539236
370
    35
100
AcDbVertex
100
AcDb2dVertex
 10
851.1328122872168
 20
613.246694568511
 30
0.0
  0
VERTEX
  5
AF
330
AB
100
AcDbEntity
  8
0
 62
   240
420
 15539236
370
    35
100
AcDbVertex
100
AcDb2dVertex
 10
851.1328122872168
 20
607.0240383200667
 30
0.0
  0
VERTEX
  5
B0
330
AB
100
AcDbEntity
  8
0
 62
   240
420
 15539236
370
    35
100
AcDbVertex
100
AcDb2dVertex
 10
850.0781247874804
 20
607.0240383200667
 30
0.0
  0
SEQEND
  5
B1
330
AB
100
AcDbEntity
  8
0
 62
   240
420
 15539236
370
    35
  0
HATCH
  5
B2
330
78
100
AcDbEntity
  8
0
 62
   240
420
 15539236
100
AcDbHatch
 10
0.0
 20
0.0
 30
0.0
210
0.0
220
0.0
230
1.0
  2
SOLID
 70
     1
 71
     0
 91
        2
 92
        1
 93
        4
 72
     1
 10
850.0781247874804
 20
614.4009914432224
 11
850.0781247874804
 21
615.6138820679192
 72
     1
 10
850.0781247874804
 20
615.6138820679192
 11
851.1328122872168
 21
615.6138820679192
 72
     1
 10
851.1328122872168
 20
615.6138820679192
 11
851.1328122872168
 21
614.4009914432224
 72
     1
 10
851.1328122872168
 20
614.4009914432224
 11
850.0781247874804
 21
614.4009914432224
 97
        0
 92
        1
 93
        4
 72
     1
 10
850.0781247874804
 20
607.0240383200667
 11
850.0781247874804
 21
613.246694568511
 72
     1
 10
850.0781247874804
 20
613.246694568511
 11
851.1328122872168
 21
613.246694568511
 72
     1
 10
851.1328122872168
 20
613.246694568511
 11
851.1328122872168
 21
607.0240383200667
 72
     1
 10
851.1328122872168
 20
607.0240383200667
 11
850.0781247874804
 21
607.0240383200667
 97
        0
 75
     2
 76
     1
 98
        0
  0
SPLINE
  5
B3
330
78
100
AcDbEntity
  8
0
 62
   240
420
 15539236
370
    35
100
AcDbSpline
210
0.0
220
0.0
230
1.0
 70
    11
 71
     3
 72
    68
 73
    64
 74
     0
 42
0.0000000001
 43
0.0000000001
 12
1.0
 22
0.0
 32
0.0
 13
1.0
 23
0.0
 33
0.0
 40
0.0
 40
0.0
 40
0.0
 40
0.0
 40
1.0
 40
1.0
 40
1.0
 40
2.0
 40
2.0
 40
2.0
 40
3.0
 40
3.0
 40
3.0
 40
4.0
 40
4.0
 40
4.0
 40
5.0
 40
5.0
 40
5.0
 40
6.0
 40
6.0
 40
6.0
 40
7.0
 40
7.0
 40
7.0
 40
8.0
 40
8.0
 40
8.0
 40
9.0
 40
9.0
 40
9.0
 40
10.0
 40
10.0
 40
10.0
 40
11.0
 40
11.0
 40
11.0
 40
12.0
 40
12.0
 40
12.0
 40
13.0
 40
13.0
 40
13.0
 40
14.0
 40
14.0
 40
14.0
 40
15.0
 40
15.0
 40
15.0
 40
16.0
 40
16.0
 40
16.0
 40
17.0
 40
17.0
 40
17.0
 40
18.0
 40
18.0
 40
18.0
 40
19.0
 40
19.0
 40
19.0
 40
20.0
 40
20.0
 40
20.0
 40
21.0
 40
21.0
 40
21.0
 40
21.0
 10
852.5449216618638
 20
606.5084133201956
 30
0.0
 10
852.5449216618638
 20
606.5084133201956
 30
0.0
 10
853.5703122866074
 20
606.3560695702337
 30
0.0
 10
853.5703122866074
 20
606.3560695702337
 30
0.0
 10
853.6132810365966
 20
606.0396633203128
 30
0.0
 10
853.7324216615668
 20
605.8091945703703
 30
0.0
 10
853.9277341615181
 20
605.6646633204065
 30
0.0
 10
854.1894529114526
 20
605.4693508204554
 30
0.0
 10
854.5468747863632
 20
605.3716945704797
 30
0.0
 10
854.99999978625
 20
605.3716945704797
 30
0.0
 10
855.4882810361279
 20
605.3716945704797
 30
0.0
 10
855.8652341610336
 20
605.4693508204554
 30
0.0
 10
856.1308591609672
 20
605.6646633204065
 30
0.0
 10
856.3964841609009
 20
605.8599758203577
 30
0.0
 10
856.576171660856
 20
606.1334133202893
 30
0.0
 10
856.6699216608325
 20
606.4849758202014
 30
0.0
 10
856.7246091608189
 20
606.6998195701477
 30
0.0
 10
856.7499997858125
 20
607.150991445035
 30
0.0
 10
856.7460935358134
 20
607.838491444863
 30
0.0
 10
856.2851560359287
 20
607.2955226949988
 30
0.0
 10
855.7109372860723
 20
607.0240383200667
 30
0.0
 10
855.0234372862441
 20
607.0240383200667
 30
0.0
 10
854.167968536458
 20
607.0240383200667
 30
0.0
 10
853.5058591616236
 20
607.3326320699895
 30
0.0
 10
853.0371091617407
 20
607.9498195698352
 30
0.0
 10
852.5683591618579
 20
608.5670070696809
 30
0.0
 10
852.3339841619165
 20
609.3072414444958
 30
0.0
 10
852.3339841619165
 20
610.1705226942801
 30
0.0
 10
852.3339841619165
 20
610.7642726941316
 30
0.0
 10
852.4414060368896
 20
611.3121242564946
 30
0.0
 10
852.6562497868359
 20
611.8140773813692
 30
0.0
 10
852.8710935367822
 20
612.3160305062437
 30
0.0
 10
853.1826169742043
 20
612.7037258186467
 30
0.0
 10
853.5908200991023
 20
612.9771633185784
 30
0.0
 10
853.9990232240002
 20
613.2506008185101
 30
0.0
 10
854.4785154113804
 20
613.3873195684758
 30
0.0
 10
855.0292966612427
 20
613.3873195684758
 30
0.0
 10
855.7636716610591
 20
613.3873195684758
 30
0.0
 10
856.3691404109077
 20
613.0904445685501
 30
0.0
 10
856.8457029107885
 20
612.4966945686984
 30
0.0
 10
856.8457029107885
 20
612.4966945686984
 30
0.0
 10
856.8457029107885
 20
613.246694568511
 30
0.0
 10
856.8457029107885
 20
613.246694568511
 30
0.0
 10
856.8457029107885
 20
613.246694568511
 30
0.0
 10
857.8183591605454
 20
613.246694568511
 30
0.0
 10
857.8183591605454
 20
613.246694568511
 30
0.0
 10
857.8183591605454
 20
613.246694568511
 30
0.0
 10
857.8183591605454
 20
607.8677883198557
 30
0.0
 10
857.8183591605454
 20
607.8677883198557
 30
0.0
 10
857.8183591605454
 20
606.8990383200979
 30
0.0
 10
857.71972634807
 20
606.2125148827695
 30
0.0
 10
857.5224607231194
 20
605.8082180078707
 30
0.0
 10
857.3251950981687
 20
605.4039211329717
 30
0.0
 10
857.0126950982468
 20
605.0845851955515
 30
0.0
 10
856.5849607233538
 20
604.8502101956101
 30
0.0
 10
856.1572263484607
 20
604.6158351956688
 30
0.0
 10
855.6308591610923
 20
604.498647695698
 30
0.0
 10
855.0058591612485
 20
604.498647695698
 30
0.0
 10
854.263671661434
 20
604.498647695698
 30
0.0
 10
853.664062286584
 20
604.6656398831562
 30
0.0
 10
853.2070310366983
 20
604.9996242580728
 30
0.0
 10
852.7499997868125
 20
605.3336086329892
 30
0.0
 10
852.5292966618676
 20
605.8365383203635
 30
0.0
 10
852.5449216618638
 20
606.5084133201956
 30
0.0
  0
SPLINE
  5
B4
330
78
100
AcDbEntity
  8
0
 62
   240
420
 15539236
370
    35
100
AcDbSpline
210
0.0
220
0.0
230
1.0
 70
    11
 71
     3
 72
    29
 73
    25
 74
     0
 42
0.0000000001
 43
0.0000000001
 12
1.0
 22
0.0
 32
0.0
 13
1.0
 23
0.0
 33
0.0
 40
0.0
 40
0.0
 40
0.0
 40
0.0
 40
1.0
 40
1.0
 40
1.0
 40
2.0
 40
2.0
 40
2.0
 40
3.0
 40
3.0
 40
3.0
 40
4.0
 40
4.0
 40
4.0
 40
5.0
 40
5.0
 40
5.0
 40
6.0
 40
6.0
 40
6.0
 40
7.0
 40
7.0
 40
7.0
 40
8.0
 40
8.0
 40
8.0
 40
8.0
 10
853.4179685366455
 20
610.246694569261
 30
0.0
 10
853.4179685366455
 20
609.4302883194651
 30
0.0
 10
853.5800779116049
 20
608.834585194614
 30
0.0
 10
853.9042966615239
 20
608.4595851947078
 30
0.0
 10
854.2285154114428
 20
608.0845851948015
 30
0.0
 10
854.6347654113413
 20
607.8970851948484
 30
0.0
 10
855.1230466612192
 20
607.8970851948484
 30
0.0
 10
855.6074216610981
 20
607.8970851948484
 30
0.0
 10
856.0136716609966
 20
608.0836086323018
 30
0.0
 10
856.3417966609145
 20
608.4566555072086
 30
0.0
 10
856.6699216608325
 20
608.8297023821152
 30
0.0
 10
856.8339841607915
 20
609.414663319469
 30
0.0
 10
856.8339841607915
 20
610.2115383192698
 30
0.0
 10
856.8339841607915
 20
610.9732570690793
 30
0.0
 10
856.6650388483338
 20
611.5474758189358
 30
0.0
 10
856.3271482234182
 20
611.9341945688391
 30
0.0
 10
855.9892575985027
 20
612.3209133187424
 30
0.0
 10
855.5820310361045
 20
612.5142726936941
 30
0.0
 10
855.1054685362236
 20
612.5142726936941
 30
0.0
 10
854.6367185363408
 20
612.5142726936941
 30
0.0
 10
854.2382810364404
 20
612.3238430062418
 30
0.0
 10
853.9101560365225
 20
611.9429836313369
 30
0.0
 10
853.5820310366045
 20
611.5621242564322
 30
0.0
 10
853.4179685366455
 20
610.9966945690735
 30
0.0
 10
853.4179685366455
 20
610.246694569261
 30
0.0
  0
HATCH
  5
B5
330
78
100
AcDbEntity
  8
0
 62
   240
420
 15539236
100
AcDbHatch
 10
0.0
 20
0.0
 30
0.0
210
0.0
220
0.0
230
1.0
  2
SOLID
 70
     1
 71
     0
 91
        2
 92
        1
 93
        1
 72
     4
 94
        3
 73
     0
 74
     1
 95
       68
 96
       64
 40
0.0
 40
0.0
 40
0.0
 40
0.0
 40
1.0
 40
1.0
 40
1.0
 40
2.0
 40
2.0
 40
2.0
 40
3.0
 40
3.0
 40
3.0
 40
4.0
 40
4.0
 40
4.0
 40
5.0
 40
5.0
 40
5.0
 40
6.0
 40
6.0
 40
6.0
 40
7.0
 40
7.0
 40
7.0
 40
8.0
 40
8.0
 40
8.0
 40
9.0
 40
9.0
 40
9.0
 40
10.0
 40
10.0
 40
10.0
 40
11.0
 40
11.0
 40
11.0
 40
12.0
 40
12.0
 40
12.0
 40
13.0
 40
13.0
 40
13.0
 40
14.0
 40
14.0
 40
14.0
 40
15.0
 40
15.0
 40
15.0
 40
16.0
 40
16.0
 40
16.0
 40
17.0
 40
17.0
 40
17.0
 40
18.0
 40
18.0
 40
18.0
 40
19.0
 40
19.0
 40
19.0
 40
20.0
 40
20.0
 40
20.0
 40
21.0
 40
21.0
 40
21.0
 40
21.0
 10
852.5449216618638
 20
606.5084133201956
 10
852.5449216618638
 20
606.5084133201956
 10
853.5703122866074
 20
606.3560695702337
 10
853.5703122866074
 20
606.3560695702337
 10
853.6132810365966
 20
606.0396633203128
 10
853.7324216615668
 20
605.8091945703703
 10
853.9277341615181
 20
605.6646633204065
 10
854.1894529114526
 20
605.4693508204554
 10
854.5468747863632
 20
605.3716945704797
 10
854.99999978625
 20
605.3716945704797
 10
855.4882810361279
 20
605.3716945704797
 10
855.8652341610336
 20
605.4693508204554
 10
856.1308591609672
 20
605.6646633204065
 10
856.3964841609009
 20
605.8599758203577
 10
856.576171660856
 20
606.1334133202893
 10
856.6699216608325
 20
606.4849758202014
 10
856.7246091608189
 20
606.6998195701477
 10
856.7499997858125
 20
607.150991445035
 10
856.7460935358134
 20
607.838491444863
 10
856.2851560359287
 20
607.2955226949988
 10
855.7109372860723
 20
607.0240383200667
 10
855.0234372862441
 20
607.0240383200667
 10
854.167968536458
 20
607.0240383200667
 10
853.5058591616236
 20
607.3326320699895
 10
853.0371091617407
 20
607.9498195698352
 10
852.5683591618579
 20
608.5670070696809
 10
852.3339841619165
 20
609.3072414444958
 10
852.3339841619165
 20
610.1705226942801
 10
852.3339841619165
 20
610.7642726941316
 10
852.4414060368896
 20
611.3121242564946
 10
852.6562497868359
 20
611.8140773813692
 10
852.8710935367822
 20
612.3160305062437
 10
853.1826169742043
 20
612.7037258186467
 10
853.5908200991023
 20
612.9771633185784
 10
853.9990232240002
 20
613.2506008185101
 10
854.4785154113804
 20
613.3873195684758
 10
855.0292966612427
 20
613.3873195684758
 10
855.7636716610591
 20
613.3873195684758
 10
856.3691404109077
 20
613.0904445685501
 10
856.8457029107885
 20
612.4966945686984
 10
856.8457029107885
 20
612.4966945686984
 10
856.8457029107885
 20
613.246694568511
 10
856.8457029107885
 20
613.246694568511
 10
856.8457029107885
 20
613.246694568511
 10
857.8183591605454
 20
613.246694568511
 10
857.8183591605454
 20
613.246694568511
 10
857.8183591605454
 20
613.246694568511
 10
857.8183591605454
 20
607.8677883198557
 10
857.8183591605454
 20
607.8677883198557
 10
857.8183591605454
 20
606.8990383200979
 10
857.71972634807
 20
606.2125148827695
 10
857.5224607231194
 20
605.8082180078707
 10
857.3251950981687
 20
605.4039211329717
 10
857.0126950982468
 20
605.0845851955515
 10
856.5849607233538
 20
604.8502101956101
 10
856.1572263484607
 20
604.6158351956688
 10
855.6308591610923
 20
604.498647695698
 10
855.0058591612485
 20
604.498647695698
 10
854.263671661434
 20
604.498647695698
 10
853.664062286584
 20
604.6656398831562
 10
853.2070310366983
 20
604.9996242580728
 10
852.7499997868125
 20
605.3336086329892
 10
852.5292966618676
 20
605.8365383203635
 10
852.5449216618638
 20
606.5084133201956
 97
        0
 97
        0
 92
        1
 93
        1
 72
     4
 94
        3
 73
     0
 74
     1
 95
       29
 96
       25
 40
0.0
 40
0.0
 40
0.0
 40
0.0
 40
1.0
 40
1.0
 40
1.0
 40
2.0
 40
2.0
 40
2.0
 40
3.0
 40
3.0
 40
3.0
 40
4.0
 40
4.0
 40
4.0
 40
5.0
 40
5.0
 40
5.0
 40
6.0
 40
6.0
 40
6.0
 40
7.0
 40
7.0
 40
7.0
 40
8.0
 40
8.0
 40
8.0
 40
8.0
 10
853.4179685366455
 20
610.246694569261
 10
853.4179685366455
 20
609.4302883194651
 10
853.5800779116049
 20
608.834585194614
 10
853.9042966615239
 20
608.4595851947078
 10
854.2285154114428
 20
608.0845851948015
 10
854.6347654113413
 20
607.8970851948484
 10
855.1230466612192
 20
607.8970851948484
 10
855.6074216610981
 20
607.8970851948484
 10
856.0136716609966
 20
608.0836086323018
 10
856.3417966609145
 20
608.4566555072086
 10
856.6699216608325
 20
608.8297023821152
 10
856.8339841607915
 20
609.414663319469
 10
856.8339841607915
 20
610.2115383192698
 10
856.8339841607915
 20
610.9732570690793
 10
856.6650388483338
 20
611.5474758189358
 10
856.3271482234182
 20
611.9341945688391
 10
855.9892575985027
 20
612.3209133187424
 10
855.5820310361045
 20
612.5142726936941
 10
855.1054685362236
 20
612.5142726936941
 10
854.6367185363408
 20
612.5142726936941
 10
854.2382810364404
 20
612.3238430062418
 10
853.9101560365225
 20
611.9429836313369
 10
853.5820310366045
 20
611.5621242564322
 10
853.4179685366455
 20
610.9966945690735
 10
853.4179685366455
 20
610.246694569261
 97
        0
 97
        0
 75
     2
 76
     1
 98
        0
  0
SPLINE
  5
B6
330
78
100
AcDbEntity
  8
0
 62
   240
420
 15539236
370
    35
100
AcDbSpline
210
0.0
220
0.0
230
1.0
 70
    11
 71
     3
 72
    56
 73
    52
 74
     0
 42
0.0000000001
 43
0.0000000001
 12
1.0
 22
0.0
 32
0.0
 13
1.0
 23
0.0
 33
0.0
 40
0.0
 40
0.0
 40
0.0
 40
0.0
 40
1.0
 40
1.0
 40
1.0
 40
2.0
 40
2.0
 40
2.0
 40
3.0
 40
3.0
 40
3.0
 40
4.0
 40
4.0
 40
4.0
 40
5.0
 40
5.0
 40
5.0
 40
6.0
 40
6.0
 40
6.0
 40
7.0
 40
7.0
 40
7.0
 40
8.0
 40
8.0
 40
8.0
 40
9.0
 40
9.0
 40
9.0
 40
10.0
 40
10.0
 40
10.0
 40
11.0
 40
11.0
 40
11.0
 40
12.0
 40
12.0
 40
12.0
 40
13.0
 40
13.0
 40
13.0
 40
14.0
 40
14.0
 40
14.0
 40
15.0
 40
15.0
 40
15.0
 40
16.0
 40
16.0
 40
16.0
 40
17.0
 40
17.0
 40
17.0
 40
17.0
 10
859.412109160147
 20
607.0240383200667
 30
0.0
 10
859.412109160147
 20
607.0240383200667
 30
0.0
 10
859.412109160147
 20
615.6138820679192
 30
0.0
 10
859.412109160147
 20
615.6138820679192
 30
0.0
 10
859.412109160147
 20
615.6138820679192
 30
0.0
 10
860.4667966598832
 20
615.6138820679192
 30
0.0
 10
860.4667966598832
 20
615.6138820679192
 30
0.0
 10
860.4667966598832
 20
615.6138820679192
 30
0.0
 10
860.4667966598832
 20
612.5318508186897
 30
0.0
 10
860.4667966598832
 20
612.5318508186897
 30
0.0
 10
860.9589841597602
 20
613.1021633185471
 30
0.0
 10
861.5800779096049
 20
613.3873195684758
 30
0.0
 10
862.3300779094175
 20
613.3873195684758
 30
0.0
 10
862.7910154093022
 20
613.3873195684758
 30
0.0
 10
863.1914060342021
 20
613.2964992559986
 30
0.0
 10
863.5312497841172
 20
613.114858631044
 30
0.0
 10
863.8710935340322
 20
612.9332180060893
 30
0.0
 10
864.1142575964714
 20
612.6822414436521
 30
0.0
 10
864.2607419714348
 20
612.3619289437322
 30
0.0
 10
864.4072263463981
 20
612.0416164438122
 30
0.0
 10
864.4804685338798
 20
611.5767726939284
 30
0.0
 10
864.4804685338798
 20
610.9673976940808
 30
0.0
 10
864.4804685338798
 20
610.9673976940808
 30
0.0
 10
864.4804685338798
 20
607.0240383200667
 30
0.0
 10
864.4804685338798
 20
607.0240383200667
 30
0.0
 10
864.4804685338798
 20
607.0240383200667
 30
0.0
 10
863.4257810341435
 20
607.0240383200667
 30
0.0
 10
863.4257810341435
 20
607.0240383200667
 30
0.0
 10
863.4257810341435
 20
607.0240383200667
 30
0.0
 10
863.4257810341435
 20
610.9673976940808
 30
0.0
 10
863.4257810341435
 20
610.9673976940808
 30
0.0
 10
863.4257810341435
 20
611.494741443949
 30
0.0
 10
863.3115232216721
 20
611.8785305063531
 30
0.0
 10
863.0830075967292
 20
612.1187648812929
 30
0.0
 10
862.8544919717864
 20
612.3589992562329
 30
0.0
 10
862.5312497843672
 20
612.4791164437029
 30
0.0
 10
862.1132810344717
 20
612.4791164437029
 30
0.0
 10
861.8007810345498
 20
612.4791164437029
 30
0.0
 10
861.5068357221232
 20
612.3980617562231
 30
0.0
 10
861.2314450971921
 20
612.2359523812637
 30
0.0
 10
860.9560544722609
 20
612.0738430063042
 30
0.0
 10
860.75976540981
 20
611.8541164438591
 30
0.0
 10
860.6425779098394
 20
611.5767726939284
 30
0.0
 10
860.5253904098686
 20
611.2994289439978
 30
0.0
 10
860.4667966598832
 20
610.9166164440935
 30
0.0
 10
860.4667966598832
 20
610.4283351942156
 30
0.0
 10
860.4667966598832
 20
610.4283351942156
 30
0.0
 10
860.4667966598832
 20
607.0240383200667
 30
0.0
 10
860.4667966598832
 20
607.0240383200667
 30
0.0
 10
860.4667966598832
 20
607.0240383200667
 30
0.0
 10
859.412109160147
 20
607.0240383200667
 30
0.0
 10
859.412109160147
 20
607.0240383200667
 30
0.0
  0
HATCH
  5
B7
330
78
100
AcDbEntity
  8
0
 62
   240
420
 15539236
100
AcDbHatch
 10
0.0
 20
0.0
 30
0.0
210
0.0
220
0.0
230
1.0
  2
SOLID
 70
     1
 71
     0
 91
        1
 92
        1
 93
        1
 72
     4
 94
        3
 73
     0
 74
     1
 95
       56
 96
       52
 40
0.0
 40
0.0
 40
0.0
 40
0.0
 40
1.0
 40
1.0
 40
1.0
 40
2.0
 40
2.0
 40
2.0
 40
3.0
 40
3.0
 40
3.0
 40
4.0
 40
4.0
 40
4.0
 40
5.0
 40
5.0
 40
5.0
 40
6.0
 40
6.0
 40
6.0
 40
7.0
 40
7.0
 40
7.0
 40
8.0
 40
8.0
 40
8.0
 40
9.0
 40
9.0
 40
9.0
 40
10.0
 40
10.0
 40
10.0
 40
11.0
 40
11.0
 40
11.0
 40
12.0
 40
12.0
 40
12.0
 40
13.0
 40
13.0
 40
13.0
 40
14.0
 40
14.0
 40
14.0
 40
15.0
 40
15.0
 40
15.0
 40
16.0
 40
16.0
 40
16.0
 40
17.0
 40
17.0
 40
17.0
 40
17.0
 10
859.412109160147
 20
607.0240383200667
 10
859.412109160147
 20
607.0240383200667
 10
859.412109160147
 20
615.6138820679192
 10
859.412109160147
 20
615.6138820679192
 10
859.412109160147
 20
615.6138820679192
 10
860.4667966598832
 20
615.6138820679192
 10
860.4667966598832
 20
615.6138820679192
 10
860.4667966598832
 20
615.6138820679192
 10
860.4667966598832
 20
612.5318508186897
 10
860.4667966598832
 20
612.5318508186897
 10
860.9589841597602
 20
613.1021633185471
 10
861.5800779096049
 20
613.3873195684758
 10
862.3300779094175
 20
613.3873195684758
 10
862.7910154093022
 20
613.3873195684758
 10
863.1914060342021
 20
613.2964992559986
 10
863.5312497841172
 20
613.114858631044
 10
863.8710935340322
 20
612.9332180060893
 10
864.1142575964714
 20
612.6822414436521
 10
864.2607419714348
 20
612.3619289437322
 10
864.4072263463981
 20
612.0416164438122
 10
864.4804685338798
 20
611.5767726939284
 10
864.4804685338798
 20
610.9673976940808
 10
864.4804685338798
 20
610.9673976940808
 10
864.4804685338798
 20
607.0240383200667
 10
864.4804685338798
 20
607.0240383200667
 10
864.4804685338798
 20
607.0240383200667
 10
863.4257810341435
 20
607.0240383200667
 10
863.4257810341435
 20
607.0240383200667
 10
863.4257810341435
 20
607.0240383200667
 10
863.4257810341435
 20
610.9673976940808
 10
863.4257810341435
 20
610.9673976940808
 10
863.4257810341435
 20
611.494741443949
 10
863.3115232216721
 20
611.8785305063531
 10
863.0830075967292
 20
612.1187648812929
 10
862.8544919717864
 20
612.3589992562329
 10
862.5312497843672
 20
612.4791164437029
 10
862.1132810344717
 20
612.4791164437029
 10
861.8007810345498
 20
612.4791164437029
 10
861.5068357221232
 20
612.3980617562231
 10
861.2314450971921
 20
612.2359523812637
 10
860.9560544722609
 20
612.0738430063042
 10
860.75976540981
 20
611.8541164438591
 10
860.6425779098394
 20
611.5767726939284
 10
860.5253904098686
 20
611.2994289439978
 10
860.4667966598832
 20
610.9166164440935
 10
860.4667966598832
 20
610.4283351942156
 10
860.4667966598832
 20
610.4283351942156
 10
860.4667966598832
 20
607.0240383200667
 10
860.4667966598832
 20
607.0240383200667
 10
860.4667966598832
 20
607.0240383200667
 10
859.412109160147
 20
607.0240383200667
 10
859.412109160147
 20
607.0240383200667
 97
        0
 97
        0
 75
     2
 76
     1
 98
        0
  0
SPLINE
  5
B8
330
78
100
AcDbEntity
  8
0
 62
   240
420
 15539236
370
    35
100
AcDbSpline
210
0.0
220
0.0
230
1.0
 70
    11
 71
     3
 72
    65
 73
    61
 74
     0
 42
0.0000000001
 43
0.0000000001
 12
1.0
 22
0.0
 32
0.0
 13
1.0
 23
0.0
 33
0.0
 40
0.0
 40
0.0
 40
0.0
 40
0.0
 40
1.0
 40
1.0
 40
1.0
 40
2.0
 40
2.0
 40
2.0
 40
3.0
 40
3.0
 40
3.0
 40
4.0
 40
4.0
 40
4.0
 40
5.0
 40
5.0
 40
5.0
 40
6.0
 40
6.0
 40
6.0
 40
7.0
 40
7.0
 40
7.0
 40
8.0
 40
8.0
 40
8.0
 40
9.0
 40
9.0
 40
9.0
 40
10.0
 40
10.0
 40
10.0
 40
11.0
 40
11.0
 40
11.0
 40
12.0
 40
12.0
 40
12.0
 40
13.0
 40
13.0
 40
13.0
 40
14.0
 40
14.0
 40
14.0
 40
15.0
 40
15.0
 40
15.0
 40
16.0
 40
16.0
 40
16.0
 40
17.0
 40
17.0
 40
17.0
 40
18.0
 40
18.0
 40
18.0
 40
19.0
 40
19.0
 40
19.0
 40
20.0
 40
20.0
 40
20.0
 40
20.0
 10
868.3886716579028
 20
607.9673976948308
 30
0.0
 10
868.3886716579028
 20
607.9673976948308
 30
0.0
 10
868.5410154078647
 20
607.0357570700637
 30
0.0
 10
868.5410154078647
 20
607.0357570700637
 30
0.0
 10
868.244140407939
 20
606.9732570700794
 30
0.0
 10
867.9785154080054
 20
606.9420070700871
 30
0.0
 10
867.7441404080639
 20
606.9420070700871
 30
0.0
 10
867.3613279081596
 20
606.9420070700871
 30
0.0
 10
867.0644529082339
 20
607.002553945072
 30
0.0
 10
866.8535154082866
 20
607.1236476950418
 30
0.0
 10
866.6425779083394
 20
607.2447414450115
 30
0.0
 10
866.4941404083764
 20
607.4039211324717
 30
0.0
 10
866.4082029083979
 20
607.6011867574224
 30
0.0
 10
866.3222654084194
 20
607.7984523823731
 30
0.0
 10
866.2792966584302
 20
608.2134914447693
 30
0.0
 10
866.2792966584302
 20
608.8463039446111
 30
0.0
 10
866.2792966584302
 20
608.8463039446111
 30
0.0
 10
866.2792966584302
 20
612.4263820687161
 30
0.0
 10
866.2792966584302
 20
612.4263820687161
 30
0.0
 10
866.2792966584302
 20
612.4263820687161
 30
0.0
 10
865.5058591586235
 20
612.4263820687161
 30
0.0
 10
865.5058591586235
 20
612.4263820687161
 30
0.0
 10
865.5058591586235
 20
612.4263820687161
 30
0.0
 10
865.5058591586235
 20
613.246694568511
 30
0.0
 10
865.5058591586235
 20
613.246694568511
 30
0.0
 10
865.5058591586235
 20
613.246694568511
 30
0.0
 10
866.2792966584302
 20
613.246694568511
 30
0.0
 10
866.2792966584302
 20
613.246694568511
 30
0.0
 10
866.2792966584302
 20
613.246694568511
 30
0.0
 10
866.2792966584302
 20
614.7877101931257
 30
0.0
 10
866.2792966584302
 20
614.7877101931257
 30
0.0
 10
866.2792966584302
 20
614.7877101931257
 30
0.0
 10
867.3281247831679
 20
615.4205226929676
 30
0.0
 10
867.3281247831679
 20
615.4205226929676
 30
0.0
 10
867.3281247831679
 20
615.4205226929676
 30
0.0
 10
867.3281247831679
 20
613.246694568511
 30
0.0
 10
867.3281247831679
 20
613.246694568511
 30
0.0
 10
867.3281247831679
 20
613.246694568511
 30
0.0
 10
868.3886716579028
 20
613.246694568511
 30
0.0
 10
868.3886716579028
 20
613.246694568511
 30
0.0
 10
868.3886716579028
 20
613.246694568511
 30
0.0
 10
868.3886716579028
 20
612.4263820687161
 30
0.0
 10
868.3886716579028
 20
612.4263820687161
 30
0.0
 10
868.3886716579028
 20
612.4263820687161
 30
0.0
 10
867.3281247831679
 20
612.4263820687161
 30
0.0
 10
867.3281247831679
 20
612.4263820687161
 30
0.0
 10
867.3281247831679
 20
612.4263820687161
 30
0.0
 10
867.3281247831679
 20
608.7877101946258
 30
0.0
 10
867.3281247831679
 20
608.7877101946258
 30
0.0
 10
867.3281247831679
 20
608.4869289447009
 30
0.0
 10
867.3466794706633
 20
608.2935695697493
 30
0.0
 10
867.3837888456541
 20
608.2076320697707
 30
0.0
 10
867.4208982206447
 20
608.1216945697922
 30
0.0
 10
867.4814450956296
 20
608.0533351948093
 30
0.0
 10
867.5654294706086
 20
608.002553944822
 30
0.0
 10
867.6494138455877
 20
607.9517726948347
 30
0.0
 10
867.7695310330575
 20
607.9263820698411
 30
0.0
 10
867.9257810330186
 20
607.9263820698411
 30
0.0
 10
868.0429685329892
 20
607.9263820698411
 30
0.0
 10
868.1972654079507
 20
607.9400539448377
 30
0.0
 10
868.3886716579028
 20
607.9673976948308
 30
0.0
  0
HATCH
  5
B9
330
78
100
AcDbEntity
  8
0
 62
   240
420
 15539236
100
AcDbHatch
 10
0.0
 20
0.0
 30
0.0
210
0.0
220
0.0
230
1.0
  2
SOLID
 70
     1
 71
     0
 91
        1
 92
        1
 93
        1
 72
     4
 94
        3
 73
     0
 74
     1
 95
       65
 96
       61
 40
0.0
 40
0.0
 40
0.0
 40
0.0
 40
1.0
 40
1.0
 40
1.0
 40
2.0
 40
2.0
 40
2.0
 40
3.0
 40
3.0
 40
3.0
 40
4.0
 40
4.0
 40
4.0
 40
5.0
 40
5.0
 40
5.0
 40
6.0
 40
6.0
 40
6.0
 40
7.0
 40
7.0
 40
7.0
 40
8.0
 40
8.0
 40
8.0
 40
9.0
 40
9.0
 40
9.0
 40
10.0
 40
10.0
 40
10.0
 40
11.0
 40
11.0
 40
11.0
 40
12.0
 40
12.0
 40
12.0
 40
13.0
 40
13.0
 40
13.0
 40
14.0
 40
14.0
 40
14.0
 40
15.0
 40
15.0
 40
15.0
 40
16.0
 40
16.0
 40
16.0
 40
17.0
 40
17.0
 40
17.0
 40
18.0
 40
18.0
 40
18.0
 40
19.0
 40
19.0
 40
19.0
 40
20.0
 40
20.0
 40
20.0
 40
20.0
 10
868.3886716579028
 20
607.9673976948308
 10
868.3886716579028
 20
607.9673976948308
 10
868.5410154078647
 20
607.0357570700637
 10
868.5410154078647
 20
607.0357570700637
 10
868.244140407939
 20
606.9732570700794
 10
867.9785154080054
 20
606.9420070700871
 10
867.7441404080639
 20
606.9420070700871
 10
867.3613279081596
 20
606.9420070700871
 10
867.0644529082339
 20
607.002553945072
 10
866.8535154082866
 20
607.1236476950418
 10
866.6425779083394
 20
607.2447414450115
 10
866.4941404083764
 20
607.4039211324717
 10
866.4082029083979
 20
607.6011867574224
 10
866.3222654084194
 20
607.7984523823731
 10
866.2792966584302
 20
608.2134914447693
 10
866.2792966584302
 20
608.8463039446111
 10
866.2792966584302
 20
608.8463039446111
 10
866.2792966584302
 20
612.4263820687161
 10
866.2792966584302
 20
612.4263820687161
 10
866.2792966584302
 20
612.4263820687161
 10
865.5058591586235
 20
612.4263820687161
 10
865.5058591586235
 20
612.4263820687161
 10
865.5058591586235
 20
612.4263820687161
 10
865.5058591586235
 20
613.246694568511
 10
865.5058591586235
 20
613.246694568511
 10
865.5058591586235
 20
613.246694568511
 10
866.2792966584302
 20
613.246694568511
 10
866.2792966584302
 20
613.246694568511
 10
866.2792966584302
 20
613.246694568511
 10
866.2792966584302
 20
614.7877101931257
 10
866.2792966584302
 20
614.7877101931257
 10
866.2792966584302
 20
614.7877101931257
 10
867.3281247831679
 20
615.4205226929676
 10
867.3281247831679
 20
615.4205226929676
 10
867.3281247831679
 20
615.4205226929676
 10
867.3281247831679
 20
613.246694568511
 10
867.3281247831679
 20
613.246694568511
 10
867.3281247831679
 20
613.246694568511
 10
868.3886716579028
 20
613.246694568511
 10
868.3886716579028
 20
613.246694568511
 10
868.3886716579028
 20
613.246694568511
 10
868.3886716579028
 20
612.4263820687161
 10
868.3886716579028
 20
612.4263820687161
 10
868.3886716579028
 20
612.4263820687161
 10
867.3281247831679
 20
612.4263820687161
 10
867.3281247831679
 20
612.4263820687161
 10
867.3281247831679
 20
612.4263820687161
 10
867.3281247831679
 20
608.7877101946258
 10
867.3281247831679
 20
608.7877101946258
 10
867.3281247831679
 20
608.4869289447009
 10
867.3466794706633
 20
608.2935695697493
 10
867.3837888456541
 20
608.2076320697707
 10
867.4208982206447
 20
608.1216945697922
 10
867.4814450956296
 20
608.0533351948093
 10
867.5654294706086
 20
608.002553944822
 10
867.6494138455877
 20
607.9517726948347
 10
867.7695310330575
 20
607.9263820698411
 10
867.9257810330186
 20
607.9263820698411
 10
868.0429685329892
 20
607.9263820698411
 10
868.1972654079507
 20
607.9400539448377
 10
868.3886716579028
 20
607.9673976948308
 97
        0
 97
        0
 75
     2
 76
     1
 98
        0
  0
POLYLINE
  5
BA
330
78
100
AcDbEntity
  8
0
 62
   240
420
 15539236
370
    35
100
AcDb2dPolyline
 66
     1
 10
0.0
 20
0.0
 30
0.0
  0
VERTEX
  5
BB
330
BA
100
AcDbEntity
  8
0
 62
   240
420
 15539236
370
    35
100
AcDbVertex
100
AcDb2dVertex
 10
882.0644529044839
 20
615.1568508180335
 30
0.0
  0
VERTEX
  5
BC
330
BA
100
AcDbEntity
  8
0
 62
   240
420
 15539236
370
    35
100
AcDbVertex
100
AcDb2dVertex
 10
877.9042966555239
 20
606.842397695112
 30
0.0
  0
VERTEX
  5
BD
330
BA
100
AcDbEntity
  8
0
 62
   240
420
 15539236
370
    35
100
AcDbVertex
100
AcDb2dVertex
 10
873.7441404065639
 20
615.1568508180335
 30
0.0
  0
VERTEX
  5
BE
330
BA
100
AcDbEntity
  8
0
 62
   240
420
 15539236
370
    35
100
AcDbVertex
100
AcDb2dVertex
 10
882.0644529044839
 20
615.1568508180335
 30
0.0
  0
SEQEND
  5
BF
330
BA
100
AcDbEntity
  8
0
 62
   240
420
 15539236
370
    35
  0
HATCH
  5
C0
330
78
100
AcDbEntity
  8
0
 62
   240
420
 15539236
100
AcDbHatch
 10
0.0
 20
0.0
 30
0.0
210
0.0
220
0.0
230
1.0
  2
SOLID
 70
     1
 71
     0
 91
        1
 92
        1
 93
        3
 72
     1
 10
882.0644529044839
 20
615.1568508180335
 11
877.9042966555239
 21
606.842397695112
 72
     1
 10
877.9042966555239
 20
606.842397695112
 11
873.7441404065639
 21
615.1568508180335
 72
     1
 10
873.7441404065639
 20
615.1568508180335
 11
882.0644529044839
 21
615.1568508180335
 97
        0
 75
     2
 76
     1
 98
        0
  0
ENDBLK
  5
7B
330
78
100
AcDbEntity
  8
0
100
AcDbBlockEnd
  0
ENDSEC
  0
SECTION
  2
ENTITIES
  0
INSERT
  5
41
330
1F
100
AcDbEntity
  8
0
100
AcDbBlockReference
  2
block 2
 10
0.0
 20
0.0
 30
0.0
  0
INSERT
  5
46
330
1F
100
AcDbEntity
  8
0
100
AcDbBlockReference
  2
block 3
 10
0.0
 20
0.0
 30
0.0
  0
INSERT
  5
51
330
1F
100
AcDbEntity
  8
0
100
AcDbBlockReference
  2
block 4
 10
0.0
 20
0.0
 30
0.0
  0
INSERT
  5
56
330
1F
100
AcDbEntity
  8
0
100
AcDbBlockReference
  2
block 5
 10
0.0
 20
0.0
 30
0.0
  0
INSERT
  5
5B
330
1F
100
AcDbEntity
  8
0
100
AcDbBlockReference
  2
block 6
 10
0.0
 20
0.0
 30
0.0
  0
INSERT
  5
60
330
1F
100
AcDbEntity
  8
0
100
AcDbBlockReference
  2
block 7
 10
0.0
 20
0.0
 30
0.0
  0
INSERT
  5
65
330
1F
100
AcDbEntity
  8
0
100
AcDbBlockReference
  2
block 8
 10
0.0
 20
0.0
 30
0.0
  0
INSERT
  5
6A
330
1F
100
AcDbEntity
  8
0
100
AcDbBlockReference
  2
block 9
 10
0.0
 20
0.0
 30
0.0
  0
INSERT
  5
6F
330
1F
100
AcDbEntity
  8
0
100
AcDbBlockReference
  2
block 10
 10
0.0
 20
0.0
 30
0.0
  0
INSERT
  5
74
330
1F
100
AcDbEntity
  8
0
100
AcDbBlockReference
  2
block 11
 10
0.0
 20
0.0
 30
0.0
  0
INSERT
  5
79
330
1F
100
AcDbEntity
  8
0
100
AcDbBlockReference
  2
block 12
 10
0.0
 20
0.0
 30
0.0
  0
ENDSEC
  0
SECTION
  2
OBJECTS
  0
DICTIONARY
  5
C
330
0
100
AcDbDictionary
281
     1
  3
ACAD_GROUP
350
D
  3
ACAD_LAYOUT
350
1A
  3
ACAD_MATERIAL
350
3B
  3
ACAD_MLEADERSTYLE
350
C2
  3
ACAD_MLINESTYLE
350
17
  3
ACAD_PLOTSETTINGS
350
19
  3
ACAD_PLOTSTYLENAME
350
E
  3
ACAD_TABLESTYLE
350
C1
  3
ACAD_VISUALSTYLE
350
2A
  0
SUN
  5
3F
330
29
100
AcDbSun
 90
        1
290
     0
 63
     7
421
 16777215
 40
1.0
291
     1
 91
  2455826
 92
 54000000
292
     0
 70
     2
 71
   256
280
     1
  0
DICTIONARY
  5
D
102
{ACAD_REACTORS
330
C
102
}
330
C
100
AcDbDictionary
281
     1
  0
DICTIONARY
  5
1A
102
{ACAD_REACTORS
330
C
102
}
330
C
100
AcDbDictionary
281
     1
  3
Layout1
350
1E
  3
Layout2
350
26
  3
Model
350
22
  0
DICTIONARY
  5
3B
102
{ACAD_REACTORS
330
C
102
}
330
C
100
AcDbDictionary
281
     1
  3
ByBlock
350
3D
  3
ByLayer
350
3C
  3
Global
350
3E
  0
DICTIONARY
  5
C2
102
{ACAD_REACTORS
330
C
102
}
330
C
100
AcDbDictionary
281
     1
  0
DICTIONARY
  5
17
102
{ACAD_REACTORS
330
C
102
}
330
C
100
AcDbDictionary
281
     1
  3
Standard
350
18
  0
DICTIONARY
  5
19
102
{ACAD_REACTORS
330
C
102
}
330
C
100
AcDbDictionary
281
     1
  0
ACDBDICTIONARYWDFLT
  5
E
102
{ACAD_REACTORS
330
C
102
}
330
C
100
AcDbDictionary
281
     1
  3
Normal
350
F
100
AcDbDictionaryWithDefault
340
F
  0
DICTIONARY
  5
C1
102
{ACAD_REACTORS
330
C
102
}
330
C
100
AcDbDictionary
281
     1
  0
DICTIONARY
  5
2A
102
{ACAD_REACTORS
330
C
102
}
330
C
100
AcDbDictionary
281
     1
  3
2dWireframe
350
2F
  3
3D Hidden
350
31
  3
3dWireframe
350
30
  3
Basic
350
32
  3
Brighten
350
36
  3
ColorChange
350
3A
  3
Conceptual
350
34
  3
Dim
350
35
  3
Facepattern
350
39
  3
Flat
350
2B
  3
FlatWithEdges
350
2C
  3
Gouraud
350
2D
  3
GouraudWithEdges
350
2E
  3
Linepattern
350
38
  3
Realistic
350
33
  3
Thicken
350
37
  0
LAYOUT
  5
1E
102
{ACAD_REACTORS
330
1A
102
}
330
1A
100
AcDbPlotSettings
  1

  2
none_device
  4

  6

 40
0.0
 41
0.0
 42
0.0
 43
0.0
 44
0.0
 45
0.0
 46
0.0
 47
0.0
 48
0.0
 49
0.0
140
0.0
141
0.0
142
1.0
143
1.0
 70
   688
 72
     0
 73
     0
 74
     5
  7

 75
    16
 76
     0
 77
     2
 78
   300
147
1.0
148
0.0
149
0.0
100
AcDbLayout
  1
Layout1
 70
     1
 71
     1
 10
0.0
 20
0.0
 11
12.0
 21
9.0
 12
0.0
 22
0.0
 32
0.0
 14
1.000000000000000E+20
 24
1.000000000000000E+20
 34
1.000000000000000E+20
 15
-1.000000000000000E+20
 25
-1.000000000000000E+20
 35
-1.000000000000000E+20
146
0.0
 13
0.0
 23
0.0
 33
0.0
 16
1.0
 26
0.0
 36
0.0
 17
0.0
 27
1.0
 37
0.0
 76
     0
330
1B
  0
LAYOUT
  5
26
102
{ACAD_REACTORS
330
1A
102
}
330
1A
100
AcDbPlotSettings
  1

  2
none_device
  4

  6

 40
0.0
 41
0.0
 42
0.0
 43
0.0
 44
0.0
 45
0.0
 46
0.0
 47
0.0
 48
0.0
 49
0.0
140
0.0
141
0.0
142
1.0
143
1.0
 70
   688
 72
     0
 73
     0
 74
     5
  7

 75
    16
 76
     0
 77
     2
 78
   300
147
1.0
148
0.0
149
0.0
100
AcDbLayout
  1
Layout2
 70
     1
 71
     2
 10
0.0
 20
0.0
 11
0.0
 21
0.0
 12
0.0
 22
0.0
 32
0.0
 14
0.0
 24
0.0
 34
0.0
 15
0.0
 25
0.0
 35
0.0
146
0.0
 13
0.0
 23
0.0
 33
0.0
 16
1.0
 26
0.0
 36
0.0
 17
0.0
 27
1.0
 37
0.0
 76
     0
330
23
  0
LAYOUT
  5
22
102
{ACAD_REACTORS
330
1A
102
}
330
1A
100
AcDbPlotSettings
  1

  2
none_device
  4

  6

 40
0.0
 41
0.0
 42
0.0
 43
0.0
 44
0.0
 45
0.0
 46
0.0
 47
0.0
 48
0.0
 49
0.0
140
0.0
141
0.0
142
1.0
143
1.0
 70
  1712
 72
     0
 73
     0
 74
     0
  7

 75
     0
 76
     0
 77
     2
 78
   300
147
1.0
148
0.0
149
0.0
100
AcDbLayout
  1
Model
 70
     1
 71
     0
 10
0.0
 20
0.0
 11
12.0
 21
9.0
 12
0.0
 22
0.0
 32
0.0
 14
1.000000000000000E+20
 24
1.000000000000000E+20
 34
1.000000000000000E+20
 15
-1.000000000000000E+20
 25
-1.000000000000000E+20
 35
-1.000000000000000E+20
146
0.0
 13
0.0
 23
0.0
 33
0.0
 16
1.0
 26
0.0
 36
0.0
 17
0.0
 27
1.0
 37
0.0
 76
     0
330
1F
331
29
  0
MATERIAL
  5
3D
102
{ACAD_REACTORS
330
3B
102
}
330
3B
100
AcDbMaterial
  1
ByBlock
 72
     1
 94
      127
  0
MATERIAL
  5
3C
102
{ACAD_REACTORS
330
3B
102
}
330
3B
100
AcDbMaterial
  1
ByLayer
 72
     1
 94
      127
  0
MATERIAL
  5
3E
102
{ACAD_REACTORS
330
3B
102
}
330
3B
100
AcDbMaterial
  1
Global
 72
     1
 94
      127
  0
MLINESTYLE
  5
18
102
{ACAD_REACTORS
330
17
102
}
330
17
100
AcDbMlineStyle
  2
Standard
 70
     0
  3

 62
   256
 51
90.0
 52
90.0
 71
     2
 49
0.5
 62
   256
  6
BYLAYER
 49
-0.5
 62
   256
  6
BYLAYER
  0
ACDBPLACEHOLDER
  5
F
102
{ACAD_REACTORS
330
E
102
}
330
E
  0
VISUALSTYLE
  5
2F
102
{ACAD_REACTORS
330
2A
102
}
330
2A
100
AcDbVisualStyle
  2
2dWireframe
 70
     4
177
     2
291
     0
 71
     0
176
     1
 72
     2
176
     1
 73
     0
176
     1
 90
        0
176
     1
 40
-0.6
176
     1
 41
-30.0
176
     1
 62
     5
 63
     7
421
 16777215
176
     1
 74
     1
176
     1
 91
        4
176
     1
 64
     7
176
     1
 65
   257
176
     1
 75
     1
176
     1
175
     1
176
     1
 42
1.0
176
     1
 92
        0
176
     1
 66
   257
176
     1
 43
1.0
176
     1
 76
     1
176
     1
 77
     6
176
     1
 78
     2
176
     1
 67
     7
176
     1
 79
     5
176
     1
170
     0
176
     1
171
     0
176
     1
290
     0
176
     1
 93
        1
176
     1
 44
0.0
176
     1
173
     0
176
     1
  0
VISUALSTYLE
  5
31
102
{ACAD_REACTORS
330
2A
102
}
330
2A
100
AcDbVisualStyle
  2
3D Hidden
 70
     6
177
     2
291
     0
 71
     1
176
     1
 72
     2
176
     1
 73
     2
176
     1
 90
        0
176
     1
 40
-0.6
176
     1
 41
-30.0
176
     1
 62
     5
 63
     7
421
 16777215
176
     1
 74
     2
176
     1
 91
        2
176
     1
 64
     7
176
     1
 65
   257
176
     1
 75
     2
176
     1
175
     1
176
     1
 42
40.0
176
     1
 92
        0
176
     1
 66
   257
176
     1
 43
1.0
176
     1
 76
     1
176
     1
 77
     6
176
     1
 78
     2
176
     1
 67
     7
176
     1
 79
     3
176
     1
170
     0
176
     1
171
     0
176
     1
290
     0
176
     1
 93
        1
176
     1
 44
0.0
176
     1
173
     0
176
     1
  0
VISUALSTYLE
  5
30
102
{ACAD_REACTORS
330
2A
102
}
330
2A
100
AcDbVisualStyle
  2
3dWireframe
 70
     5
177
     2
291
     0
 71
     0
176
     1
 72
     2
176
     1
 73
     0
176
     1
 90
        0
176
     1
 40
-0.6
176
     1
 41
-30.0
176
     1
 62
     5
 63
     7
421
 16777215
176
     1
 74
     1
176
     1
 91
        4
176
     1
 64
     7
176
     1
 65
   257
176
     1
 75
     1
176
     1
175
     1
176
     1
 42
1.0
176
     1
 92
        0
176
     1
 66
   257
176
     1
 43
1.0
176
     1
 76
     1
176
     1
 77
     6
176
     1
 78
     2
176
     1
 67
     7
176
     1
 79
     5
176
     1
170
     0
176
     1
171
     0
176
     1
290
     0
176
     1
 93
        1
176
     1
 44
0.0
176
     1
173
     0
176
     1
  0
VISUALSTYLE
  5
32
102
{ACAD_REACTORS
330
2A
102
}
330
2A
100
AcDbVisualStyle
  2
Basic
 70
     7
177
     2
291
     1
 71
     1
176
     1
 72
     0
176
     1
 73
     1
176
     1
 90
        0
176
     1
 40
-0.6
176
     1
 41
-30.0
176
     1
 62
     5
 63
     7
421
 16777215
176
     1
 74
     0
176
     1
 91
        4
176
     1
 64
     7
176
     1
 65
   257
176
     1
 75
     1
176
     1
175
     1
176
     1
 42
1.0
176
     1
 92
        8
176
     1
 66
     7
176
     1
 43
1.0
176
     1
 76
     1
176
     1
 77
     6
176
     1
 78
     2
176
     1
 67
     7
176
     1
 79
     5
176
     1
170
     0
176
     1
171
     0
176
     1
290
     0
176
     1
 93
        1
176
     1
 44
0.0
176
     1
173
     0
176
     1
  0
VISUALSTYLE
  5
36
102
{ACAD_REACTORS
330
2A
102
}
330
2A
100
AcDbVisualStyle
  2
Brighten
 70
    12
177
     2
291
     1
 71
     2
176
     1
 72
     2
176
     1
 73
     0
176
     1
 90
        0
176
     1
 40
-0.6
176
     1
 41
-30.0
176
     1
 62
     5
 63
     7
421
 16777215
176
     1
 74
     1
176
     1
 91
        4
176
     1
 64
     7
176
     1
 65
   257
176
     1
 75
     1
176
     1
175
     1
176
     1
 42
1.0
176
     1
 92
        8
176
     1
 66
     7
176
     1
 43
1.0
176
     1
 76
     1
176
     1
 77
     6
176
     1
 78
     2
176
     1
 67
     7
176
     1
 79
     5
176
     1
170
     0
176
     1
171
     0
176
     1
290
     0
176
     1
 93
        1
176
     1
 44
50.0
176
     1
173
     0
176
     1
  0
VISUALSTYLE
  5
3A
102
{ACAD_REACTORS
330
2A
102
}
330
2A
100
AcDbVisualStyle
  2
ColorChange
 70
    16
177
     2
291
     1
 71
     2
176
     1
 72
     2
176
     1
 73
     3
176
     1
 90
        0
176
     1
 40
-0.6
176
     1
 41
-30.0
176
     1
 62
     5
 63
     8
421
  8421504
176
     1
 74
     1
176
     1
 91
        4
176
     1
 64
     7
176
     1
 65
   257
176
     1
 75
     1
176
     1
175
     1
176
     1
 42
1.0
176
     1
 92
        8
176
     1
 66
     8
424
  8421504
176
     1
 43
1.0
176
     1
 76
     1
176
     1
 77
     6
176
     1
 78
     2
176
     1
 67
     7
176
     1
 79
     5
176
     1
170
     0
176
     1
171
     0
176
     1
290
     0
176
     1
 93
        1
176
     1
 44
0.0
176
     1
173
     0
176
     1
  0
VISUALSTYLE
  5
34
102
{ACAD_REACTORS
330
2A
102
}
330
2A
100
AcDbVisualStyle
  2
Conceptual
 70
     9
177
     2
291
     0
 71
     3
176
     1
 72
     2
176
     1
 73
     0
176
     1
 90
        0
176
     1
 40
-0.6
176
     1
 41
-30.0
176
     1
 62
     5
 63
     7
421
 16777215
176
     1
 74
     2
176
     1
 91
        2
176
     1
 64
     7
176
     1
 65
   257
176
     1
 75
     1
176
     1
175
     1
176
     1
 42
40.0
176
     1
 92
        8
176
     1
 66
     7
176
     1
 43
1.0
176
     1
 76
     1
176
     1
 77
     6
176
     1
 78
     2
176
     1
 67
     7
176
     1
 79
     3
176
     1
170
     0
176
     1
171
     0
176
     1
290
     0
176
     1
 93
        1
176
     1
 44
0.0
176
     1
173
     0
176
     1
  0
VISUALSTYLE
  5
35
102
{ACAD_REACTORS
330
2A
102
}
330
2A
100
AcDbVisualStyle
  2
Dim
 70
    11
177
     2
291
     1
 71
     2
176
     1
 72
     2
176
     1
 73
     0
176
     1
 90
        0
176
     1
 40
-0.6
176
     1
 41
-30.0
176
     1
 62
     5
 63
     7
421
 16777215
176
     1
 74
     1
176
     1
 91
        4
176
     1
 64
     7
176
     1
 65
   257
176
     1
 75
     1
176
     1
175
     1
176
     1
 42
1.0
176
     1
 92
        8
176
     1
 66
     7
176
     1
 43
1.0
176
     1
 76
     1
176
     1
 77
     6
176
     1
 78
     2
176
     1
 67
     7
176
     1
 79
     5
176
     1
170
     0
176
     1
171
     0
176
     1
290
     0
176
     1
 93
        1
176
     1
 44
-50.0
176
     1
173
     0
176
     1
  0
VISUALSTYLE
  5
39
102
{ACAD_REACTORS
330
2A
102
}
330
2A
100
AcDbVisualStyle
  2
Facepattern
 70
    15
177
     2
291
     1
 71
     2
176
     1
 72
     2
176
     1
 73
     0
176
     1
 90
        0
176
     1
 40
-0.6
176
     1
 41
-30.0
176
     1
 62
     5
 63
     7
421
 16777215
176
     1
 74
     1
176
     1
 91
        4
176
     1
 64
     7
176
     1
 65
   257
176
     1
 75
     1
176
     1
175
     1
176
     1
 42
1.0
176
     1
 92
        8
176
     1
 66
     7
176
     1
 43
1.0
176
     1
 76
     1
176
     1
 77
     6
176
     1
 78
     2
176
     1
 67
     7
176
     1
 79
     5
176
     1
170
     0
176
     1
171
     0
176
     1
290
     0
176
     1
 93
        1
176
     1
 44
0.0
176
     1
173
     0
176
     1
  0
VISUALSTYLE
  5
2B
102
{ACAD_REACTORS
330
2A
102
}
330
2A
100
AcDbVisualStyle
  2
Flat
 70
     0
177
     2
291
     1
 71
     2
176
     1
 72
     1
176
     1
 73
     1
176
     1
 90
        2
176
     1
 40
-0.6
176
     1
 41
30.0
176
     1
 62
     5
 63
     7
421
 16777215
176
     1
 74
     0
176
     1
 91
        4
176
     1
 64
     7
176
     1
 65
   257
176
     1
 75
     1
176
     1
175
     1
176
     1
 42
1.0
176
     1
 92
        8
176
     1
 66
     7
176
     1
 43
1.0
176
     1
 76
     1
176
     1
 77
     6
176
     1
 78
     2
176
     1
 67
     7
176
     1
 79
     5
176
     1
170
     0
176
     1
171
     0
176
     1
290
     0
176
     1
 93
       13
176
     1
 44
0.0
176
     1
173
     0
176
     1
  0
VISUALSTYLE
  5
2C
102
{ACAD_REACTORS
330
2A
102
}
330
2A
100
AcDbVisualStyle
  2
FlatWithEdges
 70
     1
177
     2
291
     1
 71
     2
176
     1
 72
     1
176
     1
 73
     1
176
     1
 90
        2
176
     1
 40
-0.6
176
     1
 41
30.0
176
     1
 62
     5
 63
     7
421
 16777215
176
     1
 74
     1
176
     1
 91
        4
176
     1
 64
     7
176
     1
 65
   257
176
     1
 75
     1
176
     1
175
     1
176
     1
 42
1.0
176
     1
 92
        0
176
     1
 66
   257
176
     1
 43
1.0
176
     1
 76
     1
176
     1
 77
     6
176
     1
 78
     2
176
     1
 67
     7
176
     1
 79
     5
176
     1
170
     0
176
     1
171
     0
176
     1
290
     0
176
     1
 93
       13
176
     1
 44
0.0
176
     1
173
     0
176
     1
  0
VISUALSTYLE
  5
2D
102
{ACAD_REACTORS
330
2A
102
}
330
2A
100
AcDbVisualStyle
  2
Gouraud
 70
     2
177
     2
291
     1
 71
     2
176
     1
 72
     2
176
     1
 73
     1
176
     1
 90
        2
176
     1
 40
-0.6
176
     1
 41
30.0
176
     1
 62
     5
 63
     7
421
 16777215
176
     1
 74
     0
176
     1
 91
        4
176
     1
 64
     7
176
     1
 65
   257
176
     1
 75
     1
176
     1
175
     1
176
     1
 42
1.0
176
     1
 92
        0
176
     1
 66
     7
176
     1
 43
1.0
176
     1
 76
     1
176
     1
 77
     6
176
     1
 78
     2
176
     1
 67
     7
176
     1
 79
     5
176
     1
170
     0
176
     1
171
     0
176
     1
290
     0
176
     1
 93
       13
176
     1
 44
0.0
176
     1
173
     0
176
     1
  0
VISUALSTYLE
  5
2E
102
{ACAD_REACTORS
330
2A
102
}
330
2A
100
AcDbVisualStyle
  2
GouraudWithEdges
 70
     3
177
     2
291
     1
 71
     2
176
     1
 72
     2
176
     1
 73
     1
176
     1
 90
        2
176
     1
 40
-0.6
176
     1
 41
30.0
176
     1
 62
     5
 63
     7
421
 16777215
176
     1
 74
     1
176
     1
 91
        4
176
     1
 64
     7
176
     1
 65
   257
176
     1
 75
     1
176
     1
175
     1
176
     1
 42
1.0
176
     1
 92
        0
176
     1
 66
   257
176
     1
 43
1.0
176
     1
 76
     1
176
     1
 77
     6
176
     1
 78
     2
176
     1
 67
     7
176
     1
 79
     5
176
     1
170
     0
176
     1
171
     0
176
     1
290
     0
176
     1
 93
       13
176
     1
 44
0.0
176
     1
173
     0
176
     1
  0
VISUALSTYLE
  5
38
102
{ACAD_REACTORS
330
2A
102
}
330
2A
100
AcDbVisualStyle
  2
Linepattern
 70
    14
177
     2
291
     1
 71
     2
176
     1
 72
     2
176
     1
 73
     0
176
     1
 90
        0
176
     1
 40
-0.6
176
     1
 41
-30.0
176
     1
 62
     5
 63
     7
421
 16777215
176
     1
 74
     1
176
     1
 91
        4
176
     1
 64
     7
176
     1
 65
   257
176
     1
 75
     7
176
     1
175
     7
176
     1
 42
1.0
176
     1
 92
        8
176
     1
 66
     7
176
     1
 43
1.0
176
     1
 76
     1
176
     1
 77
     6
176
     1
 78
     2
176
     1
 67
     7
176
     1
 79
     5
176
     1
170
     0
176
     1
171
     0
176
     1
290
     0
176
     1
 93
        1
176
     1
 44
0.0
176
     1
173
     0
176
     1
  0
VISUALSTYLE
  5
33
102
{ACAD_REACTORS
330
2A
102
}
330
2A
100
AcDbVisualStyle
  2
Realistic
 70
     8
177
     2
291
     0
 71
     2
176
     1
 72
     2
176
     1
 73
     0
176
     1
 90
        0
176
     1
 40
-0.6
176
     1
 41
-30.0
176
     1
 62
     5
 63
     7
421
 16777215
176
     1
 74
     1
176
     1
 91
        0
176
     1
 64
     7
176
     1
 65
   257
176
     1
 75
     1
176
     1
175
     1
176
     1
 42
1.0
176
     1
 92
        8
176
     1
 66
     8
424
  7895160
176
     1
 43
1.0
176
     1
 76
     1
176
     1
 77
     6
176
     1
 78
     2
176
     1
 67
     7
176
     1
 79
     5
176
     1
170
     0
176
     1
171
     0
176
     1
290
     0
176
     1
 93
       13
176
     1
 44
0.0
176
     1
173
     0
176
     1
  0
VISUALSTYLE
  5
37
102
{ACAD_REACTORS
330
2A
102
}
330
2A
100
AcDbVisualStyle
  2
Thicken
 70
    13
177
     2
291
     1
 71
     2
176
     1
 72
     2
176
     1
 73
     0
176
     1
 90
        0
176
     1
 40
-0.6
176
     1
 41
-30.0
176
     1
 62
     5
 63
     7
421
 16777215
176
     1
 74
     1
176
     1
 91
        4
176
     1
 64
     7
176
     1
 65
   257
176
     1
 75
     1
176
     1
175
     1
176
     1
 42
1.0
176
     1
 92
       12
176
     1
 66
     7
176
     1
 43
1.0
176
     1
 76
     1
176
     1
 77
     6
176
     1
 78
     2
176
     1
 67
     7
176
     1
 79
     5
176
     1
170
     0
176
     1
171
     0
176
     1
290
     0
176
     1
 93
        1
176
     1
 44
0.0
176
     1
173
     0
176
     1
  0
ENDSEC
  0
EOF
