  0
SECTION
  2
HEADER
  9
$ACADVER
  1
AC1024
  9
$ACADMAINTVER
 70
     6
  9
$DWGCODEPAGE
  3
ANSI_1252
  9
$INSBASE
 10
0.0
 20
0.0
 30
0.0
  9
$EXTMIN
 10
1.000000000000000E+20
 20
1.000000000000000E+20
 30
1.000000000000000E+20
  9
$EXTMAX
 10
-1.000000000000000E+20
 20
-1.000000000000000E+20
 30
-1.000000000000000E+20
  9
$LIMMIN
 10
0.0
 20
0.0
  9
$LIMMAX
 10
12.0
 20
9.0
  9
$ORTHOMODE
 70
     0
  9
$REGENMODE
 70
     1
  9
$FILLMODE
 70
     1
  9
$QTEXTMODE
 70
     0
  9
$MIRRTEXT
 70
     1
  9
$LTSCALE
 40
1.0
  9
$ATTMODE
 70
     1
  9
$TEXTSIZE
 40
0.2
  9
$TRACEWID
 40
0.05
  9
$TEXTSTYLE
  7
Standard
  9
$CLAYER
  8
0
  9
$CELTYPE
  6
ByLayer
  9
$CECOLOR
 62
   256
  9
$CELTSCALE
 40
1.0
  9
$DISPSILH
 70
     0
  9
$DIMSCALE
 40
1.0
  9
$DIMASZ
 40
0.18
  9
$DIMEXO
 40
0.0625
  9
$DIMDLI
 40
0.38
  9
$DIMRND
 40
0.0
  9
$DIMDLE
 40
0.0
  9
$DIMEXE
 40
0.18
  9
$DIMTP
 40
0.0
  9
$DIMTM
 40
0.0
  9
$DIMTXT
 40
0.18
  9
$DIMCEN
 40
0.09
  9
$DIMTSZ
 40
0.0
  9
$DIMTOL
 70
     0
  9
$DIMLIM
 70
     0
  9
$DIMTIH
 70
     1
  9
$DIMTOH
 70
     1
  9
$DIMSE1
 70
     0
  9
$DIMSE2
 70
     0
  9
$DIMTAD
 70
     0
  9
$DIMZIN
 70
     0
  9
$DIMBLK
  1

  9
$DIMASO
 70
     1
  9
$DIMSHO
 70
     1
  9
$DIMPOST
  1

  9
$DIMAPOST
  1

  9
$DIMALT
 70
     0
  9
$DIMALTD
 70
     2
  9
$DIMALTF
 40
25.4
  9
$DIMLFAC
 40
1.0
  9
$DIMTOFL
 70
     0
  9
$DIMTVP
 40
0.0
  9
$DIMTIX
 70
     0
  9
$DIMSOXD
 70
     0
  9
$DIMSAH
 70
     0
  9
$DIMBLK1
  1

  9
$DIMBLK2
  1

  9
$DIMSTYLE
  2
Standard
  9
$DIMCLRD
 70
     0
  9
$DIMCLRE
 70
     0
  9
$DIMCLRT
 70
     0
  9
$DIMTFAC
 40
1.0
  9
$DIMGAP
 40
0.09
  9
$DIMJUST
 70
     0
  9
$DIMSD1
 70
     0
  9
$DIMSD2
 70
     0
  9
$DIMTOLJ
 70
     1
  9
$DIMTZIN
 70
     0
  9
$DIMALTZ
 70
     0
  9
$DIMALTTZ
 70
     0
  9
$DIMUPT
 70
     0
  9
$DIMDEC
 70
     4
  9
$DIMTDEC
 70
     4
  9
$DIMALTU
 70
     2
  9
$DIMALTTD
 70
     2
  9
$DIMTXSTY
  7
Standard
  9
$DIMAUNIT
 70
     0
  9
$DIMADEC
 70
     0
  9
$DIMALTRND
 40
0.0
  9
$DIMAZIN
 70
     0
  9
$DIMDSEP
 70
    46
  9
$DIMATFIT
 70
     3
  9
$DIMFRAC
 70
     0
  9
$DIMLDRBLK
  1

  9
$DIMLUNIT
 70
     2
  9
$DIMLWD
 70
    -2
  9
$DIMLWE
 70
    -2
  9
$DIMTMOVE
 70
     0
  9
$DIMFXL
 40
1.0
  9
$DIMFXLON
 70
     0
  9
$DIMJOGANG
 40
0.7853981633974483
  9
$DIMTFILL
 70
     0
  9
$DIMTFILLCLR
 70
     0
  9
$DIMARCSYM
 70
     0
  9
$DIMLTYPE
  6

  9
$DIMLTEX1
  6

  9
$DIMLTEX2
  6

  9
$DIMTXTDIRECTION
 70
     0
  9
$LUNITS
 70
     2
  9
$LUPREC
 70
     4
  9
$SKETCHINC
 40
0.1
  9
$FILLETRAD
 40
0.5
  9
$AUNITS
 70
     0
  9
$AUPREC
 70
     0
  9
$MENU
  1
.
  9
$ELEVATION
 40
0.0
  9
$PELEVATION
 40
0.0
  9
$THICKNESS
 40
0.0
  9
$LIMCHECK
 70
     0
  9
$CHAMFERA
 40
0.5
  9
$CHAMFERB
 40
0.5
  9
$CHAMFERC
 40
1.0
  9
$CHAMFERD
 40
0.0
  9
$SKPOLY
 70
     0
  9
$TDCREATE
 40
2459171.931779317
  9
$TDUCREATE
 40
2459172.265112651
  9
$TDUPDATE
 40
2459171.93177934
  9
$TDUUPDATE
 40
2459172.265112673
  9
$TDINDWG
 40
0.0000000116
  9
$TDUSRTIMER
 40
0.0000000116
  9
$USRTIMER
 70
     1
  9
$ANGBASE
 50
0.0
  9
$ANGDIR
 70
     0
  9
$PDMODE
 70
     0
  9
$PDSIZE
 40
0.0
  9
$PLINEWID
 40
0.0
  9
$SPLFRAME
 70
     0
  9
$SPLINETYPE
 70
     6
  9
$SPLINESEGS
 70
     8
  9
$HANDSEED
  5
99
  9
$SURFTAB1
 70
     6
  9
$SURFTAB2
 70
     6
  9
$SURFTYPE
 70
     6
  9
$SURFU
 70
     6
  9
$SURFV
 70
     6
  9
$UCSBASE
  2

  9
$UCSNAME
  2

  9
$UCSORG
 10
0.0
 20
0.0
 30
0.0
  9
$UCSXDIR
 10
1.0
 20
0.0
 30
0.0
  9
$UCSYDIR
 10
0.0
 20
1.0
 30
0.0
  9
$UCSORTHOREF
  2

  9
$UCSORTHOVIEW
 70
     0
  9
$UCSORGTOP
 10
0.0
 20
0.0
 30
0.0
  9
$UCSORGBOTTOM
 10
0.0
 20
0.0
 30
0.0
  9
$UCSORGLEFT
 10
0.0
 20
0.0
 30
0.0
  9
$UCSORGRIGHT
 10
0.0
 20
0.0
 30
0.0
  9
$UCSORGFRONT
 10
0.0
 20
0.0
 30
0.0
  9
$UCSORGBACK
 10
0.0
 20
0.0
 30
0.0
  9
$PUCSBASE
  2

  9
$PUCSNAME
  2

  9
$PUCSORG
 10
0.0
 20
0.0
 30
0.0
  9
$PUCSXDIR
 10
1.0
 20
0.0
 30
0.0
  9
$PUCSYDIR
 10
0.0
 20
1.0
 30
0.0
  9
$PUCSORTHOREF
  2

  9
$PUCSORTHOVIEW
 70
     0
  9
$PUCSORGTOP
 10
0.0
 20
0.0
 30
0.0
  9
$PUCSORGBOTTOM
 10
0.0
 20
0.0
 30
0.0
  9
$PUCSORGLEFT
 10
0.0
 20
0.0
 30
0.0
  9
$PUCSORGRIGHT
 10
0.0
 20
0.0
 30
0.0
  9
$PUCSORGFRONT
 10
0.0
 20
0.0
 30
0.0
  9
$PUCSORGBACK
 10
0.0
 20
0.0
 30
0.0
  9
$USERI1
 70
     0
  9
$USERI2
 70
     0
  9
$USERI3
 70
     0
  9
$USERI4
 70
     0
  9
$USERI5
 70
     0
  9
$USERR1
 40
0.0
  9
$USERR2
 40
0.0
  9
$USERR3
 40
0.0
  9
$USERR4
 40
0.0
  9
$USERR5
 40
0.0
  9
$WORLDVIEW
 70
     1
  9
$SHADEDGE
 70
     3
  9
$SHADEDIF
 70
    70
  9
$TILEMODE
 70
     1
  9
$MAXACTVP
 70
    64
  9
$PINSBASE
 10
0.0
 20
0.0
 30
0.0
  9
$PLIMCHECK
 70
     0
  9
$PEXTMIN
 10
1.000000000000000E+20
 20
1.000000000000000E+20
 30
1.000000000000000E+20
  9
$PEXTMAX
 10
-1.000000000000000E+20
 20
-1.000000000000000E+20
 30
-1.000000000000000E+20
  9
$PLIMMIN
 10
0.0
 20
0.0
  9
$PLIMMAX
 10
12.0
 20
9.0
  9
$UNITMODE
 70
     0
  9
$VISRETAIN
 70
     1
  9
$PLINEGEN
 70
     0
  9
$PSLTSCALE
 70
     1
  9
$TREEDEPTH
 70
  3020
  9
$CMLSTYLE
  2
Standard
  9
$CMLJUST
 70
     0
  9
$CMLSCALE
 40
1.0
  9
$PROXYGRAPHICS
 70
     1
  9
$MEASUREMENT
 70
     0
  9
$CELWEIGHT
370
    -1
  9
$ENDCAPS
280
     0
  9
$JOINSTYLE
280
     0
  9
$LWDISPLAY
290
     1
  9
$INSUNITS
 70
     4
  9
$HYPERLINKBASE
  1

  9
$STYLESHEET
  1

  9
$XEDIT
290
     1
  9
$CEPSNTYPE
380
     0
  9
$PSTYLEMODE
290
     1
  9
$FINGERPRINTGUID
  2
{BD4BABDB-5E6E-4FB7-BDF2-E57649EF9E78}
  9
$VERSIONGUID
  2
{FAEB1C32-E019-11D5-929B-00C0DF256EC4}
  9
$EXTNAMES
290
     1
  9
$PSVPSCALE
 40
0.0
  9
$OLESTARTUP
290
     0
  9
$SORTENTS
280
   127
  9
$INDEXCTL
280
     0
  9
$HIDETEXT
280
     1
  9
$XCLIPFRAME
280
     2
  9
$HALOGAP
280
     0
  9
$OBSCOLOR
 70
   257
  9
$OBSLTYPE
280
     0
  9
$INTERSECTIONDISPLAY
280
     0
  9
$INTERSECTIONCOLOR
 70
   257
  9
$DIMASSOC
280
     2
  9
$PROJECTNAME
  1

  9
$CAMERADISPLAY
290
     0
  9
$LENSLENGTH
 40
50.0
  9
$CAMERAHEIGHT
 40
0.0
  9
$STEPSPERSEC
 40
2.0
  9
$STEPSIZE
 40
6.0
  9
$3DDWFPREC
 40
2.0
  9
$PSOLWIDTH
 40
0.25
  9
$PSOLHEIGHT
 40
4.0
  9
$LOFTANG1
 40
1.570796326794897
  9
$LOFTANG2
 40
1.570796326794897
  9
$LOFTMAG1
 40
0.0
  9
$LOFTMAG2
 40
0.0
  9
$LOFTPARAM
 70
     7
  9
$LOFTNORMALS
280
     1
  9
$LATITUDE
 40
37.795
  9
$LONGITUDE
 40
-122.394
  9
$NORTHDIRECTION
 40
0.0
  9
$TIMEZONE
 70
 -8000
  9
$LIGHTGLYPHDISPLAY
280
     1
  9
$TILEMODELIGHTSYNCH
280
     1
  9
$CMATERIAL
347
3C
  9
$SOLIDHIST
280
     1
  9
$SHOWHIST
280
     1
  9
$DWFFRAME
280
     2
  9
$DGNFRAME
280
     2
  9
$REALWORLDSCALE
290
     1
  9
$INTERFERECOLOR
 62
   256
  9
$CSHADOW
280
     0
  9
$SHADOWPLANELOCATION
 40
0.0
  0
ENDSEC
  0
SECTION
  2
CLASSES
  0
CLASS
  1
ACDBDICTIONARYWDFLT
  2
AcDbDictionaryWithDefault
  3
ObjectDBX Classes
 90
        0
 91
        4
280
     0
281
     0
  0
CLASS
  1
VISUALSTYLE
  2
AcDbVisualStyle
  3
ObjectDBX Classes
 90
     4095
 91
        4
280
     0
281
     0
  0
CLASS
  1
MATERIAL
  2
AcDbMaterial
  3
ObjectDBX Classes
 90
     1153
 91
        4
280
     0
281
     0
  0
CLASS
  1
SUN
  2
AcDbSun
  3
SCENEOE
 90
     1024
 91
        4
280
     0
281
     0
  0
ENDSEC
  0
SECTION
  2
TABLES
  0
TABLE
  2
VPORT
  5
8
330
0
100
AcDbSymbolTable
 70
     1
  0
VPORT
  5
29
330
8
100
AcDbSymbolTableRecord
100
AcDbViewportTableRecord
  2
*Active
 70
     0
 10
0.0
 20
0.0
 11
1.0
 21
1.0
 12
0.0
 22
0.0
 13
0.0
 23
0.0
 14
0.5
 24
0.5
 15
0.5
 25
0.5
 16
0.0
 26
0.0
 36
1.0
 17
959.99999976
 27
539.999999865
 37
0.0
 40
1079.99999973
 41
1.777777777777778
 42
50.0
 43
0.0
 44
0.0
 50
0.0
 51
0.0
 71
     0
 72
   100
 73
     1
 74
     3
 75
     0
 76
     0
 77
     0
 78
     0
281
     0
 65
     1
110
0.0
120
0.0
130
0.0
111
1.0
121
0.0
131
0.0
112
0.0
122
1.0
132
0.0
 79
     0
146
0.0
 60
     3
 61
     5
292
     1
282
     1
141
0.0
142
0.0
 63
   250
361
3F
  0
ENDTAB
  0
TABLE
  2
LTYPE
  5
5
330
0
100
AcDbSymbolTable
 70
     1
  0
LTYPE
  5
14
330
5
100
AcDbSymbolTableRecord
100
AcDbLinetypeTableRecord
  2
ByBlock
 70
     0
  3

 72
    65
 73
     0
 40
0.0
  0
LTYPE
  5
15
330
5
100
AcDbSymbolTableRecord
100
AcDbLinetypeTableRecord
  2
ByLayer
 70
     0
  3

 72
    65
 73
     0
 40
0.0
  0
LTYPE
  5
16
330
5
100
AcDbSymbolTableRecord
100
AcDbLinetypeTableRecord
  2
Continuous
 70
     0
  3
Solid line
 72
    65
 73
     0
 40
0.0
  0
ENDTAB
  0
TABLE
  2
LAYER
  5
2
330
0
100
AcDbSymbolTable
 70
     1
  0
LAYER
  5
10
330
2
100
AcDbSymbolTableRecord
100
AcDbLayerTableRecord
  2
0
 70
     0
 62
     7
  6
Continuous
370
    -3
390
F
347
3E
  0
ENDTAB
  0
TABLE
  2
STYLE
  5
3
330
0
100
AcDbSymbolTable
 70
     1
  0
STYLE
  5
11
330
3
100
AcDbSymbolTableRecord
100
AcDbTextStyleTableRecord
  2
Standard
 70
     0
 40
0.0
 41
1.0
 50
0.0
 71
     0
 42
0.2
  3
txt
  4

  0
ENDTAB
  0
TABLE
  2
VIEW
  5
6
330
0
100
AcDbSymbolTable
 70
     0
  0
ENDTAB
  0
TABLE
  2
UCS
  5
7
330
0
100
AcDbSymbolTable
 70
     0
  0
ENDTAB
  0
TABLE
  2
APPID
  5
9
330
0
100
AcDbSymbolTable
 70
     1
  0
APPID
  5
12
330
9
100
AcDbSymbolTableRecord
100
AcDbRegAppTableRecord
  2
ACAD
 70
     0
  0
ENDTAB
  0
TABLE
  2
DIMSTYLE
  5
A
330
0
100
AcDbSymbolTable
 70
     1
100
AcDbDimStyleTable
  0
DIMSTYLE
105
27
330
A
100
AcDbSymbolTableRecord
100
AcDbDimStyleTableRecord
  2
Standard
 70
     0
178
     0
340
11
  0
ENDTAB
  0
TABLE
  2
BLOCK_RECORD
  5
1
330
0
100
AcDbSymbolTable
 70
    11
  0
BLOCK_RECORD
  5
1F
330
1
100
AcDbSymbolTableRecord
100
AcDbBlockTableRecord
  2
*Model_Space
340
22
 70
     0
280
     1
281
     0
  0
BLOCK_RECORD
  5
1B
330
1
100
AcDbSymbolTableRecord
100
AcDbBlockTableRecord
  2
*Paper_Space
340
1E
 70
     0
280
     1
281
     0
  0
BLOCK_RECORD
  5
23
330
1
100
AcDbSymbolTableRecord
100
AcDbBlockTableRecord
  2
*Paper_Space0
340
26
 70
     0
280
     1
281
     0
  0
BLOCK_RECORD
  5
40
330
1
100
AcDbSymbolTableRecord
100
AcDbBlockTableRecord
  2
block 2
340
0
102
{BLKREFS
331
41
102
}
 70
     0
280
     1
281
     0
  0
BLOCK_RECORD
  5
45
330
1
100
AcDbSymbolTableRecord
100
AcDbBlockTableRecord
  2
block 3
340
0
102
{BLKREFS
331
46
102
}
 70
     0
280
     1
281
     0
  0
BLOCK_RECORD
  5
4A
330
1
100
AcDbSymbolTableRecord
100
AcDbBlockTableRecord
  2
block 4
340
0
102
{BLKREFS
331
4B
102
}
 70
     0
280
     1
281
     0
  0
BLOCK_RECORD
  5
4F
330
1
100
AcDbSymbolTableRecord
100
AcDbBlockTableRecord
  2
block 5
340
0
102
{BLKREFS
331
50
102
}
 70
     0
280
     1
281
     0
  0
BLOCK_RECORD
  5
54
330
1
100
AcDbSymbolTableRecord
100
AcDbBlockTableRecord
  2
block 6
340
0
102
{BLKREFS
331
55
102
}
 70
     0
280
     1
281
     0
  0
BLOCK_RECORD
  5
59
330
1
100
AcDbSymbolTableRecord
100
AcDbBlockTableRecord
  2
block 7
340
0
102
{BLKREFS
331
5A
102
}
 70
     0
280
     1
281
     0
  0
BLOCK_RECORD
  5
5E
330
1
100
AcDbSymbolTableRecord
100
AcDbBlockTableRecord
  2
block 8
340
0
102
{BLKREFS
331
5F
102
}
 70
     0
280
     1
281
     0
  0
BLOCK_RECORD
  5
63
330
1
100
AcDbSymbolTableRecord
100
AcDbBlockTableRecord
  2
block 9
340
0
102
{BLKREFS
331
64
102
}
 70
     0
280
     1
281
     0
  0
BLOCK_RECORD
  5
68
330
1
100
AcDbSymbolTableRecord
100
AcDbBlockTableRecord
  2
block 10
340
0
102
{BLKREFS
331
69
102
}
 70
     0
280
     1
281
     0
  0
BLOCK_RECORD
  5
6D
330
1
100
AcDbSymbolTableRecord
100
AcDbBlockTableRecord
  2
block 11
340
0
102
{BLKREFS
331
6E
102
}
 70
     0
280
     1
281
     0
  0
ENDTAB
  0
ENDSEC
  0
SECTION
  2
BLOCKS
  0
BLOCK
  5
20
330
1F
100
AcDbEntity
  8
0
100
AcDbBlockBegin
  2
*Model_Space
 70
     0
 10
0.0
 20
0.0
 30
0.0
  3
*Model_Space
  1

  0
ENDBLK
  5
21
330
1F
100
AcDbEntity
  8
0
100
AcDbBlockEnd
  0
BLOCK
  5
1C
330
1B
100
AcDbEntity
 67
     1
  8
0
100
AcDbBlockBegin
  2
*Paper_Space
 70
     0
 10
0.0
 20
0.0
 30
0.0
  3
*Paper_Space
  1

  0
ENDBLK
  5
1D
330
1B
100
AcDbEntity
 67
     1
  8
0
100
AcDbBlockEnd
  0
BLOCK
  5
24
330
23
100
AcDbEntity
  8
0
100
AcDbBlockBegin
  2
*Paper_Space0
 70
     0
 10
0.0
 20
0.0
 30
0.0
  3
*Paper_Space0
  1

  0
ENDBLK
  5
25
330
23
100
AcDbEntity
  8
0
100
AcDbBlockEnd
  0
BLOCK
  5
42
330
40
100
AcDbEntity
  8
0
100
AcDbBlockBegin
  2
block 2
 70
     0
 10
0.0
 20
0.0
 30
0.0
  3
block 2
  1

  0
SPLINE
  5
44
330
40
100
AcDbEntity
  8
0
 62
     7
420
 16777215
370
    25
100
AcDbSpline
210
0.0
220
0.0
230
1.0
 70
    11
 71
     3
 72
    53
 73
    49
 74
     0
 42
0.0000000001
 43
0.0000000001
 12
1.0
 22
0.0
 32
0.0
 13
1.0
 23
0.0
 33
0.0
 40
0.0
 40
0.0
 40
0.0
 40
0.0
 40
1.0
 40
1.0
 40
1.0
 40
2.0
 40
2.0
 40
2.0
 40
3.0
 40
3.0
 40
3.0
 40
4.0
 40
4.0
 40
4.0
 40
5.0
 40
5.0
 40
5.0
 40
6.0
 40
6.0
 40
6.0
 40
7.0
 40
7.0
 40
7.0
 40
8.0
 40
8.0
 40
8.0
 40
9.0
 40
9.0
 40
9.0
 40
10.0
 40
10.0
 40
10.0
 40
11.0
 40
11.0
 40
11.0
 40
12.0
 40
12.0
 40
12.0
 40
13.0
 40
13.0
 40
13.0
 40
14.0
 40
14.0
 40
14.0
 40
15.0
 40
15.0
 40
15.0
 40
16.0
 40
16.0
 40
16.0
 40
16.0
 10
797.0115614637881
 20
481.2155948183685
 30
0.0
 10
797.0115614636644
 20
478.4541710699045
 30
0.0
 10
799.2501377138485
 20
476.2155948195166
 30
0.0
 10
802.0115614623126
 20
476.2155948193929
 30
0.0
 10
802.0115614623126
 20
476.2155948193929
 30
0.0
 10
959.5008646335685
 20
476.2155948123244
 30
0.0
 10
959.5008646335685
 20
476.2155948123244
 30
0.0
 10
959.5008646335685
 20
476.2155948123244
 30
0.0
 10
959.5008646340415
 20
486.7405948096909
 30
0.0
 10
959.5008646340415
 20
486.7405948096909
 30
0.0
 10
959.5008646340415
 20
486.7405948096909
 30
0.0
 10
805.5365614619038
 20
486.7405948166031
 30
0.0
 10
805.5365614619038
 20
486.7405948166031
 30
0.0
 10
805.5365614619038
 20
486.7405948166031
 30
0.0
 10
805.536561466686
 20
593.2594049272658
 30
0.0
 10
805.536561466686
 20
593.2594049272658
 30
0.0
 10
805.536561466686
 20
593.2594049272658
 30
0.0
 10
1114.463438058096
 20
593.259404913396
 30
0.0
 10
1114.463438058096
 20
593.259404913396
 30
0.0
 10
1114.463438058096
 20
593.259404913396
 30
0.0
 10
1114.463438053312
 20
486.7405948027351
 30
0.0
 10
1114.463438053312
 20
486.7405948027351
 30
0.0
 10
1114.463438053312
 20
486.7405948027351
 30
0.0
 10
971.6108978451335
 20
486.7405948091489
 30
0.0
 10
971.6108978451335
 20
486.7405948091489
 30
0.0
 10
971.6108978451335
 20
486.7405948091489
 30
0.0
 10
971.6108978446624
 20
476.2155948117787
 30
0.0
 10
971.6108978446624
 20
476.2155948117787
 30
0.0
 10
971.6108978446624
 20
476.2155948117787
 30
0.0
 10
1117.98843805196
 20
476.2155948052085
 30
0.0
 10
1117.98843805196
 20
476.2155948052085
 30
0.0
 10
1120.749861800423
 20
476.2155948050848
 30
0.0
 10
1122.988438050808
 20
478.4541710552689
 30
0.0
 10
1122.988438050933
 20
481.2155948037329
 30
0.0
 10
1122.988438050933
 20
481.2155948037329
 30
0.0
 10
1122.98843805621
 20
598.7844049116314
 30
0.0
 10
1122.98843805621
 20
598.7844049116314
 30
0.0
 10
1122.988438056336
 20
601.5458286600955
 30
0.0
 10
1120.74986180615
 20
603.7844049104815
 30
0.0
 10
1117.988438057686
 20
603.7844049106061
 30
0.0
 10
1117.988438057686
 20
603.7844049106061
 30
0.0
 10
802.0115614680406
 20
603.7844049247924
 30
0.0
 10
802.0115614680406
 20
603.7844049247924
 30
0.0
 10
799.2501377195765
 20
603.7844049249161
 30
0.0
 10
797.0115614691905
 20
601.5458286747302
 30
0.0
 10
797.0115614690668
 20
598.7844049262661
 30
0.0
 10
797.0115614690668
 20
598.7844049262661
 30
0.0
 10
797.0115614637881
 20
481.2155948183685
 30
0.0
 10
797.0115614637881
 20
481.2155948183685
 30
0.0
  0
ENDBLK
  5
43
330
40
100
AcDbEntity
  8
0
100
AcDbBlockEnd
  0
BLOCK
  5
47
330
45
100
AcDbEntity
  8
0
100
AcDbBlockBegin
  2
block 3
 70
     0
 10
0.0
 20
0.0
 30
0.0
  3
block 3
  1

  0
SPLINE
  5
49
330
45
100
AcDbEntity
  8
0
 62
     7
420
 16777215
370
    25
100
AcDbSpline
210
0.0
220
0.0
230
1.0
 70
    11
 71
     3
 72
    20
 73
    16
 74
     0
 42
0.0000000001
 43
0.0000000001
 12
1.0
 22
0.0
 32
0.0
 13
1.0
 23
0.0
 33
0.0
 40
0.0
 40
0.0
 40
0.0
 40
0.0
 40
1.0
 40
1.0
 40
1.0
 40
2.0
 40
2.0
 40
2.0
 40
3.0
 40
3.0
 40
3.0
 40
4.0
 40
4.0
 40
4.0
 40
5.0
 40
5.0
 40
5.0
 40
5.0
 10
905.4557806064761
 20
483.7405948104191
 30
0.0
 10
905.4557806064761
 20
484.5966361724432
 30
0.0
 10
906.1497392440646
 20
485.2905948100309
 30
0.0
 10
907.0057806060887
 20
485.2905948100309
 30
0.0
 10
907.8618219681119
 20
485.2905948100309
 30
0.0
 10
908.5557806057005
 20
484.5966361724432
 30
0.0
 10
908.5557806057014
 20
483.7405948104191
 30
0.0
 10
908.5557806057005
 20
482.884553448395
 30
0.0
 10
907.8618219681119
 20
482.1905948108073
 30
0.0
 10
907.0057806060887
 20
482.1905948108073
 30
0.0
 10
906.1497392440646
 20
482.1905948108073
 30
0.0
 10
905.4557806064761
 20
482.884553448395
 30
0.0
 10
905.4557806064761
 20
483.7405948104191
 30
0.0
 10
905.4557806064761
 20
483.7405948104191
 30
0.0
 10
905.4557806064761
 20
483.7405948104191
 30
0.0
 10
905.4557806064761
 20
483.7405948104191
 30
0.0
  0
ENDBLK
  5
48
330
45
100
AcDbEntity
  8
0
100
AcDbBlockEnd
  0
BLOCK
  5
4C
330
4A
100
AcDbEntity
  8
0
100
AcDbBlockBegin
  2
block 4
 70
     0
 10
0.0
 20
0.0
 30
0.0
  3
block 4
  1

  0
SPLINE
  5
4E
330
4A
100
AcDbEntity
  8
0
 62
     7
420
 16777215
370
    25
100
AcDbSpline
210
0.0
220
0.0
230
1.0
 70
    11
 71
     3
 72
    20
 73
    16
 74
     0
 42
0.0000000001
 43
0.0000000001
 12
1.0
 22
0.0
 32
0.0
 13
1.0
 23
0.0
 33
0.0
 40
0.0
 40
0.0
 40
0.0
 40
0.0
 40
1.0
 40
1.0
 40
1.0
 40
2.0
 40
2.0
 40
2.0
 40
3.0
 40
3.0
 40
3.0
 40
4.0
 40
4.0
 40
4.0
 40
5.0
 40
5.0
 40
5.0
 40
5.0
 10
1011.444218914299
 20
596.2594049195809
 30
0.0
 10
1011.444218914299
 20
597.115446281604
 30
0.0
 10
1012.138177551887
 20
597.8094049191926
 30
0.0
 10
1012.994218913911
 20
597.8094049191926
 30
0.0
 10
1013.850260275935
 20
597.8094049191926
 30
0.0
 10
1014.544218913523
 20
597.115446281604
 30
0.0
 10
1014.544218913523
 20
596.2594049195809
 30
0.0
 10
1014.544218913523
 20
595.4033635575568
 30
0.0
 10
1013.850260275935
 20
594.7094049199682
 30
0.0
 10
1012.994218913911
 20
594.7094049199682
 30
0.0
 10
1012.138177551887
 20
594.7094049199682
 30
0.0
 10
1011.444218914299
 20
595.4033635575568
 30
0.0
 10
1011.444218914299
 20
596.2594049195809
 30
0.0
 10
1011.444218914299
 20
596.2594049195809
 30
0.0
 10
1011.444218914299
 20
596.2594049195809
 30
0.0
 10
1011.444218914299
 20
596.2594049195809
 30
0.0
  0
ENDBLK
  5
4D
330
4A
100
AcDbEntity
  8
0
100
AcDbBlockEnd
  0
BLOCK
  5
51
330
4F
100
AcDbEntity
  8
0
100
AcDbBlockBegin
  2
block 5
 70
     0
 10
0.0
 20
0.0
 30
0.0
  3
block 5
  1

  0
SPLINE
  5
53
330
4F
100
AcDbEntity
  8
0
 62
     7
420
 16777215
370
    25
100
AcDbSpline
210
0.0
220
0.0
230
1.0
 70
    11
 71
     3
 72
    20
 73
    16
 74
     0
 42
0.0000000001
 43
0.0000000001
 12
1.0
 22
0.0
 32
0.0
 13
1.0
 23
0.0
 33
0.0
 40
0.0
 40
0.0
 40
0.0
 40
0.0
 40
1.0
 40
1.0
 40
1.0
 40
2.0
 40
2.0
 40
2.0
 40
3.0
 40
3.0
 40
3.0
 40
4.0
 40
4.0
 40
4.0
 40
5.0
 40
5.0
 40
5.0
 40
5.0
 10
905.4557806064761
 20
596.2594049195809
 30
0.0
 10
905.4557806064761
 20
597.115446281604
 30
0.0
 10
906.1497392440646
 20
597.8094049191926
 30
0.0
 10
907.0057806060887
 20
597.8094049191935
 30
0.0
 10
907.8618219681119
 20
597.8094049191926
 30
0.0
 10
908.5557806057005
 20
597.115446281604
 30
0.0
 10
908.5557806057014
 20
596.2594049195809
 30
0.0
 10
908.5557806057005
 20
595.4033635575568
 30
0.0
 10
907.8618219681119
 20
594.7094049199682
 30
0.0
 10
907.0057806060887
 20
594.7094049199682
 30
0.0
 10
906.1497392440646
 20
594.7094049199682
 30
0.0
 10
905.4557806064761
 20
595.4033635575568
 30
0.0
 10
905.4557806064761
 20
596.2594049195809
 30
0.0
 10
905.4557806064761
 20
596.2594049195809
 30
0.0
 10
905.4557806064761
 20
596.2594049195809
 30
0.0
 10
905.4557806064761
 20
596.2594049195809
 30
0.0
  0
ENDBLK
  5
52
330
4F
100
AcDbEntity
  8
0
100
AcDbBlockEnd
  0
BLOCK
  5
56
330
54
100
AcDbEntity
  8
0
100
AcDbBlockBegin
  2
block 6
 70
     0
 10
0.0
 20
0.0
 30
0.0
  3
block 6
  1

  0
SPLINE
  5
58
330
54
100
AcDbEntity
  8
0
 62
     7
420
 16777215
370
    25
100
AcDbSpline
210
0.0
220
0.0
230
1.0
 70
    11
 71
     3
 72
    20
 73
    16
 74
     0
 42
0.0000000001
 43
0.0000000001
 12
1.0
 22
0.0
 32
0.0
 13
1.0
 23
0.0
 33
0.0
 40
0.0
 40
0.0
 40
0.0
 40
0.0
 40
1.0
 40
1.0
 40
1.0
 40
2.0
 40
2.0
 40
2.0
 40
3.0
 40
3.0
 40
3.0
 40
4.0
 40
4.0
 40
4.0
 40
5.0
 40
5.0
 40
5.0
 40
5.0
 10
1011.444218914299
 20
483.7405948104191
 30
0.0
 10
1011.444218914299
 20
484.5966361724432
 30
0.0
 10
1012.138177551887
 20
485.2905948100309
 30
0.0
 10
1012.994218913911
 20
485.2905948100309
 30
0.0
 10
1013.850260275935
 20
485.2905948100309
 30
0.0
 10
1014.544218913523
 20
484.5966361724432
 30
0.0
 10
1014.544218913523
 20
483.7405948104191
 30
0.0
 10
1014.544218913523
 20
482.884553448395
 30
0.0
 10
1013.850260275935
 20
482.1905948108073
 30
0.0
 10
1012.994218913911
 20
482.1905948108073
 30
0.0
 10
1012.138177551887
 20
482.1905948108073
 30
0.0
 10
1011.444218914299
 20
482.884553448395
 30
0.0
 10
1011.444218914299
 20
483.7405948104191
 30
0.0
 10
1011.444218914299
 20
483.7405948104191
 30
0.0
 10
1011.444218914299
 20
483.7405948104191
 30
0.0
 10
1011.444218914299
 20
483.7405948104191
 30
0.0
  0
ENDBLK
  5
57
330
54
100
AcDbEntity
  8
0
100
AcDbBlockEnd
  0
BLOCK
  5
5B
330
59
100
AcDbEntity
  8
0
100
AcDbBlockBegin
  2
block 7
 70
     0
 10
0.0
 20
0.0
 30
0.0
  3
block 7
  1

  0
SPLINE
  5
5D
330
59
100
AcDbEntity
  8
0
 62
     7
420
 16777215
370
    25
100
AcDbSpline
210
0.0
220
0.0
230
1.0
 70
    11
 71
     3
 72
    20
 73
    16
 74
     0
 42
0.0000000001
 43
0.0000000001
 12
1.0
 22
0.0
 32
0.0
 13
1.0
 23
0.0
 33
0.0
 40
0.0
 40
0.0
 40
0.0
 40
0.0
 40
1.0
 40
1.0
 40
1.0
 40
2.0
 40
2.0
 40
2.0
 40
3.0
 40
3.0
 40
3.0
 40
4.0
 40
4.0
 40
4.0
 40
5.0
 40
5.0
 40
5.0
 40
5.0
 10
803.9865614646832
 20
483.7405948104191
 30
0.0
 10
803.9865614646832
 20
484.5966361724432
 30
0.0
 10
804.6805201022718
 20
485.2905948100309
 30
0.0
 10
805.5365614642958
 20
485.2905948100309
 30
0.0
 10
806.39260282632
 20
485.2905948100309
 30
0.0
 10
807.0865614639085
 20
484.5966361724432
 30
0.0
 10
807.0865614639085
 20
483.7405948104191
 30
0.0
 10
807.0865614639085
 20
482.884553448395
 30
0.0
 10
806.39260282632
 20
482.1905948108073
 30
0.0
 10
805.5365614642958
 20
482.1905948108073
 30
0.0
 10
804.6805201022718
 20
482.1905948108073
 30
0.0
 10
803.9865614646832
 20
482.884553448395
 30
0.0
 10
803.9865614646832
 20
483.7405948104191
 30
0.0
 10
803.9865614646832
 20
483.7405948104191
 30
0.0
 10
803.9865614646832
 20
483.7405948104191
 30
0.0
 10
803.9865614646832
 20
483.7405948104191
 30
0.0
  0
ENDBLK
  5
5C
330
59
100
AcDbEntity
  8
0
100
AcDbBlockEnd
  0
BLOCK
  5
60
330
5E
100
AcDbEntity
  8
0
100
AcDbBlockBegin
  2
block 8
 70
     0
 10
0.0
 20
0.0
 30
0.0
  3
block 8
  1

  0
SPLINE
  5
62
330
5E
100
AcDbEntity
  8
0
 62
     7
420
 16777215
370
    25
100
AcDbSpline
210
0.0
220
0.0
230
1.0
 70
    11
 71
     3
 72
    20
 73
    16
 74
     0
 42
0.0000000001
 43
0.0000000001
 12
1.0
 22
0.0
 32
0.0
 13
1.0
 23
0.0
 33
0.0
 40
0.0
 40
0.0
 40
0.0
 40
0.0
 40
1.0
 40
1.0
 40
1.0
 40
2.0
 40
2.0
 40
2.0
 40
3.0
 40
3.0
 40
3.0
 40
4.0
 40
4.0
 40
4.0
 40
5.0
 40
5.0
 40
5.0
 40
5.0
 10
1112.913438056091
 20
596.2594049195809
 30
0.0
 10
1112.913438056091
 20
597.115446281604
 30
0.0
 10
1113.60739669368
 20
597.8094049191926
 30
0.0
 10
1114.463438055704
 20
597.8094049191926
 30
0.0
 10
1115.319479417728
 20
597.8094049191926
 30
0.0
 10
1116.013438055316
 20
597.115446281604
 30
0.0
 10
1116.013438055316
 20
596.2594049195809
 30
0.0
 10
1116.013438055316
 20
595.4033635575568
 30
0.0
 10
1115.319479417728
 20
594.7094049199682
 30
0.0
 10
1114.463438055704
 20
594.7094049199682
 30
0.0
 10
1113.60739669368
 20
594.7094049199682
 30
0.0
 10
1112.913438056091
 20
595.4033635575568
 30
0.0
 10
1112.913438056091
 20
596.2594049195809
 30
0.0
 10
1112.913438056091
 20
596.2594049195809
 30
0.0
 10
1112.913438056091
 20
596.2594049195809
 30
0.0
 10
1112.913438056091
 20
596.2594049195809
 30
0.0
  0
ENDBLK
  5
61
330
5E
100
AcDbEntity
  8
0
100
AcDbBlockEnd
  0
BLOCK
  5
65
330
63
100
AcDbEntity
  8
0
100
AcDbBlockBegin
  2
block 9
 70
     0
 10
0.0
 20
0.0
 30
0.0
  3
block 9
  1

  0
SPLINE
  5
67
330
63
100
AcDbEntity
  8
0
 62
     7
420
 16777215
370
    25
100
AcDbSpline
210
0.0
220
0.0
230
1.0
 70
    11
 71
     3
 72
    20
 73
    16
 74
     0
 42
0.0000000001
 43
0.0000000001
 12
1.0
 22
0.0
 32
0.0
 13
1.0
 23
0.0
 33
0.0
 40
0.0
 40
0.0
 40
0.0
 40
0.0
 40
1.0
 40
1.0
 40
1.0
 40
2.0
 40
2.0
 40
2.0
 40
3.0
 40
3.0
 40
3.0
 40
4.0
 40
4.0
 40
4.0
 40
5.0
 40
5.0
 40
5.0
 40
5.0
 10
803.9865614646832
 20
596.2594049195809
 30
0.0
 10
803.9865614646832
 20
597.115446281604
 30
0.0
 10
804.6805201022718
 20
597.8094049191926
 30
0.0
 10
805.5365614642958
 20
597.8094049191935
 30
0.0
 10
806.39260282632
 20
597.8094049191926
 30
0.0
 10
807.0865614639085
 20
597.115446281604
 30
0.0
 10
807.0865614639085
 20
596.2594049195809
 30
0.0
 10
807.0865614639085
 20
595.4033635575568
 30
0.0
 10
806.39260282632
 20
594.7094049199682
 30
0.0
 10
805.5365614642958
 20
594.7094049199682
 30
0.0
 10
804.6805201022718
 20
594.7094049199682
 30
0.0
 10
803.9865614646832
 20
595.4033635575568
 30
0.0
 10
803.9865614646832
 20
596.2594049195809
 30
0.0
 10
803.9865614646832
 20
596.2594049195809
 30
0.0
 10
803.9865614646832
 20
596.2594049195809
 30
0.0
 10
803.9865614646832
 20
596.2594049195809
 30
0.0
  0
ENDBLK
  5
66
330
63
100
AcDbEntity
  8
0
100
AcDbBlockEnd
  0
BLOCK
  5
6A
330
68
100
AcDbEntity
  8
0
100
AcDbBlockBegin
  2
block 10
 70
     0
 10
0.0
 20
0.0
 30
0.0
  3
block 10
  1

  0
SPLINE
  5
6C
330
68
100
AcDbEntity
  8
0
 62
     7
420
 16777215
370
    25
100
AcDbSpline
210
0.0
220
0.0
230
1.0
 70
    11
 71
     3
 72
    20
 73
    16
 74
     0
 42
0.0000000001
 43
0.0000000001
 12
1.0
 22
0.0
 32
0.0
 13
1.0
 23
0.0
 33
0.0
 40
0.0
 40
0.0
 40
0.0
 40
0.0
 40
1.0
 40
1.0
 40
1.0
 40
2.0
 40
2.0
 40
2.0
 40
3.0
 40
3.0
 40
3.0
 40
4.0
 40
4.0
 40
4.0
 40
5.0
 40
5.0
 40
5.0
 40
5.0
 10
1112.913438056091
 20
483.7405948104191
 30
0.0
 10
1112.913438056091
 20
484.5966361724432
 30
0.0
 10
1113.60739669368
 20
485.2905948100309
 30
0.0
 10
1114.463438055704
 20
485.2905948100309
 30
0.0
 10
1115.319479417728
 20
485.2905948100309
 30
0.0
 10
1116.013438055316
 20
484.5966361724432
 30
0.0
 10
1116.013438055316
 20
483.7405948104191
 30
0.0
 10
1116.013438055316
 20
482.884553448395
 30
0.0
 10
1115.319479417728
 20
482.1905948108073
 30
0.0
 10
1114.463438055704
 20
482.1905948108073
 30
0.0
 10
1113.60739669368
 20
482.1905948108073
 30
0.0
 10
1112.913438056091
 20
482.884553448395
 30
0.0
 10
1112.913438056091
 20
483.7405948104191
 30
0.0
 10
1112.913438056091
 20
483.7405948104191
 30
0.0
 10
1112.913438056091
 20
483.7405948104191
 30
0.0
 10
1112.913438056091
 20
483.7405948104191
 30
0.0
  0
ENDBLK
  5
6B
330
68
100
AcDbEntity
  8
0
100
AcDbBlockEnd
  0
BLOCK
  5
6F
330
6D
100
AcDbEntity
  8
0
100
AcDbBlockBegin
  2
block 11
 70
     0
 10
0.0
 20
0.0
 30
0.0
  3
block 11
  1

  0
POLYLINE
  5
71
330
6D
100
AcDbEntity
  8
0
 62
   240
420
 15539236
370
    35
100
AcDb2dPolyline
 66
     1
 10
0.0
 20
0.0
 30
0.0
  0
VERTEX
  5
72
330
71
100
AcDbEntity
  8
0
 62
   240
420
 15539236
370
    35
100
AcDbVertex
100
AcDb2dVertex
 10
807.9653318292586
 20
610.1074217224731
 30
0.0
  0
VERTEX
  5
73
330
71
100
AcDbEntity
  8
0
 62
   240
420
 15539236
370
    35
100
AcDbVertex
100
AcDb2dVertex
 10
807.9653318292586
 20
618.6972654703256
 30
0.0
  0
VERTEX
  5
74
330
71
100
AcDbEntity
  8
0
 62
   240
420
 15539236
370
    35
100
AcDbVertex
100
AcDb2dVertex
 10
809.1020505789745
 20
618.6972654703256
 30
0.0
  0
VERTEX
  5
75
330
71
100
AcDbEntity
  8
0
 62
   240
420
 15539236
370
    35
100
AcDbVertex
100
AcDb2dVertex
 10
809.1020505789745
 20
611.1210935972197
 30
0.0
  0
VERTEX
  5
76
330
71
100
AcDbEntity
  8
0
 62
   240
420
 15539236
370
    35
100
AcDbVertex
100
AcDb2dVertex
 10
813.3325193279169
 20
611.1210935972197
 30
0.0
  0
VERTEX
  5
77
330
71
100
AcDbEntity
  8
0
 62
   240
420
 15539236
370
    35
100
AcDbVertex
100
AcDb2dVertex
 10
813.3325193279169
 20
610.1074217224731
 30
0.0
  0
VERTEX
  5
78
330
71
100
AcDbEntity
  8
0
 62
   240
420
 15539236
370
    35
100
AcDbVertex
100
AcDb2dVertex
 10
807.9653318292586
 20
610.1074217224731
 30
0.0
  0
SEQEND
  5
79
330
71
100
AcDbEntity
  8
0
 62
   240
420
 15539236
370
    35
  0
HATCH
  5
7A
330
6D
100
AcDbEntity
  8
0
 62
   240
420
 15539236
100
AcDbHatch
 10
0.0
 20
0.0
 30
0.0
210
0.0
220
0.0
230
1.0
  2
SOLID
 70
     1
 71
     0
 91
        1
 92
        1
 93
        6
 72
     1
 10
807.9653318292586
 20
610.1074217224731
 11
807.9653318292586
 21
618.6972654703256
 72
     1
 10
807.9653318292586
 20
618.6972654703256
 11
809.1020505789745
 21
618.6972654703256
 72
     1
 10
809.1020505789745
 20
618.6972654703256
 11
809.1020505789745
 21
611.1210935972197
 72
     1
 10
809.1020505789745
 20
611.1210935972197
 11
813.3325193279169
 21
611.1210935972197
 72
     1
 10
813.3325193279169
 20
611.1210935972197
 11
813.3325193279169
 21
610.1074217224731
 72
     1
 10
813.3325193279169
 20
610.1074217224731
 11
807.9653318292586
 21
610.1074217224731
 97
        0
 75
     2
 76
     1
 98
        0
  0
SPLINE
  5
7B
330
6D
100
AcDbEntity
  8
0
 62
   240
420
 15539236
370
    35
100
AcDbSpline
210
0.0
220
0.0
230
1.0
 70
    11
 71
     3
 72
    71
 73
    67
 74
     0
 42
0.0000000001
 43
0.0000000001
 12
1.0
 22
0.0
 32
0.0
 13
1.0
 23
0.0
 33
0.0
 40
0.0
 40
0.0
 40
0.0
 40
0.0
 40
1.0
 40
1.0
 40
1.0
 40
2.0
 40
2.0
 40
2.0
 40
3.0
 40
3.0
 40
3.0
 40
4.0
 40
4.0
 40
4.0
 40
5.0
 40
5.0
 40
5.0
 40
6.0
 40
6.0
 40
6.0
 40
7.0
 40
7.0
 40
7.0
 40
8.0
 40
8.0
 40
8.0
 40
9.0
 40
9.0
 40
9.0
 40
10.0
 40
10.0
 40
10.0
 40
11.0
 40
11.0
 40
11.0
 40
12.0
 40
12.0
 40
12.0
 40
13.0
 40
13.0
 40
13.0
 40
14.0
 40
14.0
 40
14.0
 40
15.0
 40
15.0
 40
15.0
 40
16.0
 40
16.0
 40
16.0
 40
17.0
 40
17.0
 40
17.0
 40
18.0
 40
18.0
 40
18.0
 40
19.0
 40
19.0
 40
19.0
 40
20.0
 40
20.0
 40
20.0
 40
21.0
 40
21.0
 40
21.0
 40
22.0
 40
22.0
 40
22.0
 40
22.0
 10
814.2583005776854
 20
612.3574217219107
 30
0.0
 10
814.2583005776854
 20
612.3574217219107
 30
0.0
 10
815.3657224524086
 20
612.4511717218872
 30
0.0
 10
815.3657224524086
 20
612.4511717218872
 30
0.0
 10
815.447753702388
 20
611.912109222022
 30
0.0
 10
815.6381833898405
 20
611.5068357846233
 30
0.0
 10
815.9370115147657
 20
611.2353514096911
 30
0.0
 10
816.235839639691
 20
610.963867034759
 30
0.0
 10
816.596191202101
 20
610.828124847293
 30
0.0
 10
817.0180662019955
 20
610.828124847293
 30
0.0
 10
817.5258787018685
 20
610.828124847293
 30
0.0
 10
817.9555662017611
 20
611.0195310972451
 30
0.0
 10
818.3071287016732
 20
611.4023435971494
 30
0.0
 10
818.6586912015853
 20
611.7851560970537
 30
0.0
 10
818.8344724515414
 20
612.2929685969267
 30
0.0
 10
818.8344724515414
 20
612.9257810967686
 30
0.0
 10
818.8344724515414
 20
613.5273435966182
 30
0.0
 10
818.6655271390836
 20
614.0019529714995
 30
0.0
 10
818.327636514168
 20
614.3496092214126
 30
0.0
 10
817.9897458892525
 20
614.6972654713256
 30
0.0
 10
817.5473630768631
 20
614.8710935962822
 30
0.0
 10
817.0004880769999
 20
614.8710935962822
 30
0.0
 10
816.6606443270848
 20
614.8710935962822
 30
0.0
 10
816.3540037021614
 20
614.7939451588015
 30
0.0
 10
816.0805662022299
 20
614.6396482838401
 30
0.0
 10
815.8071287022982
 20
614.4853514088786
 30
0.0
 10
815.5922849523519
 20
614.2851560964288
 30
0.0
 10
815.436034952391
 20
614.0390623464903
 30
0.0
 10
815.436034952391
 20
614.0390623464903
 30
0.0
 10
814.4458005776386
 20
614.167968596458
 30
0.0
 10
814.4458005776386
 20
614.167968596458
 30
0.0
 10
814.4458005776386
 20
614.167968596458
 30
0.0
 10
815.2778318274305
 20
618.580077970355
 30
0.0
 10
815.2778318274305
 20
618.580077970355
 30
0.0
 10
815.2778318274305
 20
618.580077970355
 30
0.0
 10
819.5493162013627
 20
618.580077970355
 30
0.0
 10
819.5493162013627
 20
618.580077970355
 30
0.0
 10
819.5493162013627
 20
618.580077970355
 30
0.0
 10
819.5493162013627
 20
617.5722654706069
 30
0.0
 10
819.5493162013627
 20
617.5722654706069
 30
0.0
 10
819.5493162013627
 20
617.5722654706069
 30
0.0
 10
816.1215818272196
 20
617.5722654706069
 30
0.0
 10
816.1215818272196
 20
617.5722654706069
 30
0.0
 10
816.1215818272196
 20
617.5722654706069
 30
0.0
 10
815.6586912023353
 20
615.2636717211841
 30
0.0
 10
815.6586912023353
 20
615.2636717211841
 30
0.0
 10
816.1743162022065
 20
615.6230467210942
 30
0.0
 10
816.7153318270712
 20
615.8027342210493
 30
0.0
 10
817.2817380769295
 20
615.8027342210493
 30
0.0
 10
818.031738076742
 20
615.8027342210493
 30
0.0
 10
818.6645505765838
 20
615.5429685961143
 30
0.0
 10
819.180175576455
 20
615.0234373462441
 30
0.0
 10
819.6958005763261
 20
614.5039060963741
 30
0.0
 10
819.9536130762616
 20
613.835937346541
 30
0.0
 10
819.9536130762616
 20
613.0195310967451
 30
0.0
 10
819.9536130762616
 20
612.2421873469394
 30
0.0
 10
819.7270505763182
 20
611.5703123471075
 30
0.0
 10
819.2739255764315
 20
611.003906097249
 30
0.0
 10
818.7231443265692
 20
610.3085935974228
 30
0.0
 10
817.9711912017572
 20
609.9609373475098
 30
0.0
 10
817.0180662019955
 20
609.9609373475098
 30
0.0
 10
816.2368162021908
 20
609.9609373475098
 30
0.0
 10
815.5991208898502
 20
610.1796873474551
 30
0.0
 10
815.1049802649737
 20
610.6171873473456
 30
0.0
 10
814.6108396400973
 20
611.0546873472363
 30
0.0
 10
814.3286130776678
 20
611.6347654720913
 30
0.0
 10
814.2583005776854
 20
612.3574217219107
 30
0.0
  0
HATCH
  5
7C
330
6D
100
AcDbEntity
  8
0
 62
   240
420
 15539236
100
AcDbHatch
 10
0.0
 20
0.0
 30
0.0
210
0.0
220
0.0
230
1.0
  2
SOLID
 70
     1
 71
     0
 91
        1
 92
        1
 93
        1
 72
     4
 94
        3
 73
     0
 74
     1
 95
       71
 96
       67
 40
0.0
 40
0.0
 40
0.0
 40
0.0
 40
1.0
 40
1.0
 40
1.0
 40
2.0
 40
2.0
 40
2.0
 40
3.0
 40
3.0
 40
3.0
 40
4.0
 40
4.0
 40
4.0
 40
5.0
 40
5.0
 40
5.0
 40
6.0
 40
6.0
 40
6.0
 40
7.0
 40
7.0
 40
7.0
 40
8.0
 40
8.0
 40
8.0
 40
9.0
 40
9.0
 40
9.0
 40
10.0
 40
10.0
 40
10.0
 40
11.0
 40
11.0
 40
11.0
 40
12.0
 40
12.0
 40
12.0
 40
13.0
 40
13.0
 40
13.0
 40
14.0
 40
14.0
 40
14.0
 40
15.0
 40
15.0
 40
15.0
 40
16.0
 40
16.0
 40
16.0
 40
17.0
 40
17.0
 40
17.0
 40
18.0
 40
18.0
 40
18.0
 40
19.0
 40
19.0
 40
19.0
 40
20.0
 40
20.0
 40
20.0
 40
21.0
 40
21.0
 40
21.0
 40
22.0
 40
22.0
 40
22.0
 40
22.0
 10
814.2583005776854
 20
612.3574217219107
 10
814.2583005776854
 20
612.3574217219107
 10
815.3657224524086
 20
612.4511717218872
 10
815.3657224524086
 20
612.4511717218872
 10
815.447753702388
 20
611.912109222022
 10
815.6381833898405
 20
611.5068357846233
 10
815.9370115147657
 20
611.2353514096911
 10
816.235839639691
 20
610.963867034759
 10
816.596191202101
 20
610.828124847293
 10
817.0180662019955
 20
610.828124847293
 10
817.5258787018685
 20
610.828124847293
 10
817.9555662017611
 20
611.0195310972451
 10
818.3071287016732
 20
611.4023435971494
 10
818.6586912015853
 20
611.7851560970537
 10
818.8344724515414
 20
612.2929685969267
 10
818.8344724515414
 20
612.9257810967686
 10
818.8344724515414
 20
613.5273435966182
 10
818.6655271390836
 20
614.0019529714995
 10
818.327636514168
 20
614.3496092214126
 10
817.9897458892525
 20
614.6972654713256
 10
817.5473630768631
 20
614.8710935962822
 10
817.0004880769999
 20
614.8710935962822
 10
816.6606443270848
 20
614.8710935962822
 10
816.3540037021614
 20
614.7939451588015
 10
816.0805662022299
 20
614.6396482838401
 10
815.8071287022982
 20
614.4853514088786
 10
815.5922849523519
 20
614.2851560964288
 10
815.436034952391
 20
614.0390623464903
 10
815.436034952391
 20
614.0390623464903
 10
814.4458005776386
 20
614.167968596458
 10
814.4458005776386
 20
614.167968596458
 10
814.4458005776386
 20
614.167968596458
 10
815.2778318274305
 20
618.580077970355
 10
815.2778318274305
 20
618.580077970355
 10
815.2778318274305
 20
618.580077970355
 10
819.5493162013627
 20
618.580077970355
 10
819.5493162013627
 20
618.580077970355
 10
819.5493162013627
 20
618.580077970355
 10
819.5493162013627
 20
617.5722654706069
 10
819.5493162013627
 20
617.5722654706069
 10
819.5493162013627
 20
617.5722654706069
 10
816.1215818272196
 20
617.5722654706069
 10
816.1215818272196
 20
617.5722654706069
 10
816.1215818272196
 20
617.5722654706069
 10
815.6586912023353
 20
615.2636717211841
 10
815.6586912023353
 20
615.2636717211841
 10
816.1743162022065
 20
615.6230467210942
 10
816.7153318270712
 20
615.8027342210493
 10
817.2817380769295
 20
615.8027342210493
 10
818.031738076742
 20
615.8027342210493
 10
818.6645505765838
 20
615.5429685961143
 10
819.180175576455
 20
615.0234373462441
 10
819.6958005763261
 20
614.5039060963741
 10
819.9536130762616
 20
613.835937346541
 10
819.9536130762616
 20
613.0195310967451
 10
819.9536130762616
 20
612.2421873469394
 10
819.7270505763182
 20
611.5703123471075
 10
819.2739255764315
 20
611.003906097249
 10
818.7231443265692
 20
610.3085935974228
 10
817.9711912017572
 20
609.9609373475098
 10
817.0180662019955
 20
609.9609373475098
 10
816.2368162021908
 20
609.9609373475098
 10
815.5991208898502
 20
610.1796873474551
 10
815.1049802649737
 20
610.6171873473456
 10
814.6108396400973
 20
611.0546873472363
 10
814.3286130776678
 20
611.6347654720913
 10
814.2583005776854
 20
612.3574217219107
 97
        0
 97
        0
 75
     2
 76
     1
 98
        0
  0
SPLINE
  5
7D
330
6D
100
AcDbEntity
  8
0
 62
   240
420
 15539236
370
    35
100
AcDbSpline
210
0.0
220
0.0
230
1.0
 70
    11
 71
     3
 72
   110
 73
   106
 74
     0
 42
0.0000000001
 43
0.0000000001
 12
1.0
 22
0.0
 32
0.0
 13
1.0
 23
0.0
 33
0.0
 40
0.0
 40
0.0
 40
0.0
 40
0.0
 40
1.0
 40
1.0
 40
1.0
 40
2.0
 40
2.0
 40
2.0
 40
3.0
 40
3.0
 40
3.0
 40
4.0
 40
4.0
 40
4.0
 40
5.0
 40
5.0
 40
5.0
 40
6.0
 40
6.0
 40
6.0
 40
7.0
 40
7.0
 40
7.0
 40
8.0
 40
8.0
 40
8.0
 40
9.0
 40
9.0
 40
9.0
 40
10.0
 40
10.0
 40
10.0
 40
11.0
 40
11.0
 40
11.0
 40
12.0
 40
12.0
 40
12.0
 40
13.0
 40
13.0
 40
13.0
 40
14.0
 40
14.0
 40
14.0
 40
15.0
 40
15.0
 40
15.0
 40
16.0
 40
16.0
 40
16.0
 40
17.0
 40
17.0
 40
17.0
 40
18.0
 40
18.0
 40
18.0
 40
19.0
 40
19.0
 40
19.0
 40
20.0
 40
20.0
 40
20.0
 40
21.0
 40
21.0
 40
21.0
 40
22.0
 40
22.0
 40
22.0
 40
23.0
 40
23.0
 40
23.0
 40
24.0
 40
24.0
 40
24.0
 40
25.0
 40
25.0
 40
25.0
 40
26.0
 40
26.0
 40
26.0
 40
27.0
 40
27.0
 40
27.0
 40
28.0
 40
28.0
 40
28.0
 40
29.0
 40
29.0
 40
29.0
 40
30.0
 40
30.0
 40
30.0
 40
31.0
 40
31.0
 40
31.0
 40
32.0
 40
32.0
 40
32.0
 40
33.0
 40
33.0
 40
33.0
 40
34.0
 40
34.0
 40
34.0
 40
35.0
 40
35.0
 40
35.0
 40
35.0
 10
824.3071287001732
 20
612.8671873467832
 30
0.0
 10
824.3071287001732
 20
612.8671873467832
 30
0.0
 10
825.3793943249051
 20
612.9609373467598
 30
0.0
 10
825.3793943249051
 20
612.9609373467598
 30
0.0
 10
825.4301755748925
 20
612.5312498468671
 30
0.0
 10
825.5483396373629
 20
612.1787107844553
 30
0.0
 10
825.7338865123165
 20
611.9033201595241
 30
0.0
 10
825.9194333872701
 20
611.627929534593
 30
0.0
 10
826.2075193246981
 20
611.4052732846486
 30
0.0
 10
826.5981443246004
 20
611.2353514096911
 30
0.0
 10
826.9887693245028
 20
611.0654295347337
 30
0.0
 10
827.4282224493929
 20
610.9804685972549
 30
0.0
 10
827.9165036992708
 20
610.9804685972549
 30
0.0
 10
828.3500974491625
 20
610.9804685972549
 30
0.0
 10
828.7329099490668
 20
611.0449217222388
 30
0.0
 10
829.0649411989838
 20
611.1738279722065
 30
0.0
 10
829.3969724489008
 20
611.3027342221743
 30
0.0
 10
829.6440427613389
 20
611.4794920346301
 30
0.0
 10
829.8061521362985
 20
611.7041014095739
 30
0.0
 10
829.9682615112579
 20
611.9287107845178
 30
0.0
 10
830.0493161987376
 20
612.1738279719565
 30
0.0
 10
830.0493161987376
 20
612.4394529718901
 30
0.0
 10
830.0493161987376
 20
612.7089842218228
 30
0.0
 10
829.9711911987572
 20
612.9443357842639
 30
0.0
 10
829.8149411987962
 20
613.1455076592136
 30
0.0
 10
829.6586911988353
 20
613.3466795341633
 30
0.0
 10
829.4008786988998
 20
613.5156248466211
 30
0.0
 10
829.0415036989896
 20
613.6523435965869
 30
0.0
 10
828.8110349490472
 20
613.7421873465645
 30
0.0
 10
828.3012693241747
 20
613.8818357840295
 30
0.0
 10
827.5122068243719
 20
614.0712889089822
 30
0.0
 10
826.7231443245691
 20
614.2607420339348
 30
0.0
 10
826.1704099497074
 20
614.4394529713901
 30
0.0
 10
825.8540036997865
 20
614.6074217213481
 30
0.0
 10
825.4438474498891
 20
614.8222654712944
 30
0.0
 10
825.1381833874655
 20
615.0888670337278
 30
0.0
 10
824.9370115125157
 20
615.4072264086482
 30
0.0
 10
824.7358396375661
 20
615.7255857835686
 30
0.0
 10
824.6352537000912
 20
616.0820310959795
 30
0.0
 10
824.6352537000912
 20
616.4765623458809
 30
0.0
 10
824.6352537000912
 20
616.9101560957724
 30
0.0
 10
824.7583005750604
 20
617.3154295331711
 30
0.0
 10
825.0043943249989
 20
617.6923826580769
 30
0.0
 10
825.2504880749374
 20
618.0693357829826
 30
0.0
 10
825.6098630748476
 20
618.3554685954111
 30
0.0
 10
826.0825193247293
 20
618.5507810953623
 30
0.0
 10
826.5551755746112
 20
618.7460935953135
 30
0.0
 10
827.0805661994798
 20
618.843749845289
 30
0.0
 10
827.6586911993353
 20
618.843749845289
 30
0.0
 10
828.2954099491761
 20
618.843749845289
 30
0.0
 10
828.8569333865357
 20
618.7412107828147
 30
0.0
 10
829.3432615114142
 20
618.536132657866
 30
0.0
 10
829.8295896362926
 20
618.3310545329173
 30
0.0
 10
830.2036130736991
 20
618.0292967204927
 30
0.0
 10
830.4653318236336
 20
617.6308592205922
 30
0.0
 10
830.7270505735682
 20
617.2324217206918
 30
0.0
 10
830.8676755735331
 20
616.7812498458047
 30
0.0
 10
830.8872068235282
 20
616.2773435959307
 30
0.0
 10
830.8872068235282
 20
616.2773435959307
 30
0.0
 10
829.7973630738006
 20
616.1953123459512
 30
0.0
 10
829.7973630738006
 20
616.1953123459512
 30
0.0
 10
829.7387693238153
 20
616.7382810958154
 30
0.0
 10
829.5405271363649
 20
617.1484373457129
 30
0.0
 10
829.2026365114493
 20
617.4257810956435
 30
0.0
 10
828.8647458865338
 20
617.7031248455742
 30
0.0
 10
828.3657224491585
 20
617.8417967205395
 30
0.0
 10
827.7055661993236
 20
617.8417967205395
 30
0.0
 10
827.0180661994955
 20
617.8417967205395
 30
0.0
 10
826.5170896371208
 20
617.715820158071
 30
0.0
 10
826.2026365121993
 20
617.463867033134
 30
0.0
 10
825.888183387278
 20
617.2119139081971
 30
0.0
 10
825.7309568248172
 20
616.9082029707729
 30
0.0
 10
825.7309568248172
 20
616.5527342208618
 30
0.0
 10
825.7309568248172
 20
616.244140470939
 30
0.0
 10
825.8422849497894
 20
615.9902342210024
 30
0.0
 10
826.0649411997338
 20
615.7910154710522
 30
0.0
 10
826.2836911996791
 20
615.591796721102
 30
0.0
 10
826.8549802620363
 20
615.3876951586531
 30
0.0
 10
827.7788083868053
 20
615.1787107837054
 30
0.0
 10
828.7026365115743
 20
614.9697264087575
 30
0.0
 10
829.3364255739159
 20
614.7871092213032
 30
0.0
 10
829.68017557383
 20
614.6308592213422
 30
0.0
 10
830.1801755737049
 20
614.4003904713999
 30
0.0
 10
830.5493161986127
 20
614.1083982839729
 30
0.0
 10
830.7875974485531
 20
613.7548826590613
 30
0.0
 10
831.0258786984936
 20
613.4013670341496
 30
0.0
 10
831.1450193234638
 20
612.9941404717515
 30
0.0
 10
831.1450193234638
 20
612.5332029718667
 30
0.0
 10
831.1450193234638
 20
612.0761717219809
 30
0.0
 10
831.0141599484964
 20
611.6455076595886
 30
0.0
 10
830.7524411985619
 20
611.2412107846897
 30
0.0
 10
830.4907224486273
 20
610.8369139097907
 30
0.0
 10
830.1147458862213
 20
610.5224607848694
 30
0.0
 10
829.6245115113438
 20
610.2978514099256
 30
0.0
 10
829.1342771364664
 20
610.0732420349817
 30
0.0
 10
828.5825193241044
 20
609.9609373475098
 30
0.0
 10
827.9692380742576
 20
609.9609373475098
 30
0.0
 10
827.191894324452
 20
609.9609373475098
 30
0.0
 10
826.5405271371149
 20
610.0742185974814
 30
0.0
 10
826.0151365122462
 20
610.3007810974248
 30
0.0
 10
825.4897458873776
 20
610.5273435973681
 30
0.0
 10
825.0776365124806
 20
610.868163909783
 30
0.0
 10
824.7788083875553
 20
611.3232420346692
 30
0.0
 10
824.47998026263
 20
611.7783201595554
 30
0.0
 10
824.3227537001693
 20
612.2929685969267
 30
0.0
 10
824.3071287001732
 20
612.8671873467832
 30
0.0
  0
HATCH
  5
7E
330
6D
100
AcDbEntity
  8
0
 62
   240
420
 15539236
100
AcDbHatch
 10
0.0
 20
0.0
 30
0.0
210
0.0
220
0.0
230
1.0
  2
SOLID
 70
     1
 71
     0
 91
        1
 92
        1
 93
        1
 72
     4
 94
        3
 73
     0
 74
     1
 95
      110
 96
      106
 40
0.0
 40
0.0
 40
0.0
 40
0.0
 40
1.0
 40
1.0
 40
1.0
 40
2.0
 40
2.0
 40
2.0
 40
3.0
 40
3.0
 40
3.0
 40
4.0
 40
4.0
 40
4.0
 40
5.0
 40
5.0
 40
5.0
 40
6.0
 40
6.0
 40
6.0
 40
7.0
 40
7.0
 40
7.0
 40
8.0
 40
8.0
 40
8.0
 40
9.0
 40
9.0
 40
9.0
 40
10.0
 40
10.0
 40
10.0
 40
11.0
 40
11.0
 40
11.0
 40
12.0
 40
12.0
 40
12.0
 40
13.0
 40
13.0
 40
13.0
 40
14.0
 40
14.0
 40
14.0
 40
15.0
 40
15.0
 40
15.0
 40
16.0
 40
16.0
 40
16.0
 40
17.0
 40
17.0
 40
17.0
 40
18.0
 40
18.0
 40
18.0
 40
19.0
 40
19.0
 40
19.0
 40
20.0
 40
20.0
 40
20.0
 40
21.0
 40
21.0
 40
21.0
 40
22.0
 40
22.0
 40
22.0
 40
23.0
 40
23.0
 40
23.0
 40
24.0
 40
24.0
 40
24.0
 40
25.0
 40
25.0
 40
25.0
 40
26.0
 40
26.0
 40
26.0
 40
27.0
 40
27.0
 40
27.0
 40
28.0
 40
28.0
 40
28.0
 40
29.0
 40
29.0
 40
29.0
 40
30.0
 40
30.0
 40
30.0
 40
31.0
 40
31.0
 40
31.0
 40
32.0
 40
32.0
 40
32.0
 40
33.0
 40
33.0
 40
33.0
 40
34.0
 40
34.0
 40
34.0
 40
35.0
 40
35.0
 40
35.0
 40
35.0
 10
824.3071287001732
 20
612.8671873467832
 10
824.3071287001732
 20
612.8671873467832
 10
825.3793943249051
 20
612.9609373467598
 10
825.3793943249051
 20
612.9609373467598
 10
825.4301755748925
 20
612.5312498468671
 10
825.5483396373629
 20
612.1787107844553
 10
825.7338865123165
 20
611.9033201595241
 10
825.9194333872701
 20
611.627929534593
 10
826.2075193246981
 20
611.4052732846486
 10
826.5981443246004
 20
611.2353514096911
 10
826.9887693245028
 20
611.0654295347337
 10
827.4282224493929
 20
610.9804685972549
 10
827.9165036992708
 20
610.9804685972549
 10
828.3500974491625
 20
610.9804685972549
 10
828.7329099490668
 20
611.0449217222388
 10
829.0649411989838
 20
611.1738279722065
 10
829.3969724489008
 20
611.3027342221743
 10
829.6440427613389
 20
611.4794920346301
 10
829.8061521362985
 20
611.7041014095739
 10
829.9682615112579
 20
611.9287107845178
 10
830.0493161987376
 20
612.1738279719565
 10
830.0493161987376
 20
612.4394529718901
 10
830.0493161987376
 20
612.7089842218228
 10
829.9711911987572
 20
612.9443357842639
 10
829.8149411987962
 20
613.1455076592136
 10
829.6586911988353
 20
613.3466795341633
 10
829.4008786988998
 20
613.5156248466211
 10
829.0415036989896
 20
613.6523435965869
 10
828.8110349490472
 20
613.7421873465645
 10
828.3012693241747
 20
613.8818357840295
 10
827.5122068243719
 20
614.0712889089822
 10
826.7231443245691
 20
614.2607420339348
 10
826.1704099497074
 20
614.4394529713901
 10
825.8540036997865
 20
614.6074217213481
 10
825.4438474498891
 20
614.8222654712944
 10
825.1381833874655
 20
615.0888670337278
 10
824.9370115125157
 20
615.4072264086482
 10
824.7358396375661
 20
615.7255857835686
 10
824.6352537000912
 20
616.0820310959795
 10
824.6352537000912
 20
616.4765623458809
 10
824.6352537000912
 20
616.9101560957724
 10
824.7583005750604
 20
617.3154295331711
 10
825.0043943249989
 20
617.6923826580769
 10
825.2504880749374
 20
618.0693357829826
 10
825.6098630748476
 20
618.3554685954111
 10
826.0825193247293
 20
618.5507810953623
 10
826.5551755746112
 20
618.7460935953135
 10
827.0805661994798
 20
618.843749845289
 10
827.6586911993353
 20
618.843749845289
 10
828.2954099491761
 20
618.843749845289
 10
828.8569333865357
 20
618.7412107828147
 10
829.3432615114142
 20
618.536132657866
 10
829.8295896362926
 20
618.3310545329173
 10
830.2036130736991
 20
618.0292967204927
 10
830.4653318236336
 20
617.6308592205922
 10
830.7270505735682
 20
617.2324217206918
 10
830.8676755735331
 20
616.7812498458047
 10
830.8872068235282
 20
616.2773435959307
 10
830.8872068235282
 20
616.2773435959307
 10
829.7973630738006
 20
616.1953123459512
 10
829.7973630738006
 20
616.1953123459512
 10
829.7387693238153
 20
616.7382810958154
 10
829.5405271363649
 20
617.1484373457129
 10
829.2026365114493
 20
617.4257810956435
 10
828.8647458865338
 20
617.7031248455742
 10
828.3657224491585
 20
617.8417967205395
 10
827.7055661993236
 20
617.8417967205395
 10
827.0180661994955
 20
617.8417967205395
 10
826.5170896371208
 20
617.715820158071
 10
826.2026365121993
 20
617.463867033134
 10
825.888183387278
 20
617.2119139081971
 10
825.7309568248172
 20
616.9082029707729
 10
825.7309568248172
 20
616.5527342208618
 10
825.7309568248172
 20
616.244140470939
 10
825.8422849497894
 20
615.9902342210024
 10
826.0649411997338
 20
615.7910154710522
 10
826.2836911996791
 20
615.591796721102
 10
826.8549802620363
 20
615.3876951586531
 10
827.7788083868053
 20
615.1787107837054
 10
828.7026365115743
 20
614.9697264087575
 10
829.3364255739159
 20
614.7871092213032
 10
829.68017557383
 20
614.6308592213422
 10
830.1801755737049
 20
614.4003904713999
 10
830.5493161986127
 20
614.1083982839729
 10
830.7875974485531
 20
613.7548826590613
 10
831.0258786984936
 20
613.4013670341496
 10
831.1450193234638
 20
612.9941404717515
 10
831.1450193234638
 20
612.5332029718667
 10
831.1450193234638
 20
612.0761717219809
 10
831.0141599484964
 20
611.6455076595886
 10
830.7524411985619
 20
611.2412107846897
 10
830.4907224486273
 20
610.8369139097907
 10
830.1147458862213
 20
610.5224607848694
 10
829.6245115113438
 20
610.2978514099256
 10
829.1342771364664
 20
610.0732420349817
 10
828.5825193241044
 20
609.9609373475098
 10
827.9692380742576
 20
609.9609373475098
 10
827.191894324452
 20
609.9609373475098
 10
826.5405271371149
 20
610.0742185974814
 10
826.0151365122462
 20
610.3007810974248
 10
825.4897458873776
 20
610.5273435973681
 10
825.0776365124806
 20
610.868163909783
 10
824.7788083875553
 20
611.3232420346692
 10
824.47998026263
 20
611.7783201595554
 10
824.3227537001693
 20
612.2929685969267
 10
824.3071287001732
 20
612.8671873467832
 97
        0
 97
        0
 75
     2
 76
     1
 98
        0
  0
SPLINE
  5
7F
330
6D
100
AcDbEntity
  8
0
 62
   240
420
 15539236
370
    35
100
AcDbSpline
210
0.0
220
0.0
230
1.0
 70
    11
 71
     3
 72
    65
 73
    61
 74
     0
 42
0.0000000001
 43
0.0000000001
 12
1.0
 22
0.0
 32
0.0
 13
1.0
 23
0.0
 33
0.0
 40
0.0
 40
0.0
 40
0.0
 40
0.0
 40
1.0
 40
1.0
 40
1.0
 40
2.0
 40
2.0
 40
2.0
 40
3.0
 40
3.0
 40
3.0
 40
4.0
 40
4.0
 40
4.0
 40
5.0
 40
5.0
 40
5.0
 40
6.0
 40
6.0
 40
6.0
 40
7.0
 40
7.0
 40
7.0
 40
8.0
 40
8.0
 40
8.0
 40
9.0
 40
9.0
 40
9.0
 40
10.0
 40
10.0
 40
10.0
 40
11.0
 40
11.0
 40
11.0
 40
12.0
 40
12.0
 40
12.0
 40
13.0
 40
13.0
 40
13.0
 40
14.0
 40
14.0
 40
14.0
 40
15.0
 40
15.0
 40
15.0
 40
16.0
 40
16.0
 40
16.0
 40
17.0
 40
17.0
 40
17.0
 40
18.0
 40
18.0
 40
18.0
 40
19.0
 40
19.0
 40
19.0
 40
20.0
 40
20.0
 40
20.0
 40
20.0
 10
834.8657224475336
 20
611.0507810972373
 30
0.0
 10
834.8657224475336
 20
611.0507810972373
 30
0.0
 10
835.0180661974955
 20
610.1191404724702
 30
0.0
 10
835.0180661974955
 20
610.1191404724702
 30
0.0
 10
834.7211911975697
 20
610.0566404724858
 30
0.0
 10
834.4555661976361
 20
610.0253904724937
 30
0.0
 10
834.2211911976947
 20
610.0253904724937
 30
0.0
 10
833.8383786977904
 20
610.0253904724937
 30
0.0
 10
833.5415036978646
 20
610.0859373474785
 30
0.0
 10
833.3305661979174
 20
610.2070310974482
 30
0.0
 10
833.11962869797
 20
610.3281248474179
 30
0.0
 10
832.9711911980072
 20
610.4873045348781
 30
0.0
 10
832.8852536980287
 20
610.6845701598288
 30
0.0
 10
832.7993161980502
 20
610.8818357847796
 30
0.0
 10
832.7563474480609
 20
611.2968748471758
 30
0.0
 10
832.7563474480609
 20
611.9296873470175
 30
0.0
 10
832.7563474480609
 20
611.9296873470175
 30
0.0
 10
832.7563474480609
 20
615.5097654711226
 30
0.0
 10
832.7563474480609
 20
615.5097654711226
 30
0.0
 10
832.7563474480609
 20
615.5097654711226
 30
0.0
 10
831.9829099482542
 20
615.5097654711226
 30
0.0
 10
831.9829099482542
 20
615.5097654711226
 30
0.0
 10
831.9829099482542
 20
615.5097654711226
 30
0.0
 10
831.9829099482542
 20
616.3300779709175
 30
0.0
 10
831.9829099482542
 20
616.3300779709175
 30
0.0
 10
831.9829099482542
 20
616.3300779709175
 30
0.0
 10
832.7563474480609
 20
616.3300779709175
 30
0.0
 10
832.7563474480609
 20
616.3300779709175
 30
0.0
 10
832.7563474480609
 20
616.3300779709175
 30
0.0
 10
832.7563474480609
 20
617.8710935955322
 30
0.0
 10
832.7563474480609
 20
617.8710935955322
 30
0.0
 10
832.7563474480609
 20
617.8710935955322
 30
0.0
 10
833.8051755727987
 20
618.503906095374
 30
0.0
 10
833.8051755727987
 20
618.503906095374
 30
0.0
 10
833.8051755727987
 20
618.503906095374
 30
0.0
 10
833.8051755727987
 20
616.3300779709175
 30
0.0
 10
833.8051755727987
 20
616.3300779709175
 30
0.0
 10
833.8051755727987
 20
616.3300779709175
 30
0.0
 10
834.8657224475336
 20
616.3300779709175
 30
0.0
 10
834.8657224475336
 20
616.3300779709175
 30
0.0
 10
834.8657224475336
 20
616.3300779709175
 30
0.0
 10
834.8657224475336
 20
615.5097654711226
 30
0.0
 10
834.8657224475336
 20
615.5097654711226
 30
0.0
 10
834.8657224475336
 20
615.5097654711226
 30
0.0
 10
833.8051755727987
 20
615.5097654711226
 30
0.0
 10
833.8051755727987
 20
615.5097654711226
 30
0.0
 10
833.8051755727987
 20
615.5097654711226
 30
0.0
 10
833.8051755727987
 20
611.8710935970322
 30
0.0
 10
833.8051755727987
 20
611.8710935970322
 30
0.0
 10
833.8051755727987
 20
611.5703123471075
 30
0.0
 10
833.823730260294
 20
611.3769529721558
 30
0.0
 10
833.8608396352847
 20
611.2910154721773
 30
0.0
 10
833.8979490102755
 20
611.2050779721988
 30
0.0
 10
833.9584958852604
 20
611.1367185972158
 30
0.0
 10
834.0424802602394
 20
611.0859373472285
 30
0.0
 10
834.1264646352183
 20
611.0351560972412
 30
0.0
 10
834.2465818226883
 20
611.0097654722475
 30
0.0
 10
834.4028318226493
 20
611.0097654722475
 30
0.0
 10
834.52001932262
 20
611.0097654722475
 30
0.0
 10
834.6743161975814
 20
611.0234373472441
 30
0.0
 10
834.8657224475336
 20
611.0507810972373
 30
0.0
  0
HATCH
  5
80
330
6D
100
AcDbEntity
  8
0
 62
   240
420
 15539236
100
AcDbHatch
 10
0.0
 20
0.0
 30
0.0
210
0.0
220
0.0
230
1.0
  2
SOLID
 70
     1
 71
     0
 91
        1
 92
        1
 93
        1
 72
     4
 94
        3
 73
     0
 74
     1
 95
       65
 96
       61
 40
0.0
 40
0.0
 40
0.0
 40
0.0
 40
1.0
 40
1.0
 40
1.0
 40
2.0
 40
2.0
 40
2.0
 40
3.0
 40
3.0
 40
3.0
 40
4.0
 40
4.0
 40
4.0
 40
5.0
 40
5.0
 40
5.0
 40
6.0
 40
6.0
 40
6.0
 40
7.0
 40
7.0
 40
7.0
 40
8.0
 40
8.0
 40
8.0
 40
9.0
 40
9.0
 40
9.0
 40
10.0
 40
10.0
 40
10.0
 40
11.0
 40
11.0
 40
11.0
 40
12.0
 40
12.0
 40
12.0
 40
13.0
 40
13.0
 40
13.0
 40
14.0
 40
14.0
 40
14.0
 40
15.0
 40
15.0
 40
15.0
 40
16.0
 40
16.0
 40
16.0
 40
17.0
 40
17.0
 40
17.0
 40
18.0
 40
18.0
 40
18.0
 40
19.0
 40
19.0
 40
19.0
 40
20.0
 40
20.0
 40
20.0
 40
20.0
 10
834.8657224475336
 20
611.0507810972373
 10
834.8657224475336
 20
611.0507810972373
 10
835.0180661974955
 20
610.1191404724702
 10
835.0180661974955
 20
610.1191404724702
 10
834.7211911975697
 20
610.0566404724858
 10
834.4555661976361
 20
610.0253904724937
 10
834.2211911976947
 20
610.0253904724937
 10
833.8383786977904
 20
610.0253904724937
 10
833.5415036978646
 20
610.0859373474785
 10
833.3305661979174
 20
610.2070310974482
 10
833.11962869797
 20
610.3281248474179
 10
832.9711911980072
 20
610.4873045348781
 10
832.8852536980287
 20
610.6845701598288
 10
832.7993161980502
 20
610.8818357847796
 10
832.7563474480609
 20
611.2968748471758
 10
832.7563474480609
 20
611.9296873470175
 10
832.7563474480609
 20
611.9296873470175
 10
832.7563474480609
 20
615.5097654711226
 10
832.7563474480609
 20
615.5097654711226
 10
832.7563474480609
 20
615.5097654711226
 10
831.9829099482542
 20
615.5097654711226
 10
831.9829099482542
 20
615.5097654711226
 10
831.9829099482542
 20
615.5097654711226
 10
831.9829099482542
 20
616.3300779709175
 10
831.9829099482542
 20
616.3300779709175
 10
831.9829099482542
 20
616.3300779709175
 10
832.7563474480609
 20
616.3300779709175
 10
832.7563474480609
 20
616.3300779709175
 10
832.7563474480609
 20
616.3300779709175
 10
832.7563474480609
 20
617.8710935955322
 10
832.7563474480609
 20
617.8710935955322
 10
832.7563474480609
 20
617.8710935955322
 10
833.8051755727987
 20
618.503906095374
 10
833.8051755727987
 20
618.503906095374
 10
833.8051755727987
 20
618.503906095374
 10
833.8051755727987
 20
616.3300779709175
 10
833.8051755727987
 20
616.3300779709175
 10
833.8051755727987
 20
616.3300779709175
 10
834.8657224475336
 20
616.3300779709175
 10
834.8657224475336
 20
616.3300779709175
 10
834.8657224475336
 20
616.3300779709175
 10
834.8657224475336
 20
615.5097654711226
 10
834.8657224475336
 20
615.5097654711226
 10
834.8657224475336
 20
615.5097654711226
 10
833.8051755727987
 20
615.5097654711226
 10
833.8051755727987
 20
615.5097654711226
 10
833.8051755727987
 20
615.5097654711226
 10
833.8051755727987
 20
611.8710935970322
 10
833.8051755727987
 20
611.8710935970322
 10
833.8051755727987
 20
611.5703123471075
 10
833.823730260294
 20
611.3769529721558
 10
833.8608396352847
 20
611.2910154721773
 10
833.8979490102755
 20
611.2050779721988
 10
833.9584958852604
 20
611.1367185972158
 10
834.0424802602394
 20
611.0859373472285
 10
834.1264646352183
 20
611.0351560972412
 10
834.2465818226883
 20
611.0097654722475
 10
834.4028318226493
 20
611.0097654722475
 10
834.52001932262
 20
611.0097654722475
 10
834.6743161975814
 20
611.0234373472441
 10
834.8657224475336
 20
611.0507810972373
 97
        0
 97
        0
 75
     2
 76
     1
 98
        0
  0
SPLINE
  5
81
330
6D
100
AcDbEntity
  8
0
 62
   240
420
 15539236
370
    35
100
AcDbSpline
210
0.0
220
0.0
230
1.0
 70
    11
 71
     3
 72
    50
 73
    46
 74
     0
 42
0.0000000001
 43
0.0000000001
 12
1.0
 22
0.0
 32
0.0
 13
1.0
 23
0.0
 33
0.0
 40
0.0
 40
0.0
 40
0.0
 40
0.0
 40
1.0
 40
1.0
 40
1.0
 40
2.0
 40
2.0
 40
2.0
 40
3.0
 40
3.0
 40
3.0
 40
4.0
 40
4.0
 40
4.0
 40
5.0
 40
5.0
 40
5.0
 40
6.0
 40
6.0
 40
6.0
 40
7.0
 40
7.0
 40
7.0
 40
8.0
 40
8.0
 40
8.0
 40
9.0
 40
9.0
 40
9.0
 40
10.0
 40
10.0
 40
10.0
 40
11.0
 40
11.0
 40
11.0
 40
12.0
 40
12.0
 40
12.0
 40
13.0
 40
13.0
 40
13.0
 40
14.0
 40
14.0
 40
14.0
 40
15.0
 40
15.0
 40
15.0
 40
15.0
 10
840.1567380712108
 20
612.1113279719722
 30
0.0
 10
840.1567380712108
 20
612.1113279719722
 30
0.0
 10
841.2465818209383
 20
611.9765623470058
 30
0.0
 10
841.2465818209383
 20
611.9765623470058
 30
0.0
 10
841.0747068209813
 20
611.339843597165
 30
0.0
 10
840.7563474460609
 20
610.8457029722886
 30
0.0
 10
840.2915036961771
 20
610.4941404723764
 30
0.0
 10
839.8266599462933
 20
610.1425779724643
 30
0.0
 10
839.2329099464417
 20
609.9667967225083
 30
0.0
 10
838.5102536966224
 20
609.9667967225083
 30
0.0
 10
837.60009744685
 20
609.9667967225083
 30
0.0
 10
836.8784177595304
 20
610.2470701599382
 30
0.0
 10
836.3452146346636
 20
610.8076170347981
 30
0.0
 10
835.812011509797
 20
611.3681639096579
 30
0.0
 10
835.5454099473636
 20
612.1542967219614
 30
0.0
 10
835.5454099473636
 20
613.1660154717085
 30
0.0
 10
835.5454099473636
 20
614.2128904714467
 30
0.0
 10
835.8149411972962
 20
615.0253904712437
 30
0.0
 10
836.3540036971615
 20
615.6035154710991
 30
0.0
 10
836.8930661970268
 20
616.1816404709546
 30
0.0
 10
837.5922849468519
 20
616.4707029708823
 30
0.0
 10
838.451659946637
 20
616.4707029708823
 30
0.0
 10
839.283691196429
 20
616.4707029708823
 30
0.0
 10
839.9633786962592
 20
616.1874998459531
 30
0.0
 10
840.4907224461273
 20
615.6210935960947
 30
0.0
 10
841.0180661959955
 20
615.0546873462363
 30
0.0
 10
841.2817380709296
 20
614.2578123464356
 30
0.0
 10
841.2817380709296
 20
613.2304685966924
 30
0.0
 10
841.2817380709296
 20
613.167968596708
 30
0.0
 10
841.27978494593
 20
613.0742185967314
 30
0.0
 10
841.275878695931
 20
612.9492185967626
 30
0.0
 10
841.275878695931
 20
612.9492185967626
 30
0.0
 10
836.6352536970911
 20
612.9492185967626
 30
0.0
 10
836.6352536970911
 20
612.9492185967626
 30
0.0
 10
836.6743161970815
 20
612.2656248469336
 30
0.0
 10
836.867675572033
 20
611.7421873470645
 30
0.0
 10
837.2153318219462
 20
611.3789060971552
 30
0.0
 10
837.5629880718592
 20
611.015624847246
 30
0.0
 10
837.9965818217509
 20
610.8339842222915
 30
0.0
 10
838.5161130716209
 20
610.8339842222915
 30
0.0
 10
838.9028318215243
 20
610.8339842222915
 30
0.0
 10
839.2329099464417
 20
610.935546722266
 30
0.0
 10
839.5063474463734
 20
611.1386717222153
 30
0.0
 10
839.7797849463051
 20
611.3417967221645
 30
0.0
 10
839.9965818212509
 20
611.6660154720835
 30
0.0
 10
840.1567380712108
 20
612.1113279719722
 30
0.0
  0
SPLINE
  5
82
330
6D
100
AcDbEntity
  8
0
 62
   240
420
 15539236
370
    35
100
AcDbSpline
210
0.0
220
0.0
230
1.0
 70
    11
 71
     3
 72
    20
 73
    16
 74
     0
 42
0.0000000001
 43
0.0000000001
 12
1.0
 22
0.0
 32
0.0
 13
1.0
 23
0.0
 33
0.0
 40
0.0
 40
0.0
 40
0.0
 40
0.0
 40
1.0
 40
1.0
 40
1.0
 40
2.0
 40
2.0
 40
2.0
 40
3.0
 40
3.0
 40
3.0
 40
4.0
 40
4.0
 40
4.0
 40
5.0
 40
5.0
 40
5.0
 40
5.0
 10
836.6938474470766
 20
613.8164060965458
 30
0.0
 10
836.6938474470766
 20
613.8164060965458
 30
0.0
 10
840.1684568212079
 20
613.8164060965458
 30
0.0
 10
840.1684568212079
 20
613.8164060965458
 30
0.0
 10
840.1215818212196
 20
614.339843596415
 30
0.0
 10
839.9887693212528
 20
614.7324217213169
 30
0.0
 10
839.7700193213075
 20
614.9941404712514
 30
0.0
 10
839.4340818213915
 20
615.4003904711499
 30
0.0
 10
838.9985349465004
 20
615.6035154710991
 30
0.0
 10
838.4633786966341
 20
615.6035154710991
 30
0.0
 10
837.9790036967553
 20
615.6035154710991
 30
0.0
 10
837.571777134357
 20
615.4414060961396
 30
0.0
 10
837.2416990094396
 20
615.1171873462207
 30
0.0
 10
836.9116208845221
 20
614.7929685963018
 30
0.0
 10
836.7290036970677
 20
614.3593748464101
 30
0.0
 10
836.6938474470766
 20
613.8164060965458
 30
0.0
  0
HATCH
  5
83
330
6D
100
AcDbEntity
  8
0
 62
   240
420
 15539236
100
AcDbHatch
 10
0.0
 20
0.0
 30
0.0
210
0.0
220
0.0
230
1.0
  2
SOLID
 70
     1
 71
     0
 91
        2
 92
        1
 93
        1
 72
     4
 94
        3
 73
     0
 74
     1
 95
       50
 96
       46
 40
0.0
 40
0.0
 40
0.0
 40
0.0
 40
1.0
 40
1.0
 40
1.0
 40
2.0
 40
2.0
 40
2.0
 40
3.0
 40
3.0
 40
3.0
 40
4.0
 40
4.0
 40
4.0
 40
5.0
 40
5.0
 40
5.0
 40
6.0
 40
6.0
 40
6.0
 40
7.0
 40
7.0
 40
7.0
 40
8.0
 40
8.0
 40
8.0
 40
9.0
 40
9.0
 40
9.0
 40
10.0
 40
10.0
 40
10.0
 40
11.0
 40
11.0
 40
11.0
 40
12.0
 40
12.0
 40
12.0
 40
13.0
 40
13.0
 40
13.0
 40
14.0
 40
14.0
 40
14.0
 40
15.0
 40
15.0
 40
15.0
 40
15.0
 10
840.1567380712108
 20
612.1113279719722
 10
840.1567380712108
 20
612.1113279719722
 10
841.2465818209383
 20
611.9765623470058
 10
841.2465818209383
 20
611.9765623470058
 10
841.0747068209813
 20
611.339843597165
 10
840.7563474460609
 20
610.8457029722886
 10
840.2915036961771
 20
610.4941404723764
 10
839.8266599462933
 20
610.1425779724643
 10
839.2329099464417
 20
609.9667967225083
 10
838.5102536966224
 20
609.9667967225083
 10
837.60009744685
 20
609.9667967225083
 10
836.8784177595304
 20
610.2470701599382
 10
836.3452146346636
 20
610.8076170347981
 10
835.812011509797
 20
611.3681639096579
 10
835.5454099473636
 20
612.1542967219614
 10
835.5454099473636
 20
613.1660154717085
 10
835.5454099473636
 20
614.2128904714467
 10
835.8149411972962
 20
615.0253904712437
 10
836.3540036971615
 20
615.6035154710991
 10
836.8930661970268
 20
616.1816404709546
 10
837.5922849468519
 20
616.4707029708823
 10
838.451659946637
 20
616.4707029708823
 10
839.283691196429
 20
616.4707029708823
 10
839.9633786962592
 20
616.1874998459531
 10
840.4907224461273
 20
615.6210935960947
 10
841.0180661959955
 20
615.0546873462363
 10
841.2817380709296
 20
614.2578123464356
 10
841.2817380709296
 20
613.2304685966924
 10
841.2817380709296
 20
613.167968596708
 10
841.27978494593
 20
613.0742185967314
 10
841.275878695931
 20
612.9492185967626
 10
841.275878695931
 20
612.9492185967626
 10
836.6352536970911
 20
612.9492185967626
 10
836.6352536970911
 20
612.9492185967626
 10
836.6743161970815
 20
612.2656248469336
 10
836.867675572033
 20
611.7421873470645
 10
837.2153318219462
 20
611.3789060971552
 10
837.5629880718592
 20
611.015624847246
 10
837.9965818217509
 20
610.8339842222915
 10
838.5161130716209
 20
610.8339842222915
 10
838.9028318215243
 20
610.8339842222915
 10
839.2329099464417
 20
610.935546722266
 10
839.5063474463734
 20
611.1386717222153
 10
839.7797849463051
 20
611.3417967221645
 10
839.9965818212509
 20
611.6660154720835
 10
840.1567380712108
 20
612.1113279719722
 97
        0
 97
        0
 92
        1
 93
        1
 72
     4
 94
        3
 73
     0
 74
     1
 95
       20
 96
       16
 40
0.0
 40
0.0
 40
0.0
 40
0.0
 40
1.0
 40
1.0
 40
1.0
 40
2.0
 40
2.0
 40
2.0
 40
3.0
 40
3.0
 40
3.0
 40
4.0
 40
4.0
 40
4.0
 40
5.0
 40
5.0
 40
5.0
 40
5.0
 10
836.6938474470766
 20
613.8164060965458
 10
836.6938474470766
 20
613.8164060965458
 10
840.1684568212079
 20
613.8164060965458
 10
840.1684568212079
 20
613.8164060965458
 10
840.1215818212196
 20
614.339843596415
 10
839.9887693212528
 20
614.7324217213169
 10
839.7700193213075
 20
614.9941404712514
 10
839.4340818213915
 20
615.4003904711499
 10
838.9985349465004
 20
615.6035154710991
 10
838.4633786966341
 20
615.6035154710991
 10
837.9790036967553
 20
615.6035154710991
 10
837.571777134357
 20
615.4414060961396
 10
837.2416990094396
 20
615.1171873462207
 10
836.9116208845221
 20
614.7929685963018
 10
836.7290036970677
 20
614.3593748464101
 10
836.6938474470766
 20
613.8164060965458
 97
        0
 97
        0
 75
     2
 76
     1
 98
        0
  0
SPLINE
  5
84
330
6D
100
AcDbEntity
  8
0
 62
   240
420
 15539236
370
    35
100
AcDbSpline
210
0.0
220
0.0
230
1.0
 70
    11
 71
     3
 72
    50
 73
    46
 74
     0
 42
0.0000000001
 43
0.0000000001
 12
1.0
 22
0.0
 32
0.0
 13
1.0
 23
0.0
 33
0.0
 40
0.0
 40
0.0
 40
0.0
 40
0.0
 40
1.0
 40
1.0
 40
1.0
 40
2.0
 40
2.0
 40
2.0
 40
3.0
 40
3.0
 40
3.0
 40
4.0
 40
4.0
 40
4.0
 40
5.0
 40
5.0
 40
5.0
 40
6.0
 40
6.0
 40
6.0
 40
7.0
 40
7.0
 40
7.0
 40
8.0
 40
8.0
 40
8.0
 40
9.0
 40
9.0
 40
9.0
 40
10.0
 40
10.0
 40
10.0
 40
11.0
 40
11.0
 40
11.0
 40
12.0
 40
12.0
 40
12.0
 40
13.0
 40
13.0
 40
13.0
 40
14.0
 40
14.0
 40
14.0
 40
15.0
 40
15.0
 40
15.0
 40
15.0
 10
842.5708005706073
 20
607.7226560980694
 30
0.0
 10
842.5708005706073
 20
607.7226560980694
 30
0.0
 10
842.5708005706073
 20
616.3300779709175
 30
0.0
 10
842.5708005706073
 20
616.3300779709175
 30
0.0
 10
842.5708005706073
 20
616.3300779709175
 30
0.0
 10
843.531738070367
 20
616.3300779709175
 30
0.0
 10
843.531738070367
 20
616.3300779709175
 30
0.0
 10
843.531738070367
 20
616.3300779709175
 30
0.0
 10
843.531738070367
 20
615.5214842211196
 30
0.0
 10
843.531738070367
 20
615.5214842211196
 30
0.0
 10
843.7583005703104
 20
615.8378904710405
 30
0.0
 10
844.0141599452464
 20
616.0751951584812
 30
0.0
 10
844.2993161951752
 20
616.2333982834416
 30
0.0
 10
844.5844724451039
 20
616.391601408402
 30
0.0
 10
844.9301755700175
 20
616.4707029708823
 30
0.0
 10
845.3364255699158
 20
616.4707029708823
 30
0.0
 10
845.867675569783
 20
616.4707029708823
 30
0.0
 10
846.3364255696658
 20
616.3339842209165
 30
0.0
 10
846.7426755695643
 20
616.0605467209848
 30
0.0
 10
847.1489255694628
 20
615.7871092210532
 30
0.0
 10
847.455566194386
 20
615.4013670336496
 30
0.0
 10
847.6625974443343
 20
614.9033201587741
 30
0.0
 10
847.8696286942826
 20
614.4052732838986
 30
0.0
 10
847.9731443192567
 20
613.8593748465352
 30
0.0
 10
847.9731443192567
 20
613.2656248466836
 30
0.0
 10
847.9731443192567
 20
612.6289060968428
 30
0.0
 10
847.8588865067852
 20
612.055663909486
 30
0.0
 10
847.6303708818424
 20
611.5458982846135
 30
0.0
 10
847.4018552568995
 20
611.0361326597409
 30
0.0
 10
847.0698240069826
 20
610.6455076598386
 30
0.0
 10
846.6342771320914
 20
610.3740232849065
 30
0.0
 10
846.1987302572003
 20
610.1025389099743
 30
0.0
 10
845.7407224448148
 20
609.9667967225083
 30
0.0
 10
845.2602536949349
 20
609.9667967225083
 30
0.0
 10
844.9086911950228
 20
609.9667967225083
 30
0.0
 10
844.5932615076017
 20
610.0410154724898
 30
0.0
 10
844.3139646326715
 20
610.1894529724526
 30
0.0
 10
844.0346677577413
 20
610.3378904724156
 30
0.0
 10
843.8051755702987
 20
610.5253904723686
 30
0.0
 10
843.6254880703436
 20
610.751952972312
 30
0.0
 10
843.6254880703436
 20
610.751952972312
 30
0.0
 10
843.6254880703436
 20
607.7226560980694
 30
0.0
 10
843.6254880703436
 20
607.7226560980694
 30
0.0
 10
843.6254880703436
 20
607.7226560980694
 30
0.0
 10
842.5708005706073
 20
607.7226560980694
 30
0.0
 10
842.5708005706073
 20
607.7226560980694
 30
0.0
  0
SPLINE
  5
85
330
6D
100
AcDbEntity
  8
0
 62
   240
420
 15539236
370
    35
100
AcDbSpline
210
0.0
220
0.0
230
1.0
 70
    11
 71
     3
 72
    29
 73
    25
 74
     0
 42
0.0000000001
 43
0.0000000001
 12
1.0
 22
0.0
 32
0.0
 13
1.0
 23
0.0
 33
0.0
 40
0.0
 40
0.0
 40
0.0
 40
0.0
 40
1.0
 40
1.0
 40
1.0
 40
2.0
 40
2.0
 40
2.0
 40
3.0
 40
3.0
 40
3.0
 40
4.0
 40
4.0
 40
4.0
 40
5.0
 40
5.0
 40
5.0
 40
6.0
 40
6.0
 40
6.0
 40
7.0
 40
7.0
 40
7.0
 40
8.0
 40
8.0
 40
8.0
 40
8.0
 10
843.5258786953685
 20
613.1835935967041
 30
0.0
 10
843.5258786953685
 20
612.3828123469043
 30
0.0
 10
843.687988070328
 20
611.7910154720522
 30
0.0
 10
844.0122068202469
 20
611.4082029721479
 30
0.0
 10
844.3364255701658
 20
611.0253904722437
 30
0.0
 10
844.7290036950677
 20
610.8339842222915
 30
0.0
 10
845.1899411949526
 20
610.8339842222915
 30
0.0
 10
845.6586911948353
 20
610.8339842222915
 30
0.0
 10
846.060058382235
 20
611.032226409742
 30
0.0
 10
846.3940427571515
 20
611.4287107846428
 30
0.0
 10
846.728027132068
 20
611.8251951595437
 30
0.0
 10
846.8950193195262
 20
612.4394529718901
 30
0.0
 10
846.8950193195262
 20
613.2714842216822
 30
0.0
 10
846.8950193195262
 20
614.0644529714839
 30
0.0
 10
846.731933382067
 20
614.6582029713354
 30
0.0
 10
846.4057615071486
 20
615.0527342212368
 30
0.0
 10
846.0795896322301
 20
615.4472654711382
 30
0.0
 10
845.6899411948275
 20
615.6445310960888
 30
0.0
 10
845.2368161949407
 20
615.6445310960888
 30
0.0
 10
844.787597445053
 20
615.6445310960888
 30
0.0
 10
844.3901365076524
 20
615.4345701586413
 30
0.0
 10
844.0444333827389
 20
615.0146482837463
 30
0.0
 10
843.6987302578253
 20
614.5947264088513
 30
0.0
 10
843.5258786953685
 20
613.9843748465039
 30
0.0
 10
843.5258786953685
 20
613.1835935967041
 30
0.0
  0
HATCH
  5
86
330
6D
100
AcDbEntity
  8
0
 62
   240
420
 15539236
100
AcDbHatch
 10
0.0
 20
0.0
 30
0.0
210
0.0
220
0.0
230
1.0
  2
SOLID
 70
     1
 71
     0
 91
        2
 92
        1
 93
        1
 72
     4
 94
        3
 73
     0
 74
     1
 95
       50
 96
       46
 40
0.0
 40
0.0
 40
0.0
 40
0.0
 40
1.0
 40
1.0
 40
1.0
 40
2.0
 40
2.0
 40
2.0
 40
3.0
 40
3.0
 40
3.0
 40
4.0
 40
4.0
 40
4.0
 40
5.0
 40
5.0
 40
5.0
 40
6.0
 40
6.0
 40
6.0
 40
7.0
 40
7.0
 40
7.0
 40
8.0
 40
8.0
 40
8.0
 40
9.0
 40
9.0
 40
9.0
 40
10.0
 40
10.0
 40
10.0
 40
11.0
 40
11.0
 40
11.0
 40
12.0
 40
12.0
 40
12.0
 40
13.0
 40
13.0
 40
13.0
 40
14.0
 40
14.0
 40
14.0
 40
15.0
 40
15.0
 40
15.0
 40
15.0
 10
842.5708005706073
 20
607.7226560980694
 10
842.5708005706073
 20
607.7226560980694
 10
842.5708005706073
 20
616.3300779709175
 10
842.5708005706073
 20
616.3300779709175
 10
842.5708005706073
 20
616.3300779709175
 10
843.531738070367
 20
616.3300779709175
 10
843.531738070367
 20
616.3300779709175
 10
843.531738070367
 20
616.3300779709175
 10
843.531738070367
 20
615.5214842211196
 10
843.531738070367
 20
615.5214842211196
 10
843.7583005703104
 20
615.8378904710405
 10
844.0141599452464
 20
616.0751951584812
 10
844.2993161951752
 20
616.2333982834416
 10
844.5844724451039
 20
616.391601408402
 10
844.9301755700175
 20
616.4707029708823
 10
845.3364255699158
 20
616.4707029708823
 10
845.867675569783
 20
616.4707029708823
 10
846.3364255696658
 20
616.3339842209165
 10
846.7426755695643
 20
616.0605467209848
 10
847.1489255694628
 20
615.7871092210532
 10
847.455566194386
 20
615.4013670336496
 10
847.6625974443343
 20
614.9033201587741
 10
847.8696286942826
 20
614.4052732838986
 10
847.9731443192567
 20
613.8593748465352
 10
847.9731443192567
 20
613.2656248466836
 10
847.9731443192567
 20
612.6289060968428
 10
847.8588865067852
 20
612.055663909486
 10
847.6303708818424
 20
611.5458982846135
 10
847.4018552568995
 20
611.0361326597409
 10
847.0698240069826
 20
610.6455076598386
 10
846.6342771320914
 20
610.3740232849065
 10
846.1987302572003
 20
610.1025389099743
 10
845.7407224448148
 20
609.9667967225083
 10
845.2602536949349
 20
609.9667967225083
 10
844.9086911950228
 20
609.9667967225083
 10
844.5932615076017
 20
610.0410154724898
 10
844.3139646326715
 20
610.1894529724526
 10
844.0346677577413
 20
610.3378904724156
 10
843.8051755702987
 20
610.5253904723686
 10
843.6254880703436
 20
610.751952972312
 10
843.6254880703436
 20
610.751952972312
 10
843.6254880703436
 20
607.7226560980694
 10
843.6254880703436
 20
607.7226560980694
 10
843.6254880703436
 20
607.7226560980694
 10
842.5708005706073
 20
607.7226560980694
 10
842.5708005706073
 20
607.7226560980694
 97
        0
 97
        0
 92
        1
 93
        1
 72
     4
 94
        3
 73
     0
 74
     1
 95
       29
 96
       25
 40
0.0
 40
0.0
 40
0.0
 40
0.0
 40
1.0
 40
1.0
 40
1.0
 40
2.0
 40
2.0
 40
2.0
 40
3.0
 40
3.0
 40
3.0
 40
4.0
 40
4.0
 40
4.0
 40
5.0
 40
5.0
 40
5.0
 40
6.0
 40
6.0
 40
6.0
 40
7.0
 40
7.0
 40
7.0
 40
8.0
 40
8.0
 40
8.0
 40
8.0
 10
843.5258786953685
 20
613.1835935967041
 10
843.5258786953685
 20
612.3828123469043
 10
843.687988070328
 20
611.7910154720522
 10
844.0122068202469
 20
611.4082029721479
 10
844.3364255701658
 20
611.0253904722437
 10
844.7290036950677
 20
610.8339842222915
 10
845.1899411949526
 20
610.8339842222915
 10
845.6586911948353
 20
610.8339842222915
 10
846.060058382235
 20
611.032226409742
 10
846.3940427571515
 20
611.4287107846428
 10
846.728027132068
 20
611.8251951595437
 10
846.8950193195262
 20
612.4394529718901
 10
846.8950193195262
 20
613.2714842216822
 10
846.8950193195262
 20
614.0644529714839
 10
846.731933382067
 20
614.6582029713354
 10
846.4057615071486
 20
615.0527342212368
 10
846.0795896322301
 20
615.4472654711382
 10
845.6899411948275
 20
615.6445310960888
 10
845.2368161949407
 20
615.6445310960888
 10
844.787597445053
 20
615.6445310960888
 10
844.3901365076524
 20
615.4345701586413
 10
844.0444333827389
 20
615.0146482837463
 10
843.6987302578253
 20
614.5947264088513
 10
843.5258786953685
 20
613.9843748465039
 10
843.5258786953685
 20
613.1835935967041
 97
        0
 97
        0
 75
     2
 76
     1
 98
        0
  0
SPLINE
  5
87
330
6D
100
AcDbEntity
  8
0
 62
   240
420
 15539236
370
    35
100
AcDbSpline
210
0.0
220
0.0
230
1.0
 70
    11
 71
     3
 72
    50
 73
    46
 74
     0
 42
0.0000000001
 43
0.0000000001
 12
1.0
 22
0.0
 32
0.0
 13
1.0
 23
0.0
 33
0.0
 40
0.0
 40
0.0
 40
0.0
 40
0.0
 40
1.0
 40
1.0
 40
1.0
 40
2.0
 40
2.0
 40
2.0
 40
3.0
 40
3.0
 40
3.0
 40
4.0
 40
4.0
 40
4.0
 40
5.0
 40
5.0
 40
5.0
 40
6.0
 40
6.0
 40
6.0
 40
7.0
 40
7.0
 40
7.0
 40
8.0
 40
8.0
 40
8.0
 40
9.0
 40
9.0
 40
9.0
 40
10.0
 40
10.0
 40
10.0
 40
11.0
 40
11.0
 40
11.0
 40
12.0
 40
12.0
 40
12.0
 40
13.0
 40
13.0
 40
13.0
 40
14.0
 40
14.0
 40
14.0
 40
15.0
 40
15.0
 40
15.0
 40
15.0
 10
849.2446286939388
 20
607.7226560980694
 30
0.0
 10
849.2446286939388
 20
607.7226560980694
 30
0.0
 10
849.2446286939388
 20
616.3300779709175
 30
0.0
 10
849.2446286939388
 20
616.3300779709175
 30
0.0
 10
849.2446286939388
 20
616.3300779709175
 30
0.0
 10
850.2055661936986
 20
616.3300779709175
 30
0.0
 10
850.2055661936986
 20
616.3300779709175
 30
0.0
 10
850.2055661936986
 20
616.3300779709175
 30
0.0
 10
850.2055661936986
 20
615.5214842211196
 30
0.0
 10
850.2055661936986
 20
615.5214842211196
 30
0.0
 10
850.432128693642
 20
615.8378904710405
 30
0.0
 10
850.687988068578
 20
616.0751951584812
 30
0.0
 10
850.9731443185067
 20
616.2333982834416
 30
0.0
 10
851.2583005684354
 20
616.391601408402
 30
0.0
 10
851.604003693349
 20
616.4707029708823
 30
0.0
 10
852.0102536932474
 20
616.4707029708823
 30
0.0
 10
852.5415036931146
 20
616.4707029708823
 30
0.0
 10
853.0102536929974
 20
616.3339842209165
 30
0.0
 10
853.4165036928958
 20
616.0605467209848
 30
0.0
 10
853.8227536927943
 20
615.7871092210532
 30
0.0
 10
854.1293943177176
 20
615.4013670336496
 30
0.0
 10
854.3364255676659
 20
614.9033201587741
 30
0.0
 10
854.5434568176141
 20
614.4052732838986
 30
0.0
 10
854.6469724425882
 20
613.8593748465352
 30
0.0
 10
854.6469724425882
 20
613.2656248466836
 30
0.0
 10
854.6469724425882
 20
612.6289060968428
 30
0.0
 10
854.5327146301169
 20
612.055663909486
 30
0.0
 10
854.3041990051739
 20
611.5458982846135
 30
0.0
 10
854.0756833802311
 20
611.0361326597409
 30
0.0
 10
853.7436521303141
 20
610.6455076598386
 30
0.0
 10
853.3081052554229
 20
610.3740232849065
 30
0.0
 10
852.8725583805318
 20
610.1025389099743
 30
0.0
 10
852.4145505681463
 20
609.9667967225083
 30
0.0
 10
851.9340818182665
 20
609.9667967225083
 30
0.0
 10
851.5825193183543
 20
609.9667967225083
 30
0.0
 10
851.2670896309332
 20
610.0410154724898
 30
0.0
 10
850.987792756003
 20
610.1894529724526
 30
0.0
 10
850.7084958810728
 20
610.3378904724156
 30
0.0
 10
850.4790036936303
 20
610.5253904723686
 30
0.0
 10
850.2993161936752
 20
610.751952972312
 30
0.0
 10
850.2993161936752
 20
610.751952972312
 30
0.0
 10
850.2993161936752
 20
607.7226560980694
 30
0.0
 10
850.2993161936752
 20
607.7226560980694
 30
0.0
 10
850.2993161936752
 20
607.7226560980694
 30
0.0
 10
849.2446286939388
 20
607.7226560980694
 30
0.0
 10
849.2446286939388
 20
607.7226560980694
 30
0.0
  0
SPLINE
  5
88
330
6D
100
AcDbEntity
  8
0
 62
   240
420
 15539236
370
    35
100
AcDbSpline
210
0.0
220
0.0
230
1.0
 70
    11
 71
     3
 72
    29
 73
    25
 74
     0
 42
0.0000000001
 43
0.0000000001
 12
1.0
 22
0.0
 32
0.0
 13
1.0
 23
0.0
 33
0.0
 40
0.0
 40
0.0
 40
0.0
 40
0.0
 40
1.0
 40
1.0
 40
1.0
 40
2.0
 40
2.0
 40
2.0
 40
3.0
 40
3.0
 40
3.0
 40
4.0
 40
4.0
 40
4.0
 40
5.0
 40
5.0
 40
5.0
 40
6.0
 40
6.0
 40
6.0
 40
7.0
 40
7.0
 40
7.0
 40
8.0
 40
8.0
 40
8.0
 40
8.0
 10
850.1997068187001
 20
613.1835935967041
 30
0.0
 10
850.1997068187001
 20
612.3828123469043
 30
0.0
 10
850.3618161936595
 20
611.7910154720522
 30
0.0
 10
850.6860349435784
 20
611.4082029721479
 30
0.0
 10
851.0102536934975
 20
611.0253904722437
 30
0.0
 10
851.4028318183992
 20
610.8339842222915
 30
0.0
 10
851.8637693182841
 20
610.8339842222915
 30
0.0
 10
852.3325193181669
 20
610.8339842222915
 30
0.0
 10
852.7338865055665
 20
611.032226409742
 30
0.0
 10
853.067870880483
 20
611.4287107846428
 30
0.0
 10
853.4018552553995
 20
611.8251951595437
 30
0.0
 10
853.5688474428578
 20
612.4394529718901
 30
0.0
 10
853.5688474428578
 20
613.2714842216822
 30
0.0
 10
853.5688474428578
 20
614.0644529714839
 30
0.0
 10
853.4057615053986
 20
614.6582029713354
 30
0.0
 10
853.0795896304801
 20
615.0527342212368
 30
0.0
 10
852.7534177555616
 20
615.4472654711382
 30
0.0
 10
852.363769318159
 20
615.6445310960888
 30
0.0
 10
851.9106443182724
 20
615.6445310960888
 30
0.0
 10
851.4614255683846
 20
615.6445310960888
 30
0.0
 10
851.063964630984
 20
615.4345701586413
 30
0.0
 10
850.7182615060705
 20
615.0146482837463
 30
0.0
 10
850.3725583811569
 20
614.5947264088513
 30
0.0
 10
850.1997068187001
 20
613.9843748465039
 30
0.0
 10
850.1997068187001
 20
613.1835935967041
 30
0.0
  0
HATCH
  5
89
330
6D
100
AcDbEntity
  8
0
 62
   240
420
 15539236
100
AcDbHatch
 10
0.0
 20
0.0
 30
0.0
210
0.0
220
0.0
230
1.0
  2
SOLID
 70
     1
 71
     0
 91
        2
 92
        1
 93
        1
 72
     4
 94
        3
 73
     0
 74
     1
 95
       50
 96
       46
 40
0.0
 40
0.0
 40
0.0
 40
0.0
 40
1.0
 40
1.0
 40
1.0
 40
2.0
 40
2.0
 40
2.0
 40
3.0
 40
3.0
 40
3.0
 40
4.0
 40
4.0
 40
4.0
 40
5.0
 40
5.0
 40
5.0
 40
6.0
 40
6.0
 40
6.0
 40
7.0
 40
7.0
 40
7.0
 40
8.0
 40
8.0
 40
8.0
 40
9.0
 40
9.0
 40
9.0
 40
10.0
 40
10.0
 40
10.0
 40
11.0
 40
11.0
 40
11.0
 40
12.0
 40
12.0
 40
12.0
 40
13.0
 40
13.0
 40
13.0
 40
14.0
 40
14.0
 40
14.0
 40
15.0
 40
15.0
 40
15.0
 40
15.0
 10
849.2446286939388
 20
607.7226560980694
 10
849.2446286939388
 20
607.7226560980694
 10
849.2446286939388
 20
616.3300779709175
 10
849.2446286939388
 20
616.3300779709175
 10
849.2446286939388
 20
616.3300779709175
 10
850.2055661936986
 20
616.3300779709175
 10
850.2055661936986
 20
616.3300779709175
 10
850.2055661936986
 20
616.3300779709175
 10
850.2055661936986
 20
615.5214842211196
 10
850.2055661936986
 20
615.5214842211196
 10
850.432128693642
 20
615.8378904710405
 10
850.687988068578
 20
616.0751951584812
 10
850.9731443185067
 20
616.2333982834416
 10
851.2583005684354
 20
616.391601408402
 10
851.604003693349
 20
616.4707029708823
 10
852.0102536932474
 20
616.4707029708823
 10
852.5415036931146
 20
616.4707029708823
 10
853.0102536929974
 20
616.3339842209165
 10
853.4165036928958
 20
616.0605467209848
 10
853.8227536927943
 20
615.7871092210532
 10
854.1293943177176
 20
615.4013670336496
 10
854.3364255676659
 20
614.9033201587741
 10
854.5434568176141
 20
614.4052732838986
 10
854.6469724425882
 20
613.8593748465352
 10
854.6469724425882
 20
613.2656248466836
 10
854.6469724425882
 20
612.6289060968428
 10
854.5327146301169
 20
612.055663909486
 10
854.3041990051739
 20
611.5458982846135
 10
854.0756833802311
 20
611.0361326597409
 10
853.7436521303141
 20
610.6455076598386
 10
853.3081052554229
 20
610.3740232849065
 10
852.8725583805318
 20
610.1025389099743
 10
852.4145505681463
 20
609.9667967225083
 10
851.9340818182665
 20
609.9667967225083
 10
851.5825193183543
 20
609.9667967225083
 10
851.2670896309332
 20
610.0410154724898
 10
850.987792756003
 20
610.1894529724526
 10
850.7084958810728
 20
610.3378904724156
 10
850.4790036936303
 20
610.5253904723686
 10
850.2993161936752
 20
610.751952972312
 10
850.2993161936752
 20
610.751952972312
 10
850.2993161936752
 20
607.7226560980694
 10
850.2993161936752
 20
607.7226560980694
 10
850.2993161936752
 20
607.7226560980694
 10
849.2446286939388
 20
607.7226560980694
 10
849.2446286939388
 20
607.7226560980694
 97
        0
 97
        0
 92
        1
 93
        1
 72
     4
 94
        3
 73
     0
 74
     1
 95
       29
 96
       25
 40
0.0
 40
0.0
 40
0.0
 40
0.0
 40
1.0
 40
1.0
 40
1.0
 40
2.0
 40
2.0
 40
2.0
 40
3.0
 40
3.0
 40
3.0
 40
4.0
 40
4.0
 40
4.0
 40
5.0
 40
5.0
 40
5.0
 40
6.0
 40
6.0
 40
6.0
 40
7.0
 40
7.0
 40
7.0
 40
8.0
 40
8.0
 40
8.0
 40
8.0
 10
850.1997068187001
 20
613.1835935967041
 10
850.1997068187001
 20
612.3828123469043
 10
850.3618161936595
 20
611.7910154720522
 10
850.6860349435784
 20
611.4082029721479
 10
851.0102536934975
 20
611.0253904722437
 10
851.4028318183992
 20
610.8339842222915
 10
851.8637693182841
 20
610.8339842222915
 10
852.3325193181669
 20
610.8339842222915
 10
852.7338865055665
 20
611.032226409742
 10
853.067870880483
 20
611.4287107846428
 10
853.4018552553995
 20
611.8251951595437
 10
853.5688474428578
 20
612.4394529718901
 10
853.5688474428578
 20
613.2714842216822
 10
853.5688474428578
 20
614.0644529714839
 10
853.4057615053986
 20
614.6582029713354
 10
853.0795896304801
 20
615.0527342212368
 10
852.7534177555616
 20
615.4472654711382
 10
852.363769318159
 20
615.6445310960888
 10
851.9106443182724
 20
615.6445310960888
 10
851.4614255683846
 20
615.6445310960888
 10
851.063964630984
 20
615.4345701586413
 10
850.7182615060705
 20
615.0146482837463
 10
850.3725583811569
 20
614.5947264088513
 10
850.1997068187001
 20
613.9843748465039
 10
850.1997068187001
 20
613.1835935967041
 97
        0
 97
        0
 75
     2
 76
     1
 98
        0
  0
SPLINE
  5
8A
330
6D
100
AcDbEntity
  8
0
 62
   240
420
 15539236
370
    35
100
AcDbSpline
210
0.0
220
0.0
230
1.0
 70
    11
 71
     3
 72
    50
 73
    46
 74
     0
 42
0.0000000001
 43
0.0000000001
 12
1.0
 22
0.0
 32
0.0
 13
1.0
 23
0.0
 33
0.0
 40
0.0
 40
0.0
 40
0.0
 40
0.0
 40
1.0
 40
1.0
 40
1.0
 40
2.0
 40
2.0
 40
2.0
 40
3.0
 40
3.0
 40
3.0
 40
4.0
 40
4.0
 40
4.0
 40
5.0
 40
5.0
 40
5.0
 40
6.0
 40
6.0
 40
6.0
 40
7.0
 40
7.0
 40
7.0
 40
8.0
 40
8.0
 40
8.0
 40
9.0
 40
9.0
 40
9.0
 40
10.0
 40
10.0
 40
10.0
 40
11.0
 40
11.0
 40
11.0
 40
12.0
 40
12.0
 40
12.0
 40
13.0
 40
13.0
 40
13.0
 40
14.0
 40
14.0
 40
14.0
 40
15.0
 40
15.0
 40
15.0
 40
15.0
 10
860.1782224412054
 20
612.1113279719722
 30
0.0
 10
860.1782224412054
 20
612.1113279719722
 30
0.0
 10
861.2680661909329
 20
611.9765623470058
 30
0.0
 10
861.2680661909329
 20
611.9765623470058
 30
0.0
 10
861.0961911909759
 20
611.339843597165
 30
0.0
 10
860.7778318160555
 20
610.8457029722886
 30
0.0
 10
860.3129880661718
 20
610.4941404723764
 30
0.0
 10
859.848144316288
 20
610.1425779724643
 30
0.0
 10
859.2543943164363
 20
609.9667967225083
 30
0.0
 10
858.5317380666171
 20
609.9667967225083
 30
0.0
 10
857.6215818168446
 20
609.9667967225083
 30
0.0
 10
856.899902129525
 20
610.2470701599382
 30
0.0
 10
856.3666990046584
 20
610.8076170347981
 30
0.0
 10
855.8334958797916
 20
611.3681639096579
 30
0.0
 10
855.5668943173582
 20
612.1542967219614
 30
0.0
 10
855.5668943173582
 20
613.1660154717085
 30
0.0
 10
855.5668943173582
 20
614.2128904714467
 30
0.0
 10
855.8364255672909
 20
615.0253904712437
 30
0.0
 10
856.3754880671561
 20
615.6035154710991
 30
0.0
 10
856.9145505670214
 20
616.1816404709546
 30
0.0
 10
857.6137693168465
 20
616.4707029708823
 30
0.0
 10
858.4731443166316
 20
616.4707029708823
 30
0.0
 10
859.3051755664237
 20
616.4707029708823
 30
0.0
 10
859.9848630662538
 20
616.1874998459531
 30
0.0
 10
860.5122068161219
 20
615.6210935960947
 30
0.0
 10
861.0395505659901
 20
615.0546873462363
 30
0.0
 10
861.3032224409242
 20
614.2578123464356
 30
0.0
 10
861.3032224409242
 20
613.2304685966924
 30
0.0
 10
861.3032224409242
 20
613.167968596708
 30
0.0
 10
861.3012693159246
 20
613.0742185967314
 30
0.0
 10
861.2973630659257
 20
612.9492185967626
 30
0.0
 10
861.2973630659257
 20
612.9492185967626
 30
0.0
 10
856.6567380670858
 20
612.9492185967626
 30
0.0
 10
856.6567380670858
 20
612.9492185967626
 30
0.0
 10
856.695800567076
 20
612.2656248469336
 30
0.0
 10
856.8891599420277
 20
611.7421873470645
 30
0.0
 10
857.2368161919408
 20
611.3789060971552
 30
0.0
 10
857.5844724418539
 20
611.015624847246
 30
0.0
 10
858.0180661917454
 20
610.8339842222915
 30
0.0
 10
858.5375974416156
 20
610.8339842222915
 30
0.0
 10
858.9243161915189
 20
610.8339842222915
 30
0.0
 10
859.2543943164363
 20
610.935546722266
 30
0.0
 10
859.527831816368
 20
611.1386717222153
 30
0.0
 10
859.8012693162997
 20
611.3417967221645
 30
0.0
 10
860.0180661912455
 20
611.6660154720835
 30
0.0
 10
860.1782224412054
 20
612.1113279719722
 30
0.0
  0
SPLINE
  5
8B
330
6D
100
AcDbEntity
  8
0
 62
   240
420
 15539236
370
    35
100
AcDbSpline
210
0.0
220
0.0
230
1.0
 70
    11
 71
     3
 72
    20
 73
    16
 74
     0
 42
0.0000000001
 43
0.0000000001
 12
1.0
 22
0.0
 32
0.0
 13
1.0
 23
0.0
 33
0.0
 40
0.0
 40
0.0
 40
0.0
 40
0.0
 40
1.0
 40
1.0
 40
1.0
 40
2.0
 40
2.0
 40
2.0
 40
3.0
 40
3.0
 40
3.0
 40
4.0
 40
4.0
 40
4.0
 40
5.0
 40
5.0
 40
5.0
 40
5.0
 10
856.7153318170712
 20
613.8164060965458
 30
0.0
 10
856.7153318170712
 20
613.8164060965458
 30
0.0
 10
860.1899411912025
 20
613.8164060965458
 30
0.0
 10
860.1899411912025
 20
613.8164060965458
 30
0.0
 10
860.1430661912142
 20
614.339843596415
 30
0.0
 10
860.0102536912474
 20
614.7324217213169
 30
0.0
 10
859.7915036913021
 20
614.9941404712514
 30
0.0
 10
859.4555661913861
 20
615.4003904711499
 30
0.0
 10
859.020019316495
 20
615.6035154710991
 30
0.0
 10
858.4848630666288
 20
615.6035154710991
 30
0.0
 10
858.0004880667499
 20
615.6035154710991
 30
0.0
 10
857.5932615043516
 20
615.4414060961396
 30
0.0
 10
857.2631833794342
 20
615.1171873462207
 30
0.0
 10
856.9331052545167
 20
614.7929685963018
 30
0.0
 10
856.7504880670624
 20
614.3593748464101
 30
0.0
 10
856.7153318170712
 20
613.8164060965458
 30
0.0
  0
HATCH
  5
8C
330
6D
100
AcDbEntity
  8
0
 62
   240
420
 15539236
100
AcDbHatch
 10
0.0
 20
0.0
 30
0.0
210
0.0
220
0.0
230
1.0
  2
SOLID
 70
     1
 71
     0
 91
        2
 92
        1
 93
        1
 72
     4
 94
        3
 73
     0
 74
     1
 95
       50
 96
       46
 40
0.0
 40
0.0
 40
0.0
 40
0.0
 40
1.0
 40
1.0
 40
1.0
 40
2.0
 40
2.0
 40
2.0
 40
3.0
 40
3.0
 40
3.0
 40
4.0
 40
4.0
 40
4.0
 40
5.0
 40
5.0
 40
5.0
 40
6.0
 40
6.0
 40
6.0
 40
7.0
 40
7.0
 40
7.0
 40
8.0
 40
8.0
 40
8.0
 40
9.0
 40
9.0
 40
9.0
 40
10.0
 40
10.0
 40
10.0
 40
11.0
 40
11.0
 40
11.0
 40
12.0
 40
12.0
 40
12.0
 40
13.0
 40
13.0
 40
13.0
 40
14.0
 40
14.0
 40
14.0
 40
15.0
 40
15.0
 40
15.0
 40
15.0
 10
860.1782224412054
 20
612.1113279719722
 10
860.1782224412054
 20
612.1113279719722
 10
861.2680661909329
 20
611.9765623470058
 10
861.2680661909329
 20
611.9765623470058
 10
861.0961911909759
 20
611.339843597165
 10
860.7778318160555
 20
610.8457029722886
 10
860.3129880661718
 20
610.4941404723764
 10
859.848144316288
 20
610.1425779724643
 10
859.2543943164363
 20
609.9667967225083
 10
858.5317380666171
 20
609.9667967225083
 10
857.6215818168446
 20
609.9667967225083
 10
856.899902129525
 20
610.2470701599382
 10
856.3666990046584
 20
610.8076170347981
 10
855.8334958797916
 20
611.3681639096579
 10
855.5668943173582
 20
612.1542967219614
 10
855.5668943173582
 20
613.1660154717085
 10
855.5668943173582
 20
614.2128904714467
 10
855.8364255672909
 20
615.0253904712437
 10
856.3754880671561
 20
615.6035154710991
 10
856.9145505670214
 20
616.1816404709546
 10
857.6137693168465
 20
616.4707029708823
 10
858.4731443166316
 20
616.4707029708823
 10
859.3051755664237
 20
616.4707029708823
 10
859.9848630662538
 20
616.1874998459531
 10
860.5122068161219
 20
615.6210935960947
 10
861.0395505659901
 20
615.0546873462363
 10
861.3032224409242
 20
614.2578123464356
 10
861.3032224409242
 20
613.2304685966924
 10
861.3032224409242
 20
613.167968596708
 10
861.3012693159246
 20
613.0742185967314
 10
861.2973630659257
 20
612.9492185967626
 10
861.2973630659257
 20
612.9492185967626
 10
856.6567380670858
 20
612.9492185967626
 10
856.6567380670858
 20
612.9492185967626
 10
856.695800567076
 20
612.2656248469336
 10
856.8891599420277
 20
611.7421873470645
 10
857.2368161919408
 20
611.3789060971552
 10
857.5844724418539
 20
611.015624847246
 10
858.0180661917454
 20
610.8339842222915
 10
858.5375974416156
 20
610.8339842222915
 10
858.9243161915189
 20
610.8339842222915
 10
859.2543943164363
 20
610.935546722266
 10
859.527831816368
 20
611.1386717222153
 10
859.8012693162997
 20
611.3417967221645
 10
860.0180661912455
 20
611.6660154720835
 10
860.1782224412054
 20
612.1113279719722
 97
        0
 97
        0
 92
        1
 93
        1
 72
     4
 94
        3
 73
     0
 74
     1
 95
       20
 96
       16
 40
0.0
 40
0.0
 40
0.0
 40
0.0
 40
1.0
 40
1.0
 40
1.0
 40
2.0
 40
2.0
 40
2.0
 40
3.0
 40
3.0
 40
3.0
 40
4.0
 40
4.0
 40
4.0
 40
5.0
 40
5.0
 40
5.0
 40
5.0
 10
856.7153318170712
 20
613.8164060965458
 10
856.7153318170712
 20
613.8164060965458
 10
860.1899411912025
 20
613.8164060965458
 10
860.1899411912025
 20
613.8164060965458
 10
860.1430661912142
 20
614.339843596415
 10
860.0102536912474
 20
614.7324217213169
 10
859.7915036913021
 20
614.9941404712514
 10
859.4555661913861
 20
615.4003904711499
 10
859.020019316495
 20
615.6035154710991
 10
858.4848630666288
 20
615.6035154710991
 10
858.0004880667499
 20
615.6035154710991
 10
857.5932615043516
 20
615.4414060961396
 10
857.2631833794342
 20
615.1171873462207
 10
856.9331052545167
 20
614.7929685963018
 10
856.7504880670624
 20
614.3593748464101
 10
856.7153318170712
 20
613.8164060965458
 97
        0
 97
        0
 75
     2
 76
     1
 98
        0
  0
SPLINE
  5
8D
330
6D
100
AcDbEntity
  8
0
 62
   240
420
 15539236
370
    35
100
AcDbSpline
210
0.0
220
0.0
230
1.0
 70
    11
 71
     3
 72
    47
 73
    43
 74
     0
 42
0.0000000001
 43
0.0000000001
 12
1.0
 22
0.0
 32
0.0
 13
1.0
 23
0.0
 33
0.0
 40
0.0
 40
0.0
 40
0.0
 40
0.0
 40
1.0
 40
1.0
 40
1.0
 40
2.0
 40
2.0
 40
2.0
 40
3.0
 40
3.0
 40
3.0
 40
4.0
 40
4.0
 40
4.0
 40
5.0
 40
5.0
 40
5.0
 40
6.0
 40
6.0
 40
6.0
 40
7.0
 40
7.0
 40
7.0
 40
8.0
 40
8.0
 40
8.0
 40
9.0
 40
9.0
 40
9.0
 40
10.0
 40
10.0
 40
10.0
 40
11.0
 40
11.0
 40
11.0
 40
12.0
 40
12.0
 40
12.0
 40
13.0
 40
13.0
 40
13.0
 40
14.0
 40
14.0
 40
14.0
 40
14.0
 10
866.6293943145927
 20
610.1074217224731
 30
0.0
 10
866.6293943145927
 20
610.1074217224731
 30
0.0
 10
866.6293943145927
 20
610.8925779722769
 30
0.0
 10
866.6293943145927
 20
610.8925779722769
 30
0.0
 10
866.2348630646912
 20
610.2753904724311
 30
0.0
 10
865.6547849398363
 20
609.9667967225083
 30
0.0
 10
864.8891599400276
 20
609.9667967225083
 30
0.0
 10
864.3930661901517
 20
609.9667967225083
 30
0.0
 10
863.9370115027657
 20
610.1035154724741
 30
0.0
 10
863.5209958778697
 20
610.3769529724058
 30
0.0
 10
863.1049802529737
 20
610.6503904723373
 30
0.0
 10
862.7827146280544
 20
611.032226409742
 30
0.0
 10
862.5541990031114
 20
611.5224607846194
 30
0.0
 10
862.3256833781686
 20
612.0126951594968
 30
0.0
 10
862.2114255656971
 20
612.576171721856
 30
0.0
 10
862.2114255656971
 20
613.2128904716967
 30
0.0
 10
862.2114255656971
 20
613.8339842215415
 30
0.0
 10
862.3149411906712
 20
614.3974607839007
 30
0.0
 10
862.5219724406195
 20
614.9033201587741
 30
0.0
 10
862.7290036905678
 20
615.4091795336477
 30
0.0
 10
863.0395505654901
 20
615.7968748460507
 30
0.0
 10
863.4536130653865
 20
616.0664060959834
 30
0.0
 10
863.8676755652831
 20
616.335937345916
 30
0.0
 10
864.3305661901674
 20
616.4707029708823
 30
0.0
 10
864.8422849400395
 20
616.4707029708823
 30
0.0
 10
865.2172849399457
 20
616.4707029708823
 30
0.0
 10
865.5512693148621
 20
616.391601408402
 30
0.0
 10
865.8442380647889
 20
616.2333982834416
 30
0.0
 10
866.1372068147157
 20
616.0751951584812
 30
0.0
 10
866.3754880646561
 20
615.8691404710327
 30
0.0
 10
866.5590818146102
 20
615.6152342210962
 30
0.0
 10
866.5590818146102
 20
615.6152342210962
 30
0.0
 10
866.5590818146102
 20
618.6972654703256
 30
0.0
 10
866.5590818146102
 20
618.6972654703256
 30
0.0
 10
866.5590818146102
 20
618.6972654703256
 30
0.0
 10
867.607909939348
 20
618.6972654703256
 30
0.0
 10
867.607909939348
 20
618.6972654703256
 30
0.0
 10
867.607909939348
 20
618.6972654703256
 30
0.0
 10
867.607909939348
 20
610.1074217224731
 30
0.0
 10
867.607909939348
 20
610.1074217224731
 30
0.0
 10
867.607909939348
 20
610.1074217224731
 30
0.0
 10
866.6293943145927
 20
610.1074217224731
 30
0.0
 10
866.6293943145927
 20
610.1074217224731
 30
0.0
  0
SPLINE
  5
8E
330
6D
100
AcDbEntity
  8
0
 62
   240
420
 15539236
370
    35
100
AcDbSpline
210
0.0
220
0.0
230
1.0
 70
    11
 71
     3
 72
    29
 73
    25
 74
     0
 42
0.0000000001
 43
0.0000000001
 12
1.0
 22
0.0
 32
0.0
 13
1.0
 23
0.0
 33
0.0
 40
0.0
 40
0.0
 40
0.0
 40
0.0
 40
1.0
 40
1.0
 40
1.0
 40
2.0
 40
2.0
 40
2.0
 40
3.0
 40
3.0
 40
3.0
 40
4.0
 40
4.0
 40
4.0
 40
5.0
 40
5.0
 40
5.0
 40
6.0
 40
6.0
 40
6.0
 40
7.0
 40
7.0
 40
7.0
 40
8.0
 40
8.0
 40
8.0
 40
8.0
 10
863.2954099404261
 20
613.2128904716967
 30
0.0
 10
863.2954099404261
 20
612.416015471896
 30
0.0
 10
863.4633786903842
 20
611.8203123470449
 30
0.0
 10
863.7993161903001
 20
611.4257810971435
 30
0.0
 10
864.1352536902161
 20
611.0312498472422
 30
0.0
 10
864.531738065117
 20
610.8339842222915
 30
0.0
 10
864.9887693150027
 20
610.8339842222915
 30
0.0
 10
865.4497068148876
 20
610.8339842222915
 30
0.0
 10
865.8413083772897
 20
611.0224607847443
 30
0.0
 10
866.1635740022091
 20
611.3994139096501
 30
0.0
 10
866.4858396271285
 20
611.7763670345558
 30
0.0
 10
866.6469724395882
 20
612.3515623469121
 30
0.0
 10
866.6469724395882
 20
613.1249998467188
 30
0.0
 10
866.6469724395882
 20
613.9765623465058
 30
0.0
 10
866.4829099396293
 20
614.6015623463496
 30
0.0
 10
866.1547849397112
 20
614.99999984625
 30
0.0
 10
865.8266599397933
 20
615.3984373461503
 30
0.0
 10
865.4223630648944
 20
615.5976560961005
 30
0.0
 10
864.9418943150146
 20
615.5976560961005
 30
0.0
 10
864.4731443151317
 20
615.5976560961005
 30
0.0
 10
864.0815427527295
 20
615.4062498461484
 30
0.0
 10
863.7670896278082
 20
615.0234373462441
 30
0.0
 10
863.4526365028868
 20
614.6406248463398
 30
0.0
 10
863.2954099404261
 20
614.0371092214907
 30
0.0
 10
863.2954099404261
 20
613.2128904716967
 30
0.0
  0
HATCH
  5
8F
330
6D
100
AcDbEntity
  8
0
 62
   240
420
 15539236
100
AcDbHatch
 10
0.0
 20
0.0
 30
0.0
210
0.0
220
0.0
230
1.0
  2
SOLID
 70
     1
 71
     0
 91
        2
 92
        1
 93
        1
 72
     4
 94
        3
 73
     0
 74
     1
 95
       47
 96
       43
 40
0.0
 40
0.0
 40
0.0
 40
0.0
 40
1.0
 40
1.0
 40
1.0
 40
2.0
 40
2.0
 40
2.0
 40
3.0
 40
3.0
 40
3.0
 40
4.0
 40
4.0
 40
4.0
 40
5.0
 40
5.0
 40
5.0
 40
6.0
 40
6.0
 40
6.0
 40
7.0
 40
7.0
 40
7.0
 40
8.0
 40
8.0
 40
8.0
 40
9.0
 40
9.0
 40
9.0
 40
10.0
 40
10.0
 40
10.0
 40
11.0
 40
11.0
 40
11.0
 40
12.0
 40
12.0
 40
12.0
 40
13.0
 40
13.0
 40
13.0
 40
14.0
 40
14.0
 40
14.0
 40
14.0
 10
866.6293943145927
 20
610.1074217224731
 10
866.6293943145927
 20
610.1074217224731
 10
866.6293943145927
 20
610.8925779722769
 10
866.6293943145927
 20
610.8925779722769
 10
866.2348630646912
 20
610.2753904724311
 10
865.6547849398363
 20
609.9667967225083
 10
864.8891599400276
 20
609.9667967225083
 10
864.3930661901517
 20
609.9667967225083
 10
863.9370115027657
 20
610.1035154724741
 10
863.5209958778697
 20
610.3769529724058
 10
863.1049802529737
 20
610.6503904723373
 10
862.7827146280544
 20
611.032226409742
 10
862.5541990031114
 20
611.5224607846194
 10
862.3256833781686
 20
612.0126951594968
 10
862.2114255656971
 20
612.576171721856
 10
862.2114255656971
 20
613.2128904716967
 10
862.2114255656971
 20
613.8339842215415
 10
862.3149411906712
 20
614.3974607839007
 10
862.5219724406195
 20
614.9033201587741
 10
862.7290036905678
 20
615.4091795336477
 10
863.0395505654901
 20
615.7968748460507
 10
863.4536130653865
 20
616.0664060959834
 10
863.8676755652831
 20
616.335937345916
 10
864.3305661901674
 20
616.4707029708823
 10
864.8422849400395
 20
616.4707029708823
 10
865.2172849399457
 20
616.4707029708823
 10
865.5512693148621
 20
616.391601408402
 10
865.8442380647889
 20
616.2333982834416
 10
866.1372068147157
 20
616.0751951584812
 10
866.3754880646561
 20
615.8691404710327
 10
866.5590818146102
 20
615.6152342210962
 10
866.5590818146102
 20
615.6152342210962
 10
866.5590818146102
 20
618.6972654703256
 10
866.5590818146102
 20
618.6972654703256
 10
866.5590818146102
 20
618.6972654703256
 10
867.607909939348
 20
618.6972654703256
 10
867.607909939348
 20
618.6972654703256
 10
867.607909939348
 20
618.6972654703256
 10
867.607909939348
 20
610.1074217224731
 10
867.607909939348
 20
610.1074217224731
 10
867.607909939348
 20
610.1074217224731
 10
866.6293943145927
 20
610.1074217224731
 10
866.6293943145927
 20
610.1074217224731
 97
        0
 97
        0
 92
        1
 93
        1
 72
     4
 94
        3
 73
     0
 74
     1
 95
       29
 96
       25
 40
0.0
 40
0.0
 40
0.0
 40
0.0
 40
1.0
 40
1.0
 40
1.0
 40
2.0
 40
2.0
 40
2.0
 40
3.0
 40
3.0
 40
3.0
 40
4.0
 40
4.0
 40
4.0
 40
5.0
 40
5.0
 40
5.0
 40
6.0
 40
6.0
 40
6.0
 40
7.0
 40
7.0
 40
7.0
 40
8.0
 40
8.0
 40
8.0
 40
8.0
 10
863.2954099404261
 20
613.2128904716967
 10
863.2954099404261
 20
612.416015471896
 10
863.4633786903842
 20
611.8203123470449
 10
863.7993161903001
 20
611.4257810971435
 10
864.1352536902161
 20
611.0312498472422
 10
864.531738065117
 20
610.8339842222915
 10
864.9887693150027
 20
610.8339842222915
 10
865.4497068148876
 20
610.8339842222915
 10
865.8413083772897
 20
611.0224607847443
 10
866.1635740022091
 20
611.3994139096501
 10
866.4858396271285
 20
611.7763670345558
 10
866.6469724395882
 20
612.3515623469121
 10
866.6469724395882
 20
613.1249998467188
 10
866.6469724395882
 20
613.9765623465058
 10
866.4829099396293
 20
614.6015623463496
 10
866.1547849397112
 20
614.99999984625
 10
865.8266599397933
 20
615.3984373461503
 10
865.4223630648944
 20
615.5976560961005
 10
864.9418943150146
 20
615.5976560961005
 10
864.4731443151317
 20
615.5976560961005
 10
864.0815427527295
 20
615.4062498461484
 10
863.7670896278082
 20
615.0234373462441
 10
863.4526365028868
 20
614.6406248463398
 10
863.2954099404261
 20
614.0371092214907
 10
863.2954099404261
 20
613.2128904716967
 97
        0
 97
        0
 75
     2
 76
     1
 98
        0
  0
POLYLINE
  5
90
330
6D
100
AcDbEntity
  8
0
 62
   240
420
 15539236
370
    35
100
AcDb2dPolyline
 66
     1
 10
0.0
 20
0.0
 30
0.0
  0
VERTEX
  5
91
330
90
100
AcDbEntity
  8
0
 62
   240
420
 15539236
370
    35
100
AcDbVertex
100
AcDb2dVertex
 10
881.9106443107723
 20
618.2402342204399
 30
0.0
  0
VERTEX
  5
92
330
90
100
AcDbEntity
  8
0
 62
   240
420
 15539236
370
    35
100
AcDbVertex
100
AcDb2dVertex
 10
877.7504880618123
 20
609.9257810975186
 30
0.0
  0
VERTEX
  5
93
330
90
100
AcDbEntity
  8
0
 62
   240
420
 15539236
370
    35
100
AcDbVertex
100
AcDb2dVertex
 10
873.5903318128524
 20
618.2402342204399
 30
0.0
  0
VERTEX
  5
94
330
90
100
AcDbEntity
  8
0
 62
   240
420
 15539236
370
    35
100
AcDbVertex
100
AcDb2dVertex
 10
881.9106443107723
 20
618.2402342204399
 30
0.0
  0
SEQEND
  5
95
330
90
100
AcDbEntity
  8
0
 62
   240
420
 15539236
370
    35
  0
HATCH
  5
96
330
6D
100
AcDbEntity
  8
0
 62
   240
420
 15539236
100
AcDbHatch
 10
0.0
 20
0.0
 30
0.0
210
0.0
220
0.0
230
1.0
  2
SOLID
 70
     1
 71
     0
 91
        1
 92
        1
 93
        3
 72
     1
 10
881.9106443107723
 20
618.2402342204399
 11
877.7504880618123
 21
609.9257810975186
 72
     1
 10
877.7504880618123
 20
609.9257810975186
 11
873.5903318128524
 21
618.2402342204399
 72
     1
 10
873.5903318128524
 20
618.2402342204399
 11
881.9106443107723
 21
618.2402342204399
 97
        0
 75
     2
 76
     1
 98
        0
  0
ENDBLK
  5
70
330
6D
100
AcDbEntity
  8
0
100
AcDbBlockEnd
  0
ENDSEC
  0
SECTION
  2
ENTITIES
  0
INSERT
  5
41
330
1F
100
AcDbEntity
  8
0
100
AcDbBlockReference
  2
block 2
 10
0.0
 20
0.0
 30
0.0
  0
INSERT
  5
46
330
1F
100
AcDbEntity
  8
0
100
AcDbBlockReference
  2
block 3
 10
0.0
 20
0.0
 30
0.0
  0
INSERT
  5
4B
330
1F
100
AcDbEntity
  8
0
100
AcDbBlockReference
  2
block 4
 10
0.0
 20
0.0
 30
0.0
  0
INSERT
  5
50
330
1F
100
AcDbEntity
  8
0
100
AcDbBlockReference
  2
block 5
 10
0.0
 20
0.0
 30
0.0
  0
INSERT
  5
55
330
1F
100
AcDbEntity
  8
0
100
AcDbBlockReference
  2
block 6
 10
0.0
 20
0.0
 30
0.0
  0
INSERT
  5
5A
330
1F
100
AcDbEntity
  8
0
100
AcDbBlockReference
  2
block 7
 10
0.0
 20
0.0
 30
0.0
  0
INSERT
  5
5F
330
1F
100
AcDbEntity
  8
0
100
AcDbBlockReference
  2
block 8
 10
0.0
 20
0.0
 30
0.0
  0
INSERT
  5
64
330
1F
100
AcDbEntity
  8
0
100
AcDbBlockReference
  2
block 9
 10
0.0
 20
0.0
 30
0.0
  0
INSERT
  5
69
330
1F
100
AcDbEntity
  8
0
100
AcDbBlockReference
  2
block 10
 10
0.0
 20
0.0
 30
0.0
  0
INSERT
  5
6E
330
1F
100
AcDbEntity
  8
0
100
AcDbBlockReference
  2
block 11
 10
0.0
 20
0.0
 30
0.0
  0
ENDSEC
  0
SECTION
  2
OBJECTS
  0
DICTIONARY
  5
C
330
0
100
AcDbDictionary
281
     1
  3
ACAD_GROUP
350
D
  3
ACAD_LAYOUT
350
1A
  3
ACAD_MATERIAL
350
3B
  3
ACAD_MLEADERSTYLE
350
98
  3
ACAD_MLINESTYLE
350
17
  3
ACAD_PLOTSETTINGS
350
19
  3
ACAD_PLOTSTYLENAME
350
E
  3
ACAD_TABLESTYLE
350
97
  3
ACAD_VISUALSTYLE
350
2A
  0
SUN
  5
3F
330
29
100
AcDbSun
 90
        1
290
     0
 63
     7
421
 16777215
 40
1.0
291
     1
 91
  2455826
 92
 54000000
292
     0
 70
     2
 71
   256
280
     1
  0
DICTIONARY
  5
D
102
{ACAD_REACTORS
330
C
102
}
330
C
100
AcDbDictionary
281
     1
  0
DICTIONARY
  5
1A
102
{ACAD_REACTORS
330
C
102
}
330
C
100
AcDbDictionary
281
     1
  3
Layout1
350
1E
  3
Layout2
350
26
  3
Model
350
22
  0
DICTIONARY
  5
3B
102
{ACAD_REACTORS
330
C
102
}
330
C
100
AcDbDictionary
281
     1
  3
ByBlock
350
3D
  3
ByLayer
350
3C
  3
Global
350
3E
  0
DICTIONARY
  5
98
102
{ACAD_REACTORS
330
C
102
}
330
C
100
AcDbDictionary
281
     1
  0
DICTIONARY
  5
17
102
{ACAD_REACTORS
330
C
102
}
330
C
100
AcDbDictionary
281
     1
  3
Standard
350
18
  0
DICTIONARY
  5
19
102
{ACAD_REACTORS
330
C
102
}
330
C
100
AcDbDictionary
281
     1
  0
ACDBDICTIONARYWDFLT
  5
E
102
{ACAD_REACTORS
330
C
102
}
330
C
100
AcDbDictionary
281
     1
  3
Normal
350
F
100
AcDbDictionaryWithDefault
340
F
  0
DICTIONARY
  5
97
102
{ACAD_REACTORS
330
C
102
}
330
C
100
AcDbDictionary
281
     1
  0
DICTIONARY
  5
2A
102
{ACAD_REACTORS
330
C
102
}
330
C
100
AcDbDictionary
281
     1
  3
2dWireframe
350
2F
  3
3D Hidden
350
31
  3
3dWireframe
350
30
  3
Basic
350
32
  3
Brighten
350
36
  3
ColorChange
350
3A
  3
Conceptual
350
34
  3
Dim
350
35
  3
Facepattern
350
39
  3
Flat
350
2B
  3
FlatWithEdges
350
2C
  3
Gouraud
350
2D
  3
GouraudWithEdges
350
2E
  3
Linepattern
350
38
  3
Realistic
350
33
  3
Thicken
350
37
  0
LAYOUT
  5
1E
102
{ACAD_REACTORS
330
1A
102
}
330
1A
100
AcDbPlotSettings
  1

  2
none_device
  4

  6

 40
0.0
 41
0.0
 42
0.0
 43
0.0
 44
0.0
 45
0.0
 46
0.0
 47
0.0
 48
0.0
 49
0.0
140
0.0
141
0.0
142
1.0
143
1.0
 70
   688
 72
     0
 73
     0
 74
     5
  7

 75
    16
 76
     0
 77
     2
 78
   300
147
1.0
148
0.0
149
0.0
100
AcDbLayout
  1
Layout1
 70
     1
 71
     1
 10
0.0
 20
0.0
 11
12.0
 21
9.0
 12
0.0
 22
0.0
 32
0.0
 14
1.000000000000000E+20
 24
1.000000000000000E+20
 34
1.000000000000000E+20
 15
-1.000000000000000E+20
 25
-1.000000000000000E+20
 35
-1.000000000000000E+20
146
0.0
 13
0.0
 23
0.0
 33
0.0
 16
1.0
 26
0.0
 36
0.0
 17
0.0
 27
1.0
 37
0.0
 76
     0
330
1B
  0
LAYOUT
  5
26
102
{ACAD_REACTORS
330
1A
102
}
330
1A
100
AcDbPlotSettings
  1

  2
none_device
  4

  6

 40
0.0
 41
0.0
 42
0.0
 43
0.0
 44
0.0
 45
0.0
 46
0.0
 47
0.0
 48
0.0
 49
0.0
140
0.0
141
0.0
142
1.0
143
1.0
 70
   688
 72
     0
 73
     0
 74
     5
  7

 75
    16
 76
     0
 77
     2
 78
   300
147
1.0
148
0.0
149
0.0
100
AcDbLayout
  1
Layout2
 70
     1
 71
     2
 10
0.0
 20
0.0
 11
0.0
 21
0.0
 12
0.0
 22
0.0
 32
0.0
 14
0.0
 24
0.0
 34
0.0
 15
0.0
 25
0.0
 35
0.0
146
0.0
 13
0.0
 23
0.0
 33
0.0
 16
1.0
 26
0.0
 36
0.0
 17
0.0
 27
1.0
 37
0.0
 76
     0
330
23
  0
LAYOUT
  5
22
102
{ACAD_REACTORS
330
1A
102
}
330
1A
100
AcDbPlotSettings
  1

  2
none_device
  4

  6

 40
0.0
 41
0.0
 42
0.0
 43
0.0
 44
0.0
 45
0.0
 46
0.0
 47
0.0
 48
0.0
 49
0.0
140
0.0
141
0.0
142
1.0
143
1.0
 70
  1712
 72
     0
 73
     0
 74
     0
  7

 75
     0
 76
     0
 77
     2
 78
   300
147
1.0
148
0.0
149
0.0
100
AcDbLayout
  1
Model
 70
     1
 71
     0
 10
0.0
 20
0.0
 11
12.0
 21
9.0
 12
0.0
 22
0.0
 32
0.0
 14
1.000000000000000E+20
 24
1.000000000000000E+20
 34
1.000000000000000E+20
 15
-1.000000000000000E+20
 25
-1.000000000000000E+20
 35
-1.000000000000000E+20
146
0.0
 13
0.0
 23
0.0
 33
0.0
 16
1.0
 26
0.0
 36
0.0
 17
0.0
 27
1.0
 37
0.0
 76
     0
330
1F
331
29
  0
MATERIAL
  5
3D
102
{ACAD_REACTORS
330
3B
102
}
330
3B
100
AcDbMaterial
  1
ByBlock
 72
     1
 94
      127
  0
MATERIAL
  5
3C
102
{ACAD_REACTORS
330
3B
102
}
330
3B
100
AcDbMaterial
  1
ByLayer
 72
     1
 94
      127
  0
MATERIAL
  5
3E
102
{ACAD_REACTORS
330
3B
102
}
330
3B
100
AcDbMaterial
  1
Global
 72
     1
 94
      127
  0
MLINESTYLE
  5
18
102
{ACAD_REACTORS
330
17
102
}
330
17
100
AcDbMlineStyle
  2
Standard
 70
     0
  3

 62
   256
 51
90.0
 52
90.0
 71
     2
 49
0.5
 62
   256
  6
BYLAYER
 49
-0.5
 62
   256
  6
BYLAYER
  0
ACDBPLACEHOLDER
  5
F
102
{ACAD_REACTORS
330
E
102
}
330
E
  0
VISUALSTYLE
  5
2F
102
{ACAD_REACTORS
330
2A
102
}
330
2A
100
AcDbVisualStyle
  2
2dWireframe
 70
     4
177
     2
291
     0
 71
     0
176
     1
 72
     2
176
     1
 73
     0
176
     1
 90
        0
176
     1
 40
-0.6
176
     1
 41
-30.0
176
     1
 62
     5
 63
     7
421
 16777215
176
     1
 74
     1
176
     1
 91
        4
176
     1
 64
     7
176
     1
 65
   257
176
     1
 75
     1
176
     1
175
     1
176
     1
 42
1.0
176
     1
 92
        0
176
     1
 66
   257
176
     1
 43
1.0
176
     1
 76
     1
176
     1
 77
     6
176
     1
 78
     2
176
     1
 67
     7
176
     1
 79
     5
176
     1
170
     0
176
     1
171
     0
176
     1
290
     0
176
     1
 93
        1
176
     1
 44
0.0
176
     1
173
     0
176
     1
  0
VISUALSTYLE
  5
31
102
{ACAD_REACTORS
330
2A
102
}
330
2A
100
AcDbVisualStyle
  2
3D Hidden
 70
     6
177
     2
291
     0
 71
     1
176
     1
 72
     2
176
     1
 73
     2
176
     1
 90
        0
176
     1
 40
-0.6
176
     1
 41
-30.0
176
     1
 62
     5
 63
     7
421
 16777215
176
     1
 74
     2
176
     1
 91
        2
176
     1
 64
     7
176
     1
 65
   257
176
     1
 75
     2
176
     1
175
     1
176
     1
 42
40.0
176
     1
 92
        0
176
     1
 66
   257
176
     1
 43
1.0
176
     1
 76
     1
176
     1
 77
     6
176
     1
 78
     2
176
     1
 67
     7
176
     1
 79
     3
176
     1
170
     0
176
     1
171
     0
176
     1
290
     0
176
     1
 93
        1
176
     1
 44
0.0
176
     1
173
     0
176
     1
  0
VISUALSTYLE
  5
30
102
{ACAD_REACTORS
330
2A
102
}
330
2A
100
AcDbVisualStyle
  2
3dWireframe
 70
     5
177
     2
291
     0
 71
     0
176
     1
 72
     2
176
     1
 73
     0
176
     1
 90
        0
176
     1
 40
-0.6
176
     1
 41
-30.0
176
     1
 62
     5
 63
     7
421
 16777215
176
     1
 74
     1
176
     1
 91
        4
176
     1
 64
     7
176
     1
 65
   257
176
     1
 75
     1
176
     1
175
     1
176
     1
 42
1.0
176
     1
 92
        0
176
     1
 66
   257
176
     1
 43
1.0
176
     1
 76
     1
176
     1
 77
     6
176
     1
 78
     2
176
     1
 67
     7
176
     1
 79
     5
176
     1
170
     0
176
     1
171
     0
176
     1
290
     0
176
     1
 93
        1
176
     1
 44
0.0
176
     1
173
     0
176
     1
  0
VISUALSTYLE
  5
32
102
{ACAD_REACTORS
330
2A
102
}
330
2A
100
AcDbVisualStyle
  2
Basic
 70
     7
177
     2
291
     1
 71
     1
176
     1
 72
     0
176
     1
 73
     1
176
     1
 90
        0
176
     1
 40
-0.6
176
     1
 41
-30.0
176
     1
 62
     5
 63
     7
421
 16777215
176
     1
 74
     0
176
     1
 91
        4
176
     1
 64
     7
176
     1
 65
   257
176
     1
 75
     1
176
     1
175
     1
176
     1
 42
1.0
176
     1
 92
        8
176
     1
 66
     7
176
     1
 43
1.0
176
     1
 76
     1
176
     1
 77
     6
176
     1
 78
     2
176
     1
 67
     7
176
     1
 79
     5
176
     1
170
     0
176
     1
171
     0
176
     1
290
     0
176
     1
 93
        1
176
     1
 44
0.0
176
     1
173
     0
176
     1
  0
VISUALSTYLE
  5
36
102
{ACAD_REACTORS
330
2A
102
}
330
2A
100
AcDbVisualStyle
  2
Brighten
 70
    12
177
     2
291
     1
 71
     2
176
     1
 72
     2
176
     1
 73
     0
176
     1
 90
        0
176
     1
 40
-0.6
176
     1
 41
-30.0
176
     1
 62
     5
 63
     7
421
 16777215
176
     1
 74
     1
176
     1
 91
        4
176
     1
 64
     7
176
     1
 65
   257
176
     1
 75
     1
176
     1
175
     1
176
     1
 42
1.0
176
     1
 92
        8
176
     1
 66
     7
176
     1
 43
1.0
176
     1
 76
     1
176
     1
 77
     6
176
     1
 78
     2
176
     1
 67
     7
176
     1
 79
     5
176
     1
170
     0
176
     1
171
     0
176
     1
290
     0
176
     1
 93
        1
176
     1
 44
50.0
176
     1
173
     0
176
     1
  0
VISUALSTYLE
  5
3A
102
{ACAD_REACTORS
330
2A
102
}
330
2A
100
AcDbVisualStyle
  2
ColorChange
 70
    16
177
     2
291
     1
 71
     2
176
     1
 72
     2
176
     1
 73
     3
176
     1
 90
        0
176
     1
 40
-0.6
176
     1
 41
-30.0
176
     1
 62
     5
 63
     8
421
  8421504
176
     1
 74
     1
176
     1
 91
        4
176
     1
 64
     7
176
     1
 65
   257
176
     1
 75
     1
176
     1
175
     1
176
     1
 42
1.0
176
     1
 92
        8
176
     1
 66
     8
424
  8421504
176
     1
 43
1.0
176
     1
 76
     1
176
     1
 77
     6
176
     1
 78
     2
176
     1
 67
     7
176
     1
 79
     5
176
     1
170
     0
176
     1
171
     0
176
     1
290
     0
176
     1
 93
        1
176
     1
 44
0.0
176
     1
173
     0
176
     1
  0
VISUALSTYLE
  5
34
102
{ACAD_REACTORS
330
2A
102
}
330
2A
100
AcDbVisualStyle
  2
Conceptual
 70
     9
177
     2
291
     0
 71
     3
176
     1
 72
     2
176
     1
 73
     0
176
     1
 90
        0
176
     1
 40
-0.6
176
     1
 41
-30.0
176
     1
 62
     5
 63
     7
421
 16777215
176
     1
 74
     2
176
     1
 91
        2
176
     1
 64
     7
176
     1
 65
   257
176
     1
 75
     1
176
     1
175
     1
176
     1
 42
40.0
176
     1
 92
        8
176
     1
 66
     7
176
     1
 43
1.0
176
     1
 76
     1
176
     1
 77
     6
176
     1
 78
     2
176
     1
 67
     7
176
     1
 79
     3
176
     1
170
     0
176
     1
171
     0
176
     1
290
     0
176
     1
 93
        1
176
     1
 44
0.0
176
     1
173
     0
176
     1
  0
VISUALSTYLE
  5
35
102
{ACAD_REACTORS
330
2A
102
}
330
2A
100
AcDbVisualStyle
  2
Dim
 70
    11
177
     2
291
     1
 71
     2
176
     1
 72
     2
176
     1
 73
     0
176
     1
 90
        0
176
     1
 40
-0.6
176
     1
 41
-30.0
176
     1
 62
     5
 63
     7
421
 16777215
176
     1
 74
     1
176
     1
 91
        4
176
     1
 64
     7
176
     1
 65
   257
176
     1
 75
     1
176
     1
175
     1
176
     1
 42
1.0
176
     1
 92
        8
176
     1
 66
     7
176
     1
 43
1.0
176
     1
 76
     1
176
     1
 77
     6
176
     1
 78
     2
176
     1
 67
     7
176
     1
 79
     5
176
     1
170
     0
176
     1
171
     0
176
     1
290
     0
176
     1
 93
        1
176
     1
 44
-50.0
176
     1
173
     0
176
     1
  0
VISUALSTYLE
  5
39
102
{ACAD_REACTORS
330
2A
102
}
330
2A
100
AcDbVisualStyle
  2
Facepattern
 70
    15
177
     2
291
     1
 71
     2
176
     1
 72
     2
176
     1
 73
     0
176
     1
 90
        0
176
     1
 40
-0.6
176
     1
 41
-30.0
176
     1
 62
     5
 63
     7
421
 16777215
176
     1
 74
     1
176
     1
 91
        4
176
     1
 64
     7
176
     1
 65
   257
176
     1
 75
     1
176
     1
175
     1
176
     1
 42
1.0
176
     1
 92
        8
176
     1
 66
     7
176
     1
 43
1.0
176
     1
 76
     1
176
     1
 77
     6
176
     1
 78
     2
176
     1
 67
     7
176
     1
 79
     5
176
     1
170
     0
176
     1
171
     0
176
     1
290
     0
176
     1
 93
        1
176
     1
 44
0.0
176
     1
173
     0
176
     1
  0
VISUALSTYLE
  5
2B
102
{ACAD_REACTORS
330
2A
102
}
330
2A
100
AcDbVisualStyle
  2
Flat
 70
     0
177
     2
291
     1
 71
     2
176
     1
 72
     1
176
     1
 73
     1
176
     1
 90
        2
176
     1
 40
-0.6
176
     1
 41
30.0
176
     1
 62
     5
 63
     7
421
 16777215
176
     1
 74
     0
176
     1
 91
        4
176
     1
 64
     7
176
     1
 65
   257
176
     1
 75
     1
176
     1
175
     1
176
     1
 42
1.0
176
     1
 92
        8
176
     1
 66
     7
176
     1
 43
1.0
176
     1
 76
     1
176
     1
 77
     6
176
     1
 78
     2
176
     1
 67
     7
176
     1
 79
     5
176
     1
170
     0
176
     1
171
     0
176
     1
290
     0
176
     1
 93
       13
176
     1
 44
0.0
176
     1
173
     0
176
     1
  0
VISUALSTYLE
  5
2C
102
{ACAD_REACTORS
330
2A
102
}
330
2A
100
AcDbVisualStyle
  2
FlatWithEdges
 70
     1
177
     2
291
     1
 71
     2
176
     1
 72
     1
176
     1
 73
     1
176
     1
 90
        2
176
     1
 40
-0.6
176
     1
 41
30.0
176
     1
 62
     5
 63
     7
421
 16777215
176
     1
 74
     1
176
     1
 91
        4
176
     1
 64
     7
176
     1
 65
   257
176
     1
 75
     1
176
     1
175
     1
176
     1
 42
1.0
176
     1
 92
        0
176
     1
 66
   257
176
     1
 43
1.0
176
     1
 76
     1
176
     1
 77
     6
176
     1
 78
     2
176
     1
 67
     7
176
     1
 79
     5
176
     1
170
     0
176
     1
171
     0
176
     1
290
     0
176
     1
 93
       13
176
     1
 44
0.0
176
     1
173
     0
176
     1
  0
VISUALSTYLE
  5
2D
102
{ACAD_REACTORS
330
2A
102
}
330
2A
100
AcDbVisualStyle
  2
Gouraud
 70
     2
177
     2
291
     1
 71
     2
176
     1
 72
     2
176
     1
 73
     1
176
     1
 90
        2
176
     1
 40
-0.6
176
     1
 41
30.0
176
     1
 62
     5
 63
     7
421
 16777215
176
     1
 74
     0
176
     1
 91
        4
176
     1
 64
     7
176
     1
 65
   257
176
     1
 75
     1
176
     1
175
     1
176
     1
 42
1.0
176
     1
 92
        0
176
     1
 66
     7
176
     1
 43
1.0
176
     1
 76
     1
176
     1
 77
     6
176
     1
 78
     2
176
     1
 67
     7
176
     1
 79
     5
176
     1
170
     0
176
     1
171
     0
176
     1
290
     0
176
     1
 93
       13
176
     1
 44
0.0
176
     1
173
     0
176
     1
  0
VISUALSTYLE
  5
2E
102
{ACAD_REACTORS
330
2A
102
}
330
2A
100
AcDbVisualStyle
  2
GouraudWithEdges
 70
     3
177
     2
291
     1
 71
     2
176
     1
 72
     2
176
     1
 73
     1
176
     1
 90
        2
176
     1
 40
-0.6
176
     1
 41
30.0
176
     1
 62
     5
 63
     7
421
 16777215
176
     1
 74
     1
176
     1
 91
        4
176
     1
 64
     7
176
     1
 65
   257
176
     1
 75
     1
176
     1
175
     1
176
     1
 42
1.0
176
     1
 92
        0
176
     1
 66
   257
176
     1
 43
1.0
176
     1
 76
     1
176
     1
 77
     6
176
     1
 78
     2
176
     1
 67
     7
176
     1
 79
     5
176
     1
170
     0
176
     1
171
     0
176
     1
290
     0
176
     1
 93
       13
176
     1
 44
0.0
176
     1
173
     0
176
     1
  0
VISUALSTYLE
  5
38
102
{ACAD_REACTORS
330
2A
102
}
330
2A
100
AcDbVisualStyle
  2
Linepattern
 70
    14
177
     2
291
     1
 71
     2
176
     1
 72
     2
176
     1
 73
     0
176
     1
 90
        0
176
     1
 40
-0.6
176
     1
 41
-30.0
176
     1
 62
     5
 63
     7
421
 16777215
176
     1
 74
     1
176
     1
 91
        4
176
     1
 64
     7
176
     1
 65
   257
176
     1
 75
     7
176
     1
175
     7
176
     1
 42
1.0
176
     1
 92
        8
176
     1
 66
     7
176
     1
 43
1.0
176
     1
 76
     1
176
     1
 77
     6
176
     1
 78
     2
176
     1
 67
     7
176
     1
 79
     5
176
     1
170
     0
176
     1
171
     0
176
     1
290
     0
176
     1
 93
        1
176
     1
 44
0.0
176
     1
173
     0
176
     1
  0
VISUALSTYLE
  5
33
102
{ACAD_REACTORS
330
2A
102
}
330
2A
100
AcDbVisualStyle
  2
Realistic
 70
     8
177
     2
291
     0
 71
     2
176
     1
 72
     2
176
     1
 73
     0
176
     1
 90
        0
176
     1
 40
-0.6
176
     1
 41
-30.0
176
     1
 62
     5
 63
     7
421
 16777215
176
     1
 74
     1
176
     1
 91
        0
176
     1
 64
     7
176
     1
 65
   257
176
     1
 75
     1
176
     1
175
     1
176
     1
 42
1.0
176
     1
 92
        8
176
     1
 66
     8
424
  7895160
176
     1
 43
1.0
176
     1
 76
     1
176
     1
 77
     6
176
     1
 78
     2
176
     1
 67
     7
176
     1
 79
     5
176
     1
170
     0
176
     1
171
     0
176
     1
290
     0
176
     1
 93
       13
176
     1
 44
0.0
176
     1
173
     0
176
     1
  0
VISUALSTYLE
  5
37
102
{ACAD_REACTORS
330
2A
102
}
330
2A
100
AcDbVisualStyle
  2
Thicken
 70
    13
177
     2
291
     1
 71
     2
176
     1
 72
     2
176
     1
 73
     0
176
     1
 90
        0
176
     1
 40
-0.6
176
     1
 41
-30.0
176
     1
 62
     5
 63
     7
421
 16777215
176
     1
 74
     1
176
     1
 91
        4
176
     1
 64
     7
176
     1
 65
   257
176
     1
 75
     1
176
     1
175
     1
176
     1
 42
1.0
176
     1
 92
       12
176
     1
 66
     7
176
     1
 43
1.0
176
     1
 76
     1
176
     1
 77
     6
176
     1
 78
     2
176
     1
 67
     7
176
     1
 79
     5
176
     1
170
     0
176
     1
171
     0
176
     1
290
     0
176
     1
 93
        1
176
     1
 44
0.0
176
     1
173
     0
176
     1
  0
ENDSEC
  0
EOF
