  0
SECTION
  2
HEADER
  9
$ACADVER
  1
AC1024
  9
$ACADMAINTVER
 70
     6
  9
$DWGCODEPAGE
  3
ANSI_1252
  9
$INSBASE
 10
0.0
 20
0.0
 30
0.0
  9
$EXTMIN
 10
1.000000000000000E+20
 20
1.000000000000000E+20
 30
1.000000000000000E+20
  9
$EXTMAX
 10
-1.000000000000000E+20
 20
-1.000000000000000E+20
 30
-1.000000000000000E+20
  9
$LIMMIN
 10
0.0
 20
0.0
  9
$LIMMAX
 10
12.0
 20
9.0
  9
$ORTHOMODE
 70
     0
  9
$REGENMODE
 70
     1
  9
$FILLMODE
 70
     1
  9
$QTEXTMODE
 70
     0
  9
$MIRRTEXT
 70
     1
  9
$LTSCALE
 40
1.0
  9
$ATTMODE
 70
     1
  9
$TEXTSIZE
 40
0.2
  9
$TRACEWID
 40
0.05
  9
$TEXTSTYLE
  7
Standard
  9
$CLAYER
  8
0
  9
$CELTYPE
  6
ByLayer
  9
$CECOLOR
 62
   256
  9
$CELTSCALE
 40
1.0
  9
$DISPSILH
 70
     0
  9
$DIMSCALE
 40
1.0
  9
$DIMASZ
 40
0.18
  9
$DIMEXO
 40
0.0625
  9
$DIMDLI
 40
0.38
  9
$DIMRND
 40
0.0
  9
$DIMDLE
 40
0.0
  9
$DIMEXE
 40
0.18
  9
$DIMTP
 40
0.0
  9
$DIMTM
 40
0.0
  9
$DIMTXT
 40
0.18
  9
$DIMCEN
 40
0.09
  9
$DIMTSZ
 40
0.0
  9
$DIMTOL
 70
     0
  9
$DIMLIM
 70
     0
  9
$DIMTIH
 70
     1
  9
$DIMTOH
 70
     1
  9
$DIMSE1
 70
     0
  9
$DIMSE2
 70
     0
  9
$DIMTAD
 70
     0
  9
$DIMZIN
 70
     0
  9
$DIMBLK
  1

  9
$DIMASO
 70
     1
  9
$DIMSHO
 70
     1
  9
$DIMPOST
  1

  9
$DIMAPOST
  1

  9
$DIMALT
 70
     0
  9
$DIMALTD
 70
     2
  9
$DIMALTF
 40
25.4
  9
$DIMLFAC
 40
1.0
  9
$DIMTOFL
 70
     0
  9
$DIMTVP
 40
0.0
  9
$DIMTIX
 70
     0
  9
$DIMSOXD
 70
     0
  9
$DIMSAH
 70
     0
  9
$DIMBLK1
  1

  9
$DIMBLK2
  1

  9
$DIMSTYLE
  2
Standard
  9
$DIMCLRD
 70
     0
  9
$DIMCLRE
 70
     0
  9
$DIMCLRT
 70
     0
  9
$DIMTFAC
 40
1.0
  9
$DIMGAP
 40
0.09
  9
$DIMJUST
 70
     0
  9
$DIMSD1
 70
     0
  9
$DIMSD2
 70
     0
  9
$DIMTOLJ
 70
     1
  9
$DIMTZIN
 70
     0
  9
$DIMALTZ
 70
     0
  9
$DIMALTTZ
 70
     0
  9
$DIMUPT
 70
     0
  9
$DIMDEC
 70
     4
  9
$DIMTDEC
 70
     4
  9
$DIMALTU
 70
     2
  9
$DIMALTTD
 70
     2
  9
$DIMTXSTY
  7
Standard
  9
$DIMAUNIT
 70
     0
  9
$DIMADEC
 70
     0
  9
$DIMALTRND
 40
0.0
  9
$DIMAZIN
 70
     0
  9
$DIMDSEP
 70
    46
  9
$DIMATFIT
 70
     3
  9
$DIMFRAC
 70
     0
  9
$DIMLDRBLK
  1

  9
$DIMLUNIT
 70
     2
  9
$DIMLWD
 70
    -2
  9
$DIMLWE
 70
    -2
  9
$DIMTMOVE
 70
     0
  9
$DIMFXL
 40
1.0
  9
$DIMFXLON
 70
     0
  9
$DIMJOGANG
 40
0.7853981633974483
  9
$DIMTFILL
 70
     0
  9
$DIMTFILLCLR
 70
     0
  9
$DIMARCSYM
 70
     0
  9
$DIMLTYPE
  6

  9
$DIMLTEX1
  6

  9
$DIMLTEX2
  6

  9
$DIMTXTDIRECTION
 70
     0
  9
$LUNITS
 70
     2
  9
$LUPREC
 70
     4
  9
$SKETCHINC
 40
0.1
  9
$FILLETRAD
 40
0.5
  9
$AUNITS
 70
     0
  9
$AUPREC
 70
     0
  9
$MENU
  1
.
  9
$ELEVATION
 40
0.0
  9
$PELEVATION
 40
0.0
  9
$THICKNESS
 40
0.0
  9
$LIMCHECK
 70
     0
  9
$CHAMFERA
 40
0.5
  9
$CHAMFERB
 40
0.5
  9
$CHAMFERC
 40
1.0
  9
$CHAMFERD
 40
0.0
  9
$SKPOLY
 70
     0
  9
$TDCREATE
 40
2459171.896769722
  9
$TDUCREATE
 40
2459172.230103055
  9
$TDUPDATE
 40
2459171.896769745
  9
$TDUUPDATE
 40
2459172.230103079
  9
$TDINDWG
 40
0.0000000116
  9
$TDUSRTIMER
 40
0.0000000116
  9
$USRTIMER
 70
     1
  9
$ANGBASE
 50
0.0
  9
$ANGDIR
 70
     0
  9
$PDMODE
 70
     0
  9
$PDSIZE
 40
0.0
  9
$PLINEWID
 40
0.0
  9
$SPLFRAME
 70
     0
  9
$SPLINETYPE
 70
     6
  9
$SPLINESEGS
 70
     8
  9
$HANDSEED
  5
CA
  9
$SURFTAB1
 70
     6
  9
$SURFTAB2
 70
     6
  9
$SURFTYPE
 70
     6
  9
$SURFU
 70
     6
  9
$SURFV
 70
     6
  9
$UCSBASE
  2

  9
$UCSNAME
  2

  9
$UCSORG
 10
0.0
 20
0.0
 30
0.0
  9
$UCSXDIR
 10
1.0
 20
0.0
 30
0.0
  9
$UCSYDIR
 10
0.0
 20
1.0
 30
0.0
  9
$UCSORTHOREF
  2

  9
$UCSORTHOVIEW
 70
     0
  9
$UCSORGTOP
 10
0.0
 20
0.0
 30
0.0
  9
$UCSORGBOTTOM
 10
0.0
 20
0.0
 30
0.0
  9
$UCSORGLEFT
 10
0.0
 20
0.0
 30
0.0
  9
$UCSORGRIGHT
 10
0.0
 20
0.0
 30
0.0
  9
$UCSORGFRONT
 10
0.0
 20
0.0
 30
0.0
  9
$UCSORGBACK
 10
0.0
 20
0.0
 30
0.0
  9
$PUCSBASE
  2

  9
$PUCSNAME
  2

  9
$PUCSORG
 10
0.0
 20
0.0
 30
0.0
  9
$PUCSXDIR
 10
1.0
 20
0.0
 30
0.0
  9
$PUCSYDIR
 10
0.0
 20
1.0
 30
0.0
  9
$PUCSORTHOREF
  2

  9
$PUCSORTHOVIEW
 70
     0
  9
$PUCSORGTOP
 10
0.0
 20
0.0
 30
0.0
  9
$PUCSORGBOTTOM
 10
0.0
 20
0.0
 30
0.0
  9
$PUCSORGLEFT
 10
0.0
 20
0.0
 30
0.0
  9
$PUCSORGRIGHT
 10
0.0
 20
0.0
 30
0.0
  9
$PUCSORGFRONT
 10
0.0
 20
0.0
 30
0.0
  9
$PUCSORGBACK
 10
0.0
 20
0.0
 30
0.0
  9
$USERI1
 70
     0
  9
$USERI2
 70
     0
  9
$USERI3
 70
     0
  9
$USERI4
 70
     0
  9
$USERI5
 70
     0
  9
$USERR1
 40
0.0
  9
$USERR2
 40
0.0
  9
$USERR3
 40
0.0
  9
$USERR4
 40
0.0
  9
$USERR5
 40
0.0
  9
$WORLDVIEW
 70
     1
  9
$SHADEDGE
 70
     3
  9
$SHADEDIF
 70
    70
  9
$TILEMODE
 70
     1
  9
$MAXACTVP
 70
    64
  9
$PINSBASE
 10
0.0
 20
0.0
 30
0.0
  9
$PLIMCHECK
 70
     0
  9
$PEXTMIN
 10
1.000000000000000E+20
 20
1.000000000000000E+20
 30
1.000000000000000E+20
  9
$PEXTMAX
 10
-1.000000000000000E+20
 20
-1.000000000000000E+20
 30
-1.000000000000000E+20
  9
$PLIMMIN
 10
0.0
 20
0.0
  9
$PLIMMAX
 10
12.0
 20
9.0
  9
$UNITMODE
 70
     0
  9
$VISRETAIN
 70
     1
  9
$PLINEGEN
 70
     0
  9
$PSLTSCALE
 70
     1
  9
$TREEDEPTH
 70
  3020
  9
$CMLSTYLE
  2
Standard
  9
$CMLJUST
 70
     0
  9
$CMLSCALE
 40
1.0
  9
$PROXYGRAPHICS
 70
     1
  9
$MEASUREMENT
 70
     0
  9
$CELWEIGHT
370
    -1
  9
$ENDCAPS
280
     0
  9
$JOINSTYLE
280
     0
  9
$LWDISPLAY
290
     1
  9
$INSUNITS
 70
     4
  9
$HYPERLINKBASE
  1

  9
$STYLESHEET
  1

  9
$XEDIT
290
     1
  9
$CEPSNTYPE
380
     0
  9
$PSTYLEMODE
290
     1
  9
$FINGERPRINTGUID
  2
{C97D0159-FC59-4761-A279-0A5C7C763C27}
  9
$VERSIONGUID
  2
{FAEB1C32-E019-11D5-929B-00C0DF256EC4}
  9
$EXTNAMES
290
     1
  9
$PSVPSCALE
 40
0.0
  9
$OLESTARTUP
290
     0
  9
$SORTENTS
280
   127
  9
$INDEXCTL
280
     0
  9
$HIDETEXT
280
     1
  9
$XCLIPFRAME
280
     2
  9
$HALOGAP
280
     0
  9
$OBSCOLOR
 70
   257
  9
$OBSLTYPE
280
     0
  9
$INTERSECTIONDISPLAY
280
     0
  9
$INTERSECTIONCOLOR
 70
   257
  9
$DIMASSOC
280
     2
  9
$PROJECTNAME
  1

  9
$CAMERADISPLAY
290
     0
  9
$LENSLENGTH
 40
50.0
  9
$CAMERAHEIGHT
 40
0.0
  9
$STEPSPERSEC
 40
2.0
  9
$STEPSIZE
 40
6.0
  9
$3DDWFPREC
 40
2.0
  9
$PSOLWIDTH
 40
0.25
  9
$PSOLHEIGHT
 40
4.0
  9
$LOFTANG1
 40
1.570796326794897
  9
$LOFTANG2
 40
1.570796326794897
  9
$LOFTMAG1
 40
0.0
  9
$LOFTMAG2
 40
0.0
  9
$LOFTPARAM
 70
     7
  9
$LOFTNORMALS
280
     1
  9
$LATITUDE
 40
37.795
  9
$LONGITUDE
 40
-122.394
  9
$NORTHDIRECTION
 40
0.0
  9
$TIMEZONE
 70
 -8000
  9
$LIGHTGLYPHDISPLAY
280
     1
  9
$TILEMODELIGHTSYNCH
280
     1
  9
$CMATERIAL
347
3C
  9
$SOLIDHIST
280
     1
  9
$SHOWHIST
280
     1
  9
$DWFFRAME
280
     2
  9
$DGNFRAME
280
     2
  9
$REALWORLDSCALE
290
     1
  9
$INTERFERECOLOR
 62
   256
  9
$CSHADOW
280
     0
  9
$SHADOWPLANELOCATION
 40
0.0
  0
ENDSEC
  0
SECTION
  2
CLASSES
  0
CLASS
  1
ACDBDICTIONARYWDFLT
  2
AcDbDictionaryWithDefault
  3
ObjectDBX Classes
 90
        0
 91
        4
280
     0
281
     0
  0
CLASS
  1
VISUALSTYLE
  2
AcDbVisualStyle
  3
ObjectDBX Classes
 90
     4095
 91
        4
280
     0
281
     0
  0
CLASS
  1
MATERIAL
  2
AcDbMaterial
  3
ObjectDBX Classes
 90
     1153
 91
        4
280
     0
281
     0
  0
CLASS
  1
SUN
  2
AcDbSun
  3
SCENEOE
 90
     1024
 91
        4
280
     0
281
     0
  0
ENDSEC
  0
SECTION
  2
TABLES
  0
TABLE
  2
VPORT
  5
8
330
0
100
AcDbSymbolTable
 70
     1
  0
VPORT
  5
29
330
8
100
AcDbSymbolTableRecord
100
AcDbViewportTableRecord
  2
*Active
 70
     0
 10
0.0
 20
0.0
 11
1.0
 21
1.0
 12
0.0
 22
0.0
 13
0.0
 23
0.0
 14
0.5
 24
0.5
 15
0.5
 25
0.5
 16
0.0
 26
0.0
 36
1.0
 17
959.99999976
 27
539.999999865
 37
0.0
 40
1079.99999973
 41
1.777777777777778
 42
50.0
 43
0.0
 44
0.0
 50
0.0
 51
0.0
 71
     0
 72
   100
 73
     1
 74
     3
 75
     0
 76
     0
 77
     0
 78
     0
281
     0
 65
     1
110
0.0
120
0.0
130
0.0
111
1.0
121
0.0
131
0.0
112
0.0
122
1.0
132
0.0
 79
     0
146
0.0
 60
     3
 61
     5
292
     1
282
     1
141
0.0
142
0.0
 63
   250
361
3F
  0
ENDTAB
  0
TABLE
  2
LTYPE
  5
5
330
0
100
AcDbSymbolTable
 70
     1
  0
LTYPE
  5
14
330
5
100
AcDbSymbolTableRecord
100
AcDbLinetypeTableRecord
  2
ByBlock
 70
     0
  3

 72
    65
 73
     0
 40
0.0
  0
LTYPE
  5
15
330
5
100
AcDbSymbolTableRecord
100
AcDbLinetypeTableRecord
  2
ByLayer
 70
     0
  3

 72
    65
 73
     0
 40
0.0
  0
LTYPE
  5
16
330
5
100
AcDbSymbolTableRecord
100
AcDbLinetypeTableRecord
  2
Continuous
 70
     0
  3
Solid line
 72
    65
 73
     0
 40
0.0
  0
ENDTAB
  0
TABLE
  2
LAYER
  5
2
330
0
100
AcDbSymbolTable
 70
     1
  0
LAYER
  5
10
330
2
100
AcDbSymbolTableRecord
100
AcDbLayerTableRecord
  2
0
 70
     0
 62
     7
  6
Continuous
370
    -3
390
F
347
3E
  0
ENDTAB
  0
TABLE
  2
STYLE
  5
3
330
0
100
AcDbSymbolTable
 70
     1
  0
STYLE
  5
11
330
3
100
AcDbSymbolTableRecord
100
AcDbTextStyleTableRecord
  2
Standard
 70
     0
 40
0.0
 41
1.0
 50
0.0
 71
     0
 42
0.2
  3
txt
  4

  0
ENDTAB
  0
TABLE
  2
VIEW
  5
6
330
0
100
AcDbSymbolTable
 70
     0
  0
ENDTAB
  0
TABLE
  2
UCS
  5
7
330
0
100
AcDbSymbolTable
 70
     0
  0
ENDTAB
  0
TABLE
  2
APPID
  5
9
330
0
100
AcDbSymbolTable
 70
     1
  0
APPID
  5
12
330
9
100
AcDbSymbolTableRecord
100
AcDbRegAppTableRecord
  2
ACAD
 70
     0
  0
ENDTAB
  0
TABLE
  2
DIMSTYLE
  5
A
330
0
100
AcDbSymbolTable
 70
     1
100
AcDbDimStyleTable
  0
DIMSTYLE
105
27
330
A
100
AcDbSymbolTableRecord
100
AcDbDimStyleTableRecord
  2
Standard
 70
     0
178
     0
340
11
  0
ENDTAB
  0
TABLE
  2
BLOCK_RECORD
  5
1
330
0
100
AcDbSymbolTable
 70
    15
  0
BLOCK_RECORD
  5
1F
330
1
100
AcDbSymbolTableRecord
100
AcDbBlockTableRecord
  2
*Model_Space
340
22
 70
     0
280
     1
281
     0
  0
BLOCK_RECORD
  5
1B
330
1
100
AcDbSymbolTableRecord
100
AcDbBlockTableRecord
  2
*Paper_Space
340
1E
 70
     0
280
     1
281
     0
  0
BLOCK_RECORD
  5
23
330
1
100
AcDbSymbolTableRecord
100
AcDbBlockTableRecord
  2
*Paper_Space0
340
26
 70
     0
280
     1
281
     0
  0
BLOCK_RECORD
  5
40
330
1
100
AcDbSymbolTableRecord
100
AcDbBlockTableRecord
  2
block 2
340
0
102
{BLKREFS
331
41
102
}
 70
     0
280
     1
281
     0
  0
BLOCK_RECORD
  5
4B
330
1
100
AcDbSymbolTableRecord
100
AcDbBlockTableRecord
  2
block 3
340
0
102
{BLKREFS
331
4C
102
}
 70
     0
280
     1
281
     0
  0
BLOCK_RECORD
  5
5A
330
1
100
AcDbSymbolTableRecord
100
AcDbBlockTableRecord
  2
block 4
340
0
102
{BLKREFS
331
5B
102
}
 70
     0
280
     1
281
     0
  0
BLOCK_RECORD
  5
5F
330
1
100
AcDbSymbolTableRecord
100
AcDbBlockTableRecord
  2
block 5
340
0
102
{BLKREFS
331
60
102
}
 70
     0
280
     1
281
     0
  0
BLOCK_RECORD
  5
64
330
1
100
AcDbSymbolTableRecord
100
AcDbBlockTableRecord
  2
block 6
340
0
102
{BLKREFS
331
65
102
}
 70
     0
280
     1
281
     0
  0
BLOCK_RECORD
  5
69
330
1
100
AcDbSymbolTableRecord
100
AcDbBlockTableRecord
  2
block 7
340
0
102
{BLKREFS
331
6A
102
}
 70
     0
280
     1
281
     0
  0
BLOCK_RECORD
  5
6E
330
1
100
AcDbSymbolTableRecord
100
AcDbBlockTableRecord
  2
block 8
340
0
102
{BLKREFS
331
6F
102
}
 70
     0
280
     1
281
     0
  0
BLOCK_RECORD
  5
73
330
1
100
AcDbSymbolTableRecord
100
AcDbBlockTableRecord
  2
block 9
340
0
102
{BLKREFS
331
74
102
}
 70
     0
280
     1
281
     0
  0
BLOCK_RECORD
  5
78
330
1
100
AcDbSymbolTableRecord
100
AcDbBlockTableRecord
  2
block 10
340
0
102
{BLKREFS
331
79
102
}
 70
     0
280
     1
281
     0
  0
BLOCK_RECORD
  5
7D
330
1
100
AcDbSymbolTableRecord
100
AcDbBlockTableRecord
  2
block 11
340
0
102
{BLKREFS
331
7E
102
}
 70
     0
280
     1
281
     0
  0
BLOCK_RECORD
  5
82
330
1
100
AcDbSymbolTableRecord
100
AcDbBlockTableRecord
  2
block 12
340
0
102
{BLKREFS
331
83
102
}
 70
     0
280
     1
281
     0
  0
BLOCK_RECORD
  5
87
330
1
100
AcDbSymbolTableRecord
100
AcDbBlockTableRecord
  2
block 13
340
0
102
{BLKREFS
331
88
102
}
 70
     0
280
     1
281
     0
  0
BLOCK_RECORD
  5
8C
330
1
100
AcDbSymbolTableRecord
100
AcDbBlockTableRecord
  2
block 14
340
0
102
{BLKREFS
331
8D
102
}
 70
     0
280
     1
281
     0
  0
BLOCK_RECORD
  5
91
330
1
100
AcDbSymbolTableRecord
100
AcDbBlockTableRecord
  2
block 15
340
0
102
{BLKREFS
331
92
102
}
 70
     0
280
     1
281
     0
  0
ENDTAB
  0
ENDSEC
  0
SECTION
  2
BLOCKS
  0
BLOCK
  5
20
330
1F
100
AcDbEntity
  8
0
100
AcDbBlockBegin
  2
*Model_Space
 70
     0
 10
0.0
 20
0.0
 30
0.0
  3
*Model_Space
  1

  0
ENDBLK
  5
21
330
1F
100
AcDbEntity
  8
0
100
AcDbBlockEnd
  0
BLOCK
  5
1C
330
1B
100
AcDbEntity
 67
     1
  8
0
100
AcDbBlockBegin
  2
*Paper_Space
 70
     0
 10
0.0
 20
0.0
 30
0.0
  3
*Paper_Space
  1

  0
ENDBLK
  5
1D
330
1B
100
AcDbEntity
 67
     1
  8
0
100
AcDbBlockEnd
  0
BLOCK
  5
24
330
23
100
AcDbEntity
  8
0
100
AcDbBlockBegin
  2
*Paper_Space0
 70
     0
 10
0.0
 20
0.0
 30
0.0
  3
*Paper_Space0
  1

  0
ENDBLK
  5
25
330
23
100
AcDbEntity
  8
0
100
AcDbBlockEnd
  0
BLOCK
  5
42
330
40
100
AcDbEntity
  8
0
100
AcDbBlockBegin
  2
block 2
 70
     0
 10
0.0
 20
0.0
 30
0.0
  3
block 2
  1

  0
POLYLINE
  5
44
330
40
100
AcDbEntity
  8
0
 62
     7
420
 16777215
370
    25
100
AcDb2dPolyline
 66
     1
 10
0.0
 20
0.0
 30
0.0
  0
VERTEX
  5
45
330
44
100
AcDbEntity
  8
0
 62
     7
420
 16777215
370
    25
100
AcDbVertex
100
AcDb2dVertex
 10
823.3522192152838
 20
553.9629310976233
 30
0.0
  0
VERTEX
  5
46
330
44
100
AcDbEntity
  8
0
 62
     7
420
 16777215
370
    25
100
AcDbVertex
100
AcDb2dVertex
 10
809.3522192187838
 20
553.9629310976233
 30
0.0
  0
VERTEX
  5
47
330
44
100
AcDbEntity
  8
0
 62
     7
420
 16777215
370
    25
100
AcDbVertex
100
AcDb2dVertex
 10
809.3522192187838
 20
513.9629311076231
 30
0.0
  0
VERTEX
  5
48
330
44
100
AcDbEntity
  8
0
 62
     7
420
 16777215
370
    25
100
AcDbVertex
100
AcDb2dVertex
 10
823.3522192152828
 20
513.9629311076231
 30
0.0
  0
VERTEX
  5
49
330
44
100
AcDbEntity
  8
0
 62
     7
420
 16777215
370
    25
100
AcDbVertex
100
AcDb2dVertex
 10
823.3522192152838
 20
553.9629310976233
 30
0.0
  0
SEQEND
  5
4A
330
44
100
AcDbEntity
  8
0
 62
     7
420
 16777215
370
    25
  0
ENDBLK
  5
43
330
40
100
AcDbEntity
  8
0
100
AcDbBlockEnd
  0
BLOCK
  5
4D
330
4B
100
AcDbEntity
  8
0
100
AcDbBlockBegin
  2
block 3
 70
     0
 10
0.0
 20
0.0
 30
0.0
  3
block 3
  1

  0
POLYLINE
  5
4F
330
4B
100
AcDbEntity
  8
0
 62
     7
420
 16777215
370
    25
100
AcDb2dPolyline
 66
     1
 10
0.0
 20
0.0
 30
0.0
  0
VERTEX
  5
50
330
4F
100
AcDbEntity
  8
0
 62
     7
420
 16777215
370
    25
100
AcDbVertex
100
AcDb2dVertex
 10
1114.463438055704
 20
588.4968740211673
 30
0.0
  0
VERTEX
  5
51
330
4F
100
AcDbEntity
  8
0
 62
     7
420
 16777215
370
    25
100
AcDbVertex
100
AcDb2dVertex
 10
875.3866349048453
 20
588.4968740211673
 30
0.0
  0
VERTEX
  5
52
330
4F
100
AcDbEntity
  8
0
 62
     7
420
 16777215
370
    25
100
AcDbVertex
100
AcDb2dVertex
 10
875.3866349048453
 20
569.4468740259296
 30
0.0
  0
VERTEX
  5
53
330
4F
100
AcDbEntity
  8
0
 62
     7
420
 16777215
370
    25
100
AcDbVertex
100
AcDb2dVertex
 10
856.3366349096077
 20
569.4468740259296
 30
0.0
  0
VERTEX
  5
54
330
4F
100
AcDbEntity
  8
0
 62
     7
420
 16777215
370
    25
100
AcDbVertex
100
AcDb2dVertex
 10
856.3366349096077
 20
550.3968740306918
 30
0.0
  0
VERTEX
  5
55
330
4F
100
AcDbEntity
  8
0
 62
     7
420
 16777215
370
    25
100
AcDbVertex
100
AcDb2dVertex
 10
827.7616349167516
 20
550.3968740306918
 30
0.0
  0
VERTEX
  5
56
330
4F
100
AcDbEntity
  8
0
 62
     7
420
 16777215
370
    25
100
AcDbVertex
100
AcDb2dVertex
 10
827.7616349167516
 20
492.2968740452165
 30
0.0
  0
VERTEX
  5
57
330
4F
100
AcDbEntity
  8
0
 62
     7
420
 16777215
370
    25
100
AcDbVertex
100
AcDb2dVertex
 10
1114.463438055704
 20
492.2968740452165
 30
0.0
  0
VERTEX
  5
58
330
4F
100
AcDbEntity
  8
0
 62
     7
420
 16777215
370
    25
100
AcDbVertex
100
AcDb2dVertex
 10
1114.463438055704
 20
588.4968740211673
 30
0.0
  0
SEQEND
  5
59
330
4F
100
AcDbEntity
  8
0
 62
     7
420
 16777215
370
    25
  0
ENDBLK
  5
4E
330
4B
100
AcDbEntity
  8
0
100
AcDbBlockEnd
  0
BLOCK
  5
5C
330
5A
100
AcDbEntity
  8
0
100
AcDbBlockBegin
  2
block 4
 70
     0
 10
0.0
 20
0.0
 30
0.0
  3
block 4
  1

  0
SPLINE
  5
5E
330
5A
100
AcDbEntity
  8
0
 62
     7
420
 16777215
370
    25
100
AcDbSpline
210
0.0
220
0.0
230
1.0
 70
    11
 71
     3
 72
    32
 73
    28
 74
     0
 42
0.0000000001
 43
0.0000000001
 12
1.0
 22
0.0
 32
0.0
 13
1.0
 23
0.0
 33
0.0
 40
0.0
 40
0.0
 40
0.0
 40
0.0
 40
1.0
 40
1.0
 40
1.0
 40
2.0
 40
2.0
 40
2.0
 40
3.0
 40
3.0
 40
3.0
 40
4.0
 40
4.0
 40
4.0
 40
5.0
 40
5.0
 40
5.0
 40
6.0
 40
6.0
 40
6.0
 40
7.0
 40
7.0
 40
7.0
 40
8.0
 40
8.0
 40
8.0
 40
9.0
 40
9.0
 40
9.0
 40
9.0
 10
813.4741349203231
 20
573.2593740249764
 30
0.0
 10
813.4741349203231
 20
573.2593740249764
 30
0.0
 10
832.5241349155608
 20
573.2593740249764
 30
0.0
 10
832.5241349155608
 20
573.2593740249764
 30
0.0
 10
832.5241349155608
 20
573.2593740249764
 30
0.0
 10
832.5241349155608
 20
554.2093740297388
 30
0.0
 10
832.5241349155608
 20
554.2093740297388
 30
0.0
 10
832.5241349155608
 20
554.2093740297388
 30
0.0
 10
852.5241349105607
 20
554.2093740297388
 30
0.0
 10
852.5241349105607
 20
554.2093740297388
 30
0.0
 10
852.5241349105607
 20
554.2093740297388
 30
0.0
 10
852.5241349105607
 20
573.2593740249764
 30
0.0
 10
852.5241349105607
 20
573.2593740249764
 30
0.0
 10
852.5241349105607
 20
573.2593740249764
 30
0.0
 10
871.5741349057985
 20
573.2593740249764
 30
0.0
 10
871.5741349057985
 20
573.2593740249764
 30
0.0
 10
871.5741349057985
 20
573.2593740249764
 30
0.0
 10
871.5741349057985
 20
593.2593740199765
 30
0.0
 10
871.5741349057985
 20
593.2593740199765
 30
0.0
 10
871.5741349057985
 20
593.2593740199765
 30
0.0
 10
814.5115614591657
 20
593.2593740199765
 30
0.0
 10
814.5115614591657
 20
593.2593740199765
 30
0.0
 10
814.5115614591657
 20
593.2594049203309
 30
0.0
 10
813.4741349203231
 20
593.2594049203309
 30
0.0
 10
813.4741349203231
 20
593.2594049203309
 30
0.0
 10
813.4741349203231
 20
593.2594049203309
 30
0.0
 10
813.4741349203231
 20
573.2593740249764
 30
0.0
 10
813.4741349203231
 20
573.2593740249764
 30
0.0
  0
ENDBLK
  5
5D
330
5A
100
AcDbEntity
  8
0
100
AcDbBlockEnd
  0
BLOCK
  5
61
330
5F
100
AcDbEntity
  8
0
100
AcDbBlockBegin
  2
block 5
 70
     0
 10
0.0
 20
0.0
 30
0.0
  3
block 5
  1

  0
SPLINE
  5
63
330
5F
100
AcDbEntity
  8
0
 62
     7
420
 16777215
370
    25
100
AcDbSpline
210
0.0
220
0.0
230
1.0
 70
    11
 71
     3
 72
    29
 73
    25
 74
     0
 42
0.0000000001
 43
0.0000000001
 12
1.0
 22
0.0
 32
0.0
 13
1.0
 23
0.0
 33
0.0
 40
0.0
 40
0.0
 40
0.0
 40
0.0
 40
1.0
 40
1.0
 40
1.0
 40
2.0
 40
2.0
 40
2.0
 40
3.0
 40
3.0
 40
3.0
 40
4.0
 40
4.0
 40
4.0
 40
5.0
 40
5.0
 40
5.0
 40
6.0
 40
6.0
 40
6.0
 40
7.0
 40
7.0
 40
7.0
 40
8.0
 40
8.0
 40
8.0
 40
8.0
 10
1114.988438055572
 20
479.2155948115507
 30
0.0
 10
1114.988438055572
 20
479.2155948115507
 30
0.0
 10
805.0115614644275
 20
479.2155948115507
 30
0.0
 10
805.0115614644275
 20
479.2155948115507
 30
0.0
 10
802.2501377159634
 20
479.2155948115507
 30
0.0
 10
800.0115614656775
 20
481.4541710618367
 30
0.0
 10
800.0115614656775
 20
484.2155948103007
 30
0.0
 10
800.0115614656775
 20
484.2155948103007
 30
0.0
 10
800.0115614656775
 20
595.7844049196992
 30
0.0
 10
800.0115614656775
 20
595.7844049196992
 30
0.0
 10
800.0115614656775
 20
598.5458286681633
 30
0.0
 10
802.2501377159634
 20
600.7844049184492
 30
0.0
 10
805.0115614644275
 20
600.7844049184492
 30
0.0
 10
805.0115614644275
 20
600.7844049184492
 30
0.0
 10
1114.988438055572
 20
600.7844049184492
 30
0.0
 10
1114.988438055572
 20
600.7844049184492
 30
0.0
 10
1117.749861804037
 20
600.7844049184492
 30
0.0
 10
1119.988438054323
 20
598.5458286681633
 30
0.0
 10
1119.988438054323
 20
595.7844049196992
 30
0.0
 10
1119.988438054323
 20
595.7844049196992
 30
0.0
 10
1119.988438054323
 20
484.2155948103007
 30
0.0
 10
1119.988438054323
 20
484.2155948103007
 30
0.0
 10
1119.988438054323
 20
481.4541710618367
 30
0.0
 10
1117.749861804037
 20
479.2155948115507
 30
0.0
 10
1114.988438055572
 20
479.2155948115507
 30
0.0
  0
ENDBLK
  5
62
330
5F
100
AcDbEntity
  8
0
100
AcDbBlockEnd
  0
BLOCK
  5
66
330
64
100
AcDbEntity
  8
0
100
AcDbBlockBegin
  2
block 6
 70
     0
 10
0.0
 20
0.0
 30
0.0
  3
block 6
  1

  0
SPLINE
  5
68
330
64
100
AcDbEntity
  8
0
 62
     7
420
 16777215
370
    25
100
AcDbSpline
210
0.0
220
0.0
230
1.0
 70
    11
 71
     3
 72
    20
 73
    16
 74
     0
 42
0.0000000001
 43
0.0000000001
 12
1.0
 22
0.0
 32
0.0
 13
1.0
 23
0.0
 33
0.0
 40
0.0
 40
0.0
 40
0.0
 40
0.0
 40
1.0
 40
1.0
 40
1.0
 40
2.0
 40
2.0
 40
2.0
 40
3.0
 40
3.0
 40
3.0
 40
4.0
 40
4.0
 40
4.0
 40
5.0
 40
5.0
 40
5.0
 40
5.0
 10
808.3303967752616
 20
502.2842114810584
 30
0.0
 10
808.3303967752616
 20
506.7024894786015
 30
0.0
 10
811.9121187757194
 20
510.2842114790584
 30
0.0
 10
816.3303967732616
 20
510.2842114790584
 30
0.0
 10
820.7486747708028
 20
510.2842114790584
 30
0.0
 10
824.3303967712616
 20
506.7024894786015
 30
0.0
 10
824.3303967712616
 20
502.2842114810584
 30
0.0
 10
824.3303967712616
 20
497.8659334835171
 30
0.0
 10
820.7486747708028
 20
494.2842114830584
 30
0.0
 10
816.3303967732616
 20
494.2842114830584
 30
0.0
 10
811.9121187757194
 20
494.2842114830584
 30
0.0
 10
808.3303967752616
 20
497.8659334835171
 30
0.0
 10
808.3303967752616
 20
502.2842114810584
 30
0.0
 10
808.3303967752616
 20
502.2842114810584
 30
0.0
 10
808.3303967752616
 20
502.2842114810584
 30
0.0
 10
808.3303967752616
 20
502.2842114810584
 30
0.0
  0
ENDBLK
  5
67
330
64
100
AcDbEntity
  8
0
100
AcDbBlockEnd
  0
BLOCK
  5
6B
330
69
100
AcDbEntity
  8
0
100
AcDbBlockBegin
  2
block 7
 70
     0
 10
0.0
 20
0.0
 30
0.0
  3
block 7
  1

  0
SPLINE
  5
6D
330
69
100
AcDbEntity
  8
0
 62
     7
420
 16777215
370
    25
100
AcDbSpline
210
0.0
220
0.0
230
1.0
 70
    11
 71
     3
 72
    20
 73
    16
 74
     0
 42
0.0000000001
 43
0.0000000001
 12
1.0
 22
0.0
 32
0.0
 13
1.0
 23
0.0
 33
0.0
 40
0.0
 40
0.0
 40
0.0
 40
0.0
 40
1.0
 40
1.0
 40
1.0
 40
2.0
 40
2.0
 40
2.0
 40
3.0
 40
3.0
 40
3.0
 40
4.0
 40
4.0
 40
4.0
 40
5.0
 40
5.0
 40
5.0
 40
5.0
 10
1011.444218914299
 20
596.2594049195809
 30
0.0
 10
1011.444218914299
 20
597.1154462816049
 30
0.0
 10
1012.138177551887
 20
597.8094049191935
 30
0.0
 10
1012.994218913911
 20
597.8094049191935
 30
0.0
 10
1013.850260275935
 20
597.8094049191935
 30
0.0
 10
1014.544218913523
 20
597.1154462816049
 30
0.0
 10
1014.544218913523
 20
596.2594049195809
 30
0.0
 10
1014.544218913523
 20
595.4033635575568
 30
0.0
 10
1013.850260275935
 20
594.7094049199682
 30
0.0
 10
1012.994218913911
 20
594.7094049199682
 30
0.0
 10
1012.138177551887
 20
594.7094049199682
 30
0.0
 10
1011.444218914299
 20
595.4033635575568
 30
0.0
 10
1011.444218914299
 20
596.2594049195809
 30
0.0
 10
1011.444218914299
 20
596.2594049195809
 30
0.0
 10
1011.444218914299
 20
596.2594049195809
 30
0.0
 10
1011.444218914299
 20
596.2594049195809
 30
0.0
  0
ENDBLK
  5
6C
330
69
100
AcDbEntity
  8
0
100
AcDbBlockEnd
  0
BLOCK
  5
70
330
6E
100
AcDbEntity
  8
0
100
AcDbBlockBegin
  2
block 8
 70
     0
 10
0.0
 20
0.0
 30
0.0
  3
block 8
  1

  0
SPLINE
  5
72
330
6E
100
AcDbEntity
  8
0
 62
     7
420
 16777215
370
    25
100
AcDbSpline
210
0.0
220
0.0
230
1.0
 70
    11
 71
     3
 72
    20
 73
    16
 74
     0
 42
0.0000000001
 43
0.0000000001
 12
1.0
 22
0.0
 32
0.0
 13
1.0
 23
0.0
 33
0.0
 40
0.0
 40
0.0
 40
0.0
 40
0.0
 40
1.0
 40
1.0
 40
1.0
 40
2.0
 40
2.0
 40
2.0
 40
3.0
 40
3.0
 40
3.0
 40
4.0
 40
4.0
 40
4.0
 40
5.0
 40
5.0
 40
5.0
 40
5.0
 10
803.9865614646832
 20
596.2594049195809
 30
0.0
 10
803.9865614646832
 20
597.1154462816049
 30
0.0
 10
804.6805201022718
 20
597.8094049191935
 30
0.0
 10
805.5365614642958
 20
597.8094049191935
 30
0.0
 10
806.39260282632
 20
597.8094049191935
 30
0.0
 10
807.0865614639085
 20
597.1154462816049
 30
0.0
 10
807.0865614639085
 20
596.2594049195809
 30
0.0
 10
807.0865614639085
 20
595.4033635575568
 30
0.0
 10
806.39260282632
 20
594.7094049199682
 30
0.0
 10
805.5365614642958
 20
594.7094049199682
 30
0.0
 10
804.6805201022718
 20
594.7094049199682
 30
0.0
 10
803.9865614646832
 20
595.4033635575568
 30
0.0
 10
803.9865614646832
 20
596.2594049195809
 30
0.0
 10
803.9865614646832
 20
596.2594049195809
 30
0.0
 10
803.9865614646832
 20
596.2594049195809
 30
0.0
 10
803.9865614646832
 20
596.2594049195809
 30
0.0
  0
ENDBLK
  5
71
330
6E
100
AcDbEntity
  8
0
100
AcDbBlockEnd
  0
BLOCK
  5
75
330
73
100
AcDbEntity
  8
0
100
AcDbBlockBegin
  2
block 9
 70
     0
 10
0.0
 20
0.0
 30
0.0
  3
block 9
  1

  0
SPLINE
  5
77
330
73
100
AcDbEntity
  8
0
 62
     7
420
 16777215
370
    25
100
AcDbSpline
210
0.0
220
0.0
230
1.0
 70
    11
 71
     3
 72
    20
 73
    16
 74
     0
 42
0.0000000001
 43
0.0000000001
 12
1.0
 22
0.0
 32
0.0
 13
1.0
 23
0.0
 33
0.0
 40
0.0
 40
0.0
 40
0.0
 40
0.0
 40
1.0
 40
1.0
 40
1.0
 40
2.0
 40
2.0
 40
2.0
 40
3.0
 40
3.0
 40
3.0
 40
4.0
 40
4.0
 40
4.0
 40
5.0
 40
5.0
 40
5.0
 40
5.0
 10
905.4557806064761
 20
483.7405948104191
 30
0.0
 10
905.4557806064761
 20
484.5966361724432
 30
0.0
 10
906.1497392440646
 20
485.2905948100327
 30
0.0
 10
907.0057806060887
 20
485.2905948100327
 30
0.0
 10
907.8618219681119
 20
485.2905948100327
 30
0.0
 10
908.5557806057005
 20
484.5966361724432
 30
0.0
 10
908.5557806057014
 20
483.7405948104191
 30
0.0
 10
908.5557806057005
 20
482.884553448395
 30
0.0
 10
907.8618219681119
 20
482.1905948108073
 30
0.0
 10
907.0057806060887
 20
482.1905948108073
 30
0.0
 10
906.1497392440646
 20
482.1905948108073
 30
0.0
 10
905.4557806064761
 20
482.884553448395
 30
0.0
 10
905.4557806064761
 20
483.7405948104191
 30
0.0
 10
905.4557806064761
 20
483.7405948104191
 30
0.0
 10
905.4557806064761
 20
483.7405948104191
 30
0.0
 10
905.4557806064761
 20
483.7405948104191
 30
0.0
  0
ENDBLK
  5
76
330
73
100
AcDbEntity
  8
0
100
AcDbBlockEnd
  0
BLOCK
  5
7A
330
78
100
AcDbEntity
  8
0
100
AcDbBlockBegin
  2
block 10
 70
     0
 10
0.0
 20
0.0
 30
0.0
  3
block 10
  1

  0
SPLINE
  5
7C
330
78
100
AcDbEntity
  8
0
 62
     7
420
 16777215
370
    25
100
AcDbSpline
210
0.0
220
0.0
230
1.0
 70
    11
 71
     3
 72
    20
 73
    16
 74
     0
 42
0.0000000001
 43
0.0000000001
 12
1.0
 22
0.0
 32
0.0
 13
1.0
 23
0.0
 33
0.0
 40
0.0
 40
0.0
 40
0.0
 40
0.0
 40
1.0
 40
1.0
 40
1.0
 40
2.0
 40
2.0
 40
2.0
 40
3.0
 40
3.0
 40
3.0
 40
4.0
 40
4.0
 40
4.0
 40
5.0
 40
5.0
 40
5.0
 40
5.0
 10
1112.913438056091
 20
483.7405948104191
 30
0.0
 10
1112.913438056091
 20
484.5966361724432
 30
0.0
 10
1113.60739669368
 20
485.2905948100327
 30
0.0
 10
1114.463438055704
 20
485.2905948100327
 30
0.0
 10
1115.319479417728
 20
485.2905948100327
 30
0.0
 10
1116.013438055316
 20
484.5966361724432
 30
0.0
 10
1116.013438055316
 20
483.7405948104191
 30
0.0
 10
1116.013438055316
 20
482.884553448395
 30
0.0
 10
1115.319479417728
 20
482.1905948108073
 30
0.0
 10
1114.463438055704
 20
482.1905948108073
 30
0.0
 10
1113.60739669368
 20
482.1905948108073
 30
0.0
 10
1112.913438056091
 20
482.884553448395
 30
0.0
 10
1112.913438056091
 20
483.7405948104191
 30
0.0
 10
1112.913438056091
 20
483.7405948104191
 30
0.0
 10
1112.913438056091
 20
483.7405948104191
 30
0.0
 10
1112.913438056091
 20
483.7405948104191
 30
0.0
  0
ENDBLK
  5
7B
330
78
100
AcDbEntity
  8
0
100
AcDbBlockEnd
  0
BLOCK
  5
7F
330
7D
100
AcDbEntity
  8
0
100
AcDbBlockBegin
  2
block 11
 70
     0
 10
0.0
 20
0.0
 30
0.0
  3
block 11
  1

  0
SPLINE
  5
81
330
7D
100
AcDbEntity
  8
0
 62
     7
420
 16777215
370
    25
100
AcDbSpline
210
0.0
220
0.0
230
1.0
 70
    11
 71
     3
 72
    20
 73
    16
 74
     0
 42
0.0000000001
 43
0.0000000001
 12
1.0
 22
0.0
 32
0.0
 13
1.0
 23
0.0
 33
0.0
 40
0.0
 40
0.0
 40
0.0
 40
0.0
 40
1.0
 40
1.0
 40
1.0
 40
2.0
 40
2.0
 40
2.0
 40
3.0
 40
3.0
 40
3.0
 40
4.0
 40
4.0
 40
4.0
 40
5.0
 40
5.0
 40
5.0
 40
5.0
 10
1011.444218914299
 20
483.7405948104191
 30
0.0
 10
1011.444218914299
 20
484.5966361724432
 30
0.0
 10
1012.138177551887
 20
485.2905948100327
 30
0.0
 10
1012.994218913911
 20
485.2905948100327
 30
0.0
 10
1013.850260275935
 20
485.2905948100327
 30
0.0
 10
1014.544218913523
 20
484.5966361724432
 30
0.0
 10
1014.544218913523
 20
483.7405948104191
 30
0.0
 10
1014.544218913523
 20
482.884553448395
 30
0.0
 10
1013.850260275935
 20
482.1905948108073
 30
0.0
 10
1012.994218913911
 20
482.1905948108073
 30
0.0
 10
1012.138177551887
 20
482.1905948108073
 30
0.0
 10
1011.444218914299
 20
482.884553448395
 30
0.0
 10
1011.444218914299
 20
483.7405948104191
 30
0.0
 10
1011.444218914299
 20
483.7405948104191
 30
0.0
 10
1011.444218914299
 20
483.7405948104191
 30
0.0
 10
1011.444218914299
 20
483.7405948104191
 30
0.0
  0
ENDBLK
  5
80
330
7D
100
AcDbEntity
  8
0
100
AcDbBlockEnd
  0
BLOCK
  5
84
330
82
100
AcDbEntity
  8
0
100
AcDbBlockBegin
  2
block 12
 70
     0
 10
0.0
 20
0.0
 30
0.0
  3
block 12
  1

  0
SPLINE
  5
86
330
82
100
AcDbEntity
  8
0
 62
     7
420
 16777215
370
    25
100
AcDbSpline
210
0.0
220
0.0
230
1.0
 70
    11
 71
     3
 72
    20
 73
    16
 74
     0
 42
0.0000000001
 43
0.0000000001
 12
1.0
 22
0.0
 32
0.0
 13
1.0
 23
0.0
 33
0.0
 40
0.0
 40
0.0
 40
0.0
 40
0.0
 40
1.0
 40
1.0
 40
1.0
 40
2.0
 40
2.0
 40
2.0
 40
3.0
 40
3.0
 40
3.0
 40
4.0
 40
4.0
 40
4.0
 40
5.0
 40
5.0
 40
5.0
 40
5.0
 10
803.9865614646832
 20
483.7405948104191
 30
0.0
 10
803.9865614646832
 20
484.5966361724432
 30
0.0
 10
804.6805201022718
 20
485.2905948100327
 30
0.0
 10
805.5365614642958
 20
485.2905948100327
 30
0.0
 10
806.39260282632
 20
485.2905948100327
 30
0.0
 10
807.0865614639085
 20
484.5966361724432
 30
0.0
 10
807.0865614639085
 20
483.7405948104191
 30
0.0
 10
807.0865614639085
 20
482.884553448395
 30
0.0
 10
806.39260282632
 20
482.1905948108073
 30
0.0
 10
805.5365614642958
 20
482.1905948108073
 30
0.0
 10
804.6805201022718
 20
482.1905948108073
 30
0.0
 10
803.9865614646832
 20
482.884553448395
 30
0.0
 10
803.9865614646832
 20
483.7405948104191
 30
0.0
 10
803.9865614646832
 20
483.7405948104191
 30
0.0
 10
803.9865614646832
 20
483.7405948104191
 30
0.0
 10
803.9865614646832
 20
483.7405948104191
 30
0.0
  0
ENDBLK
  5
85
330
82
100
AcDbEntity
  8
0
100
AcDbBlockEnd
  0
BLOCK
  5
89
330
87
100
AcDbEntity
  8
0
100
AcDbBlockBegin
  2
block 13
 70
     0
 10
0.0
 20
0.0
 30
0.0
  3
block 13
  1

  0
SPLINE
  5
8B
330
87
100
AcDbEntity
  8
0
 62
     7
420
 16777215
370
    25
100
AcDbSpline
210
0.0
220
0.0
230
1.0
 70
    11
 71
     3
 72
    20
 73
    16
 74
     0
 42
0.0000000001
 43
0.0000000001
 12
1.0
 22
0.0
 32
0.0
 13
1.0
 23
0.0
 33
0.0
 40
0.0
 40
0.0
 40
0.0
 40
0.0
 40
1.0
 40
1.0
 40
1.0
 40
2.0
 40
2.0
 40
2.0
 40
3.0
 40
3.0
 40
3.0
 40
4.0
 40
4.0
 40
4.0
 40
5.0
 40
5.0
 40
5.0
 40
5.0
 10
905.4557806064761
 20
596.2594049195809
 30
0.0
 10
905.4557806064761
 20
597.1154462816049
 30
0.0
 10
906.1497392440646
 20
597.8094049191935
 30
0.0
 10
907.0057806060887
 20
597.8094049191935
 30
0.0
 10
907.8618219681119
 20
597.8094049191935
 30
0.0
 10
908.5557806057005
 20
597.1154462816049
 30
0.0
 10
908.5557806057014
 20
596.2594049195809
 30
0.0
 10
908.5557806057005
 20
595.4033635575568
 30
0.0
 10
907.8618219681119
 20
594.7094049199682
 30
0.0
 10
907.0057806060887
 20
594.7094049199682
 30
0.0
 10
906.1497392440646
 20
594.7094049199682
 30
0.0
 10
905.4557806064761
 20
595.4033635575568
 30
0.0
 10
905.4557806064761
 20
596.2594049195809
 30
0.0
 10
905.4557806064761
 20
596.2594049195809
 30
0.0
 10
905.4557806064761
 20
596.2594049195809
 30
0.0
 10
905.4557806064761
 20
596.2594049195809
 30
0.0
  0
ENDBLK
  5
8A
330
87
100
AcDbEntity
  8
0
100
AcDbBlockEnd
  0
BLOCK
  5
8E
330
8C
100
AcDbEntity
  8
0
100
AcDbBlockBegin
  2
block 14
 70
     0
 10
0.0
 20
0.0
 30
0.0
  3
block 14
  1

  0
SPLINE
  5
90
330
8C
100
AcDbEntity
  8
0
 62
     7
420
 16777215
370
    25
100
AcDbSpline
210
0.0
220
0.0
230
1.0
 70
    11
 71
     3
 72
    20
 73
    16
 74
     0
 42
0.0000000001
 43
0.0000000001
 12
1.0
 22
0.0
 32
0.0
 13
1.0
 23
0.0
 33
0.0
 40
0.0
 40
0.0
 40
0.0
 40
0.0
 40
1.0
 40
1.0
 40
1.0
 40
2.0
 40
2.0
 40
2.0
 40
3.0
 40
3.0
 40
3.0
 40
4.0
 40
4.0
 40
4.0
 40
5.0
 40
5.0
 40
5.0
 40
5.0
 10
1112.913438056091
 20
596.2594049195809
 30
0.0
 10
1112.913438056091
 20
597.1154462816049
 30
0.0
 10
1113.60739669368
 20
597.8094049191935
 30
0.0
 10
1114.463438055704
 20
597.8094049191935
 30
0.0
 10
1115.319479417728
 20
597.8094049191935
 30
0.0
 10
1116.013438055316
 20
597.1154462816049
 30
0.0
 10
1116.013438055316
 20
596.2594049195809
 30
0.0
 10
1116.013438055316
 20
595.4033635575568
 30
0.0
 10
1115.319479417728
 20
594.7094049199682
 30
0.0
 10
1114.463438055704
 20
594.7094049199682
 30
0.0
 10
1113.60739669368
 20
594.7094049199682
 30
0.0
 10
1112.913438056091
 20
595.4033635575568
 30
0.0
 10
1112.913438056091
 20
596.2594049195809
 30
0.0
 10
1112.913438056091
 20
596.2594049195809
 30
0.0
 10
1112.913438056091
 20
596.2594049195809
 30
0.0
 10
1112.913438056091
 20
596.2594049195809
 30
0.0
  0
ENDBLK
  5
8F
330
8C
100
AcDbEntity
  8
0
100
AcDbBlockEnd
  0
BLOCK
  5
93
330
91
100
AcDbEntity
  8
0
100
AcDbBlockBegin
  2
block 15
 70
     0
 10
0.0
 20
0.0
 30
0.0
  3
block 15
  1

  0
SPLINE
  5
95
330
91
100
AcDbEntity
  8
0
 62
   240
420
 15539236
370
    35
100
AcDbSpline
210
0.0
220
0.0
230
1.0
 70
    11
 71
     3
 72
    71
 73
    67
 74
     0
 42
0.0000000001
 43
0.0000000001
 12
1.0
 22
0.0
 32
0.0
 13
1.0
 23
0.0
 33
0.0
 40
0.0
 40
0.0
 40
0.0
 40
0.0
 40
1.0
 40
1.0
 40
1.0
 40
2.0
 40
2.0
 40
2.0
 40
3.0
 40
3.0
 40
3.0
 40
4.0
 40
4.0
 40
4.0
 40
5.0
 40
5.0
 40
5.0
 40
6.0
 40
6.0
 40
6.0
 40
7.0
 40
7.0
 40
7.0
 40
8.0
 40
8.0
 40
8.0
 40
9.0
 40
9.0
 40
9.0
 40
10.0
 40
10.0
 40
10.0
 40
11.0
 40
11.0
 40
11.0
 40
12.0
 40
12.0
 40
12.0
 40
13.0
 40
13.0
 40
13.0
 40
14.0
 40
14.0
 40
14.0
 40
15.0
 40
15.0
 40
15.0
 40
16.0
 40
16.0
 40
16.0
 40
17.0
 40
17.0
 40
17.0
 40
18.0
 40
18.0
 40
18.0
 40
19.0
 40
19.0
 40
19.0
 40
20.0
 40
20.0
 40
20.0
 40
21.0
 40
21.0
 40
21.0
 40
22.0
 40
22.0
 40
22.0
 40
22.0
 10
811.5830076096042
 20
606.563964692109
 30
0.0
 10
811.5830076096042
 20
606.563964692109
 30
0.0
 10
809.5317380788671
 20
614.6474607838381
 30
0.0
 10
809.5317380788671
 20
614.6474607838381
 30
0.0
 10
809.5317380788671
 20
614.6474607838381
 30
0.0
 10
810.6352537035912
 20
614.6474607838381
 30
0.0
 10
810.6352537035912
 20
614.6474607838381
 30
0.0
 10
810.6352537035912
 20
614.6474607838381
 30
0.0
 10
811.5947263596013
 20
610.5576170348605
 30
0.0
 10
811.5947263596013
 20
610.5576170348605
 30
0.0
 10
811.8344724532914
 20
609.5502928163625
 30
0.0
 10
812.0507810469873
 20
608.5429685978643
 30
0.0
 10
812.1943357344514
 20
607.7631834418092
 30
0.0
 10
812.1943357344514
 20
607.7631834418092
 30
0.0
 10
812.2182615156954
 20
607.7631834418092
 30
0.0
 10
812.2182615156954
 20
607.7631834418092
 30
0.0
 10
812.3505857344123
 20
608.5668943791082
 30
0.0
 10
812.6020505780995
 20
609.5263670351184
 30
0.0
 10
812.8779294842805
 20
610.5698240661076
 30
0.0
 10
812.8779294842805
 20
610.5698240661076
 30
0.0
 10
813.9575193277606
 20
614.6474607838381
 30
0.0
 10
813.9575193277606
 20
614.6474607838381
 30
0.0
 10
813.9575193277606
 20
614.6474607838381
 30
0.0
 10
815.0488279212378
 20
614.6474607838381
 30
0.0
 10
815.0488279212378
 20
614.6474607838381
 30
0.0
 10
815.0488279212378
 20
614.6474607838381
 30
0.0
 10
816.0322263584919
 20
610.5458982848635
 30
0.0
 10
816.0322263584919
 20
610.5458982848635
 30
0.0
 10
816.260253702185
 20
609.5864256288534
 30
0.0
 10
816.476074014631
 20
608.6269529728432
 30
0.0
 10
816.596191202101
 20
607.7753904730562
 30
0.0
 10
816.596191202101
 20
607.7753904730562
 30
0.0
 10
816.6201169833449
 20
607.7753904730562
 30
0.0
 10
816.6201169833449
 20
607.7753904730562
 30
0.0
 10
816.788085733303
 20
608.6625975040844
 30
0.0
 10
817.015624795746
 20
609.5624998476094
 30
0.0
 10
817.267577920683
 20
610.5698240661076
 30
0.0
 10
817.267577920683
 20
610.5698240661076
 30
0.0
 10
818.3349607329162
 20
614.6474607838381
 30
0.0
 10
818.3349607329162
 20
614.6474607838381
 30
0.0
 10
818.3349607329162
 20
614.6474607838381
 30
0.0
 10
819.4023435451494
 20
614.6474607838381
 30
0.0
 10
819.4023435451494
 20
614.6474607838381
 30
0.0
 10
819.4023435451494
 20
614.6474607838381
 30
0.0
 10
817.111816201972
 20
606.563964692109
 30
0.0
 10
817.111816201972
 20
606.563964692109
 30
0.0
 10
817.111816201972
 20
606.563964692109
 30
0.0
 10
816.0205076084949
 20
606.563964692109
 30
0.0
 10
816.0205076084949
 20
606.563964692109
 30
0.0
 10
816.0205076084949
 20
606.563964692109
 30
0.0
 10
815.0009763587498
 20
610.7734373473066
 30
0.0
 10
815.0009763587498
 20
610.7734373473066
 30
0.0
 10
814.7490232338127
 20
611.8051756282987
 30
0.0
 10
814.5810544838547
 20
612.5966795343509
 30
0.0
 10
814.4731443276316
 20
613.4121092216469
 30
0.0
 10
814.4731443276316
 20
613.4121092216469
 30
0.0
 10
814.4492185463877
 20
613.4121092216469
 30
0.0
 10
814.4492185463877
 20
613.4121092216469
 30
0.0
 10
814.3051755776737
 20
612.6088865655978
 30
0.0
 10
814.1254880777186
 20
611.8168943782957
 30
0.0
 10
813.8256833902935
 20
610.7734373473066
 30
0.0
 10
813.8256833902935
 20
610.7734373473066
 30
0.0
 10
812.6743162030814
 20
606.563964692109
 30
0.0
 10
812.6743162030814
 20
606.563964692109
 30
0.0
 10
812.6743162030814
 20
606.563964692109
 30
0.0
 10
811.5830076096042
 20
606.563964692109
 30
0.0
 10
811.5830076096042
 20
606.563964692109
 30
0.0
  0
HATCH
  5
96
330
91
100
AcDbEntity
  8
0
 62
   240
420
 15539236
100
AcDbHatch
 10
0.0
 20
0.0
 30
0.0
210
0.0
220
0.0
230
1.0
  2
SOLID
 70
     1
 71
     0
 91
        1
 92
        1
 93
        1
 72
     4
 94
        3
 73
     0
 74
     1
 95
       71
 96
       67
 40
0.0
 40
0.0
 40
0.0
 40
0.0
 40
1.0
 40
1.0
 40
1.0
 40
2.0
 40
2.0
 40
2.0
 40
3.0
 40
3.0
 40
3.0
 40
4.0
 40
4.0
 40
4.0
 40
5.0
 40
5.0
 40
5.0
 40
6.0
 40
6.0
 40
6.0
 40
7.0
 40
7.0
 40
7.0
 40
8.0
 40
8.0
 40
8.0
 40
9.0
 40
9.0
 40
9.0
 40
10.0
 40
10.0
 40
10.0
 40
11.0
 40
11.0
 40
11.0
 40
12.0
 40
12.0
 40
12.0
 40
13.0
 40
13.0
 40
13.0
 40
14.0
 40
14.0
 40
14.0
 40
15.0
 40
15.0
 40
15.0
 40
16.0
 40
16.0
 40
16.0
 40
17.0
 40
17.0
 40
17.0
 40
18.0
 40
18.0
 40
18.0
 40
19.0
 40
19.0
 40
19.0
 40
20.0
 40
20.0
 40
20.0
 40
21.0
 40
21.0
 40
21.0
 40
22.0
 40
22.0
 40
22.0
 40
22.0
 10
811.5830076096042
 20
606.563964692109
 10
811.5830076096042
 20
606.563964692109
 10
809.5317380788671
 20
614.6474607838381
 10
809.5317380788671
 20
614.6474607838381
 10
809.5317380788671
 20
614.6474607838381
 10
810.6352537035912
 20
614.6474607838381
 10
810.6352537035912
 20
614.6474607838381
 10
810.6352537035912
 20
614.6474607838381
 10
811.5947263596013
 20
610.5576170348605
 10
811.5947263596013
 20
610.5576170348605
 10
811.8344724532914
 20
609.5502928163625
 10
812.0507810469873
 20
608.5429685978643
 10
812.1943357344514
 20
607.7631834418092
 10
812.1943357344514
 20
607.7631834418092
 10
812.2182615156954
 20
607.7631834418092
 10
812.2182615156954
 20
607.7631834418092
 10
812.3505857344123
 20
608.5668943791082
 10
812.6020505780995
 20
609.5263670351184
 10
812.8779294842805
 20
610.5698240661076
 10
812.8779294842805
 20
610.5698240661076
 10
813.9575193277606
 20
614.6474607838381
 10
813.9575193277606
 20
614.6474607838381
 10
813.9575193277606
 20
614.6474607838381
 10
815.0488279212378
 20
614.6474607838381
 10
815.0488279212378
 20
614.6474607838381
 10
815.0488279212378
 20
614.6474607838381
 10
816.0322263584919
 20
610.5458982848635
 10
816.0322263584919
 20
610.5458982848635
 10
816.260253702185
 20
609.5864256288534
 10
816.476074014631
 20
608.6269529728432
 10
816.596191202101
 20
607.7753904730562
 10
816.596191202101
 20
607.7753904730562
 10
816.6201169833449
 20
607.7753904730562
 10
816.6201169833449
 20
607.7753904730562
 10
816.788085733303
 20
608.6625975040844
 10
817.015624795746
 20
609.5624998476094
 10
817.267577920683
 20
610.5698240661076
 10
817.267577920683
 20
610.5698240661076
 10
818.3349607329162
 20
614.6474607838381
 10
818.3349607329162
 20
614.6474607838381
 10
818.3349607329162
 20
614.6474607838381
 10
819.4023435451494
 20
614.6474607838381
 10
819.4023435451494
 20
614.6474607838381
 10
819.4023435451494
 20
614.6474607838381
 10
817.111816201972
 20
606.563964692109
 10
817.111816201972
 20
606.563964692109
 10
817.111816201972
 20
606.563964692109
 10
816.0205076084949
 20
606.563964692109
 10
816.0205076084949
 20
606.563964692109
 10
816.0205076084949
 20
606.563964692109
 10
815.0009763587498
 20
610.7734373473066
 10
815.0009763587498
 20
610.7734373473066
 10
814.7490232338127
 20
611.8051756282987
 10
814.5810544838547
 20
612.5966795343509
 10
814.4731443276316
 20
613.4121092216469
 10
814.4731443276316
 20
613.4121092216469
 10
814.4492185463877
 20
613.4121092216469
 10
814.4492185463877
 20
613.4121092216469
 10
814.3051755776737
 20
612.6088865655978
 10
814.1254880777186
 20
611.8168943782957
 10
813.8256833902935
 20
610.7734373473066
 10
813.8256833902935
 20
610.7734373473066
 10
812.6743162030814
 20
606.563964692109
 10
812.6743162030814
 20
606.563964692109
 10
812.6743162030814
 20
606.563964692109
 10
811.5830076096042
 20
606.563964692109
 10
811.5830076096042
 20
606.563964692109
 97
        0
 97
        0
 75
     2
 76
     1
 98
        0
  0
SPLINE
  5
97
330
91
100
AcDbEntity
  8
0
 62
   240
420
 15539236
370
    35
100
AcDbSpline
210
0.0
220
0.0
230
1.0
 70
    11
 71
     3
 72
    47
 73
    43
 74
     0
 42
0.0000000001
 43
0.0000000001
 12
1.0
 22
0.0
 32
0.0
 13
1.0
 23
0.0
 33
0.0
 40
0.0
 40
0.0
 40
0.0
 40
0.0
 40
1.0
 40
1.0
 40
1.0
 40
2.0
 40
2.0
 40
2.0
 40
3.0
 40
3.0
 40
3.0
 40
4.0
 40
4.0
 40
4.0
 40
5.0
 40
5.0
 40
5.0
 40
6.0
 40
6.0
 40
6.0
 40
7.0
 40
7.0
 40
7.0
 40
8.0
 40
8.0
 40
8.0
 40
9.0
 40
9.0
 40
9.0
 40
10.0
 40
10.0
 40
10.0
 40
11.0
 40
11.0
 40
11.0
 40
12.0
 40
12.0
 40
12.0
 40
13.0
 40
13.0
 40
13.0
 40
14.0
 40
14.0
 40
14.0
 40
14.0
 10
820.4155271386461
 20
614.6474607838381
 30
0.0
 10
820.4155271386461
 20
614.6474607838381
 30
0.0
 10
821.4589841696352
 20
614.6474607838381
 30
0.0
 10
821.4589841696352
 20
614.6474607838381
 30
0.0
 10
821.4589841696352
 20
614.6474607838381
 30
0.0
 10
821.4589841696352
 20
610.7495115660627
 30
0.0
 10
821.4589841696352
 20
610.7495115660627
 30
0.0
 10
821.4589841696352
 20
610.7495115660627
 30
0.0
 10
821.4946287008763
 20
610.7495115660627
 30
0.0
 10
821.4946287008763
 20
610.7495115660627
 30
0.0
 10
821.7104490133223
 20
611.0615232847346
 30
0.0
 10
821.9267576070183
 20
611.3491209409127
 30
0.0
 10
822.1303708882174
 20
611.6132810970967
 30
0.0
 10
822.1303708882174
 20
611.6132810970967
 30
0.0
 10
824.6010740125997
 20
614.6474607838381
 30
0.0
 10
824.6010740125997
 20
614.6474607838381
 30
0.0
 10
824.6010740125997
 20
614.6474607838381
 30
0.0
 10
825.8964841685258
 20
614.6474607838381
 30
0.0
 10
825.8964841685258
 20
614.6474607838381
 30
0.0
 10
825.8964841685258
 20
614.6474607838381
 30
0.0
 10
822.9702146380074
 20
611.2172850034457
 30
0.0
 10
822.9702146380074
 20
611.2172850034457
 30
0.0
 10
822.9702146380074
 20
611.2172850034457
 30
0.0
 10
826.1245115122189
 20
606.563964692109
 30
0.0
 10
826.1245115122189
 20
606.563964692109
 30
0.0
 10
826.1245115122189
 20
606.563964692109
 30
0.0
 10
824.8891599500276
 20
606.563964692109
 30
0.0
 10
824.8891599500276
 20
606.563964692109
 30
0.0
 10
824.8891599500276
 20
606.563964692109
 30
0.0
 10
822.2265622944434
 20
610.5336912536166
 30
0.0
 10
822.2265622944434
 20
610.5336912536166
 30
0.0
 10
822.2265622944434
 20
610.5336912536166
 30
0.0
 10
821.4589841696352
 20
609.6464842225884
 30
0.0
 10
821.4589841696352
 20
609.6464842225884
 30
0.0
 10
821.4589841696352
 20
609.6464842225884
 30
0.0
 10
821.4589841696352
 20
606.563964692109
 30
0.0
 10
821.4589841696352
 20
606.563964692109
 30
0.0
 10
821.4589841696352
 20
606.563964692109
 30
0.0
 10
820.4155271386461
 20
606.563964692109
 30
0.0
 10
820.4155271386461
 20
606.563964692109
 30
0.0
 10
820.4155271386461
 20
606.563964692109
 30
0.0
 10
820.4155271386461
 20
614.6474607838381
 30
0.0
 10
820.4155271386461
 20
614.6474607838381
 30
0.0
  0
HATCH
  5
98
330
91
100
AcDbEntity
  8
0
 62
   240
420
 15539236
100
AcDbHatch
 10
0.0
 20
0.0
 30
0.0
210
0.0
220
0.0
230
1.0
  2
SOLID
 70
     1
 71
     0
 91
        1
 92
        1
 93
        1
 72
     4
 94
        3
 73
     0
 74
     1
 95
       47
 96
       43
 40
0.0
 40
0.0
 40
0.0
 40
0.0
 40
1.0
 40
1.0
 40
1.0
 40
2.0
 40
2.0
 40
2.0
 40
3.0
 40
3.0
 40
3.0
 40
4.0
 40
4.0
 40
4.0
 40
5.0
 40
5.0
 40
5.0
 40
6.0
 40
6.0
 40
6.0
 40
7.0
 40
7.0
 40
7.0
 40
8.0
 40
8.0
 40
8.0
 40
9.0
 40
9.0
 40
9.0
 40
10.0
 40
10.0
 40
10.0
 40
11.0
 40
11.0
 40
11.0
 40
12.0
 40
12.0
 40
12.0
 40
13.0
 40
13.0
 40
13.0
 40
14.0
 40
14.0
 40
14.0
 40
14.0
 10
820.4155271386461
 20
614.6474607838381
 10
820.4155271386461
 20
614.6474607838381
 10
821.4589841696352
 20
614.6474607838381
 10
821.4589841696352
 20
614.6474607838381
 10
821.4589841696352
 20
614.6474607838381
 10
821.4589841696352
 20
610.7495115660627
 10
821.4589841696352
 20
610.7495115660627
 10
821.4589841696352
 20
610.7495115660627
 10
821.4946287008763
 20
610.7495115660627
 10
821.4946287008763
 20
610.7495115660627
 10
821.7104490133223
 20
611.0615232847346
 10
821.9267576070183
 20
611.3491209409127
 10
822.1303708882174
 20
611.6132810970967
 10
822.1303708882174
 20
611.6132810970967
 10
824.6010740125997
 20
614.6474607838381
 10
824.6010740125997
 20
614.6474607838381
 10
824.6010740125997
 20
614.6474607838381
 10
825.8964841685258
 20
614.6474607838381
 10
825.8964841685258
 20
614.6474607838381
 10
825.8964841685258
 20
614.6474607838381
 10
822.9702146380074
 20
611.2172850034457
 10
822.9702146380074
 20
611.2172850034457
 10
822.9702146380074
 20
611.2172850034457
 10
826.1245115122189
 20
606.563964692109
 10
826.1245115122189
 20
606.563964692109
 10
826.1245115122189
 20
606.563964692109
 10
824.8891599500276
 20
606.563964692109
 10
824.8891599500276
 20
606.563964692109
 10
824.8891599500276
 20
606.563964692109
 10
822.2265622944434
 20
610.5336912536166
 10
822.2265622944434
 20
610.5336912536166
 10
822.2265622944434
 20
610.5336912536166
 10
821.4589841696352
 20
609.6464842225884
 10
821.4589841696352
 20
609.6464842225884
 10
821.4589841696352
 20
609.6464842225884
 10
821.4589841696352
 20
606.563964692109
 10
821.4589841696352
 20
606.563964692109
 10
821.4589841696352
 20
606.563964692109
 10
820.4155271386461
 20
606.563964692109
 10
820.4155271386461
 20
606.563964692109
 10
820.4155271386461
 20
606.563964692109
 10
820.4155271386461
 20
614.6474607838381
 10
820.4155271386461
 20
614.6474607838381
 97
        0
 97
        0
 75
     2
 76
     1
 98
        0
  0
POLYLINE
  5
99
330
91
100
AcDbEntity
  8
0
 62
   240
420
 15539236
370
    35
100
AcDb2dPolyline
 66
     1
 10
0.0
 20
0.0
 30
0.0
  0
VERTEX
  5
9A
330
99
100
AcDbEntity
  8
0
 62
   240
420
 15539236
370
    35
100
AcDbVertex
100
AcDb2dVertex
 10
826.9194333870201
 20
614.6474607838381
 30
0.0
  0
VERTEX
  5
9B
330
99
100
AcDbEntity
  8
0
 62
   240
420
 15539236
370
    35
100
AcDbVertex
100
AcDb2dVertex
 10
827.9628904180092
 20
614.6474607838381
 30
0.0
  0
VERTEX
  5
9C
330
99
100
AcDbEntity
  8
0
 62
   240
420
 15539236
370
    35
100
AcDbVertex
100
AcDb2dVertex
 10
827.9628904180092
 20
607.4394529731401
 30
0.0
  0
VERTEX
  5
9D
330
99
100
AcDbEntity
  8
0
 62
   240
420
 15539236
370
    35
100
AcDbVertex
100
AcDb2dVertex
 10
831.4169919796458
 20
607.4394529731401
 30
0.0
  0
VERTEX
  5
9E
330
99
100
AcDbEntity
  8
0
 62
   240
420
 15539236
370
    35
100
AcDbVertex
100
AcDb2dVertex
 10
831.4169919796458
 20
606.563964692109
 30
0.0
  0
VERTEX
  5
9F
330
99
100
AcDbEntity
  8
0
 62
   240
420
 15539236
370
    35
100
AcDbVertex
100
AcDb2dVertex
 10
826.9194333870201
 20
606.563964692109
 30
0.0
  0
VERTEX
  5
A0
330
99
100
AcDbEntity
  8
0
 62
   240
420
 15539236
370
    35
100
AcDbVertex
100
AcDb2dVertex
 10
826.9194333870201
 20
614.6474607838381
 30
0.0
  0
SEQEND
  5
A1
330
99
100
AcDbEntity
  8
0
 62
   240
420
 15539236
370
    35
  0
HATCH
  5
A2
330
91
100
AcDbEntity
  8
0
 62
   240
420
 15539236
100
AcDbHatch
 10
0.0
 20
0.0
 30
0.0
210
0.0
220
0.0
230
1.0
  2
SOLID
 70
     1
 71
     0
 91
        1
 92
        1
 93
        6
 72
     1
 10
826.9194333870201
 20
614.6474607838381
 11
827.9628904180092
 21
614.6474607838381
 72
     1
 10
827.9628904180092
 20
614.6474607838381
 11
827.9628904180092
 21
607.4394529731401
 72
     1
 10
827.9628904180092
 20
607.4394529731401
 11
831.4169919796458
 21
607.4394529731401
 72
     1
 10
831.4169919796458
 20
607.4394529731401
 11
831.4169919796458
 21
606.563964692109
 72
     1
 10
831.4169919796458
 20
606.563964692109
 11
826.9194333870201
 21
606.563964692109
 72
     1
 10
826.9194333870201
 20
606.563964692109
 11
826.9194333870201
 21
614.6474607838381
 97
        0
 75
     2
 76
     1
 98
        0
  0
POLYLINE
  5
A3
330
91
100
AcDbEntity
  8
0
 62
   240
420
 15539236
370
    35
100
AcDb2dPolyline
 66
     1
 10
0.0
 20
0.0
 30
0.0
  0
VERTEX
  5
A4
330
A3
100
AcDbEntity
  8
0
 62
   240
420
 15539236
370
    35
100
AcDbVertex
100
AcDb2dVertex
 10
835.1269529162182
 20
614.6474607838381
 30
0.0
  0
VERTEX
  5
A5
330
A3
100
AcDbEntity
  8
0
 62
   240
420
 15539236
370
    35
100
AcDbVertex
100
AcDb2dVertex
 10
836.1704099472074
 20
614.6474607838381
 30
0.0
  0
VERTEX
  5
A6
330
A3
100
AcDbEntity
  8
0
 62
   240
420
 15539236
370
    35
100
AcDbVertex
100
AcDb2dVertex
 10
836.1704099472074
 20
607.4394529731401
 30
0.0
  0
VERTEX
  5
A7
330
A3
100
AcDbEntity
  8
0
 62
   240
420
 15539236
370
    35
100
AcDbVertex
100
AcDb2dVertex
 10
839.6245115088439
 20
607.4394529731401
 30
0.0
  0
VERTEX
  5
A8
330
A3
100
AcDbEntity
  8
0
 62
   240
420
 15539236
370
    35
100
AcDbVertex
100
AcDb2dVertex
 10
839.6245115088439
 20
606.563964692109
 30
0.0
  0
VERTEX
  5
A9
330
A3
100
AcDbEntity
  8
0
 62
   240
420
 15539236
370
    35
100
AcDbVertex
100
AcDb2dVertex
 10
835.1269529162182
 20
606.563964692109
 30
0.0
  0
VERTEX
  5
AA
330
A3
100
AcDbEntity
  8
0
 62
   240
420
 15539236
370
    35
100
AcDbVertex
100
AcDb2dVertex
 10
835.1269529162182
 20
614.6474607838381
 30
0.0
  0
SEQEND
  5
AB
330
A3
100
AcDbEntity
  8
0
 62
   240
420
 15539236
370
    35
  0
HATCH
  5
AC
330
91
100
AcDbEntity
  8
0
 62
   240
420
 15539236
100
AcDbHatch
 10
0.0
 20
0.0
 30
0.0
210
0.0
220
0.0
230
1.0
  2
SOLID
 70
     1
 71
     0
 91
        1
 92
        1
 93
        6
 72
     1
 10
835.1269529162182
 20
614.6474607838381
 11
836.1704099472074
 21
614.6474607838381
 72
     1
 10
836.1704099472074
 20
614.6474607838381
 11
836.1704099472074
 21
607.4394529731401
 72
     1
 10
836.1704099472074
 20
607.4394529731401
 11
839.6245115088439
 21
607.4394529731401
 72
     1
 10
839.6245115088439
 20
607.4394529731401
 11
839.6245115088439
 21
606.563964692109
 72
     1
 10
839.6245115088439
 20
606.563964692109
 11
835.1269529162182
 21
606.563964692109
 72
     1
 10
835.1269529162182
 20
606.563964692109
 11
835.1269529162182
 21
614.6474607838381
 97
        0
 75
     2
 76
     1
 98
        0
  0
SPLINE
  5
AD
330
91
100
AcDbEntity
  8
0
 62
   240
420
 15539236
370
    35
100
AcDbSpline
210
0.0
220
0.0
230
1.0
 70
    11
 71
     3
 72
    59
 73
    55
 74
     0
 42
0.0000000001
 43
0.0000000001
 12
1.0
 22
0.0
 32
0.0
 13
1.0
 23
0.0
 33
0.0
 40
0.0
 40
0.0
 40
0.0
 40
0.0
 40
1.0
 40
1.0
 40
1.0
 40
2.0
 40
2.0
 40
2.0
 40
3.0
 40
3.0
 40
3.0
 40
4.0
 40
4.0
 40
4.0
 40
5.0
 40
5.0
 40
5.0
 40
6.0
 40
6.0
 40
6.0
 40
7.0
 40
7.0
 40
7.0
 40
8.0
 40
8.0
 40
8.0
 40
9.0
 40
9.0
 40
9.0
 40
10.0
 40
10.0
 40
10.0
 40
11.0
 40
11.0
 40
11.0
 40
12.0
 40
12.0
 40
12.0
 40
13.0
 40
13.0
 40
13.0
 40
14.0
 40
14.0
 40
14.0
 40
15.0
 40
15.0
 40
15.0
 40
16.0
 40
16.0
 40
16.0
 40
17.0
 40
17.0
 40
17.0
 40
18.0
 40
18.0
 40
18.0
 40
18.0
 10
840.6708982273323
 20
607.7753904730562
 30
0.0
 10
840.9707029147573
 20
607.5834959418542
 30
0.0
 10
841.6665036958334
 20
607.2836912544291
 30
0.0
 10
842.3979490081505
 20
607.2836912544291
 30
0.0
 10
843.7534177578116
 20
607.2836912544291
 30
0.0
 10
844.1728513514568
 20
608.1469725042133
 30
0.0
 10
844.1611326014597
 20
608.7949217228013
 30
0.0
 10
844.1489255702128
 20
609.8862303162784
 30
0.0
 10
843.1655271329586
 20
610.3540037536615
 30
0.0
 10
842.1459958832135
 20
610.3540037536615
 30
0.0
 10
842.1459958832135
 20
610.3540037536615
 30
0.0
 10
841.5585935396103
 20
610.3540037536615
 30
0.0
 10
841.5585935396103
 20
610.3540037536615
 30
0.0
 10
841.5585935396103
 20
610.3540037536615
 30
0.0
 10
841.5585935396103
 20
611.1455076597136
 30
0.0
 10
841.5585935396103
 20
611.1455076597136
 30
0.0
 10
841.5585935396103
 20
611.1455076597136
 30
0.0
 10
842.1459958832135
 20
611.1455076597136
 30
0.0
 10
842.1459958832135
 20
611.1455076597136
 30
0.0
 10
842.9135740080216
 20
611.1455076597136
 30
0.0
 10
843.8852536952787
 20
611.5410154721147
 30
0.0
 10
843.8852536952787
 20
612.4648435968837
 30
0.0
 10
843.8852536952787
 20
613.0883787529779
 30
0.0
 10
843.4892576016276
 20
613.64013656534
 30
0.0
 10
842.5180661956205
 20
613.64013656534
 30
0.0
 10
841.8940427582764
 20
613.64013656534
 30
0.0
 10
841.2944333834264
 20
613.364257659159
 30
0.0
 10
840.9589841647602
 20
613.1245115654689
 30
0.0
 10
840.9589841647602
 20
613.1245115654689
 30
0.0
 10
840.6831052585792
 20
613.892089690277
 30
0.0
 10
840.6831052585792
 20
613.892089690277
 30
0.0
 10
841.0908201022273
 20
614.191894377702
 30
0.0
 10
841.8823240082794
 20
614.491699065127
 30
0.0
 10
842.7216794768195
 20
614.491699065127
 30
0.0
 10
844.2568357264357
 20
614.491699065127
 30
0.0
 10
844.9526365075118
 20
613.580077971605
 30
0.0
 10
844.9526365075118
 20
612.6328123468418
 30
0.0
 10
844.9526365075118
 20
611.8291014095427
 30
0.0
 10
844.4726560388818
 20
611.1455076597136
 30
0.0
 10
843.5131833828717
 20
610.7978514098005
 30
0.0
 10
843.5131833828717
 20
610.7978514098005
 30
0.0
 10
843.5131833828717
 20
610.7734373473066
 30
0.0
 10
843.5131833828717
 20
610.7734373473066
 30
0.0
 10
844.4726560388818
 20
610.5815428161046
 30
0.0
 10
845.2524411949369
 20
609.8623045350344
 30
0.0
 10
845.2524411949369
 20
608.7709959415572
 30
0.0
 10
845.2524411949369
 20
607.5234373481192
 30
0.0
 10
844.2807615076798
 20
606.432128754642
 30
0.0
 10
842.4101560393974
 20
606.432128754642
 30
0.0
 10
841.5346677583664
 20
606.432128754642
 30
0.0
 10
840.7670896335582
 20
606.708007660823
 30
0.0
 10
840.3833005711541
 20
606.95996078576
 30
0.0
 10
840.3833005711541
 20
606.95996078576
 30
0.0
 10
840.6708982273323
 20
607.7753904730562
 30
0.0
 10
840.6708982273323
 20
607.7753904730562
 30
0.0
  0
HATCH
  5
AE
330
91
100
AcDbEntity
  8
0
 62
   240
420
 15539236
100
AcDbHatch
 10
0.0
 20
0.0
 30
0.0
210
0.0
220
0.0
230
1.0
  2
SOLID
 70
     1
 71
     0
 91
        1
 92
        1
 93
        1
 72
     4
 94
        3
 73
     0
 74
     1
 95
       59
 96
       55
 40
0.0
 40
0.0
 40
0.0
 40
0.0
 40
1.0
 40
1.0
 40
1.0
 40
2.0
 40
2.0
 40
2.0
 40
3.0
 40
3.0
 40
3.0
 40
4.0
 40
4.0
 40
4.0
 40
5.0
 40
5.0
 40
5.0
 40
6.0
 40
6.0
 40
6.0
 40
7.0
 40
7.0
 40
7.0
 40
8.0
 40
8.0
 40
8.0
 40
9.0
 40
9.0
 40
9.0
 40
10.0
 40
10.0
 40
10.0
 40
11.0
 40
11.0
 40
11.0
 40
12.0
 40
12.0
 40
12.0
 40
13.0
 40
13.0
 40
13.0
 40
14.0
 40
14.0
 40
14.0
 40
15.0
 40
15.0
 40
15.0
 40
16.0
 40
16.0
 40
16.0
 40
17.0
 40
17.0
 40
17.0
 40
18.0
 40
18.0
 40
18.0
 40
18.0
 10
840.6708982273323
 20
607.7753904730562
 10
840.9707029147573
 20
607.5834959418542
 10
841.6665036958334
 20
607.2836912544291
 10
842.3979490081505
 20
607.2836912544291
 10
843.7534177578116
 20
607.2836912544291
 10
844.1728513514568
 20
608.1469725042133
 10
844.1611326014597
 20
608.7949217228013
 10
844.1489255702128
 20
609.8862303162784
 10
843.1655271329586
 20
610.3540037536615
 10
842.1459958832135
 20
610.3540037536615
 10
842.1459958832135
 20
610.3540037536615
 10
841.5585935396103
 20
610.3540037536615
 10
841.5585935396103
 20
610.3540037536615
 10
841.5585935396103
 20
610.3540037536615
 10
841.5585935396103
 20
611.1455076597136
 10
841.5585935396103
 20
611.1455076597136
 10
841.5585935396103
 20
611.1455076597136
 10
842.1459958832135
 20
611.1455076597136
 10
842.1459958832135
 20
611.1455076597136
 10
842.9135740080216
 20
611.1455076597136
 10
843.8852536952787
 20
611.5410154721147
 10
843.8852536952787
 20
612.4648435968837
 10
843.8852536952787
 20
613.0883787529779
 10
843.4892576016276
 20
613.64013656534
 10
842.5180661956205
 20
613.64013656534
 10
841.8940427582764
 20
613.64013656534
 10
841.2944333834264
 20
613.364257659159
 10
840.9589841647602
 20
613.1245115654689
 10
840.9589841647602
 20
613.1245115654689
 10
840.6831052585792
 20
613.892089690277
 10
840.6831052585792
 20
613.892089690277
 10
841.0908201022273
 20
614.191894377702
 10
841.8823240082794
 20
614.491699065127
 10
842.7216794768195
 20
614.491699065127
 10
844.2568357264357
 20
614.491699065127
 10
844.9526365075118
 20
613.580077971605
 10
844.9526365075118
 20
612.6328123468418
 10
844.9526365075118
 20
611.8291014095427
 10
844.4726560388818
 20
611.1455076597136
 10
843.5131833828717
 20
610.7978514098005
 10
843.5131833828717
 20
610.7978514098005
 10
843.5131833828717
 20
610.7734373473066
 10
843.5131833828717
 20
610.7734373473066
 10
844.4726560388818
 20
610.5815428161046
 10
845.2524411949369
 20
609.8623045350344
 10
845.2524411949369
 20
608.7709959415572
 10
845.2524411949369
 20
607.5234373481192
 10
844.2807615076798
 20
606.432128754642
 10
842.4101560393974
 20
606.432128754642
 10
841.5346677583664
 20
606.432128754642
 10
840.7670896335582
 20
606.708007660823
 10
840.3833005711541
 20
606.95996078576
 10
840.3833005711541
 20
606.95996078576
 10
840.6708982273323
 20
607.7753904730562
 10
840.6708982273323
 20
607.7753904730562
 97
        0
 97
        0
 75
     2
 76
     1
 98
        0
  0
SPLINE
  5
AF
330
91
100
AcDbEntity
  8
0
 62
   240
420
 15539236
370
    35
100
AcDbSpline
210
0.0
220
0.0
230
1.0
 70
    11
 71
     3
 72
    47
 73
    43
 74
     0
 42
0.0000000001
 43
0.0000000001
 12
1.0
 22
0.0
 32
0.0
 13
1.0
 23
0.0
 33
0.0
 40
0.0
 40
0.0
 40
0.0
 40
0.0
 40
1.0
 40
1.0
 40
1.0
 40
2.0
 40
2.0
 40
2.0
 40
3.0
 40
3.0
 40
3.0
 40
4.0
 40
4.0
 40
4.0
 40
5.0
 40
5.0
 40
5.0
 40
6.0
 40
6.0
 40
6.0
 40
7.0
 40
7.0
 40
7.0
 40
8.0
 40
8.0
 40
8.0
 40
9.0
 40
9.0
 40
9.0
 40
10.0
 40
10.0
 40
10.0
 40
11.0
 40
11.0
 40
11.0
 40
12.0
 40
12.0
 40
12.0
 40
13.0
 40
13.0
 40
13.0
 40
14.0
 40
14.0
 40
14.0
 40
14.0
 10
849.3466794751633
 20
607.8354490667912
 30
0.0
 10
849.8144529125464
 20
607.5473631293631
 30
0.0
 10
850.4980466623755
 20
607.307617035673
 30
0.0
 10
851.2177732246955
 20
607.307617035673
 30
0.0
 10
852.2851560369287
 20
607.307617035673
 30
0.0
 10
852.9086911930228
 20
607.8710935980322
 30
0.0
 10
852.9086911930228
 20
608.6870115665782
 30
0.0
 10
852.9086911930228
 20
609.4423826601394
 30
0.0
 10
852.4770505681307
 20
609.8740232850315
 30
0.0
 10
851.3857419746536
 20
610.2939451599265
 30
0.0
 10
850.0664060374834
 20
610.7617185973096
 30
0.0
 10
849.2504880689373
 20
611.4453123471386
 30
0.0
 10
849.2504880689373
 20
612.5844725031038
 30
0.0
 10
849.2504880689373
 20
613.843749846539
 30
0.0
 10
850.2939450999265
 20
614.7792967213052
 30
0.0
 10
851.8652341620336
 20
614.7792967213052
 30
0.0
 10
852.6928708805767
 20
614.7792967213052
 30
0.0
 10
853.2924802554269
 20
614.5874021901031
 30
0.0
 10
853.6523435365868
 20
614.3837889089041
 30
0.0
 10
853.6523435365868
 20
614.3837889089041
 30
0.0
 10
853.3642575991589
 20
613.5322264091169
 30
0.0
 10
853.3642575991589
 20
613.5322264091169
 30
0.0
 10
853.1005857242249
 20
613.676269377831
 30
0.0
 10
852.5610349431097
 20
613.916015471521
 30
0.0
 10
851.8291013495427
 20
613.916015471521
 30
0.0
 10
850.7260740060684
 20
613.916015471521
 30
0.0
 10
850.3061521311735
 20
613.2563475029359
 30
0.0
 10
850.3061521311735
 20
612.7045896905738
 30
0.0
 10
850.3061521311735
 20
611.9492185970126
 30
0.0
 10
850.7978513498006
 20
611.5771482846058
 30
0.0
 10
851.9130857245217
 20
611.1455076597136
 30
0.0
 10
853.2807615054298
 20
610.6176756285955
 30
0.0
 10
853.976074005256
 20
609.9580076600105
 30
0.0
 10
853.976074005256
 20
608.7709959415572
 30
0.0
 10
853.976074005256
 20
607.5234373481192
 30
0.0
 10
853.0527341617368
 20
606.443847504639
 30
0.0
 10
851.1455075997136
 20
606.443847504639
 30
0.0
 10
850.3662107249085
 20
606.443847504639
 30
0.0
 10
849.5146482251213
 20
606.671874848332
 30
0.0
 10
849.0830076002293
 20
606.95996078576
 30
0.0
 10
849.0830076002293
 20
606.95996078576
 30
0.0
 10
849.3466794751633
 20
607.8354490667912
 30
0.0
 10
849.3466794751633
 20
607.8354490667912
 30
0.0
  0
HATCH
  5
B0
330
91
100
AcDbEntity
  8
0
 62
   240
420
 15539236
100
AcDbHatch
 10
0.0
 20
0.0
 30
0.0
210
0.0
220
0.0
230
1.0
  2
SOLID
 70
     1
 71
     0
 91
        1
 92
        1
 93
        1
 72
     4
 94
        3
 73
     0
 74
     1
 95
       47
 96
       43
 40
0.0
 40
0.0
 40
0.0
 40
0.0
 40
1.0
 40
1.0
 40
1.0
 40
2.0
 40
2.0
 40
2.0
 40
3.0
 40
3.0
 40
3.0
 40
4.0
 40
4.0
 40
4.0
 40
5.0
 40
5.0
 40
5.0
 40
6.0
 40
6.0
 40
6.0
 40
7.0
 40
7.0
 40
7.0
 40
8.0
 40
8.0
 40
8.0
 40
9.0
 40
9.0
 40
9.0
 40
10.0
 40
10.0
 40
10.0
 40
11.0
 40
11.0
 40
11.0
 40
12.0
 40
12.0
 40
12.0
 40
13.0
 40
13.0
 40
13.0
 40
14.0
 40
14.0
 40
14.0
 40
14.0
 10
849.3466794751633
 20
607.8354490667912
 10
849.8144529125464
 20
607.5473631293631
 10
850.4980466623755
 20
607.307617035673
 10
851.2177732246955
 20
607.307617035673
 10
852.2851560369287
 20
607.307617035673
 10
852.9086911930228
 20
607.8710935980322
 10
852.9086911930228
 20
608.6870115665782
 10
852.9086911930228
 20
609.4423826601394
 10
852.4770505681307
 20
609.8740232850315
 10
851.3857419746536
 20
610.2939451599265
 10
850.0664060374834
 20
610.7617185973096
 10
849.2504880689373
 20
611.4453123471386
 10
849.2504880689373
 20
612.5844725031038
 10
849.2504880689373
 20
613.843749846539
 10
850.2939450999265
 20
614.7792967213052
 10
851.8652341620336
 20
614.7792967213052
 10
852.6928708805767
 20
614.7792967213052
 10
853.2924802554269
 20
614.5874021901031
 10
853.6523435365868
 20
614.3837889089041
 10
853.6523435365868
 20
614.3837889089041
 10
853.3642575991589
 20
613.5322264091169
 10
853.3642575991589
 20
613.5322264091169
 10
853.1005857242249
 20
613.676269377831
 10
852.5610349431097
 20
613.916015471521
 10
851.8291013495427
 20
613.916015471521
 10
850.7260740060684
 20
613.916015471521
 10
850.3061521311735
 20
613.2563475029359
 10
850.3061521311735
 20
612.7045896905738
 10
850.3061521311735
 20
611.9492185970126
 10
850.7978513498006
 20
611.5771482846058
 10
851.9130857245217
 20
611.1455076597136
 10
853.2807615054298
 20
610.6176756285955
 10
853.976074005256
 20
609.9580076600105
 10
853.976074005256
 20
608.7709959415572
 10
853.976074005256
 20
607.5234373481192
 10
853.0527341617368
 20
606.443847504639
 10
851.1455075997136
 20
606.443847504639
 10
850.3662107249085
 20
606.443847504639
 10
849.5146482251213
 20
606.671874848332
 10
849.0830076002293
 20
606.95996078576
 10
849.0830076002293
 20
606.95996078576
 10
849.3466794751633
 20
607.8354490667912
 10
849.3466794751633
 20
607.8354490667912
 97
        0
 97
        0
 75
     2
 76
     1
 98
        0
  0
SPLINE
  5
B1
330
91
100
AcDbEntity
  8
0
 62
   240
420
 15539236
370
    35
100
AcDbSpline
210
0.0
220
0.0
230
1.0
 70
    11
 71
     3
 72
    56
 73
    52
 74
     0
 42
0.0000000001
 43
0.0000000001
 12
1.0
 22
0.0
 32
0.0
 13
1.0
 23
0.0
 33
0.0
 40
0.0
 40
0.0
 40
0.0
 40
0.0
 40
1.0
 40
1.0
 40
1.0
 40
2.0
 40
2.0
 40
2.0
 40
3.0
 40
3.0
 40
3.0
 40
4.0
 40
4.0
 40
4.0
 40
5.0
 40
5.0
 40
5.0
 40
6.0
 40
6.0
 40
6.0
 40
7.0
 40
7.0
 40
7.0
 40
8.0
 40
8.0
 40
8.0
 40
9.0
 40
9.0
 40
9.0
 40
10.0
 40
10.0
 40
10.0
 40
11.0
 40
11.0
 40
11.0
 40
12.0
 40
12.0
 40
12.0
 40
13.0
 40
13.0
 40
13.0
 40
14.0
 40
14.0
 40
14.0
 40
15.0
 40
15.0
 40
15.0
 40
16.0
 40
16.0
 40
16.0
 40
17.0
 40
17.0
 40
17.0
 40
17.0
 10
856.6059568170984
 20
614.035644377741
 30
0.0
 10
856.6059568170984
 20
614.035644377741
 30
0.0
 10
856.6059568170984
 20
612.3686521906578
 30
0.0
 10
856.6059568170984
 20
612.3686521906578
 30
0.0
 10
856.6059568170984
 20
612.3686521906578
 30
0.0
 10
858.1171872854707
 20
612.3686521906578
 30
0.0
 10
858.1171872854707
 20
612.3686521906578
 30
0.0
 10
858.1171872854707
 20
612.3686521906578
 30
0.0
 10
858.1171872854707
 20
611.5654295346086
 30
0.0
 10
858.1171872854707
 20
611.5654295346086
 30
0.0
 10
858.1171872854707
 20
611.5654295346086
 30
0.0
 10
856.6059568170984
 20
611.5654295346086
 30
0.0
 10
856.6059568170984
 20
611.5654295346086
 30
0.0
 10
856.6059568170984
 20
611.5654295346086
 30
0.0
 10
856.6059568170984
 20
608.4350584416412
 30
0.0
 10
856.6059568170984
 20
608.4350584416412
 30
0.0
 10
856.6059568170984
 20
607.7153318793212
 30
0.0
 10
856.8095700982976
 20
607.307617035673
 30
0.0
 10
857.3974607231506
 20
607.307617035673
 30
0.0
 10
857.6733396293316
 20
607.307617035673
 30
0.0
 10
857.8769529105307
 20
607.3437498481641
 30
0.0
 10
858.0092771292476
 20
607.3793943794051
 30
0.0
 10
858.0092771292476
 20
607.3793943794051
 30
0.0
 10
858.0571286917357
 20
606.587890473353
 30
0.0
 10
858.0571286917357
 20
606.587890473353
 30
0.0
 10
857.8530271292867
 20
606.503906098374
 30
0.0
 10
857.5292966606177
 20
606.443847504639
 30
0.0
 10
857.1215818169696
 20
606.443847504639
 30
0.0
 10
856.6298825983425
 20
606.443847504639
 30
0.0
 10
856.2338865046916
 20
606.6000975046
 30
0.0
 10
855.9819333797545
 20
606.8876951607781
 30
0.0
 10
855.6821286923295
 20
607.1997068794501
 30
0.0
 10
855.5742185361064
 20
607.7153318793212
 30
0.0
 10
855.5742185361064
 20
608.3989256291503
 30
0.0
 10
855.5742185361064
 20
608.3989256291503
 30
0.0
 10
855.5742185361064
 20
611.5654295346086
 30
0.0
 10
855.5742185361064
 20
611.5654295346086
 30
0.0
 10
855.5742185361064
 20
611.5654295346086
 30
0.0
 10
854.6748044738313
 20
611.5654295346086
 30
0.0
 10
854.6748044738313
 20
611.5654295346086
 30
0.0
 10
854.6748044738313
 20
611.5654295346086
 30
0.0
 10
854.6748044738313
 20
612.3686521906578
 30
0.0
 10
854.6748044738313
 20
612.3686521906578
 30
0.0
 10
854.6748044738313
 20
612.3686521906578
 30
0.0
 10
855.5742185361064
 20
612.3686521906578
 30
0.0
 10
855.5742185361064
 20
612.3686521906578
 30
0.0
 10
855.5742185361064
 20
612.3686521906578
 30
0.0
 10
855.5742185361064
 20
613.76025375281
 30
0.0
 10
855.5742185361064
 20
613.76025375281
 30
0.0
 10
855.5742185361064
 20
613.76025375281
 30
0.0
 10
856.6059568170984
 20
614.035644377741
 30
0.0
 10
856.6059568170984
 20
614.035644377741
 30
0.0
  0
HATCH
  5
B2
330
91
100
AcDbEntity
  8
0
 62
   240
420
 15539236
100
AcDbHatch
 10
0.0
 20
0.0
 30
0.0
210
0.0
220
0.0
230
1.0
  2
SOLID
 70
     1
 71
     0
 91
        1
 92
        1
 93
        1
 72
     4
 94
        3
 73
     0
 74
     1
 95
       56
 96
       52
 40
0.0
 40
0.0
 40
0.0
 40
0.0
 40
1.0
 40
1.0
 40
1.0
 40
2.0
 40
2.0
 40
2.0
 40
3.0
 40
3.0
 40
3.0
 40
4.0
 40
4.0
 40
4.0
 40
5.0
 40
5.0
 40
5.0
 40
6.0
 40
6.0
 40
6.0
 40
7.0
 40
7.0
 40
7.0
 40
8.0
 40
8.0
 40
8.0
 40
9.0
 40
9.0
 40
9.0
 40
10.0
 40
10.0
 40
10.0
 40
11.0
 40
11.0
 40
11.0
 40
12.0
 40
12.0
 40
12.0
 40
13.0
 40
13.0
 40
13.0
 40
14.0
 40
14.0
 40
14.0
 40
15.0
 40
15.0
 40
15.0
 40
16.0
 40
16.0
 40
16.0
 40
17.0
 40
17.0
 40
17.0
 40
17.0
 10
856.6059568170984
 20
614.035644377741
 10
856.6059568170984
 20
614.035644377741
 10
856.6059568170984
 20
612.3686521906578
 10
856.6059568170984
 20
612.3686521906578
 10
856.6059568170984
 20
612.3686521906578
 10
858.1171872854707
 20
612.3686521906578
 10
858.1171872854707
 20
612.3686521906578
 10
858.1171872854707
 20
612.3686521906578
 10
858.1171872854707
 20
611.5654295346086
 10
858.1171872854707
 20
611.5654295346086
 10
858.1171872854707
 20
611.5654295346086
 10
856.6059568170984
 20
611.5654295346086
 10
856.6059568170984
 20
611.5654295346086
 10
856.6059568170984
 20
611.5654295346086
 10
856.6059568170984
 20
608.4350584416412
 10
856.6059568170984
 20
608.4350584416412
 10
856.6059568170984
 20
607.7153318793212
 10
856.8095700982976
 20
607.307617035673
 10
857.3974607231506
 20
607.307617035673
 10
857.6733396293316
 20
607.307617035673
 10
857.8769529105307
 20
607.3437498481641
 10
858.0092771292476
 20
607.3793943794051
 10
858.0092771292476
 20
607.3793943794051
 10
858.0571286917357
 20
606.587890473353
 10
858.0571286917357
 20
606.587890473353
 10
857.8530271292867
 20
606.503906098374
 10
857.5292966606177
 20
606.443847504639
 10
857.1215818169696
 20
606.443847504639
 10
856.6298825983425
 20
606.443847504639
 10
856.2338865046916
 20
606.6000975046
 10
855.9819333797545
 20
606.8876951607781
 10
855.6821286923295
 20
607.1997068794501
 10
855.5742185361064
 20
607.7153318793212
 10
855.5742185361064
 20
608.3989256291503
 10
855.5742185361064
 20
608.3989256291503
 10
855.5742185361064
 20
611.5654295346086
 10
855.5742185361064
 20
611.5654295346086
 10
855.5742185361064
 20
611.5654295346086
 10
854.6748044738313
 20
611.5654295346086
 10
854.6748044738313
 20
611.5654295346086
 10
854.6748044738313
 20
611.5654295346086
 10
854.6748044738313
 20
612.3686521906578
 10
854.6748044738313
 20
612.3686521906578
 10
854.6748044738313
 20
612.3686521906578
 10
855.5742185361064
 20
612.3686521906578
 10
855.5742185361064
 20
612.3686521906578
 10
855.5742185361064
 20
612.3686521906578
 10
855.5742185361064
 20
613.76025375281
 10
855.5742185361064
 20
613.76025375281
 10
855.5742185361064
 20
613.76025375281
 10
856.6059568170984
 20
614.035644377741
 10
856.6059568170984
 20
614.035644377741
 97
        0
 97
        0
 75
     2
 76
     1
 98
        0
  0
SPLINE
  5
B3
330
91
100
AcDbEntity
  8
0
 62
   240
420
 15539236
370
    35
100
AcDbSpline
210
0.0
220
0.0
230
1.0
 70
    11
 71
     3
 72
    44
 73
    40
 74
     0
 42
0.0000000001
 43
0.0000000001
 12
1.0
 22
0.0
 32
0.0
 13
1.0
 23
0.0
 33
0.0
 40
0.0
 40
0.0
 40
0.0
 40
0.0
 40
1.0
 40
1.0
 40
1.0
 40
2.0
 40
2.0
 40
2.0
 40
3.0
 40
3.0
 40
3.0
 40
4.0
 40
4.0
 40
4.0
 40
5.0
 40
5.0
 40
5.0
 40
6.0
 40
6.0
 40
6.0
 40
7.0
 40
7.0
 40
7.0
 40
8.0
 40
8.0
 40
8.0
 40
9.0
 40
9.0
 40
9.0
 40
10.0
 40
10.0
 40
10.0
 40
11.0
 40
11.0
 40
11.0
 40
12.0
 40
12.0
 40
12.0
 40
13.0
 40
13.0
 40
13.0
 40
13.0
 10
859.3066404101734
 20
610.5576170348605
 30
0.0
 10
859.3066404101734
 20
611.2412107846897
 30
0.0
 10
859.2944333789263
 20
611.8291014095427
 30
0.0
 10
859.2587888476853
 20
612.3686521906578
 30
0.0
 10
859.2587888476853
 20
612.3686521906578
 30
0.0
 10
860.1821286912044
 20
612.3686521906578
 30
0.0
 10
860.1821286912044
 20
612.3686521906578
 30
0.0
 10
860.1821286912044
 20
612.3686521906578
 30
0.0
 10
860.2182615036954
 20
611.2294920346926
 30
0.0
 10
860.2182615036954
 20
611.2294920346926
 30
0.0
 10
860.2182615036954
 20
611.2294920346926
 30
0.0
 10
860.2661130661835
 20
611.2294920346926
 30
0.0
 10
860.2661130661835
 20
611.2294920346926
 30
0.0
 10
860.5297849411176
 20
612.0087889094978
 30
0.0
 10
861.1655271284586
 20
612.5004881281249
 30
0.0
 10
861.8730466595317
 20
612.5004881281249
 30
0.0
 10
861.9931638470017
 20
612.5004881281249
 30
0.0
 10
862.0771482219807
 20
612.4887693781278
 30
0.0
 10
862.1733396282067
 20
612.4648435968837
 30
0.0
 10
862.1733396282067
 20
612.4648435968837
 30
0.0
 10
862.1733396282067
 20
611.4692381283827
 30
0.0
 10
862.1733396282067
 20
611.4692381283827
 30
0.0
 10
862.0649411907337
 20
611.4931639096267
 30
0.0
 10
861.9570310345107
 20
611.5053709408736
 30
0.0
 10
861.8134763470466
 20
611.5053709408736
 30
0.0
 10
861.0698240034825
 20
611.5053709408736
 30
0.0
 10
860.5419919723645
 20
610.9414060972647
 30
0.0
 10
860.3979490036505
 20
610.1499021912125
 30
0.0
 10
860.3740232224064
 20
610.0058592224985
 30
0.0
 10
860.3500974411625
 20
609.8383787537904
 30
0.0
 10
860.3500974411625
 20
609.6582029725854
 30
0.0
 10
860.3500974411625
 20
609.6582029725854
 30
0.0
 10
860.3500974411625
 20
606.563964692109
 30
0.0
 10
860.3500974411625
 20
606.563964692109
 30
0.0
 10
860.3500974411625
 20
606.563964692109
 30
0.0
 10
859.3066404101734
 20
606.563964692109
 30
0.0
 10
859.3066404101734
 20
606.563964692109
 30
0.0
 10
859.3066404101734
 20
606.563964692109
 30
0.0
 10
859.3066404101734
 20
610.5576170348605
 30
0.0
 10
859.3066404101734
 20
610.5576170348605
 30
0.0
  0
HATCH
  5
B4
330
91
100
AcDbEntity
  8
0
 62
   240
420
 15539236
100
AcDbHatch
 10
0.0
 20
0.0
 30
0.0
210
0.0
220
0.0
230
1.0
  2
SOLID
 70
     1
 71
     0
 91
        1
 92
        1
 93
        1
 72
     4
 94
        3
 73
     0
 74
     1
 95
       44
 96
       40
 40
0.0
 40
0.0
 40
0.0
 40
0.0
 40
1.0
 40
1.0
 40
1.0
 40
2.0
 40
2.0
 40
2.0
 40
3.0
 40
3.0
 40
3.0
 40
4.0
 40
4.0
 40
4.0
 40
5.0
 40
5.0
 40
5.0
 40
6.0
 40
6.0
 40
6.0
 40
7.0
 40
7.0
 40
7.0
 40
8.0
 40
8.0
 40
8.0
 40
9.0
 40
9.0
 40
9.0
 40
10.0
 40
10.0
 40
10.0
 40
11.0
 40
11.0
 40
11.0
 40
12.0
 40
12.0
 40
12.0
 40
13.0
 40
13.0
 40
13.0
 40
13.0
 10
859.3066404101734
 20
610.5576170348605
 10
859.3066404101734
 20
611.2412107846897
 10
859.2944333789263
 20
611.8291014095427
 10
859.2587888476853
 20
612.3686521906578
 10
859.2587888476853
 20
612.3686521906578
 10
860.1821286912044
 20
612.3686521906578
 10
860.1821286912044
 20
612.3686521906578
 10
860.1821286912044
 20
612.3686521906578
 10
860.2182615036954
 20
611.2294920346926
 10
860.2182615036954
 20
611.2294920346926
 10
860.2182615036954
 20
611.2294920346926
 10
860.2661130661835
 20
611.2294920346926
 10
860.2661130661835
 20
611.2294920346926
 10
860.5297849411176
 20
612.0087889094978
 10
861.1655271284586
 20
612.5004881281249
 10
861.8730466595317
 20
612.5004881281249
 10
861.9931638470017
 20
612.5004881281249
 10
862.0771482219807
 20
612.4887693781278
 10
862.1733396282067
 20
612.4648435968837
 10
862.1733396282067
 20
612.4648435968837
 10
862.1733396282067
 20
611.4692381283827
 10
862.1733396282067
 20
611.4692381283827
 10
862.0649411907337
 20
611.4931639096267
 10
861.9570310345107
 20
611.5053709408736
 10
861.8134763470466
 20
611.5053709408736
 10
861.0698240034825
 20
611.5053709408736
 10
860.5419919723645
 20
610.9414060972647
 10
860.3979490036505
 20
610.1499021912125
 10
860.3740232224064
 20
610.0058592224985
 10
860.3500974411625
 20
609.8383787537904
 10
860.3500974411625
 20
609.6582029725854
 10
860.3500974411625
 20
609.6582029725854
 10
860.3500974411625
 20
606.563964692109
 10
860.3500974411625
 20
606.563964692109
 10
860.3500974411625
 20
606.563964692109
 10
859.3066404101734
 20
606.563964692109
 10
859.3066404101734
 20
606.563964692109
 10
859.3066404101734
 20
606.563964692109
 10
859.3066404101734
 20
610.5576170348605
 10
859.3066404101734
 20
610.5576170348605
 97
        0
 97
        0
 75
     2
 76
     1
 98
        0
  0
SPLINE
  5
B5
330
91
100
AcDbEntity
  8
0
 62
   240
420
 15539236
370
    35
100
AcDbSpline
210
0.0
220
0.0
230
1.0
 70
    11
 71
     3
 72
    47
 73
    43
 74
     0
 42
0.0000000001
 43
0.0000000001
 12
1.0
 22
0.0
 32
0.0
 13
1.0
 23
0.0
 33
0.0
 40
0.0
 40
0.0
 40
0.0
 40
0.0
 40
1.0
 40
1.0
 40
1.0
 40
2.0
 40
2.0
 40
2.0
 40
3.0
 40
3.0
 40
3.0
 40
4.0
 40
4.0
 40
4.0
 40
5.0
 40
5.0
 40
5.0
 40
6.0
 40
6.0
 40
6.0
 40
7.0
 40
7.0
 40
7.0
 40
8.0
 40
8.0
 40
8.0
 40
9.0
 40
9.0
 40
9.0
 40
10.0
 40
10.0
 40
10.0
 40
11.0
 40
11.0
 40
11.0
 40
12.0
 40
12.0
 40
12.0
 40
13.0
 40
13.0
 40
13.0
 40
14.0
 40
14.0
 40
14.0
 40
14.0
 10
866.3852536896537
 20
606.563964692109
 30
0.0
 10
866.3852536896537
 20
606.563964692109
 30
0.0
 10
866.3012693146746
 20
607.2954100044261
 30
0.0
 10
866.3012693146746
 20
607.2954100044261
 30
0.0
 10
866.3012693146746
 20
607.2954100044261
 30
0.0
 10
866.2651365021837
 20
607.2954100044261
 30
0.0
 10
866.2651365021837
 20
607.2954100044261
 30
0.0
 10
865.9414060335147
 20
606.83984359829
 30
0.0
 10
865.3178708774205
 20
606.432128754642
 30
0.0
 10
864.4902341588775
 20
606.432128754642
 30
0.0
 10
863.3149411904212
 20
606.432128754642
 30
0.0
 10
862.7153318155712
 20
607.2597654731851
 30
0.0
 10
862.7153318155712
 20
608.0991209417252
 30
0.0
 10
862.7153318155712
 20
609.5024412538744
 30
0.0
 10
863.9624021277593
 20
610.2700193786825
 30
0.0
 10
866.2050779084487
 20
610.2578123474356
 30
0.0
 10
866.2050779084487
 20
610.2578123474356
 30
0.0
 10
866.2050779084487
 20
610.3779295349055
 30
0.0
 10
866.2050779084487
 20
610.3779295349055
 30
0.0
 10
866.2050779084487
 20
610.8574217222856
 30
0.0
 10
866.0732419709817
 20
611.7211912533197
 30
0.0
 10
864.8862302525284
 20
611.7211912533197
 30
0.0
 10
864.3461911901634
 20
611.7211912533197
 30
0.0
 10
863.7827146278044
 20
611.5532225033617
 30
0.0
 10
863.3749997841562
 20
611.2895506284276
 30
0.0
 10
863.3749997841562
 20
611.2895506284276
 30
0.0
 10
863.1347654092162
 20
611.9848631282538
 30
0.0
 10
863.1347654092162
 20
611.9848631282538
 30
0.0
 10
863.6147458778463
 20
612.2968748469258
 30
0.0
 10
864.3100583776725
 20
612.5004881281249
 30
0.0
 10
865.0419919712394
 20
612.5004881281249
 30
0.0
 10
866.8168943145457
 20
612.5004881281249
 30
0.0
 10
867.2485349394378
 20
611.2895506284276
 30
0.0
 10
867.2485349394378
 20
610.1259764099685
 30
0.0
 10
867.2485349394378
 20
610.1259764099685
 30
0.0
 10
867.2485349394378
 20
607.9550779730113
 30
0.0
 10
867.2485349394378
 20
607.9550779730113
 30
0.0
 10
867.2485349394378
 20
607.4516600043871
 30
0.0
 10
867.2724607206819
 20
606.95996078576
 30
0.0
 10
867.3447263456638
 20
606.563964692109
 30
0.0
 10
867.3447263456638
 20
606.563964692109
 30
0.0
 10
866.3852536896537
 20
606.563964692109
 30
0.0
 10
866.3852536896537
 20
606.563964692109
 30
0.0
  0
SPLINE
  5
B6
330
91
100
AcDbEntity
  8
0
 62
   240
420
 15539236
370
    35
100
AcDbSpline
210
0.0
220
0.0
230
1.0
 70
    11
 71
     3
 72
    20
 73
    16
 74
     0
 42
0.0000000001
 43
0.0000000001
 12
1.0
 22
0.0
 32
0.0
 13
1.0
 23
0.0
 33
0.0
 40
0.0
 40
0.0
 40
0.0
 40
0.0
 40
1.0
 40
1.0
 40
1.0
 40
2.0
 40
2.0
 40
2.0
 40
3.0
 40
3.0
 40
3.0
 40
4.0
 40
4.0
 40
4.0
 40
5.0
 40
5.0
 40
5.0
 40
5.0
 10
866.2290036896927
 20
609.5263670351184
 30
0.0
 10
865.0776365024806
 20
609.5502928163625
 30
0.0
 10
863.7705075965573
 20
609.3461912539134
 30
0.0
 10
863.7705075965573
 20
608.2192381291952
 30
0.0
 10
863.7705075965573
 20
607.5356443793661
 30
0.0
 10
864.2265622839434
 20
607.2114256294471
 30
0.0
 10
864.7661130650584
 20
607.2114256294471
 30
0.0
 10
865.5214841586196
 20
607.2114256294471
 30
0.0
 10
866.0014646272496
 20
607.6914060980771
 30
0.0
 10
866.1694333772076
 20
608.1831053167042
 30
0.0
 10
866.2050779084487
 20
608.2910154729273
 30
0.0
 10
866.2290036896927
 20
608.4111326603972
 30
0.0
 10
866.2290036896927
 20
608.5190428166202
 30
0.0
 10
866.2290036896927
 20
608.5190428166202
 30
0.0
 10
866.2290036896927
 20
609.5263670351184
 30
0.0
 10
866.2290036896927
 20
609.5263670351184
 30
0.0
  0
HATCH
  5
B7
330
91
100
AcDbEntity
  8
0
 62
   240
420
 15539236
100
AcDbHatch
 10
0.0
 20
0.0
 30
0.0
210
0.0
220
0.0
230
1.0
  2
SOLID
 70
     1
 71
     0
 91
        2
 92
        1
 93
        1
 72
     4
 94
        3
 73
     0
 74
     1
 95
       47
 96
       43
 40
0.0
 40
0.0
 40
0.0
 40
0.0
 40
1.0
 40
1.0
 40
1.0
 40
2.0
 40
2.0
 40
2.0
 40
3.0
 40
3.0
 40
3.0
 40
4.0
 40
4.0
 40
4.0
 40
5.0
 40
5.0
 40
5.0
 40
6.0
 40
6.0
 40
6.0
 40
7.0
 40
7.0
 40
7.0
 40
8.0
 40
8.0
 40
8.0
 40
9.0
 40
9.0
 40
9.0
 40
10.0
 40
10.0
 40
10.0
 40
11.0
 40
11.0
 40
11.0
 40
12.0
 40
12.0
 40
12.0
 40
13.0
 40
13.0
 40
13.0
 40
14.0
 40
14.0
 40
14.0
 40
14.0
 10
866.3852536896537
 20
606.563964692109
 10
866.3852536896537
 20
606.563964692109
 10
866.3012693146746
 20
607.2954100044261
 10
866.3012693146746
 20
607.2954100044261
 10
866.3012693146746
 20
607.2954100044261
 10
866.2651365021837
 20
607.2954100044261
 10
866.2651365021837
 20
607.2954100044261
 10
865.9414060335147
 20
606.83984359829
 10
865.3178708774205
 20
606.432128754642
 10
864.4902341588775
 20
606.432128754642
 10
863.3149411904212
 20
606.432128754642
 10
862.7153318155712
 20
607.2597654731851
 10
862.7153318155712
 20
608.0991209417252
 10
862.7153318155712
 20
609.5024412538744
 10
863.9624021277593
 20
610.2700193786825
 10
866.2050779084487
 20
610.2578123474356
 10
866.2050779084487
 20
610.2578123474356
 10
866.2050779084487
 20
610.3779295349055
 10
866.2050779084487
 20
610.3779295349055
 10
866.2050779084487
 20
610.8574217222856
 10
866.0732419709817
 20
611.7211912533197
 10
864.8862302525284
 20
611.7211912533197
 10
864.3461911901634
 20
611.7211912533197
 10
863.7827146278044
 20
611.5532225033617
 10
863.3749997841562
 20
611.2895506284276
 10
863.3749997841562
 20
611.2895506284276
 10
863.1347654092162
 20
611.9848631282538
 10
863.1347654092162
 20
611.9848631282538
 10
863.6147458778463
 20
612.2968748469258
 10
864.3100583776725
 20
612.5004881281249
 10
865.0419919712394
 20
612.5004881281249
 10
866.8168943145457
 20
612.5004881281249
 10
867.2485349394378
 20
611.2895506284276
 10
867.2485349394378
 20
610.1259764099685
 10
867.2485349394378
 20
610.1259764099685
 10
867.2485349394378
 20
607.9550779730113
 10
867.2485349394378
 20
607.9550779730113
 10
867.2485349394378
 20
607.4516600043871
 10
867.2724607206819
 20
606.95996078576
 10
867.3447263456638
 20
606.563964692109
 10
867.3447263456638
 20
606.563964692109
 10
866.3852536896537
 20
606.563964692109
 10
866.3852536896537
 20
606.563964692109
 97
        0
 97
        0
 92
        1
 93
        1
 72
     4
 94
        3
 73
     0
 74
     1
 95
       20
 96
       16
 40
0.0
 40
0.0
 40
0.0
 40
0.0
 40
1.0
 40
1.0
 40
1.0
 40
2.0
 40
2.0
 40
2.0
 40
3.0
 40
3.0
 40
3.0
 40
4.0
 40
4.0
 40
4.0
 40
5.0
 40
5.0
 40
5.0
 40
5.0
 10
866.2290036896927
 20
609.5263670351184
 10
865.0776365024806
 20
609.5502928163625
 10
863.7705075965573
 20
609.3461912539134
 10
863.7705075965573
 20
608.2192381291952
 10
863.7705075965573
 20
607.5356443793661
 10
864.2265622839434
 20
607.2114256294471
 10
864.7661130650584
 20
607.2114256294471
 10
865.5214841586196
 20
607.2114256294471
 10
866.0014646272496
 20
607.6914060980771
 10
866.1694333772076
 20
608.1831053167042
 10
866.2050779084487
 20
608.2910154729273
 10
866.2290036896927
 20
608.4111326603972
 10
866.2290036896927
 20
608.5190428166202
 10
866.2290036896927
 20
608.5190428166202
 10
866.2290036896927
 20
609.5263670351184
 10
866.2290036896927
 20
609.5263670351184
 97
        0
 97
        0
 75
     2
 76
     1
 98
        0
  0
SPLINE
  5
B8
330
91
100
AcDbEntity
  8
0
 62
   240
420
 15539236
370
    35
100
AcDbSpline
210
0.0
220
0.0
230
1.0
 70
    11
 71
     3
 72
    17
 73
    13
 74
     0
 42
0.0000000001
 43
0.0000000001
 12
1.0
 22
0.0
 32
0.0
 13
1.0
 23
0.0
 33
0.0
 40
0.0
 40
0.0
 40
0.0
 40
0.0
 40
1.0
 40
1.0
 40
1.0
 40
2.0
 40
2.0
 40
2.0
 40
3.0
 40
3.0
 40
3.0
 40
4.0
 40
4.0
 40
4.0
 40
4.0
 10
870.1298825949675
 20
613.9999998465
 30
0.0
 10
870.1420896262144
 20
613.64013656534
 30
0.0
 10
869.8779294700305
 20
613.3520506279119
 30
0.0
 10
869.4584958763853
 20
613.3520506279119
 30
0.0
 10
869.0864255639784
 20
613.3520506279119
 30
0.0
 10
868.8227536890442
 20
613.64013656534
 30
0.0
 10
868.8227536890442
 20
613.9999998465
 30
0.0
 10
868.8227536890442
 20
614.371581877657
 30
0.0
 10
869.0986325952254
 20
614.6596678150851
 30
0.0
 10
869.4824216576294
 20
614.6596678150851
 30
0.0
 10
869.8779294700305
 20
614.6596678150851
 30
0.0
 10
870.1298825949675
 20
614.371581877657
 30
0.0
 10
870.1298825949675
 20
613.9999998465
 30
0.0
  0
POLYLINE
  5
B9
330
91
100
AcDbEntity
  8
0
 62
   240
420
 15539236
370
    35
100
AcDb2dPolyline
 66
     1
 10
0.0
 20
0.0
 30
0.0
  0
VERTEX
  5
BA
330
B9
100
AcDbEntity
  8
0
 62
   240
420
 15539236
370
    35
100
AcDbVertex
100
AcDb2dVertex
 10
868.9545896265113
 20
606.563964692109
 30
0.0
  0
VERTEX
  5
BB
330
B9
100
AcDbEntity
  8
0
 62
   240
420
 15539236
370
    35
100
AcDbVertex
100
AcDb2dVertex
 10
868.9545896265113
 20
612.3686521906578
 30
0.0
  0
VERTEX
  5
BC
330
B9
100
AcDbEntity
  8
0
 62
   240
420
 15539236
370
    35
100
AcDbVertex
100
AcDb2dVertex
 10
870.0102536887474
 20
612.3686521906578
 30
0.0
  0
VERTEX
  5
BD
330
B9
100
AcDbEntity
  8
0
 62
   240
420
 15539236
370
    35
100
AcDbVertex
100
AcDb2dVertex
 10
870.0102536887474
 20
606.563964692109
 30
0.0
  0
VERTEX
  5
BE
330
B9
100
AcDbEntity
  8
0
 62
   240
420
 15539236
370
    35
100
AcDbVertex
100
AcDb2dVertex
 10
868.9545896265113
 20
606.563964692109
 30
0.0
  0
SEQEND
  5
BF
330
B9
100
AcDbEntity
  8
0
 62
   240
420
 15539236
370
    35
  0
HATCH
  5
C0
330
91
100
AcDbEntity
  8
0
 62
   240
420
 15539236
100
AcDbHatch
 10
0.0
 20
0.0
 30
0.0
210
0.0
220
0.0
230
1.0
  2
SOLID
 70
     1
 71
     0
 91
        2
 92
        1
 93
        1
 72
     4
 94
        3
 73
     0
 74
     1
 95
       17
 96
       13
 40
0.0
 40
0.0
 40
0.0
 40
0.0
 40
1.0
 40
1.0
 40
1.0
 40
2.0
 40
2.0
 40
2.0
 40
3.0
 40
3.0
 40
3.0
 40
4.0
 40
4.0
 40
4.0
 40
4.0
 10
870.1298825949675
 20
613.9999998465
 10
870.1420896262144
 20
613.64013656534
 10
869.8779294700305
 20
613.3520506279119
 10
869.4584958763853
 20
613.3520506279119
 10
869.0864255639784
 20
613.3520506279119
 10
868.8227536890442
 20
613.64013656534
 10
868.8227536890442
 20
613.9999998465
 10
868.8227536890442
 20
614.371581877657
 10
869.0986325952254
 20
614.6596678150851
 10
869.4824216576294
 20
614.6596678150851
 10
869.8779294700305
 20
614.6596678150851
 10
870.1298825949675
 20
614.371581877657
 10
870.1298825949675
 20
613.9999998465
 97
        0
 97
        0
 92
        1
 93
        4
 72
     1
 10
868.9545896265113
 20
606.563964692109
 11
868.9545896265113
 21
612.3686521906578
 72
     1
 10
868.9545896265113
 20
612.3686521906578
 11
870.0102536887474
 21
612.3686521906578
 72
     1
 10
870.0102536887474
 20
612.3686521906578
 11
870.0102536887474
 21
606.563964692109
 72
     1
 10
870.0102536887474
 20
606.563964692109
 11
868.9545896265113
 21
606.563964692109
 97
        0
 75
     2
 76
     1
 98
        0
  0
SPLINE
  5
C1
330
91
100
AcDbEntity
  8
0
 62
   240
420
 15539236
370
    35
100
AcDbSpline
210
0.0
220
0.0
230
1.0
 70
    11
 71
     3
 72
    56
 73
    52
 74
     0
 42
0.0000000001
 43
0.0000000001
 12
1.0
 22
0.0
 32
0.0
 13
1.0
 23
0.0
 33
0.0
 40
0.0
 40
0.0
 40
0.0
 40
0.0
 40
1.0
 40
1.0
 40
1.0
 40
2.0
 40
2.0
 40
2.0
 40
3.0
 40
3.0
 40
3.0
 40
4.0
 40
4.0
 40
4.0
 40
5.0
 40
5.0
 40
5.0
 40
6.0
 40
6.0
 40
6.0
 40
7.0
 40
7.0
 40
7.0
 40
8.0
 40
8.0
 40
8.0
 40
9.0
 40
9.0
 40
9.0
 40
10.0
 40
10.0
 40
10.0
 40
11.0
 40
11.0
 40
11.0
 40
12.0
 40
12.0
 40
12.0
 40
13.0
 40
13.0
 40
13.0
 40
14.0
 40
14.0
 40
14.0
 40
15.0
 40
15.0
 40
15.0
 40
16.0
 40
16.0
 40
16.0
 40
17.0
 40
17.0
 40
17.0
 40
17.0
 10
876.7641599370589
 20
612.3686521906578
 30
0.0
 10
876.7397458745651
 20
611.9492185970126
 30
0.0
 10
876.715820093321
 20
611.4814451596296
 30
0.0
 10
876.715820093321
 20
610.7734373473066
 30
0.0
 10
876.715820093321
 20
610.7734373473066
 30
0.0
 10
876.715820093321
 20
607.4033201606492
 30
0.0
 10
876.715820093321
 20
607.4033201606492
 30
0.0
 10
876.715820093321
 20
606.0722654734819
 30
0.0
 10
876.4521482183869
 20
605.2568357861858
 30
0.0
 10
875.8886716560278
 20
604.7529295363117
 30
0.0
 10
875.3247068124188
 20
604.2250975051937
 30
0.0
 10
874.5092771251227
 20
604.0571287552357
 30
0.0
 10
873.7778318128055
 20
604.0571287552357
 30
0.0
 10
873.0820310317295
 20
604.0571287552357
 30
0.0
 10
872.3144529069214
 20
604.2250975051937
 30
0.0
 10
871.8466794695383
 20
604.5371092238657
 30
0.0
 10
871.8466794695383
 20
604.5371092238657
 30
0.0
 10
872.1103513444724
 20
605.3408201611647
 30
0.0
 10
872.1103513444724
 20
605.3408201611647
 30
0.0
 10
872.4941404068765
 20
605.1005857862249
 30
0.0
 10
873.0942380629764
 20
604.8847654737788
 30
0.0
 10
873.8134763440466
 20
604.8847654737788
 30
0.0
 10
874.8930661875268
 20
604.8847654737788
 30
0.0
 10
875.6845700935788
 20
605.4487303173878
 30
0.0
 10
875.6845700935788
 20
606.9116209420221
 30
0.0
 10
875.6845700935788
 20
606.9116209420221
 30
0.0
 10
875.6845700935788
 20
607.5595701606101
 30
0.0
 10
875.6845700935788
 20
607.5595701606101
 30
0.0
 10
875.6845700935788
 20
607.5595701606101
 30
0.0
 10
875.6606443123349
 20
607.5595701606101
 30
0.0
 10
875.6606443123349
 20
607.5595701606101
 30
0.0
 10
875.3369138436658
 20
607.0195310982451
 30
0.0
 10
874.7128904063218
 20
606.587890473353
 30
0.0
 10
873.8134763440466
 20
606.587890473353
 30
0.0
 10
872.3745115006564
 20
606.587890473353
 30
0.0
 10
871.3427732196643
 20
607.8110350042972
 30
0.0
 10
871.3427732196643
 20
609.4184568788954
 30
0.0
 10
871.3427732196643
 20
611.3852537534036
 30
0.0
 10
872.6264646255934
 20
612.5004881281249
 30
0.0
 10
873.9575193127606
 20
612.5004881281249
 30
0.0
 10
874.9648435312588
 20
612.5004881281249
 30
0.0
 10
875.5166013436208
 20
611.9731443782567
 30
0.0
 10
875.7685544685578
 20
611.4931639096267
 30
0.0
 10
875.7685544685578
 20
611.4931639096267
 30
0.0
 10
875.7924802498019
 20
611.4931639096267
 30
0.0
 10
875.7924802498019
 20
611.4931639096267
 30
0.0
 10
875.7924802498019
 20
611.4931639096267
 30
0.0
 10
875.84033181229
 20
612.3686521906578
 30
0.0
 10
875.84033181229
 20
612.3686521906578
 30
0.0
 10
875.84033181229
 20
612.3686521906578
 30
0.0
 10
876.7641599370589
 20
612.3686521906578
 30
0.0
 10
876.7641599370589
 20
612.3686521906578
 30
0.0
  0
SPLINE
  5
C2
330
91
100
AcDbEntity
  8
0
 62
   240
420
 15539236
370
    35
100
AcDbSpline
210
0.0
220
0.0
230
1.0
 70
    11
 71
     3
 72
    26
 73
    22
 74
     0
 42
0.0000000001
 43
0.0000000001
 12
1.0
 22
0.0
 32
0.0
 13
1.0
 23
0.0
 33
0.0
 40
0.0
 40
0.0
 40
0.0
 40
0.0
 40
1.0
 40
1.0
 40
1.0
 40
2.0
 40
2.0
 40
2.0
 40
3.0
 40
3.0
 40
3.0
 40
4.0
 40
4.0
 40
4.0
 40
5.0
 40
5.0
 40
5.0
 40
6.0
 40
6.0
 40
6.0
 40
7.0
 40
7.0
 40
7.0
 40
7.0
 10
875.6723630623319
 20
610.0781248474805
 30
0.0
 10
875.6723630623319
 20
610.2578123474356
 30
0.0
 10
875.6606443123349
 20
610.4140623473965
 30
0.0
 10
875.6127927498468
 20
610.5576170348605
 30
0.0
 10
875.4208982186448
 20
611.1694334409576
 30
0.0
 10
874.9047849375238
 20
611.6733396908317
 30
0.0
 10
874.1372068127157
 20
611.6733396908317
 30
0.0
 10
873.1298825942175
 20
611.6733396908317
 30
0.0
 10
872.4101560318975
 20
610.8217771910446
 30
0.0
 10
872.4101560318975
 20
609.4785154726303
 30
0.0
 10
872.4101560318975
 20
608.3388670354153
 30
0.0
 10
872.9858396255036
 20
607.3916014106521
 30
0.0
 10
874.1254880627187
 20
607.3916014106521
 30
0.0
 10
874.7729490000568
 20
607.3916014106521
 30
0.0
 10
875.3608396249098
 20
607.7993162543002
 30
0.0
 10
875.5883786873529
 20
608.4707029728823
 30
0.0
 10
875.6484372810879
 20
608.6508787540872
 30
0.0
 10
875.6723630623319
 20
608.8544920352864
 30
0.0
 10
875.6723630623319
 20
609.0346678164913
 30
0.0
 10
875.6723630623319
 20
609.0346678164913
 30
0.0
 10
875.6723630623319
 20
610.0781248474805
 30
0.0
 10
875.6723630623319
 20
610.0781248474805
 30
0.0
  0
HATCH
  5
C3
330
91
100
AcDbEntity
  8
0
 62
   240
420
 15539236
100
AcDbHatch
 10
0.0
 20
0.0
 30
0.0
210
0.0
220
0.0
230
1.0
  2
SOLID
 70
     1
 71
     0
 91
        2
 92
        1
 93
        1
 72
     4
 94
        3
 73
     0
 74
     1
 95
       56
 96
       52
 40
0.0
 40
0.0
 40
0.0
 40
0.0
 40
1.0
 40
1.0
 40
1.0
 40
2.0
 40
2.0
 40
2.0
 40
3.0
 40
3.0
 40
3.0
 40
4.0
 40
4.0
 40
4.0
 40
5.0
 40
5.0
 40
5.0
 40
6.0
 40
6.0
 40
6.0
 40
7.0
 40
7.0
 40
7.0
 40
8.0
 40
8.0
 40
8.0
 40
9.0
 40
9.0
 40
9.0
 40
10.0
 40
10.0
 40
10.0
 40
11.0
 40
11.0
 40
11.0
 40
12.0
 40
12.0
 40
12.0
 40
13.0
 40
13.0
 40
13.0
 40
14.0
 40
14.0
 40
14.0
 40
15.0
 40
15.0
 40
15.0
 40
16.0
 40
16.0
 40
16.0
 40
17.0
 40
17.0
 40
17.0
 40
17.0
 10
876.7641599370589
 20
612.3686521906578
 10
876.7397458745651
 20
611.9492185970126
 10
876.715820093321
 20
611.4814451596296
 10
876.715820093321
 20
610.7734373473066
 10
876.715820093321
 20
610.7734373473066
 10
876.715820093321
 20
607.4033201606492
 10
876.715820093321
 20
607.4033201606492
 10
876.715820093321
 20
606.0722654734819
 10
876.4521482183869
 20
605.2568357861858
 10
875.8886716560278
 20
604.7529295363117
 10
875.3247068124188
 20
604.2250975051937
 10
874.5092771251227
 20
604.0571287552357
 10
873.7778318128055
 20
604.0571287552357
 10
873.0820310317295
 20
604.0571287552357
 10
872.3144529069214
 20
604.2250975051937
 10
871.8466794695383
 20
604.5371092238657
 10
871.8466794695383
 20
604.5371092238657
 10
872.1103513444724
 20
605.3408201611647
 10
872.1103513444724
 20
605.3408201611647
 10
872.4941404068765
 20
605.1005857862249
 10
873.0942380629764
 20
604.8847654737788
 10
873.8134763440466
 20
604.8847654737788
 10
874.8930661875268
 20
604.8847654737788
 10
875.6845700935788
 20
605.4487303173878
 10
875.6845700935788
 20
606.9116209420221
 10
875.6845700935788
 20
606.9116209420221
 10
875.6845700935788
 20
607.5595701606101
 10
875.6845700935788
 20
607.5595701606101
 10
875.6845700935788
 20
607.5595701606101
 10
875.6606443123349
 20
607.5595701606101
 10
875.6606443123349
 20
607.5595701606101
 10
875.3369138436658
 20
607.0195310982451
 10
874.7128904063218
 20
606.587890473353
 10
873.8134763440466
 20
606.587890473353
 10
872.3745115006564
 20
606.587890473353
 10
871.3427732196643
 20
607.8110350042972
 10
871.3427732196643
 20
609.4184568788954
 10
871.3427732196643
 20
611.3852537534036
 10
872.6264646255934
 20
612.5004881281249
 10
873.9575193127606
 20
612.5004881281249
 10
874.9648435312588
 20
612.5004881281249
 10
875.5166013436208
 20
611.9731443782567
 10
875.7685544685578
 20
611.4931639096267
 10
875.7685544685578
 20
611.4931639096267
 10
875.7924802498019
 20
611.4931639096267
 10
875.7924802498019
 20
611.4931639096267
 10
875.7924802498019
 20
611.4931639096267
 10
875.84033181229
 20
612.3686521906578
 10
875.84033181229
 20
612.3686521906578
 10
875.84033181229
 20
612.3686521906578
 10
876.7641599370589
 20
612.3686521906578
 10
876.7641599370589
 20
612.3686521906578
 97
        0
 97
        0
 92
        1
 93
        1
 72
     4
 94
        3
 73
     0
 74
     1
 95
       26
 96
       22
 40
0.0
 40
0.0
 40
0.0
 40
0.0
 40
1.0
 40
1.0
 40
1.0
 40
2.0
 40
2.0
 40
2.0
 40
3.0
 40
3.0
 40
3.0
 40
4.0
 40
4.0
 40
4.0
 40
5.0
 40
5.0
 40
5.0
 40
6.0
 40
6.0
 40
6.0
 40
7.0
 40
7.0
 40
7.0
 40
7.0
 10
875.6723630623319
 20
610.0781248474805
 10
875.6723630623319
 20
610.2578123474356
 10
875.6606443123349
 20
610.4140623473965
 10
875.6127927498468
 20
610.5576170348605
 10
875.4208982186448
 20
611.1694334409576
 10
874.9047849375238
 20
611.6733396908317
 10
874.1372068127157
 20
611.6733396908317
 10
873.1298825942175
 20
611.6733396908317
 10
872.4101560318975
 20
610.8217771910446
 10
872.4101560318975
 20
609.4785154726303
 10
872.4101560318975
 20
608.3388670354153
 10
872.9858396255036
 20
607.3916014106521
 10
874.1254880627187
 20
607.3916014106521
 10
874.7729490000568
 20
607.3916014106521
 10
875.3608396249098
 20
607.7993162543002
 10
875.5883786873529
 20
608.4707029728823
 10
875.6484372810879
 20
608.6508787540872
 10
875.6723630623319
 20
608.8544920352864
 10
875.6723630623319
 20
609.0346678164913
 10
875.6723630623319
 20
609.0346678164913
 10
875.6723630623319
 20
610.0781248474805
 10
875.6723630623319
 20
610.0781248474805
 97
        0
 97
        0
 75
     2
 76
     1
 98
        0
  0
SPLINE
  5
C4
330
91
100
AcDbEntity
  8
0
 62
   240
420
 15539236
370
    35
100
AcDbSpline
210
0.0
220
0.0
230
1.0
 70
    11
 71
     3
 72
    50
 73
    46
 74
     0
 42
0.0000000001
 43
0.0000000001
 12
1.0
 22
0.0
 32
0.0
 13
1.0
 23
0.0
 33
0.0
 40
0.0
 40
0.0
 40
0.0
 40
0.0
 40
1.0
 40
1.0
 40
1.0
 40
2.0
 40
2.0
 40
2.0
 40
3.0
 40
3.0
 40
3.0
 40
4.0
 40
4.0
 40
4.0
 40
5.0
 40
5.0
 40
5.0
 40
6.0
 40
6.0
 40
6.0
 40
7.0
 40
7.0
 40
7.0
 40
8.0
 40
8.0
 40
8.0
 40
9.0
 40
9.0
 40
9.0
 40
10.0
 40
10.0
 40
10.0
 40
11.0
 40
11.0
 40
11.0
 40
12.0
 40
12.0
 40
12.0
 40
13.0
 40
13.0
 40
13.0
 40
14.0
 40
14.0
 40
14.0
 40
15.0
 40
15.0
 40
15.0
 40
15.0
 10
878.4702146241324
 20
615.0791014087303
 30
0.0
 10
878.4702146241324
 20
615.0791014087303
 30
0.0
 10
879.5258786863685
 20
615.0791014087303
 30
0.0
 10
879.5258786863685
 20
615.0791014087303
 30
0.0
 10
879.5258786863685
 20
615.0791014087303
 30
0.0
 10
879.5258786863685
 20
611.4575193783857
 30
0.0
 10
879.5258786863685
 20
611.4575193783857
 30
0.0
 10
879.5258786863685
 20
611.4575193783857
 30
0.0
 10
879.5498044676125
 20
611.4575193783857
 30
0.0
 10
879.5498044676125
 20
611.4575193783857
 30
0.0
 10
879.7177732175705
 20
611.7573240658106
 30
0.0
 10
879.9814450925046
 20
612.0209959407447
 30
0.0
 10
880.3051755611737
 20
612.2006834406998
 30
0.0
 10
880.6171872798457
 20
612.3808592219048
 30
0.0
 10
880.9887693110028
 20
612.5004881281249
 30
0.0
 10
881.3847654046538
 20
612.5004881281249
 30
0.0
 10
882.164062279459
 20
612.5004881281249
 30
0.0
 10
883.4116208728971
 20
612.0209959407447
 30
0.0
 10
883.4116208728971
 20
610.0180662537455
 30
0.0
 10
883.4116208728971
 20
610.0180662537455
 30
0.0
 10
883.4116208728971
 20
606.563964692109
 30
0.0
 10
883.4116208728971
 20
606.563964692109
 30
0.0
 10
883.4116208728971
 20
606.563964692109
 30
0.0
 10
882.355956810661
 20
606.563964692109
 30
0.0
 10
882.355956810661
 20
606.563964692109
 30
0.0
 10
882.355956810661
 20
606.563964692109
 30
0.0
 10
882.355956810661
 20
609.8979490662755
 30
0.0
 10
882.355956810661
 20
609.8979490662755
 30
0.0
 10
882.355956810661
 20
610.8334959410416
 30
0.0
 10
882.0083005607479
 20
611.6249998470937
 30
0.0
 10
881.0126950922468
 20
611.6249998470937
 30
0.0
 10
880.3291013424177
 20
611.6249998470937
 30
0.0
 10
879.7895505613026
 20
611.1455076597136
 30
0.0
 10
879.5976560301006
 20
610.5698240661076
 30
0.0
 10
879.5375974363656
 20
610.4257810973935
 30
0.0
 10
879.5258786863685
 20
610.2700193786825
 30
0.0
 10
879.5258786863685
 20
610.0659178162335
 30
0.0
 10
879.5258786863685
 20
610.0659178162335
 30
0.0
 10
879.5258786863685
 20
606.563964692109
 30
0.0
 10
879.5258786863685
 20
606.563964692109
 30
0.0
 10
879.5258786863685
 20
606.563964692109
 30
0.0
 10
878.4702146241324
 20
606.563964692109
 30
0.0
 10
878.4702146241324
 20
606.563964692109
 30
0.0
 10
878.4702146241324
 20
606.563964692109
 30
0.0
 10
878.4702146241324
 20
615.0791014087303
 30
0.0
 10
878.4702146241324
 20
615.0791014087303
 30
0.0
  0
HATCH
  5
C5
330
91
100
AcDbEntity
  8
0
 62
   240
420
 15539236
100
AcDbHatch
 10
0.0
 20
0.0
 30
0.0
210
0.0
220
0.0
230
1.0
  2
SOLID
 70
     1
 71
     0
 91
        1
 92
        1
 93
        1
 72
     4
 94
        3
 73
     0
 74
     1
 95
       50
 96
       46
 40
0.0
 40
0.0
 40
0.0
 40
0.0
 40
1.0
 40
1.0
 40
1.0
 40
2.0
 40
2.0
 40
2.0
 40
3.0
 40
3.0
 40
3.0
 40
4.0
 40
4.0
 40
4.0
 40
5.0
 40
5.0
 40
5.0
 40
6.0
 40
6.0
 40
6.0
 40
7.0
 40
7.0
 40
7.0
 40
8.0
 40
8.0
 40
8.0
 40
9.0
 40
9.0
 40
9.0
 40
10.0
 40
10.0
 40
10.0
 40
11.0
 40
11.0
 40
11.0
 40
12.0
 40
12.0
 40
12.0
 40
13.0
 40
13.0
 40
13.0
 40
14.0
 40
14.0
 40
14.0
 40
15.0
 40
15.0
 40
15.0
 40
15.0
 10
878.4702146241324
 20
615.0791014087303
 10
878.4702146241324
 20
615.0791014087303
 10
879.5258786863685
 20
615.0791014087303
 10
879.5258786863685
 20
615.0791014087303
 10
879.5258786863685
 20
615.0791014087303
 10
879.5258786863685
 20
611.4575193783857
 10
879.5258786863685
 20
611.4575193783857
 10
879.5258786863685
 20
611.4575193783857
 10
879.5498044676125
 20
611.4575193783857
 10
879.5498044676125
 20
611.4575193783857
 10
879.7177732175705
 20
611.7573240658106
 10
879.9814450925046
 20
612.0209959407447
 10
880.3051755611737
 20
612.2006834406998
 10
880.6171872798457
 20
612.3808592219048
 10
880.9887693110028
 20
612.5004881281249
 10
881.3847654046538
 20
612.5004881281249
 10
882.164062279459
 20
612.5004881281249
 10
883.4116208728971
 20
612.0209959407447
 10
883.4116208728971
 20
610.0180662537455
 10
883.4116208728971
 20
610.0180662537455
 10
883.4116208728971
 20
606.563964692109
 10
883.4116208728971
 20
606.563964692109
 10
883.4116208728971
 20
606.563964692109
 10
882.355956810661
 20
606.563964692109
 10
882.355956810661
 20
606.563964692109
 10
882.355956810661
 20
606.563964692109
 10
882.355956810661
 20
609.8979490662755
 10
882.355956810661
 20
609.8979490662755
 10
882.355956810661
 20
610.8334959410416
 10
882.0083005607479
 20
611.6249998470937
 10
881.0126950922468
 20
611.6249998470937
 10
880.3291013424177
 20
611.6249998470937
 10
879.7895505613026
 20
611.1455076597136
 10
879.5976560301006
 20
610.5698240661076
 10
879.5375974363656
 20
610.4257810973935
 10
879.5258786863685
 20
610.2700193786825
 10
879.5258786863685
 20
610.0659178162335
 10
879.5258786863685
 20
610.0659178162335
 10
879.5258786863685
 20
606.563964692109
 10
879.5258786863685
 20
606.563964692109
 10
879.5258786863685
 20
606.563964692109
 10
878.4702146241324
 20
606.563964692109
 10
878.4702146241324
 20
606.563964692109
 10
878.4702146241324
 20
606.563964692109
 10
878.4702146241324
 20
615.0791014087303
 10
878.4702146241324
 20
615.0791014087303
 97
        0
 97
        0
 75
     2
 76
     1
 98
        0
  0
SPLINE
  5
C6
330
91
100
AcDbEntity
  8
0
 62
   240
420
 15539236
370
    35
100
AcDbSpline
210
0.0
220
0.0
230
1.0
 70
    11
 71
     3
 72
    56
 73
    52
 74
     0
 42
0.0000000001
 43
0.0000000001
 12
1.0
 22
0.0
 32
0.0
 13
1.0
 23
0.0
 33
0.0
 40
0.0
 40
0.0
 40
0.0
 40
0.0
 40
1.0
 40
1.0
 40
1.0
 40
2.0
 40
2.0
 40
2.0
 40
3.0
 40
3.0
 40
3.0
 40
4.0
 40
4.0
 40
4.0
 40
5.0
 40
5.0
 40
5.0
 40
6.0
 40
6.0
 40
6.0
 40
7.0
 40
7.0
 40
7.0
 40
8.0
 40
8.0
 40
8.0
 40
9.0
 40
9.0
 40
9.0
 40
10.0
 40
10.0
 40
10.0
 40
11.0
 40
11.0
 40
11.0
 40
12.0
 40
12.0
 40
12.0
 40
13.0
 40
13.0
 40
13.0
 40
14.0
 40
14.0
 40
14.0
 40
15.0
 40
15.0
 40
15.0
 40
16.0
 40
16.0
 40
16.0
 40
17.0
 40
17.0
 40
17.0
 40
17.0
 10
886.3540036846615
 20
614.035644377741
 30
0.0
 10
886.3540036846615
 20
614.035644377741
 30
0.0
 10
886.3540036846615
 20
612.3686521906578
 30
0.0
 10
886.3540036846615
 20
612.3686521906578
 30
0.0
 10
886.3540036846615
 20
612.3686521906578
 30
0.0
 10
887.8652341530337
 20
612.3686521906578
 30
0.0
 10
887.8652341530337
 20
612.3686521906578
 30
0.0
 10
887.8652341530337
 20
612.3686521906578
 30
0.0
 10
887.8652341530337
 20
611.5654295346086
 30
0.0
 10
887.8652341530337
 20
611.5654295346086
 30
0.0
 10
887.8652341530337
 20
611.5654295346086
 30
0.0
 10
886.3540036846615
 20
611.5654295346086
 30
0.0
 10
886.3540036846615
 20
611.5654295346086
 30
0.0
 10
886.3540036846615
 20
611.5654295346086
 30
0.0
 10
886.3540036846615
 20
608.4350584416412
 30
0.0
 10
886.3540036846615
 20
608.4350584416412
 30
0.0
 10
886.3540036846615
 20
607.7153318793212
 30
0.0
 10
886.5576169658606
 20
607.307617035673
 30
0.0
 10
887.1455075907136
 20
607.307617035673
 30
0.0
 10
887.4213864968947
 20
607.307617035673
 30
0.0
 10
887.6249997780938
 20
607.3437498481641
 30
0.0
 10
887.7573239968107
 20
607.3793943794051
 30
0.0
 10
887.7573239968107
 20
607.3793943794051
 30
0.0
 10
887.8051755592987
 20
606.587890473353
 30
0.0
 10
887.8051755592987
 20
606.587890473353
 30
0.0
 10
887.6010739968497
 20
606.503906098374
 30
0.0
 10
887.2773435281806
 20
606.443847504639
 30
0.0
 10
886.8696286845326
 20
606.443847504639
 30
0.0
 10
886.3779294659055
 20
606.443847504639
 30
0.0
 10
885.9819333722545
 20
606.6000975046
 30
0.0
 10
885.7299802473175
 20
606.8876951607781
 30
0.0
 10
885.4301755598924
 20
607.1997068794501
 30
0.0
 10
885.3222654036695
 20
607.7153318793212
 30
0.0
 10
885.3222654036695
 20
608.3989256291503
 30
0.0
 10
885.3222654036695
 20
608.3989256291503
 30
0.0
 10
885.3222654036695
 20
611.5654295346086
 30
0.0
 10
885.3222654036695
 20
611.5654295346086
 30
0.0
 10
885.3222654036695
 20
611.5654295346086
 30
0.0
 10
884.4228513413942
 20
611.5654295346086
 30
0.0
 10
884.4228513413942
 20
611.5654295346086
 30
0.0
 10
884.4228513413942
 20
611.5654295346086
 30
0.0
 10
884.4228513413942
 20
612.3686521906578
 30
0.0
 10
884.4228513413942
 20
612.3686521906578
 30
0.0
 10
884.4228513413942
 20
612.3686521906578
 30
0.0
 10
885.3222654036695
 20
612.3686521906578
 30
0.0
 10
885.3222654036695
 20
612.3686521906578
 30
0.0
 10
885.3222654036695
 20
612.3686521906578
 30
0.0
 10
885.3222654036695
 20
613.76025375281
 30
0.0
 10
885.3222654036695
 20
613.76025375281
 30
0.0
 10
885.3222654036695
 20
613.76025375281
 30
0.0
 10
886.3540036846615
 20
614.035644377741
 30
0.0
 10
886.3540036846615
 20
614.035644377741
 30
0.0
  0
HATCH
  5
C7
330
91
100
AcDbEntity
  8
0
 62
   240
420
 15539236
100
AcDbHatch
 10
0.0
 20
0.0
 30
0.0
210
0.0
220
0.0
230
1.0
  2
SOLID
 70
     1
 71
     0
 91
        1
 92
        1
 93
        1
 72
     4
 94
        3
 73
     0
 74
     1
 95
       56
 96
       52
 40
0.0
 40
0.0
 40
0.0
 40
0.0
 40
1.0
 40
1.0
 40
1.0
 40
2.0
 40
2.0
 40
2.0
 40
3.0
 40
3.0
 40
3.0
 40
4.0
 40
4.0
 40
4.0
 40
5.0
 40
5.0
 40
5.0
 40
6.0
 40
6.0
 40
6.0
 40
7.0
 40
7.0
 40
7.0
 40
8.0
 40
8.0
 40
8.0
 40
9.0
 40
9.0
 40
9.0
 40
10.0
 40
10.0
 40
10.0
 40
11.0
 40
11.0
 40
11.0
 40
12.0
 40
12.0
 40
12.0
 40
13.0
 40
13.0
 40
13.0
 40
14.0
 40
14.0
 40
14.0
 40
15.0
 40
15.0
 40
15.0
 40
16.0
 40
16.0
 40
16.0
 40
17.0
 40
17.0
 40
17.0
 40
17.0
 10
886.3540036846615
 20
614.035644377741
 10
886.3540036846615
 20
614.035644377741
 10
886.3540036846615
 20
612.3686521906578
 10
886.3540036846615
 20
612.3686521906578
 10
886.3540036846615
 20
612.3686521906578
 10
887.8652341530337
 20
612.3686521906578
 10
887.8652341530337
 20
612.3686521906578
 10
887.8652341530337
 20
612.3686521906578
 10
887.8652341530337
 20
611.5654295346086
 10
887.8652341530337
 20
611.5654295346086
 10
887.8652341530337
 20
611.5654295346086
 10
886.3540036846615
 20
611.5654295346086
 10
886.3540036846615
 20
611.5654295346086
 10
886.3540036846615
 20
611.5654295346086
 10
886.3540036846615
 20
608.4350584416412
 10
886.3540036846615
 20
608.4350584416412
 10
886.3540036846615
 20
607.7153318793212
 10
886.5576169658606
 20
607.307617035673
 10
887.1455075907136
 20
607.307617035673
 10
887.4213864968947
 20
607.307617035673
 10
887.6249997780938
 20
607.3437498481641
 10
887.7573239968107
 20
607.3793943794051
 10
887.7573239968107
 20
607.3793943794051
 10
887.8051755592987
 20
606.587890473353
 10
887.8051755592987
 20
606.587890473353
 10
887.6010739968497
 20
606.503906098374
 10
887.2773435281806
 20
606.443847504639
 10
886.8696286845326
 20
606.443847504639
 10
886.3779294659055
 20
606.443847504639
 10
885.9819333722545
 20
606.6000975046
 10
885.7299802473175
 20
606.8876951607781
 10
885.4301755598924
 20
607.1997068794501
 10
885.3222654036695
 20
607.7153318793212
 10
885.3222654036695
 20
608.3989256291503
 10
885.3222654036695
 20
608.3989256291503
 10
885.3222654036695
 20
611.5654295346086
 10
885.3222654036695
 20
611.5654295346086
 10
885.3222654036695
 20
611.5654295346086
 10
884.4228513413942
 20
611.5654295346086
 10
884.4228513413942
 20
611.5654295346086
 10
884.4228513413942
 20
611.5654295346086
 10
884.4228513413942
 20
612.3686521906578
 10
884.4228513413942
 20
612.3686521906578
 10
884.4228513413942
 20
612.3686521906578
 10
885.3222654036695
 20
612.3686521906578
 10
885.3222654036695
 20
612.3686521906578
 10
885.3222654036695
 20
612.3686521906578
 10
885.3222654036695
 20
613.76025375281
 10
885.3222654036695
 20
613.76025375281
 10
885.3222654036695
 20
613.76025375281
 10
886.3540036846615
 20
614.035644377741
 10
886.3540036846615
 20
614.035644377741
 97
        0
 97
        0
 75
     2
 76
     1
 98
        0
  0
ENDBLK
  5
94
330
91
100
AcDbEntity
  8
0
100
AcDbBlockEnd
  0
ENDSEC
  0
SECTION
  2
ENTITIES
  0
INSERT
  5
41
330
1F
100
AcDbEntity
  8
0
100
AcDbBlockReference
  2
block 2
 10
0.0
 20
0.0
 30
0.0
  0
INSERT
  5
4C
330
1F
100
AcDbEntity
  8
0
100
AcDbBlockReference
  2
block 3
 10
0.0
 20
0.0
 30
0.0
  0
INSERT
  5
5B
330
1F
100
AcDbEntity
  8
0
100
AcDbBlockReference
  2
block 4
 10
0.0
 20
0.0
 30
0.0
  0
INSERT
  5
60
330
1F
100
AcDbEntity
  8
0
100
AcDbBlockReference
  2
block 5
 10
0.0
 20
0.0
 30
0.0
  0
INSERT
  5
65
330
1F
100
AcDbEntity
  8
0
100
AcDbBlockReference
  2
block 6
 10
0.0
 20
0.0
 30
0.0
  0
INSERT
  5
6A
330
1F
100
AcDbEntity
  8
0
100
AcDbBlockReference
  2
block 7
 10
0.0
 20
0.0
 30
0.0
  0
INSERT
  5
6F
330
1F
100
AcDbEntity
  8
0
100
AcDbBlockReference
  2
block 8
 10
0.0
 20
0.0
 30
0.0
  0
INSERT
  5
74
330
1F
100
AcDbEntity
  8
0
100
AcDbBlockReference
  2
block 9
 10
0.0
 20
0.0
 30
0.0
  0
INSERT
  5
79
330
1F
100
AcDbEntity
  8
0
100
AcDbBlockReference
  2
block 10
 10
0.0
 20
0.0
 30
0.0
  0
INSERT
  5
7E
330
1F
100
AcDbEntity
  8
0
100
AcDbBlockReference
  2
block 11
 10
0.0
 20
0.0
 30
0.0
  0
INSERT
  5
83
330
1F
100
AcDbEntity
  8
0
100
AcDbBlockReference
  2
block 12
 10
0.0
 20
0.0
 30
0.0
  0
INSERT
  5
88
330
1F
100
AcDbEntity
  8
0
100
AcDbBlockReference
  2
block 13
 10
0.0
 20
0.0
 30
0.0
  0
INSERT
  5
8D
330
1F
100
AcDbEntity
  8
0
100
AcDbBlockReference
  2
block 14
 10
0.0
 20
0.0
 30
0.0
  0
INSERT
  5
92
330
1F
100
AcDbEntity
  8
0
100
AcDbBlockReference
  2
block 15
 10
0.0
 20
0.0
 30
0.0
  0
ENDSEC
  0
SECTION
  2
OBJECTS
  0
DICTIONARY
  5
C
330
0
100
AcDbDictionary
281
     1
  3
ACAD_GROUP
350
D
  3
ACAD_LAYOUT
350
1A
  3
ACAD_MATERIAL
350
3B
  3
ACAD_MLEADERSTYLE
350
C9
  3
ACAD_MLINESTYLE
350
17
  3
ACAD_PLOTSETTINGS
350
19
  3
ACAD_PLOTSTYLENAME
350
E
  3
ACAD_TABLESTYLE
350
C8
  3
ACAD_VISUALSTYLE
350
2A
  0
SUN
  5
3F
330
29
100
AcDbSun
 90
        1
290
     0
 63
     7
421
 16777215
 40
1.0
291
     1
 91
  2455826
 92
 54000000
292
     0
 70
     2
 71
   256
280
     1
  0
DICTIONARY
  5
D
102
{ACAD_REACTORS
330
C
102
}
330
C
100
AcDbDictionary
281
     1
  0
DICTIONARY
  5
1A
102
{ACAD_REACTORS
330
C
102
}
330
C
100
AcDbDictionary
281
     1
  3
Layout1
350
1E
  3
Layout2
350
26
  3
Model
350
22
  0
DICTIONARY
  5
3B
102
{ACAD_REACTORS
330
C
102
}
330
C
100
AcDbDictionary
281
     1
  3
ByBlock
350
3D
  3
ByLayer
350
3C
  3
Global
350
3E
  0
DICTIONARY
  5
C9
102
{ACAD_REACTORS
330
C
102
}
330
C
100
AcDbDictionary
281
     1
  0
DICTIONARY
  5
17
102
{ACAD_REACTORS
330
C
102
}
330
C
100
AcDbDictionary
281
     1
  3
Standard
350
18
  0
DICTIONARY
  5
19
102
{ACAD_REACTORS
330
C
102
}
330
C
100
AcDbDictionary
281
     1
  0
ACDBDICTIONARYWDFLT
  5
E
102
{ACAD_REACTORS
330
C
102
}
330
C
100
AcDbDictionary
281
     1
  3
Normal
350
F
100
AcDbDictionaryWithDefault
340
F
  0
DICTIONARY
  5
C8
102
{ACAD_REACTORS
330
C
102
}
330
C
100
AcDbDictionary
281
     1
  0
DICTIONARY
  5
2A
102
{ACAD_REACTORS
330
C
102
}
330
C
100
AcDbDictionary
281
     1
  3
2dWireframe
350
2F
  3
3D Hidden
350
31
  3
3dWireframe
350
30
  3
Basic
350
32
  3
Brighten
350
36
  3
ColorChange
350
3A
  3
Conceptual
350
34
  3
Dim
350
35
  3
Facepattern
350
39
  3
Flat
350
2B
  3
FlatWithEdges
350
2C
  3
Gouraud
350
2D
  3
GouraudWithEdges
350
2E
  3
Linepattern
350
38
  3
Realistic
350
33
  3
Thicken
350
37
  0
LAYOUT
  5
1E
102
{ACAD_REACTORS
330
1A
102
}
330
1A
100
AcDbPlotSettings
  1

  2
none_device
  4

  6

 40
0.0
 41
0.0
 42
0.0
 43
0.0
 44
0.0
 45
0.0
 46
0.0
 47
0.0
 48
0.0
 49
0.0
140
0.0
141
0.0
142
1.0
143
1.0
 70
   688
 72
     0
 73
     0
 74
     5
  7

 75
    16
 76
     0
 77
     2
 78
   300
147
1.0
148
0.0
149
0.0
100
AcDbLayout
  1
Layout1
 70
     1
 71
     1
 10
0.0
 20
0.0
 11
12.0
 21
9.0
 12
0.0
 22
0.0
 32
0.0
 14
1.000000000000000E+20
 24
1.000000000000000E+20
 34
1.000000000000000E+20
 15
-1.000000000000000E+20
 25
-1.000000000000000E+20
 35
-1.000000000000000E+20
146
0.0
 13
0.0
 23
0.0
 33
0.0
 16
1.0
 26
0.0
 36
0.0
 17
0.0
 27
1.0
 37
0.0
 76
     0
330
1B
  0
LAYOUT
  5
26
102
{ACAD_REACTORS
330
1A
102
}
330
1A
100
AcDbPlotSettings
  1

  2
none_device
  4

  6

 40
0.0
 41
0.0
 42
0.0
 43
0.0
 44
0.0
 45
0.0
 46
0.0
 47
0.0
 48
0.0
 49
0.0
140
0.0
141
0.0
142
1.0
143
1.0
 70
   688
 72
     0
 73
     0
 74
     5
  7

 75
    16
 76
     0
 77
     2
 78
   300
147
1.0
148
0.0
149
0.0
100
AcDbLayout
  1
Layout2
 70
     1
 71
     2
 10
0.0
 20
0.0
 11
0.0
 21
0.0
 12
0.0
 22
0.0
 32
0.0
 14
0.0
 24
0.0
 34
0.0
 15
0.0
 25
0.0
 35
0.0
146
0.0
 13
0.0
 23
0.0
 33
0.0
 16
1.0
 26
0.0
 36
0.0
 17
0.0
 27
1.0
 37
0.0
 76
     0
330
23
  0
LAYOUT
  5
22
102
{ACAD_REACTORS
330
1A
102
}
330
1A
100
AcDbPlotSettings
  1

  2
none_device
  4

  6

 40
0.0
 41
0.0
 42
0.0
 43
0.0
 44
0.0
 45
0.0
 46
0.0
 47
0.0
 48
0.0
 49
0.0
140
0.0
141
0.0
142
1.0
143
1.0
 70
  1712
 72
     0
 73
     0
 74
     0
  7

 75
     0
 76
     0
 77
     2
 78
   300
147
1.0
148
0.0
149
0.0
100
AcDbLayout
  1
Model
 70
     1
 71
     0
 10
0.0
 20
0.0
 11
12.0
 21
9.0
 12
0.0
 22
0.0
 32
0.0
 14
1.000000000000000E+20
 24
1.000000000000000E+20
 34
1.000000000000000E+20
 15
-1.000000000000000E+20
 25
-1.000000000000000E+20
 35
-1.000000000000000E+20
146
0.0
 13
0.0
 23
0.0
 33
0.0
 16
1.0
 26
0.0
 36
0.0
 17
0.0
 27
1.0
 37
0.0
 76
     0
330
1F
331
29
  0
MATERIAL
  5
3D
102
{ACAD_REACTORS
330
3B
102
}
330
3B
100
AcDbMaterial
  1
ByBlock
 72
     1
 94
      127
  0
MATERIAL
  5
3C
102
{ACAD_REACTORS
330
3B
102
}
330
3B
100
AcDbMaterial
  1
ByLayer
 72
     1
 94
      127
  0
MATERIAL
  5
3E
102
{ACAD_REACTORS
330
3B
102
}
330
3B
100
AcDbMaterial
  1
Global
 72
     1
 94
      127
  0
MLINESTYLE
  5
18
102
{ACAD_REACTORS
330
17
102
}
330
17
100
AcDbMlineStyle
  2
Standard
 70
     0
  3

 62
   256
 51
90.0
 52
90.0
 71
     2
 49
0.5
 62
   256
  6
BYLAYER
 49
-0.5
 62
   256
  6
BYLAYER
  0
ACDBPLACEHOLDER
  5
F
102
{ACAD_REACTORS
330
E
102
}
330
E
  0
VISUALSTYLE
  5
2F
102
{ACAD_REACTORS
330
2A
102
}
330
2A
100
AcDbVisualStyle
  2
2dWireframe
 70
     4
177
     2
291
     0
 71
     0
176
     1
 72
     2
176
     1
 73
     0
176
     1
 90
        0
176
     1
 40
-0.6
176
     1
 41
-30.0
176
     1
 62
     5
 63
     7
421
 16777215
176
     1
 74
     1
176
     1
 91
        4
176
     1
 64
     7
176
     1
 65
   257
176
     1
 75
     1
176
     1
175
     1
176
     1
 42
1.0
176
     1
 92
        0
176
     1
 66
   257
176
     1
 43
1.0
176
     1
 76
     1
176
     1
 77
     6
176
     1
 78
     2
176
     1
 67
     7
176
     1
 79
     5
176
     1
170
     0
176
     1
171
     0
176
     1
290
     0
176
     1
 93
        1
176
     1
 44
0.0
176
     1
173
     0
176
     1
  0
VISUALSTYLE
  5
31
102
{ACAD_REACTORS
330
2A
102
}
330
2A
100
AcDbVisualStyle
  2
3D Hidden
 70
     6
177
     2
291
     0
 71
     1
176
     1
 72
     2
176
     1
 73
     2
176
     1
 90
        0
176
     1
 40
-0.6
176
     1
 41
-30.0
176
     1
 62
     5
 63
     7
421
 16777215
176
     1
 74
     2
176
     1
 91
        2
176
     1
 64
     7
176
     1
 65
   257
176
     1
 75
     2
176
     1
175
     1
176
     1
 42
40.0
176
     1
 92
        0
176
     1
 66
   257
176
     1
 43
1.0
176
     1
 76
     1
176
     1
 77
     6
176
     1
 78
     2
176
     1
 67
     7
176
     1
 79
     3
176
     1
170
     0
176
     1
171
     0
176
     1
290
     0
176
     1
 93
        1
176
     1
 44
0.0
176
     1
173
     0
176
     1
  0
VISUALSTYLE
  5
30
102
{ACAD_REACTORS
330
2A
102
}
330
2A
100
AcDbVisualStyle
  2
3dWireframe
 70
     5
177
     2
291
     0
 71
     0
176
     1
 72
     2
176
     1
 73
     0
176
     1
 90
        0
176
     1
 40
-0.6
176
     1
 41
-30.0
176
     1
 62
     5
 63
     7
421
 16777215
176
     1
 74
     1
176
     1
 91
        4
176
     1
 64
     7
176
     1
 65
   257
176
     1
 75
     1
176
     1
175
     1
176
     1
 42
1.0
176
     1
 92
        0
176
     1
 66
   257
176
     1
 43
1.0
176
     1
 76
     1
176
     1
 77
     6
176
     1
 78
     2
176
     1
 67
     7
176
     1
 79
     5
176
     1
170
     0
176
     1
171
     0
176
     1
290
     0
176
     1
 93
        1
176
     1
 44
0.0
176
     1
173
     0
176
     1
  0
VISUALSTYLE
  5
32
102
{ACAD_REACTORS
330
2A
102
}
330
2A
100
AcDbVisualStyle
  2
Basic
 70
     7
177
     2
291
     1
 71
     1
176
     1
 72
     0
176
     1
 73
     1
176
     1
 90
        0
176
     1
 40
-0.6
176
     1
 41
-30.0
176
     1
 62
     5
 63
     7
421
 16777215
176
     1
 74
     0
176
     1
 91
        4
176
     1
 64
     7
176
     1
 65
   257
176
     1
 75
     1
176
     1
175
     1
176
     1
 42
1.0
176
     1
 92
        8
176
     1
 66
     7
176
     1
 43
1.0
176
     1
 76
     1
176
     1
 77
     6
176
     1
 78
     2
176
     1
 67
     7
176
     1
 79
     5
176
     1
170
     0
176
     1
171
     0
176
     1
290
     0
176
     1
 93
        1
176
     1
 44
0.0
176
     1
173
     0
176
     1
  0
VISUALSTYLE
  5
36
102
{ACAD_REACTORS
330
2A
102
}
330
2A
100
AcDbVisualStyle
  2
Brighten
 70
    12
177
     2
291
     1
 71
     2
176
     1
 72
     2
176
     1
 73
     0
176
     1
 90
        0
176
     1
 40
-0.6
176
     1
 41
-30.0
176
     1
 62
     5
 63
     7
421
 16777215
176
     1
 74
     1
176
     1
 91
        4
176
     1
 64
     7
176
     1
 65
   257
176
     1
 75
     1
176
     1
175
     1
176
     1
 42
1.0
176
     1
 92
        8
176
     1
 66
     7
176
     1
 43
1.0
176
     1
 76
     1
176
     1
 77
     6
176
     1
 78
     2
176
     1
 67
     7
176
     1
 79
     5
176
     1
170
     0
176
     1
171
     0
176
     1
290
     0
176
     1
 93
        1
176
     1
 44
50.0
176
     1
173
     0
176
     1
  0
VISUALSTYLE
  5
3A
102
{ACAD_REACTORS
330
2A
102
}
330
2A
100
AcDbVisualStyle
  2
ColorChange
 70
    16
177
     2
291
     1
 71
     2
176
     1
 72
     2
176
     1
 73
     3
176
     1
 90
        0
176
     1
 40
-0.6
176
     1
 41
-30.0
176
     1
 62
     5
 63
     8
421
  8421504
176
     1
 74
     1
176
     1
 91
        4
176
     1
 64
     7
176
     1
 65
   257
176
     1
 75
     1
176
     1
175
     1
176
     1
 42
1.0
176
     1
 92
        8
176
     1
 66
     8
424
  8421504
176
     1
 43
1.0
176
     1
 76
     1
176
     1
 77
     6
176
     1
 78
     2
176
     1
 67
     7
176
     1
 79
     5
176
     1
170
     0
176
     1
171
     0
176
     1
290
     0
176
     1
 93
        1
176
     1
 44
0.0
176
     1
173
     0
176
     1
  0
VISUALSTYLE
  5
34
102
{ACAD_REACTORS
330
2A
102
}
330
2A
100
AcDbVisualStyle
  2
Conceptual
 70
     9
177
     2
291
     0
 71
     3
176
     1
 72
     2
176
     1
 73
     0
176
     1
 90
        0
176
     1
 40
-0.6
176
     1
 41
-30.0
176
     1
 62
     5
 63
     7
421
 16777215
176
     1
 74
     2
176
     1
 91
        2
176
     1
 64
     7
176
     1
 65
   257
176
     1
 75
     1
176
     1
175
     1
176
     1
 42
40.0
176
     1
 92
        8
176
     1
 66
     7
176
     1
 43
1.0
176
     1
 76
     1
176
     1
 77
     6
176
     1
 78
     2
176
     1
 67
     7
176
     1
 79
     3
176
     1
170
     0
176
     1
171
     0
176
     1
290
     0
176
     1
 93
        1
176
     1
 44
0.0
176
     1
173
     0
176
     1
  0
VISUALSTYLE
  5
35
102
{ACAD_REACTORS
330
2A
102
}
330
2A
100
AcDbVisualStyle
  2
Dim
 70
    11
177
     2
291
     1
 71
     2
176
     1
 72
     2
176
     1
 73
     0
176
     1
 90
        0
176
     1
 40
-0.6
176
     1
 41
-30.0
176
     1
 62
     5
 63
     7
421
 16777215
176
     1
 74
     1
176
     1
 91
        4
176
     1
 64
     7
176
     1
 65
   257
176
     1
 75
     1
176
     1
175
     1
176
     1
 42
1.0
176
     1
 92
        8
176
     1
 66
     7
176
     1
 43
1.0
176
     1
 76
     1
176
     1
 77
     6
176
     1
 78
     2
176
     1
 67
     7
176
     1
 79
     5
176
     1
170
     0
176
     1
171
     0
176
     1
290
     0
176
     1
 93
        1
176
     1
 44
-50.0
176
     1
173
     0
176
     1
  0
VISUALSTYLE
  5
39
102
{ACAD_REACTORS
330
2A
102
}
330
2A
100
AcDbVisualStyle
  2
Facepattern
 70
    15
177
     2
291
     1
 71
     2
176
     1
 72
     2
176
     1
 73
     0
176
     1
 90
        0
176
     1
 40
-0.6
176
     1
 41
-30.0
176
     1
 62
     5
 63
     7
421
 16777215
176
     1
 74
     1
176
     1
 91
        4
176
     1
 64
     7
176
     1
 65
   257
176
     1
 75
     1
176
     1
175
     1
176
     1
 42
1.0
176
     1
 92
        8
176
     1
 66
     7
176
     1
 43
1.0
176
     1
 76
     1
176
     1
 77
     6
176
     1
 78
     2
176
     1
 67
     7
176
     1
 79
     5
176
     1
170
     0
176
     1
171
     0
176
     1
290
     0
176
     1
 93
        1
176
     1
 44
0.0
176
     1
173
     0
176
     1
  0
VISUALSTYLE
  5
2B
102
{ACAD_REACTORS
330
2A
102
}
330
2A
100
AcDbVisualStyle
  2
Flat
 70
     0
177
     2
291
     1
 71
     2
176
     1
 72
     1
176
     1
 73
     1
176
     1
 90
        2
176
     1
 40
-0.6
176
     1
 41
30.0
176
     1
 62
     5
 63
     7
421
 16777215
176
     1
 74
     0
176
     1
 91
        4
176
     1
 64
     7
176
     1
 65
   257
176
     1
 75
     1
176
     1
175
     1
176
     1
 42
1.0
176
     1
 92
        8
176
     1
 66
     7
176
     1
 43
1.0
176
     1
 76
     1
176
     1
 77
     6
176
     1
 78
     2
176
     1
 67
     7
176
     1
 79
     5
176
     1
170
     0
176
     1
171
     0
176
     1
290
     0
176
     1
 93
       13
176
     1
 44
0.0
176
     1
173
     0
176
     1
  0
VISUALSTYLE
  5
2C
102
{ACAD_REACTORS
330
2A
102
}
330
2A
100
AcDbVisualStyle
  2
FlatWithEdges
 70
     1
177
     2
291
     1
 71
     2
176
     1
 72
     1
176
     1
 73
     1
176
     1
 90
        2
176
     1
 40
-0.6
176
     1
 41
30.0
176
     1
 62
     5
 63
     7
421
 16777215
176
     1
 74
     1
176
     1
 91
        4
176
     1
 64
     7
176
     1
 65
   257
176
     1
 75
     1
176
     1
175
     1
176
     1
 42
1.0
176
     1
 92
        0
176
     1
 66
   257
176
     1
 43
1.0
176
     1
 76
     1
176
     1
 77
     6
176
     1
 78
     2
176
     1
 67
     7
176
     1
 79
     5
176
     1
170
     0
176
     1
171
     0
176
     1
290
     0
176
     1
 93
       13
176
     1
 44
0.0
176
     1
173
     0
176
     1
  0
VISUALSTYLE
  5
2D
102
{ACAD_REACTORS
330
2A
102
}
330
2A
100
AcDbVisualStyle
  2
Gouraud
 70
     2
177
     2
291
     1
 71
     2
176
     1
 72
     2
176
     1
 73
     1
176
     1
 90
        2
176
     1
 40
-0.6
176
     1
 41
30.0
176
     1
 62
     5
 63
     7
421
 16777215
176
     1
 74
     0
176
     1
 91
        4
176
     1
 64
     7
176
     1
 65
   257
176
     1
 75
     1
176
     1
175
     1
176
     1
 42
1.0
176
     1
 92
        0
176
     1
 66
     7
176
     1
 43
1.0
176
     1
 76
     1
176
     1
 77
     6
176
     1
 78
     2
176
     1
 67
     7
176
     1
 79
     5
176
     1
170
     0
176
     1
171
     0
176
     1
290
     0
176
     1
 93
       13
176
     1
 44
0.0
176
     1
173
     0
176
     1
  0
VISUALSTYLE
  5
2E
102
{ACAD_REACTORS
330
2A
102
}
330
2A
100
AcDbVisualStyle
  2
GouraudWithEdges
 70
     3
177
     2
291
     1
 71
     2
176
     1
 72
     2
176
     1
 73
     1
176
     1
 90
        2
176
     1
 40
-0.6
176
     1
 41
30.0
176
     1
 62
     5
 63
     7
421
 16777215
176
     1
 74
     1
176
     1
 91
        4
176
     1
 64
     7
176
     1
 65
   257
176
     1
 75
     1
176
     1
175
     1
176
     1
 42
1.0
176
     1
 92
        0
176
     1
 66
   257
176
     1
 43
1.0
176
     1
 76
     1
176
     1
 77
     6
176
     1
 78
     2
176
     1
 67
     7
176
     1
 79
     5
176
     1
170
     0
176
     1
171
     0
176
     1
290
     0
176
     1
 93
       13
176
     1
 44
0.0
176
     1
173
     0
176
     1
  0
VISUALSTYLE
  5
38
102
{ACAD_REACTORS
330
2A
102
}
330
2A
100
AcDbVisualStyle
  2
Linepattern
 70
    14
177
     2
291
     1
 71
     2
176
     1
 72
     2
176
     1
 73
     0
176
     1
 90
        0
176
     1
 40
-0.6
176
     1
 41
-30.0
176
     1
 62
     5
 63
     7
421
 16777215
176
     1
 74
     1
176
     1
 91
        4
176
     1
 64
     7
176
     1
 65
   257
176
     1
 75
     7
176
     1
175
     7
176
     1
 42
1.0
176
     1
 92
        8
176
     1
 66
     7
176
     1
 43
1.0
176
     1
 76
     1
176
     1
 77
     6
176
     1
 78
     2
176
     1
 67
     7
176
     1
 79
     5
176
     1
170
     0
176
     1
171
     0
176
     1
290
     0
176
     1
 93
        1
176
     1
 44
0.0
176
     1
173
     0
176
     1
  0
VISUALSTYLE
  5
33
102
{ACAD_REACTORS
330
2A
102
}
330
2A
100
AcDbVisualStyle
  2
Realistic
 70
     8
177
     2
291
     0
 71
     2
176
     1
 72
     2
176
     1
 73
     0
176
     1
 90
        0
176
     1
 40
-0.6
176
     1
 41
-30.0
176
     1
 62
     5
 63
     7
421
 16777215
176
     1
 74
     1
176
     1
 91
        0
176
     1
 64
     7
176
     1
 65
   257
176
     1
 75
     1
176
     1
175
     1
176
     1
 42
1.0
176
     1
 92
        8
176
     1
 66
     8
424
  7895160
176
     1
 43
1.0
176
     1
 76
     1
176
     1
 77
     6
176
     1
 78
     2
176
     1
 67
     7
176
     1
 79
     5
176
     1
170
     0
176
     1
171
     0
176
     1
290
     0
176
     1
 93
       13
176
     1
 44
0.0
176
     1
173
     0
176
     1
  0
VISUALSTYLE
  5
37
102
{ACAD_REACTORS
330
2A
102
}
330
2A
100
AcDbVisualStyle
  2
Thicken
 70
    13
177
     2
291
     1
 71
     2
176
     1
 72
     2
176
     1
 73
     0
176
     1
 90
        0
176
     1
 40
-0.6
176
     1
 41
-30.0
176
     1
 62
     5
 63
     7
421
 16777215
176
     1
 74
     1
176
     1
 91
        4
176
     1
 64
     7
176
     1
 65
   257
176
     1
 75
     1
176
     1
175
     1
176
     1
 42
1.0
176
     1
 92
       12
176
     1
 66
     7
176
     1
 43
1.0
176
     1
 76
     1
176
     1
 77
     6
176
     1
 78
     2
176
     1
 67
     7
176
     1
 79
     5
176
     1
170
     0
176
     1
171
     0
176
     1
290
     0
176
     1
 93
        1
176
     1
 44
0.0
176
     1
173
     0
176
     1
  0
ENDSEC
  0
EOF
