0
SECTION
2
HEADER
9
$INSUNITS
70
1
9
$ACADVER
1
AC1014
9
$HANDSEED
5
FFFF
0
ENDSEC
0
SECTION
2
TABLES
0
TABLE
2
VPORT
5
8
100
AcDbSymbolTable
0
ENDTAB
0
TABLE
2
LTYPE
5
5
100
AcDbSymbolTable
0
LTYPE
5
14
100
AcDbSymbolTableRecord
100
AcDbLinetypeTableRecord
2
BYBLOCK
70
0
0
LTYPE
5
15
100
AcDbSymbolTableRecord
100
AcDbLinetypeTableRecord
2
BYLAYER
70
0
0
ENDTAB
0
TABLE
2
LAYER
5
2
100
AcDbSymbolTable
70
2
0
LAYER
5
50
100
AcDbSymbolTableRecord
100
AcDbLayerTableRecord
2
0
70
0
6
CONTINUOUS
0
ENDTAB
0
TABLE
2
STYLE
5
3
100
AcDbSymbolTable
70
1
0
STYLE
5
11
100
AcDbSymbolTableRecord
100
AcDbTextStyleTableRecord
2
STANDARD
70
0
0
ENDTAB
0
TABLE
2
VIEW
5
6
100
AcDbSymbolTable
70
0
0
ENDTAB
0
TABLE
2
UCS
5
7
100
AcDbSymbolTable
70
0
0
ENDTAB
0
TABLE
2
APPID
5
9
100
AcDbSymbolTable
70
2
0
APPID
5
12
100
AcDbSymbolTableRecord
100
AcDbRegAppTableRecord
2
ACAD
70
0
0
ENDTAB
0
TABLE
2
DIMSTYLE
5
A
100
AcDbSymbolTable
70
1
0
ENDTAB
0
TABLE
2
BLOCK_RECORD
5
1
100
AcDbSymbolTable
70
1
0
BLOCK_RECORD
5
1F
100
AcDbSymbolTableRecord
100
AcDbBlockTableRecord
2
*MODEL_SPACE
0
BLOCK_RECORD
5
1B
100
AcDbSymbolTableRecord
100
AcDbBlockTableRecord
2
*PAPER_SPACE
0
ENDTAB
0
ENDSEC
0
SECTION
2
BLOCKS
0
BLOCK
5
20
100
AcDbEntity
100
AcDbBlockBegin
2
*MODEL_SPACE
0
ENDBLK
5
21
100
AcDbEntity
100
AcDbBlockEnd
0
BLOCK
5
1C
100
AcDbEntity
100
AcDbBlockBegin
2
*PAPER_SPACE
0
ENDBLK
5
1D
100
AcDbEntity
100
AcDbBlockEnd
0
ENDSEC
0
SECTION
2
ENTITIES
0
LWPOLYLINE
5
100
100
AcDbEntity
8
0
100
AcDbPolyline
90
11
70
1
43
0.0
10
-2.46259842519685
20
3.0797244094488176
42
-0.41421356237309503
10
-2.4429133858267713
20
3.0994094488188964
10
-1.1503444881889764
20
3.0994094488188968
42
0.41421356237307683
10
-1.1306594488188977
20
3.1190944881889751
10
-1.1306594488188977
20
3.6309055118110232
42
0.41421356237309764
10
-1.1503444881889764
20
3.6505905511811032
10
-2.7677165354330708
20
3.6505905511811032
42
0.41421356237309503
10
-2.7874015748031495
20
3.6309055118110241
10
-2.7874015748031495
20
3.0797244094488176
42
0.41421356237309503
10
-2.7677165354330708
20
3.0600393700787389
10
-2.4822834645669287
20
3.0600393700787394
42
0.41421356237309503
0
LWPOLYLINE
5
101
100
AcDbEntity
8
0
100
AcDbPolyline
90
23
70
1
43
0.0
10
-10.670029527559054
20
2.1899606299212602
10
-11.030777559055119
20
2.1899606299212597
42
0.41421356237309503
10
-11.038651574803149
20
2.1820866141732282
10
-11.038651574803149
20
1.6387795275590542
10
-10.689714566929135
20
1.6387795275590551
42
-0.41421356237309503
10
-10.681840551181105
20
1.6309055118110238
10
-10.681840551181105
20
1.6190944881889762
42
0.41421356237312101
10
-10.662155511811024
20
1.5994094488188968
10
-10.150344488188976
20
1.5994094488188964
42
0.4142135623730846
10
-10.130659448818898
20
1.6190944881889762
10
-10.1306594488189
20
1.6309055118110238
42
-0.41421356237309503
10
-10.122785433070868
20
1.6387795275590566
10
-9.7817224409448809
20
1.6387795275590551
42
0.41421356237309503
10
-9.7738484251968494
20
1.6466535433070866
10
-9.7738484251968476
20
2.1820866141732282
42
0.41421356237309503
10
-9.7817224409448791
20
2.1899606299212597
10
-10.142470472440946
20
2.1899606299212597
42
0.41421356237309503
10
-10.150344488188976
20
2.1820866141732282
10
-10.150344488188976
20
2.1584645669291342
42
-0.41421356237309503
10
-10.158218503937007
20
2.1505905511811032
10
-10.654281496062994
20
2.1505905511811023
42
-0.41421356237309503
10
-10.662155511811026
20
2.1584645669291338
10
-10.662155511811022
20
2.1820866141732287
42
0.41421356237309503
0
LWPOLYLINE
5
102
100
AcDbEntity
8
0
100
AcDbPolyline
90
23
70
1
43
0.0
10
-1.1010334645669293
20
2.9399606299212588
10
-1.468277559055118
20
2.9399606299212588
42
0.41421356237309503
10
-1.4761515748031493
20
2.9320866141732278
10
-1.4761515748031495
20
2.3966535433070861
42
0.41421356237309503
10
-1.468277559055118
20
2.3887795275590546
10
-1.1272145669291338
20
2.3887795275590551
42
-0.41421356237309503
10
-1.1193405511811023
20
2.3809055118110236
10
-1.1193405511811023
20
2.3690944881889764
42
0.41421356237309764
10
-1.0996555118110234
20
2.3494094488188977
10
-0.58784448818897639
20
2.3494094488188977
42
0.41421356237309764
10
-0.56815944881889779
20
2.3690944881889764
10
-0.56815944881889746
20
2.3809055118110241
42
-0.41421356237308854
10
-0.56028543307086598
20
2.3887795275590551
10
-0.20445866141732258
20
2.3887795275590551
42
0.41421356237309176
10
-0.19658464566929132
20
2.3966535433070861
10
-0.19658464566929115
20
2.9320866141732278
42
0.41421356237309176
10
-0.20445866141732258
20
2.9399606299212593
10
-0.57858020330543514
20
2.9399606299212588
42
0.41421356237309503
10
-0.58645421905346651
20
2.9320866141732278
10
-0.58645421905346684
20
2.9084645669291329
42
-0.41421356237309503
10
-0.59432823480149821
20
2.9005905511811019
10
-1.0931594488188978
20
2.9005905511811014
42
-0.41421356237309503
10
-1.1010334645669293
20
2.9084645669291329
0
LWPOLYLINE
5
103
100
AcDbEntity
8
0
100
AcDbPolyline
90
8
70
1
43
0.0
10
-9.6815944881889759
20
3.8380905511811032
10
-10.193405511811024
20
3.8380905511811023
42
0.41421356237314705
10
-10.213090551181104
20
3.8184055118110236
10
-10.213090551181104
20
3.3065944881889755
42
0.41421356237304302
10
-10.193405511811026
20
3.2869094488188986
10
-9.6815944881889759
20
3.2869094488188968
42
0.41421356237304302
10
-9.6619094488188981
20
3.3065944881889755
10
-9.6619094488188981
20
3.8184055118110236
42
0.41421356237310542
0
LWPOLYLINE
5
104
100
AcDbEntity
8
0
100
AcDbPolyline
90
8
70
1
43
0.0
10
-10.411909448818896
20
2.5565944881889764
10
-10.411909448818896
20
3.0684055118110236
42
0.41421356237311063
10
-10.431594488188976
20
3.0880905511811036
10
-10.943405511811022
20
3.0880905511811023
42
0.414213562373069
10
-10.963090551181104
20
3.0684055118110236
10
-10.963090551181104
20
2.5565944881889764
42
0.41421356237310025
10
-10.943405511811022
20
2.5369094488188977
10
-10.431594488188976
20
2.5369094488188968
42
0.41421356237310025
0
LWPOLYLINE
5
105
100
AcDbEntity
8
0
100
AcDbPolyline
90
8
70
1
43
0.0
10
-10.963090551181104
20
3.8184055118110236
10
-10.9630905511811
20
3.3065944881889755
42
0.41421356237310542
10
-10.943405511811022
20
3.2869094488188968
10
-10.431594488188974
20
3.2869094488188968
42
0.41421356237310542
10
-10.411909448818896
20
3.3065944881889755
10
-10.411909448818896
20
3.8184055118110236
42
0.41421356237312623
10
-10.431594488188974
20
3.8380905511811032
10
-10.943405511811022
20
3.8380905511811032
42
0.4142135623730846
0
LWPOLYLINE
5
106
100
AcDbEntity
8
0
100
AcDbPolyline
90
8
70
1
43
0.0
10
-11.713090551181107
20
3.8184055118110236
10
-11.713090551181107
20
3.3065944881889755
42
0.41421356237310542
10
-11.693405511811029
20
3.2869094488188968
10
-11.181594488188974
20
3.2869094488188968
42
0.41421356237310542
10
-11.161909448818896
20
3.3065944881889755
10
-11.161909448818896
20
3.8184055118110236
42
0.41421356237312623
10
-11.181594488188974
20
3.8380905511811032
10
-11.693405511811028
20
3.8380905511811023
42
0.41421356237313667
0
LWPOLYLINE
5
107
100
AcDbEntity
8
0
100
AcDbPolyline
90
8
70
1
43
0.0
10
-6.3745514909243672
20
3.4143700787401556
10
-6.8839318967712213
20
3.414370078740157
42
0.99999999999999989
10
-6.8839318967712213
20
3.3356299212598421
10
-6.3745514909243672
20
3.3356299212598421
42
0.68313005106397495
10
-6.1728398616731948
20
3.335629921259843
10
-5.6634594558263407
20
3.3356299212598421
42
0.99999999999999989
10
-5.6634594558263416
20
3.414370078740157
10
-6.1728398616731948
20
3.414370078740157
42
0.68313005106397706
0
LWPOLYLINE
5
108
100
AcDbEntity
8
0
100
AcDbPolyline
90
8
70
1
43
0.0
10
-4.0608705784051153
20
3.4143700787401579
10
-4.4521407480314972
20
3.4143700787401579
42
0.99999999999999989
10
-4.4521407480314954
20
3.335629921259843
10
-4.0608705784051153
20
3.335629921259843
42
0.6831300510639744
10
-3.859158949153942
20
3.335629921259843
10
-3.4678887795275601
20
3.335629921259843
42
0.99999999999999989
10
-3.4678887795275601
20
3.4143700787401579
10
-3.859158949153942
20
3.4143700787401579
42
0.6831300510639744
0
LWPOLYLINE
5
109
100
AcDbEntity
8
0
100
AcDbPolyline
90
8
70
1
43
0.0
10
-3.3501476377952746
20
3.603346456692913
10
-3.3501476377952746
20
3.0679133858267704
42
0.41421356237309503
10
-3.3422736220472435
20
3.0600393700787394
10
-3.0332185039370079
20
3.0600393700787394
42
0.41421356237309503
10
-3.0253444881889768
20
3.06791338582677
10
-3.0253444881889764
20
3.603346456692913
42
0.41421356237309503
10
-3.0332185039370079
20
3.6112204724409445
10
-3.3422736220472435
20
3.6112204724409445
42
0.41421356237309503
0
LWPOLYLINE
5
110
100
AcDbEntity
8
0
100
AcDbPolyline
90
8
70
1
43
0.0
10
-0.74434055118110221
20
3.6309055118110232
10
-0.74434055118110243
20
3.1190944881889755
42
0.41421356237310025
10
-0.72465551181102328
20
3.0994094488188968
10
-0.21284448818897581
20
3.0994094488188968
42
0.41421356237308854
10
-0.19315944881889757
20
3.1190944881889755
10
-0.19315944881889763
20
3.6309055118110232
42
0.4142135623730866
10
-0.21284448818897581
20
3.6505905511811023
10
-0.72465551181102361
20
3.6505905511811032
42
0.41421356237309892
0
LWPOLYLINE
5
111
100
AcDbEntity
8
0
100
AcDbPolyline
90
8
70
1
43
0.0
10
-4.5994094488188981
20
3.1190944881889755
10
-4.599409448818899
20
3.6309055118110232
42
0.41421356237304302
10
-4.6190944881889768
20
3.6505905511811032
10
-5.4121555118110232
20
3.6505905511811023
42
0.4142135623730222
10
-5.4318405511811036
20
3.6309055118110232
10
-5.4318405511811036
20
3.1190944881889755
42
0.41421356237304302
10
-5.4121555118110232
20
3.0994094488188968
10
-4.6190944881889768
20
3.0994094488188972
42
0.41421356237311585
0
LWPOLYLINE
5
112
100
AcDbEntity
8
0
100
AcDbPolyline
90
8
70
1
43
0.0
10
-5.5565944881889759
20
2.9005905511811032
10
-6.0684055118110232
20
2.9005905511811019
42
0.41421356237308982
10
-6.0880905511811036
20
2.8809055118110232
10
-6.0880905511811036
20
2.3690944881889764
42
0.41421356237308982
10
-6.0684055118110232
20
2.3494094488188977
10
-5.5565944881889759
20
2.3494094488188972
42
0.41421356237311585
10
-5.5369094488188964
20
2.3690944881889764
10
-5.5369094488188964
20
2.8809055118110232
42
0.41421356237311063
0
LWPOLYLINE
5
113
100
AcDbEntity
8
0
100
AcDbPolyline
90
8
70
1
43
0.0
10
-7.693159448818899
20
3.1190944881889755
10
-7.6931594488189008
20
3.6309055118110232
42
0.41421356237306384
10
-7.7128444881889768
20
3.6505905511811032
10
-8.2246555118110223
20
3.6505905511811023
42
0.4142135623730534
10
-8.2443405511811019
20
3.6309055118110232
10
-8.2443405511811036
20
3.1190944881889755
42
0.41421356237312101
10
-8.2246555118110223
20
3.0994094488188964
10
-7.7128444881889768
20
3.0994094488188955
42
0.41421356237304818
0
LWPOLYLINE
5
114
100
AcDbEntity
8
0
100
AcDbPolyline
90
8
70
1
43
0.0
10
-8.6306594488188964
20
3.1190944881889755
10
-8.6306594488188964
20
3.6309055118110232
42
0.41421356237311585
10
-8.6503444881889759
20
3.6505905511811036
10
-9.1621555118110241
20
3.6505905511811019
42
0.41421356237309503
10
-9.1818405511811019
20
3.6309055118110232
10
-9.1818405511811036
20
3.1190944881889755
42
0.41421356237311063
10
-9.1621555118110241
20
3.0994094488188968
10
-8.6503444881889742
20
3.0994094488188959
42
0.4142135623730846
0
LWPOLYLINE
5
115
100
AcDbEntity
8
0
100
AcDbPolyline
90
8
70
1
43
0.0
10
-7.5684055118110241
20
2.3494094488188981
10
-7.0565944881889768
20
2.3494094488188968
42
0.41421356237310025
10
-7.0369094488188972
20
2.3690944881889764
10
-7.0369094488188972
20
2.8809055118110232
42
0.41421356237311585
10
-7.0565944881889768
20
2.9005905511811032
10
-7.5684055118110241
20
2.900590551181101
42
0.41421356237310025
10
-7.5880905511811045
20
2.8809055118110232
10
-7.5880905511811045
20
2.3690944881889764
42
0.41421356237310025
0
LWPOLYLINE
5
116
100
AcDbEntity
8
0
100
AcDbPolyline
90
8
70
1
43
0.0
10
-8.3184055118110223
20
2.3494094488188968
10
-7.8065944881889751
20
2.3494094488188972
42
0.41421356237307422
10
-7.7869094488188981
20
2.3690944881889764
10
-7.7869094488188981
20
2.8809055118110232
42
0.41421356237306384
10
-7.8065944881889751
20
2.9005905511811041
10
-8.3184055118110223
20
2.9005905511811023
42
0.41421356237310025
10
-8.3380905511811019
20
2.8809055118110232
10
-8.3380905511811019
20
2.3690944881889764
42
0.41421356237314189
0
LWPOLYLINE
5
117
100
AcDbEntity
8
0
100
AcDbPolyline
90
8
70
1
43
0.0
10
-9.0880905511811036
20
2.8809055118110232
10
-9.0880905511811054
20
2.3690944881889764
42
0.41421356237310025
10
-9.0684055118110241
20
2.3494094488188968
10
-8.5565944881889759
20
2.3494094488188972
42
0.41421356237307422
10
-8.5369094488188981
20
2.3690944881889764
10
-8.5369094488188981
20
2.8809055118110232
42
0.41421356237306384
10
-8.5565944881889759
20
2.9005905511811032
10
-9.0684055118110241
20
2.900590551181101
42
0.41421356237310025
0
LWPOLYLINE
5
118
100
AcDbEntity
8
0
100
AcDbPolyline
90
8
70
1
43
0.0
10
-6.3065944881889759
20
2.9005905511811032
10
-6.8184055118110232
20
2.9005905511811019
42
0.41421356237313145
10
-6.8380905511811028
20
2.8809055118110232
10
-6.838090551181101
20
2.3690944881889764
42
0.4142135623730222
10
-6.8184055118110232
20
2.3494094488188977
10
-6.3065944881889751
20
2.3494094488188977
42
0.41421356237310542
10
-6.2869094488188972
20
2.3690944881889764
10
-6.2869094488188972
20
2.8809055118110232
42
0.414213562373069
0
LWPOLYLINE
5
119
100
AcDbEntity
8
0
100
AcDbPolyline
90
8
70
1
43
0.0
10
-5.3184055118110232
20
2.3494094488188972
10
-4.8065944881889768
20
2.3494094488188977
42
0.41421356237310542
10
-4.7869094488188981
20
2.3690944881889764
10
-4.7869094488188981
20
2.8809055118110232
42
0.41421356237311585
10
-4.8065944881889768
20
2.9005905511811019
10
-5.3184055118110232
20
2.9005905511811019
42
0.41421356237307422
10
-5.3380905511811019
20
2.8809055118110232
10
-5.3380905511811028
20
2.3690944881889764
42
0.41421356237309503
0
LWPOLYLINE
5
120
100
AcDbEntity
8
0
100
AcDbPolyline
90
8
70
1
43
0.0
10
-9.4003444881889759
20
2.9005905511811032
10
-9.9121555118110241
20
2.900590551181101
42
0.41421356237310025
10
-9.9318405511811036
20
2.8809055118110232
10
-9.9318405511811036
20
2.3690944881889764
42
0.41421356237310025
10
-9.9121555118110241
20
2.3494094488188981
10
-9.4003444881889759
20
2.3494094488188968
42
0.41421356237310025
10
-9.3806594488188981
20
2.3690944881889764
10
-9.3806594488188981
20
2.8809055118110232
42
0.41421356237311585
0
LWPOLYLINE
5
121
100
AcDbEntity
8
0
100
AcDbPolyline
90
8
70
1
43
0.0
10
-4.5684055118110232
20
2.3494094488188972
10
-4.0565944881889759
20
2.3494094488188977
42
0.41421356237310542
10
-4.0369094488188972
20
2.3690944881889764
10
-4.0369094488188972
20
2.8809055118110232
42
0.41421356237311585
10
-4.0565944881889759
20
2.9005905511811019
10
-4.5684055118110232
20
2.9005905511811019
42
0.41421356237307422
10
-4.5880905511811019
20
2.8809055118110232
10
-4.5880905511811019
20
2.3690944881889764
42
0.41421356237309503
0
LWPOLYLINE
5
122
100
AcDbEntity
8
0
100
AcDbPolyline
90
8
70
1
43
0.0
10
-6.4434055118110258
20
1.5994094488188964
10
-5.9315944881889759
20
1.5994094488188975
42
0.41421356237308982
10
-5.9119094488188972
20
1.6190944881889762
10
-5.9119094488188972
20
2.1309055118110241
42
0.41421356237310025
10
-5.9315944881889759
20
2.1505905511811032
10
-6.4434055118110249
20
2.1505905511811019
42
0.41421356237312101
10
-6.4630905511811036
20
2.1309055118110241
10
-6.4630905511811036
20
1.6190944881889762
42
0.41421356237312623
0
LWPOLYLINE
5
123
100
AcDbEntity
8
0
100
AcDbPolyline
90
8
70
1
43
0.0
10
-8.9315944881889759
20
2.1505905511811028
10
-9.4434055118110241
20
2.1505905511811019
42
0.41421356237312101
10
-9.4630905511811019
20
2.1309055118110241
10
-9.4630905511811019
20
1.6190944881889762
42
0.41421356237312623
10
-9.4434055118110258
20
1.5994094488188964
10
-8.9315944881889759
20
1.5994094488188961
42
0.41421356237304818
10
-8.9119094488188981
20
1.6190944881889762
10
-8.9119094488188999
20
2.1309055118110241
42
0.41421356237308982
0
LWPOLYLINE
5
124
100
AcDbEntity
8
0
100
AcDbPolyline
90
8
70
1
43
0.0
10
-3.4630905511811023
20
2.1309055118110241
10
-3.4630905511811032
20
1.6190944881889762
42
0.41421356237306384
10
-3.4434055118110245
20
1.5994094488188972
10
-2.9315944881889764
20
1.5994094488188975
42
0.4142135623730846
10
-2.9119094488188977
20
1.6190944881889762
10
-2.9119094488188977
20
2.1309055118110241
42
0.41421356237311063
10
-2.9315944881889764
20
2.1505905511811023
10
-3.4434055118110241
20
2.1505905511811023
42
0.41421356237309503
0
LWPOLYLINE
5
125
100
AcDbEntity
8
0
100
AcDbPolyline
90
8
70
1
43
0.0
10
-3.6619094488188977
20
1.6190944881889762
10
-3.6619094488188972
20
2.1309055118110241
42
0.41421356237305862
10
-3.6815944881889764
20
2.1505905511811032
10
-4.1934055118110241
20
2.1505905511811023
42
0.41421356237309503
10
-4.2130905511811028
20
2.1309055118110241
10
-4.2130905511811028
20
1.6190944881889762
42
0.41421356237310542
10
-4.1934055118110241
20
1.5994094488188972
10
-3.6815944881889764
20
1.5994094488188979
42
0.41421356237311585
0
LWPOLYLINE
5
126
100
AcDbEntity
8
0
100
AcDbPolyline
90
8
70
1
43
0.0
10
-1.4315944881889764
20
2.1505905511811023
10
-1.9434055118110236
20
2.1505905511811023
42
0.41421356237311063
10
-1.9630905511811023
20
2.1309055118110241
10
-1.9630905511811023
20
1.6190944881889762
42
0.41421356237308982
10
-1.9434055118110238
20
1.5994094488188975
10
-1.4315944881889762
20
1.5994094488188975
42
0.4142135623730846
10
-1.4119094488188981
20
1.6190944881889762
10
-1.4119094488188979
20
2.1309055118110241
42
0.41421356237308721
0
LWPOLYLINE
5
127
100
AcDbEntity
8
0
100
AcDbPolyline
90
8
70
1
43
0.0
10
-4.4315944881889768
20
2.1505905511811032
10
-4.9434055118110232
20
2.1505905511811023
42
0.41421356237306384
10
-4.9630905511811028
20
2.1309055118110241
10
-4.9630905511811028
20
1.6190944881889762
42
0.41421356237307422
10
-4.9434055118110232
20
1.5994094488188972
10
-4.4315944881889768
20
1.5994094488188975
42
0.41421356237308982
10
-4.4119094488188972
20
1.6190944881889762
10
-4.4119094488188972
20
2.1309055118110241
42
0.41421356237310025
0
LWPOLYLINE
5
128
100
AcDbEntity
8
0
100
AcDbPolyline
90
8
70
1
43
0.0
10
-2.1815944881889768
20
2.1505905511811023
10
-2.6934055118110232
20
2.1505905511811023
42
0.41421356237311063
10
-2.7130905511811019
20
2.1309055118110241
10
-2.7130905511811019
20
1.6190944881889762
42
0.41421356237310025
10
-2.6934055118110227
20
1.5994094488188975
10
-2.1815944881889768
20
1.5994094488188975
42
0.41421356237307944
10
-2.1619094488188977
20
1.6190944881889762
10
-2.1619094488188977
20
2.1309055118110241
42
0.41421356237309503
0
LWPOLYLINE
5
129
100
AcDbEntity
8
0
100
AcDbPolyline
90
8
70
1
43
0.0
10
-8.6934055118110241
20
1.5994094488188964
10
-8.1815944881889759
20
1.5994094488188961
42
0.41421356237304818
10
-8.1619094488188981
20
1.6190944881889762
10
-8.1619094488188999
20
2.1309055118110241
42
0.41421356237308982
10
-8.1815944881889759
20
2.1505905511811028
10
-8.6934055118110241
20
2.1505905511811019
42
0.41421356237312101
10
-8.7130905511811019
20
2.1309055118110241
10
-8.7130905511811019
20
1.6190944881889762
42
0.41421356237312623
0
LWPOLYLINE
5
130
100
AcDbEntity
8
0
100
AcDbPolyline
90
8
70
1
43
0.0
10
-7.2244094488188972
20
0.86909448818897617
10
-7.2244094488188972
20
1.3809055118110236
42
0.41421356237314444
10
-7.2440944881889768
20
1.4005905511811032
10
-7.7559055118110241
20
1.400590551181103
42
0.41421356237310025
10
-7.7755905511811028
20
1.3809055118110236
10
-7.7755905511811028
20
0.86909448818897628
42
0.41421356237310281
10
-7.7559055118110241
20
0.84940944881889724
10
-7.2440944881889768
20
0.84940944881889813
42
0.41421356237312101
0
LWPOLYLINE
5
131
100
AcDbEntity
8
0
100
AcDbPolyline
90
8
70
1
43
0.0
10
-8.5255905511811036
20
1.3809055118110236
10
-8.5255905511811036
20
0.86909448818897628
42
0.41421356237310281
10
-8.5059055118110241
20
0.8494094488188968
10
-7.9940944881889786
20
0.84940944881889713
42
0.41421356237307422
10
-7.9744094488188981
20
0.86909448818897617
10
-7.9744094488188981
20
1.3809055118110236
42
0.41421356237307422
10
-7.9940944881889786
20
1.4005905511811025
10
-8.5059055118110241
20
1.400590551181103
42
0.41421356237310025
0
LWPOLYLINE
5
132
100
AcDbEntity
8
0
100
AcDbPolyline
90
8
70
1
43
0.0
10
-0.91215551181102339
20
1.5994094488188975
10
-0.1798720472440945
20
1.5994094488188975
42
0.41421356237307455
10
-0.16018700787401582
20
1.6190944881889762
10
-0.16018700787401552
20
2.1309055118110241
42
0.41421356237308299
10
-0.17987204724409453
20
2.1505905511811023
10
-0.9121555118110235
20
2.1505905511811023
42
0.41421356237311063
10
-0.93184055118110221
20
2.1309055118110241
10
-0.93184055118110221
20
1.6190944881889762
42
0.41421356237310802
0
LWPOLYLINE
5
133
100
AcDbEntity
8
0
100
AcDbPolyline
90
8
70
1
43
0.0
10
-10.211122047244094
20
1.4005905511811034
10
-10.250492125984252
20
1.400590551181103
42
0.41421356237310025
10
-10.270177165354331
20
1.3809055118110236
10
-10.270177165354331
20
0.86909448818897617
42
0.41421356237310025
10
-10.250492125984252
20
0.8494094488188968
10
-10.211122047244094
20
0.84940944881889713
42
0.41421356237307422
10
-10.191437007874017
20
0.86909448818897617
10
-10.191437007874017
20
1.3809055118110236
42
0.4142135623730846
0
LWPOLYLINE
5
134
100
AcDbEntity
8
0
100
AcDbPolyline
90
8
70
1
43
0.0
10
-9.2559055118110241
20
0.8494094488188968
10
-8.7440944881889759
20
0.84940944881889779
42
0.41421356237312623
10
-8.7244094488188964
20
0.86909448818897617
10
-8.7244094488188964
20
1.3809055118110236
42
0.41421356237310025
10
-8.7440944881889759
20
1.400590551181103
10
-9.2559055118110241
20
1.4005905511811028
42
0.41421356237309764
10
-9.2755905511811019
20
1.3809055118110236
10
-9.2755905511811019
20
0.86909448818897628
42
0.41421356237314444
0
LWPOLYLINE
5
135
100
AcDbEntity
8
0
100
AcDbPolyline
90
8
70
1
43
0.0
10
-9.4744094488188981
20
0.86909448818897617
10
-9.4744094488188981
20
1.3809055118110236
42
0.41421356237306384
10
-9.4940944881889759
20
1.4005905511811019
10
-10.005905511811026
20
1.4005905511811041
42
0.41421356237305079
10
-10.025590551181104
20
1.3809055118110236
10
-10.025590551181102
20
0.86909448818897628
42
0.41421356237308721
10
-10.005905511811026
20
0.84940944881889779
10
-9.4940944881889777
20
0.84940944881889713
42
0.41421356237307422
0
LWPOLYLINE
5
136
100
AcDbEntity
8
0
100
AcDbPolyline
90
8
70
1
43
0.0
10
-1.0932578740157481
20
2.1505905511811023
10
-1.1326279527559056
20
2.1505905511811023
42
0.41421356237308204
10
-1.1523129921259843
20
2.1309055118110241
10
-1.1523129921259838
20
1.6190944881889762
42
0.41421356237310542
10
-1.1326279527559047
20
1.5994094488188979
10
-1.0932578740157481
20
1.5994094488188975
42
0.41421356237307683
10
-1.0735728346456697
20
1.6190944881889757
10
-1.0735728346456694
20
2.1309055118110241
42
0.41421356237307944
0
LWPOLYLINE
5
137
100
AcDbEntity
8
0
100
AcDbPolyline
90
8
70
1
43
0.0
10
-10.963090551181104
20
1.3809055118110236
10
-10.963090551181104
20
0.86909448818897628
42
0.41421356237307422
10
-10.943405511811022
20
0.84940944881889724
10
-10.431594488188976
20
0.84940944881889813
42
0.41421356237312101
10
-10.411909448818896
20
0.86909448818897617
10
-10.411909448818896
20
1.3809055118110236
42
0.41421356237314444
10
-10.431594488188976
20
1.4005905511811025
10
-10.943405511811022
20
1.4005905511811034
42
0.4142135623730846
0
LWPOLYLINE
5
138
100
AcDbEntity
8
0
100
AcDbPolyline
90
8
70
1
43
0.0
10
-4.9744094488188981
20
0.86909448818897617
10
-4.9744094488188972
20
1.3809055118110236
42
0.41421356237307161
10
-4.9940944881889759
20
1.4005905511811025
10
-5.5059055118110232
20
1.4005905511811025
42
0.41421356237309243
10
-5.5255905511811019
20
1.3809055118110236
10
-5.5255905511811019
20
0.86909448818897628
42
0.41421356237309503
10
-5.5059055118110232
20
0.84940944881889724
10
-4.9940944881889751
20
0.84940944881889768
42
0.41421356237307683
0
LWPOLYLINE
5
139
100
AcDbEntity
8
0
100
AcDbPolyline
90
8
70
1
43
0.0
10
-5.7440944881889768
20
1.4005905511811025
10
-6.2559055118110232
20
1.4005905511811025
42
0.41421356237309243
10
-6.2755905511811028
20
1.3809055118110236
10
-6.2755905511811028
20
0.86909448818897617
42
0.41421356237309243
10
-6.2559055118110232
20
0.84940944881889724
10
-5.7440944881889759
20
0.84940944881889768
42
0.41421356237307683
10
-5.724409448818899
20
0.86909448818897617
10
-5.7244094488188972
20
1.3809055118110236
42
0.41421356237307161
0
LWPOLYLINE
5
140
100
AcDbEntity
8
0
100
AcDbPolyline
90
8
70
1
43
0.0
10
-1.7559055118110238
20
0.84940944881889768
10
-1.2440944881889764
20
0.84940944881889779
42
0.4142135623730846
10
-1.2244094488188977
20
0.86909448818897617
10
-1.2244094488188972
20
1.3809055118110236
42
0.41421356237309243
10
-1.2440944881889764
20
1.4005905511811028
10
-1.7559055118110234
20
1.4005905511811025
42
0.41421356237309503
10
-1.7755905511811025
20
1.3809055118110236
10
-1.7755905511811025
20
0.86909448818897628
42
0.4142135623730846
0
LWPOLYLINE
5
141
100
AcDbEntity
8
0
100
AcDbPolyline
90
8
70
1
43
0.0
10
-2.7244094488188977
20
0.86909448818897617
10
-2.7244094488188981
20
1.3809055118110236
42
0.41421356237308204
10
-2.7440944881889755
20
1.4005905511811025
10
-3.2559055118110245
20
1.4005905511811025
42
0.41421356237307683
10
-3.2755905511811023
20
1.3809055118110236
10
-3.2755905511811028
20
0.86909448818897628
42
0.41421356237306384
10
-3.2559055118110245
20
0.84940944881889724
10
-2.7440944881889764
20
0.84940944881889779
42
0.41421356237308982
0
LWPOLYLINE
5
142
100
AcDbEntity
8
0
100
AcDbPolyline
90
8
70
1
43
0.0
10
-7.0059055118110223
20
0.8494094488188968
10
-6.4940944881889777
20
0.84940944881889713
42
0.41421356237307422
10
-6.4744094488188972
20
0.86909448818897617
10
-6.4744094488188972
20
1.3809055118110236
42
0.41421356237307422
10
-6.4940944881889777
20
1.4005905511811025
10
-7.0059055118110223
20
1.4005905511811028
42
0.41421356237309764
10
-7.025590551181101
20
1.3809055118110236
10
-7.025590551181101
20
0.86909448818897628
42
0.41421356237314444
0
LWPOLYLINE
5
143
100
AcDbEntity
8
0
100
AcDbPolyline
90
8
70
1
43
0.0
10
-4.7559055118110232
20
0.84940944881889724
10
-4.2440944881889768
20
0.84940944881889768
42
0.41421356237310802
10
-4.2244094488188972
20
0.86909448818897617
10
-4.2244094488188972
20
1.3809055118110236
42
0.41421356237309243
10
-4.2440944881889768
20
1.4005905511811025
10
-4.7559055118110232
20
1.4005905511811028
42
0.41421356237308721
10
-4.7755905511811019
20
1.3809055118110236
10
-4.7755905511811019
20
0.86909448818897628
42
0.41421356237307422
0
LWPOLYLINE
5
144
100
AcDbEntity
8
0
100
AcDbPolyline
90
8
70
1
43
0.0
10
-2.5255905511811023
20
1.3809055118110236
10
-2.5255905511811023
20
0.86909448818897628
42
0.41421356237307944
10
-2.5059055118110241
20
0.84940944881889768
10
-1.9940944881889766
20
0.84940944881889779
42
0.41421356237308982
10
-1.9744094488188981
20
0.86909448818897617
10
-1.9744094488188983
20
1.3809055118110236
42
0.41421356237309243
10
-1.9940944881889766
20
1.4005905511811025
10
-2.5059055118110241
20
1.4005905511811025
42
0.41421356237309503
0
LWPOLYLINE
5
145
100
AcDbEntity
8
0
100
AcDbPolyline
90
8
70
1
43
0.0
10
-11.183562992125987
20
1.3809055118110236
10
-11.183562992125987
20
0.86909448818897628
42
0.41421356237307422
10
-11.163877952755906
20
0.84940944881889724
10
-11.124507874015748
20
0.84940944881889779
42
0.41421356237312623
10
-11.104822834645669
20
0.86909448818897617
10
-11.104822834645669
20
1.3809055118110236
42
0.41421356237310025
10
-11.124507874015748
20
1.4005905511811025
10
-11.163877952755906
20
1.4005905511811034
42
0.4142135623730846
0
LWPOLYLINE
5
146
100
AcDbEntity
8
0
100
AcDbPolyline
90
8
70
1
43
0.0
10
-0.30659448818897583
20
1.4005905511811025
10
-0.81840551181102372
20
1.4005905511811025
42
0.41421356237309243
10
-0.83809055118110232
20
1.3809055118110236
10
-0.83809055118110232
20
0.86909448818897617
42
0.41421356237308982
10
-0.81840551181102328
20
0.84940944881889779
10
-0.30659448818897639
20
0.84940944881889779
42
0.41421356237309892
10
-0.28690944881889779
20
0.86909448818897617
10
-0.28690944881889752
20
1.3809055118110236
42
0.4142135623730846
0
LWPOLYLINE
5
147
100
AcDbEntity
8
0
100
AcDbPolyline
90
8
70
1
43
0.0
10
-3.4940944881889759
20
1.4005905511811025
10
-4.0059055118110232
20
1.4005905511811025
42
0.41421356237309243
10
-4.0255905511811028
20
1.3809055118110236
10
-4.0255905511811028
20
0.86909448818897617
42
0.41421356237309243
10
-4.0059055118110232
20
0.84940944881889724
10
-3.4940944881889759
20
0.84940944881889802
42
0.41421356237313406
10
-3.4744094488188977
20
0.86909448818897617
10
-3.4744094488188977
20
1.3809055118110236
42
0.41421356237306123
0
LWPOLYLINE
5
148
100
AcDbEntity
8
0
100
AcDbPolyline
90
20
70
1
43
0.0
10
-10.837125984251967
20
0.65059055118110221
10
-10.837125984251967
20
0.67027559055118102
42
0.41421356237314577
10
-10.856811023622047
20
0.68996062992126062
10
-11.083188976377951
20
0.68996062992125962
42
0.41421356237313145
10
-11.10287401574803
20
0.67027559055118058
10
-11.10287401574803
20
0.65059055118110221
10
-11.130905511811024
20
0.65059055118110298
42
0.41421356237310675
10
-11.150590551181104
20
0.63090551181102328
10
-11.150590551181104
20
0.11909448818897636
42
0.41421356237314544
10
-11.130905511811024
20
0.099409448818896753
10
-9.8690944881889759
20
0.099409448818898197
42
0.41421356237312529
10
-9.8494094488188981
20
0.11909448818897646
10
-9.8494094488188964
20
0.63090551181102361
42
0.41421356237312362
10
-9.8690944881889759
20
0.65059055118110309
10
-9.8971259842519679
20
0.65059055118110221
10
-9.8971259842519679
20
0.67027559055118102
42
0.41421356237314577
10
-9.9168110236220475
20
0.68996062992126062
10
-10.143188976377951
20
0.68996062992125928
42
0.41421356237313145
10
-10.162874015748031
20
0.67027559055118058
10
-10.162874015748031
20
0.65059055118110221
0
LWPOLYLINE
5
149
100
AcDbEntity
8
0
100
AcDbPolyline
90
8
70
1
43
0.0
10
-1.0585629921259843
20
1.3809055118110236
10
-1.058562992125984
20
0.86909448818897628
42
0.41421356237309243
10
-1.038877952755906
20
0.84940944881889779
10
-0.99950787401574825
20
0.84940944881889779
42
0.41421356237310025
10
-0.97982283464566955
20
0.86909448818897617
10
-0.97982283464566944
20
1.3809055118110236
42
0.41421356237309243
10
-0.99950787401574825
20
1.4005905511811025
10
-1.0388779527559053
20
1.4005905511811025
42
0.41421356237309243
0
LWPOLYLINE
5
150
100
AcDbEntity
8
0
100
AcDbPolyline
90
8
70
1
43
0.0
10
-0.12549212598425252
20
0.84940944881889779
10
-0.086122047244094502
20
0.84940944881889779
42
0.41421356237309948
10
-0.066437007874015894
20
0.86909448818897617
10
-0.066437007874015644
20
1.3809055118110236
42
0.41421356237309243
10
-0.086122047244094474
20
1.4005905511811025
10
-0.125492125984252
20
1.4005905511811025
42
0.41421356237309537
10
-0.14517716535433067
20
1.3809055118110236
10
-0.1451771653543307
20
0.86909448818897628
42
0.41421356237308005
0
LWPOLYLINE
5
151
100
AcDbEntity
8
0
100
AcDbPolyline
90
8
70
1
43
0.0
10
-6.849409448818899
20
0.11909448818897646
10
-6.8494094488188972
20
0.63090551181102361
42
0.41421356237312362
10
-6.8690944881889777
20
0.65059055118110309
10
-7.3809055118110223
20
0.65059055118110298
42
0.41421356237310675
10
-7.4005905511811019
20
0.63090551181102328
10
-7.4005905511811019
20
0.11909448818897636
42
0.41421356237314544
10
-7.3809055118110223
20
0.09940944881889735
10
-6.8690944881889777
20
0.099409448818898197
42
0.41421356237312529
0
LWPOLYLINE
5
152
100
AcDbEntity
8
0
100
AcDbPolyline
90
8
70
1
43
0.0
10
-4.3809055118110241
20
0.099409448818897392
10
-3.8690944881889764
20
0.099409448818897711
42
0.41421356237312201
10
-3.8494094488188981
20
0.11909448818897646
10
-3.8494094488188972
20
0.63090551181102328
42
0.41421356237306384
10
-3.8690944881889764
20
0.65059055118110298
10
-4.3809055118110241
20
0.65059055118110265
42
0.41421356237310025
10
-4.4005905511811028
20
0.63090551181102328
10
-4.4005905511811028
20
0.11909448818897636
42
0.41421356237309437
0
LWPOLYLINE
5
153
100
AcDbEntity
8
0
100
AcDbPolyline
90
8
70
1
43
0.0
10
-5.1505905511811019
20
0.63090551181102328
10
-5.1505905511811019
20
0.11909448818897636
42
0.41421356237309437
10
-5.1309055118110232
20
0.099409448818897392
10
-4.6190944881889768
20
0.099409448818897433
42
0.41421356237312201
10
-4.5994094488188981
20
0.11909448818897646
10
-4.5994094488188972
20
0.63090551181102361
42
0.41421356237305862
10
-4.6190944881889768
20
0.65059055118110298
10
-5.1309055118110232
20
0.65059055118110176
42
0.41421356237310936
0
LWPOLYLINE
5
154
100
AcDbEntity
8
0
100
AcDbPolyline
90
8
70
1
43
0.0
10
-9.1190944881889759
20
0.65059055118110165
10
-9.6309055118110258
20
0.65059055118110243
42
0.41421356237308854
10
-9.6505905511811019
20
0.63090551181102328
10
-9.6505905511811019
20
0.11909448818897636
42
0.41421356237307294
10
-9.6309055118110258
20
0.099409448818897433
10
-9.1190944881889759
20
0.099409448818897628
42
0.41421356237312101
10
-9.0994094488188964
20
0.11909448818897636
10
-9.0994094488188964
20
0.63090551181102361
42
0.41421356237312235
0
LWPOLYLINE
5
155
100
AcDbEntity
8
0
100
AcDbPolyline
90
8
70
1
43
0.0
10
-8.3690944881889759
20
0.65059055118110176
10
-8.8809055118110241
20
0.65059055118110243
42
0.41421356237315093
10
-8.9005905511811001
20
0.63090551181102328
10
-8.9005905511811019
20
0.11909448818897636
42
0.41421356237310053
10
-8.8809055118110241
20
0.099409448818896975
10
-8.3690944881889759
20
0.099409448818897628
42
0.41421356237312101
10
-8.3494094488188946
20
0.11909448818897636
10
-8.3494094488188964
20
0.63090551181102361
42
0.41421356237312362
0
LWPOLYLINE
5
156
100
AcDbEntity
8
0
100
AcDbPolyline
90
8
70
1
43
0.0
10
-6.6309055118110232
20
0.099409448818896906
10
-6.1190944881889768
20
0.099409448818897309
42
0.41421356237307616
10
-6.0994094488188981
20
0.11909448818897646
10
-6.0994094488188981
20
0.63090551181102328
42
0.41421356237308071
10
-6.1190944881889768
20
0.65059055118110265
10
-6.6309055118110232
20
0.65059055118110165
42
0.41421356237312756
10
-6.6505905511811028
20
0.63090551181102328
10
-6.6505905511811028
20
0.11909448818897636
42
0.41421356237310153
0
LWPOLYLINE
5
157
100
AcDbEntity
8
0
100
AcDbPolyline
90
8
70
1
43
0.0
10
-7.599409448818899
20
0.11909448818897646
10
-7.5994094488188981
20
0.63090551181102361
42
0.41421356237312362
10
-7.6190944881889786
20
0.65059055118110309
10
-8.1309055118110241
20
0.65059055118110165
42
0.41421356237312756
10
-8.1505905511811036
20
0.63090551181102328
10
-8.1505905511811001
20
0.11909448818897636
42
0.41421356237308493
10
-8.1309055118110241
20
0.09940944881889735
10
-7.6190944881889786
20
0.099409448818898197
42
0.41421356237312529
0
LWPOLYLINE
5
158
100
AcDbEntity
8
0
100
AcDbPolyline
90
8
70
1
43
0.0
10
-3.0994094488188968
20
0.11909448818897646
10
-3.0994094488188968
20
0.63090551181102361
42
0.41421356237307944
10
-3.1190944881889759
20
0.65059055118110221
10
-3.6309055118110232
20
0.65059055118110221
42
0.41421356237310414
10
-3.6505905511811032
20
0.63090551181102328
10
-3.6505905511811032
20
0.11909448818897636
42
0.41421356237310447
10
-3.6309055118110232
20
0.099409448818897406
10
-3.1190944881889751
20
0.099409448818897517
42
0.4142135623730937
0
LWPOLYLINE
5
159
100
AcDbEntity
8
0
100
AcDbPolyline
90
8
70
1
43
0.0
10
-5.3690944881889759
20
0.65059055118110265
10
-5.8809055118110232
20
0.65059055118110243
42
0.41421356237309764
10
-5.9005905511811019
20
0.63090551181102328
10
-5.9005905511811019
20
0.11909448818897646
42
0.41421356237310675
10
-5.8809055118110232
20
0.099409448818898044
10
-5.3690944881889759
20
0.099409448818897628
42
0.41421356237307355
10
-5.3494094488188972
20
0.11909448818897646
10
-5.3494094488188972
20
0.63090551181102361
42
0.41421356237307422
0
LWPOLYLINE
5
160
100
AcDbEntity
8
0
100
AcDbPolyline
90
8
70
1
43
0.0
10
-2.1505905511811023
20
0.63090551181102328
10
-2.1505905511811023
20
0.11909448818897636
42
0.41421356237310902
10
-2.1309055118110241
20
0.099409448818897808
10
-1.6190944881889757
20
0.099409448818897517
42
0.4142135623730937
10
-1.5994094488188975
20
0.11909448818897646
10
-1.5994094488188975
20
0.63090551181102361
42
0.41421356237307422
10
-1.6190944881889762
20
0.65059055118110221
10
-2.1309055118110241
20
0.65059055118110243
42
0.41421356237310802
0
LWPOLYLINE
5
161
100
AcDbEntity
8
0
100
AcDbPolyline
90
8
70
1
43
0.0
10
-0.86909448818897617
20
0.65059055118110221
10
-1.3809055118110236
20
0.65059055118110232
42
0.41421356237310153
10
-1.4005905511811025
20
0.63090551181102328
10
-1.4005905511811025
20
0.11909448818897636
42
0.41421356237309537
10
-1.3809055118110236
20
0.099409448818897669
10
-0.86909448818897628
20
0.099409448818897655
42
0.41421356237308787
10
-0.84940944881889779
20
0.11909448818897636
10
-0.84940944881889779
20
0.63090551181102361
42
0.41421356237310025
0
LWPOLYLINE
5
162
100
AcDbEntity
8
0
100
AcDbPolyline
90
8
70
1
43
0.0
10
-0.63090551181102328
20
0.099409448818897614
10
-0.11909448818897636
20
0.099409448818897628
42
0.4142135623730957
10
-0.099409448818897628
20
0.11909448818897646
10
-0.099409448818898127
20
0.63090551181102328
42
0.41421356237308982
10
-0.11909448818897575
20
0.65059055118110187
10
-0.63090551181102361
20
0.65059055118110232
42
0.41421356237309892
10
-0.65059055118110243
20
0.63090551181102328
10
-0.65059055118110221
20
0.11909448818897636
42
0.41421356237310153
0
LWPOLYLINE
5
163
100
AcDbEntity
8
0
100
AcDbPolyline
90
8
70
1
43
0.0
10
-2.3690944881889755
20
0.65059055118110243
10
-2.8809055118110232
20
0.65059055118110243
42
0.41421356237310153
10
-2.9005905511811019
20
0.63090551181102328
10
-2.9005905511811019
20
0.11909448818897636
42
0.41421356237309664
10
-2.8809055118110232
20
0.099409448818897586
10
-2.3690944881889764
20
0.099409448818897628
42
0.41421356237309698
10
-2.3494094488188977
20
0.11909448818897636
10
-2.3494094488188977
20
0.63090551181102361
42
0.41421356237308721
0
LWPOLYLINE
5
164
100
AcDbEntity
8
0
100
AcDbPolyline
90
8
70
1
43
0.0
10
-1.7869094488188977
20
2.3690944881889764
10
-1.7869094488188977
20
2.8809055118110232
42
0.41421356237310025
10
-1.8065944881889766
20
2.9005905511811019
10
-2.3184055118110241
20
2.9005905511811019
42
0.41421356237311063
10
-2.3380905511811023
20
2.8809055118110232
10
-2.3380905511811023
20
2.3690944881889764
42
0.41421356237311063
10
-2.3184055118110241
20
2.3494094488188977
10
-1.8065944881889762
20
2.3494094488188977
42
0.4142135623730846
0
LWPOLYLINE
5
165
100
AcDbEntity
8
0
100
AcDbPolyline
90
8
70
1
43
0.0
10
-3.8184055118110236
20
2.3494094488188972
10
-3.3065944881889755
20
2.3494094488188977
42
0.41421356237310542
10
-3.2869094488188968
20
2.3690944881889764
10
-3.2869094488188968
20
2.8809055118110232
42
0.41421356237311585
10
-3.3065944881889759
20
2.9005905511811019
10
-3.8184055118110236
20
2.9005905511811019
42
0.41421356237310542
10
-3.8380905511811023
20
2.8809055118110232
10
-3.8380905511811023
20
2.3690944881889764
42
0.41421356237311585
0
LWPOLYLINE
5
166
100
AcDbEntity
8
0
100
AcDbPolyline
90
8
70
1
43
0.0
10
-5.1815944881889768
20
2.1505905511811032
10
-5.6934055118110241
20
2.1505905511811023
42
0.41421356237306384
10
-5.7130905511811028
20
2.1309055118110241
10
-5.7130905511811028
20
1.6190944881889762
42
0.41421356237307422
10
-5.6934055118110241
20
1.5994094488188972
10
-5.1815944881889768
20
1.5994094488188975
42
0.41421356237308982
10
-5.1619094488188981
20
1.6190944881889762
10
-5.1619094488188981
20
2.1309055118110241
42
0.41421356237310025
0
LWPOLYLINE
5
167
100
AcDbEntity
8
0
100
AcDbPolyline
90
8
70
1
43
0.0
10
-7.4315944881889751
20
2.1505905511811023
10
-7.9434055118110232
20
2.1505905511811023
42
0.41421356237316787
10
-7.9630905511811019
20
2.1309055118110241
10
-7.9630905511811019
20
1.6190944881889762
42
0.4142135623730846
10
-7.9434055118110241
20
1.5994094488188964
10
-7.4315944881889751
20
1.5994094488188975
42
0.41421356237312101
10
-7.4119094488188946
20
1.6190944881889762
10
-7.4119094488188964
20
2.1309055118110241
42
0.41421356237312623
0
LWPOLYLINE
5
168
100
AcDbEntity
8
0
100
AcDbPolyline
90
8
70
1
43
0.0
10
-6.6619094488188972
20
1.6190944881889762
10
-6.6619094488188972
20
2.1309055118110241
42
0.41421356237312623
10
-6.6815944881889751
20
2.1505905511811036
10
-7.1934055118110249
20
2.1505905511811014
42
0.41421356237308982
10
-7.2130905511811028
20
2.1309055118110241
10
-7.2130905511811028
20
1.6190944881889762
42
0.41421356237307422
10
-7.1934055118110249
20
1.5994094488188972
10
-6.6815944881889751
20
1.5994094488188964
42
0.4142135623730846
0
LWPOLYLINE
5
169
100
AcDbEntity
8
0
100
AcDbPolyline
90
8
70
1
43
0.0
10
-2.5565944881889755
20
2.9005905511811019
10
-3.0684055118110236
20
2.9005905511811019
42
0.41421356237309503
10
-3.0880905511811023
20
2.8809055118110232
10
-3.0880905511811023
20
2.3690944881889764
42
0.41421356237308982
10
-3.0684055118110232
20
2.3494094488188977
10
-2.5565944881889764
20
2.3494094488188977
42
0.41421356237310542
10
-2.5369094488188977
20
2.3690944881889764
10
-2.5369094488188977
20
2.8809055118110232
42
0.41421356237309503
0
LWPOLYLINE
5
170
100
AcDbEntity
8
0
100
AcDbPolyline
90
4
70
1
43
0.0
10
-11.442299830809866
20
2.4090967349536458
10
-11.993480933172066
20
2.4090967349536458
10
-11.993480933172066
20
0.83429358534734654
10
-11.442299830809866
20
0.83429358534734654
0
LWPOLYLINE
5
171
100
AcDbEntity
8
0
100
AcDbPolyline
90
8
70
1
43
0.0
10
-7.2871555118110241
20
3.603346456692913
10
-7.2871555118110241
20
3.06791338582677
42
0.41421356237309503
10
-7.2792814960629926
20
3.0600393700787389
10
-6.9703494094488176
20
3.0600393700787389
42
0.41421356237309503
10
-6.9624753937007853
20
3.0679133858267709
10
-6.9624753937007862
20
3.603346456692913
42
0.41421356237309503
10
-6.9703494094488176
20
3.6112204724409445
10
-7.2792814960629926
20
3.6112204724409445
42
0.41421356237309503
0
LWPOLYLINE
5
172
100
AcDbEntity
8
0
100
AcDbPolyline
90
8
70
1
43
0.0
10
0.039441071284561792
20
-0.53371178098175176
10
-12.164372970787873
20
-0.53371178098175043
42
-0.41421356237309503
10
-12.36122336448866
20
-0.33686138728096443
10
-12.36122336448866
20
4.0556114527698641
42
-0.41421356237309503
10
-12.164372970787872
20
4.2524618464706512
10
0.039441071284561736
20
4.2524618464706512
42
-0.41421356237309503
10
0.23629146498534914
20
4.0556114527698641
10
0.23629146498534917
20
-0.33686138728096432
42
-0.41421356237309503
0
CIRCLE
5
173
100
AcDbEntity
8
0
100
AcDbCircle
10
-8.1488525311359048
20
4.0743122401714391
30
0
40
0.062007874015747581
210
0
220
0
230
1
0
CIRCLE
5
174
100
AcDbEntity
8
0
100
AcDbCircle
10
0.01877177994597834
20
-0.35556217468253887
30
0
40
0.062007874015748039
210
0
220
0
230
1
0
CIRCLE
5
175
100
AcDbEntity
8
0
100
AcDbCircle
10
-3.9760793683674045
20
4.0743122401714391
30
0
40
0.062007874015748275
210
0
220
0
230
1
0
CIRCLE
5
176
100
AcDbEntity
8
0
100
AcDbCircle
10
-3.9760793683674045
20
-0.35556217468253926
30
0
40
0.062007874015748275
210
0
220
0
230
1
0
CIRCLE
5
177
100
AcDbEntity
8
0
100
AcDbCircle
10
-12.143703679449288
20
4.0743122401714391
30
0
40
0.062007874015747581
210
0
220
0
230
1
0
CIRCLE
5
178
100
AcDbEntity
8
0
100
AcDbCircle
10
-12.143703679449288
20
-0.35556217468253865
30
0
40
0.062007874015747581
210
0
220
0
230
1
0
CIRCLE
5
179
100
AcDbEntity
8
0
100
AcDbCircle
10
0.018771779945978333
20
4.0743122401714391
30
0
40
0.062007874015748025
210
0
220
0
230
1
0
CIRCLE
5
180
100
AcDbEntity
8
0
100
AcDbCircle
10
-8.1488525311359048
20
-0.35556217468253892
30
0
40
0.062007874015747581
210
0
220
0
230
1
0
CIRCLE
5
181
100
AcDbEntity
8
0
100
AcDbCircle
10
-11.718749533320794
20
0.3745014739503682
30
0
40
0.33464566929133771
210
0
220
0
230
1
0
ENDSEC
0
SECTION
2
OBJECTS
0
DICTIONARY
5
C
100
AcDbDictionary
3
ACAD_GROUP
350
D
3
ACAD_MLINESTYLE
350
17
0
DICTIONARY
5
D
100
AcDbDictionary
0
DICTIONARY
5
1A
330
C
100
AcDbDictionary
0
DICTIONARY
5
17
100
AcDbDictionary
0
ENDSEC
0
EOF
