0
SECTION
2
HEADER
9
$INSUNITS
70
1
9
$ACADVER
1
AC1014
9
$HANDSEED
5
FFFF
0
ENDSEC
0
SECTION
2
TABLES
0
TABLE
2
VPORT
5
8
100
AcDbSymbolTable
0
ENDTAB
0
TABLE
2
LTYPE
5
5
100
AcDbSymbolTable
0
LTYPE
5
14
100
AcDbSymbolTableRecord
100
AcDbLinetypeTableRecord
2
BYBLOCK
70
0
0
LTYPE
5
15
100
AcDbSymbolTableRecord
100
AcDbLinetypeTableRecord
2
BYLAYER
70
0
0
ENDTAB
0
TABLE
2
LAYER
5
2
100
AcDbSymbolTable
70
2
0
LAYER
5
50
100
AcDbSymbolTableRecord
100
AcDbLayerTableRecord
2
0
70
0
6
CONTINUOUS
0
ENDTAB
0
TABLE
2
STYLE
5
3
100
AcDbSymbolTable
70
1
0
STYLE
5
11
100
AcDbSymbolTableRecord
100
AcDbTextStyleTableRecord
2
STANDARD
70
0
0
ENDTAB
0
TABLE
2
VIEW
5
6
100
AcDbSymbolTable
70
0
0
ENDTAB
0
TABLE
2
UCS
5
7
100
AcDbSymbolTable
70
0
0
ENDTAB
0
TABLE
2
APPID
5
9
100
AcDbSymbolTable
70
2
0
APPID
5
12
100
AcDbSymbolTableRecord
100
AcDbRegAppTableRecord
2
ACAD
70
0
0
ENDTAB
0
TABLE
2
DIMSTYLE
5
A
100
AcDbSymbolTable
70
1
0
ENDTAB
0
TABLE
2
BLOCK_RECORD
5
1
100
AcDbSymbolTable
70
1
0
BLOCK_RECORD
5
1F
100
AcDbSymbolTableRecord
100
AcDbBlockTableRecord
2
*MODEL_SPACE
0
BLOCK_RECORD
5
1B
100
AcDbSymbolTableRecord
100
AcDbBlockTableRecord
2
*PAPER_SPACE
0
ENDTAB
0
ENDSEC
0
SECTION
2
BLOCKS
0
BLOCK
5
20
100
AcDbEntity
100
AcDbBlockBegin
2
*MODEL_SPACE
0
ENDBLK
5
21
100
AcDbEntity
100
AcDbBlockEnd
0
BLOCK
5
1C
100
AcDbEntity
100
AcDbBlockBegin
2
*PAPER_SPACE
0
ENDBLK
5
1D
100
AcDbEntity
100
AcDbBlockEnd
0
ENDSEC
0
SECTION
2
ENTITIES
0
LWPOLYLINE
5
100
100
AcDbEntity
8
0
100
AcDbPolyline
90
26
70
1
43
0.0
10
-10.69365157480315
20
2.1297749937517789
10
-11.026840551181101
20
2.1297749937517776
42
0.41421356237309503
10
-11.038651574803149
20
2.1179639701297304
10
-11.038651574803149
20
1.5904049150116202
42
0.41421356237309503
10
-11.026840551181101
20
1.5785938913895725
10
-10.693651574803152
20
1.5785938913895736
42
-0.41421356237309503
10
-10.681840551181105
20
1.5667828677675257
10
-10.681840551181105
20
1.5589088520194943
42
0.41421356237312101
10
-10.662155511811024
20
1.5392238126494149
10
-10.150344488188974
20
1.539223812649414
42
0.41421356237306384
10
-10.130659448818898
20
1.5589088520194938
10
-10.130659448818898
20
1.5667828677675257
42
-0.41421356237309503
10
-10.11884842519685
20
1.5785938913895727
10
-9.785659448818901
20
1.5785938913895727
42
0.41421356237309503
10
-9.7738484251968529
20
1.5904049150116202
10
-9.7738484251968529
20
2.1179639701297304
42
0.41421356237309503
10
-9.785659448818901
20
2.129774993751778
10
-10.11884842519685
20
2.1297749937517776
42
0.41421356237309503
10
-10.130659448818898
20
2.1179639701297304
10
-10.130659448818898
20
2.1012158075014433
42
-0.49031439482587058
10
-10.145423228346457
20
2.0897798330539801
42
0.063254223929919293
10
-10.150344488188976
20
2.0904049150116202
10
-10.662155511811024
20
2.0904049150116202
42
0.063254223929919182
10
-10.667076771653544
20
2.0897798330539792
42
-0.4903143948258683
10
-10.681840551181104
20
2.1012158075014424
10
-10.681840551181102
20
2.1179639701297308
42
0.41421356237309503
0
LWPOLYLINE
5
101
100
AcDbEntity
8
0
100
AcDbPolyline
90
8
70
1
43
0.0
10
-3.3501476377952764
20
3.5392238126494151
10
-3.3501476377952764
20
3.011664757531304
42
0.41421356237309503
10
-3.3383366141732291
20
2.9998537339092572
10
-3.0371555118110227
20
2.9998537339092559
42
0.41421356237309503
10
-3.0253444881889746
20
3.011664757531304
10
-3.0253444881889755
20
3.5392238126494151
42
0.41421356237309503
10
-3.0371555118110227
20
3.5510348362714628
10
-3.3383366141732291
20
3.5510348362714619
42
0.41421356237309503
0
LWPOLYLINE
5
102
100
AcDbEntity
8
0
100
AcDbPolyline
90
8
70
1
43
0.0
10
-6.9623428948310009
20
3.0116647575313049
10
-6.9623428948310009
20
3.5392238126494151
42
0.41421356237309503
10
-6.974153918453049
20
3.5510348362714628
10
-7.2753444881889759
20
3.5510348362714619
42
0.41421356237309503
10
-7.2871555118110223
20
3.5392238126494151
10
-7.2871555118110241
20
3.011664757531304
42
0.41421356237309503
10
-7.2753444881889759
20
2.9998537339092564
10
-6.974153918453049
20
2.9998537339092577
42
0.41421356237309503
0
LWPOLYLINE
5
103
100
AcDbEntity
8
0
100
AcDbPolyline
90
8
70
1
43
0.0
10
-9.6815944881889759
20
3.7779049150116206
10
-10.193405511811024
20
3.7779049150116202
42
0.41421356237314705
10
-10.213090551181104
20
3.758219875641541
10
-10.213090551181104
20
3.2464088520194938
42
0.41421356237304302
10
-10.193405511811026
20
3.2267238126494169
10
-9.6815944881889759
20
3.2267238126494151
42
0.41421356237304302
10
-9.6619094488188981
20
3.2464088520194938
10
-9.6619094488188981
20
3.758219875641541
42
0.41421356237310542
0
LWPOLYLINE
5
104
100
AcDbEntity
8
0
100
AcDbPolyline
90
8
70
1
43
0.0
10
-10.411909448818896
20
2.4964088520194947
10
-10.411909448818896
20
3.0082198756415419
42
0.41421356237311063
10
-10.431594488188976
20
3.027904915011622
10
-10.943405511811022
20
3.0279049150116206
42
0.41421356237307422
10
-10.963090551181104
20
3.0082198756415415
10
-10.963090551181104
20
2.4964088520194943
42
0.41421356237310025
10
-10.943405511811022
20
2.4767238126494155
10
-10.431594488188976
20
2.4767238126494151
42
0.41421356237310542
0
LWPOLYLINE
5
105
100
AcDbEntity
8
0
100
AcDbPolyline
90
8
70
1
43
0.0
10
-10.963090551181104
20
3.758219875641541
10
-10.9630905511811
20
3.2464088520194938
42
0.41421356237310542
10
-10.943405511811022
20
3.2267238126494151
10
-10.431594488188974
20
3.2267238126494151
42
0.41421356237310542
10
-10.411909448818896
20
3.2464088520194938
10
-10.411909448818896
20
3.758219875641541
42
0.41421356237312623
10
-10.431594488188974
20
3.7779049150116206
10
-10.943405511811024
20
3.7779049150116206
42
0.41421356237306384
0
LWPOLYLINE
5
106
100
AcDbEntity
8
0
100
AcDbPolyline
90
8
70
1
43
0.0
10
-11.713090551181107
20
3.758219875641541
10
-11.713090551181107
20
3.2464088520194938
42
0.41421356237310542
10
-11.693405511811029
20
3.2267238126494151
10
-11.181594488188974
20
3.2267238126494151
42
0.41421356237310542
10
-11.161909448818896
20
3.2464088520194938
10
-11.161909448818896
20
3.758219875641541
42
0.41421356237312623
10
-11.181594488188974
20
3.7779049150116206
10
-11.693405511811028
20
3.7779049150116202
42
0.41421356237313667
0
LWPOLYLINE
5
107
100
AcDbEntity
8
0
100
AcDbPolyline
90
8
70
1
43
0.0
10
-6.3745514909243672
20
3.3541844425706731
10
-6.8839318967712213
20
3.3541844425706748
42
0.99999999999999989
10
-6.8839318967712213
20
3.27544428509036
10
-6.3745514909243672
20
3.27544428509036
42
0.68313005106397495
10
-6.1728398616731948
20
3.2754442850903605
10
-5.6634594558263407
20
3.27544428509036
42
0.99999999999999989
10
-5.6634594558263416
20
3.3541844425706748
10
-6.1728398616731948
20
3.3541844425706748
42
0.68313005106397706
0
LWPOLYLINE
5
108
100
AcDbEntity
8
0
100
AcDbPolyline
90
8
70
1
43
0.0
10
-4.0608705784051145
20
3.3541844425706766
10
-4.4521407480314972
20
3.3541844425706753
42
0.99999999999999989
10
-4.4521407480314954
20
3.2754442850903605
10
-4.0608705784051153
20
3.2754442850903605
42
0.6831300510639744
10
-3.859158949153942
20
3.2754442850903605
10
-3.4678887795275601
20
3.2754442850903605
42
0.99999999999999989
10
-3.4678887795275601
20
3.3541844425706753
10
-3.859158949153942
20
3.3541844425706753
42
0.68313005106396907
0
LWPOLYLINE
5
109
100
AcDbEntity
8
0
100
AcDbPolyline
90
8
70
1
43
0.0
10
-0.74434055118110221
20
3.570719875641541
10
-0.74434055118110243
20
3.0589088520194934
42
0.41421356237310025
10
-0.72465551181102328
20
3.0392238126494147
10
-0.21284448818897581
20
3.0392238126494147
42
0.41421356237308854
10
-0.19315944881889791
20
3.0589088520194934
10
-0.19315944881889763
20
3.570719875641541
42
0.4142135623730866
10
-0.21284448818897581
20
3.5904049150116202
10
-0.72465551181102361
20
3.5904049150116206
42
0.41421356237309892
0
LWPOLYLINE
5
110
100
AcDbEntity
8
0
100
AcDbPolyline
90
8
70
1
43
0.0
10
-4.5994094488188981
20
3.0589088520194934
10
-4.599409448818899
20
3.570719875641541
42
0.41421356237304302
10
-4.6190944881889768
20
3.5904049150116206
10
-5.4121555118110232
20
3.5904049150116193
42
0.41421356237301177
10
-5.4318405511811036
20
3.570719875641541
10
-5.4318405511811036
20
3.0589088520194934
42
0.41421356237304302
10
-5.4121555118110232
20
3.0392238126494147
10
-4.6190944881889768
20
3.0392238126494147
42
0.41421356237311585
0
LWPOLYLINE
5
111
100
AcDbEntity
8
0
100
AcDbPolyline
90
8
70
1
43
0.0
10
-5.5565944881889759
20
2.8404049150116211
10
-6.0684055118110241
20
2.8404049150116197
42
0.4142135623730846
10
-6.0880905511811036
20
2.8207198756415406
10
-6.0880905511811036
20
2.3089088520194938
42
0.4142135623730846
10
-6.0684055118110232
20
2.2892238126494155
10
-5.5565944881889759
20
2.2892238126494147
42
0.41421356237311585
10
-5.5369094488188964
20
2.3089088520194938
10
-5.5369094488188964
20
2.820719875641541
42
0.41421356237311063
0
LWPOLYLINE
5
112
100
AcDbEntity
8
0
100
AcDbPolyline
90
8
70
1
43
0.0
10
-7.693159448818899
20
3.0589088520194934
10
-7.6931594488189008
20
3.570719875641541
42
0.41421356237306384
10
-7.7128444881889768
20
3.5904049150116206
10
-8.2246555118110223
20
3.5904049150116206
42
0.4142135623730534
10
-8.2443405511811036
20
3.570719875641541
10
-8.2443405511811036
20
3.0589088520194934
42
0.41421356237312101
10
-8.2246555118110223
20
3.0392238126494142
10
-7.7128444881889768
20
3.0392238126494133
42
0.41421356237304302
0
LWPOLYLINE
5
113
100
AcDbEntity
8
0
100
AcDbPolyline
90
8
70
1
43
0.0
10
-8.6306594488188964
20
3.0589088520194934
10
-8.6306594488188964
20
3.570719875641541
42
0.41421356237311585
10
-8.6503444881889759
20
3.5904049150116215
10
-9.1621555118110241
20
3.5904049150116202
42
0.41421356237309503
10
-9.1818405511811019
20
3.570719875641541
10
-9.1818405511811036
20
3.0589088520194934
42
0.41421356237311063
10
-9.1621555118110241
20
3.0392238126494147
10
-8.6503444881889724
20
3.0392238126494133
42
0.41421356237306384
0
LWPOLYLINE
5
114
100
AcDbEntity
8
0
100
AcDbPolyline
90
8
70
1
43
0.0
10
-7.5684055118110241
20
2.2892238126494164
10
-7.0565944881889768
20
2.2892238126494147
42
0.41421356237309503
10
-7.0369094488188972
20
2.3089088520194938
10
-7.0369094488188972
20
2.8207198756415406
42
0.41421356237311585
10
-7.0565944881889768
20
2.8404049150116211
10
-7.5684055118110241
20
2.8404049150116188
42
0.41421356237310025
10
-7.5880905511811045
20
2.820719875641541
10
-7.5880905511811045
20
2.3089088520194943
42
0.41421356237310025
0
LWPOLYLINE
5
115
100
AcDbEntity
8
0
100
AcDbPolyline
90
8
70
1
43
0.0
10
-8.3184055118110223
20
2.2892238126494147
10
-7.8065944881889751
20
2.2892238126494147
42
0.41421356237307422
10
-7.7869094488188981
20
2.3089088520194938
10
-7.7869094488188981
20
2.8207198756415406
42
0.41421356237306384
10
-7.8065944881889751
20
2.840404915011622
10
-8.3184055118110223
20
2.8404049150116202
42
0.41421356237310025
10
-8.3380905511811019
20
2.820719875641541
10
-8.3380905511811019
20
2.3089088520194943
42
0.41421356237314189
0
LWPOLYLINE
5
116
100
AcDbEntity
8
0
100
AcDbPolyline
90
8
70
1
43
0.0
10
-9.0880905511811036
20
2.8207198756415406
10
-9.0880905511811054
20
2.3089088520194943
42
0.41421356237310025
10
-9.0684055118110241
20
2.2892238126494147
10
-8.5565944881889759
20
2.2892238126494147
42
0.41421356237307422
10
-8.5369094488188981
20
2.3089088520194938
10
-8.5369094488188981
20
2.8207198756415406
42
0.41421356237306384
10
-8.5565944881889759
20
2.8404049150116211
10
-9.0684055118110241
20
2.8404049150116188
42
0.41421356237310542
0
LWPOLYLINE
5
117
100
AcDbEntity
8
0
100
AcDbPolyline
90
8
70
1
43
0.0
10
-6.3065944881889759
20
2.8404049150116211
10
-6.8184055118110232
20
2.8404049150116197
42
0.41421356237313667
10
-6.8380905511811028
20
2.8207198756415406
10
-6.838090551181101
20
2.3089088520194938
42
0.4142135623730222
10
-6.8184055118110232
20
2.2892238126494155
10
-6.3065944881889733
20
2.2892238126494155
42
0.4142135623730846
10
-6.2869094488188972
20
2.3089088520194938
10
-6.2869094488188972
20
2.820719875641541
42
0.414213562373069
0
LWPOLYLINE
5
118
100
AcDbEntity
8
0
100
AcDbPolyline
90
8
70
1
43
0.0
10
-5.3184055118110232
20
2.2892238126494147
10
-4.8065944881889768
20
2.2892238126494151
42
0.41421356237310542
10
-4.7869094488188981
20
2.3089088520194938
10
-4.7869094488188981
20
2.8207198756415406
42
0.41421356237311585
10
-4.8065944881889768
20
2.8404049150116197
10
-5.3184055118110232
20
2.8404049150116193
42
0.41421356237307422
10
-5.3380905511811019
20
2.8207198756415406
10
-5.3380905511811028
20
2.3089088520194938
42
0.41421356237309503
0
LWPOLYLINE
5
119
100
AcDbEntity
8
0
100
AcDbPolyline
90
8
70
1
43
0.0
10
-9.4003444881889759
20
2.8404049150116211
10
-9.9121555118110241
20
2.8404049150116188
42
0.41421356237310542
10
-9.9318405511811036
20
2.8207198756415406
10
-9.9318405511811036
20
2.3089088520194943
42
0.41421356237310025
10
-9.9121555118110241
20
2.2892238126494164
10
-9.4003444881889759
20
2.2892238126494147
42
0.41421356237310025
10
-9.3806594488188981
20
2.3089088520194943
10
-9.3806594488188981
20
2.8207198756415406
42
0.41421356237311585
0
LWPOLYLINE
5
120
100
AcDbEntity
8
0
100
AcDbPolyline
90
8
70
1
43
0.0
10
-4.5684055118110232
20
2.2892238126494147
10
-4.0565944881889759
20
2.2892238126494151
42
0.41421356237310542
10
-4.0369094488188972
20
2.3089088520194938
10
-4.0369094488188972
20
2.8207198756415406
42
0.41421356237311585
10
-4.0565944881889759
20
2.8404049150116197
10
-4.5684055118110232
20
2.8404049150116193
42
0.41421356237307422
10
-4.5880905511811019
20
2.8207198756415406
10
-4.5880905511811019
20
2.3089088520194938
42
0.41421356237309503
0
LWPOLYLINE
5
121
100
AcDbEntity
8
0
100
AcDbPolyline
90
8
70
1
43
0.0
10
-6.4434055118110258
20
1.539223812649414
10
-5.9315944881889751
20
1.5392238126494155
42
0.41421356237307422
10
-5.9119094488188972
20
1.5589088520194938
10
-5.9119094488188972
20
2.0707198756415419
42
0.41421356237309503
10
-5.9315944881889759
20
2.0904049150116211
10
-6.4434055118110249
20
2.0904049150116197
42
0.41421356237311585
10
-6.4630905511811036
20
2.0707198756415419
10
-6.4630905511811036
20
1.5589088520194938
42
0.41421356237312623
0
LWPOLYLINE
5
122
100
AcDbEntity
8
0
100
AcDbPolyline
90
8
70
1
43
0.0
10
-8.9315944881889759
20
2.0904049150116202
10
-9.4434055118110241
20
2.0904049150116197
42
0.41421356237311585
10
-9.4630905511811019
20
2.0707198756415419
10
-9.4630905511811019
20
1.5589088520194938
42
0.41421356237312623
10
-9.4434055118110258
20
1.539223812649414
10
-8.9315944881889759
20
1.539223812649414
42
0.41421356237304302
10
-8.9119094488188981
20
1.5589088520194938
10
-8.9119094488188999
20
2.0707198756415415
42
0.41421356237308982
0
LWPOLYLINE
5
123
100
AcDbEntity
8
0
100
AcDbPolyline
90
8
70
1
43
0.0
10
-3.4630905511811023
20
2.0707198756415419
10
-3.4630905511811032
20
1.5589088520194938
42
0.41421356237306384
10
-3.4434055118110245
20
1.5392238126494149
10
-2.9315944881889764
20
1.5392238126494155
42
0.41421356237307944
10
-2.9119094488188977
20
1.5589088520194938
10
-2.9119094488188977
20
2.0707198756415415
42
0.41421356237311063
10
-2.9315944881889764
20
2.0904049150116202
10
-3.4434055118110241
20
2.0904049150116202
42
0.41421356237309503
0
LWPOLYLINE
5
124
100
AcDbEntity
8
0
100
AcDbPolyline
90
8
70
1
43
0.0
10
-3.6619094488188977
20
1.5589088520194938
10
-3.6619094488188972
20
2.0707198756415415
42
0.41421356237305862
10
-3.6815944881889764
20
2.0904049150116211
10
-4.1934055118110241
20
2.0904049150116202
42
0.41421356237309503
10
-4.2130905511811028
20
2.0707198756415419
10
-4.2130905511811028
20
1.5589088520194938
42
0.41421356237310542
10
-4.1934055118110241
20
1.5392238126494149
10
-3.6815944881889764
20
1.5392238126494155
42
0.41421356237311585
0
LWPOLYLINE
5
125
100
AcDbEntity
8
0
100
AcDbPolyline
90
8
70
1
43
0.0
10
-1.4315944881889764
20
2.0904049150116202
10
-1.9434055118110236
20
2.0904049150116202
42
0.41421356237310542
10
-1.9630905511811023
20
2.0707198756415419
10
-1.9630905511811023
20
1.5589088520194938
42
0.41421356237308982
10
-1.9434055118110238
20
1.5392238126494151
10
-1.4315944881889762
20
1.5392238126494149
42
0.4142135623730846
10
-1.4119094488188981
20
1.5589088520194938
10
-1.4119094488188979
20
2.0707198756415415
42
0.41421356237308721
0
LWPOLYLINE
5
126
100
AcDbEntity
8
0
100
AcDbPolyline
90
8
70
1
43
0.0
10
-4.4315944881889768
20
2.0904049150116211
10
-4.9434055118110232
20
2.0904049150116202
42
0.41421356237306384
10
-4.9630905511811028
20
2.0707198756415419
10
-4.9630905511811028
20
1.5589088520194938
42
0.41421356237307422
10
-4.9434055118110232
20
1.5392238126494149
10
-4.4315944881889759
20
1.5392238126494155
42
0.41421356237307422
10
-4.4119094488188972
20
1.5589088520194938
10
-4.4119094488188972
20
2.0707198756415415
42
0.41421356237310025
0
LWPOLYLINE
5
127
100
AcDbEntity
8
0
100
AcDbPolyline
90
8
70
1
43
0.0
10
-2.1815944881889768
20
2.0904049150116202
10
-2.6934055118110232
20
2.0904049150116202
42
0.41421356237310542
10
-2.7130905511811019
20
2.0707198756415419
10
-2.7130905511811019
20
1.5589088520194938
42
0.41421356237310025
10
-2.6934055118110227
20
1.5392238126494151
10
-2.1815944881889768
20
1.5392238126494151
42
0.41421356237307944
10
-2.1619094488188977
20
1.5589088520194938
10
-2.1619094488188977
20
2.0707198756415415
42
0.41421356237309503
0
LWPOLYLINE
5
128
100
AcDbEntity
8
0
100
AcDbPolyline
90
8
70
1
43
0.0
10
-8.6934055118110241
20
1.539223812649414
10
-8.1815944881889759
20
1.539223812649414
42
0.41421356237304302
10
-8.1619094488188981
20
1.5589088520194938
10
-8.1619094488188999
20
2.0707198756415415
42
0.41421356237308982
10
-8.1815944881889759
20
2.0904049150116202
10
-8.6934055118110241
20
2.0904049150116197
42
0.41421356237312101
10
-8.7130905511811019
20
2.0707198756415415
10
-8.7130905511811019
20
1.5589088520194938
42
0.41421356237312623
0
LWPOLYLINE
5
129
100
AcDbEntity
8
0
100
AcDbPolyline
90
8
70
1
43
0.0
10
-7.2244094488188972
20
0.80890885201949392
10
-7.2244094488188972
20
1.3207198756415417
42
0.41421356237314444
10
-7.2440944881889768
20
1.3404049150116211
10
-7.7559055118110241
20
1.3404049150116211
42
0.41421356237310025
10
-7.7755905511811028
20
1.3207198756415417
10
-7.7755905511811028
20
0.80890885201949414
42
0.41421356237310281
10
-7.7559055118110241
20
0.7892238126494151
10
-7.2440944881889768
20
0.78922381264941599
42
0.41421356237312101
0
LWPOLYLINE
5
130
100
AcDbEntity
8
0
100
AcDbPolyline
90
8
70
1
43
0.0
10
-8.5255905511811036
20
1.3207198756415417
10
-8.5255905511811036
20
0.80890885201949414
42
0.41421356237310281
10
-8.5059055118110241
20
0.78922381264941455
10
-7.9940944881889786
20
0.7892238126494151
42
0.41421356237307422
10
-7.9744094488188981
20
0.80890885201949392
10
-7.9744094488188981
20
1.3207198756415415
42
0.41421356237307422
10
-7.9940944881889786
20
1.3404049150116204
10
-8.5059055118110241
20
1.3404049150116211
42
0.41421356237310025
0
LWPOLYLINE
5
131
100
AcDbEntity
8
0
100
AcDbPolyline
90
8
70
1
43
0.0
10
-0.91215551181102339
20
1.5392238126494155
10
-0.1798720472440945
20
1.5392238126494151
42
0.41421356237307455
10
-0.16018700787401582
20
1.5589088520194938
10
-0.16018700787401552
20
2.0707198756415419
42
0.41421356237308299
10
-0.17987204724409453
20
2.0904049150116202
10
-0.9121555118110235
20
2.0904049150116202
42
0.41421356237310542
10
-0.93184055118110221
20
2.0707198756415419
10
-0.93184055118110221
20
1.5589088520194943
42
0.41421356237310802
0
LWPOLYLINE
5
132
100
AcDbEntity
8
0
100
AcDbPolyline
90
8
70
1
43
0.0
10
-10.211122047244094
20
1.3404049150116213
10
-10.250492125984252
20
1.3404049150116211
42
0.41421356237310025
10
-10.270177165354331
20
1.3207198756415417
10
-10.270177165354331
20
0.80890885201949392
42
0.41421356237310025
10
-10.250492125984252
20
0.78922381264941455
10
-10.211122047244094
20
0.78922381264941499
42
0.41421356237307422
10
-10.191437007874017
20
0.80890885201949392
10
-10.191437007874017
20
1.3207198756415417
42
0.4142135623730846
0
LWPOLYLINE
5
133
100
AcDbEntity
8
0
100
AcDbPolyline
90
8
70
1
43
0.0
10
-9.2559055118110241
20
0.78922381264941455
10
-8.7440944881889759
20
0.78922381264941566
42
0.41421356237312623
10
-8.7244094488188964
20
0.80890885201949392
10
-8.7244094488188964
20
1.3207198756415417
42
0.41421356237310025
10
-8.7440944881889759
20
1.3404049150116211
10
-9.2559055118110241
20
1.3404049150116208
42
0.41421356237309764
10
-9.2755905511811019
20
1.3207198756415417
10
-9.2755905511811019
20
0.80890885201949414
42
0.41421356237314444
0
LWPOLYLINE
5
134
100
AcDbEntity
8
0
100
AcDbPolyline
90
8
70
1
43
0.0
10
-9.4744094488188981
20
0.80890885201949392
10
-9.4744094488188981
20
1.3207198756415417
42
0.41421356237306384
10
-9.4940944881889759
20
1.34040491501162
10
-10.005905511811026
20
1.340404915011622
42
0.41421356237305079
10
-10.025590551181104
20
1.3207198756415417
10
-10.025590551181102
20
0.80890885201949414
42
0.41421356237308721
10
-10.005905511811026
20
0.78922381264941566
10
-9.4940944881889777
20
0.78922381264941499
42
0.41421356237307422
0
LWPOLYLINE
5
135
100
AcDbEntity
8
0
100
AcDbPolyline
90
8
70
1
43
0.0
10
-1.0932578740157481
20
2.0904049150116202
10
-1.1326279527559056
20
2.0904049150116202
42
0.41421356237307683
10
-1.1523129921259843
20
2.0707198756415424
10
-1.1523129921259838
20
1.5589088520194938
42
0.41421356237310542
10
-1.1326279527559047
20
1.5392238126494155
10
-1.0932578740157481
20
1.5392238126494153
42
0.41421356237307683
10
-1.0735728346456694
20
1.5589088520194938
10
-1.0735728346456694
20
2.0707198756415419
42
0.41421356237307944
0
LWPOLYLINE
5
136
100
AcDbEntity
8
0
100
AcDbPolyline
90
8
70
1
43
0.0
10
-10.963090551181104
20
1.3207198756415417
10
-10.963090551181104
20
0.80890885201949414
42
0.41421356237307422
10
-10.943405511811022
20
0.7892238126494151
10
-10.431594488188976
20
0.78922381264941599
42
0.41421356237312101
10
-10.411909448818896
20
0.80890885201949392
10
-10.411909448818896
20
1.3207198756415417
42
0.41421356237314444
10
-10.431594488188976
20
1.3404049150116206
10
-10.943405511811024
20
1.3404049150116213
42
0.41421356237306384
0
LWPOLYLINE
5
137
100
AcDbEntity
8
0
100
AcDbPolyline
90
8
70
1
43
0.0
10
-4.9744094488188981
20
0.80890885201949392
10
-4.9744094488188972
20
1.3207198756415415
42
0.41421356237307161
10
-4.9940944881889759
20
1.3404049150116202
10
-5.5059055118110232
20
1.3404049150116204
42
0.41421356237309503
10
-5.5255905511811019
20
1.3207198756415415
10
-5.5255905511811019
20
0.80890885201949414
42
0.41421356237309503
10
-5.5059055118110232
20
0.7892238126494151
10
-4.9940944881889751
20
0.78922381264941543
42
0.41421356237306639
0
LWPOLYLINE
5
138
100
AcDbEntity
8
0
100
AcDbPolyline
90
8
70
1
43
0.0
10
-5.7440944881889768
20
1.3404049150116202
10
-6.2559055118110232
20
1.3404049150116204
42
0.41421356237309243
10
-6.2755905511811028
20
1.3207198756415417
10
-6.2755905511811028
20
0.80890885201949392
42
0.41421356237309243
10
-6.2559055118110232
20
0.7892238126494151
10
-5.7440944881889751
20
0.78922381264941543
42
0.41421356237306639
10
-5.724409448818899
20
0.80890885201949392
10
-5.7244094488188972
20
1.3207198756415415
42
0.41421356237307161
0
LWPOLYLINE
5
139
100
AcDbEntity
8
0
100
AcDbPolyline
90
8
70
1
43
0.0
10
-1.7559055118110238
20
0.78922381264941543
10
-1.2440944881889764
20
0.78922381264941566
42
0.4142135623730846
10
-1.2244094488188977
20
0.80890885201949392
10
-1.2244094488188972
20
1.3207198756415415
42
0.41421356237309243
10
-1.2440944881889764
20
1.3404049150116206
10
-1.7559055118110234
20
1.3404049150116204
42
0.41421356237309503
10
-1.7755905511811025
20
1.3207198756415415
10
-1.7755905511811025
20
0.80890885201949414
42
0.4142135623730846
0
LWPOLYLINE
5
140
100
AcDbEntity
8
0
100
AcDbPolyline
90
8
70
1
43
0.0
10
-2.7244094488188977
20
0.80890885201949392
10
-2.7244094488188977
20
1.3207198756415415
42
0.41421356237308204
10
-2.7440944881889755
20
1.3404049150116206
10
-3.2559055118110245
20
1.3404049150116204
42
0.41421356237307683
10
-3.2755905511811023
20
1.3207198756415415
10
-3.2755905511811028
20
0.80890885201949414
42
0.41421356237306384
10
-3.2559055118110245
20
0.7892238126494151
10
-2.7440944881889759
20
0.78922381264941566
42
0.4142135623730846
0
LWPOLYLINE
5
141
100
AcDbEntity
8
0
100
AcDbPolyline
90
8
70
1
43
0.0
10
-7.0059055118110223
20
0.78922381264941455
10
-6.4940944881889777
20
0.78922381264941499
42
0.41421356237307422
10
-6.4744094488188972
20
0.80890885201949392
10
-6.4744094488188972
20
1.3207198756415415
42
0.41421356237307422
10
-6.4940944881889777
20
1.3404049150116204
10
-7.0059055118110223
20
1.3404049150116208
42
0.41421356237309764
10
-7.025590551181101
20
1.3207198756415417
10
-7.025590551181101
20
0.80890885201949414
42
0.41421356237314444
0
LWPOLYLINE
5
142
100
AcDbEntity
8
0
100
AcDbPolyline
90
8
70
1
43
0.0
10
-4.7559055118110232
20
0.7892238126494151
10
-4.2440944881889759
20
0.78922381264941543
42
0.41421356237309764
10
-4.2244094488188972
20
0.80890885201949392
10
-4.2244094488188972
20
1.3207198756415415
42
0.41421356237309243
10
-4.2440944881889768
20
1.3404049150116202
10
-4.7559055118110232
20
1.3404049150116206
42
0.41421356237308721
10
-4.7755905511811019
20
1.3207198756415415
10
-4.7755905511811019
20
0.80890885201949414
42
0.41421356237307422
0
LWPOLYLINE
5
143
100
AcDbEntity
8
0
100
AcDbPolyline
90
8
70
1
43
0.0
10
-2.5255905511811023
20
1.3207198756415415
10
-2.5255905511811023
20
0.80890885201949414
42
0.41421356237307944
10
-2.5059055118110241
20
0.78922381264941543
10
-1.9940944881889766
20
0.78922381264941577
42
0.41421356237308982
10
-1.9744094488188983
20
0.80890885201949392
10
-1.9744094488188981
20
1.3207198756415415
42
0.41421356237309243
10
-1.9940944881889766
20
1.3404049150116206
10
-2.5059055118110241
20
1.3404049150116204
42
0.41421356237309503
0
LWPOLYLINE
5
144
100
AcDbEntity
8
0
100
AcDbPolyline
90
8
70
1
43
0.0
10
-11.183562992125987
20
1.3207198756415417
10
-11.183562992125987
20
0.80890885201949414
42
0.41421356237307422
10
-11.163877952755906
20
0.7892238126494151
10
-11.124507874015748
20
0.78922381264941566
42
0.41421356237312623
10
-11.104822834645669
20
0.80890885201949392
10
-11.104822834645669
20
1.3207198756415417
42
0.41421356237310025
10
-11.124507874015748
20
1.3404049150116206
10
-11.163877952755907
20
1.3404049150116213
42
0.41421356237306384
0
LWPOLYLINE
5
145
100
AcDbEntity
8
0
100
AcDbPolyline
90
8
70
1
43
0.0
10
-0.30659448818897583
20
1.3404049150116204
10
-0.81840551181102372
20
1.3404049150116202
42
0.41421356237309243
10
-0.83809055118110232
20
1.3207198756415415
10
-0.83809055118110232
20
0.80890885201949392
42
0.41421356237308982
10
-0.81840551181102328
20
0.78922381264941566
10
-0.30659448818897639
20
0.78922381264941543
42
0.41421356237309631
10
-0.28690944881889763
20
0.80890885201949381
10
-0.28690944881889752
20
1.3207198756415415
42
0.4142135623730846
0
LWPOLYLINE
5
146
100
AcDbEntity
8
0
100
AcDbPolyline
90
8
70
1
43
0.0
10
-3.4940944881889759
20
1.3404049150116202
10
-4.0059055118110232
20
1.3404049150116202
42
0.41421356237309243
10
-4.0255905511811028
20
1.3207198756415415
10
-4.0255905511811028
20
0.80890885201949392
42
0.41421356237309243
10
-4.0059055118110232
20
0.7892238126494151
10
-3.4940944881889759
20
0.78922381264941577
42
0.41421356237313406
10
-3.4744094488188977
20
0.80890885201949392
10
-3.4744094488188977
20
1.3207198756415415
42
0.41421356237306123
0
LWPOLYLINE
5
147
100
AcDbEntity
8
0
100
AcDbPolyline
90
20
70
1
43
0.0
10
-10.837125984251967
20
0.59040491501161996
10
-10.837125984251967
20
0.610089954381699
42
0.41421356237314577
10
-10.856811023622047
20
0.62977499375177859
10
-11.083188976377951
20
0.62977499375177748
42
0.41421356237313406
10
-11.10287401574803
20
0.61008995438169844
10
-11.10287401574803
20
0.59040491501161996
10
-11.130905511811024
20
0.59040491501162085
42
0.41421356237310675
10
-11.150590551181104
20
0.57071987564154103
10
-11.150590551181104
20
0.058908852019494251
42
0.41421356237314544
10
-11.130905511811024
20
0.039223812649414644
10
-9.8690944881889759
20
0.039223812649416039
42
0.41421356237312495
10
-9.8494094488188981
20
0.058908852019494272
10
-9.8494094488188964
20
0.57071987564154136
42
0.41421356237312362
10
-9.8690944881889759
20
0.59040491501162096
10
-9.8971259842519679
20
0.59040491501161996
10
-9.8971259842519679
20
0.610089954381699
42
0.41421356237314577
10
-9.9168110236220475
20
0.62977499375177859
10
-10.143188976377951
20
0.62977499375177715
42
0.41421356237313273
10
-10.162874015748031
20
0.61008995438169844
10
-10.162874015748031
20
0.59040491501161996
0
LWPOLYLINE
5
148
100
AcDbEntity
8
0
100
AcDbPolyline
90
8
70
1
43
0.0
10
-1.0585629921259843
20
1.3207198756415415
10
-1.058562992125984
20
0.80890885201949414
42
0.41421356237309243
10
-1.038877952755906
20
0.78922381264941566
10
-0.99950787401574825
20
0.78922381264941566
42
0.41421356237310025
10
-0.97982283464566955
20
0.80890885201949392
10
-0.97982283464566944
20
1.3207198756415415
42
0.41421356237309243
10
-0.99950787401574825
20
1.3404049150116204
10
-1.0388779527559053
20
1.3404049150116204
42
0.41421356237309243
0
LWPOLYLINE
5
149
100
AcDbEntity
8
0
100
AcDbPolyline
90
8
70
1
43
0.0
10
-0.12549212598425255
20
0.78922381264941566
10
-0.086122047244094502
20
0.78922381264941566
42
0.41421356237309948
10
-0.066437007874015894
20
0.80890885201949392
10
-0.066437007874015644
20
1.3207198756415415
42
0.41421356237309243
10
-0.086122047244094488
20
1.3404049150116204
10
-0.12549212598425202
20
1.3404049150116204
42
0.41421356237309537
10
-0.14517716535433067
20
1.3207198756415415
10
-0.14517716535433073
20
0.80890885201949414
42
0.41421356237308005
0
LWPOLYLINE
5
150
100
AcDbEntity
8
0
100
AcDbPolyline
90
8
70
1
43
0.0
10
-6.849409448818899
20
0.058908852019494272
10
-6.8494094488188972
20
0.57071987564154136
42
0.41421356237312362
10
-6.8690944881889777
20
0.59040491501162096
10
-7.3809055118110223
20
0.59040491501162085
42
0.41421356237310675
10
-7.4005905511811019
20
0.57071987564154103
10
-7.4005905511811019
20
0.058908852019494251
42
0.41421356237314544
10
-7.3809055118110223
20
0.039223812649415234
10
-6.8690944881889777
20
0.039223812649416039
42
0.41421356237312495
0
LWPOLYLINE
5
151
100
AcDbEntity
8
0
100
AcDbPolyline
90
8
70
1
43
0.0
10
-4.3809055118110241
20
0.039223812649415254
10
-3.8690944881889764
20
0.039223812649415539
42
0.41421356237312201
10
-3.8494094488188981
20
0.058908852019494272
10
-3.8494094488188972
20
0.57071987564154103
42
0.41421356237306384
10
-3.8690944881889764
20
0.59040491501162073
10
-4.3809055118110241
20
0.5904049150116204
42
0.41421356237310025
10
-4.4005905511811028
20
0.57071987564154103
10
-4.4005905511811028
20
0.05890885201949423
42
0.41421356237309437
0
LWPOLYLINE
5
152
100
AcDbEntity
8
0
100
AcDbPolyline
90
8
70
1
43
0.0
10
-5.1505905511811019
20
0.57071987564154103
10
-5.1505905511811019
20
0.05890885201949423
42
0.41421356237309437
10
-5.1309055118110232
20
0.039223812649415254
10
-4.6190944881889768
20
0.039223812649415275
42
0.41421356237312201
10
-4.5994094488188981
20
0.058908852019494272
10
-4.5994094488188972
20
0.57071987564154136
42
0.41421356237305862
10
-4.6190944881889768
20
0.59040491501162073
10
-5.1309055118110232
20
0.59040491501161962
42
0.41421356237310936
0
LWPOLYLINE
5
153
100
AcDbEntity
8
0
100
AcDbPolyline
90
8
70
1
43
0.0
10
-9.1190944881889759
20
0.59040491501161951
10
-9.6309055118110258
20
0.59040491501162029
42
0.41421356237308854
10
-9.6505905511811019
20
0.57071987564154103
10
-9.6505905511811019
20
0.058908852019494203
42
0.41421356237307294
10
-9.6309055118110258
20
0.039223812649415275
10
-9.1190944881889759
20
0.03922381264941549
42
0.41421356237312168
10
-9.0994094488188964
20
0.058908852019494272
10
-9.0994094488188964
20
0.57071987564154136
42
0.41421356237312235
0
LWPOLYLINE
5
154
100
AcDbEntity
8
0
100
AcDbPolyline
90
8
70
1
43
0.0
10
-8.3690944881889759
20
0.59040491501161951
10
-8.8809055118110241
20
0.59040491501162029
42
0.41421356237315227
10
-8.9005905511811001
20
0.57071987564154103
10
-8.9005905511811019
20
0.058908852019494203
42
0.41421356237310053
10
-8.8809055118110241
20
0.039223812649414817
10
-8.3690944881889759
20
0.03922381264941549
42
0.41421356237312168
10
-8.3494094488188946
20
0.058908852019494272
10
-8.3494094488188964
20
0.57071987564154136
42
0.41421356237312362
0
LWPOLYLINE
5
155
100
AcDbEntity
8
0
100
AcDbPolyline
90
8
70
1
43
0.0
10
-6.6309055118110232
20
0.039223812649414748
10
-6.1190944881889768
20
0.039223812649415185
42
0.41421356237307649
10
-6.0994094488188981
20
0.058908852019494355
10
-6.0994094488188981
20
0.57071987564154103
42
0.41421356237308071
10
-6.1190944881889768
20
0.59040491501162051
10
-6.6309055118110232
20
0.59040491501161951
42
0.41421356237312756
10
-6.6505905511811028
20
0.57071987564154103
10
-6.6505905511811028
20
0.058908852019494203
42
0.41421356237310153
0
LWPOLYLINE
5
156
100
AcDbEntity
8
0
100
AcDbPolyline
90
8
70
1
43
0.0
10
-7.599409448818899
20
0.058908852019494272
10
-7.5994094488188981
20
0.57071987564154136
42
0.41421356237312362
10
-7.6190944881889786
20
0.59040491501162096
10
-8.1309055118110241
20
0.59040491501161951
42
0.41421356237312756
10
-8.1505905511811036
20
0.57071987564154103
10
-8.1505905511811001
20
0.05890885201949423
42
0.41421356237308493
10
-8.1309055118110241
20
0.039223812649415206
10
-7.6190944881889786
20
0.039223812649416039
42
0.41421356237312495
0
LWPOLYLINE
5
157
100
AcDbEntity
8
0
100
AcDbPolyline
90
8
70
1
43
0.0
10
-3.0994094488188968
20
0.058908852019494355
10
-3.0994094488188968
20
0.57071987564154136
42
0.41421356237307944
10
-3.1190944881889759
20
0.59040491501162007
10
-3.6309055118110232
20
0.59040491501161996
42
0.41421356237310414
10
-3.6505905511811032
20
0.57071987564154103
10
-3.6505905511811032
20
0.05890885201949423
42
0.41421356237310447
10
-3.6309055118110232
20
0.039223812649415275
10
-3.1190944881889751
20
0.039223812649415407
42
0.41421356237308887
0
LWPOLYLINE
5
158
100
AcDbEntity
8
0
100
AcDbPolyline
90
8
70
1
43
0.0
10
-5.3690944881889759
20
0.5904049150116204
10
-5.8809055118110232
20
0.59040491501162029
42
0.41421356237309764
10
-5.9005905511811019
20
0.57071987564154103
10
-5.9005905511811019
20
0.058908852019494334
42
0.41421356237310675
10
-5.8809055118110232
20
0.039223812649415928
10
-5.3690944881889759
20
0.039223812649415511
42
0.41421356237307261
10
-5.3494094488188972
20
0.058908852019494272
10
-5.3494094488188972
20
0.57071987564154136
42
0.41421356237307422
0
LWPOLYLINE
5
159
100
AcDbEntity
8
0
100
AcDbPolyline
90
8
70
1
43
0.0
10
-2.1505905511811023
20
0.57071987564154103
10
-2.1505905511811023
20
0.05890885201949423
42
0.41421356237310902
10
-2.1309055118110241
20
0.039223812649415671
10
-1.6190944881889755
20
0.039223812649415386
42
0.41421356237308915
10
-1.5994094488188975
20
0.058908852019494355
10
-1.5994094488188975
20
0.57071987564154136
42
0.41421356237307422
10
-1.6190944881889762
20
0.59040491501162007
10
-2.1309055118110245
20
0.59040491501162029
42
0.41421356237310281
0
LWPOLYLINE
5
160
100
AcDbEntity
8
0
100
AcDbPolyline
90
8
70
1
43
0.0
10
-0.86909448818897617
20
0.59040491501162007
10
-1.3809055118110238
20
0.59040491501162029
42
0.41421356237310025
10
-1.4005905511811025
20
0.57071987564154103
10
-1.4005905511811025
20
0.05890885201949423
42
0.41421356237309537
10
-1.3809055118110236
20
0.039223812649415539
10
-0.86909448818897628
20
0.039223812649415539
42
0.41421356237308821
10
-0.84940944881889779
20
0.058908852019494272
10
-0.84940944881889779
20
0.57071987564154136
42
0.41421356237310025
0
LWPOLYLINE
5
161
100
AcDbEntity
8
0
100
AcDbPolyline
90
8
70
1
43
0.0
10
-0.63090551181102328
20
0.03922381264941549
10
-0.11909448818897639
20
0.03922381264941549
42
0.41421356237309631
10
-0.099409448818897655
20
0.058908852019494355
10
-0.099409448818898155
20
0.57071987564154114
42
0.41421356237308821
10
-0.11909448818897575
20
0.59040491501161974
10
-0.63090551181102361
20
0.59040491501162029
42
0.41421356237309892
10
-0.65059055118110243
20
0.57071987564154114
10
-0.65059055118110221
20
0.058908852019494251
42
0.41421356237310153
0
LWPOLYLINE
5
162
100
AcDbEntity
8
0
100
AcDbPolyline
90
8
70
1
43
0.0
10
-2.3690944881889755
20
0.59040491501162029
10
-2.8809055118110232
20
0.59040491501162029
42
0.41421356237310153
10
-2.9005905511811019
20
0.57071987564154103
10
-2.9005905511811019
20
0.058908852019494251
42
0.41421356237309664
10
-2.8809055118110232
20
0.03922381264941547
10
-2.3690944881889764
20
0.039223812649415511
42
0.41421356237309731
10
-2.3494094488188977
20
0.058908852019494272
10
-2.3494094488188977
20
0.57071987564154136
42
0.41421356237308721
0
LWPOLYLINE
5
163
100
AcDbEntity
8
0
100
AcDbPolyline
90
8
70
1
43
0.0
10
-1.7869094488188977
20
2.3089088520194938
10
-1.7869094488188977
20
2.8207198756415406
42
0.41421356237310025
10
-1.8065944881889766
20
2.8404049150116193
10
-2.3184055118110241
20
2.8404049150116197
42
0.41421356237311063
10
-2.3380905511811028
20
2.8207198756415406
10
-2.3380905511811023
20
2.3089088520194938
42
0.41421356237311063
10
-2.3184055118110241
20
2.2892238126494151
10
-1.8065944881889762
20
2.2892238126494155
42
0.41421356237307944
0
LWPOLYLINE
5
164
100
AcDbEntity
8
0
100
AcDbPolyline
90
8
70
1
43
0.0
10
-3.8184055118110236
20
2.2892238126494147
10
-3.3065944881889755
20
2.2892238126494151
42
0.41421356237310542
10
-3.2869094488188968
20
2.3089088520194938
10
-3.2869094488188968
20
2.8207198756415406
42
0.41421356237311585
10
-3.3065944881889759
20
2.8404049150116197
10
-3.8184055118110236
20
2.8404049150116193
42
0.41421356237310542
10
-3.8380905511811023
20
2.8207198756415406
10
-3.8380905511811023
20
2.3089088520194938
42
0.41421356237311585
0
LWPOLYLINE
5
165
100
AcDbEntity
8
0
100
AcDbPolyline
90
8
70
1
43
0.0
10
-5.1815944881889768
20
2.0904049150116211
10
-5.6934055118110241
20
2.0904049150116202
42
0.41421356237306384
10
-5.7130905511811028
20
2.0707198756415419
10
-5.7130905511811028
20
1.5589088520194938
42
0.41421356237307422
10
-5.6934055118110241
20
1.5392238126494149
10
-5.1815944881889759
20
1.5392238126494155
42
0.41421356237307422
10
-5.1619094488188981
20
1.5589088520194938
10
-5.1619094488188981
20
2.0707198756415415
42
0.41421356237310025
0
LWPOLYLINE
5
166
100
AcDbEntity
8
0
100
AcDbPolyline
90
8
70
1
43
0.0
10
-7.4315944881889751
20
2.0904049150116202
10
-7.9434055118110232
20
2.0904049150116202
42
0.41421356237316265
10
-7.9630905511811019
20
2.0707198756415419
10
-7.9630905511811019
20
1.5589088520194938
42
0.4142135623730846
10
-7.9434055118110241
20
1.539223812649414
10
-7.4315944881889751
20
1.5392238126494155
42
0.41421356237311585
10
-7.4119094488188946
20
1.5589088520194938
10
-7.4119094488188964
20
2.0707198756415419
42
0.41421356237312623
0
LWPOLYLINE
5
167
100
AcDbEntity
8
0
100
AcDbPolyline
90
8
70
1
43
0.0
10
-6.6619094488188972
20
1.5589088520194938
10
-6.6619094488188972
20
2.0707198756415415
42
0.41421356237312623
10
-6.6815944881889751
20
2.0904049150116215
10
-7.1934055118110249
20
2.0904049150116188
42
0.4142135623730846
10
-7.2130905511811028
20
2.0707198756415419
10
-7.2130905511811028
20
1.5589088520194938
42
0.41421356237307422
10
-7.1934055118110249
20
1.5392238126494149
10
-6.6815944881889733
20
1.539223812649414
42
0.41421356237306384
0
LWPOLYLINE
5
168
100
AcDbEntity
8
0
100
AcDbPolyline
90
8
70
1
43
0.0
10
-2.5565944881889755
20
2.8404049150116197
10
-3.0684055118110236
20
2.8404049150116193
42
0.41421356237309503
10
-3.0880905511811023
20
2.8207198756415406
10
-3.0880905511811023
20
2.3089088520194938
42
0.4142135623730846
10
-3.0684055118110232
20
2.2892238126494155
10
-2.5565944881889764
20
2.2892238126494155
42
0.41421356237310025
10
-2.5369094488188977
20
2.3089088520194938
10
-2.5369094488188977
20
2.820719875641541
42
0.41421356237309503
0
LWPOLYLINE
5
169
100
AcDbEntity
8
0
100
AcDbPolyline
90
4
70
1
43
0.0
10
-11.442299830809866
20
2.3489110987841642
10
-11.993480933172066
20
2.3489110987841642
10
-11.993480933172066
20
0.77410794917786452
10
-11.442299830809866
20
0.77410794917786463
0
LWPOLYLINE
5
170
100
AcDbEntity
8
0
100
AcDbPolyline
90
8
70
1
43
0.0
10
0.19692138624519115
20
-0.75137773211186387
10
-12.321853285748503
20
-0.75137773211186265
42
-0.41421356237309476
10
-12.518703679449288
20
-0.55452733841107682
10
-12.518703679449288
20
4.1529061315610125
42
-0.41421356237309503
10
-12.321853285748501
20
4.3497565252617996
10
0.19692138624519254
20
4.3497565252617996
42
-0.41421356237309503
10
0.39377177994597995
20
4.1529061315610125
10
0.39377177994597851
20
-0.5545273384110766
42
-0.41421356237309476
0
LWPOLYLINE
5
171
100
AcDbEntity
8
0
100
AcDbPolyline
90
11
70
1
43
0.0
10
-2.46259842519685
20
3.0195387732793351
42
-0.41421356237310025
10
-2.4429133858267713
20
3.0392238126494142
10
-1.1503444881889764
20
3.0392238126494147
42
0.41421356237307161
10
-1.1306594488188975
20
3.0589088520194929
10
-1.1306594488188977
20
3.570719875641541
42
0.41421356237309764
10
-1.1503444881889764
20
3.5904049150116206
10
-2.7677165354330722
20
3.5904049150116202
42
0.41421356237309503
10
-2.7874015748031504
20
3.570719875641541
10
-2.7874015748031495
20
3.0195387732793355
42
0.41421356237309503
10
-2.7677165354330708
20
2.9998537339092639
10
-2.4822834645669287
20
2.9998537339092568
42
0.41421356237308982
0
LWPOLYLINE
5
172
100
AcDbEntity
8
0
100
AcDbPolyline
90
24
70
1
43
0.0
10
-1.4773797610594772
20
2.8600899543816976
10
-1.4773797610594772
20
2.3482789307596521
42
0.41421356237309503
10
-1.4576947216893985
20
2.3285938913895734
10
-1.1291830708661417
20
2.328593891389573
42
-0.41421356237309503
10
-1.1193405511811023
20
2.3187513717045336
10
-1.1193405511811023
20
2.3089088520194934
42
0.41421356237309243
10
-1.0996555118110234
20
2.2892238126494151
10
-0.58784448818897639
20
2.2892238126494155
42
0.41421356237309764
10
-0.56815944881889779
20
2.3089088520194938
10
-0.56815944881889746
20
2.318751371704534
42
-0.41421356237308982
10
-0.55831692913385822
20
2.328593891389573
10
-0.22119094488188967
20
2.3285938913895725
42
0.41421356237309631
10
-0.21134842519685013
20
2.3384364110746119
10
-0.21134842519685029
20
2.8699324740667373
42
0.41421356237309503
10
-0.22119094488188967
20
2.8797749937517771
10
-0.55831692913385822
20
2.8797749937517771
42
0.41421356237309503
10
-0.56815944881889768
20
2.8699324740667373
10
-0.56815944881889735
20
2.8502474346966586
42
-0.41421356237309503
10
-0.57800196850393681
20
2.8404049150116193
10
-1.109498031496063
20
2.8404049150116202
42
-0.41421356237310025
10
-1.1193405511811019
20
2.8502474346966586
10
-1.1193405511811025
20
2.8699324740667373
42
0.41421356237309503
10
-1.1291830708661419
20
2.8797749937517771
10
-1.4576947216893985
20
2.8797749937517763
42
0.41421356237309243
0
CIRCLE
5
173
100
AcDbEntity
8
0
100
AcDbCircle
10
-8.1488525311359048
20
4.014126604001957
30
2.1854783949314103e-16
40
0.062007874015747581
210
0
220
-1.0691058840368783e-50
230
1
0
CIRCLE
5
174
100
AcDbEntity
8
0
100
AcDbCircle
10
0.018771779945978329
20
-0.415747810852021
30
-4.3709567898628207e-17
40
0.062007874015748039
210
0
220
-2.1382117680737565e-50
230
1
0
CIRCLE
5
175
100
AcDbEntity
8
0
100
AcDbCircle
10
-3.9760793683674045
20
4.014126604001957
30
2.6225740739176924e-16
40
0.062007874015748275
210
6.1629758220391547e-33
220
0
230
1
0
CIRCLE
5
176
100
AcDbEntity
8
0
100
AcDbCircle
10
-3.9760793683674045
20
-0.41574781085202145
30
4.3709567898628207e-17
40
0.062007874015748275
210
6.1629758220391547e-33
220
0
230
1
0
CIRCLE
5
177
100
AcDbEntity
8
0
100
AcDbCircle
10
-12.143703679449288
20
4.014126604001957
30
1.7483827159451283e-16
40
0.062007874015747581
210
0
220
-1.0691058840368783e-50
230
1
0
CIRCLE
5
178
100
AcDbEntity
8
0
100
AcDbCircle
10
-12.143703679449288
20
-0.41574781085202084
30
-8.7419135797256413e-17
40
0.062007874015747581
210
0
220
-1.0691058840368783e-50
230
1
0
CIRCLE
5
179
100
AcDbEntity
8
0
100
AcDbCircle
10
0.018771779945978315
20
4.014126604001957
30
1.3112870369588462e-16
40
0.062007874015748039
210
0
220
-1.0691058840368783e-50
230
1
0
CIRCLE
5
180
100
AcDbEntity
8
0
100
AcDbCircle
10
-8.1488525311359048
20
-0.41574781085202112
30
-4.3709567898628207e-17
40
0.062007874015747581
210
0
220
-1.0691058840368783e-50
230
1
0
CIRCLE
5
181
100
AcDbEntity
8
0
100
AcDbCircle
10
-11.718749533320794
20
0.31431583778088612
30
4.3709567898628207e-17
40
0.33464566929133771
210
0
220
-1.0691058840368783e-50
230
1
0
ENDSEC
0
SECTION
2
OBJECTS
0
DICTIONARY
5
C
100
AcDbDictionary
3
ACAD_GROUP
350
D
3
ACAD_MLINESTYLE
350
17
0
DICTIONARY
5
D
100
AcDbDictionary
0
DICTIONARY
5
1A
330
C
100
AcDbDictionary
0
DICTIONARY
5
17
100
AcDbDictionary
0
ENDSEC
0
EOF
