  0
SECTION
  2
HEADER
  9
$ACADVER
  1
AC1024
  9
$ACADMAINTVER
 70
     6
  9
$DWGCODEPAGE
  3
ANSI_1252
  9
$INSBASE
 10
0.0
 20
0.0
 30
0.0
  9
$EXTMIN
 10
1.000000000000000E+20
 20
1.000000000000000E+20
 30
1.000000000000000E+20
  9
$EXTMAX
 10
-1.000000000000000E+20
 20
-1.000000000000000E+20
 30
-1.000000000000000E+20
  9
$LIMMIN
 10
0.0
 20
0.0
  9
$LIMMAX
 10
12.0
 20
9.0
  9
$ORTHOMODE
 70
     0
  9
$REGENMODE
 70
     1
  9
$FILLMODE
 70
     1
  9
$QTEXTMODE
 70
     0
  9
$MIRRTEXT
 70
     1
  9
$LTSCALE
 40
1.0
  9
$ATTMODE
 70
     1
  9
$TEXTSIZE
 40
0.2
  9
$TRACEWID
 40
0.05
  9
$TEXTSTYLE
  7
Standard
  9
$CLAYER
  8
0
  9
$CELTYPE
  6
ByLayer
  9
$CECOLOR
 62
   256
  9
$CELTSCALE
 40
1.0
  9
$DISPSILH
 70
     0
  9
$DIMSCALE
 40
1.0
  9
$DIMASZ
 40
0.18
  9
$DIMEXO
 40
0.0625
  9
$DIMDLI
 40
0.38
  9
$DIMRND
 40
0.0
  9
$DIMDLE
 40
0.0
  9
$DIMEXE
 40
0.18
  9
$DIMTP
 40
0.0
  9
$DIMTM
 40
0.0
  9
$DIMTXT
 40
0.18
  9
$DIMCEN
 40
0.09
  9
$DIMTSZ
 40
0.0
  9
$DIMTOL
 70
     0
  9
$DIMLIM
 70
     0
  9
$DIMTIH
 70
     1
  9
$DIMTOH
 70
     1
  9
$DIMSE1
 70
     0
  9
$DIMSE2
 70
     0
  9
$DIMTAD
 70
     0
  9
$DIMZIN
 70
     0
  9
$DIMBLK
  1

  9
$DIMASO
 70
     1
  9
$DIMSHO
 70
     1
  9
$DIMPOST
  1

  9
$DIMAPOST
  1

  9
$DIMALT
 70
     0
  9
$DIMALTD
 70
     2
  9
$DIMALTF
 40
25.4
  9
$DIMLFAC
 40
1.0
  9
$DIMTOFL
 70
     0
  9
$DIMTVP
 40
0.0
  9
$DIMTIX
 70
     0
  9
$DIMSOXD
 70
     0
  9
$DIMSAH
 70
     0
  9
$DIMBLK1
  1

  9
$DIMBLK2
  1

  9
$DIMSTYLE
  2
Standard
  9
$DIMCLRD
 70
     0
  9
$DIMCLRE
 70
     0
  9
$DIMCLRT
 70
     0
  9
$DIMTFAC
 40
1.0
  9
$DIMGAP
 40
0.09
  9
$DIMJUST
 70
     0
  9
$DIMSD1
 70
     0
  9
$DIMSD2
 70
     0
  9
$DIMTOLJ
 70
     1
  9
$DIMTZIN
 70
     0
  9
$DIMALTZ
 70
     0
  9
$DIMALTTZ
 70
     0
  9
$DIMUPT
 70
     0
  9
$DIMDEC
 70
     4
  9
$DIMTDEC
 70
     4
  9
$DIMALTU
 70
     2
  9
$DIMALTTD
 70
     2
  9
$DIMTXSTY
  7
Standard
  9
$DIMAUNIT
 70
     0
  9
$DIMADEC
 70
     0
  9
$DIMALTRND
 40
0.0
  9
$DIMAZIN
 70
     0
  9
$DIMDSEP
 70
    46
  9
$DIMATFIT
 70
     3
  9
$DIMFRAC
 70
     0
  9
$DIMLDRBLK
  1

  9
$DIMLUNIT
 70
     2
  9
$DIMLWD
 70
    -2
  9
$DIMLWE
 70
    -2
  9
$DIMTMOVE
 70
     0
  9
$DIMFXL
 40
1.0
  9
$DIMFXLON
 70
     0
  9
$DIMJOGANG
 40
0.7853981633974483
  9
$DIMTFILL
 70
     0
  9
$DIMTFILLCLR
 70
     0
  9
$DIMARCSYM
 70
     0
  9
$DIMLTYPE
  6

  9
$DIMLTEX1
  6

  9
$DIMLTEX2
  6

  9
$DIMTXTDIRECTION
 70
     0
  9
$LUNITS
 70
     2
  9
$LUPREC
 70
     4
  9
$SKETCHINC
 40
0.1
  9
$FILLETRAD
 40
0.5
  9
$AUNITS
 70
     0
  9
$AUPREC
 70
     0
  9
$MENU
  1
.
  9
$ELEVATION
 40
0.0
  9
$PELEVATION
 40
0.0
  9
$THICKNESS
 40
0.0
  9
$LIMCHECK
 70
     0
  9
$CHAMFERA
 40
0.5
  9
$CHAMFERB
 40
0.5
  9
$CHAMFERC
 40
1.0
  9
$CHAMFERD
 40
0.0
  9
$SKPOLY
 70
     0
  9
$TDCREATE
 40
2459171.846361204
  9
$TDUCREATE
 40
2459172.179694537
  9
$TDUPDATE
 40
2459171.846361227
  9
$TDUUPDATE
 40
2459172.17969456
  9
$TDINDWG
 40
0.0000000116
  9
$TDUSRTIMER
 40
0.0000000116
  9
$USRTIMER
 70
     1
  9
$ANGBASE
 50
0.0
  9
$ANGDIR
 70
     0
  9
$PDMODE
 70
     0
  9
$PDSIZE
 40
0.0
  9
$PLINEWID
 40
0.0
  9
$SPLFRAME
 70
     0
  9
$SPLINETYPE
 70
     6
  9
$SPLINESEGS
 70
     8
  9
$HANDSEED
  5
D2
  9
$SURFTAB1
 70
     6
  9
$SURFTAB2
 70
     6
  9
$SURFTYPE
 70
     6
  9
$SURFU
 70
     6
  9
$SURFV
 70
     6
  9
$UCSBASE
  2

  9
$UCSNAME
  2

  9
$UCSORG
 10
0.0
 20
0.0
 30
0.0
  9
$UCSXDIR
 10
1.0
 20
0.0
 30
0.0
  9
$UCSYDIR
 10
0.0
 20
1.0
 30
0.0
  9
$UCSORTHOREF
  2

  9
$UCSORTHOVIEW
 70
     0
  9
$UCSORGTOP
 10
0.0
 20
0.0
 30
0.0
  9
$UCSORGBOTTOM
 10
0.0
 20
0.0
 30
0.0
  9
$UCSORGLEFT
 10
0.0
 20
0.0
 30
0.0
  9
$UCSORGRIGHT
 10
0.0
 20
0.0
 30
0.0
  9
$UCSORGFRONT
 10
0.0
 20
0.0
 30
0.0
  9
$UCSORGBACK
 10
0.0
 20
0.0
 30
0.0
  9
$PUCSBASE
  2

  9
$PUCSNAME
  2

  9
$PUCSORG
 10
0.0
 20
0.0
 30
0.0
  9
$PUCSXDIR
 10
1.0
 20
0.0
 30
0.0
  9
$PUCSYDIR
 10
0.0
 20
1.0
 30
0.0
  9
$PUCSORTHOREF
  2

  9
$PUCSORTHOVIEW
 70
     0
  9
$PUCSORGTOP
 10
0.0
 20
0.0
 30
0.0
  9
$PUCSORGBOTTOM
 10
0.0
 20
0.0
 30
0.0
  9
$PUCSORGLEFT
 10
0.0
 20
0.0
 30
0.0
  9
$PUCSORGRIGHT
 10
0.0
 20
0.0
 30
0.0
  9
$PUCSORGFRONT
 10
0.0
 20
0.0
 30
0.0
  9
$PUCSORGBACK
 10
0.0
 20
0.0
 30
0.0
  9
$USERI1
 70
     0
  9
$USERI2
 70
     0
  9
$USERI3
 70
     0
  9
$USERI4
 70
     0
  9
$USERI5
 70
     0
  9
$USERR1
 40
0.0
  9
$USERR2
 40
0.0
  9
$USERR3
 40
0.0
  9
$USERR4
 40
0.0
  9
$USERR5
 40
0.0
  9
$WORLDVIEW
 70
     1
  9
$SHADEDGE
 70
     3
  9
$SHADEDIF
 70
    70
  9
$TILEMODE
 70
     1
  9
$MAXACTVP
 70
    64
  9
$PINSBASE
 10
0.0
 20
0.0
 30
0.0
  9
$PLIMCHECK
 70
     0
  9
$PEXTMIN
 10
1.000000000000000E+20
 20
1.000000000000000E+20
 30
1.000000000000000E+20
  9
$PEXTMAX
 10
-1.000000000000000E+20
 20
-1.000000000000000E+20
 30
-1.000000000000000E+20
  9
$PLIMMIN
 10
0.0
 20
0.0
  9
$PLIMMAX
 10
12.0
 20
9.0
  9
$UNITMODE
 70
     0
  9
$VISRETAIN
 70
     1
  9
$PLINEGEN
 70
     0
  9
$PSLTSCALE
 70
     1
  9
$TREEDEPTH
 70
  3020
  9
$CMLSTYLE
  2
Standard
  9
$CMLJUST
 70
     0
  9
$CMLSCALE
 40
1.0
  9
$PROXYGRAPHICS
 70
     1
  9
$MEASUREMENT
 70
     0
  9
$CELWEIGHT
370
    -1
  9
$ENDCAPS
280
     0
  9
$JOINSTYLE
280
     0
  9
$LWDISPLAY
290
     1
  9
$INSUNITS
 70
     4
  9
$HYPERLINKBASE
  1

  9
$STYLESHEET
  1

  9
$XEDIT
290
     1
  9
$CEPSNTYPE
380
     0
  9
$PSTYLEMODE
290
     1
  9
$FINGERPRINTGUID
  2
{C3A0489D-B2D2-4E47-A389-EA41C676DC54}
  9
$VERSIONGUID
  2
{FAEB1C32-E019-11D5-929B-00C0DF256EC4}
  9
$EXTNAMES
290
     1
  9
$PSVPSCALE
 40
0.0
  9
$OLESTARTUP
290
     0
  9
$SORTENTS
280
   127
  9
$INDEXCTL
280
     0
  9
$HIDETEXT
280
     1
  9
$XCLIPFRAME
280
     2
  9
$HALOGAP
280
     0
  9
$OBSCOLOR
 70
   257
  9
$OBSLTYPE
280
     0
  9
$INTERSECTIONDISPLAY
280
     0
  9
$INTERSECTIONCOLOR
 70
   257
  9
$DIMASSOC
280
     2
  9
$PROJECTNAME
  1

  9
$CAMERADISPLAY
290
     0
  9
$LENSLENGTH
 40
50.0
  9
$CAMERAHEIGHT
 40
0.0
  9
$STEPSPERSEC
 40
2.0
  9
$STEPSIZE
 40
6.0
  9
$3DDWFPREC
 40
2.0
  9
$PSOLWIDTH
 40
0.25
  9
$PSOLHEIGHT
 40
4.0
  9
$LOFTANG1
 40
1.570796326794897
  9
$LOFTANG2
 40
1.570796326794897
  9
$LOFTMAG1
 40
0.0
  9
$LOFTMAG2
 40
0.0
  9
$LOFTPARAM
 70
     7
  9
$LOFTNORMALS
280
     1
  9
$LATITUDE
 40
37.795
  9
$LONGITUDE
 40
-122.394
  9
$NORTHDIRECTION
 40
0.0
  9
$TIMEZONE
 70
 -8000
  9
$LIGHTGLYPHDISPLAY
280
     1
  9
$TILEMODELIGHTSYNCH
280
     1
  9
$CMATERIAL
347
3C
  9
$SOLIDHIST
280
     1
  9
$SHOWHIST
280
     1
  9
$DWFFRAME
280
     2
  9
$DGNFRAME
280
     2
  9
$REALWORLDSCALE
290
     1
  9
$INTERFERECOLOR
 62
   256
  9
$CSHADOW
280
     0
  9
$SHADOWPLANELOCATION
 40
0.0
  0
ENDSEC
  0
SECTION
  2
CLASSES
  0
CLASS
  1
ACDBDICTIONARYWDFLT
  2
AcDbDictionaryWithDefault
  3
ObjectDBX Classes
 90
        0
 91
        4
280
     0
281
     0
  0
CLASS
  1
VISUALSTYLE
  2
AcDbVisualStyle
  3
ObjectDBX Classes
 90
     4095
 91
        4
280
     0
281
     0
  0
CLASS
  1
MATERIAL
  2
AcDbMaterial
  3
ObjectDBX Classes
 90
     1153
 91
        4
280
     0
281
     0
  0
CLASS
  1
SUN
  2
AcDbSun
  3
SCENEOE
 90
     1024
 91
        4
280
     0
281
     0
  0
ENDSEC
  0
SECTION
  2
TABLES
  0
TABLE
  2
VPORT
  5
8
330
0
100
AcDbSymbolTable
 70
     1
  0
VPORT
  5
29
330
8
100
AcDbSymbolTableRecord
100
AcDbViewportTableRecord
  2
*Active
 70
     0
 10
0.0
 20
0.0
 11
1.0
 21
1.0
 12
0.0
 22
0.0
 13
0.0
 23
0.0
 14
0.5
 24
0.5
 15
0.5
 25
0.5
 16
0.0
 26
0.0
 36
1.0
 17
959.99999976
 27
539.999999865
 37
0.0
 40
1079.99999973
 41
1.777777777777778
 42
50.0
 43
0.0
 44
0.0
 50
0.0
 51
0.0
 71
     0
 72
   100
 73
     1
 74
     3
 75
     0
 76
     0
 77
     0
 78
     0
281
     0
 65
     1
110
0.0
120
0.0
130
0.0
111
1.0
121
0.0
131
0.0
112
0.0
122
1.0
132
0.0
 79
     0
146
0.0
 60
     3
 61
     5
292
     1
282
     1
141
0.0
142
0.0
 63
   250
361
3F
  0
ENDTAB
  0
TABLE
  2
LTYPE
  5
5
330
0
100
AcDbSymbolTable
 70
     1
  0
LTYPE
  5
14
330
5
100
AcDbSymbolTableRecord
100
AcDbLinetypeTableRecord
  2
ByBlock
 70
     0
  3

 72
    65
 73
     0
 40
0.0
  0
LTYPE
  5
15
330
5
100
AcDbSymbolTableRecord
100
AcDbLinetypeTableRecord
  2
ByLayer
 70
     0
  3

 72
    65
 73
     0
 40
0.0
  0
LTYPE
  5
16
330
5
100
AcDbSymbolTableRecord
100
AcDbLinetypeTableRecord
  2
Continuous
 70
     0
  3
Solid line
 72
    65
 73
     0
 40
0.0
  0
ENDTAB
  0
TABLE
  2
LAYER
  5
2
330
0
100
AcDbSymbolTable
 70
     1
  0
LAYER
  5
10
330
2
100
AcDbSymbolTableRecord
100
AcDbLayerTableRecord
  2
0
 70
     0
 62
     7
  6
Continuous
370
    -3
390
F
347
3E
  0
ENDTAB
  0
TABLE
  2
STYLE
  5
3
330
0
100
AcDbSymbolTable
 70
     1
  0
STYLE
  5
11
330
3
100
AcDbSymbolTableRecord
100
AcDbTextStyleTableRecord
  2
Standard
 70
     0
 40
0.0
 41
1.0
 50
0.0
 71
     0
 42
0.2
  3
txt
  4

  0
ENDTAB
  0
TABLE
  2
VIEW
  5
6
330
0
100
AcDbSymbolTable
 70
     0
  0
ENDTAB
  0
TABLE
  2
UCS
  5
7
330
0
100
AcDbSymbolTable
 70
     0
  0
ENDTAB
  0
TABLE
  2
APPID
  5
9
330
0
100
AcDbSymbolTable
 70
     1
  0
APPID
  5
12
330
9
100
AcDbSymbolTableRecord
100
AcDbRegAppTableRecord
  2
ACAD
 70
     0
  0
ENDTAB
  0
TABLE
  2
DIMSTYLE
  5
A
330
0
100
AcDbSymbolTable
 70
     1
100
AcDbDimStyleTable
  0
DIMSTYLE
105
27
330
A
100
AcDbSymbolTableRecord
100
AcDbDimStyleTableRecord
  2
Standard
 70
     0
178
     0
340
11
  0
ENDTAB
  0
TABLE
  2
BLOCK_RECORD
  5
1
330
0
100
AcDbSymbolTable
 70
    15
  0
BLOCK_RECORD
  5
1F
330
1
100
AcDbSymbolTableRecord
100
AcDbBlockTableRecord
  2
*Model_Space
340
22
 70
     0
280
     1
281
     0
  0
BLOCK_RECORD
  5
1B
330
1
100
AcDbSymbolTableRecord
100
AcDbBlockTableRecord
  2
*Paper_Space
340
1E
 70
     0
280
     1
281
     0
  0
BLOCK_RECORD
  5
23
330
1
100
AcDbSymbolTableRecord
100
AcDbBlockTableRecord
  2
*Paper_Space0
340
26
 70
     0
280
     1
281
     0
  0
BLOCK_RECORD
  5
40
330
1
100
AcDbSymbolTableRecord
100
AcDbBlockTableRecord
  2
block 2
340
0
102
{BLKREFS
331
41
102
}
 70
     0
280
     1
281
     0
  0
BLOCK_RECORD
  5
53
330
1
100
AcDbSymbolTableRecord
100
AcDbBlockTableRecord
  2
block 3
340
0
102
{BLKREFS
331
54
102
}
 70
     0
280
     1
281
     0
  0
BLOCK_RECORD
  5
58
330
1
100
AcDbSymbolTableRecord
100
AcDbBlockTableRecord
  2
block 4
340
0
102
{BLKREFS
331
59
102
}
 70
     0
280
     1
281
     0
  0
BLOCK_RECORD
  5
63
330
1
100
AcDbSymbolTableRecord
100
AcDbBlockTableRecord
  2
block 5
340
0
102
{BLKREFS
331
64
102
}
 70
     0
280
     1
281
     0
  0
BLOCK_RECORD
  5
72
330
1
100
AcDbSymbolTableRecord
100
AcDbBlockTableRecord
  2
block 6
340
0
102
{BLKREFS
331
73
102
}
 70
     0
280
     1
281
     0
  0
BLOCK_RECORD
  5
77
330
1
100
AcDbSymbolTableRecord
100
AcDbBlockTableRecord
  2
block 7
340
0
102
{BLKREFS
331
78
102
}
 70
     0
280
     1
281
     0
  0
BLOCK_RECORD
  5
7C
330
1
100
AcDbSymbolTableRecord
100
AcDbBlockTableRecord
  2
block 8
340
0
102
{BLKREFS
331
7D
102
}
 70
     0
280
     1
281
     0
  0
BLOCK_RECORD
  5
81
330
1
100
AcDbSymbolTableRecord
100
AcDbBlockTableRecord
  2
block 9
340
0
102
{BLKREFS
331
82
102
}
 70
     0
280
     1
281
     0
  0
BLOCK_RECORD
  5
86
330
1
100
AcDbSymbolTableRecord
100
AcDbBlockTableRecord
  2
block 10
340
0
102
{BLKREFS
331
87
102
}
 70
     0
280
     1
281
     0
  0
BLOCK_RECORD
  5
8B
330
1
100
AcDbSymbolTableRecord
100
AcDbBlockTableRecord
  2
block 11
340
0
102
{BLKREFS
331
8C
102
}
 70
     0
280
     1
281
     0
  0
BLOCK_RECORD
  5
90
330
1
100
AcDbSymbolTableRecord
100
AcDbBlockTableRecord
  2
block 12
340
0
102
{BLKREFS
331
91
102
}
 70
     0
280
     1
281
     0
  0
BLOCK_RECORD
  5
95
330
1
100
AcDbSymbolTableRecord
100
AcDbBlockTableRecord
  2
block 13
340
0
102
{BLKREFS
331
96
102
}
 70
     0
280
     1
281
     0
  0
BLOCK_RECORD
  5
9A
330
1
100
AcDbSymbolTableRecord
100
AcDbBlockTableRecord
  2
block 14
340
0
102
{BLKREFS
331
9B
102
}
 70
     0
280
     1
281
     0
  0
BLOCK_RECORD
  5
9F
330
1
100
AcDbSymbolTableRecord
100
AcDbBlockTableRecord
  2
block 15
340
0
102
{BLKREFS
331
A0
102
}
 70
     0
280
     1
281
     0
  0
ENDTAB
  0
ENDSEC
  0
SECTION
  2
BLOCKS
  0
BLOCK
  5
20
330
1F
100
AcDbEntity
  8
0
100
AcDbBlockBegin
  2
*Model_Space
 70
     0
 10
0.0
 20
0.0
 30
0.0
  3
*Model_Space
  1

  0
ENDBLK
  5
21
330
1F
100
AcDbEntity
  8
0
100
AcDbBlockEnd
  0
BLOCK
  5
1C
330
1B
100
AcDbEntity
 67
     1
  8
0
100
AcDbBlockBegin
  2
*Paper_Space
 70
     0
 10
0.0
 20
0.0
 30
0.0
  3
*Paper_Space
  1

  0
ENDBLK
  5
1D
330
1B
100
AcDbEntity
 67
     1
  8
0
100
AcDbBlockEnd
  0
BLOCK
  5
24
330
23
100
AcDbEntity
  8
0
100
AcDbBlockBegin
  2
*Paper_Space0
 70
     0
 10
0.0
 20
0.0
 30
0.0
  3
*Paper_Space0
  1

  0
ENDBLK
  5
25
330
23
100
AcDbEntity
  8
0
100
AcDbBlockEnd
  0
BLOCK
  5
42
330
40
100
AcDbEntity
  8
0
100
AcDbBlockBegin
  2
block 2
 70
     0
 10
0.0
 20
0.0
 30
0.0
  3
block 2
  1

  0
POLYLINE
  5
44
330
40
100
AcDbEntity
  8
0
 62
     7
420
 16777215
370
    25
100
AcDb2dPolyline
 66
     1
 10
0.0
 20
0.0
 30
0.0
  0
VERTEX
  5
45
330
44
100
AcDbEntity
  8
0
 62
     7
420
 16777215
370
    25
100
AcDbVertex
100
AcDb2dVertex
 10
1081.149438064032
 20
569.471874025923
 30
0.0
  0
VERTEX
  5
46
330
44
100
AcDbEntity
  8
0
 62
     7
420
 16777215
370
    25
100
AcDbVertex
100
AcDb2dVertex
 10
1081.149438064032
 20
588.9968740210413
 30
0.0
  0
VERTEX
  5
47
330
44
100
AcDbEntity
  8
0
 62
     7
420
 16777215
370
    25
100
AcDbVertex
100
AcDb2dVertex
 10
875.8866349047204
 20
588.9968740210422
 30
0.0
  0
VERTEX
  5
48
330
44
100
AcDbEntity
  8
0
 62
     7
420
 16777215
370
    25
100
AcDbVertex
100
AcDb2dVertex
 10
875.8866349047204
 20
569.9468740258045
 30
0.0
  0
VERTEX
  5
49
330
44
100
AcDbEntity
  8
0
 62
     7
420
 16777215
370
    25
100
AcDbVertex
100
AcDb2dVertex
 10
856.8366349094827
 20
569.9468740258045
 30
0.0
  0
VERTEX
  5
4A
330
44
100
AcDbEntity
  8
0
 62
     7
420
 16777215
370
    25
100
AcDbVertex
100
AcDb2dVertex
 10
856.8366349094827
 20
550.8968740305669
 30
0.0
  0
VERTEX
  5
4B
330
44
100
AcDbEntity
  8
0
 62
     7
420
 16777215
370
    25
100
AcDbVertex
100
AcDb2dVertex
 10
828.2616349166266
 20
550.8968740305669
 30
0.0
  0
VERTEX
  5
4C
330
44
100
AcDbEntity
  8
0
 62
     7
420
 16777215
370
    25
100
AcDbVertex
100
AcDb2dVertex
 10
828.2616349166266
 20
492.7968740450915
 30
0.0
  0
VERTEX
  5
4D
330
44
100
AcDbEntity
  8
0
 62
     7
420
 16777215
370
    25
100
AcDbVertex
100
AcDb2dVertex
 10
1114.963438055579
 20
492.7968740450915
 30
0.0
  0
VERTEX
  5
4E
330
44
100
AcDbEntity
  8
0
 62
     7
420
 16777215
370
    25
100
AcDbVertex
100
AcDb2dVertex
 10
1114.963438055579
 20
588.9968740210422
 30
0.0
  0
VERTEX
  5
4F
330
44
100
AcDbEntity
  8
0
 62
     7
420
 16777215
370
    25
100
AcDbVertex
100
AcDb2dVertex
 10
1090.674438061651
 20
588.9968740210422
 30
0.0
  0
VERTEX
  5
50
330
44
100
AcDbEntity
  8
0
 62
     7
420
 16777215
370
    25
100
AcDbVertex
100
AcDb2dVertex
 10
1090.674438061651
 20
569.471874025923
 30
0.0
  0
VERTEX
  5
51
330
44
100
AcDbEntity
  8
0
 62
     7
420
 16777215
370
    25
100
AcDbVertex
100
AcDb2dVertex
 10
1081.149438064032
 20
569.471874025923
 30
0.0
  0
SEQEND
  5
52
330
44
100
AcDbEntity
  8
0
 62
     7
420
 16777215
370
    25
  0
ENDBLK
  5
43
330
40
100
AcDbEntity
  8
0
100
AcDbBlockEnd
  0
BLOCK
  5
55
330
53
100
AcDbEntity
  8
0
100
AcDbBlockBegin
  2
block 3
 70
     0
 10
0.0
 20
0.0
 30
0.0
  3
block 3
  1

  0
SPLINE
  5
57
330
53
100
AcDbEntity
  8
0
 62
     7
420
 16777215
370
    25
100
AcDbSpline
210
0.0
220
0.0
230
1.0
 70
    11
 71
     3
 72
    29
 73
    25
 74
     0
 42
0.0000000001
 43
0.0000000001
 12
1.0
 22
0.0
 32
0.0
 13
1.0
 23
0.0
 33
0.0
 40
0.0
 40
0.0
 40
0.0
 40
0.0
 40
1.0
 40
1.0
 40
1.0
 40
2.0
 40
2.0
 40
2.0
 40
3.0
 40
3.0
 40
3.0
 40
4.0
 40
4.0
 40
4.0
 40
5.0
 40
5.0
 40
5.0
 40
6.0
 40
6.0
 40
6.0
 40
7.0
 40
7.0
 40
7.0
 40
8.0
 40
8.0
 40
8.0
 40
8.0
 10
803.0114997992467
 20
477.2154998806964
 30
0.0
 10
800.2500760507836
 20
477.2154998806964
 30
0.0
 10
798.0114998004967
 20
479.4540761309823
 30
0.0
 10
798.0114998004967
 20
482.2154998794464
 30
0.0
 10
798.0114998004967
 20
482.2154998794464
 30
0.0
 10
798.0114998004967
 20
598.7844998503036
 30
0.0
 10
798.0114998004967
 20
598.7844998503036
 30
0.0
 10
798.0114998004967
 20
601.5459235987676
 30
0.0
 10
800.2500760507836
 20
603.7844998490536
 30
0.0
 10
803.0114997992467
 20
603.7844998490536
 30
0.0
 10
803.0114997992467
 20
603.7844998490536
 30
0.0
 10
1117.988499720502
 20
603.7844998490536
 30
0.0
 10
1117.988499720502
 20
603.7844998490536
 30
0.0
 10
1120.749923468966
 20
603.7844998490536
 30
0.0
 10
1122.988499719252
 20
601.5459235987676
 30
0.0
 10
1122.988499719252
 20
598.7844998503036
 30
0.0
 10
1122.988499719252
 20
598.7844998503036
 30
0.0
 10
1122.988499719252
 20
482.2154998794464
 30
0.0
 10
1122.988499719252
 20
482.2154998794464
 30
0.0
 10
1122.988499719252
 20
479.4540761309823
 30
0.0
 10
1120.749923468966
 20
477.2154998806964
 30
0.0
 10
1117.988499720502
 20
477.2154998806964
 30
0.0
 10
1117.988499720502
 20
477.2154998806964
 30
0.0
 10
803.0114997992467
 20
477.2154998806964
 30
0.0
 10
803.0114997992467
 20
477.2154998806964
 30
0.0
  0
ENDBLK
  5
56
330
53
100
AcDbEntity
  8
0
100
AcDbBlockEnd
  0
BLOCK
  5
5A
330
58
100
AcDbEntity
  8
0
100
AcDbBlockBegin
  2
block 4
 70
     0
 10
0.0
 20
0.0
 30
0.0
  3
block 4
  1

  0
POLYLINE
  5
5C
330
58
100
AcDbEntity
  8
0
 62
     7
420
 16777215
370
    25
100
AcDb2dPolyline
 66
     1
 10
0.0
 20
0.0
 30
0.0
  0
VERTEX
  5
5D
330
5C
100
AcDbEntity
  8
0
 62
     7
420
 16777215
370
    25
100
AcDbVertex
100
AcDb2dVertex
 10
809.8522192186588
 20
514.4629311074982
 30
0.0
  0
VERTEX
  5
5E
330
5C
100
AcDbEntity
  8
0
 62
     7
420
 16777215
370
    25
100
AcDbVertex
100
AcDb2dVertex
 10
823.8522192151579
 20
514.4629311074982
 30
0.0
  0
VERTEX
  5
5F
330
5C
100
AcDbEntity
  8
0
 62
     7
420
 16777215
370
    25
100
AcDbVertex
100
AcDb2dVertex
 10
823.8522192151588
 20
554.4629310974982
 30
0.0
  0
VERTEX
  5
60
330
5C
100
AcDbEntity
  8
0
 62
     7
420
 16777215
370
    25
100
AcDbVertex
100
AcDb2dVertex
 10
809.8522192186588
 20
554.4629310974982
 30
0.0
  0
VERTEX
  5
61
330
5C
100
AcDbEntity
  8
0
 62
     7
420
 16777215
370
    25
100
AcDbVertex
100
AcDb2dVertex
 10
809.8522192186588
 20
514.4629311074982
 30
0.0
  0
SEQEND
  5
62
330
5C
100
AcDbEntity
  8
0
 62
     7
420
 16777215
370
    25
  0
ENDBLK
  5
5B
330
58
100
AcDbEntity
  8
0
100
AcDbBlockEnd
  0
BLOCK
  5
65
330
63
100
AcDbEntity
  8
0
100
AcDbBlockBegin
  2
block 5
 70
     0
 10
0.0
 20
0.0
 30
0.0
  3
block 5
  1

  0
POLYLINE
  5
67
330
63
100
AcDbEntity
  8
0
 62
     7
420
 16777215
370
    25
100
AcDb2dPolyline
 66
     1
 10
0.0
 20
0.0
 30
0.0
  0
VERTEX
  5
68
330
67
100
AcDbEntity
  8
0
 62
     7
420
 16777215
370
    25
100
AcDbVertex
100
AcDb2dVertex
 10
833.0241349154358
 20
573.7593740248515
 30
0.0
  0
VERTEX
  5
69
330
67
100
AcDbEntity
  8
0
 62
     7
420
 16777215
370
    25
100
AcDbVertex
100
AcDb2dVertex
 10
833.0241349154358
 20
554.7093740296137
 30
0.0
  0
VERTEX
  5
6A
330
67
100
AcDbEntity
  8
0
 62
     7
420
 16777215
370
    25
100
AcDbVertex
100
AcDb2dVertex
 10
853.0241349104358
 20
554.7093740296137
 30
0.0
  0
VERTEX
  5
6B
330
67
100
AcDbEntity
  8
0
 62
     7
420
 16777215
370
    25
100
AcDbVertex
100
AcDb2dVertex
 10
853.0241349104358
 20
573.7593740248515
 30
0.0
  0
VERTEX
  5
6C
330
67
100
AcDbEntity
  8
0
 62
     7
420
 16777215
370
    25
100
AcDbVertex
100
AcDb2dVertex
 10
872.0741349056735
 20
573.7593740248515
 30
0.0
  0
VERTEX
  5
6D
330
67
100
AcDbEntity
  8
0
 62
     7
420
 16777215
370
    25
100
AcDbVertex
100
AcDb2dVertex
 10
872.0741349056735
 20
593.7593740198514
 30
0.0
  0
VERTEX
  5
6E
330
67
100
AcDbEntity
  8
0
 62
     7
420
 16777215
370
    25
100
AcDbVertex
100
AcDb2dVertex
 10
813.9741349201981
 20
593.7593740198514
 30
0.0
  0
VERTEX
  5
6F
330
67
100
AcDbEntity
  8
0
 62
     7
420
 16777215
370
    25
100
AcDbVertex
100
AcDb2dVertex
 10
813.9741349201981
 20
573.7593740248515
 30
0.0
  0
VERTEX
  5
70
330
67
100
AcDbEntity
  8
0
 62
     7
420
 16777215
370
    25
100
AcDbVertex
100
AcDb2dVertex
 10
833.0241349154358
 20
573.7593740248515
 30
0.0
  0
SEQEND
  5
71
330
67
100
AcDbEntity
  8
0
 62
     7
420
 16777215
370
    25
  0
ENDBLK
  5
66
330
63
100
AcDbEntity
  8
0
100
AcDbBlockEnd
  0
BLOCK
  5
74
330
72
100
AcDbEntity
  8
0
100
AcDbBlockBegin
  2
block 6
 70
     0
 10
0.0
 20
0.0
 30
0.0
  3
block 6
  1

  0
SPLINE
  5
76
330
72
100
AcDbEntity
  8
0
 62
     7
420
 16777215
370
    25
100
AcDbSpline
210
0.0
220
0.0
230
1.0
 70
    11
 71
     3
 72
    20
 73
    16
 74
     0
 42
0.0000000001
 43
0.0000000001
 12
1.0
 22
0.0
 32
0.0
 13
1.0
 23
0.0
 33
0.0
 40
0.0
 40
0.0
 40
0.0
 40
0.0
 40
1.0
 40
1.0
 40
1.0
 40
2.0
 40
2.0
 40
2.0
 40
3.0
 40
3.0
 40
3.0
 40
4.0
 40
4.0
 40
4.0
 40
5.0
 40
5.0
 40
5.0
 40
5.0
 10
808.3303967752616
 20
502.7842114809334
 30
0.0
 10
808.3303967752616
 20
507.4786318533218
 30
0.0
 10
812.1359764007482
 20
511.2842114788084
 30
0.0
 10
816.8303967731366
 20
511.2842114788084
 30
0.0
 10
821.5248171455241
 20
511.2842114788084
 30
0.0
 10
825.3303967710116
 20
507.4786318533218
 30
0.0
 10
825.3303967710116
 20
502.7842114809334
 30
0.0
 10
825.3303967710116
 20
498.0897911085468
 30
0.0
 10
821.5248171455241
 20
494.2842114830584
 30
0.0
 10
816.8303967731366
 20
494.2842114830584
 30
0.0
 10
812.1359764007482
 20
494.2842114830584
 30
0.0
 10
808.3303967752616
 20
498.0897911085468
 30
0.0
 10
808.3303967752616
 20
502.7842114809334
 30
0.0
 10
808.3303967752616
 20
502.7842114809334
 30
0.0
 10
808.3303967752616
 20
502.7842114809334
 30
0.0
 10
808.3303967752616
 20
502.7842114809334
 30
0.0
  0
ENDBLK
  5
75
330
72
100
AcDbEntity
  8
0
100
AcDbBlockEnd
  0
BLOCK
  5
79
330
77
100
AcDbEntity
  8
0
100
AcDbBlockBegin
  2
block 7
 70
     0
 10
0.0
 20
0.0
 30
0.0
  3
block 7
  1

  0
SPLINE
  5
7B
330
77
100
AcDbEntity
  8
0
 62
     7
420
 16777215
370
    25
100
AcDbSpline
210
0.0
220
0.0
230
1.0
 70
    11
 71
     3
 72
    20
 73
    16
 74
     0
 42
0.0000000001
 43
0.0000000001
 12
1.0
 22
0.0
 32
0.0
 13
1.0
 23
0.0
 33
0.0
 40
0.0
 40
0.0
 40
0.0
 40
0.0
 40
1.0
 40
1.0
 40
1.0
 40
2.0
 40
2.0
 40
2.0
 40
3.0
 40
3.0
 40
3.0
 40
4.0
 40
4.0
 40
4.0
 40
5.0
 40
5.0
 40
5.0
 40
5.0
 10
1113.413438055966
 20
484.2405948102941
 30
0.0
 10
1113.413438055966
 20
485.0966361723182
 30
0.0
 10
1114.107396693555
 20
485.7905948099059
 30
0.0
 10
1114.963438055579
 20
485.7905948099059
 30
0.0
 10
1115.819479417603
 20
485.7905948099059
 30
0.0
 10
1116.513438055191
 20
485.0966361723182
 30
0.0
 10
1116.513438055191
 20
484.2405948102941
 30
0.0
 10
1116.513438055191
 20
483.38455344827
 30
0.0
 10
1115.819479417603
 20
482.6905948106823
 30
0.0
 10
1114.963438055579
 20
482.6905948106823
 30
0.0
 10
1114.107396693555
 20
482.6905948106823
 30
0.0
 10
1113.413438055966
 20
483.38455344827
 30
0.0
 10
1113.413438055966
 20
484.2405948102941
 30
0.0
 10
1113.413438055966
 20
484.2405948102941
 30
0.0
 10
1113.413438055966
 20
484.2405948102941
 30
0.0
 10
1113.413438055966
 20
484.2405948102941
 30
0.0
  0
ENDBLK
  5
7A
330
77
100
AcDbEntity
  8
0
100
AcDbBlockEnd
  0
BLOCK
  5
7E
330
7C
100
AcDbEntity
  8
0
100
AcDbBlockBegin
  2
block 8
 70
     0
 10
0.0
 20
0.0
 30
0.0
  3
block 8
  1

  0
SPLINE
  5
80
330
7C
100
AcDbEntity
  8
0
 62
     7
420
 16777215
370
    25
100
AcDbSpline
210
0.0
220
0.0
230
1.0
 70
    11
 71
     3
 72
    20
 73
    16
 74
     0
 42
0.0000000001
 43
0.0000000001
 12
1.0
 22
0.0
 32
0.0
 13
1.0
 23
0.0
 33
0.0
 40
0.0
 40
0.0
 40
0.0
 40
0.0
 40
1.0
 40
1.0
 40
1.0
 40
2.0
 40
2.0
 40
2.0
 40
3.0
 40
3.0
 40
3.0
 40
4.0
 40
4.0
 40
4.0
 40
5.0
 40
5.0
 40
5.0
 40
5.0
 10
804.4865614645581
 20
596.7594049194558
 30
0.0
 10
804.4865614645581
 20
597.6154462814791
 30
0.0
 10
805.1805201021467
 20
598.3094049190677
 30
0.0
 10
806.0365614641709
 20
598.3094049190686
 30
0.0
 10
806.8926028261949
 20
598.3094049190677
 30
0.0
 10
807.5865614637835
 20
597.6154462814791
 30
0.0
 10
807.5865614637835
 20
596.7594049194558
 30
0.0
 10
807.5865614637835
 20
595.9033635574318
 30
0.0
 10
806.8926028261949
 20
595.2094049198432
 30
0.0
 10
806.0365614641709
 20
595.2094049198432
 30
0.0
 10
805.1805201021467
 20
595.2094049198432
 30
0.0
 10
804.4865614645581
 20
595.9033635574318
 30
0.0
 10
804.4865614645581
 20
596.7594049194558
 30
0.0
 10
804.4865614645581
 20
596.7594049194558
 30
0.0
 10
804.4865614645581
 20
596.7594049194558
 30
0.0
 10
804.4865614645581
 20
596.7594049194558
 30
0.0
  0
ENDBLK
  5
7F
330
7C
100
AcDbEntity
  8
0
100
AcDbBlockEnd
  0
BLOCK
  5
83
330
81
100
AcDbEntity
  8
0
100
AcDbBlockBegin
  2
block 9
 70
     0
 10
0.0
 20
0.0
 30
0.0
  3
block 9
  1

  0
SPLINE
  5
85
330
81
100
AcDbEntity
  8
0
 62
     7
420
 16777215
370
    25
100
AcDbSpline
210
0.0
220
0.0
230
1.0
 70
    11
 71
     3
 72
    20
 73
    16
 74
     0
 42
0.0000000001
 43
0.0000000001
 12
1.0
 22
0.0
 32
0.0
 13
1.0
 23
0.0
 33
0.0
 40
0.0
 40
0.0
 40
0.0
 40
0.0
 40
1.0
 40
1.0
 40
1.0
 40
2.0
 40
2.0
 40
2.0
 40
3.0
 40
3.0
 40
3.0
 40
4.0
 40
4.0
 40
4.0
 40
5.0
 40
5.0
 40
5.0
 40
5.0
 10
1113.413438055966
 20
596.7594049194558
 30
0.0
 10
1113.413438055966
 20
597.6154462814791
 30
0.0
 10
1114.107396693555
 20
598.3094049190677
 30
0.0
 10
1114.963438055579
 20
598.3094049190677
 30
0.0
 10
1115.819479417603
 20
598.3094049190677
 30
0.0
 10
1116.513438055191
 20
597.6154462814791
 30
0.0
 10
1116.513438055191
 20
596.7594049194558
 30
0.0
 10
1116.513438055191
 20
595.9033635574318
 30
0.0
 10
1115.819479417603
 20
595.2094049198432
 30
0.0
 10
1114.963438055579
 20
595.2094049198432
 30
0.0
 10
1114.107396693555
 20
595.2094049198432
 30
0.0
 10
1113.413438055966
 20
595.9033635574318
 30
0.0
 10
1113.413438055966
 20
596.7594049194558
 30
0.0
 10
1113.413438055966
 20
596.7594049194558
 30
0.0
 10
1113.413438055966
 20
596.7594049194558
 30
0.0
 10
1113.413438055966
 20
596.7594049194558
 30
0.0
  0
ENDBLK
  5
84
330
81
100
AcDbEntity
  8
0
100
AcDbBlockEnd
  0
BLOCK
  5
88
330
86
100
AcDbEntity
  8
0
100
AcDbBlockBegin
  2
block 10
 70
     0
 10
0.0
 20
0.0
 30
0.0
  3
block 10
  1

  0
SPLINE
  5
8A
330
86
100
AcDbEntity
  8
0
 62
     7
420
 16777215
370
    25
100
AcDbSpline
210
0.0
220
0.0
230
1.0
 70
    11
 71
     3
 72
    20
 73
    16
 74
     0
 42
0.0000000001
 43
0.0000000001
 12
1.0
 22
0.0
 32
0.0
 13
1.0
 23
0.0
 33
0.0
 40
0.0
 40
0.0
 40
0.0
 40
0.0
 40
1.0
 40
1.0
 40
1.0
 40
2.0
 40
2.0
 40
2.0
 40
3.0
 40
3.0
 40
3.0
 40
4.0
 40
4.0
 40
4.0
 40
5.0
 40
5.0
 40
5.0
 40
5.0
 10
804.4865614645581
 20
484.2405948102941
 30
0.0
 10
804.4865614645581
 20
485.0966361723182
 30
0.0
 10
805.1805201021467
 20
485.7905948099059
 30
0.0
 10
806.0365614641709
 20
485.7905948099059
 30
0.0
 10
806.8926028261949
 20
485.7905948099059
 30
0.0
 10
807.5865614637835
 20
485.0966361723182
 30
0.0
 10
807.5865614637835
 20
484.2405948102941
 30
0.0
 10
807.5865614637835
 20
483.38455344827
 30
0.0
 10
806.8926028261949
 20
482.6905948106823
 30
0.0
 10
806.0365614641709
 20
482.6905948106823
 30
0.0
 10
805.1805201021467
 20
482.6905948106823
 30
0.0
 10
804.4865614645581
 20
483.38455344827
 30
0.0
 10
804.4865614645581
 20
484.2405948102941
 30
0.0
 10
804.4865614645581
 20
484.2405948102941
 30
0.0
 10
804.4865614645581
 20
484.2405948102941
 30
0.0
 10
804.4865614645581
 20
484.2405948102941
 30
0.0
  0
ENDBLK
  5
89
330
86
100
AcDbEntity
  8
0
100
AcDbBlockEnd
  0
BLOCK
  5
8D
330
8B
100
AcDbEntity
  8
0
100
AcDbBlockBegin
  2
block 11
 70
     0
 10
0.0
 20
0.0
 30
0.0
  3
block 11
  1

  0
SPLINE
  5
8F
330
8B
100
AcDbEntity
  8
0
 62
     7
420
 16777215
370
    25
100
AcDbSpline
210
0.0
220
0.0
230
1.0
 70
    11
 71
     3
 72
    20
 73
    16
 74
     0
 42
0.0000000001
 43
0.0000000001
 12
1.0
 22
0.0
 32
0.0
 13
1.0
 23
0.0
 33
0.0
 40
0.0
 40
0.0
 40
0.0
 40
0.0
 40
1.0
 40
1.0
 40
1.0
 40
2.0
 40
2.0
 40
2.0
 40
3.0
 40
3.0
 40
3.0
 40
4.0
 40
4.0
 40
4.0
 40
5.0
 40
5.0
 40
5.0
 40
5.0
 10
1011.944218914174
 20
484.2405948102941
 30
0.0
 10
1011.944218914174
 20
485.0966361723182
 30
0.0
 10
1012.638177551762
 20
485.7905948099059
 30
0.0
 10
1013.494218913786
 20
485.7905948099059
 30
0.0
 10
1014.35026027581
 20
485.7905948099059
 30
0.0
 10
1015.044218913398
 20
485.0966361723182
 30
0.0
 10
1015.044218913398
 20
484.2405948102941
 30
0.0
 10
1015.044218913398
 20
483.38455344827
 30
0.0
 10
1014.35026027581
 20
482.6905948106823
 30
0.0
 10
1013.494218913786
 20
482.6905948106823
 30
0.0
 10
1012.638177551762
 20
482.6905948106823
 30
0.0
 10
1011.944218914174
 20
483.38455344827
 30
0.0
 10
1011.944218914174
 20
484.2405948102941
 30
0.0
 10
1011.944218914174
 20
484.2405948102941
 30
0.0
 10
1011.944218914174
 20
484.2405948102941
 30
0.0
 10
1011.944218914174
 20
484.2405948102941
 30
0.0
  0
ENDBLK
  5
8E
330
8B
100
AcDbEntity
  8
0
100
AcDbBlockEnd
  0
BLOCK
  5
92
330
90
100
AcDbEntity
  8
0
100
AcDbBlockBegin
  2
block 12
 70
     0
 10
0.0
 20
0.0
 30
0.0
  3
block 12
  1

  0
SPLINE
  5
94
330
90
100
AcDbEntity
  8
0
 62
     7
420
 16777215
370
    25
100
AcDbSpline
210
0.0
220
0.0
230
1.0
 70
    11
 71
     3
 72
    20
 73
    16
 74
     0
 42
0.0000000001
 43
0.0000000001
 12
1.0
 22
0.0
 32
0.0
 13
1.0
 23
0.0
 33
0.0
 40
0.0
 40
0.0
 40
0.0
 40
0.0
 40
1.0
 40
1.0
 40
1.0
 40
2.0
 40
2.0
 40
2.0
 40
3.0
 40
3.0
 40
3.0
 40
4.0
 40
4.0
 40
4.0
 40
5.0
 40
5.0
 40
5.0
 40
5.0
 10
905.955780606351
 20
596.7594049194558
 30
0.0
 10
905.955780606351
 20
597.6154462814791
 30
0.0
 10
906.6497392439396
 20
598.3094049190677
 30
0.0
 10
907.5057806059638
 20
598.3094049190686
 30
0.0
 10
908.3618219679869
 20
598.3094049190677
 30
0.0
 10
909.0557806055755
 20
597.6154462814791
 30
0.0
 10
909.0557806055764
 20
596.7594049194558
 30
0.0
 10
909.0557806055755
 20
595.9033635574318
 30
0.0
 10
908.3618219679869
 20
595.2094049198432
 30
0.0
 10
907.5057806059638
 20
595.2094049198432
 30
0.0
 10
906.6497392439396
 20
595.2094049198432
 30
0.0
 10
905.955780606351
 20
595.9033635574318
 30
0.0
 10
905.955780606351
 20
596.7594049194558
 30
0.0
 10
905.955780606351
 20
596.7594049194558
 30
0.0
 10
905.955780606351
 20
596.7594049194558
 30
0.0
 10
905.955780606351
 20
596.7594049194558
 30
0.0
  0
ENDBLK
  5
93
330
90
100
AcDbEntity
  8
0
100
AcDbBlockEnd
  0
BLOCK
  5
97
330
95
100
AcDbEntity
  8
0
100
AcDbBlockBegin
  2
block 13
 70
     0
 10
0.0
 20
0.0
 30
0.0
  3
block 13
  1

  0
SPLINE
  5
99
330
95
100
AcDbEntity
  8
0
 62
     7
420
 16777215
370
    25
100
AcDbSpline
210
0.0
220
0.0
230
1.0
 70
    11
 71
     3
 72
    20
 73
    16
 74
     0
 42
0.0000000001
 43
0.0000000001
 12
1.0
 22
0.0
 32
0.0
 13
1.0
 23
0.0
 33
0.0
 40
0.0
 40
0.0
 40
0.0
 40
0.0
 40
1.0
 40
1.0
 40
1.0
 40
2.0
 40
2.0
 40
2.0
 40
3.0
 40
3.0
 40
3.0
 40
4.0
 40
4.0
 40
4.0
 40
5.0
 40
5.0
 40
5.0
 40
5.0
 10
1011.944218914174
 20
596.7594049194558
 30
0.0
 10
1011.944218914174
 20
597.6154462814791
 30
0.0
 10
1012.638177551762
 20
598.3094049190677
 30
0.0
 10
1013.494218913786
 20
598.3094049190677
 30
0.0
 10
1014.35026027581
 20
598.3094049190677
 30
0.0
 10
1015.044218913398
 20
597.6154462814791
 30
0.0
 10
1015.044218913398
 20
596.7594049194558
 30
0.0
 10
1015.044218913398
 20
595.9033635574318
 30
0.0
 10
1014.35026027581
 20
595.2094049198432
 30
0.0
 10
1013.494218913786
 20
595.2094049198432
 30
0.0
 10
1012.638177551762
 20
595.2094049198432
 30
0.0
 10
1011.944218914174
 20
595.9033635574318
 30
0.0
 10
1011.944218914174
 20
596.7594049194558
 30
0.0
 10
1011.944218914174
 20
596.7594049194558
 30
0.0
 10
1011.944218914174
 20
596.7594049194558
 30
0.0
 10
1011.944218914174
 20
596.7594049194558
 30
0.0
  0
ENDBLK
  5
98
330
95
100
AcDbEntity
  8
0
100
AcDbBlockEnd
  0
BLOCK
  5
9C
330
9A
100
AcDbEntity
  8
0
100
AcDbBlockBegin
  2
block 14
 70
     0
 10
0.0
 20
0.0
 30
0.0
  3
block 14
  1

  0
SPLINE
  5
9E
330
9A
100
AcDbEntity
  8
0
 62
     7
420
 16777215
370
    25
100
AcDbSpline
210
0.0
220
0.0
230
1.0
 70
    11
 71
     3
 72
    20
 73
    16
 74
     0
 42
0.0000000001
 43
0.0000000001
 12
1.0
 22
0.0
 32
0.0
 13
1.0
 23
0.0
 33
0.0
 40
0.0
 40
0.0
 40
0.0
 40
0.0
 40
1.0
 40
1.0
 40
1.0
 40
2.0
 40
2.0
 40
2.0
 40
3.0
 40
3.0
 40
3.0
 40
4.0
 40
4.0
 40
4.0
 40
5.0
 40
5.0
 40
5.0
 40
5.0
 10
905.955780606351
 20
484.2405948102941
 30
0.0
 10
905.955780606351
 20
485.0966361723182
 30
0.0
 10
906.6497392439396
 20
485.7905948099059
 30
0.0
 10
907.5057806059638
 20
485.7905948099059
 30
0.0
 10
908.3618219679869
 20
485.7905948099059
 30
0.0
 10
909.0557806055755
 20
485.0966361723182
 30
0.0
 10
909.0557806055764
 20
484.2405948102941
 30
0.0
 10
909.0557806055755
 20
483.38455344827
 30
0.0
 10
908.3618219679869
 20
482.6905948106823
 30
0.0
 10
907.5057806059638
 20
482.6905948106823
 30
0.0
 10
906.6497392439396
 20
482.6905948106823
 30
0.0
 10
905.955780606351
 20
483.38455344827
 30
0.0
 10
905.955780606351
 20
484.2405948102941
 30
0.0
 10
905.955780606351
 20
484.2405948102941
 30
0.0
 10
905.955780606351
 20
484.2405948102941
 30
0.0
 10
905.955780606351
 20
484.2405948102941
 30
0.0
  0
ENDBLK
  5
9D
330
9A
100
AcDbEntity
  8
0
100
AcDbBlockEnd
  0
BLOCK
  5
A1
330
9F
100
AcDbEntity
  8
0
100
AcDbBlockBegin
  2
block 15
 70
     0
 10
0.0
 20
0.0
 30
0.0
  3
block 15
  1

  0
SPLINE
  5
A3
330
9F
100
AcDbEntity
  8
0
 62
   240
420
 15539236
370
    35
100
AcDbSpline
210
0.0
220
0.0
230
1.0
 70
    11
 71
     3
 72
    71
 73
    67
 74
     0
 42
0.0000000001
 43
0.0000000001
 12
1.0
 22
0.0
 32
0.0
 13
1.0
 23
0.0
 33
0.0
 40
0.0
 40
0.0
 40
0.0
 40
0.0
 40
1.0
 40
1.0
 40
1.0
 40
2.0
 40
2.0
 40
2.0
 40
3.0
 40
3.0
 40
3.0
 40
4.0
 40
4.0
 40
4.0
 40
5.0
 40
5.0
 40
5.0
 40
6.0
 40
6.0
 40
6.0
 40
7.0
 40
7.0
 40
7.0
 40
8.0
 40
8.0
 40
8.0
 40
9.0
 40
9.0
 40
9.0
 40
10.0
 40
10.0
 40
10.0
 40
11.0
 40
11.0
 40
11.0
 40
12.0
 40
12.0
 40
12.0
 40
13.0
 40
13.0
 40
13.0
 40
14.0
 40
14.0
 40
14.0
 40
15.0
 40
15.0
 40
15.0
 40
16.0
 40
16.0
 40
16.0
 40
17.0
 40
17.0
 40
17.0
 40
18.0
 40
18.0
 40
18.0
 40
19.0
 40
19.0
 40
19.0
 40
20.0
 40
20.0
 40
20.0
 40
21.0
 40
21.0
 40
21.0
 40
22.0
 40
22.0
 40
22.0
 40
22.0
 10
808.8945310477764
 20
609.1221185724896
 30
0.0
 10
808.8945310477764
 20
609.1221185724896
 30
0.0
 10
806.8432615170392
 20
617.2056146642187
 30
0.0
 10
806.8432615170392
 20
617.2056146642187
 30
0.0
 10
806.8432615170392
 20
617.2056146642187
 30
0.0
 10
807.9467771417633
 20
617.2056146642187
 30
0.0
 10
807.9467771417633
 20
617.2056146642187
 30
0.0
 10
807.9467771417633
 20
617.2056146642187
 30
0.0
 10
808.9062497977734
 20
613.1157709152412
 30
0.0
 10
808.9062497977734
 20
613.1157709152412
 30
0.0
 10
809.1459958914635
 20
612.108446696743
 30
0.0
 10
809.3623044851594
 20
611.1011224782449
 30
0.0
 10
809.5058591726236
 20
610.3213373221898
 30
0.0
 10
809.5058591726236
 20
610.3213373221898
 30
0.0
 10
809.5297849538675
 20
610.3213373221898
 30
0.0
 10
809.5297849538675
 20
610.3213373221898
 30
0.0
 10
809.6621091725845
 20
611.125048259489
 30
0.0
 10
809.9135740162716
 20
612.0845209154991
 30
0.0
 10
810.1894529224526
 20
613.1279779464882
 30
0.0
 10
810.1894529224526
 20
613.1279779464882
 30
0.0
 10
811.2690427659327
 20
617.2056146642187
 30
0.0
 10
811.2690427659327
 20
617.2056146642187
 30
0.0
 10
811.2690427659327
 20
617.2056146642187
 30
0.0
 10
812.36035135941
 20
617.2056146642187
 30
0.0
 10
812.36035135941
 20
617.2056146642187
 30
0.0
 10
812.36035135941
 20
617.2056146642187
 30
0.0
 10
813.343749796664
 20
613.1040521652442
 30
0.0
 10
813.343749796664
 20
613.1040521652442
 30
0.0
 10
813.5717771403571
 20
612.1445795092341
 30
0.0
 10
813.7875974528031
 20
611.1851068532239
 30
0.0
 10
813.9077146402731
 20
610.3335443534368
 30
0.0
 10
813.9077146402731
 20
610.3335443534368
 30
0.0
 10
813.931640421517
 20
610.3335443534368
 30
0.0
 10
813.931640421517
 20
610.3335443534368
 30
0.0
 10
814.0996091714751
 20
611.220751384465
 30
0.0
 10
814.3271482339183
 20
612.12065372799
 30
0.0
 10
814.5791013588552
 20
613.1279779464882
 30
0.0
 10
814.5791013588552
 20
613.1279779464882
 30
0.0
 10
815.6464841710883
 20
617.2056146642187
 30
0.0
 10
815.6464841710883
 20
617.2056146642187
 30
0.0
 10
815.6464841710883
 20
617.2056146642187
 30
0.0
 10
816.7138669833215
 20
617.2056146642187
 30
0.0
 10
816.7138669833215
 20
617.2056146642187
 30
0.0
 10
816.7138669833215
 20
617.2056146642187
 30
0.0
 10
814.4233396401441
 20
609.1221185724896
 30
0.0
 10
814.4233396401441
 20
609.1221185724896
 30
0.0
 10
814.4233396401441
 20
609.1221185724896
 30
0.0
 10
813.332031046667
 20
609.1221185724896
 30
0.0
 10
813.332031046667
 20
609.1221185724896
 30
0.0
 10
813.332031046667
 20
609.1221185724896
 30
0.0
 10
812.3124997969219
 20
613.3315912276872
 30
0.0
 10
812.3124997969219
 20
613.3315912276872
 30
0.0
 10
812.0605466719849
 20
614.3633295086794
 30
0.0
 10
811.8925779220268
 20
615.1548334147315
 30
0.0
 10
811.7846677658038
 20
615.9702631020276
 30
0.0
 10
811.7846677658038
 20
615.9702631020276
 30
0.0
 10
811.7607419845598
 20
615.9702631020276
 30
0.0
 10
811.7607419845598
 20
615.9702631020276
 30
0.0
 10
811.6166990158458
 20
615.1670404459784
 30
0.0
 10
811.4370115158907
 20
614.3750482586764
 30
0.0
 10
811.1372068284657
 20
613.3315912276872
 30
0.0
 10
811.1372068284657
 20
613.3315912276872
 30
0.0
 10
809.9858396412535
 20
609.1221185724896
 30
0.0
 10
809.9858396412535
 20
609.1221185724896
 30
0.0
 10
809.9858396412535
 20
609.1221185724896
 30
0.0
 10
808.8945310477764
 20
609.1221185724896
 30
0.0
 10
808.8945310477764
 20
609.1221185724896
 30
0.0
  0
HATCH
  5
A4
330
9F
100
AcDbEntity
  8
0
 62
   240
420
 15539236
100
AcDbHatch
 10
0.0
 20
0.0
 30
0.0
210
0.0
220
0.0
230
1.0
  2
SOLID
 70
     1
 71
     0
 91
        1
 92
        1
 93
        1
 72
     4
 94
        3
 73
     0
 74
     1
 95
       71
 96
       67
 40
0.0
 40
0.0
 40
0.0
 40
0.0
 40
1.0
 40
1.0
 40
1.0
 40
2.0
 40
2.0
 40
2.0
 40
3.0
 40
3.0
 40
3.0
 40
4.0
 40
4.0
 40
4.0
 40
5.0
 40
5.0
 40
5.0
 40
6.0
 40
6.0
 40
6.0
 40
7.0
 40
7.0
 40
7.0
 40
8.0
 40
8.0
 40
8.0
 40
9.0
 40
9.0
 40
9.0
 40
10.0
 40
10.0
 40
10.0
 40
11.0
 40
11.0
 40
11.0
 40
12.0
 40
12.0
 40
12.0
 40
13.0
 40
13.0
 40
13.0
 40
14.0
 40
14.0
 40
14.0
 40
15.0
 40
15.0
 40
15.0
 40
16.0
 40
16.0
 40
16.0
 40
17.0
 40
17.0
 40
17.0
 40
18.0
 40
18.0
 40
18.0
 40
19.0
 40
19.0
 40
19.0
 40
20.0
 40
20.0
 40
20.0
 40
21.0
 40
21.0
 40
21.0
 40
22.0
 40
22.0
 40
22.0
 40
22.0
 10
808.8945310477764
 20
609.1221185724896
 10
808.8945310477764
 20
609.1221185724896
 10
806.8432615170392
 20
617.2056146642187
 10
806.8432615170392
 20
617.2056146642187
 10
806.8432615170392
 20
617.2056146642187
 10
807.9467771417633
 20
617.2056146642187
 10
807.9467771417633
 20
617.2056146642187
 10
807.9467771417633
 20
617.2056146642187
 10
808.9062497977734
 20
613.1157709152412
 10
808.9062497977734
 20
613.1157709152412
 10
809.1459958914635
 20
612.108446696743
 10
809.3623044851594
 20
611.1011224782449
 10
809.5058591726236
 20
610.3213373221898
 10
809.5058591726236
 20
610.3213373221898
 10
809.5297849538675
 20
610.3213373221898
 10
809.5297849538675
 20
610.3213373221898
 10
809.6621091725845
 20
611.125048259489
 10
809.9135740162716
 20
612.0845209154991
 10
810.1894529224526
 20
613.1279779464882
 10
810.1894529224526
 20
613.1279779464882
 10
811.2690427659327
 20
617.2056146642187
 10
811.2690427659327
 20
617.2056146642187
 10
811.2690427659327
 20
617.2056146642187
 10
812.36035135941
 20
617.2056146642187
 10
812.36035135941
 20
617.2056146642187
 10
812.36035135941
 20
617.2056146642187
 10
813.343749796664
 20
613.1040521652442
 10
813.343749796664
 20
613.1040521652442
 10
813.5717771403571
 20
612.1445795092341
 10
813.7875974528031
 20
611.1851068532239
 10
813.9077146402731
 20
610.3335443534368
 10
813.9077146402731
 20
610.3335443534368
 10
813.931640421517
 20
610.3335443534368
 10
813.931640421517
 20
610.3335443534368
 10
814.0996091714751
 20
611.220751384465
 10
814.3271482339183
 20
612.12065372799
 10
814.5791013588552
 20
613.1279779464882
 10
814.5791013588552
 20
613.1279779464882
 10
815.6464841710883
 20
617.2056146642187
 10
815.6464841710883
 20
617.2056146642187
 10
815.6464841710883
 20
617.2056146642187
 10
816.7138669833215
 20
617.2056146642187
 10
816.7138669833215
 20
617.2056146642187
 10
816.7138669833215
 20
617.2056146642187
 10
814.4233396401441
 20
609.1221185724896
 10
814.4233396401441
 20
609.1221185724896
 10
814.4233396401441
 20
609.1221185724896
 10
813.332031046667
 20
609.1221185724896
 10
813.332031046667
 20
609.1221185724896
 10
813.332031046667
 20
609.1221185724896
 10
812.3124997969219
 20
613.3315912276872
 10
812.3124997969219
 20
613.3315912276872
 10
812.0605466719849
 20
614.3633295086794
 10
811.8925779220268
 20
615.1548334147315
 10
811.7846677658038
 20
615.9702631020276
 10
811.7846677658038
 20
615.9702631020276
 10
811.7607419845598
 20
615.9702631020276
 10
811.7607419845598
 20
615.9702631020276
 10
811.6166990158458
 20
615.1670404459784
 10
811.4370115158907
 20
614.3750482586764
 10
811.1372068284657
 20
613.3315912276872
 10
811.1372068284657
 20
613.3315912276872
 10
809.9858396412535
 20
609.1221185724896
 10
809.9858396412535
 20
609.1221185724896
 10
809.9858396412535
 20
609.1221185724896
 10
808.8945310477764
 20
609.1221185724896
 10
808.8945310477764
 20
609.1221185724896
 97
        0
 97
        0
 75
     2
 76
     1
 98
        0
  0
SPLINE
  5
A5
330
9F
100
AcDbEntity
  8
0
 62
   240
420
 15539236
370
    35
100
AcDbSpline
210
0.0
220
0.0
230
1.0
 70
    11
 71
     3
 72
    47
 73
    43
 74
     0
 42
0.0000000001
 43
0.0000000001
 12
1.0
 22
0.0
 32
0.0
 13
1.0
 23
0.0
 33
0.0
 40
0.0
 40
0.0
 40
0.0
 40
0.0
 40
1.0
 40
1.0
 40
1.0
 40
2.0
 40
2.0
 40
2.0
 40
3.0
 40
3.0
 40
3.0
 40
4.0
 40
4.0
 40
4.0
 40
5.0
 40
5.0
 40
5.0
 40
6.0
 40
6.0
 40
6.0
 40
7.0
 40
7.0
 40
7.0
 40
8.0
 40
8.0
 40
8.0
 40
9.0
 40
9.0
 40
9.0
 40
10.0
 40
10.0
 40
10.0
 40
11.0
 40
11.0
 40
11.0
 40
12.0
 40
12.0
 40
12.0
 40
13.0
 40
13.0
 40
13.0
 40
14.0
 40
14.0
 40
14.0
 40
14.0
 10
817.7270505768182
 20
617.2056146642187
 30
0.0
 10
817.7270505768182
 20
617.2056146642187
 30
0.0
 10
818.7705076078073
 20
617.2056146642187
 30
0.0
 10
818.7705076078073
 20
617.2056146642187
 30
0.0
 10
818.7705076078073
 20
617.2056146642187
 30
0.0
 10
818.7705076078073
 20
613.3076654464433
 30
0.0
 10
818.7705076078073
 20
613.3076654464433
 30
0.0
 10
818.7705076078073
 20
613.3076654464433
 30
0.0
 10
818.8061521390484
 20
613.3076654464433
 30
0.0
 10
818.8061521390484
 20
613.3076654464433
 30
0.0
 10
819.0219724514944
 20
613.6196771651153
 30
0.0
 10
819.2382810451904
 20
613.9072748212934
 30
0.0
 10
819.4418943263895
 20
614.1714349774774
 30
0.0
 10
819.4418943263895
 20
614.1714349774774
 30
0.0
 10
821.9125974507718
 20
617.2056146642187
 30
0.0
 10
821.9125974507718
 20
617.2056146642187
 30
0.0
 10
821.9125974507718
 20
617.2056146642187
 30
0.0
 10
823.208007606698
 20
617.2056146642187
 30
0.0
 10
823.208007606698
 20
617.2056146642187
 30
0.0
 10
823.208007606698
 20
617.2056146642187
 30
0.0
 10
820.2817380761795
 20
613.7754388838263
 30
0.0
 10
820.2817380761795
 20
613.7754388838263
 30
0.0
 10
820.2817380761795
 20
613.7754388838263
 30
0.0
 10
823.436034950391
 20
609.1221185724896
 30
0.0
 10
823.436034950391
 20
609.1221185724896
 30
0.0
 10
823.436034950391
 20
609.1221185724896
 30
0.0
 10
822.2006833881998
 20
609.1221185724896
 30
0.0
 10
822.2006833881998
 20
609.1221185724896
 30
0.0
 10
822.2006833881998
 20
609.1221185724896
 30
0.0
 10
819.5380857326155
 20
613.0918451339973
 30
0.0
 10
819.5380857326155
 20
613.0918451339973
 30
0.0
 10
819.5380857326155
 20
613.0918451339973
 30
0.0
 10
818.7705076078073
 20
612.204638102969
 30
0.0
 10
818.7705076078073
 20
612.204638102969
 30
0.0
 10
818.7705076078073
 20
612.204638102969
 30
0.0
 10
818.7705076078073
 20
609.1221185724896
 30
0.0
 10
818.7705076078073
 20
609.1221185724896
 30
0.0
 10
818.7705076078073
 20
609.1221185724896
 30
0.0
 10
817.7270505768182
 20
609.1221185724896
 30
0.0
 10
817.7270505768182
 20
609.1221185724896
 30
0.0
 10
817.7270505768182
 20
609.1221185724896
 30
0.0
 10
817.7270505768182
 20
617.2056146642187
 30
0.0
 10
817.7270505768182
 20
617.2056146642187
 30
0.0
  0
HATCH
  5
A6
330
9F
100
AcDbEntity
  8
0
 62
   240
420
 15539236
100
AcDbHatch
 10
0.0
 20
0.0
 30
0.0
210
0.0
220
0.0
230
1.0
  2
SOLID
 70
     1
 71
     0
 91
        1
 92
        1
 93
        1
 72
     4
 94
        3
 73
     0
 74
     1
 95
       47
 96
       43
 40
0.0
 40
0.0
 40
0.0
 40
0.0
 40
1.0
 40
1.0
 40
1.0
 40
2.0
 40
2.0
 40
2.0
 40
3.0
 40
3.0
 40
3.0
 40
4.0
 40
4.0
 40
4.0
 40
5.0
 40
5.0
 40
5.0
 40
6.0
 40
6.0
 40
6.0
 40
7.0
 40
7.0
 40
7.0
 40
8.0
 40
8.0
 40
8.0
 40
9.0
 40
9.0
 40
9.0
 40
10.0
 40
10.0
 40
10.0
 40
11.0
 40
11.0
 40
11.0
 40
12.0
 40
12.0
 40
12.0
 40
13.0
 40
13.0
 40
13.0
 40
14.0
 40
14.0
 40
14.0
 40
14.0
 10
817.7270505768182
 20
617.2056146642187
 10
817.7270505768182
 20
617.2056146642187
 10
818.7705076078073
 20
617.2056146642187
 10
818.7705076078073
 20
617.2056146642187
 10
818.7705076078073
 20
617.2056146642187
 10
818.7705076078073
 20
613.3076654464433
 10
818.7705076078073
 20
613.3076654464433
 10
818.7705076078073
 20
613.3076654464433
 10
818.8061521390484
 20
613.3076654464433
 10
818.8061521390484
 20
613.3076654464433
 10
819.0219724514944
 20
613.6196771651153
 10
819.2382810451904
 20
613.9072748212934
 10
819.4418943263895
 20
614.1714349774774
 10
819.4418943263895
 20
614.1714349774774
 10
821.9125974507718
 20
617.2056146642187
 10
821.9125974507718
 20
617.2056146642187
 10
821.9125974507718
 20
617.2056146642187
 10
823.208007606698
 20
617.2056146642187
 10
823.208007606698
 20
617.2056146642187
 10
823.208007606698
 20
617.2056146642187
 10
820.2817380761795
 20
613.7754388838263
 10
820.2817380761795
 20
613.7754388838263
 10
820.2817380761795
 20
613.7754388838263
 10
823.436034950391
 20
609.1221185724896
 10
823.436034950391
 20
609.1221185724896
 10
823.436034950391
 20
609.1221185724896
 10
822.2006833881998
 20
609.1221185724896
 10
822.2006833881998
 20
609.1221185724896
 10
822.2006833881998
 20
609.1221185724896
 10
819.5380857326155
 20
613.0918451339973
 10
819.5380857326155
 20
613.0918451339973
 10
819.5380857326155
 20
613.0918451339973
 10
818.7705076078073
 20
612.204638102969
 10
818.7705076078073
 20
612.204638102969
 10
818.7705076078073
 20
612.204638102969
 10
818.7705076078073
 20
609.1221185724896
 10
818.7705076078073
 20
609.1221185724896
 10
818.7705076078073
 20
609.1221185724896
 10
817.7270505768182
 20
609.1221185724896
 10
817.7270505768182
 20
609.1221185724896
 10
817.7270505768182
 20
609.1221185724896
 10
817.7270505768182
 20
617.2056146642187
 10
817.7270505768182
 20
617.2056146642187
 97
        0
 97
        0
 75
     2
 76
     1
 98
        0
  0
POLYLINE
  5
A7
330
9F
100
AcDbEntity
  8
0
 62
   240
420
 15539236
370
    35
100
AcDb2dPolyline
 66
     1
 10
0.0
 20
0.0
 30
0.0
  0
VERTEX
  5
A8
330
A7
100
AcDbEntity
  8
0
 62
   240
420
 15539236
370
    35
100
AcDbVertex
100
AcDb2dVertex
 10
824.2309568251923
 20
617.2056146642187
 30
0.0
  0
VERTEX
  5
A9
330
A7
100
AcDbEntity
  8
0
 62
   240
420
 15539236
370
    35
100
AcDbVertex
100
AcDb2dVertex
 10
825.2744138561814
 20
617.2056146642187
 30
0.0
  0
VERTEX
  5
AA
330
A7
100
AcDbEntity
  8
0
 62
   240
420
 15539236
370
    35
100
AcDbVertex
100
AcDb2dVertex
 10
825.2744138561814
 20
609.9976068535208
 30
0.0
  0
VERTEX
  5
AB
330
A7
100
AcDbEntity
  8
0
 62
   240
420
 15539236
370
    35
100
AcDbVertex
100
AcDb2dVertex
 10
828.7285154178179
 20
609.9976068535208
 30
0.0
  0
VERTEX
  5
AC
330
A7
100
AcDbEntity
  8
0
 62
   240
420
 15539236
370
    35
100
AcDbVertex
100
AcDb2dVertex
 10
828.7285154178179
 20
609.1221185724896
 30
0.0
  0
VERTEX
  5
AD
330
A7
100
AcDbEntity
  8
0
 62
   240
420
 15539236
370
    35
100
AcDbVertex
100
AcDb2dVertex
 10
824.2309568251923
 20
609.1221185724896
 30
0.0
  0
VERTEX
  5
AE
330
A7
100
AcDbEntity
  8
0
 62
   240
420
 15539236
370
    35
100
AcDbVertex
100
AcDb2dVertex
 10
824.2309568251923
 20
617.2056146642187
 30
0.0
  0
SEQEND
  5
AF
330
A7
100
AcDbEntity
  8
0
 62
   240
420
 15539236
370
    35
  0
HATCH
  5
B0
330
9F
100
AcDbEntity
  8
0
 62
   240
420
 15539236
100
AcDbHatch
 10
0.0
 20
0.0
 30
0.0
210
0.0
220
0.0
230
1.0
  2
SOLID
 70
     1
 71
     0
 91
        1
 92
        1
 93
        6
 72
     1
 10
824.2309568251923
 20
617.2056146642187
 11
825.2744138561814
 21
617.2056146642187
 72
     1
 10
825.2744138561814
 20
617.2056146642187
 11
825.2744138561814
 21
609.9976068535208
 72
     1
 10
825.2744138561814
 20
609.9976068535208
 11
828.7285154178179
 21
609.9976068535208
 72
     1
 10
828.7285154178179
 20
609.9976068535208
 11
828.7285154178179
 21
609.1221185724896
 72
     1
 10
828.7285154178179
 20
609.1221185724896
 11
824.2309568251923
 21
609.1221185724896
 72
     1
 10
824.2309568251923
 20
609.1221185724896
 11
824.2309568251923
 21
617.2056146642187
 97
        0
 75
     2
 76
     1
 98
        0
  0
POLYLINE
  5
B1
330
9F
100
AcDbEntity
  8
0
 62
   240
420
 15539236
370
    35
100
AcDb2dPolyline
 66
     1
 10
0.0
 20
0.0
 30
0.0
  0
VERTEX
  5
B2
330
B1
100
AcDbEntity
  8
0
 62
   240
420
 15539236
370
    35
100
AcDbVertex
100
AcDb2dVertex
 10
832.4384763543903
 20
617.2056146642187
 30
0.0
  0
VERTEX
  5
B3
330
B1
100
AcDbEntity
  8
0
 62
   240
420
 15539236
370
    35
100
AcDbVertex
100
AcDb2dVertex
 10
833.4819333853795
 20
617.2056146642187
 30
0.0
  0
VERTEX
  5
B4
330
B1
100
AcDbEntity
  8
0
 62
   240
420
 15539236
370
    35
100
AcDbVertex
100
AcDb2dVertex
 10
833.4819333853795
 20
609.9976068535208
 30
0.0
  0
VERTEX
  5
B5
330
B1
100
AcDbEntity
  8
0
 62
   240
420
 15539236
370
    35
100
AcDbVertex
100
AcDb2dVertex
 10
836.936034947016
 20
609.9976068535208
 30
0.0
  0
VERTEX
  5
B6
330
B1
100
AcDbEntity
  8
0
 62
   240
420
 15539236
370
    35
100
AcDbVertex
100
AcDb2dVertex
 10
836.936034947016
 20
609.1221185724896
 30
0.0
  0
VERTEX
  5
B7
330
B1
100
AcDbEntity
  8
0
 62
   240
420
 15539236
370
    35
100
AcDbVertex
100
AcDb2dVertex
 10
832.4384763543903
 20
609.1221185724896
 30
0.0
  0
VERTEX
  5
B8
330
B1
100
AcDbEntity
  8
0
 62
   240
420
 15539236
370
    35
100
AcDbVertex
100
AcDb2dVertex
 10
832.4384763543903
 20
617.2056146642187
 30
0.0
  0
SEQEND
  5
B9
330
B1
100
AcDbEntity
  8
0
 62
   240
420
 15539236
370
    35
  0
HATCH
  5
BA
330
9F
100
AcDbEntity
  8
0
 62
   240
420
 15539236
100
AcDbHatch
 10
0.0
 20
0.0
 30
0.0
210
0.0
220
0.0
230
1.0
  2
SOLID
 70
     1
 71
     0
 91
        1
 92
        1
 93
        6
 72
     1
 10
832.4384763543903
 20
617.2056146642187
 11
833.4819333853795
 21
617.2056146642187
 72
     1
 10
833.4819333853795
 20
617.2056146642187
 11
833.4819333853795
 21
609.9976068535208
 72
     1
 10
833.4819333853795
 20
609.9976068535208
 11
836.936034947016
 21
609.9976068535208
 72
     1
 10
836.936034947016
 20
609.9976068535208
 11
836.936034947016
 21
609.1221185724896
 72
     1
 10
836.936034947016
 20
609.1221185724896
 11
832.4384763543903
 21
609.1221185724896
 72
     1
 10
832.4384763543903
 20
609.1221185724896
 11
832.4384763543903
 21
617.2056146642187
 97
        0
 75
     2
 76
     1
 98
        0
  0
SPLINE
  5
BB
330
9F
100
AcDbEntity
  8
0
 62
   240
420
 15539236
370
    35
100
AcDbSpline
210
0.0
220
0.0
230
1.0
 70
    11
 71
     3
 72
    47
 73
    43
 74
     0
 42
0.0000000001
 43
0.0000000001
 12
1.0
 22
0.0
 32
0.0
 13
1.0
 23
0.0
 33
0.0
 40
0.0
 40
0.0
 40
0.0
 40
0.0
 40
1.0
 40
1.0
 40
1.0
 40
2.0
 40
2.0
 40
2.0
 40
3.0
 40
3.0
 40
3.0
 40
4.0
 40
4.0
 40
4.0
 40
5.0
 40
5.0
 40
5.0
 40
6.0
 40
6.0
 40
6.0
 40
7.0
 40
7.0
 40
7.0
 40
8.0
 40
8.0
 40
8.0
 40
9.0
 40
9.0
 40
9.0
 40
10.0
 40
10.0
 40
10.0
 40
11.0
 40
11.0
 40
11.0
 40
12.0
 40
12.0
 40
12.0
 40
13.0
 40
13.0
 40
13.0
 40
14.0
 40
14.0
 40
14.0
 40
14.0
 10
837.7304685405674
 20
609.1221185724896
 30
0.0
 10
837.7304685405674
 20
609.1221185724896
 30
0.0
 10
837.7304685405674
 20
609.7695795098277
 30
0.0
 10
837.7304685405674
 20
609.7695795098277
 30
0.0
 10
837.7304685405674
 20
609.7695795098277
 30
0.0
 10
838.5581052591104
 20
610.5732904471269
 30
0.0
 10
838.5581052591104
 20
610.5732904471269
 30
0.0
 10
840.5493161961126
 20
612.4683099779031
 30
0.0
 10
841.4487302583879
 20
613.4756341964013
 30
0.0
 10
841.4604490083849
 20
614.6509271648574
 30
0.0
 10
841.4604490083849
 20
615.4424310709096
 30
0.0
 10
841.0766599459809
 20
616.1743646644766
 30
0.0
 10
839.9135740087715
 20
616.1743646644766
 30
0.0
 10
839.2055661964486
 20
616.1743646644766
 30
0.0
 10
838.6181638528454
 20
615.8145013833165
 30
0.0
 10
838.2583005716854
 20
615.5146966958915
 30
0.0
 10
838.2583005716854
 20
615.5146966958915
 30
0.0
 10
837.9223630717694
 20
616.2583490394555
 30
0.0
 10
837.9223630717694
 20
616.2583490394555
 30
0.0
 10
838.4624021341344
 20
616.7139154455917
 30
0.0
 10
839.2299802589425
 20
617.0498529455077
 30
0.0
 10
840.1293943212177
 20
617.0498529455077
 30
0.0
 10
841.8085935395478
 20
617.0498529455077
 30
0.0
 10
842.5161130706209
 20
615.8984857582956
 30
0.0
 10
842.5161130706209
 20
614.7832513835743
 30
0.0
 10
842.5161130706209
 20
613.3437982589343
 30
0.0
 10
841.4726560396318
 20
612.1802240404751
 30
0.0
 10
839.8295896337926
 20
610.5972162283708
 30
0.0
 10
839.8295896337926
 20
610.5972162283708
 30
0.0
 10
839.2055661964486
 20
610.0215326347648
 30
0.0
 10
839.2055661964486
 20
610.0215326347648
 30
0.0
 10
839.2055661964486
 20
610.0215326347648
 30
0.0
 10
839.2055661964486
 20
609.9976068535208
 30
0.0
 10
839.2055661964486
 20
609.9976068535208
 30
0.0
 10
839.2055661964486
 20
609.9976068535208
 30
0.0
 10
842.7080076018229
 20
609.9976068535208
 30
0.0
 10
842.7080076018229
 20
609.9976068535208
 30
0.0
 10
842.7080076018229
 20
609.9976068535208
 30
0.0
 10
842.7080076018229
 20
609.1221185724896
 30
0.0
 10
842.7080076018229
 20
609.1221185724896
 30
0.0
 10
842.7080076018229
 20
609.1221185724896
 30
0.0
 10
837.7304685405674
 20
609.1221185724896
 30
0.0
 10
837.7304685405674
 20
609.1221185724896
 30
0.0
  0
HATCH
  5
BC
330
9F
100
AcDbEntity
  8
0
 62
   240
420
 15539236
100
AcDbHatch
 10
0.0
 20
0.0
 30
0.0
210
0.0
220
0.0
230
1.0
  2
SOLID
 70
     1
 71
     0
 91
        1
 92
        1
 93
        1
 72
     4
 94
        3
 73
     0
 74
     1
 95
       47
 96
       43
 40
0.0
 40
0.0
 40
0.0
 40
0.0
 40
1.0
 40
1.0
 40
1.0
 40
2.0
 40
2.0
 40
2.0
 40
3.0
 40
3.0
 40
3.0
 40
4.0
 40
4.0
 40
4.0
 40
5.0
 40
5.0
 40
5.0
 40
6.0
 40
6.0
 40
6.0
 40
7.0
 40
7.0
 40
7.0
 40
8.0
 40
8.0
 40
8.0
 40
9.0
 40
9.0
 40
9.0
 40
10.0
 40
10.0
 40
10.0
 40
11.0
 40
11.0
 40
11.0
 40
12.0
 40
12.0
 40
12.0
 40
13.0
 40
13.0
 40
13.0
 40
14.0
 40
14.0
 40
14.0
 40
14.0
 10
837.7304685405674
 20
609.1221185724896
 10
837.7304685405674
 20
609.1221185724896
 10
837.7304685405674
 20
609.7695795098277
 10
837.7304685405674
 20
609.7695795098277
 10
837.7304685405674
 20
609.7695795098277
 10
838.5581052591104
 20
610.5732904471269
 10
838.5581052591104
 20
610.5732904471269
 10
840.5493161961126
 20
612.4683099779031
 10
841.4487302583879
 20
613.4756341964013
 10
841.4604490083849
 20
614.6509271648574
 10
841.4604490083849
 20
615.4424310709096
 10
841.0766599459809
 20
616.1743646644766
 10
839.9135740087715
 20
616.1743646644766
 10
839.2055661964486
 20
616.1743646644766
 10
838.6181638528454
 20
615.8145013833165
 10
838.2583005716854
 20
615.5146966958915
 10
838.2583005716854
 20
615.5146966958915
 10
837.9223630717694
 20
616.2583490394555
 10
837.9223630717694
 20
616.2583490394555
 10
838.4624021341344
 20
616.7139154455917
 10
839.2299802589425
 20
617.0498529455077
 10
840.1293943212177
 20
617.0498529455077
 10
841.8085935395478
 20
617.0498529455077
 10
842.5161130706209
 20
615.8984857582956
 10
842.5161130706209
 20
614.7832513835743
 10
842.5161130706209
 20
613.3437982589343
 10
841.4726560396318
 20
612.1802240404751
 10
839.8295896337926
 20
610.5972162283708
 10
839.8295896337926
 20
610.5972162283708
 10
839.2055661964486
 20
610.0215326347648
 10
839.2055661964486
 20
610.0215326347648
 10
839.2055661964486
 20
610.0215326347648
 10
839.2055661964486
 20
609.9976068535208
 10
839.2055661964486
 20
609.9976068535208
 10
839.2055661964486
 20
609.9976068535208
 10
842.7080076018229
 20
609.9976068535208
 10
842.7080076018229
 20
609.9976068535208
 10
842.7080076018229
 20
609.9976068535208
 10
842.7080076018229
 20
609.1221185724896
 10
842.7080076018229
 20
609.1221185724896
 10
842.7080076018229
 20
609.1221185724896
 10
837.7304685405674
 20
609.1221185724896
 10
837.7304685405674
 20
609.1221185724896
 97
        0
 97
        0
 75
     2
 76
     1
 98
        0
  0
SPLINE
  5
BD
330
9F
100
AcDbEntity
  8
0
 62
   240
420
 15539236
370
    35
100
AcDbSpline
210
0.0
220
0.0
230
1.0
 70
    11
 71
     3
 72
    47
 73
    43
 74
     0
 42
0.0000000001
 43
0.0000000001
 12
1.0
 22
0.0
 32
0.0
 13
1.0
 23
0.0
 33
0.0
 40
0.0
 40
0.0
 40
0.0
 40
0.0
 40
1.0
 40
1.0
 40
1.0
 40
2.0
 40
2.0
 40
2.0
 40
3.0
 40
3.0
 40
3.0
 40
4.0
 40
4.0
 40
4.0
 40
5.0
 40
5.0
 40
5.0
 40
6.0
 40
6.0
 40
6.0
 40
7.0
 40
7.0
 40
7.0
 40
8.0
 40
8.0
 40
8.0
 40
9.0
 40
9.0
 40
9.0
 40
10.0
 40
10.0
 40
10.0
 40
11.0
 40
11.0
 40
11.0
 40
12.0
 40
12.0
 40
12.0
 40
13.0
 40
13.0
 40
13.0
 40
14.0
 40
14.0
 40
14.0
 40
14.0
 10
846.6582029133355
 20
610.3936029471718
 30
0.0
 10
847.1259763507185
 20
610.1055170097438
 30
0.0
 10
847.8095701005476
 20
609.8657709160537
 30
0.0
 10
848.5292966628676
 20
609.8657709160537
 30
0.0
 10
849.5966794751008
 20
609.8657709160537
 30
0.0
 10
850.220214631195
 20
610.4292474784129
 30
0.0
 10
850.220214631195
 20
611.2451654469589
 30
0.0
 10
850.220214631195
 20
612.00053654052
 30
0.0
 10
849.7885740063028
 20
612.4321771654121
 30
0.0
 10
848.6972654128257
 20
612.8520990403072
 30
0.0
 10
847.3779294756555
 20
613.3198724776902
 30
0.0
 10
846.5620115071094
 20
614.0034662275193
 30
0.0
 10
846.5620115071094
 20
615.1426263834845
 30
0.0
 10
846.5620115071094
 20
616.4019037269197
 30
0.0
 10
847.6054685380986
 20
617.3374506016858
 30
0.0
 10
849.1767576002057
 20
617.3374506016858
 30
0.0
 10
850.0043943187488
 20
617.3374506016858
 30
0.0
 10
850.604003693599
 20
617.1455560704837
 30
0.0
 10
850.9638669747591
 20
616.9419427892847
 30
0.0
 10
850.9638669747591
 20
616.9419427892847
 30
0.0
 10
850.675781037331
 20
616.0903802894976
 30
0.0
 10
850.675781037331
 20
616.0903802894976
 30
0.0
 10
850.412109162397
 20
616.2344232582116
 30
0.0
 10
849.8725583812818
 20
616.4741693519017
 30
0.0
 10
849.1406247877148
 20
616.4741693519017
 30
0.0
 10
848.0375974442405
 20
616.4741693519017
 30
0.0
 10
847.6176755693456
 20
615.8145013833165
 30
0.0
 10
847.6176755693456
 20
615.2627435709545
 30
0.0
 10
847.6176755693456
 20
614.5073724773933
 30
0.0
 10
848.1093747879727
 20
614.1353021649863
 30
0.0
 10
849.2246091626938
 20
613.7036615400942
 30
0.0
 10
850.592284943602
 20
613.1758295089762
 30
0.0
 10
851.2875974434281
 20
612.5161615403912
 30
0.0
 10
851.2875974434281
 20
611.3291498219379
 30
0.0
 10
851.2875974434281
 20
610.0815912284997
 30
0.0
 10
850.3642575999089
 20
609.0020013850196
 30
0.0
 10
848.4570310378857
 20
609.0020013850196
 30
0.0
 10
847.6777341630806
 20
609.0020013850196
 30
0.0
 10
846.8261716632934
 20
609.2300287287127
 30
0.0
 10
846.3945310384014
 20
609.5181146661406
 30
0.0
 10
846.3945310384014
 20
609.5181146661406
 30
0.0
 10
846.6582029133355
 20
610.3936029471718
 30
0.0
 10
846.6582029133355
 20
610.3936029471718
 30
0.0
  0
HATCH
  5
BE
330
9F
100
AcDbEntity
  8
0
 62
   240
420
 15539236
100
AcDbHatch
 10
0.0
 20
0.0
 30
0.0
210
0.0
220
0.0
230
1.0
  2
SOLID
 70
     1
 71
     0
 91
        1
 92
        1
 93
        1
 72
     4
 94
        3
 73
     0
 74
     1
 95
       47
 96
       43
 40
0.0
 40
0.0
 40
0.0
 40
0.0
 40
1.0
 40
1.0
 40
1.0
 40
2.0
 40
2.0
 40
2.0
 40
3.0
 40
3.0
 40
3.0
 40
4.0
 40
4.0
 40
4.0
 40
5.0
 40
5.0
 40
5.0
 40
6.0
 40
6.0
 40
6.0
 40
7.0
 40
7.0
 40
7.0
 40
8.0
 40
8.0
 40
8.0
 40
9.0
 40
9.0
 40
9.0
 40
10.0
 40
10.0
 40
10.0
 40
11.0
 40
11.0
 40
11.0
 40
12.0
 40
12.0
 40
12.0
 40
13.0
 40
13.0
 40
13.0
 40
14.0
 40
14.0
 40
14.0
 40
14.0
 10
846.6582029133355
 20
610.3936029471718
 10
847.1259763507185
 20
610.1055170097438
 10
847.8095701005476
 20
609.8657709160537
 10
848.5292966628676
 20
609.8657709160537
 10
849.5966794751008
 20
609.8657709160537
 10
850.220214631195
 20
610.4292474784129
 10
850.220214631195
 20
611.2451654469589
 10
850.220214631195
 20
612.00053654052
 10
849.7885740063028
 20
612.4321771654121
 10
848.6972654128257
 20
612.8520990403072
 10
847.3779294756555
 20
613.3198724776902
 10
846.5620115071094
 20
614.0034662275193
 10
846.5620115071094
 20
615.1426263834845
 10
846.5620115071094
 20
616.4019037269197
 10
847.6054685380986
 20
617.3374506016858
 10
849.1767576002057
 20
617.3374506016858
 10
850.0043943187488
 20
617.3374506016858
 10
850.604003693599
 20
617.1455560704837
 10
850.9638669747591
 20
616.9419427892847
 10
850.9638669747591
 20
616.9419427892847
 10
850.675781037331
 20
616.0903802894976
 10
850.675781037331
 20
616.0903802894976
 10
850.412109162397
 20
616.2344232582116
 10
849.8725583812818
 20
616.4741693519017
 10
849.1406247877148
 20
616.4741693519017
 10
848.0375974442405
 20
616.4741693519017
 10
847.6176755693456
 20
615.8145013833165
 10
847.6176755693456
 20
615.2627435709545
 10
847.6176755693456
 20
614.5073724773933
 10
848.1093747879727
 20
614.1353021649863
 10
849.2246091626938
 20
613.7036615400942
 10
850.592284943602
 20
613.1758295089762
 10
851.2875974434281
 20
612.5161615403912
 10
851.2875974434281
 20
611.3291498219379
 10
851.2875974434281
 20
610.0815912284997
 10
850.3642575999089
 20
609.0020013850196
 10
848.4570310378857
 20
609.0020013850196
 10
847.6777341630806
 20
609.0020013850196
 10
846.8261716632934
 20
609.2300287287127
 10
846.3945310384014
 20
609.5181146661406
 10
846.3945310384014
 20
609.5181146661406
 10
846.6582029133355
 20
610.3936029471718
 10
846.6582029133355
 20
610.3936029471718
 97
        0
 97
        0
 75
     2
 76
     1
 98
        0
  0
SPLINE
  5
BF
330
9F
100
AcDbEntity
  8
0
 62
   240
420
 15539236
370
    35
100
AcDbSpline
210
0.0
220
0.0
230
1.0
 70
    11
 71
     3
 72
    56
 73
    52
 74
     0
 42
0.0000000001
 43
0.0000000001
 12
1.0
 22
0.0
 32
0.0
 13
1.0
 23
0.0
 33
0.0
 40
0.0
 40
0.0
 40
0.0
 40
0.0
 40
1.0
 40
1.0
 40
1.0
 40
2.0
 40
2.0
 40
2.0
 40
3.0
 40
3.0
 40
3.0
 40
4.0
 40
4.0
 40
4.0
 40
5.0
 40
5.0
 40
5.0
 40
6.0
 40
6.0
 40
6.0
 40
7.0
 40
7.0
 40
7.0
 40
8.0
 40
8.0
 40
8.0
 40
9.0
 40
9.0
 40
9.0
 40
10.0
 40
10.0
 40
10.0
 40
11.0
 40
11.0
 40
11.0
 40
12.0
 40
12.0
 40
12.0
 40
13.0
 40
13.0
 40
13.0
 40
14.0
 40
14.0
 40
14.0
 40
15.0
 40
15.0
 40
15.0
 40
16.0
 40
16.0
 40
16.0
 40
17.0
 40
17.0
 40
17.0
 40
17.0
 10
853.9174802552706
 20
616.5937982581218
 30
0.0
 10
853.9174802552706
 20
616.5937982581218
 30
0.0
 10
853.9174802552706
 20
614.9268060710385
 30
0.0
 10
853.9174802552706
 20
614.9268060710385
 30
0.0
 10
853.9174802552706
 20
614.9268060710385
 30
0.0
 10
855.4287107236428
 20
614.9268060710385
 30
0.0
 10
855.4287107236428
 20
614.9268060710385
 30
0.0
 10
855.4287107236428
 20
614.9268060710385
 30
0.0
 10
855.4287107236428
 20
614.1235834149893
 30
0.0
 10
855.4287107236428
 20
614.1235834149893
 30
0.0
 10
855.4287107236428
 20
614.1235834149893
 30
0.0
 10
853.9174802552706
 20
614.1235834149893
 30
0.0
 10
853.9174802552706
 20
614.1235834149893
 30
0.0
 10
853.9174802552706
 20
614.1235834149893
 30
0.0
 10
853.9174802552706
 20
610.9932123220219
 30
0.0
 10
853.9174802552706
 20
610.9932123220219
 30
0.0
 10
853.9174802552706
 20
610.2734857597018
 30
0.0
 10
854.1210935364697
 20
609.8657709160537
 30
0.0
 10
854.7089841613227
 20
609.8657709160537
 30
0.0
 10
854.9848630675037
 20
609.8657709160537
 30
0.0
 10
855.1884763487028
 20
609.9019037285447
 30
0.0
 10
855.3208005674198
 20
609.9375482597858
 30
0.0
 10
855.3208005674198
 20
609.9375482597858
 30
0.0
 10
855.3686521299078
 20
609.1460443537337
 30
0.0
 10
855.3686521299078
 20
609.1460443537337
 30
0.0
 10
855.1645505674588
 20
609.0620599787546
 30
0.0
 10
854.8408200987898
 20
609.0020013850196
 30
0.0
 10
854.4331052551418
 20
609.0020013850196
 30
0.0
 10
853.9414060365146
 20
609.0020013850196
 30
0.0
 10
853.5454099428637
 20
609.1582513849806
 30
0.0
 10
853.2934568179267
 20
609.4458490411587
 30
0.0
 10
852.9936521305016
 20
609.7578607598307
 30
0.0
 10
852.8857419742785
 20
610.2734857597018
 30
0.0
 10
852.8857419742785
 20
610.9570795095309
 30
0.0
 10
852.8857419742785
 20
610.9570795095309
 30
0.0
 10
852.8857419742785
 20
614.1235834149893
 30
0.0
 10
852.8857419742785
 20
614.1235834149893
 30
0.0
 10
852.8857419742785
 20
614.1235834149893
 30
0.0
 10
851.9863279120034
 20
614.1235834149893
 30
0.0
 10
851.9863279120034
 20
614.1235834149893
 30
0.0
 10
851.9863279120034
 20
614.1235834149893
 30
0.0
 10
851.9863279120034
 20
614.9268060710385
 30
0.0
 10
851.9863279120034
 20
614.9268060710385
 30
0.0
 10
851.9863279120034
 20
614.9268060710385
 30
0.0
 10
852.8857419742785
 20
614.9268060710385
 30
0.0
 10
852.8857419742785
 20
614.9268060710385
 30
0.0
 10
852.8857419742785
 20
614.9268060710385
 30
0.0
 10
852.8857419742785
 20
616.3184076331905
 30
0.0
 10
852.8857419742785
 20
616.3184076331905
 30
0.0
 10
852.8857419742785
 20
616.3184076331905
 30
0.0
 10
853.9174802552706
 20
616.5937982581218
 30
0.0
 10
853.9174802552706
 20
616.5937982581218
 30
0.0
  0
HATCH
  5
C0
330
9F
100
AcDbEntity
  8
0
 62
   240
420
 15539236
100
AcDbHatch
 10
0.0
 20
0.0
 30
0.0
210
0.0
220
0.0
230
1.0
  2
SOLID
 70
     1
 71
     0
 91
        1
 92
        1
 93
        1
 72
     4
 94
        3
 73
     0
 74
     1
 95
       56
 96
       52
 40
0.0
 40
0.0
 40
0.0
 40
0.0
 40
1.0
 40
1.0
 40
1.0
 40
2.0
 40
2.0
 40
2.0
 40
3.0
 40
3.0
 40
3.0
 40
4.0
 40
4.0
 40
4.0
 40
5.0
 40
5.0
 40
5.0
 40
6.0
 40
6.0
 40
6.0
 40
7.0
 40
7.0
 40
7.0
 40
8.0
 40
8.0
 40
8.0
 40
9.0
 40
9.0
 40
9.0
 40
10.0
 40
10.0
 40
10.0
 40
11.0
 40
11.0
 40
11.0
 40
12.0
 40
12.0
 40
12.0
 40
13.0
 40
13.0
 40
13.0
 40
14.0
 40
14.0
 40
14.0
 40
15.0
 40
15.0
 40
15.0
 40
16.0
 40
16.0
 40
16.0
 40
17.0
 40
17.0
 40
17.0
 40
17.0
 10
853.9174802552706
 20
616.5937982581218
 10
853.9174802552706
 20
616.5937982581218
 10
853.9174802552706
 20
614.9268060710385
 10
853.9174802552706
 20
614.9268060710385
 10
853.9174802552706
 20
614.9268060710385
 10
855.4287107236428
 20
614.9268060710385
 10
855.4287107236428
 20
614.9268060710385
 10
855.4287107236428
 20
614.9268060710385
 10
855.4287107236428
 20
614.1235834149893
 10
855.4287107236428
 20
614.1235834149893
 10
855.4287107236428
 20
614.1235834149893
 10
853.9174802552706
 20
614.1235834149893
 10
853.9174802552706
 20
614.1235834149893
 10
853.9174802552706
 20
614.1235834149893
 10
853.9174802552706
 20
610.9932123220219
 10
853.9174802552706
 20
610.9932123220219
 10
853.9174802552706
 20
610.2734857597018
 10
854.1210935364697
 20
609.8657709160537
 10
854.7089841613227
 20
609.8657709160537
 10
854.9848630675037
 20
609.8657709160537
 10
855.1884763487028
 20
609.9019037285447
 10
855.3208005674198
 20
609.9375482597858
 10
855.3208005674198
 20
609.9375482597858
 10
855.3686521299078
 20
609.1460443537337
 10
855.3686521299078
 20
609.1460443537337
 10
855.1645505674588
 20
609.0620599787546
 10
854.8408200987898
 20
609.0020013850196
 10
854.4331052551418
 20
609.0020013850196
 10
853.9414060365146
 20
609.0020013850196
 10
853.5454099428637
 20
609.1582513849806
 10
853.2934568179267
 20
609.4458490411587
 10
852.9936521305016
 20
609.7578607598307
 10
852.8857419742785
 20
610.2734857597018
 10
852.8857419742785
 20
610.9570795095309
 10
852.8857419742785
 20
610.9570795095309
 10
852.8857419742785
 20
614.1235834149893
 10
852.8857419742785
 20
614.1235834149893
 10
852.8857419742785
 20
614.1235834149893
 10
851.9863279120034
 20
614.1235834149893
 10
851.9863279120034
 20
614.1235834149893
 10
851.9863279120034
 20
614.1235834149893
 10
851.9863279120034
 20
614.9268060710385
 10
851.9863279120034
 20
614.9268060710385
 10
851.9863279120034
 20
614.9268060710385
 10
852.8857419742785
 20
614.9268060710385
 10
852.8857419742785
 20
614.9268060710385
 10
852.8857419742785
 20
614.9268060710385
 10
852.8857419742785
 20
616.3184076331905
 10
852.8857419742785
 20
616.3184076331905
 10
852.8857419742785
 20
616.3184076331905
 10
853.9174802552706
 20
616.5937982581218
 10
853.9174802552706
 20
616.5937982581218
 97
        0
 97
        0
 75
     2
 76
     1
 98
        0
  0
SPLINE
  5
C1
330
9F
100
AcDbEntity
  8
0
 62
   240
420
 15539236
370
    35
100
AcDbSpline
210
0.0
220
0.0
230
1.0
 70
    11
 71
     3
 72
    32
 73
    28
 74
     0
 42
0.0000000001
 43
0.0000000001
 12
1.0
 22
0.0
 32
0.0
 13
1.0
 23
0.0
 33
0.0
 40
0.0
 40
0.0
 40
0.0
 40
0.0
 40
1.0
 40
1.0
 40
1.0
 40
2.0
 40
2.0
 40
2.0
 40
3.0
 40
3.0
 40
3.0
 40
4.0
 40
4.0
 40
4.0
 40
5.0
 40
5.0
 40
5.0
 40
6.0
 40
6.0
 40
6.0
 40
7.0
 40
7.0
 40
7.0
 40
8.0
 40
8.0
 40
8.0
 40
9.0
 40
9.0
 40
9.0
 40
9.0
 10
857.1337888482166
 20
611.832567790562
 30
0.0
 10
857.1577146294605
 20
610.4053216971688
 30
0.0
 10
858.0688474417327
 20
609.8179193535657
 30
0.0
 10
859.1245115039688
 20
609.8179193535657
 30
0.0
 10
859.87988259753
 20
609.8179193535657
 30
0.0
 10
860.335937284916
 20
609.9497552910327
 30
0.0
 10
860.7314450973171
 20
610.1177240409908
 30
0.0
 10
860.7314450973171
 20
610.1177240409908
 30
0.0
 10
860.9116208785221
 20
609.3618646661797
 30
0.0
 10
860.9116208785221
 20
609.3618646661797
 30
0.0
 10
860.539550566115
 20
609.1938959162217
 30
0.0
 10
859.9042966600239
 20
609.0020013850196
 30
0.0
 10
858.9804685352549
 20
609.0020013850196
 30
0.0
 10
857.1933591607017
 20
609.0020013850196
 30
0.0
 10
856.1259763484685
 20
610.1777826347258
 30
0.0
 10
856.1259763484685
 20
611.928759196788
 30
0.0
 10
856.1259763484685
 20
613.6797357588503
 30
0.0
 10
857.1577146294605
 20
615.0586420085056
 30
0.0
 10
858.8486325977879
 20
615.0586420085056
 30
0.0
 10
860.7436521285641
 20
615.0586420085056
 30
0.0
 10
861.247558378438
 20
613.3916498214222
 30
0.0
 10
861.247558378438
 20
612.3242670091892
 30
0.0
 10
861.247558378438
 20
612.108446696743
 30
0.0
 10
861.2231443159442
 20
611.9404779467851
 30
0.0
 10
861.2114255659471
 20
611.832567790562
 30
0.0
 10
861.2114255659471
 20
611.832567790562
 30
0.0
 10
857.1337888482166
 20
611.832567790562
 30
0.0
 10
857.1337888482166
 20
611.832567790562
 30
0.0
  0
SPLINE
  5
C2
330
9F
100
AcDbEntity
  8
0
 62
   240
420
 15539236
370
    35
100
AcDbSpline
210
0.0
220
0.0
230
1.0
 70
    11
 71
     3
 72
    14
 73
    10
 74
     0
 42
0.0000000001
 43
0.0000000001
 12
1.0
 22
0.0
 32
0.0
 13
1.0
 23
0.0
 33
0.0
 40
0.0
 40
0.0
 40
0.0
 40
0.0
 40
1.0
 40
1.0
 40
1.0
 40
2.0
 40
2.0
 40
2.0
 40
3.0
 40
3.0
 40
3.0
 40
3.0
 10
860.2280271286929
 20
612.5884271653731
 30
0.0
 10
860.2397458786901
 20
613.2598138839552
 30
0.0
 10
859.9521482225119
 20
614.3032709149444
 30
0.0
 10
858.7646482228088
 20
614.3032709149444
 30
0.0
 10
857.6972654105757
 20
614.3032709149444
 30
0.0
 10
857.2294919731926
 20
613.3198724776902
 30
0.0
 10
857.1455075982136
 20
612.5884271653731
 30
0.0
 10
857.1455075982136
 20
612.5884271653731
 30
0.0
 10
860.2280271286929
 20
612.5884271653731
 30
0.0
 10
860.2280271286929
 20
612.5884271653731
 30
0.0
  0
HATCH
  5
C3
330
9F
100
AcDbEntity
  8
0
 62
   240
420
 15539236
100
AcDbHatch
 10
0.0
 20
0.0
 30
0.0
210
0.0
220
0.0
230
1.0
  2
SOLID
 70
     1
 71
     0
 91
        2
 92
        1
 93
        1
 72
     4
 94
        3
 73
     0
 74
     1
 95
       32
 96
       28
 40
0.0
 40
0.0
 40
0.0
 40
0.0
 40
1.0
 40
1.0
 40
1.0
 40
2.0
 40
2.0
 40
2.0
 40
3.0
 40
3.0
 40
3.0
 40
4.0
 40
4.0
 40
4.0
 40
5.0
 40
5.0
 40
5.0
 40
6.0
 40
6.0
 40
6.0
 40
7.0
 40
7.0
 40
7.0
 40
8.0
 40
8.0
 40
8.0
 40
9.0
 40
9.0
 40
9.0
 40
9.0
 10
857.1337888482166
 20
611.832567790562
 10
857.1577146294605
 20
610.4053216971688
 10
858.0688474417327
 20
609.8179193535657
 10
859.1245115039688
 20
609.8179193535657
 10
859.87988259753
 20
609.8179193535657
 10
860.335937284916
 20
609.9497552910327
 10
860.7314450973171
 20
610.1177240409908
 10
860.7314450973171
 20
610.1177240409908
 10
860.9116208785221
 20
609.3618646661797
 10
860.9116208785221
 20
609.3618646661797
 10
860.539550566115
 20
609.1938959162217
 10
859.9042966600239
 20
609.0020013850196
 10
858.9804685352549
 20
609.0020013850196
 10
857.1933591607017
 20
609.0020013850196
 10
856.1259763484685
 20
610.1777826347258
 10
856.1259763484685
 20
611.928759196788
 10
856.1259763484685
 20
613.6797357588503
 10
857.1577146294605
 20
615.0586420085056
 10
858.8486325977879
 20
615.0586420085056
 10
860.7436521285641
 20
615.0586420085056
 10
861.247558378438
 20
613.3916498214222
 10
861.247558378438
 20
612.3242670091892
 10
861.247558378438
 20
612.108446696743
 10
861.2231443159442
 20
611.9404779467851
 10
861.2114255659471
 20
611.832567790562
 10
861.2114255659471
 20
611.832567790562
 10
857.1337888482166
 20
611.832567790562
 10
857.1337888482166
 20
611.832567790562
 97
        0
 97
        0
 92
        1
 93
        1
 72
     4
 94
        3
 73
     0
 74
     1
 95
       14
 96
       10
 40
0.0
 40
0.0
 40
0.0
 40
0.0
 40
1.0
 40
1.0
 40
1.0
 40
2.0
 40
2.0
 40
2.0
 40
3.0
 40
3.0
 40
3.0
 40
3.0
 10
860.2280271286929
 20
612.5884271653731
 10
860.2397458786901
 20
613.2598138839552
 10
859.9521482225119
 20
614.3032709149444
 10
858.7646482228088
 20
614.3032709149444
 10
857.6972654105757
 20
614.3032709149444
 10
857.2294919731926
 20
613.3198724776902
 10
857.1455075982136
 20
612.5884271653731
 10
857.1455075982136
 20
612.5884271653731
 10
860.2280271286929
 20
612.5884271653731
 10
860.2280271286929
 20
612.5884271653731
 97
        0
 97
        0
 75
     2
 76
     1
 98
        0
  0
SPLINE
  5
C4
330
9F
100
AcDbEntity
  8
0
 62
   240
420
 15539236
370
    35
100
AcDbSpline
210
0.0
220
0.0
230
1.0
 70
    11
 71
     3
 72
    41
 73
    37
 74
     0
 42
0.0000000001
 43
0.0000000001
 12
1.0
 22
0.0
 32
0.0
 13
1.0
 23
0.0
 33
0.0
 40
0.0
 40
0.0
 40
0.0
 40
0.0
 40
1.0
 40
1.0
 40
1.0
 40
2.0
 40
2.0
 40
2.0
 40
3.0
 40
3.0
 40
3.0
 40
4.0
 40
4.0
 40
4.0
 40
5.0
 40
5.0
 40
5.0
 40
6.0
 40
6.0
 40
6.0
 40
7.0
 40
7.0
 40
7.0
 40
8.0
 40
8.0
 40
8.0
 40
9.0
 40
9.0
 40
9.0
 40
10.0
 40
10.0
 40
10.0
 40
11.0
 40
11.0
 40
11.0
 40
12.0
 40
12.0
 40
12.0
 40
12.0
 10
862.5581052531105
 20
613.0317865402623
 30
0.0
 10
862.5581052531105
 20
613.7754388838263
 30
0.0
 10
862.5341794718664
 20
614.3750482586764
 30
0.0
 10
862.5102536906224
 20
614.9268060710385
 30
0.0
 10
862.5102536906224
 20
614.9268060710385
 30
0.0
 10
863.4575193153856
 20
614.9268060710385
 30
0.0
 10
863.4575193153856
 20
614.9268060710385
 30
0.0
 10
863.4575193153856
 20
614.9268060710385
 30
0.0
 10
863.5053708778736
 20
613.9316888837873
 30
0.0
 10
863.5053708778736
 20
613.9316888837873
 30
0.0
 10
863.5053708778736
 20
613.9316888837873
 30
0.0
 10
863.5297849403676
 20
613.9316888837873
 30
0.0
 10
863.5297849403676
 20
613.9316888837873
 30
0.0
 10
863.9614255652597
 20
614.6392084148604
 30
0.0
 10
864.6450193150887
 20
615.0586420085056
 30
0.0
 10
865.5922849398519
 20
615.0586420085056
 30
0.0
 10
866.995605252001
 20
615.0586420085056
 30
0.0
 10
868.0512693142372
 20
613.8716302900523
 30
0.0
 10
868.0512693142372
 20
612.108446696743
 30
0.0
 10
868.0512693142372
 20
610.0215326347648
 30
0.0
 10
866.779784939555
 20
608.9902826350226
 30
0.0
 10
865.4125974398968
 20
608.9902826350226
 30
0.0
 10
864.6450193150887
 20
608.9902826350226
 30
0.0
 10
863.9731443152567
 20
609.3262201349386
 30
0.0
 10
863.6254880653436
 20
609.9019037285447
 30
0.0
 10
863.6254880653436
 20
609.9019037285447
 30
0.0
 10
863.6015622840996
 20
609.9019037285447
 30
0.0
 10
863.6015622840996
 20
609.9019037285447
 30
0.0
 10
863.6015622840996
 20
609.9019037285447
 30
0.0
 10
863.6015622840996
 20
606.7476068543333
 30
0.0
 10
863.6015622840996
 20
606.7476068543333
 30
0.0
 10
863.6015622840996
 20
606.7476068543333
 30
0.0
 10
862.5581052531105
 20
606.7476068543333
 30
0.0
 10
862.5581052531105
 20
606.7476068543333
 30
0.0
 10
862.5581052531105
 20
606.7476068543333
 30
0.0
 10
862.5581052531105
 20
613.0317865402623
 30
0.0
 10
862.5581052531105
 20
613.0317865402623
 30
0.0
  0
SPLINE
  5
C5
330
9F
100
AcDbEntity
  8
0
 62
   240
420
 15539236
370
    35
100
AcDbSpline
210
0.0
220
0.0
230
1.0
 70
    11
 71
     3
 72
    26
 73
    22
 74
     0
 42
0.0000000001
 43
0.0000000001
 12
1.0
 22
0.0
 32
0.0
 13
1.0
 23
0.0
 33
0.0
 40
0.0
 40
0.0
 40
0.0
 40
0.0
 40
1.0
 40
1.0
 40
1.0
 40
2.0
 40
2.0
 40
2.0
 40
3.0
 40
3.0
 40
3.0
 40
4.0
 40
4.0
 40
4.0
 40
5.0
 40
5.0
 40
5.0
 40
6.0
 40
6.0
 40
6.0
 40
7.0
 40
7.0
 40
7.0
 40
7.0
 10
863.6015622840996
 20
611.4849115406489
 30
0.0
 10
863.6015622840996
 20
611.3291498219379
 30
0.0
 10
863.6254880653436
 20
611.1851068532239
 30
0.0
 10
863.6494138465877
 20
611.0532709157569
 30
0.0
 10
863.8413083777897
 20
610.3213373221898
 30
0.0
 10
864.4770505651308
 20
609.8179193535657
 30
0.0
 10
865.2329099399418
 20
609.8179193535657
 30
0.0
 10
866.3481443146629
 20
609.8179193535657
 30
0.0
 10
866.995605252001
 20
610.7290521658379
 30
0.0
 10
866.995605252001
 20
612.060595134255
 30
0.0
 10
866.995605252001
 20
613.2236810714643
 30
0.0
 10
866.384277127154
 20
614.2192865399653
 30
0.0
 10
865.2685544711828
 20
614.2192865399653
 30
0.0
 10
864.5488279088628
 20
614.2192865399653
 30
0.0
 10
863.8774411902806
 20
613.7036615400942
 30
0.0
 10
863.6733396278316
 20
612.9121576340422
 30
0.0
 10
863.6376950965905
 20
612.7803216965751
 30
0.0
 10
863.6015622840996
 20
612.6240716966141
 30
0.0
 10
863.6015622840996
 20
612.48051700915
 30
0.0
 10
863.6015622840996
 20
612.48051700915
 30
0.0
 10
863.6015622840996
 20
611.4849115406489
 30
0.0
 10
863.6015622840996
 20
611.4849115406489
 30
0.0
  0
HATCH
  5
C6
330
9F
100
AcDbEntity
  8
0
 62
   240
420
 15539236
100
AcDbHatch
 10
0.0
 20
0.0
 30
0.0
210
0.0
220
0.0
230
1.0
  2
SOLID
 70
     1
 71
     0
 91
        2
 92
        1
 93
        1
 72
     4
 94
        3
 73
     0
 74
     1
 95
       41
 96
       37
 40
0.0
 40
0.0
 40
0.0
 40
0.0
 40
1.0
 40
1.0
 40
1.0
 40
2.0
 40
2.0
 40
2.0
 40
3.0
 40
3.0
 40
3.0
 40
4.0
 40
4.0
 40
4.0
 40
5.0
 40
5.0
 40
5.0
 40
6.0
 40
6.0
 40
6.0
 40
7.0
 40
7.0
 40
7.0
 40
8.0
 40
8.0
 40
8.0
 40
9.0
 40
9.0
 40
9.0
 40
10.0
 40
10.0
 40
10.0
 40
11.0
 40
11.0
 40
11.0
 40
12.0
 40
12.0
 40
12.0
 40
12.0
 10
862.5581052531105
 20
613.0317865402623
 10
862.5581052531105
 20
613.7754388838263
 10
862.5341794718664
 20
614.3750482586764
 10
862.5102536906224
 20
614.9268060710385
 10
862.5102536906224
 20
614.9268060710385
 10
863.4575193153856
 20
614.9268060710385
 10
863.4575193153856
 20
614.9268060710385
 10
863.4575193153856
 20
614.9268060710385
 10
863.5053708778736
 20
613.9316888837873
 10
863.5053708778736
 20
613.9316888837873
 10
863.5053708778736
 20
613.9316888837873
 10
863.5297849403676
 20
613.9316888837873
 10
863.5297849403676
 20
613.9316888837873
 10
863.9614255652597
 20
614.6392084148604
 10
864.6450193150887
 20
615.0586420085056
 10
865.5922849398519
 20
615.0586420085056
 10
866.995605252001
 20
615.0586420085056
 10
868.0512693142372
 20
613.8716302900523
 10
868.0512693142372
 20
612.108446696743
 10
868.0512693142372
 20
610.0215326347648
 10
866.779784939555
 20
608.9902826350226
 10
865.4125974398968
 20
608.9902826350226
 10
864.6450193150887
 20
608.9902826350226
 10
863.9731443152567
 20
609.3262201349386
 10
863.6254880653436
 20
609.9019037285447
 10
863.6254880653436
 20
609.9019037285447
 10
863.6015622840996
 20
609.9019037285447
 10
863.6015622840996
 20
609.9019037285447
 10
863.6015622840996
 20
609.9019037285447
 10
863.6015622840996
 20
606.7476068543333
 10
863.6015622840996
 20
606.7476068543333
 10
863.6015622840996
 20
606.7476068543333
 10
862.5581052531105
 20
606.7476068543333
 10
862.5581052531105
 20
606.7476068543333
 10
862.5581052531105
 20
606.7476068543333
 10
862.5581052531105
 20
613.0317865402623
 10
862.5581052531105
 20
613.0317865402623
 97
        0
 97
        0
 92
        1
 93
        1
 72
     4
 94
        3
 73
     0
 74
     1
 95
       26
 96
       22
 40
0.0
 40
0.0
 40
0.0
 40
0.0
 40
1.0
 40
1.0
 40
1.0
 40
2.0
 40
2.0
 40
2.0
 40
3.0
 40
3.0
 40
3.0
 40
4.0
 40
4.0
 40
4.0
 40
5.0
 40
5.0
 40
5.0
 40
6.0
 40
6.0
 40
6.0
 40
7.0
 40
7.0
 40
7.0
 40
7.0
 10
863.6015622840996
 20
611.4849115406489
 10
863.6015622840996
 20
611.3291498219379
 10
863.6254880653436
 20
611.1851068532239
 10
863.6494138465877
 20
611.0532709157569
 10
863.8413083777897
 20
610.3213373221898
 10
864.4770505651308
 20
609.8179193535657
 10
865.2329099399418
 20
609.8179193535657
 10
866.3481443146629
 20
609.8179193535657
 10
866.995605252001
 20
610.7290521658379
 10
866.995605252001
 20
612.060595134255
 10
866.995605252001
 20
613.2236810714643
 10
866.384277127154
 20
614.2192865399653
 10
865.2685544711828
 20
614.2192865399653
 10
864.5488279088628
 20
614.2192865399653
 10
863.8774411902806
 20
613.7036615400942
 10
863.6733396278316
 20
612.9121576340422
 10
863.6376950965905
 20
612.7803216965751
 10
863.6015622840996
 20
612.6240716966141
 10
863.6015622840996
 20
612.48051700915
 10
863.6015622840996
 20
612.48051700915
 10
863.6015622840996
 20
611.4849115406489
 10
863.6015622840996
 20
611.4849115406489
 97
        0
 97
        0
 75
     2
 76
     1
 98
        0
  0
SPLINE
  5
C7
330
9F
100
AcDbEntity
  8
0
 62
   240
420
 15539236
370
    35
100
AcDbSpline
210
0.0
220
0.0
230
1.0
 70
    11
 71
     3
 72
    41
 73
    37
 74
     0
 42
0.0000000001
 43
0.0000000001
 12
1.0
 22
0.0
 32
0.0
 13
1.0
 23
0.0
 33
0.0
 40
0.0
 40
0.0
 40
0.0
 40
0.0
 40
1.0
 40
1.0
 40
1.0
 40
2.0
 40
2.0
 40
2.0
 40
3.0
 40
3.0
 40
3.0
 40
4.0
 40
4.0
 40
4.0
 40
5.0
 40
5.0
 40
5.0
 40
6.0
 40
6.0
 40
6.0
 40
7.0
 40
7.0
 40
7.0
 40
8.0
 40
8.0
 40
8.0
 40
9.0
 40
9.0
 40
9.0
 40
10.0
 40
10.0
 40
10.0
 40
11.0
 40
11.0
 40
11.0
 40
12.0
 40
12.0
 40
12.0
 40
12.0
 10
869.3857419701535
 20
613.0317865402623
 30
0.0
 10
869.3857419701535
 20
613.7754388838263
 30
0.0
 10
869.3618161889095
 20
614.3750482586764
 30
0.0
 10
869.3378904076656
 20
614.9268060710385
 30
0.0
 10
869.3378904076656
 20
614.9268060710385
 30
0.0
 10
870.2851560324287
 20
614.9268060710385
 30
0.0
 10
870.2851560324287
 20
614.9268060710385
 30
0.0
 10
870.2851560324287
 20
614.9268060710385
 30
0.0
 10
870.3334958761666
 20
613.9316888837873
 30
0.0
 10
870.3334958761666
 20
613.9316888837873
 30
0.0
 10
870.3334958761666
 20
613.9316888837873
 30
0.0
 10
870.3574216574107
 20
613.9316888837873
 30
0.0
 10
870.3574216574107
 20
613.9316888837873
 30
0.0
 10
870.7890622823027
 20
614.6392084148604
 30
0.0
 10
871.4726560321318
 20
615.0586420085056
 30
0.0
 10
872.419921656895
 20
615.0586420085056
 30
0.0
 10
873.8232419690441
 20
615.0586420085056
 30
0.0
 10
874.8789060312803
 20
613.8716302900523
 30
0.0
 10
874.8789060312803
 20
612.108446696743
 30
0.0
 10
874.8789060312803
 20
610.0215326347648
 30
0.0
 10
873.6074216565981
 20
608.9902826350226
 30
0.0
 10
872.2402341569399
 20
608.9902826350226
 30
0.0
 10
871.4726560321318
 20
608.9902826350226
 30
0.0
 10
870.8007810322998
 20
609.3262201349386
 30
0.0
 10
870.4531247823867
 20
609.9019037285447
 30
0.0
 10
870.4531247823867
 20
609.9019037285447
 30
0.0
 10
870.4291990011427
 20
609.9019037285447
 30
0.0
 10
870.4291990011427
 20
609.9019037285447
 30
0.0
 10
870.4291990011427
 20
609.9019037285447
 30
0.0
 10
870.4291990011427
 20
606.7476068543333
 30
0.0
 10
870.4291990011427
 20
606.7476068543333
 30
0.0
 10
870.4291990011427
 20
606.7476068543333
 30
0.0
 10
869.3857419701535
 20
606.7476068543333
 30
0.0
 10
869.3857419701535
 20
606.7476068543333
 30
0.0
 10
869.3857419701535
 20
606.7476068543333
 30
0.0
 10
869.3857419701535
 20
613.0317865402623
 30
0.0
 10
869.3857419701535
 20
613.0317865402623
 30
0.0
  0
SPLINE
  5
C8
330
9F
100
AcDbEntity
  8
0
 62
   240
420
 15539236
370
    35
100
AcDbSpline
210
0.0
220
0.0
230
1.0
 70
    11
 71
     3
 72
    26
 73
    22
 74
     0
 42
0.0000000001
 43
0.0000000001
 12
1.0
 22
0.0
 32
0.0
 13
1.0
 23
0.0
 33
0.0
 40
0.0
 40
0.0
 40
0.0
 40
0.0
 40
1.0
 40
1.0
 40
1.0
 40
2.0
 40
2.0
 40
2.0
 40
3.0
 40
3.0
 40
3.0
 40
4.0
 40
4.0
 40
4.0
 40
5.0
 40
5.0
 40
5.0
 40
6.0
 40
6.0
 40
6.0
 40
7.0
 40
7.0
 40
7.0
 40
7.0
 10
870.4291990011427
 20
611.4849115406489
 30
0.0
 10
870.4291990011427
 20
611.3291498219379
 30
0.0
 10
870.4531247823867
 20
611.1851068532239
 30
0.0
 10
870.4770505636308
 20
611.0532709157569
 30
0.0
 10
870.6689450948328
 20
610.3213373221898
 30
0.0
 10
871.3046872821739
 20
609.8179193535657
 30
0.0
 10
872.0600583757349
 20
609.8179193535657
 30
0.0
 10
873.175781031706
 20
609.8179193535657
 30
0.0
 10
873.8232419690441
 20
610.7290521658379
 30
0.0
 10
873.8232419690441
 20
612.060595134255
 30
0.0
 10
873.8232419690441
 20
613.2236810714643
 30
0.0
 10
873.2114255629472
 20
614.2192865399653
 30
0.0
 10
872.0961911882259
 20
614.2192865399653
 30
0.0
 10
871.3764646259059
 20
614.2192865399653
 30
0.0
 10
870.7050779073237
 20
613.7036615400942
 30
0.0
 10
870.5009763448747
 20
612.9121576340422
 30
0.0
 10
870.4653318136336
 20
612.7803216965751
 30
0.0
 10
870.4291990011427
 20
612.6240716966141
 30
0.0
 10
870.4291990011427
 20
612.48051700915
 30
0.0
 10
870.4291990011427
 20
612.48051700915
 30
0.0
 10
870.4291990011427
 20
611.4849115406489
 30
0.0
 10
870.4291990011427
 20
611.4849115406489
 30
0.0
  0
HATCH
  5
C9
330
9F
100
AcDbEntity
  8
0
 62
   240
420
 15539236
100
AcDbHatch
 10
0.0
 20
0.0
 30
0.0
210
0.0
220
0.0
230
1.0
  2
SOLID
 70
     1
 71
     0
 91
        2
 92
        1
 93
        1
 72
     4
 94
        3
 73
     0
 74
     1
 95
       41
 96
       37
 40
0.0
 40
0.0
 40
0.0
 40
0.0
 40
1.0
 40
1.0
 40
1.0
 40
2.0
 40
2.0
 40
2.0
 40
3.0
 40
3.0
 40
3.0
 40
4.0
 40
4.0
 40
4.0
 40
5.0
 40
5.0
 40
5.0
 40
6.0
 40
6.0
 40
6.0
 40
7.0
 40
7.0
 40
7.0
 40
8.0
 40
8.0
 40
8.0
 40
9.0
 40
9.0
 40
9.0
 40
10.0
 40
10.0
 40
10.0
 40
11.0
 40
11.0
 40
11.0
 40
12.0
 40
12.0
 40
12.0
 40
12.0
 10
869.3857419701535
 20
613.0317865402623
 10
869.3857419701535
 20
613.7754388838263
 10
869.3618161889095
 20
614.3750482586764
 10
869.3378904076656
 20
614.9268060710385
 10
869.3378904076656
 20
614.9268060710385
 10
870.2851560324287
 20
614.9268060710385
 10
870.2851560324287
 20
614.9268060710385
 10
870.2851560324287
 20
614.9268060710385
 10
870.3334958761666
 20
613.9316888837873
 10
870.3334958761666
 20
613.9316888837873
 10
870.3334958761666
 20
613.9316888837873
 10
870.3574216574107
 20
613.9316888837873
 10
870.3574216574107
 20
613.9316888837873
 10
870.7890622823027
 20
614.6392084148604
 10
871.4726560321318
 20
615.0586420085056
 10
872.419921656895
 20
615.0586420085056
 10
873.8232419690441
 20
615.0586420085056
 10
874.8789060312803
 20
613.8716302900523
 10
874.8789060312803
 20
612.108446696743
 10
874.8789060312803
 20
610.0215326347648
 10
873.6074216565981
 20
608.9902826350226
 10
872.2402341569399
 20
608.9902826350226
 10
871.4726560321318
 20
608.9902826350226
 10
870.8007810322998
 20
609.3262201349386
 10
870.4531247823867
 20
609.9019037285447
 10
870.4531247823867
 20
609.9019037285447
 10
870.4291990011427
 20
609.9019037285447
 10
870.4291990011427
 20
609.9019037285447
 10
870.4291990011427
 20
609.9019037285447
 10
870.4291990011427
 20
606.7476068543333
 10
870.4291990011427
 20
606.7476068543333
 10
870.4291990011427
 20
606.7476068543333
 10
869.3857419701535
 20
606.7476068543333
 10
869.3857419701535
 20
606.7476068543333
 10
869.3857419701535
 20
606.7476068543333
 10
869.3857419701535
 20
613.0317865402623
 10
869.3857419701535
 20
613.0317865402623
 97
        0
 97
        0
 92
        1
 93
        1
 72
     4
 94
        3
 73
     0
 74
     1
 95
       26
 96
       22
 40
0.0
 40
0.0
 40
0.0
 40
0.0
 40
1.0
 40
1.0
 40
1.0
 40
2.0
 40
2.0
 40
2.0
 40
3.0
 40
3.0
 40
3.0
 40
4.0
 40
4.0
 40
4.0
 40
5.0
 40
5.0
 40
5.0
 40
6.0
 40
6.0
 40
6.0
 40
7.0
 40
7.0
 40
7.0
 40
7.0
 10
870.4291990011427
 20
611.4849115406489
 10
870.4291990011427
 20
611.3291498219379
 10
870.4531247823867
 20
611.1851068532239
 10
870.4770505636308
 20
611.0532709157569
 10
870.6689450948328
 20
610.3213373221898
 10
871.3046872821739
 20
609.8179193535657
 10
872.0600583757349
 20
609.8179193535657
 10
873.175781031706
 20
609.8179193535657
 10
873.8232419690441
 20
610.7290521658379
 10
873.8232419690441
 20
612.060595134255
 10
873.8232419690441
 20
613.2236810714643
 10
873.2114255629472
 20
614.2192865399653
 10
872.0961911882259
 20
614.2192865399653
 10
871.3764646259059
 20
614.2192865399653
 10
870.7050779073237
 20
613.7036615400942
 10
870.5009763448747
 20
612.9121576340422
 10
870.4653318136336
 20
612.7803216965751
 10
870.4291990011427
 20
612.6240716966141
 10
870.4291990011427
 20
612.48051700915
 10
870.4291990011427
 20
612.48051700915
 10
870.4291990011427
 20
611.4849115406489
 10
870.4291990011427
 20
611.4849115406489
 97
        0
 97
        0
 75
     2
 76
     1
 98
        0
  0
SPLINE
  5
CA
330
9F
100
AcDbEntity
  8
0
 62
   240
420
 15539236
370
    35
100
AcDbSpline
210
0.0
220
0.0
230
1.0
 70
    11
 71
     3
 72
    32
 73
    28
 74
     0
 42
0.0000000001
 43
0.0000000001
 12
1.0
 22
0.0
 32
0.0
 13
1.0
 23
0.0
 33
0.0
 40
0.0
 40
0.0
 40
0.0
 40
0.0
 40
1.0
 40
1.0
 40
1.0
 40
2.0
 40
2.0
 40
2.0
 40
3.0
 40
3.0
 40
3.0
 40
4.0
 40
4.0
 40
4.0
 40
5.0
 40
5.0
 40
5.0
 40
6.0
 40
6.0
 40
6.0
 40
7.0
 40
7.0
 40
7.0
 40
8.0
 40
8.0
 40
8.0
 40
9.0
 40
9.0
 40
9.0
 40
9.0
 10
876.8017575932995
 20
611.832567790562
 30
0.0
 10
876.8256833745436
 20
610.4053216971688
 30
0.0
 10
877.7368161868158
 20
609.8179193535657
 30
0.0
 10
878.7924802490519
 20
609.8179193535657
 30
0.0
 10
879.5478513426131
 20
609.8179193535657
 30
0.0
 10
880.003906029999
 20
609.9497552910327
 30
0.0
 10
880.3994138424001
 20
610.1177240409908
 30
0.0
 10
880.3994138424001
 20
610.1177240409908
 30
0.0
 10
880.5795896236051
 20
609.3618646661797
 30
0.0
 10
880.5795896236051
 20
609.3618646661797
 30
0.0
 10
880.2075193111981
 20
609.1938959162217
 30
0.0
 10
879.5722654051069
 20
609.0020013850196
 30
0.0
 10
878.6484372803378
 20
609.0020013850196
 30
0.0
 10
876.8613279057846
 20
609.0020013850196
 30
0.0
 10
875.7939450935515
 20
610.1777826347258
 30
0.0
 10
875.7939450935515
 20
611.928759196788
 30
0.0
 10
875.7939450935515
 20
613.6797357588503
 30
0.0
 10
876.8256833745436
 20
615.0586420085056
 30
0.0
 10
878.5166013428708
 20
615.0586420085056
 30
0.0
 10
880.411620873647
 20
615.0586420085056
 30
0.0
 10
880.9155271235211
 20
613.3916498214222
 30
0.0
 10
880.9155271235211
 20
612.3242670091892
 30
0.0
 10
880.9155271235211
 20
612.108446696743
 30
0.0
 10
880.8911130610272
 20
611.9404779467851
 30
0.0
 10
880.8793943110302
 20
611.832567790562
 30
0.0
 10
880.8793943110302
 20
611.832567790562
 30
0.0
 10
876.8017575932995
 20
611.832567790562
 30
0.0
 10
876.8017575932995
 20
611.832567790562
 30
0.0
  0
SPLINE
  5
CB
330
9F
100
AcDbEntity
  8
0
 62
   240
420
 15539236
370
    35
100
AcDbSpline
210
0.0
220
0.0
230
1.0
 70
    11
 71
     3
 72
    14
 73
    10
 74
     0
 42
0.0000000001
 43
0.0000000001
 12
1.0
 22
0.0
 32
0.0
 13
1.0
 23
0.0
 33
0.0
 40
0.0
 40
0.0
 40
0.0
 40
0.0
 40
1.0
 40
1.0
 40
1.0
 40
2.0
 40
2.0
 40
2.0
 40
3.0
 40
3.0
 40
3.0
 40
3.0
 10
879.895995873776
 20
612.5884271653731
 30
0.0
 10
879.907714623773
 20
613.2598138839552
 30
0.0
 10
879.620116967595
 20
614.3032709149444
 30
0.0
 10
878.4326169678918
 20
614.3032709149444
 30
0.0
 10
877.3652341556586
 20
614.3032709149444
 30
0.0
 10
876.8974607182756
 20
613.3198724776902
 30
0.0
 10
876.8134763432967
 20
612.5884271653731
 30
0.0
 10
876.8134763432967
 20
612.5884271653731
 30
0.0
 10
879.895995873776
 20
612.5884271653731
 30
0.0
 10
879.895995873776
 20
612.5884271653731
 30
0.0
  0
HATCH
  5
CC
330
9F
100
AcDbEntity
  8
0
 62
   240
420
 15539236
100
AcDbHatch
 10
0.0
 20
0.0
 30
0.0
210
0.0
220
0.0
230
1.0
  2
SOLID
 70
     1
 71
     0
 91
        2
 92
        1
 93
        1
 72
     4
 94
        3
 73
     0
 74
     1
 95
       32
 96
       28
 40
0.0
 40
0.0
 40
0.0
 40
0.0
 40
1.0
 40
1.0
 40
1.0
 40
2.0
 40
2.0
 40
2.0
 40
3.0
 40
3.0
 40
3.0
 40
4.0
 40
4.0
 40
4.0
 40
5.0
 40
5.0
 40
5.0
 40
6.0
 40
6.0
 40
6.0
 40
7.0
 40
7.0
 40
7.0
 40
8.0
 40
8.0
 40
8.0
 40
9.0
 40
9.0
 40
9.0
 40
9.0
 10
876.8017575932995
 20
611.832567790562
 10
876.8256833745436
 20
610.4053216971688
 10
877.7368161868158
 20
609.8179193535657
 10
878.7924802490519
 20
609.8179193535657
 10
879.5478513426131
 20
609.8179193535657
 10
880.003906029999
 20
609.9497552910327
 10
880.3994138424001
 20
610.1177240409908
 10
880.3994138424001
 20
610.1177240409908
 10
880.5795896236051
 20
609.3618646661797
 10
880.5795896236051
 20
609.3618646661797
 10
880.2075193111981
 20
609.1938959162217
 10
879.5722654051069
 20
609.0020013850196
 10
878.6484372803378
 20
609.0020013850196
 10
876.8613279057846
 20
609.0020013850196
 10
875.7939450935515
 20
610.1777826347258
 10
875.7939450935515
 20
611.928759196788
 10
875.7939450935515
 20
613.6797357588503
 10
876.8256833745436
 20
615.0586420085056
 10
878.5166013428708
 20
615.0586420085056
 10
880.411620873647
 20
615.0586420085056
 10
880.9155271235211
 20
613.3916498214222
 10
880.9155271235211
 20
612.3242670091892
 10
880.9155271235211
 20
612.108446696743
 10
880.8911130610272
 20
611.9404779467851
 10
880.8793943110302
 20
611.832567790562
 10
880.8793943110302
 20
611.832567790562
 10
876.8017575932995
 20
611.832567790562
 10
876.8017575932995
 20
611.832567790562
 97
        0
 97
        0
 92
        1
 93
        1
 72
     4
 94
        3
 73
     0
 74
     1
 95
       14
 96
       10
 40
0.0
 40
0.0
 40
0.0
 40
0.0
 40
1.0
 40
1.0
 40
1.0
 40
2.0
 40
2.0
 40
2.0
 40
3.0
 40
3.0
 40
3.0
 40
3.0
 10
879.895995873776
 20
612.5884271653731
 10
879.907714623773
 20
613.2598138839552
 10
879.620116967595
 20
614.3032709149444
 10
878.4326169678918
 20
614.3032709149444
 10
877.3652341556586
 20
614.3032709149444
 10
876.8974607182756
 20
613.3198724776902
 10
876.8134763432967
 20
612.5884271653731
 10
876.8134763432967
 20
612.5884271653731
 10
879.895995873776
 20
612.5884271653731
 10
879.895995873776
 20
612.5884271653731
 97
        0
 97
        0
 75
     2
 76
     1
 98
        0
  0
SPLINE
  5
CD
330
9F
100
AcDbEntity
  8
0
 62
   240
420
 15539236
370
    35
100
AcDbSpline
210
0.0
220
0.0
230
1.0
 70
    11
 71
     3
 72
    41
 73
    37
 74
     0
 42
0.0000000001
 43
0.0000000001
 12
1.0
 22
0.0
 32
0.0
 13
1.0
 23
0.0
 33
0.0
 40
0.0
 40
0.0
 40
0.0
 40
0.0
 40
1.0
 40
1.0
 40
1.0
 40
2.0
 40
2.0
 40
2.0
 40
3.0
 40
3.0
 40
3.0
 40
4.0
 40
4.0
 40
4.0
 40
5.0
 40
5.0
 40
5.0
 40
6.0
 40
6.0
 40
6.0
 40
7.0
 40
7.0
 40
7.0
 40
8.0
 40
8.0
 40
8.0
 40
9.0
 40
9.0
 40
9.0
 40
10.0
 40
10.0
 40
10.0
 40
11.0
 40
11.0
 40
11.0
 40
12.0
 40
12.0
 40
12.0
 40
12.0
 10
887.2387693094403
 20
617.6372552891108
 30
0.0
 10
887.2387693094403
 20
617.6372552891108
 30
0.0
 10
887.2387693094403
 20
610.6211420096149
 30
0.0
 10
887.2387693094403
 20
610.6211420096149
 30
0.0
 10
887.2387693094403
 20
610.1055170097438
 30
0.0
 10
887.2509763406872
 20
609.5181146661406
 30
0.0
 10
887.2866208719283
 20
609.1221185724896
 30
0.0
 10
887.2866208719283
 20
609.1221185724896
 30
0.0
 10
886.3393552471651
 20
609.1221185724896
 30
0.0
 10
886.3393552471651
 20
609.1221185724896
 30
0.0
 10
886.3393552471651
 20
609.1221185724896
 30
0.0
 10
886.2915036846771
 20
610.1294427909878
 30
0.0
 10
886.2915036846771
 20
610.1294427909878
 30
0.0
 10
886.2915036846771
 20
610.1294427909878
 30
0.0
 10
886.2675779034331
 20
610.1294427909878
 30
0.0
 10
886.2675779034331
 20
610.1294427909878
 30
0.0
 10
885.9433591535142
 20
609.4819818536497
 30
0.0
 10
885.2358396224411
 20
608.9902826350226
 30
0.0
 10
884.2885739976779
 20
608.9902826350226
 30
0.0
 10
882.8852536855287
 20
608.9902826350226
 30
0.0
 10
881.8056638420486
 20
610.1777826347258
 30
0.0
 10
881.8056638420486
 20
611.9404779467851
 30
0.0
 10
881.7939450920514
 20
613.8716302900523
 30
0.0
 10
882.9931638417517
 20
615.0586420085056
 30
0.0
 10
884.408202903898
 20
615.0586420085056
 30
0.0
 10
885.295898216176
 20
615.0586420085056
 30
0.0
 10
885.8955075910261
 20
614.6392084148604
 30
0.0
 10
886.15966774721
 20
614.1714349774774
 30
0.0
 10
886.15966774721
 20
614.1714349774774
 30
0.0
 10
886.1835935284541
 20
614.1714349774774
 30
0.0
 10
886.1835935284541
 20
614.1714349774774
 30
0.0
 10
886.1835935284541
 20
614.1714349774774
 30
0.0
 10
886.1835935284541
 20
617.6372552891108
 30
0.0
 10
886.1835935284541
 20
617.6372552891108
 30
0.0
 10
886.1835935284541
 20
617.6372552891108
 30
0.0
 10
887.2387693094403
 20
617.6372552891108
 30
0.0
 10
887.2387693094403
 20
617.6372552891108
 30
0.0
  0
SPLINE
  5
CE
330
9F
100
AcDbEntity
  8
0
 62
   240
420
 15539236
370
    35
100
AcDbSpline
210
0.0
220
0.0
230
1.0
 70
    11
 71
     3
 72
    26
 73
    22
 74
     0
 42
0.0000000001
 43
0.0000000001
 12
1.0
 22
0.0
 32
0.0
 13
1.0
 23
0.0
 33
0.0
 40
0.0
 40
0.0
 40
0.0
 40
0.0
 40
1.0
 40
1.0
 40
1.0
 40
2.0
 40
2.0
 40
2.0
 40
3.0
 40
3.0
 40
3.0
 40
4.0
 40
4.0
 40
4.0
 40
5.0
 40
5.0
 40
5.0
 40
6.0
 40
6.0
 40
6.0
 40
7.0
 40
7.0
 40
7.0
 40
7.0
 10
886.1835935284541
 20
612.5640131028791
 30
0.0
 10
886.1835935284541
 20
612.696337321596
 30
0.0
 10
886.1713864972071
 20
612.8760248215511
 30
0.0
 10
886.1352536847162
 20
613.0078607590182
 30
0.0
 10
885.9794919660051
 20
613.6797357588503
 30
0.0
 10
885.403808372399
 20
614.2314935712124
 30
0.0
 10
884.6123044663469
 20
614.2314935712124
 30
0.0
 10
883.5209958728698
 20
614.2314935712124
 30
0.0
 10
882.8730466542817
 20
613.2720209152021
 30
0.0
 10
882.8730466542817
 20
611.9883295092731
 30
0.0
 10
882.8730466542817
 20
610.8130365408169
 30
0.0
 10
883.4487302478879
 20
609.8418451348097
 30
0.0
 10
884.5883786851028
 20
609.8418451348097
 30
0.0
 10
885.295898216176
 20
609.8418451348097
 30
0.0
 10
885.9433591535142
 20
610.3096185721928
 30
0.0
 10
886.1352536847162
 20
611.1011224782449
 30
0.0
 10
886.1713864972071
 20
611.2451654469589
 30
0.0
 10
886.1835935284541
 20
611.388720134423
 30
0.0
 10
886.1835935284541
 20
611.5566888843811
 30
0.0
 10
886.1835935284541
 20
611.5566888843811
 30
0.0
 10
886.1835935284541
 20
612.5640131028791
 30
0.0
 10
886.1835935284541
 20
612.5640131028791
 30
0.0
  0
HATCH
  5
CF
330
9F
100
AcDbEntity
  8
0
 62
   240
420
 15539236
100
AcDbHatch
 10
0.0
 20
0.0
 30
0.0
210
0.0
220
0.0
230
1.0
  2
SOLID
 70
     1
 71
     0
 91
        2
 92
        1
 93
        1
 72
     4
 94
        3
 73
     0
 74
     1
 95
       41
 96
       37
 40
0.0
 40
0.0
 40
0.0
 40
0.0
 40
1.0
 40
1.0
 40
1.0
 40
2.0
 40
2.0
 40
2.0
 40
3.0
 40
3.0
 40
3.0
 40
4.0
 40
4.0
 40
4.0
 40
5.0
 40
5.0
 40
5.0
 40
6.0
 40
6.0
 40
6.0
 40
7.0
 40
7.0
 40
7.0
 40
8.0
 40
8.0
 40
8.0
 40
9.0
 40
9.0
 40
9.0
 40
10.0
 40
10.0
 40
10.0
 40
11.0
 40
11.0
 40
11.0
 40
12.0
 40
12.0
 40
12.0
 40
12.0
 10
887.2387693094403
 20
617.6372552891108
 10
887.2387693094403
 20
617.6372552891108
 10
887.2387693094403
 20
610.6211420096149
 10
887.2387693094403
 20
610.6211420096149
 10
887.2387693094403
 20
610.1055170097438
 10
887.2509763406872
 20
609.5181146661406
 10
887.2866208719283
 20
609.1221185724896
 10
887.2866208719283
 20
609.1221185724896
 10
886.3393552471651
 20
609.1221185724896
 10
886.3393552471651
 20
609.1221185724896
 10
886.3393552471651
 20
609.1221185724896
 10
886.2915036846771
 20
610.1294427909878
 10
886.2915036846771
 20
610.1294427909878
 10
886.2915036846771
 20
610.1294427909878
 10
886.2675779034331
 20
610.1294427909878
 10
886.2675779034331
 20
610.1294427909878
 10
885.9433591535142
 20
609.4819818536497
 10
885.2358396224411
 20
608.9902826350226
 10
884.2885739976779
 20
608.9902826350226
 10
882.8852536855287
 20
608.9902826350226
 10
881.8056638420486
 20
610.1777826347258
 10
881.8056638420486
 20
611.9404779467851
 10
881.7939450920514
 20
613.8716302900523
 10
882.9931638417517
 20
615.0586420085056
 10
884.408202903898
 20
615.0586420085056
 10
885.295898216176
 20
615.0586420085056
 10
885.8955075910261
 20
614.6392084148604
 10
886.15966774721
 20
614.1714349774774
 10
886.15966774721
 20
614.1714349774774
 10
886.1835935284541
 20
614.1714349774774
 10
886.1835935284541
 20
614.1714349774774
 10
886.1835935284541
 20
614.1714349774774
 10
886.1835935284541
 20
617.6372552891108
 10
886.1835935284541
 20
617.6372552891108
 10
886.1835935284541
 20
617.6372552891108
 10
887.2387693094403
 20
617.6372552891108
 10
887.2387693094403
 20
617.6372552891108
 97
        0
 97
        0
 92
        1
 93
        1
 72
     4
 94
        3
 73
     0
 74
     1
 95
       26
 96
       22
 40
0.0
 40
0.0
 40
0.0
 40
0.0
 40
1.0
 40
1.0
 40
1.0
 40
2.0
 40
2.0
 40
2.0
 40
3.0
 40
3.0
 40
3.0
 40
4.0
 40
4.0
 40
4.0
 40
5.0
 40
5.0
 40
5.0
 40
6.0
 40
6.0
 40
6.0
 40
7.0
 40
7.0
 40
7.0
 40
7.0
 10
886.1835935284541
 20
612.5640131028791
 10
886.1835935284541
 20
612.696337321596
 10
886.1713864972071
 20
612.8760248215511
 10
886.1352536847162
 20
613.0078607590182
 10
885.9794919660051
 20
613.6797357588503
 10
885.403808372399
 20
614.2314935712124
 10
884.6123044663469
 20
614.2314935712124
 10
883.5209958728698
 20
614.2314935712124
 10
882.8730466542817
 20
613.2720209152021
 10
882.8730466542817
 20
611.9883295092731
 10
882.8730466542817
 20
610.8130365408169
 10
883.4487302478879
 20
609.8418451348097
 10
884.5883786851028
 20
609.8418451348097
 10
885.295898216176
 20
609.8418451348097
 10
885.9433591535142
 20
610.3096185721928
 10
886.1352536847162
 20
611.1011224782449
 10
886.1713864972071
 20
611.2451654469589
 10
886.1835935284541
 20
611.388720134423
 10
886.1835935284541
 20
611.5566888843811
 10
886.1835935284541
 20
611.5566888843811
 10
886.1835935284541
 20
612.5640131028791
 10
886.1835935284541
 20
612.5640131028791
 97
        0
 97
        0
 75
     2
 76
     1
 98
        0
  0
ENDBLK
  5
A2
330
9F
100
AcDbEntity
  8
0
100
AcDbBlockEnd
  0
ENDSEC
  0
SECTION
  2
ENTITIES
  0
INSERT
  5
41
330
1F
100
AcDbEntity
  8
0
100
AcDbBlockReference
  2
block 2
 10
0.0
 20
0.0
 30
0.0
  0
INSERT
  5
54
330
1F
100
AcDbEntity
  8
0
100
AcDbBlockReference
  2
block 3
 10
0.0
 20
0.0
 30
0.0
  0
INSERT
  5
59
330
1F
100
AcDbEntity
  8
0
100
AcDbBlockReference
  2
block 4
 10
0.0
 20
0.0
 30
0.0
  0
INSERT
  5
64
330
1F
100
AcDbEntity
  8
0
100
AcDbBlockReference
  2
block 5
 10
0.0
 20
0.0
 30
0.0
  0
INSERT
  5
73
330
1F
100
AcDbEntity
  8
0
100
AcDbBlockReference
  2
block 6
 10
0.0
 20
0.0
 30
0.0
  0
INSERT
  5
78
330
1F
100
AcDbEntity
  8
0
100
AcDbBlockReference
  2
block 7
 10
0.0
 20
0.0
 30
0.0
  0
INSERT
  5
7D
330
1F
100
AcDbEntity
  8
0
100
AcDbBlockReference
  2
block 8
 10
0.0
 20
0.0
 30
0.0
  0
INSERT
  5
82
330
1F
100
AcDbEntity
  8
0
100
AcDbBlockReference
  2
block 9
 10
0.0
 20
0.0
 30
0.0
  0
INSERT
  5
87
330
1F
100
AcDbEntity
  8
0
100
AcDbBlockReference
  2
block 10
 10
0.0
 20
0.0
 30
0.0
  0
INSERT
  5
8C
330
1F
100
AcDbEntity
  8
0
100
AcDbBlockReference
  2
block 11
 10
0.0
 20
0.0
 30
0.0
  0
INSERT
  5
91
330
1F
100
AcDbEntity
  8
0
100
AcDbBlockReference
  2
block 12
 10
0.0
 20
0.0
 30
0.0
  0
INSERT
  5
96
330
1F
100
AcDbEntity
  8
0
100
AcDbBlockReference
  2
block 13
 10
0.0
 20
0.0
 30
0.0
  0
INSERT
  5
9B
330
1F
100
AcDbEntity
  8
0
100
AcDbBlockReference
  2
block 14
 10
0.0
 20
0.0
 30
0.0
  0
INSERT
  5
A0
330
1F
100
AcDbEntity
  8
0
100
AcDbBlockReference
  2
block 15
 10
0.0
 20
0.0
 30
0.0
  0
ENDSEC
  0
SECTION
  2
OBJECTS
  0
DICTIONARY
  5
C
330
0
100
AcDbDictionary
281
     1
  3
ACAD_GROUP
350
D
  3
ACAD_LAYOUT
350
1A
  3
ACAD_MATERIAL
350
3B
  3
ACAD_MLEADERSTYLE
350
D1
  3
ACAD_MLINESTYLE
350
17
  3
ACAD_PLOTSETTINGS
350
19
  3
ACAD_PLOTSTYLENAME
350
E
  3
ACAD_TABLESTYLE
350
D0
  3
ACAD_VISUALSTYLE
350
2A
  0
SUN
  5
3F
330
29
100
AcDbSun
 90
        1
290
     0
 63
     7
421
 16777215
 40
1.0
291
     1
 91
  2455826
 92
 54000000
292
     0
 70
     2
 71
   256
280
     1
  0
DICTIONARY
  5
D
102
{ACAD_REACTORS
330
C
102
}
330
C
100
AcDbDictionary
281
     1
  0
DICTIONARY
  5
1A
102
{ACAD_REACTORS
330
C
102
}
330
C
100
AcDbDictionary
281
     1
  3
Layout1
350
1E
  3
Layout2
350
26
  3
Model
350
22
  0
DICTIONARY
  5
3B
102
{ACAD_REACTORS
330
C
102
}
330
C
100
AcDbDictionary
281
     1
  3
ByBlock
350
3D
  3
ByLayer
350
3C
  3
Global
350
3E
  0
DICTIONARY
  5
D1
102
{ACAD_REACTORS
330
C
102
}
330
C
100
AcDbDictionary
281
     1
  0
DICTIONARY
  5
17
102
{ACAD_REACTORS
330
C
102
}
330
C
100
AcDbDictionary
281
     1
  3
Standard
350
18
  0
DICTIONARY
  5
19
102
{ACAD_REACTORS
330
C
102
}
330
C
100
AcDbDictionary
281
     1
  0
ACDBDICTIONARYWDFLT
  5
E
102
{ACAD_REACTORS
330
C
102
}
330
C
100
AcDbDictionary
281
     1
  3
Normal
350
F
100
AcDbDictionaryWithDefault
340
F
  0
DICTIONARY
  5
D0
102
{ACAD_REACTORS
330
C
102
}
330
C
100
AcDbDictionary
281
     1
  0
DICTIONARY
  5
2A
102
{ACAD_REACTORS
330
C
102
}
330
C
100
AcDbDictionary
281
     1
  3
2dWireframe
350
2F
  3
3D Hidden
350
31
  3
3dWireframe
350
30
  3
Basic
350
32
  3
Brighten
350
36
  3
ColorChange
350
3A
  3
Conceptual
350
34
  3
Dim
350
35
  3
Facepattern
350
39
  3
Flat
350
2B
  3
FlatWithEdges
350
2C
  3
Gouraud
350
2D
  3
GouraudWithEdges
350
2E
  3
Linepattern
350
38
  3
Realistic
350
33
  3
Thicken
350
37
  0
LAYOUT
  5
1E
102
{ACAD_REACTORS
330
1A
102
}
330
1A
100
AcDbPlotSettings
  1

  2
none_device
  4

  6

 40
0.0
 41
0.0
 42
0.0
 43
0.0
 44
0.0
 45
0.0
 46
0.0
 47
0.0
 48
0.0
 49
0.0
140
0.0
141
0.0
142
1.0
143
1.0
 70
   688
 72
     0
 73
     0
 74
     5
  7

 75
    16
 76
     0
 77
     2
 78
   300
147
1.0
148
0.0
149
0.0
100
AcDbLayout
  1
Layout1
 70
     1
 71
     1
 10
0.0
 20
0.0
 11
12.0
 21
9.0
 12
0.0
 22
0.0
 32
0.0
 14
1.000000000000000E+20
 24
1.000000000000000E+20
 34
1.000000000000000E+20
 15
-1.000000000000000E+20
 25
-1.000000000000000E+20
 35
-1.000000000000000E+20
146
0.0
 13
0.0
 23
0.0
 33
0.0
 16
1.0
 26
0.0
 36
0.0
 17
0.0
 27
1.0
 37
0.0
 76
     0
330
1B
  0
LAYOUT
  5
26
102
{ACAD_REACTORS
330
1A
102
}
330
1A
100
AcDbPlotSettings
  1

  2
none_device
  4

  6

 40
0.0
 41
0.0
 42
0.0
 43
0.0
 44
0.0
 45
0.0
 46
0.0
 47
0.0
 48
0.0
 49
0.0
140
0.0
141
0.0
142
1.0
143
1.0
 70
   688
 72
     0
 73
     0
 74
     5
  7

 75
    16
 76
     0
 77
     2
 78
   300
147
1.0
148
0.0
149
0.0
100
AcDbLayout
  1
Layout2
 70
     1
 71
     2
 10
0.0
 20
0.0
 11
0.0
 21
0.0
 12
0.0
 22
0.0
 32
0.0
 14
0.0
 24
0.0
 34
0.0
 15
0.0
 25
0.0
 35
0.0
146
0.0
 13
0.0
 23
0.0
 33
0.0
 16
1.0
 26
0.0
 36
0.0
 17
0.0
 27
1.0
 37
0.0
 76
     0
330
23
  0
LAYOUT
  5
22
102
{ACAD_REACTORS
330
1A
102
}
330
1A
100
AcDbPlotSettings
  1

  2
none_device
  4

  6

 40
0.0
 41
0.0
 42
0.0
 43
0.0
 44
0.0
 45
0.0
 46
0.0
 47
0.0
 48
0.0
 49
0.0
140
0.0
141
0.0
142
1.0
143
1.0
 70
  1712
 72
     0
 73
     0
 74
     0
  7

 75
     0
 76
     0
 77
     2
 78
   300
147
1.0
148
0.0
149
0.0
100
AcDbLayout
  1
Model
 70
     1
 71
     0
 10
0.0
 20
0.0
 11
12.0
 21
9.0
 12
0.0
 22
0.0
 32
0.0
 14
1.000000000000000E+20
 24
1.000000000000000E+20
 34
1.000000000000000E+20
 15
-1.000000000000000E+20
 25
-1.000000000000000E+20
 35
-1.000000000000000E+20
146
0.0
 13
0.0
 23
0.0
 33
0.0
 16
1.0
 26
0.0
 36
0.0
 17
0.0
 27
1.0
 37
0.0
 76
     0
330
1F
331
29
  0
MATERIAL
  5
3D
102
{ACAD_REACTORS
330
3B
102
}
330
3B
100
AcDbMaterial
  1
ByBlock
 72
     1
 94
      127
  0
MATERIAL
  5
3C
102
{ACAD_REACTORS
330
3B
102
}
330
3B
100
AcDbMaterial
  1
ByLayer
 72
     1
 94
      127
  0
MATERIAL
  5
3E
102
{ACAD_REACTORS
330
3B
102
}
330
3B
100
AcDbMaterial
  1
Global
 72
     1
 94
      127
  0
MLINESTYLE
  5
18
102
{ACAD_REACTORS
330
17
102
}
330
17
100
AcDbMlineStyle
  2
Standard
 70
     0
  3

 62
   256
 51
90.0
 52
90.0
 71
     2
 49
0.5
 62
   256
  6
BYLAYER
 49
-0.5
 62
   256
  6
BYLAYER
  0
ACDBPLACEHOLDER
  5
F
102
{ACAD_REACTORS
330
E
102
}
330
E
  0
VISUALSTYLE
  5
2F
102
{ACAD_REACTORS
330
2A
102
}
330
2A
100
AcDbVisualStyle
  2
2dWireframe
 70
     4
177
     2
291
     0
 71
     0
176
     1
 72
     2
176
     1
 73
     0
176
     1
 90
        0
176
     1
 40
-0.6
176
     1
 41
-30.0
176
     1
 62
     5
 63
     7
421
 16777215
176
     1
 74
     1
176
     1
 91
        4
176
     1
 64
     7
176
     1
 65
   257
176
     1
 75
     1
176
     1
175
     1
176
     1
 42
1.0
176
     1
 92
        0
176
     1
 66
   257
176
     1
 43
1.0
176
     1
 76
     1
176
     1
 77
     6
176
     1
 78
     2
176
     1
 67
     7
176
     1
 79
     5
176
     1
170
     0
176
     1
171
     0
176
     1
290
     0
176
     1
 93
        1
176
     1
 44
0.0
176
     1
173
     0
176
     1
  0
VISUALSTYLE
  5
31
102
{ACAD_REACTORS
330
2A
102
}
330
2A
100
AcDbVisualStyle
  2
3D Hidden
 70
     6
177
     2
291
     0
 71
     1
176
     1
 72
     2
176
     1
 73
     2
176
     1
 90
        0
176
     1
 40
-0.6
176
     1
 41
-30.0
176
     1
 62
     5
 63
     7
421
 16777215
176
     1
 74
     2
176
     1
 91
        2
176
     1
 64
     7
176
     1
 65
   257
176
     1
 75
     2
176
     1
175
     1
176
     1
 42
40.0
176
     1
 92
        0
176
     1
 66
   257
176
     1
 43
1.0
176
     1
 76
     1
176
     1
 77
     6
176
     1
 78
     2
176
     1
 67
     7
176
     1
 79
     3
176
     1
170
     0
176
     1
171
     0
176
     1
290
     0
176
     1
 93
        1
176
     1
 44
0.0
176
     1
173
     0
176
     1
  0
VISUALSTYLE
  5
30
102
{ACAD_REACTORS
330
2A
102
}
330
2A
100
AcDbVisualStyle
  2
3dWireframe
 70
     5
177
     2
291
     0
 71
     0
176
     1
 72
     2
176
     1
 73
     0
176
     1
 90
        0
176
     1
 40
-0.6
176
     1
 41
-30.0
176
     1
 62
     5
 63
     7
421
 16777215
176
     1
 74
     1
176
     1
 91
        4
176
     1
 64
     7
176
     1
 65
   257
176
     1
 75
     1
176
     1
175
     1
176
     1
 42
1.0
176
     1
 92
        0
176
     1
 66
   257
176
     1
 43
1.0
176
     1
 76
     1
176
     1
 77
     6
176
     1
 78
     2
176
     1
 67
     7
176
     1
 79
     5
176
     1
170
     0
176
     1
171
     0
176
     1
290
     0
176
     1
 93
        1
176
     1
 44
0.0
176
     1
173
     0
176
     1
  0
VISUALSTYLE
  5
32
102
{ACAD_REACTORS
330
2A
102
}
330
2A
100
AcDbVisualStyle
  2
Basic
 70
     7
177
     2
291
     1
 71
     1
176
     1
 72
     0
176
     1
 73
     1
176
     1
 90
        0
176
     1
 40
-0.6
176
     1
 41
-30.0
176
     1
 62
     5
 63
     7
421
 16777215
176
     1
 74
     0
176
     1
 91
        4
176
     1
 64
     7
176
     1
 65
   257
176
     1
 75
     1
176
     1
175
     1
176
     1
 42
1.0
176
     1
 92
        8
176
     1
 66
     7
176
     1
 43
1.0
176
     1
 76
     1
176
     1
 77
     6
176
     1
 78
     2
176
     1
 67
     7
176
     1
 79
     5
176
     1
170
     0
176
     1
171
     0
176
     1
290
     0
176
     1
 93
        1
176
     1
 44
0.0
176
     1
173
     0
176
     1
  0
VISUALSTYLE
  5
36
102
{ACAD_REACTORS
330
2A
102
}
330
2A
100
AcDbVisualStyle
  2
Brighten
 70
    12
177
     2
291
     1
 71
     2
176
     1
 72
     2
176
     1
 73
     0
176
     1
 90
        0
176
     1
 40
-0.6
176
     1
 41
-30.0
176
     1
 62
     5
 63
     7
421
 16777215
176
     1
 74
     1
176
     1
 91
        4
176
     1
 64
     7
176
     1
 65
   257
176
     1
 75
     1
176
     1
175
     1
176
     1
 42
1.0
176
     1
 92
        8
176
     1
 66
     7
176
     1
 43
1.0
176
     1
 76
     1
176
     1
 77
     6
176
     1
 78
     2
176
     1
 67
     7
176
     1
 79
     5
176
     1
170
     0
176
     1
171
     0
176
     1
290
     0
176
     1
 93
        1
176
     1
 44
50.0
176
     1
173
     0
176
     1
  0
VISUALSTYLE
  5
3A
102
{ACAD_REACTORS
330
2A
102
}
330
2A
100
AcDbVisualStyle
  2
ColorChange
 70
    16
177
     2
291
     1
 71
     2
176
     1
 72
     2
176
     1
 73
     3
176
     1
 90
        0
176
     1
 40
-0.6
176
     1
 41
-30.0
176
     1
 62
     5
 63
     8
421
  8421504
176
     1
 74
     1
176
     1
 91
        4
176
     1
 64
     7
176
     1
 65
   257
176
     1
 75
     1
176
     1
175
     1
176
     1
 42
1.0
176
     1
 92
        8
176
     1
 66
     8
424
  8421504
176
     1
 43
1.0
176
     1
 76
     1
176
     1
 77
     6
176
     1
 78
     2
176
     1
 67
     7
176
     1
 79
     5
176
     1
170
     0
176
     1
171
     0
176
     1
290
     0
176
     1
 93
        1
176
     1
 44
0.0
176
     1
173
     0
176
     1
  0
VISUALSTYLE
  5
34
102
{ACAD_REACTORS
330
2A
102
}
330
2A
100
AcDbVisualStyle
  2
Conceptual
 70
     9
177
     2
291
     0
 71
     3
176
     1
 72
     2
176
     1
 73
     0
176
     1
 90
        0
176
     1
 40
-0.6
176
     1
 41
-30.0
176
     1
 62
     5
 63
     7
421
 16777215
176
     1
 74
     2
176
     1
 91
        2
176
     1
 64
     7
176
     1
 65
   257
176
     1
 75
     1
176
     1
175
     1
176
     1
 42
40.0
176
     1
 92
        8
176
     1
 66
     7
176
     1
 43
1.0
176
     1
 76
     1
176
     1
 77
     6
176
     1
 78
     2
176
     1
 67
     7
176
     1
 79
     3
176
     1
170
     0
176
     1
171
     0
176
     1
290
     0
176
     1
 93
        1
176
     1
 44
0.0
176
     1
173
     0
176
     1
  0
VISUALSTYLE
  5
35
102
{ACAD_REACTORS
330
2A
102
}
330
2A
100
AcDbVisualStyle
  2
Dim
 70
    11
177
     2
291
     1
 71
     2
176
     1
 72
     2
176
     1
 73
     0
176
     1
 90
        0
176
     1
 40
-0.6
176
     1
 41
-30.0
176
     1
 62
     5
 63
     7
421
 16777215
176
     1
 74
     1
176
     1
 91
        4
176
     1
 64
     7
176
     1
 65
   257
176
     1
 75
     1
176
     1
175
     1
176
     1
 42
1.0
176
     1
 92
        8
176
     1
 66
     7
176
     1
 43
1.0
176
     1
 76
     1
176
     1
 77
     6
176
     1
 78
     2
176
     1
 67
     7
176
     1
 79
     5
176
     1
170
     0
176
     1
171
     0
176
     1
290
     0
176
     1
 93
        1
176
     1
 44
-50.0
176
     1
173
     0
176
     1
  0
VISUALSTYLE
  5
39
102
{ACAD_REACTORS
330
2A
102
}
330
2A
100
AcDbVisualStyle
  2
Facepattern
 70
    15
177
     2
291
     1
 71
     2
176
     1
 72
     2
176
     1
 73
     0
176
     1
 90
        0
176
     1
 40
-0.6
176
     1
 41
-30.0
176
     1
 62
     5
 63
     7
421
 16777215
176
     1
 74
     1
176
     1
 91
        4
176
     1
 64
     7
176
     1
 65
   257
176
     1
 75
     1
176
     1
175
     1
176
     1
 42
1.0
176
     1
 92
        8
176
     1
 66
     7
176
     1
 43
1.0
176
     1
 76
     1
176
     1
 77
     6
176
     1
 78
     2
176
     1
 67
     7
176
     1
 79
     5
176
     1
170
     0
176
     1
171
     0
176
     1
290
     0
176
     1
 93
        1
176
     1
 44
0.0
176
     1
173
     0
176
     1
  0
VISUALSTYLE
  5
2B
102
{ACAD_REACTORS
330
2A
102
}
330
2A
100
AcDbVisualStyle
  2
Flat
 70
     0
177
     2
291
     1
 71
     2
176
     1
 72
     1
176
     1
 73
     1
176
     1
 90
        2
176
     1
 40
-0.6
176
     1
 41
30.0
176
     1
 62
     5
 63
     7
421
 16777215
176
     1
 74
     0
176
     1
 91
        4
176
     1
 64
     7
176
     1
 65
   257
176
     1
 75
     1
176
     1
175
     1
176
     1
 42
1.0
176
     1
 92
        8
176
     1
 66
     7
176
     1
 43
1.0
176
     1
 76
     1
176
     1
 77
     6
176
     1
 78
     2
176
     1
 67
     7
176
     1
 79
     5
176
     1
170
     0
176
     1
171
     0
176
     1
290
     0
176
     1
 93
       13
176
     1
 44
0.0
176
     1
173
     0
176
     1
  0
VISUALSTYLE
  5
2C
102
{ACAD_REACTORS
330
2A
102
}
330
2A
100
AcDbVisualStyle
  2
FlatWithEdges
 70
     1
177
     2
291
     1
 71
     2
176
     1
 72
     1
176
     1
 73
     1
176
     1
 90
        2
176
     1
 40
-0.6
176
     1
 41
30.0
176
     1
 62
     5
 63
     7
421
 16777215
176
     1
 74
     1
176
     1
 91
        4
176
     1
 64
     7
176
     1
 65
   257
176
     1
 75
     1
176
     1
175
     1
176
     1
 42
1.0
176
     1
 92
        0
176
     1
 66
   257
176
     1
 43
1.0
176
     1
 76
     1
176
     1
 77
     6
176
     1
 78
     2
176
     1
 67
     7
176
     1
 79
     5
176
     1
170
     0
176
     1
171
     0
176
     1
290
     0
176
     1
 93
       13
176
     1
 44
0.0
176
     1
173
     0
176
     1
  0
VISUALSTYLE
  5
2D
102
{ACAD_REACTORS
330
2A
102
}
330
2A
100
AcDbVisualStyle
  2
Gouraud
 70
     2
177
     2
291
     1
 71
     2
176
     1
 72
     2
176
     1
 73
     1
176
     1
 90
        2
176
     1
 40
-0.6
176
     1
 41
30.0
176
     1
 62
     5
 63
     7
421
 16777215
176
     1
 74
     0
176
     1
 91
        4
176
     1
 64
     7
176
     1
 65
   257
176
     1
 75
     1
176
     1
175
     1
176
     1
 42
1.0
176
     1
 92
        0
176
     1
 66
     7
176
     1
 43
1.0
176
     1
 76
     1
176
     1
 77
     6
176
     1
 78
     2
176
     1
 67
     7
176
     1
 79
     5
176
     1
170
     0
176
     1
171
     0
176
     1
290
     0
176
     1
 93
       13
176
     1
 44
0.0
176
     1
173
     0
176
     1
  0
VISUALSTYLE
  5
2E
102
{ACAD_REACTORS
330
2A
102
}
330
2A
100
AcDbVisualStyle
  2
GouraudWithEdges
 70
     3
177
     2
291
     1
 71
     2
176
     1
 72
     2
176
     1
 73
     1
176
     1
 90
        2
176
     1
 40
-0.6
176
     1
 41
30.0
176
     1
 62
     5
 63
     7
421
 16777215
176
     1
 74
     1
176
     1
 91
        4
176
     1
 64
     7
176
     1
 65
   257
176
     1
 75
     1
176
     1
175
     1
176
     1
 42
1.0
176
     1
 92
        0
176
     1
 66
   257
176
     1
 43
1.0
176
     1
 76
     1
176
     1
 77
     6
176
     1
 78
     2
176
     1
 67
     7
176
     1
 79
     5
176
     1
170
     0
176
     1
171
     0
176
     1
290
     0
176
     1
 93
       13
176
     1
 44
0.0
176
     1
173
     0
176
     1
  0
VISUALSTYLE
  5
38
102
{ACAD_REACTORS
330
2A
102
}
330
2A
100
AcDbVisualStyle
  2
Linepattern
 70
    14
177
     2
291
     1
 71
     2
176
     1
 72
     2
176
     1
 73
     0
176
     1
 90
        0
176
     1
 40
-0.6
176
     1
 41
-30.0
176
     1
 62
     5
 63
     7
421
 16777215
176
     1
 74
     1
176
     1
 91
        4
176
     1
 64
     7
176
     1
 65
   257
176
     1
 75
     7
176
     1
175
     7
176
     1
 42
1.0
176
     1
 92
        8
176
     1
 66
     7
176
     1
 43
1.0
176
     1
 76
     1
176
     1
 77
     6
176
     1
 78
     2
176
     1
 67
     7
176
     1
 79
     5
176
     1
170
     0
176
     1
171
     0
176
     1
290
     0
176
     1
 93
        1
176
     1
 44
0.0
176
     1
173
     0
176
     1
  0
VISUALSTYLE
  5
33
102
{ACAD_REACTORS
330
2A
102
}
330
2A
100
AcDbVisualStyle
  2
Realistic
 70
     8
177
     2
291
     0
 71
     2
176
     1
 72
     2
176
     1
 73
     0
176
     1
 90
        0
176
     1
 40
-0.6
176
     1
 41
-30.0
176
     1
 62
     5
 63
     7
421
 16777215
176
     1
 74
     1
176
     1
 91
        0
176
     1
 64
     7
176
     1
 65
   257
176
     1
 75
     1
176
     1
175
     1
176
     1
 42
1.0
176
     1
 92
        8
176
     1
 66
     8
424
  7895160
176
     1
 43
1.0
176
     1
 76
     1
176
     1
 77
     6
176
     1
 78
     2
176
     1
 67
     7
176
     1
 79
     5
176
     1
170
     0
176
     1
171
     0
176
     1
290
     0
176
     1
 93
       13
176
     1
 44
0.0
176
     1
173
     0
176
     1
  0
VISUALSTYLE
  5
37
102
{ACAD_REACTORS
330
2A
102
}
330
2A
100
AcDbVisualStyle
  2
Thicken
 70
    13
177
     2
291
     1
 71
     2
176
     1
 72
     2
176
     1
 73
     0
176
     1
 90
        0
176
     1
 40
-0.6
176
     1
 41
-30.0
176
     1
 62
     5
 63
     7
421
 16777215
176
     1
 74
     1
176
     1
 91
        4
176
     1
 64
     7
176
     1
 65
   257
176
     1
 75
     1
176
     1
175
     1
176
     1
 42
1.0
176
     1
 92
       12
176
     1
 66
     7
176
     1
 43
1.0
176
     1
 76
     1
176
     1
 77
     6
176
     1
 78
     2
176
     1
 67
     7
176
     1
 79
     5
176
     1
170
     0
176
     1
171
     0
176
     1
290
     0
176
     1
 93
        1
176
     1
 44
0.0
176
     1
173
     0
176
     1
  0
ENDSEC
  0
EOF
