  0
SECTION
  2
HEADER
  9
$ACADVER
  1
AC1024
  9
$ACADMAINTVER
 70
     6
  9
$DWGCODEPAGE
  3
ANSI_1252
  9
$INSBASE
 10
0.0
 20
0.0
 30
0.0
  9
$EXTMIN
 10
1.000000000000000E+20
 20
1.000000000000000E+20
 30
1.000000000000000E+20
  9
$EXTMAX
 10
-1.000000000000000E+20
 20
-1.000000000000000E+20
 30
-1.000000000000000E+20
  9
$LIMMIN
 10
0.0
 20
0.0
  9
$LIMMAX
 10
12.0
 20
9.0
  9
$ORTHOMODE
 70
     0
  9
$REGENMODE
 70
     1
  9
$FILLMODE
 70
     1
  9
$QTEXTMODE
 70
     0
  9
$MIRRTEXT
 70
     1
  9
$LTSCALE
 40
1.0
  9
$ATTMODE
 70
     1
  9
$TEXTSIZE
 40
0.2
  9
$TRACEWID
 40
0.05
  9
$TEXTSTYLE
  7
Standard
  9
$CLAYER
  8
0
  9
$CELTYPE
  6
ByLayer
  9
$CECOLOR
 62
   256
  9
$CELTSCALE
 40
1.0
  9
$DISPSILH
 70
     0
  9
$DIMSCALE
 40
1.0
  9
$DIMASZ
 40
0.18
  9
$DIMEXO
 40
0.0625
  9
$DIMDLI
 40
0.38
  9
$DIMRND
 40
0.0
  9
$DIMDLE
 40
0.0
  9
$DIMEXE
 40
0.18
  9
$DIMTP
 40
0.0
  9
$DIMTM
 40
0.0
  9
$DIMTXT
 40
0.18
  9
$DIMCEN
 40
0.09
  9
$DIMTSZ
 40
0.0
  9
$DIMTOL
 70
     0
  9
$DIMLIM
 70
     0
  9
$DIMTIH
 70
     1
  9
$DIMTOH
 70
     1
  9
$DIMSE1
 70
     0
  9
$DIMSE2
 70
     0
  9
$DIMTAD
 70
     0
  9
$DIMZIN
 70
     0
  9
$DIMBLK
  1

  9
$DIMASO
 70
     1
  9
$DIMSHO
 70
     1
  9
$DIMPOST
  1

  9
$DIMAPOST
  1

  9
$DIMALT
 70
     0
  9
$DIMALTD
 70
     2
  9
$DIMALTF
 40
25.4
  9
$DIMLFAC
 40
1.0
  9
$DIMTOFL
 70
     0
  9
$DIMTVP
 40
0.0
  9
$DIMTIX
 70
     0
  9
$DIMSOXD
 70
     0
  9
$DIMSAH
 70
     0
  9
$DIMBLK1
  1

  9
$DIMBLK2
  1

  9
$DIMSTYLE
  2
Standard
  9
$DIMCLRD
 70
     0
  9
$DIMCLRE
 70
     0
  9
$DIMCLRT
 70
     0
  9
$DIMTFAC
 40
1.0
  9
$DIMGAP
 40
0.09
  9
$DIMJUST
 70
     0
  9
$DIMSD1
 70
     0
  9
$DIMSD2
 70
     0
  9
$DIMTOLJ
 70
     1
  9
$DIMTZIN
 70
     0
  9
$DIMALTZ
 70
     0
  9
$DIMALTTZ
 70
     0
  9
$DIMUPT
 70
     0
  9
$DIMDEC
 70
     4
  9
$DIMTDEC
 70
     4
  9
$DIMALTU
 70
     2
  9
$DIMALTTD
 70
     2
  9
$DIMTXSTY
  7
Standard
  9
$DIMAUNIT
 70
     0
  9
$DIMADEC
 70
     0
  9
$DIMALTRND
 40
0.0
  9
$DIMAZIN
 70
     0
  9
$DIMDSEP
 70
    46
  9
$DIMATFIT
 70
     3
  9
$DIMFRAC
 70
     0
  9
$DIMLDRBLK
  1

  9
$DIMLUNIT
 70
     2
  9
$DIMLWD
 70
    -2
  9
$DIMLWE
 70
    -2
  9
$DIMTMOVE
 70
     0
  9
$DIMFXL
 40
1.0
  9
$DIMFXLON
 70
     0
  9
$DIMJOGANG
 40
0.7853981633974483
  9
$DIMTFILL
 70
     0
  9
$DIMTFILLCLR
 70
     0
  9
$DIMARCSYM
 70
     0
  9
$DIMLTYPE
  6

  9
$DIMLTEX1
  6

  9
$DIMLTEX2
  6

  9
$DIMTXTDIRECTION
 70
     0
  9
$LUNITS
 70
     2
  9
$LUPREC
 70
     4
  9
$SKETCHINC
 40
0.1
  9
$FILLETRAD
 40
0.5
  9
$AUNITS
 70
     0
  9
$AUPREC
 70
     0
  9
$MENU
  1
.
  9
$ELEVATION
 40
0.0
  9
$PELEVATION
 40
0.0
  9
$THICKNESS
 40
0.0
  9
$LIMCHECK
 70
     0
  9
$CHAMFERA
 40
0.5
  9
$CHAMFERB
 40
0.5
  9
$CHAMFERC
 40
1.0
  9
$CHAMFERD
 40
0.0
  9
$SKPOLY
 70
     0
  9
$TDCREATE
 40
2459171.058289155
  9
$TDUCREATE
 40
2459171.391622488
  9
$TDUPDATE
 40
2459171.058289178
  9
$TDUUPDATE
 40
2459171.391622512
  9
$TDINDWG
 40
0.0000000116
  9
$TDUSRTIMER
 40
0.0000000116
  9
$USRTIMER
 70
     1
  9
$ANGBASE
 50
0.0
  9
$ANGDIR
 70
     0
  9
$PDMODE
 70
     0
  9
$PDSIZE
 40
0.0
  9
$PLINEWID
 40
0.0
  9
$SPLFRAME
 70
     0
  9
$SPLINETYPE
 70
     6
  9
$SPLINESEGS
 70
     8
  9
$HANDSEED
  5
DC
  9
$SURFTAB1
 70
     6
  9
$SURFTAB2
 70
     6
  9
$SURFTYPE
 70
     6
  9
$SURFU
 70
     6
  9
$SURFV
 70
     6
  9
$UCSBASE
  2

  9
$UCSNAME
  2

  9
$UCSORG
 10
0.0
 20
0.0
 30
0.0
  9
$UCSXDIR
 10
1.0
 20
0.0
 30
0.0
  9
$UCSYDIR
 10
0.0
 20
1.0
 30
0.0
  9
$UCSORTHOREF
  2

  9
$UCSORTHOVIEW
 70
     0
  9
$UCSORGTOP
 10
0.0
 20
0.0
 30
0.0
  9
$UCSORGBOTTOM
 10
0.0
 20
0.0
 30
0.0
  9
$UCSORGLEFT
 10
0.0
 20
0.0
 30
0.0
  9
$UCSORGRIGHT
 10
0.0
 20
0.0
 30
0.0
  9
$UCSORGFRONT
 10
0.0
 20
0.0
 30
0.0
  9
$UCSORGBACK
 10
0.0
 20
0.0
 30
0.0
  9
$PUCSBASE
  2

  9
$PUCSNAME
  2

  9
$PUCSORG
 10
0.0
 20
0.0
 30
0.0
  9
$PUCSXDIR
 10
1.0
 20
0.0
 30
0.0
  9
$PUCSYDIR
 10
0.0
 20
1.0
 30
0.0
  9
$PUCSORTHOREF
  2

  9
$PUCSORTHOVIEW
 70
     0
  9
$PUCSORGTOP
 10
0.0
 20
0.0
 30
0.0
  9
$PUCSORGBOTTOM
 10
0.0
 20
0.0
 30
0.0
  9
$PUCSORGLEFT
 10
0.0
 20
0.0
 30
0.0
  9
$PUCSORGRIGHT
 10
0.0
 20
0.0
 30
0.0
  9
$PUCSORGFRONT
 10
0.0
 20
0.0
 30
0.0
  9
$PUCSORGBACK
 10
0.0
 20
0.0
 30
0.0
  9
$USERI1
 70
     0
  9
$USERI2
 70
     0
  9
$USERI3
 70
     0
  9
$USERI4
 70
     0
  9
$USERI5
 70
     0
  9
$USERR1
 40
0.0
  9
$USERR2
 40
0.0
  9
$USERR3
 40
0.0
  9
$USERR4
 40
0.0
  9
$USERR5
 40
0.0
  9
$WORLDVIEW
 70
     1
  9
$SHADEDGE
 70
     3
  9
$SHADEDIF
 70
    70
  9
$TILEMODE
 70
     1
  9
$MAXACTVP
 70
    64
  9
$PINSBASE
 10
0.0
 20
0.0
 30
0.0
  9
$PLIMCHECK
 70
     0
  9
$PEXTMIN
 10
1.000000000000000E+20
 20
1.000000000000000E+20
 30
1.000000000000000E+20
  9
$PEXTMAX
 10
-1.000000000000000E+20
 20
-1.000000000000000E+20
 30
-1.000000000000000E+20
  9
$PLIMMIN
 10
0.0
 20
0.0
  9
$PLIMMAX
 10
12.0
 20
9.0
  9
$UNITMODE
 70
     0
  9
$VISRETAIN
 70
     1
  9
$PLINEGEN
 70
     0
  9
$PSLTSCALE
 70
     1
  9
$TREEDEPTH
 70
  3020
  9
$CMLSTYLE
  2
Standard
  9
$CMLJUST
 70
     0
  9
$CMLSCALE
 40
1.0
  9
$PROXYGRAPHICS
 70
     1
  9
$MEASUREMENT
 70
     0
  9
$CELWEIGHT
370
    -1
  9
$ENDCAPS
280
     0
  9
$JOINSTYLE
280
     0
  9
$LWDISPLAY
290
     1
  9
$INSUNITS
 70
     4
  9
$HYPERLINKBASE
  1

  9
$STYLESHEET
  1

  9
$XEDIT
290
     1
  9
$CEPSNTYPE
380
     0
  9
$PSTYLEMODE
290
     1
  9
$FINGERPRINTGUID
  2
{61714631-3E7F-49FA-ACD7-DFF2D12DF089}
  9
$VERSIONGUID
  2
{FAEB1C32-E019-11D5-929B-00C0DF256EC4}
  9
$EXTNAMES
290
     1
  9
$PSVPSCALE
 40
0.0
  9
$OLESTARTUP
290
     0
  9
$SORTENTS
280
   127
  9
$INDEXCTL
280
     0
  9
$HIDETEXT
280
     1
  9
$XCLIPFRAME
280
     2
  9
$HALOGAP
280
     0
  9
$OBSCOLOR
 70
   257
  9
$OBSLTYPE
280
     0
  9
$INTERSECTIONDISPLAY
280
     0
  9
$INTERSECTIONCOLOR
 70
   257
  9
$DIMASSOC
280
     2
  9
$PROJECTNAME
  1

  9
$CAMERADISPLAY
290
     0
  9
$LENSLENGTH
 40
50.0
  9
$CAMERAHEIGHT
 40
0.0
  9
$STEPSPERSEC
 40
2.0
  9
$STEPSIZE
 40
6.0
  9
$3DDWFPREC
 40
2.0
  9
$PSOLWIDTH
 40
0.25
  9
$PSOLHEIGHT
 40
4.0
  9
$LOFTANG1
 40
1.570796326794897
  9
$LOFTANG2
 40
1.570796326794897
  9
$LOFTMAG1
 40
0.0
  9
$LOFTMAG2
 40
0.0
  9
$LOFTPARAM
 70
     7
  9
$LOFTNORMALS
280
     1
  9
$LATITUDE
 40
37.795
  9
$LONGITUDE
 40
-122.394
  9
$NORTHDIRECTION
 40
0.0
  9
$TIMEZONE
 70
 -8000
  9
$LIGHTGLYPHDISPLAY
280
     1
  9
$TILEMODELIGHTSYNCH
280
     1
  9
$CMATERIAL
347
3C
  9
$SOLIDHIST
280
     1
  9
$SHOWHIST
280
     1
  9
$DWFFRAME
280
     2
  9
$DGNFRAME
280
     2
  9
$REALWORLDSCALE
290
     1
  9
$INTERFERECOLOR
 62
   256
  9
$CSHADOW
280
     0
  9
$SHADOWPLANELOCATION
 40
0.0
  0
ENDSEC
  0
SECTION
  2
CLASSES
  0
CLASS
  1
ACDBDICTIONARYWDFLT
  2
AcDbDictionaryWithDefault
  3
ObjectDBX Classes
 90
        0
 91
        4
280
     0
281
     0
  0
CLASS
  1
VISUALSTYLE
  2
AcDbVisualStyle
  3
ObjectDBX Classes
 90
     4095
 91
        4
280
     0
281
     0
  0
CLASS
  1
MATERIAL
  2
AcDbMaterial
  3
ObjectDBX Classes
 90
     1153
 91
        4
280
     0
281
     0
  0
CLASS
  1
SUN
  2
AcDbSun
  3
SCENEOE
 90
     1024
 91
        4
280
     0
281
     0
  0
ENDSEC
  0
SECTION
  2
TABLES
  0
TABLE
  2
VPORT
  5
8
330
0
100
AcDbSymbolTable
 70
     1
  0
VPORT
  5
29
330
8
100
AcDbSymbolTableRecord
100
AcDbViewportTableRecord
  2
*Active
 70
     0
 10
0.0
 20
0.0
 11
1.0
 21
1.0
 12
0.0
 22
0.0
 13
0.0
 23
0.0
 14
0.5
 24
0.5
 15
0.5
 25
0.5
 16
0.0
 26
0.0
 36
1.0
 17
959.99999976
 27
539.999999865
 37
0.0
 40
1079.99999973
 41
1.777777777777778
 42
50.0
 43
0.0
 44
0.0
 50
0.0
 51
0.0
 71
     0
 72
   100
 73
     1
 74
     3
 75
     0
 76
     0
 77
     0
 78
     0
281
     0
 65
     1
110
0.0
120
0.0
130
0.0
111
1.0
121
0.0
131
0.0
112
0.0
122
1.0
132
0.0
 79
     0
146
0.0
 60
     3
 61
     5
292
     1
282
     1
141
0.0
142
0.0
 63
   250
361
3F
  0
ENDTAB
  0
TABLE
  2
LTYPE
  5
5
330
0
100
AcDbSymbolTable
 70
     1
  0
LTYPE
  5
14
330
5
100
AcDbSymbolTableRecord
100
AcDbLinetypeTableRecord
  2
ByBlock
 70
     0
  3

 72
    65
 73
     0
 40
0.0
  0
LTYPE
  5
15
330
5
100
AcDbSymbolTableRecord
100
AcDbLinetypeTableRecord
  2
ByLayer
 70
     0
  3

 72
    65
 73
     0
 40
0.0
  0
LTYPE
  5
16
330
5
100
AcDbSymbolTableRecord
100
AcDbLinetypeTableRecord
  2
Continuous
 70
     0
  3
Solid line
 72
    65
 73
     0
 40
0.0
  0
ENDTAB
  0
TABLE
  2
LAYER
  5
2
330
0
100
AcDbSymbolTable
 70
     1
  0
LAYER
  5
10
330
2
100
AcDbSymbolTableRecord
100
AcDbLayerTableRecord
  2
0
 70
     0
 62
     7
  6
Continuous
370
    -3
390
F
347
3E
  0
ENDTAB
  0
TABLE
  2
STYLE
  5
3
330
0
100
AcDbSymbolTable
 70
     1
  0
STYLE
  5
11
330
3
100
AcDbSymbolTableRecord
100
AcDbTextStyleTableRecord
  2
Standard
 70
     0
 40
0.0
 41
1.0
 50
0.0
 71
     0
 42
0.2
  3
txt
  4

  0
ENDTAB
  0
TABLE
  2
VIEW
  5
6
330
0
100
AcDbSymbolTable
 70
     0
  0
ENDTAB
  0
TABLE
  2
UCS
  5
7
330
0
100
AcDbSymbolTable
 70
     0
  0
ENDTAB
  0
TABLE
  2
APPID
  5
9
330
0
100
AcDbSymbolTable
 70
     1
  0
APPID
  5
12
330
9
100
AcDbSymbolTableRecord
100
AcDbRegAppTableRecord
  2
ACAD
 70
     0
  0
ENDTAB
  0
TABLE
  2
DIMSTYLE
  5
A
330
0
100
AcDbSymbolTable
 70
     1
100
AcDbDimStyleTable
  0
DIMSTYLE
105
27
330
A
100
AcDbSymbolTableRecord
100
AcDbDimStyleTableRecord
  2
Standard
 70
     0
178
     0
340
11
  0
ENDTAB
  0
TABLE
  2
BLOCK_RECORD
  5
1
330
0
100
AcDbSymbolTable
 70
    15
  0
BLOCK_RECORD
  5
1F
330
1
100
AcDbSymbolTableRecord
100
AcDbBlockTableRecord
  2
*Model_Space
340
22
 70
     0
280
     1
281
     0
  0
BLOCK_RECORD
  5
1B
330
1
100
AcDbSymbolTableRecord
100
AcDbBlockTableRecord
  2
*Paper_Space
340
1E
 70
     0
280
     1
281
     0
  0
BLOCK_RECORD
  5
23
330
1
100
AcDbSymbolTableRecord
100
AcDbBlockTableRecord
  2
*Paper_Space0
340
26
 70
     0
280
     1
281
     0
  0
BLOCK_RECORD
  5
40
330
1
100
AcDbSymbolTableRecord
100
AcDbBlockTableRecord
  2
block 2
340
0
102
{BLKREFS
331
41
102
}
 70
     0
280
     1
281
     0
  0
BLOCK_RECORD
  5
4B
330
1
100
AcDbSymbolTableRecord
100
AcDbBlockTableRecord
  2
block 3
340
0
102
{BLKREFS
331
4C
102
}
 70
     0
280
     1
281
     0
  0
BLOCK_RECORD
  5
5E
330
1
100
AcDbSymbolTableRecord
100
AcDbBlockTableRecord
  2
block 4
340
0
102
{BLKREFS
331
5F
102
}
 70
     0
280
     1
281
     0
  0
BLOCK_RECORD
  5
63
330
1
100
AcDbSymbolTableRecord
100
AcDbBlockTableRecord
  2
block 5
340
0
102
{BLKREFS
331
64
102
}
 70
     0
280
     1
281
     0
  0
BLOCK_RECORD
  5
72
330
1
100
AcDbSymbolTableRecord
100
AcDbBlockTableRecord
  2
block 6
340
0
102
{BLKREFS
331
73
102
}
 70
     0
280
     1
281
     0
  0
BLOCK_RECORD
  5
77
330
1
100
AcDbSymbolTableRecord
100
AcDbBlockTableRecord
  2
block 7
340
0
102
{BLKREFS
331
78
102
}
 70
     0
280
     1
281
     0
  0
BLOCK_RECORD
  5
7C
330
1
100
AcDbSymbolTableRecord
100
AcDbBlockTableRecord
  2
block 8
340
0
102
{BLKREFS
331
7D
102
}
 70
     0
280
     1
281
     0
  0
BLOCK_RECORD
  5
81
330
1
100
AcDbSymbolTableRecord
100
AcDbBlockTableRecord
  2
block 9
340
0
102
{BLKREFS
331
82
102
}
 70
     0
280
     1
281
     0
  0
BLOCK_RECORD
  5
86
330
1
100
AcDbSymbolTableRecord
100
AcDbBlockTableRecord
  2
block 10
340
0
102
{BLKREFS
331
87
102
}
 70
     0
280
     1
281
     0
  0
BLOCK_RECORD
  5
8B
330
1
100
AcDbSymbolTableRecord
100
AcDbBlockTableRecord
  2
block 11
340
0
102
{BLKREFS
331
8C
102
}
 70
     0
280
     1
281
     0
  0
BLOCK_RECORD
  5
90
330
1
100
AcDbSymbolTableRecord
100
AcDbBlockTableRecord
  2
block 12
340
0
102
{BLKREFS
331
91
102
}
 70
     0
280
     1
281
     0
  0
BLOCK_RECORD
  5
95
330
1
100
AcDbSymbolTableRecord
100
AcDbBlockTableRecord
  2
block 13
340
0
102
{BLKREFS
331
96
102
}
 70
     0
280
     1
281
     0
  0
BLOCK_RECORD
  5
9A
330
1
100
AcDbSymbolTableRecord
100
AcDbBlockTableRecord
  2
block 14
340
0
102
{BLKREFS
331
9B
102
}
 70
     0
280
     1
281
     0
  0
BLOCK_RECORD
  5
9F
330
1
100
AcDbSymbolTableRecord
100
AcDbBlockTableRecord
  2
block 15
340
0
102
{BLKREFS
331
A0
102
}
 70
     0
280
     1
281
     0
  0
ENDTAB
  0
ENDSEC
  0
SECTION
  2
BLOCKS
  0
BLOCK
  5
20
330
1F
100
AcDbEntity
  8
0
100
AcDbBlockBegin
  2
*Model_Space
 70
     0
 10
0.0
 20
0.0
 30
0.0
  3
*Model_Space
  1

  0
ENDBLK
  5
21
330
1F
100
AcDbEntity
  8
0
100
AcDbBlockEnd
  0
BLOCK
  5
1C
330
1B
100
AcDbEntity
 67
     1
  8
0
100
AcDbBlockBegin
  2
*Paper_Space
 70
     0
 10
0.0
 20
0.0
 30
0.0
  3
*Paper_Space
  1

  0
ENDBLK
  5
1D
330
1B
100
AcDbEntity
 67
     1
  8
0
100
AcDbBlockEnd
  0
BLOCK
  5
24
330
23
100
AcDbEntity
  8
0
100
AcDbBlockBegin
  2
*Paper_Space0
 70
     0
 10
0.0
 20
0.0
 30
0.0
  3
*Paper_Space0
  1

  0
ENDBLK
  5
25
330
23
100
AcDbEntity
  8
0
100
AcDbBlockEnd
  0
BLOCK
  5
42
330
40
100
AcDbEntity
  8
0
100
AcDbBlockBegin
  2
block 2
 70
     0
 10
0.0
 20
0.0
 30
0.0
  3
block 2
  1

  0
POLYLINE
  5
44
330
40
100
AcDbEntity
  8
0
 62
     7
420
 16777215
370
    25
100
AcDb2dPolyline
 66
     1
 10
0.0
 20
0.0
 30
0.0
  0
VERTEX
  5
45
330
44
100
AcDbEntity
  8
0
 62
     7
420
 16777215
370
    25
100
AcDbVertex
100
AcDb2dVertex
 10
812.5522192179836
 20
520.6529311059494
 30
0.0
  0
VERTEX
  5
46
330
44
100
AcDbEntity
  8
0
 62
     7
420
 16777215
370
    25
100
AcDbVertex
100
AcDb2dVertex
 10
820.152219216083
 20
520.6529311059494
 30
0.0
  0
VERTEX
  5
47
330
44
100
AcDbEntity
  8
0
 62
     7
420
 16777215
370
    25
100
AcDbVertex
100
AcDb2dVertex
 10
820.152219216083
 20
544.9529310998755
 30
0.0
  0
VERTEX
  5
48
330
44
100
AcDbEntity
  8
0
 62
     7
420
 16777215
370
    25
100
AcDbVertex
100
AcDb2dVertex
 10
812.5522192179836
 20
544.9529310998755
 30
0.0
  0
VERTEX
  5
49
330
44
100
AcDbEntity
  8
0
 62
     7
420
 16777215
370
    25
100
AcDbVertex
100
AcDb2dVertex
 10
812.5522192179836
 20
520.6529311059494
 30
0.0
  0
SEQEND
  5
4A
330
44
100
AcDbEntity
  8
0
 62
     7
420
 16777215
370
    25
  0
ENDBLK
  5
43
330
40
100
AcDbEntity
  8
0
100
AcDbBlockEnd
  0
BLOCK
  5
4D
330
4B
100
AcDbEntity
  8
0
100
AcDbBlockBegin
  2
block 3
 70
     0
 10
0.0
 20
0.0
 30
0.0
  3
block 3
  1

  0
POLYLINE
  5
4F
330
4B
100
AcDbEntity
  8
0
 62
     7
420
 16777215
370
    25
100
AcDb2dPolyline
 66
     1
 10
0.0
 20
0.0
 30
0.0
  0
VERTEX
  5
50
330
4F
100
AcDbEntity
  8
0
 62
     7
420
 16777215
370
    25
100
AcDbVertex
100
AcDb2dVertex
 10
1080.649438064157
 20
568.971874026048
 30
0.0
  0
VERTEX
  5
51
330
4F
100
AcDbEntity
  8
0
 62
     7
420
 16777215
370
    25
100
AcDbVertex
100
AcDb2dVertex
 10
1080.649438064157
 20
588.4968740211664
 30
0.0
  0
VERTEX
  5
52
330
4F
100
AcDbEntity
  8
0
 62
     7
420
 16777215
370
    25
100
AcDbVertex
100
AcDb2dVertex
 10
875.3866349048453
 20
588.4968740211673
 30
0.0
  0
VERTEX
  5
53
330
4F
100
AcDbEntity
  8
0
 62
     7
420
 16777215
370
    25
100
AcDbVertex
100
AcDb2dVertex
 10
875.3866349048453
 20
569.4468740259296
 30
0.0
  0
VERTEX
  5
54
330
4F
100
AcDbEntity
  8
0
 62
     7
420
 16777215
370
    25
100
AcDbVertex
100
AcDb2dVertex
 10
856.3366349096077
 20
569.4468740259296
 30
0.0
  0
VERTEX
  5
55
330
4F
100
AcDbEntity
  8
0
 62
     7
420
 16777215
370
    25
100
AcDbVertex
100
AcDb2dVertex
 10
856.3366349096077
 20
550.3968740306918
 30
0.0
  0
VERTEX
  5
56
330
4F
100
AcDbEntity
  8
0
 62
     7
420
 16777215
370
    25
100
AcDbVertex
100
AcDb2dVertex
 10
827.7616349167516
 20
550.3968740306918
 30
0.0
  0
VERTEX
  5
57
330
4F
100
AcDbEntity
  8
0
 62
     7
420
 16777215
370
    25
100
AcDbVertex
100
AcDb2dVertex
 10
827.7616349167516
 20
492.2968740452165
 30
0.0
  0
VERTEX
  5
58
330
4F
100
AcDbEntity
  8
0
 62
     7
420
 16777215
370
    25
100
AcDbVertex
100
AcDb2dVertex
 10
1114.463438055704
 20
492.2968740452165
 30
0.0
  0
VERTEX
  5
59
330
4F
100
AcDbEntity
  8
0
 62
     7
420
 16777215
370
    25
100
AcDbVertex
100
AcDb2dVertex
 10
1114.463438055704
 20
588.4968740211673
 30
0.0
  0
VERTEX
  5
5A
330
4F
100
AcDbEntity
  8
0
 62
     7
420
 16777215
370
    25
100
AcDbVertex
100
AcDb2dVertex
 10
1090.174438061776
 20
588.4968740211673
 30
0.0
  0
VERTEX
  5
5B
330
4F
100
AcDbEntity
  8
0
 62
     7
420
 16777215
370
    25
100
AcDbVertex
100
AcDb2dVertex
 10
1090.174438061776
 20
568.971874026048
 30
0.0
  0
VERTEX
  5
5C
330
4F
100
AcDbEntity
  8
0
 62
     7
420
 16777215
370
    25
100
AcDbVertex
100
AcDb2dVertex
 10
1080.649438064157
 20
568.971874026048
 30
0.0
  0
SEQEND
  5
5D
330
4F
100
AcDbEntity
  8
0
 62
     7
420
 16777215
370
    25
  0
ENDBLK
  5
4E
330
4B
100
AcDbEntity
  8
0
100
AcDbBlockEnd
  0
BLOCK
  5
60
330
5E
100
AcDbEntity
  8
0
100
AcDbBlockBegin
  2
block 4
 70
     0
 10
0.0
 20
0.0
 30
0.0
  3
block 4
  1

  0
SPLINE
  5
62
330
5E
100
AcDbEntity
  8
0
 62
     7
420
 16777215
370
    25
100
AcDbSpline
210
0.0
220
0.0
230
1.0
 70
    11
 71
     3
 72
    29
 73
    25
 74
     0
 42
0.0000000001
 43
0.0000000001
 12
1.0
 22
0.0
 32
0.0
 13
1.0
 23
0.0
 33
0.0
 40
0.0
 40
0.0
 40
0.0
 40
0.0
 40
1.0
 40
1.0
 40
1.0
 40
2.0
 40
2.0
 40
2.0
 40
3.0
 40
3.0
 40
3.0
 40
4.0
 40
4.0
 40
4.0
 40
5.0
 40
5.0
 40
5.0
 40
6.0
 40
6.0
 40
6.0
 40
7.0
 40
7.0
 40
7.0
 40
8.0
 40
8.0
 40
8.0
 40
8.0
 10
804.0114997989967
 20
478.2154998804464
 30
0.0
 10
801.2500760505336
 20
478.2154998804464
 30
0.0
 10
799.0114998002467
 20
480.4540761307323
 30
0.0
 10
799.0114998002467
 20
483.2154998791964
 30
0.0
 10
799.0114998002467
 20
483.2154998791964
 30
0.0
 10
799.0114998002467
 20
596.7844998508036
 30
0.0
 10
799.0114998002467
 20
596.7844998508036
 30
0.0
 10
799.0114998002467
 20
599.5459235992676
 30
0.0
 10
801.2500760505336
 20
601.7844998495536
 30
0.0
 10
804.0114997989967
 20
601.7844998495536
 30
0.0
 10
804.0114997989967
 20
601.7844998495536
 30
0.0
 10
1115.988499721002
 20
601.7844998495536
 30
0.0
 10
1115.988499721002
 20
601.7844998495536
 30
0.0
 10
1118.749923469466
 20
601.7844998495536
 30
0.0
 10
1120.988499719752
 20
599.5459235992676
 30
0.0
 10
1120.988499719752
 20
596.7844998508036
 30
0.0
 10
1120.988499719752
 20
596.7844998508036
 30
0.0
 10
1120.988499719752
 20
483.2154998791964
 30
0.0
 10
1120.988499719752
 20
483.2154998791964
 30
0.0
 10
1120.988499719752
 20
480.4540761307323
 30
0.0
 10
1118.749923469466
 20
478.2154998804464
 30
0.0
 10
1115.988499721002
 20
478.2154998804464
 30
0.0
 10
1115.988499721002
 20
478.2154998804464
 30
0.0
 10
804.0114997989976
 20
478.2154998804464
 30
0.0
 10
804.0114997989967
 20
478.2154998804464
 30
0.0
  0
ENDBLK
  5
61
330
5E
100
AcDbEntity
  8
0
100
AcDbBlockEnd
  0
BLOCK
  5
65
330
63
100
AcDbEntity
  8
0
100
AcDbBlockBegin
  2
block 5
 70
     0
 10
0.0
 20
0.0
 30
0.0
  3
block 5
  1

  0
POLYLINE
  5
67
330
63
100
AcDbEntity
  8
0
 62
     7
420
 16777215
370
    25
100
AcDb2dPolyline
 66
     1
 10
0.0
 20
0.0
 30
0.0
  0
VERTEX
  5
68
330
67
100
AcDbEntity
  8
0
 62
     7
420
 16777215
370
    25
100
AcDbVertex
100
AcDb2dVertex
 10
832.5241349155608
 20
573.2593740249764
 30
0.0
  0
VERTEX
  5
69
330
67
100
AcDbEntity
  8
0
 62
     7
420
 16777215
370
    25
100
AcDbVertex
100
AcDb2dVertex
 10
832.5241349155608
 20
554.2093740297388
 30
0.0
  0
VERTEX
  5
6A
330
67
100
AcDbEntity
  8
0
 62
     7
420
 16777215
370
    25
100
AcDbVertex
100
AcDb2dVertex
 10
852.5241349105607
 20
554.2093740297388
 30
0.0
  0
VERTEX
  5
6B
330
67
100
AcDbEntity
  8
0
 62
     7
420
 16777215
370
    25
100
AcDbVertex
100
AcDb2dVertex
 10
852.5241349105607
 20
573.2593740249764
 30
0.0
  0
VERTEX
  5
6C
330
67
100
AcDbEntity
  8
0
 62
     7
420
 16777215
370
    25
100
AcDbVertex
100
AcDb2dVertex
 10
871.5741349057985
 20
573.2593740249764
 30
0.0
  0
VERTEX
  5
6D
330
67
100
AcDbEntity
  8
0
 62
     7
420
 16777215
370
    25
100
AcDbVertex
100
AcDb2dVertex
 10
871.5741349057985
 20
593.2593740199765
 30
0.0
  0
VERTEX
  5
6E
330
67
100
AcDbEntity
  8
0
 62
     7
420
 16777215
370
    25
100
AcDbVertex
100
AcDb2dVertex
 10
813.4741349203231
 20
593.2593740199765
 30
0.0
  0
VERTEX
  5
6F
330
67
100
AcDbEntity
  8
0
 62
     7
420
 16777215
370
    25
100
AcDbVertex
100
AcDb2dVertex
 10
813.4741349203231
 20
573.2593740249764
 30
0.0
  0
VERTEX
  5
70
330
67
100
AcDbEntity
  8
0
 62
     7
420
 16777215
370
    25
100
AcDbVertex
100
AcDb2dVertex
 10
832.5241349155608
 20
573.2593740249764
 30
0.0
  0
SEQEND
  5
71
330
67
100
AcDbEntity
  8
0
 62
     7
420
 16777215
370
    25
  0
ENDBLK
  5
66
330
63
100
AcDbEntity
  8
0
100
AcDbBlockEnd
  0
BLOCK
  5
74
330
72
100
AcDbEntity
  8
0
100
AcDbBlockBegin
  2
block 6
 70
     0
 10
0.0
 20
0.0
 30
0.0
  3
block 6
  1

  0
SPLINE
  5
76
330
72
100
AcDbEntity
  8
0
 62
     7
420
 16777215
370
    25
100
AcDbSpline
210
0.0
220
0.0
230
1.0
 70
    11
 71
     3
 72
    20
 73
    16
 74
     0
 42
0.0000000001
 43
0.0000000001
 12
1.0
 22
0.0
 32
0.0
 13
1.0
 23
0.0
 33
0.0
 40
0.0
 40
0.0
 40
0.0
 40
0.0
 40
1.0
 40
1.0
 40
1.0
 40
2.0
 40
2.0
 40
2.0
 40
3.0
 40
3.0
 40
3.0
 40
4.0
 40
4.0
 40
4.0
 40
5.0
 40
5.0
 40
5.0
 40
5.0
 10
905.955780606351
 20
483.7405948104191
 30
0.0
 10
905.955780606351
 20
484.3204937975961
 30
0.0
 10
906.4258816189108
 20
484.7905948101559
 30
0.0
 10
907.0057806060887
 20
484.7905948101559
 30
0.0
 10
907.5856795932657
 20
484.7905948101559
 30
0.0
 10
908.0557806058255
 20
484.3204937975961
 30
0.0
 10
908.0557806058255
 20
483.7405948104191
 30
0.0
 10
908.0557806058255
 20
483.1606958232422
 30
0.0
 10
907.5856795932657
 20
482.6905948106823
 30
0.0
 10
907.0057806060887
 20
482.6905948106823
 30
0.0
 10
906.4258816189108
 20
482.6905948106823
 30
0.0
 10
905.955780606351
 20
483.1606958232422
 30
0.0
 10
905.955780606351
 20
483.7405948104191
 30
0.0
 10
905.955780606351
 20
483.7405948104191
 30
0.0
 10
905.955780606351
 20
483.7405948104191
 30
0.0
 10
905.955780606351
 20
483.7405948104191
 30
0.0
  0
ENDBLK
  5
75
330
72
100
AcDbEntity
  8
0
100
AcDbBlockEnd
  0
BLOCK
  5
79
330
77
100
AcDbEntity
  8
0
100
AcDbBlockBegin
  2
block 7
 70
     0
 10
0.0
 20
0.0
 30
0.0
  3
block 7
  1

  0
SPLINE
  5
7B
330
77
100
AcDbEntity
  8
0
 62
     7
420
 16777215
370
    25
100
AcDbSpline
210
0.0
220
0.0
230
1.0
 70
    11
 71
     3
 72
    20
 73
    16
 74
     0
 42
0.0000000001
 43
0.0000000001
 12
1.0
 22
0.0
 32
0.0
 13
1.0
 23
0.0
 33
0.0
 40
0.0
 40
0.0
 40
0.0
 40
0.0
 40
1.0
 40
1.0
 40
1.0
 40
2.0
 40
2.0
 40
2.0
 40
3.0
 40
3.0
 40
3.0
 40
4.0
 40
4.0
 40
4.0
 40
5.0
 40
5.0
 40
5.0
 40
5.0
 10
1011.944218914174
 20
596.2594049195809
 30
0.0
 10
1011.944218914174
 20
596.8393039067578
 30
0.0
 10
1012.414319926734
 20
597.3094049193177
 30
0.0
 10
1012.994218913911
 20
597.3094049193177
 30
0.0
 10
1013.574117901088
 20
597.3094049193177
 30
0.0
 10
1014.044218913648
 20
596.8393039067578
 30
0.0
 10
1014.044218913648
 20
596.2594049195809
 30
0.0
 10
1014.044218913648
 20
595.679505932403
 30
0.0
 10
1013.574117901088
 20
595.2094049198432
 30
0.0
 10
1012.994218913911
 20
595.2094049198432
 30
0.0
 10
1012.414319926734
 20
595.2094049198432
 30
0.0
 10
1011.944218914174
 20
595.679505932403
 30
0.0
 10
1011.944218914174
 20
596.2594049195809
 30
0.0
 10
1011.944218914174
 20
596.2594049195809
 30
0.0
 10
1011.944218914174
 20
596.2594049195809
 30
0.0
 10
1011.944218914174
 20
596.2594049195809
 30
0.0
  0
ENDBLK
  5
7A
330
77
100
AcDbEntity
  8
0
100
AcDbBlockEnd
  0
BLOCK
  5
7E
330
7C
100
AcDbEntity
  8
0
100
AcDbBlockBegin
  2
block 8
 70
     0
 10
0.0
 20
0.0
 30
0.0
  3
block 8
  1

  0
SPLINE
  5
80
330
7C
100
AcDbEntity
  8
0
 62
     7
420
 16777215
370
    25
100
AcDbSpline
210
0.0
220
0.0
230
1.0
 70
    11
 71
     3
 72
    20
 73
    16
 74
     0
 42
0.0000000001
 43
0.0000000001
 12
1.0
 22
0.0
 32
0.0
 13
1.0
 23
0.0
 33
0.0
 40
0.0
 40
0.0
 40
0.0
 40
0.0
 40
1.0
 40
1.0
 40
1.0
 40
2.0
 40
2.0
 40
2.0
 40
3.0
 40
3.0
 40
3.0
 40
4.0
 40
4.0
 40
4.0
 40
5.0
 40
5.0
 40
5.0
 40
5.0
 10
905.955780606351
 20
596.2594049195809
 30
0.0
 10
905.955780606351
 20
596.8393039067578
 30
0.0
 10
906.4258816189108
 20
597.3094049193177
 30
0.0
 10
907.0057806060887
 20
597.3094049193177
 30
0.0
 10
907.5856795932657
 20
597.3094049193177
 30
0.0
 10
908.0557806058255
 20
596.8393039067578
 30
0.0
 10
908.0557806058255
 20
596.2594049195809
 30
0.0
 10
908.0557806058255
 20
595.679505932403
 30
0.0
 10
907.5856795932657
 20
595.2094049198432
 30
0.0
 10
907.0057806060887
 20
595.2094049198432
 30
0.0
 10
906.4258816189108
 20
595.2094049198432
 30
0.0
 10
905.955780606351
 20
595.679505932403
 30
0.0
 10
905.955780606351
 20
596.2594049195809
 30
0.0
 10
905.955780606351
 20
596.2594049195809
 30
0.0
 10
905.955780606351
 20
596.2594049195809
 30
0.0
 10
905.955780606351
 20
596.2594049195809
 30
0.0
  0
ENDBLK
  5
7F
330
7C
100
AcDbEntity
  8
0
100
AcDbBlockEnd
  0
BLOCK
  5
83
330
81
100
AcDbEntity
  8
0
100
AcDbBlockBegin
  2
block 9
 70
     0
 10
0.0
 20
0.0
 30
0.0
  3
block 9
  1

  0
SPLINE
  5
85
330
81
100
AcDbEntity
  8
0
 62
     7
420
 16777215
370
    25
100
AcDbSpline
210
0.0
220
0.0
230
1.0
 70
    11
 71
     3
 72
    20
 73
    16
 74
     0
 42
0.0000000001
 43
0.0000000001
 12
1.0
 22
0.0
 32
0.0
 13
1.0
 23
0.0
 33
0.0
 40
0.0
 40
0.0
 40
0.0
 40
0.0
 40
1.0
 40
1.0
 40
1.0
 40
2.0
 40
2.0
 40
2.0
 40
3.0
 40
3.0
 40
3.0
 40
4.0
 40
4.0
 40
4.0
 40
5.0
 40
5.0
 40
5.0
 40
5.0
 10
1011.944218914174
 20
483.7405948104191
 30
0.0
 10
1011.944218914174
 20
484.3204937975961
 30
0.0
 10
1012.414319926734
 20
484.7905948101559
 30
0.0
 10
1012.994218913911
 20
484.7905948101559
 30
0.0
 10
1013.574117901088
 20
484.7905948101559
 30
0.0
 10
1014.044218913648
 20
484.3204937975961
 30
0.0
 10
1014.044218913648
 20
483.7405948104191
 30
0.0
 10
1014.044218913648
 20
483.1606958232422
 30
0.0
 10
1013.574117901088
 20
482.6905948106823
 30
0.0
 10
1012.994218913911
 20
482.6905948106823
 30
0.0
 10
1012.414319926734
 20
482.6905948106823
 30
0.0
 10
1011.944218914174
 20
483.1606958232422
 30
0.0
 10
1011.944218914174
 20
483.7405948104191
 30
0.0
 10
1011.944218914174
 20
483.7405948104191
 30
0.0
 10
1011.944218914174
 20
483.7405948104191
 30
0.0
 10
1011.944218914174
 20
483.7405948104191
 30
0.0
  0
ENDBLK
  5
84
330
81
100
AcDbEntity
  8
0
100
AcDbBlockEnd
  0
BLOCK
  5
88
330
86
100
AcDbEntity
  8
0
100
AcDbBlockBegin
  2
block 10
 70
     0
 10
0.0
 20
0.0
 30
0.0
  3
block 10
  1

  0
SPLINE
  5
8A
330
86
100
AcDbEntity
  8
0
 62
     7
420
 16777215
370
    25
100
AcDbSpline
210
0.0
220
0.0
230
1.0
 70
    11
 71
     3
 72
    20
 73
    16
 74
     0
 42
0.0000000001
 43
0.0000000001
 12
1.0
 22
0.0
 32
0.0
 13
1.0
 23
0.0
 33
0.0
 40
0.0
 40
0.0
 40
0.0
 40
0.0
 40
1.0
 40
1.0
 40
1.0
 40
2.0
 40
2.0
 40
2.0
 40
3.0
 40
3.0
 40
3.0
 40
4.0
 40
4.0
 40
4.0
 40
5.0
 40
5.0
 40
5.0
 40
5.0
 10
804.4865614645581
 20
483.7405948104191
 30
0.0
 10
804.4865614645581
 20
484.3204937975961
 30
0.0
 10
804.9566624771188
 20
484.7905948101559
 30
0.0
 10
805.5365614642958
 20
484.7905948101559
 30
0.0
 10
806.1164604514728
 20
484.7905948101559
 30
0.0
 10
806.5865614640335
 20
484.3204937975961
 30
0.0
 10
806.5865614640335
 20
483.7405948104191
 30
0.0
 10
806.5865614640335
 20
483.1606958232422
 30
0.0
 10
806.1164604514728
 20
482.6905948106823
 30
0.0
 10
805.5365614642958
 20
482.6905948106823
 30
0.0
 10
804.9566624771188
 20
482.6905948106823
 30
0.0
 10
804.4865614645581
 20
483.1606958232422
 30
0.0
 10
804.4865614645581
 20
483.7405948104191
 30
0.0
 10
804.4865614645581
 20
483.7405948104191
 30
0.0
 10
804.4865614645581
 20
483.7405948104191
 30
0.0
 10
804.4865614645581
 20
483.7405948104191
 30
0.0
  0
ENDBLK
  5
89
330
86
100
AcDbEntity
  8
0
100
AcDbBlockEnd
  0
BLOCK
  5
8D
330
8B
100
AcDbEntity
  8
0
100
AcDbBlockBegin
  2
block 11
 70
     0
 10
0.0
 20
0.0
 30
0.0
  3
block 11
  1

  0
SPLINE
  5
8F
330
8B
100
AcDbEntity
  8
0
 62
     7
420
 16777215
370
    25
100
AcDbSpline
210
0.0
220
0.0
230
1.0
 70
    11
 71
     3
 72
    20
 73
    16
 74
     0
 42
0.0000000001
 43
0.0000000001
 12
1.0
 22
0.0
 32
0.0
 13
1.0
 23
0.0
 33
0.0
 40
0.0
 40
0.0
 40
0.0
 40
0.0
 40
1.0
 40
1.0
 40
1.0
 40
2.0
 40
2.0
 40
2.0
 40
3.0
 40
3.0
 40
3.0
 40
4.0
 40
4.0
 40
4.0
 40
5.0
 40
5.0
 40
5.0
 40
5.0
 10
1113.413438055966
 20
596.2594049195809
 30
0.0
 10
1113.413438055966
 20
596.8393039067578
 30
0.0
 10
1113.883539068527
 20
597.3094049193177
 30
0.0
 10
1114.463438055704
 20
597.3094049193177
 30
0.0
 10
1115.043337042881
 20
597.3094049193177
 30
0.0
 10
1115.513438055441
 20
596.8393039067578
 30
0.0
 10
1115.513438055441
 20
596.2594049195809
 30
0.0
 10
1115.513438055441
 20
595.679505932403
 30
0.0
 10
1115.043337042881
 20
595.2094049198432
 30
0.0
 10
1114.463438055704
 20
595.2094049198432
 30
0.0
 10
1113.883539068527
 20
595.2094049198432
 30
0.0
 10
1113.413438055966
 20
595.679505932403
 30
0.0
 10
1113.413438055966
 20
596.2594049195809
 30
0.0
 10
1113.413438055966
 20
596.2594049195809
 30
0.0
 10
1113.413438055966
 20
596.2594049195809
 30
0.0
 10
1113.413438055966
 20
596.2594049195809
 30
0.0
  0
ENDBLK
  5
8E
330
8B
100
AcDbEntity
  8
0
100
AcDbBlockEnd
  0
BLOCK
  5
92
330
90
100
AcDbEntity
  8
0
100
AcDbBlockBegin
  2
block 12
 70
     0
 10
0.0
 20
0.0
 30
0.0
  3
block 12
  1

  0
SPLINE
  5
94
330
90
100
AcDbEntity
  8
0
 62
     7
420
 16777215
370
    25
100
AcDbSpline
210
0.0
220
0.0
230
1.0
 70
    11
 71
     3
 72
    20
 73
    16
 74
     0
 42
0.0000000001
 43
0.0000000001
 12
1.0
 22
0.0
 32
0.0
 13
1.0
 23
0.0
 33
0.0
 40
0.0
 40
0.0
 40
0.0
 40
0.0
 40
1.0
 40
1.0
 40
1.0
 40
2.0
 40
2.0
 40
2.0
 40
3.0
 40
3.0
 40
3.0
 40
4.0
 40
4.0
 40
4.0
 40
5.0
 40
5.0
 40
5.0
 40
5.0
 10
804.4865614645581
 20
596.2594049195809
 30
0.0
 10
804.4865614645581
 20
596.8393039067578
 30
0.0
 10
804.9566624771188
 20
597.3094049193177
 30
0.0
 10
805.5365614642958
 20
597.3094049193177
 30
0.0
 10
806.1164604514728
 20
597.3094049193177
 30
0.0
 10
806.5865614640335
 20
596.8393039067578
 30
0.0
 10
806.5865614640335
 20
596.2594049195809
 30
0.0
 10
806.5865614640335
 20
595.679505932403
 30
0.0
 10
806.1164604514728
 20
595.2094049198432
 30
0.0
 10
805.5365614642958
 20
595.2094049198432
 30
0.0
 10
804.9566624771188
 20
595.2094049198432
 30
0.0
 10
804.4865614645581
 20
595.679505932403
 30
0.0
 10
804.4865614645581
 20
596.2594049195809
 30
0.0
 10
804.4865614645581
 20
596.2594049195809
 30
0.0
 10
804.4865614645581
 20
596.2594049195809
 30
0.0
 10
804.4865614645581
 20
596.2594049195809
 30
0.0
  0
ENDBLK
  5
93
330
90
100
AcDbEntity
  8
0
100
AcDbBlockEnd
  0
BLOCK
  5
97
330
95
100
AcDbEntity
  8
0
100
AcDbBlockBegin
  2
block 13
 70
     0
 10
0.0
 20
0.0
 30
0.0
  3
block 13
  1

  0
SPLINE
  5
99
330
95
100
AcDbEntity
  8
0
 62
     7
420
 16777215
370
    25
100
AcDbSpline
210
0.0
220
0.0
230
1.0
 70
    11
 71
     3
 72
    20
 73
    16
 74
     0
 42
0.0000000001
 43
0.0000000001
 12
1.0
 22
0.0
 32
0.0
 13
1.0
 23
0.0
 33
0.0
 40
0.0
 40
0.0
 40
0.0
 40
0.0
 40
1.0
 40
1.0
 40
1.0
 40
2.0
 40
2.0
 40
2.0
 40
3.0
 40
3.0
 40
3.0
 40
4.0
 40
4.0
 40
4.0
 40
5.0
 40
5.0
 40
5.0
 40
5.0
 10
1113.413438055966
 20
483.7405948104191
 30
0.0
 10
1113.413438055966
 20
484.3204937975961
 30
0.0
 10
1113.883539068527
 20
484.7905948101559
 30
0.0
 10
1114.463438055704
 20
484.7905948101559
 30
0.0
 10
1115.043337042881
 20
484.7905948101559
 30
0.0
 10
1115.513438055441
 20
484.3204937975961
 30
0.0
 10
1115.513438055441
 20
483.7405948104191
 30
0.0
 10
1115.513438055441
 20
483.1606958232422
 30
0.0
 10
1115.043337042881
 20
482.6905948106823
 30
0.0
 10
1114.463438055704
 20
482.6905948106823
 30
0.0
 10
1113.883539068527
 20
482.6905948106823
 30
0.0
 10
1113.413438055966
 20
483.1606958232422
 30
0.0
 10
1113.413438055966
 20
483.7405948104191
 30
0.0
 10
1113.413438055966
 20
483.7405948104191
 30
0.0
 10
1113.413438055966
 20
483.7405948104191
 30
0.0
 10
1113.413438055966
 20
483.7405948104191
 30
0.0
  0
ENDBLK
  5
98
330
95
100
AcDbEntity
  8
0
100
AcDbBlockEnd
  0
BLOCK
  5
9C
330
9A
100
AcDbEntity
  8
0
100
AcDbBlockBegin
  2
block 14
 70
     0
 10
0.0
 20
0.0
 30
0.0
  3
block 14
  1

  0
SPLINE
  5
9E
330
9A
100
AcDbEntity
  8
0
 62
     7
420
 16777215
370
    25
100
AcDbSpline
210
0.0
220
0.0
230
1.0
 70
    11
 71
     3
 72
    20
 73
    16
 74
     0
 42
0.0000000001
 43
0.0000000001
 12
1.0
 22
0.0
 32
0.0
 13
1.0
 23
0.0
 33
0.0
 40
0.0
 40
0.0
 40
0.0
 40
0.0
 40
1.0
 40
1.0
 40
1.0
 40
2.0
 40
2.0
 40
2.0
 40
3.0
 40
3.0
 40
3.0
 40
4.0
 40
4.0
 40
4.0
 40
5.0
 40
5.0
 40
5.0
 40
5.0
 10
807.8303967753866
 20
502.2842114810584
 30
0.0
 10
807.8303967753866
 20
506.9786318534468
 30
0.0
 10
811.6359764008731
 20
510.7842114789334
 30
0.0
 10
816.3303967732616
 20
510.7842114789334
 30
0.0
 10
821.0248171456491
 20
510.7842114789334
 30
0.0
 10
824.8303967711366
 20
506.9786318534468
 30
0.0
 10
824.8303967711366
 20
502.2842114810584
 30
0.0
 10
824.8303967711366
 20
497.5897911086718
 30
0.0
 10
821.0248171456491
 20
493.7842114831834
 30
0.0
 10
816.3303967732616
 20
493.7842114831834
 30
0.0
 10
811.6359764008731
 20
493.7842114831834
 30
0.0
 10
807.8303967753866
 20
497.5897911086718
 30
0.0
 10
807.8303967753866
 20
502.2842114810584
 30
0.0
 10
807.8303967753866
 20
502.2842114810584
 30
0.0
 10
807.8303967753866
 20
502.2842114810584
 30
0.0
 10
807.8303967753866
 20
502.2842114810584
 30
0.0
  0
ENDBLK
  5
9D
330
9A
100
AcDbEntity
  8
0
100
AcDbBlockEnd
  0
BLOCK
  5
A1
330
9F
100
AcDbEntity
  8
0
100
AcDbBlockBegin
  2
block 15
 70
     0
 10
0.0
 20
0.0
 30
0.0
  3
block 15
  1

  0
SPLINE
  5
A3
330
9F
100
AcDbEntity
  8
0
 62
   240
420
 15539236
370
    35
100
AcDbSpline
210
0.0
220
0.0
230
1.0
 70
    11
 71
     3
 72
    71
 73
    67
 74
     0
 42
0.0000000001
 43
0.0000000001
 12
1.0
 22
0.0
 32
0.0
 13
1.0
 23
0.0
 33
0.0
 40
0.0
 40
0.0
 40
0.0
 40
0.0
 40
1.0
 40
1.0
 40
1.0
 40
2.0
 40
2.0
 40
2.0
 40
3.0
 40
3.0
 40
3.0
 40
4.0
 40
4.0
 40
4.0
 40
5.0
 40
5.0
 40
5.0
 40
6.0
 40
6.0
 40
6.0
 40
7.0
 40
7.0
 40
7.0
 40
8.0
 40
8.0
 40
8.0
 40
9.0
 40
9.0
 40
9.0
 40
10.0
 40
10.0
 40
10.0
 40
11.0
 40
11.0
 40
11.0
 40
12.0
 40
12.0
 40
12.0
 40
13.0
 40
13.0
 40
13.0
 40
14.0
 40
14.0
 40
14.0
 40
15.0
 40
15.0
 40
15.0
 40
16.0
 40
16.0
 40
16.0
 40
17.0
 40
17.0
 40
17.0
 40
18.0
 40
18.0
 40
18.0
 40
19.0
 40
19.0
 40
19.0
 40
20.0
 40
20.0
 40
20.0
 40
21.0
 40
21.0
 40
21.0
 40
22.0
 40
22.0
 40
22.0
 40
22.0
 10
810.0615232349846
 20
606.7846678170538
 30
0.0
 10
810.0615232349846
 20
606.7846678170538
 30
0.0
 10
808.0102537042475
 20
614.8681639087829
 30
0.0
 10
808.0102537042475
 20
614.8681639087829
 30
0.0
 10
808.0102537042475
 20
614.8681639087829
 30
0.0
 10
809.1137693289716
 20
614.8681639087829
 30
0.0
 10
809.1137693289716
 20
614.8681639087829
 30
0.0
 10
809.1137693289716
 20
614.8681639087829
 30
0.0
 10
810.0732419849817
 20
610.7783201598054
 30
0.0
 10
810.0732419849817
 20
610.7783201598054
 30
0.0
 10
810.3129880786718
 20
609.7709959413072
 30
0.0
 10
810.5292966723676
 20
608.763671722809
 30
0.0
 10
810.6728513598317
 20
607.983886566754
 30
0.0
 10
810.6728513598317
 20
607.983886566754
 30
0.0
 10
810.6967771410758
 20
607.983886566754
 30
0.0
 10
810.6967771410758
 20
607.983886566754
 30
0.0
 10
810.8291013597927
 20
608.7875975040531
 30
0.0
 10
811.0805662034799
 20
609.7470701600632
 30
0.0
 10
811.3564451096609
 20
610.7905271910523
 30
0.0
 10
811.3564451096609
 20
610.7905271910523
 30
0.0
 10
812.436034953141
 20
614.8681639087829
 30
0.0
 10
812.436034953141
 20
614.8681639087829
 30
0.0
 10
812.436034953141
 20
614.8681639087829
 30
0.0
 10
813.5273435466181
 20
614.8681639087829
 30
0.0
 10
813.5273435466181
 20
614.8681639087829
 30
0.0
 10
813.5273435466181
 20
614.8681639087829
 30
0.0
 10
814.5107419838723
 20
610.7666014098083
 30
0.0
 10
814.5107419838723
 20
610.7666014098083
 30
0.0
 10
814.7387693275653
 20
609.8071287537982
 30
0.0
 10
814.9545896400114
 20
608.8476560977881
 30
0.0
 10
815.0747068274814
 20
607.9960935980009
 30
0.0
 10
815.0747068274814
 20
607.9960935980009
 30
0.0
 10
815.0986326087253
 20
607.9960935980009
 30
0.0
 10
815.0986326087253
 20
607.9960935980009
 30
0.0
 10
815.2666013586834
 20
608.8833006290291
 30
0.0
 10
815.4941404211264
 20
609.7832029725541
 30
0.0
 10
815.7460935460634
 20
610.7905271910523
 30
0.0
 10
815.7460935460634
 20
610.7905271910523
 30
0.0
 10
816.8134763582966
 20
614.8681639087829
 30
0.0
 10
816.8134763582966
 20
614.8681639087829
 30
0.0
 10
816.8134763582966
 20
614.8681639087829
 30
0.0
 10
817.8808591705298
 20
614.8681639087829
 30
0.0
 10
817.8808591705298
 20
614.8681639087829
 30
0.0
 10
817.8808591705298
 20
614.8681639087829
 30
0.0
 10
815.5903318273524
 20
606.7846678170538
 30
0.0
 10
815.5903318273524
 20
606.7846678170538
 30
0.0
 10
815.5903318273524
 20
606.7846678170538
 30
0.0
 10
814.4990232338753
 20
606.7846678170538
 30
0.0
 10
814.4990232338753
 20
606.7846678170538
 30
0.0
 10
814.4990232338753
 20
606.7846678170538
 30
0.0
 10
813.4794919841302
 20
610.9941404722515
 30
0.0
 10
813.4794919841302
 20
610.9941404722515
 30
0.0
 10
813.2275388591931
 20
612.0258787532435
 30
0.0
 10
813.0595701092351
 20
612.8173826592956
 30
0.0
 10
812.951659953012
 20
613.6328123465918
 30
0.0
 10
812.951659953012
 20
613.6328123465918
 30
0.0
 10
812.9277341717681
 20
613.6328123465918
 30
0.0
 10
812.9277341717681
 20
613.6328123465918
 30
0.0
 10
812.7836912030541
 20
612.8295896905425
 30
0.0
 10
812.604003703099
 20
612.0375975032406
 30
0.0
 10
812.3041990156739
 20
610.9941404722515
 30
0.0
 10
812.3041990156739
 20
610.9941404722515
 30
0.0
 10
811.1528318284618
 20
606.7846678170538
 30
0.0
 10
811.1528318284618
 20
606.7846678170538
 30
0.0
 10
811.1528318284618
 20
606.7846678170538
 30
0.0
 10
810.0615232349846
 20
606.7846678170538
 30
0.0
 10
810.0615232349846
 20
606.7846678170538
 30
0.0
  0
HATCH
  5
A4
330
9F
100
AcDbEntity
  8
0
 62
   240
420
 15539236
100
AcDbHatch
 10
0.0
 20
0.0
 30
0.0
210
0.0
220
0.0
230
1.0
  2
SOLID
 70
     1
 71
     0
 91
        1
 92
        1
 93
        1
 72
     4
 94
        3
 73
     0
 74
     1
 95
       71
 96
       67
 40
0.0
 40
0.0
 40
0.0
 40
0.0
 40
1.0
 40
1.0
 40
1.0
 40
2.0
 40
2.0
 40
2.0
 40
3.0
 40
3.0
 40
3.0
 40
4.0
 40
4.0
 40
4.0
 40
5.0
 40
5.0
 40
5.0
 40
6.0
 40
6.0
 40
6.0
 40
7.0
 40
7.0
 40
7.0
 40
8.0
 40
8.0
 40
8.0
 40
9.0
 40
9.0
 40
9.0
 40
10.0
 40
10.0
 40
10.0
 40
11.0
 40
11.0
 40
11.0
 40
12.0
 40
12.0
 40
12.0
 40
13.0
 40
13.0
 40
13.0
 40
14.0
 40
14.0
 40
14.0
 40
15.0
 40
15.0
 40
15.0
 40
16.0
 40
16.0
 40
16.0
 40
17.0
 40
17.0
 40
17.0
 40
18.0
 40
18.0
 40
18.0
 40
19.0
 40
19.0
 40
19.0
 40
20.0
 40
20.0
 40
20.0
 40
21.0
 40
21.0
 40
21.0
 40
22.0
 40
22.0
 40
22.0
 40
22.0
 10
810.0615232349846
 20
606.7846678170538
 10
810.0615232349846
 20
606.7846678170538
 10
808.0102537042475
 20
614.8681639087829
 10
808.0102537042475
 20
614.8681639087829
 10
808.0102537042475
 20
614.8681639087829
 10
809.1137693289716
 20
614.8681639087829
 10
809.1137693289716
 20
614.8681639087829
 10
809.1137693289716
 20
614.8681639087829
 10
810.0732419849817
 20
610.7783201598054
 10
810.0732419849817
 20
610.7783201598054
 10
810.3129880786718
 20
609.7709959413072
 10
810.5292966723676
 20
608.763671722809
 10
810.6728513598317
 20
607.983886566754
 10
810.6728513598317
 20
607.983886566754
 10
810.6967771410758
 20
607.983886566754
 10
810.6967771410758
 20
607.983886566754
 10
810.8291013597927
 20
608.7875975040531
 10
811.0805662034799
 20
609.7470701600632
 10
811.3564451096609
 20
610.7905271910523
 10
811.3564451096609
 20
610.7905271910523
 10
812.436034953141
 20
614.8681639087829
 10
812.436034953141
 20
614.8681639087829
 10
812.436034953141
 20
614.8681639087829
 10
813.5273435466181
 20
614.8681639087829
 10
813.5273435466181
 20
614.8681639087829
 10
813.5273435466181
 20
614.8681639087829
 10
814.5107419838723
 20
610.7666014098083
 10
814.5107419838723
 20
610.7666014098083
 10
814.7387693275653
 20
609.8071287537982
 10
814.9545896400114
 20
608.8476560977881
 10
815.0747068274814
 20
607.9960935980009
 10
815.0747068274814
 20
607.9960935980009
 10
815.0986326087253
 20
607.9960935980009
 10
815.0986326087253
 20
607.9960935980009
 10
815.2666013586834
 20
608.8833006290291
 10
815.4941404211264
 20
609.7832029725541
 10
815.7460935460634
 20
610.7905271910523
 10
815.7460935460634
 20
610.7905271910523
 10
816.8134763582966
 20
614.8681639087829
 10
816.8134763582966
 20
614.8681639087829
 10
816.8134763582966
 20
614.8681639087829
 10
817.8808591705298
 20
614.8681639087829
 10
817.8808591705298
 20
614.8681639087829
 10
817.8808591705298
 20
614.8681639087829
 10
815.5903318273524
 20
606.7846678170538
 10
815.5903318273524
 20
606.7846678170538
 10
815.5903318273524
 20
606.7846678170538
 10
814.4990232338753
 20
606.7846678170538
 10
814.4990232338753
 20
606.7846678170538
 10
814.4990232338753
 20
606.7846678170538
 10
813.4794919841302
 20
610.9941404722515
 10
813.4794919841302
 20
610.9941404722515
 10
813.2275388591931
 20
612.0258787532435
 10
813.0595701092351
 20
612.8173826592956
 10
812.951659953012
 20
613.6328123465918
 10
812.951659953012
 20
613.6328123465918
 10
812.9277341717681
 20
613.6328123465918
 10
812.9277341717681
 20
613.6328123465918
 10
812.7836912030541
 20
612.8295896905425
 10
812.604003703099
 20
612.0375975032406
 10
812.3041990156739
 20
610.9941404722515
 10
812.3041990156739
 20
610.9941404722515
 10
811.1528318284618
 20
606.7846678170538
 10
811.1528318284618
 20
606.7846678170538
 10
811.1528318284618
 20
606.7846678170538
 10
810.0615232349846
 20
606.7846678170538
 10
810.0615232349846
 20
606.7846678170538
 97
        0
 97
        0
 75
     2
 76
     1
 98
        0
  0
SPLINE
  5
A5
330
9F
100
AcDbEntity
  8
0
 62
   240
420
 15539236
370
    35
100
AcDbSpline
210
0.0
220
0.0
230
1.0
 70
    11
 71
     3
 72
    47
 73
    43
 74
     0
 42
0.0000000001
 43
0.0000000001
 12
1.0
 22
0.0
 32
0.0
 13
1.0
 23
0.0
 33
0.0
 40
0.0
 40
0.0
 40
0.0
 40
0.0
 40
1.0
 40
1.0
 40
1.0
 40
2.0
 40
2.0
 40
2.0
 40
3.0
 40
3.0
 40
3.0
 40
4.0
 40
4.0
 40
4.0
 40
5.0
 40
5.0
 40
5.0
 40
6.0
 40
6.0
 40
6.0
 40
7.0
 40
7.0
 40
7.0
 40
8.0
 40
8.0
 40
8.0
 40
9.0
 40
9.0
 40
9.0
 40
10.0
 40
10.0
 40
10.0
 40
11.0
 40
11.0
 40
11.0
 40
12.0
 40
12.0
 40
12.0
 40
13.0
 40
13.0
 40
13.0
 40
14.0
 40
14.0
 40
14.0
 40
14.0
 10
818.8940427640265
 20
614.8681639087829
 30
0.0
 10
818.8940427640265
 20
614.8681639087829
 30
0.0
 10
819.9374997950156
 20
614.8681639087829
 30
0.0
 10
819.9374997950156
 20
614.8681639087829
 30
0.0
 10
819.9374997950156
 20
614.8681639087829
 30
0.0
 10
819.9374997950156
 20
610.9702146910074
 30
0.0
 10
819.9374997950156
 20
610.9702146910074
 30
0.0
 10
819.9374997950156
 20
610.9702146910074
 30
0.0
 10
819.9731443262567
 20
610.9702146910074
 30
0.0
 10
819.9731443262567
 20
610.9702146910074
 30
0.0
 10
820.1889646387027
 20
611.2822264096794
 30
0.0
 10
820.4052732323987
 20
611.5698240658576
 30
0.0
 10
820.6088865135978
 20
611.8339842220415
 30
0.0
 10
820.6088865135978
 20
611.8339842220415
 30
0.0
 10
823.0795896379801
 20
614.8681639087829
 30
0.0
 10
823.0795896379801
 20
614.8681639087829
 30
0.0
 10
823.0795896379801
 20
614.8681639087829
 30
0.0
 10
824.3749997939062
 20
614.8681639087829
 30
0.0
 10
824.3749997939062
 20
614.8681639087829
 30
0.0
 10
824.3749997939062
 20
614.8681639087829
 30
0.0
 10
821.4487302633878
 20
611.4379881283905
 30
0.0
 10
821.4487302633878
 20
611.4379881283905
 30
0.0
 10
821.4487302633878
 20
611.4379881283905
 30
0.0
 10
824.6030271375993
 20
606.7846678170538
 30
0.0
 10
824.6030271375993
 20
606.7846678170538
 30
0.0
 10
824.6030271375993
 20
606.7846678170538
 30
0.0
 10
823.367675575408
 20
606.7846678170538
 30
0.0
 10
823.367675575408
 20
606.7846678170538
 30
0.0
 10
823.367675575408
 20
606.7846678170538
 30
0.0
 10
820.7050779198237
 20
610.7543943785614
 30
0.0
 10
820.7050779198237
 20
610.7543943785614
 30
0.0
 10
820.7050779198237
 20
610.7543943785614
 30
0.0
 10
819.9374997950156
 20
609.8671873475332
 30
0.0
 10
819.9374997950156
 20
609.8671873475332
 30
0.0
 10
819.9374997950156
 20
609.8671873475332
 30
0.0
 10
819.9374997950156
 20
606.7846678170538
 30
0.0
 10
819.9374997950156
 20
606.7846678170538
 30
0.0
 10
819.9374997950156
 20
606.7846678170538
 30
0.0
 10
818.8940427640265
 20
606.7846678170538
 30
0.0
 10
818.8940427640265
 20
606.7846678170538
 30
0.0
 10
818.8940427640265
 20
606.7846678170538
 30
0.0
 10
818.8940427640265
 20
614.8681639087829
 30
0.0
 10
818.8940427640265
 20
614.8681639087829
 30
0.0
  0
HATCH
  5
A6
330
9F
100
AcDbEntity
  8
0
 62
   240
420
 15539236
100
AcDbHatch
 10
0.0
 20
0.0
 30
0.0
210
0.0
220
0.0
230
1.0
  2
SOLID
 70
     1
 71
     0
 91
        1
 92
        1
 93
        1
 72
     4
 94
        3
 73
     0
 74
     1
 95
       47
 96
       43
 40
0.0
 40
0.0
 40
0.0
 40
0.0
 40
1.0
 40
1.0
 40
1.0
 40
2.0
 40
2.0
 40
2.0
 40
3.0
 40
3.0
 40
3.0
 40
4.0
 40
4.0
 40
4.0
 40
5.0
 40
5.0
 40
5.0
 40
6.0
 40
6.0
 40
6.0
 40
7.0
 40
7.0
 40
7.0
 40
8.0
 40
8.0
 40
8.0
 40
9.0
 40
9.0
 40
9.0
 40
10.0
 40
10.0
 40
10.0
 40
11.0
 40
11.0
 40
11.0
 40
12.0
 40
12.0
 40
12.0
 40
13.0
 40
13.0
 40
13.0
 40
14.0
 40
14.0
 40
14.0
 40
14.0
 10
818.8940427640265
 20
614.8681639087829
 10
818.8940427640265
 20
614.8681639087829
 10
819.9374997950156
 20
614.8681639087829
 10
819.9374997950156
 20
614.8681639087829
 10
819.9374997950156
 20
614.8681639087829
 10
819.9374997950156
 20
610.9702146910074
 10
819.9374997950156
 20
610.9702146910074
 10
819.9374997950156
 20
610.9702146910074
 10
819.9731443262567
 20
610.9702146910074
 10
819.9731443262567
 20
610.9702146910074
 10
820.1889646387027
 20
611.2822264096794
 10
820.4052732323987
 20
611.5698240658576
 10
820.6088865135978
 20
611.8339842220415
 10
820.6088865135978
 20
611.8339842220415
 10
823.0795896379801
 20
614.8681639087829
 10
823.0795896379801
 20
614.8681639087829
 10
823.0795896379801
 20
614.8681639087829
 10
824.3749997939062
 20
614.8681639087829
 10
824.3749997939062
 20
614.8681639087829
 10
824.3749997939062
 20
614.8681639087829
 10
821.4487302633878
 20
611.4379881283905
 10
821.4487302633878
 20
611.4379881283905
 10
821.4487302633878
 20
611.4379881283905
 10
824.6030271375993
 20
606.7846678170538
 10
824.6030271375993
 20
606.7846678170538
 10
824.6030271375993
 20
606.7846678170538
 10
823.367675575408
 20
606.7846678170538
 10
823.367675575408
 20
606.7846678170538
 10
823.367675575408
 20
606.7846678170538
 10
820.7050779198237
 20
610.7543943785614
 10
820.7050779198237
 20
610.7543943785614
 10
820.7050779198237
 20
610.7543943785614
 10
819.9374997950156
 20
609.8671873475332
 10
819.9374997950156
 20
609.8671873475332
 10
819.9374997950156
 20
609.8671873475332
 10
819.9374997950156
 20
606.7846678170538
 10
819.9374997950156
 20
606.7846678170538
 10
819.9374997950156
 20
606.7846678170538
 10
818.8940427640265
 20
606.7846678170538
 10
818.8940427640265
 20
606.7846678170538
 10
818.8940427640265
 20
606.7846678170538
 10
818.8940427640265
 20
614.8681639087829
 10
818.8940427640265
 20
614.8681639087829
 97
        0
 97
        0
 75
     2
 76
     1
 98
        0
  0
POLYLINE
  5
A7
330
9F
100
AcDbEntity
  8
0
 62
   240
420
 15539236
370
    35
100
AcDb2dPolyline
 66
     1
 10
0.0
 20
0.0
 30
0.0
  0
VERTEX
  5
A8
330
A7
100
AcDbEntity
  8
0
 62
   240
420
 15539236
370
    35
100
AcDbVertex
100
AcDb2dVertex
 10
825.3979490124005
 20
614.8681639087829
 30
0.0
  0
VERTEX
  5
A9
330
A7
100
AcDbEntity
  8
0
 62
   240
420
 15539236
370
    35
100
AcDbVertex
100
AcDb2dVertex
 10
826.4414060433896
 20
614.8681639087829
 30
0.0
  0
VERTEX
  5
AA
330
A7
100
AcDbEntity
  8
0
 62
   240
420
 15539236
370
    35
100
AcDbVertex
100
AcDb2dVertex
 10
826.4414060433896
 20
607.6601560980849
 30
0.0
  0
VERTEX
  5
AB
330
A7
100
AcDbEntity
  8
0
 62
   240
420
 15539236
370
    35
100
AcDbVertex
100
AcDb2dVertex
 10
829.8955076050261
 20
607.6601560980849
 30
0.0
  0
VERTEX
  5
AC
330
A7
100
AcDbEntity
  8
0
 62
   240
420
 15539236
370
    35
100
AcDbVertex
100
AcDb2dVertex
 10
829.8955076050261
 20
606.7846678170538
 30
0.0
  0
VERTEX
  5
AD
330
A7
100
AcDbEntity
  8
0
 62
   240
420
 15539236
370
    35
100
AcDbVertex
100
AcDb2dVertex
 10
825.3979490124005
 20
606.7846678170538
 30
0.0
  0
VERTEX
  5
AE
330
A7
100
AcDbEntity
  8
0
 62
   240
420
 15539236
370
    35
100
AcDbVertex
100
AcDb2dVertex
 10
825.3979490124005
 20
614.8681639087829
 30
0.0
  0
SEQEND
  5
AF
330
A7
100
AcDbEntity
  8
0
 62
   240
420
 15539236
370
    35
  0
HATCH
  5
B0
330
9F
100
AcDbEntity
  8
0
 62
   240
420
 15539236
100
AcDbHatch
 10
0.0
 20
0.0
 30
0.0
210
0.0
220
0.0
230
1.0
  2
SOLID
 70
     1
 71
     0
 91
        1
 92
        1
 93
        6
 72
     1
 10
825.3979490124005
 20
614.8681639087829
 11
826.4414060433896
 21
614.8681639087829
 72
     1
 10
826.4414060433896
 20
614.8681639087829
 11
826.4414060433896
 21
607.6601560980849
 72
     1
 10
826.4414060433896
 20
607.6601560980849
 11
829.8955076050261
 21
607.6601560980849
 72
     1
 10
829.8955076050261
 20
607.6601560980849
 11
829.8955076050261
 21
606.7846678170538
 72
     1
 10
829.8955076050261
 20
606.7846678170538
 11
825.3979490124005
 21
606.7846678170538
 72
     1
 10
825.3979490124005
 20
606.7846678170538
 11
825.3979490124005
 21
614.8681639087829
 97
        0
 75
     2
 76
     1
 98
        0
  0
POLYLINE
  5
B1
330
9F
100
AcDbEntity
  8
0
 62
   240
420
 15539236
370
    35
100
AcDb2dPolyline
 66
     1
 10
0.0
 20
0.0
 30
0.0
  0
VERTEX
  5
B2
330
B1
100
AcDbEntity
  8
0
 62
   240
420
 15539236
370
    35
100
AcDbVertex
100
AcDb2dVertex
 10
833.6054685415986
 20
614.8681639087829
 30
0.0
  0
VERTEX
  5
B3
330
B1
100
AcDbEntity
  8
0
 62
   240
420
 15539236
370
    35
100
AcDbVertex
100
AcDb2dVertex
 10
834.6489255725877
 20
614.8681639087829
 30
0.0
  0
VERTEX
  5
B4
330
B1
100
AcDbEntity
  8
0
 62
   240
420
 15539236
370
    35
100
AcDbVertex
100
AcDb2dVertex
 10
834.6489255725877
 20
607.6601560980849
 30
0.0
  0
VERTEX
  5
B5
330
B1
100
AcDbEntity
  8
0
 62
   240
420
 15539236
370
    35
100
AcDbVertex
100
AcDb2dVertex
 10
838.1030271342242
 20
607.6601560980849
 30
0.0
  0
VERTEX
  5
B6
330
B1
100
AcDbEntity
  8
0
 62
   240
420
 15539236
370
    35
100
AcDbVertex
100
AcDb2dVertex
 10
838.1030271342242
 20
606.7846678170538
 30
0.0
  0
VERTEX
  5
B7
330
B1
100
AcDbEntity
  8
0
 62
   240
420
 15539236
370
    35
100
AcDbVertex
100
AcDb2dVertex
 10
833.6054685415986
 20
606.7846678170538
 30
0.0
  0
VERTEX
  5
B8
330
B1
100
AcDbEntity
  8
0
 62
   240
420
 15539236
370
    35
100
AcDbVertex
100
AcDb2dVertex
 10
833.6054685415986
 20
614.8681639087829
 30
0.0
  0
SEQEND
  5
B9
330
B1
100
AcDbEntity
  8
0
 62
   240
420
 15539236
370
    35
  0
HATCH
  5
BA
330
9F
100
AcDbEntity
  8
0
 62
   240
420
 15539236
100
AcDbHatch
 10
0.0
 20
0.0
 30
0.0
210
0.0
220
0.0
230
1.0
  2
SOLID
 70
     1
 71
     0
 91
        1
 92
        1
 93
        6
 72
     1
 10
833.6054685415986
 20
614.8681639087829
 11
834.6489255725877
 21
614.8681639087829
 72
     1
 10
834.6489255725877
 20
614.8681639087829
 11
834.6489255725877
 21
607.6601560980849
 72
     1
 10
834.6489255725877
 20
607.6601560980849
 11
838.1030271342242
 21
607.6601560980849
 72
     1
 10
838.1030271342242
 20
607.6601560980849
 11
838.1030271342242
 21
606.7846678170538
 72
     1
 10
838.1030271342242
 20
606.7846678170538
 11
833.6054685415986
 21
606.7846678170538
 72
     1
 10
833.6054685415986
 20
606.7846678170538
 11
833.6054685415986
 21
614.8681639087829
 97
        0
 75
     2
 76
     1
 98
        0
  0
POLYLINE
  5
BB
330
9F
100
AcDbEntity
  8
0
 62
   240
420
 15539236
370
    35
100
AcDb2dPolyline
 66
     1
 10
0.0
 20
0.0
 30
0.0
  0
VERTEX
  5
BC
330
BB
100
AcDbEntity
  8
0
 62
   240
420
 15539236
370
    35
100
AcDbVertex
100
AcDb2dVertex
 10
841.1884763522029
 20
613.5971678153506
 30
0.0
  0
VERTEX
  5
BD
330
BB
100
AcDbEntity
  8
0
 62
   240
420
 15539236
370
    35
100
AcDbVertex
100
AcDb2dVertex
 10
841.1645505709588
 20
613.5971678153506
 30
0.0
  0
VERTEX
  5
BE
330
BB
100
AcDbEntity
  8
0
 62
   240
420
 15539236
370
    35
100
AcDbVertex
100
AcDb2dVertex
 10
839.8090818212977
 20
612.8652342217837
 30
0.0
  0
VERTEX
  5
BF
330
BB
100
AcDbEntity
  8
0
 62
   240
420
 15539236
370
    35
100
AcDbVertex
100
AcDb2dVertex
 10
839.6049802588487
 20
613.6689451590828
 30
0.0
  0
VERTEX
  5
C0
330
BB
100
AcDbEntity
  8
0
 62
   240
420
 15539236
370
    35
100
AcDbVertex
100
AcDb2dVertex
 10
841.308105258423
 20
614.5805662526049
 30
0.0
  0
VERTEX
  5
C1
330
BB
100
AcDbEntity
  8
0
 62
   240
420
 15539236
370
    35
100
AcDbVertex
100
AcDb2dVertex
 10
842.208007601948
 20
614.5805662526049
 30
0.0
  0
VERTEX
  5
C2
330
BB
100
AcDbEntity
  8
0
 62
   240
420
 15539236
370
    35
100
AcDbVertex
100
AcDb2dVertex
 10
842.208007601948
 20
606.7846678170538
 30
0.0
  0
VERTEX
  5
C3
330
BB
100
AcDbEntity
  8
0
 62
   240
420
 15539236
370
    35
100
AcDbVertex
100
AcDb2dVertex
 10
841.1884763522029
 20
606.7846678170538
 30
0.0
  0
VERTEX
  5
C4
330
BB
100
AcDbEntity
  8
0
 62
   240
420
 15539236
370
    35
100
AcDbVertex
100
AcDb2dVertex
 10
841.1884763522029
 20
613.5971678153506
 30
0.0
  0
SEQEND
  5
C5
330
BB
100
AcDbEntity
  8
0
 62
   240
420
 15539236
370
    35
  0
HATCH
  5
C6
330
9F
100
AcDbEntity
  8
0
 62
   240
420
 15539236
100
AcDbHatch
 10
0.0
 20
0.0
 30
0.0
210
0.0
220
0.0
230
1.0
  2
SOLID
 70
     1
 71
     0
 91
        1
 92
        1
 93
        8
 72
     1
 10
841.1884763522029
 20
613.5971678153506
 11
841.1645505709588
 21
613.5971678153506
 72
     1
 10
841.1645505709588
 20
613.5971678153506
 11
839.8090818212977
 21
612.8652342217837
 72
     1
 10
839.8090818212977
 20
612.8652342217837
 11
839.6049802588487
 21
613.6689451590828
 72
     1
 10
839.6049802588487
 20
613.6689451590828
 11
841.308105258423
 21
614.5805662526049
 72
     1
 10
841.308105258423
 20
614.5805662526049
 11
842.208007601948
 21
614.5805662526049
 72
     1
 10
842.208007601948
 20
614.5805662526049
 11
842.208007601948
 21
606.7846678170538
 72
     1
 10
842.208007601948
 20
606.7846678170538
 11
841.1884763522029
 21
606.7846678170538
 72
     1
 10
841.1884763522029
 20
606.7846678170538
 11
841.1884763522029
 21
613.5971678153506
 97
        0
 75
     2
 76
     1
 98
        0
  0
SPLINE
  5
C7
330
9F
100
AcDbEntity
  8
0
 62
   240
420
 15539236
370
    35
100
AcDbSpline
210
0.0
220
0.0
230
1.0
 70
    11
 71
     3
 72
    47
 73
    43
 74
     0
 42
0.0000000001
 43
0.0000000001
 12
1.0
 22
0.0
 32
0.0
 13
1.0
 23
0.0
 33
0.0
 40
0.0
 40
0.0
 40
0.0
 40
0.0
 40
1.0
 40
1.0
 40
1.0
 40
2.0
 40
2.0
 40
2.0
 40
3.0
 40
3.0
 40
3.0
 40
4.0
 40
4.0
 40
4.0
 40
5.0
 40
5.0
 40
5.0
 40
6.0
 40
6.0
 40
6.0
 40
7.0
 40
7.0
 40
7.0
 40
8.0
 40
8.0
 40
8.0
 40
9.0
 40
9.0
 40
9.0
 40
10.0
 40
10.0
 40
10.0
 40
11.0
 40
11.0
 40
11.0
 40
12.0
 40
12.0
 40
12.0
 40
13.0
 40
13.0
 40
13.0
 40
14.0
 40
14.0
 40
14.0
 40
14.0
 10
847.8251951005437
 20
608.0561521917359
 30
0.0
 10
848.2929685379268
 20
607.768066254308
 30
0.0
 10
848.9765622877559
 20
607.5283201606179
 30
0.0
 10
849.6962888500759
 20
607.5283201606179
 30
0.0
 10
850.7636716623091
 20
607.5283201606179
 30
0.0
 10
851.3872068184032
 20
608.091796722977
 30
0.0
 10
851.3872068184032
 20
608.9077146915231
 30
0.0
 10
851.3872068184032
 20
609.6630857850843
 30
0.0
 10
850.9555661935111
 20
610.0947264099763
 30
0.0
 10
849.864257600034
 20
610.5146482848713
 30
0.0
 10
848.5449216628638
 20
610.9824217222543
 30
0.0
 10
847.7290036943177
 20
611.6660154720835
 30
0.0
 10
847.7290036943177
 20
612.8051756280487
 30
0.0
 10
847.7290036943177
 20
614.0644529714839
 30
0.0
 10
848.7724607253068
 20
614.99999984625
 30
0.0
 10
850.343749787414
 20
614.99999984625
 30
0.0
 10
851.1713865059571
 20
614.99999984625
 30
0.0
 10
851.7709958808073
 20
614.808105315048
 30
0.0
 10
852.1303708807174
 20
614.6044920338488
 30
0.0
 10
852.1303708807174
 20
614.6044920338488
 30
0.0
 10
851.8432615057892
 20
613.7529295340618
 30
0.0
 10
851.8432615057892
 20
613.7529295340618
 30
0.0
 10
851.5795896308551
 20
613.8969725027757
 30
0.0
 10
851.0395505684901
 20
614.1367185964658
 30
0.0
 10
850.3076169749231
 20
614.1367185964658
 30
0.0
 10
849.2045896314488
 20
614.1367185964658
 30
0.0
 10
848.7846677565539
 20
613.4770506278808
 30
0.0
 10
848.7846677565539
 20
612.9252928155187
 30
0.0
 10
848.7846677565539
 20
612.1699217219575
 30
0.0
 10
849.2763669751808
 20
611.7978514095505
 30
0.0
 10
850.3916013499021
 20
611.3662107846584
 30
0.0
 10
851.7592771308101
 20
610.8383787535404
 30
0.0
 10
852.4545896306363
 20
610.1787107849553
 30
0.0
 10
852.4545896306363
 20
608.9916990665021
 30
0.0
 10
852.4545896306363
 20
607.7441404730639
 30
0.0
 10
851.5307615058673
 20
606.6645506295838
 30
0.0
 10
849.624023225094
 20
606.6645506295838
 30
0.0
 10
848.8447263502889
 20
606.6645506295838
 30
0.0
 10
847.9931638505017
 20
606.8925779732768
 30
0.0
 10
847.5615232256096
 20
607.1806639107048
 30
0.0
 10
847.5615232256096
 20
607.1806639107048
 30
0.0
 10
847.8251951005437
 20
608.0561521917359
 30
0.0
 10
847.8251951005437
 20
608.0561521917359
 30
0.0
  0
HATCH
  5
C8
330
9F
100
AcDbEntity
  8
0
 62
   240
420
 15539236
100
AcDbHatch
 10
0.0
 20
0.0
 30
0.0
210
0.0
220
0.0
230
1.0
  2
SOLID
 70
     1
 71
     0
 91
        1
 92
        1
 93
        1
 72
     4
 94
        3
 73
     0
 74
     1
 95
       47
 96
       43
 40
0.0
 40
0.0
 40
0.0
 40
0.0
 40
1.0
 40
1.0
 40
1.0
 40
2.0
 40
2.0
 40
2.0
 40
3.0
 40
3.0
 40
3.0
 40
4.0
 40
4.0
 40
4.0
 40
5.0
 40
5.0
 40
5.0
 40
6.0
 40
6.0
 40
6.0
 40
7.0
 40
7.0
 40
7.0
 40
8.0
 40
8.0
 40
8.0
 40
9.0
 40
9.0
 40
9.0
 40
10.0
 40
10.0
 40
10.0
 40
11.0
 40
11.0
 40
11.0
 40
12.0
 40
12.0
 40
12.0
 40
13.0
 40
13.0
 40
13.0
 40
14.0
 40
14.0
 40
14.0
 40
14.0
 10
847.8251951005437
 20
608.0561521917359
 10
848.2929685379268
 20
607.768066254308
 10
848.9765622877559
 20
607.5283201606179
 10
849.6962888500759
 20
607.5283201606179
 10
850.7636716623091
 20
607.5283201606179
 10
851.3872068184032
 20
608.091796722977
 10
851.3872068184032
 20
608.9077146915231
 10
851.3872068184032
 20
609.6630857850843
 10
850.9555661935111
 20
610.0947264099763
 10
849.864257600034
 20
610.5146482848713
 10
848.5449216628638
 20
610.9824217222543
 10
847.7290036943177
 20
611.6660154720835
 10
847.7290036943177
 20
612.8051756280487
 10
847.7290036943177
 20
614.0644529714839
 10
848.7724607253068
 20
614.99999984625
 10
850.343749787414
 20
614.99999984625
 10
851.1713865059571
 20
614.99999984625
 10
851.7709958808073
 20
614.808105315048
 10
852.1303708807174
 20
614.6044920338488
 10
852.1303708807174
 20
614.6044920338488
 10
851.8432615057892
 20
613.7529295340618
 10
851.8432615057892
 20
613.7529295340618
 10
851.5795896308551
 20
613.8969725027757
 10
851.0395505684901
 20
614.1367185964658
 10
850.3076169749231
 20
614.1367185964658
 10
849.2045896314488
 20
614.1367185964658
 10
848.7846677565539
 20
613.4770506278808
 10
848.7846677565539
 20
612.9252928155187
 10
848.7846677565539
 20
612.1699217219575
 10
849.2763669751808
 20
611.7978514095505
 10
850.3916013499021
 20
611.3662107846584
 10
851.7592771308101
 20
610.8383787535404
 10
852.4545896306363
 20
610.1787107849553
 10
852.4545896306363
 20
608.9916990665021
 10
852.4545896306363
 20
607.7441404730639
 10
851.5307615058673
 20
606.6645506295838
 10
849.624023225094
 20
606.6645506295838
 10
848.8447263502889
 20
606.6645506295838
 10
847.9931638505017
 20
606.8925779732768
 10
847.5615232256096
 20
607.1806639107048
 10
847.5615232256096
 20
607.1806639107048
 10
847.8251951005437
 20
608.0561521917359
 10
847.8251951005437
 20
608.0561521917359
 97
        0
 97
        0
 75
     2
 76
     1
 98
        0
  0
SPLINE
  5
C9
330
9F
100
AcDbEntity
  8
0
 62
   240
420
 15539236
370
    35
100
AcDbSpline
210
0.0
220
0.0
230
1.0
 70
    11
 71
     3
 72
    56
 73
    52
 74
     0
 42
0.0000000001
 43
0.0000000001
 12
1.0
 22
0.0
 32
0.0
 13
1.0
 23
0.0
 33
0.0
 40
0.0
 40
0.0
 40
0.0
 40
0.0
 40
1.0
 40
1.0
 40
1.0
 40
2.0
 40
2.0
 40
2.0
 40
3.0
 40
3.0
 40
3.0
 40
4.0
 40
4.0
 40
4.0
 40
5.0
 40
5.0
 40
5.0
 40
6.0
 40
6.0
 40
6.0
 40
7.0
 40
7.0
 40
7.0
 40
8.0
 40
8.0
 40
8.0
 40
9.0
 40
9.0
 40
9.0
 40
10.0
 40
10.0
 40
10.0
 40
11.0
 40
11.0
 40
11.0
 40
12.0
 40
12.0
 40
12.0
 40
13.0
 40
13.0
 40
13.0
 40
14.0
 40
14.0
 40
14.0
 40
15.0
 40
15.0
 40
15.0
 40
16.0
 40
16.0
 40
16.0
 40
17.0
 40
17.0
 40
17.0
 40
17.0
 10
855.0844724424788
 20
614.2563475026859
 30
0.0
 10
855.0844724424788
 20
614.2563475026859
 30
0.0
 10
855.0844724424788
 20
612.5893553156027
 30
0.0
 10
855.0844724424788
 20
612.5893553156027
 30
0.0
 10
855.0844724424788
 20
612.5893553156027
 30
0.0
 10
856.596191192101
 20
612.5893553156027
 30
0.0
 10
856.596191192101
 20
612.5893553156027
 30
0.0
 10
856.596191192101
 20
612.5893553156027
 30
0.0
 10
856.596191192101
 20
611.7861326595535
 30
0.0
 10
856.596191192101
 20
611.7861326595535
 30
0.0
 10
856.596191192101
 20
611.7861326595535
 30
0.0
 10
855.0844724424788
 20
611.7861326595535
 30
0.0
 10
855.0844724424788
 20
611.7861326595535
 30
0.0
 10
855.0844724424788
 20
611.7861326595535
 30
0.0
 10
855.0844724424788
 20
608.6557615665861
 30
0.0
 10
855.0844724424788
 20
608.6557615665861
 30
0.0
 10
855.0844724424788
 20
607.9360350042659
 30
0.0
 10
855.2885740049278
 20
607.5283201606179
 30
0.0
 10
855.8764646297809
 20
607.5283201606179
 30
0.0
 10
856.151855254712
 20
607.5283201606179
 30
0.0
 10
856.355956817161
 20
607.5644529731089
 30
0.0
 10
856.487792754628
 20
607.60009750435
 30
0.0
 10
856.487792754628
 20
607.60009750435
 30
0.0
 10
856.5356443171161
 20
606.8085935982979
 30
0.0
 10
856.5356443171161
 20
606.8085935982979
 30
0.0
 10
856.3325193171669
 20
606.7246092233188
 30
0.0
 10
856.0083005672479
 20
606.6645506295838
 30
0.0
 10
855.6000974423499
 20
606.6645506295838
 30
0.0
 10
855.1088865049728
 20
606.6645506295838
 30
0.0
 10
854.7133786925716
 20
606.8208006295448
 30
0.0
 10
854.4614255676346
 20
607.1083982857228
 30
0.0
 10
854.1616208802096
 20
607.4204100043949
 30
0.0
 10
854.0532224427367
 20
607.9360350042659
 30
0.0
 10
854.0532224427367
 20
608.6196287540951
 30
0.0
 10
854.0532224427367
 20
608.6196287540951
 30
0.0
 10
854.0532224427367
 20
611.7861326595535
 30
0.0
 10
854.0532224427367
 20
611.7861326595535
 30
0.0
 10
854.0532224427367
 20
611.7861326595535
 30
0.0
 10
853.1538083804616
 20
611.7861326595535
 30
0.0
 10
853.1538083804616
 20
611.7861326595535
 30
0.0
 10
853.1538083804616
 20
611.7861326595535
 30
0.0
 10
853.1538083804616
 20
612.5893553156027
 30
0.0
 10
853.1538083804616
 20
612.5893553156027
 30
0.0
 10
853.1538083804616
 20
612.5893553156027
 30
0.0
 10
854.0532224427367
 20
612.5893553156027
 30
0.0
 10
854.0532224427367
 20
612.5893553156027
 30
0.0
 10
854.0532224427367
 20
612.5893553156027
 30
0.0
 10
854.0532224427367
 20
613.9809568777547
 30
0.0
 10
854.0532224427367
 20
613.9809568777547
 30
0.0
 10
854.0532224427367
 20
613.9809568777547
 30
0.0
 10
855.0844724424788
 20
614.2563475026859
 30
0.0
 10
855.0844724424788
 20
614.2563475026859
 30
0.0
  0
HATCH
  5
CA
330
9F
100
AcDbEntity
  8
0
 62
   240
420
 15539236
100
AcDbHatch
 10
0.0
 20
0.0
 30
0.0
210
0.0
220
0.0
230
1.0
  2
SOLID
 70
     1
 71
     0
 91
        1
 92
        1
 93
        1
 72
     4
 94
        3
 73
     0
 74
     1
 95
       56
 96
       52
 40
0.0
 40
0.0
 40
0.0
 40
0.0
 40
1.0
 40
1.0
 40
1.0
 40
2.0
 40
2.0
 40
2.0
 40
3.0
 40
3.0
 40
3.0
 40
4.0
 40
4.0
 40
4.0
 40
5.0
 40
5.0
 40
5.0
 40
6.0
 40
6.0
 40
6.0
 40
7.0
 40
7.0
 40
7.0
 40
8.0
 40
8.0
 40
8.0
 40
9.0
 40
9.0
 40
9.0
 40
10.0
 40
10.0
 40
10.0
 40
11.0
 40
11.0
 40
11.0
 40
12.0
 40
12.0
 40
12.0
 40
13.0
 40
13.0
 40
13.0
 40
14.0
 40
14.0
 40
14.0
 40
15.0
 40
15.0
 40
15.0
 40
16.0
 40
16.0
 40
16.0
 40
17.0
 40
17.0
 40
17.0
 40
17.0
 10
855.0844724424788
 20
614.2563475026859
 10
855.0844724424788
 20
614.2563475026859
 10
855.0844724424788
 20
612.5893553156027
 10
855.0844724424788
 20
612.5893553156027
 10
855.0844724424788
 20
612.5893553156027
 10
856.596191192101
 20
612.5893553156027
 10
856.596191192101
 20
612.5893553156027
 10
856.596191192101
 20
612.5893553156027
 10
856.596191192101
 20
611.7861326595535
 10
856.596191192101
 20
611.7861326595535
 10
856.596191192101
 20
611.7861326595535
 10
855.0844724424788
 20
611.7861326595535
 10
855.0844724424788
 20
611.7861326595535
 10
855.0844724424788
 20
611.7861326595535
 10
855.0844724424788
 20
608.6557615665861
 10
855.0844724424788
 20
608.6557615665861
 10
855.0844724424788
 20
607.9360350042659
 10
855.2885740049278
 20
607.5283201606179
 10
855.8764646297809
 20
607.5283201606179
 10
856.151855254712
 20
607.5283201606179
 10
856.355956817161
 20
607.5644529731089
 10
856.487792754628
 20
607.60009750435
 10
856.487792754628
 20
607.60009750435
 10
856.5356443171161
 20
606.8085935982979
 10
856.5356443171161
 20
606.8085935982979
 10
856.3325193171669
 20
606.7246092233188
 10
856.0083005672479
 20
606.6645506295838
 10
855.6000974423499
 20
606.6645506295838
 10
855.1088865049728
 20
606.6645506295838
 10
854.7133786925716
 20
606.8208006295448
 10
854.4614255676346
 20
607.1083982857228
 10
854.1616208802096
 20
607.4204100043949
 10
854.0532224427367
 20
607.9360350042659
 10
854.0532224427367
 20
608.6196287540951
 10
854.0532224427367
 20
608.6196287540951
 10
854.0532224427367
 20
611.7861326595535
 10
854.0532224427367
 20
611.7861326595535
 10
854.0532224427367
 20
611.7861326595535
 10
853.1538083804616
 20
611.7861326595535
 10
853.1538083804616
 20
611.7861326595535
 10
853.1538083804616
 20
611.7861326595535
 10
853.1538083804616
 20
612.5893553156027
 10
853.1538083804616
 20
612.5893553156027
 10
853.1538083804616
 20
612.5893553156027
 10
854.0532224427367
 20
612.5893553156027
 10
854.0532224427367
 20
612.5893553156027
 10
854.0532224427367
 20
612.5893553156027
 10
854.0532224427367
 20
613.9809568777547
 10
854.0532224427367
 20
613.9809568777547
 10
854.0532224427367
 20
613.9809568777547
 10
855.0844724424788
 20
614.2563475026859
 10
855.0844724424788
 20
614.2563475026859
 97
        0
 97
        0
 75
     2
 76
     1
 98
        0
  0
SPLINE
  5
CB
330
9F
100
AcDbEntity
  8
0
 62
   240
420
 15539236
370
    35
100
AcDbSpline
210
0.0
220
0.0
230
1.0
 70
    11
 71
     3
 72
    32
 73
    28
 74
     0
 42
0.0000000001
 43
0.0000000001
 12
1.0
 22
0.0
 32
0.0
 13
1.0
 23
0.0
 33
0.0
 40
0.0
 40
0.0
 40
0.0
 40
0.0
 40
1.0
 40
1.0
 40
1.0
 40
2.0
 40
2.0
 40
2.0
 40
3.0
 40
3.0
 40
3.0
 40
4.0
 40
4.0
 40
4.0
 40
5.0
 40
5.0
 40
5.0
 40
6.0
 40
6.0
 40
6.0
 40
7.0
 40
7.0
 40
7.0
 40
8.0
 40
8.0
 40
8.0
 40
9.0
 40
9.0
 40
9.0
 40
9.0
 10
858.300292754175
 20
609.4951170351262
 30
0.0
 10
858.3247068166688
 20
608.067870941733
 30
0.0
 10
859.235839628941
 20
607.4804685981298
 30
0.0
 10
860.2915036911771
 20
607.4804685981298
 30
0.0
 10
861.0473630659882
 20
607.4804685981298
 30
0.0
 10
861.5024411908744
 20
607.6123045355969
 30
0.0
 10
861.8989255657752
 20
607.7802732855549
 30
0.0
 10
861.8989255657752
 20
607.7802732855549
 30
0.0
 10
862.0786130657303
 20
607.0244139107439
 30
0.0
 10
862.0786130657303
 20
607.0244139107439
 30
0.0
 10
861.7065427533233
 20
606.8564451607858
 30
0.0
 10
861.0708005659823
 20
606.6645506295838
 30
0.0
 10
860.1479490037129
 20
606.6645506295838
 30
0.0
 10
858.3608396291597
 20
606.6645506295838
 30
0.0
 10
857.2934568169267
 20
607.8403318792899
 30
0.0
 10
857.2934568169267
 20
609.5913084413521
 30
0.0
 10
857.2934568169267
 20
611.3422850034144
 30
0.0
 10
858.3247068166688
 20
612.7211912530697
 30
0.0
 10
860.0161130662459
 20
612.7211912530697
 30
0.0
 10
861.9106443157723
 20
612.7211912530697
 30
0.0
 10
862.4145505656463
 20
611.0541990659864
 30
0.0
 10
862.4145505656463
 20
609.9868162537533
 30
0.0
 10
862.4145505656463
 20
609.7709959413072
 30
0.0
 10
862.3901365031525
 20
609.6030271913493
 30
0.0
 10
862.3784177531554
 20
609.4951170351262
 30
0.0
 10
862.3784177531554
 20
609.4951170351262
 30
0.0
 10
858.300292754175
 20
609.4951170351262
 30
0.0
 10
858.300292754175
 20
609.4951170351262
 30
0.0
  0
SPLINE
  5
CC
330
9F
100
AcDbEntity
  8
0
 62
   240
420
 15539236
370
    35
100
AcDbSpline
210
0.0
220
0.0
230
1.0
 70
    11
 71
     3
 72
    14
 73
    10
 74
     0
 42
0.0000000001
 43
0.0000000001
 12
1.0
 22
0.0
 32
0.0
 13
1.0
 23
0.0
 33
0.0
 40
0.0
 40
0.0
 40
0.0
 40
0.0
 40
1.0
 40
1.0
 40
1.0
 40
2.0
 40
2.0
 40
2.0
 40
3.0
 40
3.0
 40
3.0
 40
3.0
 10
861.3950193159012
 20
610.2509764099373
 30
0.0
 10
861.4067380658983
 20
610.9223631285194
 30
0.0
 10
861.1186521284703
 20
611.9658201595086
 30
0.0
 10
859.9321286912669
 20
611.9658201595086
 30
0.0
 10
858.8647458790338
 20
611.9658201595086
 30
0.0
 10
858.3969724416507
 20
610.9824217222543
 30
0.0
 10
858.3129880666718
 20
610.2509764099373
 30
0.0
 10
858.3129880666718
 20
610.2509764099373
 30
0.0
 10
861.3950193159012
 20
610.2509764099373
 30
0.0
 10
861.3950193159012
 20
610.2509764099373
 30
0.0
  0
HATCH
  5
CD
330
9F
100
AcDbEntity
  8
0
 62
   240
420
 15539236
100
AcDbHatch
 10
0.0
 20
0.0
 30
0.0
210
0.0
220
0.0
230
1.0
  2
SOLID
 70
     1
 71
     0
 91
        2
 92
        1
 93
        1
 72
     4
 94
        3
 73
     0
 74
     1
 95
       32
 96
       28
 40
0.0
 40
0.0
 40
0.0
 40
0.0
 40
1.0
 40
1.0
 40
1.0
 40
2.0
 40
2.0
 40
2.0
 40
3.0
 40
3.0
 40
3.0
 40
4.0
 40
4.0
 40
4.0
 40
5.0
 40
5.0
 40
5.0
 40
6.0
 40
6.0
 40
6.0
 40
7.0
 40
7.0
 40
7.0
 40
8.0
 40
8.0
 40
8.0
 40
9.0
 40
9.0
 40
9.0
 40
9.0
 10
858.300292754175
 20
609.4951170351262
 10
858.3247068166688
 20
608.067870941733
 10
859.235839628941
 20
607.4804685981298
 10
860.2915036911771
 20
607.4804685981298
 10
861.0473630659882
 20
607.4804685981298
 10
861.5024411908744
 20
607.6123045355969
 10
861.8989255657752
 20
607.7802732855549
 10
861.8989255657752
 20
607.7802732855549
 10
862.0786130657303
 20
607.0244139107439
 10
862.0786130657303
 20
607.0244139107439
 10
861.7065427533233
 20
606.8564451607858
 10
861.0708005659823
 20
606.6645506295838
 10
860.1479490037129
 20
606.6645506295838
 10
858.3608396291597
 20
606.6645506295838
 10
857.2934568169267
 20
607.8403318792899
 10
857.2934568169267
 20
609.5913084413521
 10
857.2934568169267
 20
611.3422850034144
 10
858.3247068166688
 20
612.7211912530697
 10
860.0161130662459
 20
612.7211912530697
 10
861.9106443157723
 20
612.7211912530697
 10
862.4145505656463
 20
611.0541990659864
 10
862.4145505656463
 20
609.9868162537533
 10
862.4145505656463
 20
609.7709959413072
 10
862.3901365031525
 20
609.6030271913493
 10
862.3784177531554
 20
609.4951170351262
 10
862.3784177531554
 20
609.4951170351262
 10
858.300292754175
 20
609.4951170351262
 10
858.300292754175
 20
609.4951170351262
 97
        0
 97
        0
 92
        1
 93
        1
 72
     4
 94
        3
 73
     0
 74
     1
 95
       14
 96
       10
 40
0.0
 40
0.0
 40
0.0
 40
0.0
 40
1.0
 40
1.0
 40
1.0
 40
2.0
 40
2.0
 40
2.0
 40
3.0
 40
3.0
 40
3.0
 40
3.0
 10
861.3950193159012
 20
610.2509764099373
 10
861.4067380658983
 20
610.9223631285194
 10
861.1186521284703
 20
611.9658201595086
 10
859.9321286912669
 20
611.9658201595086
 10
858.8647458790338
 20
611.9658201595086
 10
858.3969724416507
 20
610.9824217222543
 10
858.3129880666718
 20
610.2509764099373
 10
858.3129880666718
 20
610.2509764099373
 10
861.3950193159012
 20
610.2509764099373
 10
861.3950193159012
 20
610.2509764099373
 97
        0
 97
        0
 75
     2
 76
     1
 98
        0
  0
SPLINE
  5
CE
330
9F
100
AcDbEntity
  8
0
 62
   240
420
 15539236
370
    35
100
AcDbSpline
210
0.0
220
0.0
230
1.0
 70
    11
 71
     3
 72
    41
 73
    37
 74
     0
 42
0.0000000001
 43
0.0000000001
 12
1.0
 22
0.0
 32
0.0
 13
1.0
 23
0.0
 33
0.0
 40
0.0
 40
0.0
 40
0.0
 40
0.0
 40
1.0
 40
1.0
 40
1.0
 40
2.0
 40
2.0
 40
2.0
 40
3.0
 40
3.0
 40
3.0
 40
4.0
 40
4.0
 40
4.0
 40
5.0
 40
5.0
 40
5.0
 40
6.0
 40
6.0
 40
6.0
 40
7.0
 40
7.0
 40
7.0
 40
8.0
 40
8.0
 40
8.0
 40
9.0
 40
9.0
 40
9.0
 40
10.0
 40
10.0
 40
10.0
 40
11.0
 40
11.0
 40
11.0
 40
12.0
 40
12.0
 40
12.0
 40
12.0
 10
863.7250974403187
 20
610.6943357848264
 30
0.0
 10
863.7250974403187
 20
611.4379881283905
 30
0.0
 10
863.7006833778248
 20
612.0375975032406
 30
0.0
 10
863.676269315331
 20
612.5893553156027
 30
0.0
 10
863.676269315331
 20
612.5893553156027
 30
0.0
 10
864.6245115025938
 20
612.5893553156027
 30
0.0
 10
864.6245115025938
 20
612.5893553156027
 30
0.0
 10
864.6245115025938
 20
612.5893553156027
 30
0.0
 10
864.6723630650819
 20
611.5942381283514
 30
0.0
 10
864.6723630650819
 20
611.5942381283514
 30
0.0
 10
864.6723630650819
 20
611.5942381283514
 30
0.0
 10
864.6958005650761
 20
611.5942381283514
 30
0.0
 10
864.6958005650761
 20
611.5942381283514
 30
0.0
 10
865.1274411899681
 20
612.3017576594245
 30
0.0
 10
865.8110349397972
 20
612.7211912530697
 30
0.0
 10
866.7592771270602
 20
612.7211912530697
 30
0.0
 10
868.1625974392093
 20
612.7211912530697
 30
0.0
 10
869.2172849389457
 20
611.5341795346164
 30
0.0
 10
869.2172849389457
 20
609.7709959413072
 30
0.0
 10
869.2172849389457
 20
607.6840818793289
 30
0.0
 10
867.9467771267633
 20
606.6528318795868
 30
0.0
 10
866.5786130646053
 20
606.6528318795868
 30
0.0
 10
865.8110349397972
 20
606.6528318795868
 30
0.0
 10
865.140136502465
 20
606.9887693795027
 30
0.0
 10
864.7924802525519
 20
607.5644529731089
 30
0.0
 10
864.7924802525519
 20
607.5644529731089
 30
0.0
 10
864.768066190058
 20
607.5644529731089
 30
0.0
 10
864.768066190058
 20
607.5644529731089
 30
0.0
 10
864.768066190058
 20
607.5644529731089
 30
0.0
 10
864.768066190058
 20
604.4101560988975
 30
0.0
 10
864.768066190058
 20
604.4101560988975
 30
0.0
 10
864.768066190058
 20
604.4101560988975
 30
0.0
 10
863.7250974403187
 20
604.4101560988975
 30
0.0
 10
863.7250974403187
 20
604.4101560988975
 30
0.0
 10
863.7250974403187
 20
604.4101560988975
 30
0.0
 10
863.7250974403187
 20
610.6943357848264
 30
0.0
 10
863.7250974403187
 20
610.6943357848264
 30
0.0
  0
SPLINE
  5
CF
330
9F
100
AcDbEntity
  8
0
 62
   240
420
 15539236
370
    35
100
AcDbSpline
210
0.0
220
0.0
230
1.0
 70
    11
 71
     3
 72
    26
 73
    22
 74
     0
 42
0.0000000001
 43
0.0000000001
 12
1.0
 22
0.0
 32
0.0
 13
1.0
 23
0.0
 33
0.0
 40
0.0
 40
0.0
 40
0.0
 40
0.0
 40
1.0
 40
1.0
 40
1.0
 40
2.0
 40
2.0
 40
2.0
 40
3.0
 40
3.0
 40
3.0
 40
4.0
 40
4.0
 40
4.0
 40
5.0
 40
5.0
 40
5.0
 40
6.0
 40
6.0
 40
6.0
 40
7.0
 40
7.0
 40
7.0
 40
7.0
 10
864.768066190058
 20
609.1474607852131
 30
0.0
 10
864.768066190058
 20
608.9916990665021
 30
0.0
 10
864.7924802525519
 20
608.8476560977881
 30
0.0
 10
864.815917752546
 20
608.7158201603211
 30
0.0
 10
865.0083005649979
 20
607.983886566754
 30
0.0
 10
865.6440427523389
 20
607.4804685981298
 30
0.0
 10
866.3989255646502
 20
607.4804685981298
 30
0.0
 10
867.5141599393714
 20
607.4804685981298
 30
0.0
 10
868.1625974392093
 20
608.3916014104021
 30
0.0
 10
868.1625974392093
 20
609.7231443788193
 30
0.0
 10
868.1625974392093
 20
610.8862303160284
 30
0.0
 10
867.5502927518625
 20
611.8818357845296
 30
0.0
 10
866.4350583771412
 20
611.8818357845296
 30
0.0
 10
865.7153318148212
 20
611.8818357845296
 30
0.0
 10
865.0434568149891
 20
611.3662107846584
 30
0.0
 10
864.8403318150399
 20
610.5747068786063
 30
0.0
 10
864.8041990025489
 20
610.4428709411393
 30
0.0
 10
864.768066190058
 20
610.2866209411783
 30
0.0
 10
864.768066190058
 20
610.1430662537142
 30
0.0
 10
864.768066190058
 20
610.1430662537142
 30
0.0
 10
864.768066190058
 20
609.1474607852131
 30
0.0
 10
864.768066190058
 20
609.1474607852131
 30
0.0
  0
HATCH
  5
D0
330
9F
100
AcDbEntity
  8
0
 62
   240
420
 15539236
100
AcDbHatch
 10
0.0
 20
0.0
 30
0.0
210
0.0
220
0.0
230
1.0
  2
SOLID
 70
     1
 71
     0
 91
        2
 92
        1
 93
        1
 72
     4
 94
        3
 73
     0
 74
     1
 95
       41
 96
       37
 40
0.0
 40
0.0
 40
0.0
 40
0.0
 40
1.0
 40
1.0
 40
1.0
 40
2.0
 40
2.0
 40
2.0
 40
3.0
 40
3.0
 40
3.0
 40
4.0
 40
4.0
 40
4.0
 40
5.0
 40
5.0
 40
5.0
 40
6.0
 40
6.0
 40
6.0
 40
7.0
 40
7.0
 40
7.0
 40
8.0
 40
8.0
 40
8.0
 40
9.0
 40
9.0
 40
9.0
 40
10.0
 40
10.0
 40
10.0
 40
11.0
 40
11.0
 40
11.0
 40
12.0
 40
12.0
 40
12.0
 40
12.0
 10
863.7250974403187
 20
610.6943357848264
 10
863.7250974403187
 20
611.4379881283905
 10
863.7006833778248
 20
612.0375975032406
 10
863.676269315331
 20
612.5893553156027
 10
863.676269315331
 20
612.5893553156027
 10
864.6245115025938
 20
612.5893553156027
 10
864.6245115025938
 20
612.5893553156027
 10
864.6245115025938
 20
612.5893553156027
 10
864.6723630650819
 20
611.5942381283514
 10
864.6723630650819
 20
611.5942381283514
 10
864.6723630650819
 20
611.5942381283514
 10
864.6958005650761
 20
611.5942381283514
 10
864.6958005650761
 20
611.5942381283514
 10
865.1274411899681
 20
612.3017576594245
 10
865.8110349397972
 20
612.7211912530697
 10
866.7592771270602
 20
612.7211912530697
 10
868.1625974392093
 20
612.7211912530697
 10
869.2172849389457
 20
611.5341795346164
 10
869.2172849389457
 20
609.7709959413072
 10
869.2172849389457
 20
607.6840818793289
 10
867.9467771267633
 20
606.6528318795868
 10
866.5786130646053
 20
606.6528318795868
 10
865.8110349397972
 20
606.6528318795868
 10
865.140136502465
 20
606.9887693795027
 10
864.7924802525519
 20
607.5644529731089
 10
864.7924802525519
 20
607.5644529731089
 10
864.768066190058
 20
607.5644529731089
 10
864.768066190058
 20
607.5644529731089
 10
864.768066190058
 20
607.5644529731089
 10
864.768066190058
 20
604.4101560988975
 10
864.768066190058
 20
604.4101560988975
 10
864.768066190058
 20
604.4101560988975
 10
863.7250974403187
 20
604.4101560988975
 10
863.7250974403187
 20
604.4101560988975
 10
863.7250974403187
 20
604.4101560988975
 10
863.7250974403187
 20
610.6943357848264
 10
863.7250974403187
 20
610.6943357848264
 97
        0
 97
        0
 92
        1
 93
        1
 72
     4
 94
        3
 73
     0
 74
     1
 95
       26
 96
       22
 40
0.0
 40
0.0
 40
0.0
 40
0.0
 40
1.0
 40
1.0
 40
1.0
 40
2.0
 40
2.0
 40
2.0
 40
3.0
 40
3.0
 40
3.0
 40
4.0
 40
4.0
 40
4.0
 40
5.0
 40
5.0
 40
5.0
 40
6.0
 40
6.0
 40
6.0
 40
7.0
 40
7.0
 40
7.0
 40
7.0
 10
864.768066190058
 20
609.1474607852131
 10
864.768066190058
 20
608.9916990665021
 10
864.7924802525519
 20
608.8476560977881
 10
864.815917752546
 20
608.7158201603211
 10
865.0083005649979
 20
607.983886566754
 10
865.6440427523389
 20
607.4804685981298
 10
866.3989255646502
 20
607.4804685981298
 10
867.5141599393714
 20
607.4804685981298
 10
868.1625974392093
 20
608.3916014104021
 10
868.1625974392093
 20
609.7231443788193
 10
868.1625974392093
 20
610.8862303160284
 10
867.5502927518625
 20
611.8818357845296
 10
866.4350583771412
 20
611.8818357845296
 10
865.7153318148212
 20
611.8818357845296
 10
865.0434568149891
 20
611.3662107846584
 10
864.8403318150399
 20
610.5747068786063
 10
864.8041990025489
 20
610.4428709411393
 10
864.768066190058
 20
610.2866209411783
 10
864.768066190058
 20
610.1430662537142
 10
864.768066190058
 20
610.1430662537142
 10
864.768066190058
 20
609.1474607852131
 10
864.768066190058
 20
609.1474607852131
 97
        0
 97
        0
 75
     2
 76
     1
 98
        0
  0
SPLINE
  5
D1
330
9F
100
AcDbEntity
  8
0
 62
   240
420
 15539236
370
    35
100
AcDbSpline
210
0.0
220
0.0
230
1.0
 70
    11
 71
     3
 72
    41
 73
    37
 74
     0
 42
0.0000000001
 43
0.0000000001
 12
1.0
 22
0.0
 32
0.0
 13
1.0
 23
0.0
 33
0.0
 40
0.0
 40
0.0
 40
0.0
 40
0.0
 40
1.0
 40
1.0
 40
1.0
 40
2.0
 40
2.0
 40
2.0
 40
3.0
 40
3.0
 40
3.0
 40
4.0
 40
4.0
 40
4.0
 40
5.0
 40
5.0
 40
5.0
 40
6.0
 40
6.0
 40
6.0
 40
7.0
 40
7.0
 40
7.0
 40
8.0
 40
8.0
 40
8.0
 40
9.0
 40
9.0
 40
9.0
 40
10.0
 40
10.0
 40
10.0
 40
11.0
 40
11.0
 40
11.0
 40
12.0
 40
12.0
 40
12.0
 40
12.0
 10
870.5532224386117
 20
610.6943357848264
 30
0.0
 10
870.5532224386117
 20
611.4379881283905
 30
0.0
 10
870.5288083761178
 20
612.0375975032406
 30
0.0
 10
870.5043943136238
 20
612.5893553156027
 30
0.0
 10
870.5043943136238
 20
612.5893553156027
 30
0.0
 10
871.4526365008868
 20
612.5893553156027
 30
0.0
 10
871.4526365008868
 20
612.5893553156027
 30
0.0
 10
871.4526365008868
 20
612.5893553156027
 30
0.0
 10
871.5004880633749
 20
611.5942381283514
 30
0.0
 10
871.5004880633749
 20
611.5942381283514
 30
0.0
 10
871.5004880633749
 20
611.5942381283514
 30
0.0
 10
871.523925563369
 20
611.5942381283514
 30
0.0
 10
871.523925563369
 20
611.5942381283514
 30
0.0
 10
871.9555661882611
 20
612.3017576594245
 30
0.0
 10
872.6391599380902
 20
612.7211912530697
 30
0.0
 10
873.5874021253532
 20
612.7211912530697
 30
0.0
 10
874.9907224375023
 20
612.7211912530697
 30
0.0
 10
876.0454099372387
 20
611.5341795346164
 30
0.0
 10
876.0454099372387
 20
609.7709959413072
 30
0.0
 10
876.0454099372387
 20
607.6840818793289
 30
0.0
 10
874.7749021250562
 20
606.6528318795868
 30
0.0
 10
873.4067380628983
 20
606.6528318795868
 30
0.0
 10
872.6391599380902
 20
606.6528318795868
 30
0.0
 10
871.9682615007579
 20
606.9887693795027
 30
0.0
 10
871.6206052508448
 20
607.5644529731089
 30
0.0
 10
871.6206052508448
 20
607.5644529731089
 30
0.0
 10
871.596191188351
 20
607.5644529731089
 30
0.0
 10
871.596191188351
 20
607.5644529731089
 30
0.0
 10
871.596191188351
 20
607.5644529731089
 30
0.0
 10
871.596191188351
 20
604.4101560988975
 30
0.0
 10
871.596191188351
 20
604.4101560988975
 30
0.0
 10
871.596191188351
 20
604.4101560988975
 30
0.0
 10
870.5532224386117
 20
604.4101560988975
 30
0.0
 10
870.5532224386117
 20
604.4101560988975
 30
0.0
 10
870.5532224386117
 20
604.4101560988975
 30
0.0
 10
870.5532224386117
 20
610.6943357848264
 30
0.0
 10
870.5532224386117
 20
610.6943357848264
 30
0.0
  0
SPLINE
  5
D2
330
9F
100
AcDbEntity
  8
0
 62
   240
420
 15539236
370
    35
100
AcDbSpline
210
0.0
220
0.0
230
1.0
 70
    11
 71
     3
 72
    26
 73
    22
 74
     0
 42
0.0000000001
 43
0.0000000001
 12
1.0
 22
0.0
 32
0.0
 13
1.0
 23
0.0
 33
0.0
 40
0.0
 40
0.0
 40
0.0
 40
0.0
 40
1.0
 40
1.0
 40
1.0
 40
2.0
 40
2.0
 40
2.0
 40
3.0
 40
3.0
 40
3.0
 40
4.0
 40
4.0
 40
4.0
 40
5.0
 40
5.0
 40
5.0
 40
6.0
 40
6.0
 40
6.0
 40
7.0
 40
7.0
 40
7.0
 40
7.0
 10
871.596191188351
 20
609.1474607852131
 30
0.0
 10
871.596191188351
 20
608.9916990665021
 30
0.0
 10
871.6206052508448
 20
608.8476560977881
 30
0.0
 10
871.6440427508389
 20
608.7158201603211
 30
0.0
 10
871.8364255632908
 20
607.983886566754
 30
0.0
 10
872.4721677506319
 20
607.4804685981298
 30
0.0
 10
873.2270505629432
 20
607.4804685981298
 30
0.0
 10
874.3422849376644
 20
607.4804685981298
 30
0.0
 10
874.9907224375023
 20
608.3916014104021
 30
0.0
 10
874.9907224375023
 20
609.7231443788193
 30
0.0
 10
874.9907224375023
 20
610.8862303160284
 30
0.0
 10
874.3784177501553
 20
611.8818357845296
 30
0.0
 10
873.2631833754342
 20
611.8818357845296
 30
0.0
 10
872.5434568131141
 20
611.8818357845296
 30
0.0
 10
871.8715818132821
 20
611.3662107846584
 30
0.0
 10
871.6684568133329
 20
610.5747068786063
 30
0.0
 10
871.6323240008419
 20
610.4428709411393
 30
0.0
 10
871.596191188351
 20
610.2866209411783
 30
0.0
 10
871.596191188351
 20
610.1430662537142
 30
0.0
 10
871.596191188351
 20
610.1430662537142
 30
0.0
 10
871.596191188351
 20
609.1474607852131
 30
0.0
 10
871.596191188351
 20
609.1474607852131
 30
0.0
  0
HATCH
  5
D3
330
9F
100
AcDbEntity
  8
0
 62
   240
420
 15539236
100
AcDbHatch
 10
0.0
 20
0.0
 30
0.0
210
0.0
220
0.0
230
1.0
  2
SOLID
 70
     1
 71
     0
 91
        2
 92
        1
 93
        1
 72
     4
 94
        3
 73
     0
 74
     1
 95
       41
 96
       37
 40
0.0
 40
0.0
 40
0.0
 40
0.0
 40
1.0
 40
1.0
 40
1.0
 40
2.0
 40
2.0
 40
2.0
 40
3.0
 40
3.0
 40
3.0
 40
4.0
 40
4.0
 40
4.0
 40
5.0
 40
5.0
 40
5.0
 40
6.0
 40
6.0
 40
6.0
 40
7.0
 40
7.0
 40
7.0
 40
8.0
 40
8.0
 40
8.0
 40
9.0
 40
9.0
 40
9.0
 40
10.0
 40
10.0
 40
10.0
 40
11.0
 40
11.0
 40
11.0
 40
12.0
 40
12.0
 40
12.0
 40
12.0
 10
870.5532224386117
 20
610.6943357848264
 10
870.5532224386117
 20
611.4379881283905
 10
870.5288083761178
 20
612.0375975032406
 10
870.5043943136238
 20
612.5893553156027
 10
870.5043943136238
 20
612.5893553156027
 10
871.4526365008868
 20
612.5893553156027
 10
871.4526365008868
 20
612.5893553156027
 10
871.4526365008868
 20
612.5893553156027
 10
871.5004880633749
 20
611.5942381283514
 10
871.5004880633749
 20
611.5942381283514
 10
871.5004880633749
 20
611.5942381283514
 10
871.523925563369
 20
611.5942381283514
 10
871.523925563369
 20
611.5942381283514
 10
871.9555661882611
 20
612.3017576594245
 10
872.6391599380902
 20
612.7211912530697
 10
873.5874021253532
 20
612.7211912530697
 10
874.9907224375023
 20
612.7211912530697
 10
876.0454099372387
 20
611.5341795346164
 10
876.0454099372387
 20
609.7709959413072
 10
876.0454099372387
 20
607.6840818793289
 10
874.7749021250562
 20
606.6528318795868
 10
873.4067380628983
 20
606.6528318795868
 10
872.6391599380902
 20
606.6528318795868
 10
871.9682615007579
 20
606.9887693795027
 10
871.6206052508448
 20
607.5644529731089
 10
871.6206052508448
 20
607.5644529731089
 10
871.596191188351
 20
607.5644529731089
 10
871.596191188351
 20
607.5644529731089
 10
871.596191188351
 20
607.5644529731089
 10
871.596191188351
 20
604.4101560988975
 10
871.596191188351
 20
604.4101560988975
 10
871.596191188351
 20
604.4101560988975
 10
870.5532224386117
 20
604.4101560988975
 10
870.5532224386117
 20
604.4101560988975
 10
870.5532224386117
 20
604.4101560988975
 10
870.5532224386117
 20
610.6943357848264
 10
870.5532224386117
 20
610.6943357848264
 97
        0
 97
        0
 92
        1
 93
        1
 72
     4
 94
        3
 73
     0
 74
     1
 95
       26
 96
       22
 40
0.0
 40
0.0
 40
0.0
 40
0.0
 40
1.0
 40
1.0
 40
1.0
 40
2.0
 40
2.0
 40
2.0
 40
3.0
 40
3.0
 40
3.0
 40
4.0
 40
4.0
 40
4.0
 40
5.0
 40
5.0
 40
5.0
 40
6.0
 40
6.0
 40
6.0
 40
7.0
 40
7.0
 40
7.0
 40
7.0
 10
871.596191188351
 20
609.1474607852131
 10
871.596191188351
 20
608.9916990665021
 10
871.6206052508448
 20
608.8476560977881
 10
871.6440427508389
 20
608.7158201603211
 10
871.8364255632908
 20
607.983886566754
 10
872.4721677506319
 20
607.4804685981298
 10
873.2270505629432
 20
607.4804685981298
 10
874.3422849376644
 20
607.4804685981298
 10
874.9907224375023
 20
608.3916014104021
 10
874.9907224375023
 20
609.7231443788193
 10
874.9907224375023
 20
610.8862303160284
 10
874.3784177501553
 20
611.8818357845296
 10
873.2631833754342
 20
611.8818357845296
 10
872.5434568131141
 20
611.8818357845296
 10
871.8715818132821
 20
611.3662107846584
 10
871.6684568133329
 20
610.5747068786063
 10
871.6323240008419
 20
610.4428709411393
 10
871.596191188351
 20
610.2866209411783
 10
871.596191188351
 20
610.1430662537142
 10
871.596191188351
 20
610.1430662537142
 10
871.596191188351
 20
609.1474607852131
 10
871.596191188351
 20
609.1474607852131
 97
        0
 97
        0
 75
     2
 76
     1
 98
        0
  0
SPLINE
  5
D4
330
9F
100
AcDbEntity
  8
0
 62
   240
420
 15539236
370
    35
100
AcDbSpline
210
0.0
220
0.0
230
1.0
 70
    11
 71
     3
 72
    32
 73
    28
 74
     0
 42
0.0000000001
 43
0.0000000001
 12
1.0
 22
0.0
 32
0.0
 13
1.0
 23
0.0
 33
0.0
 40
0.0
 40
0.0
 40
0.0
 40
0.0
 40
1.0
 40
1.0
 40
1.0
 40
2.0
 40
2.0
 40
2.0
 40
3.0
 40
3.0
 40
3.0
 40
4.0
 40
4.0
 40
4.0
 40
5.0
 40
5.0
 40
5.0
 40
6.0
 40
6.0
 40
6.0
 40
7.0
 40
7.0
 40
7.0
 40
8.0
 40
8.0
 40
8.0
 40
9.0
 40
9.0
 40
9.0
 40
9.0
 10
877.9682614992579
 20
609.4951170351262
 30
0.0
 10
877.9926755617519
 20
608.067870941733
 30
0.0
 10
878.903808374024
 20
607.4804685981298
 30
0.0
 10
879.9594724362601
 20
607.4804685981298
 30
0.0
 10
880.7153318110711
 20
607.4804685981298
 30
0.0
 10
881.1704099359574
 20
607.6123045355969
 30
0.0
 10
881.5668943108583
 20
607.7802732855549
 30
0.0
 10
881.5668943108583
 20
607.7802732855549
 30
0.0
 10
881.7465818108134
 20
607.0244139107439
 30
0.0
 10
881.7465818108134
 20
607.0244139107439
 30
0.0
 10
881.3745114984064
 20
606.8564451607858
 30
0.0
 10
880.7387693110653
 20
606.6645506295838
 30
0.0
 10
879.815917748796
 20
606.6645506295838
 30
0.0
 10
878.0288083742428
 20
606.6645506295838
 30
0.0
 10
876.9614255620096
 20
607.8403318792899
 30
0.0
 10
876.9614255620096
 20
609.5913084413521
 30
0.0
 10
876.9614255620096
 20
611.3422850034144
 30
0.0
 10
877.9926755617519
 20
612.7211912530697
 30
0.0
 10
879.684081811329
 20
612.7211912530697
 30
0.0
 10
881.5786130608553
 20
612.7211912530697
 30
0.0
 10
882.0825193107294
 20
611.0541990659864
 30
0.0
 10
882.0825193107294
 20
609.9868162537533
 30
0.0
 10
882.0825193107294
 20
609.7709959413072
 30
0.0
 10
882.0581052482355
 20
609.6030271913493
 30
0.0
 10
882.0463864982383
 20
609.4951170351262
 30
0.0
 10
882.0463864982383
 20
609.4951170351262
 30
0.0
 10
877.9682614992579
 20
609.4951170351262
 30
0.0
 10
877.9682614992579
 20
609.4951170351262
 30
0.0
  0
SPLINE
  5
D5
330
9F
100
AcDbEntity
  8
0
 62
   240
420
 15539236
370
    35
100
AcDbSpline
210
0.0
220
0.0
230
1.0
 70
    11
 71
     3
 72
    14
 73
    10
 74
     0
 42
0.0000000001
 43
0.0000000001
 12
1.0
 22
0.0
 32
0.0
 13
1.0
 23
0.0
 33
0.0
 40
0.0
 40
0.0
 40
0.0
 40
0.0
 40
1.0
 40
1.0
 40
1.0
 40
2.0
 40
2.0
 40
2.0
 40
3.0
 40
3.0
 40
3.0
 40
3.0
 10
881.0629880609843
 20
610.2509764099373
 30
0.0
 10
881.0747068109813
 20
610.9223631285194
 30
0.0
 10
880.7866208735534
 20
611.9658201595086
 30
0.0
 10
879.60009743635
 20
611.9658201595086
 30
0.0
 10
878.5327146241168
 20
611.9658201595086
 30
0.0
 10
878.0649411867338
 20
610.9824217222543
 30
0.0
 10
877.9809568117547
 20
610.2509764099373
 30
0.0
 10
877.9809568117547
 20
610.2509764099373
 30
0.0
 10
881.0629880609843
 20
610.2509764099373
 30
0.0
 10
881.0629880609843
 20
610.2509764099373
 30
0.0
  0
HATCH
  5
D6
330
9F
100
AcDbEntity
  8
0
 62
   240
420
 15539236
100
AcDbHatch
 10
0.0
 20
0.0
 30
0.0
210
0.0
220
0.0
230
1.0
  2
SOLID
 70
     1
 71
     0
 91
        2
 92
        1
 93
        1
 72
     4
 94
        3
 73
     0
 74
     1
 95
       32
 96
       28
 40
0.0
 40
0.0
 40
0.0
 40
0.0
 40
1.0
 40
1.0
 40
1.0
 40
2.0
 40
2.0
 40
2.0
 40
3.0
 40
3.0
 40
3.0
 40
4.0
 40
4.0
 40
4.0
 40
5.0
 40
5.0
 40
5.0
 40
6.0
 40
6.0
 40
6.0
 40
7.0
 40
7.0
 40
7.0
 40
8.0
 40
8.0
 40
8.0
 40
9.0
 40
9.0
 40
9.0
 40
9.0
 10
877.9682614992579
 20
609.4951170351262
 10
877.9926755617519
 20
608.067870941733
 10
878.903808374024
 20
607.4804685981298
 10
879.9594724362601
 20
607.4804685981298
 10
880.7153318110711
 20
607.4804685981298
 10
881.1704099359574
 20
607.6123045355969
 10
881.5668943108583
 20
607.7802732855549
 10
881.5668943108583
 20
607.7802732855549
 10
881.7465818108134
 20
607.0244139107439
 10
881.7465818108134
 20
607.0244139107439
 10
881.3745114984064
 20
606.8564451607858
 10
880.7387693110653
 20
606.6645506295838
 10
879.815917748796
 20
606.6645506295838
 10
878.0288083742428
 20
606.6645506295838
 10
876.9614255620096
 20
607.8403318792899
 10
876.9614255620096
 20
609.5913084413521
 10
876.9614255620096
 20
611.3422850034144
 10
877.9926755617519
 20
612.7211912530697
 10
879.684081811329
 20
612.7211912530697
 10
881.5786130608553
 20
612.7211912530697
 10
882.0825193107294
 20
611.0541990659864
 10
882.0825193107294
 20
609.9868162537533
 10
882.0825193107294
 20
609.7709959413072
 10
882.0581052482355
 20
609.6030271913493
 10
882.0463864982383
 20
609.4951170351262
 10
882.0463864982383
 20
609.4951170351262
 10
877.9682614992579
 20
609.4951170351262
 10
877.9682614992579
 20
609.4951170351262
 97
        0
 97
        0
 92
        1
 93
        1
 72
     4
 94
        3
 73
     0
 74
     1
 95
       14
 96
       10
 40
0.0
 40
0.0
 40
0.0
 40
0.0
 40
1.0
 40
1.0
 40
1.0
 40
2.0
 40
2.0
 40
2.0
 40
3.0
 40
3.0
 40
3.0
 40
3.0
 10
881.0629880609843
 20
610.2509764099373
 10
881.0747068109813
 20
610.9223631285194
 10
880.7866208735534
 20
611.9658201595086
 10
879.60009743635
 20
611.9658201595086
 10
878.5327146241168
 20
611.9658201595086
 10
878.0649411867338
 20
610.9824217222543
 10
877.9809568117547
 20
610.2509764099373
 10
877.9809568117547
 20
610.2509764099373
 10
881.0629880609843
 20
610.2509764099373
 10
881.0629880609843
 20
610.2509764099373
 97
        0
 97
        0
 75
     2
 76
     1
 98
        0
  0
SPLINE
  5
D7
330
9F
100
AcDbEntity
  8
0
 62
   240
420
 15539236
370
    35
100
AcDbSpline
210
0.0
220
0.0
230
1.0
 70
    11
 71
     3
 72
    41
 73
    37
 74
     0
 42
0.0000000001
 43
0.0000000001
 12
1.0
 22
0.0
 32
0.0
 13
1.0
 23
0.0
 33
0.0
 40
0.0
 40
0.0
 40
0.0
 40
0.0
 40
1.0
 40
1.0
 40
1.0
 40
2.0
 40
2.0
 40
2.0
 40
3.0
 40
3.0
 40
3.0
 40
4.0
 40
4.0
 40
4.0
 40
5.0
 40
5.0
 40
5.0
 40
6.0
 40
6.0
 40
6.0
 40
7.0
 40
7.0
 40
7.0
 40
8.0
 40
8.0
 40
8.0
 40
9.0
 40
9.0
 40
9.0
 40
10.0
 40
10.0
 40
10.0
 40
11.0
 40
11.0
 40
11.0
 40
12.0
 40
12.0
 40
12.0
 40
12.0
 10
888.4057614966486
 20
615.299804533675
 30
0.0
 10
888.4057614966486
 20
615.299804533675
 30
0.0
 10
888.4057614966486
 20
608.2836912541791
 30
0.0
 10
888.4057614966486
 20
608.2836912541791
 30
0.0
 10
888.4057614966486
 20
607.768066254308
 30
0.0
 10
888.4174802466456
 20
607.1806639107048
 30
0.0
 10
888.4536130591366
 20
606.7846678170538
 30
0.0
 10
888.4536130591366
 20
606.7846678170538
 30
0.0
 10
887.5063474343734
 20
606.7846678170538
 30
0.0
 10
887.5063474343734
 20
606.7846678170538
 30
0.0
 10
887.5063474343734
 20
606.7846678170538
 30
0.0
 10
887.4584958718854
 20
607.791992035552
 30
0.0
 10
887.4584958718854
 20
607.791992035552
 30
0.0
 10
887.4584958718854
 20
607.791992035552
 30
0.0
 10
887.4340818093915
 20
607.791992035552
 30
0.0
 10
887.4340818093915
 20
607.791992035552
 30
0.0
 10
887.1108396219722
 20
607.1445310982139
 30
0.0
 10
886.4028318096492
 20
606.6528318795868
 30
0.0
 10
885.455566184886
 20
606.6528318795868
 30
0.0
 10
884.0522458727369
 20
606.6528318795868
 30
0.0
 10
882.9731443105067
 20
607.8403318792899
 30
0.0
 10
882.9731443105067
 20
609.6030271913493
 30
0.0
 10
882.9604489980098
 20
611.5341795346164
 30
0.0
 10
884.1606443102098
 20
612.7211912530697
 30
0.0
 10
885.575683372356
 20
612.7211912530697
 30
0.0
 10
886.4633786846341
 20
612.7211912530697
 30
0.0
 10
887.0629880594843
 20
612.3017576594245
 30
0.0
 10
887.3266599344183
 20
611.8339842220415
 30
0.0
 10
887.3266599344183
 20
611.8339842220415
 30
0.0
 10
887.3500974344124
 20
611.8339842220415
 30
0.0
 10
887.3500974344124
 20
611.8339842220415
 30
0.0
 10
887.3500974344124
 20
611.8339842220415
 30
0.0
 10
887.3500974344124
 20
615.299804533675
 30
0.0
 10
887.3500974344124
 20
615.299804533675
 30
0.0
 10
887.3500974344124
 20
615.299804533675
 30
0.0
 10
888.4057614966486
 20
615.299804533675
 30
0.0
 10
888.4057614966486
 20
615.299804533675
 30
0.0
  0
SPLINE
  5
D8
330
9F
100
AcDbEntity
  8
0
 62
   240
420
 15539236
370
    35
100
AcDbSpline
210
0.0
220
0.0
230
1.0
 70
    11
 71
     3
 72
    26
 73
    22
 74
     0
 42
0.0000000001
 43
0.0000000001
 12
1.0
 22
0.0
 32
0.0
 13
1.0
 23
0.0
 33
0.0
 40
0.0
 40
0.0
 40
0.0
 40
0.0
 40
1.0
 40
1.0
 40
1.0
 40
2.0
 40
2.0
 40
2.0
 40
3.0
 40
3.0
 40
3.0
 40
4.0
 40
4.0
 40
4.0
 40
5.0
 40
5.0
 40
5.0
 40
6.0
 40
6.0
 40
6.0
 40
7.0
 40
7.0
 40
7.0
 40
7.0
 10
887.3500974344124
 20
610.2265623474433
 30
0.0
 10
887.3500974344124
 20
610.3588865661603
 30
0.0
 10
887.3383786844154
 20
610.5385740661153
 30
0.0
 10
887.3022458719245
 20
610.6704100035823
 30
0.0
 10
887.1469724344632
 20
611.3422850034144
 30
0.0
 10
886.5708005596073
 20
611.8940428157765
 30
0.0
 10
885.779784934805
 20
611.8940428157765
 30
0.0
 10
884.6879880600779
 20
611.8940428157765
 30
0.0
 10
884.0405271227398
 20
610.9345701597664
 30
0.0
 10
884.0405271227398
 20
609.6508787538372
 30
0.0
 10
884.0405271227398
 20
608.4755857853811
 30
0.0
 10
884.615722435096
 20
607.5043943793739
 30
0.0
 10
885.7553708723111
 20
607.5043943793739
 30
0.0
 10
886.4633786846341
 20
607.5043943793739
 30
0.0
 10
887.1108396219722
 20
607.972167816757
 30
0.0
 10
887.3022458719245
 20
608.763671722809
 30
0.0
 10
887.3383786844154
 20
608.9077146915231
 30
0.0
 10
887.3500974344124
 20
609.0512693789872
 30
0.0
 10
887.3500974344124
 20
609.2192381289452
 30
0.0
 10
887.3500974344124
 20
609.2192381289452
 30
0.0
 10
887.3500974344124
 20
610.2265623474433
 30
0.0
 10
887.3500974344124
 20
610.2265623474433
 30
0.0
  0
HATCH
  5
D9
330
9F
100
AcDbEntity
  8
0
 62
   240
420
 15539236
100
AcDbHatch
 10
0.0
 20
0.0
 30
0.0
210
0.0
220
0.0
230
1.0
  2
SOLID
 70
     1
 71
     0
 91
        2
 92
        1
 93
        1
 72
     4
 94
        3
 73
     0
 74
     1
 95
       41
 96
       37
 40
0.0
 40
0.0
 40
0.0
 40
0.0
 40
1.0
 40
1.0
 40
1.0
 40
2.0
 40
2.0
 40
2.0
 40
3.0
 40
3.0
 40
3.0
 40
4.0
 40
4.0
 40
4.0
 40
5.0
 40
5.0
 40
5.0
 40
6.0
 40
6.0
 40
6.0
 40
7.0
 40
7.0
 40
7.0
 40
8.0
 40
8.0
 40
8.0
 40
9.0
 40
9.0
 40
9.0
 40
10.0
 40
10.0
 40
10.0
 40
11.0
 40
11.0
 40
11.0
 40
12.0
 40
12.0
 40
12.0
 40
12.0
 10
888.4057614966486
 20
615.299804533675
 10
888.4057614966486
 20
615.299804533675
 10
888.4057614966486
 20
608.2836912541791
 10
888.4057614966486
 20
608.2836912541791
 10
888.4057614966486
 20
607.768066254308
 10
888.4174802466456
 20
607.1806639107048
 10
888.4536130591366
 20
606.7846678170538
 10
888.4536130591366
 20
606.7846678170538
 10
887.5063474343734
 20
606.7846678170538
 10
887.5063474343734
 20
606.7846678170538
 10
887.5063474343734
 20
606.7846678170538
 10
887.4584958718854
 20
607.791992035552
 10
887.4584958718854
 20
607.791992035552
 10
887.4584958718854
 20
607.791992035552
 10
887.4340818093915
 20
607.791992035552
 10
887.4340818093915
 20
607.791992035552
 10
887.1108396219722
 20
607.1445310982139
 10
886.4028318096492
 20
606.6528318795868
 10
885.455566184886
 20
606.6528318795868
 10
884.0522458727369
 20
606.6528318795868
 10
882.9731443105067
 20
607.8403318792899
 10
882.9731443105067
 20
609.6030271913493
 10
882.9604489980098
 20
611.5341795346164
 10
884.1606443102098
 20
612.7211912530697
 10
885.575683372356
 20
612.7211912530697
 10
886.4633786846341
 20
612.7211912530697
 10
887.0629880594843
 20
612.3017576594245
 10
887.3266599344183
 20
611.8339842220415
 10
887.3266599344183
 20
611.8339842220415
 10
887.3500974344124
 20
611.8339842220415
 10
887.3500974344124
 20
611.8339842220415
 10
887.3500974344124
 20
611.8339842220415
 10
887.3500974344124
 20
615.299804533675
 10
887.3500974344124
 20
615.299804533675
 10
887.3500974344124
 20
615.299804533675
 10
888.4057614966486
 20
615.299804533675
 10
888.4057614966486
 20
615.299804533675
 97
        0
 97
        0
 92
        1
 93
        1
 72
     4
 94
        3
 73
     0
 74
     1
 95
       26
 96
       22
 40
0.0
 40
0.0
 40
0.0
 40
0.0
 40
1.0
 40
1.0
 40
1.0
 40
2.0
 40
2.0
 40
2.0
 40
3.0
 40
3.0
 40
3.0
 40
4.0
 40
4.0
 40
4.0
 40
5.0
 40
5.0
 40
5.0
 40
6.0
 40
6.0
 40
6.0
 40
7.0
 40
7.0
 40
7.0
 40
7.0
 10
887.3500974344124
 20
610.2265623474433
 10
887.3500974344124
 20
610.3588865661603
 10
887.3383786844154
 20
610.5385740661153
 10
887.3022458719245
 20
610.6704100035823
 10
887.1469724344632
 20
611.3422850034144
 10
886.5708005596073
 20
611.8940428157765
 10
885.779784934805
 20
611.8940428157765
 10
884.6879880600779
 20
611.8940428157765
 10
884.0405271227398
 20
610.9345701597664
 10
884.0405271227398
 20
609.6508787538372
 10
884.0405271227398
 20
608.4755857853811
 10
884.615722435096
 20
607.5043943793739
 10
885.7553708723111
 20
607.5043943793739
 10
886.4633786846341
 20
607.5043943793739
 10
887.1108396219722
 20
607.972167816757
 10
887.3022458719245
 20
608.763671722809
 10
887.3383786844154
 20
608.9077146915231
 10
887.3500974344124
 20
609.0512693789872
 10
887.3500974344124
 20
609.2192381289452
 10
887.3500974344124
 20
609.2192381289452
 10
887.3500974344124
 20
610.2265623474433
 10
887.3500974344124
 20
610.2265623474433
 97
        0
 97
        0
 75
     2
 76
     1
 98
        0
  0
ENDBLK
  5
A2
330
9F
100
AcDbEntity
  8
0
100
AcDbBlockEnd
  0
ENDSEC
  0
SECTION
  2
ENTITIES
  0
INSERT
  5
41
330
1F
100
AcDbEntity
  8
0
100
AcDbBlockReference
  2
block 2
 10
0.0
 20
0.0
 30
0.0
  0
INSERT
  5
4C
330
1F
100
AcDbEntity
  8
0
100
AcDbBlockReference
  2
block 3
 10
0.0
 20
0.0
 30
0.0
  0
INSERT
  5
5F
330
1F
100
AcDbEntity
  8
0
100
AcDbBlockReference
  2
block 4
 10
0.0
 20
0.0
 30
0.0
  0
INSERT
  5
64
330
1F
100
AcDbEntity
  8
0
100
AcDbBlockReference
  2
block 5
 10
0.0
 20
0.0
 30
0.0
  0
INSERT
  5
73
330
1F
100
AcDbEntity
  8
0
100
AcDbBlockReference
  2
block 6
 10
0.0
 20
0.0
 30
0.0
  0
INSERT
  5
78
330
1F
100
AcDbEntity
  8
0
100
AcDbBlockReference
  2
block 7
 10
0.0
 20
0.0
 30
0.0
  0
INSERT
  5
7D
330
1F
100
AcDbEntity
  8
0
100
AcDbBlockReference
  2
block 8
 10
0.0
 20
0.0
 30
0.0
  0
INSERT
  5
82
330
1F
100
AcDbEntity
  8
0
100
AcDbBlockReference
  2
block 9
 10
0.0
 20
0.0
 30
0.0
  0
INSERT
  5
87
330
1F
100
AcDbEntity
  8
0
100
AcDbBlockReference
  2
block 10
 10
0.0
 20
0.0
 30
0.0
  0
INSERT
  5
8C
330
1F
100
AcDbEntity
  8
0
100
AcDbBlockReference
  2
block 11
 10
0.0
 20
0.0
 30
0.0
  0
INSERT
  5
91
330
1F
100
AcDbEntity
  8
0
100
AcDbBlockReference
  2
block 12
 10
0.0
 20
0.0
 30
0.0
  0
INSERT
  5
96
330
1F
100
AcDbEntity
  8
0
100
AcDbBlockReference
  2
block 13
 10
0.0
 20
0.0
 30
0.0
  0
INSERT
  5
9B
330
1F
100
AcDbEntity
  8
0
100
AcDbBlockReference
  2
block 14
 10
0.0
 20
0.0
 30
0.0
  0
INSERT
  5
A0
330
1F
100
AcDbEntity
  8
0
100
AcDbBlockReference
  2
block 15
 10
0.0
 20
0.0
 30
0.0
  0
ENDSEC
  0
SECTION
  2
OBJECTS
  0
DICTIONARY
  5
C
330
0
100
AcDbDictionary
281
     1
  3
ACAD_GROUP
350
D
  3
ACAD_LAYOUT
350
1A
  3
ACAD_MATERIAL
350
3B
  3
ACAD_MLEADERSTYLE
350
DB
  3
ACAD_MLINESTYLE
350
17
  3
ACAD_PLOTSETTINGS
350
19
  3
ACAD_PLOTSTYLENAME
350
E
  3
ACAD_TABLESTYLE
350
DA
  3
ACAD_VISUALSTYLE
350
2A
  0
SUN
  5
3F
330
29
100
AcDbSun
 90
        1
290
     0
 63
     7
421
 16777215
 40
1.0
291
     1
 91
  2455826
 92
 54000000
292
     0
 70
     2
 71
   256
280
     1
  0
DICTIONARY
  5
D
102
{ACAD_REACTORS
330
C
102
}
330
C
100
AcDbDictionary
281
     1
  0
DICTIONARY
  5
1A
102
{ACAD_REACTORS
330
C
102
}
330
C
100
AcDbDictionary
281
     1
  3
Layout1
350
1E
  3
Layout2
350
26
  3
Model
350
22
  0
DICTIONARY
  5
3B
102
{ACAD_REACTORS
330
C
102
}
330
C
100
AcDbDictionary
281
     1
  3
ByBlock
350
3D
  3
ByLayer
350
3C
  3
Global
350
3E
  0
DICTIONARY
  5
DB
102
{ACAD_REACTORS
330
C
102
}
330
C
100
AcDbDictionary
281
     1
  0
DICTIONARY
  5
17
102
{ACAD_REACTORS
330
C
102
}
330
C
100
AcDbDictionary
281
     1
  3
Standard
350
18
  0
DICTIONARY
  5
19
102
{ACAD_REACTORS
330
C
102
}
330
C
100
AcDbDictionary
281
     1
  0
ACDBDICTIONARYWDFLT
  5
E
102
{ACAD_REACTORS
330
C
102
}
330
C
100
AcDbDictionary
281
     1
  3
Normal
350
F
100
AcDbDictionaryWithDefault
340
F
  0
DICTIONARY
  5
DA
102
{ACAD_REACTORS
330
C
102
}
330
C
100
AcDbDictionary
281
     1
  0
DICTIONARY
  5
2A
102
{ACAD_REACTORS
330
C
102
}
330
C
100
AcDbDictionary
281
     1
  3
2dWireframe
350
2F
  3
3D Hidden
350
31
  3
3dWireframe
350
30
  3
Basic
350
32
  3
Brighten
350
36
  3
ColorChange
350
3A
  3
Conceptual
350
34
  3
Dim
350
35
  3
Facepattern
350
39
  3
Flat
350
2B
  3
FlatWithEdges
350
2C
  3
Gouraud
350
2D
  3
GouraudWithEdges
350
2E
  3
Linepattern
350
38
  3
Realistic
350
33
  3
Thicken
350
37
  0
LAYOUT
  5
1E
102
{ACAD_REACTORS
330
1A
102
}
330
1A
100
AcDbPlotSettings
  1

  2
none_device
  4

  6

 40
0.0
 41
0.0
 42
0.0
 43
0.0
 44
0.0
 45
0.0
 46
0.0
 47
0.0
 48
0.0
 49
0.0
140
0.0
141
0.0
142
1.0
143
1.0
 70
   688
 72
     0
 73
     0
 74
     5
  7

 75
    16
 76
     0
 77
     2
 78
   300
147
1.0
148
0.0
149
0.0
100
AcDbLayout
  1
Layout1
 70
     1
 71
     1
 10
0.0
 20
0.0
 11
12.0
 21
9.0
 12
0.0
 22
0.0
 32
0.0
 14
1.000000000000000E+20
 24
1.000000000000000E+20
 34
1.000000000000000E+20
 15
-1.000000000000000E+20
 25
-1.000000000000000E+20
 35
-1.000000000000000E+20
146
0.0
 13
0.0
 23
0.0
 33
0.0
 16
1.0
 26
0.0
 36
0.0
 17
0.0
 27
1.0
 37
0.0
 76
     0
330
1B
  0
LAYOUT
  5
26
102
{ACAD_REACTORS
330
1A
102
}
330
1A
100
AcDbPlotSettings
  1

  2
none_device
  4

  6

 40
0.0
 41
0.0
 42
0.0
 43
0.0
 44
0.0
 45
0.0
 46
0.0
 47
0.0
 48
0.0
 49
0.0
140
0.0
141
0.0
142
1.0
143
1.0
 70
   688
 72
     0
 73
     0
 74
     5
  7

 75
    16
 76
     0
 77
     2
 78
   300
147
1.0
148
0.0
149
0.0
100
AcDbLayout
  1
Layout2
 70
     1
 71
     2
 10
0.0
 20
0.0
 11
0.0
 21
0.0
 12
0.0
 22
0.0
 32
0.0
 14
0.0
 24
0.0
 34
0.0
 15
0.0
 25
0.0
 35
0.0
146
0.0
 13
0.0
 23
0.0
 33
0.0
 16
1.0
 26
0.0
 36
0.0
 17
0.0
 27
1.0
 37
0.0
 76
     0
330
23
  0
LAYOUT
  5
22
102
{ACAD_REACTORS
330
1A
102
}
330
1A
100
AcDbPlotSettings
  1

  2
none_device
  4

  6

 40
0.0
 41
0.0
 42
0.0
 43
0.0
 44
0.0
 45
0.0
 46
0.0
 47
0.0
 48
0.0
 49
0.0
140
0.0
141
0.0
142
1.0
143
1.0
 70
  1712
 72
     0
 73
     0
 74
     0
  7

 75
     0
 76
     0
 77
     2
 78
   300
147
1.0
148
0.0
149
0.0
100
AcDbLayout
  1
Model
 70
     1
 71
     0
 10
0.0
 20
0.0
 11
12.0
 21
9.0
 12
0.0
 22
0.0
 32
0.0
 14
1.000000000000000E+20
 24
1.000000000000000E+20
 34
1.000000000000000E+20
 15
-1.000000000000000E+20
 25
-1.000000000000000E+20
 35
-1.000000000000000E+20
146
0.0
 13
0.0
 23
0.0
 33
0.0
 16
1.0
 26
0.0
 36
0.0
 17
0.0
 27
1.0
 37
0.0
 76
     0
330
1F
331
29
  0
MATERIAL
  5
3D
102
{ACAD_REACTORS
330
3B
102
}
330
3B
100
AcDbMaterial
  1
ByBlock
 72
     1
 94
      127
  0
MATERIAL
  5
3C
102
{ACAD_REACTORS
330
3B
102
}
330
3B
100
AcDbMaterial
  1
ByLayer
 72
     1
 94
      127
  0
MATERIAL
  5
3E
102
{ACAD_REACTORS
330
3B
102
}
330
3B
100
AcDbMaterial
  1
Global
 72
     1
 94
      127
  0
MLINESTYLE
  5
18
102
{ACAD_REACTORS
330
17
102
}
330
17
100
AcDbMlineStyle
  2
Standard
 70
     0
  3

 62
   256
 51
90.0
 52
90.0
 71
     2
 49
0.5
 62
   256
  6
BYLAYER
 49
-0.5
 62
   256
  6
BYLAYER
  0
ACDBPLACEHOLDER
  5
F
102
{ACAD_REACTORS
330
E
102
}
330
E
  0
VISUALSTYLE
  5
2F
102
{ACAD_REACTORS
330
2A
102
}
330
2A
100
AcDbVisualStyle
  2
2dWireframe
 70
     4
177
     2
291
     0
 71
     0
176
     1
 72
     2
176
     1
 73
     0
176
     1
 90
        0
176
     1
 40
-0.6
176
     1
 41
-30.0
176
     1
 62
     5
 63
     7
421
 16777215
176
     1
 74
     1
176
     1
 91
        4
176
     1
 64
     7
176
     1
 65
   257
176
     1
 75
     1
176
     1
175
     1
176
     1
 42
1.0
176
     1
 92
        0
176
     1
 66
   257
176
     1
 43
1.0
176
     1
 76
     1
176
     1
 77
     6
176
     1
 78
     2
176
     1
 67
     7
176
     1
 79
     5
176
     1
170
     0
176
     1
171
     0
176
     1
290
     0
176
     1
 93
        1
176
     1
 44
0.0
176
     1
173
     0
176
     1
  0
VISUALSTYLE
  5
31
102
{ACAD_REACTORS
330
2A
102
}
330
2A
100
AcDbVisualStyle
  2
3D Hidden
 70
     6
177
     2
291
     0
 71
     1
176
     1
 72
     2
176
     1
 73
     2
176
     1
 90
        0
176
     1
 40
-0.6
176
     1
 41
-30.0
176
     1
 62
     5
 63
     7
421
 16777215
176
     1
 74
     2
176
     1
 91
        2
176
     1
 64
     7
176
     1
 65
   257
176
     1
 75
     2
176
     1
175
     1
176
     1
 42
40.0
176
     1
 92
        0
176
     1
 66
   257
176
     1
 43
1.0
176
     1
 76
     1
176
     1
 77
     6
176
     1
 78
     2
176
     1
 67
     7
176
     1
 79
     3
176
     1
170
     0
176
     1
171
     0
176
     1
290
     0
176
     1
 93
        1
176
     1
 44
0.0
176
     1
173
     0
176
     1
  0
VISUALSTYLE
  5
30
102
{ACAD_REACTORS
330
2A
102
}
330
2A
100
AcDbVisualStyle
  2
3dWireframe
 70
     5
177
     2
291
     0
 71
     0
176
     1
 72
     2
176
     1
 73
     0
176
     1
 90
        0
176
     1
 40
-0.6
176
     1
 41
-30.0
176
     1
 62
     5
 63
     7
421
 16777215
176
     1
 74
     1
176
     1
 91
        4
176
     1
 64
     7
176
     1
 65
   257
176
     1
 75
     1
176
     1
175
     1
176
     1
 42
1.0
176
     1
 92
        0
176
     1
 66
   257
176
     1
 43
1.0
176
     1
 76
     1
176
     1
 77
     6
176
     1
 78
     2
176
     1
 67
     7
176
     1
 79
     5
176
     1
170
     0
176
     1
171
     0
176
     1
290
     0
176
     1
 93
        1
176
     1
 44
0.0
176
     1
173
     0
176
     1
  0
VISUALSTYLE
  5
32
102
{ACAD_REACTORS
330
2A
102
}
330
2A
100
AcDbVisualStyle
  2
Basic
 70
     7
177
     2
291
     1
 71
     1
176
     1
 72
     0
176
     1
 73
     1
176
     1
 90
        0
176
     1
 40
-0.6
176
     1
 41
-30.0
176
     1
 62
     5
 63
     7
421
 16777215
176
     1
 74
     0
176
     1
 91
        4
176
     1
 64
     7
176
     1
 65
   257
176
     1
 75
     1
176
     1
175
     1
176
     1
 42
1.0
176
     1
 92
        8
176
     1
 66
     7
176
     1
 43
1.0
176
     1
 76
     1
176
     1
 77
     6
176
     1
 78
     2
176
     1
 67
     7
176
     1
 79
     5
176
     1
170
     0
176
     1
171
     0
176
     1
290
     0
176
     1
 93
        1
176
     1
 44
0.0
176
     1
173
     0
176
     1
  0
VISUALSTYLE
  5
36
102
{ACAD_REACTORS
330
2A
102
}
330
2A
100
AcDbVisualStyle
  2
Brighten
 70
    12
177
     2
291
     1
 71
     2
176
     1
 72
     2
176
     1
 73
     0
176
     1
 90
        0
176
     1
 40
-0.6
176
     1
 41
-30.0
176
     1
 62
     5
 63
     7
421
 16777215
176
     1
 74
     1
176
     1
 91
        4
176
     1
 64
     7
176
     1
 65
   257
176
     1
 75
     1
176
     1
175
     1
176
     1
 42
1.0
176
     1
 92
        8
176
     1
 66
     7
176
     1
 43
1.0
176
     1
 76
     1
176
     1
 77
     6
176
     1
 78
     2
176
     1
 67
     7
176
     1
 79
     5
176
     1
170
     0
176
     1
171
     0
176
     1
290
     0
176
     1
 93
        1
176
     1
 44
50.0
176
     1
173
     0
176
     1
  0
VISUALSTYLE
  5
3A
102
{ACAD_REACTORS
330
2A
102
}
330
2A
100
AcDbVisualStyle
  2
ColorChange
 70
    16
177
     2
291
     1
 71
     2
176
     1
 72
     2
176
     1
 73
     3
176
     1
 90
        0
176
     1
 40
-0.6
176
     1
 41
-30.0
176
     1
 62
     5
 63
     8
421
  8421504
176
     1
 74
     1
176
     1
 91
        4
176
     1
 64
     7
176
     1
 65
   257
176
     1
 75
     1
176
     1
175
     1
176
     1
 42
1.0
176
     1
 92
        8
176
     1
 66
     8
424
  8421504
176
     1
 43
1.0
176
     1
 76
     1
176
     1
 77
     6
176
     1
 78
     2
176
     1
 67
     7
176
     1
 79
     5
176
     1
170
     0
176
     1
171
     0
176
     1
290
     0
176
     1
 93
        1
176
     1
 44
0.0
176
     1
173
     0
176
     1
  0
VISUALSTYLE
  5
34
102
{ACAD_REACTORS
330
2A
102
}
330
2A
100
AcDbVisualStyle
  2
Conceptual
 70
     9
177
     2
291
     0
 71
     3
176
     1
 72
     2
176
     1
 73
     0
176
     1
 90
        0
176
     1
 40
-0.6
176
     1
 41
-30.0
176
     1
 62
     5
 63
     7
421
 16777215
176
     1
 74
     2
176
     1
 91
        2
176
     1
 64
     7
176
     1
 65
   257
176
     1
 75
     1
176
     1
175
     1
176
     1
 42
40.0
176
     1
 92
        8
176
     1
 66
     7
176
     1
 43
1.0
176
     1
 76
     1
176
     1
 77
     6
176
     1
 78
     2
176
     1
 67
     7
176
     1
 79
     3
176
     1
170
     0
176
     1
171
     0
176
     1
290
     0
176
     1
 93
        1
176
     1
 44
0.0
176
     1
173
     0
176
     1
  0
VISUALSTYLE
  5
35
102
{ACAD_REACTORS
330
2A
102
}
330
2A
100
AcDbVisualStyle
  2
Dim
 70
    11
177
     2
291
     1
 71
     2
176
     1
 72
     2
176
     1
 73
     0
176
     1
 90
        0
176
     1
 40
-0.6
176
     1
 41
-30.0
176
     1
 62
     5
 63
     7
421
 16777215
176
     1
 74
     1
176
     1
 91
        4
176
     1
 64
     7
176
     1
 65
   257
176
     1
 75
     1
176
     1
175
     1
176
     1
 42
1.0
176
     1
 92
        8
176
     1
 66
     7
176
     1
 43
1.0
176
     1
 76
     1
176
     1
 77
     6
176
     1
 78
     2
176
     1
 67
     7
176
     1
 79
     5
176
     1
170
     0
176
     1
171
     0
176
     1
290
     0
176
     1
 93
        1
176
     1
 44
-50.0
176
     1
173
     0
176
     1
  0
VISUALSTYLE
  5
39
102
{ACAD_REACTORS
330
2A
102
}
330
2A
100
AcDbVisualStyle
  2
Facepattern
 70
    15
177
     2
291
     1
 71
     2
176
     1
 72
     2
176
     1
 73
     0
176
     1
 90
        0
176
     1
 40
-0.6
176
     1
 41
-30.0
176
     1
 62
     5
 63
     7
421
 16777215
176
     1
 74
     1
176
     1
 91
        4
176
     1
 64
     7
176
     1
 65
   257
176
     1
 75
     1
176
     1
175
     1
176
     1
 42
1.0
176
     1
 92
        8
176
     1
 66
     7
176
     1
 43
1.0
176
     1
 76
     1
176
     1
 77
     6
176
     1
 78
     2
176
     1
 67
     7
176
     1
 79
     5
176
     1
170
     0
176
     1
171
     0
176
     1
290
     0
176
     1
 93
        1
176
     1
 44
0.0
176
     1
173
     0
176
     1
  0
VISUALSTYLE
  5
2B
102
{ACAD_REACTORS
330
2A
102
}
330
2A
100
AcDbVisualStyle
  2
Flat
 70
     0
177
     2
291
     1
 71
     2
176
     1
 72
     1
176
     1
 73
     1
176
     1
 90
        2
176
     1
 40
-0.6
176
     1
 41
30.0
176
     1
 62
     5
 63
     7
421
 16777215
176
     1
 74
     0
176
     1
 91
        4
176
     1
 64
     7
176
     1
 65
   257
176
     1
 75
     1
176
     1
175
     1
176
     1
 42
1.0
176
     1
 92
        8
176
     1
 66
     7
176
     1
 43
1.0
176
     1
 76
     1
176
     1
 77
     6
176
     1
 78
     2
176
     1
 67
     7
176
     1
 79
     5
176
     1
170
     0
176
     1
171
     0
176
     1
290
     0
176
     1
 93
       13
176
     1
 44
0.0
176
     1
173
     0
176
     1
  0
VISUALSTYLE
  5
2C
102
{ACAD_REACTORS
330
2A
102
}
330
2A
100
AcDbVisualStyle
  2
FlatWithEdges
 70
     1
177
     2
291
     1
 71
     2
176
     1
 72
     1
176
     1
 73
     1
176
     1
 90
        2
176
     1
 40
-0.6
176
     1
 41
30.0
176
     1
 62
     5
 63
     7
421
 16777215
176
     1
 74
     1
176
     1
 91
        4
176
     1
 64
     7
176
     1
 65
   257
176
     1
 75
     1
176
     1
175
     1
176
     1
 42
1.0
176
     1
 92
        0
176
     1
 66
   257
176
     1
 43
1.0
176
     1
 76
     1
176
     1
 77
     6
176
     1
 78
     2
176
     1
 67
     7
176
     1
 79
     5
176
     1
170
     0
176
     1
171
     0
176
     1
290
     0
176
     1
 93
       13
176
     1
 44
0.0
176
     1
173
     0
176
     1
  0
VISUALSTYLE
  5
2D
102
{ACAD_REACTORS
330
2A
102
}
330
2A
100
AcDbVisualStyle
  2
Gouraud
 70
     2
177
     2
291
     1
 71
     2
176
     1
 72
     2
176
     1
 73
     1
176
     1
 90
        2
176
     1
 40
-0.6
176
     1
 41
30.0
176
     1
 62
     5
 63
     7
421
 16777215
176
     1
 74
     0
176
     1
 91
        4
176
     1
 64
     7
176
     1
 65
   257
176
     1
 75
     1
176
     1
175
     1
176
     1
 42
1.0
176
     1
 92
        0
176
     1
 66
     7
176
     1
 43
1.0
176
     1
 76
     1
176
     1
 77
     6
176
     1
 78
     2
176
     1
 67
     7
176
     1
 79
     5
176
     1
170
     0
176
     1
171
     0
176
     1
290
     0
176
     1
 93
       13
176
     1
 44
0.0
176
     1
173
     0
176
     1
  0
VISUALSTYLE
  5
2E
102
{ACAD_REACTORS
330
2A
102
}
330
2A
100
AcDbVisualStyle
  2
GouraudWithEdges
 70
     3
177
     2
291
     1
 71
     2
176
     1
 72
     2
176
     1
 73
     1
176
     1
 90
        2
176
     1
 40
-0.6
176
     1
 41
30.0
176
     1
 62
     5
 63
     7
421
 16777215
176
     1
 74
     1
176
     1
 91
        4
176
     1
 64
     7
176
     1
 65
   257
176
     1
 75
     1
176
     1
175
     1
176
     1
 42
1.0
176
     1
 92
        0
176
     1
 66
   257
176
     1
 43
1.0
176
     1
 76
     1
176
     1
 77
     6
176
     1
 78
     2
176
     1
 67
     7
176
     1
 79
     5
176
     1
170
     0
176
     1
171
     0
176
     1
290
     0
176
     1
 93
       13
176
     1
 44
0.0
176
     1
173
     0
176
     1
  0
VISUALSTYLE
  5
38
102
{ACAD_REACTORS
330
2A
102
}
330
2A
100
AcDbVisualStyle
  2
Linepattern
 70
    14
177
     2
291
     1
 71
     2
176
     1
 72
     2
176
     1
 73
     0
176
     1
 90
        0
176
     1
 40
-0.6
176
     1
 41
-30.0
176
     1
 62
     5
 63
     7
421
 16777215
176
     1
 74
     1
176
     1
 91
        4
176
     1
 64
     7
176
     1
 65
   257
176
     1
 75
     7
176
     1
175
     7
176
     1
 42
1.0
176
     1
 92
        8
176
     1
 66
     7
176
     1
 43
1.0
176
     1
 76
     1
176
     1
 77
     6
176
     1
 78
     2
176
     1
 67
     7
176
     1
 79
     5
176
     1
170
     0
176
     1
171
     0
176
     1
290
     0
176
     1
 93
        1
176
     1
 44
0.0
176
     1
173
     0
176
     1
  0
VISUALSTYLE
  5
33
102
{ACAD_REACTORS
330
2A
102
}
330
2A
100
AcDbVisualStyle
  2
Realistic
 70
     8
177
     2
291
     0
 71
     2
176
     1
 72
     2
176
     1
 73
     0
176
     1
 90
        0
176
     1
 40
-0.6
176
     1
 41
-30.0
176
     1
 62
     5
 63
     7
421
 16777215
176
     1
 74
     1
176
     1
 91
        0
176
     1
 64
     7
176
     1
 65
   257
176
     1
 75
     1
176
     1
175
     1
176
     1
 42
1.0
176
     1
 92
        8
176
     1
 66
     8
424
  7895160
176
     1
 43
1.0
176
     1
 76
     1
176
     1
 77
     6
176
     1
 78
     2
176
     1
 67
     7
176
     1
 79
     5
176
     1
170
     0
176
     1
171
     0
176
     1
290
     0
176
     1
 93
       13
176
     1
 44
0.0
176
     1
173
     0
176
     1
  0
VISUALSTYLE
  5
37
102
{ACAD_REACTORS
330
2A
102
}
330
2A
100
AcDbVisualStyle
  2
Thicken
 70
    13
177
     2
291
     1
 71
     2
176
     1
 72
     2
176
     1
 73
     0
176
     1
 90
        0
176
     1
 40
-0.6
176
     1
 41
-30.0
176
     1
 62
     5
 63
     7
421
 16777215
176
     1
 74
     1
176
     1
 91
        4
176
     1
 64
     7
176
     1
 65
   257
176
     1
 75
     1
176
     1
175
     1
176
     1
 42
1.0
176
     1
 92
       12
176
     1
 66
     7
176
     1
 43
1.0
176
     1
 76
     1
176
     1
 77
     6
176
     1
 78
     2
176
     1
 67
     7
176
     1
 79
     5
176
     1
170
     0
176
     1
171
     0
176
     1
290
     0
176
     1
 93
        1
176
     1
 44
0.0
176
     1
173
     0
176
     1
  0
ENDSEC
  0
EOF
