0
SECTION
2
HEADER
9
$INSUNITS
70
4
9
$ACADVER
1
AC1014
9
$HANDSEED
5
FFFF
0
ENDSEC
0
SECTION
2
TABLES
0
TABLE
2
VPORT
5
8
100
AcDbSymbolTable
0
ENDTAB
0
TABLE
2
LTYPE
5
5
100
AcDbSymbolTable
0
LTYPE
5
14
100
AcDbSymbolTableRecord
100
AcDbLinetypeTableRecord
2
BYBLOCK
70
0
0
LTYPE
5
15
100
AcDbSymbolTableRecord
100
AcDbLinetypeTableRecord
2
BYLAYER
70
0
0
ENDTAB
0
TABLE
2
LAYER
5
2
100
AcDbSymbolTable
70
2
0
LAYER
5
50
100
AcDbSymbolTableRecord
100
AcDbLayerTableRecord
2
0
70
0
6
CONTINUOUS
0
ENDTAB
0
TABLE
2
STYLE
5
3
100
AcDbSymbolTable
70
1
0
STYLE
5
11
100
AcDbSymbolTableRecord
100
AcDbTextStyleTableRecord
2
STANDARD
70
0
0
ENDTAB
0
TABLE
2
VIEW
5
6
100
AcDbSymbolTable
70
0
0
ENDTAB
0
TABLE
2
UCS
5
7
100
AcDbSymbolTable
70
0
0
ENDTAB
0
TABLE
2
APPID
5
9
100
AcDbSymbolTable
70
2
0
APPID
5
12
100
AcDbSymbolTableRecord
100
AcDbRegAppTableRecord
2
ACAD
70
0
0
ENDTAB
0
TABLE
2
DIMSTYLE
5
A
100
AcDbSymbolTable
70
1
0
ENDTAB
0
TABLE
2
BLOCK_RECORD
5
1
100
AcDbSymbolTable
70
1
0
BLOCK_RECORD
5
1F
100
AcDbSymbolTableRecord
100
AcDbBlockTableRecord
2
*MODEL_SPACE
0
BLOCK_RECORD
5
1B
100
AcDbSymbolTableRecord
100
AcDbBlockTableRecord
2
*PAPER_SPACE
0
ENDTAB
0
ENDSEC
0
SECTION
2
BLOCKS
0
BLOCK
5
20
100
AcDbEntity
100
AcDbBlockBegin
2
*MODEL_SPACE
0
ENDBLK
5
21
100
AcDbEntity
100
AcDbBlockEnd
0
BLOCK
5
1C
100
AcDbEntity
100
AcDbBlockBegin
2
*PAPER_SPACE
0
ENDBLK
5
1D
100
AcDbEntity
100
AcDbBlockEnd
0
ENDSEC
0
SECTION
2
ENTITIES
0
LWPOLYLINE
5
100
100
AcDbEntity
8
0
100
AcDbPolyline
90
8
70
1
43
0.0
10
0.47680321062784969
20
94.196284841295153
10
-238.59999999999999
20
94.196284841295153
10
-238.59999999999999
20
75.146284841295142
10
-257.65000000000003
20
75.146284841295142
10
-257.65000000000003
20
56.096284841295144
10
-286.22500000000002
20
56.096284841295144
10
-286.22500000000002
20
-2.0037151587048463
10
0.47680321062785003
20
-2.0037151587048285
0
LWPOLYLINE
5
101
100
AcDbEntity
8
0
100
AcDbPolyline
90
8
70
1
43
0.0
10
-311.47513512369204
20
-17.585089326995789
42
-0.41421356237309453
10
-316.47513512369204
20
-12.585089326995806
10
-316.47513512369198
20
103.98391067300423
42
-0.41421356237309293
10
-311.4751351236921
20
108.98391067300422
10
3.5018648763079514
20
108.98391067300422
42
-0.41421356237309426
10
8.5018648763079607
20
103.98391067300423
10
8.5018648763079678
20
-12.585089326995792
42
-0.41421356237309503
10
3.5018648763079696
20
-17.585089326995792
0
LWPOLYLINE
5
102
100
AcDbEntity
8
0
100
AcDbPolyline
90
4
70
1
43
0.0
10
-304.63441570257049
20
19.662341909117771
10
-290.63441570257061
20
19.662341909117771
10
-290.63441570257061
20
59.662341909117771
10
-304.63441570257049
20
59.662341909117771
0
LWPOLYLINE
5
103
100
AcDbEntity
8
0
100
AcDbPolyline
90
8
70
1
43
0.0
10
-281.46250000000003
20
78.958784841295127
10
-281.46250000000003
20
59.908784841295159
10
-261.46249999999998
20
59.908784841295159
10
-261.46249999999998
20
78.958784841295127
10
-242.41250000000002
20
78.958784841295127
10
-242.41250000000002
20
98.95878484129517
10
-300.5125000000001
20
98.95878484129517
10
-300.5125000000001
20
78.958784841295127
0
CIRCLE
5
104
100
AcDbEntity
8
0
100
AcDbCircle
10
-297.65623814634819
20
7.983622279634508
30
0
40
8.4999999999999787
210
0
220
-1.0691058840368783e-50
230
1
0
CIRCLE
5
105
100
AcDbEntity
8
0
100
AcDbCircle
10
0.47680321062784969
20
-10.559994395641334
30
2.2204460492503131e-15
40
1.5500000000000003
210
0
220
-1.0691058840368783e-50
230
1
0
CIRCLE
5
106
100
AcDbEntity
8
0
100
AcDbCircle
10
-308.45007345801196
20
101.95881574164972
30
-2.2204460492503131e-15
40
1.5500000000000114
210
0
220
0
230
1
0
CIRCLE
5
107
100
AcDbEntity
8
0
100
AcDbCircle
10
0.47680321062784942
20
101.95881574164972
30
-2.2204460492503131e-15
40
1.5500000000000003
210
0
220
-1.0691058840368783e-50
230
1
0
CIRCLE
5
108
100
AcDbEntity
8
0
100
AcDbCircle
10
-308.45007345801196
20
-10.559994395641333
30
2.2204460492503131e-15
40
1.5500000000000114
210
0
220
0
230
1
0
CIRCLE
5
109
100
AcDbEntity
8
0
100
AcDbCircle
10
-100.99241595653208
20
-10.559994395641345
30
0
40
1.5499999999999936
210
-6.1629758220391547e-33
220
-1.0691058840368783e-50
230
1
0
CIRCLE
5
110
100
AcDbEntity
8
0
100
AcDbCircle
10
-206.98085429085199
20
101.95881574164972
30
0
40
1.5500000000000114
210
0
220
0
230
1
0
CIRCLE
5
111
100
AcDbEntity
8
0
100
AcDbCircle
10
-100.99241595653208
20
101.95881574164972
30
0
40
1.5499999999999936
210
-6.1629758220391547e-33
220
-1.0691058840368783e-50
230
1
0
CIRCLE
5
112
100
AcDbEntity
8
0
100
AcDbCircle
10
-206.98085429085199
20
-10.559994395641336
30
4.4408920985006262e-15
40
1.5500000000000114
210
0
220
0
230
1
0
ENDSEC
0
SECTION
2
OBJECTS
0
DICTIONARY
5
C
100
AcDbDictionary
3
ACAD_GROUP
350
D
3
ACAD_MLINESTYLE
350
17
0
DICTIONARY
5
D
100
AcDbDictionary
0
DICTIONARY
5
1A
330
C
100
AcDbDictionary
0
DICTIONARY
5
17
100
AcDbDictionary
0
ENDSEC
0
EOF
