  0
SECTION
  2
HEADER
  9
$ACADVER
  1
AC1024
  9
$ACADMAINTVER
 70
     6
  9
$DWGCODEPAGE
  3
ANSI_1252
  9
$INSBASE
 10
0.0
 20
0.0
 30
0.0
  9
$EXTMIN
 10
1.000000000000000E+20
 20
1.000000000000000E+20
 30
1.000000000000000E+20
  9
$EXTMAX
 10
-1.000000000000000E+20
 20
-1.000000000000000E+20
 30
-1.000000000000000E+20
  9
$LIMMIN
 10
0.0
 20
0.0
  9
$LIMMAX
 10
12.0
 20
9.0
  9
$ORTHOMODE
 70
     0
  9
$REGENMODE
 70
     1
  9
$FILLMODE
 70
     1
  9
$QTEXTMODE
 70
     0
  9
$MIRRTEXT
 70
     1
  9
$LTSCALE
 40
1.0
  9
$ATTMODE
 70
     1
  9
$TEXTSIZE
 40
0.2
  9
$TRACEWID
 40
0.05
  9
$TEXTSTYLE
  7
Standard
  9
$CLAYER
  8
0
  9
$CELTYPE
  6
ByLayer
  9
$CECOLOR
 62
   256
  9
$CELTSCALE
 40
1.0
  9
$DISPSILH
 70
     0
  9
$DIMSCALE
 40
1.0
  9
$DIMASZ
 40
0.18
  9
$DIMEXO
 40
0.0625
  9
$DIMDLI
 40
0.38
  9
$DIMRND
 40
0.0
  9
$DIMDLE
 40
0.0
  9
$DIMEXE
 40
0.18
  9
$DIMTP
 40
0.0
  9
$DIMTM
 40
0.0
  9
$DIMTXT
 40
0.18
  9
$DIMCEN
 40
0.09
  9
$DIMTSZ
 40
0.0
  9
$DIMTOL
 70
     0
  9
$DIMLIM
 70
     0
  9
$DIMTIH
 70
     1
  9
$DIMTOH
 70
     1
  9
$DIMSE1
 70
     0
  9
$DIMSE2
 70
     0
  9
$DIMTAD
 70
     0
  9
$DIMZIN
 70
     0
  9
$DIMBLK
  1

  9
$DIMASO
 70
     1
  9
$DIMSHO
 70
     1
  9
$DIMPOST
  1

  9
$DIMAPOST
  1

  9
$DIMALT
 70
     0
  9
$DIMALTD
 70
     2
  9
$DIMALTF
 40
25.4
  9
$DIMLFAC
 40
1.0
  9
$DIMTOFL
 70
     0
  9
$DIMTVP
 40
0.0
  9
$DIMTIX
 70
     0
  9
$DIMSOXD
 70
     0
  9
$DIMSAH
 70
     0
  9
$DIMBLK1
  1

  9
$DIMBLK2
  1

  9
$DIMSTYLE
  2
Standard
  9
$DIMCLRD
 70
     0
  9
$DIMCLRE
 70
     0
  9
$DIMCLRT
 70
     0
  9
$DIMTFAC
 40
1.0
  9
$DIMGAP
 40
0.09
  9
$DIMJUST
 70
     0
  9
$DIMSD1
 70
     0
  9
$DIMSD2
 70
     0
  9
$DIMTOLJ
 70
     1
  9
$DIMTZIN
 70
     0
  9
$DIMALTZ
 70
     0
  9
$DIMALTTZ
 70
     0
  9
$DIMUPT
 70
     0
  9
$DIMDEC
 70
     4
  9
$DIMTDEC
 70
     4
  9
$DIMALTU
 70
     2
  9
$DIMALTTD
 70
     2
  9
$DIMTXSTY
  7
Standard
  9
$DIMAUNIT
 70
     0
  9
$DIMADEC
 70
     0
  9
$DIMALTRND
 40
0.0
  9
$DIMAZIN
 70
     0
  9
$DIMDSEP
 70
    46
  9
$DIMATFIT
 70
     3
  9
$DIMFRAC
 70
     0
  9
$DIMLDRBLK
  1

  9
$DIMLUNIT
 70
     2
  9
$DIMLWD
 70
    -2
  9
$DIMLWE
 70
    -2
  9
$DIMTMOVE
 70
     0
  9
$DIMFXL
 40
1.0
  9
$DIMFXLON
 70
     0
  9
$DIMJOGANG
 40
0.7853981633974483
  9
$DIMTFILL
 70
     0
  9
$DIMTFILLCLR
 70
     0
  9
$DIMARCSYM
 70
     0
  9
$DIMLTYPE
  6

  9
$DIMLTEX1
  6

  9
$DIMLTEX2
  6

  9
$DIMTXTDIRECTION
 70
     0
  9
$LUNITS
 70
     2
  9
$LUPREC
 70
     4
  9
$SKETCHINC
 40
0.1
  9
$FILLETRAD
 40
0.5
  9
$AUNITS
 70
     0
  9
$AUPREC
 70
     0
  9
$MENU
  1
.
  9
$ELEVATION
 40
0.0
  9
$PELEVATION
 40
0.0
  9
$THICKNESS
 40
0.0
  9
$LIMCHECK
 70
     0
  9
$CHAMFERA
 40
0.5
  9
$CHAMFERB
 40
0.5
  9
$CHAMFERC
 40
1.0
  9
$CHAMFERD
 40
0.0
  9
$SKPOLY
 70
     0
  9
$TDCREATE
 40
2459171.844152963
  9
$TDUCREATE
 40
2459172.177486296
  9
$TDUPDATE
 40
2459171.844152986
  9
$TDUUPDATE
 40
2459172.17748632
  9
$TDINDWG
 40
0.0000000116
  9
$TDUSRTIMER
 40
0.0000000116
  9
$USRTIMER
 70
     1
  9
$ANGBASE
 50
0.0
  9
$ANGDIR
 70
     0
  9
$PDMODE
 70
     0
  9
$PDSIZE
 40
0.0
  9
$PLINEWID
 40
0.0
  9
$SPLFRAME
 70
     0
  9
$SPLINETYPE
 70
     6
  9
$SPLINESEGS
 70
     8
  9
$HANDSEED
  5
C4
  9
$SURFTAB1
 70
     6
  9
$SURFTAB2
 70
     6
  9
$SURFTYPE
 70
     6
  9
$SURFU
 70
     6
  9
$SURFV
 70
     6
  9
$UCSBASE
  2

  9
$UCSNAME
  2

  9
$UCSORG
 10
0.0
 20
0.0
 30
0.0
  9
$UCSXDIR
 10
1.0
 20
0.0
 30
0.0
  9
$UCSYDIR
 10
0.0
 20
1.0
 30
0.0
  9
$UCSORTHOREF
  2

  9
$UCSORTHOVIEW
 70
     0
  9
$UCSORGTOP
 10
0.0
 20
0.0
 30
0.0
  9
$UCSORGBOTTOM
 10
0.0
 20
0.0
 30
0.0
  9
$UCSORGLEFT
 10
0.0
 20
0.0
 30
0.0
  9
$UCSORGRIGHT
 10
0.0
 20
0.0
 30
0.0
  9
$UCSORGFRONT
 10
0.0
 20
0.0
 30
0.0
  9
$UCSORGBACK
 10
0.0
 20
0.0
 30
0.0
  9
$PUCSBASE
  2

  9
$PUCSNAME
  2

  9
$PUCSORG
 10
0.0
 20
0.0
 30
0.0
  9
$PUCSXDIR
 10
1.0
 20
0.0
 30
0.0
  9
$PUCSYDIR
 10
0.0
 20
1.0
 30
0.0
  9
$PUCSORTHOREF
  2

  9
$PUCSORTHOVIEW
 70
     0
  9
$PUCSORGTOP
 10
0.0
 20
0.0
 30
0.0
  9
$PUCSORGBOTTOM
 10
0.0
 20
0.0
 30
0.0
  9
$PUCSORGLEFT
 10
0.0
 20
0.0
 30
0.0
  9
$PUCSORGRIGHT
 10
0.0
 20
0.0
 30
0.0
  9
$PUCSORGFRONT
 10
0.0
 20
0.0
 30
0.0
  9
$PUCSORGBACK
 10
0.0
 20
0.0
 30
0.0
  9
$USERI1
 70
     0
  9
$USERI2
 70
     0
  9
$USERI3
 70
     0
  9
$USERI4
 70
     0
  9
$USERI5
 70
     0
  9
$USERR1
 40
0.0
  9
$USERR2
 40
0.0
  9
$USERR3
 40
0.0
  9
$USERR4
 40
0.0
  9
$USERR5
 40
0.0
  9
$WORLDVIEW
 70
     1
  9
$SHADEDGE
 70
     3
  9
$SHADEDIF
 70
    70
  9
$TILEMODE
 70
     1
  9
$MAXACTVP
 70
    64
  9
$PINSBASE
 10
0.0
 20
0.0
 30
0.0
  9
$PLIMCHECK
 70
     0
  9
$PEXTMIN
 10
1.000000000000000E+20
 20
1.000000000000000E+20
 30
1.000000000000000E+20
  9
$PEXTMAX
 10
-1.000000000000000E+20
 20
-1.000000000000000E+20
 30
-1.000000000000000E+20
  9
$PLIMMIN
 10
0.0
 20
0.0
  9
$PLIMMAX
 10
12.0
 20
9.0
  9
$UNITMODE
 70
     0
  9
$VISRETAIN
 70
     1
  9
$PLINEGEN
 70
     0
  9
$PSLTSCALE
 70
     1
  9
$TREEDEPTH
 70
  3020
  9
$CMLSTYLE
  2
Standard
  9
$CMLJUST
 70
     0
  9
$CMLSCALE
 40
1.0
  9
$PROXYGRAPHICS
 70
     1
  9
$MEASUREMENT
 70
     0
  9
$CELWEIGHT
370
    -1
  9
$ENDCAPS
280
     0
  9
$JOINSTYLE
280
     0
  9
$LWDISPLAY
290
     1
  9
$INSUNITS
 70
     4
  9
$HYPERLINKBASE
  1

  9
$STYLESHEET
  1

  9
$XEDIT
290
     1
  9
$CEPSNTYPE
380
     0
  9
$PSTYLEMODE
290
     1
  9
$FINGERPRINTGUID
  2
{88EE0CBA-690E-4414-AA09-1A1B2F99365D}
  9
$VERSIONGUID
  2
{FAEB1C32-E019-11D5-929B-00C0DF256EC4}
  9
$EXTNAMES
290
     1
  9
$PSVPSCALE
 40
0.0
  9
$OLESTARTUP
290
     0
  9
$SORTENTS
280
   127
  9
$INDEXCTL
280
     0
  9
$HIDETEXT
280
     1
  9
$XCLIPFRAME
280
     2
  9
$HALOGAP
280
     0
  9
$OBSCOLOR
 70
   257
  9
$OBSLTYPE
280
     0
  9
$INTERSECTIONDISPLAY
280
     0
  9
$INTERSECTIONCOLOR
 70
   257
  9
$DIMASSOC
280
     2
  9
$PROJECTNAME
  1

  9
$CAMERADISPLAY
290
     0
  9
$LENSLENGTH
 40
50.0
  9
$CAMERAHEIGHT
 40
0.0
  9
$STEPSPERSEC
 40
2.0
  9
$STEPSIZE
 40
6.0
  9
$3DDWFPREC
 40
2.0
  9
$PSOLWIDTH
 40
0.25
  9
$PSOLHEIGHT
 40
4.0
  9
$LOFTANG1
 40
1.570796326794897
  9
$LOFTANG2
 40
1.570796326794897
  9
$LOFTMAG1
 40
0.0
  9
$LOFTMAG2
 40
0.0
  9
$LOFTPARAM
 70
     7
  9
$LOFTNORMALS
280
     1
  9
$LATITUDE
 40
37.795
  9
$LONGITUDE
 40
-122.394
  9
$NORTHDIRECTION
 40
0.0
  9
$TIMEZONE
 70
 -8000
  9
$LIGHTGLYPHDISPLAY
280
     1
  9
$TILEMODELIGHTSYNCH
280
     1
  9
$CMATERIAL
347
3C
  9
$SOLIDHIST
280
     1
  9
$SHOWHIST
280
     1
  9
$DWFFRAME
280
     2
  9
$DGNFRAME
280
     2
  9
$REALWORLDSCALE
290
     1
  9
$INTERFERECOLOR
 62
   256
  9
$CSHADOW
280
     0
  9
$SHADOWPLANELOCATION
 40
0.0
  0
ENDSEC
  0
SECTION
  2
CLASSES
  0
CLASS
  1
ACDBDICTIONARYWDFLT
  2
AcDbDictionaryWithDefault
  3
ObjectDBX Classes
 90
        0
 91
        4
280
     0
281
     0
  0
CLASS
  1
VISUALSTYLE
  2
AcDbVisualStyle
  3
ObjectDBX Classes
 90
     4095
 91
        4
280
     0
281
     0
  0
CLASS
  1
MATERIAL
  2
AcDbMaterial
  3
ObjectDBX Classes
 90
     1153
 91
        4
280
     0
281
     0
  0
CLASS
  1
SUN
  2
AcDbSun
  3
SCENEOE
 90
     1024
 91
        4
280
     0
281
     0
  0
ENDSEC
  0
SECTION
  2
TABLES
  0
TABLE
  2
VPORT
  5
8
330
0
100
AcDbSymbolTable
 70
     1
  0
VPORT
  5
29
330
8
100
AcDbSymbolTableRecord
100
AcDbViewportTableRecord
  2
*Active
 70
     0
 10
0.0
 20
0.0
 11
1.0
 21
1.0
 12
0.0
 22
0.0
 13
0.0
 23
0.0
 14
0.5
 24
0.5
 15
0.5
 25
0.5
 16
0.0
 26
0.0
 36
1.0
 17
959.99999976
 27
539.999999865
 37
0.0
 40
1079.99999973
 41
1.777777777777778
 42
50.0
 43
0.0
 44
0.0
 50
0.0
 51
0.0
 71
     0
 72
   100
 73
     1
 74
     3
 75
     0
 76
     0
 77
     0
 78
     0
281
     0
 65
     1
110
0.0
120
0.0
130
0.0
111
1.0
121
0.0
131
0.0
112
0.0
122
1.0
132
0.0
 79
     0
146
0.0
 60
     3
 61
     5
292
     1
282
     1
141
0.0
142
0.0
 63
   250
361
3F
  0
ENDTAB
  0
TABLE
  2
LTYPE
  5
5
330
0
100
AcDbSymbolTable
 70
     1
  0
LTYPE
  5
14
330
5
100
AcDbSymbolTableRecord
100
AcDbLinetypeTableRecord
  2
ByBlock
 70
     0
  3

 72
    65
 73
     0
 40
0.0
  0
LTYPE
  5
15
330
5
100
AcDbSymbolTableRecord
100
AcDbLinetypeTableRecord
  2
ByLayer
 70
     0
  3

 72
    65
 73
     0
 40
0.0
  0
LTYPE
  5
16
330
5
100
AcDbSymbolTableRecord
100
AcDbLinetypeTableRecord
  2
Continuous
 70
     0
  3
Solid line
 72
    65
 73
     0
 40
0.0
  0
ENDTAB
  0
TABLE
  2
LAYER
  5
2
330
0
100
AcDbSymbolTable
 70
     1
  0
LAYER
  5
10
330
2
100
AcDbSymbolTableRecord
100
AcDbLayerTableRecord
  2
0
 70
     0
 62
     7
  6
Continuous
370
    -3
390
F
347
3E
  0
ENDTAB
  0
TABLE
  2
STYLE
  5
3
330
0
100
AcDbSymbolTable
 70
     1
  0
STYLE
  5
11
330
3
100
AcDbSymbolTableRecord
100
AcDbTextStyleTableRecord
  2
Standard
 70
     0
 40
0.0
 41
1.0
 50
0.0
 71
     0
 42
0.2
  3
txt
  4

  0
ENDTAB
  0
TABLE
  2
VIEW
  5
6
330
0
100
AcDbSymbolTable
 70
     0
  0
ENDTAB
  0
TABLE
  2
UCS
  5
7
330
0
100
AcDbSymbolTable
 70
     0
  0
ENDTAB
  0
TABLE
  2
APPID
  5
9
330
0
100
AcDbSymbolTable
 70
     1
  0
APPID
  5
12
330
9
100
AcDbSymbolTableRecord
100
AcDbRegAppTableRecord
  2
ACAD
 70
     0
  0
ENDTAB
  0
TABLE
  2
DIMSTYLE
  5
A
330
0
100
AcDbSymbolTable
 70
     1
100
AcDbDimStyleTable
  0
DIMSTYLE
105
27
330
A
100
AcDbSymbolTableRecord
100
AcDbDimStyleTableRecord
  2
Standard
 70
     0
178
     0
340
11
  0
ENDTAB
  0
TABLE
  2
BLOCK_RECORD
  5
1
330
0
100
AcDbSymbolTable
 70
    15
  0
BLOCK_RECORD
  5
1F
330
1
100
AcDbSymbolTableRecord
100
AcDbBlockTableRecord
  2
*Model_Space
340
22
 70
     0
280
     1
281
     0
  0
BLOCK_RECORD
  5
1B
330
1
100
AcDbSymbolTableRecord
100
AcDbBlockTableRecord
  2
*Paper_Space
340
1E
 70
     0
280
     1
281
     0
  0
BLOCK_RECORD
  5
23
330
1
100
AcDbSymbolTableRecord
100
AcDbBlockTableRecord
  2
*Paper_Space0
340
26
 70
     0
280
     1
281
     0
  0
BLOCK_RECORD
  5
40
330
1
100
AcDbSymbolTableRecord
100
AcDbBlockTableRecord
  2
block 2
340
0
102
{BLKREFS
331
41
102
}
 70
     0
280
     1
281
     0
  0
BLOCK_RECORD
  5
4F
330
1
100
AcDbSymbolTableRecord
100
AcDbBlockTableRecord
  2
block 3
340
0
102
{BLKREFS
331
50
102
}
 70
     0
280
     1
281
     0
  0
BLOCK_RECORD
  5
54
330
1
100
AcDbSymbolTableRecord
100
AcDbBlockTableRecord
  2
block 4
340
0
102
{BLKREFS
331
55
102
}
 70
     0
280
     1
281
     0
  0
BLOCK_RECORD
  5
5F
330
1
100
AcDbSymbolTableRecord
100
AcDbBlockTableRecord
  2
block 5
340
0
102
{BLKREFS
331
60
102
}
 70
     0
280
     1
281
     0
  0
BLOCK_RECORD
  5
6E
330
1
100
AcDbSymbolTableRecord
100
AcDbBlockTableRecord
  2
block 6
340
0
102
{BLKREFS
331
6F
102
}
 70
     0
280
     1
281
     0
  0
BLOCK_RECORD
  5
73
330
1
100
AcDbSymbolTableRecord
100
AcDbBlockTableRecord
  2
block 7
340
0
102
{BLKREFS
331
74
102
}
 70
     0
280
     1
281
     0
  0
BLOCK_RECORD
  5
78
330
1
100
AcDbSymbolTableRecord
100
AcDbBlockTableRecord
  2
block 8
340
0
102
{BLKREFS
331
79
102
}
 70
     0
280
     1
281
     0
  0
BLOCK_RECORD
  5
7D
330
1
100
AcDbSymbolTableRecord
100
AcDbBlockTableRecord
  2
block 9
340
0
102
{BLKREFS
331
7E
102
}
 70
     0
280
     1
281
     0
  0
BLOCK_RECORD
  5
82
330
1
100
AcDbSymbolTableRecord
100
AcDbBlockTableRecord
  2
block 10
340
0
102
{BLKREFS
331
83
102
}
 70
     0
280
     1
281
     0
  0
BLOCK_RECORD
  5
87
330
1
100
AcDbSymbolTableRecord
100
AcDbBlockTableRecord
  2
block 11
340
0
102
{BLKREFS
331
88
102
}
 70
     0
280
     1
281
     0
  0
BLOCK_RECORD
  5
8C
330
1
100
AcDbSymbolTableRecord
100
AcDbBlockTableRecord
  2
block 12
340
0
102
{BLKREFS
331
8D
102
}
 70
     0
280
     1
281
     0
  0
BLOCK_RECORD
  5
91
330
1
100
AcDbSymbolTableRecord
100
AcDbBlockTableRecord
  2
block 13
340
0
102
{BLKREFS
331
92
102
}
 70
     0
280
     1
281
     0
  0
BLOCK_RECORD
  5
96
330
1
100
AcDbSymbolTableRecord
100
AcDbBlockTableRecord
  2
block 14
340
0
102
{BLKREFS
331
97
102
}
 70
     0
280
     1
281
     0
  0
BLOCK_RECORD
  5
9B
330
1
100
AcDbSymbolTableRecord
100
AcDbBlockTableRecord
  2
block 15
340
0
102
{BLKREFS
331
9C
102
}
 70
     0
280
     1
281
     0
  0
ENDTAB
  0
ENDSEC
  0
SECTION
  2
BLOCKS
  0
BLOCK
  5
20
330
1F
100
AcDbEntity
  8
0
100
AcDbBlockBegin
  2
*Model_Space
 70
     0
 10
0.0
 20
0.0
 30
0.0
  3
*Model_Space
  1

  0
ENDBLK
  5
21
330
1F
100
AcDbEntity
  8
0
100
AcDbBlockEnd
  0
BLOCK
  5
1C
330
1B
100
AcDbEntity
 67
     1
  8
0
100
AcDbBlockBegin
  2
*Paper_Space
 70
     0
 10
0.0
 20
0.0
 30
0.0
  3
*Paper_Space
  1

  0
ENDBLK
  5
1D
330
1B
100
AcDbEntity
 67
     1
  8
0
100
AcDbBlockEnd
  0
BLOCK
  5
24
330
23
100
AcDbEntity
  8
0
100
AcDbBlockBegin
  2
*Paper_Space0
 70
     0
 10
0.0
 20
0.0
 30
0.0
  3
*Paper_Space0
  1

  0
ENDBLK
  5
25
330
23
100
AcDbEntity
  8
0
100
AcDbBlockEnd
  0
BLOCK
  5
42
330
40
100
AcDbEntity
  8
0
100
AcDbBlockBegin
  2
block 2
 70
     0
 10
0.0
 20
0.0
 30
0.0
  3
block 2
  1

  0
POLYLINE
  5
44
330
40
100
AcDbEntity
  8
0
 62
     7
420
 16777215
370
    25
100
AcDb2dPolyline
 66
     1
 10
0.0
 20
0.0
 30
0.0
  0
VERTEX
  5
45
330
44
100
AcDbEntity
  8
0
 62
     7
420
 16777215
370
    25
100
AcDbVertex
100
AcDb2dVertex
 10
1114.963438055579
 20
588.9968740210422
 30
0.0
  0
VERTEX
  5
46
330
44
100
AcDbEntity
  8
0
 62
     7
420
 16777215
370
    25
100
AcDbVertex
100
AcDb2dVertex
 10
875.8866349047204
 20
588.9968740210422
 30
0.0
  0
VERTEX
  5
47
330
44
100
AcDbEntity
  8
0
 62
     7
420
 16777215
370
    25
100
AcDbVertex
100
AcDb2dVertex
 10
875.8866349047204
 20
569.9468740258045
 30
0.0
  0
VERTEX
  5
48
330
44
100
AcDbEntity
  8
0
 62
     7
420
 16777215
370
    25
100
AcDbVertex
100
AcDb2dVertex
 10
856.8366349094827
 20
569.9468740258045
 30
0.0
  0
VERTEX
  5
49
330
44
100
AcDbEntity
  8
0
 62
     7
420
 16777215
370
    25
100
AcDbVertex
100
AcDb2dVertex
 10
856.8366349094827
 20
550.8968740305669
 30
0.0
  0
VERTEX
  5
4A
330
44
100
AcDbEntity
  8
0
 62
     7
420
 16777215
370
    25
100
AcDbVertex
100
AcDb2dVertex
 10
828.2616349166266
 20
550.8968740305669
 30
0.0
  0
VERTEX
  5
4B
330
44
100
AcDbEntity
  8
0
 62
     7
420
 16777215
370
    25
100
AcDbVertex
100
AcDb2dVertex
 10
828.2616349166266
 20
492.7968740450915
 30
0.0
  0
VERTEX
  5
4C
330
44
100
AcDbEntity
  8
0
 62
     7
420
 16777215
370
    25
100
AcDbVertex
100
AcDb2dVertex
 10
1114.963438055579
 20
492.7968740450915
 30
0.0
  0
VERTEX
  5
4D
330
44
100
AcDbEntity
  8
0
 62
     7
420
 16777215
370
    25
100
AcDbVertex
100
AcDb2dVertex
 10
1114.963438055579
 20
588.9968740210422
 30
0.0
  0
SEQEND
  5
4E
330
44
100
AcDbEntity
  8
0
 62
     7
420
 16777215
370
    25
  0
ENDBLK
  5
43
330
40
100
AcDbEntity
  8
0
100
AcDbBlockEnd
  0
BLOCK
  5
51
330
4F
100
AcDbEntity
  8
0
100
AcDbBlockBegin
  2
block 3
 70
     0
 10
0.0
 20
0.0
 30
0.0
  3
block 3
  1

  0
SPLINE
  5
53
330
4F
100
AcDbEntity
  8
0
 62
     7
420
 16777215
370
    25
100
AcDbSpline
210
0.0
220
0.0
230
1.0
 70
    11
 71
     3
 72
    29
 73
    25
 74
     0
 42
0.0000000001
 43
0.0000000001
 12
1.0
 22
0.0
 32
0.0
 13
1.0
 23
0.0
 33
0.0
 40
0.0
 40
0.0
 40
0.0
 40
0.0
 40
1.0
 40
1.0
 40
1.0
 40
2.0
 40
2.0
 40
2.0
 40
3.0
 40
3.0
 40
3.0
 40
4.0
 40
4.0
 40
4.0
 40
5.0
 40
5.0
 40
5.0
 40
6.0
 40
6.0
 40
6.0
 40
7.0
 40
7.0
 40
7.0
 40
8.0
 40
8.0
 40
8.0
 40
8.0
 10
803.0114997992467
 20
477.2154998806964
 30
0.0
 10
800.2500760507836
 20
477.2154998806964
 30
0.0
 10
798.0114998004967
 20
479.4540761309823
 30
0.0
 10
798.0114998004967
 20
482.2154998794464
 30
0.0
 10
798.0114998004967
 20
482.2154998794464
 30
0.0
 10
798.0114998004967
 20
598.7844998503036
 30
0.0
 10
798.0114998004967
 20
598.7844998503036
 30
0.0
 10
798.0114998004967
 20
601.5459235987676
 30
0.0
 10
800.2500760507836
 20
603.7844998490536
 30
0.0
 10
803.0114997992467
 20
603.7844998490536
 30
0.0
 10
803.0114997992467
 20
603.7844998490536
 30
0.0
 10
1117.988499720502
 20
603.7844998490536
 30
0.0
 10
1117.988499720502
 20
603.7844998490536
 30
0.0
 10
1120.749923468966
 20
603.7844998490536
 30
0.0
 10
1122.988499719252
 20
601.5459235987676
 30
0.0
 10
1122.988499719252
 20
598.7844998503036
 30
0.0
 10
1122.988499719252
 20
598.7844998503036
 30
0.0
 10
1122.988499719252
 20
482.2154998794464
 30
0.0
 10
1122.988499719252
 20
482.2154998794464
 30
0.0
 10
1122.988499719252
 20
479.4540761309823
 30
0.0
 10
1120.749923468966
 20
477.2154998806964
 30
0.0
 10
1117.988499720502
 20
477.2154998806964
 30
0.0
 10
1117.988499720502
 20
477.2154998806964
 30
0.0
 10
803.0114997992467
 20
477.2154998806964
 30
0.0
 10
803.0114997992467
 20
477.2154998806964
 30
0.0
  0
ENDBLK
  5
52
330
4F
100
AcDbEntity
  8
0
100
AcDbBlockEnd
  0
BLOCK
  5
56
330
54
100
AcDbEntity
  8
0
100
AcDbBlockBegin
  2
block 4
 70
     0
 10
0.0
 20
0.0
 30
0.0
  3
block 4
  1

  0
POLYLINE
  5
58
330
54
100
AcDbEntity
  8
0
 62
     7
420
 16777215
370
    25
100
AcDb2dPolyline
 66
     1
 10
0.0
 20
0.0
 30
0.0
  0
VERTEX
  5
59
330
58
100
AcDbEntity
  8
0
 62
     7
420
 16777215
370
    25
100
AcDbVertex
100
AcDb2dVertex
 10
809.8522192186588
 20
514.4629311074982
 30
0.0
  0
VERTEX
  5
5A
330
58
100
AcDbEntity
  8
0
 62
     7
420
 16777215
370
    25
100
AcDbVertex
100
AcDb2dVertex
 10
823.8522192151579
 20
514.4629311074982
 30
0.0
  0
VERTEX
  5
5B
330
58
100
AcDbEntity
  8
0
 62
     7
420
 16777215
370
    25
100
AcDbVertex
100
AcDb2dVertex
 10
823.8522192151588
 20
554.4629310974982
 30
0.0
  0
VERTEX
  5
5C
330
58
100
AcDbEntity
  8
0
 62
     7
420
 16777215
370
    25
100
AcDbVertex
100
AcDb2dVertex
 10
809.8522192186588
 20
554.4629310974982
 30
0.0
  0
VERTEX
  5
5D
330
58
100
AcDbEntity
  8
0
 62
     7
420
 16777215
370
    25
100
AcDbVertex
100
AcDb2dVertex
 10
809.8522192186588
 20
514.4629311074982
 30
0.0
  0
SEQEND
  5
5E
330
58
100
AcDbEntity
  8
0
 62
     7
420
 16777215
370
    25
  0
ENDBLK
  5
57
330
54
100
AcDbEntity
  8
0
100
AcDbBlockEnd
  0
BLOCK
  5
61
330
5F
100
AcDbEntity
  8
0
100
AcDbBlockBegin
  2
block 5
 70
     0
 10
0.0
 20
0.0
 30
0.0
  3
block 5
  1

  0
POLYLINE
  5
63
330
5F
100
AcDbEntity
  8
0
 62
     7
420
 16777215
370
    25
100
AcDb2dPolyline
 66
     1
 10
0.0
 20
0.0
 30
0.0
  0
VERTEX
  5
64
330
63
100
AcDbEntity
  8
0
 62
     7
420
 16777215
370
    25
100
AcDbVertex
100
AcDb2dVertex
 10
833.0241349154358
 20
573.7593740248515
 30
0.0
  0
VERTEX
  5
65
330
63
100
AcDbEntity
  8
0
 62
     7
420
 16777215
370
    25
100
AcDbVertex
100
AcDb2dVertex
 10
833.0241349154358
 20
554.7093740296137
 30
0.0
  0
VERTEX
  5
66
330
63
100
AcDbEntity
  8
0
 62
     7
420
 16777215
370
    25
100
AcDbVertex
100
AcDb2dVertex
 10
853.0241349104358
 20
554.7093740296137
 30
0.0
  0
VERTEX
  5
67
330
63
100
AcDbEntity
  8
0
 62
     7
420
 16777215
370
    25
100
AcDbVertex
100
AcDb2dVertex
 10
853.0241349104358
 20
573.7593740248515
 30
0.0
  0
VERTEX
  5
68
330
63
100
AcDbEntity
  8
0
 62
     7
420
 16777215
370
    25
100
AcDbVertex
100
AcDb2dVertex
 10
872.0741349056735
 20
573.7593740248515
 30
0.0
  0
VERTEX
  5
69
330
63
100
AcDbEntity
  8
0
 62
     7
420
 16777215
370
    25
100
AcDbVertex
100
AcDb2dVertex
 10
872.0741349056735
 20
593.7593740198514
 30
0.0
  0
VERTEX
  5
6A
330
63
100
AcDbEntity
  8
0
 62
     7
420
 16777215
370
    25
100
AcDbVertex
100
AcDb2dVertex
 10
813.9741349201981
 20
593.7593740198514
 30
0.0
  0
VERTEX
  5
6B
330
63
100
AcDbEntity
  8
0
 62
     7
420
 16777215
370
    25
100
AcDbVertex
100
AcDb2dVertex
 10
813.9741349201981
 20
573.7593740248515
 30
0.0
  0
VERTEX
  5
6C
330
63
100
AcDbEntity
  8
0
 62
     7
420
 16777215
370
    25
100
AcDbVertex
100
AcDb2dVertex
 10
833.0241349154358
 20
573.7593740248515
 30
0.0
  0
SEQEND
  5
6D
330
63
100
AcDbEntity
  8
0
 62
     7
420
 16777215
370
    25
  0
ENDBLK
  5
62
330
5F
100
AcDbEntity
  8
0
100
AcDbBlockEnd
  0
BLOCK
  5
70
330
6E
100
AcDbEntity
  8
0
100
AcDbBlockBegin
  2
block 6
 70
     0
 10
0.0
 20
0.0
 30
0.0
  3
block 6
  1

  0
SPLINE
  5
72
330
6E
100
AcDbEntity
  8
0
 62
     7
420
 16777215
370
    25
100
AcDbSpline
210
0.0
220
0.0
230
1.0
 70
    11
 71
     3
 72
    20
 73
    16
 74
     0
 42
0.0000000001
 43
0.0000000001
 12
1.0
 22
0.0
 32
0.0
 13
1.0
 23
0.0
 33
0.0
 40
0.0
 40
0.0
 40
0.0
 40
0.0
 40
1.0
 40
1.0
 40
1.0
 40
2.0
 40
2.0
 40
2.0
 40
3.0
 40
3.0
 40
3.0
 40
4.0
 40
4.0
 40
4.0
 40
5.0
 40
5.0
 40
5.0
 40
5.0
 10
808.3303967752616
 20
502.7842114809334
 30
0.0
 10
808.3303967752616
 20
507.4786318533218
 30
0.0
 10
812.1359764007482
 20
511.2842114788084
 30
0.0
 10
816.8303967731366
 20
511.2842114788084
 30
0.0
 10
821.5248171455241
 20
511.2842114788084
 30
0.0
 10
825.3303967710116
 20
507.4786318533218
 30
0.0
 10
825.3303967710116
 20
502.7842114809334
 30
0.0
 10
825.3303967710116
 20
498.0897911085468
 30
0.0
 10
821.5248171455241
 20
494.2842114830584
 30
0.0
 10
816.8303967731366
 20
494.2842114830584
 30
0.0
 10
812.1359764007482
 20
494.2842114830584
 30
0.0
 10
808.3303967752616
 20
498.0897911085468
 30
0.0
 10
808.3303967752616
 20
502.7842114809334
 30
0.0
 10
808.3303967752616
 20
502.7842114809334
 30
0.0
 10
808.3303967752616
 20
502.7842114809334
 30
0.0
 10
808.3303967752616
 20
502.7842114809334
 30
0.0
  0
ENDBLK
  5
71
330
6E
100
AcDbEntity
  8
0
100
AcDbBlockEnd
  0
BLOCK
  5
75
330
73
100
AcDbEntity
  8
0
100
AcDbBlockBegin
  2
block 7
 70
     0
 10
0.0
 20
0.0
 30
0.0
  3
block 7
  1

  0
SPLINE
  5
77
330
73
100
AcDbEntity
  8
0
 62
     7
420
 16777215
370
    25
100
AcDbSpline
210
0.0
220
0.0
230
1.0
 70
    11
 71
     3
 72
    20
 73
    16
 74
     0
 42
0.0000000001
 43
0.0000000001
 12
1.0
 22
0.0
 32
0.0
 13
1.0
 23
0.0
 33
0.0
 40
0.0
 40
0.0
 40
0.0
 40
0.0
 40
1.0
 40
1.0
 40
1.0
 40
2.0
 40
2.0
 40
2.0
 40
3.0
 40
3.0
 40
3.0
 40
4.0
 40
4.0
 40
4.0
 40
5.0
 40
5.0
 40
5.0
 40
5.0
 10
1113.413438055966
 20
484.2405948102941
 30
0.0
 10
1113.413438055966
 20
485.0966361723182
 30
0.0
 10
1114.107396693555
 20
485.7905948099059
 30
0.0
 10
1114.963438055579
 20
485.7905948099059
 30
0.0
 10
1115.819479417603
 20
485.7905948099059
 30
0.0
 10
1116.513438055191
 20
485.0966361723182
 30
0.0
 10
1116.513438055191
 20
484.2405948102941
 30
0.0
 10
1116.513438055191
 20
483.38455344827
 30
0.0
 10
1115.819479417603
 20
482.6905948106823
 30
0.0
 10
1114.963438055579
 20
482.6905948106823
 30
0.0
 10
1114.107396693555
 20
482.6905948106823
 30
0.0
 10
1113.413438055966
 20
483.38455344827
 30
0.0
 10
1113.413438055966
 20
484.2405948102941
 30
0.0
 10
1113.413438055966
 20
484.2405948102941
 30
0.0
 10
1113.413438055966
 20
484.2405948102941
 30
0.0
 10
1113.413438055966
 20
484.2405948102941
 30
0.0
  0
ENDBLK
  5
76
330
73
100
AcDbEntity
  8
0
100
AcDbBlockEnd
  0
BLOCK
  5
7A
330
78
100
AcDbEntity
  8
0
100
AcDbBlockBegin
  2
block 8
 70
     0
 10
0.0
 20
0.0
 30
0.0
  3
block 8
  1

  0
SPLINE
  5
7C
330
78
100
AcDbEntity
  8
0
 62
     7
420
 16777215
370
    25
100
AcDbSpline
210
0.0
220
0.0
230
1.0
 70
    11
 71
     3
 72
    20
 73
    16
 74
     0
 42
0.0000000001
 43
0.0000000001
 12
1.0
 22
0.0
 32
0.0
 13
1.0
 23
0.0
 33
0.0
 40
0.0
 40
0.0
 40
0.0
 40
0.0
 40
1.0
 40
1.0
 40
1.0
 40
2.0
 40
2.0
 40
2.0
 40
3.0
 40
3.0
 40
3.0
 40
4.0
 40
4.0
 40
4.0
 40
5.0
 40
5.0
 40
5.0
 40
5.0
 10
804.4865614645581
 20
596.7594049194558
 30
0.0
 10
804.4865614645581
 20
597.6154462814791
 30
0.0
 10
805.1805201021467
 20
598.3094049190677
 30
0.0
 10
806.0365614641709
 20
598.3094049190686
 30
0.0
 10
806.8926028261949
 20
598.3094049190677
 30
0.0
 10
807.5865614637835
 20
597.6154462814791
 30
0.0
 10
807.5865614637835
 20
596.7594049194558
 30
0.0
 10
807.5865614637835
 20
595.9033635574318
 30
0.0
 10
806.8926028261949
 20
595.2094049198432
 30
0.0
 10
806.0365614641709
 20
595.2094049198432
 30
0.0
 10
805.1805201021467
 20
595.2094049198432
 30
0.0
 10
804.4865614645581
 20
595.9033635574318
 30
0.0
 10
804.4865614645581
 20
596.7594049194558
 30
0.0
 10
804.4865614645581
 20
596.7594049194558
 30
0.0
 10
804.4865614645581
 20
596.7594049194558
 30
0.0
 10
804.4865614645581
 20
596.7594049194558
 30
0.0
  0
ENDBLK
  5
7B
330
78
100
AcDbEntity
  8
0
100
AcDbBlockEnd
  0
BLOCK
  5
7F
330
7D
100
AcDbEntity
  8
0
100
AcDbBlockBegin
  2
block 9
 70
     0
 10
0.0
 20
0.0
 30
0.0
  3
block 9
  1

  0
SPLINE
  5
81
330
7D
100
AcDbEntity
  8
0
 62
     7
420
 16777215
370
    25
100
AcDbSpline
210
0.0
220
0.0
230
1.0
 70
    11
 71
     3
 72
    20
 73
    16
 74
     0
 42
0.0000000001
 43
0.0000000001
 12
1.0
 22
0.0
 32
0.0
 13
1.0
 23
0.0
 33
0.0
 40
0.0
 40
0.0
 40
0.0
 40
0.0
 40
1.0
 40
1.0
 40
1.0
 40
2.0
 40
2.0
 40
2.0
 40
3.0
 40
3.0
 40
3.0
 40
4.0
 40
4.0
 40
4.0
 40
5.0
 40
5.0
 40
5.0
 40
5.0
 10
1113.413438055966
 20
596.7594049194558
 30
0.0
 10
1113.413438055966
 20
597.6154462814791
 30
0.0
 10
1114.107396693555
 20
598.3094049190677
 30
0.0
 10
1114.963438055579
 20
598.3094049190677
 30
0.0
 10
1115.819479417603
 20
598.3094049190677
 30
0.0
 10
1116.513438055191
 20
597.6154462814791
 30
0.0
 10
1116.513438055191
 20
596.7594049194558
 30
0.0
 10
1116.513438055191
 20
595.9033635574318
 30
0.0
 10
1115.819479417603
 20
595.2094049198432
 30
0.0
 10
1114.963438055579
 20
595.2094049198432
 30
0.0
 10
1114.107396693555
 20
595.2094049198432
 30
0.0
 10
1113.413438055966
 20
595.9033635574318
 30
0.0
 10
1113.413438055966
 20
596.7594049194558
 30
0.0
 10
1113.413438055966
 20
596.7594049194558
 30
0.0
 10
1113.413438055966
 20
596.7594049194558
 30
0.0
 10
1113.413438055966
 20
596.7594049194558
 30
0.0
  0
ENDBLK
  5
80
330
7D
100
AcDbEntity
  8
0
100
AcDbBlockEnd
  0
BLOCK
  5
84
330
82
100
AcDbEntity
  8
0
100
AcDbBlockBegin
  2
block 10
 70
     0
 10
0.0
 20
0.0
 30
0.0
  3
block 10
  1

  0
SPLINE
  5
86
330
82
100
AcDbEntity
  8
0
 62
     7
420
 16777215
370
    25
100
AcDbSpline
210
0.0
220
0.0
230
1.0
 70
    11
 71
     3
 72
    20
 73
    16
 74
     0
 42
0.0000000001
 43
0.0000000001
 12
1.0
 22
0.0
 32
0.0
 13
1.0
 23
0.0
 33
0.0
 40
0.0
 40
0.0
 40
0.0
 40
0.0
 40
1.0
 40
1.0
 40
1.0
 40
2.0
 40
2.0
 40
2.0
 40
3.0
 40
3.0
 40
3.0
 40
4.0
 40
4.0
 40
4.0
 40
5.0
 40
5.0
 40
5.0
 40
5.0
 10
804.4865614645581
 20
484.2405948102941
 30
0.0
 10
804.4865614645581
 20
485.0966361723182
 30
0.0
 10
805.1805201021467
 20
485.7905948099059
 30
0.0
 10
806.0365614641709
 20
485.7905948099059
 30
0.0
 10
806.8926028261949
 20
485.7905948099059
 30
0.0
 10
807.5865614637835
 20
485.0966361723182
 30
0.0
 10
807.5865614637835
 20
484.2405948102941
 30
0.0
 10
807.5865614637835
 20
483.38455344827
 30
0.0
 10
806.8926028261949
 20
482.6905948106823
 30
0.0
 10
806.0365614641709
 20
482.6905948106823
 30
0.0
 10
805.1805201021467
 20
482.6905948106823
 30
0.0
 10
804.4865614645581
 20
483.38455344827
 30
0.0
 10
804.4865614645581
 20
484.2405948102941
 30
0.0
 10
804.4865614645581
 20
484.2405948102941
 30
0.0
 10
804.4865614645581
 20
484.2405948102941
 30
0.0
 10
804.4865614645581
 20
484.2405948102941
 30
0.0
  0
ENDBLK
  5
85
330
82
100
AcDbEntity
  8
0
100
AcDbBlockEnd
  0
BLOCK
  5
89
330
87
100
AcDbEntity
  8
0
100
AcDbBlockBegin
  2
block 11
 70
     0
 10
0.0
 20
0.0
 30
0.0
  3
block 11
  1

  0
SPLINE
  5
8B
330
87
100
AcDbEntity
  8
0
 62
     7
420
 16777215
370
    25
100
AcDbSpline
210
0.0
220
0.0
230
1.0
 70
    11
 71
     3
 72
    20
 73
    16
 74
     0
 42
0.0000000001
 43
0.0000000001
 12
1.0
 22
0.0
 32
0.0
 13
1.0
 23
0.0
 33
0.0
 40
0.0
 40
0.0
 40
0.0
 40
0.0
 40
1.0
 40
1.0
 40
1.0
 40
2.0
 40
2.0
 40
2.0
 40
3.0
 40
3.0
 40
3.0
 40
4.0
 40
4.0
 40
4.0
 40
5.0
 40
5.0
 40
5.0
 40
5.0
 10
1011.944218914174
 20
484.2405948102941
 30
0.0
 10
1011.944218914174
 20
485.0966361723182
 30
0.0
 10
1012.638177551762
 20
485.7905948099059
 30
0.0
 10
1013.494218913786
 20
485.7905948099059
 30
0.0
 10
1014.35026027581
 20
485.7905948099059
 30
0.0
 10
1015.044218913398
 20
485.0966361723182
 30
0.0
 10
1015.044218913398
 20
484.2405948102941
 30
0.0
 10
1015.044218913398
 20
483.38455344827
 30
0.0
 10
1014.35026027581
 20
482.6905948106823
 30
0.0
 10
1013.494218913786
 20
482.6905948106823
 30
0.0
 10
1012.638177551762
 20
482.6905948106823
 30
0.0
 10
1011.944218914174
 20
483.38455344827
 30
0.0
 10
1011.944218914174
 20
484.2405948102941
 30
0.0
 10
1011.944218914174
 20
484.2405948102941
 30
0.0
 10
1011.944218914174
 20
484.2405948102941
 30
0.0
 10
1011.944218914174
 20
484.2405948102941
 30
0.0
  0
ENDBLK
  5
8A
330
87
100
AcDbEntity
  8
0
100
AcDbBlockEnd
  0
BLOCK
  5
8E
330
8C
100
AcDbEntity
  8
0
100
AcDbBlockBegin
  2
block 12
 70
     0
 10
0.0
 20
0.0
 30
0.0
  3
block 12
  1

  0
SPLINE
  5
90
330
8C
100
AcDbEntity
  8
0
 62
     7
420
 16777215
370
    25
100
AcDbSpline
210
0.0
220
0.0
230
1.0
 70
    11
 71
     3
 72
    20
 73
    16
 74
     0
 42
0.0000000001
 43
0.0000000001
 12
1.0
 22
0.0
 32
0.0
 13
1.0
 23
0.0
 33
0.0
 40
0.0
 40
0.0
 40
0.0
 40
0.0
 40
1.0
 40
1.0
 40
1.0
 40
2.0
 40
2.0
 40
2.0
 40
3.0
 40
3.0
 40
3.0
 40
4.0
 40
4.0
 40
4.0
 40
5.0
 40
5.0
 40
5.0
 40
5.0
 10
905.955780606351
 20
596.7594049194558
 30
0.0
 10
905.955780606351
 20
597.6154462814791
 30
0.0
 10
906.6497392439396
 20
598.3094049190677
 30
0.0
 10
907.5057806059638
 20
598.3094049190686
 30
0.0
 10
908.3618219679869
 20
598.3094049190677
 30
0.0
 10
909.0557806055755
 20
597.6154462814791
 30
0.0
 10
909.0557806055764
 20
596.7594049194558
 30
0.0
 10
909.0557806055755
 20
595.9033635574318
 30
0.0
 10
908.3618219679869
 20
595.2094049198432
 30
0.0
 10
907.5057806059638
 20
595.2094049198432
 30
0.0
 10
906.6497392439396
 20
595.2094049198432
 30
0.0
 10
905.955780606351
 20
595.9033635574318
 30
0.0
 10
905.955780606351
 20
596.7594049194558
 30
0.0
 10
905.955780606351
 20
596.7594049194558
 30
0.0
 10
905.955780606351
 20
596.7594049194558
 30
0.0
 10
905.955780606351
 20
596.7594049194558
 30
0.0
  0
ENDBLK
  5
8F
330
8C
100
AcDbEntity
  8
0
100
AcDbBlockEnd
  0
BLOCK
  5
93
330
91
100
AcDbEntity
  8
0
100
AcDbBlockBegin
  2
block 13
 70
     0
 10
0.0
 20
0.0
 30
0.0
  3
block 13
  1

  0
SPLINE
  5
95
330
91
100
AcDbEntity
  8
0
 62
     7
420
 16777215
370
    25
100
AcDbSpline
210
0.0
220
0.0
230
1.0
 70
    11
 71
     3
 72
    20
 73
    16
 74
     0
 42
0.0000000001
 43
0.0000000001
 12
1.0
 22
0.0
 32
0.0
 13
1.0
 23
0.0
 33
0.0
 40
0.0
 40
0.0
 40
0.0
 40
0.0
 40
1.0
 40
1.0
 40
1.0
 40
2.0
 40
2.0
 40
2.0
 40
3.0
 40
3.0
 40
3.0
 40
4.0
 40
4.0
 40
4.0
 40
5.0
 40
5.0
 40
5.0
 40
5.0
 10
1011.944218914174
 20
596.7594049194558
 30
0.0
 10
1011.944218914174
 20
597.6154462814791
 30
0.0
 10
1012.638177551762
 20
598.3094049190677
 30
0.0
 10
1013.494218913786
 20
598.3094049190677
 30
0.0
 10
1014.35026027581
 20
598.3094049190677
 30
0.0
 10
1015.044218913398
 20
597.6154462814791
 30
0.0
 10
1015.044218913398
 20
596.7594049194558
 30
0.0
 10
1015.044218913398
 20
595.9033635574318
 30
0.0
 10
1014.35026027581
 20
595.2094049198432
 30
0.0
 10
1013.494218913786
 20
595.2094049198432
 30
0.0
 10
1012.638177551762
 20
595.2094049198432
 30
0.0
 10
1011.944218914174
 20
595.9033635574318
 30
0.0
 10
1011.944218914174
 20
596.7594049194558
 30
0.0
 10
1011.944218914174
 20
596.7594049194558
 30
0.0
 10
1011.944218914174
 20
596.7594049194558
 30
0.0
 10
1011.944218914174
 20
596.7594049194558
 30
0.0
  0
ENDBLK
  5
94
330
91
100
AcDbEntity
  8
0
100
AcDbBlockEnd
  0
BLOCK
  5
98
330
96
100
AcDbEntity
  8
0
100
AcDbBlockBegin
  2
block 14
 70
     0
 10
0.0
 20
0.0
 30
0.0
  3
block 14
  1

  0
SPLINE
  5
9A
330
96
100
AcDbEntity
  8
0
 62
     7
420
 16777215
370
    25
100
AcDbSpline
210
0.0
220
0.0
230
1.0
 70
    11
 71
     3
 72
    20
 73
    16
 74
     0
 42
0.0000000001
 43
0.0000000001
 12
1.0
 22
0.0
 32
0.0
 13
1.0
 23
0.0
 33
0.0
 40
0.0
 40
0.0
 40
0.0
 40
0.0
 40
1.0
 40
1.0
 40
1.0
 40
2.0
 40
2.0
 40
2.0
 40
3.0
 40
3.0
 40
3.0
 40
4.0
 40
4.0
 40
4.0
 40
5.0
 40
5.0
 40
5.0
 40
5.0
 10
905.955780606351
 20
484.2405948102941
 30
0.0
 10
905.955780606351
 20
485.0966361723182
 30
0.0
 10
906.6497392439396
 20
485.7905948099059
 30
0.0
 10
907.5057806059638
 20
485.7905948099059
 30
0.0
 10
908.3618219679869
 20
485.7905948099059
 30
0.0
 10
909.0557806055755
 20
485.0966361723182
 30
0.0
 10
909.0557806055764
 20
484.2405948102941
 30
0.0
 10
909.0557806055755
 20
483.38455344827
 30
0.0
 10
908.3618219679869
 20
482.6905948106823
 30
0.0
 10
907.5057806059638
 20
482.6905948106823
 30
0.0
 10
906.6497392439396
 20
482.6905948106823
 30
0.0
 10
905.955780606351
 20
483.38455344827
 30
0.0
 10
905.955780606351
 20
484.2405948102941
 30
0.0
 10
905.955780606351
 20
484.2405948102941
 30
0.0
 10
905.955780606351
 20
484.2405948102941
 30
0.0
 10
905.955780606351
 20
484.2405948102941
 30
0.0
  0
ENDBLK
  5
99
330
96
100
AcDbEntity
  8
0
100
AcDbBlockEnd
  0
BLOCK
  5
9D
330
9B
100
AcDbEntity
  8
0
100
AcDbBlockBegin
  2
block 15
 70
     0
 10
0.0
 20
0.0
 30
0.0
  3
block 15
  1

  0
SPLINE
  5
9F
330
9B
100
AcDbEntity
  8
0
 62
   240
420
 15539236
370
    35
100
AcDbSpline
210
0.0
220
0.0
230
1.0
 70
    11
 71
     3
 72
    71
 73
    67
 74
     0
 42
0.0000000001
 43
0.0000000001
 12
1.0
 22
0.0
 32
0.0
 13
1.0
 23
0.0
 33
0.0
 40
0.0
 40
0.0
 40
0.0
 40
0.0
 40
1.0
 40
1.0
 40
1.0
 40
2.0
 40
2.0
 40
2.0
 40
3.0
 40
3.0
 40
3.0
 40
4.0
 40
4.0
 40
4.0
 40
5.0
 40
5.0
 40
5.0
 40
6.0
 40
6.0
 40
6.0
 40
7.0
 40
7.0
 40
7.0
 40
8.0
 40
8.0
 40
8.0
 40
9.0
 40
9.0
 40
9.0
 40
10.0
 40
10.0
 40
10.0
 40
11.0
 40
11.0
 40
11.0
 40
12.0
 40
12.0
 40
12.0
 40
13.0
 40
13.0
 40
13.0
 40
14.0
 40
14.0
 40
14.0
 40
15.0
 40
15.0
 40
15.0
 40
16.0
 40
16.0
 40
16.0
 40
17.0
 40
17.0
 40
17.0
 40
18.0
 40
18.0
 40
18.0
 40
19.0
 40
19.0
 40
19.0
 40
20.0
 40
20.0
 40
20.0
 40
21.0
 40
21.0
 40
21.0
 40
22.0
 40
22.0
 40
22.0
 40
22.0
 10
807.6857560155204
 20
609.1346814883412
 30
0.0
 10
807.6857560155204
 20
609.1346814883412
 30
0.0
 10
805.6344864847832
 20
617.2181775800703
 30
0.0
 10
805.6344864847832
 20
617.2181775800703
 30
0.0
 10
805.6344864847832
 20
617.2181775800703
 30
0.0
 10
806.7380021095073
 20
617.2181775800703
 30
0.0
 10
806.7380021095073
 20
617.2181775800703
 30
0.0
 10
806.7380021095073
 20
617.2181775800703
 30
0.0
 10
807.6974747655174
 20
613.1283338310927
 30
0.0
 10
807.6974747655174
 20
613.1283338310927
 30
0.0
 10
807.9372208592075
 20
612.1210096125947
 30
0.0
 10
808.1535294529034
 20
611.1136853940965
 30
0.0
 10
808.2970841403676
 20
610.3339002380413
 30
0.0
 10
808.2970841403676
 20
610.3339002380413
 30
0.0
 10
808.3210099216116
 20
610.3339002380413
 30
0.0
 10
808.3210099216116
 20
610.3339002380413
 30
0.0
 10
808.4533341403285
 20
611.1376111753405
 30
0.0
 10
808.7047989840156
 20
612.0970838313506
 30
0.0
 10
808.9806778901967
 20
613.1405408623398
 30
0.0
 10
808.9806778901967
 20
613.1405408623398
 30
0.0
 10
810.0602677336767
 20
617.2181775800703
 30
0.0
 10
810.0602677336767
 20
617.2181775800703
 30
0.0
 10
810.0602677336767
 20
617.2181775800703
 30
0.0
 10
811.151576327154
 20
617.2181775800703
 30
0.0
 10
811.151576327154
 20
617.2181775800703
 30
0.0
 10
811.151576327154
 20
617.2181775800703
 30
0.0
 10
812.1349747644081
 20
613.1166150810957
 30
0.0
 10
812.1349747644081
 20
613.1166150810957
 30
0.0
 10
812.3630021081011
 20
612.1571424250856
 30
0.0
 10
812.5788224205471
 20
611.1976697690754
 30
0.0
 10
812.6989396080171
 20
610.3461072692884
 30
0.0
 10
812.6989396080171
 20
610.3461072692884
 30
0.0
 10
812.7228653892611
 20
610.3461072692884
 30
0.0
 10
812.7228653892611
 20
610.3461072692884
 30
0.0
 10
812.8908341392191
 20
611.2333143003166
 30
0.0
 10
813.1183732016623
 20
612.1332166438416
 30
0.0
 10
813.3703263265993
 20
613.1405408623398
 30
0.0
 10
813.3703263265993
 20
613.1405408623398
 30
0.0
 10
814.4377091388324
 20
617.2181775800703
 30
0.0
 10
814.4377091388324
 20
617.2181775800703
 30
0.0
 10
814.4377091388324
 20
617.2181775800703
 30
0.0
 10
815.5050919510655
 20
617.2181775800703
 30
0.0
 10
815.5050919510655
 20
617.2181775800703
 30
0.0
 10
815.5050919510655
 20
617.2181775800703
 30
0.0
 10
813.2145646078882
 20
609.1346814883412
 30
0.0
 10
813.2145646078882
 20
609.1346814883412
 30
0.0
 10
813.2145646078882
 20
609.1346814883412
 30
0.0
 10
812.123256014411
 20
609.1346814883412
 30
0.0
 10
812.123256014411
 20
609.1346814883412
 30
0.0
 10
812.123256014411
 20
609.1346814883412
 30
0.0
 10
811.1037247646659
 20
613.3441541435388
 30
0.0
 10
811.1037247646659
 20
613.3441541435388
 30
0.0
 10
810.8517716397289
 20
614.3758924245309
 30
0.0
 10
810.6838028897708
 20
615.167396330583
 30
0.0
 10
810.5758927335479
 20
615.9828260178791
 30
0.0
 10
810.5758927335479
 20
615.9828260178791
 30
0.0
 10
810.5519669523038
 20
615.9828260178791
 30
0.0
 10
810.5519669523038
 20
615.9828260178791
 30
0.0
 10
810.4079239835899
 20
615.17960336183
 30
0.0
 10
810.2282364836348
 20
614.3876111745279
 30
0.0
 10
809.9284317962097
 20
613.3441541435388
 30
0.0
 10
809.9284317962097
 20
613.3441541435388
 30
0.0
 10
808.7770646089975
 20
609.1346814883412
 30
0.0
 10
808.7770646089975
 20
609.1346814883412
 30
0.0
 10
808.7770646089975
 20
609.1346814883412
 30
0.0
 10
807.6857560155204
 20
609.1346814883412
 30
0.0
 10
807.6857560155204
 20
609.1346814883412
 30
0.0
  0
HATCH
  5
A0
330
9B
100
AcDbEntity
  8
0
 62
   240
420
 15539236
100
AcDbHatch
 10
0.0
 20
0.0
 30
0.0
210
0.0
220
0.0
230
1.0
  2
SOLID
 70
     1
 71
     0
 91
        1
 92
        1
 93
        1
 72
     4
 94
        3
 73
     0
 74
     1
 95
       71
 96
       67
 40
0.0
 40
0.0
 40
0.0
 40
0.0
 40
1.0
 40
1.0
 40
1.0
 40
2.0
 40
2.0
 40
2.0
 40
3.0
 40
3.0
 40
3.0
 40
4.0
 40
4.0
 40
4.0
 40
5.0
 40
5.0
 40
5.0
 40
6.0
 40
6.0
 40
6.0
 40
7.0
 40
7.0
 40
7.0
 40
8.0
 40
8.0
 40
8.0
 40
9.0
 40
9.0
 40
9.0
 40
10.0
 40
10.0
 40
10.0
 40
11.0
 40
11.0
 40
11.0
 40
12.0
 40
12.0
 40
12.0
 40
13.0
 40
13.0
 40
13.0
 40
14.0
 40
14.0
 40
14.0
 40
15.0
 40
15.0
 40
15.0
 40
16.0
 40
16.0
 40
16.0
 40
17.0
 40
17.0
 40
17.0
 40
18.0
 40
18.0
 40
18.0
 40
19.0
 40
19.0
 40
19.0
 40
20.0
 40
20.0
 40
20.0
 40
21.0
 40
21.0
 40
21.0
 40
22.0
 40
22.0
 40
22.0
 40
22.0
 10
807.6857560155204
 20
609.1346814883412
 10
807.6857560155204
 20
609.1346814883412
 10
805.6344864847832
 20
617.2181775800703
 10
805.6344864847832
 20
617.2181775800703
 10
805.6344864847832
 20
617.2181775800703
 10
806.7380021095073
 20
617.2181775800703
 10
806.7380021095073
 20
617.2181775800703
 10
806.7380021095073
 20
617.2181775800703
 10
807.6974747655174
 20
613.1283338310927
 10
807.6974747655174
 20
613.1283338310927
 10
807.9372208592075
 20
612.1210096125947
 10
808.1535294529034
 20
611.1136853940965
 10
808.2970841403676
 20
610.3339002380413
 10
808.2970841403676
 20
610.3339002380413
 10
808.3210099216116
 20
610.3339002380413
 10
808.3210099216116
 20
610.3339002380413
 10
808.4533341403285
 20
611.1376111753405
 10
808.7047989840156
 20
612.0970838313506
 10
808.9806778901967
 20
613.1405408623398
 10
808.9806778901967
 20
613.1405408623398
 10
810.0602677336767
 20
617.2181775800703
 10
810.0602677336767
 20
617.2181775800703
 10
810.0602677336767
 20
617.2181775800703
 10
811.151576327154
 20
617.2181775800703
 10
811.151576327154
 20
617.2181775800703
 10
811.151576327154
 20
617.2181775800703
 10
812.1349747644081
 20
613.1166150810957
 10
812.1349747644081
 20
613.1166150810957
 10
812.3630021081011
 20
612.1571424250856
 10
812.5788224205471
 20
611.1976697690754
 10
812.6989396080171
 20
610.3461072692884
 10
812.6989396080171
 20
610.3461072692884
 10
812.7228653892611
 20
610.3461072692884
 10
812.7228653892611
 20
610.3461072692884
 10
812.8908341392191
 20
611.2333143003166
 10
813.1183732016623
 20
612.1332166438416
 10
813.3703263265993
 20
613.1405408623398
 10
813.3703263265993
 20
613.1405408623398
 10
814.4377091388324
 20
617.2181775800703
 10
814.4377091388324
 20
617.2181775800703
 10
814.4377091388324
 20
617.2181775800703
 10
815.5050919510655
 20
617.2181775800703
 10
815.5050919510655
 20
617.2181775800703
 10
815.5050919510655
 20
617.2181775800703
 10
813.2145646078882
 20
609.1346814883412
 10
813.2145646078882
 20
609.1346814883412
 10
813.2145646078882
 20
609.1346814883412
 10
812.123256014411
 20
609.1346814883412
 10
812.123256014411
 20
609.1346814883412
 10
812.123256014411
 20
609.1346814883412
 10
811.1037247646659
 20
613.3441541435388
 10
811.1037247646659
 20
613.3441541435388
 10
810.8517716397289
 20
614.3758924245309
 10
810.6838028897708
 20
615.167396330583
 10
810.5758927335479
 20
615.9828260178791
 10
810.5758927335479
 20
615.9828260178791
 10
810.5519669523038
 20
615.9828260178791
 10
810.5519669523038
 20
615.9828260178791
 10
810.4079239835899
 20
615.17960336183
 10
810.2282364836348
 20
614.3876111745279
 10
809.9284317962097
 20
613.3441541435388
 10
809.9284317962097
 20
613.3441541435388
 10
808.7770646089975
 20
609.1346814883412
 10
808.7770646089975
 20
609.1346814883412
 10
808.7770646089975
 20
609.1346814883412
 10
807.6857560155204
 20
609.1346814883412
 10
807.6857560155204
 20
609.1346814883412
 97
        0
 97
        0
 75
     2
 76
     1
 98
        0
  0
SPLINE
  5
A1
330
9B
100
AcDbEntity
  8
0
 62
   240
420
 15539236
370
    35
100
AcDbSpline
210
0.0
220
0.0
230
1.0
 70
    11
 71
     3
 72
    47
 73
    43
 74
     0
 42
0.0000000001
 43
0.0000000001
 12
1.0
 22
0.0
 32
0.0
 13
1.0
 23
0.0
 33
0.0
 40
0.0
 40
0.0
 40
0.0
 40
0.0
 40
1.0
 40
1.0
 40
1.0
 40
2.0
 40
2.0
 40
2.0
 40
3.0
 40
3.0
 40
3.0
 40
4.0
 40
4.0
 40
4.0
 40
5.0
 40
5.0
 40
5.0
 40
6.0
 40
6.0
 40
6.0
 40
7.0
 40
7.0
 40
7.0
 40
8.0
 40
8.0
 40
8.0
 40
9.0
 40
9.0
 40
9.0
 40
10.0
 40
10.0
 40
10.0
 40
11.0
 40
11.0
 40
11.0
 40
12.0
 40
12.0
 40
12.0
 40
13.0
 40
13.0
 40
13.0
 40
14.0
 40
14.0
 40
14.0
 40
14.0
 10
816.5182755445622
 20
617.2181775800703
 30
0.0
 10
816.5182755445622
 20
617.2181775800703
 30
0.0
 10
817.5617325755514
 20
617.2181775800703
 30
0.0
 10
817.5617325755514
 20
617.2181775800703
 30
0.0
 10
817.5617325755514
 20
617.2181775800703
 30
0.0
 10
817.5617325755514
 20
613.3202283622948
 30
0.0
 10
817.5617325755514
 20
613.3202283622948
 30
0.0
 10
817.5617325755514
 20
613.3202283622948
 30
0.0
 10
817.5973771067925
 20
613.3202283622948
 30
0.0
 10
817.5973771067925
 20
613.3202283622948
 30
0.0
 10
817.8131974192386
 20
613.6322400809668
 30
0.0
 10
818.0295060129345
 20
613.9198377371449
 30
0.0
 10
818.2331192941335
 20
614.1839978933289
 30
0.0
 10
818.2331192941335
 20
614.1839978933289
 30
0.0
 10
820.7038224185159
 20
617.2181775800703
 30
0.0
 10
820.7038224185159
 20
617.2181775800703
 30
0.0
 10
820.7038224185159
 20
617.2181775800703
 30
0.0
 10
821.999232574442
 20
617.2181775800703
 30
0.0
 10
821.999232574442
 20
617.2181775800703
 30
0.0
 10
821.999232574442
 20
617.2181775800703
 30
0.0
 10
819.0729630439236
 20
613.7880017996779
 30
0.0
 10
819.0729630439236
 20
613.7880017996779
 30
0.0
 10
819.0729630439236
 20
613.7880017996779
 30
0.0
 10
822.227259918135
 20
609.1346814883412
 30
0.0
 10
822.227259918135
 20
609.1346814883412
 30
0.0
 10
822.227259918135
 20
609.1346814883412
 30
0.0
 10
820.9919083559439
 20
609.1346814883412
 30
0.0
 10
820.9919083559439
 20
609.1346814883412
 30
0.0
 10
820.9919083559439
 20
609.1346814883412
 30
0.0
 10
818.3293107003595
 20
613.1044080498488
 30
0.0
 10
818.3293107003595
 20
613.1044080498488
 30
0.0
 10
818.3293107003595
 20
613.1044080498488
 30
0.0
 10
817.5617325755514
 20
612.2172010188206
 30
0.0
 10
817.5617325755514
 20
612.2172010188206
 30
0.0
 10
817.5617325755514
 20
612.2172010188206
 30
0.0
 10
817.5617325755514
 20
609.1346814883412
 30
0.0
 10
817.5617325755514
 20
609.1346814883412
 30
0.0
 10
817.5617325755514
 20
609.1346814883412
 30
0.0
 10
816.5182755445622
 20
609.1346814883412
 30
0.0
 10
816.5182755445622
 20
609.1346814883412
 30
0.0
 10
816.5182755445622
 20
609.1346814883412
 30
0.0
 10
816.5182755445622
 20
617.2181775800703
 30
0.0
 10
816.5182755445622
 20
617.2181775800703
 30
0.0
  0
HATCH
  5
A2
330
9B
100
AcDbEntity
  8
0
 62
   240
420
 15539236
100
AcDbHatch
 10
0.0
 20
0.0
 30
0.0
210
0.0
220
0.0
230
1.0
  2
SOLID
 70
     1
 71
     0
 91
        1
 92
        1
 93
        1
 72
     4
 94
        3
 73
     0
 74
     1
 95
       47
 96
       43
 40
0.0
 40
0.0
 40
0.0
 40
0.0
 40
1.0
 40
1.0
 40
1.0
 40
2.0
 40
2.0
 40
2.0
 40
3.0
 40
3.0
 40
3.0
 40
4.0
 40
4.0
 40
4.0
 40
5.0
 40
5.0
 40
5.0
 40
6.0
 40
6.0
 40
6.0
 40
7.0
 40
7.0
 40
7.0
 40
8.0
 40
8.0
 40
8.0
 40
9.0
 40
9.0
 40
9.0
 40
10.0
 40
10.0
 40
10.0
 40
11.0
 40
11.0
 40
11.0
 40
12.0
 40
12.0
 40
12.0
 40
13.0
 40
13.0
 40
13.0
 40
14.0
 40
14.0
 40
14.0
 40
14.0
 10
816.5182755445622
 20
617.2181775800703
 10
816.5182755445622
 20
617.2181775800703
 10
817.5617325755514
 20
617.2181775800703
 10
817.5617325755514
 20
617.2181775800703
 10
817.5617325755514
 20
617.2181775800703
 10
817.5617325755514
 20
613.3202283622948
 10
817.5617325755514
 20
613.3202283622948
 10
817.5617325755514
 20
613.3202283622948
 10
817.5973771067925
 20
613.3202283622948
 10
817.5973771067925
 20
613.3202283622948
 10
817.8131974192386
 20
613.6322400809668
 10
818.0295060129345
 20
613.9198377371449
 10
818.2331192941335
 20
614.1839978933289
 10
818.2331192941335
 20
614.1839978933289
 10
820.7038224185159
 20
617.2181775800703
 10
820.7038224185159
 20
617.2181775800703
 10
820.7038224185159
 20
617.2181775800703
 10
821.999232574442
 20
617.2181775800703
 10
821.999232574442
 20
617.2181775800703
 10
821.999232574442
 20
617.2181775800703
 10
819.0729630439236
 20
613.7880017996779
 10
819.0729630439236
 20
613.7880017996779
 10
819.0729630439236
 20
613.7880017996779
 10
822.227259918135
 20
609.1346814883412
 10
822.227259918135
 20
609.1346814883412
 10
822.227259918135
 20
609.1346814883412
 10
820.9919083559439
 20
609.1346814883412
 10
820.9919083559439
 20
609.1346814883412
 10
820.9919083559439
 20
609.1346814883412
 10
818.3293107003595
 20
613.1044080498488
 10
818.3293107003595
 20
613.1044080498488
 10
818.3293107003595
 20
613.1044080498488
 10
817.5617325755514
 20
612.2172010188206
 10
817.5617325755514
 20
612.2172010188206
 10
817.5617325755514
 20
612.2172010188206
 10
817.5617325755514
 20
609.1346814883412
 10
817.5617325755514
 20
609.1346814883412
 10
817.5617325755514
 20
609.1346814883412
 10
816.5182755445622
 20
609.1346814883412
 10
816.5182755445622
 20
609.1346814883412
 10
816.5182755445622
 20
609.1346814883412
 10
816.5182755445622
 20
617.2181775800703
 10
816.5182755445622
 20
617.2181775800703
 97
        0
 97
        0
 75
     2
 76
     1
 98
        0
  0
POLYLINE
  5
A3
330
9B
100
AcDbEntity
  8
0
 62
   240
420
 15539236
370
    35
100
AcDb2dPolyline
 66
     1
 10
0.0
 20
0.0
 30
0.0
  0
VERTEX
  5
A4
330
A3
100
AcDbEntity
  8
0
 62
   240
420
 15539236
370
    35
100
AcDbVertex
100
AcDb2dVertex
 10
825.5661271048003
 20
617.2181775800703
 30
0.0
  0
VERTEX
  5
A5
330
A3
100
AcDbEntity
  8
0
 62
   240
420
 15539236
370
    35
100
AcDbVertex
100
AcDb2dVertex
 10
826.6095841357894
 20
617.2181775800703
 30
0.0
  0
VERTEX
  5
A6
330
A3
100
AcDbEntity
  8
0
 62
   240
420
 15539236
370
    35
100
AcDbVertex
100
AcDb2dVertex
 10
826.6095841357894
 20
610.0101697693723
 30
0.0
  0
VERTEX
  5
A7
330
A3
100
AcDbEntity
  8
0
 62
   240
420
 15539236
370
    35
100
AcDbVertex
100
AcDb2dVertex
 10
830.063685697426
 20
610.0101697693723
 30
0.0
  0
VERTEX
  5
A8
330
A3
100
AcDbEntity
  8
0
 62
   240
420
 15539236
370
    35
100
AcDbVertex
100
AcDb2dVertex
 10
830.063685697426
 20
609.1346814883412
 30
0.0
  0
VERTEX
  5
A9
330
A3
100
AcDbEntity
  8
0
 62
   240
420
 15539236
370
    35
100
AcDbVertex
100
AcDb2dVertex
 10
825.5661271048003
 20
609.1346814883412
 30
0.0
  0
VERTEX
  5
AA
330
A3
100
AcDbEntity
  8
0
 62
   240
420
 15539236
370
    35
100
AcDbVertex
100
AcDb2dVertex
 10
825.5661271048003
 20
617.2181775800703
 30
0.0
  0
SEQEND
  5
AB
330
A3
100
AcDbEntity
  8
0
 62
   240
420
 15539236
370
    35
  0
HATCH
  5
AC
330
9B
100
AcDbEntity
  8
0
 62
   240
420
 15539236
100
AcDbHatch
 10
0.0
 20
0.0
 30
0.0
210
0.0
220
0.0
230
1.0
  2
SOLID
 70
     1
 71
     0
 91
        1
 92
        1
 93
        6
 72
     1
 10
825.5661271048003
 20
617.2181775800703
 11
826.6095841357894
 21
617.2181775800703
 72
     1
 10
826.6095841357894
 20
617.2181775800703
 11
826.6095841357894
 21
610.0101697693723
 72
     1
 10
826.6095841357894
 20
610.0101697693723
 11
830.063685697426
 21
610.0101697693723
 72
     1
 10
830.063685697426
 20
610.0101697693723
 11
830.063685697426
 21
609.1346814883412
 72
     1
 10
830.063685697426
 20
609.1346814883412
 11
825.5661271048003
 21
609.1346814883412
 72
     1
 10
825.5661271048003
 20
609.1346814883412
 11
825.5661271048003
 21
617.2181775800703
 97
        0
 75
     2
 76
     1
 98
        0
  0
SPLINE
  5
AD
330
9B
100
AcDbEntity
  8
0
 62
   240
420
 15539236
370
    35
100
AcDbSpline
210
0.0
220
0.0
230
1.0
 70
    11
 71
     3
 72
    47
 73
    43
 74
     0
 42
0.0000000001
 43
0.0000000001
 12
1.0
 22
0.0
 32
0.0
 13
1.0
 23
0.0
 33
0.0
 40
0.0
 40
0.0
 40
0.0
 40
0.0
 40
1.0
 40
1.0
 40
1.0
 40
2.0
 40
2.0
 40
2.0
 40
3.0
 40
3.0
 40
3.0
 40
4.0
 40
4.0
 40
4.0
 40
5.0
 40
5.0
 40
5.0
 40
6.0
 40
6.0
 40
6.0
 40
7.0
 40
7.0
 40
7.0
 40
8.0
 40
8.0
 40
8.0
 40
9.0
 40
9.0
 40
9.0
 40
10.0
 40
10.0
 40
10.0
 40
11.0
 40
11.0
 40
11.0
 40
12.0
 40
12.0
 40
12.0
 40
13.0
 40
13.0
 40
13.0
 40
14.0
 40
14.0
 40
14.0
 40
14.0
 10
830.8576310097275
 20
609.1346814883412
 30
0.0
 10
830.8576310097275
 20
609.1346814883412
 30
0.0
 10
830.8576310097275
 20
609.7821424256794
 30
0.0
 10
830.8576310097275
 20
609.7821424256794
 30
0.0
 10
830.8576310097275
 20
609.7821424256794
 30
0.0
 10
831.6852677282706
 20
610.5858533629784
 30
0.0
 10
831.6852677282706
 20
610.5858533629784
 30
0.0
 10
833.6764786652727
 20
612.4808728937546
 30
0.0
 10
834.5758927275479
 20
613.4881971122528
 30
0.0
 10
834.5876114775449
 20
614.663490080709
 30
0.0
 10
834.5876114775449
 20
615.4549939867611
 30
0.0
 10
834.2038224151408
 20
616.1869275803282
 30
0.0
 10
833.0407364779317
 20
616.1869275803282
 30
0.0
 10
832.3327286656087
 20
616.1869275803282
 30
0.0
 10
831.7453263220056
 20
615.8270642991681
 30
0.0
 10
831.3854630408455
 20
615.527259611743
 30
0.0
 10
831.3854630408455
 20
615.527259611743
 30
0.0
 10
831.0495255409295
 20
616.2709119553072
 30
0.0
 10
831.0495255409295
 20
616.2709119553072
 30
0.0
 10
831.5895646032944
 20
616.7264783614432
 30
0.0
 10
832.3571427281025
 20
617.0624158613592
 30
0.0
 10
833.2565567903777
 20
617.0624158613592
 30
0.0
 10
834.9357560087079
 20
617.0624158613592
 30
0.0
 10
835.643275539781
 20
615.9110486741471
 30
0.0
 10
835.643275539781
 20
614.795814299426
 30
0.0
 10
835.643275539781
 20
613.3563611747858
 30
0.0
 10
834.5998185087918
 20
612.1927869563267
 30
0.0
 10
832.9567521029527
 20
610.6097791442224
 30
0.0
 10
832.9567521029527
 20
610.6097791442224
 30
0.0
 10
832.3327286656087
 20
610.0340955506164
 30
0.0
 10
832.3327286656087
 20
610.0340955506164
 30
0.0
 10
832.3327286656087
 20
610.0340955506164
 30
0.0
 10
832.3327286656087
 20
610.0101697693723
 30
0.0
 10
832.3327286656087
 20
610.0101697693723
 30
0.0
 10
832.3327286656087
 20
610.0101697693723
 30
0.0
 10
835.835170070983
 20
610.0101697693723
 30
0.0
 10
835.835170070983
 20
610.0101697693723
 30
0.0
 10
835.835170070983
 20
610.0101697693723
 30
0.0
 10
835.835170070983
 20
609.1346814883412
 30
0.0
 10
835.835170070983
 20
609.1346814883412
 30
0.0
 10
835.835170070983
 20
609.1346814883412
 30
0.0
 10
830.8576310097275
 20
609.1346814883412
 30
0.0
 10
830.8576310097275
 20
609.1346814883412
 30
0.0
  0
HATCH
  5
AE
330
9B
100
AcDbEntity
  8
0
 62
   240
420
 15539236
100
AcDbHatch
 10
0.0
 20
0.0
 30
0.0
210
0.0
220
0.0
230
1.0
  2
SOLID
 70
     1
 71
     0
 91
        1
 92
        1
 93
        1
 72
     4
 94
        3
 73
     0
 74
     1
 95
       47
 96
       43
 40
0.0
 40
0.0
 40
0.0
 40
0.0
 40
1.0
 40
1.0
 40
1.0
 40
2.0
 40
2.0
 40
2.0
 40
3.0
 40
3.0
 40
3.0
 40
4.0
 40
4.0
 40
4.0
 40
5.0
 40
5.0
 40
5.0
 40
6.0
 40
6.0
 40
6.0
 40
7.0
 40
7.0
 40
7.0
 40
8.0
 40
8.0
 40
8.0
 40
9.0
 40
9.0
 40
9.0
 40
10.0
 40
10.0
 40
10.0
 40
11.0
 40
11.0
 40
11.0
 40
12.0
 40
12.0
 40
12.0
 40
13.0
 40
13.0
 40
13.0
 40
14.0
 40
14.0
 40
14.0
 40
14.0
 10
830.8576310097275
 20
609.1346814883412
 10
830.8576310097275
 20
609.1346814883412
 10
830.8576310097275
 20
609.7821424256794
 10
830.8576310097275
 20
609.7821424256794
 10
830.8576310097275
 20
609.7821424256794
 10
831.6852677282706
 20
610.5858533629784
 10
831.6852677282706
 20
610.5858533629784
 10
833.6764786652727
 20
612.4808728937546
 10
834.5758927275479
 20
613.4881971122528
 10
834.5876114775449
 20
614.663490080709
 10
834.5876114775449
 20
615.4549939867611
 10
834.2038224151408
 20
616.1869275803282
 10
833.0407364779317
 20
616.1869275803282
 10
832.3327286656087
 20
616.1869275803282
 10
831.7453263220056
 20
615.8270642991681
 10
831.3854630408455
 20
615.527259611743
 10
831.3854630408455
 20
615.527259611743
 10
831.0495255409295
 20
616.2709119553072
 10
831.0495255409295
 20
616.2709119553072
 10
831.5895646032944
 20
616.7264783614432
 10
832.3571427281025
 20
617.0624158613592
 10
833.2565567903777
 20
617.0624158613592
 10
834.9357560087079
 20
617.0624158613592
 10
835.643275539781
 20
615.9110486741471
 10
835.643275539781
 20
614.795814299426
 10
835.643275539781
 20
613.3563611747858
 10
834.5998185087918
 20
612.1927869563267
 10
832.9567521029527
 20
610.6097791442224
 10
832.9567521029527
 20
610.6097791442224
 10
832.3327286656087
 20
610.0340955506164
 10
832.3327286656087
 20
610.0340955506164
 10
832.3327286656087
 20
610.0340955506164
 10
832.3327286656087
 20
610.0101697693723
 10
832.3327286656087
 20
610.0101697693723
 10
832.3327286656087
 20
610.0101697693723
 10
835.835170070983
 20
610.0101697693723
 10
835.835170070983
 20
610.0101697693723
 10
835.835170070983
 20
610.0101697693723
 10
835.835170070983
 20
609.1346814883412
 10
835.835170070983
 20
609.1346814883412
 10
835.835170070983
 20
609.1346814883412
 10
830.8576310097275
 20
609.1346814883412
 10
830.8576310097275
 20
609.1346814883412
 97
        0
 97
        0
 75
     2
 76
     1
 98
        0
  0
SPLINE
  5
AF
330
9B
100
AcDbEntity
  8
0
 62
   240
420
 15539236
370
    35
100
AcDbSpline
210
0.0
220
0.0
230
1.0
 70
    11
 71
     3
 72
    47
 73
    43
 74
     0
 42
0.0000000001
 43
0.0000000001
 12
1.0
 22
0.0
 32
0.0
 13
1.0
 23
0.0
 33
0.0
 40
0.0
 40
0.0
 40
0.0
 40
0.0
 40
1.0
 40
1.0
 40
1.0
 40
2.0
 40
2.0
 40
2.0
 40
3.0
 40
3.0
 40
3.0
 40
4.0
 40
4.0
 40
4.0
 40
5.0
 40
5.0
 40
5.0
 40
6.0
 40
6.0
 40
6.0
 40
7.0
 40
7.0
 40
7.0
 40
8.0
 40
8.0
 40
8.0
 40
9.0
 40
9.0
 40
9.0
 40
10.0
 40
10.0
 40
10.0
 40
11.0
 40
11.0
 40
11.0
 40
12.0
 40
12.0
 40
12.0
 40
13.0
 40
13.0
 40
13.0
 40
14.0
 40
14.0
 40
14.0
 40
14.0
 10
839.7858536637453
 20
610.4061658630234
 30
0.0
 10
840.2536271011285
 20
610.1180799255953
 30
0.0
 10
840.9372208509575
 20
609.8783338319053
 30
0.0
 10
841.6569474132776
 20
609.8783338319053
 30
0.0
 10
842.7243302255107
 20
609.8783338319053
 30
0.0
 10
843.3478653816048
 20
610.4418103942644
 30
0.0
 10
843.3478653816048
 20
611.2577283628104
 30
0.0
 10
843.3478653816048
 20
612.0130994563716
 30
0.0
 10
842.9162247567127
 20
612.4447400812637
 30
0.0
 10
841.8249161632356
 20
612.8646619561587
 30
0.0
 10
840.5055802260655
 20
613.3324353935418
 30
0.0
 10
839.6901505387693
 20
614.0160291433708
 30
0.0
 10
839.6901505387693
 20
615.155189299336
 30
0.0
 10
839.6901505387693
 20
616.4144666427712
 30
0.0
 10
840.7331192885085
 20
617.3500135175374
 30
0.0
 10
842.3044083506157
 20
617.3500135175374
 30
0.0
 10
843.1320450691588
 20
617.3500135175374
 30
0.0
 10
843.7316544440089
 20
617.1581189863354
 30
0.0
 10
844.091517725169
 20
616.9545057051363
 30
0.0
 10
844.091517725169
 20
616.9545057051363
 30
0.0
 10
843.8034317877409
 20
616.1029432053491
 30
0.0
 10
843.8034317877409
 20
616.1029432053491
 30
0.0
 10
843.5397599128069
 20
616.2469861740631
 30
0.0
 10
843.0002091316918
 20
616.4867322677532
 30
0.0
 10
842.2682755381247
 20
616.4867322677532
 30
0.0
 10
841.1652481946505
 20
616.4867322677532
 30
0.0
 10
840.7453263197555
 20
615.8270642991681
 30
0.0
 10
840.7453263197555
 20
615.275306486806
 30
0.0
 10
840.7453263197555
 20
614.5199353932449
 30
0.0
 10
841.2370255383826
 20
614.1478650808378
 30
0.0
 10
842.3522599131038
 20
613.7162244559458
 30
0.0
 10
843.719447412762
 20
613.1883924248277
 30
0.0
 10
844.415248193838
 20
612.5287244562427
 30
0.0
 10
844.415248193838
 20
611.3417127377894
 30
0.0
 10
844.415248193838
 20
610.0941541443514
 30
0.0
 10
843.4919083503189
 20
609.0145643008713
 30
0.0
 10
841.5846817882957
 20
609.0145643008713
 30
0.0
 10
840.8053849134905
 20
609.0145643008713
 30
0.0
 10
839.9538224137034
 20
609.2425916445642
 30
0.0
 10
839.5221817888113
 20
609.5306775819922
 30
0.0
 10
839.5221817888113
 20
609.5306775819922
 30
0.0
 10
839.7858536637453
 20
610.4061658630234
 30
0.0
 10
839.7858536637453
 20
610.4061658630234
 30
0.0
  0
HATCH
  5
B0
330
9B
100
AcDbEntity
  8
0
 62
   240
420
 15539236
100
AcDbHatch
 10
0.0
 20
0.0
 30
0.0
210
0.0
220
0.0
230
1.0
  2
SOLID
 70
     1
 71
     0
 91
        1
 92
        1
 93
        1
 72
     4
 94
        3
 73
     0
 74
     1
 95
       47
 96
       43
 40
0.0
 40
0.0
 40
0.0
 40
0.0
 40
1.0
 40
1.0
 40
1.0
 40
2.0
 40
2.0
 40
2.0
 40
3.0
 40
3.0
 40
3.0
 40
4.0
 40
4.0
 40
4.0
 40
5.0
 40
5.0
 40
5.0
 40
6.0
 40
6.0
 40
6.0
 40
7.0
 40
7.0
 40
7.0
 40
8.0
 40
8.0
 40
8.0
 40
9.0
 40
9.0
 40
9.0
 40
10.0
 40
10.0
 40
10.0
 40
11.0
 40
11.0
 40
11.0
 40
12.0
 40
12.0
 40
12.0
 40
13.0
 40
13.0
 40
13.0
 40
14.0
 40
14.0
 40
14.0
 40
14.0
 10
839.7858536637453
 20
610.4061658630234
 10
840.2536271011285
 20
610.1180799255953
 10
840.9372208509575
 20
609.8783338319053
 10
841.6569474132776
 20
609.8783338319053
 10
842.7243302255107
 20
609.8783338319053
 10
843.3478653816048
 20
610.4418103942644
 10
843.3478653816048
 20
611.2577283628104
 10
843.3478653816048
 20
612.0130994563716
 10
842.9162247567127
 20
612.4447400812637
 10
841.8249161632356
 20
612.8646619561587
 10
840.5055802260655
 20
613.3324353935418
 10
839.6901505387693
 20
614.0160291433708
 10
839.6901505387693
 20
615.155189299336
 10
839.6901505387693
 20
616.4144666427712
 10
840.7331192885085
 20
617.3500135175374
 10
842.3044083506157
 20
617.3500135175374
 10
843.1320450691588
 20
617.3500135175374
 10
843.7316544440089
 20
617.1581189863354
 10
844.091517725169
 20
616.9545057051363
 10
844.091517725169
 20
616.9545057051363
 10
843.8034317877409
 20
616.1029432053491
 10
843.8034317877409
 20
616.1029432053491
 10
843.5397599128069
 20
616.2469861740631
 10
843.0002091316918
 20
616.4867322677532
 10
842.2682755381247
 20
616.4867322677532
 10
841.1652481946505
 20
616.4867322677532
 10
840.7453263197555
 20
615.8270642991681
 10
840.7453263197555
 20
615.275306486806
 10
840.7453263197555
 20
614.5199353932449
 10
841.2370255383826
 20
614.1478650808378
 10
842.3522599131038
 20
613.7162244559458
 10
843.719447412762
 20
613.1883924248277
 10
844.415248193838
 20
612.5287244562427
 10
844.415248193838
 20
611.3417127377894
 10
844.415248193838
 20
610.0941541443514
 10
843.4919083503189
 20
609.0145643008713
 10
841.5846817882957
 20
609.0145643008713
 10
840.8053849134905
 20
609.0145643008713
 10
839.9538224137034
 20
609.2425916445642
 10
839.5221817888113
 20
609.5306775819922
 10
839.5221817888113
 20
609.5306775819922
 10
839.7858536637453
 20
610.4061658630234
 10
839.7858536637453
 20
610.4061658630234
 97
        0
 97
        0
 75
     2
 76
     1
 98
        0
  0
SPLINE
  5
B1
330
9B
100
AcDbEntity
  8
0
 62
   240
420
 15539236
370
    35
100
AcDbSpline
210
0.0
220
0.0
230
1.0
 70
    11
 71
     3
 72
    56
 73
    52
 74
     0
 42
0.0000000001
 43
0.0000000001
 12
1.0
 22
0.0
 32
0.0
 13
1.0
 23
0.0
 33
0.0
 40
0.0
 40
0.0
 40
0.0
 40
0.0
 40
1.0
 40
1.0
 40
1.0
 40
2.0
 40
2.0
 40
2.0
 40
3.0
 40
3.0
 40
3.0
 40
4.0
 40
4.0
 40
4.0
 40
5.0
 40
5.0
 40
5.0
 40
6.0
 40
6.0
 40
6.0
 40
7.0
 40
7.0
 40
7.0
 40
8.0
 40
8.0
 40
8.0
 40
9.0
 40
9.0
 40
9.0
 40
10.0
 40
10.0
 40
10.0
 40
11.0
 40
11.0
 40
11.0
 40
12.0
 40
12.0
 40
12.0
 40
13.0
 40
13.0
 40
13.0
 40
14.0
 40
14.0
 40
14.0
 40
15.0
 40
15.0
 40
15.0
 40
16.0
 40
16.0
 40
16.0
 40
17.0
 40
17.0
 40
17.0
 40
17.0
 10
847.0451310056806
 20
616.6063611739733
 30
0.0
 10
847.0451310056806
 20
616.6063611739733
 30
0.0
 10
847.0451310056806
 20
614.93936898689
 30
0.0
 10
847.0451310056806
 20
614.93936898689
 30
0.0
 10
847.0451310056806
 20
614.93936898689
 30
0.0
 10
848.5563614740528
 20
614.93936898689
 30
0.0
 10
848.5563614740528
 20
614.93936898689
 30
0.0
 10
848.5563614740528
 20
614.93936898689
 30
0.0
 10
848.5563614740528
 20
614.1361463308408
 30
0.0
 10
848.5563614740528
 20
614.1361463308408
 30
0.0
 10
848.5563614740528
 20
614.1361463308408
 30
0.0
 10
847.0451310056806
 20
614.1361463308408
 30
0.0
 10
847.0451310056806
 20
614.1361463308408
 30
0.0
 10
847.0451310056806
 20
614.1361463308408
 30
0.0
 10
847.0451310056806
 20
611.0057752378734
 30
0.0
 10
847.0451310056806
 20
611.0057752378734
 30
0.0
 10
847.0451310056806
 20
610.2860486755534
 30
0.0
 10
847.2487442868796
 20
609.8783338319053
 30
0.0
 10
847.8366349117326
 20
609.8783338319053
 30
0.0
 10
848.1125138179137
 20
609.8783338319053
 30
0.0
 10
848.3161270991128
 20
609.9144666443963
 30
0.0
 10
848.4479630365798
 20
609.9501111756373
 30
0.0
 10
848.4479630365798
 20
609.9501111756373
 30
0.0
 10
848.4963028803178
 20
609.1586072695852
 30
0.0
 10
848.4963028803178
 20
609.1586072695852
 30
0.0
 10
848.2922013178688
 20
609.0746228946063
 30
0.0
 10
847.9684708491997
 20
609.0145643008713
 30
0.0
 10
847.5607560055516
 20
609.0145643008713
 30
0.0
 10
847.0690567869245
 20
609.0145643008713
 30
0.0
 10
846.6730606932736
 20
609.1708143008321
 30
0.0
 10
846.4211075683365
 20
609.4584119570103
 30
0.0
 10
846.1213028809115
 20
609.7704236756823
 30
0.0
 10
846.0133927246885
 20
610.2860486755534
 30
0.0
 10
846.0133927246885
 20
610.9696424253824
 30
0.0
 10
846.0133927246885
 20
610.9696424253824
 30
0.0
 10
846.0133927246885
 20
614.1361463308408
 30
0.0
 10
846.0133927246885
 20
614.1361463308408
 30
0.0
 10
846.0133927246885
 20
614.1361463308408
 30
0.0
 10
845.1139786624134
 20
614.1361463308408
 30
0.0
 10
845.1139786624134
 20
614.1361463308408
 30
0.0
 10
845.1139786624134
 20
614.1361463308408
 30
0.0
 10
845.1139786624134
 20
614.93936898689
 30
0.0
 10
845.1139786624134
 20
614.93936898689
 30
0.0
 10
845.1139786624134
 20
614.93936898689
 30
0.0
 10
846.0133927246885
 20
614.93936898689
 30
0.0
 10
846.0133927246885
 20
614.93936898689
 30
0.0
 10
846.0133927246885
 20
614.93936898689
 30
0.0
 10
846.0133927246885
 20
616.3309705490421
 30
0.0
 10
846.0133927246885
 20
616.3309705490421
 30
0.0
 10
846.0133927246885
 20
616.3309705490421
 30
0.0
 10
847.0451310056806
 20
616.6063611739733
 30
0.0
 10
847.0451310056806
 20
616.6063611739733
 30
0.0
  0
HATCH
  5
B2
330
9B
100
AcDbEntity
  8
0
 62
   240
420
 15539236
100
AcDbHatch
 10
0.0
 20
0.0
 30
0.0
210
0.0
220
0.0
230
1.0
  2
SOLID
 70
     1
 71
     0
 91
        1
 92
        1
 93
        1
 72
     4
 94
        3
 73
     0
 74
     1
 95
       56
 96
       52
 40
0.0
 40
0.0
 40
0.0
 40
0.0
 40
1.0
 40
1.0
 40
1.0
 40
2.0
 40
2.0
 40
2.0
 40
3.0
 40
3.0
 40
3.0
 40
4.0
 40
4.0
 40
4.0
 40
5.0
 40
5.0
 40
5.0
 40
6.0
 40
6.0
 40
6.0
 40
7.0
 40
7.0
 40
7.0
 40
8.0
 40
8.0
 40
8.0
 40
9.0
 40
9.0
 40
9.0
 40
10.0
 40
10.0
 40
10.0
 40
11.0
 40
11.0
 40
11.0
 40
12.0
 40
12.0
 40
12.0
 40
13.0
 40
13.0
 40
13.0
 40
14.0
 40
14.0
 40
14.0
 40
15.0
 40
15.0
 40
15.0
 40
16.0
 40
16.0
 40
16.0
 40
17.0
 40
17.0
 40
17.0
 40
17.0
 10
847.0451310056806
 20
616.6063611739733
 10
847.0451310056806
 20
616.6063611739733
 10
847.0451310056806
 20
614.93936898689
 10
847.0451310056806
 20
614.93936898689
 10
847.0451310056806
 20
614.93936898689
 10
848.5563614740528
 20
614.93936898689
 10
848.5563614740528
 20
614.93936898689
 10
848.5563614740528
 20
614.93936898689
 10
848.5563614740528
 20
614.1361463308408
 10
848.5563614740528
 20
614.1361463308408
 10
848.5563614740528
 20
614.1361463308408
 10
847.0451310056806
 20
614.1361463308408
 10
847.0451310056806
 20
614.1361463308408
 10
847.0451310056806
 20
614.1361463308408
 10
847.0451310056806
 20
611.0057752378734
 10
847.0451310056806
 20
611.0057752378734
 10
847.0451310056806
 20
610.2860486755534
 10
847.2487442868796
 20
609.8783338319053
 10
847.8366349117326
 20
609.8783338319053
 10
848.1125138179137
 20
609.8783338319053
 10
848.3161270991128
 20
609.9144666443963
 10
848.4479630365798
 20
609.9501111756373
 10
848.4479630365798
 20
609.9501111756373
 10
848.4963028803178
 20
609.1586072695852
 10
848.4963028803178
 20
609.1586072695852
 10
848.2922013178688
 20
609.0746228946063
 10
847.9684708491997
 20
609.0145643008713
 10
847.5607560055516
 20
609.0145643008713
 10
847.0690567869245
 20
609.0145643008713
 10
846.6730606932736
 20
609.1708143008321
 10
846.4211075683365
 20
609.4584119570103
 10
846.1213028809115
 20
609.7704236756823
 10
846.0133927246885
 20
610.2860486755534
 10
846.0133927246885
 20
610.9696424253824
 10
846.0133927246885
 20
610.9696424253824
 10
846.0133927246885
 20
614.1361463308408
 10
846.0133927246885
 20
614.1361463308408
 10
846.0133927246885
 20
614.1361463308408
 10
845.1139786624134
 20
614.1361463308408
 10
845.1139786624134
 20
614.1361463308408
 10
845.1139786624134
 20
614.1361463308408
 10
845.1139786624134
 20
614.93936898689
 10
845.1139786624134
 20
614.93936898689
 10
845.1139786624134
 20
614.93936898689
 10
846.0133927246885
 20
614.93936898689
 10
846.0133927246885
 20
614.93936898689
 10
846.0133927246885
 20
614.93936898689
 10
846.0133927246885
 20
616.3309705490421
 10
846.0133927246885
 20
616.3309705490421
 10
846.0133927246885
 20
616.3309705490421
 10
847.0451310056806
 20
616.6063611739733
 10
847.0451310056806
 20
616.6063611739733
 97
        0
 97
        0
 75
     2
 76
     1
 98
        0
  0
SPLINE
  5
B3
330
9B
100
AcDbEntity
  8
0
 62
   240
420
 15539236
370
    35
100
AcDbSpline
210
0.0
220
0.0
230
1.0
 70
    11
 71
     3
 72
    32
 73
    28
 74
     0
 42
0.0000000001
 43
0.0000000001
 12
1.0
 22
0.0
 32
0.0
 13
1.0
 23
0.0
 33
0.0
 40
0.0
 40
0.0
 40
0.0
 40
0.0
 40
1.0
 40
1.0
 40
1.0
 40
2.0
 40
2.0
 40
2.0
 40
3.0
 40
3.0
 40
3.0
 40
4.0
 40
4.0
 40
4.0
 40
5.0
 40
5.0
 40
5.0
 40
6.0
 40
6.0
 40
6.0
 40
7.0
 40
7.0
 40
7.0
 40
8.0
 40
8.0
 40
8.0
 40
9.0
 40
9.0
 40
9.0
 40
9.0
 10
850.2614395986265
 20
611.8451307064136
 30
0.0
 10
850.2853653798705
 20
610.4178846130204
 30
0.0
 10
851.1969864733926
 20
609.8304822694172
 30
0.0
 10
852.2521622543788
 20
609.8304822694172
 30
0.0
 10
853.0075333479399
 20
609.8304822694172
 30
0.0
 10
853.463588035326
 20
609.9623182068843
 30
0.0
 10
853.8590958477271
 20
610.1302869568423
 30
0.0
 10
853.8590958477271
 20
610.1302869568423
 30
0.0
 10
854.039271628932
 20
609.3744275820312
 30
0.0
 10
854.039271628932
 20
609.3744275820312
 30
0.0
 10
853.667201316525
 20
609.2064588320733
 30
0.0
 10
853.0319474104339
 20
609.0145643008713
 30
0.0
 10
852.1081192856648
 20
609.0145643008713
 30
0.0
 10
850.3210099111116
 20
609.0145643008713
 30
0.0
 10
849.2536270988784
 20
610.1903455505773
 30
0.0
 10
849.2536270988784
 20
611.9413221126396
 30
0.0
 10
849.2536270988784
 20
613.6922986747018
 30
0.0
 10
850.2853653798705
 20
615.0712049243571
 30
0.0
 10
851.9762833481977
 20
615.0712049243571
 30
0.0
 10
853.871302878974
 20
615.0712049243571
 30
0.0
 10
854.375209128848
 20
613.4042127372738
 30
0.0
 10
854.375209128848
 20
612.3368299250407
 30
0.0
 10
854.375209128848
 20
612.1210096125947
 30
0.0
 10
854.3507950663542
 20
611.9530408626366
 30
0.0
 10
854.339076316357
 20
611.8451307064136
 30
0.0
 10
854.339076316357
 20
611.8451307064136
 30
0.0
 10
850.2614395986265
 20
611.8451307064136
 30
0.0
 10
850.2614395986265
 20
611.8451307064136
 30
0.0
  0
SPLINE
  5
B4
330
9B
100
AcDbEntity
  8
0
 62
   240
420
 15539236
370
    35
100
AcDbSpline
210
0.0
220
0.0
230
1.0
 70
    11
 71
     3
 72
    14
 73
    10
 74
     0
 42
0.0000000001
 43
0.0000000001
 12
1.0
 22
0.0
 32
0.0
 13
1.0
 23
0.0
 33
0.0
 40
0.0
 40
0.0
 40
0.0
 40
0.0
 40
1.0
 40
1.0
 40
1.0
 40
2.0
 40
2.0
 40
2.0
 40
3.0
 40
3.0
 40
3.0
 40
3.0
 10
853.3556778791029
 20
612.6009900812246
 30
0.0
 10
853.3673966291
 20
613.2723767998068
 30
0.0
 10
853.0797989729219
 20
614.3158338307959
 30
0.0
 10
851.8922989732188
 20
614.3158338307959
 30
0.0
 10
850.8249161609856
 20
614.3158338307959
 30
0.0
 10
850.3571427236026
 20
613.3324353935418
 30
0.0
 10
850.2731583486235
 20
612.6009900812246
 30
0.0
 10
850.2731583486235
 20
612.6009900812246
 30
0.0
 10
853.3556778791029
 20
612.6009900812246
 30
0.0
 10
853.3556778791029
 20
612.6009900812246
 30
0.0
  0
HATCH
  5
B5
330
9B
100
AcDbEntity
  8
0
 62
   240
420
 15539236
100
AcDbHatch
 10
0.0
 20
0.0
 30
0.0
210
0.0
220
0.0
230
1.0
  2
SOLID
 70
     1
 71
     0
 91
        2
 92
        1
 93
        1
 72
     4
 94
        3
 73
     0
 74
     1
 95
       32
 96
       28
 40
0.0
 40
0.0
 40
0.0
 40
0.0
 40
1.0
 40
1.0
 40
1.0
 40
2.0
 40
2.0
 40
2.0
 40
3.0
 40
3.0
 40
3.0
 40
4.0
 40
4.0
 40
4.0
 40
5.0
 40
5.0
 40
5.0
 40
6.0
 40
6.0
 40
6.0
 40
7.0
 40
7.0
 40
7.0
 40
8.0
 40
8.0
 40
8.0
 40
9.0
 40
9.0
 40
9.0
 40
9.0
 10
850.2614395986265
 20
611.8451307064136
 10
850.2853653798705
 20
610.4178846130204
 10
851.1969864733926
 20
609.8304822694172
 10
852.2521622543788
 20
609.8304822694172
 10
853.0075333479399
 20
609.8304822694172
 10
853.463588035326
 20
609.9623182068843
 10
853.8590958477271
 20
610.1302869568423
 10
853.8590958477271
 20
610.1302869568423
 10
854.039271628932
 20
609.3744275820312
 10
854.039271628932
 20
609.3744275820312
 10
853.667201316525
 20
609.2064588320733
 10
853.0319474104339
 20
609.0145643008713
 10
852.1081192856648
 20
609.0145643008713
 10
850.3210099111116
 20
609.0145643008713
 10
849.2536270988784
 20
610.1903455505773
 10
849.2536270988784
 20
611.9413221126396
 10
849.2536270988784
 20
613.6922986747018
 10
850.2853653798705
 20
615.0712049243571
 10
851.9762833481977
 20
615.0712049243571
 10
853.871302878974
 20
615.0712049243571
 10
854.375209128848
 20
613.4042127372738
 10
854.375209128848
 20
612.3368299250407
 10
854.375209128848
 20
612.1210096125947
 10
854.3507950663542
 20
611.9530408626366
 10
854.339076316357
 20
611.8451307064136
 10
854.339076316357
 20
611.8451307064136
 10
850.2614395986265
 20
611.8451307064136
 10
850.2614395986265
 20
611.8451307064136
 97
        0
 97
        0
 92
        1
 93
        1
 72
     4
 94
        3
 73
     0
 74
     1
 95
       14
 96
       10
 40
0.0
 40
0.0
 40
0.0
 40
0.0
 40
1.0
 40
1.0
 40
1.0
 40
2.0
 40
2.0
 40
2.0
 40
3.0
 40
3.0
 40
3.0
 40
3.0
 10
853.3556778791029
 20
612.6009900812246
 10
853.3673966291
 20
613.2723767998068
 10
853.0797989729219
 20
614.3158338307959
 10
851.8922989732188
 20
614.3158338307959
 10
850.8249161609856
 20
614.3158338307959
 10
850.3571427236026
 20
613.3324353935418
 10
850.2731583486235
 20
612.6009900812246
 10
850.2731583486235
 20
612.6009900812246
 10
853.3556778791029
 20
612.6009900812246
 10
853.3556778791029
 20
612.6009900812246
 97
        0
 97
        0
 75
     2
 76
     1
 98
        0
  0
SPLINE
  5
B6
330
9B
100
AcDbEntity
  8
0
 62
   240
420
 15539236
370
    35
100
AcDbSpline
210
0.0
220
0.0
230
1.0
 70
    11
 71
     3
 72
    41
 73
    37
 74
     0
 42
0.0000000001
 43
0.0000000001
 12
1.0
 22
0.0
 32
0.0
 13
1.0
 23
0.0
 33
0.0
 40
0.0
 40
0.0
 40
0.0
 40
0.0
 40
1.0
 40
1.0
 40
1.0
 40
2.0
 40
2.0
 40
2.0
 40
3.0
 40
3.0
 40
3.0
 40
4.0
 40
4.0
 40
4.0
 40
5.0
 40
5.0
 40
5.0
 40
6.0
 40
6.0
 40
6.0
 40
7.0
 40
7.0
 40
7.0
 40
8.0
 40
8.0
 40
8.0
 40
9.0
 40
9.0
 40
9.0
 40
10.0
 40
10.0
 40
10.0
 40
11.0
 40
11.0
 40
11.0
 40
12.0
 40
12.0
 40
12.0
 40
12.0
 10
855.6852677222705
 20
613.0443494561138
 30
0.0
 10
855.6852677222705
 20
613.7880017996779
 30
0.0
 10
855.6613419410265
 20
614.3876111745279
 30
0.0
 10
855.6374161597824
 20
614.93936898689
 30
0.0
 10
855.6374161597824
 20
614.93936898689
 30
0.0
 10
856.5846817845456
 20
614.93936898689
 30
0.0
 10
856.5846817845456
 20
614.93936898689
 30
0.0
 10
856.5846817845456
 20
614.93936898689
 30
0.0
 10
856.6325333470337
 20
613.9442517996388
 30
0.0
 10
856.6325333470337
 20
613.9442517996388
 30
0.0
 10
856.6325333470337
 20
613.9442517996388
 30
0.0
 10
856.6569474095276
 20
613.9442517996388
 30
0.0
 10
856.6569474095276
 20
613.9442517996388
 30
0.0
 10
857.0885880344197
 20
614.6517713307119
 30
0.0
 10
857.7721817842488
 20
615.0712049243571
 30
0.0
 10
858.719447409012
 20
615.0712049243571
 30
0.0
 10
860.1227677211612
 20
615.0712049243571
 30
0.0
 10
861.1784317833972
 20
613.8841932059038
 30
0.0
 10
861.1784317833972
 20
612.1210096125947
 30
0.0
 10
861.1784317833972
 20
610.0340955506164
 30
0.0
 10
859.906947408715
 20
609.0028455508741
 30
0.0
 10
858.5397599090569
 20
609.0028455508741
 30
0.0
 10
857.7721817842488
 20
609.0028455508741
 30
0.0
 10
857.1003067844167
 20
609.3387830507902
 30
0.0
 10
856.7526505345037
 20
609.9144666443963
 30
0.0
 10
856.7526505345037
 20
609.9144666443963
 30
0.0
 10
856.7287247532596
 20
609.9144666443963
 30
0.0
 10
856.7287247532596
 20
609.9144666443963
 30
0.0
 10
856.7287247532596
 20
609.9144666443963
 30
0.0
 10
856.7287247532596
 20
606.7601697701848
 30
0.0
 10
856.7287247532596
 20
606.7601697701848
 30
0.0
 10
856.7287247532596
 20
606.7601697701848
 30
0.0
 10
855.6852677222705
 20
606.7601697701848
 30
0.0
 10
855.6852677222705
 20
606.7601697701848
 30
0.0
 10
855.6852677222705
 20
606.7601697701848
 30
0.0
 10
855.6852677222705
 20
613.0443494561138
 30
0.0
 10
855.6852677222705
 20
613.0443494561138
 30
0.0
  0
SPLINE
  5
B7
330
9B
100
AcDbEntity
  8
0
 62
   240
420
 15539236
370
    35
100
AcDbSpline
210
0.0
220
0.0
230
1.0
 70
    11
 71
     3
 72
    26
 73
    22
 74
     0
 42
0.0000000001
 43
0.0000000001
 12
1.0
 22
0.0
 32
0.0
 13
1.0
 23
0.0
 33
0.0
 40
0.0
 40
0.0
 40
0.0
 40
0.0
 40
1.0
 40
1.0
 40
1.0
 40
2.0
 40
2.0
 40
2.0
 40
3.0
 40
3.0
 40
3.0
 40
4.0
 40
4.0
 40
4.0
 40
5.0
 40
5.0
 40
5.0
 40
6.0
 40
6.0
 40
6.0
 40
7.0
 40
7.0
 40
7.0
 40
7.0
 10
856.7287247532596
 20
611.4974744565005
 30
0.0
 10
856.7287247532596
 20
611.3417127377894
 30
0.0
 10
856.7526505345037
 20
611.1976697690754
 30
0.0
 10
856.7765763157477
 20
611.0658338316084
 30
0.0
 10
856.9684708469497
 20
610.3339002380413
 30
0.0
 10
857.6042130342908
 20
609.8304822694172
 30
0.0
 10
858.3600724091018
 20
609.8304822694172
 30
0.0
 10
859.475306783823
 20
609.8304822694172
 30
0.0
 10
860.1227677211612
 20
610.7416150816895
 30
0.0
 10
860.1227677211612
 20
612.0731580501066
 30
0.0
 10
860.1227677211612
 20
613.2362439873158
 30
0.0
 10
859.511439596314
 20
614.2318494558169
 30
0.0
 10
858.3957169403429
 20
614.2318494558169
 30
0.0
 10
857.6759903780228
 20
614.2318494558169
 30
0.0
 10
857.0046036594407
 20
613.7162244559458
 30
0.0
 10
856.8005020969917
 20
612.9247205498937
 30
0.0
 10
856.7648575657506
 20
612.7928846124266
 30
0.0
 10
856.7287247532596
 20
612.6366346124657
 30
0.0
 10
856.7287247532596
 20
612.4930799250016
 30
0.0
 10
856.7287247532596
 20
612.4930799250016
 30
0.0
 10
856.7287247532596
 20
611.4974744565005
 30
0.0
 10
856.7287247532596
 20
611.4974744565005
 30
0.0
  0
HATCH
  5
B8
330
9B
100
AcDbEntity
  8
0
 62
   240
420
 15539236
100
AcDbHatch
 10
0.0
 20
0.0
 30
0.0
210
0.0
220
0.0
230
1.0
  2
SOLID
 70
     1
 71
     0
 91
        2
 92
        1
 93
        1
 72
     4
 94
        3
 73
     0
 74
     1
 95
       41
 96
       37
 40
0.0
 40
0.0
 40
0.0
 40
0.0
 40
1.0
 40
1.0
 40
1.0
 40
2.0
 40
2.0
 40
2.0
 40
3.0
 40
3.0
 40
3.0
 40
4.0
 40
4.0
 40
4.0
 40
5.0
 40
5.0
 40
5.0
 40
6.0
 40
6.0
 40
6.0
 40
7.0
 40
7.0
 40
7.0
 40
8.0
 40
8.0
 40
8.0
 40
9.0
 40
9.0
 40
9.0
 40
10.0
 40
10.0
 40
10.0
 40
11.0
 40
11.0
 40
11.0
 40
12.0
 40
12.0
 40
12.0
 40
12.0
 10
855.6852677222705
 20
613.0443494561138
 10
855.6852677222705
 20
613.7880017996779
 10
855.6613419410265
 20
614.3876111745279
 10
855.6374161597824
 20
614.93936898689
 10
855.6374161597824
 20
614.93936898689
 10
856.5846817845456
 20
614.93936898689
 10
856.5846817845456
 20
614.93936898689
 10
856.5846817845456
 20
614.93936898689
 10
856.6325333470337
 20
613.9442517996388
 10
856.6325333470337
 20
613.9442517996388
 10
856.6325333470337
 20
613.9442517996388
 10
856.6569474095276
 20
613.9442517996388
 10
856.6569474095276
 20
613.9442517996388
 10
857.0885880344197
 20
614.6517713307119
 10
857.7721817842488
 20
615.0712049243571
 10
858.719447409012
 20
615.0712049243571
 10
860.1227677211612
 20
615.0712049243571
 10
861.1784317833972
 20
613.8841932059038
 10
861.1784317833972
 20
612.1210096125947
 10
861.1784317833972
 20
610.0340955506164
 10
859.906947408715
 20
609.0028455508741
 10
858.5397599090569
 20
609.0028455508741
 10
857.7721817842488
 20
609.0028455508741
 10
857.1003067844167
 20
609.3387830507902
 10
856.7526505345037
 20
609.9144666443963
 10
856.7526505345037
 20
609.9144666443963
 10
856.7287247532596
 20
609.9144666443963
 10
856.7287247532596
 20
609.9144666443963
 10
856.7287247532596
 20
609.9144666443963
 10
856.7287247532596
 20
606.7601697701848
 10
856.7287247532596
 20
606.7601697701848
 10
856.7287247532596
 20
606.7601697701848
 10
855.6852677222705
 20
606.7601697701848
 10
855.6852677222705
 20
606.7601697701848
 10
855.6852677222705
 20
606.7601697701848
 10
855.6852677222705
 20
613.0443494561138
 10
855.6852677222705
 20
613.0443494561138
 97
        0
 97
        0
 92
        1
 93
        1
 72
     4
 94
        3
 73
     0
 74
     1
 95
       26
 96
       22
 40
0.0
 40
0.0
 40
0.0
 40
0.0
 40
1.0
 40
1.0
 40
1.0
 40
2.0
 40
2.0
 40
2.0
 40
3.0
 40
3.0
 40
3.0
 40
4.0
 40
4.0
 40
4.0
 40
5.0
 40
5.0
 40
5.0
 40
6.0
 40
6.0
 40
6.0
 40
7.0
 40
7.0
 40
7.0
 40
7.0
 10
856.7287247532596
 20
611.4974744565005
 10
856.7287247532596
 20
611.3417127377894
 10
856.7526505345037
 20
611.1976697690754
 10
856.7765763157477
 20
611.0658338316084
 10
856.9684708469497
 20
610.3339002380413
 10
857.6042130342908
 20
609.8304822694172
 10
858.3600724091018
 20
609.8304822694172
 10
859.475306783823
 20
609.8304822694172
 10
860.1227677211612
 20
610.7416150816895
 10
860.1227677211612
 20
612.0731580501066
 10
860.1227677211612
 20
613.2362439873158
 10
859.511439596314
 20
614.2318494558169
 10
858.3957169403429
 20
614.2318494558169
 10
857.6759903780228
 20
614.2318494558169
 10
857.0046036594407
 20
613.7162244559458
 10
856.8005020969917
 20
612.9247205498937
 10
856.7648575657506
 20
612.7928846124266
 10
856.7287247532596
 20
612.6366346124657
 10
856.7287247532596
 20
612.4930799250016
 10
856.7287247532596
 20
612.4930799250016
 10
856.7287247532596
 20
611.4974744565005
 10
856.7287247532596
 20
611.4974744565005
 97
        0
 97
        0
 75
     2
 76
     1
 98
        0
  0
SPLINE
  5
B9
330
9B
100
AcDbEntity
  8
0
 62
   240
420
 15539236
370
    35
100
AcDbSpline
210
0.0
220
0.0
230
1.0
 70
    11
 71
     3
 72
    41
 73
    37
 74
     0
 42
0.0000000001
 43
0.0000000001
 12
1.0
 22
0.0
 32
0.0
 13
1.0
 23
0.0
 33
0.0
 40
0.0
 40
0.0
 40
0.0
 40
0.0
 40
1.0
 40
1.0
 40
1.0
 40
2.0
 40
2.0
 40
2.0
 40
3.0
 40
3.0
 40
3.0
 40
4.0
 40
4.0
 40
4.0
 40
5.0
 40
5.0
 40
5.0
 40
6.0
 40
6.0
 40
6.0
 40
7.0
 40
7.0
 40
7.0
 40
8.0
 40
8.0
 40
8.0
 40
9.0
 40
9.0
 40
9.0
 40
10.0
 40
10.0
 40
10.0
 40
11.0
 40
11.0
 40
11.0
 40
12.0
 40
12.0
 40
12.0
 40
12.0
 10
862.5133927205635
 20
613.0443494561138
 30
0.0
 10
862.5133927205635
 20
613.7880017996779
 30
0.0
 10
862.4894669393194
 20
614.3876111745279
 30
0.0
 10
862.4655411580754
 20
614.93936898689
 30
0.0
 10
862.4655411580754
 20
614.93936898689
 30
0.0
 10
863.4128067828386
 20
614.93936898689
 30
0.0
 10
863.4128067828386
 20
614.93936898689
 30
0.0
 10
863.4128067828386
 20
614.93936898689
 30
0.0
 10
863.4606583453267
 20
613.9442517996388
 30
0.0
 10
863.4606583453267
 20
613.9442517996388
 30
0.0
 10
863.4606583453267
 20
613.9442517996388
 30
0.0
 10
863.4850724078206
 20
613.9442517996388
 30
0.0
 10
863.4850724078206
 20
613.9442517996388
 30
0.0
 10
863.9167130327127
 20
614.6517713307119
 30
0.0
 10
864.6003067825418
 20
615.0712049243571
 30
0.0
 10
865.547572407305
 20
615.0712049243571
 30
0.0
 10
866.9508927194541
 20
615.0712049243571
 30
0.0
 10
868.0065567816902
 20
613.8841932059038
 30
0.0
 10
868.0065567816902
 20
612.1210096125947
 30
0.0
 10
868.0065567816902
 20
610.0340955506164
 30
0.0
 10
866.735072407008
 20
609.0028455508741
 30
0.0
 10
865.3678849073499
 20
609.0028455508741
 30
0.0
 10
864.6003067825418
 20
609.0028455508741
 30
0.0
 10
863.9284317827097
 20
609.3387830507902
 30
0.0
 10
863.5807755327967
 20
609.9144666443963
 30
0.0
 10
863.5807755327967
 20
609.9144666443963
 30
0.0
 10
863.5568497515526
 20
609.9144666443963
 30
0.0
 10
863.5568497515526
 20
609.9144666443963
 30
0.0
 10
863.5568497515526
 20
609.9144666443963
 30
0.0
 10
863.5568497515526
 20
606.7601697701848
 30
0.0
 10
863.5568497515526
 20
606.7601697701848
 30
0.0
 10
863.5568497515526
 20
606.7601697701848
 30
0.0
 10
862.5133927205635
 20
606.7601697701848
 30
0.0
 10
862.5133927205635
 20
606.7601697701848
 30
0.0
 10
862.5133927205635
 20
606.7601697701848
 30
0.0
 10
862.5133927205635
 20
613.0443494561138
 30
0.0
 10
862.5133927205635
 20
613.0443494561138
 30
0.0
  0
SPLINE
  5
BA
330
9B
100
AcDbEntity
  8
0
 62
   240
420
 15539236
370
    35
100
AcDbSpline
210
0.0
220
0.0
230
1.0
 70
    11
 71
     3
 72
    26
 73
    22
 74
     0
 42
0.0000000001
 43
0.0000000001
 12
1.0
 22
0.0
 32
0.0
 13
1.0
 23
0.0
 33
0.0
 40
0.0
 40
0.0
 40
0.0
 40
0.0
 40
1.0
 40
1.0
 40
1.0
 40
2.0
 40
2.0
 40
2.0
 40
3.0
 40
3.0
 40
3.0
 40
4.0
 40
4.0
 40
4.0
 40
5.0
 40
5.0
 40
5.0
 40
6.0
 40
6.0
 40
6.0
 40
7.0
 40
7.0
 40
7.0
 40
7.0
 10
863.5568497515526
 20
611.4974744565005
 30
0.0
 10
863.5568497515526
 20
611.3417127377894
 30
0.0
 10
863.5807755327967
 20
611.1976697690754
 30
0.0
 10
863.6047013140407
 20
611.0658338316084
 30
0.0
 10
863.7965958452427
 20
610.3339002380413
 30
0.0
 10
864.4323380325837
 20
609.8304822694172
 30
0.0
 10
865.1881974073948
 20
609.8304822694172
 30
0.0
 10
866.3034317821159
 20
609.8304822694172
 30
0.0
 10
866.9508927194541
 20
610.7416150816895
 30
0.0
 10
866.9508927194541
 20
612.0731580501066
 30
0.0
 10
866.9508927194541
 20
613.2362439873158
 30
0.0
 10
866.3395645946069
 20
614.2318494558169
 30
0.0
 10
865.2238419386358
 20
614.2318494558169
 30
0.0
 10
864.5041153763158
 20
614.2318494558169
 30
0.0
 10
863.8327286577337
 20
613.7162244559458
 30
0.0
 10
863.6286270952846
 20
612.9247205498937
 30
0.0
 10
863.5929825640436
 20
612.7928846124266
 30
0.0
 10
863.5568497515526
 20
612.6366346124657
 30
0.0
 10
863.5568497515526
 20
612.4930799250016
 30
0.0
 10
863.5568497515526
 20
612.4930799250016
 30
0.0
 10
863.5568497515526
 20
611.4974744565005
 30
0.0
 10
863.5568497515526
 20
611.4974744565005
 30
0.0
  0
HATCH
  5
BB
330
9B
100
AcDbEntity
  8
0
 62
   240
420
 15539236
100
AcDbHatch
 10
0.0
 20
0.0
 30
0.0
210
0.0
220
0.0
230
1.0
  2
SOLID
 70
     1
 71
     0
 91
        2
 92
        1
 93
        1
 72
     4
 94
        3
 73
     0
 74
     1
 95
       41
 96
       37
 40
0.0
 40
0.0
 40
0.0
 40
0.0
 40
1.0
 40
1.0
 40
1.0
 40
2.0
 40
2.0
 40
2.0
 40
3.0
 40
3.0
 40
3.0
 40
4.0
 40
4.0
 40
4.0
 40
5.0
 40
5.0
 40
5.0
 40
6.0
 40
6.0
 40
6.0
 40
7.0
 40
7.0
 40
7.0
 40
8.0
 40
8.0
 40
8.0
 40
9.0
 40
9.0
 40
9.0
 40
10.0
 40
10.0
 40
10.0
 40
11.0
 40
11.0
 40
11.0
 40
12.0
 40
12.0
 40
12.0
 40
12.0
 10
862.5133927205635
 20
613.0443494561138
 10
862.5133927205635
 20
613.7880017996779
 10
862.4894669393194
 20
614.3876111745279
 10
862.4655411580754
 20
614.93936898689
 10
862.4655411580754
 20
614.93936898689
 10
863.4128067828386
 20
614.93936898689
 10
863.4128067828386
 20
614.93936898689
 10
863.4128067828386
 20
614.93936898689
 10
863.4606583453267
 20
613.9442517996388
 10
863.4606583453267
 20
613.9442517996388
 10
863.4606583453267
 20
613.9442517996388
 10
863.4850724078206
 20
613.9442517996388
 10
863.4850724078206
 20
613.9442517996388
 10
863.9167130327127
 20
614.6517713307119
 10
864.6003067825418
 20
615.0712049243571
 10
865.547572407305
 20
615.0712049243571
 10
866.9508927194541
 20
615.0712049243571
 10
868.0065567816902
 20
613.8841932059038
 10
868.0065567816902
 20
612.1210096125947
 10
868.0065567816902
 20
610.0340955506164
 10
866.735072407008
 20
609.0028455508741
 10
865.3678849073499
 20
609.0028455508741
 10
864.6003067825418
 20
609.0028455508741
 10
863.9284317827097
 20
609.3387830507902
 10
863.5807755327967
 20
609.9144666443963
 10
863.5807755327967
 20
609.9144666443963
 10
863.5568497515526
 20
609.9144666443963
 10
863.5568497515526
 20
609.9144666443963
 10
863.5568497515526
 20
609.9144666443963
 10
863.5568497515526
 20
606.7601697701848
 10
863.5568497515526
 20
606.7601697701848
 10
863.5568497515526
 20
606.7601697701848
 10
862.5133927205635
 20
606.7601697701848
 10
862.5133927205635
 20
606.7601697701848
 10
862.5133927205635
 20
606.7601697701848
 10
862.5133927205635
 20
613.0443494561138
 10
862.5133927205635
 20
613.0443494561138
 97
        0
 97
        0
 92
        1
 93
        1
 72
     4
 94
        3
 73
     0
 74
     1
 95
       26
 96
       22
 40
0.0
 40
0.0
 40
0.0
 40
0.0
 40
1.0
 40
1.0
 40
1.0
 40
2.0
 40
2.0
 40
2.0
 40
3.0
 40
3.0
 40
3.0
 40
4.0
 40
4.0
 40
4.0
 40
5.0
 40
5.0
 40
5.0
 40
6.0
 40
6.0
 40
6.0
 40
7.0
 40
7.0
 40
7.0
 40
7.0
 10
863.5568497515526
 20
611.4974744565005
 10
863.5568497515526
 20
611.3417127377894
 10
863.5807755327967
 20
611.1976697690754
 10
863.6047013140407
 20
611.0658338316084
 10
863.7965958452427
 20
610.3339002380413
 10
864.4323380325837
 20
609.8304822694172
 10
865.1881974073948
 20
609.8304822694172
 10
866.3034317821159
 20
609.8304822694172
 10
866.9508927194541
 20
610.7416150816895
 10
866.9508927194541
 20
612.0731580501066
 10
866.9508927194541
 20
613.2362439873158
 10
866.3395645946069
 20
614.2318494558169
 10
865.2238419386358
 20
614.2318494558169
 10
864.5041153763158
 20
614.2318494558169
 10
863.8327286577337
 20
613.7162244559458
 10
863.6286270952846
 20
612.9247205498937
 10
863.5929825640436
 20
612.7928846124266
 10
863.5568497515526
 20
612.6366346124657
 10
863.5568497515526
 20
612.4930799250016
 10
863.5568497515526
 20
612.4930799250016
 10
863.5568497515526
 20
611.4974744565005
 10
863.5568497515526
 20
611.4974744565005
 97
        0
 97
        0
 75
     2
 76
     1
 98
        0
  0
SPLINE
  5
BC
330
9B
100
AcDbEntity
  8
0
 62
   240
420
 15539236
370
    35
100
AcDbSpline
210
0.0
220
0.0
230
1.0
 70
    11
 71
     3
 72
    32
 73
    28
 74
     0
 42
0.0000000001
 43
0.0000000001
 12
1.0
 22
0.0
 32
0.0
 13
1.0
 23
0.0
 33
0.0
 40
0.0
 40
0.0
 40
0.0
 40
0.0
 40
1.0
 40
1.0
 40
1.0
 40
2.0
 40
2.0
 40
2.0
 40
3.0
 40
3.0
 40
3.0
 40
4.0
 40
4.0
 40
4.0
 40
5.0
 40
5.0
 40
5.0
 40
6.0
 40
6.0
 40
6.0
 40
7.0
 40
7.0
 40
7.0
 40
8.0
 40
8.0
 40
8.0
 40
9.0
 40
9.0
 40
9.0
 40
9.0
 10
869.9289200624596
 20
611.8451307064136
 30
0.0
 10
869.9528458437036
 20
610.4178846130204
 30
0.0
 10
870.8639786559759
 20
609.8304822694172
 30
0.0
 10
871.9196427182119
 20
609.8304822694172
 30
0.0
 10
872.675013811773
 20
609.8304822694172
 30
0.0
 10
873.131068499159
 20
609.9623182068843
 30
0.0
 10
873.5265763115602
 20
610.1302869568423
 30
0.0
 10
873.5265763115602
 20
610.1302869568423
 30
0.0
 10
873.7067520927651
 20
609.3744275820312
 30
0.0
 10
873.7067520927651
 20
609.3744275820312
 30
0.0
 10
873.3346817803582
 20
609.2064588320733
 30
0.0
 10
872.699427874267
 20
609.0145643008713
 30
0.0
 10
871.7755997494979
 20
609.0145643008713
 30
0.0
 10
869.9884903749447
 20
609.0145643008713
 30
0.0
 10
868.9211075627115
 20
610.1903455505773
 30
0.0
 10
868.9211075627115
 20
611.9413221126396
 30
0.0
 10
868.9211075627115
 20
613.6922986747018
 30
0.0
 10
869.9528458437036
 20
615.0712049243571
 30
0.0
 10
871.6437638120309
 20
615.0712049243571
 30
0.0
 10
873.5387833428072
 20
615.0712049243571
 30
0.0
 10
874.0426895926812
 20
613.4042127372738
 30
0.0
 10
874.0426895926812
 20
612.3368299250407
 30
0.0
 10
874.0426895926812
 20
612.1210096125947
 30
0.0
 10
874.0182755301872
 20
611.9530408626366
 30
0.0
 10
874.0065567801902
 20
611.8451307064136
 30
0.0
 10
874.0065567801902
 20
611.8451307064136
 30
0.0
 10
869.9289200624596
 20
611.8451307064136
 30
0.0
 10
869.9289200624596
 20
611.8451307064136
 30
0.0
  0
SPLINE
  5
BD
330
9B
100
AcDbEntity
  8
0
 62
   240
420
 15539236
370
    35
100
AcDbSpline
210
0.0
220
0.0
230
1.0
 70
    11
 71
     3
 72
    14
 73
    10
 74
     0
 42
0.0000000001
 43
0.0000000001
 12
1.0
 22
0.0
 32
0.0
 13
1.0
 23
0.0
 33
0.0
 40
0.0
 40
0.0
 40
0.0
 40
0.0
 40
1.0
 40
1.0
 40
1.0
 40
2.0
 40
2.0
 40
2.0
 40
3.0
 40
3.0
 40
3.0
 40
3.0
 10
873.0231583429361
 20
612.6009900812246
 30
0.0
 10
873.0348770929331
 20
613.2723767998068
 30
0.0
 10
872.747279436755
 20
614.3158338307959
 30
0.0
 10
871.5597794370519
 20
614.3158338307959
 30
0.0
 10
870.4923966248188
 20
614.3158338307959
 30
0.0
 10
870.0246231874356
 20
613.3324353935418
 30
0.0
 10
869.9406388124567
 20
612.6009900812246
 30
0.0
 10
869.9406388124567
 20
612.6009900812246
 30
0.0
 10
873.0231583429361
 20
612.6009900812246
 30
0.0
 10
873.0231583429361
 20
612.6009900812246
 30
0.0
  0
HATCH
  5
BE
330
9B
100
AcDbEntity
  8
0
 62
   240
420
 15539236
100
AcDbHatch
 10
0.0
 20
0.0
 30
0.0
210
0.0
220
0.0
230
1.0
  2
SOLID
 70
     1
 71
     0
 91
        2
 92
        1
 93
        1
 72
     4
 94
        3
 73
     0
 74
     1
 95
       32
 96
       28
 40
0.0
 40
0.0
 40
0.0
 40
0.0
 40
1.0
 40
1.0
 40
1.0
 40
2.0
 40
2.0
 40
2.0
 40
3.0
 40
3.0
 40
3.0
 40
4.0
 40
4.0
 40
4.0
 40
5.0
 40
5.0
 40
5.0
 40
6.0
 40
6.0
 40
6.0
 40
7.0
 40
7.0
 40
7.0
 40
8.0
 40
8.0
 40
8.0
 40
9.0
 40
9.0
 40
9.0
 40
9.0
 10
869.9289200624596
 20
611.8451307064136
 10
869.9528458437036
 20
610.4178846130204
 10
870.8639786559759
 20
609.8304822694172
 10
871.9196427182119
 20
609.8304822694172
 10
872.675013811773
 20
609.8304822694172
 10
873.131068499159
 20
609.9623182068843
 10
873.5265763115602
 20
610.1302869568423
 10
873.5265763115602
 20
610.1302869568423
 10
873.7067520927651
 20
609.3744275820312
 10
873.7067520927651
 20
609.3744275820312
 10
873.3346817803582
 20
609.2064588320733
 10
872.699427874267
 20
609.0145643008713
 10
871.7755997494979
 20
609.0145643008713
 10
869.9884903749447
 20
609.0145643008713
 10
868.9211075627115
 20
610.1903455505773
 10
868.9211075627115
 20
611.9413221126396
 10
868.9211075627115
 20
613.6922986747018
 10
869.9528458437036
 20
615.0712049243571
 10
871.6437638120309
 20
615.0712049243571
 10
873.5387833428072
 20
615.0712049243571
 10
874.0426895926812
 20
613.4042127372738
 10
874.0426895926812
 20
612.3368299250407
 10
874.0426895926812
 20
612.1210096125947
 10
874.0182755301872
 20
611.9530408626366
 10
874.0065567801902
 20
611.8451307064136
 10
874.0065567801902
 20
611.8451307064136
 10
869.9289200624596
 20
611.8451307064136
 10
869.9289200624596
 20
611.8451307064136
 97
        0
 97
        0
 92
        1
 93
        1
 72
     4
 94
        3
 73
     0
 74
     1
 95
       14
 96
       10
 40
0.0
 40
0.0
 40
0.0
 40
0.0
 40
1.0
 40
1.0
 40
1.0
 40
2.0
 40
2.0
 40
2.0
 40
3.0
 40
3.0
 40
3.0
 40
3.0
 10
873.0231583429361
 20
612.6009900812246
 10
873.0348770929331
 20
613.2723767998068
 10
872.747279436755
 20
614.3158338307959
 10
871.5597794370519
 20
614.3158338307959
 10
870.4923966248188
 20
614.3158338307959
 10
870.0246231874356
 20
613.3324353935418
 10
869.9406388124567
 20
612.6009900812246
 10
869.9406388124567
 20
612.6009900812246
 10
873.0231583429361
 20
612.6009900812246
 10
873.0231583429361
 20
612.6009900812246
 97
        0
 97
        0
 75
     2
 76
     1
 98
        0
  0
SPLINE
  5
BF
330
9B
100
AcDbEntity
  8
0
 62
   240
420
 15539236
370
    35
100
AcDbSpline
210
0.0
220
0.0
230
1.0
 70
    11
 71
     3
 72
    41
 73
    37
 74
     0
 42
0.0000000001
 43
0.0000000001
 12
1.0
 22
0.0
 32
0.0
 13
1.0
 23
0.0
 33
0.0
 40
0.0
 40
0.0
 40
0.0
 40
0.0
 40
1.0
 40
1.0
 40
1.0
 40
2.0
 40
2.0
 40
2.0
 40
3.0
 40
3.0
 40
3.0
 40
4.0
 40
4.0
 40
4.0
 40
5.0
 40
5.0
 40
5.0
 40
6.0
 40
6.0
 40
6.0
 40
7.0
 40
7.0
 40
7.0
 40
8.0
 40
8.0
 40
8.0
 40
9.0
 40
9.0
 40
9.0
 40
10.0
 40
10.0
 40
10.0
 40
11.0
 40
11.0
 40
11.0
 40
12.0
 40
12.0
 40
12.0
 40
12.0
 10
880.3659317786004
 20
617.6498182049625
 30
0.0
 10
880.3659317786004
 20
617.6498182049625
 30
0.0
 10
880.3659317786004
 20
610.6337049254664
 30
0.0
 10
880.3659317786004
 20
610.6337049254664
 30
0.0
 10
880.3659317786004
 20
610.1180799255953
 30
0.0
 10
880.3781388098473
 20
609.5306775819922
 30
0.0
 10
880.4137833410883
 20
609.1346814883412
 30
0.0
 10
880.4137833410883
 20
609.1346814883412
 30
0.0
 10
879.4665177163253
 20
609.1346814883412
 30
0.0
 10
879.4665177163253
 20
609.1346814883412
 30
0.0
 10
879.4665177163253
 20
609.1346814883412
 30
0.0
 10
879.4186661538372
 20
610.1420057068393
 30
0.0
 10
879.4186661538372
 20
610.1420057068393
 30
0.0
 10
879.4186661538372
 20
610.1420057068393
 30
0.0
 10
879.3947403725931
 20
610.1420057068393
 30
0.0
 10
879.3947403725931
 20
610.1420057068393
 30
0.0
 10
879.0705216226742
 20
609.4945447695012
 30
0.0
 10
878.3630020916011
 20
609.0028455508741
 30
0.0
 10
877.4157364668379
 20
609.0028455508741
 30
0.0
 10
876.0124161546887
 20
609.0028455508741
 30
0.0
 10
874.9328263112086
 20
610.1903455505773
 30
0.0
 10
874.9328263112086
 20
611.9530408626366
 30
0.0
 10
874.9211075612116
 20
613.8841932059038
 30
0.0
 10
876.1203263109118
 20
615.0712049243571
 30
0.0
 10
877.535365373058
 20
615.0712049243571
 30
0.0
 10
878.423060685336
 20
615.0712049243571
 30
0.0
 10
879.0226700601862
 20
614.6517713307119
 30
0.0
 10
879.2868302163702
 20
614.1839978933289
 30
0.0
 10
879.2868302163702
 20
614.1839978933289
 30
0.0
 10
879.3107559976141
 20
614.1839978933289
 30
0.0
 10
879.3107559976141
 20
614.1839978933289
 30
0.0
 10
879.3107559976141
 20
614.1839978933289
 30
0.0
 10
879.3107559976141
 20
617.6498182049625
 30
0.0
 10
879.3107559976141
 20
617.6498182049625
 30
0.0
 10
879.3107559976141
 20
617.6498182049625
 30
0.0
 10
880.3659317786004
 20
617.6498182049625
 30
0.0
 10
880.3659317786004
 20
617.6498182049625
 30
0.0
  0
SPLINE
  5
C0
330
9B
100
AcDbEntity
  8
0
 62
   240
420
 15539236
370
    35
100
AcDbSpline
210
0.0
220
0.0
230
1.0
 70
    11
 71
     3
 72
    26
 73
    22
 74
     0
 42
0.0000000001
 43
0.0000000001
 12
1.0
 22
0.0
 32
0.0
 13
1.0
 23
0.0
 33
0.0
 40
0.0
 40
0.0
 40
0.0
 40
0.0
 40
1.0
 40
1.0
 40
1.0
 40
2.0
 40
2.0
 40
2.0
 40
3.0
 40
3.0
 40
3.0
 40
4.0
 40
4.0
 40
4.0
 40
5.0
 40
5.0
 40
5.0
 40
6.0
 40
6.0
 40
6.0
 40
7.0
 40
7.0
 40
7.0
 40
7.0
 10
879.3107559976141
 20
612.5765760187307
 30
0.0
 10
879.3107559976141
 20
612.7089002374477
 30
0.0
 10
879.2985489663672
 20
612.8885877374028
 30
0.0
 10
879.2624161538762
 20
613.0204236748698
 30
0.0
 10
879.1066544351652
 20
613.6922986747018
 30
0.0
 10
878.5309708415591
 20
614.2440564870639
 30
0.0
 10
877.7394669355069
 20
614.2440564870639
 30
0.0
 10
876.6481583420298
 20
614.2440564870639
 30
0.0
 10
876.0002091234418
 20
613.2845838310537
 30
0.0
 10
876.0002091234418
 20
612.0008924251247
 30
0.0
 10
876.0002091234418
 20
610.8255994566684
 30
0.0
 10
876.5758927170479
 20
609.8544080506613
 30
0.0
 10
877.715541154263
 20
609.8544080506613
 30
0.0
 10
878.423060685336
 20
609.8544080506613
 30
0.0
 10
879.0705216226742
 20
610.3221814880443
 30
0.0
 10
879.2624161538762
 20
611.1136853940965
 30
0.0
 10
879.2985489663672
 20
611.2577283628104
 30
0.0
 10
879.3107559976141
 20
611.4012830502745
 30
0.0
 10
879.3107559976141
 20
611.5692518002326
 30
0.0
 10
879.3107559976141
 20
611.5692518002326
 30
0.0
 10
879.3107559976141
 20
612.5765760187307
 30
0.0
 10
879.3107559976141
 20
612.5765760187307
 30
0.0
  0
HATCH
  5
C1
330
9B
100
AcDbEntity
  8
0
 62
   240
420
 15539236
100
AcDbHatch
 10
0.0
 20
0.0
 30
0.0
210
0.0
220
0.0
230
1.0
  2
SOLID
 70
     1
 71
     0
 91
        2
 92
        1
 93
        1
 72
     4
 94
        3
 73
     0
 74
     1
 95
       41
 96
       37
 40
0.0
 40
0.0
 40
0.0
 40
0.0
 40
1.0
 40
1.0
 40
1.0
 40
2.0
 40
2.0
 40
2.0
 40
3.0
 40
3.0
 40
3.0
 40
4.0
 40
4.0
 40
4.0
 40
5.0
 40
5.0
 40
5.0
 40
6.0
 40
6.0
 40
6.0
 40
7.0
 40
7.0
 40
7.0
 40
8.0
 40
8.0
 40
8.0
 40
9.0
 40
9.0
 40
9.0
 40
10.0
 40
10.0
 40
10.0
 40
11.0
 40
11.0
 40
11.0
 40
12.0
 40
12.0
 40
12.0
 40
12.0
 10
880.3659317786004
 20
617.6498182049625
 10
880.3659317786004
 20
617.6498182049625
 10
880.3659317786004
 20
610.6337049254664
 10
880.3659317786004
 20
610.6337049254664
 10
880.3659317786004
 20
610.1180799255953
 10
880.3781388098473
 20
609.5306775819922
 10
880.4137833410883
 20
609.1346814883412
 10
880.4137833410883
 20
609.1346814883412
 10
879.4665177163253
 20
609.1346814883412
 10
879.4665177163253
 20
609.1346814883412
 10
879.4665177163253
 20
609.1346814883412
 10
879.4186661538372
 20
610.1420057068393
 10
879.4186661538372
 20
610.1420057068393
 10
879.4186661538372
 20
610.1420057068393
 10
879.3947403725931
 20
610.1420057068393
 10
879.3947403725931
 20
610.1420057068393
 10
879.0705216226742
 20
609.4945447695012
 10
878.3630020916011
 20
609.0028455508741
 10
877.4157364668379
 20
609.0028455508741
 10
876.0124161546887
 20
609.0028455508741
 10
874.9328263112086
 20
610.1903455505773
 10
874.9328263112086
 20
611.9530408626366
 10
874.9211075612116
 20
613.8841932059038
 10
876.1203263109118
 20
615.0712049243571
 10
877.535365373058
 20
615.0712049243571
 10
878.423060685336
 20
615.0712049243571
 10
879.0226700601862
 20
614.6517713307119
 10
879.2868302163702
 20
614.1839978933289
 10
879.2868302163702
 20
614.1839978933289
 10
879.3107559976141
 20
614.1839978933289
 10
879.3107559976141
 20
614.1839978933289
 10
879.3107559976141
 20
614.1839978933289
 10
879.3107559976141
 20
617.6498182049625
 10
879.3107559976141
 20
617.6498182049625
 10
879.3107559976141
 20
617.6498182049625
 10
880.3659317786004
 20
617.6498182049625
 10
880.3659317786004
 20
617.6498182049625
 97
        0
 97
        0
 92
        1
 93
        1
 72
     4
 94
        3
 73
     0
 74
     1
 95
       26
 96
       22
 40
0.0
 40
0.0
 40
0.0
 40
0.0
 40
1.0
 40
1.0
 40
1.0
 40
2.0
 40
2.0
 40
2.0
 40
3.0
 40
3.0
 40
3.0
 40
4.0
 40
4.0
 40
4.0
 40
5.0
 40
5.0
 40
5.0
 40
6.0
 40
6.0
 40
6.0
 40
7.0
 40
7.0
 40
7.0
 40
7.0
 10
879.3107559976141
 20
612.5765760187307
 10
879.3107559976141
 20
612.7089002374477
 10
879.2985489663672
 20
612.8885877374028
 10
879.2624161538762
 20
613.0204236748698
 10
879.1066544351652
 20
613.6922986747018
 10
878.5309708415591
 20
614.2440564870639
 10
877.7394669355069
 20
614.2440564870639
 10
876.6481583420298
 20
614.2440564870639
 10
876.0002091234418
 20
613.2845838310537
 10
876.0002091234418
 20
612.0008924251247
 10
876.0002091234418
 20
610.8255994566684
 10
876.5758927170479
 20
609.8544080506613
 10
877.715541154263
 20
609.8544080506613
 10
878.423060685336
 20
609.8544080506613
 10
879.0705216226742
 20
610.3221814880443
 10
879.2624161538762
 20
611.1136853940965
 10
879.2985489663672
 20
611.2577283628104
 10
879.3107559976141
 20
611.4012830502745
 10
879.3107559976141
 20
611.5692518002326
 10
879.3107559976141
 20
611.5692518002326
 10
879.3107559976141
 20
612.5765760187307
 10
879.3107559976141
 20
612.5765760187307
 97
        0
 97
        0
 75
     2
 76
     1
 98
        0
  0
ENDBLK
  5
9E
330
9B
100
AcDbEntity
  8
0
100
AcDbBlockEnd
  0
ENDSEC
  0
SECTION
  2
ENTITIES
  0
INSERT
  5
41
330
1F
100
AcDbEntity
  8
0
100
AcDbBlockReference
  2
block 2
 10
0.0
 20
0.0
 30
0.0
  0
INSERT
  5
50
330
1F
100
AcDbEntity
  8
0
100
AcDbBlockReference
  2
block 3
 10
0.0
 20
0.0
 30
0.0
  0
INSERT
  5
55
330
1F
100
AcDbEntity
  8
0
100
AcDbBlockReference
  2
block 4
 10
0.0
 20
0.0
 30
0.0
  0
INSERT
  5
60
330
1F
100
AcDbEntity
  8
0
100
AcDbBlockReference
  2
block 5
 10
0.0
 20
0.0
 30
0.0
  0
INSERT
  5
6F
330
1F
100
AcDbEntity
  8
0
100
AcDbBlockReference
  2
block 6
 10
0.0
 20
0.0
 30
0.0
  0
INSERT
  5
74
330
1F
100
AcDbEntity
  8
0
100
AcDbBlockReference
  2
block 7
 10
0.0
 20
0.0
 30
0.0
  0
INSERT
  5
79
330
1F
100
AcDbEntity
  8
0
100
AcDbBlockReference
  2
block 8
 10
0.0
 20
0.0
 30
0.0
  0
INSERT
  5
7E
330
1F
100
AcDbEntity
  8
0
100
AcDbBlockReference
  2
block 9
 10
0.0
 20
0.0
 30
0.0
  0
INSERT
  5
83
330
1F
100
AcDbEntity
  8
0
100
AcDbBlockReference
  2
block 10
 10
0.0
 20
0.0
 30
0.0
  0
INSERT
  5
88
330
1F
100
AcDbEntity
  8
0
100
AcDbBlockReference
  2
block 11
 10
0.0
 20
0.0
 30
0.0
  0
INSERT
  5
8D
330
1F
100
AcDbEntity
  8
0
100
AcDbBlockReference
  2
block 12
 10
0.0
 20
0.0
 30
0.0
  0
INSERT
  5
92
330
1F
100
AcDbEntity
  8
0
100
AcDbBlockReference
  2
block 13
 10
0.0
 20
0.0
 30
0.0
  0
INSERT
  5
97
330
1F
100
AcDbEntity
  8
0
100
AcDbBlockReference
  2
block 14
 10
0.0
 20
0.0
 30
0.0
  0
INSERT
  5
9C
330
1F
100
AcDbEntity
  8
0
100
AcDbBlockReference
  2
block 15
 10
0.0
 20
0.0
 30
0.0
  0
ENDSEC
  0
SECTION
  2
OBJECTS
  0
DICTIONARY
  5
C
330
0
100
AcDbDictionary
281
     1
  3
ACAD_GROUP
350
D
  3
ACAD_LAYOUT
350
1A
  3
ACAD_MATERIAL
350
3B
  3
ACAD_MLEADERSTYLE
350
C3
  3
ACAD_MLINESTYLE
350
17
  3
ACAD_PLOTSETTINGS
350
19
  3
ACAD_PLOTSTYLENAME
350
E
  3
ACAD_TABLESTYLE
350
C2
  3
ACAD_VISUALSTYLE
350
2A
  0
SUN
  5
3F
330
29
100
AcDbSun
 90
        1
290
     0
 63
     7
421
 16777215
 40
1.0
291
     1
 91
  2455826
 92
 54000000
292
     0
 70
     2
 71
   256
280
     1
  0
DICTIONARY
  5
D
102
{ACAD_REACTORS
330
C
102
}
330
C
100
AcDbDictionary
281
     1
  0
DICTIONARY
  5
1A
102
{ACAD_REACTORS
330
C
102
}
330
C
100
AcDbDictionary
281
     1
  3
Layout1
350
1E
  3
Layout2
350
26
  3
Model
350
22
  0
DICTIONARY
  5
3B
102
{ACAD_REACTORS
330
C
102
}
330
C
100
AcDbDictionary
281
     1
  3
ByBlock
350
3D
  3
ByLayer
350
3C
  3
Global
350
3E
  0
DICTIONARY
  5
C3
102
{ACAD_REACTORS
330
C
102
}
330
C
100
AcDbDictionary
281
     1
  0
DICTIONARY
  5
17
102
{ACAD_REACTORS
330
C
102
}
330
C
100
AcDbDictionary
281
     1
  3
Standard
350
18
  0
DICTIONARY
  5
19
102
{ACAD_REACTORS
330
C
102
}
330
C
100
AcDbDictionary
281
     1
  0
ACDBDICTIONARYWDFLT
  5
E
102
{ACAD_REACTORS
330
C
102
}
330
C
100
AcDbDictionary
281
     1
  3
Normal
350
F
100
AcDbDictionaryWithDefault
340
F
  0
DICTIONARY
  5
C2
102
{ACAD_REACTORS
330
C
102
}
330
C
100
AcDbDictionary
281
     1
  0
DICTIONARY
  5
2A
102
{ACAD_REACTORS
330
C
102
}
330
C
100
AcDbDictionary
281
     1
  3
2dWireframe
350
2F
  3
3D Hidden
350
31
  3
3dWireframe
350
30
  3
Basic
350
32
  3
Brighten
350
36
  3
ColorChange
350
3A
  3
Conceptual
350
34
  3
Dim
350
35
  3
Facepattern
350
39
  3
Flat
350
2B
  3
FlatWithEdges
350
2C
  3
Gouraud
350
2D
  3
GouraudWithEdges
350
2E
  3
Linepattern
350
38
  3
Realistic
350
33
  3
Thicken
350
37
  0
LAYOUT
  5
1E
102
{ACAD_REACTORS
330
1A
102
}
330
1A
100
AcDbPlotSettings
  1

  2
none_device
  4

  6

 40
0.0
 41
0.0
 42
0.0
 43
0.0
 44
0.0
 45
0.0
 46
0.0
 47
0.0
 48
0.0
 49
0.0
140
0.0
141
0.0
142
1.0
143
1.0
 70
   688
 72
     0
 73
     0
 74
     5
  7

 75
    16
 76
     0
 77
     2
 78
   300
147
1.0
148
0.0
149
0.0
100
AcDbLayout
  1
Layout1
 70
     1
 71
     1
 10
0.0
 20
0.0
 11
12.0
 21
9.0
 12
0.0
 22
0.0
 32
0.0
 14
1.000000000000000E+20
 24
1.000000000000000E+20
 34
1.000000000000000E+20
 15
-1.000000000000000E+20
 25
-1.000000000000000E+20
 35
-1.000000000000000E+20
146
0.0
 13
0.0
 23
0.0
 33
0.0
 16
1.0
 26
0.0
 36
0.0
 17
0.0
 27
1.0
 37
0.0
 76
     0
330
1B
  0
LAYOUT
  5
26
102
{ACAD_REACTORS
330
1A
102
}
330
1A
100
AcDbPlotSettings
  1

  2
none_device
  4

  6

 40
0.0
 41
0.0
 42
0.0
 43
0.0
 44
0.0
 45
0.0
 46
0.0
 47
0.0
 48
0.0
 49
0.0
140
0.0
141
0.0
142
1.0
143
1.0
 70
   688
 72
     0
 73
     0
 74
     5
  7

 75
    16
 76
     0
 77
     2
 78
   300
147
1.0
148
0.0
149
0.0
100
AcDbLayout
  1
Layout2
 70
     1
 71
     2
 10
0.0
 20
0.0
 11
0.0
 21
0.0
 12
0.0
 22
0.0
 32
0.0
 14
0.0
 24
0.0
 34
0.0
 15
0.0
 25
0.0
 35
0.0
146
0.0
 13
0.0
 23
0.0
 33
0.0
 16
1.0
 26
0.0
 36
0.0
 17
0.0
 27
1.0
 37
0.0
 76
     0
330
23
  0
LAYOUT
  5
22
102
{ACAD_REACTORS
330
1A
102
}
330
1A
100
AcDbPlotSettings
  1

  2
none_device
  4

  6

 40
0.0
 41
0.0
 42
0.0
 43
0.0
 44
0.0
 45
0.0
 46
0.0
 47
0.0
 48
0.0
 49
0.0
140
0.0
141
0.0
142
1.0
143
1.0
 70
  1712
 72
     0
 73
     0
 74
     0
  7

 75
     0
 76
     0
 77
     2
 78
   300
147
1.0
148
0.0
149
0.0
100
AcDbLayout
  1
Model
 70
     1
 71
     0
 10
0.0
 20
0.0
 11
12.0
 21
9.0
 12
0.0
 22
0.0
 32
0.0
 14
1.000000000000000E+20
 24
1.000000000000000E+20
 34
1.000000000000000E+20
 15
-1.000000000000000E+20
 25
-1.000000000000000E+20
 35
-1.000000000000000E+20
146
0.0
 13
0.0
 23
0.0
 33
0.0
 16
1.0
 26
0.0
 36
0.0
 17
0.0
 27
1.0
 37
0.0
 76
     0
330
1F
331
29
  0
MATERIAL
  5
3D
102
{ACAD_REACTORS
330
3B
102
}
330
3B
100
AcDbMaterial
  1
ByBlock
 72
     1
 94
      127
  0
MATERIAL
  5
3C
102
{ACAD_REACTORS
330
3B
102
}
330
3B
100
AcDbMaterial
  1
ByLayer
 72
     1
 94
      127
  0
MATERIAL
  5
3E
102
{ACAD_REACTORS
330
3B
102
}
330
3B
100
AcDbMaterial
  1
Global
 72
     1
 94
      127
  0
MLINESTYLE
  5
18
102
{ACAD_REACTORS
330
17
102
}
330
17
100
AcDbMlineStyle
  2
Standard
 70
     0
  3

 62
   256
 51
90.0
 52
90.0
 71
     2
 49
0.5
 62
   256
  6
BYLAYER
 49
-0.5
 62
   256
  6
BYLAYER
  0
ACDBPLACEHOLDER
  5
F
102
{ACAD_REACTORS
330
E
102
}
330
E
  0
VISUALSTYLE
  5
2F
102
{ACAD_REACTORS
330
2A
102
}
330
2A
100
AcDbVisualStyle
  2
2dWireframe
 70
     4
177
     2
291
     0
 71
     0
176
     1
 72
     2
176
     1
 73
     0
176
     1
 90
        0
176
     1
 40
-0.6
176
     1
 41
-30.0
176
     1
 62
     5
 63
     7
421
 16777215
176
     1
 74
     1
176
     1
 91
        4
176
     1
 64
     7
176
     1
 65
   257
176
     1
 75
     1
176
     1
175
     1
176
     1
 42
1.0
176
     1
 92
        0
176
     1
 66
   257
176
     1
 43
1.0
176
     1
 76
     1
176
     1
 77
     6
176
     1
 78
     2
176
     1
 67
     7
176
     1
 79
     5
176
     1
170
     0
176
     1
171
     0
176
     1
290
     0
176
     1
 93
        1
176
     1
 44
0.0
176
     1
173
     0
176
     1
  0
VISUALSTYLE
  5
31
102
{ACAD_REACTORS
330
2A
102
}
330
2A
100
AcDbVisualStyle
  2
3D Hidden
 70
     6
177
     2
291
     0
 71
     1
176
     1
 72
     2
176
     1
 73
     2
176
     1
 90
        0
176
     1
 40
-0.6
176
     1
 41
-30.0
176
     1
 62
     5
 63
     7
421
 16777215
176
     1
 74
     2
176
     1
 91
        2
176
     1
 64
     7
176
     1
 65
   257
176
     1
 75
     2
176
     1
175
     1
176
     1
 42
40.0
176
     1
 92
        0
176
     1
 66
   257
176
     1
 43
1.0
176
     1
 76
     1
176
     1
 77
     6
176
     1
 78
     2
176
     1
 67
     7
176
     1
 79
     3
176
     1
170
     0
176
     1
171
     0
176
     1
290
     0
176
     1
 93
        1
176
     1
 44
0.0
176
     1
173
     0
176
     1
  0
VISUALSTYLE
  5
30
102
{ACAD_REACTORS
330
2A
102
}
330
2A
100
AcDbVisualStyle
  2
3dWireframe
 70
     5
177
     2
291
     0
 71
     0
176
     1
 72
     2
176
     1
 73
     0
176
     1
 90
        0
176
     1
 40
-0.6
176
     1
 41
-30.0
176
     1
 62
     5
 63
     7
421
 16777215
176
     1
 74
     1
176
     1
 91
        4
176
     1
 64
     7
176
     1
 65
   257
176
     1
 75
     1
176
     1
175
     1
176
     1
 42
1.0
176
     1
 92
        0
176
     1
 66
   257
176
     1
 43
1.0
176
     1
 76
     1
176
     1
 77
     6
176
     1
 78
     2
176
     1
 67
     7
176
     1
 79
     5
176
     1
170
     0
176
     1
171
     0
176
     1
290
     0
176
     1
 93
        1
176
     1
 44
0.0
176
     1
173
     0
176
     1
  0
VISUALSTYLE
  5
32
102
{ACAD_REACTORS
330
2A
102
}
330
2A
100
AcDbVisualStyle
  2
Basic
 70
     7
177
     2
291
     1
 71
     1
176
     1
 72
     0
176
     1
 73
     1
176
     1
 90
        0
176
     1
 40
-0.6
176
     1
 41
-30.0
176
     1
 62
     5
 63
     7
421
 16777215
176
     1
 74
     0
176
     1
 91
        4
176
     1
 64
     7
176
     1
 65
   257
176
     1
 75
     1
176
     1
175
     1
176
     1
 42
1.0
176
     1
 92
        8
176
     1
 66
     7
176
     1
 43
1.0
176
     1
 76
     1
176
     1
 77
     6
176
     1
 78
     2
176
     1
 67
     7
176
     1
 79
     5
176
     1
170
     0
176
     1
171
     0
176
     1
290
     0
176
     1
 93
        1
176
     1
 44
0.0
176
     1
173
     0
176
     1
  0
VISUALSTYLE
  5
36
102
{ACAD_REACTORS
330
2A
102
}
330
2A
100
AcDbVisualStyle
  2
Brighten
 70
    12
177
     2
291
     1
 71
     2
176
     1
 72
     2
176
     1
 73
     0
176
     1
 90
        0
176
     1
 40
-0.6
176
     1
 41
-30.0
176
     1
 62
     5
 63
     7
421
 16777215
176
     1
 74
     1
176
     1
 91
        4
176
     1
 64
     7
176
     1
 65
   257
176
     1
 75
     1
176
     1
175
     1
176
     1
 42
1.0
176
     1
 92
        8
176
     1
 66
     7
176
     1
 43
1.0
176
     1
 76
     1
176
     1
 77
     6
176
     1
 78
     2
176
     1
 67
     7
176
     1
 79
     5
176
     1
170
     0
176
     1
171
     0
176
     1
290
     0
176
     1
 93
        1
176
     1
 44
50.0
176
     1
173
     0
176
     1
  0
VISUALSTYLE
  5
3A
102
{ACAD_REACTORS
330
2A
102
}
330
2A
100
AcDbVisualStyle
  2
ColorChange
 70
    16
177
     2
291
     1
 71
     2
176
     1
 72
     2
176
     1
 73
     3
176
     1
 90
        0
176
     1
 40
-0.6
176
     1
 41
-30.0
176
     1
 62
     5
 63
     8
421
  8421504
176
     1
 74
     1
176
     1
 91
        4
176
     1
 64
     7
176
     1
 65
   257
176
     1
 75
     1
176
     1
175
     1
176
     1
 42
1.0
176
     1
 92
        8
176
     1
 66
     8
424
  8421504
176
     1
 43
1.0
176
     1
 76
     1
176
     1
 77
     6
176
     1
 78
     2
176
     1
 67
     7
176
     1
 79
     5
176
     1
170
     0
176
     1
171
     0
176
     1
290
     0
176
     1
 93
        1
176
     1
 44
0.0
176
     1
173
     0
176
     1
  0
VISUALSTYLE
  5
34
102
{ACAD_REACTORS
330
2A
102
}
330
2A
100
AcDbVisualStyle
  2
Conceptual
 70
     9
177
     2
291
     0
 71
     3
176
     1
 72
     2
176
     1
 73
     0
176
     1
 90
        0
176
     1
 40
-0.6
176
     1
 41
-30.0
176
     1
 62
     5
 63
     7
421
 16777215
176
     1
 74
     2
176
     1
 91
        2
176
     1
 64
     7
176
     1
 65
   257
176
     1
 75
     1
176
     1
175
     1
176
     1
 42
40.0
176
     1
 92
        8
176
     1
 66
     7
176
     1
 43
1.0
176
     1
 76
     1
176
     1
 77
     6
176
     1
 78
     2
176
     1
 67
     7
176
     1
 79
     3
176
     1
170
     0
176
     1
171
     0
176
     1
290
     0
176
     1
 93
        1
176
     1
 44
0.0
176
     1
173
     0
176
     1
  0
VISUALSTYLE
  5
35
102
{ACAD_REACTORS
330
2A
102
}
330
2A
100
AcDbVisualStyle
  2
Dim
 70
    11
177
     2
291
     1
 71
     2
176
     1
 72
     2
176
     1
 73
     0
176
     1
 90
        0
176
     1
 40
-0.6
176
     1
 41
-30.0
176
     1
 62
     5
 63
     7
421
 16777215
176
     1
 74
     1
176
     1
 91
        4
176
     1
 64
     7
176
     1
 65
   257
176
     1
 75
     1
176
     1
175
     1
176
     1
 42
1.0
176
     1
 92
        8
176
     1
 66
     7
176
     1
 43
1.0
176
     1
 76
     1
176
     1
 77
     6
176
     1
 78
     2
176
     1
 67
     7
176
     1
 79
     5
176
     1
170
     0
176
     1
171
     0
176
     1
290
     0
176
     1
 93
        1
176
     1
 44
-50.0
176
     1
173
     0
176
     1
  0
VISUALSTYLE
  5
39
102
{ACAD_REACTORS
330
2A
102
}
330
2A
100
AcDbVisualStyle
  2
Facepattern
 70
    15
177
     2
291
     1
 71
     2
176
     1
 72
     2
176
     1
 73
     0
176
     1
 90
        0
176
     1
 40
-0.6
176
     1
 41
-30.0
176
     1
 62
     5
 63
     7
421
 16777215
176
     1
 74
     1
176
     1
 91
        4
176
     1
 64
     7
176
     1
 65
   257
176
     1
 75
     1
176
     1
175
     1
176
     1
 42
1.0
176
     1
 92
        8
176
     1
 66
     7
176
     1
 43
1.0
176
     1
 76
     1
176
     1
 77
     6
176
     1
 78
     2
176
     1
 67
     7
176
     1
 79
     5
176
     1
170
     0
176
     1
171
     0
176
     1
290
     0
176
     1
 93
        1
176
     1
 44
0.0
176
     1
173
     0
176
     1
  0
VISUALSTYLE
  5
2B
102
{ACAD_REACTORS
330
2A
102
}
330
2A
100
AcDbVisualStyle
  2
Flat
 70
     0
177
     2
291
     1
 71
     2
176
     1
 72
     1
176
     1
 73
     1
176
     1
 90
        2
176
     1
 40
-0.6
176
     1
 41
30.0
176
     1
 62
     5
 63
     7
421
 16777215
176
     1
 74
     0
176
     1
 91
        4
176
     1
 64
     7
176
     1
 65
   257
176
     1
 75
     1
176
     1
175
     1
176
     1
 42
1.0
176
     1
 92
        8
176
     1
 66
     7
176
     1
 43
1.0
176
     1
 76
     1
176
     1
 77
     6
176
     1
 78
     2
176
     1
 67
     7
176
     1
 79
     5
176
     1
170
     0
176
     1
171
     0
176
     1
290
     0
176
     1
 93
       13
176
     1
 44
0.0
176
     1
173
     0
176
     1
  0
VISUALSTYLE
  5
2C
102
{ACAD_REACTORS
330
2A
102
}
330
2A
100
AcDbVisualStyle
  2
FlatWithEdges
 70
     1
177
     2
291
     1
 71
     2
176
     1
 72
     1
176
     1
 73
     1
176
     1
 90
        2
176
     1
 40
-0.6
176
     1
 41
30.0
176
     1
 62
     5
 63
     7
421
 16777215
176
     1
 74
     1
176
     1
 91
        4
176
     1
 64
     7
176
     1
 65
   257
176
     1
 75
     1
176
     1
175
     1
176
     1
 42
1.0
176
     1
 92
        0
176
     1
 66
   257
176
     1
 43
1.0
176
     1
 76
     1
176
     1
 77
     6
176
     1
 78
     2
176
     1
 67
     7
176
     1
 79
     5
176
     1
170
     0
176
     1
171
     0
176
     1
290
     0
176
     1
 93
       13
176
     1
 44
0.0
176
     1
173
     0
176
     1
  0
VISUALSTYLE
  5
2D
102
{ACAD_REACTORS
330
2A
102
}
330
2A
100
AcDbVisualStyle
  2
Gouraud
 70
     2
177
     2
291
     1
 71
     2
176
     1
 72
     2
176
     1
 73
     1
176
     1
 90
        2
176
     1
 40
-0.6
176
     1
 41
30.0
176
     1
 62
     5
 63
     7
421
 16777215
176
     1
 74
     0
176
     1
 91
        4
176
     1
 64
     7
176
     1
 65
   257
176
     1
 75
     1
176
     1
175
     1
176
     1
 42
1.0
176
     1
 92
        0
176
     1
 66
     7
176
     1
 43
1.0
176
     1
 76
     1
176
     1
 77
     6
176
     1
 78
     2
176
     1
 67
     7
176
     1
 79
     5
176
     1
170
     0
176
     1
171
     0
176
     1
290
     0
176
     1
 93
       13
176
     1
 44
0.0
176
     1
173
     0
176
     1
  0
VISUALSTYLE
  5
2E
102
{ACAD_REACTORS
330
2A
102
}
330
2A
100
AcDbVisualStyle
  2
GouraudWithEdges
 70
     3
177
     2
291
     1
 71
     2
176
     1
 72
     2
176
     1
 73
     1
176
     1
 90
        2
176
     1
 40
-0.6
176
     1
 41
30.0
176
     1
 62
     5
 63
     7
421
 16777215
176
     1
 74
     1
176
     1
 91
        4
176
     1
 64
     7
176
     1
 65
   257
176
     1
 75
     1
176
     1
175
     1
176
     1
 42
1.0
176
     1
 92
        0
176
     1
 66
   257
176
     1
 43
1.0
176
     1
 76
     1
176
     1
 77
     6
176
     1
 78
     2
176
     1
 67
     7
176
     1
 79
     5
176
     1
170
     0
176
     1
171
     0
176
     1
290
     0
176
     1
 93
       13
176
     1
 44
0.0
176
     1
173
     0
176
     1
  0
VISUALSTYLE
  5
38
102
{ACAD_REACTORS
330
2A
102
}
330
2A
100
AcDbVisualStyle
  2
Linepattern
 70
    14
177
     2
291
     1
 71
     2
176
     1
 72
     2
176
     1
 73
     0
176
     1
 90
        0
176
     1
 40
-0.6
176
     1
 41
-30.0
176
     1
 62
     5
 63
     7
421
 16777215
176
     1
 74
     1
176
     1
 91
        4
176
     1
 64
     7
176
     1
 65
   257
176
     1
 75
     7
176
     1
175
     7
176
     1
 42
1.0
176
     1
 92
        8
176
     1
 66
     7
176
     1
 43
1.0
176
     1
 76
     1
176
     1
 77
     6
176
     1
 78
     2
176
     1
 67
     7
176
     1
 79
     5
176
     1
170
     0
176
     1
171
     0
176
     1
290
     0
176
     1
 93
        1
176
     1
 44
0.0
176
     1
173
     0
176
     1
  0
VISUALSTYLE
  5
33
102
{ACAD_REACTORS
330
2A
102
}
330
2A
100
AcDbVisualStyle
  2
Realistic
 70
     8
177
     2
291
     0
 71
     2
176
     1
 72
     2
176
     1
 73
     0
176
     1
 90
        0
176
     1
 40
-0.6
176
     1
 41
-30.0
176
     1
 62
     5
 63
     7
421
 16777215
176
     1
 74
     1
176
     1
 91
        0
176
     1
 64
     7
176
     1
 65
   257
176
     1
 75
     1
176
     1
175
     1
176
     1
 42
1.0
176
     1
 92
        8
176
     1
 66
     8
424
  7895160
176
     1
 43
1.0
176
     1
 76
     1
176
     1
 77
     6
176
     1
 78
     2
176
     1
 67
     7
176
     1
 79
     5
176
     1
170
     0
176
     1
171
     0
176
     1
290
     0
176
     1
 93
       13
176
     1
 44
0.0
176
     1
173
     0
176
     1
  0
VISUALSTYLE
  5
37
102
{ACAD_REACTORS
330
2A
102
}
330
2A
100
AcDbVisualStyle
  2
Thicken
 70
    13
177
     2
291
     1
 71
     2
176
     1
 72
     2
176
     1
 73
     0
176
     1
 90
        0
176
     1
 40
-0.6
176
     1
 41
-30.0
176
     1
 62
     5
 63
     7
421
 16777215
176
     1
 74
     1
176
     1
 91
        4
176
     1
 64
     7
176
     1
 65
   257
176
     1
 75
     1
176
     1
175
     1
176
     1
 42
1.0
176
     1
 92
       12
176
     1
 66
     7
176
     1
 43
1.0
176
     1
 76
     1
176
     1
 77
     6
176
     1
 78
     2
176
     1
 67
     7
176
     1
 79
     5
176
     1
170
     0
176
     1
171
     0
176
     1
290
     0
176
     1
 93
        1
176
     1
 44
0.0
176
     1
173
     0
176
     1
  0
ENDSEC
  0
EOF
