  0
SECTION
  2
HEADER
  9
$ACADVER
  1
AC1024
  9
$ACADMAINTVER
 70
     6
  9
$DWGCODEPAGE
  3
ANSI_1252
  9
$INSBASE
 10
0.0
 20
0.0
 30
0.0
  9
$EXTMIN
 10
1.000000000000000E+20
 20
1.000000000000000E+20
 30
1.000000000000000E+20
  9
$EXTMAX
 10
-1.000000000000000E+20
 20
-1.000000000000000E+20
 30
-1.000000000000000E+20
  9
$LIMMIN
 10
0.0
 20
0.0
  9
$LIMMAX
 10
12.0
 20
9.0
  9
$ORTHOMODE
 70
     0
  9
$REGENMODE
 70
     1
  9
$FILLMODE
 70
     1
  9
$QTEXTMODE
 70
     0
  9
$MIRRTEXT
 70
     1
  9
$LTSCALE
 40
1.0
  9
$ATTMODE
 70
     1
  9
$TEXTSIZE
 40
0.2
  9
$TRACEWID
 40
0.05
  9
$TEXTSTYLE
  7
Standard
  9
$CLAYER
  8
0
  9
$CELTYPE
  6
ByLayer
  9
$CECOLOR
 62
   256
  9
$CELTSCALE
 40
1.0
  9
$DISPSILH
 70
     0
  9
$DIMSCALE
 40
1.0
  9
$DIMASZ
 40
0.18
  9
$DIMEXO
 40
0.0625
  9
$DIMDLI
 40
0.38
  9
$DIMRND
 40
0.0
  9
$DIMDLE
 40
0.0
  9
$DIMEXE
 40
0.18
  9
$DIMTP
 40
0.0
  9
$DIMTM
 40
0.0
  9
$DIMTXT
 40
0.18
  9
$DIMCEN
 40
0.09
  9
$DIMTSZ
 40
0.0
  9
$DIMTOL
 70
     0
  9
$DIMLIM
 70
     0
  9
$DIMTIH
 70
     1
  9
$DIMTOH
 70
     1
  9
$DIMSE1
 70
     0
  9
$DIMSE2
 70
     0
  9
$DIMTAD
 70
     0
  9
$DIMZIN
 70
     0
  9
$DIMBLK
  1

  9
$DIMASO
 70
     1
  9
$DIMSHO
 70
     1
  9
$DIMPOST
  1

  9
$DIMAPOST
  1

  9
$DIMALT
 70
     0
  9
$DIMALTD
 70
     2
  9
$DIMALTF
 40
25.4
  9
$DIMLFAC
 40
1.0
  9
$DIMTOFL
 70
     0
  9
$DIMTVP
 40
0.0
  9
$DIMTIX
 70
     0
  9
$DIMSOXD
 70
     0
  9
$DIMSAH
 70
     0
  9
$DIMBLK1
  1

  9
$DIMBLK2
  1

  9
$DIMSTYLE
  2
Standard
  9
$DIMCLRD
 70
     0
  9
$DIMCLRE
 70
     0
  9
$DIMCLRT
 70
     0
  9
$DIMTFAC
 40
1.0
  9
$DIMGAP
 40
0.09
  9
$DIMJUST
 70
     0
  9
$DIMSD1
 70
     0
  9
$DIMSD2
 70
     0
  9
$DIMTOLJ
 70
     1
  9
$DIMTZIN
 70
     0
  9
$DIMALTZ
 70
     0
  9
$DIMALTTZ
 70
     0
  9
$DIMUPT
 70
     0
  9
$DIMDEC
 70
     4
  9
$DIMTDEC
 70
     4
  9
$DIMALTU
 70
     2
  9
$DIMALTTD
 70
     2
  9
$DIMTXSTY
  7
Standard
  9
$DIMAUNIT
 70
     0
  9
$DIMADEC
 70
     0
  9
$DIMALTRND
 40
0.0
  9
$DIMAZIN
 70
     0
  9
$DIMDSEP
 70
    46
  9
$DIMATFIT
 70
     3
  9
$DIMFRAC
 70
     0
  9
$DIMLDRBLK
  1

  9
$DIMLUNIT
 70
     2
  9
$DIMLWD
 70
    -2
  9
$DIMLWE
 70
    -2
  9
$DIMTMOVE
 70
     0
  9
$DIMFXL
 40
1.0
  9
$DIMFXLON
 70
     0
  9
$DIMJOGANG
 40
0.7853981633974483
  9
$DIMTFILL
 70
     0
  9
$DIMTFILLCLR
 70
     0
  9
$DIMARCSYM
 70
     0
  9
$DIMLTYPE
  6

  9
$DIMLTEX1
  6

  9
$DIMLTEX2
  6

  9
$DIMTXTDIRECTION
 70
     0
  9
$LUNITS
 70
     2
  9
$LUPREC
 70
     4
  9
$SKETCHINC
 40
0.1
  9
$FILLETRAD
 40
0.5
  9
$AUNITS
 70
     0
  9
$AUPREC
 70
     0
  9
$MENU
  1
.
  9
$ELEVATION
 40
0.0
  9
$PELEVATION
 40
0.0
  9
$THICKNESS
 40
0.0
  9
$LIMCHECK
 70
     0
  9
$CHAMFERA
 40
0.5
  9
$CHAMFERB
 40
0.5
  9
$CHAMFERC
 40
1.0
  9
$CHAMFERD
 40
0.0
  9
$SKPOLY
 70
     0
  9
$TDCREATE
 40
2459171.942386505
  9
$TDUCREATE
 40
2459172.275719838
  9
$TDUPDATE
 40
2459171.942386528
  9
$TDUUPDATE
 40
2459172.275719861
  9
$TDINDWG
 40
0.0000000116
  9
$TDUSRTIMER
 40
0.0000000116
  9
$USRTIMER
 70
     1
  9
$ANGBASE
 50
0.0
  9
$ANGDIR
 70
     0
  9
$PDMODE
 70
     0
  9
$PDSIZE
 40
0.0
  9
$PLINEWID
 40
0.0
  9
$SPLFRAME
 70
     0
  9
$SPLINETYPE
 70
     6
  9
$SPLINESEGS
 70
     8
  9
$HANDSEED
  5
9A
  9
$SURFTAB1
 70
     6
  9
$SURFTAB2
 70
     6
  9
$SURFTYPE
 70
     6
  9
$SURFU
 70
     6
  9
$SURFV
 70
     6
  9
$UCSBASE
  2

  9
$UCSNAME
  2

  9
$UCSORG
 10
0.0
 20
0.0
 30
0.0
  9
$UCSXDIR
 10
1.0
 20
0.0
 30
0.0
  9
$UCSYDIR
 10
0.0
 20
1.0
 30
0.0
  9
$UCSORTHOREF
  2

  9
$UCSORTHOVIEW
 70
     0
  9
$UCSORGTOP
 10
0.0
 20
0.0
 30
0.0
  9
$UCSORGBOTTOM
 10
0.0
 20
0.0
 30
0.0
  9
$UCSORGLEFT
 10
0.0
 20
0.0
 30
0.0
  9
$UCSORGRIGHT
 10
0.0
 20
0.0
 30
0.0
  9
$UCSORGFRONT
 10
0.0
 20
0.0
 30
0.0
  9
$UCSORGBACK
 10
0.0
 20
0.0
 30
0.0
  9
$PUCSBASE
  2

  9
$PUCSNAME
  2

  9
$PUCSORG
 10
0.0
 20
0.0
 30
0.0
  9
$PUCSXDIR
 10
1.0
 20
0.0
 30
0.0
  9
$PUCSYDIR
 10
0.0
 20
1.0
 30
0.0
  9
$PUCSORTHOREF
  2

  9
$PUCSORTHOVIEW
 70
     0
  9
$PUCSORGTOP
 10
0.0
 20
0.0
 30
0.0
  9
$PUCSORGBOTTOM
 10
0.0
 20
0.0
 30
0.0
  9
$PUCSORGLEFT
 10
0.0
 20
0.0
 30
0.0
  9
$PUCSORGRIGHT
 10
0.0
 20
0.0
 30
0.0
  9
$PUCSORGFRONT
 10
0.0
 20
0.0
 30
0.0
  9
$PUCSORGBACK
 10
0.0
 20
0.0
 30
0.0
  9
$USERI1
 70
     0
  9
$USERI2
 70
     0
  9
$USERI3
 70
     0
  9
$USERI4
 70
     0
  9
$USERI5
 70
     0
  9
$USERR1
 40
0.0
  9
$USERR2
 40
0.0
  9
$USERR3
 40
0.0
  9
$USERR4
 40
0.0
  9
$USERR5
 40
0.0
  9
$WORLDVIEW
 70
     1
  9
$SHADEDGE
 70
     3
  9
$SHADEDIF
 70
    70
  9
$TILEMODE
 70
     1
  9
$MAXACTVP
 70
    64
  9
$PINSBASE
 10
0.0
 20
0.0
 30
0.0
  9
$PLIMCHECK
 70
     0
  9
$PEXTMIN
 10
1.000000000000000E+20
 20
1.000000000000000E+20
 30
1.000000000000000E+20
  9
$PEXTMAX
 10
-1.000000000000000E+20
 20
-1.000000000000000E+20
 30
-1.000000000000000E+20
  9
$PLIMMIN
 10
0.0
 20
0.0
  9
$PLIMMAX
 10
12.0
 20
9.0
  9
$UNITMODE
 70
     0
  9
$VISRETAIN
 70
     1
  9
$PLINEGEN
 70
     0
  9
$PSLTSCALE
 70
     1
  9
$TREEDEPTH
 70
  3020
  9
$CMLSTYLE
  2
Standard
  9
$CMLJUST
 70
     0
  9
$CMLSCALE
 40
1.0
  9
$PROXYGRAPHICS
 70
     1
  9
$MEASUREMENT
 70
     0
  9
$CELWEIGHT
370
    -1
  9
$ENDCAPS
280
     0
  9
$JOINSTYLE
280
     0
  9
$LWDISPLAY
290
     1
  9
$INSUNITS
 70
     4
  9
$HYPERLINKBASE
  1

  9
$STYLESHEET
  1

  9
$XEDIT
290
     1
  9
$CEPSNTYPE
380
     0
  9
$PSTYLEMODE
290
     1
  9
$FINGERPRINTGUID
  2
{9D8BE99A-BEAA-4CC7-9FF1-354B5B5EB9D3}
  9
$VERSIONGUID
  2
{FAEB1C32-E019-11D5-929B-00C0DF256EC4}
  9
$EXTNAMES
290
     1
  9
$PSVPSCALE
 40
0.0
  9
$OLESTARTUP
290
     0
  9
$SORTENTS
280
   127
  9
$INDEXCTL
280
     0
  9
$HIDETEXT
280
     1
  9
$XCLIPFRAME
280
     2
  9
$HALOGAP
280
     0
  9
$OBSCOLOR
 70
   257
  9
$OBSLTYPE
280
     0
  9
$INTERSECTIONDISPLAY
280
     0
  9
$INTERSECTIONCOLOR
 70
   257
  9
$DIMASSOC
280
     2
  9
$PROJECTNAME
  1

  9
$CAMERADISPLAY
290
     0
  9
$LENSLENGTH
 40
50.0
  9
$CAMERAHEIGHT
 40
0.0
  9
$STEPSPERSEC
 40
2.0
  9
$STEPSIZE
 40
6.0
  9
$3DDWFPREC
 40
2.0
  9
$PSOLWIDTH
 40
0.25
  9
$PSOLHEIGHT
 40
4.0
  9
$LOFTANG1
 40
1.570796326794897
  9
$LOFTANG2
 40
1.570796326794897
  9
$LOFTMAG1
 40
0.0
  9
$LOFTMAG2
 40
0.0
  9
$LOFTPARAM
 70
     7
  9
$LOFTNORMALS
280
     1
  9
$LATITUDE
 40
37.795
  9
$LONGITUDE
 40
-122.394
  9
$NORTHDIRECTION
 40
0.0
  9
$TIMEZONE
 70
 -8000
  9
$LIGHTGLYPHDISPLAY
280
     1
  9
$TILEMODELIGHTSYNCH
280
     1
  9
$CMATERIAL
347
3C
  9
$SOLIDHIST
280
     1
  9
$SHOWHIST
280
     1
  9
$DWFFRAME
280
     2
  9
$DGNFRAME
280
     2
  9
$REALWORLDSCALE
290
     1
  9
$INTERFERECOLOR
 62
   256
  9
$CSHADOW
280
     0
  9
$SHADOWPLANELOCATION
 40
0.0
  0
ENDSEC
  0
SECTION
  2
CLASSES
  0
CLASS
  1
ACDBDICTIONARYWDFLT
  2
AcDbDictionaryWithDefault
  3
ObjectDBX Classes
 90
        0
 91
        4
280
     0
281
     0
  0
CLASS
  1
VISUALSTYLE
  2
AcDbVisualStyle
  3
ObjectDBX Classes
 90
     4095
 91
        4
280
     0
281
     0
  0
CLASS
  1
MATERIAL
  2
AcDbMaterial
  3
ObjectDBX Classes
 90
     1153
 91
        4
280
     0
281
     0
  0
CLASS
  1
SUN
  2
AcDbSun
  3
SCENEOE
 90
     1024
 91
        4
280
     0
281
     0
  0
ENDSEC
  0
SECTION
  2
TABLES
  0
TABLE
  2
VPORT
  5
8
330
0
100
AcDbSymbolTable
 70
     1
  0
VPORT
  5
29
330
8
100
AcDbSymbolTableRecord
100
AcDbViewportTableRecord
  2
*Active
 70
     0
 10
0.0
 20
0.0
 11
1.0
 21
1.0
 12
0.0
 22
0.0
 13
0.0
 23
0.0
 14
0.5
 24
0.5
 15
0.5
 25
0.5
 16
0.0
 26
0.0
 36
1.0
 17
959.99999976
 27
539.999999865
 37
0.0
 40
1079.99999973
 41
1.777777777777778
 42
50.0
 43
0.0
 44
0.0
 50
0.0
 51
0.0
 71
     0
 72
   100
 73
     1
 74
     3
 75
     0
 76
     0
 77
     0
 78
     0
281
     0
 65
     1
110
0.0
120
0.0
130
0.0
111
1.0
121
0.0
131
0.0
112
0.0
122
1.0
132
0.0
 79
     0
146
0.0
 60
     3
 61
     5
292
     1
282
     1
141
0.0
142
0.0
 63
   250
361
3F
  0
ENDTAB
  0
TABLE
  2
LTYPE
  5
5
330
0
100
AcDbSymbolTable
 70
     1
  0
LTYPE
  5
14
330
5
100
AcDbSymbolTableRecord
100
AcDbLinetypeTableRecord
  2
ByBlock
 70
     0
  3

 72
    65
 73
     0
 40
0.0
  0
LTYPE
  5
15
330
5
100
AcDbSymbolTableRecord
100
AcDbLinetypeTableRecord
  2
ByLayer
 70
     0
  3

 72
    65
 73
     0
 40
0.0
  0
LTYPE
  5
16
330
5
100
AcDbSymbolTableRecord
100
AcDbLinetypeTableRecord
  2
Continuous
 70
     0
  3
Solid line
 72
    65
 73
     0
 40
0.0
  0
ENDTAB
  0
TABLE
  2
LAYER
  5
2
330
0
100
AcDbSymbolTable
 70
     1
  0
LAYER
  5
10
330
2
100
AcDbSymbolTableRecord
100
AcDbLayerTableRecord
  2
0
 70
     0
 62
     7
  6
Continuous
370
    -3
390
F
347
3E
  0
ENDTAB
  0
TABLE
  2
STYLE
  5
3
330
0
100
AcDbSymbolTable
 70
     1
  0
STYLE
  5
11
330
3
100
AcDbSymbolTableRecord
100
AcDbTextStyleTableRecord
  2
Standard
 70
     0
 40
0.0
 41
1.0
 50
0.0
 71
     0
 42
0.2
  3
txt
  4

  0
ENDTAB
  0
TABLE
  2
VIEW
  5
6
330
0
100
AcDbSymbolTable
 70
     0
  0
ENDTAB
  0
TABLE
  2
UCS
  5
7
330
0
100
AcDbSymbolTable
 70
     0
  0
ENDTAB
  0
TABLE
  2
APPID
  5
9
330
0
100
AcDbSymbolTable
 70
     1
  0
APPID
  5
12
330
9
100
AcDbSymbolTableRecord
100
AcDbRegAppTableRecord
  2
ACAD
 70
     0
  0
ENDTAB
  0
TABLE
  2
DIMSTYLE
  5
A
330
0
100
AcDbSymbolTable
 70
     1
100
AcDbDimStyleTable
  0
DIMSTYLE
105
27
330
A
100
AcDbSymbolTableRecord
100
AcDbDimStyleTableRecord
  2
Standard
 70
     0
178
     0
340
11
  0
ENDTAB
  0
TABLE
  2
BLOCK_RECORD
  5
1
330
0
100
AcDbSymbolTable
 70
    11
  0
BLOCK_RECORD
  5
1F
330
1
100
AcDbSymbolTableRecord
100
AcDbBlockTableRecord
  2
*Model_Space
340
22
 70
     0
280
     1
281
     0
  0
BLOCK_RECORD
  5
1B
330
1
100
AcDbSymbolTableRecord
100
AcDbBlockTableRecord
  2
*Paper_Space
340
1E
 70
     0
280
     1
281
     0
  0
BLOCK_RECORD
  5
23
330
1
100
AcDbSymbolTableRecord
100
AcDbBlockTableRecord
  2
*Paper_Space0
340
26
 70
     0
280
     1
281
     0
  0
BLOCK_RECORD
  5
40
330
1
100
AcDbSymbolTableRecord
100
AcDbBlockTableRecord
  2
block 2
340
0
102
{BLKREFS
331
41
102
}
 70
     0
280
     1
281
     0
  0
BLOCK_RECORD
  5
45
330
1
100
AcDbSymbolTableRecord
100
AcDbBlockTableRecord
  2
block 3
340
0
102
{BLKREFS
331
46
102
}
 70
     0
280
     1
281
     0
  0
BLOCK_RECORD
  5
4A
330
1
100
AcDbSymbolTableRecord
100
AcDbBlockTableRecord
  2
block 4
340
0
102
{BLKREFS
331
4B
102
}
 70
     0
280
     1
281
     0
  0
BLOCK_RECORD
  5
4F
330
1
100
AcDbSymbolTableRecord
100
AcDbBlockTableRecord
  2
block 5
340
0
102
{BLKREFS
331
50
102
}
 70
     0
280
     1
281
     0
  0
BLOCK_RECORD
  5
54
330
1
100
AcDbSymbolTableRecord
100
AcDbBlockTableRecord
  2
block 6
340
0
102
{BLKREFS
331
55
102
}
 70
     0
280
     1
281
     0
  0
BLOCK_RECORD
  5
59
330
1
100
AcDbSymbolTableRecord
100
AcDbBlockTableRecord
  2
block 7
340
0
102
{BLKREFS
331
5A
102
}
 70
     0
280
     1
281
     0
  0
BLOCK_RECORD
  5
5E
330
1
100
AcDbSymbolTableRecord
100
AcDbBlockTableRecord
  2
block 8
340
0
102
{BLKREFS
331
5F
102
}
 70
     0
280
     1
281
     0
  0
BLOCK_RECORD
  5
63
330
1
100
AcDbSymbolTableRecord
100
AcDbBlockTableRecord
  2
block 9
340
0
102
{BLKREFS
331
64
102
}
 70
     0
280
     1
281
     0
  0
BLOCK_RECORD
  5
68
330
1
100
AcDbSymbolTableRecord
100
AcDbBlockTableRecord
  2
block 10
340
0
102
{BLKREFS
331
69
102
}
 70
     0
280
     1
281
     0
  0
BLOCK_RECORD
  5
6D
330
1
100
AcDbSymbolTableRecord
100
AcDbBlockTableRecord
  2
block 11
340
0
102
{BLKREFS
331
6E
102
}
 70
     0
280
     1
281
     0
  0
ENDTAB
  0
ENDSEC
  0
SECTION
  2
BLOCKS
  0
BLOCK
  5
20
330
1F
100
AcDbEntity
  8
0
100
AcDbBlockBegin
  2
*Model_Space
 70
     0
 10
0.0
 20
0.0
 30
0.0
  3
*Model_Space
  1

  0
ENDBLK
  5
21
330
1F
100
AcDbEntity
  8
0
100
AcDbBlockEnd
  0
BLOCK
  5
1C
330
1B
100
AcDbEntity
 67
     1
  8
0
100
AcDbBlockBegin
  2
*Paper_Space
 70
     0
 10
0.0
 20
0.0
 30
0.0
  3
*Paper_Space
  1

  0
ENDBLK
  5
1D
330
1B
100
AcDbEntity
 67
     1
  8
0
100
AcDbBlockEnd
  0
BLOCK
  5
24
330
23
100
AcDbEntity
  8
0
100
AcDbBlockBegin
  2
*Paper_Space0
 70
     0
 10
0.0
 20
0.0
 30
0.0
  3
*Paper_Space0
  1

  0
ENDBLK
  5
25
330
23
100
AcDbEntity
  8
0
100
AcDbBlockEnd
  0
BLOCK
  5
42
330
40
100
AcDbEntity
  8
0
100
AcDbBlockBegin
  2
block 2
 70
     0
 10
0.0
 20
0.0
 30
0.0
  3
block 2
  1

  0
SPLINE
  5
44
330
40
100
AcDbEntity
  8
0
 62
     7
420
 16777215
370
    25
100
AcDbSpline
210
0.0
220
0.0
230
1.0
 70
    11
 71
     3
 72
    53
 73
    49
 74
     0
 42
0.0000000001
 43
0.0000000001
 12
1.0
 22
0.0
 32
0.0
 13
1.0
 23
0.0
 33
0.0
 40
0.0
 40
0.0
 40
0.0
 40
0.0
 40
1.0
 40
1.0
 40
1.0
 40
2.0
 40
2.0
 40
2.0
 40
3.0
 40
3.0
 40
3.0
 40
4.0
 40
4.0
 40
4.0
 40
5.0
 40
5.0
 40
5.0
 40
6.0
 40
6.0
 40
6.0
 40
7.0
 40
7.0
 40
7.0
 40
8.0
 40
8.0
 40
8.0
 40
9.0
 40
9.0
 40
9.0
 40
10.0
 40
10.0
 40
10.0
 40
11.0
 40
11.0
 40
11.0
 40
12.0
 40
12.0
 40
12.0
 40
13.0
 40
13.0
 40
13.0
 40
14.0
 40
14.0
 40
14.0
 40
15.0
 40
15.0
 40
15.0
 40
16.0
 40
16.0
 40
16.0
 40
16.0
 10
798.0115614635818
 20
482.2155948180749
 30
0.0
 10
798.0115614634581
 20
479.4541710696109
 30
0.0
 10
800.250137713644
 20
477.215594819223
 30
0.0
 10
803.011561462108
 20
477.2155948190993
 30
0.0
 10
803.011561462108
 20
477.2155948190993
 30
0.0
 10
959.500864633614
 20
477.2155948120744
 30
0.0
 10
959.500864633614
 20
477.2155948120744
 30
0.0
 10
959.500864633614
 20
477.2155948120744
 30
0.0
 10
959.5008646340415
 20
486.7405948096909
 30
0.0
 10
959.5008646340415
 20
486.7405948096909
 30
0.0
 10
959.5008646340415
 20
486.7405948096909
 30
0.0
 10
805.5365614619038
 20
486.7405948166031
 30
0.0
 10
805.5365614619038
 20
486.7405948166031
 30
0.0
 10
805.5365614619038
 20
486.7405948166031
 30
0.0
 10
805.536561466686
 20
593.2594049272658
 30
0.0
 10
805.536561466686
 20
593.2594049272658
 30
0.0
 10
805.536561466686
 20
593.2594049272658
 30
0.0
 10
1114.463438058096
 20
593.259404913396
 30
0.0
 10
1114.463438058096
 20
593.259404913396
 30
0.0
 10
1114.463438058096
 20
593.259404913396
 30
0.0
 10
1114.463438053312
 20
486.7405948027351
 30
0.0
 10
1114.463438053312
 20
486.7405948027351
 30
0.0
 10
1114.463438053312
 20
486.7405948027351
 30
0.0
 10
971.6108978451335
 20
486.7405948091489
 30
0.0
 10
971.6108978451335
 20
486.7405948091489
 30
0.0
 10
971.6108978451335
 20
486.7405948091489
 30
0.0
 10
971.6108978447061
 20
477.2155948115287
 30
0.0
 10
971.6108978447061
 20
477.2155948115287
 30
0.0
 10
971.6108978447061
 20
477.2155948115287
 30
0.0
 10
1116.988438052253
 20
477.2155948050021
 30
0.0
 10
1116.988438052253
 20
477.2155948050021
 30
0.0
 10
1119.749861800717
 20
477.2155948048784
 30
0.0
 10
1121.988438051105
 20
479.4541710550626
 30
0.0
 10
1121.988438051229
 20
482.2155948035266
 30
0.0
 10
1121.988438051229
 20
482.2155948035266
 30
0.0
 10
1121.988438056416
 20
597.784404911926
 30
0.0
 10
1121.988438056416
 20
597.784404911926
 30
0.0
 10
1121.98843805654
 20
600.54582866039
 30
0.0
 10
1119.749861806356
 20
602.784404910777
 30
0.0
 10
1116.988438057892
 20
602.7844049109007
 30
0.0
 10
1116.988438057892
 20
602.7844049109007
 30
0.0
 10
803.0115614677451
 20
602.7844049249969
 30
0.0
 10
803.0115614677451
 20
602.7844049249969
 30
0.0
 10
800.250137719281
 20
602.7844049251206
 30
0.0
 10
798.011561468895
 20
600.5458286749356
 30
0.0
 10
798.0115614687713
 20
597.7844049264716
 30
0.0
 10
798.0115614687713
 20
597.7844049264716
 30
0.0
 10
798.0115614635818
 20
482.2155948180749
 30
0.0
 10
798.0115614635818
 20
482.2155948180749
 30
0.0
  0
ENDBLK
  5
43
330
40
100
AcDbEntity
  8
0
100
AcDbBlockEnd
  0
BLOCK
  5
47
330
45
100
AcDbEntity
  8
0
100
AcDbBlockBegin
  2
block 3
 70
     0
 10
0.0
 20
0.0
 30
0.0
  3
block 3
  1

  0
SPLINE
  5
49
330
45
100
AcDbEntity
  8
0
 62
     7
420
 16777215
370
    25
100
AcDbSpline
210
0.0
220
0.0
230
1.0
 70
    11
 71
     3
 72
    20
 73
    16
 74
     0
 42
0.0000000001
 43
0.0000000001
 12
1.0
 22
0.0
 32
0.0
 13
1.0
 23
0.0
 33
0.0
 40
0.0
 40
0.0
 40
0.0
 40
0.0
 40
1.0
 40
1.0
 40
1.0
 40
2.0
 40
2.0
 40
2.0
 40
3.0
 40
3.0
 40
3.0
 40
4.0
 40
4.0
 40
4.0
 40
5.0
 40
5.0
 40
5.0
 40
5.0
 10
905.4557806064761
 20
483.7405948104191
 30
0.0
 10
905.4557806064761
 20
484.5966361724432
 30
0.0
 10
906.1497392440646
 20
485.2905948100309
 30
0.0
 10
907.0057806060887
 20
485.2905948100309
 30
0.0
 10
907.8618219681119
 20
485.2905948100309
 30
0.0
 10
908.5557806057005
 20
484.5966361724432
 30
0.0
 10
908.5557806057014
 20
483.7405948104191
 30
0.0
 10
908.5557806057005
 20
482.884553448395
 30
0.0
 10
907.8618219681119
 20
482.1905948108073
 30
0.0
 10
907.0057806060887
 20
482.1905948108073
 30
0.0
 10
906.1497392440646
 20
482.1905948108073
 30
0.0
 10
905.4557806064761
 20
482.884553448395
 30
0.0
 10
905.4557806064761
 20
483.7405948104191
 30
0.0
 10
905.4557806064761
 20
483.7405948104191
 30
0.0
 10
905.4557806064761
 20
483.7405948104191
 30
0.0
 10
905.4557806064761
 20
483.7405948104191
 30
0.0
  0
ENDBLK
  5
48
330
45
100
AcDbEntity
  8
0
100
AcDbBlockEnd
  0
BLOCK
  5
4C
330
4A
100
AcDbEntity
  8
0
100
AcDbBlockBegin
  2
block 4
 70
     0
 10
0.0
 20
0.0
 30
0.0
  3
block 4
  1

  0
SPLINE
  5
4E
330
4A
100
AcDbEntity
  8
0
 62
     7
420
 16777215
370
    25
100
AcDbSpline
210
0.0
220
0.0
230
1.0
 70
    11
 71
     3
 72
    20
 73
    16
 74
     0
 42
0.0000000001
 43
0.0000000001
 12
1.0
 22
0.0
 32
0.0
 13
1.0
 23
0.0
 33
0.0
 40
0.0
 40
0.0
 40
0.0
 40
0.0
 40
1.0
 40
1.0
 40
1.0
 40
2.0
 40
2.0
 40
2.0
 40
3.0
 40
3.0
 40
3.0
 40
4.0
 40
4.0
 40
4.0
 40
5.0
 40
5.0
 40
5.0
 40
5.0
 10
1011.444218914299
 20
596.2594049195809
 30
0.0
 10
1011.444218914299
 20
597.115446281604
 30
0.0
 10
1012.138177551887
 20
597.8094049191926
 30
0.0
 10
1012.994218913911
 20
597.8094049191926
 30
0.0
 10
1013.850260275935
 20
597.8094049191926
 30
0.0
 10
1014.544218913523
 20
597.115446281604
 30
0.0
 10
1014.544218913523
 20
596.2594049195809
 30
0.0
 10
1014.544218913523
 20
595.4033635575568
 30
0.0
 10
1013.850260275935
 20
594.7094049199682
 30
0.0
 10
1012.994218913911
 20
594.7094049199682
 30
0.0
 10
1012.138177551887
 20
594.7094049199682
 30
0.0
 10
1011.444218914299
 20
595.4033635575568
 30
0.0
 10
1011.444218914299
 20
596.2594049195809
 30
0.0
 10
1011.444218914299
 20
596.2594049195809
 30
0.0
 10
1011.444218914299
 20
596.2594049195809
 30
0.0
 10
1011.444218914299
 20
596.2594049195809
 30
0.0
  0
ENDBLK
  5
4D
330
4A
100
AcDbEntity
  8
0
100
AcDbBlockEnd
  0
BLOCK
  5
51
330
4F
100
AcDbEntity
  8
0
100
AcDbBlockBegin
  2
block 5
 70
     0
 10
0.0
 20
0.0
 30
0.0
  3
block 5
  1

  0
SPLINE
  5
53
330
4F
100
AcDbEntity
  8
0
 62
     7
420
 16777215
370
    25
100
AcDbSpline
210
0.0
220
0.0
230
1.0
 70
    11
 71
     3
 72
    20
 73
    16
 74
     0
 42
0.0000000001
 43
0.0000000001
 12
1.0
 22
0.0
 32
0.0
 13
1.0
 23
0.0
 33
0.0
 40
0.0
 40
0.0
 40
0.0
 40
0.0
 40
1.0
 40
1.0
 40
1.0
 40
2.0
 40
2.0
 40
2.0
 40
3.0
 40
3.0
 40
3.0
 40
4.0
 40
4.0
 40
4.0
 40
5.0
 40
5.0
 40
5.0
 40
5.0
 10
905.4557806064761
 20
596.2594049195809
 30
0.0
 10
905.4557806064761
 20
597.115446281604
 30
0.0
 10
906.1497392440646
 20
597.8094049191926
 30
0.0
 10
907.0057806060887
 20
597.8094049191935
 30
0.0
 10
907.8618219681119
 20
597.8094049191926
 30
0.0
 10
908.5557806057005
 20
597.115446281604
 30
0.0
 10
908.5557806057014
 20
596.2594049195809
 30
0.0
 10
908.5557806057005
 20
595.4033635575568
 30
0.0
 10
907.8618219681119
 20
594.7094049199682
 30
0.0
 10
907.0057806060887
 20
594.7094049199682
 30
0.0
 10
906.1497392440646
 20
594.7094049199682
 30
0.0
 10
905.4557806064761
 20
595.4033635575568
 30
0.0
 10
905.4557806064761
 20
596.2594049195809
 30
0.0
 10
905.4557806064761
 20
596.2594049195809
 30
0.0
 10
905.4557806064761
 20
596.2594049195809
 30
0.0
 10
905.4557806064761
 20
596.2594049195809
 30
0.0
  0
ENDBLK
  5
52
330
4F
100
AcDbEntity
  8
0
100
AcDbBlockEnd
  0
BLOCK
  5
56
330
54
100
AcDbEntity
  8
0
100
AcDbBlockBegin
  2
block 6
 70
     0
 10
0.0
 20
0.0
 30
0.0
  3
block 6
  1

  0
SPLINE
  5
58
330
54
100
AcDbEntity
  8
0
 62
     7
420
 16777215
370
    25
100
AcDbSpline
210
0.0
220
0.0
230
1.0
 70
    11
 71
     3
 72
    20
 73
    16
 74
     0
 42
0.0000000001
 43
0.0000000001
 12
1.0
 22
0.0
 32
0.0
 13
1.0
 23
0.0
 33
0.0
 40
0.0
 40
0.0
 40
0.0
 40
0.0
 40
1.0
 40
1.0
 40
1.0
 40
2.0
 40
2.0
 40
2.0
 40
3.0
 40
3.0
 40
3.0
 40
4.0
 40
4.0
 40
4.0
 40
5.0
 40
5.0
 40
5.0
 40
5.0
 10
1011.444218914299
 20
483.7405948104191
 30
0.0
 10
1011.444218914299
 20
484.5966361724432
 30
0.0
 10
1012.138177551887
 20
485.2905948100309
 30
0.0
 10
1012.994218913911
 20
485.2905948100309
 30
0.0
 10
1013.850260275935
 20
485.2905948100309
 30
0.0
 10
1014.544218913523
 20
484.5966361724432
 30
0.0
 10
1014.544218913523
 20
483.7405948104191
 30
0.0
 10
1014.544218913523
 20
482.884553448395
 30
0.0
 10
1013.850260275935
 20
482.1905948108073
 30
0.0
 10
1012.994218913911
 20
482.1905948108073
 30
0.0
 10
1012.138177551887
 20
482.1905948108073
 30
0.0
 10
1011.444218914299
 20
482.884553448395
 30
0.0
 10
1011.444218914299
 20
483.7405948104191
 30
0.0
 10
1011.444218914299
 20
483.7405948104191
 30
0.0
 10
1011.444218914299
 20
483.7405948104191
 30
0.0
 10
1011.444218914299
 20
483.7405948104191
 30
0.0
  0
ENDBLK
  5
57
330
54
100
AcDbEntity
  8
0
100
AcDbBlockEnd
  0
BLOCK
  5
5B
330
59
100
AcDbEntity
  8
0
100
AcDbBlockBegin
  2
block 7
 70
     0
 10
0.0
 20
0.0
 30
0.0
  3
block 7
  1

  0
SPLINE
  5
5D
330
59
100
AcDbEntity
  8
0
 62
     7
420
 16777215
370
    25
100
AcDbSpline
210
0.0
220
0.0
230
1.0
 70
    11
 71
     3
 72
    20
 73
    16
 74
     0
 42
0.0000000001
 43
0.0000000001
 12
1.0
 22
0.0
 32
0.0
 13
1.0
 23
0.0
 33
0.0
 40
0.0
 40
0.0
 40
0.0
 40
0.0
 40
1.0
 40
1.0
 40
1.0
 40
2.0
 40
2.0
 40
2.0
 40
3.0
 40
3.0
 40
3.0
 40
4.0
 40
4.0
 40
4.0
 40
5.0
 40
5.0
 40
5.0
 40
5.0
 10
803.9865614646832
 20
483.7405948104191
 30
0.0
 10
803.9865614646832
 20
484.5966361724432
 30
0.0
 10
804.6805201022718
 20
485.2905948100309
 30
0.0
 10
805.5365614642958
 20
485.2905948100309
 30
0.0
 10
806.39260282632
 20
485.2905948100309
 30
0.0
 10
807.0865614639085
 20
484.5966361724432
 30
0.0
 10
807.0865614639085
 20
483.7405948104191
 30
0.0
 10
807.0865614639085
 20
482.884553448395
 30
0.0
 10
806.39260282632
 20
482.1905948108073
 30
0.0
 10
805.5365614642958
 20
482.1905948108073
 30
0.0
 10
804.6805201022718
 20
482.1905948108073
 30
0.0
 10
803.9865614646832
 20
482.884553448395
 30
0.0
 10
803.9865614646832
 20
483.7405948104191
 30
0.0
 10
803.9865614646832
 20
483.7405948104191
 30
0.0
 10
803.9865614646832
 20
483.7405948104191
 30
0.0
 10
803.9865614646832
 20
483.7405948104191
 30
0.0
  0
ENDBLK
  5
5C
330
59
100
AcDbEntity
  8
0
100
AcDbBlockEnd
  0
BLOCK
  5
60
330
5E
100
AcDbEntity
  8
0
100
AcDbBlockBegin
  2
block 8
 70
     0
 10
0.0
 20
0.0
 30
0.0
  3
block 8
  1

  0
SPLINE
  5
62
330
5E
100
AcDbEntity
  8
0
 62
     7
420
 16777215
370
    25
100
AcDbSpline
210
0.0
220
0.0
230
1.0
 70
    11
 71
     3
 72
    20
 73
    16
 74
     0
 42
0.0000000001
 43
0.0000000001
 12
1.0
 22
0.0
 32
0.0
 13
1.0
 23
0.0
 33
0.0
 40
0.0
 40
0.0
 40
0.0
 40
0.0
 40
1.0
 40
1.0
 40
1.0
 40
2.0
 40
2.0
 40
2.0
 40
3.0
 40
3.0
 40
3.0
 40
4.0
 40
4.0
 40
4.0
 40
5.0
 40
5.0
 40
5.0
 40
5.0
 10
1112.913438056091
 20
596.2594049195809
 30
0.0
 10
1112.913438056091
 20
597.115446281604
 30
0.0
 10
1113.60739669368
 20
597.8094049191926
 30
0.0
 10
1114.463438055704
 20
597.8094049191926
 30
0.0
 10
1115.319479417728
 20
597.8094049191926
 30
0.0
 10
1116.013438055316
 20
597.115446281604
 30
0.0
 10
1116.013438055316
 20
596.2594049195809
 30
0.0
 10
1116.013438055316
 20
595.4033635575568
 30
0.0
 10
1115.319479417728
 20
594.7094049199682
 30
0.0
 10
1114.463438055704
 20
594.7094049199682
 30
0.0
 10
1113.60739669368
 20
594.7094049199682
 30
0.0
 10
1112.913438056091
 20
595.4033635575568
 30
0.0
 10
1112.913438056091
 20
596.2594049195809
 30
0.0
 10
1112.913438056091
 20
596.2594049195809
 30
0.0
 10
1112.913438056091
 20
596.2594049195809
 30
0.0
 10
1112.913438056091
 20
596.2594049195809
 30
0.0
  0
ENDBLK
  5
61
330
5E
100
AcDbEntity
  8
0
100
AcDbBlockEnd
  0
BLOCK
  5
65
330
63
100
AcDbEntity
  8
0
100
AcDbBlockBegin
  2
block 9
 70
     0
 10
0.0
 20
0.0
 30
0.0
  3
block 9
  1

  0
SPLINE
  5
67
330
63
100
AcDbEntity
  8
0
 62
     7
420
 16777215
370
    25
100
AcDbSpline
210
0.0
220
0.0
230
1.0
 70
    11
 71
     3
 72
    20
 73
    16
 74
     0
 42
0.0000000001
 43
0.0000000001
 12
1.0
 22
0.0
 32
0.0
 13
1.0
 23
0.0
 33
0.0
 40
0.0
 40
0.0
 40
0.0
 40
0.0
 40
1.0
 40
1.0
 40
1.0
 40
2.0
 40
2.0
 40
2.0
 40
3.0
 40
3.0
 40
3.0
 40
4.0
 40
4.0
 40
4.0
 40
5.0
 40
5.0
 40
5.0
 40
5.0
 10
803.9865614646832
 20
596.2594049195809
 30
0.0
 10
803.9865614646832
 20
597.115446281604
 30
0.0
 10
804.6805201022718
 20
597.8094049191926
 30
0.0
 10
805.5365614642958
 20
597.8094049191935
 30
0.0
 10
806.39260282632
 20
597.8094049191926
 30
0.0
 10
807.0865614639085
 20
597.115446281604
 30
0.0
 10
807.0865614639085
 20
596.2594049195809
 30
0.0
 10
807.0865614639085
 20
595.4033635575568
 30
0.0
 10
806.39260282632
 20
594.7094049199682
 30
0.0
 10
805.5365614642958
 20
594.7094049199682
 30
0.0
 10
804.6805201022718
 20
594.7094049199682
 30
0.0
 10
803.9865614646832
 20
595.4033635575568
 30
0.0
 10
803.9865614646832
 20
596.2594049195809
 30
0.0
 10
803.9865614646832
 20
596.2594049195809
 30
0.0
 10
803.9865614646832
 20
596.2594049195809
 30
0.0
 10
803.9865614646832
 20
596.2594049195809
 30
0.0
  0
ENDBLK
  5
66
330
63
100
AcDbEntity
  8
0
100
AcDbBlockEnd
  0
BLOCK
  5
6A
330
68
100
AcDbEntity
  8
0
100
AcDbBlockBegin
  2
block 10
 70
     0
 10
0.0
 20
0.0
 30
0.0
  3
block 10
  1

  0
SPLINE
  5
6C
330
68
100
AcDbEntity
  8
0
 62
     7
420
 16777215
370
    25
100
AcDbSpline
210
0.0
220
0.0
230
1.0
 70
    11
 71
     3
 72
    20
 73
    16
 74
     0
 42
0.0000000001
 43
0.0000000001
 12
1.0
 22
0.0
 32
0.0
 13
1.0
 23
0.0
 33
0.0
 40
0.0
 40
0.0
 40
0.0
 40
0.0
 40
1.0
 40
1.0
 40
1.0
 40
2.0
 40
2.0
 40
2.0
 40
3.0
 40
3.0
 40
3.0
 40
4.0
 40
4.0
 40
4.0
 40
5.0
 40
5.0
 40
5.0
 40
5.0
 10
1112.913438056091
 20
483.7405948104191
 30
0.0
 10
1112.913438056091
 20
484.5966361724432
 30
0.0
 10
1113.60739669368
 20
485.2905948100309
 30
0.0
 10
1114.463438055704
 20
485.2905948100309
 30
0.0
 10
1115.319479417728
 20
485.2905948100309
 30
0.0
 10
1116.013438055316
 20
484.5966361724432
 30
0.0
 10
1116.013438055316
 20
483.7405948104191
 30
0.0
 10
1116.013438055316
 20
482.884553448395
 30
0.0
 10
1115.319479417728
 20
482.1905948108073
 30
0.0
 10
1114.463438055704
 20
482.1905948108073
 30
0.0
 10
1113.60739669368
 20
482.1905948108073
 30
0.0
 10
1112.913438056091
 20
482.884553448395
 30
0.0
 10
1112.913438056091
 20
483.7405948104191
 30
0.0
 10
1112.913438056091
 20
483.7405948104191
 30
0.0
 10
1112.913438056091
 20
483.7405948104191
 30
0.0
 10
1112.913438056091
 20
483.7405948104191
 30
0.0
  0
ENDBLK
  5
6B
330
68
100
AcDbEntity
  8
0
100
AcDbBlockEnd
  0
BLOCK
  5
6F
330
6D
100
AcDbEntity
  8
0
100
AcDbBlockBegin
  2
block 11
 70
     0
 10
0.0
 20
0.0
 30
0.0
  3
block 11
  1

  0
POLYLINE
  5
71
330
6D
100
AcDbEntity
  8
0
 62
   240
420
 15539236
370
    35
100
AcDb2dPolyline
 66
     1
 10
0.0
 20
0.0
 30
0.0
  0
VERTEX
  5
72
330
71
100
AcDbEntity
  8
0
 62
   240
420
 15539236
370
    35
100
AcDbVertex
100
AcDb2dVertex
 10
807.9653318292586
 20
609.1074217227232
 30
0.0
  0
VERTEX
  5
73
330
71
100
AcDbEntity
  8
0
 62
   240
420
 15539236
370
    35
100
AcDbVertex
100
AcDb2dVertex
 10
807.9653318292586
 20
617.6972654705756
 30
0.0
  0
VERTEX
  5
74
330
71
100
AcDbEntity
  8
0
 62
   240
420
 15539236
370
    35
100
AcDbVertex
100
AcDb2dVertex
 10
809.1020505789745
 20
617.6972654705756
 30
0.0
  0
VERTEX
  5
75
330
71
100
AcDbEntity
  8
0
 62
   240
420
 15539236
370
    35
100
AcDbVertex
100
AcDb2dVertex
 10
809.1020505789745
 20
610.1210935974697
 30
0.0
  0
VERTEX
  5
76
330
71
100
AcDbEntity
  8
0
 62
   240
420
 15539236
370
    35
100
AcDbVertex
100
AcDb2dVertex
 10
813.3325193279169
 20
610.1210935974697
 30
0.0
  0
VERTEX
  5
77
330
71
100
AcDbEntity
  8
0
 62
   240
420
 15539236
370
    35
100
AcDbVertex
100
AcDb2dVertex
 10
813.3325193279169
 20
609.1074217227232
 30
0.0
  0
VERTEX
  5
78
330
71
100
AcDbEntity
  8
0
 62
   240
420
 15539236
370
    35
100
AcDbVertex
100
AcDb2dVertex
 10
807.9653318292586
 20
609.1074217227232
 30
0.0
  0
SEQEND
  5
79
330
71
100
AcDbEntity
  8
0
 62
   240
420
 15539236
370
    35
  0
HATCH
  5
7A
330
6D
100
AcDbEntity
  8
0
 62
   240
420
 15539236
100
AcDbHatch
 10
0.0
 20
0.0
 30
0.0
210
0.0
220
0.0
230
1.0
  2
SOLID
 70
     1
 71
     0
 91
        1
 92
        1
 93
        6
 72
     1
 10
807.9653318292586
 20
609.1074217227232
 11
807.9653318292586
 21
617.6972654705756
 72
     1
 10
807.9653318292586
 20
617.6972654705756
 11
809.1020505789745
 21
617.6972654705756
 72
     1
 10
809.1020505789745
 20
617.6972654705756
 11
809.1020505789745
 21
610.1210935974697
 72
     1
 10
809.1020505789745
 20
610.1210935974697
 11
813.3325193279169
 21
610.1210935974697
 72
     1
 10
813.3325193279169
 20
610.1210935974697
 11
813.3325193279169
 21
609.1074217227232
 72
     1
 10
813.3325193279169
 20
609.1074217227232
 11
807.9653318292586
 21
609.1074217227232
 97
        0
 75
     2
 76
     1
 98
        0
  0
SPLINE
  5
7B
330
6D
100
AcDbEntity
  8
0
 62
   240
420
 15539236
370
    35
100
AcDbSpline
210
0.0
220
0.0
230
1.0
 70
    11
 71
     3
 72
    62
 73
    58
 74
     0
 42
0.0000000001
 43
0.0000000001
 12
1.0
 22
0.0
 32
0.0
 13
1.0
 23
0.0
 33
0.0
 40
0.0
 40
0.0
 40
0.0
 40
0.0
 40
1.0
 40
1.0
 40
1.0
 40
2.0
 40
2.0
 40
2.0
 40
3.0
 40
3.0
 40
3.0
 40
4.0
 40
4.0
 40
4.0
 40
5.0
 40
5.0
 40
5.0
 40
6.0
 40
6.0
 40
6.0
 40
7.0
 40
7.0
 40
7.0
 40
8.0
 40
8.0
 40
8.0
 40
9.0
 40
9.0
 40
9.0
 40
10.0
 40
10.0
 40
10.0
 40
11.0
 40
11.0
 40
11.0
 40
12.0
 40
12.0
 40
12.0
 40
13.0
 40
13.0
 40
13.0
 40
14.0
 40
14.0
 40
14.0
 40
15.0
 40
15.0
 40
15.0
 40
16.0
 40
16.0
 40
16.0
 40
17.0
 40
17.0
 40
17.0
 40
18.0
 40
18.0
 40
18.0
 40
19.0
 40
19.0
 40
19.0
 40
19.0
 10
819.7309568263172
 20
615.5937498461016
 30
0.0
 10
819.7309568263172
 20
615.5937498461016
 30
0.0
 10
818.6821287015795
 20
615.511718596122
 30
0.0
 10
818.6821287015795
 20
615.511718596122
 30
0.0
 10
818.5883787016029
 20
615.9257810960186
 30
0.0
 10
818.4555662016361
 20
616.2265623459433
 30
0.0
 10
818.2836912016791
 20
616.4140623458965
 30
0.0
 10
817.9985349517503
 20
616.7148435958213
 30
0.0
 10
817.6469724518382
 20
616.8652342207837
 30
0.0
 10
817.2290037019427
 20
616.8652342207837
 30
0.0
 10
816.8930662020267
 20
616.8652342207837
 30
0.0
 10
816.5981443271005
 20
616.7714842208071
 30
0.0
 10
816.3442380771639
 20
616.583984220854
 30
0.0
 10
816.0122068272469
 20
616.3417967209145
 30
0.0
 10
815.7504880773124
 20
615.9882810960029
 30
0.0
 10
815.5590818273602
 20
615.5234373461192
 30
0.0
 10
815.367675577408
 20
615.0585935962354
 30
0.0
 10
815.2680662024329
 20
614.3964842214009
 30
0.0
 10
815.260253702435
 20
613.5371092216158
 30
0.0
 10
815.5141599523714
 20
613.923827971519
 30
0.0
 10
815.8247068272938
 20
614.2109373464473
 30
0.0
 10
816.191894327202
 20
614.3984373464003
 30
0.0
 10
816.5590818271102
 20
614.5859373463535
 30
0.0
 10
816.943847452014
 20
614.6796873463301
 30
0.0
 10
817.3461912019135
 20
614.6796873463301
 30
0.0
 10
818.0493162017376
 20
614.6796873463301
 30
0.0
 10
818.647949014088
 20
614.4208982838948
 30
0.0
 10
819.1420896389644
 20
613.9033201590241
 30
0.0
 10
819.636230263841
 20
613.3857420341535
 30
0.0
 10
819.8833005762791
 20
612.7167967218207
 30
0.0
 10
819.8833005762791
 20
611.8964842220258
 30
0.0
 10
819.8833005762791
 20
611.3574217221607
 30
0.0
 10
819.7670896388082
 20
610.8564451597858
 30
0.0
 10
819.5346677638663
 20
610.3935545349016
 30
0.0
 10
819.3022458889244
 20
609.9306639100173
 30
0.0
 10
818.9829099515042
 20
609.576171722606
 30
0.0
 10
818.5766599516058
 20
609.3300779726675
 30
0.0
 10
818.1704099517074
 20
609.083984222729
 30
0.0
 10
817.7094724518226
 20
608.9609373477598
 30
0.0
 10
817.1938474519516
 20
608.9609373477598
 30
0.0
 10
816.3149412021712
 20
608.9609373477598
 30
0.0
 10
815.5981443273505
 20
609.284179535179
 30
0.0
 10
815.0434568274891
 20
609.9306639100173
 30
0.0
 10
814.4887693276278
 20
610.5771482848558
 30
0.0
 10
814.2114255776971
 20
611.6425779720894
 30
0.0
 10
814.2114255776971
 20
613.1269529717182
 30
0.0
 10
814.2114255776971
 20
614.7871092213032
 30
0.0
 10
814.5180662026205
 20
615.9941404710014
 30
0.0
 10
815.1313474524671
 20
616.748046720813
 30
0.0
 10
815.6665037023333
 20
617.4042967206489
 30
0.0
 10
816.3872068271531
 20
617.7324217205669
 30
0.0
 10
817.2934568269267
 20
617.7324217205669
 30
0.0
 10
817.9692380767576
 20
617.7324217205669
 30
0.0
 10
818.5229490141193
 20
617.5429685956143
 30
0.0
 10
818.9545896390114
 20
617.164062345709
 30
0.0
 10
819.3862302639034
 20
616.7851560958037
 30
0.0
 10
819.6450193263387
 20
616.2617185959346
 30
0.0
 10
819.7309568263172
 20
615.5937498461016
 30
0.0
  0
SPLINE
  5
7C
330
6D
100
AcDbEntity
  8
0
 62
   240
420
 15539236
370
    35
100
AcDbSpline
210
0.0
220
0.0
230
1.0
 70
    11
 71
     3
 72
    32
 73
    28
 74
     0
 42
0.0000000001
 43
0.0000000001
 12
1.0
 22
0.0
 32
0.0
 13
1.0
 23
0.0
 33
0.0
 40
0.0
 40
0.0
 40
0.0
 40
0.0
 40
1.0
 40
1.0
 40
1.0
 40
2.0
 40
2.0
 40
2.0
 40
3.0
 40
3.0
 40
3.0
 40
4.0
 40
4.0
 40
4.0
 40
5.0
 40
5.0
 40
5.0
 40
6.0
 40
6.0
 40
6.0
 40
7.0
 40
7.0
 40
7.0
 40
8.0
 40
8.0
 40
8.0
 40
9.0
 40
9.0
 40
9.0
 40
9.0
 10
815.4243162023939
 20
611.8906248470273
 30
0.0
 10
815.4243162023939
 20
611.5273435971181
 30
0.0
 10
815.5014646398746
 20
611.1796873472051
 30
0.0
 10
815.6557615148361
 20
610.8476560972881
 30
0.0
 10
815.8100583897975
 20
610.5156248473711
 30
0.0
 10
816.0258787022435
 20
610.2626951599343
 30
0.0
 10
816.3032224521742
 20
610.0888670349777
 30
0.0
 10
816.5805662021048
 20
609.9150389100213
 30
0.0
 10
816.8715818270321
 20
609.828124847543
 30
0.0
 10
817.1762693269559
 20
609.828124847543
 30
0.0
 10
817.6215818268446
 20
609.828124847543
 30
0.0
 10
818.0043943267489
 20
610.0078123474981
 30
0.0
 10
818.3247068266688
 20
610.3671873474082
 30
0.0
 10
818.6450193265887
 20
610.7265623473183
 30
0.0
 10
818.8051755765487
 20
611.2148435971962
 30
0.0
 10
818.8051755765487
 20
611.832031097042
 30
0.0
 10
818.8051755765487
 20
612.4257810968935
 30
0.0
 10
818.6469724515882
 20
612.8935545342766
 30
0.0
 10
818.3305662016674
 20
613.2353514091911
 30
0.0
 10
818.0141599517465
 20
613.5771482841056
 30
0.0
 10
817.6157224518461
 20
613.748046721563
 30
0.0
 10
817.1352537019661
 20
613.748046721563
 30
0.0
 10
816.6586912020853
 20
613.748046721563
 30
0.0
 10
816.2543943271863
 20
613.5771482841056
 30
0.0
 10
815.9223630772694
 20
613.2353514091911
 30
0.0
 10
815.5903318273524
 20
612.8935545342766
 30
0.0
 10
815.4243162023939
 20
612.4453123468886
 30
0.0
 10
815.4243162023939
 20
611.8906248470273
 30
0.0
  0
HATCH
  5
7D
330
6D
100
AcDbEntity
  8
0
 62
   240
420
 15539236
100
AcDbHatch
 10
0.0
 20
0.0
 30
0.0
210
0.0
220
0.0
230
1.0
  2
SOLID
 70
     1
 71
     0
 91
        2
 92
        1
 93
        1
 72
     4
 94
        3
 73
     0
 74
     1
 95
       62
 96
       58
 40
0.0
 40
0.0
 40
0.0
 40
0.0
 40
1.0
 40
1.0
 40
1.0
 40
2.0
 40
2.0
 40
2.0
 40
3.0
 40
3.0
 40
3.0
 40
4.0
 40
4.0
 40
4.0
 40
5.0
 40
5.0
 40
5.0
 40
6.0
 40
6.0
 40
6.0
 40
7.0
 40
7.0
 40
7.0
 40
8.0
 40
8.0
 40
8.0
 40
9.0
 40
9.0
 40
9.0
 40
10.0
 40
10.0
 40
10.0
 40
11.0
 40
11.0
 40
11.0
 40
12.0
 40
12.0
 40
12.0
 40
13.0
 40
13.0
 40
13.0
 40
14.0
 40
14.0
 40
14.0
 40
15.0
 40
15.0
 40
15.0
 40
16.0
 40
16.0
 40
16.0
 40
17.0
 40
17.0
 40
17.0
 40
18.0
 40
18.0
 40
18.0
 40
19.0
 40
19.0
 40
19.0
 40
19.0
 10
819.7309568263172
 20
615.5937498461016
 10
819.7309568263172
 20
615.5937498461016
 10
818.6821287015795
 20
615.511718596122
 10
818.6821287015795
 20
615.511718596122
 10
818.5883787016029
 20
615.9257810960186
 10
818.4555662016361
 20
616.2265623459433
 10
818.2836912016791
 20
616.4140623458965
 10
817.9985349517503
 20
616.7148435958213
 10
817.6469724518382
 20
616.8652342207837
 10
817.2290037019427
 20
616.8652342207837
 10
816.8930662020267
 20
616.8652342207837
 10
816.5981443271005
 20
616.7714842208071
 10
816.3442380771639
 20
616.583984220854
 10
816.0122068272469
 20
616.3417967209145
 10
815.7504880773124
 20
615.9882810960029
 10
815.5590818273602
 20
615.5234373461192
 10
815.367675577408
 20
615.0585935962354
 10
815.2680662024329
 20
614.3964842214009
 10
815.260253702435
 20
613.5371092216158
 10
815.5141599523714
 20
613.923827971519
 10
815.8247068272938
 20
614.2109373464473
 10
816.191894327202
 20
614.3984373464003
 10
816.5590818271102
 20
614.5859373463535
 10
816.943847452014
 20
614.6796873463301
 10
817.3461912019135
 20
614.6796873463301
 10
818.0493162017376
 20
614.6796873463301
 10
818.647949014088
 20
614.4208982838948
 10
819.1420896389644
 20
613.9033201590241
 10
819.636230263841
 20
613.3857420341535
 10
819.8833005762791
 20
612.7167967218207
 10
819.8833005762791
 20
611.8964842220258
 10
819.8833005762791
 20
611.3574217221607
 10
819.7670896388082
 20
610.8564451597858
 10
819.5346677638663
 20
610.3935545349016
 10
819.3022458889244
 20
609.9306639100173
 10
818.9829099515042
 20
609.576171722606
 10
818.5766599516058
 20
609.3300779726675
 10
818.1704099517074
 20
609.083984222729
 10
817.7094724518226
 20
608.9609373477598
 10
817.1938474519516
 20
608.9609373477598
 10
816.3149412021712
 20
608.9609373477598
 10
815.5981443273505
 20
609.284179535179
 10
815.0434568274891
 20
609.9306639100173
 10
814.4887693276278
 20
610.5771482848558
 10
814.2114255776971
 20
611.6425779720894
 10
814.2114255776971
 20
613.1269529717182
 10
814.2114255776971
 20
614.7871092213032
 10
814.5180662026205
 20
615.9941404710014
 10
815.1313474524671
 20
616.748046720813
 10
815.6665037023333
 20
617.4042967206489
 10
816.3872068271531
 20
617.7324217205669
 10
817.2934568269267
 20
617.7324217205669
 10
817.9692380767576
 20
617.7324217205669
 10
818.5229490141193
 20
617.5429685956143
 10
818.9545896390114
 20
617.164062345709
 10
819.3862302639034
 20
616.7851560958037
 10
819.6450193263387
 20
616.2617185959346
 10
819.7309568263172
 20
615.5937498461016
 97
        0
 97
        0
 92
        1
 93
        1
 72
     4
 94
        3
 73
     0
 74
     1
 95
       32
 96
       28
 40
0.0
 40
0.0
 40
0.0
 40
0.0
 40
1.0
 40
1.0
 40
1.0
 40
2.0
 40
2.0
 40
2.0
 40
3.0
 40
3.0
 40
3.0
 40
4.0
 40
4.0
 40
4.0
 40
5.0
 40
5.0
 40
5.0
 40
6.0
 40
6.0
 40
6.0
 40
7.0
 40
7.0
 40
7.0
 40
8.0
 40
8.0
 40
8.0
 40
9.0
 40
9.0
 40
9.0
 40
9.0
 10
815.4243162023939
 20
611.8906248470273
 10
815.4243162023939
 20
611.5273435971181
 10
815.5014646398746
 20
611.1796873472051
 10
815.6557615148361
 20
610.8476560972881
 10
815.8100583897975
 20
610.5156248473711
 10
816.0258787022435
 20
610.2626951599343
 10
816.3032224521742
 20
610.0888670349777
 10
816.5805662021048
 20
609.9150389100213
 10
816.8715818270321
 20
609.828124847543
 10
817.1762693269559
 20
609.828124847543
 10
817.6215818268446
 20
609.828124847543
 10
818.0043943267489
 20
610.0078123474981
 10
818.3247068266688
 20
610.3671873474082
 10
818.6450193265887
 20
610.7265623473183
 10
818.8051755765487
 20
611.2148435971962
 10
818.8051755765487
 20
611.832031097042
 10
818.8051755765487
 20
612.4257810968935
 10
818.6469724515882
 20
612.8935545342766
 10
818.3305662016674
 20
613.2353514091911
 10
818.0141599517465
 20
613.5771482841056
 10
817.6157224518461
 20
613.748046721563
 10
817.1352537019661
 20
613.748046721563
 10
816.6586912020853
 20
613.748046721563
 10
816.2543943271863
 20
613.5771482841056
 10
815.9223630772694
 20
613.2353514091911
 10
815.5903318273524
 20
612.8935545342766
 10
815.4243162023939
 20
612.4453123468886
 10
815.4243162023939
 20
611.8906248470273
 97
        0
 97
        0
 75
     2
 76
     1
 98
        0
  0
SPLINE
  5
7E
330
6D
100
AcDbEntity
  8
0
 62
   240
420
 15539236
370
    35
100
AcDbSpline
210
0.0
220
0.0
230
1.0
 70
    11
 71
     3
 72
   110
 73
   106
 74
     0
 42
0.0000000001
 43
0.0000000001
 12
1.0
 22
0.0
 32
0.0
 13
1.0
 23
0.0
 33
0.0
 40
0.0
 40
0.0
 40
0.0
 40
0.0
 40
1.0
 40
1.0
 40
1.0
 40
2.0
 40
2.0
 40
2.0
 40
3.0
 40
3.0
 40
3.0
 40
4.0
 40
4.0
 40
4.0
 40
5.0
 40
5.0
 40
5.0
 40
6.0
 40
6.0
 40
6.0
 40
7.0
 40
7.0
 40
7.0
 40
8.0
 40
8.0
 40
8.0
 40
9.0
 40
9.0
 40
9.0
 40
10.0
 40
10.0
 40
10.0
 40
11.0
 40
11.0
 40
11.0
 40
12.0
 40
12.0
 40
12.0
 40
13.0
 40
13.0
 40
13.0
 40
14.0
 40
14.0
 40
14.0
 40
15.0
 40
15.0
 40
15.0
 40
16.0
 40
16.0
 40
16.0
 40
17.0
 40
17.0
 40
17.0
 40
18.0
 40
18.0
 40
18.0
 40
19.0
 40
19.0
 40
19.0
 40
20.0
 40
20.0
 40
20.0
 40
21.0
 40
21.0
 40
21.0
 40
22.0
 40
22.0
 40
22.0
 40
23.0
 40
23.0
 40
23.0
 40
24.0
 40
24.0
 40
24.0
 40
25.0
 40
25.0
 40
25.0
 40
26.0
 40
26.0
 40
26.0
 40
27.0
 40
27.0
 40
27.0
 40
28.0
 40
28.0
 40
28.0
 40
29.0
 40
29.0
 40
29.0
 40
30.0
 40
30.0
 40
30.0
 40
31.0
 40
31.0
 40
31.0
 40
32.0
 40
32.0
 40
32.0
 40
33.0
 40
33.0
 40
33.0
 40
34.0
 40
34.0
 40
34.0
 40
35.0
 40
35.0
 40
35.0
 40
35.0
 10
824.3071287001732
 20
611.8671873470332
 30
0.0
 10
824.3071287001732
 20
611.8671873470332
 30
0.0
 10
825.3793943249051
 20
611.9609373470098
 30
0.0
 10
825.3793943249051
 20
611.9609373470098
 30
0.0
 10
825.4301755748925
 20
611.5312498471171
 30
0.0
 10
825.5483396373629
 20
611.1787107847053
 30
0.0
 10
825.7338865123165
 20
610.9033201597741
 30
0.0
 10
825.9194333872701
 20
610.627929534843
 30
0.0
 10
826.2075193246981
 20
610.4052732848986
 30
0.0
 10
826.5981443246004
 20
610.2353514099411
 30
0.0
 10
826.9887693245028
 20
610.0654295349837
 30
0.0
 10
827.4282224493929
 20
609.9804685975049
 30
0.0
 10
827.9165036992708
 20
609.9804685975049
 30
0.0
 10
828.3500974491625
 20
609.9804685975049
 30
0.0
 10
828.7329099490668
 20
610.0449217224888
 30
0.0
 10
829.0649411989838
 20
610.1738279724565
 30
0.0
 10
829.3969724489008
 20
610.3027342224243
 30
0.0
 10
829.6440427613389
 20
610.4794920348801
 30
0.0
 10
829.8061521362985
 20
610.7041014098239
 30
0.0
 10
829.9682615112579
 20
610.9287107847678
 30
0.0
 10
830.0493161987376
 20
611.1738279722065
 30
0.0
 10
830.0493161987376
 20
611.4394529721401
 30
0.0
 10
830.0493161987376
 20
611.7089842220728
 30
0.0
 10
829.9711911987572
 20
611.9443357845139
 30
0.0
 10
829.8149411987962
 20
612.1455076594636
 30
0.0
 10
829.6586911988353
 20
612.3466795344133
 30
0.0
 10
829.4008786988998
 20
612.5156248468711
 30
0.0
 10
829.0415036989896
 20
612.6523435968369
 30
0.0
 10
828.8110349490472
 20
612.7421873468145
 30
0.0
 10
828.3012693241747
 20
612.8818357842795
 30
0.0
 10
827.5122068243719
 20
613.0712889092322
 30
0.0
 10
826.7231443245691
 20
613.2607420341848
 30
0.0
 10
826.1704099497074
 20
613.4394529716401
 30
0.0
 10
825.8540036997865
 20
613.6074217215981
 30
0.0
 10
825.4438474498891
 20
613.8222654715444
 30
0.0
 10
825.1381833874655
 20
614.0888670339777
 30
0.0
 10
824.9370115125157
 20
614.4072264088982
 30
0.0
 10
824.7358396375661
 20
614.7255857838186
 30
0.0
 10
824.6352537000912
 20
615.0820310962295
 30
0.0
 10
824.6352537000912
 20
615.4765623461309
 30
0.0
 10
824.6352537000912
 20
615.9101560960224
 30
0.0
 10
824.7583005750604
 20
616.3154295334211
 30
0.0
 10
825.0043943249989
 20
616.6923826583269
 30
0.0
 10
825.2504880749374
 20
617.0693357832326
 30
0.0
 10
825.6098630748476
 20
617.3554685956611
 30
0.0
 10
826.0825193247293
 20
617.5507810956123
 30
0.0
 10
826.5551755746112
 20
617.7460935955635
 30
0.0
 10
827.0805661994798
 20
617.843749845539
 30
0.0
 10
827.6586911993353
 20
617.843749845539
 30
0.0
 10
828.2954099491761
 20
617.843749845539
 30
0.0
 10
828.8569333865357
 20
617.7412107830647
 30
0.0
 10
829.3432615114142
 20
617.536132658116
 30
0.0
 10
829.8295896362926
 20
617.3310545331673
 30
0.0
 10
830.2036130736991
 20
617.0292967207426
 30
0.0
 10
830.4653318236336
 20
616.6308592208422
 30
0.0
 10
830.7270505735682
 20
616.2324217209418
 30
0.0
 10
830.8676755735331
 20
615.7812498460547
 30
0.0
 10
830.8872068235282
 20
615.2773435961807
 30
0.0
 10
830.8872068235282
 20
615.2773435961807
 30
0.0
 10
829.7973630738006
 20
615.1953123462011
 30
0.0
 10
829.7973630738006
 20
615.1953123462011
 30
0.0
 10
829.7387693238153
 20
615.7382810960654
 30
0.0
 10
829.5405271363649
 20
616.1484373459629
 30
0.0
 10
829.2026365114493
 20
616.4257810958935
 30
0.0
 10
828.8647458865338
 20
616.7031248458242
 30
0.0
 10
828.3657224491585
 20
616.8417967207895
 30
0.0
 10
827.7055661993236
 20
616.8417967207895
 30
0.0
 10
827.0180661994955
 20
616.8417967207895
 30
0.0
 10
826.5170896371208
 20
616.715820158321
 30
0.0
 10
826.2026365121993
 20
616.4638670333841
 30
0.0
 10
825.888183387278
 20
616.2119139084471
 30
0.0
 10
825.7309568248172
 20
615.9082029710229
 30
0.0
 10
825.7309568248172
 20
615.5527342211118
 30
0.0
 10
825.7309568248172
 20
615.244140471189
 30
0.0
 10
825.8422849497894
 20
614.9902342212524
 30
0.0
 10
826.0649411997338
 20
614.7910154713022
 30
0.0
 10
826.2836911996791
 20
614.591796721352
 30
0.0
 10
826.8549802620363
 20
614.387695158903
 30
0.0
 10
827.7788083868053
 20
614.1787107839554
 30
0.0
 10
828.7026365115743
 20
613.9697264090075
 30
0.0
 10
829.3364255739159
 20
613.7871092215532
 30
0.0
 10
829.68017557383
 20
613.6308592215922
 30
0.0
 10
830.1801755737049
 20
613.4003904716499
 30
0.0
 10
830.5493161986127
 20
613.1083982842229
 30
0.0
 10
830.7875974485531
 20
612.7548826593113
 30
0.0
 10
831.0258786984936
 20
612.4013670343996
 30
0.0
 10
831.1450193234638
 20
611.9941404720015
 30
0.0
 10
831.1450193234638
 20
611.5332029721167
 30
0.0
 10
831.1450193234638
 20
611.0761717222309
 30
0.0
 10
831.0141599484964
 20
610.6455076598386
 30
0.0
 10
830.7524411985619
 20
610.2412107849397
 30
0.0
 10
830.4907224486273
 20
609.8369139100407
 30
0.0
 10
830.1147458862213
 20
609.5224607851194
 30
0.0
 10
829.6245115113438
 20
609.2978514101756
 30
0.0
 10
829.1342771364664
 20
609.0732420352317
 30
0.0
 10
828.5825193241044
 20
608.9609373477598
 30
0.0
 10
827.9692380742576
 20
608.9609373477598
 30
0.0
 10
827.191894324452
 20
608.9609373477598
 30
0.0
 10
826.5405271371149
 20
609.0742185977315
 30
0.0
 10
826.0151365122462
 20
609.3007810976748
 30
0.0
 10
825.4897458873776
 20
609.5273435976181
 30
0.0
 10
825.0776365124806
 20
609.868163910033
 30
0.0
 10
824.7788083875553
 20
610.3232420349192
 30
0.0
 10
824.47998026263
 20
610.7783201598054
 30
0.0
 10
824.3227537001693
 20
611.2929685971767
 30
0.0
 10
824.3071287001732
 20
611.8671873470332
 30
0.0
  0
HATCH
  5
7F
330
6D
100
AcDbEntity
  8
0
 62
   240
420
 15539236
100
AcDbHatch
 10
0.0
 20
0.0
 30
0.0
210
0.0
220
0.0
230
1.0
  2
SOLID
 70
     1
 71
     0
 91
        1
 92
        1
 93
        1
 72
     4
 94
        3
 73
     0
 74
     1
 95
      110
 96
      106
 40
0.0
 40
0.0
 40
0.0
 40
0.0
 40
1.0
 40
1.0
 40
1.0
 40
2.0
 40
2.0
 40
2.0
 40
3.0
 40
3.0
 40
3.0
 40
4.0
 40
4.0
 40
4.0
 40
5.0
 40
5.0
 40
5.0
 40
6.0
 40
6.0
 40
6.0
 40
7.0
 40
7.0
 40
7.0
 40
8.0
 40
8.0
 40
8.0
 40
9.0
 40
9.0
 40
9.0
 40
10.0
 40
10.0
 40
10.0
 40
11.0
 40
11.0
 40
11.0
 40
12.0
 40
12.0
 40
12.0
 40
13.0
 40
13.0
 40
13.0
 40
14.0
 40
14.0
 40
14.0
 40
15.0
 40
15.0
 40
15.0
 40
16.0
 40
16.0
 40
16.0
 40
17.0
 40
17.0
 40
17.0
 40
18.0
 40
18.0
 40
18.0
 40
19.0
 40
19.0
 40
19.0
 40
20.0
 40
20.0
 40
20.0
 40
21.0
 40
21.0
 40
21.0
 40
22.0
 40
22.0
 40
22.0
 40
23.0
 40
23.0
 40
23.0
 40
24.0
 40
24.0
 40
24.0
 40
25.0
 40
25.0
 40
25.0
 40
26.0
 40
26.0
 40
26.0
 40
27.0
 40
27.0
 40
27.0
 40
28.0
 40
28.0
 40
28.0
 40
29.0
 40
29.0
 40
29.0
 40
30.0
 40
30.0
 40
30.0
 40
31.0
 40
31.0
 40
31.0
 40
32.0
 40
32.0
 40
32.0
 40
33.0
 40
33.0
 40
33.0
 40
34.0
 40
34.0
 40
34.0
 40
35.0
 40
35.0
 40
35.0
 40
35.0
 10
824.3071287001732
 20
611.8671873470332
 10
824.3071287001732
 20
611.8671873470332
 10
825.3793943249051
 20
611.9609373470098
 10
825.3793943249051
 20
611.9609373470098
 10
825.4301755748925
 20
611.5312498471171
 10
825.5483396373629
 20
611.1787107847053
 10
825.7338865123165
 20
610.9033201597741
 10
825.9194333872701
 20
610.627929534843
 10
826.2075193246981
 20
610.4052732848986
 10
826.5981443246004
 20
610.2353514099411
 10
826.9887693245028
 20
610.0654295349837
 10
827.4282224493929
 20
609.9804685975049
 10
827.9165036992708
 20
609.9804685975049
 10
828.3500974491625
 20
609.9804685975049
 10
828.7329099490668
 20
610.0449217224888
 10
829.0649411989838
 20
610.1738279724565
 10
829.3969724489008
 20
610.3027342224243
 10
829.6440427613389
 20
610.4794920348801
 10
829.8061521362985
 20
610.7041014098239
 10
829.9682615112579
 20
610.9287107847678
 10
830.0493161987376
 20
611.1738279722065
 10
830.0493161987376
 20
611.4394529721401
 10
830.0493161987376
 20
611.7089842220728
 10
829.9711911987572
 20
611.9443357845139
 10
829.8149411987962
 20
612.1455076594636
 10
829.6586911988353
 20
612.3466795344133
 10
829.4008786988998
 20
612.5156248468711
 10
829.0415036989896
 20
612.6523435968369
 10
828.8110349490472
 20
612.7421873468145
 10
828.3012693241747
 20
612.8818357842795
 10
827.5122068243719
 20
613.0712889092322
 10
826.7231443245691
 20
613.2607420341848
 10
826.1704099497074
 20
613.4394529716401
 10
825.8540036997865
 20
613.6074217215981
 10
825.4438474498891
 20
613.8222654715444
 10
825.1381833874655
 20
614.0888670339777
 10
824.9370115125157
 20
614.4072264088982
 10
824.7358396375661
 20
614.7255857838186
 10
824.6352537000912
 20
615.0820310962295
 10
824.6352537000912
 20
615.4765623461309
 10
824.6352537000912
 20
615.9101560960224
 10
824.7583005750604
 20
616.3154295334211
 10
825.0043943249989
 20
616.6923826583269
 10
825.2504880749374
 20
617.0693357832326
 10
825.6098630748476
 20
617.3554685956611
 10
826.0825193247293
 20
617.5507810956123
 10
826.5551755746112
 20
617.7460935955635
 10
827.0805661994798
 20
617.843749845539
 10
827.6586911993353
 20
617.843749845539
 10
828.2954099491761
 20
617.843749845539
 10
828.8569333865357
 20
617.7412107830647
 10
829.3432615114142
 20
617.536132658116
 10
829.8295896362926
 20
617.3310545331673
 10
830.2036130736991
 20
617.0292967207426
 10
830.4653318236336
 20
616.6308592208422
 10
830.7270505735682
 20
616.2324217209418
 10
830.8676755735331
 20
615.7812498460547
 10
830.8872068235282
 20
615.2773435961807
 10
830.8872068235282
 20
615.2773435961807
 10
829.7973630738006
 20
615.1953123462011
 10
829.7973630738006
 20
615.1953123462011
 10
829.7387693238153
 20
615.7382810960654
 10
829.5405271363649
 20
616.1484373459629
 10
829.2026365114493
 20
616.4257810958935
 10
828.8647458865338
 20
616.7031248458242
 10
828.3657224491585
 20
616.8417967207895
 10
827.7055661993236
 20
616.8417967207895
 10
827.0180661994955
 20
616.8417967207895
 10
826.5170896371208
 20
616.715820158321
 10
826.2026365121993
 20
616.4638670333841
 10
825.888183387278
 20
616.2119139084471
 10
825.7309568248172
 20
615.9082029710229
 10
825.7309568248172
 20
615.5527342211118
 10
825.7309568248172
 20
615.244140471189
 10
825.8422849497894
 20
614.9902342212524
 10
826.0649411997338
 20
614.7910154713022
 10
826.2836911996791
 20
614.591796721352
 10
826.8549802620363
 20
614.387695158903
 10
827.7788083868053
 20
614.1787107839554
 10
828.7026365115743
 20
613.9697264090075
 10
829.3364255739159
 20
613.7871092215532
 10
829.68017557383
 20
613.6308592215922
 10
830.1801755737049
 20
613.4003904716499
 10
830.5493161986127
 20
613.1083982842229
 10
830.7875974485531
 20
612.7548826593113
 10
831.0258786984936
 20
612.4013670343996
 10
831.1450193234638
 20
611.9941404720015
 10
831.1450193234638
 20
611.5332029721167
 10
831.1450193234638
 20
611.0761717222309
 10
831.0141599484964
 20
610.6455076598386
 10
830.7524411985619
 20
610.2412107849397
 10
830.4907224486273
 20
609.8369139100407
 10
830.1147458862213
 20
609.5224607851194
 10
829.6245115113438
 20
609.2978514101756
 10
829.1342771364664
 20
609.0732420352317
 10
828.5825193241044
 20
608.9609373477598
 10
827.9692380742576
 20
608.9609373477598
 10
827.191894324452
 20
608.9609373477598
 10
826.5405271371149
 20
609.0742185977315
 10
826.0151365122462
 20
609.3007810976748
 10
825.4897458873776
 20
609.5273435976181
 10
825.0776365124806
 20
609.868163910033
 10
824.7788083875553
 20
610.3232420349192
 10
824.47998026263
 20
610.7783201598054
 10
824.3227537001693
 20
611.2929685971767
 10
824.3071287001732
 20
611.8671873470332
 97
        0
 97
        0
 75
     2
 76
     1
 98
        0
  0
SPLINE
  5
80
330
6D
100
AcDbEntity
  8
0
 62
   240
420
 15539236
370
    35
100
AcDbSpline
210
0.0
220
0.0
230
1.0
 70
    11
 71
     3
 72
    65
 73
    61
 74
     0
 42
0.0000000001
 43
0.0000000001
 12
1.0
 22
0.0
 32
0.0
 13
1.0
 23
0.0
 33
0.0
 40
0.0
 40
0.0
 40
0.0
 40
0.0
 40
1.0
 40
1.0
 40
1.0
 40
2.0
 40
2.0
 40
2.0
 40
3.0
 40
3.0
 40
3.0
 40
4.0
 40
4.0
 40
4.0
 40
5.0
 40
5.0
 40
5.0
 40
6.0
 40
6.0
 40
6.0
 40
7.0
 40
7.0
 40
7.0
 40
8.0
 40
8.0
 40
8.0
 40
9.0
 40
9.0
 40
9.0
 40
10.0
 40
10.0
 40
10.0
 40
11.0
 40
11.0
 40
11.0
 40
12.0
 40
12.0
 40
12.0
 40
13.0
 40
13.0
 40
13.0
 40
14.0
 40
14.0
 40
14.0
 40
15.0
 40
15.0
 40
15.0
 40
16.0
 40
16.0
 40
16.0
 40
17.0
 40
17.0
 40
17.0
 40
18.0
 40
18.0
 40
18.0
 40
19.0
 40
19.0
 40
19.0
 40
20.0
 40
20.0
 40
20.0
 40
20.0
 10
834.8657224475336
 20
610.0507810974873
 30
0.0
 10
834.8657224475336
 20
610.0507810974873
 30
0.0
 10
835.0180661974955
 20
609.1191404727202
 30
0.0
 10
835.0180661974955
 20
609.1191404727202
 30
0.0
 10
834.7211911975697
 20
609.0566404727358
 30
0.0
 10
834.4555661976361
 20
609.0253904727437
 30
0.0
 10
834.2211911976947
 20
609.0253904727437
 30
0.0
 10
833.8383786977904
 20
609.0253904727437
 30
0.0
 10
833.5415036978646
 20
609.0859373477285
 30
0.0
 10
833.3305661979174
 20
609.2070310976982
 30
0.0
 10
833.11962869797
 20
609.3281248476679
 30
0.0
 10
832.9711911980072
 20
609.4873045351281
 30
0.0
 10
832.8852536980287
 20
609.6845701600788
 30
0.0
 10
832.7993161980502
 20
609.8818357850296
 30
0.0
 10
832.7563474480609
 20
610.2968748474258
 30
0.0
 10
832.7563474480609
 20
610.9296873472675
 30
0.0
 10
832.7563474480609
 20
610.9296873472675
 30
0.0
 10
832.7563474480609
 20
614.5097654713726
 30
0.0
 10
832.7563474480609
 20
614.5097654713726
 30
0.0
 10
832.7563474480609
 20
614.5097654713726
 30
0.0
 10
831.9829099482542
 20
614.5097654713726
 30
0.0
 10
831.9829099482542
 20
614.5097654713726
 30
0.0
 10
831.9829099482542
 20
614.5097654713726
 30
0.0
 10
831.9829099482542
 20
615.3300779711675
 30
0.0
 10
831.9829099482542
 20
615.3300779711675
 30
0.0
 10
831.9829099482542
 20
615.3300779711675
 30
0.0
 10
832.7563474480609
 20
615.3300779711675
 30
0.0
 10
832.7563474480609
 20
615.3300779711675
 30
0.0
 10
832.7563474480609
 20
615.3300779711675
 30
0.0
 10
832.7563474480609
 20
616.8710935957822
 30
0.0
 10
832.7563474480609
 20
616.8710935957822
 30
0.0
 10
832.7563474480609
 20
616.8710935957822
 30
0.0
 10
833.8051755727987
 20
617.503906095624
 30
0.0
 10
833.8051755727987
 20
617.503906095624
 30
0.0
 10
833.8051755727987
 20
617.503906095624
 30
0.0
 10
833.8051755727987
 20
615.3300779711675
 30
0.0
 10
833.8051755727987
 20
615.3300779711675
 30
0.0
 10
833.8051755727987
 20
615.3300779711675
 30
0.0
 10
834.8657224475336
 20
615.3300779711675
 30
0.0
 10
834.8657224475336
 20
615.3300779711675
 30
0.0
 10
834.8657224475336
 20
615.3300779711675
 30
0.0
 10
834.8657224475336
 20
614.5097654713726
 30
0.0
 10
834.8657224475336
 20
614.5097654713726
 30
0.0
 10
834.8657224475336
 20
614.5097654713726
 30
0.0
 10
833.8051755727987
 20
614.5097654713726
 30
0.0
 10
833.8051755727987
 20
614.5097654713726
 30
0.0
 10
833.8051755727987
 20
614.5097654713726
 30
0.0
 10
833.8051755727987
 20
610.8710935972822
 30
0.0
 10
833.8051755727987
 20
610.8710935972822
 30
0.0
 10
833.8051755727987
 20
610.5703123473575
 30
0.0
 10
833.823730260294
 20
610.3769529724058
 30
0.0
 10
833.8608396352847
 20
610.2910154724273
 30
0.0
 10
833.8979490102755
 20
610.2050779724487
 30
0.0
 10
833.9584958852604
 20
610.1367185974658
 30
0.0
 10
834.0424802602394
 20
610.0859373474785
 30
0.0
 10
834.1264646352183
 20
610.0351560974912
 30
0.0
 10
834.2465818226883
 20
610.0097654724975
 30
0.0
 10
834.4028318226493
 20
610.0097654724975
 30
0.0
 10
834.52001932262
 20
610.0097654724975
 30
0.0
 10
834.6743161975814
 20
610.0234373474941
 30
0.0
 10
834.8657224475336
 20
610.0507810974873
 30
0.0
  0
HATCH
  5
81
330
6D
100
AcDbEntity
  8
0
 62
   240
420
 15539236
100
AcDbHatch
 10
0.0
 20
0.0
 30
0.0
210
0.0
220
0.0
230
1.0
  2
SOLID
 70
     1
 71
     0
 91
        1
 92
        1
 93
        1
 72
     4
 94
        3
 73
     0
 74
     1
 95
       65
 96
       61
 40
0.0
 40
0.0
 40
0.0
 40
0.0
 40
1.0
 40
1.0
 40
1.0
 40
2.0
 40
2.0
 40
2.0
 40
3.0
 40
3.0
 40
3.0
 40
4.0
 40
4.0
 40
4.0
 40
5.0
 40
5.0
 40
5.0
 40
6.0
 40
6.0
 40
6.0
 40
7.0
 40
7.0
 40
7.0
 40
8.0
 40
8.0
 40
8.0
 40
9.0
 40
9.0
 40
9.0
 40
10.0
 40
10.0
 40
10.0
 40
11.0
 40
11.0
 40
11.0
 40
12.0
 40
12.0
 40
12.0
 40
13.0
 40
13.0
 40
13.0
 40
14.0
 40
14.0
 40
14.0
 40
15.0
 40
15.0
 40
15.0
 40
16.0
 40
16.0
 40
16.0
 40
17.0
 40
17.0
 40
17.0
 40
18.0
 40
18.0
 40
18.0
 40
19.0
 40
19.0
 40
19.0
 40
20.0
 40
20.0
 40
20.0
 40
20.0
 10
834.8657224475336
 20
610.0507810974873
 10
834.8657224475336
 20
610.0507810974873
 10
835.0180661974955
 20
609.1191404727202
 10
835.0180661974955
 20
609.1191404727202
 10
834.7211911975697
 20
609.0566404727358
 10
834.4555661976361
 20
609.0253904727437
 10
834.2211911976947
 20
609.0253904727437
 10
833.8383786977904
 20
609.0253904727437
 10
833.5415036978646
 20
609.0859373477285
 10
833.3305661979174
 20
609.2070310976982
 10
833.11962869797
 20
609.3281248476679
 10
832.9711911980072
 20
609.4873045351281
 10
832.8852536980287
 20
609.6845701600788
 10
832.7993161980502
 20
609.8818357850296
 10
832.7563474480609
 20
610.2968748474258
 10
832.7563474480609
 20
610.9296873472675
 10
832.7563474480609
 20
610.9296873472675
 10
832.7563474480609
 20
614.5097654713726
 10
832.7563474480609
 20
614.5097654713726
 10
832.7563474480609
 20
614.5097654713726
 10
831.9829099482542
 20
614.5097654713726
 10
831.9829099482542
 20
614.5097654713726
 10
831.9829099482542
 20
614.5097654713726
 10
831.9829099482542
 20
615.3300779711675
 10
831.9829099482542
 20
615.3300779711675
 10
831.9829099482542
 20
615.3300779711675
 10
832.7563474480609
 20
615.3300779711675
 10
832.7563474480609
 20
615.3300779711675
 10
832.7563474480609
 20
615.3300779711675
 10
832.7563474480609
 20
616.8710935957822
 10
832.7563474480609
 20
616.8710935957822
 10
832.7563474480609
 20
616.8710935957822
 10
833.8051755727987
 20
617.503906095624
 10
833.8051755727987
 20
617.503906095624
 10
833.8051755727987
 20
617.503906095624
 10
833.8051755727987
 20
615.3300779711675
 10
833.8051755727987
 20
615.3300779711675
 10
833.8051755727987
 20
615.3300779711675
 10
834.8657224475336
 20
615.3300779711675
 10
834.8657224475336
 20
615.3300779711675
 10
834.8657224475336
 20
615.3300779711675
 10
834.8657224475336
 20
614.5097654713726
 10
834.8657224475336
 20
614.5097654713726
 10
834.8657224475336
 20
614.5097654713726
 10
833.8051755727987
 20
614.5097654713726
 10
833.8051755727987
 20
614.5097654713726
 10
833.8051755727987
 20
614.5097654713726
 10
833.8051755727987
 20
610.8710935972822
 10
833.8051755727987
 20
610.8710935972822
 10
833.8051755727987
 20
610.5703123473575
 10
833.823730260294
 20
610.3769529724058
 10
833.8608396352847
 20
610.2910154724273
 10
833.8979490102755
 20
610.2050779724487
 10
833.9584958852604
 20
610.1367185974658
 10
834.0424802602394
 20
610.0859373474785
 10
834.1264646352183
 20
610.0351560974912
 10
834.2465818226883
 20
610.0097654724975
 10
834.4028318226493
 20
610.0097654724975
 10
834.52001932262
 20
610.0097654724975
 10
834.6743161975814
 20
610.0234373474941
 10
834.8657224475336
 20
610.0507810974873
 97
        0
 97
        0
 75
     2
 76
     1
 98
        0
  0
SPLINE
  5
82
330
6D
100
AcDbEntity
  8
0
 62
   240
420
 15539236
370
    35
100
AcDbSpline
210
0.0
220
0.0
230
1.0
 70
    11
 71
     3
 72
    50
 73
    46
 74
     0
 42
0.0000000001
 43
0.0000000001
 12
1.0
 22
0.0
 32
0.0
 13
1.0
 23
0.0
 33
0.0
 40
0.0
 40
0.0
 40
0.0
 40
0.0
 40
1.0
 40
1.0
 40
1.0
 40
2.0
 40
2.0
 40
2.0
 40
3.0
 40
3.0
 40
3.0
 40
4.0
 40
4.0
 40
4.0
 40
5.0
 40
5.0
 40
5.0
 40
6.0
 40
6.0
 40
6.0
 40
7.0
 40
7.0
 40
7.0
 40
8.0
 40
8.0
 40
8.0
 40
9.0
 40
9.0
 40
9.0
 40
10.0
 40
10.0
 40
10.0
 40
11.0
 40
11.0
 40
11.0
 40
12.0
 40
12.0
 40
12.0
 40
13.0
 40
13.0
 40
13.0
 40
14.0
 40
14.0
 40
14.0
 40
15.0
 40
15.0
 40
15.0
 40
15.0
 10
840.1567380712108
 20
611.1113279722222
 30
0.0
 10
840.1567380712108
 20
611.1113279722222
 30
0.0
 10
841.2465818209383
 20
610.9765623472558
 30
0.0
 10
841.2465818209383
 20
610.9765623472558
 30
0.0
 10
841.0747068209813
 20
610.339843597415
 30
0.0
 10
840.7563474460609
 20
609.8457029725386
 30
0.0
 10
840.2915036961771
 20
609.4941404726264
 30
0.0
 10
839.8266599462933
 20
609.1425779727143
 30
0.0
 10
839.2329099464417
 20
608.9667967227583
 30
0.0
 10
838.5102536966224
 20
608.9667967227583
 30
0.0
 10
837.60009744685
 20
608.9667967227583
 30
0.0
 10
836.8784177595304
 20
609.2470701601882
 30
0.0
 10
836.3452146346636
 20
609.8076170350481
 30
0.0
 10
835.812011509797
 20
610.3681639099079
 30
0.0
 10
835.5454099473636
 20
611.1542967222114
 30
0.0
 10
835.5454099473636
 20
612.1660154719585
 30
0.0
 10
835.5454099473636
 20
613.2128904716967
 30
0.0
 10
835.8149411972962
 20
614.0253904714937
 30
0.0
 10
836.3540036971615
 20
614.603515471349
 30
0.0
 10
836.8930661970268
 20
615.1816404712046
 30
0.0
 10
837.5922849468519
 20
615.4707029711323
 30
0.0
 10
838.451659946637
 20
615.4707029711323
 30
0.0
 10
839.283691196429
 20
615.4707029711323
 30
0.0
 10
839.9633786962592
 20
615.1874998462031
 30
0.0
 10
840.4907224461273
 20
614.6210935963447
 30
0.0
 10
841.0180661959955
 20
614.0546873464863
 30
0.0
 10
841.2817380709296
 20
613.2578123466856
 30
0.0
 10
841.2817380709296
 20
612.2304685969424
 30
0.0
 10
841.2817380709296
 20
612.167968596958
 30
0.0
 10
841.27978494593
 20
612.0742185969814
 30
0.0
 10
841.275878695931
 20
611.9492185970126
 30
0.0
 10
841.275878695931
 20
611.9492185970126
 30
0.0
 10
836.6352536970911
 20
611.9492185970126
 30
0.0
 10
836.6352536970911
 20
611.9492185970126
 30
0.0
 10
836.6743161970815
 20
611.2656248471836
 30
0.0
 10
836.867675572033
 20
610.7421873473145
 30
0.0
 10
837.2153318219462
 20
610.3789060974052
 30
0.0
 10
837.5629880718592
 20
610.015624847496
 30
0.0
 10
837.9965818217509
 20
609.8339842225415
 30
0.0
 10
838.5161130716209
 20
609.8339842225415
 30
0.0
 10
838.9028318215243
 20
609.8339842225415
 30
0.0
 10
839.2329099464417
 20
609.935546722516
 30
0.0
 10
839.5063474463734
 20
610.1386717224653
 30
0.0
 10
839.7797849463051
 20
610.3417967224145
 30
0.0
 10
839.9965818212509
 20
610.6660154723335
 30
0.0
 10
840.1567380712108
 20
611.1113279722222
 30
0.0
  0
SPLINE
  5
83
330
6D
100
AcDbEntity
  8
0
 62
   240
420
 15539236
370
    35
100
AcDbSpline
210
0.0
220
0.0
230
1.0
 70
    11
 71
     3
 72
    20
 73
    16
 74
     0
 42
0.0000000001
 43
0.0000000001
 12
1.0
 22
0.0
 32
0.0
 13
1.0
 23
0.0
 33
0.0
 40
0.0
 40
0.0
 40
0.0
 40
0.0
 40
1.0
 40
1.0
 40
1.0
 40
2.0
 40
2.0
 40
2.0
 40
3.0
 40
3.0
 40
3.0
 40
4.0
 40
4.0
 40
4.0
 40
5.0
 40
5.0
 40
5.0
 40
5.0
 10
836.6938474470766
 20
612.8164060967958
 30
0.0
 10
836.6938474470766
 20
612.8164060967958
 30
0.0
 10
840.1684568212079
 20
612.8164060967958
 30
0.0
 10
840.1684568212079
 20
612.8164060967958
 30
0.0
 10
840.1215818212196
 20
613.339843596665
 30
0.0
 10
839.9887693212528
 20
613.7324217215669
 30
0.0
 10
839.7700193213075
 20
613.9941404715014
 30
0.0
 10
839.4340818213915
 20
614.4003904713999
 30
0.0
 10
838.9985349465004
 20
614.603515471349
 30
0.0
 10
838.4633786966341
 20
614.603515471349
 30
0.0
 10
837.9790036967553
 20
614.603515471349
 30
0.0
 10
837.571777134357
 20
614.4414060963896
 30
0.0
 10
837.2416990094396
 20
614.1171873464707
 30
0.0
 10
836.9116208845221
 20
613.7929685965518
 30
0.0
 10
836.7290036970677
 20
613.3593748466601
 30
0.0
 10
836.6938474470766
 20
612.8164060967958
 30
0.0
  0
HATCH
  5
84
330
6D
100
AcDbEntity
  8
0
 62
   240
420
 15539236
100
AcDbHatch
 10
0.0
 20
0.0
 30
0.0
210
0.0
220
0.0
230
1.0
  2
SOLID
 70
     1
 71
     0
 91
        2
 92
        1
 93
        1
 72
     4
 94
        3
 73
     0
 74
     1
 95
       50
 96
       46
 40
0.0
 40
0.0
 40
0.0
 40
0.0
 40
1.0
 40
1.0
 40
1.0
 40
2.0
 40
2.0
 40
2.0
 40
3.0
 40
3.0
 40
3.0
 40
4.0
 40
4.0
 40
4.0
 40
5.0
 40
5.0
 40
5.0
 40
6.0
 40
6.0
 40
6.0
 40
7.0
 40
7.0
 40
7.0
 40
8.0
 40
8.0
 40
8.0
 40
9.0
 40
9.0
 40
9.0
 40
10.0
 40
10.0
 40
10.0
 40
11.0
 40
11.0
 40
11.0
 40
12.0
 40
12.0
 40
12.0
 40
13.0
 40
13.0
 40
13.0
 40
14.0
 40
14.0
 40
14.0
 40
15.0
 40
15.0
 40
15.0
 40
15.0
 10
840.1567380712108
 20
611.1113279722222
 10
840.1567380712108
 20
611.1113279722222
 10
841.2465818209383
 20
610.9765623472558
 10
841.2465818209383
 20
610.9765623472558
 10
841.0747068209813
 20
610.339843597415
 10
840.7563474460609
 20
609.8457029725386
 10
840.2915036961771
 20
609.4941404726264
 10
839.8266599462933
 20
609.1425779727143
 10
839.2329099464417
 20
608.9667967227583
 10
838.5102536966224
 20
608.9667967227583
 10
837.60009744685
 20
608.9667967227583
 10
836.8784177595304
 20
609.2470701601882
 10
836.3452146346636
 20
609.8076170350481
 10
835.812011509797
 20
610.3681639099079
 10
835.5454099473636
 20
611.1542967222114
 10
835.5454099473636
 20
612.1660154719585
 10
835.5454099473636
 20
613.2128904716967
 10
835.8149411972962
 20
614.0253904714937
 10
836.3540036971615
 20
614.603515471349
 10
836.8930661970268
 20
615.1816404712046
 10
837.5922849468519
 20
615.4707029711323
 10
838.451659946637
 20
615.4707029711323
 10
839.283691196429
 20
615.4707029711323
 10
839.9633786962592
 20
615.1874998462031
 10
840.4907224461273
 20
614.6210935963447
 10
841.0180661959955
 20
614.0546873464863
 10
841.2817380709296
 20
613.2578123466856
 10
841.2817380709296
 20
612.2304685969424
 10
841.2817380709296
 20
612.167968596958
 10
841.27978494593
 20
612.0742185969814
 10
841.275878695931
 20
611.9492185970126
 10
841.275878695931
 20
611.9492185970126
 10
836.6352536970911
 20
611.9492185970126
 10
836.6352536970911
 20
611.9492185970126
 10
836.6743161970815
 20
611.2656248471836
 10
836.867675572033
 20
610.7421873473145
 10
837.2153318219462
 20
610.3789060974052
 10
837.5629880718592
 20
610.015624847496
 10
837.9965818217509
 20
609.8339842225415
 10
838.5161130716209
 20
609.8339842225415
 10
838.9028318215243
 20
609.8339842225415
 10
839.2329099464417
 20
609.935546722516
 10
839.5063474463734
 20
610.1386717224653
 10
839.7797849463051
 20
610.3417967224145
 10
839.9965818212509
 20
610.6660154723335
 10
840.1567380712108
 20
611.1113279722222
 97
        0
 97
        0
 92
        1
 93
        1
 72
     4
 94
        3
 73
     0
 74
     1
 95
       20
 96
       16
 40
0.0
 40
0.0
 40
0.0
 40
0.0
 40
1.0
 40
1.0
 40
1.0
 40
2.0
 40
2.0
 40
2.0
 40
3.0
 40
3.0
 40
3.0
 40
4.0
 40
4.0
 40
4.0
 40
5.0
 40
5.0
 40
5.0
 40
5.0
 10
836.6938474470766
 20
612.8164060967958
 10
836.6938474470766
 20
612.8164060967958
 10
840.1684568212079
 20
612.8164060967958
 10
840.1684568212079
 20
612.8164060967958
 10
840.1215818212196
 20
613.339843596665
 10
839.9887693212528
 20
613.7324217215669
 10
839.7700193213075
 20
613.9941404715014
 10
839.4340818213915
 20
614.4003904713999
 10
838.9985349465004
 20
614.603515471349
 10
838.4633786966341
 20
614.603515471349
 10
837.9790036967553
 20
614.603515471349
 10
837.571777134357
 20
614.4414060963896
 10
837.2416990094396
 20
614.1171873464707
 10
836.9116208845221
 20
613.7929685965518
 10
836.7290036970677
 20
613.3593748466601
 10
836.6938474470766
 20
612.8164060967958
 97
        0
 97
        0
 75
     2
 76
     1
 98
        0
  0
SPLINE
  5
85
330
6D
100
AcDbEntity
  8
0
 62
   240
420
 15539236
370
    35
100
AcDbSpline
210
0.0
220
0.0
230
1.0
 70
    11
 71
     3
 72
    50
 73
    46
 74
     0
 42
0.0000000001
 43
0.0000000001
 12
1.0
 22
0.0
 32
0.0
 13
1.0
 23
0.0
 33
0.0
 40
0.0
 40
0.0
 40
0.0
 40
0.0
 40
1.0
 40
1.0
 40
1.0
 40
2.0
 40
2.0
 40
2.0
 40
3.0
 40
3.0
 40
3.0
 40
4.0
 40
4.0
 40
4.0
 40
5.0
 40
5.0
 40
5.0
 40
6.0
 40
6.0
 40
6.0
 40
7.0
 40
7.0
 40
7.0
 40
8.0
 40
8.0
 40
8.0
 40
9.0
 40
9.0
 40
9.0
 40
10.0
 40
10.0
 40
10.0
 40
11.0
 40
11.0
 40
11.0
 40
12.0
 40
12.0
 40
12.0
 40
13.0
 40
13.0
 40
13.0
 40
14.0
 40
14.0
 40
14.0
 40
15.0
 40
15.0
 40
15.0
 40
15.0
 10
842.5708005706073
 20
606.7226560983194
 30
0.0
 10
842.5708005706073
 20
606.7226560983194
 30
0.0
 10
842.5708005706073
 20
615.3300779711675
 30
0.0
 10
842.5708005706073
 20
615.3300779711675
 30
0.0
 10
842.5708005706073
 20
615.3300779711675
 30
0.0
 10
843.531738070367
 20
615.3300779711675
 30
0.0
 10
843.531738070367
 20
615.3300779711675
 30
0.0
 10
843.531738070367
 20
615.3300779711675
 30
0.0
 10
843.531738070367
 20
614.5214842213696
 30
0.0
 10
843.531738070367
 20
614.5214842213696
 30
0.0
 10
843.7583005703104
 20
614.8378904712905
 30
0.0
 10
844.0141599452464
 20
615.0751951587312
 30
0.0
 10
844.2993161951752
 20
615.2333982836916
 30
0.0
 10
844.5844724451039
 20
615.391601408652
 30
0.0
 10
844.9301755700175
 20
615.4707029711323
 30
0.0
 10
845.3364255699158
 20
615.4707029711323
 30
0.0
 10
845.867675569783
 20
615.4707029711323
 30
0.0
 10
846.3364255696658
 20
615.3339842211665
 30
0.0
 10
846.7426755695643
 20
615.0605467212348
 30
0.0
 10
847.1489255694628
 20
614.7871092213032
 30
0.0
 10
847.455566194386
 20
614.4013670338996
 30
0.0
 10
847.6625974443343
 20
613.9033201590241
 30
0.0
 10
847.8696286942826
 20
613.4052732841486
 30
0.0
 10
847.9731443192567
 20
612.8593748467852
 30
0.0
 10
847.9731443192567
 20
612.2656248469336
 30
0.0
 10
847.9731443192567
 20
611.6289060970928
 30
0.0
 10
847.8588865067852
 20
611.055663909736
 30
0.0
 10
847.6303708818424
 20
610.5458982848635
 30
0.0
 10
847.4018552568995
 20
610.0361326599909
 30
0.0
 10
847.0698240069826
 20
609.6455076600886
 30
0.0
 10
846.6342771320914
 20
609.3740232851565
 30
0.0
 10
846.1987302572003
 20
609.1025389102243
 30
0.0
 10
845.7407224448148
 20
608.9667967227583
 30
0.0
 10
845.2602536949349
 20
608.9667967227583
 30
0.0
 10
844.9086911950228
 20
608.9667967227583
 30
0.0
 10
844.5932615076017
 20
609.0410154727398
 30
0.0
 10
844.3139646326715
 20
609.1894529727026
 30
0.0
 10
844.0346677577413
 20
609.3378904726655
 30
0.0
 10
843.8051755702987
 20
609.5253904726186
 30
0.0
 10
843.6254880703436
 20
609.751952972562
 30
0.0
 10
843.6254880703436
 20
609.751952972562
 30
0.0
 10
843.6254880703436
 20
606.7226560983194
 30
0.0
 10
843.6254880703436
 20
606.7226560983194
 30
0.0
 10
843.6254880703436
 20
606.7226560983194
 30
0.0
 10
842.5708005706073
 20
606.7226560983194
 30
0.0
 10
842.5708005706073
 20
606.7226560983194
 30
0.0
  0
SPLINE
  5
86
330
6D
100
AcDbEntity
  8
0
 62
   240
420
 15539236
370
    35
100
AcDbSpline
210
0.0
220
0.0
230
1.0
 70
    11
 71
     3
 72
    29
 73
    25
 74
     0
 42
0.0000000001
 43
0.0000000001
 12
1.0
 22
0.0
 32
0.0
 13
1.0
 23
0.0
 33
0.0
 40
0.0
 40
0.0
 40
0.0
 40
0.0
 40
1.0
 40
1.0
 40
1.0
 40
2.0
 40
2.0
 40
2.0
 40
3.0
 40
3.0
 40
3.0
 40
4.0
 40
4.0
 40
4.0
 40
5.0
 40
5.0
 40
5.0
 40
6.0
 40
6.0
 40
6.0
 40
7.0
 40
7.0
 40
7.0
 40
8.0
 40
8.0
 40
8.0
 40
8.0
 10
843.5258786953685
 20
612.1835935969541
 30
0.0
 10
843.5258786953685
 20
611.3828123471543
 30
0.0
 10
843.687988070328
 20
610.7910154723022
 30
0.0
 10
844.0122068202469
 20
610.4082029723979
 30
0.0
 10
844.3364255701658
 20
610.0253904724937
 30
0.0
 10
844.7290036950677
 20
609.8339842225415
 30
0.0
 10
845.1899411949526
 20
609.8339842225415
 30
0.0
 10
845.6586911948353
 20
609.8339842225415
 30
0.0
 10
846.060058382235
 20
610.032226409992
 30
0.0
 10
846.3940427571515
 20
610.4287107848928
 30
0.0
 10
846.728027132068
 20
610.8251951597937
 30
0.0
 10
846.8950193195262
 20
611.4394529721401
 30
0.0
 10
846.8950193195262
 20
612.2714842219322
 30
0.0
 10
846.8950193195262
 20
613.0644529717339
 30
0.0
 10
846.731933382067
 20
613.6582029715854
 30
0.0
 10
846.4057615071486
 20
614.0527342214868
 30
0.0
 10
846.0795896322301
 20
614.4472654713882
 30
0.0
 10
845.6899411948275
 20
614.6445310963388
 30
0.0
 10
845.2368161949407
 20
614.6445310963388
 30
0.0
 10
844.787597445053
 20
614.6445310963388
 30
0.0
 10
844.3901365076524
 20
614.4345701588913
 30
0.0
 10
844.0444333827389
 20
614.0146482839963
 30
0.0
 10
843.6987302578253
 20
613.5947264091013
 30
0.0
 10
843.5258786953685
 20
612.9843748467539
 30
0.0
 10
843.5258786953685
 20
612.1835935969541
 30
0.0
  0
HATCH
  5
87
330
6D
100
AcDbEntity
  8
0
 62
   240
420
 15539236
100
AcDbHatch
 10
0.0
 20
0.0
 30
0.0
210
0.0
220
0.0
230
1.0
  2
SOLID
 70
     1
 71
     0
 91
        2
 92
        1
 93
        1
 72
     4
 94
        3
 73
     0
 74
     1
 95
       50
 96
       46
 40
0.0
 40
0.0
 40
0.0
 40
0.0
 40
1.0
 40
1.0
 40
1.0
 40
2.0
 40
2.0
 40
2.0
 40
3.0
 40
3.0
 40
3.0
 40
4.0
 40
4.0
 40
4.0
 40
5.0
 40
5.0
 40
5.0
 40
6.0
 40
6.0
 40
6.0
 40
7.0
 40
7.0
 40
7.0
 40
8.0
 40
8.0
 40
8.0
 40
9.0
 40
9.0
 40
9.0
 40
10.0
 40
10.0
 40
10.0
 40
11.0
 40
11.0
 40
11.0
 40
12.0
 40
12.0
 40
12.0
 40
13.0
 40
13.0
 40
13.0
 40
14.0
 40
14.0
 40
14.0
 40
15.0
 40
15.0
 40
15.0
 40
15.0
 10
842.5708005706073
 20
606.7226560983194
 10
842.5708005706073
 20
606.7226560983194
 10
842.5708005706073
 20
615.3300779711675
 10
842.5708005706073
 20
615.3300779711675
 10
842.5708005706073
 20
615.3300779711675
 10
843.531738070367
 20
615.3300779711675
 10
843.531738070367
 20
615.3300779711675
 10
843.531738070367
 20
615.3300779711675
 10
843.531738070367
 20
614.5214842213696
 10
843.531738070367
 20
614.5214842213696
 10
843.7583005703104
 20
614.8378904712905
 10
844.0141599452464
 20
615.0751951587312
 10
844.2993161951752
 20
615.2333982836916
 10
844.5844724451039
 20
615.391601408652
 10
844.9301755700175
 20
615.4707029711323
 10
845.3364255699158
 20
615.4707029711323
 10
845.867675569783
 20
615.4707029711323
 10
846.3364255696658
 20
615.3339842211665
 10
846.7426755695643
 20
615.0605467212348
 10
847.1489255694628
 20
614.7871092213032
 10
847.455566194386
 20
614.4013670338996
 10
847.6625974443343
 20
613.9033201590241
 10
847.8696286942826
 20
613.4052732841486
 10
847.9731443192567
 20
612.8593748467852
 10
847.9731443192567
 20
612.2656248469336
 10
847.9731443192567
 20
611.6289060970928
 10
847.8588865067852
 20
611.055663909736
 10
847.6303708818424
 20
610.5458982848635
 10
847.4018552568995
 20
610.0361326599909
 10
847.0698240069826
 20
609.6455076600886
 10
846.6342771320914
 20
609.3740232851565
 10
846.1987302572003
 20
609.1025389102243
 10
845.7407224448148
 20
608.9667967227583
 10
845.2602536949349
 20
608.9667967227583
 10
844.9086911950228
 20
608.9667967227583
 10
844.5932615076017
 20
609.0410154727398
 10
844.3139646326715
 20
609.1894529727026
 10
844.0346677577413
 20
609.3378904726655
 10
843.8051755702987
 20
609.5253904726186
 10
843.6254880703436
 20
609.751952972562
 10
843.6254880703436
 20
609.751952972562
 10
843.6254880703436
 20
606.7226560983194
 10
843.6254880703436
 20
606.7226560983194
 10
843.6254880703436
 20
606.7226560983194
 10
842.5708005706073
 20
606.7226560983194
 10
842.5708005706073
 20
606.7226560983194
 97
        0
 97
        0
 92
        1
 93
        1
 72
     4
 94
        3
 73
     0
 74
     1
 95
       29
 96
       25
 40
0.0
 40
0.0
 40
0.0
 40
0.0
 40
1.0
 40
1.0
 40
1.0
 40
2.0
 40
2.0
 40
2.0
 40
3.0
 40
3.0
 40
3.0
 40
4.0
 40
4.0
 40
4.0
 40
5.0
 40
5.0
 40
5.0
 40
6.0
 40
6.0
 40
6.0
 40
7.0
 40
7.0
 40
7.0
 40
8.0
 40
8.0
 40
8.0
 40
8.0
 10
843.5258786953685
 20
612.1835935969541
 10
843.5258786953685
 20
611.3828123471543
 10
843.687988070328
 20
610.7910154723022
 10
844.0122068202469
 20
610.4082029723979
 10
844.3364255701658
 20
610.0253904724937
 10
844.7290036950677
 20
609.8339842225415
 10
845.1899411949526
 20
609.8339842225415
 10
845.6586911948353
 20
609.8339842225415
 10
846.060058382235
 20
610.032226409992
 10
846.3940427571515
 20
610.4287107848928
 10
846.728027132068
 20
610.8251951597937
 10
846.8950193195262
 20
611.4394529721401
 10
846.8950193195262
 20
612.2714842219322
 10
846.8950193195262
 20
613.0644529717339
 10
846.731933382067
 20
613.6582029715854
 10
846.4057615071486
 20
614.0527342214868
 10
846.0795896322301
 20
614.4472654713882
 10
845.6899411948275
 20
614.6445310963388
 10
845.2368161949407
 20
614.6445310963388
 10
844.787597445053
 20
614.6445310963388
 10
844.3901365076524
 20
614.4345701588913
 10
844.0444333827389
 20
614.0146482839963
 10
843.6987302578253
 20
613.5947264091013
 10
843.5258786953685
 20
612.9843748467539
 10
843.5258786953685
 20
612.1835935969541
 97
        0
 97
        0
 75
     2
 76
     1
 98
        0
  0
SPLINE
  5
88
330
6D
100
AcDbEntity
  8
0
 62
   240
420
 15539236
370
    35
100
AcDbSpline
210
0.0
220
0.0
230
1.0
 70
    11
 71
     3
 72
    50
 73
    46
 74
     0
 42
0.0000000001
 43
0.0000000001
 12
1.0
 22
0.0
 32
0.0
 13
1.0
 23
0.0
 33
0.0
 40
0.0
 40
0.0
 40
0.0
 40
0.0
 40
1.0
 40
1.0
 40
1.0
 40
2.0
 40
2.0
 40
2.0
 40
3.0
 40
3.0
 40
3.0
 40
4.0
 40
4.0
 40
4.0
 40
5.0
 40
5.0
 40
5.0
 40
6.0
 40
6.0
 40
6.0
 40
7.0
 40
7.0
 40
7.0
 40
8.0
 40
8.0
 40
8.0
 40
9.0
 40
9.0
 40
9.0
 40
10.0
 40
10.0
 40
10.0
 40
11.0
 40
11.0
 40
11.0
 40
12.0
 40
12.0
 40
12.0
 40
13.0
 40
13.0
 40
13.0
 40
14.0
 40
14.0
 40
14.0
 40
15.0
 40
15.0
 40
15.0
 40
15.0
 10
849.2446286939388
 20
606.7226560983194
 30
0.0
 10
849.2446286939388
 20
606.7226560983194
 30
0.0
 10
849.2446286939388
 20
615.3300779711675
 30
0.0
 10
849.2446286939388
 20
615.3300779711675
 30
0.0
 10
849.2446286939388
 20
615.3300779711675
 30
0.0
 10
850.2055661936986
 20
615.3300779711675
 30
0.0
 10
850.2055661936986
 20
615.3300779711675
 30
0.0
 10
850.2055661936986
 20
615.3300779711675
 30
0.0
 10
850.2055661936986
 20
614.5214842213696
 30
0.0
 10
850.2055661936986
 20
614.5214842213696
 30
0.0
 10
850.432128693642
 20
614.8378904712905
 30
0.0
 10
850.687988068578
 20
615.0751951587312
 30
0.0
 10
850.9731443185067
 20
615.2333982836916
 30
0.0
 10
851.2583005684354
 20
615.391601408652
 30
0.0
 10
851.604003693349
 20
615.4707029711323
 30
0.0
 10
852.0102536932474
 20
615.4707029711323
 30
0.0
 10
852.5415036931146
 20
615.4707029711323
 30
0.0
 10
853.0102536929974
 20
615.3339842211665
 30
0.0
 10
853.4165036928958
 20
615.0605467212348
 30
0.0
 10
853.8227536927943
 20
614.7871092213032
 30
0.0
 10
854.1293943177176
 20
614.4013670338996
 30
0.0
 10
854.3364255676659
 20
613.9033201590241
 30
0.0
 10
854.5434568176141
 20
613.4052732841486
 30
0.0
 10
854.6469724425882
 20
612.8593748467852
 30
0.0
 10
854.6469724425882
 20
612.2656248469336
 30
0.0
 10
854.6469724425882
 20
611.6289060970928
 30
0.0
 10
854.5327146301169
 20
611.055663909736
 30
0.0
 10
854.3041990051739
 20
610.5458982848635
 30
0.0
 10
854.0756833802311
 20
610.0361326599909
 30
0.0
 10
853.7436521303141
 20
609.6455076600886
 30
0.0
 10
853.3081052554229
 20
609.3740232851565
 30
0.0
 10
852.8725583805318
 20
609.1025389102243
 30
0.0
 10
852.4145505681463
 20
608.9667967227583
 30
0.0
 10
851.9340818182665
 20
608.9667967227583
 30
0.0
 10
851.5825193183543
 20
608.9667967227583
 30
0.0
 10
851.2670896309332
 20
609.0410154727398
 30
0.0
 10
850.987792756003
 20
609.1894529727026
 30
0.0
 10
850.7084958810728
 20
609.3378904726655
 30
0.0
 10
850.4790036936303
 20
609.5253904726186
 30
0.0
 10
850.2993161936752
 20
609.751952972562
 30
0.0
 10
850.2993161936752
 20
609.751952972562
 30
0.0
 10
850.2993161936752
 20
606.7226560983194
 30
0.0
 10
850.2993161936752
 20
606.7226560983194
 30
0.0
 10
850.2993161936752
 20
606.7226560983194
 30
0.0
 10
849.2446286939388
 20
606.7226560983194
 30
0.0
 10
849.2446286939388
 20
606.7226560983194
 30
0.0
  0
SPLINE
  5
89
330
6D
100
AcDbEntity
  8
0
 62
   240
420
 15539236
370
    35
100
AcDbSpline
210
0.0
220
0.0
230
1.0
 70
    11
 71
     3
 72
    29
 73
    25
 74
     0
 42
0.0000000001
 43
0.0000000001
 12
1.0
 22
0.0
 32
0.0
 13
1.0
 23
0.0
 33
0.0
 40
0.0
 40
0.0
 40
0.0
 40
0.0
 40
1.0
 40
1.0
 40
1.0
 40
2.0
 40
2.0
 40
2.0
 40
3.0
 40
3.0
 40
3.0
 40
4.0
 40
4.0
 40
4.0
 40
5.0
 40
5.0
 40
5.0
 40
6.0
 40
6.0
 40
6.0
 40
7.0
 40
7.0
 40
7.0
 40
8.0
 40
8.0
 40
8.0
 40
8.0
 10
850.1997068187001
 20
612.1835935969541
 30
0.0
 10
850.1997068187001
 20
611.3828123471543
 30
0.0
 10
850.3618161936595
 20
610.7910154723022
 30
0.0
 10
850.6860349435784
 20
610.4082029723979
 30
0.0
 10
851.0102536934975
 20
610.0253904724937
 30
0.0
 10
851.4028318183992
 20
609.8339842225415
 30
0.0
 10
851.8637693182841
 20
609.8339842225415
 30
0.0
 10
852.3325193181669
 20
609.8339842225415
 30
0.0
 10
852.7338865055665
 20
610.032226409992
 30
0.0
 10
853.067870880483
 20
610.4287107848928
 30
0.0
 10
853.4018552553995
 20
610.8251951597937
 30
0.0
 10
853.5688474428578
 20
611.4394529721401
 30
0.0
 10
853.5688474428578
 20
612.2714842219322
 30
0.0
 10
853.5688474428578
 20
613.0644529717339
 30
0.0
 10
853.4057615053986
 20
613.6582029715854
 30
0.0
 10
853.0795896304801
 20
614.0527342214868
 30
0.0
 10
852.7534177555616
 20
614.4472654713882
 30
0.0
 10
852.363769318159
 20
614.6445310963388
 30
0.0
 10
851.9106443182724
 20
614.6445310963388
 30
0.0
 10
851.4614255683846
 20
614.6445310963388
 30
0.0
 10
851.063964630984
 20
614.4345701588913
 30
0.0
 10
850.7182615060705
 20
614.0146482839963
 30
0.0
 10
850.3725583811569
 20
613.5947264091013
 30
0.0
 10
850.1997068187001
 20
612.9843748467539
 30
0.0
 10
850.1997068187001
 20
612.1835935969541
 30
0.0
  0
HATCH
  5
8A
330
6D
100
AcDbEntity
  8
0
 62
   240
420
 15539236
100
AcDbHatch
 10
0.0
 20
0.0
 30
0.0
210
0.0
220
0.0
230
1.0
  2
SOLID
 70
     1
 71
     0
 91
        2
 92
        1
 93
        1
 72
     4
 94
        3
 73
     0
 74
     1
 95
       50
 96
       46
 40
0.0
 40
0.0
 40
0.0
 40
0.0
 40
1.0
 40
1.0
 40
1.0
 40
2.0
 40
2.0
 40
2.0
 40
3.0
 40
3.0
 40
3.0
 40
4.0
 40
4.0
 40
4.0
 40
5.0
 40
5.0
 40
5.0
 40
6.0
 40
6.0
 40
6.0
 40
7.0
 40
7.0
 40
7.0
 40
8.0
 40
8.0
 40
8.0
 40
9.0
 40
9.0
 40
9.0
 40
10.0
 40
10.0
 40
10.0
 40
11.0
 40
11.0
 40
11.0
 40
12.0
 40
12.0
 40
12.0
 40
13.0
 40
13.0
 40
13.0
 40
14.0
 40
14.0
 40
14.0
 40
15.0
 40
15.0
 40
15.0
 40
15.0
 10
849.2446286939388
 20
606.7226560983194
 10
849.2446286939388
 20
606.7226560983194
 10
849.2446286939388
 20
615.3300779711675
 10
849.2446286939388
 20
615.3300779711675
 10
849.2446286939388
 20
615.3300779711675
 10
850.2055661936986
 20
615.3300779711675
 10
850.2055661936986
 20
615.3300779711675
 10
850.2055661936986
 20
615.3300779711675
 10
850.2055661936986
 20
614.5214842213696
 10
850.2055661936986
 20
614.5214842213696
 10
850.432128693642
 20
614.8378904712905
 10
850.687988068578
 20
615.0751951587312
 10
850.9731443185067
 20
615.2333982836916
 10
851.2583005684354
 20
615.391601408652
 10
851.604003693349
 20
615.4707029711323
 10
852.0102536932474
 20
615.4707029711323
 10
852.5415036931146
 20
615.4707029711323
 10
853.0102536929974
 20
615.3339842211665
 10
853.4165036928958
 20
615.0605467212348
 10
853.8227536927943
 20
614.7871092213032
 10
854.1293943177176
 20
614.4013670338996
 10
854.3364255676659
 20
613.9033201590241
 10
854.5434568176141
 20
613.4052732841486
 10
854.6469724425882
 20
612.8593748467852
 10
854.6469724425882
 20
612.2656248469336
 10
854.6469724425882
 20
611.6289060970928
 10
854.5327146301169
 20
611.055663909736
 10
854.3041990051739
 20
610.5458982848635
 10
854.0756833802311
 20
610.0361326599909
 10
853.7436521303141
 20
609.6455076600886
 10
853.3081052554229
 20
609.3740232851565
 10
852.8725583805318
 20
609.1025389102243
 10
852.4145505681463
 20
608.9667967227583
 10
851.9340818182665
 20
608.9667967227583
 10
851.5825193183543
 20
608.9667967227583
 10
851.2670896309332
 20
609.0410154727398
 10
850.987792756003
 20
609.1894529727026
 10
850.7084958810728
 20
609.3378904726655
 10
850.4790036936303
 20
609.5253904726186
 10
850.2993161936752
 20
609.751952972562
 10
850.2993161936752
 20
609.751952972562
 10
850.2993161936752
 20
606.7226560983194
 10
850.2993161936752
 20
606.7226560983194
 10
850.2993161936752
 20
606.7226560983194
 10
849.2446286939388
 20
606.7226560983194
 10
849.2446286939388
 20
606.7226560983194
 97
        0
 97
        0
 92
        1
 93
        1
 72
     4
 94
        3
 73
     0
 74
     1
 95
       29
 96
       25
 40
0.0
 40
0.0
 40
0.0
 40
0.0
 40
1.0
 40
1.0
 40
1.0
 40
2.0
 40
2.0
 40
2.0
 40
3.0
 40
3.0
 40
3.0
 40
4.0
 40
4.0
 40
4.0
 40
5.0
 40
5.0
 40
5.0
 40
6.0
 40
6.0
 40
6.0
 40
7.0
 40
7.0
 40
7.0
 40
8.0
 40
8.0
 40
8.0
 40
8.0
 10
850.1997068187001
 20
612.1835935969541
 10
850.1997068187001
 20
611.3828123471543
 10
850.3618161936595
 20
610.7910154723022
 10
850.6860349435784
 20
610.4082029723979
 10
851.0102536934975
 20
610.0253904724937
 10
851.4028318183992
 20
609.8339842225415
 10
851.8637693182841
 20
609.8339842225415
 10
852.3325193181669
 20
609.8339842225415
 10
852.7338865055665
 20
610.032226409992
 10
853.067870880483
 20
610.4287107848928
 10
853.4018552553995
 20
610.8251951597937
 10
853.5688474428578
 20
611.4394529721401
 10
853.5688474428578
 20
612.2714842219322
 10
853.5688474428578
 20
613.0644529717339
 10
853.4057615053986
 20
613.6582029715854
 10
853.0795896304801
 20
614.0527342214868
 10
852.7534177555616
 20
614.4472654713882
 10
852.363769318159
 20
614.6445310963388
 10
851.9106443182724
 20
614.6445310963388
 10
851.4614255683846
 20
614.6445310963388
 10
851.063964630984
 20
614.4345701588913
 10
850.7182615060705
 20
614.0146482839963
 10
850.3725583811569
 20
613.5947264091013
 10
850.1997068187001
 20
612.9843748467539
 10
850.1997068187001
 20
612.1835935969541
 97
        0
 97
        0
 75
     2
 76
     1
 98
        0
  0
SPLINE
  5
8B
330
6D
100
AcDbEntity
  8
0
 62
   240
420
 15539236
370
    35
100
AcDbSpline
210
0.0
220
0.0
230
1.0
 70
    11
 71
     3
 72
    50
 73
    46
 74
     0
 42
0.0000000001
 43
0.0000000001
 12
1.0
 22
0.0
 32
0.0
 13
1.0
 23
0.0
 33
0.0
 40
0.0
 40
0.0
 40
0.0
 40
0.0
 40
1.0
 40
1.0
 40
1.0
 40
2.0
 40
2.0
 40
2.0
 40
3.0
 40
3.0
 40
3.0
 40
4.0
 40
4.0
 40
4.0
 40
5.0
 40
5.0
 40
5.0
 40
6.0
 40
6.0
 40
6.0
 40
7.0
 40
7.0
 40
7.0
 40
8.0
 40
8.0
 40
8.0
 40
9.0
 40
9.0
 40
9.0
 40
10.0
 40
10.0
 40
10.0
 40
11.0
 40
11.0
 40
11.0
 40
12.0
 40
12.0
 40
12.0
 40
13.0
 40
13.0
 40
13.0
 40
14.0
 40
14.0
 40
14.0
 40
15.0
 40
15.0
 40
15.0
 40
15.0
 10
860.1782224412054
 20
611.1113279722222
 30
0.0
 10
860.1782224412054
 20
611.1113279722222
 30
0.0
 10
861.2680661909329
 20
610.9765623472558
 30
0.0
 10
861.2680661909329
 20
610.9765623472558
 30
0.0
 10
861.0961911909759
 20
610.339843597415
 30
0.0
 10
860.7778318160555
 20
609.8457029725386
 30
0.0
 10
860.3129880661718
 20
609.4941404726264
 30
0.0
 10
859.848144316288
 20
609.1425779727143
 30
0.0
 10
859.2543943164363
 20
608.9667967227583
 30
0.0
 10
858.5317380666171
 20
608.9667967227583
 30
0.0
 10
857.6215818168446
 20
608.9667967227583
 30
0.0
 10
856.899902129525
 20
609.2470701601882
 30
0.0
 10
856.3666990046584
 20
609.8076170350481
 30
0.0
 10
855.8334958797916
 20
610.3681639099079
 30
0.0
 10
855.5668943173582
 20
611.1542967222114
 30
0.0
 10
855.5668943173582
 20
612.1660154719585
 30
0.0
 10
855.5668943173582
 20
613.2128904716967
 30
0.0
 10
855.8364255672909
 20
614.0253904714937
 30
0.0
 10
856.3754880671561
 20
614.603515471349
 30
0.0
 10
856.9145505670214
 20
615.1816404712046
 30
0.0
 10
857.6137693168465
 20
615.4707029711323
 30
0.0
 10
858.4731443166316
 20
615.4707029711323
 30
0.0
 10
859.3051755664237
 20
615.4707029711323
 30
0.0
 10
859.9848630662538
 20
615.1874998462031
 30
0.0
 10
860.5122068161219
 20
614.6210935963447
 30
0.0
 10
861.0395505659901
 20
614.0546873464863
 30
0.0
 10
861.3032224409242
 20
613.2578123466856
 30
0.0
 10
861.3032224409242
 20
612.2304685969424
 30
0.0
 10
861.3032224409242
 20
612.167968596958
 30
0.0
 10
861.3012693159246
 20
612.0742185969814
 30
0.0
 10
861.2973630659257
 20
611.9492185970126
 30
0.0
 10
861.2973630659257
 20
611.9492185970126
 30
0.0
 10
856.6567380670858
 20
611.9492185970126
 30
0.0
 10
856.6567380670858
 20
611.9492185970126
 30
0.0
 10
856.695800567076
 20
611.2656248471836
 30
0.0
 10
856.8891599420277
 20
610.7421873473145
 30
0.0
 10
857.2368161919408
 20
610.3789060974052
 30
0.0
 10
857.5844724418539
 20
610.015624847496
 30
0.0
 10
858.0180661917454
 20
609.8339842225415
 30
0.0
 10
858.5375974416156
 20
609.8339842225415
 30
0.0
 10
858.9243161915189
 20
609.8339842225415
 30
0.0
 10
859.2543943164363
 20
609.935546722516
 30
0.0
 10
859.527831816368
 20
610.1386717224653
 30
0.0
 10
859.8012693162997
 20
610.3417967224145
 30
0.0
 10
860.0180661912455
 20
610.6660154723335
 30
0.0
 10
860.1782224412054
 20
611.1113279722222
 30
0.0
  0
SPLINE
  5
8C
330
6D
100
AcDbEntity
  8
0
 62
   240
420
 15539236
370
    35
100
AcDbSpline
210
0.0
220
0.0
230
1.0
 70
    11
 71
     3
 72
    20
 73
    16
 74
     0
 42
0.0000000001
 43
0.0000000001
 12
1.0
 22
0.0
 32
0.0
 13
1.0
 23
0.0
 33
0.0
 40
0.0
 40
0.0
 40
0.0
 40
0.0
 40
1.0
 40
1.0
 40
1.0
 40
2.0
 40
2.0
 40
2.0
 40
3.0
 40
3.0
 40
3.0
 40
4.0
 40
4.0
 40
4.0
 40
5.0
 40
5.0
 40
5.0
 40
5.0
 10
856.7153318170712
 20
612.8164060967958
 30
0.0
 10
856.7153318170712
 20
612.8164060967958
 30
0.0
 10
860.1899411912025
 20
612.8164060967958
 30
0.0
 10
860.1899411912025
 20
612.8164060967958
 30
0.0
 10
860.1430661912142
 20
613.339843596665
 30
0.0
 10
860.0102536912474
 20
613.7324217215669
 30
0.0
 10
859.7915036913021
 20
613.9941404715014
 30
0.0
 10
859.4555661913861
 20
614.4003904713999
 30
0.0
 10
859.020019316495
 20
614.603515471349
 30
0.0
 10
858.4848630666288
 20
614.603515471349
 30
0.0
 10
858.0004880667499
 20
614.603515471349
 30
0.0
 10
857.5932615043516
 20
614.4414060963896
 30
0.0
 10
857.2631833794342
 20
614.1171873464707
 30
0.0
 10
856.9331052545167
 20
613.7929685965518
 30
0.0
 10
856.7504880670624
 20
613.3593748466601
 30
0.0
 10
856.7153318170712
 20
612.8164060967958
 30
0.0
  0
HATCH
  5
8D
330
6D
100
AcDbEntity
  8
0
 62
   240
420
 15539236
100
AcDbHatch
 10
0.0
 20
0.0
 30
0.0
210
0.0
220
0.0
230
1.0
  2
SOLID
 70
     1
 71
     0
 91
        2
 92
        1
 93
        1
 72
     4
 94
        3
 73
     0
 74
     1
 95
       50
 96
       46
 40
0.0
 40
0.0
 40
0.0
 40
0.0
 40
1.0
 40
1.0
 40
1.0
 40
2.0
 40
2.0
 40
2.0
 40
3.0
 40
3.0
 40
3.0
 40
4.0
 40
4.0
 40
4.0
 40
5.0
 40
5.0
 40
5.0
 40
6.0
 40
6.0
 40
6.0
 40
7.0
 40
7.0
 40
7.0
 40
8.0
 40
8.0
 40
8.0
 40
9.0
 40
9.0
 40
9.0
 40
10.0
 40
10.0
 40
10.0
 40
11.0
 40
11.0
 40
11.0
 40
12.0
 40
12.0
 40
12.0
 40
13.0
 40
13.0
 40
13.0
 40
14.0
 40
14.0
 40
14.0
 40
15.0
 40
15.0
 40
15.0
 40
15.0
 10
860.1782224412054
 20
611.1113279722222
 10
860.1782224412054
 20
611.1113279722222
 10
861.2680661909329
 20
610.9765623472558
 10
861.2680661909329
 20
610.9765623472558
 10
861.0961911909759
 20
610.339843597415
 10
860.7778318160555
 20
609.8457029725386
 10
860.3129880661718
 20
609.4941404726264
 10
859.848144316288
 20
609.1425779727143
 10
859.2543943164363
 20
608.9667967227583
 10
858.5317380666171
 20
608.9667967227583
 10
857.6215818168446
 20
608.9667967227583
 10
856.899902129525
 20
609.2470701601882
 10
856.3666990046584
 20
609.8076170350481
 10
855.8334958797916
 20
610.3681639099079
 10
855.5668943173582
 20
611.1542967222114
 10
855.5668943173582
 20
612.1660154719585
 10
855.5668943173582
 20
613.2128904716967
 10
855.8364255672909
 20
614.0253904714937
 10
856.3754880671561
 20
614.603515471349
 10
856.9145505670214
 20
615.1816404712046
 10
857.6137693168465
 20
615.4707029711323
 10
858.4731443166316
 20
615.4707029711323
 10
859.3051755664237
 20
615.4707029711323
 10
859.9848630662538
 20
615.1874998462031
 10
860.5122068161219
 20
614.6210935963447
 10
861.0395505659901
 20
614.0546873464863
 10
861.3032224409242
 20
613.2578123466856
 10
861.3032224409242
 20
612.2304685969424
 10
861.3032224409242
 20
612.167968596958
 10
861.3012693159246
 20
612.0742185969814
 10
861.2973630659257
 20
611.9492185970126
 10
861.2973630659257
 20
611.9492185970126
 10
856.6567380670858
 20
611.9492185970126
 10
856.6567380670858
 20
611.9492185970126
 10
856.695800567076
 20
611.2656248471836
 10
856.8891599420277
 20
610.7421873473145
 10
857.2368161919408
 20
610.3789060974052
 10
857.5844724418539
 20
610.015624847496
 10
858.0180661917454
 20
609.8339842225415
 10
858.5375974416156
 20
609.8339842225415
 10
858.9243161915189
 20
609.8339842225415
 10
859.2543943164363
 20
609.935546722516
 10
859.527831816368
 20
610.1386717224653
 10
859.8012693162997
 20
610.3417967224145
 10
860.0180661912455
 20
610.6660154723335
 10
860.1782224412054
 20
611.1113279722222
 97
        0
 97
        0
 92
        1
 93
        1
 72
     4
 94
        3
 73
     0
 74
     1
 95
       20
 96
       16
 40
0.0
 40
0.0
 40
0.0
 40
0.0
 40
1.0
 40
1.0
 40
1.0
 40
2.0
 40
2.0
 40
2.0
 40
3.0
 40
3.0
 40
3.0
 40
4.0
 40
4.0
 40
4.0
 40
5.0
 40
5.0
 40
5.0
 40
5.0
 10
856.7153318170712
 20
612.8164060967958
 10
856.7153318170712
 20
612.8164060967958
 10
860.1899411912025
 20
612.8164060967958
 10
860.1899411912025
 20
612.8164060967958
 10
860.1430661912142
 20
613.339843596665
 10
860.0102536912474
 20
613.7324217215669
 10
859.7915036913021
 20
613.9941404715014
 10
859.4555661913861
 20
614.4003904713999
 10
859.020019316495
 20
614.603515471349
 10
858.4848630666288
 20
614.603515471349
 10
858.0004880667499
 20
614.603515471349
 10
857.5932615043516
 20
614.4414060963896
 10
857.2631833794342
 20
614.1171873464707
 10
856.9331052545167
 20
613.7929685965518
 10
856.7504880670624
 20
613.3593748466601
 10
856.7153318170712
 20
612.8164060967958
 97
        0
 97
        0
 75
     2
 76
     1
 98
        0
  0
SPLINE
  5
8E
330
6D
100
AcDbEntity
  8
0
 62
   240
420
 15539236
370
    35
100
AcDbSpline
210
0.0
220
0.0
230
1.0
 70
    11
 71
     3
 72
    47
 73
    43
 74
     0
 42
0.0000000001
 43
0.0000000001
 12
1.0
 22
0.0
 32
0.0
 13
1.0
 23
0.0
 33
0.0
 40
0.0
 40
0.0
 40
0.0
 40
0.0
 40
1.0
 40
1.0
 40
1.0
 40
2.0
 40
2.0
 40
2.0
 40
3.0
 40
3.0
 40
3.0
 40
4.0
 40
4.0
 40
4.0
 40
5.0
 40
5.0
 40
5.0
 40
6.0
 40
6.0
 40
6.0
 40
7.0
 40
7.0
 40
7.0
 40
8.0
 40
8.0
 40
8.0
 40
9.0
 40
9.0
 40
9.0
 40
10.0
 40
10.0
 40
10.0
 40
11.0
 40
11.0
 40
11.0
 40
12.0
 40
12.0
 40
12.0
 40
13.0
 40
13.0
 40
13.0
 40
14.0
 40
14.0
 40
14.0
 40
14.0
 10
866.6293943145927
 20
609.1074217227232
 30
0.0
 10
866.6293943145927
 20
609.1074217227232
 30
0.0
 10
866.6293943145927
 20
609.8925779725269
 30
0.0
 10
866.6293943145927
 20
609.8925779725269
 30
0.0
 10
866.2348630646912
 20
609.2753904726811
 30
0.0
 10
865.6547849398363
 20
608.9667967227583
 30
0.0
 10
864.8891599400276
 20
608.9667967227583
 30
0.0
 10
864.3930661901517
 20
608.9667967227583
 30
0.0
 10
863.9370115027657
 20
609.1035154727241
 30
0.0
 10
863.5209958778697
 20
609.3769529726558
 30
0.0
 10
863.1049802529737
 20
609.6503904725874
 30
0.0
 10
862.7827146280544
 20
610.032226409992
 30
0.0
 10
862.5541990031114
 20
610.5224607848694
 30
0.0
 10
862.3256833781686
 20
611.0126951597468
 30
0.0
 10
862.2114255656971
 20
611.576171722106
 30
0.0
 10
862.2114255656971
 20
612.2128904719468
 30
0.0
 10
862.2114255656971
 20
612.8339842217915
 30
0.0
 10
862.3149411906712
 20
613.3974607841507
 30
0.0
 10
862.5219724406195
 20
613.9033201590241
 30
0.0
 10
862.7290036905678
 20
614.4091795338977
 30
0.0
 10
863.0395505654901
 20
614.7968748463007
 30
0.0
 10
863.4536130653865
 20
615.0664060962334
 30
0.0
 10
863.8676755652831
 20
615.335937346166
 30
0.0
 10
864.3305661901674
 20
615.4707029711323
 30
0.0
 10
864.8422849400395
 20
615.4707029711323
 30
0.0
 10
865.2172849399457
 20
615.4707029711323
 30
0.0
 10
865.5512693148621
 20
615.391601408652
 30
0.0
 10
865.8442380647889
 20
615.2333982836916
 30
0.0
 10
866.1372068147157
 20
615.0751951587312
 30
0.0
 10
866.3754880646561
 20
614.8691404712827
 30
0.0
 10
866.5590818146102
 20
614.6152342213462
 30
0.0
 10
866.5590818146102
 20
614.6152342213462
 30
0.0
 10
866.5590818146102
 20
617.6972654705756
 30
0.0
 10
866.5590818146102
 20
617.6972654705756
 30
0.0
 10
866.5590818146102
 20
617.6972654705756
 30
0.0
 10
867.607909939348
 20
617.6972654705756
 30
0.0
 10
867.607909939348
 20
617.6972654705756
 30
0.0
 10
867.607909939348
 20
617.6972654705756
 30
0.0
 10
867.607909939348
 20
609.1074217227232
 30
0.0
 10
867.607909939348
 20
609.1074217227232
 30
0.0
 10
867.607909939348
 20
609.1074217227232
 30
0.0
 10
866.6293943145927
 20
609.1074217227232
 30
0.0
 10
866.6293943145927
 20
609.1074217227232
 30
0.0
  0
SPLINE
  5
8F
330
6D
100
AcDbEntity
  8
0
 62
   240
420
 15539236
370
    35
100
AcDbSpline
210
0.0
220
0.0
230
1.0
 70
    11
 71
     3
 72
    29
 73
    25
 74
     0
 42
0.0000000001
 43
0.0000000001
 12
1.0
 22
0.0
 32
0.0
 13
1.0
 23
0.0
 33
0.0
 40
0.0
 40
0.0
 40
0.0
 40
0.0
 40
1.0
 40
1.0
 40
1.0
 40
2.0
 40
2.0
 40
2.0
 40
3.0
 40
3.0
 40
3.0
 40
4.0
 40
4.0
 40
4.0
 40
5.0
 40
5.0
 40
5.0
 40
6.0
 40
6.0
 40
6.0
 40
7.0
 40
7.0
 40
7.0
 40
8.0
 40
8.0
 40
8.0
 40
8.0
 10
863.2954099404261
 20
612.2128904719468
 30
0.0
 10
863.2954099404261
 20
611.416015472146
 30
0.0
 10
863.4633786903842
 20
610.8203123472949
 30
0.0
 10
863.7993161903001
 20
610.4257810973935
 30
0.0
 10
864.1352536902161
 20
610.0312498474922
 30
0.0
 10
864.531738065117
 20
609.8339842225415
 30
0.0
 10
864.9887693150027
 20
609.8339842225415
 30
0.0
 10
865.4497068148876
 20
609.8339842225415
 30
0.0
 10
865.8413083772897
 20
610.0224607849943
 30
0.0
 10
866.1635740022091
 20
610.3994139099001
 30
0.0
 10
866.4858396271285
 20
610.7763670348058
 30
0.0
 10
866.6469724395882
 20
611.3515623471621
 30
0.0
 10
866.6469724395882
 20
612.1249998469688
 30
0.0
 10
866.6469724395882
 20
612.9765623467558
 30
0.0
 10
866.4829099396293
 20
613.6015623465996
 30
0.0
 10
866.1547849397112
 20
613.9999998465
 30
0.0
 10
865.8266599397933
 20
614.3984373464003
 30
0.0
 10
865.4223630648944
 20
614.5976560963505
 30
0.0
 10
864.9418943150146
 20
614.5976560963505
 30
0.0
 10
864.4731443151317
 20
614.5976560963505
 30
0.0
 10
864.0815427527295
 20
614.4062498463984
 30
0.0
 10
863.7670896278082
 20
614.0234373464941
 30
0.0
 10
863.4526365028868
 20
613.6406248465898
 30
0.0
 10
863.2954099404261
 20
613.0371092217407
 30
0.0
 10
863.2954099404261
 20
612.2128904719468
 30
0.0
  0
HATCH
  5
90
330
6D
100
AcDbEntity
  8
0
 62
   240
420
 15539236
100
AcDbHatch
 10
0.0
 20
0.0
 30
0.0
210
0.0
220
0.0
230
1.0
  2
SOLID
 70
     1
 71
     0
 91
        2
 92
        1
 93
        1
 72
     4
 94
        3
 73
     0
 74
     1
 95
       47
 96
       43
 40
0.0
 40
0.0
 40
0.0
 40
0.0
 40
1.0
 40
1.0
 40
1.0
 40
2.0
 40
2.0
 40
2.0
 40
3.0
 40
3.0
 40
3.0
 40
4.0
 40
4.0
 40
4.0
 40
5.0
 40
5.0
 40
5.0
 40
6.0
 40
6.0
 40
6.0
 40
7.0
 40
7.0
 40
7.0
 40
8.0
 40
8.0
 40
8.0
 40
9.0
 40
9.0
 40
9.0
 40
10.0
 40
10.0
 40
10.0
 40
11.0
 40
11.0
 40
11.0
 40
12.0
 40
12.0
 40
12.0
 40
13.0
 40
13.0
 40
13.0
 40
14.0
 40
14.0
 40
14.0
 40
14.0
 10
866.6293943145927
 20
609.1074217227232
 10
866.6293943145927
 20
609.1074217227232
 10
866.6293943145927
 20
609.8925779725269
 10
866.6293943145927
 20
609.8925779725269
 10
866.2348630646912
 20
609.2753904726811
 10
865.6547849398363
 20
608.9667967227583
 10
864.8891599400276
 20
608.9667967227583
 10
864.3930661901517
 20
608.9667967227583
 10
863.9370115027657
 20
609.1035154727241
 10
863.5209958778697
 20
609.3769529726558
 10
863.1049802529737
 20
609.6503904725874
 10
862.7827146280544
 20
610.032226409992
 10
862.5541990031114
 20
610.5224607848694
 10
862.3256833781686
 20
611.0126951597468
 10
862.2114255656971
 20
611.576171722106
 10
862.2114255656971
 20
612.2128904719468
 10
862.2114255656971
 20
612.8339842217915
 10
862.3149411906712
 20
613.3974607841507
 10
862.5219724406195
 20
613.9033201590241
 10
862.7290036905678
 20
614.4091795338977
 10
863.0395505654901
 20
614.7968748463007
 10
863.4536130653865
 20
615.0664060962334
 10
863.8676755652831
 20
615.335937346166
 10
864.3305661901674
 20
615.4707029711323
 10
864.8422849400395
 20
615.4707029711323
 10
865.2172849399457
 20
615.4707029711323
 10
865.5512693148621
 20
615.391601408652
 10
865.8442380647889
 20
615.2333982836916
 10
866.1372068147157
 20
615.0751951587312
 10
866.3754880646561
 20
614.8691404712827
 10
866.5590818146102
 20
614.6152342213462
 10
866.5590818146102
 20
614.6152342213462
 10
866.5590818146102
 20
617.6972654705756
 10
866.5590818146102
 20
617.6972654705756
 10
866.5590818146102
 20
617.6972654705756
 10
867.607909939348
 20
617.6972654705756
 10
867.607909939348
 20
617.6972654705756
 10
867.607909939348
 20
617.6972654705756
 10
867.607909939348
 20
609.1074217227232
 10
867.607909939348
 20
609.1074217227232
 10
867.607909939348
 20
609.1074217227232
 10
866.6293943145927
 20
609.1074217227232
 10
866.6293943145927
 20
609.1074217227232
 97
        0
 97
        0
 92
        1
 93
        1
 72
     4
 94
        3
 73
     0
 74
     1
 95
       29
 96
       25
 40
0.0
 40
0.0
 40
0.0
 40
0.0
 40
1.0
 40
1.0
 40
1.0
 40
2.0
 40
2.0
 40
2.0
 40
3.0
 40
3.0
 40
3.0
 40
4.0
 40
4.0
 40
4.0
 40
5.0
 40
5.0
 40
5.0
 40
6.0
 40
6.0
 40
6.0
 40
7.0
 40
7.0
 40
7.0
 40
8.0
 40
8.0
 40
8.0
 40
8.0
 10
863.2954099404261
 20
612.2128904719468
 10
863.2954099404261
 20
611.416015472146
 10
863.4633786903842
 20
610.8203123472949
 10
863.7993161903001
 20
610.4257810973935
 10
864.1352536902161
 20
610.0312498474922
 10
864.531738065117
 20
609.8339842225415
 10
864.9887693150027
 20
609.8339842225415
 10
865.4497068148876
 20
609.8339842225415
 10
865.8413083772897
 20
610.0224607849943
 10
866.1635740022091
 20
610.3994139099001
 10
866.4858396271285
 20
610.7763670348058
 10
866.6469724395882
 20
611.3515623471621
 10
866.6469724395882
 20
612.1249998469688
 10
866.6469724395882
 20
612.9765623467558
 10
866.4829099396293
 20
613.6015623465996
 10
866.1547849397112
 20
613.9999998465
 10
865.8266599397933
 20
614.3984373464003
 10
865.4223630648944
 20
614.5976560963505
 10
864.9418943150146
 20
614.5976560963505
 10
864.4731443151317
 20
614.5976560963505
 10
864.0815427527295
 20
614.4062498463984
 10
863.7670896278082
 20
614.0234373464941
 10
863.4526365028868
 20
613.6406248465898
 10
863.2954099404261
 20
613.0371092217407
 10
863.2954099404261
 20
612.2128904719468
 97
        0
 97
        0
 75
     2
 76
     1
 98
        0
  0
POLYLINE
  5
91
330
6D
100
AcDbEntity
  8
0
 62
   240
420
 15539236
370
    35
100
AcDb2dPolyline
 66
     1
 10
0.0
 20
0.0
 30
0.0
  0
VERTEX
  5
92
330
91
100
AcDbEntity
  8
0
 62
   240
420
 15539236
370
    35
100
AcDbVertex
100
AcDb2dVertex
 10
881.9106443107723
 20
617.2402342206899
 30
0.0
  0
VERTEX
  5
93
330
91
100
AcDbEntity
  8
0
 62
   240
420
 15539236
370
    35
100
AcDbVertex
100
AcDb2dVertex
 10
877.7504880618123
 20
608.9257810977685
 30
0.0
  0
VERTEX
  5
94
330
91
100
AcDbEntity
  8
0
 62
   240
420
 15539236
370
    35
100
AcDbVertex
100
AcDb2dVertex
 10
873.5903318128524
 20
617.2402342206899
 30
0.0
  0
VERTEX
  5
95
330
91
100
AcDbEntity
  8
0
 62
   240
420
 15539236
370
    35
100
AcDbVertex
100
AcDb2dVertex
 10
881.9106443107723
 20
617.2402342206899
 30
0.0
  0
SEQEND
  5
96
330
91
100
AcDbEntity
  8
0
 62
   240
420
 15539236
370
    35
  0
HATCH
  5
97
330
6D
100
AcDbEntity
  8
0
 62
   240
420
 15539236
100
AcDbHatch
 10
0.0
 20
0.0
 30
0.0
210
0.0
220
0.0
230
1.0
  2
SOLID
 70
     1
 71
     0
 91
        1
 92
        1
 93
        3
 72
     1
 10
881.9106443107723
 20
617.2402342206899
 11
877.7504880618123
 21
608.9257810977685
 72
     1
 10
877.7504880618123
 20
608.9257810977685
 11
873.5903318128524
 21
617.2402342206899
 72
     1
 10
873.5903318128524
 20
617.2402342206899
 11
881.9106443107723
 21
617.2402342206899
 97
        0
 75
     2
 76
     1
 98
        0
  0
ENDBLK
  5
70
330
6D
100
AcDbEntity
  8
0
100
AcDbBlockEnd
  0
ENDSEC
  0
SECTION
  2
ENTITIES
  0
INSERT
  5
41
330
1F
100
AcDbEntity
  8
0
100
AcDbBlockReference
  2
block 2
 10
0.0
 20
0.0
 30
0.0
  0
INSERT
  5
46
330
1F
100
AcDbEntity
  8
0
100
AcDbBlockReference
  2
block 3
 10
0.0
 20
0.0
 30
0.0
  0
INSERT
  5
4B
330
1F
100
AcDbEntity
  8
0
100
AcDbBlockReference
  2
block 4
 10
0.0
 20
0.0
 30
0.0
  0
INSERT
  5
50
330
1F
100
AcDbEntity
  8
0
100
AcDbBlockReference
  2
block 5
 10
0.0
 20
0.0
 30
0.0
  0
INSERT
  5
55
330
1F
100
AcDbEntity
  8
0
100
AcDbBlockReference
  2
block 6
 10
0.0
 20
0.0
 30
0.0
  0
INSERT
  5
5A
330
1F
100
AcDbEntity
  8
0
100
AcDbBlockReference
  2
block 7
 10
0.0
 20
0.0
 30
0.0
  0
INSERT
  5
5F
330
1F
100
AcDbEntity
  8
0
100
AcDbBlockReference
  2
block 8
 10
0.0
 20
0.0
 30
0.0
  0
INSERT
  5
64
330
1F
100
AcDbEntity
  8
0
100
AcDbBlockReference
  2
block 9
 10
0.0
 20
0.0
 30
0.0
  0
INSERT
  5
69
330
1F
100
AcDbEntity
  8
0
100
AcDbBlockReference
  2
block 10
 10
0.0
 20
0.0
 30
0.0
  0
INSERT
  5
6E
330
1F
100
AcDbEntity
  8
0
100
AcDbBlockReference
  2
block 11
 10
0.0
 20
0.0
 30
0.0
  0
ENDSEC
  0
SECTION
  2
OBJECTS
  0
DICTIONARY
  5
C
330
0
100
AcDbDictionary
281
     1
  3
ACAD_GROUP
350
D
  3
ACAD_LAYOUT
350
1A
  3
ACAD_MATERIAL
350
3B
  3
ACAD_MLEADERSTYLE
350
99
  3
ACAD_MLINESTYLE
350
17
  3
ACAD_PLOTSETTINGS
350
19
  3
ACAD_PLOTSTYLENAME
350
E
  3
ACAD_TABLESTYLE
350
98
  3
ACAD_VISUALSTYLE
350
2A
  0
SUN
  5
3F
330
29
100
AcDbSun
 90
        1
290
     0
 63
     7
421
 16777215
 40
1.0
291
     1
 91
  2455826
 92
 54000000
292
     0
 70
     2
 71
   256
280
     1
  0
DICTIONARY
  5
D
102
{ACAD_REACTORS
330
C
102
}
330
C
100
AcDbDictionary
281
     1
  0
DICTIONARY
  5
1A
102
{ACAD_REACTORS
330
C
102
}
330
C
100
AcDbDictionary
281
     1
  3
Layout1
350
1E
  3
Layout2
350
26
  3
Model
350
22
  0
DICTIONARY
  5
3B
102
{ACAD_REACTORS
330
C
102
}
330
C
100
AcDbDictionary
281
     1
  3
ByBlock
350
3D
  3
ByLayer
350
3C
  3
Global
350
3E
  0
DICTIONARY
  5
99
102
{ACAD_REACTORS
330
C
102
}
330
C
100
AcDbDictionary
281
     1
  0
DICTIONARY
  5
17
102
{ACAD_REACTORS
330
C
102
}
330
C
100
AcDbDictionary
281
     1
  3
Standard
350
18
  0
DICTIONARY
  5
19
102
{ACAD_REACTORS
330
C
102
}
330
C
100
AcDbDictionary
281
     1
  0
ACDBDICTIONARYWDFLT
  5
E
102
{ACAD_REACTORS
330
C
102
}
330
C
100
AcDbDictionary
281
     1
  3
Normal
350
F
100
AcDbDictionaryWithDefault
340
F
  0
DICTIONARY
  5
98
102
{ACAD_REACTORS
330
C
102
}
330
C
100
AcDbDictionary
281
     1
  0
DICTIONARY
  5
2A
102
{ACAD_REACTORS
330
C
102
}
330
C
100
AcDbDictionary
281
     1
  3
2dWireframe
350
2F
  3
3D Hidden
350
31
  3
3dWireframe
350
30
  3
Basic
350
32
  3
Brighten
350
36
  3
ColorChange
350
3A
  3
Conceptual
350
34
  3
Dim
350
35
  3
Facepattern
350
39
  3
Flat
350
2B
  3
FlatWithEdges
350
2C
  3
Gouraud
350
2D
  3
GouraudWithEdges
350
2E
  3
Linepattern
350
38
  3
Realistic
350
33
  3
Thicken
350
37
  0
LAYOUT
  5
1E
102
{ACAD_REACTORS
330
1A
102
}
330
1A
100
AcDbPlotSettings
  1

  2
none_device
  4

  6

 40
0.0
 41
0.0
 42
0.0
 43
0.0
 44
0.0
 45
0.0
 46
0.0
 47
0.0
 48
0.0
 49
0.0
140
0.0
141
0.0
142
1.0
143
1.0
 70
   688
 72
     0
 73
     0
 74
     5
  7

 75
    16
 76
     0
 77
     2
 78
   300
147
1.0
148
0.0
149
0.0
100
AcDbLayout
  1
Layout1
 70
     1
 71
     1
 10
0.0
 20
0.0
 11
12.0
 21
9.0
 12
0.0
 22
0.0
 32
0.0
 14
1.000000000000000E+20
 24
1.000000000000000E+20
 34
1.000000000000000E+20
 15
-1.000000000000000E+20
 25
-1.000000000000000E+20
 35
-1.000000000000000E+20
146
0.0
 13
0.0
 23
0.0
 33
0.0
 16
1.0
 26
0.0
 36
0.0
 17
0.0
 27
1.0
 37
0.0
 76
     0
330
1B
  0
LAYOUT
  5
26
102
{ACAD_REACTORS
330
1A
102
}
330
1A
100
AcDbPlotSettings
  1

  2
none_device
  4

  6

 40
0.0
 41
0.0
 42
0.0
 43
0.0
 44
0.0
 45
0.0
 46
0.0
 47
0.0
 48
0.0
 49
0.0
140
0.0
141
0.0
142
1.0
143
1.0
 70
   688
 72
     0
 73
     0
 74
     5
  7

 75
    16
 76
     0
 77
     2
 78
   300
147
1.0
148
0.0
149
0.0
100
AcDbLayout
  1
Layout2
 70
     1
 71
     2
 10
0.0
 20
0.0
 11
0.0
 21
0.0
 12
0.0
 22
0.0
 32
0.0
 14
0.0
 24
0.0
 34
0.0
 15
0.0
 25
0.0
 35
0.0
146
0.0
 13
0.0
 23
0.0
 33
0.0
 16
1.0
 26
0.0
 36
0.0
 17
0.0
 27
1.0
 37
0.0
 76
     0
330
23
  0
LAYOUT
  5
22
102
{ACAD_REACTORS
330
1A
102
}
330
1A
100
AcDbPlotSettings
  1

  2
none_device
  4

  6

 40
0.0
 41
0.0
 42
0.0
 43
0.0
 44
0.0
 45
0.0
 46
0.0
 47
0.0
 48
0.0
 49
0.0
140
0.0
141
0.0
142
1.0
143
1.0
 70
  1712
 72
     0
 73
     0
 74
     0
  7

 75
     0
 76
     0
 77
     2
 78
   300
147
1.0
148
0.0
149
0.0
100
AcDbLayout
  1
Model
 70
     1
 71
     0
 10
0.0
 20
0.0
 11
12.0
 21
9.0
 12
0.0
 22
0.0
 32
0.0
 14
1.000000000000000E+20
 24
1.000000000000000E+20
 34
1.000000000000000E+20
 15
-1.000000000000000E+20
 25
-1.000000000000000E+20
 35
-1.000000000000000E+20
146
0.0
 13
0.0
 23
0.0
 33
0.0
 16
1.0
 26
0.0
 36
0.0
 17
0.0
 27
1.0
 37
0.0
 76
     0
330
1F
331
29
  0
MATERIAL
  5
3D
102
{ACAD_REACTORS
330
3B
102
}
330
3B
100
AcDbMaterial
  1
ByBlock
 72
     1
 94
      127
  0
MATERIAL
  5
3C
102
{ACAD_REACTORS
330
3B
102
}
330
3B
100
AcDbMaterial
  1
ByLayer
 72
     1
 94
      127
  0
MATERIAL
  5
3E
102
{ACAD_REACTORS
330
3B
102
}
330
3B
100
AcDbMaterial
  1
Global
 72
     1
 94
      127
  0
MLINESTYLE
  5
18
102
{ACAD_REACTORS
330
17
102
}
330
17
100
AcDbMlineStyle
  2
Standard
 70
     0
  3

 62
   256
 51
90.0
 52
90.0
 71
     2
 49
0.5
 62
   256
  6
BYLAYER
 49
-0.5
 62
   256
  6
BYLAYER
  0
ACDBPLACEHOLDER
  5
F
102
{ACAD_REACTORS
330
E
102
}
330
E
  0
VISUALSTYLE
  5
2F
102
{ACAD_REACTORS
330
2A
102
}
330
2A
100
AcDbVisualStyle
  2
2dWireframe
 70
     4
177
     2
291
     0
 71
     0
176
     1
 72
     2
176
     1
 73
     0
176
     1
 90
        0
176
     1
 40
-0.6
176
     1
 41
-30.0
176
     1
 62
     5
 63
     7
421
 16777215
176
     1
 74
     1
176
     1
 91
        4
176
     1
 64
     7
176
     1
 65
   257
176
     1
 75
     1
176
     1
175
     1
176
     1
 42
1.0
176
     1
 92
        0
176
     1
 66
   257
176
     1
 43
1.0
176
     1
 76
     1
176
     1
 77
     6
176
     1
 78
     2
176
     1
 67
     7
176
     1
 79
     5
176
     1
170
     0
176
     1
171
     0
176
     1
290
     0
176
     1
 93
        1
176
     1
 44
0.0
176
     1
173
     0
176
     1
  0
VISUALSTYLE
  5
31
102
{ACAD_REACTORS
330
2A
102
}
330
2A
100
AcDbVisualStyle
  2
3D Hidden
 70
     6
177
     2
291
     0
 71
     1
176
     1
 72
     2
176
     1
 73
     2
176
     1
 90
        0
176
     1
 40
-0.6
176
     1
 41
-30.0
176
     1
 62
     5
 63
     7
421
 16777215
176
     1
 74
     2
176
     1
 91
        2
176
     1
 64
     7
176
     1
 65
   257
176
     1
 75
     2
176
     1
175
     1
176
     1
 42
40.0
176
     1
 92
        0
176
     1
 66
   257
176
     1
 43
1.0
176
     1
 76
     1
176
     1
 77
     6
176
     1
 78
     2
176
     1
 67
     7
176
     1
 79
     3
176
     1
170
     0
176
     1
171
     0
176
     1
290
     0
176
     1
 93
        1
176
     1
 44
0.0
176
     1
173
     0
176
     1
  0
VISUALSTYLE
  5
30
102
{ACAD_REACTORS
330
2A
102
}
330
2A
100
AcDbVisualStyle
  2
3dWireframe
 70
     5
177
     2
291
     0
 71
     0
176
     1
 72
     2
176
     1
 73
     0
176
     1
 90
        0
176
     1
 40
-0.6
176
     1
 41
-30.0
176
     1
 62
     5
 63
     7
421
 16777215
176
     1
 74
     1
176
     1
 91
        4
176
     1
 64
     7
176
     1
 65
   257
176
     1
 75
     1
176
     1
175
     1
176
     1
 42
1.0
176
     1
 92
        0
176
     1
 66
   257
176
     1
 43
1.0
176
     1
 76
     1
176
     1
 77
     6
176
     1
 78
     2
176
     1
 67
     7
176
     1
 79
     5
176
     1
170
     0
176
     1
171
     0
176
     1
290
     0
176
     1
 93
        1
176
     1
 44
0.0
176
     1
173
     0
176
     1
  0
VISUALSTYLE
  5
32
102
{ACAD_REACTORS
330
2A
102
}
330
2A
100
AcDbVisualStyle
  2
Basic
 70
     7
177
     2
291
     1
 71
     1
176
     1
 72
     0
176
     1
 73
     1
176
     1
 90
        0
176
     1
 40
-0.6
176
     1
 41
-30.0
176
     1
 62
     5
 63
     7
421
 16777215
176
     1
 74
     0
176
     1
 91
        4
176
     1
 64
     7
176
     1
 65
   257
176
     1
 75
     1
176
     1
175
     1
176
     1
 42
1.0
176
     1
 92
        8
176
     1
 66
     7
176
     1
 43
1.0
176
     1
 76
     1
176
     1
 77
     6
176
     1
 78
     2
176
     1
 67
     7
176
     1
 79
     5
176
     1
170
     0
176
     1
171
     0
176
     1
290
     0
176
     1
 93
        1
176
     1
 44
0.0
176
     1
173
     0
176
     1
  0
VISUALSTYLE
  5
36
102
{ACAD_REACTORS
330
2A
102
}
330
2A
100
AcDbVisualStyle
  2
Brighten
 70
    12
177
     2
291
     1
 71
     2
176
     1
 72
     2
176
     1
 73
     0
176
     1
 90
        0
176
     1
 40
-0.6
176
     1
 41
-30.0
176
     1
 62
     5
 63
     7
421
 16777215
176
     1
 74
     1
176
     1
 91
        4
176
     1
 64
     7
176
     1
 65
   257
176
     1
 75
     1
176
     1
175
     1
176
     1
 42
1.0
176
     1
 92
        8
176
     1
 66
     7
176
     1
 43
1.0
176
     1
 76
     1
176
     1
 77
     6
176
     1
 78
     2
176
     1
 67
     7
176
     1
 79
     5
176
     1
170
     0
176
     1
171
     0
176
     1
290
     0
176
     1
 93
        1
176
     1
 44
50.0
176
     1
173
     0
176
     1
  0
VISUALSTYLE
  5
3A
102
{ACAD_REACTORS
330
2A
102
}
330
2A
100
AcDbVisualStyle
  2
ColorChange
 70
    16
177
     2
291
     1
 71
     2
176
     1
 72
     2
176
     1
 73
     3
176
     1
 90
        0
176
     1
 40
-0.6
176
     1
 41
-30.0
176
     1
 62
     5
 63
     8
421
  8421504
176
     1
 74
     1
176
     1
 91
        4
176
     1
 64
     7
176
     1
 65
   257
176
     1
 75
     1
176
     1
175
     1
176
     1
 42
1.0
176
     1
 92
        8
176
     1
 66
     8
424
  8421504
176
     1
 43
1.0
176
     1
 76
     1
176
     1
 77
     6
176
     1
 78
     2
176
     1
 67
     7
176
     1
 79
     5
176
     1
170
     0
176
     1
171
     0
176
     1
290
     0
176
     1
 93
        1
176
     1
 44
0.0
176
     1
173
     0
176
     1
  0
VISUALSTYLE
  5
34
102
{ACAD_REACTORS
330
2A
102
}
330
2A
100
AcDbVisualStyle
  2
Conceptual
 70
     9
177
     2
291
     0
 71
     3
176
     1
 72
     2
176
     1
 73
     0
176
     1
 90
        0
176
     1
 40
-0.6
176
     1
 41
-30.0
176
     1
 62
     5
 63
     7
421
 16777215
176
     1
 74
     2
176
     1
 91
        2
176
     1
 64
     7
176
     1
 65
   257
176
     1
 75
     1
176
     1
175
     1
176
     1
 42
40.0
176
     1
 92
        8
176
     1
 66
     7
176
     1
 43
1.0
176
     1
 76
     1
176
     1
 77
     6
176
     1
 78
     2
176
     1
 67
     7
176
     1
 79
     3
176
     1
170
     0
176
     1
171
     0
176
     1
290
     0
176
     1
 93
        1
176
     1
 44
0.0
176
     1
173
     0
176
     1
  0
VISUALSTYLE
  5
35
102
{ACAD_REACTORS
330
2A
102
}
330
2A
100
AcDbVisualStyle
  2
Dim
 70
    11
177
     2
291
     1
 71
     2
176
     1
 72
     2
176
     1
 73
     0
176
     1
 90
        0
176
     1
 40
-0.6
176
     1
 41
-30.0
176
     1
 62
     5
 63
     7
421
 16777215
176
     1
 74
     1
176
     1
 91
        4
176
     1
 64
     7
176
     1
 65
   257
176
     1
 75
     1
176
     1
175
     1
176
     1
 42
1.0
176
     1
 92
        8
176
     1
 66
     7
176
     1
 43
1.0
176
     1
 76
     1
176
     1
 77
     6
176
     1
 78
     2
176
     1
 67
     7
176
     1
 79
     5
176
     1
170
     0
176
     1
171
     0
176
     1
290
     0
176
     1
 93
        1
176
     1
 44
-50.0
176
     1
173
     0
176
     1
  0
VISUALSTYLE
  5
39
102
{ACAD_REACTORS
330
2A
102
}
330
2A
100
AcDbVisualStyle
  2
Facepattern
 70
    15
177
     2
291
     1
 71
     2
176
     1
 72
     2
176
     1
 73
     0
176
     1
 90
        0
176
     1
 40
-0.6
176
     1
 41
-30.0
176
     1
 62
     5
 63
     7
421
 16777215
176
     1
 74
     1
176
     1
 91
        4
176
     1
 64
     7
176
     1
 65
   257
176
     1
 75
     1
176
     1
175
     1
176
     1
 42
1.0
176
     1
 92
        8
176
     1
 66
     7
176
     1
 43
1.0
176
     1
 76
     1
176
     1
 77
     6
176
     1
 78
     2
176
     1
 67
     7
176
     1
 79
     5
176
     1
170
     0
176
     1
171
     0
176
     1
290
     0
176
     1
 93
        1
176
     1
 44
0.0
176
     1
173
     0
176
     1
  0
VISUALSTYLE
  5
2B
102
{ACAD_REACTORS
330
2A
102
}
330
2A
100
AcDbVisualStyle
  2
Flat
 70
     0
177
     2
291
     1
 71
     2
176
     1
 72
     1
176
     1
 73
     1
176
     1
 90
        2
176
     1
 40
-0.6
176
     1
 41
30.0
176
     1
 62
     5
 63
     7
421
 16777215
176
     1
 74
     0
176
     1
 91
        4
176
     1
 64
     7
176
     1
 65
   257
176
     1
 75
     1
176
     1
175
     1
176
     1
 42
1.0
176
     1
 92
        8
176
     1
 66
     7
176
     1
 43
1.0
176
     1
 76
     1
176
     1
 77
     6
176
     1
 78
     2
176
     1
 67
     7
176
     1
 79
     5
176
     1
170
     0
176
     1
171
     0
176
     1
290
     0
176
     1
 93
       13
176
     1
 44
0.0
176
     1
173
     0
176
     1
  0
VISUALSTYLE
  5
2C
102
{ACAD_REACTORS
330
2A
102
}
330
2A
100
AcDbVisualStyle
  2
FlatWithEdges
 70
     1
177
     2
291
     1
 71
     2
176
     1
 72
     1
176
     1
 73
     1
176
     1
 90
        2
176
     1
 40
-0.6
176
     1
 41
30.0
176
     1
 62
     5
 63
     7
421
 16777215
176
     1
 74
     1
176
     1
 91
        4
176
     1
 64
     7
176
     1
 65
   257
176
     1
 75
     1
176
     1
175
     1
176
     1
 42
1.0
176
     1
 92
        0
176
     1
 66
   257
176
     1
 43
1.0
176
     1
 76
     1
176
     1
 77
     6
176
     1
 78
     2
176
     1
 67
     7
176
     1
 79
     5
176
     1
170
     0
176
     1
171
     0
176
     1
290
     0
176
     1
 93
       13
176
     1
 44
0.0
176
     1
173
     0
176
     1
  0
VISUALSTYLE
  5
2D
102
{ACAD_REACTORS
330
2A
102
}
330
2A
100
AcDbVisualStyle
  2
Gouraud
 70
     2
177
     2
291
     1
 71
     2
176
     1
 72
     2
176
     1
 73
     1
176
     1
 90
        2
176
     1
 40
-0.6
176
     1
 41
30.0
176
     1
 62
     5
 63
     7
421
 16777215
176
     1
 74
     0
176
     1
 91
        4
176
     1
 64
     7
176
     1
 65
   257
176
     1
 75
     1
176
     1
175
     1
176
     1
 42
1.0
176
     1
 92
        0
176
     1
 66
     7
176
     1
 43
1.0
176
     1
 76
     1
176
     1
 77
     6
176
     1
 78
     2
176
     1
 67
     7
176
     1
 79
     5
176
     1
170
     0
176
     1
171
     0
176
     1
290
     0
176
     1
 93
       13
176
     1
 44
0.0
176
     1
173
     0
176
     1
  0
VISUALSTYLE
  5
2E
102
{ACAD_REACTORS
330
2A
102
}
330
2A
100
AcDbVisualStyle
  2
GouraudWithEdges
 70
     3
177
     2
291
     1
 71
     2
176
     1
 72
     2
176
     1
 73
     1
176
     1
 90
        2
176
     1
 40
-0.6
176
     1
 41
30.0
176
     1
 62
     5
 63
     7
421
 16777215
176
     1
 74
     1
176
     1
 91
        4
176
     1
 64
     7
176
     1
 65
   257
176
     1
 75
     1
176
     1
175
     1
176
     1
 42
1.0
176
     1
 92
        0
176
     1
 66
   257
176
     1
 43
1.0
176
     1
 76
     1
176
     1
 77
     6
176
     1
 78
     2
176
     1
 67
     7
176
     1
 79
     5
176
     1
170
     0
176
     1
171
     0
176
     1
290
     0
176
     1
 93
       13
176
     1
 44
0.0
176
     1
173
     0
176
     1
  0
VISUALSTYLE
  5
38
102
{ACAD_REACTORS
330
2A
102
}
330
2A
100
AcDbVisualStyle
  2
Linepattern
 70
    14
177
     2
291
     1
 71
     2
176
     1
 72
     2
176
     1
 73
     0
176
     1
 90
        0
176
     1
 40
-0.6
176
     1
 41
-30.0
176
     1
 62
     5
 63
     7
421
 16777215
176
     1
 74
     1
176
     1
 91
        4
176
     1
 64
     7
176
     1
 65
   257
176
     1
 75
     7
176
     1
175
     7
176
     1
 42
1.0
176
     1
 92
        8
176
     1
 66
     7
176
     1
 43
1.0
176
     1
 76
     1
176
     1
 77
     6
176
     1
 78
     2
176
     1
 67
     7
176
     1
 79
     5
176
     1
170
     0
176
     1
171
     0
176
     1
290
     0
176
     1
 93
        1
176
     1
 44
0.0
176
     1
173
     0
176
     1
  0
VISUALSTYLE
  5
33
102
{ACAD_REACTORS
330
2A
102
}
330
2A
100
AcDbVisualStyle
  2
Realistic
 70
     8
177
     2
291
     0
 71
     2
176
     1
 72
     2
176
     1
 73
     0
176
     1
 90
        0
176
     1
 40
-0.6
176
     1
 41
-30.0
176
     1
 62
     5
 63
     7
421
 16777215
176
     1
 74
     1
176
     1
 91
        0
176
     1
 64
     7
176
     1
 65
   257
176
     1
 75
     1
176
     1
175
     1
176
     1
 42
1.0
176
     1
 92
        8
176
     1
 66
     8
424
  7895160
176
     1
 43
1.0
176
     1
 76
     1
176
     1
 77
     6
176
     1
 78
     2
176
     1
 67
     7
176
     1
 79
     5
176
     1
170
     0
176
     1
171
     0
176
     1
290
     0
176
     1
 93
       13
176
     1
 44
0.0
176
     1
173
     0
176
     1
  0
VISUALSTYLE
  5
37
102
{ACAD_REACTORS
330
2A
102
}
330
2A
100
AcDbVisualStyle
  2
Thicken
 70
    13
177
     2
291
     1
 71
     2
176
     1
 72
     2
176
     1
 73
     0
176
     1
 90
        0
176
     1
 40
-0.6
176
     1
 41
-30.0
176
     1
 62
     5
 63
     7
421
 16777215
176
     1
 74
     1
176
     1
 91
        4
176
     1
 64
     7
176
     1
 65
   257
176
     1
 75
     1
176
     1
175
     1
176
     1
 42
1.0
176
     1
 92
       12
176
     1
 66
     7
176
     1
 43
1.0
176
     1
 76
     1
176
     1
 77
     6
176
     1
 78
     2
176
     1
 67
     7
176
     1
 79
     5
176
     1
170
     0
176
     1
171
     0
176
     1
290
     0
176
     1
 93
        1
176
     1
 44
0.0
176
     1
173
     0
176
     1
  0
ENDSEC
  0
EOF
