  0
SECTION
  2
HEADER
  9
$ACADVER
  1
AC1024
  9
$ACADMAINTVER
 70
     6
  9
$DWGCODEPAGE
  3
ANSI_1252
  9
$INSBASE
 10
0.0
 20
0.0
 30
0.0
  9
$EXTMIN
 10
1.000000000000000E+20
 20
1.000000000000000E+20
 30
1.000000000000000E+20
  9
$EXTMAX
 10
-1.000000000000000E+20
 20
-1.000000000000000E+20
 30
-1.000000000000000E+20
  9
$LIMMIN
 10
0.0
 20
0.0
  9
$LIMMAX
 10
12.0
 20
9.0
  9
$ORTHOMODE
 70
     0
  9
$REGENMODE
 70
     1
  9
$FILLMODE
 70
     1
  9
$QTEXTMODE
 70
     0
  9
$MIRRTEXT
 70
     1
  9
$LTSCALE
 40
1.0
  9
$ATTMODE
 70
     1
  9
$TEXTSIZE
 40
0.2
  9
$TRACEWID
 40
0.05
  9
$TEXTSTYLE
  7
Standard
  9
$CLAYER
  8
0
  9
$CELTYPE
  6
ByLayer
  9
$CECOLOR
 62
   256
  9
$CELTSCALE
 40
1.0
  9
$DISPSILH
 70
     0
  9
$DIMSCALE
 40
1.0
  9
$DIMASZ
 40
0.18
  9
$DIMEXO
 40
0.0625
  9
$DIMDLI
 40
0.38
  9
$DIMRND
 40
0.0
  9
$DIMDLE
 40
0.0
  9
$DIMEXE
 40
0.18
  9
$DIMTP
 40
0.0
  9
$DIMTM
 40
0.0
  9
$DIMTXT
 40
0.18
  9
$DIMCEN
 40
0.09
  9
$DIMTSZ
 40
0.0
  9
$DIMTOL
 70
     0
  9
$DIMLIM
 70
     0
  9
$DIMTIH
 70
     1
  9
$DIMTOH
 70
     1
  9
$DIMSE1
 70
     0
  9
$DIMSE2
 70
     0
  9
$DIMTAD
 70
     0
  9
$DIMZIN
 70
     0
  9
$DIMBLK
  1

  9
$DIMASO
 70
     1
  9
$DIMSHO
 70
     1
  9
$DIMPOST
  1

  9
$DIMAPOST
  1

  9
$DIMALT
 70
     0
  9
$DIMALTD
 70
     2
  9
$DIMALTF
 40
25.4
  9
$DIMLFAC
 40
1.0
  9
$DIMTOFL
 70
     0
  9
$DIMTVP
 40
0.0
  9
$DIMTIX
 70
     0
  9
$DIMSOXD
 70
     0
  9
$DIMSAH
 70
     0
  9
$DIMBLK1
  1

  9
$DIMBLK2
  1

  9
$DIMSTYLE
  2
Standard
  9
$DIMCLRD
 70
     0
  9
$DIMCLRE
 70
     0
  9
$DIMCLRT
 70
     0
  9
$DIMTFAC
 40
1.0
  9
$DIMGAP
 40
0.09
  9
$DIMJUST
 70
     0
  9
$DIMSD1
 70
     0
  9
$DIMSD2
 70
     0
  9
$DIMTOLJ
 70
     1
  9
$DIMTZIN
 70
     0
  9
$DIMALTZ
 70
     0
  9
$DIMALTTZ
 70
     0
  9
$DIMUPT
 70
     0
  9
$DIMDEC
 70
     4
  9
$DIMTDEC
 70
     4
  9
$DIMALTU
 70
     2
  9
$DIMALTTD
 70
     2
  9
$DIMTXSTY
  7
Standard
  9
$DIMAUNIT
 70
     0
  9
$DIMADEC
 70
     0
  9
$DIMALTRND
 40
0.0
  9
$DIMAZIN
 70
     0
  9
$DIMDSEP
 70
    46
  9
$DIMATFIT
 70
     3
  9
$DIMFRAC
 70
     0
  9
$DIMLDRBLK
  1

  9
$DIMLUNIT
 70
     2
  9
$DIMLWD
 70
    -2
  9
$DIMLWE
 70
    -2
  9
$DIMTMOVE
 70
     0
  9
$DIMFXL
 40
1.0
  9
$DIMFXLON
 70
     0
  9
$DIMJOGANG
 40
0.7853981633974483
  9
$DIMTFILL
 70
     0
  9
$DIMTFILLCLR
 70
     0
  9
$DIMARCSYM
 70
     0
  9
$DIMLTYPE
  6

  9
$DIMLTEX1
  6

  9
$DIMLTEX2
  6

  9
$DIMTXTDIRECTION
 70
     0
  9
$LUNITS
 70
     2
  9
$LUPREC
 70
     4
  9
$SKETCHINC
 40
0.1
  9
$FILLETRAD
 40
0.5
  9
$AUNITS
 70
     0
  9
$AUPREC
 70
     0
  9
$MENU
  1
.
  9
$ELEVATION
 40
0.0
  9
$PELEVATION
 40
0.0
  9
$THICKNESS
 40
0.0
  9
$LIMCHECK
 70
     0
  9
$CHAMFERA
 40
0.5
  9
$CHAMFERB
 40
0.5
  9
$CHAMFERC
 40
1.0
  9
$CHAMFERD
 40
0.0
  9
$SKPOLY
 70
     0
  9
$TDCREATE
 40
2459171.953071782
  9
$TDUCREATE
 40
2459172.286405116
  9
$TDUPDATE
 40
2459171.953071806
  9
$TDUUPDATE
 40
2459172.286405139
  9
$TDINDWG
 40
0.0000000116
  9
$TDUSRTIMER
 40
0.0000000116
  9
$USRTIMER
 70
     1
  9
$ANGBASE
 50
0.0
  9
$ANGDIR
 70
     0
  9
$PDMODE
 70
     0
  9
$PDSIZE
 40
0.0
  9
$PLINEWID
 40
0.0
  9
$SPLFRAME
 70
     0
  9
$SPLINETYPE
 70
     6
  9
$SPLINESEGS
 70
     8
  9
$HANDSEED
  5
C8
  9
$SURFTAB1
 70
     6
  9
$SURFTAB2
 70
     6
  9
$SURFTYPE
 70
     6
  9
$SURFU
 70
     6
  9
$SURFV
 70
     6
  9
$UCSBASE
  2

  9
$UCSNAME
  2

  9
$UCSORG
 10
0.0
 20
0.0
 30
0.0
  9
$UCSXDIR
 10
1.0
 20
0.0
 30
0.0
  9
$UCSYDIR
 10
0.0
 20
1.0
 30
0.0
  9
$UCSORTHOREF
  2

  9
$UCSORTHOVIEW
 70
     0
  9
$UCSORGTOP
 10
0.0
 20
0.0
 30
0.0
  9
$UCSORGBOTTOM
 10
0.0
 20
0.0
 30
0.0
  9
$UCSORGLEFT
 10
0.0
 20
0.0
 30
0.0
  9
$UCSORGRIGHT
 10
0.0
 20
0.0
 30
0.0
  9
$UCSORGFRONT
 10
0.0
 20
0.0
 30
0.0
  9
$UCSORGBACK
 10
0.0
 20
0.0
 30
0.0
  9
$PUCSBASE
  2

  9
$PUCSNAME
  2

  9
$PUCSORG
 10
0.0
 20
0.0
 30
0.0
  9
$PUCSXDIR
 10
1.0
 20
0.0
 30
0.0
  9
$PUCSYDIR
 10
0.0
 20
1.0
 30
0.0
  9
$PUCSORTHOREF
  2

  9
$PUCSORTHOVIEW
 70
     0
  9
$PUCSORGTOP
 10
0.0
 20
0.0
 30
0.0
  9
$PUCSORGBOTTOM
 10
0.0
 20
0.0
 30
0.0
  9
$PUCSORGLEFT
 10
0.0
 20
0.0
 30
0.0
  9
$PUCSORGRIGHT
 10
0.0
 20
0.0
 30
0.0
  9
$PUCSORGFRONT
 10
0.0
 20
0.0
 30
0.0
  9
$PUCSORGBACK
 10
0.0
 20
0.0
 30
0.0
  9
$USERI1
 70
     0
  9
$USERI2
 70
     0
  9
$USERI3
 70
     0
  9
$USERI4
 70
     0
  9
$USERI5
 70
     0
  9
$USERR1
 40
0.0
  9
$USERR2
 40
0.0
  9
$USERR3
 40
0.0
  9
$USERR4
 40
0.0
  9
$USERR5
 40
0.0
  9
$WORLDVIEW
 70
     1
  9
$SHADEDGE
 70
     3
  9
$SHADEDIF
 70
    70
  9
$TILEMODE
 70
     1
  9
$MAXACTVP
 70
    64
  9
$PINSBASE
 10
0.0
 20
0.0
 30
0.0
  9
$PLIMCHECK
 70
     0
  9
$PEXTMIN
 10
1.000000000000000E+20
 20
1.000000000000000E+20
 30
1.000000000000000E+20
  9
$PEXTMAX
 10
-1.000000000000000E+20
 20
-1.000000000000000E+20
 30
-1.000000000000000E+20
  9
$PLIMMIN
 10
0.0
 20
0.0
  9
$PLIMMAX
 10
12.0
 20
9.0
  9
$UNITMODE
 70
     0
  9
$VISRETAIN
 70
     1
  9
$PLINEGEN
 70
     0
  9
$PSLTSCALE
 70
     1
  9
$TREEDEPTH
 70
  3020
  9
$CMLSTYLE
  2
Standard
  9
$CMLJUST
 70
     0
  9
$CMLSCALE
 40
1.0
  9
$PROXYGRAPHICS
 70
     1
  9
$MEASUREMENT
 70
     0
  9
$CELWEIGHT
370
    -1
  9
$ENDCAPS
280
     0
  9
$JOINSTYLE
280
     0
  9
$LWDISPLAY
290
     1
  9
$INSUNITS
 70
     4
  9
$HYPERLINKBASE
  1

  9
$STYLESHEET
  1

  9
$XEDIT
290
     1
  9
$CEPSNTYPE
380
     0
  9
$PSTYLEMODE
290
     1
  9
$FINGERPRINTGUID
  2
{B521291A-B700-49E0-951F-7A86AA94D81C}
  9
$VERSIONGUID
  2
{FAEB1C32-E019-11D5-929B-00C0DF256EC4}
  9
$EXTNAMES
290
     1
  9
$PSVPSCALE
 40
0.0
  9
$OLESTARTUP
290
     0
  9
$SORTENTS
280
   127
  9
$INDEXCTL
280
     0
  9
$HIDETEXT
280
     1
  9
$XCLIPFRAME
280
     2
  9
$HALOGAP
280
     0
  9
$OBSCOLOR
 70
   257
  9
$OBSLTYPE
280
     0
  9
$INTERSECTIONDISPLAY
280
     0
  9
$INTERSECTIONCOLOR
 70
   257
  9
$DIMASSOC
280
     2
  9
$PROJECTNAME
  1

  9
$CAMERADISPLAY
290
     0
  9
$LENSLENGTH
 40
50.0
  9
$CAMERAHEIGHT
 40
0.0
  9
$STEPSPERSEC
 40
2.0
  9
$STEPSIZE
 40
6.0
  9
$3DDWFPREC
 40
2.0
  9
$PSOLWIDTH
 40
0.25
  9
$PSOLHEIGHT
 40
4.0
  9
$LOFTANG1
 40
1.570796326794897
  9
$LOFTANG2
 40
1.570796326794897
  9
$LOFTMAG1
 40
0.0
  9
$LOFTMAG2
 40
0.0
  9
$LOFTPARAM
 70
     7
  9
$LOFTNORMALS
280
     1
  9
$LATITUDE
 40
37.795
  9
$LONGITUDE
 40
-122.394
  9
$NORTHDIRECTION
 40
0.0
  9
$TIMEZONE
 70
 -8000
  9
$LIGHTGLYPHDISPLAY
280
     1
  9
$TILEMODELIGHTSYNCH
280
     1
  9
$CMATERIAL
347
3C
  9
$SOLIDHIST
280
     1
  9
$SHOWHIST
280
     1
  9
$DWFFRAME
280
     2
  9
$DGNFRAME
280
     2
  9
$REALWORLDSCALE
290
     1
  9
$INTERFERECOLOR
 62
   256
  9
$CSHADOW
280
     0
  9
$SHADOWPLANELOCATION
 40
0.0
  0
ENDSEC
  0
SECTION
  2
CLASSES
  0
CLASS
  1
ACDBDICTIONARYWDFLT
  2
AcDbDictionaryWithDefault
  3
ObjectDBX Classes
 90
        0
 91
        4
280
     0
281
     0
  0
CLASS
  1
VISUALSTYLE
  2
AcDbVisualStyle
  3
ObjectDBX Classes
 90
     4095
 91
        4
280
     0
281
     0
  0
CLASS
  1
MATERIAL
  2
AcDbMaterial
  3
ObjectDBX Classes
 90
     1153
 91
        4
280
     0
281
     0
  0
CLASS
  1
SUN
  2
AcDbSun
  3
SCENEOE
 90
     1024
 91
        4
280
     0
281
     0
  0
ENDSEC
  0
SECTION
  2
TABLES
  0
TABLE
  2
VPORT
  5
8
330
0
100
AcDbSymbolTable
 70
     1
  0
VPORT
  5
29
330
8
100
AcDbSymbolTableRecord
100
AcDbViewportTableRecord
  2
*Active
 70
     0
 10
0.0
 20
0.0
 11
1.0
 21
1.0
 12
0.0
 22
0.0
 13
0.0
 23
0.0
 14
0.5
 24
0.5
 15
0.5
 25
0.5
 16
0.0
 26
0.0
 36
1.0
 17
959.99999976
 27
539.999999865
 37
0.0
 40
1079.99999973
 41
1.777777777777778
 42
50.0
 43
0.0
 44
0.0
 50
0.0
 51
0.0
 71
     0
 72
   100
 73
     1
 74
     3
 75
     0
 76
     0
 77
     0
 78
     0
281
     0
 65
     1
110
0.0
120
0.0
130
0.0
111
1.0
121
0.0
131
0.0
112
0.0
122
1.0
132
0.0
 79
     0
146
0.0
 60
     3
 61
     5
292
     1
282
     1
141
0.0
142
0.0
 63
   250
361
3F
  0
ENDTAB
  0
TABLE
  2
LTYPE
  5
5
330
0
100
AcDbSymbolTable
 70
     1
  0
LTYPE
  5
14
330
5
100
AcDbSymbolTableRecord
100
AcDbLinetypeTableRecord
  2
ByBlock
 70
     0
  3

 72
    65
 73
     0
 40
0.0
  0
LTYPE
  5
15
330
5
100
AcDbSymbolTableRecord
100
AcDbLinetypeTableRecord
  2
ByLayer
 70
     0
  3

 72
    65
 73
     0
 40
0.0
  0
LTYPE
  5
16
330
5
100
AcDbSymbolTableRecord
100
AcDbLinetypeTableRecord
  2
Continuous
 70
     0
  3
Solid line
 72
    65
 73
     0
 40
0.0
  0
ENDTAB
  0
TABLE
  2
LAYER
  5
2
330
0
100
AcDbSymbolTable
 70
     1
  0
LAYER
  5
10
330
2
100
AcDbSymbolTableRecord
100
AcDbLayerTableRecord
  2
0
 70
     0
 62
     7
  6
Continuous
370
    -3
390
F
347
3E
  0
ENDTAB
  0
TABLE
  2
STYLE
  5
3
330
0
100
AcDbSymbolTable
 70
     1
  0
STYLE
  5
11
330
3
100
AcDbSymbolTableRecord
100
AcDbTextStyleTableRecord
  2
Standard
 70
     0
 40
0.0
 41
1.0
 50
0.0
 71
     0
 42
0.2
  3
txt
  4

  0
ENDTAB
  0
TABLE
  2
VIEW
  5
6
330
0
100
AcDbSymbolTable
 70
     0
  0
ENDTAB
  0
TABLE
  2
UCS
  5
7
330
0
100
AcDbSymbolTable
 70
     0
  0
ENDTAB
  0
TABLE
  2
APPID
  5
9
330
0
100
AcDbSymbolTable
 70
     1
  0
APPID
  5
12
330
9
100
AcDbSymbolTableRecord
100
AcDbRegAppTableRecord
  2
ACAD
 70
     0
  0
ENDTAB
  0
TABLE
  2
DIMSTYLE
  5
A
330
0
100
AcDbSymbolTable
 70
     1
100
AcDbDimStyleTable
  0
DIMSTYLE
105
27
330
A
100
AcDbSymbolTableRecord
100
AcDbDimStyleTableRecord
  2
Standard
 70
     0
178
     0
340
11
  0
ENDTAB
  0
TABLE
  2
BLOCK_RECORD
  5
1
330
0
100
AcDbSymbolTable
 70
    18
  0
BLOCK_RECORD
  5
1F
330
1
100
AcDbSymbolTableRecord
100
AcDbBlockTableRecord
  2
*Model_Space
340
22
 70
     0
280
     1
281
     0
  0
BLOCK_RECORD
  5
1B
330
1
100
AcDbSymbolTableRecord
100
AcDbBlockTableRecord
  2
*Paper_Space
340
1E
 70
     0
280
     1
281
     0
  0
BLOCK_RECORD
  5
23
330
1
100
AcDbSymbolTableRecord
100
AcDbBlockTableRecord
  2
*Paper_Space0
340
26
 70
     0
280
     1
281
     0
  0
BLOCK_RECORD
  5
40
330
1
100
AcDbSymbolTableRecord
100
AcDbBlockTableRecord
  2
block 2
340
0
102
{BLKREFS
331
41
102
}
 70
     0
280
     1
281
     0
  0
BLOCK_RECORD
  5
45
330
1
100
AcDbSymbolTableRecord
100
AcDbBlockTableRecord
  2
block 3
340
0
102
{BLKREFS
331
46
102
}
 70
     0
280
     1
281
     0
  0
BLOCK_RECORD
  5
4A
330
1
100
AcDbSymbolTableRecord
100
AcDbBlockTableRecord
  2
block 4
340
0
102
{BLKREFS
331
4B
102
}
 70
     0
280
     1
281
     0
  0
BLOCK_RECORD
  5
4F
330
1
100
AcDbSymbolTableRecord
100
AcDbBlockTableRecord
  2
block 5
340
0
102
{BLKREFS
331
50
102
}
 70
     0
280
     1
281
     0
  0
BLOCK_RECORD
  5
54
330
1
100
AcDbSymbolTableRecord
100
AcDbBlockTableRecord
  2
block 6
340
0
102
{BLKREFS
331
55
102
}
 70
     0
280
     1
281
     0
  0
BLOCK_RECORD
  5
59
330
1
100
AcDbSymbolTableRecord
100
AcDbBlockTableRecord
  2
block 7
340
0
102
{BLKREFS
331
5A
102
}
 70
     0
280
     1
281
     0
  0
BLOCK_RECORD
  5
5E
330
1
100
AcDbSymbolTableRecord
100
AcDbBlockTableRecord
  2
block 8
340
0
102
{BLKREFS
331
5F
102
}
 70
     0
280
     1
281
     0
  0
BLOCK_RECORD
  5
63
330
1
100
AcDbSymbolTableRecord
100
AcDbBlockTableRecord
  2
block 9
340
0
102
{BLKREFS
331
64
102
}
 70
     0
280
     1
281
     0
  0
BLOCK_RECORD
  5
68
330
1
100
AcDbSymbolTableRecord
100
AcDbBlockTableRecord
  2
block 10
340
0
102
{BLKREFS
331
69
102
}
 70
     0
280
     1
281
     0
  0
BLOCK_RECORD
  5
6D
330
1
100
AcDbSymbolTableRecord
100
AcDbBlockTableRecord
  2
block 11
340
0
102
{BLKREFS
331
6E
102
}
 70
     0
280
     1
281
     0
  0
BLOCK_RECORD
  5
72
330
1
100
AcDbSymbolTableRecord
100
AcDbBlockTableRecord
  2
block 12
340
0
102
{BLKREFS
331
73
102
}
 70
     0
280
     1
281
     0
  0
BLOCK_RECORD
  5
77
330
1
100
AcDbSymbolTableRecord
100
AcDbBlockTableRecord
  2
block 13
340
0
102
{BLKREFS
331
78
102
}
 70
     0
280
     1
281
     0
  0
BLOCK_RECORD
  5
7C
330
1
100
AcDbSymbolTableRecord
100
AcDbBlockTableRecord
  2
block 14
340
0
102
{BLKREFS
331
7D
102
}
 70
     0
280
     1
281
     0
  0
BLOCK_RECORD
  5
81
330
1
100
AcDbSymbolTableRecord
100
AcDbBlockTableRecord
  2
block 15
340
0
102
{BLKREFS
331
82
102
}
 70
     0
280
     1
281
     0
  0
BLOCK_RECORD
  5
86
330
1
100
AcDbSymbolTableRecord
100
AcDbBlockTableRecord
  2
block 16
340
0
102
{BLKREFS
331
87
102
}
 70
     0
280
     1
281
     0
  0
BLOCK_RECORD
  5
8B
330
1
100
AcDbSymbolTableRecord
100
AcDbBlockTableRecord
  2
block 17
340
0
102
{BLKREFS
331
8C
102
}
 70
     0
280
     1
281
     0
  0
BLOCK_RECORD
  5
90
330
1
100
AcDbSymbolTableRecord
100
AcDbBlockTableRecord
  2
block 18
340
0
102
{BLKREFS
331
91
102
}
 70
     0
280
     1
281
     0
  0
ENDTAB
  0
ENDSEC
  0
SECTION
  2
BLOCKS
  0
BLOCK
  5
20
330
1F
100
AcDbEntity
  8
0
100
AcDbBlockBegin
  2
*Model_Space
 70
     0
 10
0.0
 20
0.0
 30
0.0
  3
*Model_Space
  1

  0
ENDBLK
  5
21
330
1F
100
AcDbEntity
  8
0
100
AcDbBlockEnd
  0
BLOCK
  5
1C
330
1B
100
AcDbEntity
 67
     1
  8
0
100
AcDbBlockBegin
  2
*Paper_Space
 70
     0
 10
0.0
 20
0.0
 30
0.0
  3
*Paper_Space
  1

  0
ENDBLK
  5
1D
330
1B
100
AcDbEntity
 67
     1
  8
0
100
AcDbBlockEnd
  0
BLOCK
  5
24
330
23
100
AcDbEntity
  8
0
100
AcDbBlockBegin
  2
*Paper_Space0
 70
     0
 10
0.0
 20
0.0
 30
0.0
  3
*Paper_Space0
  1

  0
ENDBLK
  5
25
330
23
100
AcDbEntity
  8
0
100
AcDbBlockEnd
  0
BLOCK
  5
42
330
40
100
AcDbEntity
  8
0
100
AcDbBlockBegin
  2
block 2
 70
     0
 10
0.0
 20
0.0
 30
0.0
  3
block 2
  1

  0
SPLINE
  5
44
330
40
100
AcDbEntity
  8
0
 62
     7
420
 16777215
370
    25
100
AcDbSpline
210
0.0
220
0.0
230
1.0
 70
    11
 71
     3
 72
    41
 73
    37
 74
     0
 42
0.0000000001
 43
0.0000000001
 12
1.0
 22
0.0
 32
0.0
 13
1.0
 23
0.0
 33
0.0
 40
0.0
 40
0.0
 40
0.0
 40
0.0
 40
1.0
 40
1.0
 40
1.0
 40
2.0
 40
2.0
 40
2.0
 40
3.0
 40
3.0
 40
3.0
 40
4.0
 40
4.0
 40
4.0
 40
5.0
 40
5.0
 40
5.0
 40
6.0
 40
6.0
 40
6.0
 40
7.0
 40
7.0
 40
7.0
 40
8.0
 40
8.0
 40
8.0
 40
9.0
 40
9.0
 40
9.0
 40
10.0
 40
10.0
 40
10.0
 40
11.0
 40
11.0
 40
11.0
 40
12.0
 40
12.0
 40
12.0
 40
12.0
 10
971.6108978452681
 20
489.7405948083989
 30
0.0
 10
971.6108978452681
 20
489.7405948083989
 30
0.0
 10
971.610897844797
 20
479.2155948110287
 30
0.0
 10
971.610897844797
 20
479.2155948110287
 30
0.0
 10
971.610897844797
 20
479.2155948110287
 30
0.0
 10
1114.988438052844
 20
479.2155948045931
 30
0.0
 10
1114.988438052844
 20
479.2155948045931
 30
0.0
 10
1117.749861801308
 20
479.2155948044694
 30
0.0
 10
1119.988438051692
 20
481.4541710546536
 30
0.0
 10
1119.988438051818
 20
484.2155948031175
 30
0.0
 10
1119.988438051818
 20
484.2155948031175
 30
0.0
 10
1119.988438056826
 20
595.784404912516
 30
0.0
 10
1119.988438056826
 20
595.784404912516
 30
0.0
 10
1119.988438056951
 20
598.5458286609801
 30
0.0
 10
1117.749861806765
 20
600.7844049113661
 30
0.0
 10
1114.988438058301
 20
600.7844049114907
 30
0.0
 10
1114.988438058301
 20
600.7844049114907
 30
0.0
 10
805.011561467156
 20
600.7844049254069
 30
0.0
 10
805.011561467156
 20
600.7844049254069
 30
0.0
 10
802.2501377186919
 20
600.7844049255315
 30
0.0
 10
800.0115614683059
 20
598.5458286753455
 30
0.0
 10
800.0115614681822
 20
595.7844049268815
 30
0.0
 10
800.0115614681822
 20
595.7844049268815
 30
0.0
 10
800.0115614631727
 20
484.2155948174839
 30
0.0
 10
800.0115614631727
 20
484.2155948174839
 30
0.0
 10
800.011561463049
 20
481.4541710690199
 30
0.0
 10
802.2501377132331
 20
479.215594818632
 30
0.0
 10
805.0115614616972
 20
479.2155948185084
 30
0.0
 10
805.0115614616972
 20
479.2155948185084
 30
0.0
 10
959.5008646337013
 20
479.2155948115744
 30
0.0
 10
959.5008646337013
 20
479.2155948115744
 30
0.0
 10
959.5008646337013
 20
479.2155948115744
 30
0.0
 10
959.5008646341743
 20
489.740594808941
 30
0.0
 10
959.5008646341743
 20
489.740594808941
 30
0.0
 10
959.5008646341743
 20
489.740594808941
 30
0.0
 10
971.6108978452681
 20
489.7405948083989
 30
0.0
 10
971.6108978452681
 20
489.7405948083989
 30
0.0
  0
ENDBLK
  5
43
330
40
100
AcDbEntity
  8
0
100
AcDbBlockEnd
  0
BLOCK
  5
47
330
45
100
AcDbEntity
  8
0
100
AcDbBlockBegin
  2
block 3
 70
     0
 10
0.0
 20
0.0
 30
0.0
  3
block 3
  1

  0
SPLINE
  5
49
330
45
100
AcDbEntity
  8
0
 62
     7
420
 16777215
370
    25
100
AcDbSpline
210
0.0
220
0.0
230
1.0
 70
    11
 71
     3
 72
    20
 73
    16
 74
     0
 42
0.0000000001
 43
0.0000000001
 12
1.0
 22
0.0
 32
0.0
 13
1.0
 23
0.0
 33
0.0
 40
0.0
 40
0.0
 40
0.0
 40
0.0
 40
1.0
 40
1.0
 40
1.0
 40
2.0
 40
2.0
 40
2.0
 40
3.0
 40
3.0
 40
3.0
 40
4.0
 40
4.0
 40
4.0
 40
5.0
 40
5.0
 40
5.0
 40
5.0
 10
898.9499381095825
 20
509.2155948040507
 30
0.0
 10
898.9499381095825
 20
509.7954937912277
 30
0.0
 10
899.4200391221432
 20
510.2655948037875
 30
0.0
 10
899.9999381093202
 20
510.2655948037875
 30
0.0
 10
900.5798370964972
 20
510.2655948037875
 30
0.0
 10
901.0499381090578
 20
509.7954937912277
 30
0.0
 10
901.0499381090578
 20
509.2155948040507
 30
0.0
 10
901.0499381090578
 20
508.6356958168737
 30
0.0
 10
900.5798370964972
 20
508.1655948043121
 30
0.0
 10
899.9999381093202
 20
508.1655948043121
 30
0.0
 10
899.4200391221432
 20
508.1655948043121
 30
0.0
 10
898.9499381095825
 20
508.6356958168737
 30
0.0
 10
898.9499381095825
 20
509.2155948040507
 30
0.0
 10
898.9499381095825
 20
509.2155948040507
 30
0.0
 10
898.9499381095825
 20
509.2155948040507
 30
0.0
 10
898.9499381095825
 20
509.2155948040507
 30
0.0
  0
ENDBLK
  5
48
330
45
100
AcDbEntity
  8
0
100
AcDbBlockEnd
  0
BLOCK
  5
4C
330
4A
100
AcDbEntity
  8
0
100
AcDbBlockBegin
  2
block 4
 70
     0
 10
0.0
 20
0.0
 30
0.0
  3
block 4
  1

  0
SPLINE
  5
4E
330
4A
100
AcDbEntity
  8
0
 62
     7
420
 16777215
370
    25
100
AcDbSpline
210
0.0
220
0.0
230
1.0
 70
    11
 71
     3
 72
    20
 73
    16
 74
     0
 42
0.0000000001
 43
0.0000000001
 12
1.0
 22
0.0
 32
0.0
 13
1.0
 23
0.0
 33
0.0
 40
0.0
 40
0.0
 40
0.0
 40
0.0
 40
1.0
 40
1.0
 40
1.0
 40
2.0
 40
2.0
 40
2.0
 40
3.0
 40
3.0
 40
3.0
 40
4.0
 40
4.0
 40
4.0
 40
5.0
 40
5.0
 40
5.0
 40
5.0
 10
1092.949938061083
 20
494.2155948078008
 30
0.0
 10
1092.949938061083
 20
495.3477785446701
 30
0.0
 10
1093.867754323699
 20
496.2655948072875
 30
0.0
 10
1094.99993806057
 20
496.2655948072875
 30
0.0
 10
1096.13212179744
 20
496.2655948072875
 30
0.0
 10
1097.049938060057
 20
495.3477785446701
 30
0.0
 10
1097.049938060057
 20
494.2155948078008
 30
0.0
 10
1097.049938060057
 20
493.0834110709313
 30
0.0
 10
1096.13212179744
 20
492.1655948083122
 30
0.0
 10
1094.99993806057
 20
492.1655948083122
 30
0.0
 10
1093.867754323699
 20
492.1655948083122
 30
0.0
 10
1092.949938061083
 20
493.0834110709313
 30
0.0
 10
1092.949938061083
 20
494.2155948078008
 30
0.0
 10
1092.949938061083
 20
494.2155948078008
 30
0.0
 10
1092.949938061083
 20
494.2155948078008
 30
0.0
 10
1092.949938061083
 20
494.2155948078008
 30
0.0
  0
ENDBLK
  5
4D
330
4A
100
AcDbEntity
  8
0
100
AcDbBlockEnd
  0
BLOCK
  5
51
330
4F
100
AcDbEntity
  8
0
100
AcDbBlockBegin
  2
block 5
 70
     0
 10
0.0
 20
0.0
 30
0.0
  3
block 5
  1

  0
SPLINE
  5
53
330
4F
100
AcDbEntity
  8
0
 62
     7
420
 16777215
370
    25
100
AcDbSpline
210
0.0
220
0.0
230
1.0
 70
    11
 71
     3
 72
    20
 73
    16
 74
     0
 42
0.0000000001
 43
0.0000000001
 12
1.0
 22
0.0
 32
0.0
 13
1.0
 23
0.0
 33
0.0
 40
0.0
 40
0.0
 40
0.0
 40
0.0
 40
1.0
 40
1.0
 40
1.0
 40
2.0
 40
2.0
 40
2.0
 40
3.0
 40
3.0
 40
3.0
 40
4.0
 40
4.0
 40
4.0
 40
5.0
 40
5.0
 40
5.0
 40
5.0
 10
838.9499381245824
 20
509.2155948040507
 30
0.0
 10
838.9499381245824
 20
509.7954937912277
 30
0.0
 10
839.4200391371432
 20
510.2655948037875
 30
0.0
 10
839.9999381243201
 20
510.2655948037875
 30
0.0
 10
840.5798371114971
 20
510.2655948037875
 30
0.0
 10
841.0499381240578
 20
509.7954937912277
 30
0.0
 10
841.0499381240578
 20
509.2155948040507
 30
0.0
 10
841.0499381240578
 20
508.6356958168737
 30
0.0
 10
840.5798371114971
 20
508.1655948043121
 30
0.0
 10
839.9999381243201
 20
508.1655948043121
 30
0.0
 10
839.4200391371432
 20
508.1655948043121
 30
0.0
 10
838.9499381245824
 20
508.6356958168737
 30
0.0
 10
838.9499381245824
 20
509.2155948040507
 30
0.0
 10
838.9499381245824
 20
509.2155948040507
 30
0.0
 10
838.9499381245824
 20
509.2155948040507
 30
0.0
 10
838.9499381245824
 20
509.2155948040507
 30
0.0
  0
ENDBLK
  5
52
330
4F
100
AcDbEntity
  8
0
100
AcDbBlockEnd
  0
BLOCK
  5
56
330
54
100
AcDbEntity
  8
0
100
AcDbBlockBegin
  2
block 6
 70
     0
 10
0.0
 20
0.0
 30
0.0
  3
block 6
  1

  0
SPLINE
  5
58
330
54
100
AcDbEntity
  8
0
 62
     7
420
 16777215
370
    25
100
AcDbSpline
210
0.0
220
0.0
230
1.0
 70
    11
 71
     3
 72
    20
 73
    16
 74
     0
 42
0.0000000001
 43
0.0000000001
 12
1.0
 22
0.0
 32
0.0
 13
1.0
 23
0.0
 33
0.0
 40
0.0
 40
0.0
 40
0.0
 40
0.0
 40
1.0
 40
1.0
 40
1.0
 40
2.0
 40
2.0
 40
2.0
 40
3.0
 40
3.0
 40
3.0
 40
4.0
 40
4.0
 40
4.0
 40
5.0
 40
5.0
 40
5.0
 40
5.0
 10
1018.949938079583
 20
509.2155948040507
 30
0.0
 10
1018.949938079583
 20
509.7954937912277
 30
0.0
 10
1019.420039092143
 20
510.2655948037875
 30
0.0
 10
1019.99993807932
 20
510.2655948037875
 30
0.0
 10
1020.579837066497
 20
510.2655948037875
 30
0.0
 10
1021.049938079057
 20
509.7954937912277
 30
0.0
 10
1021.049938079057
 20
509.2155948040507
 30
0.0
 10
1021.049938079057
 20
508.6356958168737
 30
0.0
 10
1020.579837066497
 20
508.1655948043121
 30
0.0
 10
1019.99993807932
 20
508.1655948043121
 30
0.0
 10
1019.420039092143
 20
508.1655948043121
 30
0.0
 10
1018.949938079583
 20
508.6356958168737
 30
0.0
 10
1018.949938079583
 20
509.2155948040507
 30
0.0
 10
1018.949938079583
 20
509.2155948040507
 30
0.0
 10
1018.949938079583
 20
509.2155948040507
 30
0.0
 10
1018.949938079583
 20
509.2155948040507
 30
0.0
  0
ENDBLK
  5
57
330
54
100
AcDbEntity
  8
0
100
AcDbBlockEnd
  0
BLOCK
  5
5B
330
59
100
AcDbEntity
  8
0
100
AcDbBlockBegin
  2
block 7
 70
     0
 10
0.0
 20
0.0
 30
0.0
  3
block 7
  1

  0
SPLINE
  5
5D
330
59
100
AcDbEntity
  8
0
 62
     7
420
 16777215
370
    25
100
AcDbSpline
210
0.0
220
0.0
230
1.0
 70
    11
 71
     3
 72
    20
 73
    16
 74
     0
 42
0.0000000001
 43
0.0000000001
 12
1.0
 22
0.0
 32
0.0
 13
1.0
 23
0.0
 33
0.0
 40
0.0
 40
0.0
 40
0.0
 40
0.0
 40
1.0
 40
1.0
 40
1.0
 40
2.0
 40
2.0
 40
2.0
 40
3.0
 40
3.0
 40
3.0
 40
4.0
 40
4.0
 40
4.0
 40
5.0
 40
5.0
 40
5.0
 40
5.0
 10
1078.949938064583
 20
509.2155948040507
 30
0.0
 10
1078.949938064583
 20
509.7954937912277
 30
0.0
 10
1079.420039077143
 20
510.2655948037875
 30
0.0
 10
1079.99993806432
 20
510.2655948037875
 30
0.0
 10
1080.579837051497
 20
510.2655948037875
 30
0.0
 10
1081.049938064057
 20
509.7954937912277
 30
0.0
 10
1081.049938064057
 20
509.2155948040507
 30
0.0
 10
1081.049938064057
 20
508.6356958168737
 30
0.0
 10
1080.579837051497
 20
508.1655948043121
 30
0.0
 10
1079.99993806432
 20
508.1655948043121
 30
0.0
 10
1079.420039077143
 20
508.1655948043121
 30
0.0
 10
1078.949938064583
 20
508.6356958168737
 30
0.0
 10
1078.949938064583
 20
509.2155948040507
 30
0.0
 10
1078.949938064583
 20
509.2155948040507
 30
0.0
 10
1078.949938064583
 20
509.2155948040507
 30
0.0
 10
1078.949938064583
 20
509.2155948040507
 30
0.0
  0
ENDBLK
  5
5C
330
59
100
AcDbEntity
  8
0
100
AcDbBlockEnd
  0
BLOCK
  5
60
330
5E
100
AcDbEntity
  8
0
100
AcDbBlockBegin
  2
block 8
 70
     0
 10
0.0
 20
0.0
 30
0.0
  3
block 8
  1

  0
SPLINE
  5
62
330
5E
100
AcDbEntity
  8
0
 62
     7
420
 16777215
370
    25
100
AcDbSpline
210
0.0
220
0.0
230
1.0
 70
    11
 71
     3
 72
    20
 73
    16
 74
     0
 42
0.0000000001
 43
0.0000000001
 12
1.0
 22
0.0
 32
0.0
 13
1.0
 23
0.0
 33
0.0
 40
0.0
 40
0.0
 40
0.0
 40
0.0
 40
1.0
 40
1.0
 40
1.0
 40
2.0
 40
2.0
 40
2.0
 40
3.0
 40
3.0
 40
3.0
 40
4.0
 40
4.0
 40
4.0
 40
5.0
 40
5.0
 40
5.0
 40
5.0
 10
822.9499381285825
 20
494.2155948078008
 30
0.0
 10
822.9499381285825
 20
495.3477785446701
 30
0.0
 10
823.8677543911998
 20
496.2655948072875
 30
0.0
 10
824.9999381280702
 20
496.2655948072875
 30
0.0
 10
826.1321218649405
 20
496.2655948072875
 30
0.0
 10
827.0499381275579
 20
495.3477785446701
 30
0.0
 10
827.0499381275579
 20
494.2155948078008
 30
0.0
 10
827.0499381275579
 20
493.0834110709313
 30
0.0
 10
826.1321218649405
 20
492.1655948083122
 30
0.0
 10
824.9999381280702
 20
492.1655948083122
 30
0.0
 10
823.8677543911998
 20
492.1655948083122
 30
0.0
 10
822.9499381285825
 20
493.0834110709313
 30
0.0
 10
822.9499381285825
 20
494.2155948078008
 30
0.0
 10
822.9499381285825
 20
494.2155948078008
 30
0.0
 10
822.9499381285825
 20
494.2155948078008
 30
0.0
 10
822.9499381285825
 20
494.2155948078008
 30
0.0
  0
ENDBLK
  5
61
330
5E
100
AcDbEntity
  8
0
100
AcDbBlockEnd
  0
BLOCK
  5
65
330
63
100
AcDbEntity
  8
0
100
AcDbBlockBegin
  2
block 9
 70
     0
 10
0.0
 20
0.0
 30
0.0
  3
block 9
  1

  0
SPLINE
  5
67
330
63
100
AcDbEntity
  8
0
 62
     7
420
 16777215
370
    25
100
AcDbSpline
210
0.0
220
0.0
230
1.0
 70
    11
 71
     3
 72
    20
 73
    16
 74
     0
 42
0.0000000001
 43
0.0000000001
 12
1.0
 22
0.0
 32
0.0
 13
1.0
 23
0.0
 33
0.0
 40
0.0
 40
0.0
 40
0.0
 40
0.0
 40
1.0
 40
1.0
 40
1.0
 40
2.0
 40
2.0
 40
2.0
 40
3.0
 40
3.0
 40
3.0
 40
4.0
 40
4.0
 40
4.0
 40
5.0
 40
5.0
 40
5.0
 40
5.0
 10
961.4996348833165
 20
569.1623740260001
 30
0.0
 10
961.4996348833165
 20
570.543085900232
 30
0.0
 10
962.6189230084613
 20
571.662374025375
 30
0.0
 10
963.9996348826915
 20
571.662374025375
 30
0.0
 10
965.3803467569235
 20
571.662374025375
 30
0.0
 10
966.4996348820665
 20
570.543085900232
 30
0.0
 10
966.4996348820665
 20
569.1623740260001
 30
0.0
 10
966.4996348820665
 20
567.781662151769
 30
0.0
 10
965.3803467569235
 20
566.662374026625
 30
0.0
 10
963.9996348826915
 20
566.662374026625
 30
0.0
 10
962.6189230084613
 20
566.662374026625
 30
0.0
 10
961.4996348833165
 20
567.781662151769
 30
0.0
 10
961.4996348833165
 20
569.1623740260001
 30
0.0
 10
961.4996348833165
 20
569.1623740260001
 30
0.0
 10
961.4996348833165
 20
569.1623740260001
 30
0.0
 10
961.4996348833165
 20
569.1623740260001
 30
0.0
  0
ENDBLK
  5
66
330
63
100
AcDbEntity
  8
0
100
AcDbBlockEnd
  0
BLOCK
  5
6A
330
68
100
AcDbEntity
  8
0
100
AcDbBlockBegin
  2
block 10
 70
     0
 10
0.0
 20
0.0
 30
0.0
  3
block 10
  1

  0
SPLINE
  5
6C
330
68
100
AcDbEntity
  8
0
 62
     7
420
 16777215
370
    25
100
AcDbSpline
210
0.0
220
0.0
230
1.0
 70
    11
 71
     3
 72
    20
 73
    16
 74
     0
 42
0.0000000001
 43
0.0000000001
 12
1.0
 22
0.0
 32
0.0
 13
1.0
 23
0.0
 33
0.0
 40
0.0
 40
0.0
 40
0.0
 40
0.0
 40
1.0
 40
1.0
 40
1.0
 40
2.0
 40
2.0
 40
2.0
 40
3.0
 40
3.0
 40
3.0
 40
4.0
 40
4.0
 40
4.0
 40
5.0
 40
5.0
 40
5.0
 40
5.0
 10
905.955780606351
 20
483.7405948104191
 30
0.0
 10
905.955780606351
 20
484.3204937975961
 30
0.0
 10
906.4258816189117
 20
484.7905948101577
 30
0.0
 10
907.0057806060887
 20
484.7905948101577
 30
0.0
 10
907.5856795932657
 20
484.7905948101577
 30
0.0
 10
908.0557806058264
 20
484.3204937975961
 30
0.0
 10
908.0557806058264
 20
483.7405948104191
 30
0.0
 10
908.0557806058264
 20
483.1606958232422
 30
0.0
 10
907.5856795932657
 20
482.6905948106823
 30
0.0
 10
907.0057806060887
 20
482.6905948106823
 30
0.0
 10
906.4258816189117
 20
482.6905948106823
 30
0.0
 10
905.955780606351
 20
483.1606958232422
 30
0.0
 10
905.955780606351
 20
483.7405948104191
 30
0.0
 10
905.955780606351
 20
483.7405948104191
 30
0.0
 10
905.955780606351
 20
483.7405948104191
 30
0.0
 10
905.955780606351
 20
483.7405948104191
 30
0.0
  0
ENDBLK
  5
6B
330
68
100
AcDbEntity
  8
0
100
AcDbBlockEnd
  0
BLOCK
  5
6F
330
6D
100
AcDbEntity
  8
0
100
AcDbBlockBegin
  2
block 11
 70
     0
 10
0.0
 20
0.0
 30
0.0
  3
block 11
  1

  0
SPLINE
  5
71
330
6D
100
AcDbEntity
  8
0
 62
     7
420
 16777215
370
    25
100
AcDbSpline
210
0.0
220
0.0
230
1.0
 70
    11
 71
     3
 72
    20
 73
    16
 74
     0
 42
0.0000000001
 43
0.0000000001
 12
1.0
 22
0.0
 32
0.0
 13
1.0
 23
0.0
 33
0.0
 40
0.0
 40
0.0
 40
0.0
 40
0.0
 40
1.0
 40
1.0
 40
1.0
 40
2.0
 40
2.0
 40
2.0
 40
3.0
 40
3.0
 40
3.0
 40
4.0
 40
4.0
 40
4.0
 40
5.0
 40
5.0
 40
5.0
 40
5.0
 10
1011.944218914174
 20
596.2594049195809
 30
0.0
 10
1011.944218914174
 20
596.8393039067578
 30
0.0
 10
1012.414319926734
 20
597.3094049193186
 30
0.0
 10
1012.994218913911
 20
597.3094049193186
 30
0.0
 10
1013.574117901088
 20
597.3094049193186
 30
0.0
 10
1014.04421891365
 20
596.8393039067578
 30
0.0
 10
1014.04421891365
 20
596.2594049195809
 30
0.0
 10
1014.04421891365
 20
595.6795059324039
 30
0.0
 10
1013.574117901088
 20
595.2094049198432
 30
0.0
 10
1012.994218913911
 20
595.2094049198432
 30
0.0
 10
1012.414319926734
 20
595.2094049198432
 30
0.0
 10
1011.944218914174
 20
595.6795059324039
 30
0.0
 10
1011.944218914174
 20
596.2594049195809
 30
0.0
 10
1011.944218914174
 20
596.2594049195809
 30
0.0
 10
1011.944218914174
 20
596.2594049195809
 30
0.0
 10
1011.944218914174
 20
596.2594049195809
 30
0.0
  0
ENDBLK
  5
70
330
6D
100
AcDbEntity
  8
0
100
AcDbBlockEnd
  0
BLOCK
  5
74
330
72
100
AcDbEntity
  8
0
100
AcDbBlockBegin
  2
block 12
 70
     0
 10
0.0
 20
0.0
 30
0.0
  3
block 12
  1

  0
SPLINE
  5
76
330
72
100
AcDbEntity
  8
0
 62
     7
420
 16777215
370
    25
100
AcDbSpline
210
0.0
220
0.0
230
1.0
 70
    11
 71
     3
 72
    20
 73
    16
 74
     0
 42
0.0000000001
 43
0.0000000001
 12
1.0
 22
0.0
 32
0.0
 13
1.0
 23
0.0
 33
0.0
 40
0.0
 40
0.0
 40
0.0
 40
0.0
 40
1.0
 40
1.0
 40
1.0
 40
2.0
 40
2.0
 40
2.0
 40
3.0
 40
3.0
 40
3.0
 40
4.0
 40
4.0
 40
4.0
 40
5.0
 40
5.0
 40
5.0
 40
5.0
 10
905.955780606351
 20
596.2594049195809
 30
0.0
 10
905.955780606351
 20
596.8393039067578
 30
0.0
 10
906.4258816189117
 20
597.3094049193186
 30
0.0
 10
907.0057806060887
 20
597.3094049193186
 30
0.0
 10
907.5856795932657
 20
597.3094049193186
 30
0.0
 10
908.0557806058264
 20
596.8393039067578
 30
0.0
 10
908.0557806058264
 20
596.2594049195809
 30
0.0
 10
908.0557806058264
 20
595.6795059324039
 30
0.0
 10
907.5856795932657
 20
595.2094049198432
 30
0.0
 10
907.0057806060887
 20
595.2094049198432
 30
0.0
 10
906.4258816189117
 20
595.2094049198432
 30
0.0
 10
905.955780606351
 20
595.6795059324039
 30
0.0
 10
905.955780606351
 20
596.2594049195809
 30
0.0
 10
905.955780606351
 20
596.2594049195809
 30
0.0
 10
905.955780606351
 20
596.2594049195809
 30
0.0
 10
905.955780606351
 20
596.2594049195809
 30
0.0
  0
ENDBLK
  5
75
330
72
100
AcDbEntity
  8
0
100
AcDbBlockEnd
  0
BLOCK
  5
79
330
77
100
AcDbEntity
  8
0
100
AcDbBlockBegin
  2
block 13
 70
     0
 10
0.0
 20
0.0
 30
0.0
  3
block 13
  1

  0
SPLINE
  5
7B
330
77
100
AcDbEntity
  8
0
 62
     7
420
 16777215
370
    25
100
AcDbSpline
210
0.0
220
0.0
230
1.0
 70
    11
 71
     3
 72
    20
 73
    16
 74
     0
 42
0.0000000001
 43
0.0000000001
 12
1.0
 22
0.0
 32
0.0
 13
1.0
 23
0.0
 33
0.0
 40
0.0
 40
0.0
 40
0.0
 40
0.0
 40
1.0
 40
1.0
 40
1.0
 40
2.0
 40
2.0
 40
2.0
 40
3.0
 40
3.0
 40
3.0
 40
4.0
 40
4.0
 40
4.0
 40
5.0
 40
5.0
 40
5.0
 40
5.0
 10
1011.944218914174
 20
483.7405948104191
 30
0.0
 10
1011.944218914174
 20
484.3204937975961
 30
0.0
 10
1012.414319926734
 20
484.7905948101577
 30
0.0
 10
1012.994218913911
 20
484.7905948101577
 30
0.0
 10
1013.574117901088
 20
484.7905948101577
 30
0.0
 10
1014.04421891365
 20
484.3204937975961
 30
0.0
 10
1014.04421891365
 20
483.7405948104191
 30
0.0
 10
1014.04421891365
 20
483.1606958232422
 30
0.0
 10
1013.574117901088
 20
482.6905948106823
 30
0.0
 10
1012.994218913911
 20
482.6905948106823
 30
0.0
 10
1012.414319926734
 20
482.6905948106823
 30
0.0
 10
1011.944218914174
 20
483.1606958232422
 30
0.0
 10
1011.944218914174
 20
483.7405948104191
 30
0.0
 10
1011.944218914174
 20
483.7405948104191
 30
0.0
 10
1011.944218914174
 20
483.7405948104191
 30
0.0
 10
1011.944218914174
 20
483.7405948104191
 30
0.0
  0
ENDBLK
  5
7A
330
77
100
AcDbEntity
  8
0
100
AcDbBlockEnd
  0
BLOCK
  5
7E
330
7C
100
AcDbEntity
  8
0
100
AcDbBlockBegin
  2
block 14
 70
     0
 10
0.0
 20
0.0
 30
0.0
  3
block 14
  1

  0
SPLINE
  5
80
330
7C
100
AcDbEntity
  8
0
 62
     7
420
 16777215
370
    25
100
AcDbSpline
210
0.0
220
0.0
230
1.0
 70
    11
 71
     3
 72
    20
 73
    16
 74
     0
 42
0.0000000001
 43
0.0000000001
 12
1.0
 22
0.0
 32
0.0
 13
1.0
 23
0.0
 33
0.0
 40
0.0
 40
0.0
 40
0.0
 40
0.0
 40
1.0
 40
1.0
 40
1.0
 40
2.0
 40
2.0
 40
2.0
 40
3.0
 40
3.0
 40
3.0
 40
4.0
 40
4.0
 40
4.0
 40
5.0
 40
5.0
 40
5.0
 40
5.0
 10
804.486561464559
 20
483.7405948104191
 30
0.0
 10
804.486561464559
 20
484.3204937975961
 30
0.0
 10
804.9566624771188
 20
484.7905948101577
 30
0.0
 10
805.5365614642958
 20
484.7905948101577
 30
0.0
 10
806.1164604514737
 20
484.7905948101577
 30
0.0
 10
806.5865614640335
 20
484.3204937975961
 30
0.0
 10
806.5865614640335
 20
483.7405948104191
 30
0.0
 10
806.5865614640335
 20
483.1606958232422
 30
0.0
 10
806.1164604514737
 20
482.6905948106823
 30
0.0
 10
805.5365614642958
 20
482.6905948106823
 30
0.0
 10
804.9566624771188
 20
482.6905948106823
 30
0.0
 10
804.486561464559
 20
483.1606958232422
 30
0.0
 10
804.486561464559
 20
483.7405948104191
 30
0.0
 10
804.486561464559
 20
483.7405948104191
 30
0.0
 10
804.486561464559
 20
483.7405948104191
 30
0.0
 10
804.486561464559
 20
483.7405948104191
 30
0.0
  0
ENDBLK
  5
7F
330
7C
100
AcDbEntity
  8
0
100
AcDbBlockEnd
  0
BLOCK
  5
83
330
81
100
AcDbEntity
  8
0
100
AcDbBlockBegin
  2
block 15
 70
     0
 10
0.0
 20
0.0
 30
0.0
  3
block 15
  1

  0
SPLINE
  5
85
330
81
100
AcDbEntity
  8
0
 62
     7
420
 16777215
370
    25
100
AcDbSpline
210
0.0
220
0.0
230
1.0
 70
    11
 71
     3
 72
    20
 73
    16
 74
     0
 42
0.0000000001
 43
0.0000000001
 12
1.0
 22
0.0
 32
0.0
 13
1.0
 23
0.0
 33
0.0
 40
0.0
 40
0.0
 40
0.0
 40
0.0
 40
1.0
 40
1.0
 40
1.0
 40
2.0
 40
2.0
 40
2.0
 40
3.0
 40
3.0
 40
3.0
 40
4.0
 40
4.0
 40
4.0
 40
5.0
 40
5.0
 40
5.0
 40
5.0
 10
1113.413438055967
 20
596.2594049195809
 30
0.0
 10
1113.413438055967
 20
596.8393039067578
 30
0.0
 10
1113.883539068527
 20
597.3094049193186
 30
0.0
 10
1114.463438055704
 20
597.3094049193186
 30
0.0
 10
1115.043337042881
 20
597.3094049193186
 30
0.0
 10
1115.513438055441
 20
596.8393039067578
 30
0.0
 10
1115.513438055441
 20
596.2594049195809
 30
0.0
 10
1115.513438055441
 20
595.6795059324039
 30
0.0
 10
1115.043337042881
 20
595.2094049198432
 30
0.0
 10
1114.463438055704
 20
595.2094049198432
 30
0.0
 10
1113.883539068527
 20
595.2094049198432
 30
0.0
 10
1113.413438055967
 20
595.6795059324039
 30
0.0
 10
1113.413438055967
 20
596.2594049195809
 30
0.0
 10
1113.413438055967
 20
596.2594049195809
 30
0.0
 10
1113.413438055967
 20
596.2594049195809
 30
0.0
 10
1113.413438055967
 20
596.2594049195809
 30
0.0
  0
ENDBLK
  5
84
330
81
100
AcDbEntity
  8
0
100
AcDbBlockEnd
  0
BLOCK
  5
88
330
86
100
AcDbEntity
  8
0
100
AcDbBlockBegin
  2
block 16
 70
     0
 10
0.0
 20
0.0
 30
0.0
  3
block 16
  1

  0
SPLINE
  5
8A
330
86
100
AcDbEntity
  8
0
 62
     7
420
 16777215
370
    25
100
AcDbSpline
210
0.0
220
0.0
230
1.0
 70
    11
 71
     3
 72
    20
 73
    16
 74
     0
 42
0.0000000001
 43
0.0000000001
 12
1.0
 22
0.0
 32
0.0
 13
1.0
 23
0.0
 33
0.0
 40
0.0
 40
0.0
 40
0.0
 40
0.0
 40
1.0
 40
1.0
 40
1.0
 40
2.0
 40
2.0
 40
2.0
 40
3.0
 40
3.0
 40
3.0
 40
4.0
 40
4.0
 40
4.0
 40
5.0
 40
5.0
 40
5.0
 40
5.0
 10
804.486561464559
 20
596.2594049195809
 30
0.0
 10
804.486561464559
 20
596.8393039067578
 30
0.0
 10
804.9566624771188
 20
597.3094049193186
 30
0.0
 10
805.5365614642958
 20
597.3094049193186
 30
0.0
 10
806.1164604514737
 20
597.3094049193186
 30
0.0
 10
806.5865614640335
 20
596.8393039067578
 30
0.0
 10
806.5865614640335
 20
596.2594049195809
 30
0.0
 10
806.5865614640335
 20
595.6795059324039
 30
0.0
 10
806.1164604514737
 20
595.2094049198432
 30
0.0
 10
805.5365614642958
 20
595.2094049198432
 30
0.0
 10
804.9566624771188
 20
595.2094049198432
 30
0.0
 10
804.486561464559
 20
595.6795059324039
 30
0.0
 10
804.486561464559
 20
596.2594049195809
 30
0.0
 10
804.486561464559
 20
596.2594049195809
 30
0.0
 10
804.486561464559
 20
596.2594049195809
 30
0.0
 10
804.486561464559
 20
596.2594049195809
 30
0.0
  0
ENDBLK
  5
89
330
86
100
AcDbEntity
  8
0
100
AcDbBlockEnd
  0
BLOCK
  5
8D
330
8B
100
AcDbEntity
  8
0
100
AcDbBlockBegin
  2
block 17
 70
     0
 10
0.0
 20
0.0
 30
0.0
  3
block 17
  1

  0
SPLINE
  5
8F
330
8B
100
AcDbEntity
  8
0
 62
     7
420
 16777215
370
    25
100
AcDbSpline
210
0.0
220
0.0
230
1.0
 70
    11
 71
     3
 72
    20
 73
    16
 74
     0
 42
0.0000000001
 43
0.0000000001
 12
1.0
 22
0.0
 32
0.0
 13
1.0
 23
0.0
 33
0.0
 40
0.0
 40
0.0
 40
0.0
 40
0.0
 40
1.0
 40
1.0
 40
1.0
 40
2.0
 40
2.0
 40
2.0
 40
3.0
 40
3.0
 40
3.0
 40
4.0
 40
4.0
 40
4.0
 40
5.0
 40
5.0
 40
5.0
 40
5.0
 10
1113.413438055967
 20
483.7405948104191
 30
0.0
 10
1113.413438055967
 20
484.3204937975961
 30
0.0
 10
1113.883539068527
 20
484.7905948101577
 30
0.0
 10
1114.463438055704
 20
484.7905948101577
 30
0.0
 10
1115.043337042881
 20
484.7905948101577
 30
0.0
 10
1115.513438055441
 20
484.3204937975961
 30
0.0
 10
1115.513438055441
 20
483.7405948104191
 30
0.0
 10
1115.513438055441
 20
483.1606958232422
 30
0.0
 10
1115.043337042881
 20
482.6905948106823
 30
0.0
 10
1114.463438055704
 20
482.6905948106823
 30
0.0
 10
1113.883539068527
 20
482.6905948106823
 30
0.0
 10
1113.413438055967
 20
483.1606958232422
 30
0.0
 10
1113.413438055967
 20
483.7405948104191
 30
0.0
 10
1113.413438055967
 20
483.7405948104191
 30
0.0
 10
1113.413438055967
 20
483.7405948104191
 30
0.0
 10
1113.413438055967
 20
483.7405948104191
 30
0.0
  0
ENDBLK
  5
8E
330
8B
100
AcDbEntity
  8
0
100
AcDbBlockEnd
  0
BLOCK
  5
92
330
90
100
AcDbEntity
  8
0
100
AcDbBlockBegin
  2
block 18
 70
     0
 10
0.0
 20
0.0
 30
0.0
  3
block 18
  1

  0
POLYLINE
  5
94
330
90
100
AcDbEntity
  8
0
 62
   240
420
 15539236
370
    35
100
AcDb2dPolyline
 66
     1
 10
0.0
 20
0.0
 30
0.0
  0
VERTEX
  5
95
330
94
100
AcDbEntity
  8
0
 62
   240
420
 15539236
370
    35
100
AcDbVertex
100
AcDb2dVertex
 10
811.8789060470302
 20
606.99999984825
 30
0.0
  0
VERTEX
  5
96
330
94
100
AcDbEntity
  8
0
 62
   240
420
 15539236
370
    35
100
AcDbVertex
100
AcDb2dVertex
 10
811.8789060470302
 20
615.5898435961026
 30
0.0
  0
VERTEX
  5
97
330
94
100
AcDbEntity
  8
0
 62
   240
420
 15539236
370
    35
100
AcDbVertex
100
AcDb2dVertex
 10
813.0156247967461
 20
615.5898435961026
 30
0.0
  0
VERTEX
  5
98
330
94
100
AcDbEntity
  8
0
 62
   240
420
 15539236
370
    35
100
AcDbVertex
100
AcDb2dVertex
 10
813.0156247967461
 20
608.0136717229966
 30
0.0
  0
VERTEX
  5
99
330
94
100
AcDbEntity
  8
0
 62
   240
420
 15539236
370
    35
100
AcDbVertex
100
AcDb2dVertex
 10
817.2460935456885
 20
608.0136717229966
 30
0.0
  0
VERTEX
  5
9A
330
94
100
AcDbEntity
  8
0
 62
   240
420
 15539236
370
    35
100
AcDbVertex
100
AcDb2dVertex
 10
817.2460935456885
 20
606.99999984825
 30
0.0
  0
VERTEX
  5
9B
330
94
100
AcDbEntity
  8
0
 62
   240
420
 15539236
370
    35
100
AcDbVertex
100
AcDb2dVertex
 10
811.8789060470302
 20
606.99999984825
 30
0.0
  0
SEQEND
  5
9C
330
94
100
AcDbEntity
  8
0
 62
   240
420
 15539236
370
    35
  0
HATCH
  5
9D
330
90
100
AcDbEntity
  8
0
 62
   240
420
 15539236
100
AcDbHatch
 10
0.0
 20
0.0
 30
0.0
210
0.0
220
0.0
230
1.0
  2
SOLID
 70
     1
 71
     0
 91
        1
 92
        1
 93
        6
 72
     1
 10
811.8789060470302
 20
606.99999984825
 11
811.8789060470302
 21
615.5898435961026
 72
     1
 10
811.8789060470302
 20
615.5898435961026
 11
813.0156247967461
 21
615.5898435961026
 72
     1
 10
813.0156247967461
 20
615.5898435961026
 11
813.0156247967461
 21
608.0136717229966
 72
     1
 10
813.0156247967461
 20
608.0136717229966
 11
817.2460935456885
 21
608.0136717229966
 72
     1
 10
817.2460935456885
 20
608.0136717229966
 11
817.2460935456885
 21
606.99999984825
 72
     1
 10
817.2460935456885
 20
606.99999984825
 11
811.8789060470302
 21
606.99999984825
 97
        0
 75
     2
 76
     1
 98
        0
  0
SPLINE
  5
9E
330
90
100
AcDbEntity
  8
0
 62
   240
420
 15539236
370
    35
100
AcDbSpline
210
0.0
220
0.0
230
1.0
 70
    11
 71
     3
 72
    38
 73
    34
 74
     0
 42
0.0000000001
 43
0.0000000001
 12
1.0
 22
0.0
 32
0.0
 13
1.0
 23
0.0
 33
0.0
 40
0.0
 40
0.0
 40
0.0
 40
0.0
 40
1.0
 40
1.0
 40
1.0
 40
2.0
 40
2.0
 40
2.0
 40
3.0
 40
3.0
 40
3.0
 40
4.0
 40
4.0
 40
4.0
 40
5.0
 40
5.0
 40
5.0
 40
6.0
 40
6.0
 40
6.0
 40
7.0
 40
7.0
 40
7.0
 40
8.0
 40
8.0
 40
8.0
 40
9.0
 40
9.0
 40
9.0
 40
10.0
 40
10.0
 40
10.0
 40
11.0
 40
11.0
 40
11.0
 40
11.0
 10
818.2421872954394
 20
614.4648435963837
 30
0.0
 10
818.2421872954394
 20
614.4648435963837
 30
0.0
 10
818.2421872954394
 20
615.4785154711303
 30
0.0
 10
818.2421872954394
 20
615.4785154711303
 30
0.0
 10
818.2421872954394
 20
615.4785154711303
 30
0.0
 10
823.8027341690492
 20
615.4785154711303
 30
0.0
 10
823.8027341690492
 20
615.4785154711303
 30
0.0
 10
823.8027341690492
 20
615.4785154711303
 30
0.0
 10
823.8027341690492
 20
614.6582029713354
 30
0.0
 10
823.8027341690492
 20
614.6582029713354
 30
0.0
 10
823.255859169186
 20
614.0761717214809
 30
0.0
 10
822.7138669818215
 20
613.3027342216743
 30
0.0
 10
822.1767576069558
 20
612.3378904719156
 30
0.0
 10
821.63964823209
 20
611.3730467221567
 30
0.0
 10
821.2246091696938
 20
610.3808592224048
 30
0.0
 10
820.9316404197671
 20
609.3613279726596
 30
0.0
 10
820.7207029198198
 20
608.6425779728394
 30
0.0
 10
820.5859372948535
 20
607.8554685980362
 30
0.0
 10
820.5273435448681
 20
606.99999984825
 30
0.0
 10
820.5273435448681
 20
606.99999984825
 30
0.0
 10
819.4433591701392
 20
606.99999984825
 30
0.0
 10
819.4433591701392
 20
606.99999984825
 30
0.0
 10
819.4550779201362
 20
607.6757810980811
 30
0.0
 10
819.587890420103
 20
608.4921873478769
 30
0.0
 10
819.8417966700396
 20
609.4492185976377
 30
0.0
 10
820.095702919976
 20
610.4062498473984
 30
0.0
 10
820.459960732385
 20
611.3291014096677
 30
0.0
 10
820.9345701072664
 20
612.2177732844456
 30
0.0
 10
821.4091794821477
 20
613.1064451592234
 30
0.0
 10
821.9140622945215
 20
613.8554685965361
 30
0.0
 10
822.4492185443877
 20
614.4648435963837
 30
0.0
 10
822.4492185443877
 20
614.4648435963837
 30
0.0
 10
818.2421872954394
 20
614.4648435963837
 30
0.0
 10
818.2421872954394
 20
614.4648435963837
 30
0.0
  0
HATCH
  5
9F
330
90
100
AcDbEntity
  8
0
 62
   240
420
 15539236
100
AcDbHatch
 10
0.0
 20
0.0
 30
0.0
210
0.0
220
0.0
230
1.0
  2
SOLID
 70
     1
 71
     0
 91
        1
 92
        1
 93
        1
 72
     4
 94
        3
 73
     0
 74
     1
 95
       38
 96
       34
 40
0.0
 40
0.0
 40
0.0
 40
0.0
 40
1.0
 40
1.0
 40
1.0
 40
2.0
 40
2.0
 40
2.0
 40
3.0
 40
3.0
 40
3.0
 40
4.0
 40
4.0
 40
4.0
 40
5.0
 40
5.0
 40
5.0
 40
6.0
 40
6.0
 40
6.0
 40
7.0
 40
7.0
 40
7.0
 40
8.0
 40
8.0
 40
8.0
 40
9.0
 40
9.0
 40
9.0
 40
10.0
 40
10.0
 40
10.0
 40
11.0
 40
11.0
 40
11.0
 40
11.0
 10
818.2421872954394
 20
614.4648435963837
 10
818.2421872954394
 20
614.4648435963837
 10
818.2421872954394
 20
615.4785154711303
 10
818.2421872954394
 20
615.4785154711303
 10
818.2421872954394
 20
615.4785154711303
 10
823.8027341690492
 20
615.4785154711303
 10
823.8027341690492
 20
615.4785154711303
 10
823.8027341690492
 20
615.4785154711303
 10
823.8027341690492
 20
614.6582029713354
 10
823.8027341690492
 20
614.6582029713354
 10
823.255859169186
 20
614.0761717214809
 10
822.7138669818215
 20
613.3027342216743
 10
822.1767576069558
 20
612.3378904719156
 10
821.63964823209
 20
611.3730467221567
 10
821.2246091696938
 20
610.3808592224048
 10
820.9316404197671
 20
609.3613279726596
 10
820.7207029198198
 20
608.6425779728394
 10
820.5859372948535
 20
607.8554685980362
 10
820.5273435448681
 20
606.99999984825
 10
820.5273435448681
 20
606.99999984825
 10
819.4433591701392
 20
606.99999984825
 10
819.4433591701392
 20
606.99999984825
 10
819.4550779201362
 20
607.6757810980811
 10
819.587890420103
 20
608.4921873478769
 10
819.8417966700396
 20
609.4492185976377
 10
820.095702919976
 20
610.4062498473984
 10
820.459960732385
 20
611.3291014096677
 10
820.9345701072664
 20
612.2177732844456
 10
821.4091794821477
 20
613.1064451592234
 10
821.9140622945215
 20
613.8554685965361
 10
822.4492185443877
 20
614.4648435963837
 10
822.4492185443877
 20
614.4648435963837
 10
818.2421872954394
 20
614.4648435963837
 10
818.2421872954394
 20
614.4648435963837
 97
        0
 97
        0
 75
     2
 76
     1
 98
        0
  0
SPLINE
  5
A0
330
90
100
AcDbEntity
  8
0
 62
   240
420
 15539236
370
    35
100
AcDbSpline
210
0.0
220
0.0
230
1.0
 70
    11
 71
     3
 72
   110
 73
   106
 74
     0
 42
0.0000000001
 43
0.0000000001
 12
1.0
 22
0.0
 32
0.0
 13
1.0
 23
0.0
 33
0.0
 40
0.0
 40
0.0
 40
0.0
 40
0.0
 40
1.0
 40
1.0
 40
1.0
 40
2.0
 40
2.0
 40
2.0
 40
3.0
 40
3.0
 40
3.0
 40
4.0
 40
4.0
 40
4.0
 40
5.0
 40
5.0
 40
5.0
 40
6.0
 40
6.0
 40
6.0
 40
7.0
 40
7.0
 40
7.0
 40
8.0
 40
8.0
 40
8.0
 40
9.0
 40
9.0
 40
9.0
 40
10.0
 40
10.0
 40
10.0
 40
11.0
 40
11.0
 40
11.0
 40
12.0
 40
12.0
 40
12.0
 40
13.0
 40
13.0
 40
13.0
 40
14.0
 40
14.0
 40
14.0
 40
15.0
 40
15.0
 40
15.0
 40
16.0
 40
16.0
 40
16.0
 40
17.0
 40
17.0
 40
17.0
 40
18.0
 40
18.0
 40
18.0
 40
19.0
 40
19.0
 40
19.0
 40
20.0
 40
20.0
 40
20.0
 40
21.0
 40
21.0
 40
21.0
 40
22.0
 40
22.0
 40
22.0
 40
23.0
 40
23.0
 40
23.0
 40
24.0
 40
24.0
 40
24.0
 40
25.0
 40
25.0
 40
25.0
 40
26.0
 40
26.0
 40
26.0
 40
27.0
 40
27.0
 40
27.0
 40
28.0
 40
28.0
 40
28.0
 40
29.0
 40
29.0
 40
29.0
 40
30.0
 40
30.0
 40
30.0
 40
31.0
 40
31.0
 40
31.0
 40
32.0
 40
32.0
 40
32.0
 40
33.0
 40
33.0
 40
33.0
 40
34.0
 40
34.0
 40
34.0
 40
35.0
 40
35.0
 40
35.0
 40
35.0
 10
828.2207029179448
 20
609.75976547256
 30
0.0
 10
828.2207029179448
 20
609.75976547256
 30
0.0
 10
829.2929685426767
 20
609.8535154725366
 30
0.0
 10
829.2929685426767
 20
609.8535154725366
 30
0.0
 10
829.3437497926641
 20
609.4238279726441
 30
0.0
 10
829.4619138551345
 20
609.0712889102322
 30
0.0
 10
829.6474607300881
 20
608.7958982853011
 30
0.0
 10
829.8330076050418
 20
608.5205076603698
 30
0.0
 10
830.1210935424697
 20
608.2978514104256
 30
0.0
 10
830.511718542372
 20
608.127929535468
 30
0.0
 10
830.9023435422744
 20
607.9580076605105
 30
0.0
 10
831.3417966671645
 20
607.8730467230317
 30
0.0
 10
831.8300779170424
 20
607.8730467230317
 30
0.0
 10
832.2636716669341
 20
607.8730467230317
 30
0.0
 10
832.6464841668384
 20
607.9374998480156
 30
0.0
 10
832.9785154167554
 20
608.0664060979834
 30
0.0
 10
833.3105466666724
 20
608.1953123479511
 30
0.0
 10
833.5576169791105
 20
608.372070160407
 30
0.0
 10
833.7197263540701
 20
608.5966795353509
 30
0.0
 10
833.8818357290295
 20
608.8212889102947
 30
0.0
 10
833.9628904165093
 20
609.0664060977334
 30
0.0
 10
833.9628904165093
 20
609.332031097667
 30
0.0
 10
833.9628904165093
 20
609.6015623475996
 30
0.0
 10
833.8847654165288
 20
609.8369139100407
 30
0.0
 10
833.7285154165678
 20
610.0380857849905
 30
0.0
 10
833.5722654166069
 20
610.2392576599402
 30
0.0
 10
833.3144529166714
 20
610.4082029723979
 30
0.0
 10
832.9550779167612
 20
610.5449217223637
 30
0.0
 10
832.7246091668188
 20
610.6347654723413
 30
0.0
 10
832.2148435419463
 20
610.7744139098064
 30
0.0
 10
831.4257810421435
 20
610.963867034759
 30
0.0
 10
830.6367185423408
 20
611.1533201597117
 30
0.0
 10
830.083984167479
 20
611.332031097167
 30
0.0
 10
829.7675779175581
 20
611.499999847125
 30
0.0
 10
829.3574216676607
 20
611.7148435970713
 30
0.0
 10
829.0517576052371
 20
611.9814451595046
 30
0.0
 10
828.8505857302873
 20
612.299804534425
 30
0.0
 10
828.6494138553377
 20
612.6181639093454
 30
0.0
 10
828.5488279178628
 20
612.9746092217563
 30
0.0
 10
828.5488279178628
 20
613.3691404716577
 30
0.0
 10
828.5488279178628
 20
613.8027342215493
 30
0.0
 10
828.671874792832
 20
614.208007658948
 30
0.0
 10
828.9179685427705
 20
614.5849607838537
 30
0.0
 10
829.164062292709
 20
614.9619139087595
 30
0.0
 10
829.5234372926192
 20
615.248046721188
 30
0.0
 10
829.996093542501
 20
615.4433592211392
 30
0.0
 10
830.4687497923828
 20
615.6386717210903
 30
0.0
 10
830.9941404172514
 20
615.7363279710659
 30
0.0
 10
831.5722654171069
 20
615.7363279710659
 30
0.0
 10
832.2089841669477
 20
615.7363279710659
 30
0.0
 10
832.7705076043073
 20
615.6337889085916
 30
0.0
 10
833.2568357291858
 20
615.4287107836428
 30
0.0
 10
833.7431638540642
 20
615.2236326586941
 30
0.0
 10
834.1171872914707
 20
614.9218748462695
 30
0.0
 10
834.3789060414052
 20
614.5234373463692
 30
0.0
 10
834.6406247913399
 20
614.1249998464688
 30
0.0
 10
834.7812497913046
 20
613.6738279715815
 30
0.0
 10
834.8007810412998
 20
613.1699217217075
 30
0.0
 10
834.8007810412998
 20
613.1699217217075
 30
0.0
 10
833.7109372915722
 20
613.087890471728
 30
0.0
 10
833.7109372915722
 20
613.087890471728
 30
0.0
 10
833.6523435415869
 20
613.6308592215922
 30
0.0
 10
833.4541013541365
 20
614.0410154714897
 30
0.0
 10
833.1162107292209
 20
614.3183592214205
 30
0.0
 10
832.7783201043054
 20
614.5957029713511
 30
0.0
 10
832.2792966669301
 20
614.7343748463164
 30
0.0
 10
831.6191404170952
 20
614.7343748463164
 30
0.0
 10
830.9316404172671
 20
614.7343748463164
 30
0.0
 10
830.4306638548924
 20
614.6083982838479
 30
0.0
 10
830.1162107299709
 20
614.3564451589109
 30
0.0
 10
829.8017576050495
 20
614.1044920339739
 30
0.0
 10
829.6445310425888
 20
613.8007810965498
 30
0.0
 10
829.6445310425888
 20
613.4453123466386
 30
0.0
 10
829.6445310425888
 20
613.1367185967158
 30
0.0
 10
829.755859167561
 20
612.8828123467792
 30
0.0
 10
829.9785154175054
 20
612.683593596829
 30
0.0
 10
830.1972654174507
 20
612.484374846879
 30
0.0
 10
830.7685544798078
 20
612.2802732844299
 30
0.0
 10
831.6923826045769
 20
612.0712889094822
 30
0.0
 10
832.6162107293459
 20
611.8623045345344
 30
0.0
 10
833.2499997916875
 20
611.6796873470801
 30
0.0
 10
833.5937497916016
 20
611.5234373471192
 30
0.0
 10
834.0937497914765
 20
611.2929685971767
 30
0.0
 10
834.4628904163843
 20
611.0009764097498
 30
0.0
 10
834.7011716663247
 20
610.6474607848381
 30
0.0
 10
834.9394529162652
 20
610.2939451599265
 30
0.0
 10
835.0585935412354
 20
609.8867185975283
 30
0.0
 10
835.0585935412354
 20
609.4257810976435
 30
0.0
 10
835.0585935412354
 20
608.9687498477577
 30
0.0
 10
834.927734166268
 20
608.5380857853654
 30
0.0
 10
834.6660154163335
 20
608.1337889104666
 30
0.0
 10
834.4042966663989
 20
607.7294920355677
 30
0.0
 10
834.0283201039929
 20
607.4150389106462
 30
0.0
 10
833.5380857291154
 20
607.1904295357024
 30
0.0
 10
833.047851354238
 20
606.9658201607585
 30
0.0
 10
832.496093541876
 20
606.8535154732866
 30
0.0
 10
831.8828122920293
 20
606.8535154732866
 30
0.0
 10
831.1054685422237
 20
606.8535154732866
 30
0.0
 10
830.4541013548865
 20
606.9667967232583
 30
0.0
 10
829.9287107300178
 20
607.1933592232017
 30
0.0
 10
829.4033201051492
 20
607.419921723145
 30
0.0
 10
828.9912107302522
 20
607.7607420355598
 30
0.0
 10
828.6923826053269
 20
608.215820160446
 30
0.0
 10
828.3935544804016
 20
608.6708982853322
 30
0.0
 10
828.2363279179409
 20
609.1855467227036
 30
0.0
 10
828.2207029179448
 20
609.75976547256
 30
0.0
  0
HATCH
  5
A1
330
90
100
AcDbEntity
  8
0
 62
   240
420
 15539236
100
AcDbHatch
 10
0.0
 20
0.0
 30
0.0
210
0.0
220
0.0
230
1.0
  2
SOLID
 70
     1
 71
     0
 91
        1
 92
        1
 93
        1
 72
     4
 94
        3
 73
     0
 74
     1
 95
      110
 96
      106
 40
0.0
 40
0.0
 40
0.0
 40
0.0
 40
1.0
 40
1.0
 40
1.0
 40
2.0
 40
2.0
 40
2.0
 40
3.0
 40
3.0
 40
3.0
 40
4.0
 40
4.0
 40
4.0
 40
5.0
 40
5.0
 40
5.0
 40
6.0
 40
6.0
 40
6.0
 40
7.0
 40
7.0
 40
7.0
 40
8.0
 40
8.0
 40
8.0
 40
9.0
 40
9.0
 40
9.0
 40
10.0
 40
10.0
 40
10.0
 40
11.0
 40
11.0
 40
11.0
 40
12.0
 40
12.0
 40
12.0
 40
13.0
 40
13.0
 40
13.0
 40
14.0
 40
14.0
 40
14.0
 40
15.0
 40
15.0
 40
15.0
 40
16.0
 40
16.0
 40
16.0
 40
17.0
 40
17.0
 40
17.0
 40
18.0
 40
18.0
 40
18.0
 40
19.0
 40
19.0
 40
19.0
 40
20.0
 40
20.0
 40
20.0
 40
21.0
 40
21.0
 40
21.0
 40
22.0
 40
22.0
 40
22.0
 40
23.0
 40
23.0
 40
23.0
 40
24.0
 40
24.0
 40
24.0
 40
25.0
 40
25.0
 40
25.0
 40
26.0
 40
26.0
 40
26.0
 40
27.0
 40
27.0
 40
27.0
 40
28.0
 40
28.0
 40
28.0
 40
29.0
 40
29.0
 40
29.0
 40
30.0
 40
30.0
 40
30.0
 40
31.0
 40
31.0
 40
31.0
 40
32.0
 40
32.0
 40
32.0
 40
33.0
 40
33.0
 40
33.0
 40
34.0
 40
34.0
 40
34.0
 40
35.0
 40
35.0
 40
35.0
 40
35.0
 10
828.2207029179448
 20
609.75976547256
 10
828.2207029179448
 20
609.75976547256
 10
829.2929685426767
 20
609.8535154725366
 10
829.2929685426767
 20
609.8535154725366
 10
829.3437497926641
 20
609.4238279726441
 10
829.4619138551345
 20
609.0712889102322
 10
829.6474607300881
 20
608.7958982853011
 10
829.8330076050418
 20
608.5205076603698
 10
830.1210935424697
 20
608.2978514104256
 10
830.511718542372
 20
608.127929535468
 10
830.9023435422744
 20
607.9580076605105
 10
831.3417966671645
 20
607.8730467230317
 10
831.8300779170424
 20
607.8730467230317
 10
832.2636716669341
 20
607.8730467230317
 10
832.6464841668384
 20
607.9374998480156
 10
832.9785154167554
 20
608.0664060979834
 10
833.3105466666724
 20
608.1953123479511
 10
833.5576169791105
 20
608.372070160407
 10
833.7197263540701
 20
608.5966795353509
 10
833.8818357290295
 20
608.8212889102947
 10
833.9628904165093
 20
609.0664060977334
 10
833.9628904165093
 20
609.332031097667
 10
833.9628904165093
 20
609.6015623475996
 10
833.8847654165288
 20
609.8369139100407
 10
833.7285154165678
 20
610.0380857849905
 10
833.5722654166069
 20
610.2392576599402
 10
833.3144529166714
 20
610.4082029723979
 10
832.9550779167612
 20
610.5449217223637
 10
832.7246091668188
 20
610.6347654723413
 10
832.2148435419463
 20
610.7744139098064
 10
831.4257810421435
 20
610.963867034759
 10
830.6367185423408
 20
611.1533201597117
 10
830.083984167479
 20
611.332031097167
 10
829.7675779175581
 20
611.499999847125
 10
829.3574216676607
 20
611.7148435970713
 10
829.0517576052371
 20
611.9814451595046
 10
828.8505857302873
 20
612.299804534425
 10
828.6494138553377
 20
612.6181639093454
 10
828.5488279178628
 20
612.9746092217563
 10
828.5488279178628
 20
613.3691404716577
 10
828.5488279178628
 20
613.8027342215493
 10
828.671874792832
 20
614.208007658948
 10
828.9179685427705
 20
614.5849607838537
 10
829.164062292709
 20
614.9619139087595
 10
829.5234372926192
 20
615.248046721188
 10
829.996093542501
 20
615.4433592211392
 10
830.4687497923828
 20
615.6386717210903
 10
830.9941404172514
 20
615.7363279710659
 10
831.5722654171069
 20
615.7363279710659
 10
832.2089841669477
 20
615.7363279710659
 10
832.7705076043073
 20
615.6337889085916
 10
833.2568357291858
 20
615.4287107836428
 10
833.7431638540642
 20
615.2236326586941
 10
834.1171872914707
 20
614.9218748462695
 10
834.3789060414052
 20
614.5234373463692
 10
834.6406247913399
 20
614.1249998464688
 10
834.7812497913046
 20
613.6738279715815
 10
834.8007810412998
 20
613.1699217217075
 10
834.8007810412998
 20
613.1699217217075
 10
833.7109372915722
 20
613.087890471728
 10
833.7109372915722
 20
613.087890471728
 10
833.6523435415869
 20
613.6308592215922
 10
833.4541013541365
 20
614.0410154714897
 10
833.1162107292209
 20
614.3183592214205
 10
832.7783201043054
 20
614.5957029713511
 10
832.2792966669301
 20
614.7343748463164
 10
831.6191404170952
 20
614.7343748463164
 10
830.9316404172671
 20
614.7343748463164
 10
830.4306638548924
 20
614.6083982838479
 10
830.1162107299709
 20
614.3564451589109
 10
829.8017576050495
 20
614.1044920339739
 10
829.6445310425888
 20
613.8007810965498
 10
829.6445310425888
 20
613.4453123466386
 10
829.6445310425888
 20
613.1367185967158
 10
829.755859167561
 20
612.8828123467792
 10
829.9785154175054
 20
612.683593596829
 10
830.1972654174507
 20
612.484374846879
 10
830.7685544798078
 20
612.2802732844299
 10
831.6923826045769
 20
612.0712889094822
 10
832.6162107293459
 20
611.8623045345344
 10
833.2499997916875
 20
611.6796873470801
 10
833.5937497916016
 20
611.5234373471192
 10
834.0937497914765
 20
611.2929685971767
 10
834.4628904163843
 20
611.0009764097498
 10
834.7011716663247
 20
610.6474607848381
 10
834.9394529162652
 20
610.2939451599265
 10
835.0585935412354
 20
609.8867185975283
 10
835.0585935412354
 20
609.4257810976435
 10
835.0585935412354
 20
608.9687498477577
 10
834.927734166268
 20
608.5380857853654
 10
834.6660154163335
 20
608.1337889104666
 10
834.4042966663989
 20
607.7294920355677
 10
834.0283201039929
 20
607.4150389106462
 10
833.5380857291154
 20
607.1904295357024
 10
833.047851354238
 20
606.9658201607585
 10
832.496093541876
 20
606.8535154732866
 10
831.8828122920293
 20
606.8535154732866
 10
831.1054685422237
 20
606.8535154732866
 10
830.4541013548865
 20
606.9667967232583
 10
829.9287107300178
 20
607.1933592232017
 10
829.4033201051492
 20
607.419921723145
 10
828.9912107302522
 20
607.7607420355598
 10
828.6923826053269
 20
608.215820160446
 10
828.3935544804016
 20
608.6708982853322
 10
828.2363279179409
 20
609.1855467227036
 10
828.2207029179448
 20
609.75976547256
 97
        0
 97
        0
 75
     2
 76
     1
 98
        0
  0
SPLINE
  5
A2
330
90
100
AcDbEntity
  8
0
 62
   240
420
 15539236
370
    35
100
AcDbSpline
210
0.0
220
0.0
230
1.0
 70
    11
 71
     3
 72
    65
 73
    61
 74
     0
 42
0.0000000001
 43
0.0000000001
 12
1.0
 22
0.0
 32
0.0
 13
1.0
 23
0.0
 33
0.0
 40
0.0
 40
0.0
 40
0.0
 40
0.0
 40
1.0
 40
1.0
 40
1.0
 40
2.0
 40
2.0
 40
2.0
 40
3.0
 40
3.0
 40
3.0
 40
4.0
 40
4.0
 40
4.0
 40
5.0
 40
5.0
 40
5.0
 40
6.0
 40
6.0
 40
6.0
 40
7.0
 40
7.0
 40
7.0
 40
8.0
 40
8.0
 40
8.0
 40
9.0
 40
9.0
 40
9.0
 40
10.0
 40
10.0
 40
10.0
 40
11.0
 40
11.0
 40
11.0
 40
12.0
 40
12.0
 40
12.0
 40
13.0
 40
13.0
 40
13.0
 40
14.0
 40
14.0
 40
14.0
 40
15.0
 40
15.0
 40
15.0
 40
16.0
 40
16.0
 40
16.0
 40
17.0
 40
17.0
 40
17.0
 40
18.0
 40
18.0
 40
18.0
 40
19.0
 40
19.0
 40
19.0
 40
20.0
 40
20.0
 40
20.0
 40
20.0
 10
838.7792966653052
 20
607.9433592230141
 30
0.0
 10
838.7792966653052
 20
607.9433592230141
 30
0.0
 10
838.9316404152671
 20
607.0117185982471
 30
0.0
 10
838.9316404152671
 20
607.0117185982471
 30
0.0
 10
838.6347654153412
 20
606.9492185982626
 30
0.0
 10
838.3691404154077
 20
606.9179685982705
 30
0.0
 10
838.1347654154663
 20
606.9179685982705
 30
0.0
 10
837.751952915562
 20
606.9179685982705
 30
0.0
 10
837.4550779156363
 20
606.9785154732554
 30
0.0
 10
837.244140415689
 20
607.0996092232251
 30
0.0
 10
837.0332029157416
 20
607.2207029731948
 30
0.0
 10
836.8847654157788
 20
607.379882660655
 30
0.0
 10
836.7988279158003
 20
607.5771482856057
 30
0.0
 10
836.7128904158218
 20
607.7744139105564
 30
0.0
 10
836.6699216658325
 20
608.1894529729526
 30
0.0
 10
836.6699216658325
 20
608.8222654727945
 30
0.0
 10
836.6699216658325
 20
608.8222654727945
 30
0.0
 10
836.6699216658325
 20
612.4023435968994
 30
0.0
 10
836.6699216658325
 20
612.4023435968994
 30
0.0
 10
836.6699216658325
 20
612.4023435968994
 30
0.0
 10
835.8964841660259
 20
612.4023435968994
 30
0.0
 10
835.8964841660259
 20
612.4023435968994
 30
0.0
 10
835.8964841660259
 20
612.4023435968994
 30
0.0
 10
835.8964841660259
 20
613.2226560966943
 30
0.0
 10
835.8964841660259
 20
613.2226560966943
 30
0.0
 10
835.8964841660259
 20
613.2226560966943
 30
0.0
 10
836.6699216658325
 20
613.2226560966943
 30
0.0
 10
836.6699216658325
 20
613.2226560966943
 30
0.0
 10
836.6699216658325
 20
613.2226560966943
 30
0.0
 10
836.6699216658325
 20
614.763671721309
 30
0.0
 10
836.6699216658325
 20
614.763671721309
 30
0.0
 10
836.6699216658325
 20
614.763671721309
 30
0.0
 10
837.7187497905703
 20
615.3964842211509
 30
0.0
 10
837.7187497905703
 20
615.3964842211509
 30
0.0
 10
837.7187497905703
 20
615.3964842211509
 30
0.0
 10
837.7187497905703
 20
613.2226560966943
 30
0.0
 10
837.7187497905703
 20
613.2226560966943
 30
0.0
 10
837.7187497905703
 20
613.2226560966943
 30
0.0
 10
838.7792966653052
 20
613.2226560966943
 30
0.0
 10
838.7792966653052
 20
613.2226560966943
 30
0.0
 10
838.7792966653052
 20
613.2226560966943
 30
0.0
 10
838.7792966653052
 20
612.4023435968994
 30
0.0
 10
838.7792966653052
 20
612.4023435968994
 30
0.0
 10
838.7792966653052
 20
612.4023435968994
 30
0.0
 10
837.7187497905703
 20
612.4023435968994
 30
0.0
 10
837.7187497905703
 20
612.4023435968994
 30
0.0
 10
837.7187497905703
 20
612.4023435968994
 30
0.0
 10
837.7187497905703
 20
608.763671722809
 30
0.0
 10
837.7187497905703
 20
608.763671722809
 30
0.0
 10
837.7187497905703
 20
608.4628904728843
 30
0.0
 10
837.7373044780657
 20
608.2695310979326
 30
0.0
 10
837.7744138530563
 20
608.1835935979541
 30
0.0
 10
837.8115232280471
 20
608.0976560979756
 30
0.0
 10
837.872070103032
 20
608.0292967229926
 30
0.0
 10
837.956054478011
 20
607.9785154730054
 30
0.0
 10
838.0400388529899
 20
607.9277342230181
 30
0.0
 10
838.1601560404599
 20
607.9023435980243
 30
0.0
 10
838.3164060404209
 20
607.9023435980243
 30
0.0
 10
838.4335935403916
 20
607.9023435980243
 30
0.0
 10
838.5878904153531
 20
607.9160154730209
 30
0.0
 10
838.7792966653052
 20
607.9433592230141
 30
0.0
  0
HATCH
  5
A3
330
90
100
AcDbEntity
  8
0
 62
   240
420
 15539236
100
AcDbHatch
 10
0.0
 20
0.0
 30
0.0
210
0.0
220
0.0
230
1.0
  2
SOLID
 70
     1
 71
     0
 91
        1
 92
        1
 93
        1
 72
     4
 94
        3
 73
     0
 74
     1
 95
       65
 96
       61
 40
0.0
 40
0.0
 40
0.0
 40
0.0
 40
1.0
 40
1.0
 40
1.0
 40
2.0
 40
2.0
 40
2.0
 40
3.0
 40
3.0
 40
3.0
 40
4.0
 40
4.0
 40
4.0
 40
5.0
 40
5.0
 40
5.0
 40
6.0
 40
6.0
 40
6.0
 40
7.0
 40
7.0
 40
7.0
 40
8.0
 40
8.0
 40
8.0
 40
9.0
 40
9.0
 40
9.0
 40
10.0
 40
10.0
 40
10.0
 40
11.0
 40
11.0
 40
11.0
 40
12.0
 40
12.0
 40
12.0
 40
13.0
 40
13.0
 40
13.0
 40
14.0
 40
14.0
 40
14.0
 40
15.0
 40
15.0
 40
15.0
 40
16.0
 40
16.0
 40
16.0
 40
17.0
 40
17.0
 40
17.0
 40
18.0
 40
18.0
 40
18.0
 40
19.0
 40
19.0
 40
19.0
 40
20.0
 40
20.0
 40
20.0
 40
20.0
 10
838.7792966653052
 20
607.9433592230141
 10
838.7792966653052
 20
607.9433592230141
 10
838.9316404152671
 20
607.0117185982471
 10
838.9316404152671
 20
607.0117185982471
 10
838.6347654153412
 20
606.9492185982626
 10
838.3691404154077
 20
606.9179685982705
 10
838.1347654154663
 20
606.9179685982705
 10
837.751952915562
 20
606.9179685982705
 10
837.4550779156363
 20
606.9785154732554
 10
837.244140415689
 20
607.0996092232251
 10
837.0332029157416
 20
607.2207029731948
 10
836.8847654157788
 20
607.379882660655
 10
836.7988279158003
 20
607.5771482856057
 10
836.7128904158218
 20
607.7744139105564
 10
836.6699216658325
 20
608.1894529729526
 10
836.6699216658325
 20
608.8222654727945
 10
836.6699216658325
 20
608.8222654727945
 10
836.6699216658325
 20
612.4023435968994
 10
836.6699216658325
 20
612.4023435968994
 10
836.6699216658325
 20
612.4023435968994
 10
835.8964841660259
 20
612.4023435968994
 10
835.8964841660259
 20
612.4023435968994
 10
835.8964841660259
 20
612.4023435968994
 10
835.8964841660259
 20
613.2226560966943
 10
835.8964841660259
 20
613.2226560966943
 10
835.8964841660259
 20
613.2226560966943
 10
836.6699216658325
 20
613.2226560966943
 10
836.6699216658325
 20
613.2226560966943
 10
836.6699216658325
 20
613.2226560966943
 10
836.6699216658325
 20
614.763671721309
 10
836.6699216658325
 20
614.763671721309
 10
836.6699216658325
 20
614.763671721309
 10
837.7187497905703
 20
615.3964842211509
 10
837.7187497905703
 20
615.3964842211509
 10
837.7187497905703
 20
615.3964842211509
 10
837.7187497905703
 20
613.2226560966943
 10
837.7187497905703
 20
613.2226560966943
 10
837.7187497905703
 20
613.2226560966943
 10
838.7792966653052
 20
613.2226560966943
 10
838.7792966653052
 20
613.2226560966943
 10
838.7792966653052
 20
613.2226560966943
 10
838.7792966653052
 20
612.4023435968994
 10
838.7792966653052
 20
612.4023435968994
 10
838.7792966653052
 20
612.4023435968994
 10
837.7187497905703
 20
612.4023435968994
 10
837.7187497905703
 20
612.4023435968994
 10
837.7187497905703
 20
612.4023435968994
 10
837.7187497905703
 20
608.763671722809
 10
837.7187497905703
 20
608.763671722809
 10
837.7187497905703
 20
608.4628904728843
 10
837.7373044780657
 20
608.2695310979326
 10
837.7744138530563
 20
608.1835935979541
 10
837.8115232280471
 20
608.0976560979756
 10
837.872070103032
 20
608.0292967229926
 10
837.956054478011
 20
607.9785154730054
 10
838.0400388529899
 20
607.9277342230181
 10
838.1601560404599
 20
607.9023435980243
 10
838.3164060404209
 20
607.9023435980243
 10
838.4335935403916
 20
607.9023435980243
 10
838.5878904153531
 20
607.9160154730209
 10
838.7792966653052
 20
607.9433592230141
 97
        0
 97
        0
 75
     2
 76
     1
 98
        0
  0
SPLINE
  5
A4
330
90
100
AcDbEntity
  8
0
 62
   240
420
 15539236
370
    35
100
AcDbSpline
210
0.0
220
0.0
230
1.0
 70
    11
 71
     3
 72
    44
 73
    40
 74
     0
 42
0.0000000001
 43
0.0000000001
 12
1.0
 22
0.0
 32
0.0
 13
1.0
 23
0.0
 33
0.0
 40
0.0
 40
0.0
 40
0.0
 40
0.0
 40
1.0
 40
1.0
 40
1.0
 40
2.0
 40
2.0
 40
2.0
 40
3.0
 40
3.0
 40
3.0
 40
4.0
 40
4.0
 40
4.0
 40
5.0
 40
5.0
 40
5.0
 40
6.0
 40
6.0
 40
6.0
 40
7.0
 40
7.0
 40
7.0
 40
8.0
 40
8.0
 40
8.0
 40
9.0
 40
9.0
 40
9.0
 40
10.0
 40
10.0
 40
10.0
 40
11.0
 40
11.0
 40
11.0
 40
12.0
 40
12.0
 40
12.0
 40
13.0
 40
13.0
 40
13.0
 40
13.0
 10
839.7988279150503
 20
606.99999984825
 30
0.0
 10
839.7988279150503
 20
606.99999984825
 30
0.0
 10
839.7988279150503
 20
613.2226560966943
 30
0.0
 10
839.7988279150503
 20
613.2226560966943
 30
0.0
 10
839.7988279150503
 20
613.2226560966943
 30
0.0
 10
840.7480466648129
 20
613.2226560966943
 30
0.0
 10
840.7480466648129
 20
613.2226560966943
 30
0.0
 10
840.7480466648129
 20
613.2226560966943
 30
0.0
 10
840.7480466648129
 20
612.2792967219301
 30
0.0
 10
840.7480466648129
 20
612.2792967219301
 30
0.0
 10
840.9902341647525
 20
612.7207029718198
 30
0.0
 10
841.2138669771965
 20
613.0117185967471
 30
0.0
 10
841.4189451021452
 20
613.152343596712
 30
0.0
 10
841.624023227094
 20
613.2929685966767
 30
0.0
 10
841.8496091645376
 20
613.3632810966592
 30
0.0
 10
842.0957029144761
 20
613.3632810966592
 30
0.0
 10
842.4511716643872
 20
613.3632810966592
 30
0.0
 10
842.8124997892969
 20
613.2499998466875
 30
0.0
 10
843.179687289205
 20
613.0234373467441
 30
0.0
 10
843.179687289205
 20
613.0234373467441
 30
0.0
 10
842.8164060392959
 20
612.0449217219888
 30
0.0
 10
842.8164060392959
 20
612.0449217219888
 30
0.0
 10
842.5585935393603
 20
612.1972654719507
 30
0.0
 10
842.3007810394248
 20
612.2734373469316
 30
0.0
 10
842.0429685394893
 20
612.2734373469316
 30
0.0
 10
841.8124997895469
 20
612.2734373469316
 30
0.0
 10
841.6054685395986
 20
612.204101409449
 30
0.0
 10
841.4218747896446
 20
612.0654295344837
 30
0.0
 10
841.2382810396904
 20
611.9267576595183
 30
0.0
 10
841.1074216647231
 20
611.7343748470664
 30
0.0
 10
841.0292966647427
 20
611.4882810971279
 30
0.0
 10
840.912109164772
 20
611.1132810972217
 30
0.0
 10
840.8535154147866
 20
610.7031248473243
 30
0.0
 10
840.8535154147866
 20
610.2578123474356
 30
0.0
 10
840.8535154147866
 20
610.2578123474356
 30
0.0
 10
840.8535154147866
 20
606.99999984825
 30
0.0
 10
840.8535154147866
 20
606.99999984825
 30
0.0
 10
840.8535154147866
 20
606.99999984825
 30
0.0
 10
839.7988279150503
 20
606.99999984825
 30
0.0
 10
839.7988279150503
 20
606.99999984825
 30
0.0
  0
HATCH
  5
A5
330
90
100
AcDbEntity
  8
0
 62
   240
420
 15539236
100
AcDbHatch
 10
0.0
 20
0.0
 30
0.0
210
0.0
220
0.0
230
1.0
  2
SOLID
 70
     1
 71
     0
 91
        1
 92
        1
 93
        1
 72
     4
 94
        3
 73
     0
 74
     1
 95
       44
 96
       40
 40
0.0
 40
0.0
 40
0.0
 40
0.0
 40
1.0
 40
1.0
 40
1.0
 40
2.0
 40
2.0
 40
2.0
 40
3.0
 40
3.0
 40
3.0
 40
4.0
 40
4.0
 40
4.0
 40
5.0
 40
5.0
 40
5.0
 40
6.0
 40
6.0
 40
6.0
 40
7.0
 40
7.0
 40
7.0
 40
8.0
 40
8.0
 40
8.0
 40
9.0
 40
9.0
 40
9.0
 40
10.0
 40
10.0
 40
10.0
 40
11.0
 40
11.0
 40
11.0
 40
12.0
 40
12.0
 40
12.0
 40
13.0
 40
13.0
 40
13.0
 40
13.0
 10
839.7988279150503
 20
606.99999984825
 10
839.7988279150503
 20
606.99999984825
 10
839.7988279150503
 20
613.2226560966943
 10
839.7988279150503
 20
613.2226560966943
 10
839.7988279150503
 20
613.2226560966943
 10
840.7480466648129
 20
613.2226560966943
 10
840.7480466648129
 20
613.2226560966943
 10
840.7480466648129
 20
613.2226560966943
 10
840.7480466648129
 20
612.2792967219301
 10
840.7480466648129
 20
612.2792967219301
 10
840.9902341647525
 20
612.7207029718198
 10
841.2138669771965
 20
613.0117185967471
 10
841.4189451021452
 20
613.152343596712
 10
841.624023227094
 20
613.2929685966767
 10
841.8496091645376
 20
613.3632810966592
 10
842.0957029144761
 20
613.3632810966592
 10
842.4511716643872
 20
613.3632810966592
 10
842.8124997892969
 20
613.2499998466875
 10
843.179687289205
 20
613.0234373467441
 10
843.179687289205
 20
613.0234373467441
 10
842.8164060392959
 20
612.0449217219888
 10
842.8164060392959
 20
612.0449217219888
 10
842.5585935393603
 20
612.1972654719507
 10
842.3007810394248
 20
612.2734373469316
 10
842.0429685394893
 20
612.2734373469316
 10
841.8124997895469
 20
612.2734373469316
 10
841.6054685395986
 20
612.204101409449
 10
841.4218747896446
 20
612.0654295344837
 10
841.2382810396904
 20
611.9267576595183
 10
841.1074216647231
 20
611.7343748470664
 10
841.0292966647427
 20
611.4882810971279
 10
840.912109164772
 20
611.1132810972217
 10
840.8535154147866
 20
610.7031248473243
 10
840.8535154147866
 20
610.2578123474356
 10
840.8535154147866
 20
610.2578123474356
 10
840.8535154147866
 20
606.99999984825
 10
840.8535154147866
 20
606.99999984825
 10
840.8535154147866
 20
606.99999984825
 10
839.7988279150503
 20
606.99999984825
 10
839.7988279150503
 20
606.99999984825
 97
        0
 97
        0
 75
     2
 76
     1
 98
        0
  0
SPLINE
  5
A6
330
90
100
AcDbEntity
  8
0
 62
   240
420
 15539236
370
    35
100
AcDbSpline
210
0.0
220
0.0
230
1.0
 70
    11
 71
     3
 72
    86
 73
    82
 74
     0
 42
0.0000000001
 43
0.0000000001
 12
1.0
 22
0.0
 32
0.0
 13
1.0
 23
0.0
 33
0.0
 40
0.0
 40
0.0
 40
0.0
 40
0.0
 40
1.0
 40
1.0
 40
1.0
 40
2.0
 40
2.0
 40
2.0
 40
3.0
 40
3.0
 40
3.0
 40
4.0
 40
4.0
 40
4.0
 40
5.0
 40
5.0
 40
5.0
 40
6.0
 40
6.0
 40
6.0
 40
7.0
 40
7.0
 40
7.0
 40
8.0
 40
8.0
 40
8.0
 40
9.0
 40
9.0
 40
9.0
 40
10.0
 40
10.0
 40
10.0
 40
11.0
 40
11.0
 40
11.0
 40
12.0
 40
12.0
 40
12.0
 40
13.0
 40
13.0
 40
13.0
 40
14.0
 40
14.0
 40
14.0
 40
15.0
 40
15.0
 40
15.0
 40
16.0
 40
16.0
 40
16.0
 40
17.0
 40
17.0
 40
17.0
 40
18.0
 40
18.0
 40
18.0
 40
19.0
 40
19.0
 40
19.0
 40
20.0
 40
20.0
 40
20.0
 40
21.0
 40
21.0
 40
21.0
 40
22.0
 40
22.0
 40
22.0
 40
23.0
 40
23.0
 40
23.0
 40
24.0
 40
24.0
 40
24.0
 40
25.0
 40
25.0
 40
25.0
 40
26.0
 40
26.0
 40
26.0
 40
27.0
 40
27.0
 40
27.0
 40
27.0
 10
847.8671872880332
 20
607.7675779730581
 30
0.0
 10
847.4765622881308
 20
607.4355467231411
 30
0.0
 10
847.1005857257248
 20
607.2011717231996
 30
0.0
 10
846.7392576008152
 20
607.0644529732339
 30
0.0
 10
846.3779294759055
 20
606.9277342232681
 30
0.0
 10
845.9902341635025
 20
606.8593748482851
 30
0.0
 10
845.5761716636059
 20
606.8593748482851
 30
0.0
 10
844.8925779137768
 20
606.8593748482851
 30
0.0
 10
844.3671872889082
 20
607.0263670357434
 30
0.0
 10
843.999999789
 20
607.3603514106599
 30
0.0
 10
843.6328122890918
 20
607.6943357855764
 30
0.0
 10
843.4492185391376
 20
608.1210935979697
 30
0.0
 10
843.4492185391376
 20
608.6406248478398
 30
0.0
 10
843.4492185391376
 20
608.9453123477637
 30
0.0
 10
843.5185544766204
 20
609.2236326601941
 30
0.0
 10
843.6572263515857
 20
609.4755857851311
 30
0.0
 10
843.795898226551
 20
609.7275389100681
 30
0.0
 10
843.9775388515056
 20
609.9296873475175
 30
0.0
 10
844.2021482264495
 20
610.0820310974794
 30
0.0
 10
844.4267576013933
 20
610.2343748474414
 30
0.0
 10
844.6796872888301
 20
610.3496092224126
 30
0.0
 10
844.9609372887597
 20
610.427734222393
 30
0.0
 10
845.167968538708
 20
610.4824217223794
 30
0.0
 10
845.4804685386299
 20
610.5351560973662
 30
0.0
 10
845.8984372885254
 20
610.5859373473535
 30
0.0
 10
846.7499997883125
 20
610.6874998473281
 30
0.0
 10
847.3769529131557
 20
610.8085935972979
 30
0.0
 10
847.7792966630551
 20
610.9492185972626
 30
0.0
 10
847.7832029130542
 20
611.0937498472266
 30
0.0
 10
847.7851560380537
 20
611.1855467222036
 30
0.0
 10
847.7851560380537
 20
611.2246092221939
 30
0.0
 10
847.7851560380537
 20
611.6542967220864
 30
0.0
 10
847.6855466630786
 20
611.9570310970107
 30
0.0
 10
847.4863279131284
 20
612.1328123469668
 30
0.0
 10
847.2167966631957
 20
612.3710935969073
 30
0.0
 10
846.8164060382959
 20
612.4902342218775
 30
0.0
 10
846.2851560384287
 20
612.4902342218775
 30
0.0
 10
845.7890622885527
 20
612.4902342218775
 30
0.0
 10
845.4228513511442
 20
612.4033201593992
 30
0.0
 10
845.1865232262033
 20
612.2294920344426
 30
0.0
 10
844.9501951012625
 20
612.055663909486
 30
0.0
 10
844.7753904138061
 20
611.748046722063
 30
0.0
 10
844.6621091638344
 20
611.3066404721733
 30
0.0
 10
844.6621091638344
 20
611.3066404721733
 30
0.0
 10
843.6308591640923
 20
611.4472654721382
 30
0.0
 10
843.6308591640923
 20
611.4472654721382
 30
0.0
 10
843.7246091640689
 20
611.8886717220278
 30
0.0
 10
843.8789060390303
 20
612.2451170344387
 30
0.0
 10
844.0937497889765
 20
612.5166014093709
 30
0.0
 10
844.3085935389229
 20
612.788085784303
 30
0.0
 10
844.6191404138452
 20
612.9970701592507
 30
0.0
 10
845.0253904137436
 20
613.1435545342141
 30
0.0
 10
845.4316404136421
 20
613.2900389091775
 30
0.0
 10
845.9023435385244
 20
613.3632810966592
 30
0.0
 10
846.4374997883906
 20
613.3632810966592
 30
0.0
 10
846.9687497882578
 20
613.3632810966592
 30
0.0
 10
847.4003904131499
 20
613.3007810966748
 30
0.0
 10
847.7324216630669
 20
613.175781096706
 30
0.0
 10
848.0644529129838
 20
613.0507810967373
 30
0.0
 10
848.3085935379229
 20
612.8935545342766
 30
0.0
 10
848.4648435378838
 20
612.7041014093239
 30
0.0
 10
848.6210935378447
 20
612.5146482843713
 30
0.0
 10
848.7304685378174
 20
612.2753904719311
 30
0.0
 10
848.7929685378017
 20
611.9863279720034
 30
0.0
 10
848.828124787793
 20
611.8066404720483
 30
0.0
 10
848.8457029127885
 20
611.4824217221294
 30
0.0
 10
848.8457029127885
 20
611.0136717222466
 30
0.0
 10
848.8457029127885
 20
611.0136717222466
 30
0.0
 10
848.8457029127885
 20
609.6074217225981
 30
0.0
 10
848.8457029127885
 20
609.6074217225981
 30
0.0
 10
848.8457029127885
 20
608.6269529728432
 30
0.0
 10
848.8681638502829
 20
608.0068357854983
 30
0.0
 10
848.9130857252717
 20
607.7470701605632
 30
0.0
 10
848.9580076002604
 20
607.4873045356281
 30
0.0
 10
849.0468747877383
 20
607.2382810981904
 30
0.0
 10
849.1796872877051
 20
606.99999984825
 30
0.0
 10
849.1796872877051
 20
606.99999984825
 30
0.0
 10
848.0781247879804
 20
606.99999984825
 30
0.0
 10
848.0781247879804
 20
606.99999984825
 30
0.0
 10
847.9687497880078
 20
607.2187498481953
 30
0.0
 10
847.8984372880253
 20
607.4746092231313
 30
0.0
 10
847.8671872880332
 20
607.7675779730581
 30
0.0
  0
SPLINE
  5
A7
330
90
100
AcDbEntity
  8
0
 62
   240
420
 15539236
370
    35
100
AcDbSpline
210
0.0
220
0.0
230
1.0
 70
    11
 71
     3
 72
    35
 73
    31
 74
     0
 42
0.0000000001
 43
0.0000000001
 12
1.0
 22
0.0
 32
0.0
 13
1.0
 23
0.0
 33
0.0
 40
0.0
 40
0.0
 40
0.0
 40
0.0
 40
1.0
 40
1.0
 40
1.0
 40
2.0
 40
2.0
 40
2.0
 40
3.0
 40
3.0
 40
3.0
 40
4.0
 40
4.0
 40
4.0
 40
5.0
 40
5.0
 40
5.0
 40
6.0
 40
6.0
 40
6.0
 40
7.0
 40
7.0
 40
7.0
 40
8.0
 40
8.0
 40
8.0
 40
9.0
 40
9.0
 40
9.0
 40
10.0
 40
10.0
 40
10.0
 40
10.0
 10
847.7792966630551
 20
610.1230467224692
 30
0.0
 10
847.3964841631508
 20
609.9667967225083
 30
0.0
 10
846.8222654132944
 20
609.8339842225415
 30
0.0
 10
846.0566404134859
 20
609.7246092225688
 30
0.0
 10
845.6230466635942
 20
609.6621092225845
 30
0.0
 10
845.3164060386708
 20
609.591796722602
 30
0.0
 10
845.1367185387159
 20
609.5136717226216
 30
0.0
 10
844.9570310387608
 20
609.4355467226411
 30
0.0
 10
844.8183591637954
 20
609.3212889101696
 30
0.0
 10
844.7207029138198
 20
609.1708982852073
 30
0.0
 10
844.6230466638442
 20
609.0205076602449
 30
0.0
 10
844.5742185388564
 20
608.8535154727866
 30
0.0
 10
844.5742185388564
 20
608.6699217228326
 30
0.0
 10
844.5742185388564
 20
608.3886717229028
 30
0.0
 10
844.6806638513298
 20
608.1542967229614
 30
0.0
 10
844.8935544762766
 20
607.9667967230083
 30
0.0
 10
845.1064451012234
 20
607.7792967230552
 30
0.0
 10
845.4179685386455
 20
607.6855467230786
 30
0.0
 10
845.8281247885429
 20
607.6855467230786
 30
0.0
 10
846.2343747884414
 20
607.6855467230786
 30
0.0
 10
846.595702913351
 20
607.7744139105564
 30
0.0
 10
846.9121091632719
 20
607.952148285512
 30
0.0
 10
847.2285154131929
 20
608.1298826604675
 30
0.0
 10
847.4609372881348
 20
608.3730467229067
 30
0.0
 10
847.6093747880976
 20
608.6816404728296
 30
0.0
 10
847.7226560380693
 20
608.91992172277
 30
0.0
 10
847.7792966630551
 20
609.2714842226821
 30
0.0
 10
847.7792966630551
 20
609.736327972566
 30
0.0
 10
847.7792966630551
 20
609.736327972566
 30
0.0
 10
847.7792966630551
 20
610.1230467224692
 30
0.0
 10
847.7792966630551
 20
610.1230467224692
 30
0.0
  0
HATCH
  5
A8
330
90
100
AcDbEntity
  8
0
 62
   240
420
 15539236
100
AcDbHatch
 10
0.0
 20
0.0
 30
0.0
210
0.0
220
0.0
230
1.0
  2
SOLID
 70
     1
 71
     0
 91
        2
 92
        1
 93
        1
 72
     4
 94
        3
 73
     0
 74
     1
 95
       86
 96
       82
 40
0.0
 40
0.0
 40
0.0
 40
0.0
 40
1.0
 40
1.0
 40
1.0
 40
2.0
 40
2.0
 40
2.0
 40
3.0
 40
3.0
 40
3.0
 40
4.0
 40
4.0
 40
4.0
 40
5.0
 40
5.0
 40
5.0
 40
6.0
 40
6.0
 40
6.0
 40
7.0
 40
7.0
 40
7.0
 40
8.0
 40
8.0
 40
8.0
 40
9.0
 40
9.0
 40
9.0
 40
10.0
 40
10.0
 40
10.0
 40
11.0
 40
11.0
 40
11.0
 40
12.0
 40
12.0
 40
12.0
 40
13.0
 40
13.0
 40
13.0
 40
14.0
 40
14.0
 40
14.0
 40
15.0
 40
15.0
 40
15.0
 40
16.0
 40
16.0
 40
16.0
 40
17.0
 40
17.0
 40
17.0
 40
18.0
 40
18.0
 40
18.0
 40
19.0
 40
19.0
 40
19.0
 40
20.0
 40
20.0
 40
20.0
 40
21.0
 40
21.0
 40
21.0
 40
22.0
 40
22.0
 40
22.0
 40
23.0
 40
23.0
 40
23.0
 40
24.0
 40
24.0
 40
24.0
 40
25.0
 40
25.0
 40
25.0
 40
26.0
 40
26.0
 40
26.0
 40
27.0
 40
27.0
 40
27.0
 40
27.0
 10
847.8671872880332
 20
607.7675779730581
 10
847.4765622881308
 20
607.4355467231411
 10
847.1005857257248
 20
607.2011717231996
 10
846.7392576008152
 20
607.0644529732339
 10
846.3779294759055
 20
606.9277342232681
 10
845.9902341635025
 20
606.8593748482851
 10
845.5761716636059
 20
606.8593748482851
 10
844.8925779137768
 20
606.8593748482851
 10
844.3671872889082
 20
607.0263670357434
 10
843.999999789
 20
607.3603514106599
 10
843.6328122890918
 20
607.6943357855764
 10
843.4492185391376
 20
608.1210935979697
 10
843.4492185391376
 20
608.6406248478398
 10
843.4492185391376
 20
608.9453123477637
 10
843.5185544766204
 20
609.2236326601941
 10
843.6572263515857
 20
609.4755857851311
 10
843.795898226551
 20
609.7275389100681
 10
843.9775388515056
 20
609.9296873475175
 10
844.2021482264495
 20
610.0820310974794
 10
844.4267576013933
 20
610.2343748474414
 10
844.6796872888301
 20
610.3496092224126
 10
844.9609372887597
 20
610.427734222393
 10
845.167968538708
 20
610.4824217223794
 10
845.4804685386299
 20
610.5351560973662
 10
845.8984372885254
 20
610.5859373473535
 10
846.7499997883125
 20
610.6874998473281
 10
847.3769529131557
 20
610.8085935972979
 10
847.7792966630551
 20
610.9492185972626
 10
847.7832029130542
 20
611.0937498472266
 10
847.7851560380537
 20
611.1855467222036
 10
847.7851560380537
 20
611.2246092221939
 10
847.7851560380537
 20
611.6542967220864
 10
847.6855466630786
 20
611.9570310970107
 10
847.4863279131284
 20
612.1328123469668
 10
847.2167966631957
 20
612.3710935969073
 10
846.8164060382959
 20
612.4902342218775
 10
846.2851560384287
 20
612.4902342218775
 10
845.7890622885527
 20
612.4902342218775
 10
845.4228513511442
 20
612.4033201593992
 10
845.1865232262033
 20
612.2294920344426
 10
844.9501951012625
 20
612.055663909486
 10
844.7753904138061
 20
611.748046722063
 10
844.6621091638344
 20
611.3066404721733
 10
844.6621091638344
 20
611.3066404721733
 10
843.6308591640923
 20
611.4472654721382
 10
843.6308591640923
 20
611.4472654721382
 10
843.7246091640689
 20
611.8886717220278
 10
843.8789060390303
 20
612.2451170344387
 10
844.0937497889765
 20
612.5166014093709
 10
844.3085935389229
 20
612.788085784303
 10
844.6191404138452
 20
612.9970701592507
 10
845.0253904137436
 20
613.1435545342141
 10
845.4316404136421
 20
613.2900389091775
 10
845.9023435385244
 20
613.3632810966592
 10
846.4374997883906
 20
613.3632810966592
 10
846.9687497882578
 20
613.3632810966592
 10
847.4003904131499
 20
613.3007810966748
 10
847.7324216630669
 20
613.175781096706
 10
848.0644529129838
 20
613.0507810967373
 10
848.3085935379229
 20
612.8935545342766
 10
848.4648435378838
 20
612.7041014093239
 10
848.6210935378447
 20
612.5146482843713
 10
848.7304685378174
 20
612.2753904719311
 10
848.7929685378017
 20
611.9863279720034
 10
848.828124787793
 20
611.8066404720483
 10
848.8457029127885
 20
611.4824217221294
 10
848.8457029127885
 20
611.0136717222466
 10
848.8457029127885
 20
611.0136717222466
 10
848.8457029127885
 20
609.6074217225981
 10
848.8457029127885
 20
609.6074217225981
 10
848.8457029127885
 20
608.6269529728432
 10
848.8681638502829
 20
608.0068357854983
 10
848.9130857252717
 20
607.7470701605632
 10
848.9580076002604
 20
607.4873045356281
 10
849.0468747877383
 20
607.2382810981904
 10
849.1796872877051
 20
606.99999984825
 10
849.1796872877051
 20
606.99999984825
 10
848.0781247879804
 20
606.99999984825
 10
848.0781247879804
 20
606.99999984825
 10
847.9687497880078
 20
607.2187498481953
 10
847.8984372880253
 20
607.4746092231313
 10
847.8671872880332
 20
607.7675779730581
 97
        0
 97
        0
 92
        1
 93
        1
 72
     4
 94
        3
 73
     0
 74
     1
 95
       35
 96
       31
 40
0.0
 40
0.0
 40
0.0
 40
0.0
 40
1.0
 40
1.0
 40
1.0
 40
2.0
 40
2.0
 40
2.0
 40
3.0
 40
3.0
 40
3.0
 40
4.0
 40
4.0
 40
4.0
 40
5.0
 40
5.0
 40
5.0
 40
6.0
 40
6.0
 40
6.0
 40
7.0
 40
7.0
 40
7.0
 40
8.0
 40
8.0
 40
8.0
 40
9.0
 40
9.0
 40
9.0
 40
10.0
 40
10.0
 40
10.0
 40
10.0
 10
847.7792966630551
 20
610.1230467224692
 10
847.3964841631508
 20
609.9667967225083
 10
846.8222654132944
 20
609.8339842225415
 10
846.0566404134859
 20
609.7246092225688
 10
845.6230466635942
 20
609.6621092225845
 10
845.3164060386708
 20
609.591796722602
 10
845.1367185387159
 20
609.5136717226216
 10
844.9570310387608
 20
609.4355467226411
 10
844.8183591637954
 20
609.3212889101696
 10
844.7207029138198
 20
609.1708982852073
 10
844.6230466638442
 20
609.0205076602449
 10
844.5742185388564
 20
608.8535154727866
 10
844.5742185388564
 20
608.6699217228326
 10
844.5742185388564
 20
608.3886717229028
 10
844.6806638513298
 20
608.1542967229614
 10
844.8935544762766
 20
607.9667967230083
 10
845.1064451012234
 20
607.7792967230552
 10
845.4179685386455
 20
607.6855467230786
 10
845.8281247885429
 20
607.6855467230786
 10
846.2343747884414
 20
607.6855467230786
 10
846.595702913351
 20
607.7744139105564
 10
846.9121091632719
 20
607.952148285512
 10
847.2285154131929
 20
608.1298826604675
 10
847.4609372881348
 20
608.3730467229067
 10
847.6093747880976
 20
608.6816404728296
 10
847.7226560380693
 20
608.91992172277
 10
847.7792966630551
 20
609.2714842226821
 10
847.7792966630551
 20
609.736327972566
 10
847.7792966630551
 20
609.736327972566
 10
847.7792966630551
 20
610.1230467224692
 10
847.7792966630551
 20
610.1230467224692
 97
        0
 97
        0
 75
     2
 76
     1
 98
        0
  0
POLYLINE
  5
A9
330
90
100
AcDbEntity
  8
0
 62
   240
420
 15539236
370
    35
100
AcDb2dPolyline
 66
     1
 10
0.0
 20
0.0
 30
0.0
  0
VERTEX
  5
AA
330
A9
100
AcDbEntity
  8
0
 62
   240
420
 15539236
370
    35
100
AcDbVertex
100
AcDb2dVertex
 10
850.4863279123784
 20
614.3769529714058
 30
0.0
  0
VERTEX
  5
AB
330
A9
100
AcDbEntity
  8
0
 62
   240
420
 15539236
370
    35
100
AcDbVertex
100
AcDb2dVertex
 10
850.4863279123784
 20
615.5898435961026
 30
0.0
  0
VERTEX
  5
AC
330
A9
100
AcDbEntity
  8
0
 62
   240
420
 15539236
370
    35
100
AcDbVertex
100
AcDb2dVertex
 10
851.5410154121147
 20
615.5898435961026
 30
0.0
  0
VERTEX
  5
AD
330
A9
100
AcDbEntity
  8
0
 62
   240
420
 15539236
370
    35
100
AcDbVertex
100
AcDb2dVertex
 10
851.5410154121147
 20
614.3769529714058
 30
0.0
  0
VERTEX
  5
AE
330
A9
100
AcDbEntity
  8
0
 62
   240
420
 15539236
370
    35
100
AcDbVertex
100
AcDb2dVertex
 10
850.4863279123784
 20
614.3769529714058
 30
0.0
  0
SEQEND
  5
AF
330
A9
100
AcDbEntity
  8
0
 62
   240
420
 15539236
370
    35
  0
POLYLINE
  5
B0
330
90
100
AcDbEntity
  8
0
 62
   240
420
 15539236
370
    35
100
AcDb2dPolyline
 66
     1
 10
0.0
 20
0.0
 30
0.0
  0
VERTEX
  5
B1
330
B0
100
AcDbEntity
  8
0
 62
   240
420
 15539236
370
    35
100
AcDbVertex
100
AcDb2dVertex
 10
850.4863279123784
 20
606.99999984825
 30
0.0
  0
VERTEX
  5
B2
330
B0
100
AcDbEntity
  8
0
 62
   240
420
 15539236
370
    35
100
AcDbVertex
100
AcDb2dVertex
 10
850.4863279123784
 20
613.2226560966943
 30
0.0
  0
VERTEX
  5
B3
330
B0
100
AcDbEntity
  8
0
 62
   240
420
 15539236
370
    35
100
AcDbVertex
100
AcDb2dVertex
 10
851.5410154121147
 20
613.2226560966943
 30
0.0
  0
VERTEX
  5
B4
330
B0
100
AcDbEntity
  8
0
 62
   240
420
 15539236
370
    35
100
AcDbVertex
100
AcDb2dVertex
 10
851.5410154121147
 20
606.99999984825
 30
0.0
  0
VERTEX
  5
B5
330
B0
100
AcDbEntity
  8
0
 62
   240
420
 15539236
370
    35
100
AcDbVertex
100
AcDb2dVertex
 10
850.4863279123784
 20
606.99999984825
 30
0.0
  0
SEQEND
  5
B6
330
B0
100
AcDbEntity
  8
0
 62
   240
420
 15539236
370
    35
  0
HATCH
  5
B7
330
90
100
AcDbEntity
  8
0
 62
   240
420
 15539236
100
AcDbHatch
 10
0.0
 20
0.0
 30
0.0
210
0.0
220
0.0
230
1.0
  2
SOLID
 70
     1
 71
     0
 91
        2
 92
        1
 93
        4
 72
     1
 10
850.4863279123784
 20
614.3769529714058
 11
850.4863279123784
 21
615.5898435961026
 72
     1
 10
850.4863279123784
 20
615.5898435961026
 11
851.5410154121147
 21
615.5898435961026
 72
     1
 10
851.5410154121147
 20
615.5898435961026
 11
851.5410154121147
 21
614.3769529714058
 72
     1
 10
851.5410154121147
 20
614.3769529714058
 11
850.4863279123784
 21
614.3769529714058
 97
        0
 92
        1
 93
        4
 72
     1
 10
850.4863279123784
 20
606.99999984825
 11
850.4863279123784
 21
613.2226560966943
 72
     1
 10
850.4863279123784
 20
613.2226560966943
 11
851.5410154121147
 21
613.2226560966943
 72
     1
 10
851.5410154121147
 20
613.2226560966943
 11
851.5410154121147
 21
606.99999984825
 72
     1
 10
851.5410154121147
 20
606.99999984825
 11
850.4863279123784
 21
606.99999984825
 97
        0
 75
     2
 76
     1
 98
        0
  0
SPLINE
  5
B8
330
90
100
AcDbEntity
  8
0
 62
   240
420
 15539236
370
    35
100
AcDbSpline
210
0.0
220
0.0
230
1.0
 70
    11
 71
     3
 72
    68
 73
    64
 74
     0
 42
0.0000000001
 43
0.0000000001
 12
1.0
 22
0.0
 32
0.0
 13
1.0
 23
0.0
 33
0.0
 40
0.0
 40
0.0
 40
0.0
 40
0.0
 40
1.0
 40
1.0
 40
1.0
 40
2.0
 40
2.0
 40
2.0
 40
3.0
 40
3.0
 40
3.0
 40
4.0
 40
4.0
 40
4.0
 40
5.0
 40
5.0
 40
5.0
 40
6.0
 40
6.0
 40
6.0
 40
7.0
 40
7.0
 40
7.0
 40
8.0
 40
8.0
 40
8.0
 40
9.0
 40
9.0
 40
9.0
 40
10.0
 40
10.0
 40
10.0
 40
11.0
 40
11.0
 40
11.0
 40
12.0
 40
12.0
 40
12.0
 40
13.0
 40
13.0
 40
13.0
 40
14.0
 40
14.0
 40
14.0
 40
15.0
 40
15.0
 40
15.0
 40
16.0
 40
16.0
 40
16.0
 40
17.0
 40
17.0
 40
17.0
 40
18.0
 40
18.0
 40
18.0
 40
19.0
 40
19.0
 40
19.0
 40
20.0
 40
20.0
 40
20.0
 40
21.0
 40
21.0
 40
21.0
 40
21.0
 10
852.9531247867617
 20
606.4843748483789
 30
0.0
 10
852.9531247867617
 20
606.4843748483789
 30
0.0
 10
853.9785154115053
 20
606.332031098417
 30
0.0
 10
853.9785154115053
 20
606.332031098417
 30
0.0
 10
854.0214841614946
 20
606.015624848496
 30
0.0
 10
854.1406247864649
 20
605.7851560985537
 30
0.0
 10
854.335937286416
 20
605.6406248485898
 30
0.0
 10
854.5976560363506
 20
605.4453123486387
 30
0.0
 10
854.9550779112612
 20
605.347656098663
 30
0.0
 10
855.4082029111479
 20
605.347656098663
 30
0.0
 10
855.8964841610259
 20
605.347656098663
 30
0.0
 10
856.2734372859317
 20
605.4453123486387
 30
0.0
 10
856.5390622858653
 20
605.6406248485898
 30
0.0
 10
856.8046872857988
 20
605.835937348541
 30
0.0
 10
856.9843747857539
 20
606.1093748484726
 30
0.0
 10
857.0781247857304
 20
606.4609373483847
 30
0.0
 10
857.1328122857168
 20
606.6757810983311
 30
0.0
 10
857.1582029107104
 20
607.1269529732183
 30
0.0
 10
857.1542966607115
 20
607.8144529730464
 30
0.0
 10
856.6933591608266
 20
607.2714842231821
 30
0.0
 10
856.1191404109702
 20
606.99999984825
 30
0.0
 10
855.4316404111421
 20
606.99999984825
 30
0.0
 10
854.5761716613559
 20
606.99999984825
 30
0.0
 10
853.9140622865215
 20
607.3085935981728
 30
0.0
 10
853.4453122866387
 20
607.9257810980185
 30
0.0
 10
852.9765622867559
 20
608.5429685978643
 30
0.0
 10
852.7421872868144
 20
609.2832029726792
 30
0.0
 10
852.7421872868144
 20
610.1464842224634
 30
0.0
 10
852.7421872868144
 20
610.7402342223149
 30
0.0
 10
852.8496091617876
 20
611.288085784678
 30
0.0
 10
853.0644529117338
 20
611.7900389095524
 30
0.0
 10
853.2792966616802
 20
612.291992034427
 30
0.0
 10
853.5908200991023
 20
612.6796873468301
 30
0.0
 10
853.9990232240002
 20
612.9531248467617
 30
0.0
 10
854.4072263488981
 20
613.2265623466933
 30
0.0
 10
854.8867185362783
 20
613.3632810966592
 30
0.0
 10
855.4374997861406
 20
613.3632810966592
 30
0.0
 10
856.171874785957
 20
613.3632810966592
 30
0.0
 10
856.7773435358057
 20
613.0664060967334
 30
0.0
 10
857.2539060356866
 20
612.4726560968818
 30
0.0
 10
857.2539060356866
 20
612.4726560968818
 30
0.0
 10
857.2539060356866
 20
613.2226560966943
 30
0.0
 10
857.2539060356866
 20
613.2226560966943
 30
0.0
 10
857.2539060356866
 20
613.2226560966943
 30
0.0
 10
858.2265622854434
 20
613.2226560966943
 30
0.0
 10
858.2265622854434
 20
613.2226560966943
 30
0.0
 10
858.2265622854434
 20
613.2226560966943
 30
0.0
 10
858.2265622854434
 20
607.843749848039
 30
0.0
 10
858.2265622854434
 20
607.843749848039
 30
0.0
 10
858.2265622854434
 20
606.8749998482813
 30
0.0
 10
858.127929472968
 20
606.1884764109528
 30
0.0
 10
857.9306638480173
 20
605.7841795360539
 30
0.0
 10
857.7333982230666
 20
605.379882661155
 30
0.0
 10
857.4208982231447
 20
605.0605467237349
 30
0.0
 10
856.9931638482517
 20
604.8261717237934
 30
0.0
 10
856.5654294733587
 20
604.591796723852
 30
0.0
 10
856.0390622859902
 20
604.4746092238813
 30
0.0
 10
855.4140622861464
 20
604.4746092238813
 30
0.0
 10
854.6718747863321
 20
604.4746092238813
 30
0.0
 10
854.0722654114819
 20
604.6416014113396
 30
0.0
 10
853.6152341615962
 20
604.9755857862561
 30
0.0
 10
853.1582029117104
 20
605.3095701611726
 30
0.0
 10
852.9374997867656
 20
605.8124998485468
 30
0.0
 10
852.9531247867617
 20
606.4843748483789
 30
0.0
  0
SPLINE
  5
B9
330
90
100
AcDbEntity
  8
0
 62
   240
420
 15539236
370
    35
100
AcDbSpline
210
0.0
220
0.0
230
1.0
 70
    11
 71
     3
 72
    29
 73
    25
 74
     0
 42
0.0000000001
 43
0.0000000001
 12
1.0
 22
0.0
 32
0.0
 13
1.0
 23
0.0
 33
0.0
 40
0.0
 40
0.0
 40
0.0
 40
0.0
 40
1.0
 40
1.0
 40
1.0
 40
2.0
 40
2.0
 40
2.0
 40
3.0
 40
3.0
 40
3.0
 40
4.0
 40
4.0
 40
4.0
 40
5.0
 40
5.0
 40
5.0
 40
6.0
 40
6.0
 40
6.0
 40
7.0
 40
7.0
 40
7.0
 40
8.0
 40
8.0
 40
8.0
 40
8.0
 10
853.8261716615434
 20
610.2226560974443
 30
0.0
 10
853.8261716615434
 20
609.4062498476484
 30
0.0
 10
853.9882810365029
 20
608.8105467227973
 30
0.0
 10
854.3124997864219
 20
608.4355467228911
 30
0.0
 10
854.6367185363408
 20
608.0605467229849
 30
0.0
 10
855.0429685362392
 20
607.8730467230317
 30
0.0
 10
855.5312497861172
 20
607.8730467230317
 30
0.0
 10
856.0156247859961
 20
607.8730467230317
 30
0.0
 10
856.4218747858945
 20
608.0595701604851
 30
0.0
 10
856.7499997858125
 20
608.4326170353918
 30
0.0
 10
857.0781247857304
 20
608.8056639102986
 30
0.0
 10
857.2421872856894
 20
609.3906248476524
 30
0.0
 10
857.2421872856894
 20
610.1874998474531
 30
0.0
 10
857.2421872856894
 20
610.9492185972626
 30
0.0
 10
857.0732419732317
 20
611.5234373471192
 30
0.0
 10
856.7353513483162
 20
611.9101560970224
 30
0.0
 10
856.3974607234006
 20
612.2968748469258
 30
0.0
 10
855.9902341610024
 20
612.4902342218775
 30
0.0
 10
855.5136716611215
 20
612.4902342218775
 30
0.0
 10
855.0449216612387
 20
612.4902342218775
 30
0.0
 10
854.6464841613383
 20
612.299804534425
 30
0.0
 10
854.3183591614204
 20
611.9189451595203
 30
0.0
 10
853.9902341615024
 20
611.5380857846154
 30
0.0
 10
853.8261716615434
 20
610.9726560972568
 30
0.0
 10
853.8261716615434
 20
610.2226560974443
 30
0.0
  0
HATCH
  5
BA
330
90
100
AcDbEntity
  8
0
 62
   240
420
 15539236
100
AcDbHatch
 10
0.0
 20
0.0
 30
0.0
210
0.0
220
0.0
230
1.0
  2
SOLID
 70
     1
 71
     0
 91
        2
 92
        1
 93
        1
 72
     4
 94
        3
 73
     0
 74
     1
 95
       68
 96
       64
 40
0.0
 40
0.0
 40
0.0
 40
0.0
 40
1.0
 40
1.0
 40
1.0
 40
2.0
 40
2.0
 40
2.0
 40
3.0
 40
3.0
 40
3.0
 40
4.0
 40
4.0
 40
4.0
 40
5.0
 40
5.0
 40
5.0
 40
6.0
 40
6.0
 40
6.0
 40
7.0
 40
7.0
 40
7.0
 40
8.0
 40
8.0
 40
8.0
 40
9.0
 40
9.0
 40
9.0
 40
10.0
 40
10.0
 40
10.0
 40
11.0
 40
11.0
 40
11.0
 40
12.0
 40
12.0
 40
12.0
 40
13.0
 40
13.0
 40
13.0
 40
14.0
 40
14.0
 40
14.0
 40
15.0
 40
15.0
 40
15.0
 40
16.0
 40
16.0
 40
16.0
 40
17.0
 40
17.0
 40
17.0
 40
18.0
 40
18.0
 40
18.0
 40
19.0
 40
19.0
 40
19.0
 40
20.0
 40
20.0
 40
20.0
 40
21.0
 40
21.0
 40
21.0
 40
21.0
 10
852.9531247867617
 20
606.4843748483789
 10
852.9531247867617
 20
606.4843748483789
 10
853.9785154115053
 20
606.332031098417
 10
853.9785154115053
 20
606.332031098417
 10
854.0214841614946
 20
606.015624848496
 10
854.1406247864649
 20
605.7851560985537
 10
854.335937286416
 20
605.6406248485898
 10
854.5976560363506
 20
605.4453123486387
 10
854.9550779112612
 20
605.347656098663
 10
855.4082029111479
 20
605.347656098663
 10
855.8964841610259
 20
605.347656098663
 10
856.2734372859317
 20
605.4453123486387
 10
856.5390622858653
 20
605.6406248485898
 10
856.8046872857988
 20
605.835937348541
 10
856.9843747857539
 20
606.1093748484726
 10
857.0781247857304
 20
606.4609373483847
 10
857.1328122857168
 20
606.6757810983311
 10
857.1582029107104
 20
607.1269529732183
 10
857.1542966607115
 20
607.8144529730464
 10
856.6933591608266
 20
607.2714842231821
 10
856.1191404109702
 20
606.99999984825
 10
855.4316404111421
 20
606.99999984825
 10
854.5761716613559
 20
606.99999984825
 10
853.9140622865215
 20
607.3085935981728
 10
853.4453122866387
 20
607.9257810980185
 10
852.9765622867559
 20
608.5429685978643
 10
852.7421872868144
 20
609.2832029726792
 10
852.7421872868144
 20
610.1464842224634
 10
852.7421872868144
 20
610.7402342223149
 10
852.8496091617876
 20
611.288085784678
 10
853.0644529117338
 20
611.7900389095524
 10
853.2792966616802
 20
612.291992034427
 10
853.5908200991023
 20
612.6796873468301
 10
853.9990232240002
 20
612.9531248467617
 10
854.4072263488981
 20
613.2265623466933
 10
854.8867185362783
 20
613.3632810966592
 10
855.4374997861406
 20
613.3632810966592
 10
856.171874785957
 20
613.3632810966592
 10
856.7773435358057
 20
613.0664060967334
 10
857.2539060356866
 20
612.4726560968818
 10
857.2539060356866
 20
612.4726560968818
 10
857.2539060356866
 20
613.2226560966943
 10
857.2539060356866
 20
613.2226560966943
 10
857.2539060356866
 20
613.2226560966943
 10
858.2265622854434
 20
613.2226560966943
 10
858.2265622854434
 20
613.2226560966943
 10
858.2265622854434
 20
613.2226560966943
 10
858.2265622854434
 20
607.843749848039
 10
858.2265622854434
 20
607.843749848039
 10
858.2265622854434
 20
606.8749998482813
 10
858.127929472968
 20
606.1884764109528
 10
857.9306638480173
 20
605.7841795360539
 10
857.7333982230666
 20
605.379882661155
 10
857.4208982231447
 20
605.0605467237349
 10
856.9931638482517
 20
604.8261717237934
 10
856.5654294733587
 20
604.591796723852
 10
856.0390622859902
 20
604.4746092238813
 10
855.4140622861464
 20
604.4746092238813
 10
854.6718747863321
 20
604.4746092238813
 10
854.0722654114819
 20
604.6416014113396
 10
853.6152341615962
 20
604.9755857862561
 10
853.1582029117104
 20
605.3095701611726
 10
852.9374997867656
 20
605.8124998485468
 10
852.9531247867617
 20
606.4843748483789
 97
        0
 97
        0
 92
        1
 93
        1
 72
     4
 94
        3
 73
     0
 74
     1
 95
       29
 96
       25
 40
0.0
 40
0.0
 40
0.0
 40
0.0
 40
1.0
 40
1.0
 40
1.0
 40
2.0
 40
2.0
 40
2.0
 40
3.0
 40
3.0
 40
3.0
 40
4.0
 40
4.0
 40
4.0
 40
5.0
 40
5.0
 40
5.0
 40
6.0
 40
6.0
 40
6.0
 40
7.0
 40
7.0
 40
7.0
 40
8.0
 40
8.0
 40
8.0
 40
8.0
 10
853.8261716615434
 20
610.2226560974443
 10
853.8261716615434
 20
609.4062498476484
 10
853.9882810365029
 20
608.8105467227973
 10
854.3124997864219
 20
608.4355467228911
 10
854.6367185363408
 20
608.0605467229849
 10
855.0429685362392
 20
607.8730467230317
 10
855.5312497861172
 20
607.8730467230317
 10
856.0156247859961
 20
607.8730467230317
 10
856.4218747858945
 20
608.0595701604851
 10
856.7499997858125
 20
608.4326170353918
 10
857.0781247857304
 20
608.8056639102986
 10
857.2421872856894
 20
609.3906248476524
 10
857.2421872856894
 20
610.1874998474531
 10
857.2421872856894
 20
610.9492185972626
 10
857.0732419732317
 20
611.5234373471192
 10
856.7353513483162
 20
611.9101560970224
 10
856.3974607234006
 20
612.2968748469258
 10
855.9902341610024
 20
612.4902342218775
 10
855.5136716611215
 20
612.4902342218775
 10
855.0449216612387
 20
612.4902342218775
 10
854.6464841613383
 20
612.299804534425
 10
854.3183591614204
 20
611.9189451595203
 10
853.9902341615024
 20
611.5380857846154
 10
853.8261716615434
 20
610.9726560972568
 10
853.8261716615434
 20
610.2226560974443
 97
        0
 97
        0
 75
     2
 76
     1
 98
        0
  0
SPLINE
  5
BB
330
90
100
AcDbEntity
  8
0
 62
   240
420
 15539236
370
    35
100
AcDbSpline
210
0.0
220
0.0
230
1.0
 70
    11
 71
     3
 72
    56
 73
    52
 74
     0
 42
0.0000000001
 43
0.0000000001
 12
1.0
 22
0.0
 32
0.0
 13
1.0
 23
0.0
 33
0.0
 40
0.0
 40
0.0
 40
0.0
 40
0.0
 40
1.0
 40
1.0
 40
1.0
 40
2.0
 40
2.0
 40
2.0
 40
3.0
 40
3.0
 40
3.0
 40
4.0
 40
4.0
 40
4.0
 40
5.0
 40
5.0
 40
5.0
 40
6.0
 40
6.0
 40
6.0
 40
7.0
 40
7.0
 40
7.0
 40
8.0
 40
8.0
 40
8.0
 40
9.0
 40
9.0
 40
9.0
 40
10.0
 40
10.0
 40
10.0
 40
11.0
 40
11.0
 40
11.0
 40
12.0
 40
12.0
 40
12.0
 40
13.0
 40
13.0
 40
13.0
 40
14.0
 40
14.0
 40
14.0
 40
15.0
 40
15.0
 40
15.0
 40
16.0
 40
16.0
 40
16.0
 40
17.0
 40
17.0
 40
17.0
 40
17.0
 10
859.8203122850449
 20
606.99999984825
 30
0.0
 10
859.8203122850449
 20
606.99999984825
 30
0.0
 10
859.8203122850449
 20
615.5898435961026
 30
0.0
 10
859.8203122850449
 20
615.5898435961026
 30
0.0
 10
859.8203122850449
 20
615.5898435961026
 30
0.0
 10
860.8749997847813
 20
615.5898435961026
 30
0.0
 10
860.8749997847813
 20
615.5898435961026
 30
0.0
 10
860.8749997847813
 20
615.5898435961026
 30
0.0
 10
860.8749997847813
 20
612.507812346873
 30
0.0
 10
860.8749997847813
 20
612.507812346873
 30
0.0
 10
861.3671872846581
 20
613.0781248467305
 30
0.0
 10
861.988281034503
 20
613.3632810966592
 30
0.0
 10
862.7382810343154
 20
613.3632810966592
 30
0.0
 10
863.1992185342002
 20
613.3632810966592
 30
0.0
 10
863.5996091591
 20
613.2724607841818
 30
0.0
 10
863.9394529090151
 20
613.0908201592273
 30
0.0
 10
864.2792966589302
 20
612.9091795342727
 30
0.0
 10
864.5224607213694
 20
612.6582029718354
 30
0.0
 10
864.6689450963328
 20
612.3378904719156
 30
0.0
 10
864.8154294712962
 20
612.0175779719956
 30
0.0
 10
864.8886716587779
 20
611.5527342221118
 30
0.0
 10
864.8886716587779
 20
610.9433592222641
 30
0.0
 10
864.8886716587779
 20
610.9433592222641
 30
0.0
 10
864.8886716587779
 20
606.99999984825
 30
0.0
 10
864.8886716587779
 20
606.99999984825
 30
0.0
 10
864.8886716587779
 20
606.99999984825
 30
0.0
 10
863.8339841590415
 20
606.99999984825
 30
0.0
 10
863.8339841590415
 20
606.99999984825
 30
0.0
 10
863.8339841590415
 20
606.99999984825
 30
0.0
 10
863.8339841590415
 20
610.9433592222641
 30
0.0
 10
863.8339841590415
 20
610.9433592222641
 30
0.0
 10
863.8339841590415
 20
611.4707029721324
 30
0.0
 10
863.71972634657
 20
611.8544920345364
 30
0.0
 10
863.4912107216272
 20
612.0947264094763
 30
0.0
 10
863.2626950966843
 20
612.3349607844162
 30
0.0
 10
862.9394529092651
 20
612.4550779718862
 30
0.0
 10
862.5214841593696
 20
612.4550779718862
 30
0.0
 10
862.2089841594477
 20
612.4550779718862
 30
0.0
 10
861.9150388470213
 20
612.3740232844065
 30
0.0
 10
861.63964822209
 20
612.211913909447
 30
0.0
 10
861.3642575971589
 20
612.0498045344875
 30
0.0
 10
861.1679685347079
 20
611.8300779720424
 30
0.0
 10
861.0507810347373
 20
611.5527342221118
 30
0.0
 10
860.9335935347666
 20
611.2753904721811
 30
0.0
 10
860.8749997847813
 20
610.8925779722769
 30
0.0
 10
860.8749997847813
 20
610.404296722399
 30
0.0
 10
860.8749997847813
 20
610.404296722399
 30
0.0
 10
860.8749997847813
 20
606.99999984825
 30
0.0
 10
860.8749997847813
 20
606.99999984825
 30
0.0
 10
860.8749997847813
 20
606.99999984825
 30
0.0
 10
859.8203122850449
 20
606.99999984825
 30
0.0
 10
859.8203122850449
 20
606.99999984825
 30
0.0
  0
HATCH
  5
BC
330
90
100
AcDbEntity
  8
0
 62
   240
420
 15539236
100
AcDbHatch
 10
0.0
 20
0.0
 30
0.0
210
0.0
220
0.0
230
1.0
  2
SOLID
 70
     1
 71
     0
 91
        1
 92
        1
 93
        1
 72
     4
 94
        3
 73
     0
 74
     1
 95
       56
 96
       52
 40
0.0
 40
0.0
 40
0.0
 40
0.0
 40
1.0
 40
1.0
 40
1.0
 40
2.0
 40
2.0
 40
2.0
 40
3.0
 40
3.0
 40
3.0
 40
4.0
 40
4.0
 40
4.0
 40
5.0
 40
5.0
 40
5.0
 40
6.0
 40
6.0
 40
6.0
 40
7.0
 40
7.0
 40
7.0
 40
8.0
 40
8.0
 40
8.0
 40
9.0
 40
9.0
 40
9.0
 40
10.0
 40
10.0
 40
10.0
 40
11.0
 40
11.0
 40
11.0
 40
12.0
 40
12.0
 40
12.0
 40
13.0
 40
13.0
 40
13.0
 40
14.0
 40
14.0
 40
14.0
 40
15.0
 40
15.0
 40
15.0
 40
16.0
 40
16.0
 40
16.0
 40
17.0
 40
17.0
 40
17.0
 40
17.0
 10
859.8203122850449
 20
606.99999984825
 10
859.8203122850449
 20
606.99999984825
 10
859.8203122850449
 20
615.5898435961026
 10
859.8203122850449
 20
615.5898435961026
 10
859.8203122850449
 20
615.5898435961026
 10
860.8749997847813
 20
615.5898435961026
 10
860.8749997847813
 20
615.5898435961026
 10
860.8749997847813
 20
615.5898435961026
 10
860.8749997847813
 20
612.507812346873
 10
860.8749997847813
 20
612.507812346873
 10
861.3671872846581
 20
613.0781248467305
 10
861.988281034503
 20
613.3632810966592
 10
862.7382810343154
 20
613.3632810966592
 10
863.1992185342002
 20
613.3632810966592
 10
863.5996091591
 20
613.2724607841818
 10
863.9394529090151
 20
613.0908201592273
 10
864.2792966589302
 20
612.9091795342727
 10
864.5224607213694
 20
612.6582029718354
 10
864.6689450963328
 20
612.3378904719156
 10
864.8154294712962
 20
612.0175779719956
 10
864.8886716587779
 20
611.5527342221118
 10
864.8886716587779
 20
610.9433592222641
 10
864.8886716587779
 20
610.9433592222641
 10
864.8886716587779
 20
606.99999984825
 10
864.8886716587779
 20
606.99999984825
 10
864.8886716587779
 20
606.99999984825
 10
863.8339841590415
 20
606.99999984825
 10
863.8339841590415
 20
606.99999984825
 10
863.8339841590415
 20
606.99999984825
 10
863.8339841590415
 20
610.9433592222641
 10
863.8339841590415
 20
610.9433592222641
 10
863.8339841590415
 20
611.4707029721324
 10
863.71972634657
 20
611.8544920345364
 10
863.4912107216272
 20
612.0947264094763
 10
863.2626950966843
 20
612.3349607844162
 10
862.9394529092651
 20
612.4550779718862
 10
862.5214841593696
 20
612.4550779718862
 10
862.2089841594477
 20
612.4550779718862
 10
861.9150388470213
 20
612.3740232844065
 10
861.63964822209
 20
612.211913909447
 10
861.3642575971589
 20
612.0498045344875
 10
861.1679685347079
 20
611.8300779720424
 10
861.0507810347373
 20
611.5527342221118
 10
860.9335935347666
 20
611.2753904721811
 10
860.8749997847813
 20
610.8925779722769
 10
860.8749997847813
 20
610.404296722399
 10
860.8749997847813
 20
610.404296722399
 10
860.8749997847813
 20
606.99999984825
 10
860.8749997847813
 20
606.99999984825
 10
860.8749997847813
 20
606.99999984825
 10
859.8203122850449
 20
606.99999984825
 10
859.8203122850449
 20
606.99999984825
 97
        0
 97
        0
 75
     2
 76
     1
 98
        0
  0
SPLINE
  5
BD
330
90
100
AcDbEntity
  8
0
 62
   240
420
 15539236
370
    35
100
AcDbSpline
210
0.0
220
0.0
230
1.0
 70
    11
 71
     3
 72
    65
 73
    61
 74
     0
 42
0.0000000001
 43
0.0000000001
 12
1.0
 22
0.0
 32
0.0
 13
1.0
 23
0.0
 33
0.0
 40
0.0
 40
0.0
 40
0.0
 40
0.0
 40
1.0
 40
1.0
 40
1.0
 40
2.0
 40
2.0
 40
2.0
 40
3.0
 40
3.0
 40
3.0
 40
4.0
 40
4.0
 40
4.0
 40
5.0
 40
5.0
 40
5.0
 40
6.0
 40
6.0
 40
6.0
 40
7.0
 40
7.0
 40
7.0
 40
8.0
 40
8.0
 40
8.0
 40
9.0
 40
9.0
 40
9.0
 40
10.0
 40
10.0
 40
10.0
 40
11.0
 40
11.0
 40
11.0
 40
12.0
 40
12.0
 40
12.0
 40
13.0
 40
13.0
 40
13.0
 40
14.0
 40
14.0
 40
14.0
 40
15.0
 40
15.0
 40
15.0
 40
16.0
 40
16.0
 40
16.0
 40
17.0
 40
17.0
 40
17.0
 40
18.0
 40
18.0
 40
18.0
 40
19.0
 40
19.0
 40
19.0
 40
20.0
 40
20.0
 40
20.0
 40
20.0
 10
868.7968747828007
 20
607.9433592230141
 30
0.0
 10
868.7968747828007
 20
607.9433592230141
 30
0.0
 10
868.9492185327626
 20
607.0117185982471
 30
0.0
 10
868.9492185327626
 20
607.0117185982471
 30
0.0
 10
868.6523435328369
 20
606.9492185982626
 30
0.0
 10
868.3867185329033
 20
606.9179685982705
 30
0.0
 10
868.1523435329619
 20
606.9179685982705
 30
0.0
 10
867.7695310330575
 20
606.9179685982705
 30
0.0
 10
867.4726560331318
 20
606.9785154732554
 30
0.0
 10
867.2617185331845
 20
607.0996092232251
 30
0.0
 10
867.0507810332373
 20
607.2207029731948
 30
0.0
 10
866.9023435332743
 20
607.379882660655
 30
0.0
 10
866.8164060332958
 20
607.5771482856057
 30
0.0
 10
866.7304685333173
 20
607.7744139105564
 30
0.0
 10
866.6874997833281
 20
608.1894529729526
 30
0.0
 10
866.6874997833281
 20
608.8222654727945
 30
0.0
 10
866.6874997833281
 20
608.8222654727945
 30
0.0
 10
866.6874997833281
 20
612.4023435968994
 30
0.0
 10
866.6874997833281
 20
612.4023435968994
 30
0.0
 10
866.6874997833281
 20
612.4023435968994
 30
0.0
 10
865.9140622835215
 20
612.4023435968994
 30
0.0
 10
865.9140622835215
 20
612.4023435968994
 30
0.0
 10
865.9140622835215
 20
612.4023435968994
 30
0.0
 10
865.9140622835215
 20
613.2226560966943
 30
0.0
 10
865.9140622835215
 20
613.2226560966943
 30
0.0
 10
865.9140622835215
 20
613.2226560966943
 30
0.0
 10
866.6874997833281
 20
613.2226560966943
 30
0.0
 10
866.6874997833281
 20
613.2226560966943
 30
0.0
 10
866.6874997833281
 20
613.2226560966943
 30
0.0
 10
866.6874997833281
 20
614.763671721309
 30
0.0
 10
866.6874997833281
 20
614.763671721309
 30
0.0
 10
866.6874997833281
 20
614.763671721309
 30
0.0
 10
867.7363279080658
 20
615.3964842211509
 30
0.0
 10
867.7363279080658
 20
615.3964842211509
 30
0.0
 10
867.7363279080658
 20
615.3964842211509
 30
0.0
 10
867.7363279080658
 20
613.2226560966943
 30
0.0
 10
867.7363279080658
 20
613.2226560966943
 30
0.0
 10
867.7363279080658
 20
613.2226560966943
 30
0.0
 10
868.7968747828007
 20
613.2226560966943
 30
0.0
 10
868.7968747828007
 20
613.2226560966943
 30
0.0
 10
868.7968747828007
 20
613.2226560966943
 30
0.0
 10
868.7968747828007
 20
612.4023435968994
 30
0.0
 10
868.7968747828007
 20
612.4023435968994
 30
0.0
 10
868.7968747828007
 20
612.4023435968994
 30
0.0
 10
867.7363279080658
 20
612.4023435968994
 30
0.0
 10
867.7363279080658
 20
612.4023435968994
 30
0.0
 10
867.7363279080658
 20
612.4023435968994
 30
0.0
 10
867.7363279080658
 20
608.763671722809
 30
0.0
 10
867.7363279080658
 20
608.763671722809
 30
0.0
 10
867.7363279080658
 20
608.4628904728843
 30
0.0
 10
867.7548825955613
 20
608.2695310979326
 30
0.0
 10
867.791991970552
 20
608.1835935979541
 30
0.0
 10
867.8291013455427
 20
608.0976560979756
 30
0.0
 10
867.8896482205275
 20
608.0292967229926
 30
0.0
 10
867.9736325955066
 20
607.9785154730054
 30
0.0
 10
868.0576169704856
 20
607.9277342230181
 30
0.0
 10
868.1777341579556
 20
607.9023435980243
 30
0.0
 10
868.3339841579165
 20
607.9023435980243
 30
0.0
 10
868.4511716578872
 20
607.9023435980243
 30
0.0
 10
868.6054685328486
 20
607.9160154730209
 30
0.0
 10
868.7968747828007
 20
607.9433592230141
 30
0.0
  0
HATCH
  5
BE
330
90
100
AcDbEntity
  8
0
 62
   240
420
 15539236
100
AcDbHatch
 10
0.0
 20
0.0
 30
0.0
210
0.0
220
0.0
230
1.0
  2
SOLID
 70
     1
 71
     0
 91
        1
 92
        1
 93
        1
 72
     4
 94
        3
 73
     0
 74
     1
 95
       65
 96
       61
 40
0.0
 40
0.0
 40
0.0
 40
0.0
 40
1.0
 40
1.0
 40
1.0
 40
2.0
 40
2.0
 40
2.0
 40
3.0
 40
3.0
 40
3.0
 40
4.0
 40
4.0
 40
4.0
 40
5.0
 40
5.0
 40
5.0
 40
6.0
 40
6.0
 40
6.0
 40
7.0
 40
7.0
 40
7.0
 40
8.0
 40
8.0
 40
8.0
 40
9.0
 40
9.0
 40
9.0
 40
10.0
 40
10.0
 40
10.0
 40
11.0
 40
11.0
 40
11.0
 40
12.0
 40
12.0
 40
12.0
 40
13.0
 40
13.0
 40
13.0
 40
14.0
 40
14.0
 40
14.0
 40
15.0
 40
15.0
 40
15.0
 40
16.0
 40
16.0
 40
16.0
 40
17.0
 40
17.0
 40
17.0
 40
18.0
 40
18.0
 40
18.0
 40
19.0
 40
19.0
 40
19.0
 40
20.0
 40
20.0
 40
20.0
 40
20.0
 10
868.7968747828007
 20
607.9433592230141
 10
868.7968747828007
 20
607.9433592230141
 10
868.9492185327626
 20
607.0117185982471
 10
868.9492185327626
 20
607.0117185982471
 10
868.6523435328369
 20
606.9492185982626
 10
868.3867185329033
 20
606.9179685982705
 10
868.1523435329619
 20
606.9179685982705
 10
867.7695310330575
 20
606.9179685982705
 10
867.4726560331318
 20
606.9785154732554
 10
867.2617185331845
 20
607.0996092232251
 10
867.0507810332373
 20
607.2207029731948
 10
866.9023435332743
 20
607.379882660655
 10
866.8164060332958
 20
607.5771482856057
 10
866.7304685333173
 20
607.7744139105564
 10
866.6874997833281
 20
608.1894529729526
 10
866.6874997833281
 20
608.8222654727945
 10
866.6874997833281
 20
608.8222654727945
 10
866.6874997833281
 20
612.4023435968994
 10
866.6874997833281
 20
612.4023435968994
 10
866.6874997833281
 20
612.4023435968994
 10
865.9140622835215
 20
612.4023435968994
 10
865.9140622835215
 20
612.4023435968994
 10
865.9140622835215
 20
612.4023435968994
 10
865.9140622835215
 20
613.2226560966943
 10
865.9140622835215
 20
613.2226560966943
 10
865.9140622835215
 20
613.2226560966943
 10
866.6874997833281
 20
613.2226560966943
 10
866.6874997833281
 20
613.2226560966943
 10
866.6874997833281
 20
613.2226560966943
 10
866.6874997833281
 20
614.763671721309
 10
866.6874997833281
 20
614.763671721309
 10
866.6874997833281
 20
614.763671721309
 10
867.7363279080658
 20
615.3964842211509
 10
867.7363279080658
 20
615.3964842211509
 10
867.7363279080658
 20
615.3964842211509
 10
867.7363279080658
 20
613.2226560966943
 10
867.7363279080658
 20
613.2226560966943
 10
867.7363279080658
 20
613.2226560966943
 10
868.7968747828007
 20
613.2226560966943
 10
868.7968747828007
 20
613.2226560966943
 10
868.7968747828007
 20
613.2226560966943
 10
868.7968747828007
 20
612.4023435968994
 10
868.7968747828007
 20
612.4023435968994
 10
868.7968747828007
 20
612.4023435968994
 10
867.7363279080658
 20
612.4023435968994
 10
867.7363279080658
 20
612.4023435968994
 10
867.7363279080658
 20
612.4023435968994
 10
867.7363279080658
 20
608.763671722809
 10
867.7363279080658
 20
608.763671722809
 10
867.7363279080658
 20
608.4628904728843
 10
867.7548825955613
 20
608.2695310979326
 10
867.791991970552
 20
608.1835935979541
 10
867.8291013455427
 20
608.0976560979756
 10
867.8896482205275
 20
608.0292967229926
 10
867.9736325955066
 20
607.9785154730054
 10
868.0576169704856
 20
607.9277342230181
 10
868.1777341579556
 20
607.9023435980243
 10
868.3339841579165
 20
607.9023435980243
 10
868.4511716578872
 20
607.9023435980243
 10
868.6054685328486
 20
607.9160154730209
 10
868.7968747828007
 20
607.9433592230141
 97
        0
 97
        0
 75
     2
 76
     1
 98
        0
  0
POLYLINE
  5
BF
330
90
100
AcDbEntity
  8
0
 62
   240
420
 15539236
370
    35
100
AcDb2dPolyline
 66
     1
 10
0.0
 20
0.0
 30
0.0
  0
VERTEX
  5
C0
330
BF
100
AcDbEntity
  8
0
 62
   240
420
 15539236
370
    35
100
AcDbVertex
100
AcDb2dVertex
 10
882.4726560293818
 20
615.1328123462168
 30
0.0
  0
VERTEX
  5
C1
330
BF
100
AcDbEntity
  8
0
 62
   240
420
 15539236
370
    35
100
AcDbVertex
100
AcDb2dVertex
 10
878.3124997804218
 20
606.8183592232954
 30
0.0
  0
VERTEX
  5
C2
330
BF
100
AcDbEntity
  8
0
 62
   240
420
 15539236
370
    35
100
AcDbVertex
100
AcDb2dVertex
 10
874.152343531462
 20
615.1328123462168
 30
0.0
  0
VERTEX
  5
C3
330
BF
100
AcDbEntity
  8
0
 62
   240
420
 15539236
370
    35
100
AcDbVertex
100
AcDb2dVertex
 10
882.4726560293818
 20
615.1328123462168
 30
0.0
  0
SEQEND
  5
C4
330
BF
100
AcDbEntity
  8
0
 62
   240
420
 15539236
370
    35
  0
HATCH
  5
C5
330
90
100
AcDbEntity
  8
0
 62
   240
420
 15539236
100
AcDbHatch
 10
0.0
 20
0.0
 30
0.0
210
0.0
220
0.0
230
1.0
  2
SOLID
 70
     1
 71
     0
 91
        1
 92
        1
 93
        3
 72
     1
 10
882.4726560293818
 20
615.1328123462168
 11
878.3124997804218
 21
606.8183592232954
 72
     1
 10
878.3124997804218
 20
606.8183592232954
 11
874.152343531462
 21
615.1328123462168
 72
     1
 10
874.152343531462
 20
615.1328123462168
 11
882.4726560293818
 21
615.1328123462168
 97
        0
 75
     2
 76
     1
 98
        0
  0
ENDBLK
  5
93
330
90
100
AcDbEntity
  8
0
100
AcDbBlockEnd
  0
ENDSEC
  0
SECTION
  2
ENTITIES
  0
INSERT
  5
41
330
1F
100
AcDbEntity
  8
0
100
AcDbBlockReference
  2
block 2
 10
0.0
 20
0.0
 30
0.0
  0
INSERT
  5
46
330
1F
100
AcDbEntity
  8
0
100
AcDbBlockReference
  2
block 3
 10
0.0
 20
0.0
 30
0.0
  0
INSERT
  5
4B
330
1F
100
AcDbEntity
  8
0
100
AcDbBlockReference
  2
block 4
 10
0.0
 20
0.0
 30
0.0
  0
INSERT
  5
50
330
1F
100
AcDbEntity
  8
0
100
AcDbBlockReference
  2
block 5
 10
0.0
 20
0.0
 30
0.0
  0
INSERT
  5
55
330
1F
100
AcDbEntity
  8
0
100
AcDbBlockReference
  2
block 6
 10
0.0
 20
0.0
 30
0.0
  0
INSERT
  5
5A
330
1F
100
AcDbEntity
  8
0
100
AcDbBlockReference
  2
block 7
 10
0.0
 20
0.0
 30
0.0
  0
INSERT
  5
5F
330
1F
100
AcDbEntity
  8
0
100
AcDbBlockReference
  2
block 8
 10
0.0
 20
0.0
 30
0.0
  0
INSERT
  5
64
330
1F
100
AcDbEntity
  8
0
100
AcDbBlockReference
  2
block 9
 10
0.0
 20
0.0
 30
0.0
  0
INSERT
  5
69
330
1F
100
AcDbEntity
  8
0
100
AcDbBlockReference
  2
block 10
 10
0.0
 20
0.0
 30
0.0
  0
INSERT
  5
6E
330
1F
100
AcDbEntity
  8
0
100
AcDbBlockReference
  2
block 11
 10
0.0
 20
0.0
 30
0.0
  0
INSERT
  5
73
330
1F
100
AcDbEntity
  8
0
100
AcDbBlockReference
  2
block 12
 10
0.0
 20
0.0
 30
0.0
  0
INSERT
  5
78
330
1F
100
AcDbEntity
  8
0
100
AcDbBlockReference
  2
block 13
 10
0.0
 20
0.0
 30
0.0
  0
INSERT
  5
7D
330
1F
100
AcDbEntity
  8
0
100
AcDbBlockReference
  2
block 14
 10
0.0
 20
0.0
 30
0.0
  0
INSERT
  5
82
330
1F
100
AcDbEntity
  8
0
100
AcDbBlockReference
  2
block 15
 10
0.0
 20
0.0
 30
0.0
  0
INSERT
  5
87
330
1F
100
AcDbEntity
  8
0
100
AcDbBlockReference
  2
block 16
 10
0.0
 20
0.0
 30
0.0
  0
INSERT
  5
8C
330
1F
100
AcDbEntity
  8
0
100
AcDbBlockReference
  2
block 17
 10
0.0
 20
0.0
 30
0.0
  0
INSERT
  5
91
330
1F
100
AcDbEntity
  8
0
100
AcDbBlockReference
  2
block 18
 10
0.0
 20
0.0
 30
0.0
  0
ENDSEC
  0
SECTION
  2
OBJECTS
  0
DICTIONARY
  5
C
330
0
100
AcDbDictionary
281
     1
  3
ACAD_GROUP
350
D
  3
ACAD_LAYOUT
350
1A
  3
ACAD_MATERIAL
350
3B
  3
ACAD_MLEADERSTYLE
350
C7
  3
ACAD_MLINESTYLE
350
17
  3
ACAD_PLOTSETTINGS
350
19
  3
ACAD_PLOTSTYLENAME
350
E
  3
ACAD_TABLESTYLE
350
C6
  3
ACAD_VISUALSTYLE
350
2A
  0
SUN
  5
3F
330
29
100
AcDbSun
 90
        1
290
     0
 63
     7
421
 16777215
 40
1.0
291
     1
 91
  2455826
 92
 54000000
292
     0
 70
     2
 71
   256
280
     1
  0
DICTIONARY
  5
D
102
{ACAD_REACTORS
330
C
102
}
330
C
100
AcDbDictionary
281
     1
  0
DICTIONARY
  5
1A
102
{ACAD_REACTORS
330
C
102
}
330
C
100
AcDbDictionary
281
     1
  3
Layout1
350
1E
  3
Layout2
350
26
  3
Model
350
22
  0
DICTIONARY
  5
3B
102
{ACAD_REACTORS
330
C
102
}
330
C
100
AcDbDictionary
281
     1
  3
ByBlock
350
3D
  3
ByLayer
350
3C
  3
Global
350
3E
  0
DICTIONARY
  5
C7
102
{ACAD_REACTORS
330
C
102
}
330
C
100
AcDbDictionary
281
     1
  0
DICTIONARY
  5
17
102
{ACAD_REACTORS
330
C
102
}
330
C
100
AcDbDictionary
281
     1
  3
Standard
350
18
  0
DICTIONARY
  5
19
102
{ACAD_REACTORS
330
C
102
}
330
C
100
AcDbDictionary
281
     1
  0
ACDBDICTIONARYWDFLT
  5
E
102
{ACAD_REACTORS
330
C
102
}
330
C
100
AcDbDictionary
281
     1
  3
Normal
350
F
100
AcDbDictionaryWithDefault
340
F
  0
DICTIONARY
  5
C6
102
{ACAD_REACTORS
330
C
102
}
330
C
100
AcDbDictionary
281
     1
  0
DICTIONARY
  5
2A
102
{ACAD_REACTORS
330
C
102
}
330
C
100
AcDbDictionary
281
     1
  3
2dWireframe
350
2F
  3
3D Hidden
350
31
  3
3dWireframe
350
30
  3
Basic
350
32
  3
Brighten
350
36
  3
ColorChange
350
3A
  3
Conceptual
350
34
  3
Dim
350
35
  3
Facepattern
350
39
  3
Flat
350
2B
  3
FlatWithEdges
350
2C
  3
Gouraud
350
2D
  3
GouraudWithEdges
350
2E
  3
Linepattern
350
38
  3
Realistic
350
33
  3
Thicken
350
37
  0
LAYOUT
  5
1E
102
{ACAD_REACTORS
330
1A
102
}
330
1A
100
AcDbPlotSettings
  1

  2
none_device
  4

  6

 40
0.0
 41
0.0
 42
0.0
 43
0.0
 44
0.0
 45
0.0
 46
0.0
 47
0.0
 48
0.0
 49
0.0
140
0.0
141
0.0
142
1.0
143
1.0
 70
   688
 72
     0
 73
     0
 74
     5
  7

 75
    16
 76
     0
 77
     2
 78
   300
147
1.0
148
0.0
149
0.0
100
AcDbLayout
  1
Layout1
 70
     1
 71
     1
 10
0.0
 20
0.0
 11
12.0
 21
9.0
 12
0.0
 22
0.0
 32
0.0
 14
1.000000000000000E+20
 24
1.000000000000000E+20
 34
1.000000000000000E+20
 15
-1.000000000000000E+20
 25
-1.000000000000000E+20
 35
-1.000000000000000E+20
146
0.0
 13
0.0
 23
0.0
 33
0.0
 16
1.0
 26
0.0
 36
0.0
 17
0.0
 27
1.0
 37
0.0
 76
     0
330
1B
  0
LAYOUT
  5
26
102
{ACAD_REACTORS
330
1A
102
}
330
1A
100
AcDbPlotSettings
  1

  2
none_device
  4

  6

 40
0.0
 41
0.0
 42
0.0
 43
0.0
 44
0.0
 45
0.0
 46
0.0
 47
0.0
 48
0.0
 49
0.0
140
0.0
141
0.0
142
1.0
143
1.0
 70
   688
 72
     0
 73
     0
 74
     5
  7

 75
    16
 76
     0
 77
     2
 78
   300
147
1.0
148
0.0
149
0.0
100
AcDbLayout
  1
Layout2
 70
     1
 71
     2
 10
0.0
 20
0.0
 11
0.0
 21
0.0
 12
0.0
 22
0.0
 32
0.0
 14
0.0
 24
0.0
 34
0.0
 15
0.0
 25
0.0
 35
0.0
146
0.0
 13
0.0
 23
0.0
 33
0.0
 16
1.0
 26
0.0
 36
0.0
 17
0.0
 27
1.0
 37
0.0
 76
     0
330
23
  0
LAYOUT
  5
22
102
{ACAD_REACTORS
330
1A
102
}
330
1A
100
AcDbPlotSettings
  1

  2
none_device
  4

  6

 40
0.0
 41
0.0
 42
0.0
 43
0.0
 44
0.0
 45
0.0
 46
0.0
 47
0.0
 48
0.0
 49
0.0
140
0.0
141
0.0
142
1.0
143
1.0
 70
  1712
 72
     0
 73
     0
 74
     0
  7

 75
     0
 76
     0
 77
     2
 78
   300
147
1.0
148
0.0
149
0.0
100
AcDbLayout
  1
Model
 70
     1
 71
     0
 10
0.0
 20
0.0
 11
12.0
 21
9.0
 12
0.0
 22
0.0
 32
0.0
 14
1.000000000000000E+20
 24
1.000000000000000E+20
 34
1.000000000000000E+20
 15
-1.000000000000000E+20
 25
-1.000000000000000E+20
 35
-1.000000000000000E+20
146
0.0
 13
0.0
 23
0.0
 33
0.0
 16
1.0
 26
0.0
 36
0.0
 17
0.0
 27
1.0
 37
0.0
 76
     0
330
1F
331
29
  0
MATERIAL
  5
3D
102
{ACAD_REACTORS
330
3B
102
}
330
3B
100
AcDbMaterial
  1
ByBlock
 72
     1
 94
      127
  0
MATERIAL
  5
3C
102
{ACAD_REACTORS
330
3B
102
}
330
3B
100
AcDbMaterial
  1
ByLayer
 72
     1
 94
      127
  0
MATERIAL
  5
3E
102
{ACAD_REACTORS
330
3B
102
}
330
3B
100
AcDbMaterial
  1
Global
 72
     1
 94
      127
  0
MLINESTYLE
  5
18
102
{ACAD_REACTORS
330
17
102
}
330
17
100
AcDbMlineStyle
  2
Standard
 70
     0
  3

 62
   256
 51
90.0
 52
90.0
 71
     2
 49
0.5
 62
   256
  6
BYLAYER
 49
-0.5
 62
   256
  6
BYLAYER
  0
ACDBPLACEHOLDER
  5
F
102
{ACAD_REACTORS
330
E
102
}
330
E
  0
VISUALSTYLE
  5
2F
102
{ACAD_REACTORS
330
2A
102
}
330
2A
100
AcDbVisualStyle
  2
2dWireframe
 70
     4
177
     2
291
     0
 71
     0
176
     1
 72
     2
176
     1
 73
     0
176
     1
 90
        0
176
     1
 40
-0.6
176
     1
 41
-30.0
176
     1
 62
     5
 63
     7
421
 16777215
176
     1
 74
     1
176
     1
 91
        4
176
     1
 64
     7
176
     1
 65
   257
176
     1
 75
     1
176
     1
175
     1
176
     1
 42
1.0
176
     1
 92
        0
176
     1
 66
   257
176
     1
 43
1.0
176
     1
 76
     1
176
     1
 77
     6
176
     1
 78
     2
176
     1
 67
     7
176
     1
 79
     5
176
     1
170
     0
176
     1
171
     0
176
     1
290
     0
176
     1
 93
        1
176
     1
 44
0.0
176
     1
173
     0
176
     1
  0
VISUALSTYLE
  5
31
102
{ACAD_REACTORS
330
2A
102
}
330
2A
100
AcDbVisualStyle
  2
3D Hidden
 70
     6
177
     2
291
     0
 71
     1
176
     1
 72
     2
176
     1
 73
     2
176
     1
 90
        0
176
     1
 40
-0.6
176
     1
 41
-30.0
176
     1
 62
     5
 63
     7
421
 16777215
176
     1
 74
     2
176
     1
 91
        2
176
     1
 64
     7
176
     1
 65
   257
176
     1
 75
     2
176
     1
175
     1
176
     1
 42
40.0
176
     1
 92
        0
176
     1
 66
   257
176
     1
 43
1.0
176
     1
 76
     1
176
     1
 77
     6
176
     1
 78
     2
176
     1
 67
     7
176
     1
 79
     3
176
     1
170
     0
176
     1
171
     0
176
     1
290
     0
176
     1
 93
        1
176
     1
 44
0.0
176
     1
173
     0
176
     1
  0
VISUALSTYLE
  5
30
102
{ACAD_REACTORS
330
2A
102
}
330
2A
100
AcDbVisualStyle
  2
3dWireframe
 70
     5
177
     2
291
     0
 71
     0
176
     1
 72
     2
176
     1
 73
     0
176
     1
 90
        0
176
     1
 40
-0.6
176
     1
 41
-30.0
176
     1
 62
     5
 63
     7
421
 16777215
176
     1
 74
     1
176
     1
 91
        4
176
     1
 64
     7
176
     1
 65
   257
176
     1
 75
     1
176
     1
175
     1
176
     1
 42
1.0
176
     1
 92
        0
176
     1
 66
   257
176
     1
 43
1.0
176
     1
 76
     1
176
     1
 77
     6
176
     1
 78
     2
176
     1
 67
     7
176
     1
 79
     5
176
     1
170
     0
176
     1
171
     0
176
     1
290
     0
176
     1
 93
        1
176
     1
 44
0.0
176
     1
173
     0
176
     1
  0
VISUALSTYLE
  5
32
102
{ACAD_REACTORS
330
2A
102
}
330
2A
100
AcDbVisualStyle
  2
Basic
 70
     7
177
     2
291
     1
 71
     1
176
     1
 72
     0
176
     1
 73
     1
176
     1
 90
        0
176
     1
 40
-0.6
176
     1
 41
-30.0
176
     1
 62
     5
 63
     7
421
 16777215
176
     1
 74
     0
176
     1
 91
        4
176
     1
 64
     7
176
     1
 65
   257
176
     1
 75
     1
176
     1
175
     1
176
     1
 42
1.0
176
     1
 92
        8
176
     1
 66
     7
176
     1
 43
1.0
176
     1
 76
     1
176
     1
 77
     6
176
     1
 78
     2
176
     1
 67
     7
176
     1
 79
     5
176
     1
170
     0
176
     1
171
     0
176
     1
290
     0
176
     1
 93
        1
176
     1
 44
0.0
176
     1
173
     0
176
     1
  0
VISUALSTYLE
  5
36
102
{ACAD_REACTORS
330
2A
102
}
330
2A
100
AcDbVisualStyle
  2
Brighten
 70
    12
177
     2
291
     1
 71
     2
176
     1
 72
     2
176
     1
 73
     0
176
     1
 90
        0
176
     1
 40
-0.6
176
     1
 41
-30.0
176
     1
 62
     5
 63
     7
421
 16777215
176
     1
 74
     1
176
     1
 91
        4
176
     1
 64
     7
176
     1
 65
   257
176
     1
 75
     1
176
     1
175
     1
176
     1
 42
1.0
176
     1
 92
        8
176
     1
 66
     7
176
     1
 43
1.0
176
     1
 76
     1
176
     1
 77
     6
176
     1
 78
     2
176
     1
 67
     7
176
     1
 79
     5
176
     1
170
     0
176
     1
171
     0
176
     1
290
     0
176
     1
 93
        1
176
     1
 44
50.0
176
     1
173
     0
176
     1
  0
VISUALSTYLE
  5
3A
102
{ACAD_REACTORS
330
2A
102
}
330
2A
100
AcDbVisualStyle
  2
ColorChange
 70
    16
177
     2
291
     1
 71
     2
176
     1
 72
     2
176
     1
 73
     3
176
     1
 90
        0
176
     1
 40
-0.6
176
     1
 41
-30.0
176
     1
 62
     5
 63
     8
421
  8421504
176
     1
 74
     1
176
     1
 91
        4
176
     1
 64
     7
176
     1
 65
   257
176
     1
 75
     1
176
     1
175
     1
176
     1
 42
1.0
176
     1
 92
        8
176
     1
 66
     8
424
  8421504
176
     1
 43
1.0
176
     1
 76
     1
176
     1
 77
     6
176
     1
 78
     2
176
     1
 67
     7
176
     1
 79
     5
176
     1
170
     0
176
     1
171
     0
176
     1
290
     0
176
     1
 93
        1
176
     1
 44
0.0
176
     1
173
     0
176
     1
  0
VISUALSTYLE
  5
34
102
{ACAD_REACTORS
330
2A
102
}
330
2A
100
AcDbVisualStyle
  2
Conceptual
 70
     9
177
     2
291
     0
 71
     3
176
     1
 72
     2
176
     1
 73
     0
176
     1
 90
        0
176
     1
 40
-0.6
176
     1
 41
-30.0
176
     1
 62
     5
 63
     7
421
 16777215
176
     1
 74
     2
176
     1
 91
        2
176
     1
 64
     7
176
     1
 65
   257
176
     1
 75
     1
176
     1
175
     1
176
     1
 42
40.0
176
     1
 92
        8
176
     1
 66
     7
176
     1
 43
1.0
176
     1
 76
     1
176
     1
 77
     6
176
     1
 78
     2
176
     1
 67
     7
176
     1
 79
     3
176
     1
170
     0
176
     1
171
     0
176
     1
290
     0
176
     1
 93
        1
176
     1
 44
0.0
176
     1
173
     0
176
     1
  0
VISUALSTYLE
  5
35
102
{ACAD_REACTORS
330
2A
102
}
330
2A
100
AcDbVisualStyle
  2
Dim
 70
    11
177
     2
291
     1
 71
     2
176
     1
 72
     2
176
     1
 73
     0
176
     1
 90
        0
176
     1
 40
-0.6
176
     1
 41
-30.0
176
     1
 62
     5
 63
     7
421
 16777215
176
     1
 74
     1
176
     1
 91
        4
176
     1
 64
     7
176
     1
 65
   257
176
     1
 75
     1
176
     1
175
     1
176
     1
 42
1.0
176
     1
 92
        8
176
     1
 66
     7
176
     1
 43
1.0
176
     1
 76
     1
176
     1
 77
     6
176
     1
 78
     2
176
     1
 67
     7
176
     1
 79
     5
176
     1
170
     0
176
     1
171
     0
176
     1
290
     0
176
     1
 93
        1
176
     1
 44
-50.0
176
     1
173
     0
176
     1
  0
VISUALSTYLE
  5
39
102
{ACAD_REACTORS
330
2A
102
}
330
2A
100
AcDbVisualStyle
  2
Facepattern
 70
    15
177
     2
291
     1
 71
     2
176
     1
 72
     2
176
     1
 73
     0
176
     1
 90
        0
176
     1
 40
-0.6
176
     1
 41
-30.0
176
     1
 62
     5
 63
     7
421
 16777215
176
     1
 74
     1
176
     1
 91
        4
176
     1
 64
     7
176
     1
 65
   257
176
     1
 75
     1
176
     1
175
     1
176
     1
 42
1.0
176
     1
 92
        8
176
     1
 66
     7
176
     1
 43
1.0
176
     1
 76
     1
176
     1
 77
     6
176
     1
 78
     2
176
     1
 67
     7
176
     1
 79
     5
176
     1
170
     0
176
     1
171
     0
176
     1
290
     0
176
     1
 93
        1
176
     1
 44
0.0
176
     1
173
     0
176
     1
  0
VISUALSTYLE
  5
2B
102
{ACAD_REACTORS
330
2A
102
}
330
2A
100
AcDbVisualStyle
  2
Flat
 70
     0
177
     2
291
     1
 71
     2
176
     1
 72
     1
176
     1
 73
     1
176
     1
 90
        2
176
     1
 40
-0.6
176
     1
 41
30.0
176
     1
 62
     5
 63
     7
421
 16777215
176
     1
 74
     0
176
     1
 91
        4
176
     1
 64
     7
176
     1
 65
   257
176
     1
 75
     1
176
     1
175
     1
176
     1
 42
1.0
176
     1
 92
        8
176
     1
 66
     7
176
     1
 43
1.0
176
     1
 76
     1
176
     1
 77
     6
176
     1
 78
     2
176
     1
 67
     7
176
     1
 79
     5
176
     1
170
     0
176
     1
171
     0
176
     1
290
     0
176
     1
 93
       13
176
     1
 44
0.0
176
     1
173
     0
176
     1
  0
VISUALSTYLE
  5
2C
102
{ACAD_REACTORS
330
2A
102
}
330
2A
100
AcDbVisualStyle
  2
FlatWithEdges
 70
     1
177
     2
291
     1
 71
     2
176
     1
 72
     1
176
     1
 73
     1
176
     1
 90
        2
176
     1
 40
-0.6
176
     1
 41
30.0
176
     1
 62
     5
 63
     7
421
 16777215
176
     1
 74
     1
176
     1
 91
        4
176
     1
 64
     7
176
     1
 65
   257
176
     1
 75
     1
176
     1
175
     1
176
     1
 42
1.0
176
     1
 92
        0
176
     1
 66
   257
176
     1
 43
1.0
176
     1
 76
     1
176
     1
 77
     6
176
     1
 78
     2
176
     1
 67
     7
176
     1
 79
     5
176
     1
170
     0
176
     1
171
     0
176
     1
290
     0
176
     1
 93
       13
176
     1
 44
0.0
176
     1
173
     0
176
     1
  0
VISUALSTYLE
  5
2D
102
{ACAD_REACTORS
330
2A
102
}
330
2A
100
AcDbVisualStyle
  2
Gouraud
 70
     2
177
     2
291
     1
 71
     2
176
     1
 72
     2
176
     1
 73
     1
176
     1
 90
        2
176
     1
 40
-0.6
176
     1
 41
30.0
176
     1
 62
     5
 63
     7
421
 16777215
176
     1
 74
     0
176
     1
 91
        4
176
     1
 64
     7
176
     1
 65
   257
176
     1
 75
     1
176
     1
175
     1
176
     1
 42
1.0
176
     1
 92
        0
176
     1
 66
     7
176
     1
 43
1.0
176
     1
 76
     1
176
     1
 77
     6
176
     1
 78
     2
176
     1
 67
     7
176
     1
 79
     5
176
     1
170
     0
176
     1
171
     0
176
     1
290
     0
176
     1
 93
       13
176
     1
 44
0.0
176
     1
173
     0
176
     1
  0
VISUALSTYLE
  5
2E
102
{ACAD_REACTORS
330
2A
102
}
330
2A
100
AcDbVisualStyle
  2
GouraudWithEdges
 70
     3
177
     2
291
     1
 71
     2
176
     1
 72
     2
176
     1
 73
     1
176
     1
 90
        2
176
     1
 40
-0.6
176
     1
 41
30.0
176
     1
 62
     5
 63
     7
421
 16777215
176
     1
 74
     1
176
     1
 91
        4
176
     1
 64
     7
176
     1
 65
   257
176
     1
 75
     1
176
     1
175
     1
176
     1
 42
1.0
176
     1
 92
        0
176
     1
 66
   257
176
     1
 43
1.0
176
     1
 76
     1
176
     1
 77
     6
176
     1
 78
     2
176
     1
 67
     7
176
     1
 79
     5
176
     1
170
     0
176
     1
171
     0
176
     1
290
     0
176
     1
 93
       13
176
     1
 44
0.0
176
     1
173
     0
176
     1
  0
VISUALSTYLE
  5
38
102
{ACAD_REACTORS
330
2A
102
}
330
2A
100
AcDbVisualStyle
  2
Linepattern
 70
    14
177
     2
291
     1
 71
     2
176
     1
 72
     2
176
     1
 73
     0
176
     1
 90
        0
176
     1
 40
-0.6
176
     1
 41
-30.0
176
     1
 62
     5
 63
     7
421
 16777215
176
     1
 74
     1
176
     1
 91
        4
176
     1
 64
     7
176
     1
 65
   257
176
     1
 75
     7
176
     1
175
     7
176
     1
 42
1.0
176
     1
 92
        8
176
     1
 66
     7
176
     1
 43
1.0
176
     1
 76
     1
176
     1
 77
     6
176
     1
 78
     2
176
     1
 67
     7
176
     1
 79
     5
176
     1
170
     0
176
     1
171
     0
176
     1
290
     0
176
     1
 93
        1
176
     1
 44
0.0
176
     1
173
     0
176
     1
  0
VISUALSTYLE
  5
33
102
{ACAD_REACTORS
330
2A
102
}
330
2A
100
AcDbVisualStyle
  2
Realistic
 70
     8
177
     2
291
     0
 71
     2
176
     1
 72
     2
176
     1
 73
     0
176
     1
 90
        0
176
     1
 40
-0.6
176
     1
 41
-30.0
176
     1
 62
     5
 63
     7
421
 16777215
176
     1
 74
     1
176
     1
 91
        0
176
     1
 64
     7
176
     1
 65
   257
176
     1
 75
     1
176
     1
175
     1
176
     1
 42
1.0
176
     1
 92
        8
176
     1
 66
     8
424
  7895160
176
     1
 43
1.0
176
     1
 76
     1
176
     1
 77
     6
176
     1
 78
     2
176
     1
 67
     7
176
     1
 79
     5
176
     1
170
     0
176
     1
171
     0
176
     1
290
     0
176
     1
 93
       13
176
     1
 44
0.0
176
     1
173
     0
176
     1
  0
VISUALSTYLE
  5
37
102
{ACAD_REACTORS
330
2A
102
}
330
2A
100
AcDbVisualStyle
  2
Thicken
 70
    13
177
     2
291
     1
 71
     2
176
     1
 72
     2
176
     1
 73
     0
176
     1
 90
        0
176
     1
 40
-0.6
176
     1
 41
-30.0
176
     1
 62
     5
 63
     7
421
 16777215
176
     1
 74
     1
176
     1
 91
        4
176
     1
 64
     7
176
     1
 65
   257
176
     1
 75
     1
176
     1
175
     1
176
     1
 42
1.0
176
     1
 92
       12
176
     1
 66
     7
176
     1
 43
1.0
176
     1
 76
     1
176
     1
 77
     6
176
     1
 78
     2
176
     1
 67
     7
176
     1
 79
     5
176
     1
170
     0
176
     1
171
     0
176
     1
290
     0
176
     1
 93
        1
176
     1
 44
0.0
176
     1
173
     0
176
     1
  0
ENDSEC
  0
EOF
