  0
SECTION
  2
HEADER
  9
$ACADVER
  1
AC1024
  9
$ACADMAINTVER
 70
     6
  9
$DWGCODEPAGE
  3
ANSI_1252
  9
$INSBASE
 10
0.0
 20
0.0
 30
0.0
  9
$EXTMIN
 10
1.000000000000000E+20
 20
1.000000000000000E+20
 30
1.000000000000000E+20
  9
$EXTMAX
 10
-1.000000000000000E+20
 20
-1.000000000000000E+20
 30
-1.000000000000000E+20
  9
$LIMMIN
 10
0.0
 20
0.0
  9
$LIMMAX
 10
12.0
 20
9.0
  9
$ORTHOMODE
 70
     0
  9
$REGENMODE
 70
     1
  9
$FILLMODE
 70
     1
  9
$QTEXTMODE
 70
     0
  9
$MIRRTEXT
 70
     1
  9
$LTSCALE
 40
1.0
  9
$ATTMODE
 70
     1
  9
$TEXTSIZE
 40
0.2
  9
$TRACEWID
 40
0.05
  9
$TEXTSTYLE
  7
Standard
  9
$CLAYER
  8
0
  9
$CELTYPE
  6
ByLayer
  9
$CECOLOR
 62
   256
  9
$CELTSCALE
 40
1.0
  9
$DISPSILH
 70
     0
  9
$DIMSCALE
 40
1.0
  9
$DIMASZ
 40
0.18
  9
$DIMEXO
 40
0.0625
  9
$DIMDLI
 40
0.38
  9
$DIMRND
 40
0.0
  9
$DIMDLE
 40
0.0
  9
$DIMEXE
 40
0.18
  9
$DIMTP
 40
0.0
  9
$DIMTM
 40
0.0
  9
$DIMTXT
 40
0.18
  9
$DIMCEN
 40
0.09
  9
$DIMTSZ
 40
0.0
  9
$DIMTOL
 70
     0
  9
$DIMLIM
 70
     0
  9
$DIMTIH
 70
     1
  9
$DIMTOH
 70
     1
  9
$DIMSE1
 70
     0
  9
$DIMSE2
 70
     0
  9
$DIMTAD
 70
     0
  9
$DIMZIN
 70
     0
  9
$DIMBLK
  1

  9
$DIMASO
 70
     1
  9
$DIMSHO
 70
     1
  9
$DIMPOST
  1

  9
$DIMAPOST
  1

  9
$DIMALT
 70
     0
  9
$DIMALTD
 70
     2
  9
$DIMALTF
 40
25.4
  9
$DIMLFAC
 40
1.0
  9
$DIMTOFL
 70
     0
  9
$DIMTVP
 40
0.0
  9
$DIMTIX
 70
     0
  9
$DIMSOXD
 70
     0
  9
$DIMSAH
 70
     0
  9
$DIMBLK1
  1

  9
$DIMBLK2
  1

  9
$DIMSTYLE
  2
Standard
  9
$DIMCLRD
 70
     0
  9
$DIMCLRE
 70
     0
  9
$DIMCLRT
 70
     0
  9
$DIMTFAC
 40
1.0
  9
$DIMGAP
 40
0.09
  9
$DIMJUST
 70
     0
  9
$DIMSD1
 70
     0
  9
$DIMSD2
 70
     0
  9
$DIMTOLJ
 70
     1
  9
$DIMTZIN
 70
     0
  9
$DIMALTZ
 70
     0
  9
$DIMALTTZ
 70
     0
  9
$DIMUPT
 70
     0
  9
$DIMDEC
 70
     4
  9
$DIMTDEC
 70
     4
  9
$DIMALTU
 70
     2
  9
$DIMALTTD
 70
     2
  9
$DIMTXSTY
  7
Standard
  9
$DIMAUNIT
 70
     0
  9
$DIMADEC
 70
     0
  9
$DIMALTRND
 40
0.0
  9
$DIMAZIN
 70
     0
  9
$DIMDSEP
 70
    46
  9
$DIMATFIT
 70
     3
  9
$DIMFRAC
 70
     0
  9
$DIMLDRBLK
  1

  9
$DIMLUNIT
 70
     2
  9
$DIMLWD
 70
    -2
  9
$DIMLWE
 70
    -2
  9
$DIMTMOVE
 70
     0
  9
$DIMFXL
 40
1.0
  9
$DIMFXLON
 70
     0
  9
$DIMJOGANG
 40
0.7853981633974483
  9
$DIMTFILL
 70
     0
  9
$DIMTFILLCLR
 70
     0
  9
$DIMARCSYM
 70
     0
  9
$DIMLTYPE
  6

  9
$DIMLTEX1
  6

  9
$DIMLTEX2
  6

  9
$DIMTXTDIRECTION
 70
     0
  9
$LUNITS
 70
     2
  9
$LUPREC
 70
     4
  9
$SKETCHINC
 40
0.1
  9
$FILLETRAD
 40
0.5
  9
$AUNITS
 70
     0
  9
$AUPREC
 70
     0
  9
$MENU
  1
.
  9
$ELEVATION
 40
0.0
  9
$PELEVATION
 40
0.0
  9
$THICKNESS
 40
0.0
  9
$LIMCHECK
 70
     0
  9
$CHAMFERA
 40
0.5
  9
$CHAMFERB
 40
0.5
  9
$CHAMFERC
 40
1.0
  9
$CHAMFERD
 40
0.0
  9
$SKPOLY
 70
     0
  9
$TDCREATE
 40
2459171.932748808
  9
$TDUCREATE
 40
2459172.266082141
  9
$TDUPDATE
 40
2459171.932748831
  9
$TDUUPDATE
 40
2459172.266082164
  9
$TDINDWG
 40
0.0000000116
  9
$TDUSRTIMER
 40
0.0000000116
  9
$USRTIMER
 70
     1
  9
$ANGBASE
 50
0.0
  9
$ANGDIR
 70
     0
  9
$PDMODE
 70
     0
  9
$PDSIZE
 40
0.0
  9
$PLINEWID
 40
0.0
  9
$SPLFRAME
 70
     0
  9
$SPLINETYPE
 70
     6
  9
$SPLINESEGS
 70
     8
  9
$HANDSEED
  5
A5
  9
$SURFTAB1
 70
     6
  9
$SURFTAB2
 70
     6
  9
$SURFTYPE
 70
     6
  9
$SURFU
 70
     6
  9
$SURFV
 70
     6
  9
$UCSBASE
  2

  9
$UCSNAME
  2

  9
$UCSORG
 10
0.0
 20
0.0
 30
0.0
  9
$UCSXDIR
 10
1.0
 20
0.0
 30
0.0
  9
$UCSYDIR
 10
0.0
 20
1.0
 30
0.0
  9
$UCSORTHOREF
  2

  9
$UCSORTHOVIEW
 70
     0
  9
$UCSORGTOP
 10
0.0
 20
0.0
 30
0.0
  9
$UCSORGBOTTOM
 10
0.0
 20
0.0
 30
0.0
  9
$UCSORGLEFT
 10
0.0
 20
0.0
 30
0.0
  9
$UCSORGRIGHT
 10
0.0
 20
0.0
 30
0.0
  9
$UCSORGFRONT
 10
0.0
 20
0.0
 30
0.0
  9
$UCSORGBACK
 10
0.0
 20
0.0
 30
0.0
  9
$PUCSBASE
  2

  9
$PUCSNAME
  2

  9
$PUCSORG
 10
0.0
 20
0.0
 30
0.0
  9
$PUCSXDIR
 10
1.0
 20
0.0
 30
0.0
  9
$PUCSYDIR
 10
0.0
 20
1.0
 30
0.0
  9
$PUCSORTHOREF
  2

  9
$PUCSORTHOVIEW
 70
     0
  9
$PUCSORGTOP
 10
0.0
 20
0.0
 30
0.0
  9
$PUCSORGBOTTOM
 10
0.0
 20
0.0
 30
0.0
  9
$PUCSORGLEFT
 10
0.0
 20
0.0
 30
0.0
  9
$PUCSORGRIGHT
 10
0.0
 20
0.0
 30
0.0
  9
$PUCSORGFRONT
 10
0.0
 20
0.0
 30
0.0
  9
$PUCSORGBACK
 10
0.0
 20
0.0
 30
0.0
  9
$USERI1
 70
     0
  9
$USERI2
 70
     0
  9
$USERI3
 70
     0
  9
$USERI4
 70
     0
  9
$USERI5
 70
     0
  9
$USERR1
 40
0.0
  9
$USERR2
 40
0.0
  9
$USERR3
 40
0.0
  9
$USERR4
 40
0.0
  9
$USERR5
 40
0.0
  9
$WORLDVIEW
 70
     1
  9
$SHADEDGE
 70
     3
  9
$SHADEDIF
 70
    70
  9
$TILEMODE
 70
     1
  9
$MAXACTVP
 70
    64
  9
$PINSBASE
 10
0.0
 20
0.0
 30
0.0
  9
$PLIMCHECK
 70
     0
  9
$PEXTMIN
 10
1.000000000000000E+20
 20
1.000000000000000E+20
 30
1.000000000000000E+20
  9
$PEXTMAX
 10
-1.000000000000000E+20
 20
-1.000000000000000E+20
 30
-1.000000000000000E+20
  9
$PLIMMIN
 10
0.0
 20
0.0
  9
$PLIMMAX
 10
12.0
 20
9.0
  9
$UNITMODE
 70
     0
  9
$VISRETAIN
 70
     1
  9
$PLINEGEN
 70
     0
  9
$PSLTSCALE
 70
     1
  9
$TREEDEPTH
 70
  3020
  9
$CMLSTYLE
  2
Standard
  9
$CMLJUST
 70
     0
  9
$CMLSCALE
 40
1.0
  9
$PROXYGRAPHICS
 70
     1
  9
$MEASUREMENT
 70
     0
  9
$CELWEIGHT
370
    -1
  9
$ENDCAPS
280
     0
  9
$JOINSTYLE
280
     0
  9
$LWDISPLAY
290
     1
  9
$INSUNITS
 70
     4
  9
$HYPERLINKBASE
  1

  9
$STYLESHEET
  1

  9
$XEDIT
290
     1
  9
$CEPSNTYPE
380
     0
  9
$PSTYLEMODE
290
     1
  9
$FINGERPRINTGUID
  2
{B7842DDD-6063-4E1F-88D1-1227F7D6EFE7}
  9
$VERSIONGUID
  2
{FAEB1C32-E019-11D5-929B-00C0DF256EC4}
  9
$EXTNAMES
290
     1
  9
$PSVPSCALE
 40
0.0
  9
$OLESTARTUP
290
     0
  9
$SORTENTS
280
   127
  9
$INDEXCTL
280
     0
  9
$HIDETEXT
280
     1
  9
$XCLIPFRAME
280
     2
  9
$HALOGAP
280
     0
  9
$OBSCOLOR
 70
   257
  9
$OBSLTYPE
280
     0
  9
$INTERSECTIONDISPLAY
280
     0
  9
$INTERSECTIONCOLOR
 70
   257
  9
$DIMASSOC
280
     2
  9
$PROJECTNAME
  1

  9
$CAMERADISPLAY
290
     0
  9
$LENSLENGTH
 40
50.0
  9
$CAMERAHEIGHT
 40
0.0
  9
$STEPSPERSEC
 40
2.0
  9
$STEPSIZE
 40
6.0
  9
$3DDWFPREC
 40
2.0
  9
$PSOLWIDTH
 40
0.25
  9
$PSOLHEIGHT
 40
4.0
  9
$LOFTANG1
 40
1.570796326794897
  9
$LOFTANG2
 40
1.570796326794897
  9
$LOFTMAG1
 40
0.0
  9
$LOFTMAG2
 40
0.0
  9
$LOFTPARAM
 70
     7
  9
$LOFTNORMALS
280
     1
  9
$LATITUDE
 40
37.795
  9
$LONGITUDE
 40
-122.394
  9
$NORTHDIRECTION
 40
0.0
  9
$TIMEZONE
 70
 -8000
  9
$LIGHTGLYPHDISPLAY
280
     1
  9
$TILEMODELIGHTSYNCH
280
     1
  9
$CMATERIAL
347
3C
  9
$SOLIDHIST
280
     1
  9
$SHOWHIST
280
     1
  9
$DWFFRAME
280
     2
  9
$DGNFRAME
280
     2
  9
$REALWORLDSCALE
290
     1
  9
$INTERFERECOLOR
 62
   256
  9
$CSHADOW
280
     0
  9
$SHADOWPLANELOCATION
 40
0.0
  0
ENDSEC
  0
SECTION
  2
CLASSES
  0
CLASS
  1
ACDBDICTIONARYWDFLT
  2
AcDbDictionaryWithDefault
  3
ObjectDBX Classes
 90
        0
 91
        4
280
     0
281
     0
  0
CLASS
  1
VISUALSTYLE
  2
AcDbVisualStyle
  3
ObjectDBX Classes
 90
     4095
 91
        4
280
     0
281
     0
  0
CLASS
  1
MATERIAL
  2
AcDbMaterial
  3
ObjectDBX Classes
 90
     1153
 91
        4
280
     0
281
     0
  0
CLASS
  1
SUN
  2
AcDbSun
  3
SCENEOE
 90
     1024
 91
        4
280
     0
281
     0
  0
ENDSEC
  0
SECTION
  2
TABLES
  0
TABLE
  2
VPORT
  5
8
330
0
100
AcDbSymbolTable
 70
     1
  0
VPORT
  5
29
330
8
100
AcDbSymbolTableRecord
100
AcDbViewportTableRecord
  2
*Active
 70
     0
 10
0.0
 20
0.0
 11
1.0
 21
1.0
 12
0.0
 22
0.0
 13
0.0
 23
0.0
 14
0.5
 24
0.5
 15
0.5
 25
0.5
 16
0.0
 26
0.0
 36
1.0
 17
959.99999976
 27
539.999999865
 37
0.0
 40
1079.99999973
 41
1.777777777777778
 42
50.0
 43
0.0
 44
0.0
 50
0.0
 51
0.0
 71
     0
 72
   100
 73
     1
 74
     3
 75
     0
 76
     0
 77
     0
 78
     0
281
     0
 65
     1
110
0.0
120
0.0
130
0.0
111
1.0
121
0.0
131
0.0
112
0.0
122
1.0
132
0.0
 79
     0
146
0.0
 60
     3
 61
     5
292
     1
282
     1
141
0.0
142
0.0
 63
   250
361
3F
  0
ENDTAB
  0
TABLE
  2
LTYPE
  5
5
330
0
100
AcDbSymbolTable
 70
     1
  0
LTYPE
  5
14
330
5
100
AcDbSymbolTableRecord
100
AcDbLinetypeTableRecord
  2
ByBlock
 70
     0
  3

 72
    65
 73
     0
 40
0.0
  0
LTYPE
  5
15
330
5
100
AcDbSymbolTableRecord
100
AcDbLinetypeTableRecord
  2
ByLayer
 70
     0
  3

 72
    65
 73
     0
 40
0.0
  0
LTYPE
  5
16
330
5
100
AcDbSymbolTableRecord
100
AcDbLinetypeTableRecord
  2
Continuous
 70
     0
  3
Solid line
 72
    65
 73
     0
 40
0.0
  0
ENDTAB
  0
TABLE
  2
LAYER
  5
2
330
0
100
AcDbSymbolTable
 70
     1
  0
LAYER
  5
10
330
2
100
AcDbSymbolTableRecord
100
AcDbLayerTableRecord
  2
0
 70
     0
 62
     7
  6
Continuous
370
    -3
390
F
347
3E
  0
ENDTAB
  0
TABLE
  2
STYLE
  5
3
330
0
100
AcDbSymbolTable
 70
     1
  0
STYLE
  5
11
330
3
100
AcDbSymbolTableRecord
100
AcDbTextStyleTableRecord
  2
Standard
 70
     0
 40
0.0
 41
1.0
 50
0.0
 71
     0
 42
0.2
  3
txt
  4

  0
ENDTAB
  0
TABLE
  2
VIEW
  5
6
330
0
100
AcDbSymbolTable
 70
     0
  0
ENDTAB
  0
TABLE
  2
UCS
  5
7
330
0
100
AcDbSymbolTable
 70
     0
  0
ENDTAB
  0
TABLE
  2
APPID
  5
9
330
0
100
AcDbSymbolTable
 70
     1
  0
APPID
  5
12
330
9
100
AcDbSymbolTableRecord
100
AcDbRegAppTableRecord
  2
ACAD
 70
     0
  0
ENDTAB
  0
TABLE
  2
DIMSTYLE
  5
A
330
0
100
AcDbSymbolTable
 70
     1
100
AcDbDimStyleTable
  0
DIMSTYLE
105
27
330
A
100
AcDbSymbolTableRecord
100
AcDbDimStyleTableRecord
  2
Standard
 70
     0
178
     0
340
11
  0
ENDTAB
  0
TABLE
  2
BLOCK_RECORD
  5
1
330
0
100
AcDbSymbolTable
 70
    11
  0
BLOCK_RECORD
  5
1F
330
1
100
AcDbSymbolTableRecord
100
AcDbBlockTableRecord
  2
*Model_Space
340
22
 70
     0
280
     1
281
     0
  0
BLOCK_RECORD
  5
1B
330
1
100
AcDbSymbolTableRecord
100
AcDbBlockTableRecord
  2
*Paper_Space
340
1E
 70
     0
280
     1
281
     0
  0
BLOCK_RECORD
  5
23
330
1
100
AcDbSymbolTableRecord
100
AcDbBlockTableRecord
  2
*Paper_Space0
340
26
 70
     0
280
     1
281
     0
  0
BLOCK_RECORD
  5
40
330
1
100
AcDbSymbolTableRecord
100
AcDbBlockTableRecord
  2
block 2
340
0
102
{BLKREFS
331
41
102
}
 70
     0
280
     1
281
     0
  0
BLOCK_RECORD
  5
45
330
1
100
AcDbSymbolTableRecord
100
AcDbBlockTableRecord
  2
block 3
340
0
102
{BLKREFS
331
46
102
}
 70
     0
280
     1
281
     0
  0
BLOCK_RECORD
  5
4A
330
1
100
AcDbSymbolTableRecord
100
AcDbBlockTableRecord
  2
block 4
340
0
102
{BLKREFS
331
4B
102
}
 70
     0
280
     1
281
     0
  0
BLOCK_RECORD
  5
4F
330
1
100
AcDbSymbolTableRecord
100
AcDbBlockTableRecord
  2
block 5
340
0
102
{BLKREFS
331
50
102
}
 70
     0
280
     1
281
     0
  0
BLOCK_RECORD
  5
54
330
1
100
AcDbSymbolTableRecord
100
AcDbBlockTableRecord
  2
block 6
340
0
102
{BLKREFS
331
55
102
}
 70
     0
280
     1
281
     0
  0
BLOCK_RECORD
  5
59
330
1
100
AcDbSymbolTableRecord
100
AcDbBlockTableRecord
  2
block 7
340
0
102
{BLKREFS
331
5A
102
}
 70
     0
280
     1
281
     0
  0
BLOCK_RECORD
  5
5E
330
1
100
AcDbSymbolTableRecord
100
AcDbBlockTableRecord
  2
block 8
340
0
102
{BLKREFS
331
5F
102
}
 70
     0
280
     1
281
     0
  0
BLOCK_RECORD
  5
63
330
1
100
AcDbSymbolTableRecord
100
AcDbBlockTableRecord
  2
block 9
340
0
102
{BLKREFS
331
64
102
}
 70
     0
280
     1
281
     0
  0
BLOCK_RECORD
  5
68
330
1
100
AcDbSymbolTableRecord
100
AcDbBlockTableRecord
  2
block 10
340
0
102
{BLKREFS
331
69
102
}
 70
     0
280
     1
281
     0
  0
BLOCK_RECORD
  5
6D
330
1
100
AcDbSymbolTableRecord
100
AcDbBlockTableRecord
  2
block 11
340
0
102
{BLKREFS
331
6E
102
}
 70
     0
280
     1
281
     0
  0
ENDTAB
  0
ENDSEC
  0
SECTION
  2
BLOCKS
  0
BLOCK
  5
20
330
1F
100
AcDbEntity
  8
0
100
AcDbBlockBegin
  2
*Model_Space
 70
     0
 10
0.0
 20
0.0
 30
0.0
  3
*Model_Space
  1

  0
ENDBLK
  5
21
330
1F
100
AcDbEntity
  8
0
100
AcDbBlockEnd
  0
BLOCK
  5
1C
330
1B
100
AcDbEntity
 67
     1
  8
0
100
AcDbBlockBegin
  2
*Paper_Space
 70
     0
 10
0.0
 20
0.0
 30
0.0
  3
*Paper_Space
  1

  0
ENDBLK
  5
1D
330
1B
100
AcDbEntity
 67
     1
  8
0
100
AcDbBlockEnd
  0
BLOCK
  5
24
330
23
100
AcDbEntity
  8
0
100
AcDbBlockBegin
  2
*Paper_Space0
 70
     0
 10
0.0
 20
0.0
 30
0.0
  3
*Paper_Space0
  1

  0
ENDBLK
  5
25
330
23
100
AcDbEntity
  8
0
100
AcDbBlockEnd
  0
BLOCK
  5
42
330
40
100
AcDbEntity
  8
0
100
AcDbBlockBegin
  2
block 2
 70
     0
 10
0.0
 20
0.0
 30
0.0
  3
block 2
  1

  0
SPLINE
  5
44
330
40
100
AcDbEntity
  8
0
 62
     7
420
 16777215
370
    25
100
AcDbSpline
210
0.0
220
0.0
230
1.0
 70
    11
 71
     3
 72
    53
 73
    49
 74
     0
 42
0.0000000001
 43
0.0000000001
 12
1.0
 22
0.0
 32
0.0
 13
1.0
 23
0.0
 33
0.0
 40
0.0
 40
0.0
 40
0.0
 40
0.0
 40
1.0
 40
1.0
 40
1.0
 40
2.0
 40
2.0
 40
2.0
 40
3.0
 40
3.0
 40
3.0
 40
4.0
 40
4.0
 40
4.0
 40
5.0
 40
5.0
 40
5.0
 40
6.0
 40
6.0
 40
6.0
 40
7.0
 40
7.0
 40
7.0
 40
8.0
 40
8.0
 40
8.0
 40
9.0
 40
9.0
 40
9.0
 40
10.0
 40
10.0
 40
10.0
 40
11.0
 40
11.0
 40
11.0
 40
12.0
 40
12.0
 40
12.0
 40
13.0
 40
13.0
 40
13.0
 40
14.0
 40
14.0
 40
14.0
 40
15.0
 40
15.0
 40
15.0
 40
16.0
 40
16.0
 40
16.0
 40
16.0
 10
959.5008646337031
 20
479.2155948115744
 30
0.0
 10
959.5008646337031
 20
479.2155948115744
 30
0.0
 10
959.5008646340415
 20
486.7405948096909
 30
0.0
 10
959.5008646340415
 20
486.7405948096909
 30
0.0
 10
959.5008646340415
 20
486.7405948096909
 30
0.0
 10
805.5365614619038
 20
486.7405948166031
 30
0.0
 10
805.5365614619038
 20
486.7405948166031
 30
0.0
 10
805.5365614619038
 20
486.7405948166031
 30
0.0
 10
805.536561466686
 20
593.2594049272658
 30
0.0
 10
805.536561466686
 20
593.2594049272658
 30
0.0
 10
805.536561466686
 20
593.2594049272658
 30
0.0
 10
1114.463438058096
 20
593.259404913396
 30
0.0
 10
1114.463438058096
 20
593.259404913396
 30
0.0
 10
1114.463438058096
 20
593.259404913396
 30
0.0
 10
1114.463438053312
 20
486.7405948027351
 30
0.0
 10
1114.463438053312
 20
486.7405948027351
 30
0.0
 10
1114.463438053312
 20
486.7405948027351
 30
0.0
 10
971.6108978451335
 20
486.7405948091489
 30
0.0
 10
971.6108978451335
 20
486.7405948091489
 30
0.0
 10
971.6108978451335
 20
486.7405948091489
 30
0.0
 10
971.610897844797
 20
479.2155948110287
 30
0.0
 10
971.610897844797
 20
479.2155948110287
 30
0.0
 10
971.610897844797
 20
479.2155948110287
 30
0.0
 10
1114.988438052844
 20
479.2155948045931
 30
0.0
 10
1114.988438052844
 20
479.2155948045931
 30
0.0
 10
1117.749861801308
 20
479.2155948044694
 30
0.0
 10
1119.988438051692
 20
481.4541710546536
 30
0.0
 10
1119.988438051818
 20
484.2155948031175
 30
0.0
 10
1119.988438051818
 20
484.2155948031175
 30
0.0
 10
1119.988438056826
 20
595.784404912516
 30
0.0
 10
1119.988438056826
 20
595.784404912516
 30
0.0
 10
1119.988438056951
 20
598.5458286609801
 30
0.0
 10
1117.749861806765
 20
600.7844049113661
 30
0.0
 10
1114.988438058301
 20
600.7844049114907
 30
0.0
 10
1114.988438058301
 20
600.7844049114907
 30
0.0
 10
805.011561467156
 20
600.7844049254069
 30
0.0
 10
805.011561467156
 20
600.7844049254069
 30
0.0
 10
802.2501377186919
 20
600.7844049255315
 30
0.0
 10
800.0115614683059
 20
598.5458286753455
 30
0.0
 10
800.0115614681822
 20
595.7844049268815
 30
0.0
 10
800.0115614681822
 20
595.7844049268815
 30
0.0
 10
800.0115614631727
 20
484.2155948174839
 30
0.0
 10
800.0115614631727
 20
484.2155948174839
 30
0.0
 10
800.011561463049
 20
481.4541710690199
 30
0.0
 10
802.2501377132331
 20
479.215594818632
 30
0.0
 10
805.0115614616972
 20
479.2155948185084
 30
0.0
 10
805.0115614616972
 20
479.2155948185084
 30
0.0
 10
959.5008646337031
 20
479.2155948115744
 30
0.0
 10
959.5008646337031
 20
479.2155948115744
 30
0.0
  0
ENDBLK
  5
43
330
40
100
AcDbEntity
  8
0
100
AcDbBlockEnd
  0
BLOCK
  5
47
330
45
100
AcDbEntity
  8
0
100
AcDbBlockBegin
  2
block 3
 70
     0
 10
0.0
 20
0.0
 30
0.0
  3
block 3
  1

  0
SPLINE
  5
49
330
45
100
AcDbEntity
  8
0
 62
     7
420
 16777215
370
    25
100
AcDbSpline
210
0.0
220
0.0
230
1.0
 70
    11
 71
     3
 72
    20
 73
    16
 74
     0
 42
0.0000000001
 43
0.0000000001
 12
1.0
 22
0.0
 32
0.0
 13
1.0
 23
0.0
 33
0.0
 40
0.0
 40
0.0
 40
0.0
 40
0.0
 40
1.0
 40
1.0
 40
1.0
 40
2.0
 40
2.0
 40
2.0
 40
3.0
 40
3.0
 40
3.0
 40
4.0
 40
4.0
 40
4.0
 40
5.0
 40
5.0
 40
5.0
 40
5.0
 10
1112.913438056091
 20
483.7405948104191
 30
0.0
 10
1112.913438056091
 20
484.5966361724432
 30
0.0
 10
1113.60739669368
 20
485.2905948100327
 30
0.0
 10
1114.463438055704
 20
485.2905948100327
 30
0.0
 10
1115.319479417728
 20
485.2905948100327
 30
0.0
 10
1116.013438055316
 20
484.5966361724432
 30
0.0
 10
1116.013438055316
 20
483.7405948104191
 30
0.0
 10
1116.013438055316
 20
482.884553448395
 30
0.0
 10
1115.319479417728
 20
482.1905948108073
 30
0.0
 10
1114.463438055704
 20
482.1905948108073
 30
0.0
 10
1113.60739669368
 20
482.1905948108073
 30
0.0
 10
1112.913438056091
 20
482.884553448395
 30
0.0
 10
1112.913438056091
 20
483.7405948104191
 30
0.0
 10
1112.913438056091
 20
483.7405948104191
 30
0.0
 10
1112.913438056091
 20
483.7405948104191
 30
0.0
 10
1112.913438056091
 20
483.7405948104191
 30
0.0
  0
ENDBLK
  5
48
330
45
100
AcDbEntity
  8
0
100
AcDbBlockEnd
  0
BLOCK
  5
4C
330
4A
100
AcDbEntity
  8
0
100
AcDbBlockBegin
  2
block 4
 70
     0
 10
0.0
 20
0.0
 30
0.0
  3
block 4
  1

  0
SPLINE
  5
4E
330
4A
100
AcDbEntity
  8
0
 62
     7
420
 16777215
370
    25
100
AcDbSpline
210
0.0
220
0.0
230
1.0
 70
    11
 71
     3
 72
    20
 73
    16
 74
     0
 42
0.0000000001
 43
0.0000000001
 12
1.0
 22
0.0
 32
0.0
 13
1.0
 23
0.0
 33
0.0
 40
0.0
 40
0.0
 40
0.0
 40
0.0
 40
1.0
 40
1.0
 40
1.0
 40
2.0
 40
2.0
 40
2.0
 40
3.0
 40
3.0
 40
3.0
 40
4.0
 40
4.0
 40
4.0
 40
5.0
 40
5.0
 40
5.0
 40
5.0
 10
803.9865614646832
 20
596.2594049195809
 30
0.0
 10
803.9865614646832
 20
597.1154462816049
 30
0.0
 10
804.6805201022718
 20
597.8094049191935
 30
0.0
 10
805.5365614642958
 20
597.8094049191935
 30
0.0
 10
806.39260282632
 20
597.8094049191935
 30
0.0
 10
807.0865614639085
 20
597.1154462816049
 30
0.0
 10
807.0865614639085
 20
596.2594049195809
 30
0.0
 10
807.0865614639085
 20
595.4033635575568
 30
0.0
 10
806.39260282632
 20
594.7094049199682
 30
0.0
 10
805.5365614642958
 20
594.7094049199682
 30
0.0
 10
804.6805201022718
 20
594.7094049199682
 30
0.0
 10
803.9865614646832
 20
595.4033635575568
 30
0.0
 10
803.9865614646832
 20
596.2594049195809
 30
0.0
 10
803.9865614646832
 20
596.2594049195809
 30
0.0
 10
803.9865614646832
 20
596.2594049195809
 30
0.0
 10
803.9865614646832
 20
596.2594049195809
 30
0.0
  0
ENDBLK
  5
4D
330
4A
100
AcDbEntity
  8
0
100
AcDbBlockEnd
  0
BLOCK
  5
51
330
4F
100
AcDbEntity
  8
0
100
AcDbBlockBegin
  2
block 5
 70
     0
 10
0.0
 20
0.0
 30
0.0
  3
block 5
  1

  0
SPLINE
  5
53
330
4F
100
AcDbEntity
  8
0
 62
     7
420
 16777215
370
    25
100
AcDbSpline
210
0.0
220
0.0
230
1.0
 70
    11
 71
     3
 72
    20
 73
    16
 74
     0
 42
0.0000000001
 43
0.0000000001
 12
1.0
 22
0.0
 32
0.0
 13
1.0
 23
0.0
 33
0.0
 40
0.0
 40
0.0
 40
0.0
 40
0.0
 40
1.0
 40
1.0
 40
1.0
 40
2.0
 40
2.0
 40
2.0
 40
3.0
 40
3.0
 40
3.0
 40
4.0
 40
4.0
 40
4.0
 40
5.0
 40
5.0
 40
5.0
 40
5.0
 10
1112.913438056091
 20
596.2594049195809
 30
0.0
 10
1112.913438056091
 20
597.1154462816049
 30
0.0
 10
1113.60739669368
 20
597.8094049191935
 30
0.0
 10
1114.463438055704
 20
597.8094049191935
 30
0.0
 10
1115.319479417728
 20
597.8094049191935
 30
0.0
 10
1116.013438055316
 20
597.1154462816049
 30
0.0
 10
1116.013438055316
 20
596.2594049195809
 30
0.0
 10
1116.013438055316
 20
595.4033635575568
 30
0.0
 10
1115.319479417728
 20
594.7094049199682
 30
0.0
 10
1114.463438055704
 20
594.7094049199682
 30
0.0
 10
1113.60739669368
 20
594.7094049199682
 30
0.0
 10
1112.913438056091
 20
595.4033635575568
 30
0.0
 10
1112.913438056091
 20
596.2594049195809
 30
0.0
 10
1112.913438056091
 20
596.2594049195809
 30
0.0
 10
1112.913438056091
 20
596.2594049195809
 30
0.0
 10
1112.913438056091
 20
596.2594049195809
 30
0.0
  0
ENDBLK
  5
52
330
4F
100
AcDbEntity
  8
0
100
AcDbBlockEnd
  0
BLOCK
  5
56
330
54
100
AcDbEntity
  8
0
100
AcDbBlockBegin
  2
block 6
 70
     0
 10
0.0
 20
0.0
 30
0.0
  3
block 6
  1

  0
SPLINE
  5
58
330
54
100
AcDbEntity
  8
0
 62
     7
420
 16777215
370
    25
100
AcDbSpline
210
0.0
220
0.0
230
1.0
 70
    11
 71
     3
 72
    20
 73
    16
 74
     0
 42
0.0000000001
 43
0.0000000001
 12
1.0
 22
0.0
 32
0.0
 13
1.0
 23
0.0
 33
0.0
 40
0.0
 40
0.0
 40
0.0
 40
0.0
 40
1.0
 40
1.0
 40
1.0
 40
2.0
 40
2.0
 40
2.0
 40
3.0
 40
3.0
 40
3.0
 40
4.0
 40
4.0
 40
4.0
 40
5.0
 40
5.0
 40
5.0
 40
5.0
 10
803.9865614646832
 20
483.7405948104191
 30
0.0
 10
803.9865614646832
 20
484.5966361724432
 30
0.0
 10
804.6805201022718
 20
485.2905948100327
 30
0.0
 10
805.5365614642958
 20
485.2905948100327
 30
0.0
 10
806.39260282632
 20
485.2905948100327
 30
0.0
 10
807.0865614639085
 20
484.5966361724432
 30
0.0
 10
807.0865614639085
 20
483.7405948104191
 30
0.0
 10
807.0865614639085
 20
482.884553448395
 30
0.0
 10
806.39260282632
 20
482.1905948108073
 30
0.0
 10
805.5365614642958
 20
482.1905948108073
 30
0.0
 10
804.6805201022718
 20
482.1905948108073
 30
0.0
 10
803.9865614646832
 20
482.884553448395
 30
0.0
 10
803.9865614646832
 20
483.7405948104191
 30
0.0
 10
803.9865614646832
 20
483.7405948104191
 30
0.0
 10
803.9865614646832
 20
483.7405948104191
 30
0.0
 10
803.9865614646832
 20
483.7405948104191
 30
0.0
  0
ENDBLK
  5
57
330
54
100
AcDbEntity
  8
0
100
AcDbBlockEnd
  0
BLOCK
  5
5B
330
59
100
AcDbEntity
  8
0
100
AcDbBlockBegin
  2
block 7
 70
     0
 10
0.0
 20
0.0
 30
0.0
  3
block 7
  1

  0
SPLINE
  5
5D
330
59
100
AcDbEntity
  8
0
 62
     7
420
 16777215
370
    25
100
AcDbSpline
210
0.0
220
0.0
230
1.0
 70
    11
 71
     3
 72
    20
 73
    16
 74
     0
 42
0.0000000001
 43
0.0000000001
 12
1.0
 22
0.0
 32
0.0
 13
1.0
 23
0.0
 33
0.0
 40
0.0
 40
0.0
 40
0.0
 40
0.0
 40
1.0
 40
1.0
 40
1.0
 40
2.0
 40
2.0
 40
2.0
 40
3.0
 40
3.0
 40
3.0
 40
4.0
 40
4.0
 40
4.0
 40
5.0
 40
5.0
 40
5.0
 40
5.0
 10
1011.444218914299
 20
483.7405948104191
 30
0.0
 10
1011.444218914299
 20
484.5966361724432
 30
0.0
 10
1012.138177551887
 20
485.2905948100327
 30
0.0
 10
1012.994218913911
 20
485.2905948100327
 30
0.0
 10
1013.850260275935
 20
485.2905948100327
 30
0.0
 10
1014.544218913523
 20
484.5966361724432
 30
0.0
 10
1014.544218913523
 20
483.7405948104191
 30
0.0
 10
1014.544218913523
 20
482.884553448395
 30
0.0
 10
1013.850260275935
 20
482.1905948108073
 30
0.0
 10
1012.994218913911
 20
482.1905948108073
 30
0.0
 10
1012.138177551887
 20
482.1905948108073
 30
0.0
 10
1011.444218914299
 20
482.884553448395
 30
0.0
 10
1011.444218914299
 20
483.7405948104191
 30
0.0
 10
1011.444218914299
 20
483.7405948104191
 30
0.0
 10
1011.444218914299
 20
483.7405948104191
 30
0.0
 10
1011.444218914299
 20
483.7405948104191
 30
0.0
  0
ENDBLK
  5
5C
330
59
100
AcDbEntity
  8
0
100
AcDbBlockEnd
  0
BLOCK
  5
60
330
5E
100
AcDbEntity
  8
0
100
AcDbBlockBegin
  2
block 8
 70
     0
 10
0.0
 20
0.0
 30
0.0
  3
block 8
  1

  0
SPLINE
  5
62
330
5E
100
AcDbEntity
  8
0
 62
     7
420
 16777215
370
    25
100
AcDbSpline
210
0.0
220
0.0
230
1.0
 70
    11
 71
     3
 72
    20
 73
    16
 74
     0
 42
0.0000000001
 43
0.0000000001
 12
1.0
 22
0.0
 32
0.0
 13
1.0
 23
0.0
 33
0.0
 40
0.0
 40
0.0
 40
0.0
 40
0.0
 40
1.0
 40
1.0
 40
1.0
 40
2.0
 40
2.0
 40
2.0
 40
3.0
 40
3.0
 40
3.0
 40
4.0
 40
4.0
 40
4.0
 40
5.0
 40
5.0
 40
5.0
 40
5.0
 10
905.4557806064761
 20
596.2594049195809
 30
0.0
 10
905.4557806064761
 20
597.1154462816049
 30
0.0
 10
906.1497392440646
 20
597.8094049191935
 30
0.0
 10
907.0057806060887
 20
597.8094049191935
 30
0.0
 10
907.8618219681119
 20
597.8094049191935
 30
0.0
 10
908.5557806057005
 20
597.1154462816049
 30
0.0
 10
908.5557806057014
 20
596.2594049195809
 30
0.0
 10
908.5557806057005
 20
595.4033635575568
 30
0.0
 10
907.8618219681119
 20
594.7094049199682
 30
0.0
 10
907.0057806060887
 20
594.7094049199682
 30
0.0
 10
906.1497392440646
 20
594.7094049199682
 30
0.0
 10
905.4557806064761
 20
595.4033635575568
 30
0.0
 10
905.4557806064761
 20
596.2594049195809
 30
0.0
 10
905.4557806064761
 20
596.2594049195809
 30
0.0
 10
905.4557806064761
 20
596.2594049195809
 30
0.0
 10
905.4557806064761
 20
596.2594049195809
 30
0.0
  0
ENDBLK
  5
61
330
5E
100
AcDbEntity
  8
0
100
AcDbBlockEnd
  0
BLOCK
  5
65
330
63
100
AcDbEntity
  8
0
100
AcDbBlockBegin
  2
block 9
 70
     0
 10
0.0
 20
0.0
 30
0.0
  3
block 9
  1

  0
SPLINE
  5
67
330
63
100
AcDbEntity
  8
0
 62
     7
420
 16777215
370
    25
100
AcDbSpline
210
0.0
220
0.0
230
1.0
 70
    11
 71
     3
 72
    20
 73
    16
 74
     0
 42
0.0000000001
 43
0.0000000001
 12
1.0
 22
0.0
 32
0.0
 13
1.0
 23
0.0
 33
0.0
 40
0.0
 40
0.0
 40
0.0
 40
0.0
 40
1.0
 40
1.0
 40
1.0
 40
2.0
 40
2.0
 40
2.0
 40
3.0
 40
3.0
 40
3.0
 40
4.0
 40
4.0
 40
4.0
 40
5.0
 40
5.0
 40
5.0
 40
5.0
 10
1011.444218914299
 20
596.2594049195809
 30
0.0
 10
1011.444218914299
 20
597.1154462816049
 30
0.0
 10
1012.138177551887
 20
597.8094049191935
 30
0.0
 10
1012.994218913911
 20
597.8094049191935
 30
0.0
 10
1013.850260275935
 20
597.8094049191935
 30
0.0
 10
1014.544218913523
 20
597.1154462816049
 30
0.0
 10
1014.544218913523
 20
596.2594049195809
 30
0.0
 10
1014.544218913523
 20
595.4033635575568
 30
0.0
 10
1013.850260275935
 20
594.7094049199682
 30
0.0
 10
1012.994218913911
 20
594.7094049199682
 30
0.0
 10
1012.138177551887
 20
594.7094049199682
 30
0.0
 10
1011.444218914299
 20
595.4033635575568
 30
0.0
 10
1011.444218914299
 20
596.2594049195809
 30
0.0
 10
1011.444218914299
 20
596.2594049195809
 30
0.0
 10
1011.444218914299
 20
596.2594049195809
 30
0.0
 10
1011.444218914299
 20
596.2594049195809
 30
0.0
  0
ENDBLK
  5
66
330
63
100
AcDbEntity
  8
0
100
AcDbBlockEnd
  0
BLOCK
  5
6A
330
68
100
AcDbEntity
  8
0
100
AcDbBlockBegin
  2
block 10
 70
     0
 10
0.0
 20
0.0
 30
0.0
  3
block 10
  1

  0
SPLINE
  5
6C
330
68
100
AcDbEntity
  8
0
 62
     7
420
 16777215
370
    25
100
AcDbSpline
210
0.0
220
0.0
230
1.0
 70
    11
 71
     3
 72
    20
 73
    16
 74
     0
 42
0.0000000001
 43
0.0000000001
 12
1.0
 22
0.0
 32
0.0
 13
1.0
 23
0.0
 33
0.0
 40
0.0
 40
0.0
 40
0.0
 40
0.0
 40
1.0
 40
1.0
 40
1.0
 40
2.0
 40
2.0
 40
2.0
 40
3.0
 40
3.0
 40
3.0
 40
4.0
 40
4.0
 40
4.0
 40
5.0
 40
5.0
 40
5.0
 40
5.0
 10
905.4557806064761
 20
483.7405948104191
 30
0.0
 10
905.4557806064761
 20
484.5966361724432
 30
0.0
 10
906.1497392440646
 20
485.2905948100327
 30
0.0
 10
907.0057806060887
 20
485.2905948100327
 30
0.0
 10
907.8618219681119
 20
485.2905948100327
 30
0.0
 10
908.5557806057005
 20
484.5966361724432
 30
0.0
 10
908.5557806057014
 20
483.7405948104191
 30
0.0
 10
908.5557806057005
 20
482.884553448395
 30
0.0
 10
907.8618219681119
 20
482.1905948108073
 30
0.0
 10
907.0057806060887
 20
482.1905948108073
 30
0.0
 10
906.1497392440646
 20
482.1905948108073
 30
0.0
 10
905.4557806064761
 20
482.884553448395
 30
0.0
 10
905.4557806064761
 20
483.7405948104191
 30
0.0
 10
905.4557806064761
 20
483.7405948104191
 30
0.0
 10
905.4557806064761
 20
483.7405948104191
 30
0.0
 10
905.4557806064761
 20
483.7405948104191
 30
0.0
  0
ENDBLK
  5
6B
330
68
100
AcDbEntity
  8
0
100
AcDbBlockEnd
  0
BLOCK
  5
6F
330
6D
100
AcDbEntity
  8
0
100
AcDbBlockBegin
  2
block 11
 70
     0
 10
0.0
 20
0.0
 30
0.0
  3
block 11
  1

  0
POLYLINE
  5
71
330
6D
100
AcDbEntity
  8
0
 62
   240
420
 15539236
370
    35
100
AcDb2dPolyline
 66
     1
 10
0.0
 20
0.0
 30
0.0
  0
VERTEX
  5
72
330
71
100
AcDbEntity
  8
0
 62
   240
420
 15539236
370
    35
100
AcDbVertex
100
AcDb2dVertex
 10
812.0253904219936
 20
606.99999984825
 30
0.0
  0
VERTEX
  5
73
330
71
100
AcDbEntity
  8
0
 62
   240
420
 15539236
370
    35
100
AcDbVertex
100
AcDb2dVertex
 10
812.0253904219936
 20
615.5898435961026
 30
0.0
  0
VERTEX
  5
74
330
71
100
AcDbEntity
  8
0
 62
   240
420
 15539236
370
    35
100
AcDbVertex
100
AcDb2dVertex
 10
813.1621091717094
 20
615.5898435961026
 30
0.0
  0
VERTEX
  5
75
330
71
100
AcDbEntity
  8
0
 62
   240
420
 15539236
370
    35
100
AcDbVertex
100
AcDb2dVertex
 10
813.1621091717094
 20
608.0136717229966
 30
0.0
  0
VERTEX
  5
76
330
71
100
AcDbEntity
  8
0
 62
   240
420
 15539236
370
    35
100
AcDbVertex
100
AcDb2dVertex
 10
817.3925779206519
 20
608.0136717229966
 30
0.0
  0
VERTEX
  5
77
330
71
100
AcDbEntity
  8
0
 62
   240
420
 15539236
370
    35
100
AcDbVertex
100
AcDb2dVertex
 10
817.3925779206519
 20
606.99999984825
 30
0.0
  0
VERTEX
  5
78
330
71
100
AcDbEntity
  8
0
 62
   240
420
 15539236
370
    35
100
AcDbVertex
100
AcDb2dVertex
 10
812.0253904219936
 20
606.99999984825
 30
0.0
  0
SEQEND
  5
79
330
71
100
AcDbEntity
  8
0
 62
   240
420
 15539236
370
    35
  0
HATCH
  5
7A
330
6D
100
AcDbEntity
  8
0
 62
   240
420
 15539236
100
AcDbHatch
 10
0.0
 20
0.0
 30
0.0
210
0.0
220
0.0
230
1.0
  2
SOLID
 70
     1
 71
     0
 91
        1
 92
        1
 93
        6
 72
     1
 10
812.0253904219936
 20
606.99999984825
 11
812.0253904219936
 21
615.5898435961026
 72
     1
 10
812.0253904219936
 20
615.5898435961026
 11
813.1621091717094
 21
615.5898435961026
 72
     1
 10
813.1621091717094
 20
615.5898435961026
 11
813.1621091717094
 21
608.0136717229966
 72
     1
 10
813.1621091717094
 20
608.0136717229966
 11
817.3925779206519
 21
608.0136717229966
 72
     1
 10
817.3925779206519
 20
608.0136717229966
 11
817.3925779206519
 21
606.99999984825
 72
     1
 10
817.3925779206519
 20
606.99999984825
 11
812.0253904219936
 21
606.99999984825
 97
        0
 75
     2
 76
     1
 98
        0
  0
SPLINE
  5
7B
330
6D
100
AcDbEntity
  8
0
 62
   240
420
 15539236
370
    35
100
AcDbSpline
210
0.0
220
0.0
230
1.0
 70
    11
 71
     3
 72
    71
 73
    67
 74
     0
 42
0.0000000001
 43
0.0000000001
 12
1.0
 22
0.0
 32
0.0
 13
1.0
 23
0.0
 33
0.0
 40
0.0
 40
0.0
 40
0.0
 40
0.0
 40
1.0
 40
1.0
 40
1.0
 40
2.0
 40
2.0
 40
2.0
 40
3.0
 40
3.0
 40
3.0
 40
4.0
 40
4.0
 40
4.0
 40
5.0
 40
5.0
 40
5.0
 40
6.0
 40
6.0
 40
6.0
 40
7.0
 40
7.0
 40
7.0
 40
8.0
 40
8.0
 40
8.0
 40
9.0
 40
9.0
 40
9.0
 40
10.0
 40
10.0
 40
10.0
 40
11.0
 40
11.0
 40
11.0
 40
12.0
 40
12.0
 40
12.0
 40
13.0
 40
13.0
 40
13.0
 40
14.0
 40
14.0
 40
14.0
 40
15.0
 40
15.0
 40
15.0
 40
16.0
 40
16.0
 40
16.0
 40
17.0
 40
17.0
 40
17.0
 40
18.0
 40
18.0
 40
18.0
 40
19.0
 40
19.0
 40
19.0
 40
20.0
 40
20.0
 40
20.0
 40
21.0
 40
21.0
 40
21.0
 40
22.0
 40
22.0
 40
22.0
 40
22.0
 10
818.3183591704204
 20
609.2499998476875
 30
0.0
 10
818.3183591704204
 20
609.2499998476875
 30
0.0
 10
819.4257810451436
 20
609.3437498476641
 30
0.0
 10
819.4257810451436
 20
609.3437498476641
 30
0.0
 10
819.507812295123
 20
608.8046873477988
 30
0.0
 10
819.6982419825754
 20
608.3994139104001
 30
0.0
 10
819.9970701075007
 20
608.127929535468
 30
0.0
 10
820.295898232426
 20
607.8564451605358
 30
0.0
 10
820.656249794836
 20
607.7207029730698
 30
0.0
 10
821.0781247947305
 20
607.7207029730698
 30
0.0
 10
821.5859372946035
 20
607.7207029730698
 30
0.0
 10
822.015624794496
 20
607.912109223022
 30
0.0
 10
822.3671872944082
 20
608.2949217229262
 30
0.0
 10
822.7187497943203
 20
608.6777342228305
 30
0.0
 10
822.8945310442764
 20
609.1855467227036
 30
0.0
 10
822.8945310442764
 20
609.8183592225454
 30
0.0
 10
822.8945310442764
 20
610.419921722395
 30
0.0
 10
822.7255857318186
 20
610.8945310972764
 30
0.0
 10
822.387695106903
 20
611.2421873471894
 30
0.0
 10
822.0498044819875
 20
611.5898435971026
 30
0.0
 10
821.6074216695981
 20
611.763671722059
 30
0.0
 10
821.0605466697349
 20
611.763671722059
 30
0.0
 10
820.7207029198198
 20
611.763671722059
 30
0.0
 10
820.4140622948964
 20
611.6865232845784
 30
0.0
 10
820.1406247949649
 20
611.5322264096169
 30
0.0
 10
819.8671872950332
 20
611.3779295346556
 30
0.0
 10
819.6523435450869
 20
611.1777342222056
 30
0.0
 10
819.496093545126
 20
610.9316404722671
 30
0.0
 10
819.496093545126
 20
610.9316404722671
 30
0.0
 10
818.5058591703735
 20
611.0605467222349
 30
0.0
 10
818.5058591703735
 20
611.0605467222349
 30
0.0
 10
818.5058591703735
 20
611.0605467222349
 30
0.0
 10
819.3378904201655
 20
615.4726560961318
 30
0.0
 10
819.3378904201655
 20
615.4726560961318
 30
0.0
 10
819.3378904201655
 20
615.4726560961318
 30
0.0
 10
823.6093747940977
 20
615.4726560961318
 30
0.0
 10
823.6093747940977
 20
615.4726560961318
 30
0.0
 10
823.6093747940977
 20
615.4726560961318
 30
0.0
 10
823.6093747940977
 20
614.4648435963837
 30
0.0
 10
823.6093747940977
 20
614.4648435963837
 30
0.0
 10
823.6093747940977
 20
614.4648435963837
 30
0.0
 10
820.1816404199545
 20
614.4648435963837
 30
0.0
 10
820.1816404199545
 20
614.4648435963837
 30
0.0
 10
820.1816404199545
 20
614.4648435963837
 30
0.0
 10
819.7187497950703
 20
612.1562498469609
 30
0.0
 10
819.7187497950703
 20
612.1562498469609
 30
0.0
 10
820.2343747949413
 20
612.5156248468711
 30
0.0
 10
820.7753904198062
 20
612.6953123468262
 30
0.0
 10
821.3417966696645
 20
612.6953123468262
 30
0.0
 10
822.091796669477
 20
612.6953123468262
 30
0.0
 10
822.7246091693188
 20
612.4355467218911
 30
0.0
 10
823.2402341691899
 20
611.916015472021
 30
0.0
 10
823.7558591690611
 20
611.3964842221509
 30
0.0
 10
824.0136716689966
 20
610.7285154723179
 30
0.0
 10
824.0136716689966
 20
609.912109222522
 30
0.0
 10
824.0136716689966
 20
609.1347654727163
 30
0.0
 10
823.7871091690532
 20
608.4628904728843
 30
0.0
 10
823.3339841691665
 20
607.8964842230258
 30
0.0
 10
822.7832029193041
 20
607.2011717231996
 30
0.0
 10
822.0312497944922
 20
606.8535154732866
 30
0.0
 10
821.0781247947305
 20
606.8535154732866
 30
0.0
 10
820.2968747949258
 20
606.8535154732866
 30
0.0
 10
819.6591794825852
 20
607.0722654732319
 30
0.0
 10
819.1650388577087
 20
607.5097654731226
 30
0.0
 10
818.6708982328323
 20
607.9472654730132
 30
0.0
 10
818.3886716704028
 20
608.5273435978681
 30
0.0
 10
818.3183591704204
 20
609.2499998476875
 30
0.0
  0
HATCH
  5
7C
330
6D
100
AcDbEntity
  8
0
 62
   240
420
 15539236
100
AcDbHatch
 10
0.0
 20
0.0
 30
0.0
210
0.0
220
0.0
230
1.0
  2
SOLID
 70
     1
 71
     0
 91
        1
 92
        1
 93
        1
 72
     4
 94
        3
 73
     0
 74
     1
 95
       71
 96
       67
 40
0.0
 40
0.0
 40
0.0
 40
0.0
 40
1.0
 40
1.0
 40
1.0
 40
2.0
 40
2.0
 40
2.0
 40
3.0
 40
3.0
 40
3.0
 40
4.0
 40
4.0
 40
4.0
 40
5.0
 40
5.0
 40
5.0
 40
6.0
 40
6.0
 40
6.0
 40
7.0
 40
7.0
 40
7.0
 40
8.0
 40
8.0
 40
8.0
 40
9.0
 40
9.0
 40
9.0
 40
10.0
 40
10.0
 40
10.0
 40
11.0
 40
11.0
 40
11.0
 40
12.0
 40
12.0
 40
12.0
 40
13.0
 40
13.0
 40
13.0
 40
14.0
 40
14.0
 40
14.0
 40
15.0
 40
15.0
 40
15.0
 40
16.0
 40
16.0
 40
16.0
 40
17.0
 40
17.0
 40
17.0
 40
18.0
 40
18.0
 40
18.0
 40
19.0
 40
19.0
 40
19.0
 40
20.0
 40
20.0
 40
20.0
 40
21.0
 40
21.0
 40
21.0
 40
22.0
 40
22.0
 40
22.0
 40
22.0
 10
818.3183591704204
 20
609.2499998476875
 10
818.3183591704204
 20
609.2499998476875
 10
819.4257810451436
 20
609.3437498476641
 10
819.4257810451436
 20
609.3437498476641
 10
819.507812295123
 20
608.8046873477988
 10
819.6982419825754
 20
608.3994139104001
 10
819.9970701075007
 20
608.127929535468
 10
820.295898232426
 20
607.8564451605358
 10
820.656249794836
 20
607.7207029730698
 10
821.0781247947305
 20
607.7207029730698
 10
821.5859372946035
 20
607.7207029730698
 10
822.015624794496
 20
607.912109223022
 10
822.3671872944082
 20
608.2949217229262
 10
822.7187497943203
 20
608.6777342228305
 10
822.8945310442764
 20
609.1855467227036
 10
822.8945310442764
 20
609.8183592225454
 10
822.8945310442764
 20
610.419921722395
 10
822.7255857318186
 20
610.8945310972764
 10
822.387695106903
 20
611.2421873471894
 10
822.0498044819875
 20
611.5898435971026
 10
821.6074216695981
 20
611.763671722059
 10
821.0605466697349
 20
611.763671722059
 10
820.7207029198198
 20
611.763671722059
 10
820.4140622948964
 20
611.6865232845784
 10
820.1406247949649
 20
611.5322264096169
 10
819.8671872950332
 20
611.3779295346556
 10
819.6523435450869
 20
611.1777342222056
 10
819.496093545126
 20
610.9316404722671
 10
819.496093545126
 20
610.9316404722671
 10
818.5058591703735
 20
611.0605467222349
 10
818.5058591703735
 20
611.0605467222349
 10
818.5058591703735
 20
611.0605467222349
 10
819.3378904201655
 20
615.4726560961318
 10
819.3378904201655
 20
615.4726560961318
 10
819.3378904201655
 20
615.4726560961318
 10
823.6093747940977
 20
615.4726560961318
 10
823.6093747940977
 20
615.4726560961318
 10
823.6093747940977
 20
615.4726560961318
 10
823.6093747940977
 20
614.4648435963837
 10
823.6093747940977
 20
614.4648435963837
 10
823.6093747940977
 20
614.4648435963837
 10
820.1816404199545
 20
614.4648435963837
 10
820.1816404199545
 20
614.4648435963837
 10
820.1816404199545
 20
614.4648435963837
 10
819.7187497950703
 20
612.1562498469609
 10
819.7187497950703
 20
612.1562498469609
 10
820.2343747949413
 20
612.5156248468711
 10
820.7753904198062
 20
612.6953123468262
 10
821.3417966696645
 20
612.6953123468262
 10
822.091796669477
 20
612.6953123468262
 10
822.7246091693188
 20
612.4355467218911
 10
823.2402341691899
 20
611.916015472021
 10
823.7558591690611
 20
611.3964842221509
 10
824.0136716689966
 20
610.7285154723179
 10
824.0136716689966
 20
609.912109222522
 10
824.0136716689966
 20
609.1347654727163
 10
823.7871091690532
 20
608.4628904728843
 10
823.3339841691665
 20
607.8964842230258
 10
822.7832029193041
 20
607.2011717231996
 10
822.0312497944922
 20
606.8535154732866
 10
821.0781247947305
 20
606.8535154732866
 10
820.2968747949258
 20
606.8535154732866
 10
819.6591794825852
 20
607.0722654732319
 10
819.1650388577087
 20
607.5097654731226
 10
818.6708982328323
 20
607.9472654730132
 10
818.3886716704028
 20
608.5273435978681
 10
818.3183591704204
 20
609.2499998476875
 97
        0
 97
        0
 75
     2
 76
     1
 98
        0
  0
SPLINE
  5
7D
330
6D
100
AcDbEntity
  8
0
 62
   240
420
 15539236
370
    35
100
AcDbSpline
210
0.0
220
0.0
230
1.0
 70
    11
 71
     3
 72
   110
 73
   106
 74
     0
 42
0.0000000001
 43
0.0000000001
 12
1.0
 22
0.0
 32
0.0
 13
1.0
 23
0.0
 33
0.0
 40
0.0
 40
0.0
 40
0.0
 40
0.0
 40
1.0
 40
1.0
 40
1.0
 40
2.0
 40
2.0
 40
2.0
 40
3.0
 40
3.0
 40
3.0
 40
4.0
 40
4.0
 40
4.0
 40
5.0
 40
5.0
 40
5.0
 40
6.0
 40
6.0
 40
6.0
 40
7.0
 40
7.0
 40
7.0
 40
8.0
 40
8.0
 40
8.0
 40
9.0
 40
9.0
 40
9.0
 40
10.0
 40
10.0
 40
10.0
 40
11.0
 40
11.0
 40
11.0
 40
12.0
 40
12.0
 40
12.0
 40
13.0
 40
13.0
 40
13.0
 40
14.0
 40
14.0
 40
14.0
 40
15.0
 40
15.0
 40
15.0
 40
16.0
 40
16.0
 40
16.0
 40
17.0
 40
17.0
 40
17.0
 40
18.0
 40
18.0
 40
18.0
 40
19.0
 40
19.0
 40
19.0
 40
20.0
 40
20.0
 40
20.0
 40
21.0
 40
21.0
 40
21.0
 40
22.0
 40
22.0
 40
22.0
 40
23.0
 40
23.0
 40
23.0
 40
24.0
 40
24.0
 40
24.0
 40
25.0
 40
25.0
 40
25.0
 40
26.0
 40
26.0
 40
26.0
 40
27.0
 40
27.0
 40
27.0
 40
28.0
 40
28.0
 40
28.0
 40
29.0
 40
29.0
 40
29.0
 40
30.0
 40
30.0
 40
30.0
 40
31.0
 40
31.0
 40
31.0
 40
32.0
 40
32.0
 40
32.0
 40
33.0
 40
33.0
 40
33.0
 40
34.0
 40
34.0
 40
34.0
 40
35.0
 40
35.0
 40
35.0
 40
35.0
 10
828.3671872929082
 20
609.75976547256
 30
0.0
 10
828.3671872929082
 20
609.75976547256
 30
0.0
 10
829.4394529176401
 20
609.8535154725366
 30
0.0
 10
829.4394529176401
 20
609.8535154725366
 30
0.0
 10
829.4902341676275
 20
609.4238279726441
 30
0.0
 10
829.6083982300979
 20
609.0712889102322
 30
0.0
 10
829.7939451050515
 20
608.7958982853011
 30
0.0
 10
829.9794919800052
 20
608.5205076603698
 30
0.0
 10
830.2675779174331
 20
608.2978514104256
 30
0.0
 10
830.6582029173354
 20
608.127929535468
 30
0.0
 10
831.0488279172378
 20
607.9580076605105
 30
0.0
 10
831.4882810421279
 20
607.8730467230317
 30
0.0
 10
831.9765622920058
 20
607.8730467230317
 30
0.0
 10
832.4101560418975
 20
607.8730467230317
 30
0.0
 10
832.7929685418018
 20
607.9374998480156
 30
0.0
 10
833.1249997917188
 20
608.0664060979834
 30
0.0
 10
833.4570310416357
 20
608.1953123479511
 30
0.0
 10
833.7041013540739
 20
608.372070160407
 30
0.0
 10
833.8662107290335
 20
608.5966795353509
 30
0.0
 10
834.0283201039929
 20
608.8212889102947
 30
0.0
 10
834.1093747914726
 20
609.0664060977334
 30
0.0
 10
834.1093747914726
 20
609.332031097667
 30
0.0
 10
834.1093747914726
 20
609.6015623475996
 30
0.0
 10
834.0312497914922
 20
609.8369139100407
 30
0.0
 10
833.8749997915312
 20
610.0380857849905
 30
0.0
 10
833.7187497915703
 20
610.2392576599402
 30
0.0
 10
833.4609372916348
 20
610.4082029723979
 30
0.0
 10
833.1015622917246
 20
610.5449217223637
 30
0.0
 10
832.8710935417822
 20
610.6347654723413
 30
0.0
 10
832.3613279169097
 20
610.7744139098064
 30
0.0
 10
831.5722654171069
 20
610.963867034759
 30
0.0
 10
830.7832029173042
 20
611.1533201597117
 30
0.0
 10
830.2304685424424
 20
611.332031097167
 30
0.0
 10
829.9140622925215
 20
611.499999847125
 30
0.0
 10
829.503906042624
 20
611.7148435970713
 30
0.0
 10
829.1982419802005
 20
611.9814451595046
 30
0.0
 10
828.9970701052507
 20
612.299804534425
 30
0.0
 10
828.795898230301
 20
612.6181639093454
 30
0.0
 10
828.6953122928262
 20
612.9746092217563
 30
0.0
 10
828.6953122928262
 20
613.3691404716577
 30
0.0
 10
828.6953122928262
 20
613.8027342215493
 30
0.0
 10
828.8183591677954
 20
614.208007658948
 30
0.0
 10
829.0644529177339
 20
614.5849607838537
 30
0.0
 10
829.3105466676724
 20
614.9619139087595
 30
0.0
 10
829.6699216675825
 20
615.248046721188
 30
0.0
 10
830.1425779174643
 20
615.4433592211392
 30
0.0
 10
830.6152341673462
 20
615.6386717210903
 30
0.0
 10
831.1406247922148
 20
615.7363279710659
 30
0.0
 10
831.7187497920703
 20
615.7363279710659
 30
0.0
 10
832.3554685419111
 20
615.7363279710659
 30
0.0
 10
832.9169919792707
 20
615.6337889085916
 30
0.0
 10
833.4033201041492
 20
615.4287107836428
 30
0.0
 10
833.8896482290276
 20
615.2236326586941
 30
0.0
 10
834.2636716664341
 20
614.9218748462695
 30
0.0
 10
834.5253904163686
 20
614.5234373463692
 30
0.0
 10
834.7871091663033
 20
614.1249998464688
 30
0.0
 10
834.927734166268
 20
613.6738279715815
 30
0.0
 10
834.9472654162631
 20
613.1699217217075
 30
0.0
 10
834.9472654162631
 20
613.1699217217075
 30
0.0
 10
833.8574216665356
 20
613.087890471728
 30
0.0
 10
833.8574216665356
 20
613.087890471728
 30
0.0
 10
833.7988279165503
 20
613.6308592215922
 30
0.0
 10
833.6005857290999
 20
614.0410154714897
 30
0.0
 10
833.2626951041843
 20
614.3183592214205
 30
0.0
 10
832.9248044792688
 20
614.5957029713511
 30
0.0
 10
832.4257810418935
 20
614.7343748463164
 30
0.0
 10
831.7656247920586
 20
614.7343748463164
 30
0.0
 10
831.0781247922305
 20
614.7343748463164
 30
0.0
 10
830.5771482298557
 20
614.6083982838479
 30
0.0
 10
830.2626951049343
 20
614.3564451589109
 30
0.0
 10
829.9482419800129
 20
614.1044920339739
 30
0.0
 10
829.7910154175522
 20
613.8007810965498
 30
0.0
 10
829.7910154175522
 20
613.4453123466386
 30
0.0
 10
829.7910154175522
 20
613.1367185967158
 30
0.0
 10
829.9023435425244
 20
612.8828123467792
 30
0.0
 10
830.1249997924688
 20
612.683593596829
 30
0.0
 10
830.3437497924141
 20
612.484374846879
 30
0.0
 10
830.9150388547712
 20
612.2802732844299
 30
0.0
 10
831.8388669795403
 20
612.0712889094822
 30
0.0
 10
832.7626951043093
 20
611.8623045345344
 30
0.0
 10
833.3964841666509
 20
611.6796873470801
 30
0.0
 10
833.740234166565
 20
611.5234373471192
 30
0.0
 10
834.2402341664399
 20
611.2929685971767
 30
0.0
 10
834.6093747913476
 20
611.0009764097498
 30
0.0
 10
834.847656041288
 20
610.6474607848381
 30
0.0
 10
835.0859372912284
 20
610.2939451599265
 30
0.0
 10
835.2050779161987
 20
609.8867185975283
 30
0.0
 10
835.2050779161987
 20
609.4257810976435
 30
0.0
 10
835.2050779161987
 20
608.9687498477577
 30
0.0
 10
835.0742185412314
 20
608.5380857853654
 30
0.0
 10
834.8124997912969
 20
608.1337889104666
 30
0.0
 10
834.5507810413623
 20
607.7294920355677
 30
0.0
 10
834.1748044789563
 20
607.4150389106462
 30
0.0
 10
833.6845701040788
 20
607.1904295357024
 30
0.0
 10
833.1943357292014
 20
606.9658201607585
 30
0.0
 10
832.6425779168393
 20
606.8535154732866
 30
0.0
 10
832.0292966669926
 20
606.8535154732866
 30
0.0
 10
831.2519529171869
 20
606.8535154732866
 30
0.0
 10
830.6005857298499
 20
606.9667967232583
 30
0.0
 10
830.0751951049812
 20
607.1933592232017
 30
0.0
 10
829.5498044801126
 20
607.419921723145
 30
0.0
 10
829.1376951052156
 20
607.7607420355598
 30
0.0
 10
828.8388669802903
 20
608.215820160446
 30
0.0
 10
828.540038855365
 20
608.6708982853322
 30
0.0
 10
828.3828122929043
 20
609.1855467227036
 30
0.0
 10
828.3671872929082
 20
609.75976547256
 30
0.0
  0
HATCH
  5
7E
330
6D
100
AcDbEntity
  8
0
 62
   240
420
 15539236
100
AcDbHatch
 10
0.0
 20
0.0
 30
0.0
210
0.0
220
0.0
230
1.0
  2
SOLID
 70
     1
 71
     0
 91
        1
 92
        1
 93
        1
 72
     4
 94
        3
 73
     0
 74
     1
 95
      110
 96
      106
 40
0.0
 40
0.0
 40
0.0
 40
0.0
 40
1.0
 40
1.0
 40
1.0
 40
2.0
 40
2.0
 40
2.0
 40
3.0
 40
3.0
 40
3.0
 40
4.0
 40
4.0
 40
4.0
 40
5.0
 40
5.0
 40
5.0
 40
6.0
 40
6.0
 40
6.0
 40
7.0
 40
7.0
 40
7.0
 40
8.0
 40
8.0
 40
8.0
 40
9.0
 40
9.0
 40
9.0
 40
10.0
 40
10.0
 40
10.0
 40
11.0
 40
11.0
 40
11.0
 40
12.0
 40
12.0
 40
12.0
 40
13.0
 40
13.0
 40
13.0
 40
14.0
 40
14.0
 40
14.0
 40
15.0
 40
15.0
 40
15.0
 40
16.0
 40
16.0
 40
16.0
 40
17.0
 40
17.0
 40
17.0
 40
18.0
 40
18.0
 40
18.0
 40
19.0
 40
19.0
 40
19.0
 40
20.0
 40
20.0
 40
20.0
 40
21.0
 40
21.0
 40
21.0
 40
22.0
 40
22.0
 40
22.0
 40
23.0
 40
23.0
 40
23.0
 40
24.0
 40
24.0
 40
24.0
 40
25.0
 40
25.0
 40
25.0
 40
26.0
 40
26.0
 40
26.0
 40
27.0
 40
27.0
 40
27.0
 40
28.0
 40
28.0
 40
28.0
 40
29.0
 40
29.0
 40
29.0
 40
30.0
 40
30.0
 40
30.0
 40
31.0
 40
31.0
 40
31.0
 40
32.0
 40
32.0
 40
32.0
 40
33.0
 40
33.0
 40
33.0
 40
34.0
 40
34.0
 40
34.0
 40
35.0
 40
35.0
 40
35.0
 40
35.0
 10
828.3671872929082
 20
609.75976547256
 10
828.3671872929082
 20
609.75976547256
 10
829.4394529176401
 20
609.8535154725366
 10
829.4394529176401
 20
609.8535154725366
 10
829.4902341676275
 20
609.4238279726441
 10
829.6083982300979
 20
609.0712889102322
 10
829.7939451050515
 20
608.7958982853011
 10
829.9794919800052
 20
608.5205076603698
 10
830.2675779174331
 20
608.2978514104256
 10
830.6582029173354
 20
608.127929535468
 10
831.0488279172378
 20
607.9580076605105
 10
831.4882810421279
 20
607.8730467230317
 10
831.9765622920058
 20
607.8730467230317
 10
832.4101560418975
 20
607.8730467230317
 10
832.7929685418018
 20
607.9374998480156
 10
833.1249997917188
 20
608.0664060979834
 10
833.4570310416357
 20
608.1953123479511
 10
833.7041013540739
 20
608.372070160407
 10
833.8662107290335
 20
608.5966795353509
 10
834.0283201039929
 20
608.8212889102947
 10
834.1093747914726
 20
609.0664060977334
 10
834.1093747914726
 20
609.332031097667
 10
834.1093747914726
 20
609.6015623475996
 10
834.0312497914922
 20
609.8369139100407
 10
833.8749997915312
 20
610.0380857849905
 10
833.7187497915703
 20
610.2392576599402
 10
833.4609372916348
 20
610.4082029723979
 10
833.1015622917246
 20
610.5449217223637
 10
832.8710935417822
 20
610.6347654723413
 10
832.3613279169097
 20
610.7744139098064
 10
831.5722654171069
 20
610.963867034759
 10
830.7832029173042
 20
611.1533201597117
 10
830.2304685424424
 20
611.332031097167
 10
829.9140622925215
 20
611.499999847125
 10
829.503906042624
 20
611.7148435970713
 10
829.1982419802005
 20
611.9814451595046
 10
828.9970701052507
 20
612.299804534425
 10
828.795898230301
 20
612.6181639093454
 10
828.6953122928262
 20
612.9746092217563
 10
828.6953122928262
 20
613.3691404716577
 10
828.6953122928262
 20
613.8027342215493
 10
828.8183591677954
 20
614.208007658948
 10
829.0644529177339
 20
614.5849607838537
 10
829.3105466676724
 20
614.9619139087595
 10
829.6699216675825
 20
615.248046721188
 10
830.1425779174643
 20
615.4433592211392
 10
830.6152341673462
 20
615.6386717210903
 10
831.1406247922148
 20
615.7363279710659
 10
831.7187497920703
 20
615.7363279710659
 10
832.3554685419111
 20
615.7363279710659
 10
832.9169919792707
 20
615.6337889085916
 10
833.4033201041492
 20
615.4287107836428
 10
833.8896482290276
 20
615.2236326586941
 10
834.2636716664341
 20
614.9218748462695
 10
834.5253904163686
 20
614.5234373463692
 10
834.7871091663033
 20
614.1249998464688
 10
834.927734166268
 20
613.6738279715815
 10
834.9472654162631
 20
613.1699217217075
 10
834.9472654162631
 20
613.1699217217075
 10
833.8574216665356
 20
613.087890471728
 10
833.8574216665356
 20
613.087890471728
 10
833.7988279165503
 20
613.6308592215922
 10
833.6005857290999
 20
614.0410154714897
 10
833.2626951041843
 20
614.3183592214205
 10
832.9248044792688
 20
614.5957029713511
 10
832.4257810418935
 20
614.7343748463164
 10
831.7656247920586
 20
614.7343748463164
 10
831.0781247922305
 20
614.7343748463164
 10
830.5771482298557
 20
614.6083982838479
 10
830.2626951049343
 20
614.3564451589109
 10
829.9482419800129
 20
614.1044920339739
 10
829.7910154175522
 20
613.8007810965498
 10
829.7910154175522
 20
613.4453123466386
 10
829.7910154175522
 20
613.1367185967158
 10
829.9023435425244
 20
612.8828123467792
 10
830.1249997924688
 20
612.683593596829
 10
830.3437497924141
 20
612.484374846879
 10
830.9150388547712
 20
612.2802732844299
 10
831.8388669795403
 20
612.0712889094822
 10
832.7626951043093
 20
611.8623045345344
 10
833.3964841666509
 20
611.6796873470801
 10
833.740234166565
 20
611.5234373471192
 10
834.2402341664399
 20
611.2929685971767
 10
834.6093747913476
 20
611.0009764097498
 10
834.847656041288
 20
610.6474607848381
 10
835.0859372912284
 20
610.2939451599265
 10
835.2050779161987
 20
609.8867185975283
 10
835.2050779161987
 20
609.4257810976435
 10
835.2050779161987
 20
608.9687498477577
 10
835.0742185412314
 20
608.5380857853654
 10
834.8124997912969
 20
608.1337889104666
 10
834.5507810413623
 20
607.7294920355677
 10
834.1748044789563
 20
607.4150389106462
 10
833.6845701040788
 20
607.1904295357024
 10
833.1943357292014
 20
606.9658201607585
 10
832.6425779168393
 20
606.8535154732866
 10
832.0292966669926
 20
606.8535154732866
 10
831.2519529171869
 20
606.8535154732866
 10
830.6005857298499
 20
606.9667967232583
 10
830.0751951049812
 20
607.1933592232017
 10
829.5498044801126
 20
607.419921723145
 10
829.1376951052156
 20
607.7607420355598
 10
828.8388669802903
 20
608.215820160446
 10
828.540038855365
 20
608.6708982853322
 10
828.3828122929043
 20
609.1855467227036
 10
828.3671872929082
 20
609.75976547256
 97
        0
 97
        0
 75
     2
 76
     1
 98
        0
  0
SPLINE
  5
7F
330
6D
100
AcDbEntity
  8
0
 62
   240
420
 15539236
370
    35
100
AcDbSpline
210
0.0
220
0.0
230
1.0
 70
    11
 71
     3
 72
    65
 73
    61
 74
     0
 42
0.0000000001
 43
0.0000000001
 12
1.0
 22
0.0
 32
0.0
 13
1.0
 23
0.0
 33
0.0
 40
0.0
 40
0.0
 40
0.0
 40
0.0
 40
1.0
 40
1.0
 40
1.0
 40
2.0
 40
2.0
 40
2.0
 40
3.0
 40
3.0
 40
3.0
 40
4.0
 40
4.0
 40
4.0
 40
5.0
 40
5.0
 40
5.0
 40
6.0
 40
6.0
 40
6.0
 40
7.0
 40
7.0
 40
7.0
 40
8.0
 40
8.0
 40
8.0
 40
9.0
 40
9.0
 40
9.0
 40
10.0
 40
10.0
 40
10.0
 40
11.0
 40
11.0
 40
11.0
 40
12.0
 40
12.0
 40
12.0
 40
13.0
 40
13.0
 40
13.0
 40
14.0
 40
14.0
 40
14.0
 40
15.0
 40
15.0
 40
15.0
 40
16.0
 40
16.0
 40
16.0
 40
17.0
 40
17.0
 40
17.0
 40
18.0
 40
18.0
 40
18.0
 40
19.0
 40
19.0
 40
19.0
 40
20.0
 40
20.0
 40
20.0
 40
20.0
 10
838.9257810402686
 20
607.9433592230141
 30
0.0
 10
838.9257810402686
 20
607.9433592230141
 30
0.0
 10
839.0781247902305
 20
607.0117185982471
 30
0.0
 10
839.0781247902305
 20
607.0117185982471
 30
0.0
 10
838.7812497903046
 20
606.9492185982626
 30
0.0
 10
838.515624790371
 20
606.9179685982705
 30
0.0
 10
838.2812497904297
 20
606.9179685982705
 30
0.0
 10
837.8984372905254
 20
606.9179685982705
 30
0.0
 10
837.6015622905996
 20
606.9785154732554
 30
0.0
 10
837.3906247906523
 20
607.0996092232251
 30
0.0
 10
837.179687290705
 20
607.2207029731948
 30
0.0
 10
837.0312497907422
 20
607.379882660655
 30
0.0
 10
836.9453122907637
 20
607.5771482856057
 30
0.0
 10
836.8593747907852
 20
607.7744139105564
 30
0.0
 10
836.8164060407959
 20
608.1894529729526
 30
0.0
 10
836.8164060407959
 20
608.8222654727945
 30
0.0
 10
836.8164060407959
 20
608.8222654727945
 30
0.0
 10
836.8164060407959
 20
612.4023435968994
 30
0.0
 10
836.8164060407959
 20
612.4023435968994
 30
0.0
 10
836.8164060407959
 20
612.4023435968994
 30
0.0
 10
836.0429685409892
 20
612.4023435968994
 30
0.0
 10
836.0429685409892
 20
612.4023435968994
 30
0.0
 10
836.0429685409892
 20
612.4023435968994
 30
0.0
 10
836.0429685409892
 20
613.2226560966943
 30
0.0
 10
836.0429685409892
 20
613.2226560966943
 30
0.0
 10
836.0429685409892
 20
613.2226560966943
 30
0.0
 10
836.8164060407959
 20
613.2226560966943
 30
0.0
 10
836.8164060407959
 20
613.2226560966943
 30
0.0
 10
836.8164060407959
 20
613.2226560966943
 30
0.0
 10
836.8164060407959
 20
614.763671721309
 30
0.0
 10
836.8164060407959
 20
614.763671721309
 30
0.0
 10
836.8164060407959
 20
614.763671721309
 30
0.0
 10
837.8652341655337
 20
615.3964842211509
 30
0.0
 10
837.8652341655337
 20
615.3964842211509
 30
0.0
 10
837.8652341655337
 20
615.3964842211509
 30
0.0
 10
837.8652341655337
 20
613.2226560966943
 30
0.0
 10
837.8652341655337
 20
613.2226560966943
 30
0.0
 10
837.8652341655337
 20
613.2226560966943
 30
0.0
 10
838.9257810402686
 20
613.2226560966943
 30
0.0
 10
838.9257810402686
 20
613.2226560966943
 30
0.0
 10
838.9257810402686
 20
613.2226560966943
 30
0.0
 10
838.9257810402686
 20
612.4023435968994
 30
0.0
 10
838.9257810402686
 20
612.4023435968994
 30
0.0
 10
838.9257810402686
 20
612.4023435968994
 30
0.0
 10
837.8652341655337
 20
612.4023435968994
 30
0.0
 10
837.8652341655337
 20
612.4023435968994
 30
0.0
 10
837.8652341655337
 20
612.4023435968994
 30
0.0
 10
837.8652341655337
 20
608.763671722809
 30
0.0
 10
837.8652341655337
 20
608.763671722809
 30
0.0
 10
837.8652341655337
 20
608.4628904728843
 30
0.0
 10
837.883788853029
 20
608.2695310979326
 30
0.0
 10
837.9208982280197
 20
608.1835935979541
 30
0.0
 10
837.9580076030105
 20
608.0976560979756
 30
0.0
 10
838.0185544779954
 20
608.0292967229926
 30
0.0
 10
838.1025388529744
 20
607.9785154730054
 30
0.0
 10
838.1865232279533
 20
607.9277342230181
 30
0.0
 10
838.3066404154233
 20
607.9023435980243
 30
0.0
 10
838.4628904153842
 20
607.9023435980243
 30
0.0
 10
838.580077915355
 20
607.9023435980243
 30
0.0
 10
838.7343747903163
 20
607.9160154730209
 30
0.0
 10
838.9257810402686
 20
607.9433592230141
 30
0.0
  0
HATCH
  5
80
330
6D
100
AcDbEntity
  8
0
 62
   240
420
 15539236
100
AcDbHatch
 10
0.0
 20
0.0
 30
0.0
210
0.0
220
0.0
230
1.0
  2
SOLID
 70
     1
 71
     0
 91
        1
 92
        1
 93
        1
 72
     4
 94
        3
 73
     0
 74
     1
 95
       65
 96
       61
 40
0.0
 40
0.0
 40
0.0
 40
0.0
 40
1.0
 40
1.0
 40
1.0
 40
2.0
 40
2.0
 40
2.0
 40
3.0
 40
3.0
 40
3.0
 40
4.0
 40
4.0
 40
4.0
 40
5.0
 40
5.0
 40
5.0
 40
6.0
 40
6.0
 40
6.0
 40
7.0
 40
7.0
 40
7.0
 40
8.0
 40
8.0
 40
8.0
 40
9.0
 40
9.0
 40
9.0
 40
10.0
 40
10.0
 40
10.0
 40
11.0
 40
11.0
 40
11.0
 40
12.0
 40
12.0
 40
12.0
 40
13.0
 40
13.0
 40
13.0
 40
14.0
 40
14.0
 40
14.0
 40
15.0
 40
15.0
 40
15.0
 40
16.0
 40
16.0
 40
16.0
 40
17.0
 40
17.0
 40
17.0
 40
18.0
 40
18.0
 40
18.0
 40
19.0
 40
19.0
 40
19.0
 40
20.0
 40
20.0
 40
20.0
 40
20.0
 10
838.9257810402686
 20
607.9433592230141
 10
838.9257810402686
 20
607.9433592230141
 10
839.0781247902305
 20
607.0117185982471
 10
839.0781247902305
 20
607.0117185982471
 10
838.7812497903046
 20
606.9492185982626
 10
838.515624790371
 20
606.9179685982705
 10
838.2812497904297
 20
606.9179685982705
 10
837.8984372905254
 20
606.9179685982705
 10
837.6015622905996
 20
606.9785154732554
 10
837.3906247906523
 20
607.0996092232251
 10
837.179687290705
 20
607.2207029731948
 10
837.0312497907422
 20
607.379882660655
 10
836.9453122907637
 20
607.5771482856057
 10
836.8593747907852
 20
607.7744139105564
 10
836.8164060407959
 20
608.1894529729526
 10
836.8164060407959
 20
608.8222654727945
 10
836.8164060407959
 20
608.8222654727945
 10
836.8164060407959
 20
612.4023435968994
 10
836.8164060407959
 20
612.4023435968994
 10
836.8164060407959
 20
612.4023435968994
 10
836.0429685409892
 20
612.4023435968994
 10
836.0429685409892
 20
612.4023435968994
 10
836.0429685409892
 20
612.4023435968994
 10
836.0429685409892
 20
613.2226560966943
 10
836.0429685409892
 20
613.2226560966943
 10
836.0429685409892
 20
613.2226560966943
 10
836.8164060407959
 20
613.2226560966943
 10
836.8164060407959
 20
613.2226560966943
 10
836.8164060407959
 20
613.2226560966943
 10
836.8164060407959
 20
614.763671721309
 10
836.8164060407959
 20
614.763671721309
 10
836.8164060407959
 20
614.763671721309
 10
837.8652341655337
 20
615.3964842211509
 10
837.8652341655337
 20
615.3964842211509
 10
837.8652341655337
 20
615.3964842211509
 10
837.8652341655337
 20
613.2226560966943
 10
837.8652341655337
 20
613.2226560966943
 10
837.8652341655337
 20
613.2226560966943
 10
838.9257810402686
 20
613.2226560966943
 10
838.9257810402686
 20
613.2226560966943
 10
838.9257810402686
 20
613.2226560966943
 10
838.9257810402686
 20
612.4023435968994
 10
838.9257810402686
 20
612.4023435968994
 10
838.9257810402686
 20
612.4023435968994
 10
837.8652341655337
 20
612.4023435968994
 10
837.8652341655337
 20
612.4023435968994
 10
837.8652341655337
 20
612.4023435968994
 10
837.8652341655337
 20
608.763671722809
 10
837.8652341655337
 20
608.763671722809
 10
837.8652341655337
 20
608.4628904728843
 10
837.883788853029
 20
608.2695310979326
 10
837.9208982280197
 20
608.1835935979541
 10
837.9580076030105
 20
608.0976560979756
 10
838.0185544779954
 20
608.0292967229926
 10
838.1025388529744
 20
607.9785154730054
 10
838.1865232279533
 20
607.9277342230181
 10
838.3066404154233
 20
607.9023435980243
 10
838.4628904153842
 20
607.9023435980243
 10
838.580077915355
 20
607.9023435980243
 10
838.7343747903163
 20
607.9160154730209
 10
838.9257810402686
 20
607.9433592230141
 97
        0
 97
        0
 75
     2
 76
     1
 98
        0
  0
SPLINE
  5
81
330
6D
100
AcDbEntity
  8
0
 62
   240
420
 15539236
370
    35
100
AcDbSpline
210
0.0
220
0.0
230
1.0
 70
    11
 71
     3
 72
    44
 73
    40
 74
     0
 42
0.0000000001
 43
0.0000000001
 12
1.0
 22
0.0
 32
0.0
 13
1.0
 23
0.0
 33
0.0
 40
0.0
 40
0.0
 40
0.0
 40
0.0
 40
1.0
 40
1.0
 40
1.0
 40
2.0
 40
2.0
 40
2.0
 40
3.0
 40
3.0
 40
3.0
 40
4.0
 40
4.0
 40
4.0
 40
5.0
 40
5.0
 40
5.0
 40
6.0
 40
6.0
 40
6.0
 40
7.0
 40
7.0
 40
7.0
 40
8.0
 40
8.0
 40
8.0
 40
9.0
 40
9.0
 40
9.0
 40
10.0
 40
10.0
 40
10.0
 40
11.0
 40
11.0
 40
11.0
 40
12.0
 40
12.0
 40
12.0
 40
13.0
 40
13.0
 40
13.0
 40
13.0
 10
839.9453122900137
 20
606.99999984825
 30
0.0
 10
839.9453122900137
 20
606.99999984825
 30
0.0
 10
839.9453122900137
 20
613.2226560966943
 30
0.0
 10
839.9453122900137
 20
613.2226560966943
 30
0.0
 10
839.9453122900137
 20
613.2226560966943
 30
0.0
 10
840.8945310397763
 20
613.2226560966943
 30
0.0
 10
840.8945310397763
 20
613.2226560966943
 30
0.0
 10
840.8945310397763
 20
613.2226560966943
 30
0.0
 10
840.8945310397763
 20
612.2792967219301
 30
0.0
 10
840.8945310397763
 20
612.2792967219301
 30
0.0
 10
841.1367185397158
 20
612.7207029718198
 30
0.0
 10
841.3603513521599
 20
613.0117185967471
 30
0.0
 10
841.5654294771086
 20
613.152343596712
 30
0.0
 10
841.7705076020574
 20
613.2929685966767
 30
0.0
 10
841.996093539501
 20
613.3632810966592
 30
0.0
 10
842.2421872894395
 20
613.3632810966592
 30
0.0
 10
842.5976560393506
 20
613.3632810966592
 30
0.0
 10
842.9589841642602
 20
613.2499998466875
 30
0.0
 10
843.3261716641684
 20
613.0234373467441
 30
0.0
 10
843.3261716641684
 20
613.0234373467441
 30
0.0
 10
842.9628904142593
 20
612.0449217219888
 30
0.0
 10
842.9628904142593
 20
612.0449217219888
 30
0.0
 10
842.7050779143237
 20
612.1972654719507
 30
0.0
 10
842.4472654143882
 20
612.2734373469316
 30
0.0
 10
842.1894529144527
 20
612.2734373469316
 30
0.0
 10
841.9589841645102
 20
612.2734373469316
 30
0.0
 10
841.751952914562
 20
612.204101409449
 30
0.0
 10
841.5683591646078
 20
612.0654295344837
 30
0.0
 10
841.3847654146538
 20
611.9267576595183
 30
0.0
 10
841.2539060396865
 20
611.7343748470664
 30
0.0
 10
841.1757810397061
 20
611.4882810971279
 30
0.0
 10
841.0585935397353
 20
611.1132810972217
 30
0.0
 10
840.99999978975
 20
610.7031248473243
 30
0.0
 10
840.99999978975
 20
610.2578123474356
 30
0.0
 10
840.99999978975
 20
610.2578123474356
 30
0.0
 10
840.99999978975
 20
606.99999984825
 30
0.0
 10
840.99999978975
 20
606.99999984825
 30
0.0
 10
840.99999978975
 20
606.99999984825
 30
0.0
 10
839.9453122900137
 20
606.99999984825
 30
0.0
 10
839.9453122900137
 20
606.99999984825
 30
0.0
  0
HATCH
  5
82
330
6D
100
AcDbEntity
  8
0
 62
   240
420
 15539236
100
AcDbHatch
 10
0.0
 20
0.0
 30
0.0
210
0.0
220
0.0
230
1.0
  2
SOLID
 70
     1
 71
     0
 91
        1
 92
        1
 93
        1
 72
     4
 94
        3
 73
     0
 74
     1
 95
       44
 96
       40
 40
0.0
 40
0.0
 40
0.0
 40
0.0
 40
1.0
 40
1.0
 40
1.0
 40
2.0
 40
2.0
 40
2.0
 40
3.0
 40
3.0
 40
3.0
 40
4.0
 40
4.0
 40
4.0
 40
5.0
 40
5.0
 40
5.0
 40
6.0
 40
6.0
 40
6.0
 40
7.0
 40
7.0
 40
7.0
 40
8.0
 40
8.0
 40
8.0
 40
9.0
 40
9.0
 40
9.0
 40
10.0
 40
10.0
 40
10.0
 40
11.0
 40
11.0
 40
11.0
 40
12.0
 40
12.0
 40
12.0
 40
13.0
 40
13.0
 40
13.0
 40
13.0
 10
839.9453122900137
 20
606.99999984825
 10
839.9453122900137
 20
606.99999984825
 10
839.9453122900137
 20
613.2226560966943
 10
839.9453122900137
 20
613.2226560966943
 10
839.9453122900137
 20
613.2226560966943
 10
840.8945310397763
 20
613.2226560966943
 10
840.8945310397763
 20
613.2226560966943
 10
840.8945310397763
 20
613.2226560966943
 10
840.8945310397763
 20
612.2792967219301
 10
840.8945310397763
 20
612.2792967219301
 10
841.1367185397158
 20
612.7207029718198
 10
841.3603513521599
 20
613.0117185967471
 10
841.5654294771086
 20
613.152343596712
 10
841.7705076020574
 20
613.2929685966767
 10
841.996093539501
 20
613.3632810966592
 10
842.2421872894395
 20
613.3632810966592
 10
842.5976560393506
 20
613.3632810966592
 10
842.9589841642602
 20
613.2499998466875
 10
843.3261716641684
 20
613.0234373467441
 10
843.3261716641684
 20
613.0234373467441
 10
842.9628904142593
 20
612.0449217219888
 10
842.9628904142593
 20
612.0449217219888
 10
842.7050779143237
 20
612.1972654719507
 10
842.4472654143882
 20
612.2734373469316
 10
842.1894529144527
 20
612.2734373469316
 10
841.9589841645102
 20
612.2734373469316
 10
841.751952914562
 20
612.204101409449
 10
841.5683591646078
 20
612.0654295344837
 10
841.3847654146538
 20
611.9267576595183
 10
841.2539060396865
 20
611.7343748470664
 10
841.1757810397061
 20
611.4882810971279
 10
841.0585935397353
 20
611.1132810972217
 10
840.99999978975
 20
610.7031248473243
 10
840.99999978975
 20
610.2578123474356
 10
840.99999978975
 20
610.2578123474356
 10
840.99999978975
 20
606.99999984825
 10
840.99999978975
 20
606.99999984825
 10
840.99999978975
 20
606.99999984825
 10
839.9453122900137
 20
606.99999984825
 10
839.9453122900137
 20
606.99999984825
 97
        0
 97
        0
 75
     2
 76
     1
 98
        0
  0
SPLINE
  5
83
330
6D
100
AcDbEntity
  8
0
 62
   240
420
 15539236
370
    35
100
AcDbSpline
210
0.0
220
0.0
230
1.0
 70
    11
 71
     3
 72
    86
 73
    82
 74
     0
 42
0.0000000001
 43
0.0000000001
 12
1.0
 22
0.0
 32
0.0
 13
1.0
 23
0.0
 33
0.0
 40
0.0
 40
0.0
 40
0.0
 40
0.0
 40
1.0
 40
1.0
 40
1.0
 40
2.0
 40
2.0
 40
2.0
 40
3.0
 40
3.0
 40
3.0
 40
4.0
 40
4.0
 40
4.0
 40
5.0
 40
5.0
 40
5.0
 40
6.0
 40
6.0
 40
6.0
 40
7.0
 40
7.0
 40
7.0
 40
8.0
 40
8.0
 40
8.0
 40
9.0
 40
9.0
 40
9.0
 40
10.0
 40
10.0
 40
10.0
 40
11.0
 40
11.0
 40
11.0
 40
12.0
 40
12.0
 40
12.0
 40
13.0
 40
13.0
 40
13.0
 40
14.0
 40
14.0
 40
14.0
 40
15.0
 40
15.0
 40
15.0
 40
16.0
 40
16.0
 40
16.0
 40
17.0
 40
17.0
 40
17.0
 40
18.0
 40
18.0
 40
18.0
 40
19.0
 40
19.0
 40
19.0
 40
20.0
 40
20.0
 40
20.0
 40
21.0
 40
21.0
 40
21.0
 40
22.0
 40
22.0
 40
22.0
 40
23.0
 40
23.0
 40
23.0
 40
24.0
 40
24.0
 40
24.0
 40
25.0
 40
25.0
 40
25.0
 40
26.0
 40
26.0
 40
26.0
 40
27.0
 40
27.0
 40
27.0
 40
27.0
 10
848.0136716629966
 20
607.7675779730581
 30
0.0
 10
847.6230466630942
 20
607.4355467231411
 30
0.0
 10
847.2470701006882
 20
607.2011717231996
 30
0.0
 10
846.8857419757785
 20
607.0644529732339
 30
0.0
 10
846.5244138508689
 20
606.9277342232681
 30
0.0
 10
846.1367185384659
 20
606.8593748482851
 30
0.0
 10
845.7226560385693
 20
606.8593748482851
 30
0.0
 10
845.0390622887402
 20
606.8593748482851
 30
0.0
 10
844.5136716638716
 20
607.0263670357434
 30
0.0
 10
844.1464841639634
 20
607.3603514106599
 30
0.0
 10
843.7792966640552
 20
607.6943357855764
 30
0.0
 10
843.595702914101
 20
608.1210935979697
 30
0.0
 10
843.595702914101
 20
608.6406248478398
 30
0.0
 10
843.595702914101
 20
608.9453123477637
 30
0.0
 10
843.6650388515837
 20
609.2236326601941
 30
0.0
 10
843.8037107265491
 20
609.4755857851311
 30
0.0
 10
843.9423826015144
 20
609.7275389100681
 30
0.0
 10
844.1240232264689
 20
609.9296873475175
 30
0.0
 10
844.3486326014129
 20
610.0820310974794
 30
0.0
 10
844.5732419763567
 20
610.2343748474414
 30
0.0
 10
844.8261716637934
 20
610.3496092224126
 30
0.0
 10
845.1074216637231
 20
610.427734222393
 30
0.0
 10
845.3144529136714
 20
610.4824217223794
 30
0.0
 10
845.6269529135933
 20
610.5351560973662
 30
0.0
 10
846.0449216634887
 20
610.5859373473535
 30
0.0
 10
846.8964841632759
 20
610.6874998473281
 30
0.0
 10
847.5234372881191
 20
610.8085935972979
 30
0.0
 10
847.9257810380185
 20
610.9492185972626
 30
0.0
 10
847.9296872880176
 20
611.0937498472266
 30
0.0
 10
847.931640413017
 20
611.1855467222036
 30
0.0
 10
847.931640413017
 20
611.2246092221939
 30
0.0
 10
847.931640413017
 20
611.6542967220864
 30
0.0
 10
847.8320310380419
 20
611.9570310970107
 30
0.0
 10
847.6328122880918
 20
612.1328123469668
 30
0.0
 10
847.3632810381591
 20
612.3710935969073
 30
0.0
 10
846.9628904132593
 20
612.4902342218775
 30
0.0
 10
846.4316404133921
 20
612.4902342218775
 30
0.0
 10
845.9355466635161
 20
612.4902342218775
 30
0.0
 10
845.5693357261076
 20
612.4033201593992
 30
0.0
 10
845.3330076011667
 20
612.2294920344426
 30
0.0
 10
845.0966794762259
 20
612.055663909486
 30
0.0
 10
844.9218747887695
 20
611.748046722063
 30
0.0
 10
844.8085935387978
 20
611.3066404721733
 30
0.0
 10
844.8085935387978
 20
611.3066404721733
 30
0.0
 10
843.7773435390557
 20
611.4472654721382
 30
0.0
 10
843.7773435390557
 20
611.4472654721382
 30
0.0
 10
843.8710935390322
 20
611.8886717220278
 30
0.0
 10
844.0253904139936
 20
612.2451170344387
 30
0.0
 10
844.2402341639399
 20
612.5166014093709
 30
0.0
 10
844.4550779138862
 20
612.788085784303
 30
0.0
 10
844.7656247888086
 20
612.9970701592507
 30
0.0
 10
845.171874788707
 20
613.1435545342141
 30
0.0
 10
845.5781247886055
 20
613.2900389091775
 30
0.0
 10
846.0488279134878
 20
613.3632810966592
 30
0.0
 10
846.583984163354
 20
613.3632810966592
 30
0.0
 10
847.1152341632212
 20
613.3632810966592
 30
0.0
 10
847.5468747881133
 20
613.3007810966748
 30
0.0
 10
847.8789060380302
 20
613.175781096706
 30
0.0
 10
848.2109372879472
 20
613.0507810967373
 30
0.0
 10
848.4550779128862
 20
612.8935545342766
 30
0.0
 10
848.6113279128472
 20
612.7041014093239
 30
0.0
 10
848.7675779128081
 20
612.5146482843713
 30
0.0
 10
848.8769529127808
 20
612.2753904719311
 30
0.0
 10
848.9394529127651
 20
611.9863279720034
 30
0.0
 10
848.9746091627563
 20
611.8066404720483
 30
0.0
 10
848.9921872877519
 20
611.4824217221294
 30
0.0
 10
848.9921872877519
 20
611.0136717222466
 30
0.0
 10
848.9921872877519
 20
611.0136717222466
 30
0.0
 10
848.9921872877519
 20
609.6074217225981
 30
0.0
 10
848.9921872877519
 20
609.6074217225981
 30
0.0
 10
848.9921872877519
 20
608.6269529728432
 30
0.0
 10
849.0146482252463
 20
608.0068357854983
 30
0.0
 10
849.0595701002351
 20
607.7470701605632
 30
0.0
 10
849.1044919752238
 20
607.4873045356281
 30
0.0
 10
849.1933591627017
 20
607.2382810981904
 30
0.0
 10
849.3261716626685
 20
606.99999984825
 30
0.0
 10
849.3261716626685
 20
606.99999984825
 30
0.0
 10
848.2246091629438
 20
606.99999984825
 30
0.0
 10
848.2246091629438
 20
606.99999984825
 30
0.0
 10
848.1152341629712
 20
607.2187498481953
 30
0.0
 10
848.0449216629887
 20
607.4746092231313
 30
0.0
 10
848.0136716629966
 20
607.7675779730581
 30
0.0
  0
SPLINE
  5
84
330
6D
100
AcDbEntity
  8
0
 62
   240
420
 15539236
370
    35
100
AcDbSpline
210
0.0
220
0.0
230
1.0
 70
    11
 71
     3
 72
    35
 73
    31
 74
     0
 42
0.0000000001
 43
0.0000000001
 12
1.0
 22
0.0
 32
0.0
 13
1.0
 23
0.0
 33
0.0
 40
0.0
 40
0.0
 40
0.0
 40
0.0
 40
1.0
 40
1.0
 40
1.0
 40
2.0
 40
2.0
 40
2.0
 40
3.0
 40
3.0
 40
3.0
 40
4.0
 40
4.0
 40
4.0
 40
5.0
 40
5.0
 40
5.0
 40
6.0
 40
6.0
 40
6.0
 40
7.0
 40
7.0
 40
7.0
 40
8.0
 40
8.0
 40
8.0
 40
9.0
 40
9.0
 40
9.0
 40
10.0
 40
10.0
 40
10.0
 40
10.0
 10
847.9257810380185
 20
610.1230467224692
 30
0.0
 10
847.5429685381142
 20
609.9667967225083
 30
0.0
 10
846.9687497882578
 20
609.8339842225415
 30
0.0
 10
846.2031247884491
 20
609.7246092225688
 30
0.0
 10
845.7695310385576
 20
609.6621092225845
 30
0.0
 10
845.4628904136342
 20
609.591796722602
 30
0.0
 10
845.2832029136791
 20
609.5136717226216
 30
0.0
 10
845.1035154137242
 20
609.4355467226411
 30
0.0
 10
844.9648435387588
 20
609.3212889101696
 30
0.0
 10
844.8671872887832
 20
609.1708982852073
 30
0.0
 10
844.7695310388076
 20
609.0205076602449
 30
0.0
 10
844.7207029138198
 20
608.8535154727866
 30
0.0
 10
844.7207029138198
 20
608.6699217228326
 30
0.0
 10
844.7207029138198
 20
608.3886717229028
 30
0.0
 10
844.8271482262932
 20
608.1542967229614
 30
0.0
 10
845.04003885124
 20
607.9667967230083
 30
0.0
 10
845.2529294761868
 20
607.7792967230552
 30
0.0
 10
845.5644529136089
 20
607.6855467230786
 30
0.0
 10
845.9746091635063
 20
607.6855467230786
 30
0.0
 10
846.3808591634048
 20
607.6855467230786
 30
0.0
 10
846.7421872883144
 20
607.7744139105564
 30
0.0
 10
847.0585935382353
 20
607.952148285512
 30
0.0
 10
847.3749997881563
 20
608.1298826604675
 30
0.0
 10
847.6074216630981
 20
608.3730467229067
 30
0.0
 10
847.755859163061
 20
608.6816404728296
 30
0.0
 10
847.8691404130327
 20
608.91992172277
 30
0.0
 10
847.9257810380185
 20
609.2714842226821
 30
0.0
 10
847.9257810380185
 20
609.736327972566
 30
0.0
 10
847.9257810380185
 20
609.736327972566
 30
0.0
 10
847.9257810380185
 20
610.1230467224692
 30
0.0
 10
847.9257810380185
 20
610.1230467224692
 30
0.0
  0
HATCH
  5
85
330
6D
100
AcDbEntity
  8
0
 62
   240
420
 15539236
100
AcDbHatch
 10
0.0
 20
0.0
 30
0.0
210
0.0
220
0.0
230
1.0
  2
SOLID
 70
     1
 71
     0
 91
        2
 92
        1
 93
        1
 72
     4
 94
        3
 73
     0
 74
     1
 95
       86
 96
       82
 40
0.0
 40
0.0
 40
0.0
 40
0.0
 40
1.0
 40
1.0
 40
1.0
 40
2.0
 40
2.0
 40
2.0
 40
3.0
 40
3.0
 40
3.0
 40
4.0
 40
4.0
 40
4.0
 40
5.0
 40
5.0
 40
5.0
 40
6.0
 40
6.0
 40
6.0
 40
7.0
 40
7.0
 40
7.0
 40
8.0
 40
8.0
 40
8.0
 40
9.0
 40
9.0
 40
9.0
 40
10.0
 40
10.0
 40
10.0
 40
11.0
 40
11.0
 40
11.0
 40
12.0
 40
12.0
 40
12.0
 40
13.0
 40
13.0
 40
13.0
 40
14.0
 40
14.0
 40
14.0
 40
15.0
 40
15.0
 40
15.0
 40
16.0
 40
16.0
 40
16.0
 40
17.0
 40
17.0
 40
17.0
 40
18.0
 40
18.0
 40
18.0
 40
19.0
 40
19.0
 40
19.0
 40
20.0
 40
20.0
 40
20.0
 40
21.0
 40
21.0
 40
21.0
 40
22.0
 40
22.0
 40
22.0
 40
23.0
 40
23.0
 40
23.0
 40
24.0
 40
24.0
 40
24.0
 40
25.0
 40
25.0
 40
25.0
 40
26.0
 40
26.0
 40
26.0
 40
27.0
 40
27.0
 40
27.0
 40
27.0
 10
848.0136716629966
 20
607.7675779730581
 10
847.6230466630942
 20
607.4355467231411
 10
847.2470701006882
 20
607.2011717231996
 10
846.8857419757785
 20
607.0644529732339
 10
846.5244138508689
 20
606.9277342232681
 10
846.1367185384659
 20
606.8593748482851
 10
845.7226560385693
 20
606.8593748482851
 10
845.0390622887402
 20
606.8593748482851
 10
844.5136716638716
 20
607.0263670357434
 10
844.1464841639634
 20
607.3603514106599
 10
843.7792966640552
 20
607.6943357855764
 10
843.595702914101
 20
608.1210935979697
 10
843.595702914101
 20
608.6406248478398
 10
843.595702914101
 20
608.9453123477637
 10
843.6650388515837
 20
609.2236326601941
 10
843.8037107265491
 20
609.4755857851311
 10
843.9423826015144
 20
609.7275389100681
 10
844.1240232264689
 20
609.9296873475175
 10
844.3486326014129
 20
610.0820310974794
 10
844.5732419763567
 20
610.2343748474414
 10
844.8261716637934
 20
610.3496092224126
 10
845.1074216637231
 20
610.427734222393
 10
845.3144529136714
 20
610.4824217223794
 10
845.6269529135933
 20
610.5351560973662
 10
846.0449216634887
 20
610.5859373473535
 10
846.8964841632759
 20
610.6874998473281
 10
847.5234372881191
 20
610.8085935972979
 10
847.9257810380185
 20
610.9492185972626
 10
847.9296872880176
 20
611.0937498472266
 10
847.931640413017
 20
611.1855467222036
 10
847.931640413017
 20
611.2246092221939
 10
847.931640413017
 20
611.6542967220864
 10
847.8320310380419
 20
611.9570310970107
 10
847.6328122880918
 20
612.1328123469668
 10
847.3632810381591
 20
612.3710935969073
 10
846.9628904132593
 20
612.4902342218775
 10
846.4316404133921
 20
612.4902342218775
 10
845.9355466635161
 20
612.4902342218775
 10
845.5693357261076
 20
612.4033201593992
 10
845.3330076011667
 20
612.2294920344426
 10
845.0966794762259
 20
612.055663909486
 10
844.9218747887695
 20
611.748046722063
 10
844.8085935387978
 20
611.3066404721733
 10
844.8085935387978
 20
611.3066404721733
 10
843.7773435390557
 20
611.4472654721382
 10
843.7773435390557
 20
611.4472654721382
 10
843.8710935390322
 20
611.8886717220278
 10
844.0253904139936
 20
612.2451170344387
 10
844.2402341639399
 20
612.5166014093709
 10
844.4550779138862
 20
612.788085784303
 10
844.7656247888086
 20
612.9970701592507
 10
845.171874788707
 20
613.1435545342141
 10
845.5781247886055
 20
613.2900389091775
 10
846.0488279134878
 20
613.3632810966592
 10
846.583984163354
 20
613.3632810966592
 10
847.1152341632212
 20
613.3632810966592
 10
847.5468747881133
 20
613.3007810966748
 10
847.8789060380302
 20
613.175781096706
 10
848.2109372879472
 20
613.0507810967373
 10
848.4550779128862
 20
612.8935545342766
 10
848.6113279128472
 20
612.7041014093239
 10
848.7675779128081
 20
612.5146482843713
 10
848.8769529127808
 20
612.2753904719311
 10
848.9394529127651
 20
611.9863279720034
 10
848.9746091627563
 20
611.8066404720483
 10
848.9921872877519
 20
611.4824217221294
 10
848.9921872877519
 20
611.0136717222466
 10
848.9921872877519
 20
611.0136717222466
 10
848.9921872877519
 20
609.6074217225981
 10
848.9921872877519
 20
609.6074217225981
 10
848.9921872877519
 20
608.6269529728432
 10
849.0146482252463
 20
608.0068357854983
 10
849.0595701002351
 20
607.7470701605632
 10
849.1044919752238
 20
607.4873045356281
 10
849.1933591627017
 20
607.2382810981904
 10
849.3261716626685
 20
606.99999984825
 10
849.3261716626685
 20
606.99999984825
 10
848.2246091629438
 20
606.99999984825
 10
848.2246091629438
 20
606.99999984825
 10
848.1152341629712
 20
607.2187498481953
 10
848.0449216629887
 20
607.4746092231313
 10
848.0136716629966
 20
607.7675779730581
 97
        0
 97
        0
 92
        1
 93
        1
 72
     4
 94
        3
 73
     0
 74
     1
 95
       35
 96
       31
 40
0.0
 40
0.0
 40
0.0
 40
0.0
 40
1.0
 40
1.0
 40
1.0
 40
2.0
 40
2.0
 40
2.0
 40
3.0
 40
3.0
 40
3.0
 40
4.0
 40
4.0
 40
4.0
 40
5.0
 40
5.0
 40
5.0
 40
6.0
 40
6.0
 40
6.0
 40
7.0
 40
7.0
 40
7.0
 40
8.0
 40
8.0
 40
8.0
 40
9.0
 40
9.0
 40
9.0
 40
10.0
 40
10.0
 40
10.0
 40
10.0
 10
847.9257810380185
 20
610.1230467224692
 10
847.5429685381142
 20
609.9667967225083
 10
846.9687497882578
 20
609.8339842225415
 10
846.2031247884491
 20
609.7246092225688
 10
845.7695310385576
 20
609.6621092225845
 10
845.4628904136342
 20
609.591796722602
 10
845.2832029136791
 20
609.5136717226216
 10
845.1035154137242
 20
609.4355467226411
 10
844.9648435387588
 20
609.3212889101696
 10
844.8671872887832
 20
609.1708982852073
 10
844.7695310388076
 20
609.0205076602449
 10
844.7207029138198
 20
608.8535154727866
 10
844.7207029138198
 20
608.6699217228326
 10
844.7207029138198
 20
608.3886717229028
 10
844.8271482262932
 20
608.1542967229614
 10
845.04003885124
 20
607.9667967230083
 10
845.2529294761868
 20
607.7792967230552
 10
845.5644529136089
 20
607.6855467230786
 10
845.9746091635063
 20
607.6855467230786
 10
846.3808591634048
 20
607.6855467230786
 10
846.7421872883144
 20
607.7744139105564
 10
847.0585935382353
 20
607.952148285512
 10
847.3749997881563
 20
608.1298826604675
 10
847.6074216630981
 20
608.3730467229067
 10
847.755859163061
 20
608.6816404728296
 10
847.8691404130327
 20
608.91992172277
 10
847.9257810380185
 20
609.2714842226821
 10
847.9257810380185
 20
609.736327972566
 10
847.9257810380185
 20
609.736327972566
 10
847.9257810380185
 20
610.1230467224692
 10
847.9257810380185
 20
610.1230467224692
 97
        0
 97
        0
 75
     2
 76
     1
 98
        0
  0
POLYLINE
  5
86
330
6D
100
AcDbEntity
  8
0
 62
   240
420
 15539236
370
    35
100
AcDb2dPolyline
 66
     1
 10
0.0
 20
0.0
 30
0.0
  0
VERTEX
  5
87
330
86
100
AcDbEntity
  8
0
 62
   240
420
 15539236
370
    35
100
AcDbVertex
100
AcDb2dVertex
 10
850.6328122873418
 20
614.3769529714058
 30
0.0
  0
VERTEX
  5
88
330
86
100
AcDbEntity
  8
0
 62
   240
420
 15539236
370
    35
100
AcDbVertex
100
AcDb2dVertex
 10
850.6328122873418
 20
615.5898435961026
 30
0.0
  0
VERTEX
  5
89
330
86
100
AcDbEntity
  8
0
 62
   240
420
 15539236
370
    35
100
AcDbVertex
100
AcDb2dVertex
 10
851.6874997870781
 20
615.5898435961026
 30
0.0
  0
VERTEX
  5
8A
330
86
100
AcDbEntity
  8
0
 62
   240
420
 15539236
370
    35
100
AcDbVertex
100
AcDb2dVertex
 10
851.6874997870781
 20
614.3769529714058
 30
0.0
  0
VERTEX
  5
8B
330
86
100
AcDbEntity
  8
0
 62
   240
420
 15539236
370
    35
100
AcDbVertex
100
AcDb2dVertex
 10
850.6328122873418
 20
614.3769529714058
 30
0.0
  0
SEQEND
  5
8C
330
86
100
AcDbEntity
  8
0
 62
   240
420
 15539236
370
    35
  0
POLYLINE
  5
8D
330
6D
100
AcDbEntity
  8
0
 62
   240
420
 15539236
370
    35
100
AcDb2dPolyline
 66
     1
 10
0.0
 20
0.0
 30
0.0
  0
VERTEX
  5
8E
330
8D
100
AcDbEntity
  8
0
 62
   240
420
 15539236
370
    35
100
AcDbVertex
100
AcDb2dVertex
 10
850.6328122873418
 20
606.99999984825
 30
0.0
  0
VERTEX
  5
8F
330
8D
100
AcDbEntity
  8
0
 62
   240
420
 15539236
370
    35
100
AcDbVertex
100
AcDb2dVertex
 10
850.6328122873418
 20
613.2226560966943
 30
0.0
  0
VERTEX
  5
90
330
8D
100
AcDbEntity
  8
0
 62
   240
420
 15539236
370
    35
100
AcDbVertex
100
AcDb2dVertex
 10
851.6874997870781
 20
613.2226560966943
 30
0.0
  0
VERTEX
  5
91
330
8D
100
AcDbEntity
  8
0
 62
   240
420
 15539236
370
    35
100
AcDbVertex
100
AcDb2dVertex
 10
851.6874997870781
 20
606.99999984825
 30
0.0
  0
VERTEX
  5
92
330
8D
100
AcDbEntity
  8
0
 62
   240
420
 15539236
370
    35
100
AcDbVertex
100
AcDb2dVertex
 10
850.6328122873418
 20
606.99999984825
 30
0.0
  0
SEQEND
  5
93
330
8D
100
AcDbEntity
  8
0
 62
   240
420
 15539236
370
    35
  0
HATCH
  5
94
330
6D
100
AcDbEntity
  8
0
 62
   240
420
 15539236
100
AcDbHatch
 10
0.0
 20
0.0
 30
0.0
210
0.0
220
0.0
230
1.0
  2
SOLID
 70
     1
 71
     0
 91
        2
 92
        1
 93
        4
 72
     1
 10
850.6328122873418
 20
614.3769529714058
 11
850.6328122873418
 21
615.5898435961026
 72
     1
 10
850.6328122873418
 20
615.5898435961026
 11
851.6874997870781
 21
615.5898435961026
 72
     1
 10
851.6874997870781
 20
615.5898435961026
 11
851.6874997870781
 21
614.3769529714058
 72
     1
 10
851.6874997870781
 20
614.3769529714058
 11
850.6328122873418
 21
614.3769529714058
 97
        0
 92
        1
 93
        4
 72
     1
 10
850.6328122873418
 20
606.99999984825
 11
850.6328122873418
 21
613.2226560966943
 72
     1
 10
850.6328122873418
 20
613.2226560966943
 11
851.6874997870781
 21
613.2226560966943
 72
     1
 10
851.6874997870781
 20
613.2226560966943
 11
851.6874997870781
 21
606.99999984825
 72
     1
 10
851.6874997870781
 20
606.99999984825
 11
850.6328122873418
 21
606.99999984825
 97
        0
 75
     2
 76
     1
 98
        0
  0
SPLINE
  5
95
330
6D
100
AcDbEntity
  8
0
 62
   240
420
 15539236
370
    35
100
AcDbSpline
210
0.0
220
0.0
230
1.0
 70
    11
 71
     3
 72
    68
 73
    64
 74
     0
 42
0.0000000001
 43
0.0000000001
 12
1.0
 22
0.0
 32
0.0
 13
1.0
 23
0.0
 33
0.0
 40
0.0
 40
0.0
 40
0.0
 40
0.0
 40
1.0
 40
1.0
 40
1.0
 40
2.0
 40
2.0
 40
2.0
 40
3.0
 40
3.0
 40
3.0
 40
4.0
 40
4.0
 40
4.0
 40
5.0
 40
5.0
 40
5.0
 40
6.0
 40
6.0
 40
6.0
 40
7.0
 40
7.0
 40
7.0
 40
8.0
 40
8.0
 40
8.0
 40
9.0
 40
9.0
 40
9.0
 40
10.0
 40
10.0
 40
10.0
 40
11.0
 40
11.0
 40
11.0
 40
12.0
 40
12.0
 40
12.0
 40
13.0
 40
13.0
 40
13.0
 40
14.0
 40
14.0
 40
14.0
 40
15.0
 40
15.0
 40
15.0
 40
16.0
 40
16.0
 40
16.0
 40
17.0
 40
17.0
 40
17.0
 40
18.0
 40
18.0
 40
18.0
 40
19.0
 40
19.0
 40
19.0
 40
20.0
 40
20.0
 40
20.0
 40
21.0
 40
21.0
 40
21.0
 40
21.0
 10
853.0996091617251
 20
606.4843748483789
 30
0.0
 10
853.0996091617251
 20
606.4843748483789
 30
0.0
 10
854.1249997864687
 20
606.332031098417
 30
0.0
 10
854.1249997864687
 20
606.332031098417
 30
0.0
 10
854.167968536458
 20
606.015624848496
 30
0.0
 10
854.2871091614282
 20
605.7851560985537
 30
0.0
 10
854.4824216613794
 20
605.6406248485898
 30
0.0
 10
854.744140411314
 20
605.4453123486387
 30
0.0
 10
855.1015622862246
 20
605.347656098663
 30
0.0
 10
855.5546872861113
 20
605.347656098663
 30
0.0
 10
856.0429685359892
 20
605.347656098663
 30
0.0
 10
856.419921660895
 20
605.4453123486387
 30
0.0
 10
856.6855466608285
 20
605.6406248485898
 30
0.0
 10
856.9511716607622
 20
605.835937348541
 30
0.0
 10
857.1308591607173
 20
606.1093748484726
 30
0.0
 10
857.2246091606938
 20
606.4609373483847
 30
0.0
 10
857.2792966606802
 20
606.6757810983311
 30
0.0
 10
857.3046872856738
 20
607.1269529732183
 30
0.0
 10
857.3007810356747
 20
607.8144529730464
 30
0.0
 10
856.83984353579
 20
607.2714842231821
 30
0.0
 10
856.2656247859336
 20
606.99999984825
 30
0.0
 10
855.5781247861055
 20
606.99999984825
 30
0.0
 10
854.7226560363193
 20
606.99999984825
 30
0.0
 10
854.0605466614849
 20
607.3085935981728
 30
0.0
 10
853.5917966616021
 20
607.9257810980185
 30
0.0
 10
853.1230466617192
 20
608.5429685978643
 30
0.0
 10
852.8886716617778
 20
609.2832029726792
 30
0.0
 10
852.8886716617778
 20
610.1464842224634
 30
0.0
 10
852.8886716617778
 20
610.7402342223149
 30
0.0
 10
852.996093536751
 20
611.288085784678
 30
0.0
 10
853.2109372866972
 20
611.7900389095524
 30
0.0
 10
853.4257810366436
 20
612.291992034427
 30
0.0
 10
853.7373044740657
 20
612.6796873468301
 30
0.0
 10
854.1455075989636
 20
612.9531248467617
 30
0.0
 10
854.5537107238615
 20
613.2265623466933
 30
0.0
 10
855.0332029112417
 20
613.3632810966592
 30
0.0
 10
855.583984161104
 20
613.3632810966592
 30
0.0
 10
856.3183591609204
 20
613.3632810966592
 30
0.0
 10
856.923827910769
 20
613.0664060967334
 30
0.0
 10
857.4003904106498
 20
612.4726560968818
 30
0.0
 10
857.4003904106498
 20
612.4726560968818
 30
0.0
 10
857.4003904106498
 20
613.2226560966943
 30
0.0
 10
857.4003904106498
 20
613.2226560966943
 30
0.0
 10
857.4003904106498
 20
613.2226560966943
 30
0.0
 10
858.3730466604068
 20
613.2226560966943
 30
0.0
 10
858.3730466604068
 20
613.2226560966943
 30
0.0
 10
858.3730466604068
 20
613.2226560966943
 30
0.0
 10
858.3730466604068
 20
607.843749848039
 30
0.0
 10
858.3730466604068
 20
607.843749848039
 30
0.0
 10
858.3730466604068
 20
606.8749998482813
 30
0.0
 10
858.2744138479313
 20
606.1884764109528
 30
0.0
 10
858.0771482229807
 20
605.7841795360539
 30
0.0
 10
857.87988259803
 20
605.379882661155
 30
0.0
 10
857.5673825981081
 20
605.0605467237349
 30
0.0
 10
857.1396482232151
 20
604.8261717237934
 30
0.0
 10
856.711913848322
 20
604.591796723852
 30
0.0
 10
856.1855466609536
 20
604.4746092238813
 30
0.0
 10
855.5605466611098
 20
604.4746092238813
 30
0.0
 10
854.8183591612953
 20
604.4746092238813
 30
0.0
 10
854.2187497864453
 20
604.6416014113396
 30
0.0
 10
853.7617185365596
 20
604.9755857862561
 30
0.0
 10
853.3046872866738
 20
605.3095701611726
 30
0.0
 10
853.083984161729
 20
605.8124998485468
 30
0.0
 10
853.0996091617251
 20
606.4843748483789
 30
0.0
  0
SPLINE
  5
96
330
6D
100
AcDbEntity
  8
0
 62
   240
420
 15539236
370
    35
100
AcDbSpline
210
0.0
220
0.0
230
1.0
 70
    11
 71
     3
 72
    29
 73
    25
 74
     0
 42
0.0000000001
 43
0.0000000001
 12
1.0
 22
0.0
 32
0.0
 13
1.0
 23
0.0
 33
0.0
 40
0.0
 40
0.0
 40
0.0
 40
0.0
 40
1.0
 40
1.0
 40
1.0
 40
2.0
 40
2.0
 40
2.0
 40
3.0
 40
3.0
 40
3.0
 40
4.0
 40
4.0
 40
4.0
 40
5.0
 40
5.0
 40
5.0
 40
6.0
 40
6.0
 40
6.0
 40
7.0
 40
7.0
 40
7.0
 40
8.0
 40
8.0
 40
8.0
 40
8.0
 10
853.9726560365068
 20
610.2226560974443
 30
0.0
 10
853.9726560365068
 20
609.4062498476484
 30
0.0
 10
854.1347654114663
 20
608.8105467227973
 30
0.0
 10
854.4589841613853
 20
608.4355467228911
 30
0.0
 10
854.7832029113042
 20
608.0605467229849
 30
0.0
 10
855.1894529112026
 20
607.8730467230317
 30
0.0
 10
855.6777341610806
 20
607.8730467230317
 30
0.0
 10
856.1621091609594
 20
607.8730467230317
 30
0.0
 10
856.5683591608579
 20
608.0595701604851
 30
0.0
 10
856.8964841607759
 20
608.4326170353918
 30
0.0
 10
857.2246091606938
 20
608.8056639102986
 30
0.0
 10
857.3886716606528
 20
609.3906248476524
 30
0.0
 10
857.3886716606528
 20
610.1874998474531
 30
0.0
 10
857.3886716606528
 20
610.9492185972626
 30
0.0
 10
857.2197263481951
 20
611.5234373471192
 30
0.0
 10
856.8818357232796
 20
611.9101560970224
 30
0.0
 10
856.543945098364
 20
612.2968748469258
 30
0.0
 10
856.1367185359658
 20
612.4902342218775
 30
0.0
 10
855.6601560360849
 20
612.4902342218775
 30
0.0
 10
855.1914060362021
 20
612.4902342218775
 30
0.0
 10
854.7929685363017
 20
612.299804534425
 30
0.0
 10
854.4648435363838
 20
611.9189451595203
 30
0.0
 10
854.1367185364658
 20
611.5380857846154
 30
0.0
 10
853.9726560365068
 20
610.9726560972568
 30
0.0
 10
853.9726560365068
 20
610.2226560974443
 30
0.0
  0
HATCH
  5
97
330
6D
100
AcDbEntity
  8
0
 62
   240
420
 15539236
100
AcDbHatch
 10
0.0
 20
0.0
 30
0.0
210
0.0
220
0.0
230
1.0
  2
SOLID
 70
     1
 71
     0
 91
        2
 92
        1
 93
        1
 72
     4
 94
        3
 73
     0
 74
     1
 95
       68
 96
       64
 40
0.0
 40
0.0
 40
0.0
 40
0.0
 40
1.0
 40
1.0
 40
1.0
 40
2.0
 40
2.0
 40
2.0
 40
3.0
 40
3.0
 40
3.0
 40
4.0
 40
4.0
 40
4.0
 40
5.0
 40
5.0
 40
5.0
 40
6.0
 40
6.0
 40
6.0
 40
7.0
 40
7.0
 40
7.0
 40
8.0
 40
8.0
 40
8.0
 40
9.0
 40
9.0
 40
9.0
 40
10.0
 40
10.0
 40
10.0
 40
11.0
 40
11.0
 40
11.0
 40
12.0
 40
12.0
 40
12.0
 40
13.0
 40
13.0
 40
13.0
 40
14.0
 40
14.0
 40
14.0
 40
15.0
 40
15.0
 40
15.0
 40
16.0
 40
16.0
 40
16.0
 40
17.0
 40
17.0
 40
17.0
 40
18.0
 40
18.0
 40
18.0
 40
19.0
 40
19.0
 40
19.0
 40
20.0
 40
20.0
 40
20.0
 40
21.0
 40
21.0
 40
21.0
 40
21.0
 10
853.0996091617251
 20
606.4843748483789
 10
853.0996091617251
 20
606.4843748483789
 10
854.1249997864687
 20
606.332031098417
 10
854.1249997864687
 20
606.332031098417
 10
854.167968536458
 20
606.015624848496
 10
854.2871091614282
 20
605.7851560985537
 10
854.4824216613794
 20
605.6406248485898
 10
854.744140411314
 20
605.4453123486387
 10
855.1015622862246
 20
605.347656098663
 10
855.5546872861113
 20
605.347656098663
 10
856.0429685359892
 20
605.347656098663
 10
856.419921660895
 20
605.4453123486387
 10
856.6855466608285
 20
605.6406248485898
 10
856.9511716607622
 20
605.835937348541
 10
857.1308591607173
 20
606.1093748484726
 10
857.2246091606938
 20
606.4609373483847
 10
857.2792966606802
 20
606.6757810983311
 10
857.3046872856738
 20
607.1269529732183
 10
857.3007810356747
 20
607.8144529730464
 10
856.83984353579
 20
607.2714842231821
 10
856.2656247859336
 20
606.99999984825
 10
855.5781247861055
 20
606.99999984825
 10
854.7226560363193
 20
606.99999984825
 10
854.0605466614849
 20
607.3085935981728
 10
853.5917966616021
 20
607.9257810980185
 10
853.1230466617192
 20
608.5429685978643
 10
852.8886716617778
 20
609.2832029726792
 10
852.8886716617778
 20
610.1464842224634
 10
852.8886716617778
 20
610.7402342223149
 10
852.996093536751
 20
611.288085784678
 10
853.2109372866972
 20
611.7900389095524
 10
853.4257810366436
 20
612.291992034427
 10
853.7373044740657
 20
612.6796873468301
 10
854.1455075989636
 20
612.9531248467617
 10
854.5537107238615
 20
613.2265623466933
 10
855.0332029112417
 20
613.3632810966592
 10
855.583984161104
 20
613.3632810966592
 10
856.3183591609204
 20
613.3632810966592
 10
856.923827910769
 20
613.0664060967334
 10
857.4003904106498
 20
612.4726560968818
 10
857.4003904106498
 20
612.4726560968818
 10
857.4003904106498
 20
613.2226560966943
 10
857.4003904106498
 20
613.2226560966943
 10
857.4003904106498
 20
613.2226560966943
 10
858.3730466604068
 20
613.2226560966943
 10
858.3730466604068
 20
613.2226560966943
 10
858.3730466604068
 20
613.2226560966943
 10
858.3730466604068
 20
607.843749848039
 10
858.3730466604068
 20
607.843749848039
 10
858.3730466604068
 20
606.8749998482813
 10
858.2744138479313
 20
606.1884764109528
 10
858.0771482229807
 20
605.7841795360539
 10
857.87988259803
 20
605.379882661155
 10
857.5673825981081
 20
605.0605467237349
 10
857.1396482232151
 20
604.8261717237934
 10
856.711913848322
 20
604.591796723852
 10
856.1855466609536
 20
604.4746092238813
 10
855.5605466611098
 20
604.4746092238813
 10
854.8183591612953
 20
604.4746092238813
 10
854.2187497864453
 20
604.6416014113396
 10
853.7617185365596
 20
604.9755857862561
 10
853.3046872866738
 20
605.3095701611726
 10
853.083984161729
 20
605.8124998485468
 10
853.0996091617251
 20
606.4843748483789
 97
        0
 97
        0
 92
        1
 93
        1
 72
     4
 94
        3
 73
     0
 74
     1
 95
       29
 96
       25
 40
0.0
 40
0.0
 40
0.0
 40
0.0
 40
1.0
 40
1.0
 40
1.0
 40
2.0
 40
2.0
 40
2.0
 40
3.0
 40
3.0
 40
3.0
 40
4.0
 40
4.0
 40
4.0
 40
5.0
 40
5.0
 40
5.0
 40
6.0
 40
6.0
 40
6.0
 40
7.0
 40
7.0
 40
7.0
 40
8.0
 40
8.0
 40
8.0
 40
8.0
 10
853.9726560365068
 20
610.2226560974443
 10
853.9726560365068
 20
609.4062498476484
 10
854.1347654114663
 20
608.8105467227973
 10
854.4589841613853
 20
608.4355467228911
 10
854.7832029113042
 20
608.0605467229849
 10
855.1894529112026
 20
607.8730467230317
 10
855.6777341610806
 20
607.8730467230317
 10
856.1621091609594
 20
607.8730467230317
 10
856.5683591608579
 20
608.0595701604851
 10
856.8964841607759
 20
608.4326170353918
 10
857.2246091606938
 20
608.8056639102986
 10
857.3886716606528
 20
609.3906248476524
 10
857.3886716606528
 20
610.1874998474531
 10
857.3886716606528
 20
610.9492185972626
 10
857.2197263481951
 20
611.5234373471192
 10
856.8818357232796
 20
611.9101560970224
 10
856.543945098364
 20
612.2968748469258
 10
856.1367185359658
 20
612.4902342218775
 10
855.6601560360849
 20
612.4902342218775
 10
855.1914060362021
 20
612.4902342218775
 10
854.7929685363017
 20
612.299804534425
 10
854.4648435363838
 20
611.9189451595203
 10
854.1367185364658
 20
611.5380857846154
 10
853.9726560365068
 20
610.9726560972568
 10
853.9726560365068
 20
610.2226560974443
 97
        0
 97
        0
 75
     2
 76
     1
 98
        0
  0
SPLINE
  5
98
330
6D
100
AcDbEntity
  8
0
 62
   240
420
 15539236
370
    35
100
AcDbSpline
210
0.0
220
0.0
230
1.0
 70
    11
 71
     3
 72
    56
 73
    52
 74
     0
 42
0.0000000001
 43
0.0000000001
 12
1.0
 22
0.0
 32
0.0
 13
1.0
 23
0.0
 33
0.0
 40
0.0
 40
0.0
 40
0.0
 40
0.0
 40
1.0
 40
1.0
 40
1.0
 40
2.0
 40
2.0
 40
2.0
 40
3.0
 40
3.0
 40
3.0
 40
4.0
 40
4.0
 40
4.0
 40
5.0
 40
5.0
 40
5.0
 40
6.0
 40
6.0
 40
6.0
 40
7.0
 40
7.0
 40
7.0
 40
8.0
 40
8.0
 40
8.0
 40
9.0
 40
9.0
 40
9.0
 40
10.0
 40
10.0
 40
10.0
 40
11.0
 40
11.0
 40
11.0
 40
12.0
 40
12.0
 40
12.0
 40
13.0
 40
13.0
 40
13.0
 40
14.0
 40
14.0
 40
14.0
 40
15.0
 40
15.0
 40
15.0
 40
16.0
 40
16.0
 40
16.0
 40
17.0
 40
17.0
 40
17.0
 40
17.0
 10
859.9667966600083
 20
606.99999984825
 30
0.0
 10
859.9667966600083
 20
606.99999984825
 30
0.0
 10
859.9667966600083
 20
615.5898435961026
 30
0.0
 10
859.9667966600083
 20
615.5898435961026
 30
0.0
 10
859.9667966600083
 20
615.5898435961026
 30
0.0
 10
861.0214841597447
 20
615.5898435961026
 30
0.0
 10
861.0214841597447
 20
615.5898435961026
 30
0.0
 10
861.0214841597447
 20
615.5898435961026
 30
0.0
 10
861.0214841597447
 20
612.507812346873
 30
0.0
 10
861.0214841597447
 20
612.507812346873
 30
0.0
 10
861.5136716596215
 20
613.0781248467305
 30
0.0
 10
862.1347654094662
 20
613.3632810966592
 30
0.0
 10
862.8847654092788
 20
613.3632810966592
 30
0.0
 10
863.3457029091636
 20
613.3632810966592
 30
0.0
 10
863.7460935340634
 20
613.2724607841818
 30
0.0
 10
864.0859372839785
 20
613.0908201592273
 30
0.0
 10
864.4257810338935
 20
612.9091795342727
 30
0.0
 10
864.6689450963328
 20
612.6582029718354
 30
0.0
 10
864.8154294712962
 20
612.3378904719156
 30
0.0
 10
864.9619138462594
 20
612.0175779719956
 30
0.0
 10
865.0351560337411
 20
611.5527342221118
 30
0.0
 10
865.0351560337411
 20
610.9433592222641
 30
0.0
 10
865.0351560337411
 20
610.9433592222641
 30
0.0
 10
865.0351560337411
 20
606.99999984825
 30
0.0
 10
865.0351560337411
 20
606.99999984825
 30
0.0
 10
865.0351560337411
 20
606.99999984825
 30
0.0
 10
863.9804685340049
 20
606.99999984825
 30
0.0
 10
863.9804685340049
 20
606.99999984825
 30
0.0
 10
863.9804685340049
 20
606.99999984825
 30
0.0
 10
863.9804685340049
 20
610.9433592222641
 30
0.0
 10
863.9804685340049
 20
610.9433592222641
 30
0.0
 10
863.9804685340049
 20
611.4707029721324
 30
0.0
 10
863.8662107215334
 20
611.8544920345364
 30
0.0
 10
863.6376950965905
 20
612.0947264094763
 30
0.0
 10
863.4091794716477
 20
612.3349607844162
 30
0.0
 10
863.0859372842285
 20
612.4550779718862
 30
0.0
 10
862.667968534333
 20
612.4550779718862
 30
0.0
 10
862.3554685344111
 20
612.4550779718862
 30
0.0
 10
862.0615232219847
 20
612.3740232844065
 30
0.0
 10
861.7861325970534
 20
612.211913909447
 30
0.0
 10
861.5107419721223
 20
612.0498045344875
 30
0.0
 10
861.3144529096713
 20
611.8300779720424
 30
0.0
 10
861.1972654097007
 20
611.5527342221118
 30
0.0
 10
861.08007790973
 20
611.2753904721811
 30
0.0
 10
861.0214841597447
 20
610.8925779722769
 30
0.0
 10
861.0214841597447
 20
610.404296722399
 30
0.0
 10
861.0214841597447
 20
610.404296722399
 30
0.0
 10
861.0214841597447
 20
606.99999984825
 30
0.0
 10
861.0214841597447
 20
606.99999984825
 30
0.0
 10
861.0214841597447
 20
606.99999984825
 30
0.0
 10
859.9667966600083
 20
606.99999984825
 30
0.0
 10
859.9667966600083
 20
606.99999984825
 30
0.0
  0
HATCH
  5
99
330
6D
100
AcDbEntity
  8
0
 62
   240
420
 15539236
100
AcDbHatch
 10
0.0
 20
0.0
 30
0.0
210
0.0
220
0.0
230
1.0
  2
SOLID
 70
     1
 71
     0
 91
        1
 92
        1
 93
        1
 72
     4
 94
        3
 73
     0
 74
     1
 95
       56
 96
       52
 40
0.0
 40
0.0
 40
0.0
 40
0.0
 40
1.0
 40
1.0
 40
1.0
 40
2.0
 40
2.0
 40
2.0
 40
3.0
 40
3.0
 40
3.0
 40
4.0
 40
4.0
 40
4.0
 40
5.0
 40
5.0
 40
5.0
 40
6.0
 40
6.0
 40
6.0
 40
7.0
 40
7.0
 40
7.0
 40
8.0
 40
8.0
 40
8.0
 40
9.0
 40
9.0
 40
9.0
 40
10.0
 40
10.0
 40
10.0
 40
11.0
 40
11.0
 40
11.0
 40
12.0
 40
12.0
 40
12.0
 40
13.0
 40
13.0
 40
13.0
 40
14.0
 40
14.0
 40
14.0
 40
15.0
 40
15.0
 40
15.0
 40
16.0
 40
16.0
 40
16.0
 40
17.0
 40
17.0
 40
17.0
 40
17.0
 10
859.9667966600083
 20
606.99999984825
 10
859.9667966600083
 20
606.99999984825
 10
859.9667966600083
 20
615.5898435961026
 10
859.9667966600083
 20
615.5898435961026
 10
859.9667966600083
 20
615.5898435961026
 10
861.0214841597447
 20
615.5898435961026
 10
861.0214841597447
 20
615.5898435961026
 10
861.0214841597447
 20
615.5898435961026
 10
861.0214841597447
 20
612.507812346873
 10
861.0214841597447
 20
612.507812346873
 10
861.5136716596215
 20
613.0781248467305
 10
862.1347654094662
 20
613.3632810966592
 10
862.8847654092788
 20
613.3632810966592
 10
863.3457029091636
 20
613.3632810966592
 10
863.7460935340634
 20
613.2724607841818
 10
864.0859372839785
 20
613.0908201592273
 10
864.4257810338935
 20
612.9091795342727
 10
864.6689450963328
 20
612.6582029718354
 10
864.8154294712962
 20
612.3378904719156
 10
864.9619138462594
 20
612.0175779719956
 10
865.0351560337411
 20
611.5527342221118
 10
865.0351560337411
 20
610.9433592222641
 10
865.0351560337411
 20
610.9433592222641
 10
865.0351560337411
 20
606.99999984825
 10
865.0351560337411
 20
606.99999984825
 10
865.0351560337411
 20
606.99999984825
 10
863.9804685340049
 20
606.99999984825
 10
863.9804685340049
 20
606.99999984825
 10
863.9804685340049
 20
606.99999984825
 10
863.9804685340049
 20
610.9433592222641
 10
863.9804685340049
 20
610.9433592222641
 10
863.9804685340049
 20
611.4707029721324
 10
863.8662107215334
 20
611.8544920345364
 10
863.6376950965905
 20
612.0947264094763
 10
863.4091794716477
 20
612.3349607844162
 10
863.0859372842285
 20
612.4550779718862
 10
862.667968534333
 20
612.4550779718862
 10
862.3554685344111
 20
612.4550779718862
 10
862.0615232219847
 20
612.3740232844065
 10
861.7861325970534
 20
612.211913909447
 10
861.5107419721223
 20
612.0498045344875
 10
861.3144529096713
 20
611.8300779720424
 10
861.1972654097007
 20
611.5527342221118
 10
861.08007790973
 20
611.2753904721811
 10
861.0214841597447
 20
610.8925779722769
 10
861.0214841597447
 20
610.404296722399
 10
861.0214841597447
 20
610.404296722399
 10
861.0214841597447
 20
606.99999984825
 10
861.0214841597447
 20
606.99999984825
 10
861.0214841597447
 20
606.99999984825
 10
859.9667966600083
 20
606.99999984825
 10
859.9667966600083
 20
606.99999984825
 97
        0
 97
        0
 75
     2
 76
     1
 98
        0
  0
SPLINE
  5
9A
330
6D
100
AcDbEntity
  8
0
 62
   240
420
 15539236
370
    35
100
AcDbSpline
210
0.0
220
0.0
230
1.0
 70
    11
 71
     3
 72
    65
 73
    61
 74
     0
 42
0.0000000001
 43
0.0000000001
 12
1.0
 22
0.0
 32
0.0
 13
1.0
 23
0.0
 33
0.0
 40
0.0
 40
0.0
 40
0.0
 40
0.0
 40
1.0
 40
1.0
 40
1.0
 40
2.0
 40
2.0
 40
2.0
 40
3.0
 40
3.0
 40
3.0
 40
4.0
 40
4.0
 40
4.0
 40
5.0
 40
5.0
 40
5.0
 40
6.0
 40
6.0
 40
6.0
 40
7.0
 40
7.0
 40
7.0
 40
8.0
 40
8.0
 40
8.0
 40
9.0
 40
9.0
 40
9.0
 40
10.0
 40
10.0
 40
10.0
 40
11.0
 40
11.0
 40
11.0
 40
12.0
 40
12.0
 40
12.0
 40
13.0
 40
13.0
 40
13.0
 40
14.0
 40
14.0
 40
14.0
 40
15.0
 40
15.0
 40
15.0
 40
16.0
 40
16.0
 40
16.0
 40
17.0
 40
17.0
 40
17.0
 40
18.0
 40
18.0
 40
18.0
 40
19.0
 40
19.0
 40
19.0
 40
20.0
 40
20.0
 40
20.0
 40
20.0
 10
868.9433591577641
 20
607.9433592230141
 30
0.0
 10
868.9433591577641
 20
607.9433592230141
 30
0.0
 10
869.095702907726
 20
607.0117185982471
 30
0.0
 10
869.095702907726
 20
607.0117185982471
 30
0.0
 10
868.7988279078003
 20
606.9492185982626
 30
0.0
 10
868.5332029078667
 20
606.9179685982705
 30
0.0
 10
868.2988279079253
 20
606.9179685982705
 30
0.0
 10
867.9160154080209
 20
606.9179685982705
 30
0.0
 10
867.6191404080952
 20
606.9785154732554
 30
0.0
 10
867.4082029081479
 20
607.0996092232251
 30
0.0
 10
867.1972654082007
 20
607.2207029731948
 30
0.0
 10
867.0488279082377
 20
607.379882660655
 30
0.0
 10
866.9628904082592
 20
607.5771482856057
 30
0.0
 10
866.8769529082807
 20
607.7744139105564
 30
0.0
 10
866.8339841582915
 20
608.1894529729526
 30
0.0
 10
866.8339841582915
 20
608.8222654727945
 30
0.0
 10
866.8339841582915
 20
608.8222654727945
 30
0.0
 10
866.8339841582915
 20
612.4023435968994
 30
0.0
 10
866.8339841582915
 20
612.4023435968994
 30
0.0
 10
866.8339841582915
 20
612.4023435968994
 30
0.0
 10
866.0605466584849
 20
612.4023435968994
 30
0.0
 10
866.0605466584849
 20
612.4023435968994
 30
0.0
 10
866.0605466584849
 20
612.4023435968994
 30
0.0
 10
866.0605466584849
 20
613.2226560966943
 30
0.0
 10
866.0605466584849
 20
613.2226560966943
 30
0.0
 10
866.0605466584849
 20
613.2226560966943
 30
0.0
 10
866.8339841582915
 20
613.2226560966943
 30
0.0
 10
866.8339841582915
 20
613.2226560966943
 30
0.0
 10
866.8339841582915
 20
613.2226560966943
 30
0.0
 10
866.8339841582915
 20
614.763671721309
 30
0.0
 10
866.8339841582915
 20
614.763671721309
 30
0.0
 10
866.8339841582915
 20
614.763671721309
 30
0.0
 10
867.8828122830292
 20
615.3964842211509
 30
0.0
 10
867.8828122830292
 20
615.3964842211509
 30
0.0
 10
867.8828122830292
 20
615.3964842211509
 30
0.0
 10
867.8828122830292
 20
613.2226560966943
 30
0.0
 10
867.8828122830292
 20
613.2226560966943
 30
0.0
 10
867.8828122830292
 20
613.2226560966943
 30
0.0
 10
868.9433591577641
 20
613.2226560966943
 30
0.0
 10
868.9433591577641
 20
613.2226560966943
 30
0.0
 10
868.9433591577641
 20
613.2226560966943
 30
0.0
 10
868.9433591577641
 20
612.4023435968994
 30
0.0
 10
868.9433591577641
 20
612.4023435968994
 30
0.0
 10
868.9433591577641
 20
612.4023435968994
 30
0.0
 10
867.8828122830292
 20
612.4023435968994
 30
0.0
 10
867.8828122830292
 20
612.4023435968994
 30
0.0
 10
867.8828122830292
 20
612.4023435968994
 30
0.0
 10
867.8828122830292
 20
608.763671722809
 30
0.0
 10
867.8828122830292
 20
608.763671722809
 30
0.0
 10
867.8828122830292
 20
608.4628904728843
 30
0.0
 10
867.9013669705247
 20
608.2695310979326
 30
0.0
 10
867.9384763455154
 20
608.1835935979541
 30
0.0
 10
867.975585720506
 20
608.0976560979756
 30
0.0
 10
868.0361325954909
 20
608.0292967229926
 30
0.0
 10
868.12011697047
 20
607.9785154730054
 30
0.0
 10
868.204101345449
 20
607.9277342230181
 30
0.0
 10
868.324218532919
 20
607.9023435980243
 30
0.0
 10
868.4804685328799
 20
607.9023435980243
 30
0.0
 10
868.5976560328505
 20
607.9023435980243
 30
0.0
 10
868.751952907812
 20
607.9160154730209
 30
0.0
 10
868.9433591577641
 20
607.9433592230141
 30
0.0
  0
HATCH
  5
9B
330
6D
100
AcDbEntity
  8
0
 62
   240
420
 15539236
100
AcDbHatch
 10
0.0
 20
0.0
 30
0.0
210
0.0
220
0.0
230
1.0
  2
SOLID
 70
     1
 71
     0
 91
        1
 92
        1
 93
        1
 72
     4
 94
        3
 73
     0
 74
     1
 95
       65
 96
       61
 40
0.0
 40
0.0
 40
0.0
 40
0.0
 40
1.0
 40
1.0
 40
1.0
 40
2.0
 40
2.0
 40
2.0
 40
3.0
 40
3.0
 40
3.0
 40
4.0
 40
4.0
 40
4.0
 40
5.0
 40
5.0
 40
5.0
 40
6.0
 40
6.0
 40
6.0
 40
7.0
 40
7.0
 40
7.0
 40
8.0
 40
8.0
 40
8.0
 40
9.0
 40
9.0
 40
9.0
 40
10.0
 40
10.0
 40
10.0
 40
11.0
 40
11.0
 40
11.0
 40
12.0
 40
12.0
 40
12.0
 40
13.0
 40
13.0
 40
13.0
 40
14.0
 40
14.0
 40
14.0
 40
15.0
 40
15.0
 40
15.0
 40
16.0
 40
16.0
 40
16.0
 40
17.0
 40
17.0
 40
17.0
 40
18.0
 40
18.0
 40
18.0
 40
19.0
 40
19.0
 40
19.0
 40
20.0
 40
20.0
 40
20.0
 40
20.0
 10
868.9433591577641
 20
607.9433592230141
 10
868.9433591577641
 20
607.9433592230141
 10
869.095702907726
 20
607.0117185982471
 10
869.095702907726
 20
607.0117185982471
 10
868.7988279078003
 20
606.9492185982626
 10
868.5332029078667
 20
606.9179685982705
 10
868.2988279079253
 20
606.9179685982705
 10
867.9160154080209
 20
606.9179685982705
 10
867.6191404080952
 20
606.9785154732554
 10
867.4082029081479
 20
607.0996092232251
 10
867.1972654082007
 20
607.2207029731948
 10
867.0488279082377
 20
607.379882660655
 10
866.9628904082592
 20
607.5771482856057
 10
866.8769529082807
 20
607.7744139105564
 10
866.8339841582915
 20
608.1894529729526
 10
866.8339841582915
 20
608.8222654727945
 10
866.8339841582915
 20
608.8222654727945
 10
866.8339841582915
 20
612.4023435968994
 10
866.8339841582915
 20
612.4023435968994
 10
866.8339841582915
 20
612.4023435968994
 10
866.0605466584849
 20
612.4023435968994
 10
866.0605466584849
 20
612.4023435968994
 10
866.0605466584849
 20
612.4023435968994
 10
866.0605466584849
 20
613.2226560966943
 10
866.0605466584849
 20
613.2226560966943
 10
866.0605466584849
 20
613.2226560966943
 10
866.8339841582915
 20
613.2226560966943
 10
866.8339841582915
 20
613.2226560966943
 10
866.8339841582915
 20
613.2226560966943
 10
866.8339841582915
 20
614.763671721309
 10
866.8339841582915
 20
614.763671721309
 10
866.8339841582915
 20
614.763671721309
 10
867.8828122830292
 20
615.3964842211509
 10
867.8828122830292
 20
615.3964842211509
 10
867.8828122830292
 20
615.3964842211509
 10
867.8828122830292
 20
613.2226560966943
 10
867.8828122830292
 20
613.2226560966943
 10
867.8828122830292
 20
613.2226560966943
 10
868.9433591577641
 20
613.2226560966943
 10
868.9433591577641
 20
613.2226560966943
 10
868.9433591577641
 20
613.2226560966943
 10
868.9433591577641
 20
612.4023435968994
 10
868.9433591577641
 20
612.4023435968994
 10
868.9433591577641
 20
612.4023435968994
 10
867.8828122830292
 20
612.4023435968994
 10
867.8828122830292
 20
612.4023435968994
 10
867.8828122830292
 20
612.4023435968994
 10
867.8828122830292
 20
608.763671722809
 10
867.8828122830292
 20
608.763671722809
 10
867.8828122830292
 20
608.4628904728843
 10
867.9013669705247
 20
608.2695310979326
 10
867.9384763455154
 20
608.1835935979541
 10
867.975585720506
 20
608.0976560979756
 10
868.0361325954909
 20
608.0292967229926
 10
868.12011697047
 20
607.9785154730054
 10
868.204101345449
 20
607.9277342230181
 10
868.324218532919
 20
607.9023435980243
 10
868.4804685328799
 20
607.9023435980243
 10
868.5976560328505
 20
607.9023435980243
 10
868.751952907812
 20
607.9160154730209
 10
868.9433591577641
 20
607.9433592230141
 97
        0
 97
        0
 75
     2
 76
     1
 98
        0
  0
POLYLINE
  5
9C
330
6D
100
AcDbEntity
  8
0
 62
   240
420
 15539236
370
    35
100
AcDb2dPolyline
 66
     1
 10
0.0
 20
0.0
 30
0.0
  0
VERTEX
  5
9D
330
9C
100
AcDbEntity
  8
0
 62
   240
420
 15539236
370
    35
100
AcDbVertex
100
AcDb2dVertex
 10
882.6191404043452
 20
615.1328123462168
 30
0.0
  0
VERTEX
  5
9E
330
9C
100
AcDbEntity
  8
0
 62
   240
420
 15539236
370
    35
100
AcDbVertex
100
AcDb2dVertex
 10
878.4589841553852
 20
606.8183592232954
 30
0.0
  0
VERTEX
  5
9F
330
9C
100
AcDbEntity
  8
0
 62
   240
420
 15539236
370
    35
100
AcDbVertex
100
AcDb2dVertex
 10
874.2988279064252
 20
615.1328123462168
 30
0.0
  0
VERTEX
  5
A0
330
9C
100
AcDbEntity
  8
0
 62
   240
420
 15539236
370
    35
100
AcDbVertex
100
AcDb2dVertex
 10
882.6191404043452
 20
615.1328123462168
 30
0.0
  0
SEQEND
  5
A1
330
9C
100
AcDbEntity
  8
0
 62
   240
420
 15539236
370
    35
  0
HATCH
  5
A2
330
6D
100
AcDbEntity
  8
0
 62
   240
420
 15539236
100
AcDbHatch
 10
0.0
 20
0.0
 30
0.0
210
0.0
220
0.0
230
1.0
  2
SOLID
 70
     1
 71
     0
 91
        1
 92
        1
 93
        3
 72
     1
 10
882.6191404043452
 20
615.1328123462168
 11
878.4589841553852
 21
606.8183592232954
 72
     1
 10
878.4589841553852
 20
606.8183592232954
 11
874.2988279064252
 21
615.1328123462168
 72
     1
 10
874.2988279064252
 20
615.1328123462168
 11
882.6191404043452
 21
615.1328123462168
 97
        0
 75
     2
 76
     1
 98
        0
  0
ENDBLK
  5
70
330
6D
100
AcDbEntity
  8
0
100
AcDbBlockEnd
  0
ENDSEC
  0
SECTION
  2
ENTITIES
  0
INSERT
  5
41
330
1F
100
AcDbEntity
  8
0
100
AcDbBlockReference
  2
block 2
 10
0.0
 20
0.0
 30
0.0
  0
INSERT
  5
46
330
1F
100
AcDbEntity
  8
0
100
AcDbBlockReference
  2
block 3
 10
0.0
 20
0.0
 30
0.0
  0
INSERT
  5
4B
330
1F
100
AcDbEntity
  8
0
100
AcDbBlockReference
  2
block 4
 10
0.0
 20
0.0
 30
0.0
  0
INSERT
  5
50
330
1F
100
AcDbEntity
  8
0
100
AcDbBlockReference
  2
block 5
 10
0.0
 20
0.0
 30
0.0
  0
INSERT
  5
55
330
1F
100
AcDbEntity
  8
0
100
AcDbBlockReference
  2
block 6
 10
0.0
 20
0.0
 30
0.0
  0
INSERT
  5
5A
330
1F
100
AcDbEntity
  8
0
100
AcDbBlockReference
  2
block 7
 10
0.0
 20
0.0
 30
0.0
  0
INSERT
  5
5F
330
1F
100
AcDbEntity
  8
0
100
AcDbBlockReference
  2
block 8
 10
0.0
 20
0.0
 30
0.0
  0
INSERT
  5
64
330
1F
100
AcDbEntity
  8
0
100
AcDbBlockReference
  2
block 9
 10
0.0
 20
0.0
 30
0.0
  0
INSERT
  5
69
330
1F
100
AcDbEntity
  8
0
100
AcDbBlockReference
  2
block 10
 10
0.0
 20
0.0
 30
0.0
  0
INSERT
  5
6E
330
1F
100
AcDbEntity
  8
0
100
AcDbBlockReference
  2
block 11
 10
0.0
 20
0.0
 30
0.0
  0
ENDSEC
  0
SECTION
  2
OBJECTS
  0
DICTIONARY
  5
C
330
0
100
AcDbDictionary
281
     1
  3
ACAD_GROUP
350
D
  3
ACAD_LAYOUT
350
1A
  3
ACAD_MATERIAL
350
3B
  3
ACAD_MLEADERSTYLE
350
A4
  3
ACAD_MLINESTYLE
350
17
  3
ACAD_PLOTSETTINGS
350
19
  3
ACAD_PLOTSTYLENAME
350
E
  3
ACAD_TABLESTYLE
350
A3
  3
ACAD_VISUALSTYLE
350
2A
  0
SUN
  5
3F
330
29
100
AcDbSun
 90
        1
290
     0
 63
     7
421
 16777215
 40
1.0
291
     1
 91
  2455826
 92
 54000000
292
     0
 70
     2
 71
   256
280
     1
  0
DICTIONARY
  5
D
102
{ACAD_REACTORS
330
C
102
}
330
C
100
AcDbDictionary
281
     1
  0
DICTIONARY
  5
1A
102
{ACAD_REACTORS
330
C
102
}
330
C
100
AcDbDictionary
281
     1
  3
Layout1
350
1E
  3
Layout2
350
26
  3
Model
350
22
  0
DICTIONARY
  5
3B
102
{ACAD_REACTORS
330
C
102
}
330
C
100
AcDbDictionary
281
     1
  3
ByBlock
350
3D
  3
ByLayer
350
3C
  3
Global
350
3E
  0
DICTIONARY
  5
A4
102
{ACAD_REACTORS
330
C
102
}
330
C
100
AcDbDictionary
281
     1
  0
DICTIONARY
  5
17
102
{ACAD_REACTORS
330
C
102
}
330
C
100
AcDbDictionary
281
     1
  3
Standard
350
18
  0
DICTIONARY
  5
19
102
{ACAD_REACTORS
330
C
102
}
330
C
100
AcDbDictionary
281
     1
  0
ACDBDICTIONARYWDFLT
  5
E
102
{ACAD_REACTORS
330
C
102
}
330
C
100
AcDbDictionary
281
     1
  3
Normal
350
F
100
AcDbDictionaryWithDefault
340
F
  0
DICTIONARY
  5
A3
102
{ACAD_REACTORS
330
C
102
}
330
C
100
AcDbDictionary
281
     1
  0
DICTIONARY
  5
2A
102
{ACAD_REACTORS
330
C
102
}
330
C
100
AcDbDictionary
281
     1
  3
2dWireframe
350
2F
  3
3D Hidden
350
31
  3
3dWireframe
350
30
  3
Basic
350
32
  3
Brighten
350
36
  3
ColorChange
350
3A
  3
Conceptual
350
34
  3
Dim
350
35
  3
Facepattern
350
39
  3
Flat
350
2B
  3
FlatWithEdges
350
2C
  3
Gouraud
350
2D
  3
GouraudWithEdges
350
2E
  3
Linepattern
350
38
  3
Realistic
350
33
  3
Thicken
350
37
  0
LAYOUT
  5
1E
102
{ACAD_REACTORS
330
1A
102
}
330
1A
100
AcDbPlotSettings
  1

  2
none_device
  4

  6

 40
0.0
 41
0.0
 42
0.0
 43
0.0
 44
0.0
 45
0.0
 46
0.0
 47
0.0
 48
0.0
 49
0.0
140
0.0
141
0.0
142
1.0
143
1.0
 70
   688
 72
     0
 73
     0
 74
     5
  7

 75
    16
 76
     0
 77
     2
 78
   300
147
1.0
148
0.0
149
0.0
100
AcDbLayout
  1
Layout1
 70
     1
 71
     1
 10
0.0
 20
0.0
 11
12.0
 21
9.0
 12
0.0
 22
0.0
 32
0.0
 14
1.000000000000000E+20
 24
1.000000000000000E+20
 34
1.000000000000000E+20
 15
-1.000000000000000E+20
 25
-1.000000000000000E+20
 35
-1.000000000000000E+20
146
0.0
 13
0.0
 23
0.0
 33
0.0
 16
1.0
 26
0.0
 36
0.0
 17
0.0
 27
1.0
 37
0.0
 76
     0
330
1B
  0
LAYOUT
  5
26
102
{ACAD_REACTORS
330
1A
102
}
330
1A
100
AcDbPlotSettings
  1

  2
none_device
  4

  6

 40
0.0
 41
0.0
 42
0.0
 43
0.0
 44
0.0
 45
0.0
 46
0.0
 47
0.0
 48
0.0
 49
0.0
140
0.0
141
0.0
142
1.0
143
1.0
 70
   688
 72
     0
 73
     0
 74
     5
  7

 75
    16
 76
     0
 77
     2
 78
   300
147
1.0
148
0.0
149
0.0
100
AcDbLayout
  1
Layout2
 70
     1
 71
     2
 10
0.0
 20
0.0
 11
0.0
 21
0.0
 12
0.0
 22
0.0
 32
0.0
 14
0.0
 24
0.0
 34
0.0
 15
0.0
 25
0.0
 35
0.0
146
0.0
 13
0.0
 23
0.0
 33
0.0
 16
1.0
 26
0.0
 36
0.0
 17
0.0
 27
1.0
 37
0.0
 76
     0
330
23
  0
LAYOUT
  5
22
102
{ACAD_REACTORS
330
1A
102
}
330
1A
100
AcDbPlotSettings
  1

  2
none_device
  4

  6

 40
0.0
 41
0.0
 42
0.0
 43
0.0
 44
0.0
 45
0.0
 46
0.0
 47
0.0
 48
0.0
 49
0.0
140
0.0
141
0.0
142
1.0
143
1.0
 70
  1712
 72
     0
 73
     0
 74
     0
  7

 75
     0
 76
     0
 77
     2
 78
   300
147
1.0
148
0.0
149
0.0
100
AcDbLayout
  1
Model
 70
     1
 71
     0
 10
0.0
 20
0.0
 11
12.0
 21
9.0
 12
0.0
 22
0.0
 32
0.0
 14
1.000000000000000E+20
 24
1.000000000000000E+20
 34
1.000000000000000E+20
 15
-1.000000000000000E+20
 25
-1.000000000000000E+20
 35
-1.000000000000000E+20
146
0.0
 13
0.0
 23
0.0
 33
0.0
 16
1.0
 26
0.0
 36
0.0
 17
0.0
 27
1.0
 37
0.0
 76
     0
330
1F
331
29
  0
MATERIAL
  5
3D
102
{ACAD_REACTORS
330
3B
102
}
330
3B
100
AcDbMaterial
  1
ByBlock
 72
     1
 94
      127
  0
MATERIAL
  5
3C
102
{ACAD_REACTORS
330
3B
102
}
330
3B
100
AcDbMaterial
  1
ByLayer
 72
     1
 94
      127
  0
MATERIAL
  5
3E
102
{ACAD_REACTORS
330
3B
102
}
330
3B
100
AcDbMaterial
  1
Global
 72
     1
 94
      127
  0
MLINESTYLE
  5
18
102
{ACAD_REACTORS
330
17
102
}
330
17
100
AcDbMlineStyle
  2
Standard
 70
     0
  3

 62
   256
 51
90.0
 52
90.0
 71
     2
 49
0.5
 62
   256
  6
BYLAYER
 49
-0.5
 62
   256
  6
BYLAYER
  0
ACDBPLACEHOLDER
  5
F
102
{ACAD_REACTORS
330
E
102
}
330
E
  0
VISUALSTYLE
  5
2F
102
{ACAD_REACTORS
330
2A
102
}
330
2A
100
AcDbVisualStyle
  2
2dWireframe
 70
     4
177
     2
291
     0
 71
     0
176
     1
 72
     2
176
     1
 73
     0
176
     1
 90
        0
176
     1
 40
-0.6
176
     1
 41
-30.0
176
     1
 62
     5
 63
     7
421
 16777215
176
     1
 74
     1
176
     1
 91
        4
176
     1
 64
     7
176
     1
 65
   257
176
     1
 75
     1
176
     1
175
     1
176
     1
 42
1.0
176
     1
 92
        0
176
     1
 66
   257
176
     1
 43
1.0
176
     1
 76
     1
176
     1
 77
     6
176
     1
 78
     2
176
     1
 67
     7
176
     1
 79
     5
176
     1
170
     0
176
     1
171
     0
176
     1
290
     0
176
     1
 93
        1
176
     1
 44
0.0
176
     1
173
     0
176
     1
  0
VISUALSTYLE
  5
31
102
{ACAD_REACTORS
330
2A
102
}
330
2A
100
AcDbVisualStyle
  2
3D Hidden
 70
     6
177
     2
291
     0
 71
     1
176
     1
 72
     2
176
     1
 73
     2
176
     1
 90
        0
176
     1
 40
-0.6
176
     1
 41
-30.0
176
     1
 62
     5
 63
     7
421
 16777215
176
     1
 74
     2
176
     1
 91
        2
176
     1
 64
     7
176
     1
 65
   257
176
     1
 75
     2
176
     1
175
     1
176
     1
 42
40.0
176
     1
 92
        0
176
     1
 66
   257
176
     1
 43
1.0
176
     1
 76
     1
176
     1
 77
     6
176
     1
 78
     2
176
     1
 67
     7
176
     1
 79
     3
176
     1
170
     0
176
     1
171
     0
176
     1
290
     0
176
     1
 93
        1
176
     1
 44
0.0
176
     1
173
     0
176
     1
  0
VISUALSTYLE
  5
30
102
{ACAD_REACTORS
330
2A
102
}
330
2A
100
AcDbVisualStyle
  2
3dWireframe
 70
     5
177
     2
291
     0
 71
     0
176
     1
 72
     2
176
     1
 73
     0
176
     1
 90
        0
176
     1
 40
-0.6
176
     1
 41
-30.0
176
     1
 62
     5
 63
     7
421
 16777215
176
     1
 74
     1
176
     1
 91
        4
176
     1
 64
     7
176
     1
 65
   257
176
     1
 75
     1
176
     1
175
     1
176
     1
 42
1.0
176
     1
 92
        0
176
     1
 66
   257
176
     1
 43
1.0
176
     1
 76
     1
176
     1
 77
     6
176
     1
 78
     2
176
     1
 67
     7
176
     1
 79
     5
176
     1
170
     0
176
     1
171
     0
176
     1
290
     0
176
     1
 93
        1
176
     1
 44
0.0
176
     1
173
     0
176
     1
  0
VISUALSTYLE
  5
32
102
{ACAD_REACTORS
330
2A
102
}
330
2A
100
AcDbVisualStyle
  2
Basic
 70
     7
177
     2
291
     1
 71
     1
176
     1
 72
     0
176
     1
 73
     1
176
     1
 90
        0
176
     1
 40
-0.6
176
     1
 41
-30.0
176
     1
 62
     5
 63
     7
421
 16777215
176
     1
 74
     0
176
     1
 91
        4
176
     1
 64
     7
176
     1
 65
   257
176
     1
 75
     1
176
     1
175
     1
176
     1
 42
1.0
176
     1
 92
        8
176
     1
 66
     7
176
     1
 43
1.0
176
     1
 76
     1
176
     1
 77
     6
176
     1
 78
     2
176
     1
 67
     7
176
     1
 79
     5
176
     1
170
     0
176
     1
171
     0
176
     1
290
     0
176
     1
 93
        1
176
     1
 44
0.0
176
     1
173
     0
176
     1
  0
VISUALSTYLE
  5
36
102
{ACAD_REACTORS
330
2A
102
}
330
2A
100
AcDbVisualStyle
  2
Brighten
 70
    12
177
     2
291
     1
 71
     2
176
     1
 72
     2
176
     1
 73
     0
176
     1
 90
        0
176
     1
 40
-0.6
176
     1
 41
-30.0
176
     1
 62
     5
 63
     7
421
 16777215
176
     1
 74
     1
176
     1
 91
        4
176
     1
 64
     7
176
     1
 65
   257
176
     1
 75
     1
176
     1
175
     1
176
     1
 42
1.0
176
     1
 92
        8
176
     1
 66
     7
176
     1
 43
1.0
176
     1
 76
     1
176
     1
 77
     6
176
     1
 78
     2
176
     1
 67
     7
176
     1
 79
     5
176
     1
170
     0
176
     1
171
     0
176
     1
290
     0
176
     1
 93
        1
176
     1
 44
50.0
176
     1
173
     0
176
     1
  0
VISUALSTYLE
  5
3A
102
{ACAD_REACTORS
330
2A
102
}
330
2A
100
AcDbVisualStyle
  2
ColorChange
 70
    16
177
     2
291
     1
 71
     2
176
     1
 72
     2
176
     1
 73
     3
176
     1
 90
        0
176
     1
 40
-0.6
176
     1
 41
-30.0
176
     1
 62
     5
 63
     8
421
  8421504
176
     1
 74
     1
176
     1
 91
        4
176
     1
 64
     7
176
     1
 65
   257
176
     1
 75
     1
176
     1
175
     1
176
     1
 42
1.0
176
     1
 92
        8
176
     1
 66
     8
424
  8421504
176
     1
 43
1.0
176
     1
 76
     1
176
     1
 77
     6
176
     1
 78
     2
176
     1
 67
     7
176
     1
 79
     5
176
     1
170
     0
176
     1
171
     0
176
     1
290
     0
176
     1
 93
        1
176
     1
 44
0.0
176
     1
173
     0
176
     1
  0
VISUALSTYLE
  5
34
102
{ACAD_REACTORS
330
2A
102
}
330
2A
100
AcDbVisualStyle
  2
Conceptual
 70
     9
177
     2
291
     0
 71
     3
176
     1
 72
     2
176
     1
 73
     0
176
     1
 90
        0
176
     1
 40
-0.6
176
     1
 41
-30.0
176
     1
 62
     5
 63
     7
421
 16777215
176
     1
 74
     2
176
     1
 91
        2
176
     1
 64
     7
176
     1
 65
   257
176
     1
 75
     1
176
     1
175
     1
176
     1
 42
40.0
176
     1
 92
        8
176
     1
 66
     7
176
     1
 43
1.0
176
     1
 76
     1
176
     1
 77
     6
176
     1
 78
     2
176
     1
 67
     7
176
     1
 79
     3
176
     1
170
     0
176
     1
171
     0
176
     1
290
     0
176
     1
 93
        1
176
     1
 44
0.0
176
     1
173
     0
176
     1
  0
VISUALSTYLE
  5
35
102
{ACAD_REACTORS
330
2A
102
}
330
2A
100
AcDbVisualStyle
  2
Dim
 70
    11
177
     2
291
     1
 71
     2
176
     1
 72
     2
176
     1
 73
     0
176
     1
 90
        0
176
     1
 40
-0.6
176
     1
 41
-30.0
176
     1
 62
     5
 63
     7
421
 16777215
176
     1
 74
     1
176
     1
 91
        4
176
     1
 64
     7
176
     1
 65
   257
176
     1
 75
     1
176
     1
175
     1
176
     1
 42
1.0
176
     1
 92
        8
176
     1
 66
     7
176
     1
 43
1.0
176
     1
 76
     1
176
     1
 77
     6
176
     1
 78
     2
176
     1
 67
     7
176
     1
 79
     5
176
     1
170
     0
176
     1
171
     0
176
     1
290
     0
176
     1
 93
        1
176
     1
 44
-50.0
176
     1
173
     0
176
     1
  0
VISUALSTYLE
  5
39
102
{ACAD_REACTORS
330
2A
102
}
330
2A
100
AcDbVisualStyle
  2
Facepattern
 70
    15
177
     2
291
     1
 71
     2
176
     1
 72
     2
176
     1
 73
     0
176
     1
 90
        0
176
     1
 40
-0.6
176
     1
 41
-30.0
176
     1
 62
     5
 63
     7
421
 16777215
176
     1
 74
     1
176
     1
 91
        4
176
     1
 64
     7
176
     1
 65
   257
176
     1
 75
     1
176
     1
175
     1
176
     1
 42
1.0
176
     1
 92
        8
176
     1
 66
     7
176
     1
 43
1.0
176
     1
 76
     1
176
     1
 77
     6
176
     1
 78
     2
176
     1
 67
     7
176
     1
 79
     5
176
     1
170
     0
176
     1
171
     0
176
     1
290
     0
176
     1
 93
        1
176
     1
 44
0.0
176
     1
173
     0
176
     1
  0
VISUALSTYLE
  5
2B
102
{ACAD_REACTORS
330
2A
102
}
330
2A
100
AcDbVisualStyle
  2
Flat
 70
     0
177
     2
291
     1
 71
     2
176
     1
 72
     1
176
     1
 73
     1
176
     1
 90
        2
176
     1
 40
-0.6
176
     1
 41
30.0
176
     1
 62
     5
 63
     7
421
 16777215
176
     1
 74
     0
176
     1
 91
        4
176
     1
 64
     7
176
     1
 65
   257
176
     1
 75
     1
176
     1
175
     1
176
     1
 42
1.0
176
     1
 92
        8
176
     1
 66
     7
176
     1
 43
1.0
176
     1
 76
     1
176
     1
 77
     6
176
     1
 78
     2
176
     1
 67
     7
176
     1
 79
     5
176
     1
170
     0
176
     1
171
     0
176
     1
290
     0
176
     1
 93
       13
176
     1
 44
0.0
176
     1
173
     0
176
     1
  0
VISUALSTYLE
  5
2C
102
{ACAD_REACTORS
330
2A
102
}
330
2A
100
AcDbVisualStyle
  2
FlatWithEdges
 70
     1
177
     2
291
     1
 71
     2
176
     1
 72
     1
176
     1
 73
     1
176
     1
 90
        2
176
     1
 40
-0.6
176
     1
 41
30.0
176
     1
 62
     5
 63
     7
421
 16777215
176
     1
 74
     1
176
     1
 91
        4
176
     1
 64
     7
176
     1
 65
   257
176
     1
 75
     1
176
     1
175
     1
176
     1
 42
1.0
176
     1
 92
        0
176
     1
 66
   257
176
     1
 43
1.0
176
     1
 76
     1
176
     1
 77
     6
176
     1
 78
     2
176
     1
 67
     7
176
     1
 79
     5
176
     1
170
     0
176
     1
171
     0
176
     1
290
     0
176
     1
 93
       13
176
     1
 44
0.0
176
     1
173
     0
176
     1
  0
VISUALSTYLE
  5
2D
102
{ACAD_REACTORS
330
2A
102
}
330
2A
100
AcDbVisualStyle
  2
Gouraud
 70
     2
177
     2
291
     1
 71
     2
176
     1
 72
     2
176
     1
 73
     1
176
     1
 90
        2
176
     1
 40
-0.6
176
     1
 41
30.0
176
     1
 62
     5
 63
     7
421
 16777215
176
     1
 74
     0
176
     1
 91
        4
176
     1
 64
     7
176
     1
 65
   257
176
     1
 75
     1
176
     1
175
     1
176
     1
 42
1.0
176
     1
 92
        0
176
     1
 66
     7
176
     1
 43
1.0
176
     1
 76
     1
176
     1
 77
     6
176
     1
 78
     2
176
     1
 67
     7
176
     1
 79
     5
176
     1
170
     0
176
     1
171
     0
176
     1
290
     0
176
     1
 93
       13
176
     1
 44
0.0
176
     1
173
     0
176
     1
  0
VISUALSTYLE
  5
2E
102
{ACAD_REACTORS
330
2A
102
}
330
2A
100
AcDbVisualStyle
  2
GouraudWithEdges
 70
     3
177
     2
291
     1
 71
     2
176
     1
 72
     2
176
     1
 73
     1
176
     1
 90
        2
176
     1
 40
-0.6
176
     1
 41
30.0
176
     1
 62
     5
 63
     7
421
 16777215
176
     1
 74
     1
176
     1
 91
        4
176
     1
 64
     7
176
     1
 65
   257
176
     1
 75
     1
176
     1
175
     1
176
     1
 42
1.0
176
     1
 92
        0
176
     1
 66
   257
176
     1
 43
1.0
176
     1
 76
     1
176
     1
 77
     6
176
     1
 78
     2
176
     1
 67
     7
176
     1
 79
     5
176
     1
170
     0
176
     1
171
     0
176
     1
290
     0
176
     1
 93
       13
176
     1
 44
0.0
176
     1
173
     0
176
     1
  0
VISUALSTYLE
  5
38
102
{ACAD_REACTORS
330
2A
102
}
330
2A
100
AcDbVisualStyle
  2
Linepattern
 70
    14
177
     2
291
     1
 71
     2
176
     1
 72
     2
176
     1
 73
     0
176
     1
 90
        0
176
     1
 40
-0.6
176
     1
 41
-30.0
176
     1
 62
     5
 63
     7
421
 16777215
176
     1
 74
     1
176
     1
 91
        4
176
     1
 64
     7
176
     1
 65
   257
176
     1
 75
     7
176
     1
175
     7
176
     1
 42
1.0
176
     1
 92
        8
176
     1
 66
     7
176
     1
 43
1.0
176
     1
 76
     1
176
     1
 77
     6
176
     1
 78
     2
176
     1
 67
     7
176
     1
 79
     5
176
     1
170
     0
176
     1
171
     0
176
     1
290
     0
176
     1
 93
        1
176
     1
 44
0.0
176
     1
173
     0
176
     1
  0
VISUALSTYLE
  5
33
102
{ACAD_REACTORS
330
2A
102
}
330
2A
100
AcDbVisualStyle
  2
Realistic
 70
     8
177
     2
291
     0
 71
     2
176
     1
 72
     2
176
     1
 73
     0
176
     1
 90
        0
176
     1
 40
-0.6
176
     1
 41
-30.0
176
     1
 62
     5
 63
     7
421
 16777215
176
     1
 74
     1
176
     1
 91
        0
176
     1
 64
     7
176
     1
 65
   257
176
     1
 75
     1
176
     1
175
     1
176
     1
 42
1.0
176
     1
 92
        8
176
     1
 66
     8
424
  7895160
176
     1
 43
1.0
176
     1
 76
     1
176
     1
 77
     6
176
     1
 78
     2
176
     1
 67
     7
176
     1
 79
     5
176
     1
170
     0
176
     1
171
     0
176
     1
290
     0
176
     1
 93
       13
176
     1
 44
0.0
176
     1
173
     0
176
     1
  0
VISUALSTYLE
  5
37
102
{ACAD_REACTORS
330
2A
102
}
330
2A
100
AcDbVisualStyle
  2
Thicken
 70
    13
177
     2
291
     1
 71
     2
176
     1
 72
     2
176
     1
 73
     0
176
     1
 90
        0
176
     1
 40
-0.6
176
     1
 41
-30.0
176
     1
 62
     5
 63
     7
421
 16777215
176
     1
 74
     1
176
     1
 91
        4
176
     1
 64
     7
176
     1
 65
   257
176
     1
 75
     1
176
     1
175
     1
176
     1
 42
1.0
176
     1
 92
       12
176
     1
 66
     7
176
     1
 43
1.0
176
     1
 76
     1
176
     1
 77
     6
176
     1
 78
     2
176
     1
 67
     7
176
     1
 79
     5
176
     1
170
     0
176
     1
171
     0
176
     1
290
     0
176
     1
 93
        1
176
     1
 44
0.0
176
     1
173
     0
176
     1
  0
ENDSEC
  0
EOF
