  0
SECTION
  2
HEADER
  9
$ACADVER
  1
AC1024
  9
$ACADMAINTVER
 70
     6
  9
$DWGCODEPAGE
  3
ANSI_1252
  9
$INSBASE
 10
0.0
 20
0.0
 30
0.0
  9
$EXTMIN
 10
1.000000000000000E+20
 20
1.000000000000000E+20
 30
1.000000000000000E+20
  9
$EXTMAX
 10
-1.000000000000000E+20
 20
-1.000000000000000E+20
 30
-1.000000000000000E+20
  9
$LIMMIN
 10
0.0
 20
0.0
  9
$LIMMAX
 10
12.0
 20
9.0
  9
$ORTHOMODE
 70
     0
  9
$REGENMODE
 70
     1
  9
$FILLMODE
 70
     1
  9
$QTEXTMODE
 70
     0
  9
$MIRRTEXT
 70
     1
  9
$LTSCALE
 40
1.0
  9
$ATTMODE
 70
     1
  9
$TEXTSIZE
 40
0.2
  9
$TRACEWID
 40
0.05
  9
$TEXTSTYLE
  7
Standard
  9
$CLAYER
  8
0
  9
$CELTYPE
  6
ByLayer
  9
$CECOLOR
 62
   256
  9
$CELTSCALE
 40
1.0
  9
$DISPSILH
 70
     0
  9
$DIMSCALE
 40
1.0
  9
$DIMASZ
 40
0.18
  9
$DIMEXO
 40
0.0625
  9
$DIMDLI
 40
0.38
  9
$DIMRND
 40
0.0
  9
$DIMDLE
 40
0.0
  9
$DIMEXE
 40
0.18
  9
$DIMTP
 40
0.0
  9
$DIMTM
 40
0.0
  9
$DIMTXT
 40
0.18
  9
$DIMCEN
 40
0.09
  9
$DIMTSZ
 40
0.0
  9
$DIMTOL
 70
     0
  9
$DIMLIM
 70
     0
  9
$DIMTIH
 70
     1
  9
$DIMTOH
 70
     1
  9
$DIMSE1
 70
     0
  9
$DIMSE2
 70
     0
  9
$DIMTAD
 70
     0
  9
$DIMZIN
 70
     0
  9
$DIMBLK
  1

  9
$DIMASO
 70
     1
  9
$DIMSHO
 70
     1
  9
$DIMPOST
  1

  9
$DIMAPOST
  1

  9
$DIMALT
 70
     0
  9
$DIMALTD
 70
     2
  9
$DIMALTF
 40
25.4
  9
$DIMLFAC
 40
1.0
  9
$DIMTOFL
 70
     0
  9
$DIMTVP
 40
0.0
  9
$DIMTIX
 70
     0
  9
$DIMSOXD
 70
     0
  9
$DIMSAH
 70
     0
  9
$DIMBLK1
  1

  9
$DIMBLK2
  1

  9
$DIMSTYLE
  2
Standard
  9
$DIMCLRD
 70
     0
  9
$DIMCLRE
 70
     0
  9
$DIMCLRT
 70
     0
  9
$DIMTFAC
 40
1.0
  9
$DIMGAP
 40
0.09
  9
$DIMJUST
 70
     0
  9
$DIMSD1
 70
     0
  9
$DIMSD2
 70
     0
  9
$DIMTOLJ
 70
     1
  9
$DIMTZIN
 70
     0
  9
$DIMALTZ
 70
     0
  9
$DIMALTTZ
 70
     0
  9
$DIMUPT
 70
     0
  9
$DIMDEC
 70
     4
  9
$DIMTDEC
 70
     4
  9
$DIMALTU
 70
     2
  9
$DIMALTTD
 70
     2
  9
$DIMTXSTY
  7
Standard
  9
$DIMAUNIT
 70
     0
  9
$DIMADEC
 70
     0
  9
$DIMALTRND
 40
0.0
  9
$DIMAZIN
 70
     0
  9
$DIMDSEP
 70
    46
  9
$DIMATFIT
 70
     3
  9
$DIMFRAC
 70
     0
  9
$DIMLDRBLK
  1

  9
$DIMLUNIT
 70
     2
  9
$DIMLWD
 70
    -2
  9
$DIMLWE
 70
    -2
  9
$DIMTMOVE
 70
     0
  9
$DIMFXL
 40
1.0
  9
$DIMFXLON
 70
     0
  9
$DIMJOGANG
 40
0.7853981633974483
  9
$DIMTFILL
 70
     0
  9
$DIMTFILLCLR
 70
     0
  9
$DIMARCSYM
 70
     0
  9
$DIMLTYPE
  6

  9
$DIMLTEX1
  6

  9
$DIMLTEX2
  6

  9
$DIMTXTDIRECTION
 70
     0
  9
$LUNITS
 70
     2
  9
$LUPREC
 70
     4
  9
$SKETCHINC
 40
0.1
  9
$FILLETRAD
 40
0.5
  9
$AUNITS
 70
     0
  9
$AUPREC
 70
     0
  9
$MENU
  1
.
  9
$ELEVATION
 40
0.0
  9
$PELEVATION
 40
0.0
  9
$THICKNESS
 40
0.0
  9
$LIMCHECK
 70
     0
  9
$CHAMFERA
 40
0.5
  9
$CHAMFERB
 40
0.5
  9
$CHAMFERC
 40
1.0
  9
$CHAMFERD
 40
0.0
  9
$SKPOLY
 70
     0
  9
$TDCREATE
 40
2459171.855686169
  9
$TDUCREATE
 40
2459172.189019502
  9
$TDUPDATE
 40
2459171.855686192
  9
$TDUUPDATE
 40
2459172.189019525
  9
$TDINDWG
 40
0.0000000116
  9
$TDUSRTIMER
 40
0.0000000116
  9
$USRTIMER
 70
     1
  9
$ANGBASE
 50
0.0
  9
$ANGDIR
 70
     0
  9
$PDMODE
 70
     0
  9
$PDSIZE
 40
0.0
  9
$PLINEWID
 40
0.0
  9
$SPLFRAME
 70
     0
  9
$SPLINETYPE
 70
     6
  9
$SPLINESEGS
 70
     8
  9
$HANDSEED
  5
C0
  9
$SURFTAB1
 70
     6
  9
$SURFTAB2
 70
     6
  9
$SURFTYPE
 70
     6
  9
$SURFU
 70
     6
  9
$SURFV
 70
     6
  9
$UCSBASE
  2

  9
$UCSNAME
  2

  9
$UCSORG
 10
0.0
 20
0.0
 30
0.0
  9
$UCSXDIR
 10
1.0
 20
0.0
 30
0.0
  9
$UCSYDIR
 10
0.0
 20
1.0
 30
0.0
  9
$UCSORTHOREF
  2

  9
$UCSORTHOVIEW
 70
     0
  9
$UCSORGTOP
 10
0.0
 20
0.0
 30
0.0
  9
$UCSORGBOTTOM
 10
0.0
 20
0.0
 30
0.0
  9
$UCSORGLEFT
 10
0.0
 20
0.0
 30
0.0
  9
$UCSORGRIGHT
 10
0.0
 20
0.0
 30
0.0
  9
$UCSORGFRONT
 10
0.0
 20
0.0
 30
0.0
  9
$UCSORGBACK
 10
0.0
 20
0.0
 30
0.0
  9
$PUCSBASE
  2

  9
$PUCSNAME
  2

  9
$PUCSORG
 10
0.0
 20
0.0
 30
0.0
  9
$PUCSXDIR
 10
1.0
 20
0.0
 30
0.0
  9
$PUCSYDIR
 10
0.0
 20
1.0
 30
0.0
  9
$PUCSORTHOREF
  2

  9
$PUCSORTHOVIEW
 70
     0
  9
$PUCSORGTOP
 10
0.0
 20
0.0
 30
0.0
  9
$PUCSORGBOTTOM
 10
0.0
 20
0.0
 30
0.0
  9
$PUCSORGLEFT
 10
0.0
 20
0.0
 30
0.0
  9
$PUCSORGRIGHT
 10
0.0
 20
0.0
 30
0.0
  9
$PUCSORGFRONT
 10
0.0
 20
0.0
 30
0.0
  9
$PUCSORGBACK
 10
0.0
 20
0.0
 30
0.0
  9
$USERI1
 70
     0
  9
$USERI2
 70
     0
  9
$USERI3
 70
     0
  9
$USERI4
 70
     0
  9
$USERI5
 70
     0
  9
$USERR1
 40
0.0
  9
$USERR2
 40
0.0
  9
$USERR3
 40
0.0
  9
$USERR4
 40
0.0
  9
$USERR5
 40
0.0
  9
$WORLDVIEW
 70
     1
  9
$SHADEDGE
 70
     3
  9
$SHADEDIF
 70
    70
  9
$TILEMODE
 70
     1
  9
$MAXACTVP
 70
    64
  9
$PINSBASE
 10
0.0
 20
0.0
 30
0.0
  9
$PLIMCHECK
 70
     0
  9
$PEXTMIN
 10
1.000000000000000E+20
 20
1.000000000000000E+20
 30
1.000000000000000E+20
  9
$PEXTMAX
 10
-1.000000000000000E+20
 20
-1.000000000000000E+20
 30
-1.000000000000000E+20
  9
$PLIMMIN
 10
0.0
 20
0.0
  9
$PLIMMAX
 10
12.0
 20
9.0
  9
$UNITMODE
 70
     0
  9
$VISRETAIN
 70
     1
  9
$PLINEGEN
 70
     0
  9
$PSLTSCALE
 70
     1
  9
$TREEDEPTH
 70
  3020
  9
$CMLSTYLE
  2
Standard
  9
$CMLJUST
 70
     0
  9
$CMLSCALE
 40
1.0
  9
$PROXYGRAPHICS
 70
     1
  9
$MEASUREMENT
 70
     0
  9
$CELWEIGHT
370
    -1
  9
$ENDCAPS
280
     0
  9
$JOINSTYLE
280
     0
  9
$LWDISPLAY
290
     1
  9
$INSUNITS
 70
     4
  9
$HYPERLINKBASE
  1

  9
$STYLESHEET
  1

  9
$XEDIT
290
     1
  9
$CEPSNTYPE
380
     0
  9
$PSTYLEMODE
290
     1
  9
$FINGERPRINTGUID
  2
{763FF3B2-3D78-4035-984E-2637BD1AA184}
  9
$VERSIONGUID
  2
{FAEB1C32-E019-11D5-929B-00C0DF256EC4}
  9
$EXTNAMES
290
     1
  9
$PSVPSCALE
 40
0.0
  9
$OLESTARTUP
290
     0
  9
$SORTENTS
280
   127
  9
$INDEXCTL
280
     0
  9
$HIDETEXT
280
     1
  9
$XCLIPFRAME
280
     2
  9
$HALOGAP
280
     0
  9
$OBSCOLOR
 70
   257
  9
$OBSLTYPE
280
     0
  9
$INTERSECTIONDISPLAY
280
     0
  9
$INTERSECTIONCOLOR
 70
   257
  9
$DIMASSOC
280
     2
  9
$PROJECTNAME
  1

  9
$CAMERADISPLAY
290
     0
  9
$LENSLENGTH
 40
50.0
  9
$CAMERAHEIGHT
 40
0.0
  9
$STEPSPERSEC
 40
2.0
  9
$STEPSIZE
 40
6.0
  9
$3DDWFPREC
 40
2.0
  9
$PSOLWIDTH
 40
0.25
  9
$PSOLHEIGHT
 40
4.0
  9
$LOFTANG1
 40
1.570796326794897
  9
$LOFTANG2
 40
1.570796326794897
  9
$LOFTMAG1
 40
0.0
  9
$LOFTMAG2
 40
0.0
  9
$LOFTPARAM
 70
     7
  9
$LOFTNORMALS
280
     1
  9
$LATITUDE
 40
37.795
  9
$LONGITUDE
 40
-122.394
  9
$NORTHDIRECTION
 40
0.0
  9
$TIMEZONE
 70
 -8000
  9
$LIGHTGLYPHDISPLAY
280
     1
  9
$TILEMODELIGHTSYNCH
280
     1
  9
$CMATERIAL
347
3C
  9
$SOLIDHIST
280
     1
  9
$SHOWHIST
280
     1
  9
$DWFFRAME
280
     2
  9
$DGNFRAME
280
     2
  9
$REALWORLDSCALE
290
     1
  9
$INTERFERECOLOR
 62
   256
  9
$CSHADOW
280
     0
  9
$SHADOWPLANELOCATION
 40
0.0
  0
ENDSEC
  0
SECTION
  2
CLASSES
  0
CLASS
  1
ACDBDICTIONARYWDFLT
  2
AcDbDictionaryWithDefault
  3
ObjectDBX Classes
 90
        0
 91
        4
280
     0
281
     0
  0
CLASS
  1
VISUALSTYLE
  2
AcDbVisualStyle
  3
ObjectDBX Classes
 90
     4095
 91
        4
280
     0
281
     0
  0
CLASS
  1
MATERIAL
  2
AcDbMaterial
  3
ObjectDBX Classes
 90
     1153
 91
        4
280
     0
281
     0
  0
CLASS
  1
SUN
  2
AcDbSun
  3
SCENEOE
 90
     1024
 91
        4
280
     0
281
     0
  0
ENDSEC
  0
SECTION
  2
TABLES
  0
TABLE
  2
VPORT
  5
8
330
0
100
AcDbSymbolTable
 70
     1
  0
VPORT
  5
29
330
8
100
AcDbSymbolTableRecord
100
AcDbViewportTableRecord
  2
*Active
 70
     0
 10
0.0
 20
0.0
 11
1.0
 21
1.0
 12
0.0
 22
0.0
 13
0.0
 23
0.0
 14
0.5
 24
0.5
 15
0.5
 25
0.5
 16
0.0
 26
0.0
 36
1.0
 17
959.99999976
 27
539.999999865
 37
0.0
 40
1079.99999973
 41
1.777777777777778
 42
50.0
 43
0.0
 44
0.0
 50
0.0
 51
0.0
 71
     0
 72
   100
 73
     1
 74
     3
 75
     0
 76
     0
 77
     0
 78
     0
281
     0
 65
     1
110
0.0
120
0.0
130
0.0
111
1.0
121
0.0
131
0.0
112
0.0
122
1.0
132
0.0
 79
     0
146
0.0
 60
     3
 61
     5
292
     1
282
     1
141
0.0
142
0.0
 63
   250
361
3F
  0
ENDTAB
  0
TABLE
  2
LTYPE
  5
5
330
0
100
AcDbSymbolTable
 70
     1
  0
LTYPE
  5
14
330
5
100
AcDbSymbolTableRecord
100
AcDbLinetypeTableRecord
  2
ByBlock
 70
     0
  3

 72
    65
 73
     0
 40
0.0
  0
LTYPE
  5
15
330
5
100
AcDbSymbolTableRecord
100
AcDbLinetypeTableRecord
  2
ByLayer
 70
     0
  3

 72
    65
 73
     0
 40
0.0
  0
LTYPE
  5
16
330
5
100
AcDbSymbolTableRecord
100
AcDbLinetypeTableRecord
  2
Continuous
 70
     0
  3
Solid line
 72
    65
 73
     0
 40
0.0
  0
ENDTAB
  0
TABLE
  2
LAYER
  5
2
330
0
100
AcDbSymbolTable
 70
     1
  0
LAYER
  5
10
330
2
100
AcDbSymbolTableRecord
100
AcDbLayerTableRecord
  2
0
 70
     0
 62
     7
  6
Continuous
370
    -3
390
F
347
3E
  0
ENDTAB
  0
TABLE
  2
STYLE
  5
3
330
0
100
AcDbSymbolTable
 70
     1
  0
STYLE
  5
11
330
3
100
AcDbSymbolTableRecord
100
AcDbTextStyleTableRecord
  2
Standard
 70
     0
 40
0.0
 41
1.0
 50
0.0
 71
     0
 42
0.2
  3
txt
  4

  0
ENDTAB
  0
TABLE
  2
VIEW
  5
6
330
0
100
AcDbSymbolTable
 70
     0
  0
ENDTAB
  0
TABLE
  2
UCS
  5
7
330
0
100
AcDbSymbolTable
 70
     0
  0
ENDTAB
  0
TABLE
  2
APPID
  5
9
330
0
100
AcDbSymbolTable
 70
     1
  0
APPID
  5
12
330
9
100
AcDbSymbolTableRecord
100
AcDbRegAppTableRecord
  2
ACAD
 70
     0
  0
ENDTAB
  0
TABLE
  2
DIMSTYLE
  5
A
330
0
100
AcDbSymbolTable
 70
     1
100
AcDbDimStyleTable
  0
DIMSTYLE
105
27
330
A
100
AcDbSymbolTableRecord
100
AcDbDimStyleTableRecord
  2
Standard
 70
     0
178
     0
340
11
  0
ENDTAB
  0
TABLE
  2
BLOCK_RECORD
  5
1
330
0
100
AcDbSymbolTable
 70
    15
  0
BLOCK_RECORD
  5
1F
330
1
100
AcDbSymbolTableRecord
100
AcDbBlockTableRecord
  2
*Model_Space
340
22
 70
     0
280
     1
281
     0
  0
BLOCK_RECORD
  5
1B
330
1
100
AcDbSymbolTableRecord
100
AcDbBlockTableRecord
  2
*Paper_Space
340
1E
 70
     0
280
     1
281
     0
  0
BLOCK_RECORD
  5
23
330
1
100
AcDbSymbolTableRecord
100
AcDbBlockTableRecord
  2
*Paper_Space0
340
26
 70
     0
280
     1
281
     0
  0
BLOCK_RECORD
  5
40
330
1
100
AcDbSymbolTableRecord
100
AcDbBlockTableRecord
  2
block 2
340
0
102
{BLKREFS
331
41
102
}
 70
     0
280
     1
281
     0
  0
BLOCK_RECORD
  5
4B
330
1
100
AcDbSymbolTableRecord
100
AcDbBlockTableRecord
  2
block 3
340
0
102
{BLKREFS
331
4C
102
}
 70
     0
280
     1
281
     0
  0
BLOCK_RECORD
  5
5A
330
1
100
AcDbSymbolTableRecord
100
AcDbBlockTableRecord
  2
block 4
340
0
102
{BLKREFS
331
5B
102
}
 70
     0
280
     1
281
     0
  0
BLOCK_RECORD
  5
5F
330
1
100
AcDbSymbolTableRecord
100
AcDbBlockTableRecord
  2
block 5
340
0
102
{BLKREFS
331
60
102
}
 70
     0
280
     1
281
     0
  0
BLOCK_RECORD
  5
64
330
1
100
AcDbSymbolTableRecord
100
AcDbBlockTableRecord
  2
block 6
340
0
102
{BLKREFS
331
65
102
}
 70
     0
280
     1
281
     0
  0
BLOCK_RECORD
  5
69
330
1
100
AcDbSymbolTableRecord
100
AcDbBlockTableRecord
  2
block 7
340
0
102
{BLKREFS
331
6A
102
}
 70
     0
280
     1
281
     0
  0
BLOCK_RECORD
  5
6E
330
1
100
AcDbSymbolTableRecord
100
AcDbBlockTableRecord
  2
block 8
340
0
102
{BLKREFS
331
6F
102
}
 70
     0
280
     1
281
     0
  0
BLOCK_RECORD
  5
73
330
1
100
AcDbSymbolTableRecord
100
AcDbBlockTableRecord
  2
block 9
340
0
102
{BLKREFS
331
74
102
}
 70
     0
280
     1
281
     0
  0
BLOCK_RECORD
  5
78
330
1
100
AcDbSymbolTableRecord
100
AcDbBlockTableRecord
  2
block 10
340
0
102
{BLKREFS
331
79
102
}
 70
     0
280
     1
281
     0
  0
BLOCK_RECORD
  5
7D
330
1
100
AcDbSymbolTableRecord
100
AcDbBlockTableRecord
  2
block 11
340
0
102
{BLKREFS
331
7E
102
}
 70
     0
280
     1
281
     0
  0
BLOCK_RECORD
  5
82
330
1
100
AcDbSymbolTableRecord
100
AcDbBlockTableRecord
  2
block 12
340
0
102
{BLKREFS
331
83
102
}
 70
     0
280
     1
281
     0
  0
BLOCK_RECORD
  5
87
330
1
100
AcDbSymbolTableRecord
100
AcDbBlockTableRecord
  2
block 13
340
0
102
{BLKREFS
331
88
102
}
 70
     0
280
     1
281
     0
  0
BLOCK_RECORD
  5
8C
330
1
100
AcDbSymbolTableRecord
100
AcDbBlockTableRecord
  2
block 14
340
0
102
{BLKREFS
331
8D
102
}
 70
     0
280
     1
281
     0
  0
BLOCK_RECORD
  5
91
330
1
100
AcDbSymbolTableRecord
100
AcDbBlockTableRecord
  2
block 15
340
0
102
{BLKREFS
331
92
102
}
 70
     0
280
     1
281
     0
  0
ENDTAB
  0
ENDSEC
  0
SECTION
  2
BLOCKS
  0
BLOCK
  5
20
330
1F
100
AcDbEntity
  8
0
100
AcDbBlockBegin
  2
*Model_Space
 70
     0
 10
0.0
 20
0.0
 30
0.0
  3
*Model_Space
  1

  0
ENDBLK
  5
21
330
1F
100
AcDbEntity
  8
0
100
AcDbBlockEnd
  0
BLOCK
  5
1C
330
1B
100
AcDbEntity
 67
     1
  8
0
100
AcDbBlockBegin
  2
*Paper_Space
 70
     0
 10
0.0
 20
0.0
 30
0.0
  3
*Paper_Space
  1

  0
ENDBLK
  5
1D
330
1B
100
AcDbEntity
 67
     1
  8
0
100
AcDbBlockEnd
  0
BLOCK
  5
24
330
23
100
AcDbEntity
  8
0
100
AcDbBlockBegin
  2
*Paper_Space0
 70
     0
 10
0.0
 20
0.0
 30
0.0
  3
*Paper_Space0
  1

  0
ENDBLK
  5
25
330
23
100
AcDbEntity
  8
0
100
AcDbBlockEnd
  0
BLOCK
  5
42
330
40
100
AcDbEntity
  8
0
100
AcDbBlockBegin
  2
block 2
 70
     0
 10
0.0
 20
0.0
 30
0.0
  3
block 2
  1

  0
POLYLINE
  5
44
330
40
100
AcDbEntity
  8
0
 62
     7
420
 16777215
370
    25
100
AcDb2dPolyline
 66
     1
 10
0.0
 20
0.0
 30
0.0
  0
VERTEX
  5
45
330
44
100
AcDbEntity
  8
0
 62
     7
420
 16777215
370
    25
100
AcDbVertex
100
AcDb2dVertex
 10
809.3522192187838
 20
553.9629310976233
 30
0.0
  0
VERTEX
  5
46
330
44
100
AcDbEntity
  8
0
 62
     7
420
 16777215
370
    25
100
AcDbVertex
100
AcDb2dVertex
 10
809.3522192187838
 20
513.9629311076231
 30
0.0
  0
VERTEX
  5
47
330
44
100
AcDbEntity
  8
0
 62
     7
420
 16777215
370
    25
100
AcDbVertex
100
AcDb2dVertex
 10
823.3522192152828
 20
513.9629311076231
 30
0.0
  0
VERTEX
  5
48
330
44
100
AcDbEntity
  8
0
 62
     7
420
 16777215
370
    25
100
AcDbVertex
100
AcDb2dVertex
 10
823.3522192152838
 20
553.9629310976233
 30
0.0
  0
VERTEX
  5
49
330
44
100
AcDbEntity
  8
0
 62
     7
420
 16777215
370
    25
100
AcDbVertex
100
AcDb2dVertex
 10
809.3522192187838
 20
553.9629310976233
 30
0.0
  0
SEQEND
  5
4A
330
44
100
AcDbEntity
  8
0
 62
     7
420
 16777215
370
    25
  0
ENDBLK
  5
43
330
40
100
AcDbEntity
  8
0
100
AcDbBlockEnd
  0
BLOCK
  5
4D
330
4B
100
AcDbEntity
  8
0
100
AcDbBlockBegin
  2
block 3
 70
     0
 10
0.0
 20
0.0
 30
0.0
  3
block 3
  1

  0
POLYLINE
  5
4F
330
4B
100
AcDbEntity
  8
0
 62
     7
420
 16777215
370
    25
100
AcDb2dPolyline
 66
     1
 10
0.0
 20
0.0
 30
0.0
  0
VERTEX
  5
50
330
4F
100
AcDbEntity
  8
0
 62
     7
420
 16777215
370
    25
100
AcDbVertex
100
AcDb2dVertex
 10
827.7616349167516
 20
492.2968740452165
 30
0.0
  0
VERTEX
  5
51
330
4F
100
AcDbEntity
  8
0
 62
     7
420
 16777215
370
    25
100
AcDbVertex
100
AcDb2dVertex
 10
1114.463438055704
 20
492.2968740452165
 30
0.0
  0
VERTEX
  5
52
330
4F
100
AcDbEntity
  8
0
 62
     7
420
 16777215
370
    25
100
AcDbVertex
100
AcDb2dVertex
 10
1114.463438055704
 20
588.4968740211673
 30
0.0
  0
VERTEX
  5
53
330
4F
100
AcDbEntity
  8
0
 62
     7
420
 16777215
370
    25
100
AcDbVertex
100
AcDb2dVertex
 10
875.3866349048453
 20
588.4968740211673
 30
0.0
  0
VERTEX
  5
54
330
4F
100
AcDbEntity
  8
0
 62
     7
420
 16777215
370
    25
100
AcDbVertex
100
AcDb2dVertex
 10
875.3866349048453
 20
569.4468740259296
 30
0.0
  0
VERTEX
  5
55
330
4F
100
AcDbEntity
  8
0
 62
     7
420
 16777215
370
    25
100
AcDbVertex
100
AcDb2dVertex
 10
856.3366349096077
 20
569.4468740259296
 30
0.0
  0
VERTEX
  5
56
330
4F
100
AcDbEntity
  8
0
 62
     7
420
 16777215
370
    25
100
AcDbVertex
100
AcDb2dVertex
 10
856.3366349096077
 20
550.3968740306918
 30
0.0
  0
VERTEX
  5
57
330
4F
100
AcDbEntity
  8
0
 62
     7
420
 16777215
370
    25
100
AcDbVertex
100
AcDb2dVertex
 10
827.7616349167516
 20
550.3968740306918
 30
0.0
  0
VERTEX
  5
58
330
4F
100
AcDbEntity
  8
0
 62
     7
420
 16777215
370
    25
100
AcDbVertex
100
AcDb2dVertex
 10
827.7616349167516
 20
492.2968740452165
 30
0.0
  0
SEQEND
  5
59
330
4F
100
AcDbEntity
  8
0
 62
     7
420
 16777215
370
    25
  0
ENDBLK
  5
4E
330
4B
100
AcDbEntity
  8
0
100
AcDbBlockEnd
  0
BLOCK
  5
5C
330
5A
100
AcDbEntity
  8
0
100
AcDbBlockBegin
  2
block 4
 70
     0
 10
0.0
 20
0.0
 30
0.0
  3
block 4
  1

  0
SPLINE
  5
5E
330
5A
100
AcDbEntity
  8
0
 62
     7
420
 16777215
370
    25
100
AcDbSpline
210
0.0
220
0.0
230
1.0
 70
    11
 71
     3
 72
    32
 73
    28
 74
     0
 42
0.0000000001
 43
0.0000000001
 12
1.0
 22
0.0
 32
0.0
 13
1.0
 23
0.0
 33
0.0
 40
0.0
 40
0.0
 40
0.0
 40
0.0
 40
1.0
 40
1.0
 40
1.0
 40
2.0
 40
2.0
 40
2.0
 40
3.0
 40
3.0
 40
3.0
 40
4.0
 40
4.0
 40
4.0
 40
5.0
 40
5.0
 40
5.0
 40
6.0
 40
6.0
 40
6.0
 40
7.0
 40
7.0
 40
7.0
 40
8.0
 40
8.0
 40
8.0
 40
9.0
 40
9.0
 40
9.0
 40
9.0
 10
813.4741349203231
 20
593.2594049203309
 30
0.0
 10
813.4741349203231
 20
593.2594049203309
 30
0.0
 10
813.4741349203231
 20
573.2593740249764
 30
0.0
 10
813.4741349203231
 20
573.2593740249764
 30
0.0
 10
813.4741349203231
 20
573.2593740249764
 30
0.0
 10
832.5241349155608
 20
573.2593740249764
 30
0.0
 10
832.5241349155608
 20
573.2593740249764
 30
0.0
 10
832.5241349155608
 20
573.2593740249764
 30
0.0
 10
832.5241349155608
 20
554.2093740297388
 30
0.0
 10
832.5241349155608
 20
554.2093740297388
 30
0.0
 10
832.5241349155608
 20
554.2093740297388
 30
0.0
 10
852.5241349105607
 20
554.2093740297388
 30
0.0
 10
852.5241349105607
 20
554.2093740297388
 30
0.0
 10
852.5241349105607
 20
554.2093740297388
 30
0.0
 10
852.5241349105607
 20
573.2593740249764
 30
0.0
 10
852.5241349105607
 20
573.2593740249764
 30
0.0
 10
852.5241349105607
 20
573.2593740249764
 30
0.0
 10
871.5741349057985
 20
573.2593740249764
 30
0.0
 10
871.5741349057985
 20
573.2593740249764
 30
0.0
 10
871.5741349057985
 20
573.2593740249764
 30
0.0
 10
871.5741349057985
 20
593.2593740199765
 30
0.0
 10
871.5741349057985
 20
593.2593740199765
 30
0.0
 10
871.5741349057985
 20
593.2593740199765
 30
0.0
 10
814.5115614591657
 20
593.2593740199765
 30
0.0
 10
814.5115614591657
 20
593.2593740199765
 30
0.0
 10
814.5115614591657
 20
593.2594049203309
 30
0.0
 10
813.4741349203231
 20
593.2594049203309
 30
0.0
 10
813.4741349203231
 20
593.2594049203309
 30
0.0
  0
ENDBLK
  5
5D
330
5A
100
AcDbEntity
  8
0
100
AcDbBlockEnd
  0
BLOCK
  5
61
330
5F
100
AcDbEntity
  8
0
100
AcDbBlockBegin
  2
block 5
 70
     0
 10
0.0
 20
0.0
 30
0.0
  3
block 5
  1

  0
SPLINE
  5
63
330
5F
100
AcDbEntity
  8
0
 62
     7
420
 16777215
370
    25
100
AcDbSpline
210
0.0
220
0.0
230
1.0
 70
    11
 71
     3
 72
    29
 73
    25
 74
     0
 42
0.0000000001
 43
0.0000000001
 12
1.0
 22
0.0
 32
0.0
 13
1.0
 23
0.0
 33
0.0
 40
0.0
 40
0.0
 40
0.0
 40
0.0
 40
1.0
 40
1.0
 40
1.0
 40
2.0
 40
2.0
 40
2.0
 40
3.0
 40
3.0
 40
3.0
 40
4.0
 40
4.0
 40
4.0
 40
5.0
 40
5.0
 40
5.0
 40
6.0
 40
6.0
 40
6.0
 40
7.0
 40
7.0
 40
7.0
 40
8.0
 40
8.0
 40
8.0
 40
8.0
 10
1119.988438054323
 20
484.2155948103007
 30
0.0
 10
1119.988438054323
 20
481.4541710618367
 30
0.0
 10
1117.749861804037
 20
479.2155948115507
 30
0.0
 10
1114.988438055572
 20
479.2155948115507
 30
0.0
 10
1114.988438055572
 20
479.2155948115507
 30
0.0
 10
805.0115614644275
 20
479.2155948115507
 30
0.0
 10
805.0115614644275
 20
479.2155948115507
 30
0.0
 10
802.2501377159634
 20
479.2155948115507
 30
0.0
 10
800.0115614656775
 20
481.4541710618367
 30
0.0
 10
800.0115614656775
 20
484.2155948103007
 30
0.0
 10
800.0115614656775
 20
484.2155948103007
 30
0.0
 10
800.0115614656775
 20
595.7844049196992
 30
0.0
 10
800.0115614656775
 20
595.7844049196992
 30
0.0
 10
800.0115614656775
 20
598.5458286681633
 30
0.0
 10
802.2501377159634
 20
600.7844049184492
 30
0.0
 10
805.0115614644275
 20
600.7844049184492
 30
0.0
 10
805.0115614644275
 20
600.7844049184492
 30
0.0
 10
1114.988438055572
 20
600.7844049184492
 30
0.0
 10
1114.988438055572
 20
600.7844049184492
 30
0.0
 10
1117.749861804037
 20
600.7844049184492
 30
0.0
 10
1119.988438054323
 20
598.5458286681633
 30
0.0
 10
1119.988438054323
 20
595.7844049196992
 30
0.0
 10
1119.988438054323
 20
595.7844049196992
 30
0.0
 10
1119.988438054323
 20
484.2155948103007
 30
0.0
 10
1119.988438054323
 20
484.2155948103007
 30
0.0
  0
ENDBLK
  5
62
330
5F
100
AcDbEntity
  8
0
100
AcDbBlockEnd
  0
BLOCK
  5
66
330
64
100
AcDbEntity
  8
0
100
AcDbBlockBegin
  2
block 6
 70
     0
 10
0.0
 20
0.0
 30
0.0
  3
block 6
  1

  0
SPLINE
  5
68
330
64
100
AcDbEntity
  8
0
 62
     7
420
 16777215
370
    25
100
AcDbSpline
210
0.0
220
0.0
230
1.0
 70
    11
 71
     3
 72
    20
 73
    16
 74
     0
 42
0.0000000001
 43
0.0000000001
 12
1.0
 22
0.0
 32
0.0
 13
1.0
 23
0.0
 33
0.0
 40
0.0
 40
0.0
 40
0.0
 40
0.0
 40
1.0
 40
1.0
 40
1.0
 40
2.0
 40
2.0
 40
2.0
 40
3.0
 40
3.0
 40
3.0
 40
4.0
 40
4.0
 40
4.0
 40
5.0
 40
5.0
 40
5.0
 40
5.0
 10
905.4557806064761
 20
483.7405948104191
 30
0.0
 10
905.4557806064761
 20
484.5966361724432
 30
0.0
 10
906.1497392440646
 20
485.2905948100327
 30
0.0
 10
907.0057806060887
 20
485.2905948100327
 30
0.0
 10
907.8618219681119
 20
485.2905948100327
 30
0.0
 10
908.5557806057005
 20
484.5966361724432
 30
0.0
 10
908.5557806057014
 20
483.7405948104191
 30
0.0
 10
908.5557806057005
 20
482.884553448395
 30
0.0
 10
907.8618219681119
 20
482.1905948108073
 30
0.0
 10
907.0057806060887
 20
482.1905948108073
 30
0.0
 10
906.1497392440646
 20
482.1905948108073
 30
0.0
 10
905.4557806064761
 20
482.884553448395
 30
0.0
 10
905.4557806064761
 20
483.7405948104191
 30
0.0
 10
905.4557806064761
 20
483.7405948104191
 30
0.0
 10
905.4557806064761
 20
483.7405948104191
 30
0.0
 10
905.4557806064761
 20
483.7405948104191
 30
0.0
  0
ENDBLK
  5
67
330
64
100
AcDbEntity
  8
0
100
AcDbBlockEnd
  0
BLOCK
  5
6B
330
69
100
AcDbEntity
  8
0
100
AcDbBlockBegin
  2
block 7
 70
     0
 10
0.0
 20
0.0
 30
0.0
  3
block 7
  1

  0
SPLINE
  5
6D
330
69
100
AcDbEntity
  8
0
 62
     7
420
 16777215
370
    25
100
AcDbSpline
210
0.0
220
0.0
230
1.0
 70
    11
 71
     3
 72
    20
 73
    16
 74
     0
 42
0.0000000001
 43
0.0000000001
 12
1.0
 22
0.0
 32
0.0
 13
1.0
 23
0.0
 33
0.0
 40
0.0
 40
0.0
 40
0.0
 40
0.0
 40
1.0
 40
1.0
 40
1.0
 40
2.0
 40
2.0
 40
2.0
 40
3.0
 40
3.0
 40
3.0
 40
4.0
 40
4.0
 40
4.0
 40
5.0
 40
5.0
 40
5.0
 40
5.0
 10
1011.444218914299
 20
596.2594049195809
 30
0.0
 10
1011.444218914299
 20
597.1154462816049
 30
0.0
 10
1012.138177551887
 20
597.8094049191935
 30
0.0
 10
1012.994218913911
 20
597.8094049191935
 30
0.0
 10
1013.850260275935
 20
597.8094049191935
 30
0.0
 10
1014.544218913523
 20
597.1154462816049
 30
0.0
 10
1014.544218913523
 20
596.2594049195809
 30
0.0
 10
1014.544218913523
 20
595.4033635575568
 30
0.0
 10
1013.850260275935
 20
594.7094049199682
 30
0.0
 10
1012.994218913911
 20
594.7094049199682
 30
0.0
 10
1012.138177551887
 20
594.7094049199682
 30
0.0
 10
1011.444218914299
 20
595.4033635575568
 30
0.0
 10
1011.444218914299
 20
596.2594049195809
 30
0.0
 10
1011.444218914299
 20
596.2594049195809
 30
0.0
 10
1011.444218914299
 20
596.2594049195809
 30
0.0
 10
1011.444218914299
 20
596.2594049195809
 30
0.0
  0
ENDBLK
  5
6C
330
69
100
AcDbEntity
  8
0
100
AcDbBlockEnd
  0
BLOCK
  5
70
330
6E
100
AcDbEntity
  8
0
100
AcDbBlockBegin
  2
block 8
 70
     0
 10
0.0
 20
0.0
 30
0.0
  3
block 8
  1

  0
SPLINE
  5
72
330
6E
100
AcDbEntity
  8
0
 62
     7
420
 16777215
370
    25
100
AcDbSpline
210
0.0
220
0.0
230
1.0
 70
    11
 71
     3
 72
    20
 73
    16
 74
     0
 42
0.0000000001
 43
0.0000000001
 12
1.0
 22
0.0
 32
0.0
 13
1.0
 23
0.0
 33
0.0
 40
0.0
 40
0.0
 40
0.0
 40
0.0
 40
1.0
 40
1.0
 40
1.0
 40
2.0
 40
2.0
 40
2.0
 40
3.0
 40
3.0
 40
3.0
 40
4.0
 40
4.0
 40
4.0
 40
5.0
 40
5.0
 40
5.0
 40
5.0
 10
905.4557806064761
 20
596.2594049195809
 30
0.0
 10
905.4557806064761
 20
597.1154462816049
 30
0.0
 10
906.1497392440646
 20
597.8094049191935
 30
0.0
 10
907.0057806060887
 20
597.8094049191935
 30
0.0
 10
907.8618219681119
 20
597.8094049191935
 30
0.0
 10
908.5557806057005
 20
597.1154462816049
 30
0.0
 10
908.5557806057014
 20
596.2594049195809
 30
0.0
 10
908.5557806057005
 20
595.4033635575568
 30
0.0
 10
907.8618219681119
 20
594.7094049199682
 30
0.0
 10
907.0057806060887
 20
594.7094049199682
 30
0.0
 10
906.1497392440646
 20
594.7094049199682
 30
0.0
 10
905.4557806064761
 20
595.4033635575568
 30
0.0
 10
905.4557806064761
 20
596.2594049195809
 30
0.0
 10
905.4557806064761
 20
596.2594049195809
 30
0.0
 10
905.4557806064761
 20
596.2594049195809
 30
0.0
 10
905.4557806064761
 20
596.2594049195809
 30
0.0
  0
ENDBLK
  5
71
330
6E
100
AcDbEntity
  8
0
100
AcDbBlockEnd
  0
BLOCK
  5
75
330
73
100
AcDbEntity
  8
0
100
AcDbBlockBegin
  2
block 9
 70
     0
 10
0.0
 20
0.0
 30
0.0
  3
block 9
  1

  0
SPLINE
  5
77
330
73
100
AcDbEntity
  8
0
 62
     7
420
 16777215
370
    25
100
AcDbSpline
210
0.0
220
0.0
230
1.0
 70
    11
 71
     3
 72
    20
 73
    16
 74
     0
 42
0.0000000001
 43
0.0000000001
 12
1.0
 22
0.0
 32
0.0
 13
1.0
 23
0.0
 33
0.0
 40
0.0
 40
0.0
 40
0.0
 40
0.0
 40
1.0
 40
1.0
 40
1.0
 40
2.0
 40
2.0
 40
2.0
 40
3.0
 40
3.0
 40
3.0
 40
4.0
 40
4.0
 40
4.0
 40
5.0
 40
5.0
 40
5.0
 40
5.0
 10
1011.444218914299
 20
483.7405948104191
 30
0.0
 10
1011.444218914299
 20
484.5966361724432
 30
0.0
 10
1012.138177551887
 20
485.2905948100327
 30
0.0
 10
1012.994218913911
 20
485.2905948100327
 30
0.0
 10
1013.850260275935
 20
485.2905948100327
 30
0.0
 10
1014.544218913523
 20
484.5966361724432
 30
0.0
 10
1014.544218913523
 20
483.7405948104191
 30
0.0
 10
1014.544218913523
 20
482.884553448395
 30
0.0
 10
1013.850260275935
 20
482.1905948108073
 30
0.0
 10
1012.994218913911
 20
482.1905948108073
 30
0.0
 10
1012.138177551887
 20
482.1905948108073
 30
0.0
 10
1011.444218914299
 20
482.884553448395
 30
0.0
 10
1011.444218914299
 20
483.7405948104191
 30
0.0
 10
1011.444218914299
 20
483.7405948104191
 30
0.0
 10
1011.444218914299
 20
483.7405948104191
 30
0.0
 10
1011.444218914299
 20
483.7405948104191
 30
0.0
  0
ENDBLK
  5
76
330
73
100
AcDbEntity
  8
0
100
AcDbBlockEnd
  0
BLOCK
  5
7A
330
78
100
AcDbEntity
  8
0
100
AcDbBlockBegin
  2
block 10
 70
     0
 10
0.0
 20
0.0
 30
0.0
  3
block 10
  1

  0
SPLINE
  5
7C
330
78
100
AcDbEntity
  8
0
 62
     7
420
 16777215
370
    25
100
AcDbSpline
210
0.0
220
0.0
230
1.0
 70
    11
 71
     3
 72
    20
 73
    16
 74
     0
 42
0.0000000001
 43
0.0000000001
 12
1.0
 22
0.0
 32
0.0
 13
1.0
 23
0.0
 33
0.0
 40
0.0
 40
0.0
 40
0.0
 40
0.0
 40
1.0
 40
1.0
 40
1.0
 40
2.0
 40
2.0
 40
2.0
 40
3.0
 40
3.0
 40
3.0
 40
4.0
 40
4.0
 40
4.0
 40
5.0
 40
5.0
 40
5.0
 40
5.0
 10
803.9865614646832
 20
483.7405948104191
 30
0.0
 10
803.9865614646832
 20
484.5966361724432
 30
0.0
 10
804.6805201022718
 20
485.2905948100327
 30
0.0
 10
805.5365614642958
 20
485.2905948100327
 30
0.0
 10
806.39260282632
 20
485.2905948100327
 30
0.0
 10
807.0865614639085
 20
484.5966361724432
 30
0.0
 10
807.0865614639085
 20
483.7405948104191
 30
0.0
 10
807.0865614639085
 20
482.884553448395
 30
0.0
 10
806.39260282632
 20
482.1905948108073
 30
0.0
 10
805.5365614642958
 20
482.1905948108073
 30
0.0
 10
804.6805201022718
 20
482.1905948108073
 30
0.0
 10
803.9865614646832
 20
482.884553448395
 30
0.0
 10
803.9865614646832
 20
483.7405948104191
 30
0.0
 10
803.9865614646832
 20
483.7405948104191
 30
0.0
 10
803.9865614646832
 20
483.7405948104191
 30
0.0
 10
803.9865614646832
 20
483.7405948104191
 30
0.0
  0
ENDBLK
  5
7B
330
78
100
AcDbEntity
  8
0
100
AcDbBlockEnd
  0
BLOCK
  5
7F
330
7D
100
AcDbEntity
  8
0
100
AcDbBlockBegin
  2
block 11
 70
     0
 10
0.0
 20
0.0
 30
0.0
  3
block 11
  1

  0
SPLINE
  5
81
330
7D
100
AcDbEntity
  8
0
 62
     7
420
 16777215
370
    25
100
AcDbSpline
210
0.0
220
0.0
230
1.0
 70
    11
 71
     3
 72
    20
 73
    16
 74
     0
 42
0.0000000001
 43
0.0000000001
 12
1.0
 22
0.0
 32
0.0
 13
1.0
 23
0.0
 33
0.0
 40
0.0
 40
0.0
 40
0.0
 40
0.0
 40
1.0
 40
1.0
 40
1.0
 40
2.0
 40
2.0
 40
2.0
 40
3.0
 40
3.0
 40
3.0
 40
4.0
 40
4.0
 40
4.0
 40
5.0
 40
5.0
 40
5.0
 40
5.0
 10
1112.913438056091
 20
596.2594049195809
 30
0.0
 10
1112.913438056091
 20
597.1154462816049
 30
0.0
 10
1113.60739669368
 20
597.8094049191935
 30
0.0
 10
1114.463438055704
 20
597.8094049191935
 30
0.0
 10
1115.319479417728
 20
597.8094049191935
 30
0.0
 10
1116.013438055316
 20
597.1154462816049
 30
0.0
 10
1116.013438055316
 20
596.2594049195809
 30
0.0
 10
1116.013438055316
 20
595.4033635575568
 30
0.0
 10
1115.319479417728
 20
594.7094049199682
 30
0.0
 10
1114.463438055704
 20
594.7094049199682
 30
0.0
 10
1113.60739669368
 20
594.7094049199682
 30
0.0
 10
1112.913438056091
 20
595.4033635575568
 30
0.0
 10
1112.913438056091
 20
596.2594049195809
 30
0.0
 10
1112.913438056091
 20
596.2594049195809
 30
0.0
 10
1112.913438056091
 20
596.2594049195809
 30
0.0
 10
1112.913438056091
 20
596.2594049195809
 30
0.0
  0
ENDBLK
  5
80
330
7D
100
AcDbEntity
  8
0
100
AcDbBlockEnd
  0
BLOCK
  5
84
330
82
100
AcDbEntity
  8
0
100
AcDbBlockBegin
  2
block 12
 70
     0
 10
0.0
 20
0.0
 30
0.0
  3
block 12
  1

  0
SPLINE
  5
86
330
82
100
AcDbEntity
  8
0
 62
     7
420
 16777215
370
    25
100
AcDbSpline
210
0.0
220
0.0
230
1.0
 70
    11
 71
     3
 72
    20
 73
    16
 74
     0
 42
0.0000000001
 43
0.0000000001
 12
1.0
 22
0.0
 32
0.0
 13
1.0
 23
0.0
 33
0.0
 40
0.0
 40
0.0
 40
0.0
 40
0.0
 40
1.0
 40
1.0
 40
1.0
 40
2.0
 40
2.0
 40
2.0
 40
3.0
 40
3.0
 40
3.0
 40
4.0
 40
4.0
 40
4.0
 40
5.0
 40
5.0
 40
5.0
 40
5.0
 10
803.9865614646832
 20
596.2594049195809
 30
0.0
 10
803.9865614646832
 20
597.1154462816049
 30
0.0
 10
804.6805201022718
 20
597.8094049191935
 30
0.0
 10
805.5365614642958
 20
597.8094049191935
 30
0.0
 10
806.39260282632
 20
597.8094049191935
 30
0.0
 10
807.0865614639085
 20
597.1154462816049
 30
0.0
 10
807.0865614639085
 20
596.2594049195809
 30
0.0
 10
807.0865614639085
 20
595.4033635575568
 30
0.0
 10
806.39260282632
 20
594.7094049199682
 30
0.0
 10
805.5365614642958
 20
594.7094049199682
 30
0.0
 10
804.6805201022718
 20
594.7094049199682
 30
0.0
 10
803.9865614646832
 20
595.4033635575568
 30
0.0
 10
803.9865614646832
 20
596.2594049195809
 30
0.0
 10
803.9865614646832
 20
596.2594049195809
 30
0.0
 10
803.9865614646832
 20
596.2594049195809
 30
0.0
 10
803.9865614646832
 20
596.2594049195809
 30
0.0
  0
ENDBLK
  5
85
330
82
100
AcDbEntity
  8
0
100
AcDbBlockEnd
  0
BLOCK
  5
89
330
87
100
AcDbEntity
  8
0
100
AcDbBlockBegin
  2
block 13
 70
     0
 10
0.0
 20
0.0
 30
0.0
  3
block 13
  1

  0
SPLINE
  5
8B
330
87
100
AcDbEntity
  8
0
 62
     7
420
 16777215
370
    25
100
AcDbSpline
210
0.0
220
0.0
230
1.0
 70
    11
 71
     3
 72
    20
 73
    16
 74
     0
 42
0.0000000001
 43
0.0000000001
 12
1.0
 22
0.0
 32
0.0
 13
1.0
 23
0.0
 33
0.0
 40
0.0
 40
0.0
 40
0.0
 40
0.0
 40
1.0
 40
1.0
 40
1.0
 40
2.0
 40
2.0
 40
2.0
 40
3.0
 40
3.0
 40
3.0
 40
4.0
 40
4.0
 40
4.0
 40
5.0
 40
5.0
 40
5.0
 40
5.0
 10
1112.913438056091
 20
483.7405948104191
 30
0.0
 10
1112.913438056091
 20
484.5966361724432
 30
0.0
 10
1113.60739669368
 20
485.2905948100327
 30
0.0
 10
1114.463438055704
 20
485.2905948100327
 30
0.0
 10
1115.319479417728
 20
485.2905948100327
 30
0.0
 10
1116.013438055316
 20
484.5966361724432
 30
0.0
 10
1116.013438055316
 20
483.7405948104191
 30
0.0
 10
1116.013438055316
 20
482.884553448395
 30
0.0
 10
1115.319479417728
 20
482.1905948108073
 30
0.0
 10
1114.463438055704
 20
482.1905948108073
 30
0.0
 10
1113.60739669368
 20
482.1905948108073
 30
0.0
 10
1112.913438056091
 20
482.884553448395
 30
0.0
 10
1112.913438056091
 20
483.7405948104191
 30
0.0
 10
1112.913438056091
 20
483.7405948104191
 30
0.0
 10
1112.913438056091
 20
483.7405948104191
 30
0.0
 10
1112.913438056091
 20
483.7405948104191
 30
0.0
  0
ENDBLK
  5
8A
330
87
100
AcDbEntity
  8
0
100
AcDbBlockEnd
  0
BLOCK
  5
8E
330
8C
100
AcDbEntity
  8
0
100
AcDbBlockBegin
  2
block 14
 70
     0
 10
0.0
 20
0.0
 30
0.0
  3
block 14
  1

  0
SPLINE
  5
90
330
8C
100
AcDbEntity
  8
0
 62
     7
420
 16777215
370
    25
100
AcDbSpline
210
0.0
220
0.0
230
1.0
 70
    11
 71
     3
 72
    20
 73
    16
 74
     0
 42
0.0000000001
 43
0.0000000001
 12
1.0
 22
0.0
 32
0.0
 13
1.0
 23
0.0
 33
0.0
 40
0.0
 40
0.0
 40
0.0
 40
0.0
 40
1.0
 40
1.0
 40
1.0
 40
2.0
 40
2.0
 40
2.0
 40
3.0
 40
3.0
 40
3.0
 40
4.0
 40
4.0
 40
4.0
 40
5.0
 40
5.0
 40
5.0
 40
5.0
 10
807.8303967753866
 20
502.2842114810584
 30
0.0
 10
807.8303967753866
 20
506.9786318534468
 30
0.0
 10
811.6359764008731
 20
510.7842114789334
 30
0.0
 10
816.3303967732616
 20
510.7842114789334
 30
0.0
 10
821.0248171456491
 20
510.7842114789334
 30
0.0
 10
824.8303967711366
 20
506.9786318534468
 30
0.0
 10
824.8303967711366
 20
502.2842114810584
 30
0.0
 10
824.8303967711366
 20
497.5897911086718
 30
0.0
 10
821.0248171456491
 20
493.7842114831834
 30
0.0
 10
816.3303967732616
 20
493.7842114831834
 30
0.0
 10
811.6359764008731
 20
493.7842114831834
 30
0.0
 10
807.8303967753866
 20
497.5897911086718
 30
0.0
 10
807.8303967753866
 20
502.2842114810584
 30
0.0
 10
807.8303967753866
 20
502.2842114810584
 30
0.0
 10
807.8303967753866
 20
502.2842114810584
 30
0.0
 10
807.8303967753866
 20
502.2842114810584
 30
0.0
  0
ENDBLK
  5
8F
330
8C
100
AcDbEntity
  8
0
100
AcDbBlockEnd
  0
BLOCK
  5
93
330
91
100
AcDbEntity
  8
0
100
AcDbBlockBegin
  2
block 15
 70
     0
 10
0.0
 20
0.0
 30
0.0
  3
block 15
  1

  0
SPLINE
  5
95
330
91
100
AcDbEntity
  8
0
 62
   240
420
 15539236
370
    35
100
AcDbSpline
210
0.0
220
0.0
230
1.0
 70
    11
 71
     3
 72
    71
 73
    67
 74
     0
 42
0.0000000001
 43
0.0000000001
 12
1.0
 22
0.0
 32
0.0
 13
1.0
 23
0.0
 33
0.0
 40
0.0
 40
0.0
 40
0.0
 40
0.0
 40
1.0
 40
1.0
 40
1.0
 40
2.0
 40
2.0
 40
2.0
 40
3.0
 40
3.0
 40
3.0
 40
4.0
 40
4.0
 40
4.0
 40
5.0
 40
5.0
 40
5.0
 40
6.0
 40
6.0
 40
6.0
 40
7.0
 40
7.0
 40
7.0
 40
8.0
 40
8.0
 40
8.0
 40
9.0
 40
9.0
 40
9.0
 40
10.0
 40
10.0
 40
10.0
 40
11.0
 40
11.0
 40
11.0
 40
12.0
 40
12.0
 40
12.0
 40
13.0
 40
13.0
 40
13.0
 40
14.0
 40
14.0
 40
14.0
 40
15.0
 40
15.0
 40
15.0
 40
16.0
 40
16.0
 40
16.0
 40
17.0
 40
17.0
 40
17.0
 40
18.0
 40
18.0
 40
18.0
 40
19.0
 40
19.0
 40
19.0
 40
20.0
 40
20.0
 40
20.0
 40
21.0
 40
21.0
 40
21.0
 40
22.0
 40
22.0
 40
22.0
 40
22.0
 10
810.5830076098542
 20
605.7841795360539
 30
0.0
 10
810.5830076098542
 20
605.7841795360539
 30
0.0
 10
808.5317380791171
 20
613.8676756277831
 30
0.0
 10
808.5317380791171
 20
613.8676756277831
 30
0.0
 10
808.5317380791171
 20
613.8676756277831
 30
0.0
 10
809.6352537038412
 20
613.8676756277831
 30
0.0
 10
809.6352537038412
 20
613.8676756277831
 30
0.0
 10
809.6352537038412
 20
613.8676756277831
 30
0.0
 10
810.5947263598513
 20
609.7778318788055
 30
0.0
 10
810.5947263598513
 20
609.7778318788055
 30
0.0
 10
810.8344724535414
 20
608.7705076603073
 30
0.0
 10
811.0507810472373
 20
607.7631834418092
 30
0.0
 10
811.1943357347014
 20
606.9833982857541
 30
0.0
 10
811.1943357347014
 20
606.9833982857541
 30
0.0
 10
811.2182615159454
 20
606.9833982857541
 30
0.0
 10
811.2182615159454
 20
606.9833982857541
 30
0.0
 10
811.3505857346623
 20
607.7871092230532
 30
0.0
 10
811.6020505783495
 20
608.7465818790633
 30
0.0
 10
811.8779294845305
 20
609.7900389100524
 30
0.0
 10
811.8779294845305
 20
609.7900389100524
 30
0.0
 10
812.9575193280106
 20
613.8676756277831
 30
0.0
 10
812.9575193280106
 20
613.8676756277831
 30
0.0
 10
812.9575193280106
 20
613.8676756277831
 30
0.0
 10
814.0488279214878
 20
613.8676756277831
 30
0.0
 10
814.0488279214878
 20
613.8676756277831
 30
0.0
 10
814.0488279214878
 20
613.8676756277831
 30
0.0
 10
815.0322263587419
 20
609.7661131288085
 30
0.0
 10
815.0322263587419
 20
609.7661131288085
 30
0.0
 10
815.260253702435
 20
608.8066404727983
 30
0.0
 10
815.476074014881
 20
607.8471678167882
 30
0.0
 10
815.596191202351
 20
606.995605317001
 30
0.0
 10
815.596191202351
 20
606.995605317001
 30
0.0
 10
815.6201169835949
 20
606.995605317001
 30
0.0
 10
815.6201169835949
 20
606.995605317001
 30
0.0
 10
815.788085733553
 20
607.8828123480292
 30
0.0
 10
816.0156247959961
 20
608.7827146915544
 30
0.0
 10
816.267577920933
 20
609.7900389100524
 30
0.0
 10
816.267577920933
 20
609.7900389100524
 30
0.0
 10
817.3349607331662
 20
613.8676756277831
 30
0.0
 10
817.3349607331662
 20
613.8676756277831
 30
0.0
 10
817.3349607331662
 20
613.8676756277831
 30
0.0
 10
818.4023435453994
 20
613.8676756277831
 30
0.0
 10
818.4023435453994
 20
613.8676756277831
 30
0.0
 10
818.4023435453994
 20
613.8676756277831
 30
0.0
 10
816.111816202222
 20
605.7841795360539
 30
0.0
 10
816.111816202222
 20
605.7841795360539
 30
0.0
 10
816.111816202222
 20
605.7841795360539
 30
0.0
 10
815.0205076087449
 20
605.7841795360539
 30
0.0
 10
815.0205076087449
 20
605.7841795360539
 30
0.0
 10
815.0205076087449
 20
605.7841795360539
 30
0.0
 10
814.0009763589998
 20
609.9936521912516
 30
0.0
 10
814.0009763589998
 20
609.9936521912516
 30
0.0
 10
813.7490232340627
 20
611.0253904722437
 30
0.0
 10
813.5810544841047
 20
611.8168943782957
 30
0.0
 10
813.4731443278816
 20
612.6323240655919
 30
0.0
 10
813.4731443278816
 20
612.6323240655919
 30
0.0
 10
813.4492185466377
 20
612.6323240655919
 30
0.0
 10
813.4492185466377
 20
612.6323240655919
 30
0.0
 10
813.3051755779237
 20
611.8291014095427
 30
0.0
 10
813.1254880779686
 20
611.0371092222407
 30
0.0
 10
812.8256833905435
 20
609.9936521912516
 30
0.0
 10
812.8256833905435
 20
609.9936521912516
 30
0.0
 10
811.6743162033314
 20
605.7841795360539
 30
0.0
 10
811.6743162033314
 20
605.7841795360539
 30
0.0
 10
811.6743162033314
 20
605.7841795360539
 30
0.0
 10
810.5830076098542
 20
605.7841795360539
 30
0.0
 10
810.5830076098542
 20
605.7841795360539
 30
0.0
  0
HATCH
  5
96
330
91
100
AcDbEntity
  8
0
 62
   240
420
 15539236
100
AcDbHatch
 10
0.0
 20
0.0
 30
0.0
210
0.0
220
0.0
230
1.0
  2
SOLID
 70
     1
 71
     0
 91
        1
 92
        1
 93
        1
 72
     4
 94
        3
 73
     0
 74
     1
 95
       71
 96
       67
 40
0.0
 40
0.0
 40
0.0
 40
0.0
 40
1.0
 40
1.0
 40
1.0
 40
2.0
 40
2.0
 40
2.0
 40
3.0
 40
3.0
 40
3.0
 40
4.0
 40
4.0
 40
4.0
 40
5.0
 40
5.0
 40
5.0
 40
6.0
 40
6.0
 40
6.0
 40
7.0
 40
7.0
 40
7.0
 40
8.0
 40
8.0
 40
8.0
 40
9.0
 40
9.0
 40
9.0
 40
10.0
 40
10.0
 40
10.0
 40
11.0
 40
11.0
 40
11.0
 40
12.0
 40
12.0
 40
12.0
 40
13.0
 40
13.0
 40
13.0
 40
14.0
 40
14.0
 40
14.0
 40
15.0
 40
15.0
 40
15.0
 40
16.0
 40
16.0
 40
16.0
 40
17.0
 40
17.0
 40
17.0
 40
18.0
 40
18.0
 40
18.0
 40
19.0
 40
19.0
 40
19.0
 40
20.0
 40
20.0
 40
20.0
 40
21.0
 40
21.0
 40
21.0
 40
22.0
 40
22.0
 40
22.0
 40
22.0
 10
810.5830076098542
 20
605.7841795360539
 10
810.5830076098542
 20
605.7841795360539
 10
808.5317380791171
 20
613.8676756277831
 10
808.5317380791171
 20
613.8676756277831
 10
808.5317380791171
 20
613.8676756277831
 10
809.6352537038412
 20
613.8676756277831
 10
809.6352537038412
 20
613.8676756277831
 10
809.6352537038412
 20
613.8676756277831
 10
810.5947263598513
 20
609.7778318788055
 10
810.5947263598513
 20
609.7778318788055
 10
810.8344724535414
 20
608.7705076603073
 10
811.0507810472373
 20
607.7631834418092
 10
811.1943357347014
 20
606.9833982857541
 10
811.1943357347014
 20
606.9833982857541
 10
811.2182615159454
 20
606.9833982857541
 10
811.2182615159454
 20
606.9833982857541
 10
811.3505857346623
 20
607.7871092230532
 10
811.6020505783495
 20
608.7465818790633
 10
811.8779294845305
 20
609.7900389100524
 10
811.8779294845305
 20
609.7900389100524
 10
812.9575193280106
 20
613.8676756277831
 10
812.9575193280106
 20
613.8676756277831
 10
812.9575193280106
 20
613.8676756277831
 10
814.0488279214878
 20
613.8676756277831
 10
814.0488279214878
 20
613.8676756277831
 10
814.0488279214878
 20
613.8676756277831
 10
815.0322263587419
 20
609.7661131288085
 10
815.0322263587419
 20
609.7661131288085
 10
815.260253702435
 20
608.8066404727983
 10
815.476074014881
 20
607.8471678167882
 10
815.596191202351
 20
606.995605317001
 10
815.596191202351
 20
606.995605317001
 10
815.6201169835949
 20
606.995605317001
 10
815.6201169835949
 20
606.995605317001
 10
815.788085733553
 20
607.8828123480292
 10
816.0156247959961
 20
608.7827146915544
 10
816.267577920933
 20
609.7900389100524
 10
816.267577920933
 20
609.7900389100524
 10
817.3349607331662
 20
613.8676756277831
 10
817.3349607331662
 20
613.8676756277831
 10
817.3349607331662
 20
613.8676756277831
 10
818.4023435453994
 20
613.8676756277831
 10
818.4023435453994
 20
613.8676756277831
 10
818.4023435453994
 20
613.8676756277831
 10
816.111816202222
 20
605.7841795360539
 10
816.111816202222
 20
605.7841795360539
 10
816.111816202222
 20
605.7841795360539
 10
815.0205076087449
 20
605.7841795360539
 10
815.0205076087449
 20
605.7841795360539
 10
815.0205076087449
 20
605.7841795360539
 10
814.0009763589998
 20
609.9936521912516
 10
814.0009763589998
 20
609.9936521912516
 10
813.7490232340627
 20
611.0253904722437
 10
813.5810544841047
 20
611.8168943782957
 10
813.4731443278816
 20
612.6323240655919
 10
813.4731443278816
 20
612.6323240655919
 10
813.4492185466377
 20
612.6323240655919
 10
813.4492185466377
 20
612.6323240655919
 10
813.3051755779237
 20
611.8291014095427
 10
813.1254880779686
 20
611.0371092222407
 10
812.8256833905435
 20
609.9936521912516
 10
812.8256833905435
 20
609.9936521912516
 10
811.6743162033314
 20
605.7841795360539
 10
811.6743162033314
 20
605.7841795360539
 10
811.6743162033314
 20
605.7841795360539
 10
810.5830076098542
 20
605.7841795360539
 10
810.5830076098542
 20
605.7841795360539
 97
        0
 97
        0
 75
     2
 76
     1
 98
        0
  0
SPLINE
  5
97
330
91
100
AcDbEntity
  8
0
 62
   240
420
 15539236
370
    35
100
AcDbSpline
210
0.0
220
0.0
230
1.0
 70
    11
 71
     3
 72
    47
 73
    43
 74
     0
 42
0.0000000001
 43
0.0000000001
 12
1.0
 22
0.0
 32
0.0
 13
1.0
 23
0.0
 33
0.0
 40
0.0
 40
0.0
 40
0.0
 40
0.0
 40
1.0
 40
1.0
 40
1.0
 40
2.0
 40
2.0
 40
2.0
 40
3.0
 40
3.0
 40
3.0
 40
4.0
 40
4.0
 40
4.0
 40
5.0
 40
5.0
 40
5.0
 40
6.0
 40
6.0
 40
6.0
 40
7.0
 40
7.0
 40
7.0
 40
8.0
 40
8.0
 40
8.0
 40
9.0
 40
9.0
 40
9.0
 40
10.0
 40
10.0
 40
10.0
 40
11.0
 40
11.0
 40
11.0
 40
12.0
 40
12.0
 40
12.0
 40
13.0
 40
13.0
 40
13.0
 40
14.0
 40
14.0
 40
14.0
 40
14.0
 10
819.4155271388961
 20
613.8676756277831
 30
0.0
 10
819.4155271388961
 20
613.8676756277831
 30
0.0
 10
820.4589841698852
 20
613.8676756277831
 30
0.0
 10
820.4589841698852
 20
613.8676756277831
 30
0.0
 10
820.4589841698852
 20
613.8676756277831
 30
0.0
 10
820.4589841698852
 20
609.9697264100075
 30
0.0
 10
820.4589841698852
 20
609.9697264100075
 30
0.0
 10
820.4589841698852
 20
609.9697264100075
 30
0.0
 10
820.4946287011263
 20
609.9697264100075
 30
0.0
 10
820.4946287011263
 20
609.9697264100075
 30
0.0
 10
820.7104490135723
 20
610.2817381286795
 30
0.0
 10
820.9267576072683
 20
610.5693357848577
 30
0.0
 10
821.1303708884674
 20
610.8334959410416
 30
0.0
 10
821.1303708884674
 20
610.8334959410416
 30
0.0
 10
823.6010740128497
 20
613.8676756277831
 30
0.0
 10
823.6010740128497
 20
613.8676756277831
 30
0.0
 10
823.6010740128497
 20
613.8676756277831
 30
0.0
 10
824.8964841687758
 20
613.8676756277831
 30
0.0
 10
824.8964841687758
 20
613.8676756277831
 30
0.0
 10
824.8964841687758
 20
613.8676756277831
 30
0.0
 10
821.9702146382574
 20
610.4374998473907
 30
0.0
 10
821.9702146382574
 20
610.4374998473907
 30
0.0
 10
821.9702146382574
 20
610.4374998473907
 30
0.0
 10
825.1245115124689
 20
605.7841795360539
 30
0.0
 10
825.1245115124689
 20
605.7841795360539
 30
0.0
 10
825.1245115124689
 20
605.7841795360539
 30
0.0
 10
823.8891599502776
 20
605.7841795360539
 30
0.0
 10
823.8891599502776
 20
605.7841795360539
 30
0.0
 10
823.8891599502776
 20
605.7841795360539
 30
0.0
 10
821.2265622946934
 20
609.7539060975615
 30
0.0
 10
821.2265622946934
 20
609.7539060975615
 30
0.0
 10
821.2265622946934
 20
609.7539060975615
 30
0.0
 10
820.4589841698852
 20
608.8666990665333
 30
0.0
 10
820.4589841698852
 20
608.8666990665333
 30
0.0
 10
820.4589841698852
 20
608.8666990665333
 30
0.0
 10
820.4589841698852
 20
605.7841795360539
 30
0.0
 10
820.4589841698852
 20
605.7841795360539
 30
0.0
 10
820.4589841698852
 20
605.7841795360539
 30
0.0
 10
819.4155271388961
 20
605.7841795360539
 30
0.0
 10
819.4155271388961
 20
605.7841795360539
 30
0.0
 10
819.4155271388961
 20
605.7841795360539
 30
0.0
 10
819.4155271388961
 20
613.8676756277831
 30
0.0
 10
819.4155271388961
 20
613.8676756277831
 30
0.0
  0
HATCH
  5
98
330
91
100
AcDbEntity
  8
0
 62
   240
420
 15539236
100
AcDbHatch
 10
0.0
 20
0.0
 30
0.0
210
0.0
220
0.0
230
1.0
  2
SOLID
 70
     1
 71
     0
 91
        1
 92
        1
 93
        1
 72
     4
 94
        3
 73
     0
 74
     1
 95
       47
 96
       43
 40
0.0
 40
0.0
 40
0.0
 40
0.0
 40
1.0
 40
1.0
 40
1.0
 40
2.0
 40
2.0
 40
2.0
 40
3.0
 40
3.0
 40
3.0
 40
4.0
 40
4.0
 40
4.0
 40
5.0
 40
5.0
 40
5.0
 40
6.0
 40
6.0
 40
6.0
 40
7.0
 40
7.0
 40
7.0
 40
8.0
 40
8.0
 40
8.0
 40
9.0
 40
9.0
 40
9.0
 40
10.0
 40
10.0
 40
10.0
 40
11.0
 40
11.0
 40
11.0
 40
12.0
 40
12.0
 40
12.0
 40
13.0
 40
13.0
 40
13.0
 40
14.0
 40
14.0
 40
14.0
 40
14.0
 10
819.4155271388961
 20
613.8676756277831
 10
819.4155271388961
 20
613.8676756277831
 10
820.4589841698852
 20
613.8676756277831
 10
820.4589841698852
 20
613.8676756277831
 10
820.4589841698852
 20
613.8676756277831
 10
820.4589841698852
 20
609.9697264100075
 10
820.4589841698852
 20
609.9697264100075
 10
820.4589841698852
 20
609.9697264100075
 10
820.4946287011263
 20
609.9697264100075
 10
820.4946287011263
 20
609.9697264100075
 10
820.7104490135723
 20
610.2817381286795
 10
820.9267576072683
 20
610.5693357848577
 10
821.1303708884674
 20
610.8334959410416
 10
821.1303708884674
 20
610.8334959410416
 10
823.6010740128497
 20
613.8676756277831
 10
823.6010740128497
 20
613.8676756277831
 10
823.6010740128497
 20
613.8676756277831
 10
824.8964841687758
 20
613.8676756277831
 10
824.8964841687758
 20
613.8676756277831
 10
824.8964841687758
 20
613.8676756277831
 10
821.9702146382574
 20
610.4374998473907
 10
821.9702146382574
 20
610.4374998473907
 10
821.9702146382574
 20
610.4374998473907
 10
825.1245115124689
 20
605.7841795360539
 10
825.1245115124689
 20
605.7841795360539
 10
825.1245115124689
 20
605.7841795360539
 10
823.8891599502776
 20
605.7841795360539
 10
823.8891599502776
 20
605.7841795360539
 10
823.8891599502776
 20
605.7841795360539
 10
821.2265622946934
 20
609.7539060975615
 10
821.2265622946934
 20
609.7539060975615
 10
821.2265622946934
 20
609.7539060975615
 10
820.4589841698852
 20
608.8666990665333
 10
820.4589841698852
 20
608.8666990665333
 10
820.4589841698852
 20
608.8666990665333
 10
820.4589841698852
 20
605.7841795360539
 10
820.4589841698852
 20
605.7841795360539
 10
820.4589841698852
 20
605.7841795360539
 10
819.4155271388961
 20
605.7841795360539
 10
819.4155271388961
 20
605.7841795360539
 10
819.4155271388961
 20
605.7841795360539
 10
819.4155271388961
 20
613.8676756277831
 10
819.4155271388961
 20
613.8676756277831
 97
        0
 97
        0
 75
     2
 76
     1
 98
        0
  0
POLYLINE
  5
99
330
91
100
AcDbEntity
  8
0
 62
   240
420
 15539236
370
    35
100
AcDb2dPolyline
 66
     1
 10
0.0
 20
0.0
 30
0.0
  0
VERTEX
  5
9A
330
99
100
AcDbEntity
  8
0
 62
   240
420
 15539236
370
    35
100
AcDbVertex
100
AcDb2dVertex
 10
828.4633786991342
 20
613.8676756277831
 30
0.0
  0
VERTEX
  5
9B
330
99
100
AcDbEntity
  8
0
 62
   240
420
 15539236
370
    35
100
AcDbVertex
100
AcDb2dVertex
 10
829.5068357301233
 20
613.8676756277831
 30
0.0
  0
VERTEX
  5
9C
330
99
100
AcDbEntity
  8
0
 62
   240
420
 15539236
370
    35
100
AcDbVertex
100
AcDb2dVertex
 10
829.5068357301233
 20
606.659667817085
 30
0.0
  0
VERTEX
  5
9D
330
99
100
AcDbEntity
  8
0
 62
   240
420
 15539236
370
    35
100
AcDbVertex
100
AcDb2dVertex
 10
832.9609372917597
 20
606.659667817085
 30
0.0
  0
VERTEX
  5
9E
330
99
100
AcDbEntity
  8
0
 62
   240
420
 15539236
370
    35
100
AcDbVertex
100
AcDb2dVertex
 10
832.9609372917597
 20
605.7841795360539
 30
0.0
  0
VERTEX
  5
9F
330
99
100
AcDbEntity
  8
0
 62
   240
420
 15539236
370
    35
100
AcDbVertex
100
AcDb2dVertex
 10
828.4633786991342
 20
605.7841795360539
 30
0.0
  0
VERTEX
  5
A0
330
99
100
AcDbEntity
  8
0
 62
   240
420
 15539236
370
    35
100
AcDbVertex
100
AcDb2dVertex
 10
828.4633786991342
 20
613.8676756277831
 30
0.0
  0
SEQEND
  5
A1
330
99
100
AcDbEntity
  8
0
 62
   240
420
 15539236
370
    35
  0
HATCH
  5
A2
330
91
100
AcDbEntity
  8
0
 62
   240
420
 15539236
100
AcDbHatch
 10
0.0
 20
0.0
 30
0.0
210
0.0
220
0.0
230
1.0
  2
SOLID
 70
     1
 71
     0
 91
        1
 92
        1
 93
        6
 72
     1
 10
828.4633786991342
 20
613.8676756277831
 11
829.5068357301233
 21
613.8676756277831
 72
     1
 10
829.5068357301233
 20
613.8676756277831
 11
829.5068357301233
 21
606.659667817085
 72
     1
 10
829.5068357301233
 20
606.659667817085
 11
832.9609372917597
 21
606.659667817085
 72
     1
 10
832.9609372917597
 20
606.659667817085
 11
832.9609372917597
 21
605.7841795360539
 72
     1
 10
832.9609372917597
 20
605.7841795360539
 11
828.4633786991342
 21
605.7841795360539
 72
     1
 10
828.4633786991342
 20
605.7841795360539
 11
828.4633786991342
 21
613.8676756277831
 97
        0
 75
     2
 76
     1
 98
        0
  0
SPLINE
  5
A3
330
91
100
AcDbEntity
  8
0
 62
   240
420
 15539236
370
    35
100
AcDbSpline
210
0.0
220
0.0
230
1.0
 70
    11
 71
     3
 72
    47
 73
    43
 74
     0
 42
0.0000000001
 43
0.0000000001
 12
1.0
 22
0.0
 32
0.0
 13
1.0
 23
0.0
 33
0.0
 40
0.0
 40
0.0
 40
0.0
 40
0.0
 40
1.0
 40
1.0
 40
1.0
 40
2.0
 40
2.0
 40
2.0
 40
3.0
 40
3.0
 40
3.0
 40
4.0
 40
4.0
 40
4.0
 40
5.0
 40
5.0
 40
5.0
 40
6.0
 40
6.0
 40
6.0
 40
7.0
 40
7.0
 40
7.0
 40
8.0
 40
8.0
 40
8.0
 40
9.0
 40
9.0
 40
9.0
 40
10.0
 40
10.0
 40
10.0
 40
11.0
 40
11.0
 40
11.0
 40
12.0
 40
12.0
 40
12.0
 40
13.0
 40
13.0
 40
13.0
 40
14.0
 40
14.0
 40
14.0
 40
14.0
 10
833.7548826040612
 20
605.7841795360539
 30
0.0
 10
833.7548826040612
 20
605.7841795360539
 30
0.0
 10
833.7548826040612
 20
606.4316404733921
 30
0.0
 10
833.7548826040612
 20
606.4316404733921
 30
0.0
 10
833.7548826040612
 20
606.4316404733921
 30
0.0
 10
834.5825193226043
 20
607.2353514106911
 30
0.0
 10
834.5825193226043
 20
607.2353514106911
 30
0.0
 10
836.5737302596066
 20
609.1303709414674
 30
0.0
 10
837.4731443218817
 20
610.1376951599656
 30
0.0
 10
837.4848630718787
 20
611.3129881284217
 30
0.0
 10
837.4848630718787
 20
612.1044920344739
 30
0.0
 10
837.1010740094747
 20
612.8364256280408
 30
0.0
 10
835.9379880722655
 20
612.8364256280408
 30
0.0
 10
835.2299802599425
 20
612.8364256280408
 30
0.0
 10
834.6425779163393
 20
612.4765623468809
 30
0.0
 10
834.2827146351793
 20
612.1767576594558
 30
0.0
 10
834.2827146351793
 20
612.1767576594558
 30
0.0
 10
833.9467771352632
 20
612.9204100030199
 30
0.0
 10
833.9467771352632
 20
612.9204100030199
 30
0.0
 10
834.4868161976283
 20
613.375976409156
 30
0.0
 10
835.2543943224364
 20
613.711913909072
 30
0.0
 10
836.1538083847115
 20
613.711913909072
 30
0.0
 10
837.8330076030418
 20
613.711913909072
 30
0.0
 10
838.5405271341149
 20
612.5605467218599
 30
0.0
 10
838.5405271341149
 20
611.4453123471386
 30
0.0
 10
838.5405271341149
 20
610.0058592224985
 30
0.0
 10
837.4970701031257
 20
608.8422850040395
 30
0.0
 10
835.8540036972864
 20
607.2592771919352
 30
0.0
 10
835.8540036972864
 20
607.2592771919352
 30
0.0
 10
835.2299802599425
 20
606.6835935983291
 30
0.0
 10
835.2299802599425
 20
606.6835935983291
 30
0.0
 10
835.2299802599425
 20
606.6835935983291
 30
0.0
 10
835.2299802599425
 20
606.659667817085
 30
0.0
 10
835.2299802599425
 20
606.659667817085
 30
0.0
 10
835.2299802599425
 20
606.659667817085
 30
0.0
 10
838.7324216653169
 20
606.659667817085
 30
0.0
 10
838.7324216653169
 20
606.659667817085
 30
0.0
 10
838.7324216653169
 20
606.659667817085
 30
0.0
 10
838.7324216653169
 20
605.7841795360539
 30
0.0
 10
838.7324216653169
 20
605.7841795360539
 30
0.0
 10
838.7324216653169
 20
605.7841795360539
 30
0.0
 10
833.7548826040612
 20
605.7841795360539
 30
0.0
 10
833.7548826040612
 20
605.7841795360539
 30
0.0
  0
HATCH
  5
A4
330
91
100
AcDbEntity
  8
0
 62
   240
420
 15539236
100
AcDbHatch
 10
0.0
 20
0.0
 30
0.0
210
0.0
220
0.0
230
1.0
  2
SOLID
 70
     1
 71
     0
 91
        1
 92
        1
 93
        1
 72
     4
 94
        3
 73
     0
 74
     1
 95
       47
 96
       43
 40
0.0
 40
0.0
 40
0.0
 40
0.0
 40
1.0
 40
1.0
 40
1.0
 40
2.0
 40
2.0
 40
2.0
 40
3.0
 40
3.0
 40
3.0
 40
4.0
 40
4.0
 40
4.0
 40
5.0
 40
5.0
 40
5.0
 40
6.0
 40
6.0
 40
6.0
 40
7.0
 40
7.0
 40
7.0
 40
8.0
 40
8.0
 40
8.0
 40
9.0
 40
9.0
 40
9.0
 40
10.0
 40
10.0
 40
10.0
 40
11.0
 40
11.0
 40
11.0
 40
12.0
 40
12.0
 40
12.0
 40
13.0
 40
13.0
 40
13.0
 40
14.0
 40
14.0
 40
14.0
 40
14.0
 10
833.7548826040612
 20
605.7841795360539
 10
833.7548826040612
 20
605.7841795360539
 10
833.7548826040612
 20
606.4316404733921
 10
833.7548826040612
 20
606.4316404733921
 10
833.7548826040612
 20
606.4316404733921
 10
834.5825193226043
 20
607.2353514106911
 10
834.5825193226043
 20
607.2353514106911
 10
836.5737302596066
 20
609.1303709414674
 10
837.4731443218817
 20
610.1376951599656
 10
837.4848630718787
 20
611.3129881284217
 10
837.4848630718787
 20
612.1044920344739
 10
837.1010740094747
 20
612.8364256280408
 10
835.9379880722655
 20
612.8364256280408
 10
835.2299802599425
 20
612.8364256280408
 10
834.6425779163393
 20
612.4765623468809
 10
834.2827146351793
 20
612.1767576594558
 10
834.2827146351793
 20
612.1767576594558
 10
833.9467771352632
 20
612.9204100030199
 10
833.9467771352632
 20
612.9204100030199
 10
834.4868161976283
 20
613.375976409156
 10
835.2543943224364
 20
613.711913909072
 10
836.1538083847115
 20
613.711913909072
 10
837.8330076030418
 20
613.711913909072
 10
838.5405271341149
 20
612.5605467218599
 10
838.5405271341149
 20
611.4453123471386
 10
838.5405271341149
 20
610.0058592224985
 10
837.4970701031257
 20
608.8422850040395
 10
835.8540036972864
 20
607.2592771919352
 10
835.8540036972864
 20
607.2592771919352
 10
835.2299802599425
 20
606.6835935983291
 10
835.2299802599425
 20
606.6835935983291
 10
835.2299802599425
 20
606.6835935983291
 10
835.2299802599425
 20
606.659667817085
 10
835.2299802599425
 20
606.659667817085
 10
835.2299802599425
 20
606.659667817085
 10
838.7324216653169
 20
606.659667817085
 10
838.7324216653169
 20
606.659667817085
 10
838.7324216653169
 20
606.659667817085
 10
838.7324216653169
 20
605.7841795360539
 10
838.7324216653169
 20
605.7841795360539
 10
838.7324216653169
 20
605.7841795360539
 10
833.7548826040612
 20
605.7841795360539
 10
833.7548826040612
 20
605.7841795360539
 97
        0
 97
        0
 75
     2
 76
     1
 98
        0
  0
SPLINE
  5
A5
330
91
100
AcDbEntity
  8
0
 62
   240
420
 15539236
370
    35
100
AcDbSpline
210
0.0
220
0.0
230
1.0
 70
    11
 71
     3
 72
    47
 73
    43
 74
     0
 42
0.0000000001
 43
0.0000000001
 12
1.0
 22
0.0
 32
0.0
 13
1.0
 23
0.0
 33
0.0
 40
0.0
 40
0.0
 40
0.0
 40
0.0
 40
1.0
 40
1.0
 40
1.0
 40
2.0
 40
2.0
 40
2.0
 40
3.0
 40
3.0
 40
3.0
 40
4.0
 40
4.0
 40
4.0
 40
5.0
 40
5.0
 40
5.0
 40
6.0
 40
6.0
 40
6.0
 40
7.0
 40
7.0
 40
7.0
 40
8.0
 40
8.0
 40
8.0
 40
9.0
 40
9.0
 40
9.0
 40
10.0
 40
10.0
 40
10.0
 40
11.0
 40
11.0
 40
11.0
 40
12.0
 40
12.0
 40
12.0
 40
13.0
 40
13.0
 40
13.0
 40
14.0
 40
14.0
 40
14.0
 40
14.0
 10
842.6831052580792
 20
607.055663910736
 30
0.0
 10
843.1508786954622
 20
606.7675779733081
 30
0.0
 10
843.8344724452913
 20
606.527831879618
 30
0.0
 10
844.5541990076115
 20
606.527831879618
 30
0.0
 10
845.6215818198446
 20
606.527831879618
 30
0.0
 10
846.2451169759387
 20
607.0913084419772
 30
0.0
 10
846.2451169759387
 20
607.9072264105232
 30
0.0
 10
846.2451169759387
 20
608.6625975040844
 30
0.0
 10
845.8134763510466
 20
609.0942381289764
 30
0.0
 10
844.7221677575694
 20
609.5141600038714
 30
0.0
 10
843.4028318203992
 20
609.9819334412545
 30
0.0
 10
842.5874021331032
 20
610.6655271910836
 30
0.0
 10
842.5874021331032
 20
611.8046873470488
 30
0.0
 10
842.5874021331032
 20
613.063964690484
 30
0.0
 10
843.6303708828424
 20
613.9995115652501
 30
0.0
 10
845.2016599449496
 20
613.9995115652501
 30
0.0
 10
846.0292966634927
 20
613.9995115652501
 30
0.0
 10
846.6289060383427
 20
613.8076170340481
 30
0.0
 10
846.9887693195028
 20
613.6040037528489
 30
0.0
 10
846.9887693195028
 20
613.6040037528489
 30
0.0
 10
846.7006833820748
 20
612.7524412530619
 30
0.0
 10
846.7006833820748
 20
612.7524412530619
 30
0.0
 10
846.4370115071407
 20
612.8964842217758
 30
0.0
 10
845.8974607260257
 20
613.1362303154659
 30
0.0
 10
845.1655271324586
 20
613.1362303154659
 30
0.0
 10
844.0624997889844
 20
613.1362303154659
 30
0.0
 10
843.6425779140893
 20
612.4765623468809
 30
0.0
 10
843.6425779140893
 20
611.9248045345188
 30
0.0
 10
843.6425779140893
 20
611.1694334409576
 30
0.0
 10
844.1342771327164
 20
610.7973631285506
 30
0.0
 10
845.2495115074377
 20
610.3657225036585
 30
0.0
 10
846.6166990070958
 20
609.8378904725405
 30
0.0
 10
847.3124997881719
 20
609.1782225039555
 30
0.0
 10
847.3124997881719
 20
607.9912107855022
 30
0.0
 10
847.3124997881719
 20
606.743652192064
 30
0.0
 10
846.3891599446526
 20
605.664062348584
 30
0.0
 10
844.4819333826294
 20
605.664062348584
 30
0.0
 10
843.7026365078243
 20
605.664062348584
 30
0.0
 10
842.8510740080372
 20
605.892089692277
 30
0.0
 10
842.4194333831451
 20
606.180175629705
 30
0.0
 10
842.4194333831451
 20
606.180175629705
 30
0.0
 10
842.6831052580792
 20
607.055663910736
 30
0.0
 10
842.6831052580792
 20
607.055663910736
 30
0.0
  0
HATCH
  5
A6
330
91
100
AcDbEntity
  8
0
 62
   240
420
 15539236
100
AcDbHatch
 10
0.0
 20
0.0
 30
0.0
210
0.0
220
0.0
230
1.0
  2
SOLID
 70
     1
 71
     0
 91
        1
 92
        1
 93
        1
 72
     4
 94
        3
 73
     0
 74
     1
 95
       47
 96
       43
 40
0.0
 40
0.0
 40
0.0
 40
0.0
 40
1.0
 40
1.0
 40
1.0
 40
2.0
 40
2.0
 40
2.0
 40
3.0
 40
3.0
 40
3.0
 40
4.0
 40
4.0
 40
4.0
 40
5.0
 40
5.0
 40
5.0
 40
6.0
 40
6.0
 40
6.0
 40
7.0
 40
7.0
 40
7.0
 40
8.0
 40
8.0
 40
8.0
 40
9.0
 40
9.0
 40
9.0
 40
10.0
 40
10.0
 40
10.0
 40
11.0
 40
11.0
 40
11.0
 40
12.0
 40
12.0
 40
12.0
 40
13.0
 40
13.0
 40
13.0
 40
14.0
 40
14.0
 40
14.0
 40
14.0
 10
842.6831052580792
 20
607.055663910736
 10
843.1508786954622
 20
606.7675779733081
 10
843.8344724452913
 20
606.527831879618
 10
844.5541990076115
 20
606.527831879618
 10
845.6215818198446
 20
606.527831879618
 10
846.2451169759387
 20
607.0913084419772
 10
846.2451169759387
 20
607.9072264105232
 10
846.2451169759387
 20
608.6625975040844
 10
845.8134763510466
 20
609.0942381289764
 10
844.7221677575694
 20
609.5141600038714
 10
843.4028318203992
 20
609.9819334412545
 10
842.5874021331032
 20
610.6655271910836
 10
842.5874021331032
 20
611.8046873470488
 10
842.5874021331032
 20
613.063964690484
 10
843.6303708828424
 20
613.9995115652501
 10
845.2016599449496
 20
613.9995115652501
 10
846.0292966634927
 20
613.9995115652501
 10
846.6289060383427
 20
613.8076170340481
 10
846.9887693195028
 20
613.6040037528489
 10
846.9887693195028
 20
613.6040037528489
 10
846.7006833820748
 20
612.7524412530619
 10
846.7006833820748
 20
612.7524412530619
 10
846.4370115071407
 20
612.8964842217758
 10
845.8974607260257
 20
613.1362303154659
 10
845.1655271324586
 20
613.1362303154659
 10
844.0624997889844
 20
613.1362303154659
 10
843.6425779140893
 20
612.4765623468809
 10
843.6425779140893
 20
611.9248045345188
 10
843.6425779140893
 20
611.1694334409576
 10
844.1342771327164
 20
610.7973631285506
 10
845.2495115074377
 20
610.3657225036585
 10
846.6166990070958
 20
609.8378904725405
 10
847.3124997881719
 20
609.1782225039555
 10
847.3124997881719
 20
607.9912107855022
 10
847.3124997881719
 20
606.743652192064
 10
846.3891599446526
 20
605.664062348584
 10
844.4819333826294
 20
605.664062348584
 10
843.7026365078243
 20
605.664062348584
 10
842.8510740080372
 20
605.892089692277
 10
842.4194333831451
 20
606.180175629705
 10
842.4194333831451
 20
606.180175629705
 10
842.6831052580792
 20
607.055663910736
 10
842.6831052580792
 20
607.055663910736
 97
        0
 97
        0
 75
     2
 76
     1
 98
        0
  0
SPLINE
  5
A7
330
91
100
AcDbEntity
  8
0
 62
   240
420
 15539236
370
    35
100
AcDbSpline
210
0.0
220
0.0
230
1.0
 70
    11
 71
     3
 72
    56
 73
    52
 74
     0
 42
0.0000000001
 43
0.0000000001
 12
1.0
 22
0.0
 32
0.0
 13
1.0
 23
0.0
 33
0.0
 40
0.0
 40
0.0
 40
0.0
 40
0.0
 40
1.0
 40
1.0
 40
1.0
 40
2.0
 40
2.0
 40
2.0
 40
3.0
 40
3.0
 40
3.0
 40
4.0
 40
4.0
 40
4.0
 40
5.0
 40
5.0
 40
5.0
 40
6.0
 40
6.0
 40
6.0
 40
7.0
 40
7.0
 40
7.0
 40
8.0
 40
8.0
 40
8.0
 40
9.0
 40
9.0
 40
9.0
 40
10.0
 40
10.0
 40
10.0
 40
11.0
 40
11.0
 40
11.0
 40
12.0
 40
12.0
 40
12.0
 40
13.0
 40
13.0
 40
13.0
 40
14.0
 40
14.0
 40
14.0
 40
15.0
 40
15.0
 40
15.0
 40
16.0
 40
16.0
 40
16.0
 40
17.0
 40
17.0
 40
17.0
 40
17.0
 10
849.9423826000144
 20
613.255859221686
 30
0.0
 10
849.9423826000144
 20
613.255859221686
 30
0.0
 10
849.9423826000144
 20
611.5888670346028
 30
0.0
 10
849.9423826000144
 20
611.5888670346028
 30
0.0
 10
849.9423826000144
 20
611.5888670346028
 30
0.0
 10
851.4536130683866
 20
611.5888670346028
 30
0.0
 10
851.4536130683866
 20
611.5888670346028
 30
0.0
 10
851.4536130683866
 20
611.5888670346028
 30
0.0
 10
851.4536130683866
 20
610.7856443785536
 30
0.0
 10
851.4536130683866
 20
610.7856443785536
 30
0.0
 10
851.4536130683866
 20
610.7856443785536
 30
0.0
 10
849.9423826000144
 20
610.7856443785536
 30
0.0
 10
849.9423826000144
 20
610.7856443785536
 30
0.0
 10
849.9423826000144
 20
610.7856443785536
 30
0.0
 10
849.9423826000144
 20
607.6552732855862
 30
0.0
 10
849.9423826000144
 20
607.6552732855862
 30
0.0
 10
849.9423826000144
 20
606.9355467232662
 30
0.0
 10
850.1459958812135
 20
606.527831879618
 30
0.0
 10
850.7338865060665
 20
606.527831879618
 30
0.0
 10
851.0097654122476
 20
606.527831879618
 30
0.0
 10
851.2133786934467
 20
606.563964692109
 30
0.0
 10
851.3452146309137
 20
606.5996092233501
 30
0.0
 10
851.3452146309137
 20
606.5996092233501
 30
0.0
 10
851.3935544746516
 20
605.808105317298
 30
0.0
 10
851.3935544746516
 20
605.808105317298
 30
0.0
 10
851.1894529122026
 20
605.7241209423189
 30
0.0
 10
850.8657224435335
 20
605.664062348584
 30
0.0
 10
850.4580075998855
 20
605.664062348584
 30
0.0
 10
849.9663083812584
 20
605.664062348584
 30
0.0
 10
849.5703122876074
 20
605.8203123485449
 30
0.0
 10
849.3183591626704
 20
606.107910004723
 30
0.0
 10
849.0185544752453
 20
606.419921723395
 30
0.0
 10
848.9106443190224
 20
606.9355467232662
 30
0.0
 10
848.9106443190224
 20
607.6191404730952
 30
0.0
 10
848.9106443190224
 20
607.6191404730952
 30
0.0
 10
848.9106443190224
 20
610.7856443785536
 30
0.0
 10
848.9106443190224
 20
610.7856443785536
 30
0.0
 10
848.9106443190224
 20
610.7856443785536
 30
0.0
 10
848.0112302567471
 20
610.7856443785536
 30
0.0
 10
848.0112302567471
 20
610.7856443785536
 30
0.0
 10
848.0112302567471
 20
610.7856443785536
 30
0.0
 10
848.0112302567471
 20
611.5888670346028
 30
0.0
 10
848.0112302567471
 20
611.5888670346028
 30
0.0
 10
848.0112302567471
 20
611.5888670346028
 30
0.0
 10
848.9106443190224
 20
611.5888670346028
 30
0.0
 10
848.9106443190224
 20
611.5888670346028
 30
0.0
 10
848.9106443190224
 20
611.5888670346028
 30
0.0
 10
848.9106443190224
 20
612.9804685967549
 30
0.0
 10
848.9106443190224
 20
612.9804685967549
 30
0.0
 10
848.9106443190224
 20
612.9804685967549
 30
0.0
 10
849.9423826000144
 20
613.255859221686
 30
0.0
 10
849.9423826000144
 20
613.255859221686
 30
0.0
  0
HATCH
  5
A8
330
91
100
AcDbEntity
  8
0
 62
   240
420
 15539236
100
AcDbHatch
 10
0.0
 20
0.0
 30
0.0
210
0.0
220
0.0
230
1.0
  2
SOLID
 70
     1
 71
     0
 91
        1
 92
        1
 93
        1
 72
     4
 94
        3
 73
     0
 74
     1
 95
       56
 96
       52
 40
0.0
 40
0.0
 40
0.0
 40
0.0
 40
1.0
 40
1.0
 40
1.0
 40
2.0
 40
2.0
 40
2.0
 40
3.0
 40
3.0
 40
3.0
 40
4.0
 40
4.0
 40
4.0
 40
5.0
 40
5.0
 40
5.0
 40
6.0
 40
6.0
 40
6.0
 40
7.0
 40
7.0
 40
7.0
 40
8.0
 40
8.0
 40
8.0
 40
9.0
 40
9.0
 40
9.0
 40
10.0
 40
10.0
 40
10.0
 40
11.0
 40
11.0
 40
11.0
 40
12.0
 40
12.0
 40
12.0
 40
13.0
 40
13.0
 40
13.0
 40
14.0
 40
14.0
 40
14.0
 40
15.0
 40
15.0
 40
15.0
 40
16.0
 40
16.0
 40
16.0
 40
17.0
 40
17.0
 40
17.0
 40
17.0
 10
849.9423826000144
 20
613.255859221686
 10
849.9423826000144
 20
613.255859221686
 10
849.9423826000144
 20
611.5888670346028
 10
849.9423826000144
 20
611.5888670346028
 10
849.9423826000144
 20
611.5888670346028
 10
851.4536130683866
 20
611.5888670346028
 10
851.4536130683866
 20
611.5888670346028
 10
851.4536130683866
 20
611.5888670346028
 10
851.4536130683866
 20
610.7856443785536
 10
851.4536130683866
 20
610.7856443785536
 10
851.4536130683866
 20
610.7856443785536
 10
849.9423826000144
 20
610.7856443785536
 10
849.9423826000144
 20
610.7856443785536
 10
849.9423826000144
 20
610.7856443785536
 10
849.9423826000144
 20
607.6552732855862
 10
849.9423826000144
 20
607.6552732855862
 10
849.9423826000144
 20
606.9355467232662
 10
850.1459958812135
 20
606.527831879618
 10
850.7338865060665
 20
606.527831879618
 10
851.0097654122476
 20
606.527831879618
 10
851.2133786934467
 20
606.563964692109
 10
851.3452146309137
 20
606.5996092233501
 10
851.3452146309137
 20
606.5996092233501
 10
851.3935544746516
 20
605.808105317298
 10
851.3935544746516
 20
605.808105317298
 10
851.1894529122026
 20
605.7241209423189
 10
850.8657224435335
 20
605.664062348584
 10
850.4580075998855
 20
605.664062348584
 10
849.9663083812584
 20
605.664062348584
 10
849.5703122876074
 20
605.8203123485449
 10
849.3183591626704
 20
606.107910004723
 10
849.0185544752453
 20
606.419921723395
 10
848.9106443190224
 20
606.9355467232662
 10
848.9106443190224
 20
607.6191404730952
 10
848.9106443190224
 20
607.6191404730952
 10
848.9106443190224
 20
610.7856443785536
 10
848.9106443190224
 20
610.7856443785536
 10
848.9106443190224
 20
610.7856443785536
 10
848.0112302567471
 20
610.7856443785536
 10
848.0112302567471
 20
610.7856443785536
 10
848.0112302567471
 20
610.7856443785536
 10
848.0112302567471
 20
611.5888670346028
 10
848.0112302567471
 20
611.5888670346028
 10
848.0112302567471
 20
611.5888670346028
 10
848.9106443190224
 20
611.5888670346028
 10
848.9106443190224
 20
611.5888670346028
 10
848.9106443190224
 20
611.5888670346028
 10
848.9106443190224
 20
612.9804685967549
 10
848.9106443190224
 20
612.9804685967549
 10
848.9106443190224
 20
612.9804685967549
 10
849.9423826000144
 20
613.255859221686
 10
849.9423826000144
 20
613.255859221686
 97
        0
 97
        0
 75
     2
 76
     1
 98
        0
  0
SPLINE
  5
A9
330
91
100
AcDbEntity
  8
0
 62
   240
420
 15539236
370
    35
100
AcDbSpline
210
0.0
220
0.0
230
1.0
 70
    11
 71
     3
 72
    44
 73
    40
 74
     0
 42
0.0000000001
 43
0.0000000001
 12
1.0
 22
0.0
 32
0.0
 13
1.0
 23
0.0
 33
0.0
 40
0.0
 40
0.0
 40
0.0
 40
0.0
 40
1.0
 40
1.0
 40
1.0
 40
2.0
 40
2.0
 40
2.0
 40
3.0
 40
3.0
 40
3.0
 40
4.0
 40
4.0
 40
4.0
 40
5.0
 40
5.0
 40
5.0
 40
6.0
 40
6.0
 40
6.0
 40
7.0
 40
7.0
 40
7.0
 40
8.0
 40
8.0
 40
8.0
 40
9.0
 40
9.0
 40
9.0
 40
10.0
 40
10.0
 40
10.0
 40
11.0
 40
11.0
 40
11.0
 40
12.0
 40
12.0
 40
12.0
 40
13.0
 40
13.0
 40
13.0
 40
13.0
 10
852.6425779118393
 20
609.7778318788055
 30
0.0
 10
852.6425779118393
 20
610.4614256286346
 30
0.0
 10
852.6303708805924
 20
611.0493162534876
 30
0.0
 10
852.5947263493513
 20
611.5888670346028
 30
0.0
 10
852.5947263493513
 20
611.5888670346028
 30
0.0
 10
853.5180661928705
 20
611.5888670346028
 30
0.0
 10
853.5180661928705
 20
611.5888670346028
 30
0.0
 10
853.5180661928705
 20
611.5888670346028
 30
0.0
 10
853.5541990053614
 20
610.4497068786376
 30
0.0
 10
853.5541990053614
 20
610.4497068786376
 30
0.0
 10
853.5541990053614
 20
610.4497068786376
 30
0.0
 10
853.6020505678495
 20
610.4497068786376
 30
0.0
 10
853.6020505678495
 20
610.4497068786376
 30
0.0
 10
853.8657224427835
 20
611.2290037534427
 30
0.0
 10
854.5014646301246
 20
611.7207029720698
 30
0.0
 10
855.2089841611977
 20
611.7207029720698
 30
0.0
 10
855.3291013486677
 20
611.7207029720698
 30
0.0
 10
855.4130857236468
 20
611.7089842220728
 30
0.0
 10
855.5092771298727
 20
611.6850584408287
 30
0.0
 10
855.5092771298727
 20
611.6850584408287
 30
0.0
 10
855.5092771298727
 20
610.6894529723277
 30
0.0
 10
855.5092771298727
 20
610.6894529723277
 30
0.0
 10
855.4008786923997
 20
610.7133787535716
 30
0.0
 10
855.2929685361768
 20
610.7255857848186
 30
0.0
 10
855.1494138487126
 20
610.7255857848186
 30
0.0
 10
854.4057615051486
 20
610.7255857848186
 30
0.0
 10
853.8779294740305
 20
610.1616209412095
 30
0.0
 10
853.7338865053165
 20
609.3701170351575
 30
0.0
 10
853.7099607240725
 20
609.2260740664435
 30
0.0
 10
853.6860349428284
 20
609.0585935977354
 30
0.0
 10
853.6860349428284
 20
608.8784178165304
 30
0.0
 10
853.6860349428284
 20
608.8784178165304
 30
0.0
 10
853.6860349428284
 20
605.7841795360539
 30
0.0
 10
853.6860349428284
 20
605.7841795360539
 30
0.0
 10
853.6860349428284
 20
605.7841795360539
 30
0.0
 10
852.6425779118393
 20
605.7841795360539
 30
0.0
 10
852.6425779118393
 20
605.7841795360539
 30
0.0
 10
852.6425779118393
 20
605.7841795360539
 30
0.0
 10
852.6425779118393
 20
609.7778318788055
 30
0.0
 10
852.6425779118393
 20
609.7778318788055
 30
0.0
  0
HATCH
  5
AA
330
91
100
AcDbEntity
  8
0
 62
   240
420
 15539236
100
AcDbHatch
 10
0.0
 20
0.0
 30
0.0
210
0.0
220
0.0
230
1.0
  2
SOLID
 70
     1
 71
     0
 91
        1
 92
        1
 93
        1
 72
     4
 94
        3
 73
     0
 74
     1
 95
       44
 96
       40
 40
0.0
 40
0.0
 40
0.0
 40
0.0
 40
1.0
 40
1.0
 40
1.0
 40
2.0
 40
2.0
 40
2.0
 40
3.0
 40
3.0
 40
3.0
 40
4.0
 40
4.0
 40
4.0
 40
5.0
 40
5.0
 40
5.0
 40
6.0
 40
6.0
 40
6.0
 40
7.0
 40
7.0
 40
7.0
 40
8.0
 40
8.0
 40
8.0
 40
9.0
 40
9.0
 40
9.0
 40
10.0
 40
10.0
 40
10.0
 40
11.0
 40
11.0
 40
11.0
 40
12.0
 40
12.0
 40
12.0
 40
13.0
 40
13.0
 40
13.0
 40
13.0
 10
852.6425779118393
 20
609.7778318788055
 10
852.6425779118393
 20
610.4614256286346
 10
852.6303708805924
 20
611.0493162534876
 10
852.5947263493513
 20
611.5888670346028
 10
852.5947263493513
 20
611.5888670346028
 10
853.5180661928705
 20
611.5888670346028
 10
853.5180661928705
 20
611.5888670346028
 10
853.5180661928705
 20
611.5888670346028
 10
853.5541990053614
 20
610.4497068786376
 10
853.5541990053614
 20
610.4497068786376
 10
853.5541990053614
 20
610.4497068786376
 10
853.6020505678495
 20
610.4497068786376
 10
853.6020505678495
 20
610.4497068786376
 10
853.8657224427835
 20
611.2290037534427
 10
854.5014646301246
 20
611.7207029720698
 10
855.2089841611977
 20
611.7207029720698
 10
855.3291013486677
 20
611.7207029720698
 10
855.4130857236468
 20
611.7089842220728
 10
855.5092771298727
 20
611.6850584408287
 10
855.5092771298727
 20
611.6850584408287
 10
855.5092771298727
 20
610.6894529723277
 10
855.5092771298727
 20
610.6894529723277
 10
855.4008786923997
 20
610.7133787535716
 10
855.2929685361768
 20
610.7255857848186
 10
855.1494138487126
 20
610.7255857848186
 10
854.4057615051486
 20
610.7255857848186
 10
853.8779294740305
 20
610.1616209412095
 10
853.7338865053165
 20
609.3701170351575
 10
853.7099607240725
 20
609.2260740664435
 10
853.6860349428284
 20
609.0585935977354
 10
853.6860349428284
 20
608.8784178165304
 10
853.6860349428284
 20
608.8784178165304
 10
853.6860349428284
 20
605.7841795360539
 10
853.6860349428284
 20
605.7841795360539
 10
853.6860349428284
 20
605.7841795360539
 10
852.6425779118393
 20
605.7841795360539
 10
852.6425779118393
 20
605.7841795360539
 10
852.6425779118393
 20
605.7841795360539
 10
852.6425779118393
 20
609.7778318788055
 10
852.6425779118393
 20
609.7778318788055
 97
        0
 97
        0
 75
     2
 76
     1
 98
        0
  0
SPLINE
  5
AB
330
91
100
AcDbEntity
  8
0
 62
   240
420
 15539236
370
    35
100
AcDbSpline
210
0.0
220
0.0
230
1.0
 70
    11
 71
     3
 72
    47
 73
    43
 74
     0
 42
0.0000000001
 43
0.0000000001
 12
1.0
 22
0.0
 32
0.0
 13
1.0
 23
0.0
 33
0.0
 40
0.0
 40
0.0
 40
0.0
 40
0.0
 40
1.0
 40
1.0
 40
1.0
 40
2.0
 40
2.0
 40
2.0
 40
3.0
 40
3.0
 40
3.0
 40
4.0
 40
4.0
 40
4.0
 40
5.0
 40
5.0
 40
5.0
 40
6.0
 40
6.0
 40
6.0
 40
7.0
 40
7.0
 40
7.0
 40
8.0
 40
8.0
 40
8.0
 40
9.0
 40
9.0
 40
9.0
 40
10.0
 40
10.0
 40
10.0
 40
11.0
 40
11.0
 40
11.0
 40
12.0
 40
12.0
 40
12.0
 40
13.0
 40
13.0
 40
13.0
 40
14.0
 40
14.0
 40
14.0
 40
14.0
 10
859.7211911913197
 20
605.7841795360539
 30
0.0
 10
859.7211911913197
 20
605.7841795360539
 30
0.0
 10
859.6372068163407
 20
606.5156248483711
 30
0.0
 10
859.6372068163407
 20
606.5156248483711
 30
0.0
 10
859.6372068163407
 20
606.5156248483711
 30
0.0
 10
859.6010740038497
 20
606.5156248483711
 30
0.0
 10
859.6010740038497
 20
606.5156248483711
 30
0.0
 10
859.2773435351806
 20
606.060058442235
 30
0.0
 10
858.6538083790865
 20
605.6523435985869
 30
0.0
 10
857.8261716605434
 20
605.6523435985869
 30
0.0
 10
856.6508786920873
 20
605.6523435985869
 30
0.0
 10
856.0512693172371
 20
606.47998031713
 30
0.0
 10
856.0512693172371
 20
607.3193357856702
 30
0.0
 10
856.0512693172371
 20
608.7226560978194
 30
0.0
 10
857.2983396294254
 20
609.4902342226275
 30
0.0
 10
859.5410154101147
 20
609.4780271913805
 30
0.0
 10
859.5410154101147
 20
609.4780271913805
 30
0.0
 10
859.5410154101147
 20
609.5981443788504
 30
0.0
 10
859.5410154101147
 20
609.5981443788504
 30
0.0
 10
859.5410154101147
 20
610.0776365662306
 30
0.0
 10
859.4091794726477
 20
610.9414060972647
 30
0.0
 10
858.2221677541944
 20
610.9414060972647
 30
0.0
 10
857.6821286918295
 20
610.9414060972647
 30
0.0
 10
857.1186521294703
 20
610.7734373473066
 30
0.0
 10
856.7109372858223
 20
610.5097654723726
 30
0.0
 10
856.7109372858223
 20
610.5097654723726
 30
0.0
 10
856.4707029108823
 20
611.2050779721988
 30
0.0
 10
856.4707029108823
 20
611.2050779721988
 30
0.0
 10
856.9506833795123
 20
611.5170896908708
 30
0.0
 10
857.6459958793384
 20
611.7207029720698
 30
0.0
 10
858.3779294729055
 20
611.7207029720698
 30
0.0
 10
860.1528318162118
 20
611.7207029720698
 30
0.0
 10
860.5844724411039
 20
610.5097654723726
 30
0.0
 10
860.5844724411039
 20
609.3461912539134
 30
0.0
 10
860.5844724411039
 20
609.3461912539134
 30
0.0
 10
860.5844724411039
 20
607.1752928169561
 30
0.0
 10
860.5844724411039
 20
607.1752928169561
 30
0.0
 10
860.5844724411039
 20
606.671874848332
 30
0.0
 10
860.6083982223479
 20
606.180175629705
 30
0.0
 10
860.6806638473298
 20
605.7841795360539
 30
0.0
 10
860.6806638473298
 20
605.7841795360539
 30
0.0
 10
859.7211911913197
 20
605.7841795360539
 30
0.0
 10
859.7211911913197
 20
605.7841795360539
 30
0.0
  0
SPLINE
  5
AC
330
91
100
AcDbEntity
  8
0
 62
   240
420
 15539236
370
    35
100
AcDbSpline
210
0.0
220
0.0
230
1.0
 70
    11
 71
     3
 72
    20
 73
    16
 74
     0
 42
0.0000000001
 43
0.0000000001
 12
1.0
 22
0.0
 32
0.0
 13
1.0
 23
0.0
 33
0.0
 40
0.0
 40
0.0
 40
0.0
 40
0.0
 40
1.0
 40
1.0
 40
1.0
 40
2.0
 40
2.0
 40
2.0
 40
3.0
 40
3.0
 40
3.0
 40
4.0
 40
4.0
 40
4.0
 40
5.0
 40
5.0
 40
5.0
 40
5.0
 10
859.5649411913588
 20
608.7465818790633
 30
0.0
 10
858.4135740041465
 20
608.7705076603073
 30
0.0
 10
857.1064450982234
 20
608.5664060978584
 30
0.0
 10
857.1064450982234
 20
607.4394529731401
 30
0.0
 10
857.1064450982234
 20
606.7558592233111
 30
0.0
 10
857.5624997856094
 20
606.4316404733921
 30
0.0
 10
858.1020505667244
 20
606.4316404733921
 30
0.0
 10
858.8574216602856
 20
606.4316404733921
 30
0.0
 10
859.3374021289156
 20
606.9116209420221
 30
0.0
 10
859.5053708788737
 20
607.4033201606492
 30
0.0
 10
859.5410154101147
 20
607.5112303168722
 30
0.0
 10
859.5649411913588
 20
607.6313475043421
 30
0.0
 10
859.5649411913588
 20
607.7392576605652
 30
0.0
 10
859.5649411913588
 20
607.7392576605652
 30
0.0
 10
859.5649411913588
 20
608.7465818790633
 30
0.0
 10
859.5649411913588
 20
608.7465818790633
 30
0.0
  0
HATCH
  5
AD
330
91
100
AcDbEntity
  8
0
 62
   240
420
 15539236
100
AcDbHatch
 10
0.0
 20
0.0
 30
0.0
210
0.0
220
0.0
230
1.0
  2
SOLID
 70
     1
 71
     0
 91
        2
 92
        1
 93
        1
 72
     4
 94
        3
 73
     0
 74
     1
 95
       47
 96
       43
 40
0.0
 40
0.0
 40
0.0
 40
0.0
 40
1.0
 40
1.0
 40
1.0
 40
2.0
 40
2.0
 40
2.0
 40
3.0
 40
3.0
 40
3.0
 40
4.0
 40
4.0
 40
4.0
 40
5.0
 40
5.0
 40
5.0
 40
6.0
 40
6.0
 40
6.0
 40
7.0
 40
7.0
 40
7.0
 40
8.0
 40
8.0
 40
8.0
 40
9.0
 40
9.0
 40
9.0
 40
10.0
 40
10.0
 40
10.0
 40
11.0
 40
11.0
 40
11.0
 40
12.0
 40
12.0
 40
12.0
 40
13.0
 40
13.0
 40
13.0
 40
14.0
 40
14.0
 40
14.0
 40
14.0
 10
859.7211911913197
 20
605.7841795360539
 10
859.7211911913197
 20
605.7841795360539
 10
859.6372068163407
 20
606.5156248483711
 10
859.6372068163407
 20
606.5156248483711
 10
859.6372068163407
 20
606.5156248483711
 10
859.6010740038497
 20
606.5156248483711
 10
859.6010740038497
 20
606.5156248483711
 10
859.2773435351806
 20
606.060058442235
 10
858.6538083790865
 20
605.6523435985869
 10
857.8261716605434
 20
605.6523435985869
 10
856.6508786920873
 20
605.6523435985869
 10
856.0512693172371
 20
606.47998031713
 10
856.0512693172371
 20
607.3193357856702
 10
856.0512693172371
 20
608.7226560978194
 10
857.2983396294254
 20
609.4902342226275
 10
859.5410154101147
 20
609.4780271913805
 10
859.5410154101147
 20
609.4780271913805
 10
859.5410154101147
 20
609.5981443788504
 10
859.5410154101147
 20
609.5981443788504
 10
859.5410154101147
 20
610.0776365662306
 10
859.4091794726477
 20
610.9414060972647
 10
858.2221677541944
 20
610.9414060972647
 10
857.6821286918295
 20
610.9414060972647
 10
857.1186521294703
 20
610.7734373473066
 10
856.7109372858223
 20
610.5097654723726
 10
856.7109372858223
 20
610.5097654723726
 10
856.4707029108823
 20
611.2050779721988
 10
856.4707029108823
 20
611.2050779721988
 10
856.9506833795123
 20
611.5170896908708
 10
857.6459958793384
 20
611.7207029720698
 10
858.3779294729055
 20
611.7207029720698
 10
860.1528318162118
 20
611.7207029720698
 10
860.5844724411039
 20
610.5097654723726
 10
860.5844724411039
 20
609.3461912539134
 10
860.5844724411039
 20
609.3461912539134
 10
860.5844724411039
 20
607.1752928169561
 10
860.5844724411039
 20
607.1752928169561
 10
860.5844724411039
 20
606.671874848332
 10
860.6083982223479
 20
606.180175629705
 10
860.6806638473298
 20
605.7841795360539
 10
860.6806638473298
 20
605.7841795360539
 10
859.7211911913197
 20
605.7841795360539
 10
859.7211911913197
 20
605.7841795360539
 97
        0
 97
        0
 92
        1
 93
        1
 72
     4
 94
        3
 73
     0
 74
     1
 95
       20
 96
       16
 40
0.0
 40
0.0
 40
0.0
 40
0.0
 40
1.0
 40
1.0
 40
1.0
 40
2.0
 40
2.0
 40
2.0
 40
3.0
 40
3.0
 40
3.0
 40
4.0
 40
4.0
 40
4.0
 40
5.0
 40
5.0
 40
5.0
 40
5.0
 10
859.5649411913588
 20
608.7465818790633
 10
858.4135740041465
 20
608.7705076603073
 10
857.1064450982234
 20
608.5664060978584
 10
857.1064450982234
 20
607.4394529731401
 10
857.1064450982234
 20
606.7558592233111
 10
857.5624997856094
 20
606.4316404733921
 10
858.1020505667244
 20
606.4316404733921
 10
858.8574216602856
 20
606.4316404733921
 10
859.3374021289156
 20
606.9116209420221
 10
859.5053708788737
 20
607.4033201606492
 10
859.5410154101147
 20
607.5112303168722
 10
859.5649411913588
 20
607.6313475043421
 10
859.5649411913588
 20
607.7392576605652
 10
859.5649411913588
 20
607.7392576605652
 10
859.5649411913588
 20
608.7465818790633
 10
859.5649411913588
 20
608.7465818790633
 97
        0
 97
        0
 75
     2
 76
     1
 98
        0
  0
SPLINE
  5
AE
330
91
100
AcDbEntity
  8
0
 62
   240
420
 15539236
370
    35
100
AcDbSpline
210
0.0
220
0.0
230
1.0
 70
    11
 71
     3
 72
    17
 73
    13
 74
     0
 42
0.0000000001
 43
0.0000000001
 12
1.0
 22
0.0
 32
0.0
 13
1.0
 23
0.0
 33
0.0
 40
0.0
 40
0.0
 40
0.0
 40
0.0
 40
1.0
 40
1.0
 40
1.0
 40
2.0
 40
2.0
 40
2.0
 40
3.0
 40
3.0
 40
3.0
 40
4.0
 40
4.0
 40
4.0
 40
4.0
 10
863.4663083778834
 20
613.2202146904449
 30
0.0
 10
863.4785154091304
 20
612.8603514092849
 30
0.0
 10
863.2143552529463
 20
612.5722654718569
 30
0.0
 10
862.7949216593013
 20
612.5722654718569
 30
0.0
 10
862.4228513468943
 20
612.5722654718569
 30
0.0
 10
862.1591794719602
 20
612.8603514092849
 30
0.0
 10
862.1591794719602
 20
613.2202146904449
 30
0.0
 10
862.1591794719602
 20
613.591796721602
 30
0.0
 10
862.4350583781412
 20
613.87988265903
 30
0.0
 10
862.8188474405453
 20
613.87988265903
 30
0.0
 10
863.2143552529463
 20
613.87988265903
 30
0.0
 10
863.4663083778834
 20
613.591796721602
 30
0.0
 10
863.4663083778834
 20
613.2202146904449
 30
0.0
  0
POLYLINE
  5
AF
330
91
100
AcDbEntity
  8
0
 62
   240
420
 15539236
370
    35
100
AcDb2dPolyline
 66
     1
 10
0.0
 20
0.0
 30
0.0
  0
VERTEX
  5
B0
330
AF
100
AcDbEntity
  8
0
 62
   240
420
 15539236
370
    35
100
AcDbVertex
100
AcDb2dVertex
 10
862.2910154094272
 20
605.7841795360539
 30
0.0
  0
VERTEX
  5
B1
330
AF
100
AcDbEntity
  8
0
 62
   240
420
 15539236
370
    35
100
AcDbVertex
100
AcDb2dVertex
 10
862.2910154094272
 20
611.5888670346028
 30
0.0
  0
VERTEX
  5
B2
330
AF
100
AcDbEntity
  8
0
 62
   240
420
 15539236
370
    35
100
AcDbVertex
100
AcDb2dVertex
 10
863.3466794716633
 20
611.5888670346028
 30
0.0
  0
VERTEX
  5
B3
330
AF
100
AcDbEntity
  8
0
 62
   240
420
 15539236
370
    35
100
AcDbVertex
100
AcDb2dVertex
 10
863.3466794716633
 20
605.7841795360539
 30
0.0
  0
VERTEX
  5
B4
330
AF
100
AcDbEntity
  8
0
 62
   240
420
 15539236
370
    35
100
AcDbVertex
100
AcDb2dVertex
 10
862.2910154094272
 20
605.7841795360539
 30
0.0
  0
SEQEND
  5
B5
330
AF
100
AcDbEntity
  8
0
 62
   240
420
 15539236
370
    35
  0
HATCH
  5
B6
330
91
100
AcDbEntity
  8
0
 62
   240
420
 15539236
100
AcDbHatch
 10
0.0
 20
0.0
 30
0.0
210
0.0
220
0.0
230
1.0
  2
SOLID
 70
     1
 71
     0
 91
        2
 92
        1
 93
        1
 72
     4
 94
        3
 73
     0
 74
     1
 95
       17
 96
       13
 40
0.0
 40
0.0
 40
0.0
 40
0.0
 40
1.0
 40
1.0
 40
1.0
 40
2.0
 40
2.0
 40
2.0
 40
3.0
 40
3.0
 40
3.0
 40
4.0
 40
4.0
 40
4.0
 40
4.0
 10
863.4663083778834
 20
613.2202146904449
 10
863.4785154091304
 20
612.8603514092849
 10
863.2143552529463
 20
612.5722654718569
 10
862.7949216593013
 20
612.5722654718569
 10
862.4228513468943
 20
612.5722654718569
 10
862.1591794719602
 20
612.8603514092849
 10
862.1591794719602
 20
613.2202146904449
 10
862.1591794719602
 20
613.591796721602
 10
862.4350583781412
 20
613.87988265903
 10
862.8188474405453
 20
613.87988265903
 10
863.2143552529463
 20
613.87988265903
 10
863.4663083778834
 20
613.591796721602
 10
863.4663083778834
 20
613.2202146904449
 97
        0
 97
        0
 92
        1
 93
        4
 72
     1
 10
862.2910154094272
 20
605.7841795360539
 11
862.2910154094272
 21
611.5888670346028
 72
     1
 10
862.2910154094272
 20
611.5888670346028
 11
863.3466794716633
 21
611.5888670346028
 72
     1
 10
863.3466794716633
 20
611.5888670346028
 11
863.3466794716633
 21
605.7841795360539
 72
     1
 10
863.3466794716633
 20
605.7841795360539
 11
862.2910154094272
 21
605.7841795360539
 97
        0
 75
     2
 76
     1
 98
        0
  0
SPLINE
  5
B7
330
91
100
AcDbEntity
  8
0
 62
   240
420
 15539236
370
    35
100
AcDbSpline
210
0.0
220
0.0
230
1.0
 70
    11
 71
     3
 72
    56
 73
    52
 74
     0
 42
0.0000000001
 43
0.0000000001
 12
1.0
 22
0.0
 32
0.0
 13
1.0
 23
0.0
 33
0.0
 40
0.0
 40
0.0
 40
0.0
 40
0.0
 40
1.0
 40
1.0
 40
1.0
 40
2.0
 40
2.0
 40
2.0
 40
3.0
 40
3.0
 40
3.0
 40
4.0
 40
4.0
 40
4.0
 40
5.0
 40
5.0
 40
5.0
 40
6.0
 40
6.0
 40
6.0
 40
7.0
 40
7.0
 40
7.0
 40
8.0
 40
8.0
 40
8.0
 40
9.0
 40
9.0
 40
9.0
 40
10.0
 40
10.0
 40
10.0
 40
11.0
 40
11.0
 40
11.0
 40
12.0
 40
12.0
 40
12.0
 40
13.0
 40
13.0
 40
13.0
 40
14.0
 40
14.0
 40
14.0
 40
15.0
 40
15.0
 40
15.0
 40
16.0
 40
16.0
 40
16.0
 40
17.0
 40
17.0
 40
17.0
 40
17.0
 10
870.1000974387249
 20
611.5888670346028
 30
0.0
 10
870.075683376231
 20
611.1694334409576
 30
0.0
 10
870.0517575949871
 20
610.7016600035746
 30
0.0
 10
870.0517575949871
 20
609.9936521912516
 30
0.0
 10
870.0517575949871
 20
609.9936521912516
 30
0.0
 10
870.0517575949871
 20
606.6235350045941
 30
0.0
 10
870.0517575949871
 20
606.6235350045941
 30
0.0
 10
870.0517575949871
 20
605.2924803174269
 30
0.0
 10
869.788085720053
 20
604.4770506301307
 30
0.0
 10
869.2246091576939
 20
603.9731443802567
 30
0.0
 10
868.6606443140848
 20
603.4453123491387
 30
0.0
 10
867.8452146267887
 20
603.2773435991807
 30
0.0
 10
867.1137693144715
 20
603.2773435991807
 30
0.0
 10
866.4179685333955
 20
603.2773435991807
 30
0.0
 10
865.6503904085874
 20
603.4453123491387
 30
0.0
 10
865.1826169712043
 20
603.7573240678106
 30
0.0
 10
865.1826169712043
 20
603.7573240678106
 30
0.0
 10
865.4462888461384
 20
604.5610350051097
 30
0.0
 10
865.4462888461384
 20
604.5610350051097
 30
0.0
 10
865.8300779085424
 20
604.3208006301697
 30
0.0
 10
866.4301755646425
 20
604.1049803177237
 30
0.0
 10
867.1494138457126
 20
604.1049803177237
 30
0.0
 10
868.2290036891927
 20
604.1049803177237
 30
0.0
 10
869.0205075952449
 20
604.6689451613328
 30
0.0
 10
869.0205075952449
 20
606.131835785967
 30
0.0
 10
869.0205075952449
 20
606.131835785967
 30
0.0
 10
869.0205075952449
 20
606.779785004555
 30
0.0
 10
869.0205075952449
 20
606.779785004555
 30
0.0
 10
869.0205075952449
 20
606.779785004555
 30
0.0
 10
868.9965818140008
 20
606.779785004555
 30
0.0
 10
868.9965818140008
 20
606.779785004555
 30
0.0
 10
868.6728513453318
 20
606.2397459421901
 30
0.0
 10
868.0488279079877
 20
605.808105317298
 30
0.0
 10
867.1494138457126
 20
605.808105317298
 30
0.0
 10
865.7104490023223
 20
605.808105317298
 30
0.0
 10
864.6787107213303
 20
607.0312498482422
 30
0.0
 10
864.6787107213303
 20
608.6386717228403
 30
0.0
 10
864.6787107213303
 20
610.6054685973486
 30
0.0
 10
865.9624021272593
 20
611.7207029720698
 30
0.0
 10
867.2934568144266
 20
611.7207029720698
 30
0.0
 10
868.3007810329248
 20
611.7207029720698
 30
0.0
 10
868.8525388452869
 20
611.1933592222016
 30
0.0
 10
869.1044919702239
 20
610.7133787535716
 30
0.0
 10
869.1044919702239
 20
610.7133787535716
 30
0.0
 10
869.1284177514679
 20
610.7133787535716
 30
0.0
 10
869.1284177514679
 20
610.7133787535716
 30
0.0
 10
869.1284177514679
 20
610.7133787535716
 30
0.0
 10
869.1762693139559
 20
611.5888670346028
 30
0.0
 10
869.1762693139559
 20
611.5888670346028
 30
0.0
 10
869.1762693139559
 20
611.5888670346028
 30
0.0
 10
870.1000974387249
 20
611.5888670346028
 30
0.0
 10
870.1000974387249
 20
611.5888670346028
 30
0.0
  0
SPLINE
  5
B8
330
91
100
AcDbEntity
  8
0
 62
   240
420
 15539236
370
    35
100
AcDbSpline
210
0.0
220
0.0
230
1.0
 70
    11
 71
     3
 72
    26
 73
    22
 74
     0
 42
0.0000000001
 43
0.0000000001
 12
1.0
 22
0.0
 32
0.0
 13
1.0
 23
0.0
 33
0.0
 40
0.0
 40
0.0
 40
0.0
 40
0.0
 40
1.0
 40
1.0
 40
1.0
 40
2.0
 40
2.0
 40
2.0
 40
3.0
 40
3.0
 40
3.0
 40
4.0
 40
4.0
 40
4.0
 40
5.0
 40
5.0
 40
5.0
 40
6.0
 40
6.0
 40
6.0
 40
7.0
 40
7.0
 40
7.0
 40
7.0
 10
869.0083005639979
 20
609.2983396914254
 30
0.0
 10
869.0083005639979
 20
609.4780271913805
 30
0.0
 10
868.9965818140008
 20
609.6342771913414
 30
0.0
 10
868.9487302515128
 20
609.7778318788055
 30
0.0
 10
868.7568357203107
 20
610.3896482849026
 30
0.0
 10
868.2407224391898
 20
610.8935545347766
 30
0.0
 10
867.4731443143817
 20
610.8935545347766
 30
0.0
 10
866.4658200958835
 20
610.8935545347766
 30
0.0
 10
865.7460935335635
 20
610.0419920349894
 30
0.0
 10
865.7460935335635
 20
608.6987303165753
 30
0.0
 10
865.7460935335635
 20
607.5590818793602
 30
0.0
 10
866.3217771271695
 20
606.611816254597
 30
0.0
 10
867.4614255643846
 20
606.611816254597
 30
0.0
 10
868.1088865017227
 20
606.611816254597
 30
0.0
 10
868.6967771265757
 20
607.0195310982451
 30
0.0
 10
868.9243161890189
 20
607.6909178168272
 30
0.0
 10
868.9843747827539
 20
607.8710935980322
 30
0.0
 10
869.0083005639979
 20
608.0747068792313
 30
0.0
 10
869.0083005639979
 20
608.2548826604362
 30
0.0
 10
869.0083005639979
 20
608.2548826604362
 30
0.0
 10
869.0083005639979
 20
609.2983396914254
 30
0.0
 10
869.0083005639979
 20
609.2983396914254
 30
0.0
  0
HATCH
  5
B9
330
91
100
AcDbEntity
  8
0
 62
   240
420
 15539236
100
AcDbHatch
 10
0.0
 20
0.0
 30
0.0
210
0.0
220
0.0
230
1.0
  2
SOLID
 70
     1
 71
     0
 91
        2
 92
        1
 93
        1
 72
     4
 94
        3
 73
     0
 74
     1
 95
       56
 96
       52
 40
0.0
 40
0.0
 40
0.0
 40
0.0
 40
1.0
 40
1.0
 40
1.0
 40
2.0
 40
2.0
 40
2.0
 40
3.0
 40
3.0
 40
3.0
 40
4.0
 40
4.0
 40
4.0
 40
5.0
 40
5.0
 40
5.0
 40
6.0
 40
6.0
 40
6.0
 40
7.0
 40
7.0
 40
7.0
 40
8.0
 40
8.0
 40
8.0
 40
9.0
 40
9.0
 40
9.0
 40
10.0
 40
10.0
 40
10.0
 40
11.0
 40
11.0
 40
11.0
 40
12.0
 40
12.0
 40
12.0
 40
13.0
 40
13.0
 40
13.0
 40
14.0
 40
14.0
 40
14.0
 40
15.0
 40
15.0
 40
15.0
 40
16.0
 40
16.0
 40
16.0
 40
17.0
 40
17.0
 40
17.0
 40
17.0
 10
870.1000974387249
 20
611.5888670346028
 10
870.075683376231
 20
611.1694334409576
 10
870.0517575949871
 20
610.7016600035746
 10
870.0517575949871
 20
609.9936521912516
 10
870.0517575949871
 20
609.9936521912516
 10
870.0517575949871
 20
606.6235350045941
 10
870.0517575949871
 20
606.6235350045941
 10
870.0517575949871
 20
605.2924803174269
 10
869.788085720053
 20
604.4770506301307
 10
869.2246091576939
 20
603.9731443802567
 10
868.6606443140848
 20
603.4453123491387
 10
867.8452146267887
 20
603.2773435991807
 10
867.1137693144715
 20
603.2773435991807
 10
866.4179685333955
 20
603.2773435991807
 10
865.6503904085874
 20
603.4453123491387
 10
865.1826169712043
 20
603.7573240678106
 10
865.1826169712043
 20
603.7573240678106
 10
865.4462888461384
 20
604.5610350051097
 10
865.4462888461384
 20
604.5610350051097
 10
865.8300779085424
 20
604.3208006301697
 10
866.4301755646425
 20
604.1049803177237
 10
867.1494138457126
 20
604.1049803177237
 10
868.2290036891927
 20
604.1049803177237
 10
869.0205075952449
 20
604.6689451613328
 10
869.0205075952449
 20
606.131835785967
 10
869.0205075952449
 20
606.131835785967
 10
869.0205075952449
 20
606.779785004555
 10
869.0205075952449
 20
606.779785004555
 10
869.0205075952449
 20
606.779785004555
 10
868.9965818140008
 20
606.779785004555
 10
868.9965818140008
 20
606.779785004555
 10
868.6728513453318
 20
606.2397459421901
 10
868.0488279079877
 20
605.808105317298
 10
867.1494138457126
 20
605.808105317298
 10
865.7104490023223
 20
605.808105317298
 10
864.6787107213303
 20
607.0312498482422
 10
864.6787107213303
 20
608.6386717228403
 10
864.6787107213303
 20
610.6054685973486
 10
865.9624021272593
 20
611.7207029720698
 10
867.2934568144266
 20
611.7207029720698
 10
868.3007810329248
 20
611.7207029720698
 10
868.8525388452869
 20
611.1933592222016
 10
869.1044919702239
 20
610.7133787535716
 10
869.1044919702239
 20
610.7133787535716
 10
869.1284177514679
 20
610.7133787535716
 10
869.1284177514679
 20
610.7133787535716
 10
869.1284177514679
 20
610.7133787535716
 10
869.1762693139559
 20
611.5888670346028
 10
869.1762693139559
 20
611.5888670346028
 10
869.1762693139559
 20
611.5888670346028
 10
870.1000974387249
 20
611.5888670346028
 10
870.1000974387249
 20
611.5888670346028
 97
        0
 97
        0
 92
        1
 93
        1
 72
     4
 94
        3
 73
     0
 74
     1
 95
       26
 96
       22
 40
0.0
 40
0.0
 40
0.0
 40
0.0
 40
1.0
 40
1.0
 40
1.0
 40
2.0
 40
2.0
 40
2.0
 40
3.0
 40
3.0
 40
3.0
 40
4.0
 40
4.0
 40
4.0
 40
5.0
 40
5.0
 40
5.0
 40
6.0
 40
6.0
 40
6.0
 40
7.0
 40
7.0
 40
7.0
 40
7.0
 10
869.0083005639979
 20
609.2983396914254
 10
869.0083005639979
 20
609.4780271913805
 10
868.9965818140008
 20
609.6342771913414
 10
868.9487302515128
 20
609.7778318788055
 10
868.7568357203107
 20
610.3896482849026
 10
868.2407224391898
 20
610.8935545347766
 10
867.4731443143817
 20
610.8935545347766
 10
866.4658200958835
 20
610.8935545347766
 10
865.7460935335635
 20
610.0419920349894
 10
865.7460935335635
 20
608.6987303165753
 10
865.7460935335635
 20
607.5590818793602
 10
866.3217771271695
 20
606.611816254597
 10
867.4614255643846
 20
606.611816254597
 10
868.1088865017227
 20
606.611816254597
 10
868.6967771265757
 20
607.0195310982451
 10
868.9243161890189
 20
607.6909178168272
 10
868.9843747827539
 20
607.8710935980322
 10
869.0083005639979
 20
608.0747068792313
 10
869.0083005639979
 20
608.2548826604362
 10
869.0083005639979
 20
608.2548826604362
 10
869.0083005639979
 20
609.2983396914254
 10
869.0083005639979
 20
609.2983396914254
 97
        0
 97
        0
 75
     2
 76
     1
 98
        0
  0
SPLINE
  5
BA
330
91
100
AcDbEntity
  8
0
 62
   240
420
 15539236
370
    35
100
AcDbSpline
210
0.0
220
0.0
230
1.0
 70
    11
 71
     3
 72
    50
 73
    46
 74
     0
 42
0.0000000001
 43
0.0000000001
 12
1.0
 22
0.0
 32
0.0
 13
1.0
 23
0.0
 33
0.0
 40
0.0
 40
0.0
 40
0.0
 40
0.0
 40
1.0
 40
1.0
 40
1.0
 40
2.0
 40
2.0
 40
2.0
 40
3.0
 40
3.0
 40
3.0
 40
4.0
 40
4.0
 40
4.0
 40
5.0
 40
5.0
 40
5.0
 40
6.0
 40
6.0
 40
6.0
 40
7.0
 40
7.0
 40
7.0
 40
8.0
 40
8.0
 40
8.0
 40
9.0
 40
9.0
 40
9.0
 40
10.0
 40
10.0
 40
10.0
 40
11.0
 40
11.0
 40
11.0
 40
12.0
 40
12.0
 40
12.0
 40
13.0
 40
13.0
 40
13.0
 40
14.0
 40
14.0
 40
14.0
 40
15.0
 40
15.0
 40
15.0
 40
15.0
 10
871.8066404070483
 20
614.2993162526751
 30
0.0
 10
871.8066404070483
 20
614.2993162526751
 30
0.0
 10
872.8623044692844
 20
614.2993162526751
 30
0.0
 10
872.8623044692844
 20
614.2993162526751
 30
0.0
 10
872.8623044692844
 20
614.2993162526751
 30
0.0
 10
872.8623044692844
 20
610.6777342223305
 30
0.0
 10
872.8623044692844
 20
610.6777342223305
 30
0.0
 10
872.8623044692844
 20
610.6777342223305
 30
0.0
 10
872.8862302505285
 20
610.6777342223305
 30
0.0
 10
872.8862302505285
 20
610.6777342223305
 30
0.0
 10
873.0541990004864
 20
610.9775389097556
 30
0.0
 10
873.3178708754206
 20
611.2412107846897
 30
0.0
 10
873.6416013440896
 20
611.4208982846447
 30
0.0
 10
873.9536130627616
 20
611.6010740658497
 30
0.0
 10
874.3251950939186
 20
611.7207029720698
 30
0.0
 10
874.7211911875697
 20
611.7207029720698
 30
0.0
 10
875.5004880623749
 20
611.7207029720698
 30
0.0
 10
876.7480466558129
 20
611.2412107846897
 30
0.0
 10
876.7480466558129
 20
609.2382810976904
 30
0.0
 10
876.7480466558129
 20
609.2382810976904
 30
0.0
 10
876.7480466558129
 20
605.7841795360539
 30
0.0
 10
876.7480466558129
 20
605.7841795360539
 30
0.0
 10
876.7480466558129
 20
605.7841795360539
 30
0.0
 10
875.6923825935769
 20
605.7841795360539
 30
0.0
 10
875.6923825935769
 20
605.7841795360539
 30
0.0
 10
875.6923825935769
 20
605.7841795360539
 30
0.0
 10
875.6923825935769
 20
609.1181639102205
 30
0.0
 10
875.6923825935769
 20
609.1181639102205
 30
0.0
 10
875.6923825935769
 20
610.0537107849866
 30
0.0
 10
875.3447263436638
 20
610.8452146910387
 30
0.0
 10
874.3491208751627
 20
610.8452146910387
 30
0.0
 10
873.6655271253336
 20
610.8452146910387
 30
0.0
 10
873.1259763442185
 20
610.3657225036585
 30
0.0
 10
872.9340818130164
 20
609.7900389100524
 30
0.0
 10
872.8740232192815
 20
609.6459959413385
 30
0.0
 10
872.8623044692844
 20
609.4902342226275
 30
0.0
 10
872.8623044692844
 20
609.2861326601785
 30
0.0
 10
872.8623044692844
 20
609.2861326601785
 30
0.0
 10
872.8623044692844
 20
605.7841795360539
 30
0.0
 10
872.8623044692844
 20
605.7841795360539
 30
0.0
 10
872.8623044692844
 20
605.7841795360539
 30
0.0
 10
871.8066404070483
 20
605.7841795360539
 30
0.0
 10
871.8066404070483
 20
605.7841795360539
 30
0.0
 10
871.8066404070483
 20
605.7841795360539
 30
0.0
 10
871.8066404070483
 20
614.2993162526751
 30
0.0
 10
871.8066404070483
 20
614.2993162526751
 30
0.0
  0
HATCH
  5
BB
330
91
100
AcDbEntity
  8
0
 62
   240
420
 15539236
100
AcDbHatch
 10
0.0
 20
0.0
 30
0.0
210
0.0
220
0.0
230
1.0
  2
SOLID
 70
     1
 71
     0
 91
        1
 92
        1
 93
        1
 72
     4
 94
        3
 73
     0
 74
     1
 95
       50
 96
       46
 40
0.0
 40
0.0
 40
0.0
 40
0.0
 40
1.0
 40
1.0
 40
1.0
 40
2.0
 40
2.0
 40
2.0
 40
3.0
 40
3.0
 40
3.0
 40
4.0
 40
4.0
 40
4.0
 40
5.0
 40
5.0
 40
5.0
 40
6.0
 40
6.0
 40
6.0
 40
7.0
 40
7.0
 40
7.0
 40
8.0
 40
8.0
 40
8.0
 40
9.0
 40
9.0
 40
9.0
 40
10.0
 40
10.0
 40
10.0
 40
11.0
 40
11.0
 40
11.0
 40
12.0
 40
12.0
 40
12.0
 40
13.0
 40
13.0
 40
13.0
 40
14.0
 40
14.0
 40
14.0
 40
15.0
 40
15.0
 40
15.0
 40
15.0
 10
871.8066404070483
 20
614.2993162526751
 10
871.8066404070483
 20
614.2993162526751
 10
872.8623044692844
 20
614.2993162526751
 10
872.8623044692844
 20
614.2993162526751
 10
872.8623044692844
 20
614.2993162526751
 10
872.8623044692844
 20
610.6777342223305
 10
872.8623044692844
 20
610.6777342223305
 10
872.8623044692844
 20
610.6777342223305
 10
872.8862302505285
 20
610.6777342223305
 10
872.8862302505285
 20
610.6777342223305
 10
873.0541990004864
 20
610.9775389097556
 10
873.3178708754206
 20
611.2412107846897
 10
873.6416013440896
 20
611.4208982846447
 10
873.9536130627616
 20
611.6010740658497
 10
874.3251950939186
 20
611.7207029720698
 10
874.7211911875697
 20
611.7207029720698
 10
875.5004880623749
 20
611.7207029720698
 10
876.7480466558129
 20
611.2412107846897
 10
876.7480466558129
 20
609.2382810976904
 10
876.7480466558129
 20
609.2382810976904
 10
876.7480466558129
 20
605.7841795360539
 10
876.7480466558129
 20
605.7841795360539
 10
876.7480466558129
 20
605.7841795360539
 10
875.6923825935769
 20
605.7841795360539
 10
875.6923825935769
 20
605.7841795360539
 10
875.6923825935769
 20
605.7841795360539
 10
875.6923825935769
 20
609.1181639102205
 10
875.6923825935769
 20
609.1181639102205
 10
875.6923825935769
 20
610.0537107849866
 10
875.3447263436638
 20
610.8452146910387
 10
874.3491208751627
 20
610.8452146910387
 10
873.6655271253336
 20
610.8452146910387
 10
873.1259763442185
 20
610.3657225036585
 10
872.9340818130164
 20
609.7900389100524
 10
872.8740232192815
 20
609.6459959413385
 10
872.8623044692844
 20
609.4902342226275
 10
872.8623044692844
 20
609.2861326601785
 10
872.8623044692844
 20
609.2861326601785
 10
872.8623044692844
 20
605.7841795360539
 10
872.8623044692844
 20
605.7841795360539
 10
872.8623044692844
 20
605.7841795360539
 10
871.8066404070483
 20
605.7841795360539
 10
871.8066404070483
 20
605.7841795360539
 10
871.8066404070483
 20
605.7841795360539
 10
871.8066404070483
 20
614.2993162526751
 10
871.8066404070483
 20
614.2993162526751
 97
        0
 97
        0
 75
     2
 76
     1
 98
        0
  0
SPLINE
  5
BC
330
91
100
AcDbEntity
  8
0
 62
   240
420
 15539236
370
    35
100
AcDbSpline
210
0.0
220
0.0
230
1.0
 70
    11
 71
     3
 72
    56
 73
    52
 74
     0
 42
0.0000000001
 43
0.0000000001
 12
1.0
 22
0.0
 32
0.0
 13
1.0
 23
0.0
 33
0.0
 40
0.0
 40
0.0
 40
0.0
 40
0.0
 40
1.0
 40
1.0
 40
1.0
 40
2.0
 40
2.0
 40
2.0
 40
3.0
 40
3.0
 40
3.0
 40
4.0
 40
4.0
 40
4.0
 40
5.0
 40
5.0
 40
5.0
 40
6.0
 40
6.0
 40
6.0
 40
7.0
 40
7.0
 40
7.0
 40
8.0
 40
8.0
 40
8.0
 40
9.0
 40
9.0
 40
9.0
 40
10.0
 40
10.0
 40
10.0
 40
11.0
 40
11.0
 40
11.0
 40
12.0
 40
12.0
 40
12.0
 40
13.0
 40
13.0
 40
13.0
 40
14.0
 40
14.0
 40
14.0
 40
15.0
 40
15.0
 40
15.0
 40
16.0
 40
16.0
 40
16.0
 40
17.0
 40
17.0
 40
17.0
 40
17.0
 10
879.6899411863275
 20
613.255859221686
 30
0.0
 10
879.6899411863275
 20
613.255859221686
 30
0.0
 10
879.6899411863275
 20
611.5888670346028
 30
0.0
 10
879.6899411863275
 20
611.5888670346028
 30
0.0
 10
879.6899411863275
 20
611.5888670346028
 30
0.0
 10
881.2011716546997
 20
611.5888670346028
 30
0.0
 10
881.2011716546997
 20
611.5888670346028
 30
0.0
 10
881.2011716546997
 20
611.5888670346028
 30
0.0
 10
881.2011716546997
 20
610.7856443785536
 30
0.0
 10
881.2011716546997
 20
610.7856443785536
 30
0.0
 10
881.2011716546997
 20
610.7856443785536
 30
0.0
 10
879.6899411863275
 20
610.7856443785536
 30
0.0
 10
879.6899411863275
 20
610.7856443785536
 30
0.0
 10
879.6899411863275
 20
610.7856443785536
 30
0.0
 10
879.6899411863275
 20
607.6552732855862
 30
0.0
 10
879.6899411863275
 20
607.6552732855862
 30
0.0
 10
879.6899411863275
 20
606.9355467232662
 30
0.0
 10
879.8935544675265
 20
606.527831879618
 30
0.0
 10
880.4814450923797
 20
606.527831879618
 30
0.0
 10
880.7573239985607
 20
606.527831879618
 30
0.0
 10
880.9609372797597
 20
606.563964692109
 30
0.0
 10
881.0932614984766
 20
606.5996092233501
 30
0.0
 10
881.0932614984766
 20
606.5996092233501
 30
0.0
 10
881.1411130609647
 20
605.808105317298
 30
0.0
 10
881.1411130609647
 20
605.808105317298
 30
0.0
 10
880.9370114985157
 20
605.7241209423189
 30
0.0
 10
880.6132810298467
 20
605.664062348584
 30
0.0
 10
880.2055661861986
 20
605.664062348584
 30
0.0
 10
879.7138669675716
 20
605.664062348584
 30
0.0
 10
879.3178708739205
 20
605.8203123485449
 30
0.0
 10
879.0659177489835
 20
606.107910004723
 30
0.0
 10
878.7661130615585
 20
606.419921723395
 30
0.0
 10
878.6582029053354
 20
606.9355467232662
 30
0.0
 10
878.6582029053354
 20
607.6191404730952
 30
0.0
 10
878.6582029053354
 20
607.6191404730952
 30
0.0
 10
878.6582029053354
 20
610.7856443785536
 30
0.0
 10
878.6582029053354
 20
610.7856443785536
 30
0.0
 10
878.6582029053354
 20
610.7856443785536
 30
0.0
 10
877.7587888430603
 20
610.7856443785536
 30
0.0
 10
877.7587888430603
 20
610.7856443785536
 30
0.0
 10
877.7587888430603
 20
610.7856443785536
 30
0.0
 10
877.7587888430603
 20
611.5888670346028
 30
0.0
 10
877.7587888430603
 20
611.5888670346028
 30
0.0
 10
877.7587888430603
 20
611.5888670346028
 30
0.0
 10
878.6582029053354
 20
611.5888670346028
 30
0.0
 10
878.6582029053354
 20
611.5888670346028
 30
0.0
 10
878.6582029053354
 20
611.5888670346028
 30
0.0
 10
878.6582029053354
 20
612.9804685967549
 30
0.0
 10
878.6582029053354
 20
612.9804685967549
 30
0.0
 10
878.6582029053354
 20
612.9804685967549
 30
0.0
 10
879.6899411863275
 20
613.255859221686
 30
0.0
 10
879.6899411863275
 20
613.255859221686
 30
0.0
  0
HATCH
  5
BD
330
91
100
AcDbEntity
  8
0
 62
   240
420
 15539236
100
AcDbHatch
 10
0.0
 20
0.0
 30
0.0
210
0.0
220
0.0
230
1.0
  2
SOLID
 70
     1
 71
     0
 91
        1
 92
        1
 93
        1
 72
     4
 94
        3
 73
     0
 74
     1
 95
       56
 96
       52
 40
0.0
 40
0.0
 40
0.0
 40
0.0
 40
1.0
 40
1.0
 40
1.0
 40
2.0
 40
2.0
 40
2.0
 40
3.0
 40
3.0
 40
3.0
 40
4.0
 40
4.0
 40
4.0
 40
5.0
 40
5.0
 40
5.0
 40
6.0
 40
6.0
 40
6.0
 40
7.0
 40
7.0
 40
7.0
 40
8.0
 40
8.0
 40
8.0
 40
9.0
 40
9.0
 40
9.0
 40
10.0
 40
10.0
 40
10.0
 40
11.0
 40
11.0
 40
11.0
 40
12.0
 40
12.0
 40
12.0
 40
13.0
 40
13.0
 40
13.0
 40
14.0
 40
14.0
 40
14.0
 40
15.0
 40
15.0
 40
15.0
 40
16.0
 40
16.0
 40
16.0
 40
17.0
 40
17.0
 40
17.0
 40
17.0
 10
879.6899411863275
 20
613.255859221686
 10
879.6899411863275
 20
613.255859221686
 10
879.6899411863275
 20
611.5888670346028
 10
879.6899411863275
 20
611.5888670346028
 10
879.6899411863275
 20
611.5888670346028
 10
881.2011716546997
 20
611.5888670346028
 10
881.2011716546997
 20
611.5888670346028
 10
881.2011716546997
 20
611.5888670346028
 10
881.2011716546997
 20
610.7856443785536
 10
881.2011716546997
 20
610.7856443785536
 10
881.2011716546997
 20
610.7856443785536
 10
879.6899411863275
 20
610.7856443785536
 10
879.6899411863275
 20
610.7856443785536
 10
879.6899411863275
 20
610.7856443785536
 10
879.6899411863275
 20
607.6552732855862
 10
879.6899411863275
 20
607.6552732855862
 10
879.6899411863275
 20
606.9355467232662
 10
879.8935544675265
 20
606.527831879618
 10
880.4814450923797
 20
606.527831879618
 10
880.7573239985607
 20
606.527831879618
 10
880.9609372797597
 20
606.563964692109
 10
881.0932614984766
 20
606.5996092233501
 10
881.0932614984766
 20
606.5996092233501
 10
881.1411130609647
 20
605.808105317298
 10
881.1411130609647
 20
605.808105317298
 10
880.9370114985157
 20
605.7241209423189
 10
880.6132810298467
 20
605.664062348584
 10
880.2055661861986
 20
605.664062348584
 10
879.7138669675716
 20
605.664062348584
 10
879.3178708739205
 20
605.8203123485449
 10
879.0659177489835
 20
606.107910004723
 10
878.7661130615585
 20
606.419921723395
 10
878.6582029053354
 20
606.9355467232662
 10
878.6582029053354
 20
607.6191404730952
 10
878.6582029053354
 20
607.6191404730952
 10
878.6582029053354
 20
610.7856443785536
 10
878.6582029053354
 20
610.7856443785536
 10
878.6582029053354
 20
610.7856443785536
 10
877.7587888430603
 20
610.7856443785536
 10
877.7587888430603
 20
610.7856443785536
 10
877.7587888430603
 20
610.7856443785536
 10
877.7587888430603
 20
611.5888670346028
 10
877.7587888430603
 20
611.5888670346028
 10
877.7587888430603
 20
611.5888670346028
 10
878.6582029053354
 20
611.5888670346028
 10
878.6582029053354
 20
611.5888670346028
 10
878.6582029053354
 20
611.5888670346028
 10
878.6582029053354
 20
612.9804685967549
 10
878.6582029053354
 20
612.9804685967549
 10
878.6582029053354
 20
612.9804685967549
 10
879.6899411863275
 20
613.255859221686
 10
879.6899411863275
 20
613.255859221686
 97
        0
 97
        0
 75
     2
 76
     1
 98
        0
  0
ENDBLK
  5
94
330
91
100
AcDbEntity
  8
0
100
AcDbBlockEnd
  0
ENDSEC
  0
SECTION
  2
ENTITIES
  0
INSERT
  5
41
330
1F
100
AcDbEntity
  8
0
100
AcDbBlockReference
  2
block 2
 10
0.0
 20
0.0
 30
0.0
  0
INSERT
  5
4C
330
1F
100
AcDbEntity
  8
0
100
AcDbBlockReference
  2
block 3
 10
0.0
 20
0.0
 30
0.0
  0
INSERT
  5
5B
330
1F
100
AcDbEntity
  8
0
100
AcDbBlockReference
  2
block 4
 10
0.0
 20
0.0
 30
0.0
  0
INSERT
  5
60
330
1F
100
AcDbEntity
  8
0
100
AcDbBlockReference
  2
block 5
 10
0.0
 20
0.0
 30
0.0
  0
INSERT
  5
65
330
1F
100
AcDbEntity
  8
0
100
AcDbBlockReference
  2
block 6
 10
0.0
 20
0.0
 30
0.0
  0
INSERT
  5
6A
330
1F
100
AcDbEntity
  8
0
100
AcDbBlockReference
  2
block 7
 10
0.0
 20
0.0
 30
0.0
  0
INSERT
  5
6F
330
1F
100
AcDbEntity
  8
0
100
AcDbBlockReference
  2
block 8
 10
0.0
 20
0.0
 30
0.0
  0
INSERT
  5
74
330
1F
100
AcDbEntity
  8
0
100
AcDbBlockReference
  2
block 9
 10
0.0
 20
0.0
 30
0.0
  0
INSERT
  5
79
330
1F
100
AcDbEntity
  8
0
100
AcDbBlockReference
  2
block 10
 10
0.0
 20
0.0
 30
0.0
  0
INSERT
  5
7E
330
1F
100
AcDbEntity
  8
0
100
AcDbBlockReference
  2
block 11
 10
0.0
 20
0.0
 30
0.0
  0
INSERT
  5
83
330
1F
100
AcDbEntity
  8
0
100
AcDbBlockReference
  2
block 12
 10
0.0
 20
0.0
 30
0.0
  0
INSERT
  5
88
330
1F
100
AcDbEntity
  8
0
100
AcDbBlockReference
  2
block 13
 10
0.0
 20
0.0
 30
0.0
  0
INSERT
  5
8D
330
1F
100
AcDbEntity
  8
0
100
AcDbBlockReference
  2
block 14
 10
0.0
 20
0.0
 30
0.0
  0
INSERT
  5
92
330
1F
100
AcDbEntity
  8
0
100
AcDbBlockReference
  2
block 15
 10
0.0
 20
0.0
 30
0.0
  0
ENDSEC
  0
SECTION
  2
OBJECTS
  0
DICTIONARY
  5
C
330
0
100
AcDbDictionary
281
     1
  3
ACAD_GROUP
350
D
  3
ACAD_LAYOUT
350
1A
  3
ACAD_MATERIAL
350
3B
  3
ACAD_MLEADERSTYLE
350
BF
  3
ACAD_MLINESTYLE
350
17
  3
ACAD_PLOTSETTINGS
350
19
  3
ACAD_PLOTSTYLENAME
350
E
  3
ACAD_TABLESTYLE
350
BE
  3
ACAD_VISUALSTYLE
350
2A
  0
SUN
  5
3F
330
29
100
AcDbSun
 90
        1
290
     0
 63
     7
421
 16777215
 40
1.0
291
     1
 91
  2455826
 92
 54000000
292
     0
 70
     2
 71
   256
280
     1
  0
DICTIONARY
  5
D
102
{ACAD_REACTORS
330
C
102
}
330
C
100
AcDbDictionary
281
     1
  0
DICTIONARY
  5
1A
102
{ACAD_REACTORS
330
C
102
}
330
C
100
AcDbDictionary
281
     1
  3
Layout1
350
1E
  3
Layout2
350
26
  3
Model
350
22
  0
DICTIONARY
  5
3B
102
{ACAD_REACTORS
330
C
102
}
330
C
100
AcDbDictionary
281
     1
  3
ByBlock
350
3D
  3
ByLayer
350
3C
  3
Global
350
3E
  0
DICTIONARY
  5
BF
102
{ACAD_REACTORS
330
C
102
}
330
C
100
AcDbDictionary
281
     1
  0
DICTIONARY
  5
17
102
{ACAD_REACTORS
330
C
102
}
330
C
100
AcDbDictionary
281
     1
  3
Standard
350
18
  0
DICTIONARY
  5
19
102
{ACAD_REACTORS
330
C
102
}
330
C
100
AcDbDictionary
281
     1
  0
ACDBDICTIONARYWDFLT
  5
E
102
{ACAD_REACTORS
330
C
102
}
330
C
100
AcDbDictionary
281
     1
  3
Normal
350
F
100
AcDbDictionaryWithDefault
340
F
  0
DICTIONARY
  5
BE
102
{ACAD_REACTORS
330
C
102
}
330
C
100
AcDbDictionary
281
     1
  0
DICTIONARY
  5
2A
102
{ACAD_REACTORS
330
C
102
}
330
C
100
AcDbDictionary
281
     1
  3
2dWireframe
350
2F
  3
3D Hidden
350
31
  3
3dWireframe
350
30
  3
Basic
350
32
  3
Brighten
350
36
  3
ColorChange
350
3A
  3
Conceptual
350
34
  3
Dim
350
35
  3
Facepattern
350
39
  3
Flat
350
2B
  3
FlatWithEdges
350
2C
  3
Gouraud
350
2D
  3
GouraudWithEdges
350
2E
  3
Linepattern
350
38
  3
Realistic
350
33
  3
Thicken
350
37
  0
LAYOUT
  5
1E
102
{ACAD_REACTORS
330
1A
102
}
330
1A
100
AcDbPlotSettings
  1

  2
none_device
  4

  6

 40
0.0
 41
0.0
 42
0.0
 43
0.0
 44
0.0
 45
0.0
 46
0.0
 47
0.0
 48
0.0
 49
0.0
140
0.0
141
0.0
142
1.0
143
1.0
 70
   688
 72
     0
 73
     0
 74
     5
  7

 75
    16
 76
     0
 77
     2
 78
   300
147
1.0
148
0.0
149
0.0
100
AcDbLayout
  1
Layout1
 70
     1
 71
     1
 10
0.0
 20
0.0
 11
12.0
 21
9.0
 12
0.0
 22
0.0
 32
0.0
 14
1.000000000000000E+20
 24
1.000000000000000E+20
 34
1.000000000000000E+20
 15
-1.000000000000000E+20
 25
-1.000000000000000E+20
 35
-1.000000000000000E+20
146
0.0
 13
0.0
 23
0.0
 33
0.0
 16
1.0
 26
0.0
 36
0.0
 17
0.0
 27
1.0
 37
0.0
 76
     0
330
1B
  0
LAYOUT
  5
26
102
{ACAD_REACTORS
330
1A
102
}
330
1A
100
AcDbPlotSettings
  1

  2
none_device
  4

  6

 40
0.0
 41
0.0
 42
0.0
 43
0.0
 44
0.0
 45
0.0
 46
0.0
 47
0.0
 48
0.0
 49
0.0
140
0.0
141
0.0
142
1.0
143
1.0
 70
   688
 72
     0
 73
     0
 74
     5
  7

 75
    16
 76
     0
 77
     2
 78
   300
147
1.0
148
0.0
149
0.0
100
AcDbLayout
  1
Layout2
 70
     1
 71
     2
 10
0.0
 20
0.0
 11
0.0
 21
0.0
 12
0.0
 22
0.0
 32
0.0
 14
0.0
 24
0.0
 34
0.0
 15
0.0
 25
0.0
 35
0.0
146
0.0
 13
0.0
 23
0.0
 33
0.0
 16
1.0
 26
0.0
 36
0.0
 17
0.0
 27
1.0
 37
0.0
 76
     0
330
23
  0
LAYOUT
  5
22
102
{ACAD_REACTORS
330
1A
102
}
330
1A
100
AcDbPlotSettings
  1

  2
none_device
  4

  6

 40
0.0
 41
0.0
 42
0.0
 43
0.0
 44
0.0
 45
0.0
 46
0.0
 47
0.0
 48
0.0
 49
0.0
140
0.0
141
0.0
142
1.0
143
1.0
 70
  1712
 72
     0
 73
     0
 74
     0
  7

 75
     0
 76
     0
 77
     2
 78
   300
147
1.0
148
0.0
149
0.0
100
AcDbLayout
  1
Model
 70
     1
 71
     0
 10
0.0
 20
0.0
 11
12.0
 21
9.0
 12
0.0
 22
0.0
 32
0.0
 14
1.000000000000000E+20
 24
1.000000000000000E+20
 34
1.000000000000000E+20
 15
-1.000000000000000E+20
 25
-1.000000000000000E+20
 35
-1.000000000000000E+20
146
0.0
 13
0.0
 23
0.0
 33
0.0
 16
1.0
 26
0.0
 36
0.0
 17
0.0
 27
1.0
 37
0.0
 76
     0
330
1F
331
29
  0
MATERIAL
  5
3D
102
{ACAD_REACTORS
330
3B
102
}
330
3B
100
AcDbMaterial
  1
ByBlock
 72
     1
 94
      127
  0
MATERIAL
  5
3C
102
{ACAD_REACTORS
330
3B
102
}
330
3B
100
AcDbMaterial
  1
ByLayer
 72
     1
 94
      127
  0
MATERIAL
  5
3E
102
{ACAD_REACTORS
330
3B
102
}
330
3B
100
AcDbMaterial
  1
Global
 72
     1
 94
      127
  0
MLINESTYLE
  5
18
102
{ACAD_REACTORS
330
17
102
}
330
17
100
AcDbMlineStyle
  2
Standard
 70
     0
  3

 62
   256
 51
90.0
 52
90.0
 71
     2
 49
0.5
 62
   256
  6
BYLAYER
 49
-0.5
 62
   256
  6
BYLAYER
  0
ACDBPLACEHOLDER
  5
F
102
{ACAD_REACTORS
330
E
102
}
330
E
  0
VISUALSTYLE
  5
2F
102
{ACAD_REACTORS
330
2A
102
}
330
2A
100
AcDbVisualStyle
  2
2dWireframe
 70
     4
177
     2
291
     0
 71
     0
176
     1
 72
     2
176
     1
 73
     0
176
     1
 90
        0
176
     1
 40
-0.6
176
     1
 41
-30.0
176
     1
 62
     5
 63
     7
421
 16777215
176
     1
 74
     1
176
     1
 91
        4
176
     1
 64
     7
176
     1
 65
   257
176
     1
 75
     1
176
     1
175
     1
176
     1
 42
1.0
176
     1
 92
        0
176
     1
 66
   257
176
     1
 43
1.0
176
     1
 76
     1
176
     1
 77
     6
176
     1
 78
     2
176
     1
 67
     7
176
     1
 79
     5
176
     1
170
     0
176
     1
171
     0
176
     1
290
     0
176
     1
 93
        1
176
     1
 44
0.0
176
     1
173
     0
176
     1
  0
VISUALSTYLE
  5
31
102
{ACAD_REACTORS
330
2A
102
}
330
2A
100
AcDbVisualStyle
  2
3D Hidden
 70
     6
177
     2
291
     0
 71
     1
176
     1
 72
     2
176
     1
 73
     2
176
     1
 90
        0
176
     1
 40
-0.6
176
     1
 41
-30.0
176
     1
 62
     5
 63
     7
421
 16777215
176
     1
 74
     2
176
     1
 91
        2
176
     1
 64
     7
176
     1
 65
   257
176
     1
 75
     2
176
     1
175
     1
176
     1
 42
40.0
176
     1
 92
        0
176
     1
 66
   257
176
     1
 43
1.0
176
     1
 76
     1
176
     1
 77
     6
176
     1
 78
     2
176
     1
 67
     7
176
     1
 79
     3
176
     1
170
     0
176
     1
171
     0
176
     1
290
     0
176
     1
 93
        1
176
     1
 44
0.0
176
     1
173
     0
176
     1
  0
VISUALSTYLE
  5
30
102
{ACAD_REACTORS
330
2A
102
}
330
2A
100
AcDbVisualStyle
  2
3dWireframe
 70
     5
177
     2
291
     0
 71
     0
176
     1
 72
     2
176
     1
 73
     0
176
     1
 90
        0
176
     1
 40
-0.6
176
     1
 41
-30.0
176
     1
 62
     5
 63
     7
421
 16777215
176
     1
 74
     1
176
     1
 91
        4
176
     1
 64
     7
176
     1
 65
   257
176
     1
 75
     1
176
     1
175
     1
176
     1
 42
1.0
176
     1
 92
        0
176
     1
 66
   257
176
     1
 43
1.0
176
     1
 76
     1
176
     1
 77
     6
176
     1
 78
     2
176
     1
 67
     7
176
     1
 79
     5
176
     1
170
     0
176
     1
171
     0
176
     1
290
     0
176
     1
 93
        1
176
     1
 44
0.0
176
     1
173
     0
176
     1
  0
VISUALSTYLE
  5
32
102
{ACAD_REACTORS
330
2A
102
}
330
2A
100
AcDbVisualStyle
  2
Basic
 70
     7
177
     2
291
     1
 71
     1
176
     1
 72
     0
176
     1
 73
     1
176
     1
 90
        0
176
     1
 40
-0.6
176
     1
 41
-30.0
176
     1
 62
     5
 63
     7
421
 16777215
176
     1
 74
     0
176
     1
 91
        4
176
     1
 64
     7
176
     1
 65
   257
176
     1
 75
     1
176
     1
175
     1
176
     1
 42
1.0
176
     1
 92
        8
176
     1
 66
     7
176
     1
 43
1.0
176
     1
 76
     1
176
     1
 77
     6
176
     1
 78
     2
176
     1
 67
     7
176
     1
 79
     5
176
     1
170
     0
176
     1
171
     0
176
     1
290
     0
176
     1
 93
        1
176
     1
 44
0.0
176
     1
173
     0
176
     1
  0
VISUALSTYLE
  5
36
102
{ACAD_REACTORS
330
2A
102
}
330
2A
100
AcDbVisualStyle
  2
Brighten
 70
    12
177
     2
291
     1
 71
     2
176
     1
 72
     2
176
     1
 73
     0
176
     1
 90
        0
176
     1
 40
-0.6
176
     1
 41
-30.0
176
     1
 62
     5
 63
     7
421
 16777215
176
     1
 74
     1
176
     1
 91
        4
176
     1
 64
     7
176
     1
 65
   257
176
     1
 75
     1
176
     1
175
     1
176
     1
 42
1.0
176
     1
 92
        8
176
     1
 66
     7
176
     1
 43
1.0
176
     1
 76
     1
176
     1
 77
     6
176
     1
 78
     2
176
     1
 67
     7
176
     1
 79
     5
176
     1
170
     0
176
     1
171
     0
176
     1
290
     0
176
     1
 93
        1
176
     1
 44
50.0
176
     1
173
     0
176
     1
  0
VISUALSTYLE
  5
3A
102
{ACAD_REACTORS
330
2A
102
}
330
2A
100
AcDbVisualStyle
  2
ColorChange
 70
    16
177
     2
291
     1
 71
     2
176
     1
 72
     2
176
     1
 73
     3
176
     1
 90
        0
176
     1
 40
-0.6
176
     1
 41
-30.0
176
     1
 62
     5
 63
     8
421
  8421504
176
     1
 74
     1
176
     1
 91
        4
176
     1
 64
     7
176
     1
 65
   257
176
     1
 75
     1
176
     1
175
     1
176
     1
 42
1.0
176
     1
 92
        8
176
     1
 66
     8
424
  8421504
176
     1
 43
1.0
176
     1
 76
     1
176
     1
 77
     6
176
     1
 78
     2
176
     1
 67
     7
176
     1
 79
     5
176
     1
170
     0
176
     1
171
     0
176
     1
290
     0
176
     1
 93
        1
176
     1
 44
0.0
176
     1
173
     0
176
     1
  0
VISUALSTYLE
  5
34
102
{ACAD_REACTORS
330
2A
102
}
330
2A
100
AcDbVisualStyle
  2
Conceptual
 70
     9
177
     2
291
     0
 71
     3
176
     1
 72
     2
176
     1
 73
     0
176
     1
 90
        0
176
     1
 40
-0.6
176
     1
 41
-30.0
176
     1
 62
     5
 63
     7
421
 16777215
176
     1
 74
     2
176
     1
 91
        2
176
     1
 64
     7
176
     1
 65
   257
176
     1
 75
     1
176
     1
175
     1
176
     1
 42
40.0
176
     1
 92
        8
176
     1
 66
     7
176
     1
 43
1.0
176
     1
 76
     1
176
     1
 77
     6
176
     1
 78
     2
176
     1
 67
     7
176
     1
 79
     3
176
     1
170
     0
176
     1
171
     0
176
     1
290
     0
176
     1
 93
        1
176
     1
 44
0.0
176
     1
173
     0
176
     1
  0
VISUALSTYLE
  5
35
102
{ACAD_REACTORS
330
2A
102
}
330
2A
100
AcDbVisualStyle
  2
Dim
 70
    11
177
     2
291
     1
 71
     2
176
     1
 72
     2
176
     1
 73
     0
176
     1
 90
        0
176
     1
 40
-0.6
176
     1
 41
-30.0
176
     1
 62
     5
 63
     7
421
 16777215
176
     1
 74
     1
176
     1
 91
        4
176
     1
 64
     7
176
     1
 65
   257
176
     1
 75
     1
176
     1
175
     1
176
     1
 42
1.0
176
     1
 92
        8
176
     1
 66
     7
176
     1
 43
1.0
176
     1
 76
     1
176
     1
 77
     6
176
     1
 78
     2
176
     1
 67
     7
176
     1
 79
     5
176
     1
170
     0
176
     1
171
     0
176
     1
290
     0
176
     1
 93
        1
176
     1
 44
-50.0
176
     1
173
     0
176
     1
  0
VISUALSTYLE
  5
39
102
{ACAD_REACTORS
330
2A
102
}
330
2A
100
AcDbVisualStyle
  2
Facepattern
 70
    15
177
     2
291
     1
 71
     2
176
     1
 72
     2
176
     1
 73
     0
176
     1
 90
        0
176
     1
 40
-0.6
176
     1
 41
-30.0
176
     1
 62
     5
 63
     7
421
 16777215
176
     1
 74
     1
176
     1
 91
        4
176
     1
 64
     7
176
     1
 65
   257
176
     1
 75
     1
176
     1
175
     1
176
     1
 42
1.0
176
     1
 92
        8
176
     1
 66
     7
176
     1
 43
1.0
176
     1
 76
     1
176
     1
 77
     6
176
     1
 78
     2
176
     1
 67
     7
176
     1
 79
     5
176
     1
170
     0
176
     1
171
     0
176
     1
290
     0
176
     1
 93
        1
176
     1
 44
0.0
176
     1
173
     0
176
     1
  0
VISUALSTYLE
  5
2B
102
{ACAD_REACTORS
330
2A
102
}
330
2A
100
AcDbVisualStyle
  2
Flat
 70
     0
177
     2
291
     1
 71
     2
176
     1
 72
     1
176
     1
 73
     1
176
     1
 90
        2
176
     1
 40
-0.6
176
     1
 41
30.0
176
     1
 62
     5
 63
     7
421
 16777215
176
     1
 74
     0
176
     1
 91
        4
176
     1
 64
     7
176
     1
 65
   257
176
     1
 75
     1
176
     1
175
     1
176
     1
 42
1.0
176
     1
 92
        8
176
     1
 66
     7
176
     1
 43
1.0
176
     1
 76
     1
176
     1
 77
     6
176
     1
 78
     2
176
     1
 67
     7
176
     1
 79
     5
176
     1
170
     0
176
     1
171
     0
176
     1
290
     0
176
     1
 93
       13
176
     1
 44
0.0
176
     1
173
     0
176
     1
  0
VISUALSTYLE
  5
2C
102
{ACAD_REACTORS
330
2A
102
}
330
2A
100
AcDbVisualStyle
  2
FlatWithEdges
 70
     1
177
     2
291
     1
 71
     2
176
     1
 72
     1
176
     1
 73
     1
176
     1
 90
        2
176
     1
 40
-0.6
176
     1
 41
30.0
176
     1
 62
     5
 63
     7
421
 16777215
176
     1
 74
     1
176
     1
 91
        4
176
     1
 64
     7
176
     1
 65
   257
176
     1
 75
     1
176
     1
175
     1
176
     1
 42
1.0
176
     1
 92
        0
176
     1
 66
   257
176
     1
 43
1.0
176
     1
 76
     1
176
     1
 77
     6
176
     1
 78
     2
176
     1
 67
     7
176
     1
 79
     5
176
     1
170
     0
176
     1
171
     0
176
     1
290
     0
176
     1
 93
       13
176
     1
 44
0.0
176
     1
173
     0
176
     1
  0
VISUALSTYLE
  5
2D
102
{ACAD_REACTORS
330
2A
102
}
330
2A
100
AcDbVisualStyle
  2
Gouraud
 70
     2
177
     2
291
     1
 71
     2
176
     1
 72
     2
176
     1
 73
     1
176
     1
 90
        2
176
     1
 40
-0.6
176
     1
 41
30.0
176
     1
 62
     5
 63
     7
421
 16777215
176
     1
 74
     0
176
     1
 91
        4
176
     1
 64
     7
176
     1
 65
   257
176
     1
 75
     1
176
     1
175
     1
176
     1
 42
1.0
176
     1
 92
        0
176
     1
 66
     7
176
     1
 43
1.0
176
     1
 76
     1
176
     1
 77
     6
176
     1
 78
     2
176
     1
 67
     7
176
     1
 79
     5
176
     1
170
     0
176
     1
171
     0
176
     1
290
     0
176
     1
 93
       13
176
     1
 44
0.0
176
     1
173
     0
176
     1
  0
VISUALSTYLE
  5
2E
102
{ACAD_REACTORS
330
2A
102
}
330
2A
100
AcDbVisualStyle
  2
GouraudWithEdges
 70
     3
177
     2
291
     1
 71
     2
176
     1
 72
     2
176
     1
 73
     1
176
     1
 90
        2
176
     1
 40
-0.6
176
     1
 41
30.0
176
     1
 62
     5
 63
     7
421
 16777215
176
     1
 74
     1
176
     1
 91
        4
176
     1
 64
     7
176
     1
 65
   257
176
     1
 75
     1
176
     1
175
     1
176
     1
 42
1.0
176
     1
 92
        0
176
     1
 66
   257
176
     1
 43
1.0
176
     1
 76
     1
176
     1
 77
     6
176
     1
 78
     2
176
     1
 67
     7
176
     1
 79
     5
176
     1
170
     0
176
     1
171
     0
176
     1
290
     0
176
     1
 93
       13
176
     1
 44
0.0
176
     1
173
     0
176
     1
  0
VISUALSTYLE
  5
38
102
{ACAD_REACTORS
330
2A
102
}
330
2A
100
AcDbVisualStyle
  2
Linepattern
 70
    14
177
     2
291
     1
 71
     2
176
     1
 72
     2
176
     1
 73
     0
176
     1
 90
        0
176
     1
 40
-0.6
176
     1
 41
-30.0
176
     1
 62
     5
 63
     7
421
 16777215
176
     1
 74
     1
176
     1
 91
        4
176
     1
 64
     7
176
     1
 65
   257
176
     1
 75
     7
176
     1
175
     7
176
     1
 42
1.0
176
     1
 92
        8
176
     1
 66
     7
176
     1
 43
1.0
176
     1
 76
     1
176
     1
 77
     6
176
     1
 78
     2
176
     1
 67
     7
176
     1
 79
     5
176
     1
170
     0
176
     1
171
     0
176
     1
290
     0
176
     1
 93
        1
176
     1
 44
0.0
176
     1
173
     0
176
     1
  0
VISUALSTYLE
  5
33
102
{ACAD_REACTORS
330
2A
102
}
330
2A
100
AcDbVisualStyle
  2
Realistic
 70
     8
177
     2
291
     0
 71
     2
176
     1
 72
     2
176
     1
 73
     0
176
     1
 90
        0
176
     1
 40
-0.6
176
     1
 41
-30.0
176
     1
 62
     5
 63
     7
421
 16777215
176
     1
 74
     1
176
     1
 91
        0
176
     1
 64
     7
176
     1
 65
   257
176
     1
 75
     1
176
     1
175
     1
176
     1
 42
1.0
176
     1
 92
        8
176
     1
 66
     8
424
  7895160
176
     1
 43
1.0
176
     1
 76
     1
176
     1
 77
     6
176
     1
 78
     2
176
     1
 67
     7
176
     1
 79
     5
176
     1
170
     0
176
     1
171
     0
176
     1
290
     0
176
     1
 93
       13
176
     1
 44
0.0
176
     1
173
     0
176
     1
  0
VISUALSTYLE
  5
37
102
{ACAD_REACTORS
330
2A
102
}
330
2A
100
AcDbVisualStyle
  2
Thicken
 70
    13
177
     2
291
     1
 71
     2
176
     1
 72
     2
176
     1
 73
     0
176
     1
 90
        0
176
     1
 40
-0.6
176
     1
 41
-30.0
176
     1
 62
     5
 63
     7
421
 16777215
176
     1
 74
     1
176
     1
 91
        4
176
     1
 64
     7
176
     1
 65
   257
176
     1
 75
     1
176
     1
175
     1
176
     1
 42
1.0
176
     1
 92
       12
176
     1
 66
     7
176
     1
 43
1.0
176
     1
 76
     1
176
     1
 77
     6
176
     1
 78
     2
176
     1
 67
     7
176
     1
 79
     5
176
     1
170
     0
176
     1
171
     0
176
     1
290
     0
176
     1
 93
        1
176
     1
 44
0.0
176
     1
173
     0
176
     1
  0
ENDSEC
  0
EOF
