  0
SECTION
  2
HEADER
  9
$ACADVER
  1
AC1024
  9
$ACADMAINTVER
 70
     6
  9
$DWGCODEPAGE
  3
ANSI_1252
  9
$INSBASE
 10
0.0
 20
0.0
 30
0.0
  9
$EXTMIN
 10
1.000000000000000E+20
 20
1.000000000000000E+20
 30
1.000000000000000E+20
  9
$EXTMAX
 10
-1.000000000000000E+20
 20
-1.000000000000000E+20
 30
-1.000000000000000E+20
  9
$LIMMIN
 10
0.0
 20
0.0
  9
$LIMMAX
 10
12.0
 20
9.0
  9
$ORTHOMODE
 70
     0
  9
$REGENMODE
 70
     1
  9
$FILLMODE
 70
     1
  9
$QTEXTMODE
 70
     0
  9
$MIRRTEXT
 70
     1
  9
$LTSCALE
 40
1.0
  9
$ATTMODE
 70
     1
  9
$TEXTSIZE
 40
0.2
  9
$TRACEWID
 40
0.05
  9
$TEXTSTYLE
  7
Standard
  9
$CLAYER
  8
0
  9
$CELTYPE
  6
ByLayer
  9
$CECOLOR
 62
   256
  9
$CELTSCALE
 40
1.0
  9
$DISPSILH
 70
     0
  9
$DIMSCALE
 40
1.0
  9
$DIMASZ
 40
0.18
  9
$DIMEXO
 40
0.0625
  9
$DIMDLI
 40
0.38
  9
$DIMRND
 40
0.0
  9
$DIMDLE
 40
0.0
  9
$DIMEXE
 40
0.18
  9
$DIMTP
 40
0.0
  9
$DIMTM
 40
0.0
  9
$DIMTXT
 40
0.18
  9
$DIMCEN
 40
0.09
  9
$DIMTSZ
 40
0.0
  9
$DIMTOL
 70
     0
  9
$DIMLIM
 70
     0
  9
$DIMTIH
 70
     1
  9
$DIMTOH
 70
     1
  9
$DIMSE1
 70
     0
  9
$DIMSE2
 70
     0
  9
$DIMTAD
 70
     0
  9
$DIMZIN
 70
     0
  9
$DIMBLK
  1

  9
$DIMASO
 70
     1
  9
$DIMSHO
 70
     1
  9
$DIMPOST
  1

  9
$DIMAPOST
  1

  9
$DIMALT
 70
     0
  9
$DIMALTD
 70
     2
  9
$DIMALTF
 40
25.4
  9
$DIMLFAC
 40
1.0
  9
$DIMTOFL
 70
     0
  9
$DIMTVP
 40
0.0
  9
$DIMTIX
 70
     0
  9
$DIMSOXD
 70
     0
  9
$DIMSAH
 70
     0
  9
$DIMBLK1
  1

  9
$DIMBLK2
  1

  9
$DIMSTYLE
  2
Standard
  9
$DIMCLRD
 70
     0
  9
$DIMCLRE
 70
     0
  9
$DIMCLRT
 70
     0
  9
$DIMTFAC
 40
1.0
  9
$DIMGAP
 40
0.09
  9
$DIMJUST
 70
     0
  9
$DIMSD1
 70
     0
  9
$DIMSD2
 70
     0
  9
$DIMTOLJ
 70
     1
  9
$DIMTZIN
 70
     0
  9
$DIMALTZ
 70
     0
  9
$DIMALTTZ
 70
     0
  9
$DIMUPT
 70
     0
  9
$DIMDEC
 70
     4
  9
$DIMTDEC
 70
     4
  9
$DIMALTU
 70
     2
  9
$DIMALTTD
 70
     2
  9
$DIMTXSTY
  7
Standard
  9
$DIMAUNIT
 70
     0
  9
$DIMADEC
 70
     0
  9
$DIMALTRND
 40
0.0
  9
$DIMAZIN
 70
     0
  9
$DIMDSEP
 70
    46
  9
$DIMATFIT
 70
     3
  9
$DIMFRAC
 70
     0
  9
$DIMLDRBLK
  1

  9
$DIMLUNIT
 70
     2
  9
$DIMLWD
 70
    -2
  9
$DIMLWE
 70
    -2
  9
$DIMTMOVE
 70
     0
  9
$DIMFXL
 40
1.0
  9
$DIMFXLON
 70
     0
  9
$DIMJOGANG
 40
0.7853981633974483
  9
$DIMTFILL
 70
     0
  9
$DIMTFILLCLR
 70
     0
  9
$DIMARCSYM
 70
     0
  9
$DIMLTYPE
  6

  9
$DIMLTEX1
  6

  9
$DIMLTEX2
  6

  9
$DIMTXTDIRECTION
 70
     0
  9
$LUNITS
 70
     2
  9
$LUPREC
 70
     4
  9
$SKETCHINC
 40
0.1
  9
$FILLETRAD
 40
0.5
  9
$AUNITS
 70
     0
  9
$AUPREC
 70
     0
  9
$MENU
  1
.
  9
$ELEVATION
 40
0.0
  9
$PELEVATION
 40
0.0
  9
$THICKNESS
 40
0.0
  9
$LIMCHECK
 70
     0
  9
$CHAMFERA
 40
0.5
  9
$CHAMFERB
 40
0.5
  9
$CHAMFERC
 40
1.0
  9
$CHAMFERD
 40
0.0
  9
$SKPOLY
 70
     0
  9
$TDCREATE
 40
2459171.856624317
  9
$TDUCREATE
 40
2459172.18995765
  9
$TDUPDATE
 40
2459171.856624352
  9
$TDUUPDATE
 40
2459172.189957685
  9
$TDINDWG
 40
0.0000000116
  9
$TDUSRTIMER
 40
0.0000000116
  9
$USRTIMER
 70
     1
  9
$ANGBASE
 50
0.0
  9
$ANGDIR
 70
     0
  9
$PDMODE
 70
     0
  9
$PDSIZE
 40
0.0
  9
$PLINEWID
 40
0.0
  9
$SPLFRAME
 70
     0
  9
$SPLINETYPE
 70
     6
  9
$SPLINESEGS
 70
     8
  9
$HANDSEED
  5
CE
  9
$SURFTAB1
 70
     6
  9
$SURFTAB2
 70
     6
  9
$SURFTYPE
 70
     6
  9
$SURFU
 70
     6
  9
$SURFV
 70
     6
  9
$UCSBASE
  2

  9
$UCSNAME
  2

  9
$UCSORG
 10
0.0
 20
0.0
 30
0.0
  9
$UCSXDIR
 10
1.0
 20
0.0
 30
0.0
  9
$UCSYDIR
 10
0.0
 20
1.0
 30
0.0
  9
$UCSORTHOREF
  2

  9
$UCSORTHOVIEW
 70
     0
  9
$UCSORGTOP
 10
0.0
 20
0.0
 30
0.0
  9
$UCSORGBOTTOM
 10
0.0
 20
0.0
 30
0.0
  9
$UCSORGLEFT
 10
0.0
 20
0.0
 30
0.0
  9
$UCSORGRIGHT
 10
0.0
 20
0.0
 30
0.0
  9
$UCSORGFRONT
 10
0.0
 20
0.0
 30
0.0
  9
$UCSORGBACK
 10
0.0
 20
0.0
 30
0.0
  9
$PUCSBASE
  2

  9
$PUCSNAME
  2

  9
$PUCSORG
 10
0.0
 20
0.0
 30
0.0
  9
$PUCSXDIR
 10
1.0
 20
0.0
 30
0.0
  9
$PUCSYDIR
 10
0.0
 20
1.0
 30
0.0
  9
$PUCSORTHOREF
  2

  9
$PUCSORTHOVIEW
 70
     0
  9
$PUCSORGTOP
 10
0.0
 20
0.0
 30
0.0
  9
$PUCSORGBOTTOM
 10
0.0
 20
0.0
 30
0.0
  9
$PUCSORGLEFT
 10
0.0
 20
0.0
 30
0.0
  9
$PUCSORGRIGHT
 10
0.0
 20
0.0
 30
0.0
  9
$PUCSORGFRONT
 10
0.0
 20
0.0
 30
0.0
  9
$PUCSORGBACK
 10
0.0
 20
0.0
 30
0.0
  9
$USERI1
 70
     0
  9
$USERI2
 70
     0
  9
$USERI3
 70
     0
  9
$USERI4
 70
     0
  9
$USERI5
 70
     0
  9
$USERR1
 40
0.0
  9
$USERR2
 40
0.0
  9
$USERR3
 40
0.0
  9
$USERR4
 40
0.0
  9
$USERR5
 40
0.0
  9
$WORLDVIEW
 70
     1
  9
$SHADEDGE
 70
     3
  9
$SHADEDIF
 70
    70
  9
$TILEMODE
 70
     1
  9
$MAXACTVP
 70
    64
  9
$PINSBASE
 10
0.0
 20
0.0
 30
0.0
  9
$PLIMCHECK
 70
     0
  9
$PEXTMIN
 10
1.000000000000000E+20
 20
1.000000000000000E+20
 30
1.000000000000000E+20
  9
$PEXTMAX
 10
-1.000000000000000E+20
 20
-1.000000000000000E+20
 30
-1.000000000000000E+20
  9
$PLIMMIN
 10
0.0
 20
0.0
  9
$PLIMMAX
 10
12.0
 20
9.0
  9
$UNITMODE
 70
     0
  9
$VISRETAIN
 70
     1
  9
$PLINEGEN
 70
     0
  9
$PSLTSCALE
 70
     1
  9
$TREEDEPTH
 70
  3020
  9
$CMLSTYLE
  2
Standard
  9
$CMLJUST
 70
     0
  9
$CMLSCALE
 40
1.0
  9
$PROXYGRAPHICS
 70
     1
  9
$MEASUREMENT
 70
     0
  9
$CELWEIGHT
370
    -1
  9
$ENDCAPS
280
     0
  9
$JOINSTYLE
280
     0
  9
$LWDISPLAY
290
     1
  9
$INSUNITS
 70
     4
  9
$HYPERLINKBASE
  1

  9
$STYLESHEET
  1

  9
$XEDIT
290
     1
  9
$CEPSNTYPE
380
     0
  9
$PSTYLEMODE
290
     1
  9
$FINGERPRINTGUID
  2
{2805154D-511D-4204-AB78-8E7B00187F6C}
  9
$VERSIONGUID
  2
{FAEB1C32-E019-11D5-929B-00C0DF256EC4}
  9
$EXTNAMES
290
     1
  9
$PSVPSCALE
 40
0.0
  9
$OLESTARTUP
290
     0
  9
$SORTENTS
280
   127
  9
$INDEXCTL
280
     0
  9
$HIDETEXT
280
     1
  9
$XCLIPFRAME
280
     2
  9
$HALOGAP
280
     0
  9
$OBSCOLOR
 70
   257
  9
$OBSLTYPE
280
     0
  9
$INTERSECTIONDISPLAY
280
     0
  9
$INTERSECTIONCOLOR
 70
   257
  9
$DIMASSOC
280
     2
  9
$PROJECTNAME
  1

  9
$CAMERADISPLAY
290
     0
  9
$LENSLENGTH
 40
50.0
  9
$CAMERAHEIGHT
 40
0.0
  9
$STEPSPERSEC
 40
2.0
  9
$STEPSIZE
 40
6.0
  9
$3DDWFPREC
 40
2.0
  9
$PSOLWIDTH
 40
0.25
  9
$PSOLHEIGHT
 40
4.0
  9
$LOFTANG1
 40
1.570796326794897
  9
$LOFTANG2
 40
1.570796326794897
  9
$LOFTMAG1
 40
0.0
  9
$LOFTMAG2
 40
0.0
  9
$LOFTPARAM
 70
     7
  9
$LOFTNORMALS
280
     1
  9
$LATITUDE
 40
37.795
  9
$LONGITUDE
 40
-122.394
  9
$NORTHDIRECTION
 40
0.0
  9
$TIMEZONE
 70
 -8000
  9
$LIGHTGLYPHDISPLAY
280
     1
  9
$TILEMODELIGHTSYNCH
280
     1
  9
$CMATERIAL
347
3C
  9
$SOLIDHIST
280
     1
  9
$SHOWHIST
280
     1
  9
$DWFFRAME
280
     2
  9
$DGNFRAME
280
     2
  9
$REALWORLDSCALE
290
     1
  9
$INTERFERECOLOR
 62
   256
  9
$CSHADOW
280
     0
  9
$SHADOWPLANELOCATION
 40
0.0
  0
ENDSEC
  0
SECTION
  2
CLASSES
  0
CLASS
  1
ACDBDICTIONARYWDFLT
  2
AcDbDictionaryWithDefault
  3
ObjectDBX Classes
 90
        0
 91
        4
280
     0
281
     0
  0
CLASS
  1
VISUALSTYLE
  2
AcDbVisualStyle
  3
ObjectDBX Classes
 90
     4095
 91
        4
280
     0
281
     0
  0
CLASS
  1
MATERIAL
  2
AcDbMaterial
  3
ObjectDBX Classes
 90
     1153
 91
        4
280
     0
281
     0
  0
CLASS
  1
SUN
  2
AcDbSun
  3
SCENEOE
 90
     1024
 91
        4
280
     0
281
     0
  0
ENDSEC
  0
SECTION
  2
TABLES
  0
TABLE
  2
VPORT
  5
8
330
0
100
AcDbSymbolTable
 70
     1
  0
VPORT
  5
29
330
8
100
AcDbSymbolTableRecord
100
AcDbViewportTableRecord
  2
*Active
 70
     0
 10
0.0
 20
0.0
 11
1.0
 21
1.0
 12
0.0
 22
0.0
 13
0.0
 23
0.0
 14
0.5
 24
0.5
 15
0.5
 25
0.5
 16
0.0
 26
0.0
 36
1.0
 17
959.99999976
 27
539.999999865
 37
0.0
 40
1079.99999973
 41
1.777777777777778
 42
50.0
 43
0.0
 44
0.0
 50
0.0
 51
0.0
 71
     0
 72
   100
 73
     1
 74
     3
 75
     0
 76
     0
 77
     0
 78
     0
281
     0
 65
     1
110
0.0
120
0.0
130
0.0
111
1.0
121
0.0
131
0.0
112
0.0
122
1.0
132
0.0
 79
     0
146
0.0
 60
     3
 61
     5
292
     1
282
     1
141
0.0
142
0.0
 63
   250
361
3F
  0
ENDTAB
  0
TABLE
  2
LTYPE
  5
5
330
0
100
AcDbSymbolTable
 70
     1
  0
LTYPE
  5
14
330
5
100
AcDbSymbolTableRecord
100
AcDbLinetypeTableRecord
  2
ByBlock
 70
     0
  3

 72
    65
 73
     0
 40
0.0
  0
LTYPE
  5
15
330
5
100
AcDbSymbolTableRecord
100
AcDbLinetypeTableRecord
  2
ByLayer
 70
     0
  3

 72
    65
 73
     0
 40
0.0
  0
LTYPE
  5
16
330
5
100
AcDbSymbolTableRecord
100
AcDbLinetypeTableRecord
  2
Continuous
 70
     0
  3
Solid line
 72
    65
 73
     0
 40
0.0
  0
ENDTAB
  0
TABLE
  2
LAYER
  5
2
330
0
100
AcDbSymbolTable
 70
     1
  0
LAYER
  5
10
330
2
100
AcDbSymbolTableRecord
100
AcDbLayerTableRecord
  2
0
 70
     0
 62
     7
  6
Continuous
370
    -3
390
F
347
3E
  0
ENDTAB
  0
TABLE
  2
STYLE
  5
3
330
0
100
AcDbSymbolTable
 70
     1
  0
STYLE
  5
11
330
3
100
AcDbSymbolTableRecord
100
AcDbTextStyleTableRecord
  2
Standard
 70
     0
 40
0.0
 41
1.0
 50
0.0
 71
     0
 42
0.2
  3
txt
  4

  0
ENDTAB
  0
TABLE
  2
VIEW
  5
6
330
0
100
AcDbSymbolTable
 70
     0
  0
ENDTAB
  0
TABLE
  2
UCS
  5
7
330
0
100
AcDbSymbolTable
 70
     0
  0
ENDTAB
  0
TABLE
  2
APPID
  5
9
330
0
100
AcDbSymbolTable
 70
     1
  0
APPID
  5
12
330
9
100
AcDbSymbolTableRecord
100
AcDbRegAppTableRecord
  2
ACAD
 70
     0
  0
ENDTAB
  0
TABLE
  2
DIMSTYLE
  5
A
330
0
100
AcDbSymbolTable
 70
     1
100
AcDbDimStyleTable
  0
DIMSTYLE
105
27
330
A
100
AcDbSymbolTableRecord
100
AcDbDimStyleTableRecord
  2
Standard
 70
     0
178
     0
340
11
  0
ENDTAB
  0
TABLE
  2
BLOCK_RECORD
  5
1
330
0
100
AcDbSymbolTable
 70
    15
  0
BLOCK_RECORD
  5
1F
330
1
100
AcDbSymbolTableRecord
100
AcDbBlockTableRecord
  2
*Model_Space
340
22
 70
     0
280
     1
281
     0
  0
BLOCK_RECORD
  5
1B
330
1
100
AcDbSymbolTableRecord
100
AcDbBlockTableRecord
  2
*Paper_Space
340
1E
 70
     0
280
     1
281
     0
  0
BLOCK_RECORD
  5
23
330
1
100
AcDbSymbolTableRecord
100
AcDbBlockTableRecord
  2
*Paper_Space0
340
26
 70
     0
280
     1
281
     0
  0
BLOCK_RECORD
  5
40
330
1
100
AcDbSymbolTableRecord
100
AcDbBlockTableRecord
  2
block 2
340
0
102
{BLKREFS
331
41
102
}
 70
     0
280
     1
281
     0
  0
BLOCK_RECORD
  5
4B
330
1
100
AcDbSymbolTableRecord
100
AcDbBlockTableRecord
  2
block 3
340
0
102
{BLKREFS
331
4C
102
}
 70
     0
280
     1
281
     0
  0
BLOCK_RECORD
  5
50
330
1
100
AcDbSymbolTableRecord
100
AcDbBlockTableRecord
  2
block 4
340
0
102
{BLKREFS
331
51
102
}
 70
     0
280
     1
281
     0
  0
BLOCK_RECORD
  5
55
330
1
100
AcDbSymbolTableRecord
100
AcDbBlockTableRecord
  2
block 5
340
0
102
{BLKREFS
331
56
102
}
 70
     0
280
     1
281
     0
  0
BLOCK_RECORD
  5
68
330
1
100
AcDbSymbolTableRecord
100
AcDbBlockTableRecord
  2
block 6
340
0
102
{BLKREFS
331
69
102
}
 70
     0
280
     1
281
     0
  0
BLOCK_RECORD
  5
6D
330
1
100
AcDbSymbolTableRecord
100
AcDbBlockTableRecord
  2
block 7
340
0
102
{BLKREFS
331
6E
102
}
 70
     0
280
     1
281
     0
  0
BLOCK_RECORD
  5
72
330
1
100
AcDbSymbolTableRecord
100
AcDbBlockTableRecord
  2
block 8
340
0
102
{BLKREFS
331
73
102
}
 70
     0
280
     1
281
     0
  0
BLOCK_RECORD
  5
77
330
1
100
AcDbSymbolTableRecord
100
AcDbBlockTableRecord
  2
block 9
340
0
102
{BLKREFS
331
78
102
}
 70
     0
280
     1
281
     0
  0
BLOCK_RECORD
  5
7C
330
1
100
AcDbSymbolTableRecord
100
AcDbBlockTableRecord
  2
block 10
340
0
102
{BLKREFS
331
7D
102
}
 70
     0
280
     1
281
     0
  0
BLOCK_RECORD
  5
81
330
1
100
AcDbSymbolTableRecord
100
AcDbBlockTableRecord
  2
block 11
340
0
102
{BLKREFS
331
82
102
}
 70
     0
280
     1
281
     0
  0
BLOCK_RECORD
  5
86
330
1
100
AcDbSymbolTableRecord
100
AcDbBlockTableRecord
  2
block 12
340
0
102
{BLKREFS
331
87
102
}
 70
     0
280
     1
281
     0
  0
BLOCK_RECORD
  5
8B
330
1
100
AcDbSymbolTableRecord
100
AcDbBlockTableRecord
  2
block 13
340
0
102
{BLKREFS
331
8C
102
}
 70
     0
280
     1
281
     0
  0
BLOCK_RECORD
  5
90
330
1
100
AcDbSymbolTableRecord
100
AcDbBlockTableRecord
  2
block 14
340
0
102
{BLKREFS
331
91
102
}
 70
     0
280
     1
281
     0
  0
BLOCK_RECORD
  5
95
330
1
100
AcDbSymbolTableRecord
100
AcDbBlockTableRecord
  2
block 15
340
0
102
{BLKREFS
331
96
102
}
 70
     0
280
     1
281
     0
  0
ENDTAB
  0
ENDSEC
  0
SECTION
  2
BLOCKS
  0
BLOCK
  5
20
330
1F
100
AcDbEntity
  8
0
100
AcDbBlockBegin
  2
*Model_Space
 70
     0
 10
0.0
 20
0.0
 30
0.0
  3
*Model_Space
  1

  0
ENDBLK
  5
21
330
1F
100
AcDbEntity
  8
0
100
AcDbBlockEnd
  0
BLOCK
  5
1C
330
1B
100
AcDbEntity
 67
     1
  8
0
100
AcDbBlockBegin
  2
*Paper_Space
 70
     0
 10
0.0
 20
0.0
 30
0.0
  3
*Paper_Space
  1

  0
ENDBLK
  5
1D
330
1B
100
AcDbEntity
 67
     1
  8
0
100
AcDbBlockEnd
  0
BLOCK
  5
24
330
23
100
AcDbEntity
  8
0
100
AcDbBlockBegin
  2
*Paper_Space0
 70
     0
 10
0.0
 20
0.0
 30
0.0
  3
*Paper_Space0
  1

  0
ENDBLK
  5
25
330
23
100
AcDbEntity
  8
0
100
AcDbBlockEnd
  0
BLOCK
  5
42
330
40
100
AcDbEntity
  8
0
100
AcDbBlockBegin
  2
block 2
 70
     0
 10
0.0
 20
0.0
 30
0.0
  3
block 2
  1

  0
POLYLINE
  5
44
330
40
100
AcDbEntity
  8
0
 62
     7
420
 16777215
370
    25
100
AcDb2dPolyline
 66
     1
 10
0.0
 20
0.0
 30
0.0
  0
VERTEX
  5
45
330
44
100
AcDbEntity
  8
0
 62
     7
420
 16777215
370
    25
100
AcDbVertex
100
AcDb2dVertex
 10
823.3522192152838
 20
553.9629310976233
 30
0.0
  0
VERTEX
  5
46
330
44
100
AcDbEntity
  8
0
 62
     7
420
 16777215
370
    25
100
AcDbVertex
100
AcDb2dVertex
 10
809.3522192187838
 20
553.9629310976233
 30
0.0
  0
VERTEX
  5
47
330
44
100
AcDbEntity
  8
0
 62
     7
420
 16777215
370
    25
100
AcDbVertex
100
AcDb2dVertex
 10
809.3522192187838
 20
513.9629311076231
 30
0.0
  0
VERTEX
  5
48
330
44
100
AcDbEntity
  8
0
 62
     7
420
 16777215
370
    25
100
AcDbVertex
100
AcDb2dVertex
 10
823.3522192152838
 20
513.9629311076231
 30
0.0
  0
VERTEX
  5
49
330
44
100
AcDbEntity
  8
0
 62
     7
420
 16777215
370
    25
100
AcDbVertex
100
AcDb2dVertex
 10
823.3522192152838
 20
553.9629310976233
 30
0.0
  0
SEQEND
  5
4A
330
44
100
AcDbEntity
  8
0
 62
     7
420
 16777215
370
    25
  0
ENDBLK
  5
43
330
40
100
AcDbEntity
  8
0
100
AcDbBlockEnd
  0
BLOCK
  5
4D
330
4B
100
AcDbEntity
  8
0
100
AcDbBlockBegin
  2
block 3
 70
     0
 10
0.0
 20
0.0
 30
0.0
  3
block 3
  1

  0
SPLINE
  5
4F
330
4B
100
AcDbEntity
  8
0
 62
     7
420
 16777215
370
    25
100
AcDbSpline
210
0.0
220
0.0
230
1.0
 70
    11
 71
     3
 72
    32
 73
    28
 74
     0
 42
0.0000000001
 43
0.0000000001
 12
1.0
 22
0.0
 32
0.0
 13
1.0
 23
0.0
 33
0.0
 40
0.0
 40
0.0
 40
0.0
 40
0.0
 40
1.0
 40
1.0
 40
1.0
 40
2.0
 40
2.0
 40
2.0
 40
3.0
 40
3.0
 40
3.0
 40
4.0
 40
4.0
 40
4.0
 40
5.0
 40
5.0
 40
5.0
 40
6.0
 40
6.0
 40
6.0
 40
7.0
 40
7.0
 40
7.0
 40
8.0
 40
8.0
 40
8.0
 40
9.0
 40
9.0
 40
9.0
 40
9.0
 10
813.4741349203231
 20
573.2593740249764
 30
0.0
 10
813.4741349203231
 20
573.2593740249764
 30
0.0
 10
832.5241349155608
 20
573.2593740249764
 30
0.0
 10
832.5241349155608
 20
573.2593740249764
 30
0.0
 10
832.5241349155608
 20
573.2593740249764
 30
0.0
 10
832.5241349155608
 20
554.2093740297388
 30
0.0
 10
832.5241349155608
 20
554.2093740297388
 30
0.0
 10
832.5241349155608
 20
554.2093740297388
 30
0.0
 10
852.5241349105607
 20
554.2093740297388
 30
0.0
 10
852.5241349105607
 20
554.2093740297388
 30
0.0
 10
852.5241349105607
 20
554.2093740297388
 30
0.0
 10
852.5241349105607
 20
573.2593740249764
 30
0.0
 10
852.5241349105607
 20
573.2593740249764
 30
0.0
 10
852.5241349105607
 20
573.2593740249764
 30
0.0
 10
871.5741349057985
 20
573.2593740249764
 30
0.0
 10
871.5741349057985
 20
573.2593740249764
 30
0.0
 10
871.5741349057985
 20
573.2593740249764
 30
0.0
 10
871.5741349057985
 20
593.2593740199765
 30
0.0
 10
871.5741349057985
 20
593.2593740199765
 30
0.0
 10
871.5741349057985
 20
593.2593740199765
 30
0.0
 10
814.5115614591657
 20
593.2593740199765
 30
0.0
 10
814.5115614591657
 20
593.2593740199765
 30
0.0
 10
814.5115614591657
 20
593.2594049203309
 30
0.0
 10
813.4741349203231
 20
593.2594049203309
 30
0.0
 10
813.4741349203231
 20
593.2594049203309
 30
0.0
 10
813.4741349203231
 20
593.2594049203309
 30
0.0
 10
813.4741349203231
 20
573.2593740249764
 30
0.0
 10
813.4741349203231
 20
573.2593740249764
 30
0.0
  0
ENDBLK
  5
4E
330
4B
100
AcDbEntity
  8
0
100
AcDbBlockEnd
  0
BLOCK
  5
52
330
50
100
AcDbEntity
  8
0
100
AcDbBlockBegin
  2
block 4
 70
     0
 10
0.0
 20
0.0
 30
0.0
  3
block 4
  1

  0
SPLINE
  5
54
330
50
100
AcDbEntity
  8
0
 62
     7
420
 16777215
370
    25
100
AcDbSpline
210
0.0
220
0.0
230
1.0
 70
    11
 71
     3
 72
    29
 73
    25
 74
     0
 42
0.0000000001
 43
0.0000000001
 12
1.0
 22
0.0
 32
0.0
 13
1.0
 23
0.0
 33
0.0
 40
0.0
 40
0.0
 40
0.0
 40
0.0
 40
1.0
 40
1.0
 40
1.0
 40
2.0
 40
2.0
 40
2.0
 40
3.0
 40
3.0
 40
3.0
 40
4.0
 40
4.0
 40
4.0
 40
5.0
 40
5.0
 40
5.0
 40
6.0
 40
6.0
 40
6.0
 40
7.0
 40
7.0
 40
7.0
 40
8.0
 40
8.0
 40
8.0
 40
8.0
 10
1114.988438055572
 20
479.2155948115507
 30
0.0
 10
1114.988438055572
 20
479.2155948115507
 30
0.0
 10
805.0115614644275
 20
479.2155948115507
 30
0.0
 10
805.0115614644275
 20
479.2155948115507
 30
0.0
 10
802.2501377159634
 20
479.2155948115507
 30
0.0
 10
800.0115614656775
 20
481.4541710618367
 30
0.0
 10
800.0115614656775
 20
484.2155948103007
 30
0.0
 10
800.0115614656775
 20
484.2155948103007
 30
0.0
 10
800.0115614656775
 20
595.7844049196992
 30
0.0
 10
800.0115614656775
 20
595.7844049196992
 30
0.0
 10
800.0115614656775
 20
598.5458286681633
 30
0.0
 10
802.2501377159634
 20
600.7844049184492
 30
0.0
 10
805.0115614644275
 20
600.7844049184492
 30
0.0
 10
805.0115614644275
 20
600.7844049184492
 30
0.0
 10
1114.988438055572
 20
600.7844049184492
 30
0.0
 10
1114.988438055572
 20
600.7844049184492
 30
0.0
 10
1117.749861804037
 20
600.7844049184492
 30
0.0
 10
1119.988438054323
 20
598.5458286681633
 30
0.0
 10
1119.988438054323
 20
595.7844049196992
 30
0.0
 10
1119.988438054323
 20
595.7844049196992
 30
0.0
 10
1119.988438054323
 20
484.2155948103007
 30
0.0
 10
1119.988438054323
 20
484.2155948103007
 30
0.0
 10
1119.988438054323
 20
481.4541710618367
 30
0.0
 10
1117.749861804037
 20
479.2155948115507
 30
0.0
 10
1114.988438055572
 20
479.2155948115507
 30
0.0
  0
ENDBLK
  5
53
330
50
100
AcDbEntity
  8
0
100
AcDbBlockEnd
  0
BLOCK
  5
57
330
55
100
AcDbEntity
  8
0
100
AcDbBlockBegin
  2
block 5
 70
     0
 10
0.0
 20
0.0
 30
0.0
  3
block 5
  1

  0
POLYLINE
  5
59
330
55
100
AcDbEntity
  8
0
 62
     7
420
 16777215
370
    25
100
AcDb2dPolyline
 66
     1
 10
0.0
 20
0.0
 30
0.0
  0
VERTEX
  5
5A
330
59
100
AcDbEntity
  8
0
 62
     7
420
 16777215
370
    25
100
AcDbVertex
100
AcDb2dVertex
 10
1090.174438061776
 20
588.4968740211673
 30
0.0
  0
VERTEX
  5
5B
330
59
100
AcDbEntity
  8
0
 62
     7
420
 16777215
370
    25
100
AcDbVertex
100
AcDb2dVertex
 10
1090.174438061776
 20
568.971874026048
 30
0.0
  0
VERTEX
  5
5C
330
59
100
AcDbEntity
  8
0
 62
     7
420
 16777215
370
    25
100
AcDbVertex
100
AcDb2dVertex
 10
1080.649438064157
 20
568.971874026048
 30
0.0
  0
VERTEX
  5
5D
330
59
100
AcDbEntity
  8
0
 62
     7
420
 16777215
370
    25
100
AcDbVertex
100
AcDb2dVertex
 10
1080.649438064157
 20
588.4968740211664
 30
0.0
  0
VERTEX
  5
5E
330
59
100
AcDbEntity
  8
0
 62
     7
420
 16777215
370
    25
100
AcDbVertex
100
AcDb2dVertex
 10
875.3866349048453
 20
588.4968740211673
 30
0.0
  0
VERTEX
  5
5F
330
59
100
AcDbEntity
  8
0
 62
     7
420
 16777215
370
    25
100
AcDbVertex
100
AcDb2dVertex
 10
875.3866349048453
 20
569.4468740259296
 30
0.0
  0
VERTEX
  5
60
330
59
100
AcDbEntity
  8
0
 62
     7
420
 16777215
370
    25
100
AcDbVertex
100
AcDb2dVertex
 10
856.3366349096077
 20
569.4468740259296
 30
0.0
  0
VERTEX
  5
61
330
59
100
AcDbEntity
  8
0
 62
     7
420
 16777215
370
    25
100
AcDbVertex
100
AcDb2dVertex
 10
856.3366349096077
 20
550.3968740306918
 30
0.0
  0
VERTEX
  5
62
330
59
100
AcDbEntity
  8
0
 62
     7
420
 16777215
370
    25
100
AcDbVertex
100
AcDb2dVertex
 10
827.7616349167516
 20
550.3968740306918
 30
0.0
  0
VERTEX
  5
63
330
59
100
AcDbEntity
  8
0
 62
     7
420
 16777215
370
    25
100
AcDbVertex
100
AcDb2dVertex
 10
827.7616349167516
 20
492.2968740452165
 30
0.0
  0
VERTEX
  5
64
330
59
100
AcDbEntity
  8
0
 62
     7
420
 16777215
370
    25
100
AcDbVertex
100
AcDb2dVertex
 10
1114.463438055704
 20
492.2968740452165
 30
0.0
  0
VERTEX
  5
65
330
59
100
AcDbEntity
  8
0
 62
     7
420
 16777215
370
    25
100
AcDbVertex
100
AcDb2dVertex
 10
1114.463438055704
 20
588.4968740211673
 30
0.0
  0
VERTEX
  5
66
330
59
100
AcDbEntity
  8
0
 62
     7
420
 16777215
370
    25
100
AcDbVertex
100
AcDb2dVertex
 10
1090.174438061776
 20
588.4968740211673
 30
0.0
  0
SEQEND
  5
67
330
59
100
AcDbEntity
  8
0
 62
     7
420
 16777215
370
    25
  0
ENDBLK
  5
58
330
55
100
AcDbEntity
  8
0
100
AcDbBlockEnd
  0
BLOCK
  5
6A
330
68
100
AcDbEntity
  8
0
100
AcDbBlockBegin
  2
block 6
 70
     0
 10
0.0
 20
0.0
 30
0.0
  3
block 6
  1

  0
SPLINE
  5
6C
330
68
100
AcDbEntity
  8
0
 62
     7
420
 16777215
370
    25
100
AcDbSpline
210
0.0
220
0.0
230
1.0
 70
    11
 71
     3
 72
    20
 73
    16
 74
     0
 42
0.0000000001
 43
0.0000000001
 12
1.0
 22
0.0
 32
0.0
 13
1.0
 23
0.0
 33
0.0
 40
0.0
 40
0.0
 40
0.0
 40
0.0
 40
1.0
 40
1.0
 40
1.0
 40
2.0
 40
2.0
 40
2.0
 40
3.0
 40
3.0
 40
3.0
 40
4.0
 40
4.0
 40
4.0
 40
5.0
 40
5.0
 40
5.0
 40
5.0
 10
807.8303967753866
 20
502.2842114810584
 30
0.0
 10
807.8303967753866
 20
506.9786318534468
 30
0.0
 10
811.6359764008731
 20
510.7842114789334
 30
0.0
 10
816.3303967732616
 20
510.7842114789334
 30
0.0
 10
821.0248171456491
 20
510.7842114789334
 30
0.0
 10
824.8303967711366
 20
506.9786318534468
 30
0.0
 10
824.8303967711366
 20
502.2842114810584
 30
0.0
 10
824.8303967711366
 20
497.5897911086718
 30
0.0
 10
821.0248171456491
 20
493.7842114831834
 30
0.0
 10
816.3303967732616
 20
493.7842114831834
 30
0.0
 10
811.6359764008731
 20
493.7842114831834
 30
0.0
 10
807.8303967753866
 20
497.5897911086718
 30
0.0
 10
807.8303967753866
 20
502.2842114810584
 30
0.0
 10
807.8303967753866
 20
502.2842114810584
 30
0.0
 10
807.8303967753866
 20
502.2842114810584
 30
0.0
 10
807.8303967753866
 20
502.2842114810584
 30
0.0
  0
ENDBLK
  5
6B
330
68
100
AcDbEntity
  8
0
100
AcDbBlockEnd
  0
BLOCK
  5
6F
330
6D
100
AcDbEntity
  8
0
100
AcDbBlockBegin
  2
block 7
 70
     0
 10
0.0
 20
0.0
 30
0.0
  3
block 7
  1

  0
SPLINE
  5
71
330
6D
100
AcDbEntity
  8
0
 62
     7
420
 16777215
370
    25
100
AcDbSpline
210
0.0
220
0.0
230
1.0
 70
    11
 71
     3
 72
    20
 73
    16
 74
     0
 42
0.0000000001
 43
0.0000000001
 12
1.0
 22
0.0
 32
0.0
 13
1.0
 23
0.0
 33
0.0
 40
0.0
 40
0.0
 40
0.0
 40
0.0
 40
1.0
 40
1.0
 40
1.0
 40
2.0
 40
2.0
 40
2.0
 40
3.0
 40
3.0
 40
3.0
 40
4.0
 40
4.0
 40
4.0
 40
5.0
 40
5.0
 40
5.0
 40
5.0
 10
1011.444218914299
 20
596.2594049195809
 30
0.0
 10
1011.444218914299
 20
597.115446281604
 30
0.0
 10
1012.138177551887
 20
597.8094049191926
 30
0.0
 10
1012.994218913911
 20
597.8094049191926
 30
0.0
 10
1013.850260275935
 20
597.8094049191926
 30
0.0
 10
1014.544218913523
 20
597.115446281604
 30
0.0
 10
1014.544218913523
 20
596.2594049195809
 30
0.0
 10
1014.544218913523
 20
595.4033635575568
 30
0.0
 10
1013.850260275935
 20
594.7094049199682
 30
0.0
 10
1012.994218913911
 20
594.7094049199682
 30
0.0
 10
1012.138177551887
 20
594.7094049199682
 30
0.0
 10
1011.444218914299
 20
595.4033635575568
 30
0.0
 10
1011.444218914299
 20
596.2594049195809
 30
0.0
 10
1011.444218914299
 20
596.2594049195809
 30
0.0
 10
1011.444218914299
 20
596.2594049195809
 30
0.0
 10
1011.444218914299
 20
596.2594049195809
 30
0.0
  0
ENDBLK
  5
70
330
6D
100
AcDbEntity
  8
0
100
AcDbBlockEnd
  0
BLOCK
  5
74
330
72
100
AcDbEntity
  8
0
100
AcDbBlockBegin
  2
block 8
 70
     0
 10
0.0
 20
0.0
 30
0.0
  3
block 8
  1

  0
SPLINE
  5
76
330
72
100
AcDbEntity
  8
0
 62
     7
420
 16777215
370
    25
100
AcDbSpline
210
0.0
220
0.0
230
1.0
 70
    11
 71
     3
 72
    20
 73
    16
 74
     0
 42
0.0000000001
 43
0.0000000001
 12
1.0
 22
0.0
 32
0.0
 13
1.0
 23
0.0
 33
0.0
 40
0.0
 40
0.0
 40
0.0
 40
0.0
 40
1.0
 40
1.0
 40
1.0
 40
2.0
 40
2.0
 40
2.0
 40
3.0
 40
3.0
 40
3.0
 40
4.0
 40
4.0
 40
4.0
 40
5.0
 40
5.0
 40
5.0
 40
5.0
 10
803.9865614646832
 20
596.2594049195809
 30
0.0
 10
803.9865614646832
 20
597.115446281604
 30
0.0
 10
804.6805201022718
 20
597.8094049191926
 30
0.0
 10
805.5365614642958
 20
597.8094049191926
 30
0.0
 10
806.39260282632
 20
597.8094049191926
 30
0.0
 10
807.0865614639085
 20
597.115446281604
 30
0.0
 10
807.0865614639085
 20
596.2594049195809
 30
0.0
 10
807.0865614639085
 20
595.4033635575568
 30
0.0
 10
806.39260282632
 20
594.7094049199682
 30
0.0
 10
805.5365614642958
 20
594.7094049199682
 30
0.0
 10
804.6805201022718
 20
594.7094049199682
 30
0.0
 10
803.9865614646832
 20
595.4033635575568
 30
0.0
 10
803.9865614646832
 20
596.2594049195809
 30
0.0
 10
803.9865614646832
 20
596.2594049195809
 30
0.0
 10
803.9865614646832
 20
596.2594049195809
 30
0.0
 10
803.9865614646832
 20
596.2594049195809
 30
0.0
  0
ENDBLK
  5
75
330
72
100
AcDbEntity
  8
0
100
AcDbBlockEnd
  0
BLOCK
  5
79
330
77
100
AcDbEntity
  8
0
100
AcDbBlockBegin
  2
block 9
 70
     0
 10
0.0
 20
0.0
 30
0.0
  3
block 9
  1

  0
SPLINE
  5
7B
330
77
100
AcDbEntity
  8
0
 62
     7
420
 16777215
370
    25
100
AcDbSpline
210
0.0
220
0.0
230
1.0
 70
    11
 71
     3
 72
    20
 73
    16
 74
     0
 42
0.0000000001
 43
0.0000000001
 12
1.0
 22
0.0
 32
0.0
 13
1.0
 23
0.0
 33
0.0
 40
0.0
 40
0.0
 40
0.0
 40
0.0
 40
1.0
 40
1.0
 40
1.0
 40
2.0
 40
2.0
 40
2.0
 40
3.0
 40
3.0
 40
3.0
 40
4.0
 40
4.0
 40
4.0
 40
5.0
 40
5.0
 40
5.0
 40
5.0
 10
905.4557806064761
 20
483.7405948104191
 30
0.0
 10
905.4557806064761
 20
484.5966361724432
 30
0.0
 10
906.1497392440646
 20
485.2905948100327
 30
0.0
 10
907.0057806060887
 20
485.2905948100327
 30
0.0
 10
907.8618219681119
 20
485.2905948100327
 30
0.0
 10
908.5557806057005
 20
484.5966361724432
 30
0.0
 10
908.5557806057005
 20
483.7405948104191
 30
0.0
 10
908.5557806057005
 20
482.884553448395
 30
0.0
 10
907.8618219681119
 20
482.1905948108073
 30
0.0
 10
907.0057806060887
 20
482.1905948108073
 30
0.0
 10
906.1497392440646
 20
482.1905948108073
 30
0.0
 10
905.4557806064761
 20
482.884553448395
 30
0.0
 10
905.4557806064761
 20
483.7405948104191
 30
0.0
 10
905.4557806064761
 20
483.7405948104191
 30
0.0
 10
905.4557806064761
 20
483.7405948104191
 30
0.0
 10
905.4557806064761
 20
483.7405948104191
 30
0.0
  0
ENDBLK
  5
7A
330
77
100
AcDbEntity
  8
0
100
AcDbBlockEnd
  0
BLOCK
  5
7E
330
7C
100
AcDbEntity
  8
0
100
AcDbBlockBegin
  2
block 10
 70
     0
 10
0.0
 20
0.0
 30
0.0
  3
block 10
  1

  0
SPLINE
  5
80
330
7C
100
AcDbEntity
  8
0
 62
     7
420
 16777215
370
    25
100
AcDbSpline
210
0.0
220
0.0
230
1.0
 70
    11
 71
     3
 72
    20
 73
    16
 74
     0
 42
0.0000000001
 43
0.0000000001
 12
1.0
 22
0.0
 32
0.0
 13
1.0
 23
0.0
 33
0.0
 40
0.0
 40
0.0
 40
0.0
 40
0.0
 40
1.0
 40
1.0
 40
1.0
 40
2.0
 40
2.0
 40
2.0
 40
3.0
 40
3.0
 40
3.0
 40
4.0
 40
4.0
 40
4.0
 40
5.0
 40
5.0
 40
5.0
 40
5.0
 10
1112.913438056091
 20
483.7405948104191
 30
0.0
 10
1112.913438056091
 20
484.5966361724432
 30
0.0
 10
1113.60739669368
 20
485.2905948100327
 30
0.0
 10
1114.463438055704
 20
485.2905948100327
 30
0.0
 10
1115.319479417728
 20
485.2905948100327
 30
0.0
 10
1116.013438055316
 20
484.5966361724432
 30
0.0
 10
1116.013438055316
 20
483.7405948104191
 30
0.0
 10
1116.013438055316
 20
482.884553448395
 30
0.0
 10
1115.319479417728
 20
482.1905948108073
 30
0.0
 10
1114.463438055704
 20
482.1905948108073
 30
0.0
 10
1113.60739669368
 20
482.1905948108073
 30
0.0
 10
1112.913438056091
 20
482.884553448395
 30
0.0
 10
1112.913438056091
 20
483.7405948104191
 30
0.0
 10
1112.913438056091
 20
483.7405948104191
 30
0.0
 10
1112.913438056091
 20
483.7405948104191
 30
0.0
 10
1112.913438056091
 20
483.7405948104191
 30
0.0
  0
ENDBLK
  5
7F
330
7C
100
AcDbEntity
  8
0
100
AcDbBlockEnd
  0
BLOCK
  5
83
330
81
100
AcDbEntity
  8
0
100
AcDbBlockBegin
  2
block 11
 70
     0
 10
0.0
 20
0.0
 30
0.0
  3
block 11
  1

  0
SPLINE
  5
85
330
81
100
AcDbEntity
  8
0
 62
     7
420
 16777215
370
    25
100
AcDbSpline
210
0.0
220
0.0
230
1.0
 70
    11
 71
     3
 72
    20
 73
    16
 74
     0
 42
0.0000000001
 43
0.0000000001
 12
1.0
 22
0.0
 32
0.0
 13
1.0
 23
0.0
 33
0.0
 40
0.0
 40
0.0
 40
0.0
 40
0.0
 40
1.0
 40
1.0
 40
1.0
 40
2.0
 40
2.0
 40
2.0
 40
3.0
 40
3.0
 40
3.0
 40
4.0
 40
4.0
 40
4.0
 40
5.0
 40
5.0
 40
5.0
 40
5.0
 10
1011.444218914299
 20
483.7405948104191
 30
0.0
 10
1011.444218914299
 20
484.5966361724432
 30
0.0
 10
1012.138177551887
 20
485.2905948100327
 30
0.0
 10
1012.994218913911
 20
485.2905948100327
 30
0.0
 10
1013.850260275935
 20
485.2905948100327
 30
0.0
 10
1014.544218913523
 20
484.5966361724432
 30
0.0
 10
1014.544218913523
 20
483.7405948104191
 30
0.0
 10
1014.544218913523
 20
482.884553448395
 30
0.0
 10
1013.850260275935
 20
482.1905948108073
 30
0.0
 10
1012.994218913911
 20
482.1905948108073
 30
0.0
 10
1012.138177551887
 20
482.1905948108073
 30
0.0
 10
1011.444218914299
 20
482.884553448395
 30
0.0
 10
1011.444218914299
 20
483.7405948104191
 30
0.0
 10
1011.444218914299
 20
483.7405948104191
 30
0.0
 10
1011.444218914299
 20
483.7405948104191
 30
0.0
 10
1011.444218914299
 20
483.7405948104191
 30
0.0
  0
ENDBLK
  5
84
330
81
100
AcDbEntity
  8
0
100
AcDbBlockEnd
  0
BLOCK
  5
88
330
86
100
AcDbEntity
  8
0
100
AcDbBlockBegin
  2
block 12
 70
     0
 10
0.0
 20
0.0
 30
0.0
  3
block 12
  1

  0
SPLINE
  5
8A
330
86
100
AcDbEntity
  8
0
 62
     7
420
 16777215
370
    25
100
AcDbSpline
210
0.0
220
0.0
230
1.0
 70
    11
 71
     3
 72
    20
 73
    16
 74
     0
 42
0.0000000001
 43
0.0000000001
 12
1.0
 22
0.0
 32
0.0
 13
1.0
 23
0.0
 33
0.0
 40
0.0
 40
0.0
 40
0.0
 40
0.0
 40
1.0
 40
1.0
 40
1.0
 40
2.0
 40
2.0
 40
2.0
 40
3.0
 40
3.0
 40
3.0
 40
4.0
 40
4.0
 40
4.0
 40
5.0
 40
5.0
 40
5.0
 40
5.0
 10
803.9865614646832
 20
483.7405948104191
 30
0.0
 10
803.9865614646832
 20
484.5966361724432
 30
0.0
 10
804.6805201022718
 20
485.2905948100327
 30
0.0
 10
805.5365614642958
 20
485.2905948100327
 30
0.0
 10
806.39260282632
 20
485.2905948100327
 30
0.0
 10
807.0865614639085
 20
484.5966361724432
 30
0.0
 10
807.0865614639085
 20
483.7405948104191
 30
0.0
 10
807.0865614639085
 20
482.884553448395
 30
0.0
 10
806.39260282632
 20
482.1905948108073
 30
0.0
 10
805.5365614642958
 20
482.1905948108073
 30
0.0
 10
804.6805201022718
 20
482.1905948108073
 30
0.0
 10
803.9865614646832
 20
482.884553448395
 30
0.0
 10
803.9865614646832
 20
483.7405948104191
 30
0.0
 10
803.9865614646832
 20
483.7405948104191
 30
0.0
 10
803.9865614646832
 20
483.7405948104191
 30
0.0
 10
803.9865614646832
 20
483.7405948104191
 30
0.0
  0
ENDBLK
  5
89
330
86
100
AcDbEntity
  8
0
100
AcDbBlockEnd
  0
BLOCK
  5
8D
330
8B
100
AcDbEntity
  8
0
100
AcDbBlockBegin
  2
block 13
 70
     0
 10
0.0
 20
0.0
 30
0.0
  3
block 13
  1

  0
SPLINE
  5
8F
330
8B
100
AcDbEntity
  8
0
 62
     7
420
 16777215
370
    25
100
AcDbSpline
210
0.0
220
0.0
230
1.0
 70
    11
 71
     3
 72
    20
 73
    16
 74
     0
 42
0.0000000001
 43
0.0000000001
 12
1.0
 22
0.0
 32
0.0
 13
1.0
 23
0.0
 33
0.0
 40
0.0
 40
0.0
 40
0.0
 40
0.0
 40
1.0
 40
1.0
 40
1.0
 40
2.0
 40
2.0
 40
2.0
 40
3.0
 40
3.0
 40
3.0
 40
4.0
 40
4.0
 40
4.0
 40
5.0
 40
5.0
 40
5.0
 40
5.0
 10
905.4557806064761
 20
596.2594049195809
 30
0.0
 10
905.4557806064761
 20
597.115446281604
 30
0.0
 10
906.1497392440646
 20
597.8094049191926
 30
0.0
 10
907.0057806060887
 20
597.8094049191926
 30
0.0
 10
907.8618219681119
 20
597.8094049191926
 30
0.0
 10
908.5557806057005
 20
597.115446281604
 30
0.0
 10
908.5557806057005
 20
596.2594049195809
 30
0.0
 10
908.5557806057005
 20
595.4033635575568
 30
0.0
 10
907.8618219681119
 20
594.7094049199682
 30
0.0
 10
907.0057806060887
 20
594.7094049199682
 30
0.0
 10
906.1497392440646
 20
594.7094049199682
 30
0.0
 10
905.4557806064761
 20
595.4033635575568
 30
0.0
 10
905.4557806064761
 20
596.2594049195809
 30
0.0
 10
905.4557806064761
 20
596.2594049195809
 30
0.0
 10
905.4557806064761
 20
596.2594049195809
 30
0.0
 10
905.4557806064761
 20
596.2594049195809
 30
0.0
  0
ENDBLK
  5
8E
330
8B
100
AcDbEntity
  8
0
100
AcDbBlockEnd
  0
BLOCK
  5
92
330
90
100
AcDbEntity
  8
0
100
AcDbBlockBegin
  2
block 14
 70
     0
 10
0.0
 20
0.0
 30
0.0
  3
block 14
  1

  0
SPLINE
  5
94
330
90
100
AcDbEntity
  8
0
 62
     7
420
 16777215
370
    25
100
AcDbSpline
210
0.0
220
0.0
230
1.0
 70
    11
 71
     3
 72
    20
 73
    16
 74
     0
 42
0.0000000001
 43
0.0000000001
 12
1.0
 22
0.0
 32
0.0
 13
1.0
 23
0.0
 33
0.0
 40
0.0
 40
0.0
 40
0.0
 40
0.0
 40
1.0
 40
1.0
 40
1.0
 40
2.0
 40
2.0
 40
2.0
 40
3.0
 40
3.0
 40
3.0
 40
4.0
 40
4.0
 40
4.0
 40
5.0
 40
5.0
 40
5.0
 40
5.0
 10
1112.913438056091
 20
596.2594049195809
 30
0.0
 10
1112.913438056091
 20
597.115446281604
 30
0.0
 10
1113.60739669368
 20
597.8094049191926
 30
0.0
 10
1114.463438055704
 20
597.8094049191926
 30
0.0
 10
1115.319479417728
 20
597.8094049191926
 30
0.0
 10
1116.013438055316
 20
597.115446281604
 30
0.0
 10
1116.013438055316
 20
596.2594049195809
 30
0.0
 10
1116.013438055316
 20
595.4033635575568
 30
0.0
 10
1115.319479417728
 20
594.7094049199682
 30
0.0
 10
1114.463438055704
 20
594.7094049199682
 30
0.0
 10
1113.60739669368
 20
594.7094049199682
 30
0.0
 10
1112.913438056091
 20
595.4033635575568
 30
0.0
 10
1112.913438056091
 20
596.2594049195809
 30
0.0
 10
1112.913438056091
 20
596.2594049195809
 30
0.0
 10
1112.913438056091
 20
596.2594049195809
 30
0.0
 10
1112.913438056091
 20
596.2594049195809
 30
0.0
  0
ENDBLK
  5
93
330
90
100
AcDbEntity
  8
0
100
AcDbBlockEnd
  0
BLOCK
  5
97
330
95
100
AcDbEntity
  8
0
100
AcDbBlockBegin
  2
block 15
 70
     0
 10
0.0
 20
0.0
 30
0.0
  3
block 15
  1

  0
SPLINE
  5
99
330
95
100
AcDbEntity
  8
0
 62
   240
420
 15539236
370
    35
100
AcDbSpline
210
0.0
220
0.0
230
1.0
 70
    11
 71
     3
 72
    71
 73
    67
 74
     0
 42
0.0000000001
 43
0.0000000001
 12
1.0
 22
0.0
 32
0.0
 13
1.0
 23
0.0
 33
0.0
 40
0.0
 40
0.0
 40
0.0
 40
0.0
 40
1.0
 40
1.0
 40
1.0
 40
2.0
 40
2.0
 40
2.0
 40
3.0
 40
3.0
 40
3.0
 40
4.0
 40
4.0
 40
4.0
 40
5.0
 40
5.0
 40
5.0
 40
6.0
 40
6.0
 40
6.0
 40
7.0
 40
7.0
 40
7.0
 40
8.0
 40
8.0
 40
8.0
 40
9.0
 40
9.0
 40
9.0
 40
10.0
 40
10.0
 40
10.0
 40
11.0
 40
11.0
 40
11.0
 40
12.0
 40
12.0
 40
12.0
 40
13.0
 40
13.0
 40
13.0
 40
14.0
 40
14.0
 40
14.0
 40
15.0
 40
15.0
 40
15.0
 40
16.0
 40
16.0
 40
16.0
 40
17.0
 40
17.0
 40
17.0
 40
18.0
 40
18.0
 40
18.0
 40
19.0
 40
19.0
 40
19.0
 40
20.0
 40
20.0
 40
20.0
 40
21.0
 40
21.0
 40
21.0
 40
22.0
 40
22.0
 40
22.0
 40
22.0
 10
810.0615232349846
 20
606.0375975047406
 30
0.0
 10
810.0615232349846
 20
606.0375975047406
 30
0.0
 10
808.0102537042475
 20
614.1210935964697
 30
0.0
 10
808.0102537042475
 20
614.1210935964697
 30
0.0
 10
808.0102537042475
 20
614.1210935964697
 30
0.0
 10
809.1137693289716
 20
614.1210935964697
 30
0.0
 10
809.1137693289716
 20
614.1210935964697
 30
0.0
 10
809.1137693289716
 20
614.1210935964697
 30
0.0
 10
810.0732419849817
 20
610.0312498474922
 30
0.0
 10
810.0732419849817
 20
610.0312498474922
 30
0.0
 10
810.3129880786718
 20
609.023925628994
 30
0.0
 10
810.5292966723676
 20
608.0166014104958
 30
0.0
 10
810.6728513598317
 20
607.2368162544408
 30
0.0
 10
810.6728513598317
 20
607.2368162544408
 30
0.0
 10
810.6967771410758
 20
607.2368162544408
 30
0.0
 10
810.6967771410758
 20
607.2368162544408
 30
0.0
 10
810.8291013597927
 20
608.0405271917399
 30
0.0
 10
811.0805662034799
 20
608.99999984775
 30
0.0
 10
811.3564451096609
 20
610.0434568787391
 30
0.0
 10
811.3564451096609
 20
610.0434568787391
 30
0.0
 10
812.436034953141
 20
614.1210935964697
 30
0.0
 10
812.436034953141
 20
614.1210935964697
 30
0.0
 10
812.436034953141
 20
614.1210935964697
 30
0.0
 10
813.5273435466181
 20
614.1210935964697
 30
0.0
 10
813.5273435466181
 20
614.1210935964697
 30
0.0
 10
813.5273435466181
 20
614.1210935964697
 30
0.0
 10
814.5107419838723
 20
610.0195310974951
 30
0.0
 10
814.5107419838723
 20
610.0195310974951
 30
0.0
 10
814.7387693275653
 20
609.060058441485
 30
0.0
 10
814.9545896400114
 20
608.1005857854749
 30
0.0
 10
815.0747068274814
 20
607.2490232856877
 30
0.0
 10
815.0747068274814
 20
607.2490232856877
 30
0.0
 10
815.0986326087253
 20
607.2490232856877
 30
0.0
 10
815.0986326087253
 20
607.2490232856877
 30
0.0
 10
815.2666013586834
 20
608.1362303167159
 30
0.0
 10
815.4941404211264
 20
609.0361326602409
 30
0.0
 10
815.7460935460634
 20
610.0434568787391
 30
0.0
 10
815.7460935460634
 20
610.0434568787391
 30
0.0
 10
816.8134763582966
 20
614.1210935964697
 30
0.0
 10
816.8134763582966
 20
614.1210935964697
 30
0.0
 10
816.8134763582966
 20
614.1210935964697
 30
0.0
 10
817.8808591705298
 20
614.1210935964697
 30
0.0
 10
817.8808591705298
 20
614.1210935964697
 30
0.0
 10
817.8808591705298
 20
614.1210935964697
 30
0.0
 10
815.5903318273524
 20
606.0375975047406
 30
0.0
 10
815.5903318273524
 20
606.0375975047406
 30
0.0
 10
815.5903318273524
 20
606.0375975047406
 30
0.0
 10
814.4990232338753
 20
606.0375975047406
 30
0.0
 10
814.4990232338753
 20
606.0375975047406
 30
0.0
 10
814.4990232338753
 20
606.0375975047406
 30
0.0
 10
813.4794919841302
 20
610.2470701599382
 30
0.0
 10
813.4794919841302
 20
610.2470701599382
 30
0.0
 10
813.2275388591931
 20
611.2788084409303
 30
0.0
 10
813.0595701092351
 20
612.0703123469824
 30
0.0
 10
812.951659953012
 20
612.8857420342786
 30
0.0
 10
812.951659953012
 20
612.8857420342786
 30
0.0
 10
812.9277341717681
 20
612.8857420342786
 30
0.0
 10
812.9277341717681
 20
612.8857420342786
 30
0.0
 10
812.7836912030541
 20
612.0825193782293
 30
0.0
 10
812.604003703099
 20
611.2905271909274
 30
0.0
 10
812.3041990156739
 20
610.2470701599382
 30
0.0
 10
812.3041990156739
 20
610.2470701599382
 30
0.0
 10
811.1528318284618
 20
606.0375975047406
 30
0.0
 10
811.1528318284618
 20
606.0375975047406
 30
0.0
 10
811.1528318284618
 20
606.0375975047406
 30
0.0
 10
810.0615232349846
 20
606.0375975047406
 30
0.0
 10
810.0615232349846
 20
606.0375975047406
 30
0.0
  0
HATCH
  5
9A
330
95
100
AcDbEntity
  8
0
 62
   240
420
 15539236
100
AcDbHatch
 10
0.0
 20
0.0
 30
0.0
210
0.0
220
0.0
230
1.0
  2
SOLID
 70
     1
 71
     0
 91
        1
 92
        1
 93
        1
 72
     4
 94
        3
 73
     0
 74
     1
 95
       71
 96
       67
 40
0.0
 40
0.0
 40
0.0
 40
0.0
 40
1.0
 40
1.0
 40
1.0
 40
2.0
 40
2.0
 40
2.0
 40
3.0
 40
3.0
 40
3.0
 40
4.0
 40
4.0
 40
4.0
 40
5.0
 40
5.0
 40
5.0
 40
6.0
 40
6.0
 40
6.0
 40
7.0
 40
7.0
 40
7.0
 40
8.0
 40
8.0
 40
8.0
 40
9.0
 40
9.0
 40
9.0
 40
10.0
 40
10.0
 40
10.0
 40
11.0
 40
11.0
 40
11.0
 40
12.0
 40
12.0
 40
12.0
 40
13.0
 40
13.0
 40
13.0
 40
14.0
 40
14.0
 40
14.0
 40
15.0
 40
15.0
 40
15.0
 40
16.0
 40
16.0
 40
16.0
 40
17.0
 40
17.0
 40
17.0
 40
18.0
 40
18.0
 40
18.0
 40
19.0
 40
19.0
 40
19.0
 40
20.0
 40
20.0
 40
20.0
 40
21.0
 40
21.0
 40
21.0
 40
22.0
 40
22.0
 40
22.0
 40
22.0
 10
810.0615232349846
 20
606.0375975047406
 10
810.0615232349846
 20
606.0375975047406
 10
808.0102537042475
 20
614.1210935964697
 10
808.0102537042475
 20
614.1210935964697
 10
808.0102537042475
 20
614.1210935964697
 10
809.1137693289716
 20
614.1210935964697
 10
809.1137693289716
 20
614.1210935964697
 10
809.1137693289716
 20
614.1210935964697
 10
810.0732419849817
 20
610.0312498474922
 10
810.0732419849817
 20
610.0312498474922
 10
810.3129880786718
 20
609.023925628994
 10
810.5292966723676
 20
608.0166014104958
 10
810.6728513598317
 20
607.2368162544408
 10
810.6728513598317
 20
607.2368162544408
 10
810.6967771410758
 20
607.2368162544408
 10
810.6967771410758
 20
607.2368162544408
 10
810.8291013597927
 20
608.0405271917399
 10
811.0805662034799
 20
608.99999984775
 10
811.3564451096609
 20
610.0434568787391
 10
811.3564451096609
 20
610.0434568787391
 10
812.436034953141
 20
614.1210935964697
 10
812.436034953141
 20
614.1210935964697
 10
812.436034953141
 20
614.1210935964697
 10
813.5273435466181
 20
614.1210935964697
 10
813.5273435466181
 20
614.1210935964697
 10
813.5273435466181
 20
614.1210935964697
 10
814.5107419838723
 20
610.0195310974951
 10
814.5107419838723
 20
610.0195310974951
 10
814.7387693275653
 20
609.060058441485
 10
814.9545896400114
 20
608.1005857854749
 10
815.0747068274814
 20
607.2490232856877
 10
815.0747068274814
 20
607.2490232856877
 10
815.0986326087253
 20
607.2490232856877
 10
815.0986326087253
 20
607.2490232856877
 10
815.2666013586834
 20
608.1362303167159
 10
815.4941404211264
 20
609.0361326602409
 10
815.7460935460634
 20
610.0434568787391
 10
815.7460935460634
 20
610.0434568787391
 10
816.8134763582966
 20
614.1210935964697
 10
816.8134763582966
 20
614.1210935964697
 10
816.8134763582966
 20
614.1210935964697
 10
817.8808591705298
 20
614.1210935964697
 10
817.8808591705298
 20
614.1210935964697
 10
817.8808591705298
 20
614.1210935964697
 10
815.5903318273524
 20
606.0375975047406
 10
815.5903318273524
 20
606.0375975047406
 10
815.5903318273524
 20
606.0375975047406
 10
814.4990232338753
 20
606.0375975047406
 10
814.4990232338753
 20
606.0375975047406
 10
814.4990232338753
 20
606.0375975047406
 10
813.4794919841302
 20
610.2470701599382
 10
813.4794919841302
 20
610.2470701599382
 10
813.2275388591931
 20
611.2788084409303
 10
813.0595701092351
 20
612.0703123469824
 10
812.951659953012
 20
612.8857420342786
 10
812.951659953012
 20
612.8857420342786
 10
812.9277341717681
 20
612.8857420342786
 10
812.9277341717681
 20
612.8857420342786
 10
812.7836912030541
 20
612.0825193782293
 10
812.604003703099
 20
611.2905271909274
 10
812.3041990156739
 20
610.2470701599382
 10
812.3041990156739
 20
610.2470701599382
 10
811.1528318284618
 20
606.0375975047406
 10
811.1528318284618
 20
606.0375975047406
 10
811.1528318284618
 20
606.0375975047406
 10
810.0615232349846
 20
606.0375975047406
 10
810.0615232349846
 20
606.0375975047406
 97
        0
 97
        0
 75
     2
 76
     1
 98
        0
  0
SPLINE
  5
9B
330
95
100
AcDbEntity
  8
0
 62
   240
420
 15539236
370
    35
100
AcDbSpline
210
0.0
220
0.0
230
1.0
 70
    11
 71
     3
 72
    47
 73
    43
 74
     0
 42
0.0000000001
 43
0.0000000001
 12
1.0
 22
0.0
 32
0.0
 13
1.0
 23
0.0
 33
0.0
 40
0.0
 40
0.0
 40
0.0
 40
0.0
 40
1.0
 40
1.0
 40
1.0
 40
2.0
 40
2.0
 40
2.0
 40
3.0
 40
3.0
 40
3.0
 40
4.0
 40
4.0
 40
4.0
 40
5.0
 40
5.0
 40
5.0
 40
6.0
 40
6.0
 40
6.0
 40
7.0
 40
7.0
 40
7.0
 40
8.0
 40
8.0
 40
8.0
 40
9.0
 40
9.0
 40
9.0
 40
10.0
 40
10.0
 40
10.0
 40
11.0
 40
11.0
 40
11.0
 40
12.0
 40
12.0
 40
12.0
 40
13.0
 40
13.0
 40
13.0
 40
14.0
 40
14.0
 40
14.0
 40
14.0
 10
818.8940427640265
 20
614.1210935964697
 30
0.0
 10
818.8940427640265
 20
614.1210935964697
 30
0.0
 10
819.9374997950156
 20
614.1210935964697
 30
0.0
 10
819.9374997950156
 20
614.1210935964697
 30
0.0
 10
819.9374997950156
 20
614.1210935964697
 30
0.0
 10
819.9374997950156
 20
610.2231443786942
 30
0.0
 10
819.9374997950156
 20
610.2231443786942
 30
0.0
 10
819.9374997950156
 20
610.2231443786942
 30
0.0
 10
819.9731443262567
 20
610.2231443786942
 30
0.0
 10
819.9731443262567
 20
610.2231443786942
 30
0.0
 10
820.1889646387027
 20
610.5351560973662
 30
0.0
 10
820.4052732323987
 20
610.8227537535442
 30
0.0
 10
820.6088865135978
 20
611.0869139097283
 30
0.0
 10
820.6088865135978
 20
611.0869139097283
 30
0.0
 10
823.0795896379801
 20
614.1210935964697
 30
0.0
 10
823.0795896379801
 20
614.1210935964697
 30
0.0
 10
823.0795896379801
 20
614.1210935964697
 30
0.0
 10
824.3749997939062
 20
614.1210935964697
 30
0.0
 10
824.3749997939062
 20
614.1210935964697
 30
0.0
 10
824.3749997939062
 20
614.1210935964697
 30
0.0
 10
821.4487302633878
 20
610.6909178160772
 30
0.0
 10
821.4487302633878
 20
610.6909178160772
 30
0.0
 10
821.4487302633878
 20
610.6909178160772
 30
0.0
 10
824.6030271375993
 20
606.0375975047406
 30
0.0
 10
824.6030271375993
 20
606.0375975047406
 30
0.0
 10
824.6030271375993
 20
606.0375975047406
 30
0.0
 10
823.367675575408
 20
606.0375975047406
 30
0.0
 10
823.367675575408
 20
606.0375975047406
 30
0.0
 10
823.367675575408
 20
606.0375975047406
 30
0.0
 10
820.7050779198237
 20
610.0073240662482
 30
0.0
 10
820.7050779198237
 20
610.0073240662482
 30
0.0
 10
820.7050779198237
 20
610.0073240662482
 30
0.0
 10
819.9374997950156
 20
609.12011703522
 30
0.0
 10
819.9374997950156
 20
609.12011703522
 30
0.0
 10
819.9374997950156
 20
609.12011703522
 30
0.0
 10
819.9374997950156
 20
606.0375975047406
 30
0.0
 10
819.9374997950156
 20
606.0375975047406
 30
0.0
 10
819.9374997950156
 20
606.0375975047406
 30
0.0
 10
818.8940427640265
 20
606.0375975047406
 30
0.0
 10
818.8940427640265
 20
606.0375975047406
 30
0.0
 10
818.8940427640265
 20
606.0375975047406
 30
0.0
 10
818.8940427640265
 20
614.1210935964697
 30
0.0
 10
818.8940427640265
 20
614.1210935964697
 30
0.0
  0
HATCH
  5
9C
330
95
100
AcDbEntity
  8
0
 62
   240
420
 15539236
100
AcDbHatch
 10
0.0
 20
0.0
 30
0.0
210
0.0
220
0.0
230
1.0
  2
SOLID
 70
     1
 71
     0
 91
        1
 92
        1
 93
        1
 72
     4
 94
        3
 73
     0
 74
     1
 95
       47
 96
       43
 40
0.0
 40
0.0
 40
0.0
 40
0.0
 40
1.0
 40
1.0
 40
1.0
 40
2.0
 40
2.0
 40
2.0
 40
3.0
 40
3.0
 40
3.0
 40
4.0
 40
4.0
 40
4.0
 40
5.0
 40
5.0
 40
5.0
 40
6.0
 40
6.0
 40
6.0
 40
7.0
 40
7.0
 40
7.0
 40
8.0
 40
8.0
 40
8.0
 40
9.0
 40
9.0
 40
9.0
 40
10.0
 40
10.0
 40
10.0
 40
11.0
 40
11.0
 40
11.0
 40
12.0
 40
12.0
 40
12.0
 40
13.0
 40
13.0
 40
13.0
 40
14.0
 40
14.0
 40
14.0
 40
14.0
 10
818.8940427640265
 20
614.1210935964697
 10
818.8940427640265
 20
614.1210935964697
 10
819.9374997950156
 20
614.1210935964697
 10
819.9374997950156
 20
614.1210935964697
 10
819.9374997950156
 20
614.1210935964697
 10
819.9374997950156
 20
610.2231443786942
 10
819.9374997950156
 20
610.2231443786942
 10
819.9374997950156
 20
610.2231443786942
 10
819.9731443262567
 20
610.2231443786942
 10
819.9731443262567
 20
610.2231443786942
 10
820.1889646387027
 20
610.5351560973662
 10
820.4052732323987
 20
610.8227537535442
 10
820.6088865135978
 20
611.0869139097283
 10
820.6088865135978
 20
611.0869139097283
 10
823.0795896379801
 20
614.1210935964697
 10
823.0795896379801
 20
614.1210935964697
 10
823.0795896379801
 20
614.1210935964697
 10
824.3749997939062
 20
614.1210935964697
 10
824.3749997939062
 20
614.1210935964697
 10
824.3749997939062
 20
614.1210935964697
 10
821.4487302633878
 20
610.6909178160772
 10
821.4487302633878
 20
610.6909178160772
 10
821.4487302633878
 20
610.6909178160772
 10
824.6030271375993
 20
606.0375975047406
 10
824.6030271375993
 20
606.0375975047406
 10
824.6030271375993
 20
606.0375975047406
 10
823.367675575408
 20
606.0375975047406
 10
823.367675575408
 20
606.0375975047406
 10
823.367675575408
 20
606.0375975047406
 10
820.7050779198237
 20
610.0073240662482
 10
820.7050779198237
 20
610.0073240662482
 10
820.7050779198237
 20
610.0073240662482
 10
819.9374997950156
 20
609.12011703522
 10
819.9374997950156
 20
609.12011703522
 10
819.9374997950156
 20
609.12011703522
 10
819.9374997950156
 20
606.0375975047406
 10
819.9374997950156
 20
606.0375975047406
 10
819.9374997950156
 20
606.0375975047406
 10
818.8940427640265
 20
606.0375975047406
 10
818.8940427640265
 20
606.0375975047406
 10
818.8940427640265
 20
606.0375975047406
 10
818.8940427640265
 20
614.1210935964697
 10
818.8940427640265
 20
614.1210935964697
 97
        0
 97
        0
 75
     2
 76
     1
 98
        0
  0
POLYLINE
  5
9D
330
95
100
AcDbEntity
  8
0
 62
   240
420
 15539236
370
    35
100
AcDb2dPolyline
 66
     1
 10
0.0
 20
0.0
 30
0.0
  0
VERTEX
  5
9E
330
9D
100
AcDbEntity
  8
0
 62
   240
420
 15539236
370
    35
100
AcDbVertex
100
AcDb2dVertex
 10
825.3979490124005
 20
614.1210935964697
 30
0.0
  0
VERTEX
  5
9F
330
9D
100
AcDbEntity
  8
0
 62
   240
420
 15539236
370
    35
100
AcDbVertex
100
AcDb2dVertex
 10
826.4414060433896
 20
614.1210935964697
 30
0.0
  0
VERTEX
  5
A0
330
9D
100
AcDbEntity
  8
0
 62
   240
420
 15539236
370
    35
100
AcDbVertex
100
AcDb2dVertex
 10
826.4414060433896
 20
606.9130857857717
 30
0.0
  0
VERTEX
  5
A1
330
9D
100
AcDbEntity
  8
0
 62
   240
420
 15539236
370
    35
100
AcDbVertex
100
AcDb2dVertex
 10
829.8955076050261
 20
606.9130857857717
 30
0.0
  0
VERTEX
  5
A2
330
9D
100
AcDbEntity
  8
0
 62
   240
420
 15539236
370
    35
100
AcDbVertex
100
AcDb2dVertex
 10
829.8955076050261
 20
606.0375975047406
 30
0.0
  0
VERTEX
  5
A3
330
9D
100
AcDbEntity
  8
0
 62
   240
420
 15539236
370
    35
100
AcDbVertex
100
AcDb2dVertex
 10
825.3979490124005
 20
606.0375975047406
 30
0.0
  0
VERTEX
  5
A4
330
9D
100
AcDbEntity
  8
0
 62
   240
420
 15539236
370
    35
100
AcDbVertex
100
AcDb2dVertex
 10
825.3979490124005
 20
614.1210935964697
 30
0.0
  0
SEQEND
  5
A5
330
9D
100
AcDbEntity
  8
0
 62
   240
420
 15539236
370
    35
  0
HATCH
  5
A6
330
95
100
AcDbEntity
  8
0
 62
   240
420
 15539236
100
AcDbHatch
 10
0.0
 20
0.0
 30
0.0
210
0.0
220
0.0
230
1.0
  2
SOLID
 70
     1
 71
     0
 91
        1
 92
        1
 93
        6
 72
     1
 10
825.3979490124005
 20
614.1210935964697
 11
826.4414060433896
 21
614.1210935964697
 72
     1
 10
826.4414060433896
 20
614.1210935964697
 11
826.4414060433896
 21
606.9130857857717
 72
     1
 10
826.4414060433896
 20
606.9130857857717
 11
829.8955076050261
 21
606.9130857857717
 72
     1
 10
829.8955076050261
 20
606.9130857857717
 11
829.8955076050261
 21
606.0375975047406
 72
     1
 10
829.8955076050261
 20
606.0375975047406
 11
825.3979490124005
 21
606.0375975047406
 72
     1
 10
825.3979490124005
 20
606.0375975047406
 11
825.3979490124005
 21
614.1210935964697
 97
        0
 75
     2
 76
     1
 98
        0
  0
POLYLINE
  5
A7
330
95
100
AcDbEntity
  8
0
 62
   240
420
 15539236
370
    35
100
AcDb2dPolyline
 66
     1
 10
0.0
 20
0.0
 30
0.0
  0
VERTEX
  5
A8
330
A7
100
AcDbEntity
  8
0
 62
   240
420
 15539236
370
    35
100
AcDbVertex
100
AcDb2dVertex
 10
833.6054685415986
 20
614.1210935964697
 30
0.0
  0
VERTEX
  5
A9
330
A7
100
AcDbEntity
  8
0
 62
   240
420
 15539236
370
    35
100
AcDbVertex
100
AcDb2dVertex
 10
834.6489255725877
 20
614.1210935964697
 30
0.0
  0
VERTEX
  5
AA
330
A7
100
AcDbEntity
  8
0
 62
   240
420
 15539236
370
    35
100
AcDbVertex
100
AcDb2dVertex
 10
834.6489255725877
 20
606.9130857857717
 30
0.0
  0
VERTEX
  5
AB
330
A7
100
AcDbEntity
  8
0
 62
   240
420
 15539236
370
    35
100
AcDbVertex
100
AcDb2dVertex
 10
838.1030271342242
 20
606.9130857857717
 30
0.0
  0
VERTEX
  5
AC
330
A7
100
AcDbEntity
  8
0
 62
   240
420
 15539236
370
    35
100
AcDbVertex
100
AcDb2dVertex
 10
838.1030271342242
 20
606.0375975047406
 30
0.0
  0
VERTEX
  5
AD
330
A7
100
AcDbEntity
  8
0
 62
   240
420
 15539236
370
    35
100
AcDbVertex
100
AcDb2dVertex
 10
833.6054685415986
 20
606.0375975047406
 30
0.0
  0
VERTEX
  5
AE
330
A7
100
AcDbEntity
  8
0
 62
   240
420
 15539236
370
    35
100
AcDbVertex
100
AcDb2dVertex
 10
833.6054685415986
 20
614.1210935964697
 30
0.0
  0
SEQEND
  5
AF
330
A7
100
AcDbEntity
  8
0
 62
   240
420
 15539236
370
    35
  0
HATCH
  5
B0
330
95
100
AcDbEntity
  8
0
 62
   240
420
 15539236
100
AcDbHatch
 10
0.0
 20
0.0
 30
0.0
210
0.0
220
0.0
230
1.0
  2
SOLID
 70
     1
 71
     0
 91
        1
 92
        1
 93
        6
 72
     1
 10
833.6054685415986
 20
614.1210935964697
 11
834.6489255725877
 21
614.1210935964697
 72
     1
 10
834.6489255725877
 20
614.1210935964697
 11
834.6489255725877
 21
606.9130857857717
 72
     1
 10
834.6489255725877
 20
606.9130857857717
 11
838.1030271342242
 21
606.9130857857717
 72
     1
 10
838.1030271342242
 20
606.9130857857717
 11
838.1030271342242
 21
606.0375975047406
 72
     1
 10
838.1030271342242
 20
606.0375975047406
 11
833.6054685415986
 21
606.0375975047406
 72
     1
 10
833.6054685415986
 20
606.0375975047406
 11
833.6054685415986
 21
614.1210935964697
 97
        0
 75
     2
 76
     1
 98
        0
  0
SPLINE
  5
B1
330
95
100
AcDbEntity
  8
0
 62
   240
420
 15539236
370
    35
100
AcDbSpline
210
0.0
220
0.0
230
1.0
 70
    11
 71
     3
 72
    47
 73
    43
 74
     0
 42
0.0000000001
 43
0.0000000001
 12
1.0
 22
0.0
 32
0.0
 13
1.0
 23
0.0
 33
0.0
 40
0.0
 40
0.0
 40
0.0
 40
0.0
 40
1.0
 40
1.0
 40
1.0
 40
2.0
 40
2.0
 40
2.0
 40
3.0
 40
3.0
 40
3.0
 40
4.0
 40
4.0
 40
4.0
 40
5.0
 40
5.0
 40
5.0
 40
6.0
 40
6.0
 40
6.0
 40
7.0
 40
7.0
 40
7.0
 40
8.0
 40
8.0
 40
8.0
 40
9.0
 40
9.0
 40
9.0
 40
10.0
 40
10.0
 40
10.0
 40
11.0
 40
11.0
 40
11.0
 40
12.0
 40
12.0
 40
12.0
 40
13.0
 40
13.0
 40
13.0
 40
14.0
 40
14.0
 40
14.0
 40
14.0
 10
838.8974607277756
 20
606.0375975047406
 30
0.0
 10
838.8974607277756
 20
606.0375975047406
 30
0.0
 10
838.8974607277756
 20
606.6850584420787
 30
0.0
 10
838.8974607277756
 20
606.6850584420787
 30
0.0
 10
838.8974607277756
 20
606.6850584420787
 30
0.0
 10
839.7250974463187
 20
607.4887693793778
 30
0.0
 10
839.7250974463187
 20
607.4887693793778
 30
0.0
 10
841.7163083833209
 20
609.3837889101541
 30
0.0
 10
842.615722445596
 20
610.3911131286523
 30
0.0
 10
842.6274411955932
 20
611.5664060971084
 30
0.0
 10
842.6274411955932
 20
612.3579100031606
 30
0.0
 10
842.243652133189
 20
613.0898435967275
 30
0.0
 10
841.0805661959798
 20
613.0898435967275
 30
0.0
 10
840.3725583836568
 20
613.0898435967275
 30
0.0
 10
839.7851560400537
 20
612.7299803155674
 30
0.0
 10
839.4252927588936
 20
612.4301756281425
 30
0.0
 10
839.4252927588936
 20
612.4301756281425
 30
0.0
 10
839.0893552589777
 20
613.1738279717065
 30
0.0
 10
839.0893552589777
 20
613.1738279717065
 30
0.0
 10
839.6293943213426
 20
613.6293943778427
 30
0.0
 10
840.3969724461507
 20
613.9653318777587
 30
0.0
 10
841.2963865084259
 20
613.9653318777587
 30
0.0
 10
842.9755857267561
 20
613.9653318777587
 30
0.0
 10
843.6831052578292
 20
612.8139646905465
 30
0.0
 10
843.6831052578292
 20
611.6987303158253
 30
0.0
 10
843.6831052578292
 20
610.2592771911852
 30
0.0
 10
842.6396482268401
 20
609.095702972726
 30
0.0
 10
840.9965818210009
 20
607.5126951606218
 30
0.0
 10
840.9965818210009
 20
607.5126951606218
 30
0.0
 10
840.3725583836568
 20
606.9370115670157
 30
0.0
 10
840.3725583836568
 20
606.9370115670157
 30
0.0
 10
840.3725583836568
 20
606.9370115670157
 30
0.0
 10
840.3725583836568
 20
606.9130857857717
 30
0.0
 10
840.3725583836568
 20
606.9130857857717
 30
0.0
 10
840.3725583836568
 20
606.9130857857717
 30
0.0
 10
843.8749997890312
 20
606.9130857857717
 30
0.0
 10
843.8749997890312
 20
606.9130857857717
 30
0.0
 10
843.8749997890312
 20
606.9130857857717
 30
0.0
 10
843.8749997890312
 20
606.0375975047406
 30
0.0
 10
843.8749997890312
 20
606.0375975047406
 30
0.0
 10
843.8749997890312
 20
606.0375975047406
 30
0.0
 10
838.8974607277756
 20
606.0375975047406
 30
0.0
 10
838.8974607277756
 20
606.0375975047406
 30
0.0
  0
HATCH
  5
B2
330
95
100
AcDbEntity
  8
0
 62
   240
420
 15539236
100
AcDbHatch
 10
0.0
 20
0.0
 30
0.0
210
0.0
220
0.0
230
1.0
  2
SOLID
 70
     1
 71
     0
 91
        1
 92
        1
 93
        1
 72
     4
 94
        3
 73
     0
 74
     1
 95
       47
 96
       43
 40
0.0
 40
0.0
 40
0.0
 40
0.0
 40
1.0
 40
1.0
 40
1.0
 40
2.0
 40
2.0
 40
2.0
 40
3.0
 40
3.0
 40
3.0
 40
4.0
 40
4.0
 40
4.0
 40
5.0
 40
5.0
 40
5.0
 40
6.0
 40
6.0
 40
6.0
 40
7.0
 40
7.0
 40
7.0
 40
8.0
 40
8.0
 40
8.0
 40
9.0
 40
9.0
 40
9.0
 40
10.0
 40
10.0
 40
10.0
 40
11.0
 40
11.0
 40
11.0
 40
12.0
 40
12.0
 40
12.0
 40
13.0
 40
13.0
 40
13.0
 40
14.0
 40
14.0
 40
14.0
 40
14.0
 10
838.8974607277756
 20
606.0375975047406
 10
838.8974607277756
 20
606.0375975047406
 10
838.8974607277756
 20
606.6850584420787
 10
838.8974607277756
 20
606.6850584420787
 10
838.8974607277756
 20
606.6850584420787
 10
839.7250974463187
 20
607.4887693793778
 10
839.7250974463187
 20
607.4887693793778
 10
841.7163083833209
 20
609.3837889101541
 10
842.615722445596
 20
610.3911131286523
 10
842.6274411955932
 20
611.5664060971084
 10
842.6274411955932
 20
612.3579100031606
 10
842.243652133189
 20
613.0898435967275
 10
841.0805661959798
 20
613.0898435967275
 10
840.3725583836568
 20
613.0898435967275
 10
839.7851560400537
 20
612.7299803155674
 10
839.4252927588936
 20
612.4301756281425
 10
839.4252927588936
 20
612.4301756281425
 10
839.0893552589777
 20
613.1738279717065
 10
839.0893552589777
 20
613.1738279717065
 10
839.6293943213426
 20
613.6293943778427
 10
840.3969724461507
 20
613.9653318777587
 10
841.2963865084259
 20
613.9653318777587
 10
842.9755857267561
 20
613.9653318777587
 10
843.6831052578292
 20
612.8139646905465
 10
843.6831052578292
 20
611.6987303158253
 10
843.6831052578292
 20
610.2592771911852
 10
842.6396482268401
 20
609.095702972726
 10
840.9965818210009
 20
607.5126951606218
 10
840.9965818210009
 20
607.5126951606218
 10
840.3725583836568
 20
606.9370115670157
 10
840.3725583836568
 20
606.9370115670157
 10
840.3725583836568
 20
606.9370115670157
 10
840.3725583836568
 20
606.9130857857717
 10
840.3725583836568
 20
606.9130857857717
 10
840.3725583836568
 20
606.9130857857717
 10
843.8749997890312
 20
606.9130857857717
 10
843.8749997890312
 20
606.9130857857717
 10
843.8749997890312
 20
606.9130857857717
 10
843.8749997890312
 20
606.0375975047406
 10
843.8749997890312
 20
606.0375975047406
 10
843.8749997890312
 20
606.0375975047406
 10
838.8974607277756
 20
606.0375975047406
 10
838.8974607277756
 20
606.0375975047406
 97
        0
 97
        0
 75
     2
 76
     1
 98
        0
  0
SPLINE
  5
B3
330
95
100
AcDbEntity
  8
0
 62
   240
420
 15539236
370
    35
100
AcDbSpline
210
0.0
220
0.0
230
1.0
 70
    11
 71
     3
 72
    47
 73
    43
 74
     0
 42
0.0000000001
 43
0.0000000001
 12
1.0
 22
0.0
 32
0.0
 13
1.0
 23
0.0
 33
0.0
 40
0.0
 40
0.0
 40
0.0
 40
0.0
 40
1.0
 40
1.0
 40
1.0
 40
2.0
 40
2.0
 40
2.0
 40
3.0
 40
3.0
 40
3.0
 40
4.0
 40
4.0
 40
4.0
 40
5.0
 40
5.0
 40
5.0
 40
6.0
 40
6.0
 40
6.0
 40
7.0
 40
7.0
 40
7.0
 40
8.0
 40
8.0
 40
8.0
 40
9.0
 40
9.0
 40
9.0
 40
10.0
 40
10.0
 40
10.0
 40
11.0
 40
11.0
 40
11.0
 40
12.0
 40
12.0
 40
12.0
 40
13.0
 40
13.0
 40
13.0
 40
14.0
 40
14.0
 40
14.0
 40
14.0
 10
847.8251951005437
 20
607.3090818794227
 30
0.0
 10
848.2929685379268
 20
607.0209959419948
 30
0.0
 10
848.9765622877559
 20
606.7812498483047
 30
0.0
 10
849.6962888500759
 20
606.7812498483047
 30
0.0
 10
850.7636716623091
 20
606.7812498483047
 30
0.0
 10
851.3872068184032
 20
607.3447264106638
 30
0.0
 10
851.3872068184032
 20
608.1606443792098
 30
0.0
 10
851.3872068184032
 20
608.9160154727709
 30
0.0
 10
850.9555661935111
 20
609.347656097663
 30
0.0
 10
849.864257600034
 20
609.7675779725581
 30
0.0
 10
848.5449216628638
 20
610.2353514099411
 30
0.0
 10
847.7290036943177
 20
610.9189451597703
 30
0.0
 10
847.7290036943177
 20
612.0581053157355
 30
0.0
 10
847.7290036943177
 20
613.3173826591707
 30
0.0
 10
848.7724607253068
 20
614.2529295339367
 30
0.0
 10
850.343749787414
 20
614.2529295339367
 30
0.0
 10
851.1713865059571
 20
614.2529295339367
 30
0.0
 10
851.7709958808073
 20
614.0610350027347
 30
0.0
 10
852.1308591619672
 20
613.8574217215356
 30
0.0
 10
852.1308591619672
 20
613.8574217215356
 30
0.0
 10
851.8427732245393
 20
613.0058592217486
 30
0.0
 10
851.8427732245393
 20
613.0058592217486
 30
0.0
 10
851.5791013496053
 20
613.1499021904625
 30
0.0
 10
851.0395505684901
 20
613.3896482841526
 30
0.0
 10
850.3076169749231
 20
613.3896482841526
 30
0.0
 10
849.2045896314488
 20
613.3896482841526
 30
0.0
 10
848.7846677565539
 20
612.7299803155674
 30
0.0
 10
848.7846677565539
 20
612.1782225032055
 30
0.0
 10
848.7846677565539
 20
611.4228514096443
 30
0.0
 10
849.2763669751808
 20
611.0507810972373
 30
0.0
 10
850.3916013499021
 20
610.6191404723452
 30
0.0
 10
851.7592771308101
 20
610.0913084412272
 30
0.0
 10
852.4545896306363
 20
609.4316404726421
 30
0.0
 10
852.4545896306363
 20
608.2446287541889
 30
0.0
 10
852.4545896306363
 20
606.9970701607507
 30
0.0
 10
851.5312497871172
 20
605.9174803172706
 30
0.0
 10
849.624023225094
 20
605.9174803172706
 30
0.0
 10
848.8447263502889
 20
605.9174803172706
 30
0.0
 10
847.9931638505017
 20
606.1455076609636
 30
0.0
 10
847.5615232256096
 20
606.4335935983916
 30
0.0
 10
847.5615232256096
 20
606.4335935983916
 30
0.0
 10
847.8251951005437
 20
607.3090818794227
 30
0.0
 10
847.8251951005437
 20
607.3090818794227
 30
0.0
  0
HATCH
  5
B4
330
95
100
AcDbEntity
  8
0
 62
   240
420
 15539236
100
AcDbHatch
 10
0.0
 20
0.0
 30
0.0
210
0.0
220
0.0
230
1.0
  2
SOLID
 70
     1
 71
     0
 91
        1
 92
        1
 93
        1
 72
     4
 94
        3
 73
     0
 74
     1
 95
       47
 96
       43
 40
0.0
 40
0.0
 40
0.0
 40
0.0
 40
1.0
 40
1.0
 40
1.0
 40
2.0
 40
2.0
 40
2.0
 40
3.0
 40
3.0
 40
3.0
 40
4.0
 40
4.0
 40
4.0
 40
5.0
 40
5.0
 40
5.0
 40
6.0
 40
6.0
 40
6.0
 40
7.0
 40
7.0
 40
7.0
 40
8.0
 40
8.0
 40
8.0
 40
9.0
 40
9.0
 40
9.0
 40
10.0
 40
10.0
 40
10.0
 40
11.0
 40
11.0
 40
11.0
 40
12.0
 40
12.0
 40
12.0
 40
13.0
 40
13.0
 40
13.0
 40
14.0
 40
14.0
 40
14.0
 40
14.0
 10
847.8251951005437
 20
607.3090818794227
 10
848.2929685379268
 20
607.0209959419948
 10
848.9765622877559
 20
606.7812498483047
 10
849.6962888500759
 20
606.7812498483047
 10
850.7636716623091
 20
606.7812498483047
 10
851.3872068184032
 20
607.3447264106638
 10
851.3872068184032
 20
608.1606443792098
 10
851.3872068184032
 20
608.9160154727709
 10
850.9555661935111
 20
609.347656097663
 10
849.864257600034
 20
609.7675779725581
 10
848.5449216628638
 20
610.2353514099411
 10
847.7290036943177
 20
610.9189451597703
 10
847.7290036943177
 20
612.0581053157355
 10
847.7290036943177
 20
613.3173826591707
 10
848.7724607253068
 20
614.2529295339367
 10
850.343749787414
 20
614.2529295339367
 10
851.1713865059571
 20
614.2529295339367
 10
851.7709958808073
 20
614.0610350027347
 10
852.1308591619672
 20
613.8574217215356
 10
852.1308591619672
 20
613.8574217215356
 10
851.8427732245393
 20
613.0058592217486
 10
851.8427732245393
 20
613.0058592217486
 10
851.5791013496053
 20
613.1499021904625
 10
851.0395505684901
 20
613.3896482841526
 10
850.3076169749231
 20
613.3896482841526
 10
849.2045896314488
 20
613.3896482841526
 10
848.7846677565539
 20
612.7299803155674
 10
848.7846677565539
 20
612.1782225032055
 10
848.7846677565539
 20
611.4228514096443
 10
849.2763669751808
 20
611.0507810972373
 10
850.3916013499021
 20
610.6191404723452
 10
851.7592771308101
 20
610.0913084412272
 10
852.4545896306363
 20
609.4316404726421
 10
852.4545896306363
 20
608.2446287541889
 10
852.4545896306363
 20
606.9970701607507
 10
851.5312497871172
 20
605.9174803172706
 10
849.624023225094
 20
605.9174803172706
 10
848.8447263502889
 20
605.9174803172706
 10
847.9931638505017
 20
606.1455076609636
 10
847.5615232256096
 20
606.4335935983916
 10
847.5615232256096
 20
606.4335935983916
 10
847.8251951005437
 20
607.3090818794227
 10
847.8251951005437
 20
607.3090818794227
 97
        0
 97
        0
 75
     2
 76
     1
 98
        0
  0
SPLINE
  5
B5
330
95
100
AcDbEntity
  8
0
 62
   240
420
 15539236
370
    35
100
AcDbSpline
210
0.0
220
0.0
230
1.0
 70
    11
 71
     3
 72
    56
 73
    52
 74
     0
 42
0.0000000001
 43
0.0000000001
 12
1.0
 22
0.0
 32
0.0
 13
1.0
 23
0.0
 33
0.0
 40
0.0
 40
0.0
 40
0.0
 40
0.0
 40
1.0
 40
1.0
 40
1.0
 40
2.0
 40
2.0
 40
2.0
 40
3.0
 40
3.0
 40
3.0
 40
4.0
 40
4.0
 40
4.0
 40
5.0
 40
5.0
 40
5.0
 40
6.0
 40
6.0
 40
6.0
 40
7.0
 40
7.0
 40
7.0
 40
8.0
 40
8.0
 40
8.0
 40
9.0
 40
9.0
 40
9.0
 40
10.0
 40
10.0
 40
10.0
 40
11.0
 40
11.0
 40
11.0
 40
12.0
 40
12.0
 40
12.0
 40
13.0
 40
13.0
 40
13.0
 40
14.0
 40
14.0
 40
14.0
 40
15.0
 40
15.0
 40
15.0
 40
16.0
 40
16.0
 40
16.0
 40
17.0
 40
17.0
 40
17.0
 40
17.0
 10
855.0844724424788
 20
613.5092771903727
 30
0.0
 10
855.0844724424788
 20
613.5092771903727
 30
0.0
 10
855.0844724424788
 20
611.8422850032894
 30
0.0
 10
855.0844724424788
 20
611.8422850032894
 30
0.0
 10
855.0844724424788
 20
611.8422850032894
 30
0.0
 10
856.5957029108511
 20
611.8422850032894
 30
0.0
 10
856.5957029108511
 20
611.8422850032894
 30
0.0
 10
856.5957029108511
 20
611.8422850032894
 30
0.0
 10
856.5957029108511
 20
611.0390623472402
 30
0.0
 10
856.5957029108511
 20
611.0390623472402
 30
0.0
 10
856.5957029108511
 20
611.0390623472402
 30
0.0
 10
855.0844724424788
 20
611.0390623472402
 30
0.0
 10
855.0844724424788
 20
611.0390623472402
 30
0.0
 10
855.0844724424788
 20
611.0390623472402
 30
0.0
 10
855.0844724424788
 20
607.9086912542729
 30
0.0
 10
855.0844724424788
 20
607.9086912542729
 30
0.0
 10
855.0844724424788
 20
607.1889646919527
 30
0.0
 10
855.2880857236779
 20
606.7812498483047
 30
0.0
 10
855.875976348531
 20
606.7812498483047
 30
0.0
 10
856.151855254712
 20
606.7812498483047
 30
0.0
 10
856.3554685359111
 20
606.8173826607956
 30
0.0
 10
856.487792754628
 20
606.8530271920367
 30
0.0
 10
856.487792754628
 20
606.8530271920367
 30
0.0
 10
856.5356443171161
 20
606.0615232859847
 30
0.0
 10
856.5356443171161
 20
606.0615232859847
 30
0.0
 10
856.3315427546671
 20
605.9775389110056
 30
0.0
 10
856.007812285998
 20
605.9174803172706
 30
0.0
 10
855.6000974423499
 20
605.9174803172706
 30
0.0
 10
855.1083982237229
 20
605.9174803172706
 30
0.0
 10
854.7124021300718
 20
606.0737303172316
 30
0.0
 10
854.4604490051348
 20
606.3613279734096
 30
0.0
 10
854.1606443177099
 20
606.6733396920816
 30
0.0
 10
854.0527341614868
 20
607.1889646919527
 30
0.0
 10
854.0527341614868
 20
607.8725584417818
 30
0.0
 10
854.0527341614868
 20
607.8725584417818
 30
0.0
 10
854.0527341614868
 20
611.0390623472402
 30
0.0
 10
854.0527341614868
 20
611.0390623472402
 30
0.0
 10
854.0527341614868
 20
611.0390623472402
 30
0.0
 10
853.1533200992117
 20
611.0390623472402
 30
0.0
 10
853.1533200992117
 20
611.0390623472402
 30
0.0
 10
853.1533200992117
 20
611.0390623472402
 30
0.0
 10
853.1533200992117
 20
611.8422850032894
 30
0.0
 10
853.1533200992117
 20
611.8422850032894
 30
0.0
 10
853.1533200992117
 20
611.8422850032894
 30
0.0
 10
854.0527341614868
 20
611.8422850032894
 30
0.0
 10
854.0527341614868
 20
611.8422850032894
 30
0.0
 10
854.0527341614868
 20
611.8422850032894
 30
0.0
 10
854.0527341614868
 20
613.2338865654415
 30
0.0
 10
854.0527341614868
 20
613.2338865654415
 30
0.0
 10
854.0527341614868
 20
613.2338865654415
 30
0.0
 10
855.0844724424788
 20
613.5092771903727
 30
0.0
 10
855.0844724424788
 20
613.5092771903727
 30
0.0
  0
HATCH
  5
B6
330
95
100
AcDbEntity
  8
0
 62
   240
420
 15539236
100
AcDbHatch
 10
0.0
 20
0.0
 30
0.0
210
0.0
220
0.0
230
1.0
  2
SOLID
 70
     1
 71
     0
 91
        1
 92
        1
 93
        1
 72
     4
 94
        3
 73
     0
 74
     1
 95
       56
 96
       52
 40
0.0
 40
0.0
 40
0.0
 40
0.0
 40
1.0
 40
1.0
 40
1.0
 40
2.0
 40
2.0
 40
2.0
 40
3.0
 40
3.0
 40
3.0
 40
4.0
 40
4.0
 40
4.0
 40
5.0
 40
5.0
 40
5.0
 40
6.0
 40
6.0
 40
6.0
 40
7.0
 40
7.0
 40
7.0
 40
8.0
 40
8.0
 40
8.0
 40
9.0
 40
9.0
 40
9.0
 40
10.0
 40
10.0
 40
10.0
 40
11.0
 40
11.0
 40
11.0
 40
12.0
 40
12.0
 40
12.0
 40
13.0
 40
13.0
 40
13.0
 40
14.0
 40
14.0
 40
14.0
 40
15.0
 40
15.0
 40
15.0
 40
16.0
 40
16.0
 40
16.0
 40
17.0
 40
17.0
 40
17.0
 40
17.0
 10
855.0844724424788
 20
613.5092771903727
 10
855.0844724424788
 20
613.5092771903727
 10
855.0844724424788
 20
611.8422850032894
 10
855.0844724424788
 20
611.8422850032894
 10
855.0844724424788
 20
611.8422850032894
 10
856.5957029108511
 20
611.8422850032894
 10
856.5957029108511
 20
611.8422850032894
 10
856.5957029108511
 20
611.8422850032894
 10
856.5957029108511
 20
611.0390623472402
 10
856.5957029108511
 20
611.0390623472402
 10
856.5957029108511
 20
611.0390623472402
 10
855.0844724424788
 20
611.0390623472402
 10
855.0844724424788
 20
611.0390623472402
 10
855.0844724424788
 20
611.0390623472402
 10
855.0844724424788
 20
607.9086912542729
 10
855.0844724424788
 20
607.9086912542729
 10
855.0844724424788
 20
607.1889646919527
 10
855.2880857236779
 20
606.7812498483047
 10
855.875976348531
 20
606.7812498483047
 10
856.151855254712
 20
606.7812498483047
 10
856.3554685359111
 20
606.8173826607956
 10
856.487792754628
 20
606.8530271920367
 10
856.487792754628
 20
606.8530271920367
 10
856.5356443171161
 20
606.0615232859847
 10
856.5356443171161
 20
606.0615232859847
 10
856.3315427546671
 20
605.9775389110056
 10
856.007812285998
 20
605.9174803172706
 10
855.6000974423499
 20
605.9174803172706
 10
855.1083982237229
 20
605.9174803172706
 10
854.7124021300718
 20
606.0737303172316
 10
854.4604490051348
 20
606.3613279734096
 10
854.1606443177099
 20
606.6733396920816
 10
854.0527341614868
 20
607.1889646919527
 10
854.0527341614868
 20
607.8725584417818
 10
854.0527341614868
 20
607.8725584417818
 10
854.0527341614868
 20
611.0390623472402
 10
854.0527341614868
 20
611.0390623472402
 10
854.0527341614868
 20
611.0390623472402
 10
853.1533200992117
 20
611.0390623472402
 10
853.1533200992117
 20
611.0390623472402
 10
853.1533200992117
 20
611.0390623472402
 10
853.1533200992117
 20
611.8422850032894
 10
853.1533200992117
 20
611.8422850032894
 10
853.1533200992117
 20
611.8422850032894
 10
854.0527341614868
 20
611.8422850032894
 10
854.0527341614868
 20
611.8422850032894
 10
854.0527341614868
 20
611.8422850032894
 10
854.0527341614868
 20
613.2338865654415
 10
854.0527341614868
 20
613.2338865654415
 10
854.0527341614868
 20
613.2338865654415
 10
855.0844724424788
 20
613.5092771903727
 10
855.0844724424788
 20
613.5092771903727
 97
        0
 97
        0
 75
     2
 76
     1
 98
        0
  0
SPLINE
  5
B7
330
95
100
AcDbEntity
  8
0
 62
   240
420
 15539236
370
    35
100
AcDbSpline
210
0.0
220
0.0
230
1.0
 70
    11
 71
     3
 72
    44
 73
    40
 74
     0
 42
0.0000000001
 43
0.0000000001
 12
1.0
 22
0.0
 32
0.0
 13
1.0
 23
0.0
 33
0.0
 40
0.0
 40
0.0
 40
0.0
 40
0.0
 40
1.0
 40
1.0
 40
1.0
 40
2.0
 40
2.0
 40
2.0
 40
3.0
 40
3.0
 40
3.0
 40
4.0
 40
4.0
 40
4.0
 40
5.0
 40
5.0
 40
5.0
 40
6.0
 40
6.0
 40
6.0
 40
7.0
 40
7.0
 40
7.0
 40
8.0
 40
8.0
 40
8.0
 40
9.0
 40
9.0
 40
9.0
 40
10.0
 40
10.0
 40
10.0
 40
11.0
 40
11.0
 40
11.0
 40
12.0
 40
12.0
 40
12.0
 40
13.0
 40
13.0
 40
13.0
 40
13.0
 10
857.7851560355537
 20
610.0312498474922
 30
0.0
 10
857.7851560355537
 20
610.7148435973213
 30
0.0
 10
857.7729490043067
 20
611.3027342221743
 30
0.0
 10
857.7373044730657
 20
611.8422850032894
 30
0.0
 10
857.7373044730657
 20
611.8422850032894
 30
0.0
 10
858.6606443165848
 20
611.8422850032894
 30
0.0
 10
858.6606443165848
 20
611.8422850032894
 30
0.0
 10
858.6606443165848
 20
611.8422850032894
 30
0.0
 10
858.6967771290758
 20
610.7031248473243
 30
0.0
 10
858.6967771290758
 20
610.7031248473243
 30
0.0
 10
858.6967771290758
 20
610.7031248473243
 30
0.0
 10
858.7446286915638
 20
610.7031248473243
 30
0.0
 10
858.7446286915638
 20
610.7031248473243
 30
0.0
 10
859.008300566498
 20
611.4824217221294
 30
0.0
 10
859.644042753839
 20
611.9741209407565
 30
0.0
 10
860.3515622849121
 20
611.9741209407565
 30
0.0
 10
860.4716794723821
 20
611.9741209407565
 30
0.0
 10
860.5556638473611
 20
611.9624021907593
 30
0.0
 10
860.651855253587
 20
611.9384764095154
 30
0.0
 10
860.651855253587
 20
611.9384764095154
 30
0.0
 10
860.651855253587
 20
610.9428709410142
 30
0.0
 10
860.651855253587
 20
610.9428709410142
 30
0.0
 10
860.5434568161141
 20
610.9667967222583
 30
0.0
 10
860.4355466598911
 20
610.9790037535053
 30
0.0
 10
860.291991972427
 20
610.9790037535053
 30
0.0
 10
859.5483396288629
 20
610.9790037535053
 30
0.0
 10
859.0205075977449
 20
610.4150389098962
 30
0.0
 10
858.8764646290309
 20
609.6235350038442
 30
0.0
 10
858.8525388477868
 20
609.4794920351301
 30
0.0
 10
858.8286130665429
 20
609.312011566422
 30
0.0
 10
858.8286130665429
 20
609.131835785217
 30
0.0
 10
858.8286130665429
 20
609.131835785217
 30
0.0
 10
858.8286130665429
 20
606.0375975047406
 30
0.0
 10
858.8286130665429
 20
606.0375975047406
 30
0.0
 10
858.8286130665429
 20
606.0375975047406
 30
0.0
 10
857.7851560355537
 20
606.0375975047406
 30
0.0
 10
857.7851560355537
 20
606.0375975047406
 30
0.0
 10
857.7851560355537
 20
606.0375975047406
 30
0.0
 10
857.7851560355537
 20
610.0312498474922
 30
0.0
 10
857.7851560355537
 20
610.0312498474922
 30
0.0
  0
HATCH
  5
B8
330
95
100
AcDbEntity
  8
0
 62
   240
420
 15539236
100
AcDbHatch
 10
0.0
 20
0.0
 30
0.0
210
0.0
220
0.0
230
1.0
  2
SOLID
 70
     1
 71
     0
 91
        1
 92
        1
 93
        1
 72
     4
 94
        3
 73
     0
 74
     1
 95
       44
 96
       40
 40
0.0
 40
0.0
 40
0.0
 40
0.0
 40
1.0
 40
1.0
 40
1.0
 40
2.0
 40
2.0
 40
2.0
 40
3.0
 40
3.0
 40
3.0
 40
4.0
 40
4.0
 40
4.0
 40
5.0
 40
5.0
 40
5.0
 40
6.0
 40
6.0
 40
6.0
 40
7.0
 40
7.0
 40
7.0
 40
8.0
 40
8.0
 40
8.0
 40
9.0
 40
9.0
 40
9.0
 40
10.0
 40
10.0
 40
10.0
 40
11.0
 40
11.0
 40
11.0
 40
12.0
 40
12.0
 40
12.0
 40
13.0
 40
13.0
 40
13.0
 40
13.0
 10
857.7851560355537
 20
610.0312498474922
 10
857.7851560355537
 20
610.7148435973213
 10
857.7729490043067
 20
611.3027342221743
 10
857.7373044730657
 20
611.8422850032894
 10
857.7373044730657
 20
611.8422850032894
 10
858.6606443165848
 20
611.8422850032894
 10
858.6606443165848
 20
611.8422850032894
 10
858.6606443165848
 20
611.8422850032894
 10
858.6967771290758
 20
610.7031248473243
 10
858.6967771290758
 20
610.7031248473243
 10
858.6967771290758
 20
610.7031248473243
 10
858.7446286915638
 20
610.7031248473243
 10
858.7446286915638
 20
610.7031248473243
 10
859.008300566498
 20
611.4824217221294
 10
859.644042753839
 20
611.9741209407565
 10
860.3515622849121
 20
611.9741209407565
 10
860.4716794723821
 20
611.9741209407565
 10
860.5556638473611
 20
611.9624021907593
 10
860.651855253587
 20
611.9384764095154
 10
860.651855253587
 20
611.9384764095154
 10
860.651855253587
 20
610.9428709410142
 10
860.651855253587
 20
610.9428709410142
 10
860.5434568161141
 20
610.9667967222583
 10
860.4355466598911
 20
610.9790037535053
 10
860.291991972427
 20
610.9790037535053
 10
859.5483396288629
 20
610.9790037535053
 10
859.0205075977449
 20
610.4150389098962
 10
858.8764646290309
 20
609.6235350038442
 10
858.8525388477868
 20
609.4794920351301
 10
858.8286130665429
 20
609.312011566422
 10
858.8286130665429
 20
609.131835785217
 10
858.8286130665429
 20
609.131835785217
 10
858.8286130665429
 20
606.0375975047406
 10
858.8286130665429
 20
606.0375975047406
 10
858.8286130665429
 20
606.0375975047406
 10
857.7851560355537
 20
606.0375975047406
 10
857.7851560355537
 20
606.0375975047406
 10
857.7851560355537
 20
606.0375975047406
 10
857.7851560355537
 20
610.0312498474922
 10
857.7851560355537
 20
610.0312498474922
 97
        0
 97
        0
 75
     2
 76
     1
 98
        0
  0
SPLINE
  5
B9
330
95
100
AcDbEntity
  8
0
 62
   240
420
 15539236
370
    35
100
AcDbSpline
210
0.0
220
0.0
230
1.0
 70
    11
 71
     3
 72
    47
 73
    43
 74
     0
 42
0.0000000001
 43
0.0000000001
 12
1.0
 22
0.0
 32
0.0
 13
1.0
 23
0.0
 33
0.0
 40
0.0
 40
0.0
 40
0.0
 40
0.0
 40
1.0
 40
1.0
 40
1.0
 40
2.0
 40
2.0
 40
2.0
 40
3.0
 40
3.0
 40
3.0
 40
4.0
 40
4.0
 40
4.0
 40
5.0
 40
5.0
 40
5.0
 40
6.0
 40
6.0
 40
6.0
 40
7.0
 40
7.0
 40
7.0
 40
8.0
 40
8.0
 40
8.0
 40
9.0
 40
9.0
 40
9.0
 40
10.0
 40
10.0
 40
10.0
 40
11.0
 40
11.0
 40
11.0
 40
12.0
 40
12.0
 40
12.0
 40
13.0
 40
13.0
 40
13.0
 40
14.0
 40
14.0
 40
14.0
 40
14.0
 10
864.863769315034
 20
606.0375975047406
 30
0.0
 10
864.863769315034
 20
606.0375975047406
 30
0.0
 10
864.779784940055
 20
606.7690428170578
 30
0.0
 10
864.779784940055
 20
606.7690428170578
 30
0.0
 10
864.779784940055
 20
606.7690428170578
 30
0.0
 10
864.743652127564
 20
606.7690428170578
 30
0.0
 10
864.743652127564
 20
606.7690428170578
 30
0.0
 10
864.419921658895
 20
606.3134764109216
 30
0.0
 10
863.7963865028009
 20
605.9057615672735
 30
0.0
 10
862.9687497842577
 20
605.9057615672735
 30
0.0
 10
861.7934568158016
 20
605.9057615672735
 30
0.0
 10
861.1938474409516
 20
606.7333982858166
 30
0.0
 10
861.1938474409516
 20
607.5727537543568
 30
0.0
 10
861.1938474409516
 20
608.9760740665059
 30
0.0
 10
862.4409177531397
 20
609.743652191314
 30
0.0
 10
864.6835935338291
 20
609.7314451600671
 30
0.0
 10
864.6835935338291
 20
609.7314451600671
 30
0.0
 10
864.6835935338291
 20
609.8515623475371
 30
0.0
 10
864.6835935338291
 20
609.8515623475371
 30
0.0
 10
864.6835935338291
 20
610.3310545349173
 30
0.0
 10
864.551757596362
 20
611.1948240659513
 30
0.0
 10
863.3647458779088
 20
611.1948240659513
 30
0.0
 10
862.8247068155438
 20
611.1948240659513
 30
0.0
 10
862.2612302531846
 20
611.0268553159933
 30
0.0
 10
861.8535154095366
 20
610.7631834410591
 30
0.0
 10
861.8535154095366
 20
610.7631834410591
 30
0.0
 10
861.6132810345966
 20
611.4584959408853
 30
0.0
 10
861.6132810345966
 20
611.4584959408853
 30
0.0
 10
862.0932615032267
 20
611.7705076595573
 30
0.0
 10
862.7885740030529
 20
611.9741209407565
 30
0.0
 10
863.5205075966198
 20
611.9741209407565
 30
0.0
 10
865.2954099399261
 20
611.9741209407565
 30
0.0
 10
865.7270505648182
 20
610.7631834410591
 30
0.0
 10
865.7270505648182
 20
609.5996092226001
 30
0.0
 10
865.7270505648182
 20
609.5996092226001
 30
0.0
 10
865.7270505648182
 20
607.4287107856428
 30
0.0
 10
865.7270505648182
 20
607.4287107856428
 30
0.0
 10
865.7270505648182
 20
606.9252928170187
 30
0.0
 10
865.7509763460622
 20
606.4335935983916
 30
0.0
 10
865.8232419710441
 20
606.0375975047406
 30
0.0
 10
865.8232419710441
 20
606.0375975047406
 30
0.0
 10
864.863769315034
 20
606.0375975047406
 30
0.0
 10
864.863769315034
 20
606.0375975047406
 30
0.0
  0
SPLINE
  5
BA
330
95
100
AcDbEntity
  8
0
 62
   240
420
 15539236
370
    35
100
AcDbSpline
210
0.0
220
0.0
230
1.0
 70
    11
 71
     3
 72
    20
 73
    16
 74
     0
 42
0.0000000001
 43
0.0000000001
 12
1.0
 22
0.0
 32
0.0
 13
1.0
 23
0.0
 33
0.0
 40
0.0
 40
0.0
 40
0.0
 40
0.0
 40
1.0
 40
1.0
 40
1.0
 40
2.0
 40
2.0
 40
2.0
 40
3.0
 40
3.0
 40
3.0
 40
4.0
 40
4.0
 40
4.0
 40
5.0
 40
5.0
 40
5.0
 40
5.0
 10
864.7075193150731
 20
608.99999984775
 30
0.0
 10
863.556152127861
 20
609.023925628994
 30
0.0
 10
862.2490232219377
 20
608.819824066545
 30
0.0
 10
862.2490232219377
 20
607.6928709418268
 30
0.0
 10
862.2490232219377
 20
607.0092771919976
 30
0.0
 10
862.7050779093237
 20
606.6850584420787
 30
0.0
 10
863.2446286904388
 20
606.6850584420787
 30
0.0
 10
863.999999784
 20
606.6850584420787
 30
0.0
 10
864.47998025263
 20
607.1650389107087
 30
0.0
 10
864.647949002588
 20
607.6567381293358
 30
0.0
 10
864.6835935338291
 20
607.7646482855588
 30
0.0
 10
864.7075193150731
 20
607.8847654730288
 30
0.0
 10
864.7075193150731
 20
607.9926756292518
 30
0.0
 10
864.7075193150731
 20
607.9926756292518
 30
0.0
 10
864.7075193150731
 20
608.99999984775
 30
0.0
 10
864.7075193150731
 20
608.99999984775
 30
0.0
  0
HATCH
  5
BB
330
95
100
AcDbEntity
  8
0
 62
   240
420
 15539236
100
AcDbHatch
 10
0.0
 20
0.0
 30
0.0
210
0.0
220
0.0
230
1.0
  2
SOLID
 70
     1
 71
     0
 91
        2
 92
        1
 93
        1
 72
     4
 94
        3
 73
     0
 74
     1
 95
       47
 96
       43
 40
0.0
 40
0.0
 40
0.0
 40
0.0
 40
1.0
 40
1.0
 40
1.0
 40
2.0
 40
2.0
 40
2.0
 40
3.0
 40
3.0
 40
3.0
 40
4.0
 40
4.0
 40
4.0
 40
5.0
 40
5.0
 40
5.0
 40
6.0
 40
6.0
 40
6.0
 40
7.0
 40
7.0
 40
7.0
 40
8.0
 40
8.0
 40
8.0
 40
9.0
 40
9.0
 40
9.0
 40
10.0
 40
10.0
 40
10.0
 40
11.0
 40
11.0
 40
11.0
 40
12.0
 40
12.0
 40
12.0
 40
13.0
 40
13.0
 40
13.0
 40
14.0
 40
14.0
 40
14.0
 40
14.0
 10
864.863769315034
 20
606.0375975047406
 10
864.863769315034
 20
606.0375975047406
 10
864.779784940055
 20
606.7690428170578
 10
864.779784940055
 20
606.7690428170578
 10
864.779784940055
 20
606.7690428170578
 10
864.743652127564
 20
606.7690428170578
 10
864.743652127564
 20
606.7690428170578
 10
864.419921658895
 20
606.3134764109216
 10
863.7963865028009
 20
605.9057615672735
 10
862.9687497842577
 20
605.9057615672735
 10
861.7934568158016
 20
605.9057615672735
 10
861.1938474409516
 20
606.7333982858166
 10
861.1938474409516
 20
607.5727537543568
 10
861.1938474409516
 20
608.9760740665059
 10
862.4409177531397
 20
609.743652191314
 10
864.6835935338291
 20
609.7314451600671
 10
864.6835935338291
 20
609.7314451600671
 10
864.6835935338291
 20
609.8515623475371
 10
864.6835935338291
 20
609.8515623475371
 10
864.6835935338291
 20
610.3310545349173
 10
864.551757596362
 20
611.1948240659513
 10
863.3647458779088
 20
611.1948240659513
 10
862.8247068155438
 20
611.1948240659513
 10
862.2612302531846
 20
611.0268553159933
 10
861.8535154095366
 20
610.7631834410591
 10
861.8535154095366
 20
610.7631834410591
 10
861.6132810345966
 20
611.4584959408853
 10
861.6132810345966
 20
611.4584959408853
 10
862.0932615032267
 20
611.7705076595573
 10
862.7885740030529
 20
611.9741209407565
 10
863.5205075966198
 20
611.9741209407565
 10
865.2954099399261
 20
611.9741209407565
 10
865.7270505648182
 20
610.7631834410591
 10
865.7270505648182
 20
609.5996092226001
 10
865.7270505648182
 20
609.5996092226001
 10
865.7270505648182
 20
607.4287107856428
 10
865.7270505648182
 20
607.4287107856428
 10
865.7270505648182
 20
606.9252928170187
 10
865.7509763460622
 20
606.4335935983916
 10
865.8232419710441
 20
606.0375975047406
 10
865.8232419710441
 20
606.0375975047406
 10
864.863769315034
 20
606.0375975047406
 10
864.863769315034
 20
606.0375975047406
 97
        0
 97
        0
 92
        1
 93
        1
 72
     4
 94
        3
 73
     0
 74
     1
 95
       20
 96
       16
 40
0.0
 40
0.0
 40
0.0
 40
0.0
 40
1.0
 40
1.0
 40
1.0
 40
2.0
 40
2.0
 40
2.0
 40
3.0
 40
3.0
 40
3.0
 40
4.0
 40
4.0
 40
4.0
 40
5.0
 40
5.0
 40
5.0
 40
5.0
 10
864.7075193150731
 20
608.99999984775
 10
863.556152127861
 20
609.023925628994
 10
862.2490232219377
 20
608.819824066545
 10
862.2490232219377
 20
607.6928709418268
 10
862.2490232219377
 20
607.0092771919976
 10
862.7050779093237
 20
606.6850584420787
 10
863.2446286904388
 20
606.6850584420787
 10
863.999999784
 20
606.6850584420787
 10
864.47998025263
 20
607.1650389107087
 10
864.647949002588
 20
607.6567381293358
 10
864.6835935338291
 20
607.7646482855588
 10
864.7075193150731
 20
607.8847654730288
 10
864.7075193150731
 20
607.9926756292518
 10
864.7075193150731
 20
607.9926756292518
 10
864.7075193150731
 20
608.99999984775
 10
864.7075193150731
 20
608.99999984775
 97
        0
 97
        0
 75
     2
 76
     1
 98
        0
  0
SPLINE
  5
BC
330
95
100
AcDbEntity
  8
0
 62
   240
420
 15539236
370
    35
100
AcDbSpline
210
0.0
220
0.0
230
1.0
 70
    11
 71
     3
 72
    17
 73
    13
 74
     0
 42
0.0000000001
 43
0.0000000001
 12
1.0
 22
0.0
 32
0.0
 13
1.0
 23
0.0
 33
0.0
 40
0.0
 40
0.0
 40
0.0
 40
0.0
 40
1.0
 40
1.0
 40
1.0
 40
2.0
 40
2.0
 40
2.0
 40
3.0
 40
3.0
 40
3.0
 40
4.0
 40
4.0
 40
4.0
 40
4.0
 10
868.6083982203479
 20
613.4736326591316
 30
0.0
 10
868.6206052515948
 20
613.1137693779715
 30
0.0
 10
868.3564450954109
 20
612.8256834405436
 30
0.0
 10
867.9370115017657
 20
612.8256834405436
 30
0.0
 10
867.5649411893587
 20
612.8256834405436
 30
0.0
 10
867.3012693144246
 20
613.1137693779715
 30
0.0
 10
867.3012693144246
 20
613.4736326591316
 30
0.0
 10
867.3012693144246
 20
613.8452146902887
 30
0.0
 10
867.5771482206057
 20
614.1333006277166
 30
0.0
 10
867.9609372830098
 20
614.1333006277166
 30
0.0
 10
868.3564450954109
 20
614.1333006277166
 30
0.0
 10
868.6083982203479
 20
613.8452146902887
 30
0.0
 10
868.6083982203479
 20
613.4736326591316
 30
0.0
  0
POLYLINE
  5
BD
330
95
100
AcDbEntity
  8
0
 62
   240
420
 15539236
370
    35
100
AcDb2dPolyline
 66
     1
 10
0.0
 20
0.0
 30
0.0
  0
VERTEX
  5
BE
330
BD
100
AcDbEntity
  8
0
 62
   240
420
 15539236
370
    35
100
AcDbVertex
100
AcDb2dVertex
 10
867.4331052518917
 20
606.0375975047406
 30
0.0
  0
VERTEX
  5
BF
330
BD
100
AcDbEntity
  8
0
 62
   240
420
 15539236
370
    35
100
AcDbVertex
100
AcDb2dVertex
 10
867.4331052518917
 20
611.8422850032894
 30
0.0
  0
VERTEX
  5
C0
330
BD
100
AcDbEntity
  8
0
 62
   240
420
 15539236
370
    35
100
AcDbVertex
100
AcDb2dVertex
 10
868.4887693141278
 20
611.8422850032894
 30
0.0
  0
VERTEX
  5
C1
330
BD
100
AcDbEntity
  8
0
 62
   240
420
 15539236
370
    35
100
AcDbVertex
100
AcDb2dVertex
 10
868.4887693141278
 20
606.0375975047406
 30
0.0
  0
VERTEX
  5
C2
330
BD
100
AcDbEntity
  8
0
 62
   240
420
 15539236
370
    35
100
AcDbVertex
100
AcDb2dVertex
 10
867.4331052518917
 20
606.0375975047406
 30
0.0
  0
SEQEND
  5
C3
330
BD
100
AcDbEntity
  8
0
 62
   240
420
 15539236
370
    35
  0
HATCH
  5
C4
330
95
100
AcDbEntity
  8
0
 62
   240
420
 15539236
100
AcDbHatch
 10
0.0
 20
0.0
 30
0.0
210
0.0
220
0.0
230
1.0
  2
SOLID
 70
     1
 71
     0
 91
        2
 92
        1
 93
        1
 72
     4
 94
        3
 73
     0
 74
     1
 95
       17
 96
       13
 40
0.0
 40
0.0
 40
0.0
 40
0.0
 40
1.0
 40
1.0
 40
1.0
 40
2.0
 40
2.0
 40
2.0
 40
3.0
 40
3.0
 40
3.0
 40
4.0
 40
4.0
 40
4.0
 40
4.0
 10
868.6083982203479
 20
613.4736326591316
 10
868.6206052515948
 20
613.1137693779715
 10
868.3564450954109
 20
612.8256834405436
 10
867.9370115017657
 20
612.8256834405436
 10
867.5649411893587
 20
612.8256834405436
 10
867.3012693144246
 20
613.1137693779715
 10
867.3012693144246
 20
613.4736326591316
 10
867.3012693144246
 20
613.8452146902887
 10
867.5771482206057
 20
614.1333006277166
 10
867.9609372830098
 20
614.1333006277166
 10
868.3564450954109
 20
614.1333006277166
 10
868.6083982203479
 20
613.8452146902887
 10
868.6083982203479
 20
613.4736326591316
 97
        0
 97
        0
 92
        1
 93
        4
 72
     1
 10
867.4331052518917
 20
606.0375975047406
 11
867.4331052518917
 21
611.8422850032894
 72
     1
 10
867.4331052518917
 20
611.8422850032894
 11
868.4887693141278
 21
611.8422850032894
 72
     1
 10
868.4887693141278
 20
611.8422850032894
 11
868.4887693141278
 21
606.0375975047406
 72
     1
 10
868.4887693141278
 20
606.0375975047406
 11
867.4331052518917
 21
606.0375975047406
 97
        0
 75
     2
 76
     1
 98
        0
  0
SPLINE
  5
C5
330
95
100
AcDbEntity
  8
0
 62
   240
420
 15539236
370
    35
100
AcDbSpline
210
0.0
220
0.0
230
1.0
 70
    11
 71
     3
 72
    56
 73
    52
 74
     0
 42
0.0000000001
 43
0.0000000001
 12
1.0
 22
0.0
 32
0.0
 13
1.0
 23
0.0
 33
0.0
 40
0.0
 40
0.0
 40
0.0
 40
0.0
 40
1.0
 40
1.0
 40
1.0
 40
2.0
 40
2.0
 40
2.0
 40
3.0
 40
3.0
 40
3.0
 40
4.0
 40
4.0
 40
4.0
 40
5.0
 40
5.0
 40
5.0
 40
6.0
 40
6.0
 40
6.0
 40
7.0
 40
7.0
 40
7.0
 40
8.0
 40
8.0
 40
8.0
 40
9.0
 40
9.0
 40
9.0
 40
10.0
 40
10.0
 40
10.0
 40
11.0
 40
11.0
 40
11.0
 40
12.0
 40
12.0
 40
12.0
 40
13.0
 40
13.0
 40
13.0
 40
14.0
 40
14.0
 40
14.0
 40
15.0
 40
15.0
 40
15.0
 40
16.0
 40
16.0
 40
16.0
 40
17.0
 40
17.0
 40
17.0
 40
17.0
 10
875.2426755624393
 20
611.8422850032894
 30
0.0
 10
875.2182614999455
 20
611.4228514096443
 30
0.0
 10
875.1943357187014
 20
610.9550779722612
 30
0.0
 10
875.1943357187014
 20
610.2470701599382
 30
0.0
 10
875.1943357187014
 20
610.2470701599382
 30
0.0
 10
875.1943357187014
 20
606.8769529732807
 30
0.0
 10
875.1943357187014
 20
606.8769529732807
 30
0.0
 10
875.1943357187014
 20
605.5458982861135
 30
0.0
 10
874.9306638437673
 20
604.7304685988174
 30
0.0
 10
874.3671872814082
 20
604.2265623489434
 30
0.0
 10
873.8032224377991
 20
603.6987303178253
 30
0.0
 10
872.987792750503
 20
603.5307615678673
 30
0.0
 10
872.2563474381859
 20
603.5307615678673
 30
0.0
 10
871.5605466571099
 20
603.5307615678673
 30
0.0
 10
870.7929685323018
 20
603.6987303178253
 30
0.0
 10
870.3251950949186
 20
604.0107420364973
 30
0.0
 10
870.3251950949186
 20
604.0107420364973
 30
0.0
 10
870.5888669698528
 20
604.8144529737964
 30
0.0
 10
870.5888669698528
 20
604.8144529737964
 30
0.0
 10
870.9726560322569
 20
604.5742185988564
 30
0.0
 10
871.5727536883568
 20
604.3583982864104
 30
0.0
 10
872.2919919694269
 20
604.3583982864104
 30
0.0
 10
873.371581812907
 20
604.3583982864104
 30
0.0
 10
874.1630857189592
 20
604.9223631300194
 30
0.0
 10
874.1630857189592
 20
606.3852537546537
 30
0.0
 10
874.1630857189592
 20
606.3852537546537
 30
0.0
 10
874.1630857189592
 20
607.0332029732417
 30
0.0
 10
874.1630857189592
 20
607.0332029732417
 30
0.0
 10
874.1630857189592
 20
607.0332029732417
 30
0.0
 10
874.1391599377151
 20
607.0332029732417
 30
0.0
 10
874.1391599377151
 20
607.0332029732417
 30
0.0
 10
873.8154294690461
 20
606.4931639108767
 30
0.0
 10
873.1914060317022
 20
606.0615232859847
 30
0.0
 10
872.2919919694269
 20
606.0615232859847
 30
0.0
 10
870.8530271260367
 20
606.0615232859847
 30
0.0
 10
869.8212888450447
 20
607.2846678169288
 30
0.0
 10
869.8212888450447
 20
608.892089691527
 30
0.0
 10
869.8212888450447
 20
610.8588865660353
 30
0.0
 10
871.1049802509738
 20
611.9741209407565
 30
0.0
 10
872.436034938141
 20
611.9741209407565
 30
0.0
 10
873.4433591566392
 20
611.9741209407565
 30
0.0
 10
873.9951169690012
 20
611.4467771908883
 30
0.0
 10
874.2470700939382
 20
610.9667967222583
 30
0.0
 10
874.2470700939382
 20
610.9667967222583
 30
0.0
 10
874.2709958751823
 20
610.9667967222583
 30
0.0
 10
874.2709958751823
 20
610.9667967222583
 30
0.0
 10
874.2709958751823
 20
610.9667967222583
 30
0.0
 10
874.3188474376702
 20
611.8422850032894
 30
0.0
 10
874.3188474376702
 20
611.8422850032894
 30
0.0
 10
874.3188474376702
 20
611.8422850032894
 30
0.0
 10
875.2426755624393
 20
611.8422850032894
 30
0.0
 10
875.2426755624393
 20
611.8422850032894
 30
0.0
  0
SPLINE
  5
C6
330
95
100
AcDbEntity
  8
0
 62
   240
420
 15539236
370
    35
100
AcDbSpline
210
0.0
220
0.0
230
1.0
 70
    11
 71
     3
 72
    26
 73
    22
 74
     0
 42
0.0000000001
 43
0.0000000001
 12
1.0
 22
0.0
 32
0.0
 13
1.0
 23
0.0
 33
0.0
 40
0.0
 40
0.0
 40
0.0
 40
0.0
 40
1.0
 40
1.0
 40
1.0
 40
2.0
 40
2.0
 40
2.0
 40
3.0
 40
3.0
 40
3.0
 40
4.0
 40
4.0
 40
4.0
 40
5.0
 40
5.0
 40
5.0
 40
6.0
 40
6.0
 40
6.0
 40
7.0
 40
7.0
 40
7.0
 40
7.0
 10
874.1508786877123
 20
609.551757660112
 30
0.0
 10
874.1508786877123
 20
609.7314451600671
 30
0.0
 10
874.1391599377151
 20
609.8876951600281
 30
0.0
 10
874.0913083752272
 20
610.0312498474922
 30
0.0
 10
873.8994138440252
 20
610.6430662535893
 30
0.0
 10
873.3833005629042
 20
611.1469725034632
 30
0.0
 10
872.6157224380961
 20
611.1469725034632
 30
0.0
 10
871.6083982195979
 20
611.1469725034632
 30
0.0
 10
870.8886716572778
 20
610.2954100036761
 30
0.0
 10
870.8886716572778
 20
608.952148285262
 30
0.0
 10
870.8886716572778
 20
607.8124998480469
 30
0.0
 10
871.4643552508838
 20
606.8652342232837
 30
0.0
 10
872.6040036880989
 20
606.8652342232837
 30
0.0
 10
873.2514646254372
 20
606.8652342232837
 30
0.0
 10
873.8393552502902
 20
607.2729490669318
 30
0.0
 10
874.0668943127332
 20
607.9443357855139
 30
0.0
 10
874.1269529064682
 20
608.1245115667189
 30
0.0
 10
874.1508786877123
 20
608.3281248479179
 30
0.0
 10
874.1508786877123
 20
608.5083006291229
 30
0.0
 10
874.1508786877123
 20
608.5083006291229
 30
0.0
 10
874.1508786877123
 20
609.551757660112
 30
0.0
 10
874.1508786877123
 20
609.551757660112
 30
0.0
  0
HATCH
  5
C7
330
95
100
AcDbEntity
  8
0
 62
   240
420
 15539236
100
AcDbHatch
 10
0.0
 20
0.0
 30
0.0
210
0.0
220
0.0
230
1.0
  2
SOLID
 70
     1
 71
     0
 91
        2
 92
        1
 93
        1
 72
     4
 94
        3
 73
     0
 74
     1
 95
       56
 96
       52
 40
0.0
 40
0.0
 40
0.0
 40
0.0
 40
1.0
 40
1.0
 40
1.0
 40
2.0
 40
2.0
 40
2.0
 40
3.0
 40
3.0
 40
3.0
 40
4.0
 40
4.0
 40
4.0
 40
5.0
 40
5.0
 40
5.0
 40
6.0
 40
6.0
 40
6.0
 40
7.0
 40
7.0
 40
7.0
 40
8.0
 40
8.0
 40
8.0
 40
9.0
 40
9.0
 40
9.0
 40
10.0
 40
10.0
 40
10.0
 40
11.0
 40
11.0
 40
11.0
 40
12.0
 40
12.0
 40
12.0
 40
13.0
 40
13.0
 40
13.0
 40
14.0
 40
14.0
 40
14.0
 40
15.0
 40
15.0
 40
15.0
 40
16.0
 40
16.0
 40
16.0
 40
17.0
 40
17.0
 40
17.0
 40
17.0
 10
875.2426755624393
 20
611.8422850032894
 10
875.2182614999455
 20
611.4228514096443
 10
875.1943357187014
 20
610.9550779722612
 10
875.1943357187014
 20
610.2470701599382
 10
875.1943357187014
 20
610.2470701599382
 10
875.1943357187014
 20
606.8769529732807
 10
875.1943357187014
 20
606.8769529732807
 10
875.1943357187014
 20
605.5458982861135
 10
874.9306638437673
 20
604.7304685988174
 10
874.3671872814082
 20
604.2265623489434
 10
873.8032224377991
 20
603.6987303178253
 10
872.987792750503
 20
603.5307615678673
 10
872.2563474381859
 20
603.5307615678673
 10
871.5605466571099
 20
603.5307615678673
 10
870.7929685323018
 20
603.6987303178253
 10
870.3251950949186
 20
604.0107420364973
 10
870.3251950949186
 20
604.0107420364973
 10
870.5888669698528
 20
604.8144529737964
 10
870.5888669698528
 20
604.8144529737964
 10
870.9726560322569
 20
604.5742185988564
 10
871.5727536883568
 20
604.3583982864104
 10
872.2919919694269
 20
604.3583982864104
 10
873.371581812907
 20
604.3583982864104
 10
874.1630857189592
 20
604.9223631300194
 10
874.1630857189592
 20
606.3852537546537
 10
874.1630857189592
 20
606.3852537546537
 10
874.1630857189592
 20
607.0332029732417
 10
874.1630857189592
 20
607.0332029732417
 10
874.1630857189592
 20
607.0332029732417
 10
874.1391599377151
 20
607.0332029732417
 10
874.1391599377151
 20
607.0332029732417
 10
873.8154294690461
 20
606.4931639108767
 10
873.1914060317022
 20
606.0615232859847
 10
872.2919919694269
 20
606.0615232859847
 10
870.8530271260367
 20
606.0615232859847
 10
869.8212888450447
 20
607.2846678169288
 10
869.8212888450447
 20
608.892089691527
 10
869.8212888450447
 20
610.8588865660353
 10
871.1049802509738
 20
611.9741209407565
 10
872.436034938141
 20
611.9741209407565
 10
873.4433591566392
 20
611.9741209407565
 10
873.9951169690012
 20
611.4467771908883
 10
874.2470700939382
 20
610.9667967222583
 10
874.2470700939382
 20
610.9667967222583
 10
874.2709958751823
 20
610.9667967222583
 10
874.2709958751823
 20
610.9667967222583
 10
874.2709958751823
 20
610.9667967222583
 10
874.3188474376702
 20
611.8422850032894
 10
874.3188474376702
 20
611.8422850032894
 10
874.3188474376702
 20
611.8422850032894
 10
875.2426755624393
 20
611.8422850032894
 10
875.2426755624393
 20
611.8422850032894
 97
        0
 97
        0
 92
        1
 93
        1
 72
     4
 94
        3
 73
     0
 74
     1
 95
       26
 96
       22
 40
0.0
 40
0.0
 40
0.0
 40
0.0
 40
1.0
 40
1.0
 40
1.0
 40
2.0
 40
2.0
 40
2.0
 40
3.0
 40
3.0
 40
3.0
 40
4.0
 40
4.0
 40
4.0
 40
5.0
 40
5.0
 40
5.0
 40
6.0
 40
6.0
 40
6.0
 40
7.0
 40
7.0
 40
7.0
 40
7.0
 10
874.1508786877123
 20
609.551757660112
 10
874.1508786877123
 20
609.7314451600671
 10
874.1391599377151
 20
609.8876951600281
 10
874.0913083752272
 20
610.0312498474922
 10
873.8994138440252
 20
610.6430662535893
 10
873.3833005629042
 20
611.1469725034632
 10
872.6157224380961
 20
611.1469725034632
 10
871.6083982195979
 20
611.1469725034632
 10
870.8886716572778
 20
610.2954100036761
 10
870.8886716572778
 20
608.952148285262
 10
870.8886716572778
 20
607.8124998480469
 10
871.4643552508838
 20
606.8652342232837
 10
872.6040036880989
 20
606.8652342232837
 10
873.2514646254372
 20
606.8652342232837
 10
873.8393552502902
 20
607.2729490669318
 10
874.0668943127332
 20
607.9443357855139
 10
874.1269529064682
 20
608.1245115667189
 10
874.1508786877123
 20
608.3281248479179
 10
874.1508786877123
 20
608.5083006291229
 10
874.1508786877123
 20
608.5083006291229
 10
874.1508786877123
 20
609.551757660112
 10
874.1508786877123
 20
609.551757660112
 97
        0
 97
        0
 75
     2
 76
     1
 98
        0
  0
SPLINE
  5
C8
330
95
100
AcDbEntity
  8
0
 62
   240
420
 15539236
370
    35
100
AcDbSpline
210
0.0
220
0.0
230
1.0
 70
    11
 71
     3
 72
    50
 73
    46
 74
     0
 42
0.0000000001
 43
0.0000000001
 12
1.0
 22
0.0
 32
0.0
 13
1.0
 23
0.0
 33
0.0
 40
0.0
 40
0.0
 40
0.0
 40
0.0
 40
1.0
 40
1.0
 40
1.0
 40
2.0
 40
2.0
 40
2.0
 40
3.0
 40
3.0
 40
3.0
 40
4.0
 40
4.0
 40
4.0
 40
5.0
 40
5.0
 40
5.0
 40
6.0
 40
6.0
 40
6.0
 40
7.0
 40
7.0
 40
7.0
 40
8.0
 40
8.0
 40
8.0
 40
9.0
 40
9.0
 40
9.0
 40
10.0
 40
10.0
 40
10.0
 40
11.0
 40
11.0
 40
11.0
 40
12.0
 40
12.0
 40
12.0
 40
13.0
 40
13.0
 40
13.0
 40
14.0
 40
14.0
 40
14.0
 40
15.0
 40
15.0
 40
15.0
 40
15.0
 10
876.9487302495128
 20
614.5527342213618
 30
0.0
 10
876.9487302495128
 20
614.5527342213618
 30
0.0
 10
878.0043943117489
 20
614.5527342213618
 30
0.0
 10
878.0043943117489
 20
614.5527342213618
 30
0.0
 10
878.0043943117489
 20
614.5527342213618
 30
0.0
 10
878.0043943117489
 20
610.9311521910172
 30
0.0
 10
878.0043943117489
 20
610.9311521910172
 30
0.0
 10
878.0043943117489
 20
610.9311521910172
 30
0.0
 10
878.0283200929929
 20
610.9311521910172
 30
0.0
 10
878.0283200929929
 20
610.9311521910172
 30
0.0
 10
878.1962888429509
 20
611.2309568784423
 30
0.0
 10
878.459960717885
 20
611.4946287533763
 30
0.0
 10
878.783691186554
 20
611.6743162533314
 30
0.0
 10
879.0957029052261
 20
611.8544920345364
 30
0.0
 10
879.4672849363832
 20
611.9741209407565
 30
0.0
 10
879.8632810300342
 20
611.9741209407565
 30
0.0
 10
880.6425779048393
 20
611.9741209407565
 30
0.0
 10
881.8901364982775
 20
611.4946287533763
 30
0.0
 10
881.8901364982775
 20
609.491699066377
 30
0.0
 10
881.8901364982775
 20
609.491699066377
 30
0.0
 10
881.8901364982775
 20
606.0375975047406
 30
0.0
 10
881.8901364982775
 20
606.0375975047406
 30
0.0
 10
881.8901364982775
 20
606.0375975047406
 30
0.0
 10
880.8344724360413
 20
606.0375975047406
 30
0.0
 10
880.8344724360413
 20
606.0375975047406
 30
0.0
 10
880.8344724360413
 20
606.0375975047406
 30
0.0
 10
880.8344724360413
 20
609.3715818789071
 30
0.0
 10
880.8344724360413
 20
609.3715818789071
 30
0.0
 10
880.8344724360413
 20
610.3071287536732
 30
0.0
 10
880.4868161861283
 20
611.0986326597254
 30
0.0
 10
879.4912107176272
 20
611.0986326597254
 30
0.0
 10
878.807616967798
 20
611.0986326597254
 30
0.0
 10
878.268066186683
 20
610.6191404723452
 30
0.0
 10
878.076171655481
 20
610.0434568787391
 30
0.0
 10
878.016113061746
 20
609.8994139100251
 30
0.0
 10
878.0043943117489
 20
609.743652191314
 30
0.0
 10
878.0043943117489
 20
609.5395506288651
 30
0.0
 10
878.0043943117489
 20
609.5395506288651
 30
0.0
 10
878.0043943117489
 20
606.0375975047406
 30
0.0
 10
878.0043943117489
 20
606.0375975047406
 30
0.0
 10
878.0043943117489
 20
606.0375975047406
 30
0.0
 10
876.9487302495128
 20
606.0375975047406
 30
0.0
 10
876.9487302495128
 20
606.0375975047406
 30
0.0
 10
876.9487302495128
 20
606.0375975047406
 30
0.0
 10
876.9487302495128
 20
614.5527342213618
 30
0.0
 10
876.9487302495128
 20
614.5527342213618
 30
0.0
  0
HATCH
  5
C9
330
95
100
AcDbEntity
  8
0
 62
   240
420
 15539236
100
AcDbHatch
 10
0.0
 20
0.0
 30
0.0
210
0.0
220
0.0
230
1.0
  2
SOLID
 70
     1
 71
     0
 91
        1
 92
        1
 93
        1
 72
     4
 94
        3
 73
     0
 74
     1
 95
       50
 96
       46
 40
0.0
 40
0.0
 40
0.0
 40
0.0
 40
1.0
 40
1.0
 40
1.0
 40
2.0
 40
2.0
 40
2.0
 40
3.0
 40
3.0
 40
3.0
 40
4.0
 40
4.0
 40
4.0
 40
5.0
 40
5.0
 40
5.0
 40
6.0
 40
6.0
 40
6.0
 40
7.0
 40
7.0
 40
7.0
 40
8.0
 40
8.0
 40
8.0
 40
9.0
 40
9.0
 40
9.0
 40
10.0
 40
10.0
 40
10.0
 40
11.0
 40
11.0
 40
11.0
 40
12.0
 40
12.0
 40
12.0
 40
13.0
 40
13.0
 40
13.0
 40
14.0
 40
14.0
 40
14.0
 40
15.0
 40
15.0
 40
15.0
 40
15.0
 10
876.9487302495128
 20
614.5527342213618
 10
876.9487302495128
 20
614.5527342213618
 10
878.0043943117489
 20
614.5527342213618
 10
878.0043943117489
 20
614.5527342213618
 10
878.0043943117489
 20
614.5527342213618
 10
878.0043943117489
 20
610.9311521910172
 10
878.0043943117489
 20
610.9311521910172
 10
878.0043943117489
 20
610.9311521910172
 10
878.0283200929929
 20
610.9311521910172
 10
878.0283200929929
 20
610.9311521910172
 10
878.1962888429509
 20
611.2309568784423
 10
878.459960717885
 20
611.4946287533763
 10
878.783691186554
 20
611.6743162533314
 10
879.0957029052261
 20
611.8544920345364
 10
879.4672849363832
 20
611.9741209407565
 10
879.8632810300342
 20
611.9741209407565
 10
880.6425779048393
 20
611.9741209407565
 10
881.8901364982775
 20
611.4946287533763
 10
881.8901364982775
 20
609.491699066377
 10
881.8901364982775
 20
609.491699066377
 10
881.8901364982775
 20
606.0375975047406
 10
881.8901364982775
 20
606.0375975047406
 10
881.8901364982775
 20
606.0375975047406
 10
880.8344724360413
 20
606.0375975047406
 10
880.8344724360413
 20
606.0375975047406
 10
880.8344724360413
 20
606.0375975047406
 10
880.8344724360413
 20
609.3715818789071
 10
880.8344724360413
 20
609.3715818789071
 10
880.8344724360413
 20
610.3071287536732
 10
880.4868161861283
 20
611.0986326597254
 10
879.4912107176272
 20
611.0986326597254
 10
878.807616967798
 20
611.0986326597254
 10
878.268066186683
 20
610.6191404723452
 10
878.076171655481
 20
610.0434568787391
 10
878.016113061746
 20
609.8994139100251
 10
878.0043943117489
 20
609.743652191314
 10
878.0043943117489
 20
609.5395506288651
 10
878.0043943117489
 20
609.5395506288651
 10
878.0043943117489
 20
606.0375975047406
 10
878.0043943117489
 20
606.0375975047406
 10
878.0043943117489
 20
606.0375975047406
 10
876.9487302495128
 20
606.0375975047406
 10
876.9487302495128
 20
606.0375975047406
 10
876.9487302495128
 20
606.0375975047406
 10
876.9487302495128
 20
614.5527342213618
 10
876.9487302495128
 20
614.5527342213618
 97
        0
 97
        0
 75
     2
 76
     1
 98
        0
  0
SPLINE
  5
CA
330
95
100
AcDbEntity
  8
0
 62
   240
420
 15539236
370
    35
100
AcDbSpline
210
0.0
220
0.0
230
1.0
 70
    11
 71
     3
 72
    56
 73
    52
 74
     0
 42
0.0000000001
 43
0.0000000001
 12
1.0
 22
0.0
 32
0.0
 13
1.0
 23
0.0
 33
0.0
 40
0.0
 40
0.0
 40
0.0
 40
0.0
 40
1.0
 40
1.0
 40
1.0
 40
2.0
 40
2.0
 40
2.0
 40
3.0
 40
3.0
 40
3.0
 40
4.0
 40
4.0
 40
4.0
 40
5.0
 40
5.0
 40
5.0
 40
6.0
 40
6.0
 40
6.0
 40
7.0
 40
7.0
 40
7.0
 40
8.0
 40
8.0
 40
8.0
 40
9.0
 40
9.0
 40
9.0
 40
10.0
 40
10.0
 40
10.0
 40
11.0
 40
11.0
 40
11.0
 40
12.0
 40
12.0
 40
12.0
 40
13.0
 40
13.0
 40
13.0
 40
14.0
 40
14.0
 40
14.0
 40
15.0
 40
15.0
 40
15.0
 40
16.0
 40
16.0
 40
16.0
 40
17.0
 40
17.0
 40
17.0
 40
17.0
 10
884.8325193100419
 20
613.5092771903727
 30
0.0
 10
884.8325193100419
 20
613.5092771903727
 30
0.0
 10
884.8325193100419
 20
611.8422850032894
 30
0.0
 10
884.8325193100419
 20
611.8422850032894
 30
0.0
 10
884.8325193100419
 20
611.8422850032894
 30
0.0
 10
886.343749778414
 20
611.8422850032894
 30
0.0
 10
886.343749778414
 20
611.8422850032894
 30
0.0
 10
886.343749778414
 20
611.8422850032894
 30
0.0
 10
886.343749778414
 20
611.0390623472402
 30
0.0
 10
886.343749778414
 20
611.0390623472402
 30
0.0
 10
886.343749778414
 20
611.0390623472402
 30
0.0
 10
884.8325193100419
 20
611.0390623472402
 30
0.0
 10
884.8325193100419
 20
611.0390623472402
 30
0.0
 10
884.8325193100419
 20
611.0390623472402
 30
0.0
 10
884.8325193100419
 20
607.9086912542729
 30
0.0
 10
884.8325193100419
 20
607.9086912542729
 30
0.0
 10
884.8325193100419
 20
607.1889646919527
 30
0.0
 10
885.036132591241
 20
606.7812498483047
 30
0.0
 10
885.624023216094
 20
606.7812498483047
 30
0.0
 10
885.899902122275
 20
606.7812498483047
 30
0.0
 10
886.1035154034741
 20
606.8173826607956
 30
0.0
 10
886.2358396221911
 20
606.8530271920367
 30
0.0
 10
886.2358396221911
 20
606.8530271920367
 30
0.0
 10
886.283691184679
 20
606.0615232859847
 30
0.0
 10
886.283691184679
 20
606.0615232859847
 30
0.0
 10
886.0795896222301
 20
605.9775389110056
 30
0.0
 10
885.755859153561
 20
605.9174803172706
 30
0.0
 10
885.348144309913
 20
605.9174803172706
 30
0.0
 10
884.8564450912859
 20
605.9174803172706
 30
0.0
 10
884.4604489976349
 20
606.0737303172316
 30
0.0
 10
884.2084958726979
 20
606.3613279734096
 30
0.0
 10
883.9086911852728
 20
606.6733396920816
 30
0.0
 10
883.8007810290497
 20
607.1889646919527
 30
0.0
 10
883.8007810290497
 20
607.8725584417818
 30
0.0
 10
883.8007810290497
 20
607.8725584417818
 30
0.0
 10
883.8007810290497
 20
611.0390623472402
 30
0.0
 10
883.8007810290497
 20
611.0390623472402
 30
0.0
 10
883.8007810290497
 20
611.0390623472402
 30
0.0
 10
882.9013669667746
 20
611.0390623472402
 30
0.0
 10
882.9013669667746
 20
611.0390623472402
 30
0.0
 10
882.9013669667746
 20
611.0390623472402
 30
0.0
 10
882.9013669667746
 20
611.8422850032894
 30
0.0
 10
882.9013669667746
 20
611.8422850032894
 30
0.0
 10
882.9013669667746
 20
611.8422850032894
 30
0.0
 10
883.8007810290497
 20
611.8422850032894
 30
0.0
 10
883.8007810290497
 20
611.8422850032894
 30
0.0
 10
883.8007810290497
 20
611.8422850032894
 30
0.0
 10
883.8007810290497
 20
613.2338865654415
 30
0.0
 10
883.8007810290497
 20
613.2338865654415
 30
0.0
 10
883.8007810290497
 20
613.2338865654415
 30
0.0
 10
884.8325193100419
 20
613.5092771903727
 30
0.0
 10
884.8325193100419
 20
613.5092771903727
 30
0.0
  0
HATCH
  5
CB
330
95
100
AcDbEntity
  8
0
 62
   240
420
 15539236
100
AcDbHatch
 10
0.0
 20
0.0
 30
0.0
210
0.0
220
0.0
230
1.0
  2
SOLID
 70
     1
 71
     0
 91
        1
 92
        1
 93
        1
 72
     4
 94
        3
 73
     0
 74
     1
 95
       56
 96
       52
 40
0.0
 40
0.0
 40
0.0
 40
0.0
 40
1.0
 40
1.0
 40
1.0
 40
2.0
 40
2.0
 40
2.0
 40
3.0
 40
3.0
 40
3.0
 40
4.0
 40
4.0
 40
4.0
 40
5.0
 40
5.0
 40
5.0
 40
6.0
 40
6.0
 40
6.0
 40
7.0
 40
7.0
 40
7.0
 40
8.0
 40
8.0
 40
8.0
 40
9.0
 40
9.0
 40
9.0
 40
10.0
 40
10.0
 40
10.0
 40
11.0
 40
11.0
 40
11.0
 40
12.0
 40
12.0
 40
12.0
 40
13.0
 40
13.0
 40
13.0
 40
14.0
 40
14.0
 40
14.0
 40
15.0
 40
15.0
 40
15.0
 40
16.0
 40
16.0
 40
16.0
 40
17.0
 40
17.0
 40
17.0
 40
17.0
 10
884.8325193100419
 20
613.5092771903727
 10
884.8325193100419
 20
613.5092771903727
 10
884.8325193100419
 20
611.8422850032894
 10
884.8325193100419
 20
611.8422850032894
 10
884.8325193100419
 20
611.8422850032894
 10
886.343749778414
 20
611.8422850032894
 10
886.343749778414
 20
611.8422850032894
 10
886.343749778414
 20
611.8422850032894
 10
886.343749778414
 20
611.0390623472402
 10
886.343749778414
 20
611.0390623472402
 10
886.343749778414
 20
611.0390623472402
 10
884.8325193100419
 20
611.0390623472402
 10
884.8325193100419
 20
611.0390623472402
 10
884.8325193100419
 20
611.0390623472402
 10
884.8325193100419
 20
607.9086912542729
 10
884.8325193100419
 20
607.9086912542729
 10
884.8325193100419
 20
607.1889646919527
 10
885.036132591241
 20
606.7812498483047
 10
885.624023216094
 20
606.7812498483047
 10
885.899902122275
 20
606.7812498483047
 10
886.1035154034741
 20
606.8173826607956
 10
886.2358396221911
 20
606.8530271920367
 10
886.2358396221911
 20
606.8530271920367
 10
886.283691184679
 20
606.0615232859847
 10
886.283691184679
 20
606.0615232859847
 10
886.0795896222301
 20
605.9775389110056
 10
885.755859153561
 20
605.9174803172706
 10
885.348144309913
 20
605.9174803172706
 10
884.8564450912859
 20
605.9174803172706
 10
884.4604489976349
 20
606.0737303172316
 10
884.2084958726979
 20
606.3613279734096
 10
883.9086911852728
 20
606.6733396920816
 10
883.8007810290497
 20
607.1889646919527
 10
883.8007810290497
 20
607.8725584417818
 10
883.8007810290497
 20
607.8725584417818
 10
883.8007810290497
 20
611.0390623472402
 10
883.8007810290497
 20
611.0390623472402
 10
883.8007810290497
 20
611.0390623472402
 10
882.9013669667746
 20
611.0390623472402
 10
882.9013669667746
 20
611.0390623472402
 10
882.9013669667746
 20
611.0390623472402
 10
882.9013669667746
 20
611.8422850032894
 10
882.9013669667746
 20
611.8422850032894
 10
882.9013669667746
 20
611.8422850032894
 10
883.8007810290497
 20
611.8422850032894
 10
883.8007810290497
 20
611.8422850032894
 10
883.8007810290497
 20
611.8422850032894
 10
883.8007810290497
 20
613.2338865654415
 10
883.8007810290497
 20
613.2338865654415
 10
883.8007810290497
 20
613.2338865654415
 10
884.8325193100419
 20
613.5092771903727
 10
884.8325193100419
 20
613.5092771903727
 97
        0
 97
        0
 75
     2
 76
     1
 98
        0
  0
ENDBLK
  5
98
330
95
100
AcDbEntity
  8
0
100
AcDbBlockEnd
  0
ENDSEC
  0
SECTION
  2
ENTITIES
  0
INSERT
  5
41
330
1F
100
AcDbEntity
  8
0
100
AcDbBlockReference
  2
block 2
 10
0.0
 20
0.0
 30
0.0
  0
INSERT
  5
4C
330
1F
100
AcDbEntity
  8
0
100
AcDbBlockReference
  2
block 3
 10
0.0
 20
0.0
 30
0.0
  0
INSERT
  5
51
330
1F
100
AcDbEntity
  8
0
100
AcDbBlockReference
  2
block 4
 10
0.0
 20
0.0
 30
0.0
  0
INSERT
  5
56
330
1F
100
AcDbEntity
  8
0
100
AcDbBlockReference
  2
block 5
 10
0.0
 20
0.0
 30
0.0
  0
INSERT
  5
69
330
1F
100
AcDbEntity
  8
0
100
AcDbBlockReference
  2
block 6
 10
0.0
 20
0.0
 30
0.0
  0
INSERT
  5
6E
330
1F
100
AcDbEntity
  8
0
100
AcDbBlockReference
  2
block 7
 10
0.0
 20
0.0
 30
0.0
  0
INSERT
  5
73
330
1F
100
AcDbEntity
  8
0
100
AcDbBlockReference
  2
block 8
 10
0.0
 20
0.0
 30
0.0
  0
INSERT
  5
78
330
1F
100
AcDbEntity
  8
0
100
AcDbBlockReference
  2
block 9
 10
0.0
 20
0.0
 30
0.0
  0
INSERT
  5
7D
330
1F
100
AcDbEntity
  8
0
100
AcDbBlockReference
  2
block 10
 10
0.0
 20
0.0
 30
0.0
  0
INSERT
  5
82
330
1F
100
AcDbEntity
  8
0
100
AcDbBlockReference
  2
block 11
 10
0.0
 20
0.0
 30
0.0
  0
INSERT
  5
87
330
1F
100
AcDbEntity
  8
0
100
AcDbBlockReference
  2
block 12
 10
0.0
 20
0.0
 30
0.0
  0
INSERT
  5
8C
330
1F
100
AcDbEntity
  8
0
100
AcDbBlockReference
  2
block 13
 10
0.0
 20
0.0
 30
0.0
  0
INSERT
  5
91
330
1F
100
AcDbEntity
  8
0
100
AcDbBlockReference
  2
block 14
 10
0.0
 20
0.0
 30
0.0
  0
INSERT
  5
96
330
1F
100
AcDbEntity
  8
0
100
AcDbBlockReference
  2
block 15
 10
0.0
 20
0.0
 30
0.0
  0
ENDSEC
  0
SECTION
  2
OBJECTS
  0
DICTIONARY
  5
C
330
0
100
AcDbDictionary
281
     1
  3
ACAD_GROUP
350
D
  3
ACAD_LAYOUT
350
1A
  3
ACAD_MATERIAL
350
3B
  3
ACAD_MLEADERSTYLE
350
CD
  3
ACAD_MLINESTYLE
350
17
  3
ACAD_PLOTSETTINGS
350
19
  3
ACAD_PLOTSTYLENAME
350
E
  3
ACAD_TABLESTYLE
350
CC
  3
ACAD_VISUALSTYLE
350
2A
  0
SUN
  5
3F
330
29
100
AcDbSun
 90
        1
290
     0
 63
     7
421
 16777215
 40
1.0
291
     1
 91
  2455826
 92
 54000000
292
     0
 70
     2
 71
   256
280
     1
  0
DICTIONARY
  5
D
102
{ACAD_REACTORS
330
C
102
}
330
C
100
AcDbDictionary
281
     1
  0
DICTIONARY
  5
1A
102
{ACAD_REACTORS
330
C
102
}
330
C
100
AcDbDictionary
281
     1
  3
Layout1
350
1E
  3
Layout2
350
26
  3
Model
350
22
  0
DICTIONARY
  5
3B
102
{ACAD_REACTORS
330
C
102
}
330
C
100
AcDbDictionary
281
     1
  3
ByBlock
350
3D
  3
ByLayer
350
3C
  3
Global
350
3E
  0
DICTIONARY
  5
CD
102
{ACAD_REACTORS
330
C
102
}
330
C
100
AcDbDictionary
281
     1
  0
DICTIONARY
  5
17
102
{ACAD_REACTORS
330
C
102
}
330
C
100
AcDbDictionary
281
     1
  3
Standard
350
18
  0
DICTIONARY
  5
19
102
{ACAD_REACTORS
330
C
102
}
330
C
100
AcDbDictionary
281
     1
  0
ACDBDICTIONARYWDFLT
  5
E
102
{ACAD_REACTORS
330
C
102
}
330
C
100
AcDbDictionary
281
     1
  3
Normal
350
F
100
AcDbDictionaryWithDefault
340
F
  0
DICTIONARY
  5
CC
102
{ACAD_REACTORS
330
C
102
}
330
C
100
AcDbDictionary
281
     1
  0
DICTIONARY
  5
2A
102
{ACAD_REACTORS
330
C
102
}
330
C
100
AcDbDictionary
281
     1
  3
2dWireframe
350
2F
  3
3D Hidden
350
31
  3
3dWireframe
350
30
  3
Basic
350
32
  3
Brighten
350
36
  3
ColorChange
350
3A
  3
Conceptual
350
34
  3
Dim
350
35
  3
Facepattern
350
39
  3
Flat
350
2B
  3
FlatWithEdges
350
2C
  3
Gouraud
350
2D
  3
GouraudWithEdges
350
2E
  3
Linepattern
350
38
  3
Realistic
350
33
  3
Thicken
350
37
  0
LAYOUT
  5
1E
102
{ACAD_REACTORS
330
1A
102
}
330
1A
100
AcDbPlotSettings
  1

  2
none_device
  4

  6

 40
0.0
 41
0.0
 42
0.0
 43
0.0
 44
0.0
 45
0.0
 46
0.0
 47
0.0
 48
0.0
 49
0.0
140
0.0
141
0.0
142
1.0
143
1.0
 70
   688
 72
     0
 73
     0
 74
     5
  7

 75
    16
 76
     0
 77
     2
 78
   300
147
1.0
148
0.0
149
0.0
100
AcDbLayout
  1
Layout1
 70
     1
 71
     1
 10
0.0
 20
0.0
 11
12.0
 21
9.0
 12
0.0
 22
0.0
 32
0.0
 14
1.000000000000000E+20
 24
1.000000000000000E+20
 34
1.000000000000000E+20
 15
-1.000000000000000E+20
 25
-1.000000000000000E+20
 35
-1.000000000000000E+20
146
0.0
 13
0.0
 23
0.0
 33
0.0
 16
1.0
 26
0.0
 36
0.0
 17
0.0
 27
1.0
 37
0.0
 76
     0
330
1B
  0
LAYOUT
  5
26
102
{ACAD_REACTORS
330
1A
102
}
330
1A
100
AcDbPlotSettings
  1

  2
none_device
  4

  6

 40
0.0
 41
0.0
 42
0.0
 43
0.0
 44
0.0
 45
0.0
 46
0.0
 47
0.0
 48
0.0
 49
0.0
140
0.0
141
0.0
142
1.0
143
1.0
 70
   688
 72
     0
 73
     0
 74
     5
  7

 75
    16
 76
     0
 77
     2
 78
   300
147
1.0
148
0.0
149
0.0
100
AcDbLayout
  1
Layout2
 70
     1
 71
     2
 10
0.0
 20
0.0
 11
0.0
 21
0.0
 12
0.0
 22
0.0
 32
0.0
 14
0.0
 24
0.0
 34
0.0
 15
0.0
 25
0.0
 35
0.0
146
0.0
 13
0.0
 23
0.0
 33
0.0
 16
1.0
 26
0.0
 36
0.0
 17
0.0
 27
1.0
 37
0.0
 76
     0
330
23
  0
LAYOUT
  5
22
102
{ACAD_REACTORS
330
1A
102
}
330
1A
100
AcDbPlotSettings
  1

  2
none_device
  4

  6

 40
0.0
 41
0.0
 42
0.0
 43
0.0
 44
0.0
 45
0.0
 46
0.0
 47
0.0
 48
0.0
 49
0.0
140
0.0
141
0.0
142
1.0
143
1.0
 70
  1712
 72
     0
 73
     0
 74
     0
  7

 75
     0
 76
     0
 77
     2
 78
   300
147
1.0
148
0.0
149
0.0
100
AcDbLayout
  1
Model
 70
     1
 71
     0
 10
0.0
 20
0.0
 11
12.0
 21
9.0
 12
0.0
 22
0.0
 32
0.0
 14
1.000000000000000E+20
 24
1.000000000000000E+20
 34
1.000000000000000E+20
 15
-1.000000000000000E+20
 25
-1.000000000000000E+20
 35
-1.000000000000000E+20
146
0.0
 13
0.0
 23
0.0
 33
0.0
 16
1.0
 26
0.0
 36
0.0
 17
0.0
 27
1.0
 37
0.0
 76
     0
330
1F
331
29
  0
MATERIAL
  5
3D
102
{ACAD_REACTORS
330
3B
102
}
330
3B
100
AcDbMaterial
  1
ByBlock
 72
     1
 94
      127
  0
MATERIAL
  5
3C
102
{ACAD_REACTORS
330
3B
102
}
330
3B
100
AcDbMaterial
  1
ByLayer
 72
     1
 94
      127
  0
MATERIAL
  5
3E
102
{ACAD_REACTORS
330
3B
102
}
330
3B
100
AcDbMaterial
  1
Global
 72
     1
 94
      127
  0
MLINESTYLE
  5
18
102
{ACAD_REACTORS
330
17
102
}
330
17
100
AcDbMlineStyle
  2
Standard
 70
     0
  3

 62
   256
 51
90.0
 52
90.0
 71
     2
 49
0.5
 62
   256
  6
BYLAYER
 49
-0.5
 62
   256
  6
BYLAYER
  0
ACDBPLACEHOLDER
  5
F
102
{ACAD_REACTORS
330
E
102
}
330
E
  0
VISUALSTYLE
  5
2F
102
{ACAD_REACTORS
330
2A
102
}
330
2A
100
AcDbVisualStyle
  2
2dWireframe
 70
     4
177
     2
291
     0
 71
     0
176
     1
 72
     2
176
     1
 73
     0
176
     1
 90
        0
176
     1
 40
-0.6
176
     1
 41
-30.0
176
     1
 62
     5
 63
     7
421
 16777215
176
     1
 74
     1
176
     1
 91
        4
176
     1
 64
     7
176
     1
 65
   257
176
     1
 75
     1
176
     1
175
     1
176
     1
 42
1.0
176
     1
 92
        0
176
     1
 66
   257
176
     1
 43
1.0
176
     1
 76
     1
176
     1
 77
     6
176
     1
 78
     2
176
     1
 67
     7
176
     1
 79
     5
176
     1
170
     0
176
     1
171
     0
176
     1
290
     0
176
     1
 93
        1
176
     1
 44
0.0
176
     1
173
     0
176
     1
  0
VISUALSTYLE
  5
31
102
{ACAD_REACTORS
330
2A
102
}
330
2A
100
AcDbVisualStyle
  2
3D Hidden
 70
     6
177
     2
291
     0
 71
     1
176
     1
 72
     2
176
     1
 73
     2
176
     1
 90
        0
176
     1
 40
-0.6
176
     1
 41
-30.0
176
     1
 62
     5
 63
     7
421
 16777215
176
     1
 74
     2
176
     1
 91
        2
176
     1
 64
     7
176
     1
 65
   257
176
     1
 75
     2
176
     1
175
     1
176
     1
 42
40.0
176
     1
 92
        0
176
     1
 66
   257
176
     1
 43
1.0
176
     1
 76
     1
176
     1
 77
     6
176
     1
 78
     2
176
     1
 67
     7
176
     1
 79
     3
176
     1
170
     0
176
     1
171
     0
176
     1
290
     0
176
     1
 93
        1
176
     1
 44
0.0
176
     1
173
     0
176
     1
  0
VISUALSTYLE
  5
30
102
{ACAD_REACTORS
330
2A
102
}
330
2A
100
AcDbVisualStyle
  2
3dWireframe
 70
     5
177
     2
291
     0
 71
     0
176
     1
 72
     2
176
     1
 73
     0
176
     1
 90
        0
176
     1
 40
-0.6
176
     1
 41
-30.0
176
     1
 62
     5
 63
     7
421
 16777215
176
     1
 74
     1
176
     1
 91
        4
176
     1
 64
     7
176
     1
 65
   257
176
     1
 75
     1
176
     1
175
     1
176
     1
 42
1.0
176
     1
 92
        0
176
     1
 66
   257
176
     1
 43
1.0
176
     1
 76
     1
176
     1
 77
     6
176
     1
 78
     2
176
     1
 67
     7
176
     1
 79
     5
176
     1
170
     0
176
     1
171
     0
176
     1
290
     0
176
     1
 93
        1
176
     1
 44
0.0
176
     1
173
     0
176
     1
  0
VISUALSTYLE
  5
32
102
{ACAD_REACTORS
330
2A
102
}
330
2A
100
AcDbVisualStyle
  2
Basic
 70
     7
177
     2
291
     1
 71
     1
176
     1
 72
     0
176
     1
 73
     1
176
     1
 90
        0
176
     1
 40
-0.6
176
     1
 41
-30.0
176
     1
 62
     5
 63
     7
421
 16777215
176
     1
 74
     0
176
     1
 91
        4
176
     1
 64
     7
176
     1
 65
   257
176
     1
 75
     1
176
     1
175
     1
176
     1
 42
1.0
176
     1
 92
        8
176
     1
 66
     7
176
     1
 43
1.0
176
     1
 76
     1
176
     1
 77
     6
176
     1
 78
     2
176
     1
 67
     7
176
     1
 79
     5
176
     1
170
     0
176
     1
171
     0
176
     1
290
     0
176
     1
 93
        1
176
     1
 44
0.0
176
     1
173
     0
176
     1
  0
VISUALSTYLE
  5
36
102
{ACAD_REACTORS
330
2A
102
}
330
2A
100
AcDbVisualStyle
  2
Brighten
 70
    12
177
     2
291
     1
 71
     2
176
     1
 72
     2
176
     1
 73
     0
176
     1
 90
        0
176
     1
 40
-0.6
176
     1
 41
-30.0
176
     1
 62
     5
 63
     7
421
 16777215
176
     1
 74
     1
176
     1
 91
        4
176
     1
 64
     7
176
     1
 65
   257
176
     1
 75
     1
176
     1
175
     1
176
     1
 42
1.0
176
     1
 92
        8
176
     1
 66
     7
176
     1
 43
1.0
176
     1
 76
     1
176
     1
 77
     6
176
     1
 78
     2
176
     1
 67
     7
176
     1
 79
     5
176
     1
170
     0
176
     1
171
     0
176
     1
290
     0
176
     1
 93
        1
176
     1
 44
50.0
176
     1
173
     0
176
     1
  0
VISUALSTYLE
  5
3A
102
{ACAD_REACTORS
330
2A
102
}
330
2A
100
AcDbVisualStyle
  2
ColorChange
 70
    16
177
     2
291
     1
 71
     2
176
     1
 72
     2
176
     1
 73
     3
176
     1
 90
        0
176
     1
 40
-0.6
176
     1
 41
-30.0
176
     1
 62
     5
 63
     8
421
  8421504
176
     1
 74
     1
176
     1
 91
        4
176
     1
 64
     7
176
     1
 65
   257
176
     1
 75
     1
176
     1
175
     1
176
     1
 42
1.0
176
     1
 92
        8
176
     1
 66
     8
424
  8421504
176
     1
 43
1.0
176
     1
 76
     1
176
     1
 77
     6
176
     1
 78
     2
176
     1
 67
     7
176
     1
 79
     5
176
     1
170
     0
176
     1
171
     0
176
     1
290
     0
176
     1
 93
        1
176
     1
 44
0.0
176
     1
173
     0
176
     1
  0
VISUALSTYLE
  5
34
102
{ACAD_REACTORS
330
2A
102
}
330
2A
100
AcDbVisualStyle
  2
Conceptual
 70
     9
177
     2
291
     0
 71
     3
176
     1
 72
     2
176
     1
 73
     0
176
     1
 90
        0
176
     1
 40
-0.6
176
     1
 41
-30.0
176
     1
 62
     5
 63
     7
421
 16777215
176
     1
 74
     2
176
     1
 91
        2
176
     1
 64
     7
176
     1
 65
   257
176
     1
 75
     1
176
     1
175
     1
176
     1
 42
40.0
176
     1
 92
        8
176
     1
 66
     7
176
     1
 43
1.0
176
     1
 76
     1
176
     1
 77
     6
176
     1
 78
     2
176
     1
 67
     7
176
     1
 79
     3
176
     1
170
     0
176
     1
171
     0
176
     1
290
     0
176
     1
 93
        1
176
     1
 44
0.0
176
     1
173
     0
176
     1
  0
VISUALSTYLE
  5
35
102
{ACAD_REACTORS
330
2A
102
}
330
2A
100
AcDbVisualStyle
  2
Dim
 70
    11
177
     2
291
     1
 71
     2
176
     1
 72
     2
176
     1
 73
     0
176
     1
 90
        0
176
     1
 40
-0.6
176
     1
 41
-30.0
176
     1
 62
     5
 63
     7
421
 16777215
176
     1
 74
     1
176
     1
 91
        4
176
     1
 64
     7
176
     1
 65
   257
176
     1
 75
     1
176
     1
175
     1
176
     1
 42
1.0
176
     1
 92
        8
176
     1
 66
     7
176
     1
 43
1.0
176
     1
 76
     1
176
     1
 77
     6
176
     1
 78
     2
176
     1
 67
     7
176
     1
 79
     5
176
     1
170
     0
176
     1
171
     0
176
     1
290
     0
176
     1
 93
        1
176
     1
 44
-50.0
176
     1
173
     0
176
     1
  0
VISUALSTYLE
  5
39
102
{ACAD_REACTORS
330
2A
102
}
330
2A
100
AcDbVisualStyle
  2
Facepattern
 70
    15
177
     2
291
     1
 71
     2
176
     1
 72
     2
176
     1
 73
     0
176
     1
 90
        0
176
     1
 40
-0.6
176
     1
 41
-30.0
176
     1
 62
     5
 63
     7
421
 16777215
176
     1
 74
     1
176
     1
 91
        4
176
     1
 64
     7
176
     1
 65
   257
176
     1
 75
     1
176
     1
175
     1
176
     1
 42
1.0
176
     1
 92
        8
176
     1
 66
     7
176
     1
 43
1.0
176
     1
 76
     1
176
     1
 77
     6
176
     1
 78
     2
176
     1
 67
     7
176
     1
 79
     5
176
     1
170
     0
176
     1
171
     0
176
     1
290
     0
176
     1
 93
        1
176
     1
 44
0.0
176
     1
173
     0
176
     1
  0
VISUALSTYLE
  5
2B
102
{ACAD_REACTORS
330
2A
102
}
330
2A
100
AcDbVisualStyle
  2
Flat
 70
     0
177
     2
291
     1
 71
     2
176
     1
 72
     1
176
     1
 73
     1
176
     1
 90
        2
176
     1
 40
-0.6
176
     1
 41
30.0
176
     1
 62
     5
 63
     7
421
 16777215
176
     1
 74
     0
176
     1
 91
        4
176
     1
 64
     7
176
     1
 65
   257
176
     1
 75
     1
176
     1
175
     1
176
     1
 42
1.0
176
     1
 92
        8
176
     1
 66
     7
176
     1
 43
1.0
176
     1
 76
     1
176
     1
 77
     6
176
     1
 78
     2
176
     1
 67
     7
176
     1
 79
     5
176
     1
170
     0
176
     1
171
     0
176
     1
290
     0
176
     1
 93
       13
176
     1
 44
0.0
176
     1
173
     0
176
     1
  0
VISUALSTYLE
  5
2C
102
{ACAD_REACTORS
330
2A
102
}
330
2A
100
AcDbVisualStyle
  2
FlatWithEdges
 70
     1
177
     2
291
     1
 71
     2
176
     1
 72
     1
176
     1
 73
     1
176
     1
 90
        2
176
     1
 40
-0.6
176
     1
 41
30.0
176
     1
 62
     5
 63
     7
421
 16777215
176
     1
 74
     1
176
     1
 91
        4
176
     1
 64
     7
176
     1
 65
   257
176
     1
 75
     1
176
     1
175
     1
176
     1
 42
1.0
176
     1
 92
        0
176
     1
 66
   257
176
     1
 43
1.0
176
     1
 76
     1
176
     1
 77
     6
176
     1
 78
     2
176
     1
 67
     7
176
     1
 79
     5
176
     1
170
     0
176
     1
171
     0
176
     1
290
     0
176
     1
 93
       13
176
     1
 44
0.0
176
     1
173
     0
176
     1
  0
VISUALSTYLE
  5
2D
102
{ACAD_REACTORS
330
2A
102
}
330
2A
100
AcDbVisualStyle
  2
Gouraud
 70
     2
177
     2
291
     1
 71
     2
176
     1
 72
     2
176
     1
 73
     1
176
     1
 90
        2
176
     1
 40
-0.6
176
     1
 41
30.0
176
     1
 62
     5
 63
     7
421
 16777215
176
     1
 74
     0
176
     1
 91
        4
176
     1
 64
     7
176
     1
 65
   257
176
     1
 75
     1
176
     1
175
     1
176
     1
 42
1.0
176
     1
 92
        0
176
     1
 66
     7
176
     1
 43
1.0
176
     1
 76
     1
176
     1
 77
     6
176
     1
 78
     2
176
     1
 67
     7
176
     1
 79
     5
176
     1
170
     0
176
     1
171
     0
176
     1
290
     0
176
     1
 93
       13
176
     1
 44
0.0
176
     1
173
     0
176
     1
  0
VISUALSTYLE
  5
2E
102
{ACAD_REACTORS
330
2A
102
}
330
2A
100
AcDbVisualStyle
  2
GouraudWithEdges
 70
     3
177
     2
291
     1
 71
     2
176
     1
 72
     2
176
     1
 73
     1
176
     1
 90
        2
176
     1
 40
-0.6
176
     1
 41
30.0
176
     1
 62
     5
 63
     7
421
 16777215
176
     1
 74
     1
176
     1
 91
        4
176
     1
 64
     7
176
     1
 65
   257
176
     1
 75
     1
176
     1
175
     1
176
     1
 42
1.0
176
     1
 92
        0
176
     1
 66
   257
176
     1
 43
1.0
176
     1
 76
     1
176
     1
 77
     6
176
     1
 78
     2
176
     1
 67
     7
176
     1
 79
     5
176
     1
170
     0
176
     1
171
     0
176
     1
290
     0
176
     1
 93
       13
176
     1
 44
0.0
176
     1
173
     0
176
     1
  0
VISUALSTYLE
  5
38
102
{ACAD_REACTORS
330
2A
102
}
330
2A
100
AcDbVisualStyle
  2
Linepattern
 70
    14
177
     2
291
     1
 71
     2
176
     1
 72
     2
176
     1
 73
     0
176
     1
 90
        0
176
     1
 40
-0.6
176
     1
 41
-30.0
176
     1
 62
     5
 63
     7
421
 16777215
176
     1
 74
     1
176
     1
 91
        4
176
     1
 64
     7
176
     1
 65
   257
176
     1
 75
     7
176
     1
175
     7
176
     1
 42
1.0
176
     1
 92
        8
176
     1
 66
     7
176
     1
 43
1.0
176
     1
 76
     1
176
     1
 77
     6
176
     1
 78
     2
176
     1
 67
     7
176
     1
 79
     5
176
     1
170
     0
176
     1
171
     0
176
     1
290
     0
176
     1
 93
        1
176
     1
 44
0.0
176
     1
173
     0
176
     1
  0
VISUALSTYLE
  5
33
102
{ACAD_REACTORS
330
2A
102
}
330
2A
100
AcDbVisualStyle
  2
Realistic
 70
     8
177
     2
291
     0
 71
     2
176
     1
 72
     2
176
     1
 73
     0
176
     1
 90
        0
176
     1
 40
-0.6
176
     1
 41
-30.0
176
     1
 62
     5
 63
     7
421
 16777215
176
     1
 74
     1
176
     1
 91
        0
176
     1
 64
     7
176
     1
 65
   257
176
     1
 75
     1
176
     1
175
     1
176
     1
 42
1.0
176
     1
 92
        8
176
     1
 66
     8
424
  7895160
176
     1
 43
1.0
176
     1
 76
     1
176
     1
 77
     6
176
     1
 78
     2
176
     1
 67
     7
176
     1
 79
     5
176
     1
170
     0
176
     1
171
     0
176
     1
290
     0
176
     1
 93
       13
176
     1
 44
0.0
176
     1
173
     0
176
     1
  0
VISUALSTYLE
  5
37
102
{ACAD_REACTORS
330
2A
102
}
330
2A
100
AcDbVisualStyle
  2
Thicken
 70
    13
177
     2
291
     1
 71
     2
176
     1
 72
     2
176
     1
 73
     0
176
     1
 90
        0
176
     1
 40
-0.6
176
     1
 41
-30.0
176
     1
 62
     5
 63
     7
421
 16777215
176
     1
 74
     1
176
     1
 91
        4
176
     1
 64
     7
176
     1
 65
   257
176
     1
 75
     1
176
     1
175
     1
176
     1
 42
1.0
176
     1
 92
       12
176
     1
 66
     7
176
     1
 43
1.0
176
     1
 76
     1
176
     1
 77
     6
176
     1
 78
     2
176
     1
 67
     7
176
     1
 79
     5
176
     1
170
     0
176
     1
171
     0
176
     1
290
     0
176
     1
 93
        1
176
     1
 44
0.0
176
     1
173
     0
176
     1
  0
ENDSEC
  0
EOF
