  0
SECTION
  2
HEADER
  9
$ACADVER
  1
AC1024
  9
$ACADMAINTVER
 70
     6
  9
$DWGCODEPAGE
  3
ANSI_1252
  9
$INSBASE
 10
0.0
 20
0.0
 30
0.0
  9
$EXTMIN
 10
1.000000000000000E+20
 20
1.000000000000000E+20
 30
1.000000000000000E+20
  9
$EXTMAX
 10
-1.000000000000000E+20
 20
-1.000000000000000E+20
 30
-1.000000000000000E+20
  9
$LIMMIN
 10
0.0
 20
0.0
  9
$LIMMAX
 10
12.0
 20
9.0
  9
$ORTHOMODE
 70
     0
  9
$REGENMODE
 70
     1
  9
$FILLMODE
 70
     1
  9
$QTEXTMODE
 70
     0
  9
$MIRRTEXT
 70
     1
  9
$LTSCALE
 40
1.0
  9
$ATTMODE
 70
     1
  9
$TEXTSIZE
 40
0.2
  9
$TRACEWID
 40
0.05
  9
$TEXTSTYLE
  7
Standard
  9
$CLAYER
  8
0
  9
$CELTYPE
  6
ByLayer
  9
$CECOLOR
 62
   256
  9
$CELTSCALE
 40
1.0
  9
$DISPSILH
 70
     0
  9
$DIMSCALE
 40
1.0
  9
$DIMASZ
 40
0.18
  9
$DIMEXO
 40
0.0625
  9
$DIMDLI
 40
0.38
  9
$DIMRND
 40
0.0
  9
$DIMDLE
 40
0.0
  9
$DIMEXE
 40
0.18
  9
$DIMTP
 40
0.0
  9
$DIMTM
 40
0.0
  9
$DIMTXT
 40
0.18
  9
$DIMCEN
 40
0.09
  9
$DIMTSZ
 40
0.0
  9
$DIMTOL
 70
     0
  9
$DIMLIM
 70
     0
  9
$DIMTIH
 70
     1
  9
$DIMTOH
 70
     1
  9
$DIMSE1
 70
     0
  9
$DIMSE2
 70
     0
  9
$DIMTAD
 70
     0
  9
$DIMZIN
 70
     0
  9
$DIMBLK
  1

  9
$DIMASO
 70
     1
  9
$DIMSHO
 70
     1
  9
$DIMPOST
  1

  9
$DIMAPOST
  1

  9
$DIMALT
 70
     0
  9
$DIMALTD
 70
     2
  9
$DIMALTF
 40
25.4
  9
$DIMLFAC
 40
1.0
  9
$DIMTOFL
 70
     0
  9
$DIMTVP
 40
0.0
  9
$DIMTIX
 70
     0
  9
$DIMSOXD
 70
     0
  9
$DIMSAH
 70
     0
  9
$DIMBLK1
  1

  9
$DIMBLK2
  1

  9
$DIMSTYLE
  2
Standard
  9
$DIMCLRD
 70
     0
  9
$DIMCLRE
 70
     0
  9
$DIMCLRT
 70
     0
  9
$DIMTFAC
 40
1.0
  9
$DIMGAP
 40
0.09
  9
$DIMJUST
 70
     0
  9
$DIMSD1
 70
     0
  9
$DIMSD2
 70
     0
  9
$DIMTOLJ
 70
     1
  9
$DIMTZIN
 70
     0
  9
$DIMALTZ
 70
     0
  9
$DIMALTTZ
 70
     0
  9
$DIMUPT
 70
     0
  9
$DIMDEC
 70
     4
  9
$DIMTDEC
 70
     4
  9
$DIMALTU
 70
     2
  9
$DIMALTTD
 70
     2
  9
$DIMTXSTY
  7
Standard
  9
$DIMAUNIT
 70
     0
  9
$DIMADEC
 70
     0
  9
$DIMALTRND
 40
0.0
  9
$DIMAZIN
 70
     0
  9
$DIMDSEP
 70
    46
  9
$DIMATFIT
 70
     3
  9
$DIMFRAC
 70
     0
  9
$DIMLDRBLK
  1

  9
$DIMLUNIT
 70
     2
  9
$DIMLWD
 70
    -2
  9
$DIMLWE
 70
    -2
  9
$DIMTMOVE
 70
     0
  9
$DIMFXL
 40
1.0
  9
$DIMFXLON
 70
     0
  9
$DIMJOGANG
 40
0.7853981633974483
  9
$DIMTFILL
 70
     0
  9
$DIMTFILLCLR
 70
     0
  9
$DIMARCSYM
 70
     0
  9
$DIMLTYPE
  6

  9
$DIMLTEX1
  6

  9
$DIMLTEX2
  6

  9
$DIMTXTDIRECTION
 70
     0
  9
$LUNITS
 70
     2
  9
$LUPREC
 70
     4
  9
$SKETCHINC
 40
0.1
  9
$FILLETRAD
 40
0.5
  9
$AUNITS
 70
     0
  9
$AUPREC
 70
     0
  9
$MENU
  1
.
  9
$ELEVATION
 40
0.0
  9
$PELEVATION
 40
0.0
  9
$THICKNESS
 40
0.0
  9
$LIMCHECK
 70
     0
  9
$CHAMFERA
 40
0.5
  9
$CHAMFERB
 40
0.5
  9
$CHAMFERC
 40
1.0
  9
$CHAMFERD
 40
0.0
  9
$SKPOLY
 70
     0
  9
$TDCREATE
 40
2459171.908340185
  9
$TDUCREATE
 40
2459172.241673518
  9
$TDUPDATE
 40
2459171.908340208
  9
$TDUUPDATE
 40
2459172.241673542
  9
$TDINDWG
 40
0.0000000116
  9
$TDUSRTIMER
 40
0.0000000116
  9
$USRTIMER
 70
     1
  9
$ANGBASE
 50
0.0
  9
$ANGDIR
 70
     0
  9
$PDMODE
 70
     0
  9
$PDSIZE
 40
0.0
  9
$PLINEWID
 40
0.0
  9
$SPLFRAME
 70
     0
  9
$SPLINETYPE
 70
     6
  9
$SPLINESEGS
 70
     8
  9
$HANDSEED
  5
B7
  9
$SURFTAB1
 70
     6
  9
$SURFTAB2
 70
     6
  9
$SURFTYPE
 70
     6
  9
$SURFU
 70
     6
  9
$SURFV
 70
     6
  9
$UCSBASE
  2

  9
$UCSNAME
  2

  9
$UCSORG
 10
0.0
 20
0.0
 30
0.0
  9
$UCSXDIR
 10
1.0
 20
0.0
 30
0.0
  9
$UCSYDIR
 10
0.0
 20
1.0
 30
0.0
  9
$UCSORTHOREF
  2

  9
$UCSORTHOVIEW
 70
     0
  9
$UCSORGTOP
 10
0.0
 20
0.0
 30
0.0
  9
$UCSORGBOTTOM
 10
0.0
 20
0.0
 30
0.0
  9
$UCSORGLEFT
 10
0.0
 20
0.0
 30
0.0
  9
$UCSORGRIGHT
 10
0.0
 20
0.0
 30
0.0
  9
$UCSORGFRONT
 10
0.0
 20
0.0
 30
0.0
  9
$UCSORGBACK
 10
0.0
 20
0.0
 30
0.0
  9
$PUCSBASE
  2

  9
$PUCSNAME
  2

  9
$PUCSORG
 10
0.0
 20
0.0
 30
0.0
  9
$PUCSXDIR
 10
1.0
 20
0.0
 30
0.0
  9
$PUCSYDIR
 10
0.0
 20
1.0
 30
0.0
  9
$PUCSORTHOREF
  2

  9
$PUCSORTHOVIEW
 70
     0
  9
$PUCSORGTOP
 10
0.0
 20
0.0
 30
0.0
  9
$PUCSORGBOTTOM
 10
0.0
 20
0.0
 30
0.0
  9
$PUCSORGLEFT
 10
0.0
 20
0.0
 30
0.0
  9
$PUCSORGRIGHT
 10
0.0
 20
0.0
 30
0.0
  9
$PUCSORGFRONT
 10
0.0
 20
0.0
 30
0.0
  9
$PUCSORGBACK
 10
0.0
 20
0.0
 30
0.0
  9
$USERI1
 70
     0
  9
$USERI2
 70
     0
  9
$USERI3
 70
     0
  9
$USERI4
 70
     0
  9
$USERI5
 70
     0
  9
$USERR1
 40
0.0
  9
$USERR2
 40
0.0
  9
$USERR3
 40
0.0
  9
$USERR4
 40
0.0
  9
$USERR5
 40
0.0
  9
$WORLDVIEW
 70
     1
  9
$SHADEDGE
 70
     3
  9
$SHADEDIF
 70
    70
  9
$TILEMODE
 70
     1
  9
$MAXACTVP
 70
    64
  9
$PINSBASE
 10
0.0
 20
0.0
 30
0.0
  9
$PLIMCHECK
 70
     0
  9
$PEXTMIN
 10
1.000000000000000E+20
 20
1.000000000000000E+20
 30
1.000000000000000E+20
  9
$PEXTMAX
 10
-1.000000000000000E+20
 20
-1.000000000000000E+20
 30
-1.000000000000000E+20
  9
$PLIMMIN
 10
0.0
 20
0.0
  9
$PLIMMAX
 10
12.0
 20
9.0
  9
$UNITMODE
 70
     0
  9
$VISRETAIN
 70
     1
  9
$PLINEGEN
 70
     0
  9
$PSLTSCALE
 70
     1
  9
$TREEDEPTH
 70
  3020
  9
$CMLSTYLE
  2
Standard
  9
$CMLJUST
 70
     0
  9
$CMLSCALE
 40
1.0
  9
$PROXYGRAPHICS
 70
     1
  9
$MEASUREMENT
 70
     0
  9
$CELWEIGHT
370
    -1
  9
$ENDCAPS
280
     0
  9
$JOINSTYLE
280
     0
  9
$LWDISPLAY
290
     1
  9
$INSUNITS
 70
     4
  9
$HYPERLINKBASE
  1

  9
$STYLESHEET
  1

  9
$XEDIT
290
     1
  9
$CEPSNTYPE
380
     0
  9
$PSTYLEMODE
290
     1
  9
$FINGERPRINTGUID
  2
{2AA1BF5B-9E50-4829-967C-8ACD5434D2C9}
  9
$VERSIONGUID
  2
{FAEB1C32-E019-11D5-929B-00C0DF256EC4}
  9
$EXTNAMES
290
     1
  9
$PSVPSCALE
 40
0.0
  9
$OLESTARTUP
290
     0
  9
$SORTENTS
280
   127
  9
$INDEXCTL
280
     0
  9
$HIDETEXT
280
     1
  9
$XCLIPFRAME
280
     2
  9
$HALOGAP
280
     0
  9
$OBSCOLOR
 70
   257
  9
$OBSLTYPE
280
     0
  9
$INTERSECTIONDISPLAY
280
     0
  9
$INTERSECTIONCOLOR
 70
   257
  9
$DIMASSOC
280
     2
  9
$PROJECTNAME
  1

  9
$CAMERADISPLAY
290
     0
  9
$LENSLENGTH
 40
50.0
  9
$CAMERAHEIGHT
 40
0.0
  9
$STEPSPERSEC
 40
2.0
  9
$STEPSIZE
 40
6.0
  9
$3DDWFPREC
 40
2.0
  9
$PSOLWIDTH
 40
0.25
  9
$PSOLHEIGHT
 40
4.0
  9
$LOFTANG1
 40
1.570796326794897
  9
$LOFTANG2
 40
1.570796326794897
  9
$LOFTMAG1
 40
0.0
  9
$LOFTMAG2
 40
0.0
  9
$LOFTPARAM
 70
     7
  9
$LOFTNORMALS
280
     1
  9
$LATITUDE
 40
37.795
  9
$LONGITUDE
 40
-122.394
  9
$NORTHDIRECTION
 40
0.0
  9
$TIMEZONE
 70
 -8000
  9
$LIGHTGLYPHDISPLAY
280
     1
  9
$TILEMODELIGHTSYNCH
280
     1
  9
$CMATERIAL
347
3C
  9
$SOLIDHIST
280
     1
  9
$SHOWHIST
280
     1
  9
$DWFFRAME
280
     2
  9
$DGNFRAME
280
     2
  9
$REALWORLDSCALE
290
     1
  9
$INTERFERECOLOR
 62
   256
  9
$CSHADOW
280
     0
  9
$SHADOWPLANELOCATION
 40
0.0
  0
ENDSEC
  0
SECTION
  2
CLASSES
  0
CLASS
  1
ACDBDICTIONARYWDFLT
  2
AcDbDictionaryWithDefault
  3
ObjectDBX Classes
 90
        0
 91
        4
280
     0
281
     0
  0
CLASS
  1
VISUALSTYLE
  2
AcDbVisualStyle
  3
ObjectDBX Classes
 90
     4095
 91
        4
280
     0
281
     0
  0
CLASS
  1
MATERIAL
  2
AcDbMaterial
  3
ObjectDBX Classes
 90
     1153
 91
        4
280
     0
281
     0
  0
CLASS
  1
SUN
  2
AcDbSun
  3
SCENEOE
 90
     1024
 91
        4
280
     0
281
     0
  0
ENDSEC
  0
SECTION
  2
TABLES
  0
TABLE
  2
VPORT
  5
8
330
0
100
AcDbSymbolTable
 70
     1
  0
VPORT
  5
29
330
8
100
AcDbSymbolTableRecord
100
AcDbViewportTableRecord
  2
*Active
 70
     0
 10
0.0
 20
0.0
 11
1.0
 21
1.0
 12
0.0
 22
0.0
 13
0.0
 23
0.0
 14
0.5
 24
0.5
 15
0.5
 25
0.5
 16
0.0
 26
0.0
 36
1.0
 17
959.99999976
 27
539.999999865
 37
0.0
 40
1079.99999973
 41
1.777777777777778
 42
50.0
 43
0.0
 44
0.0
 50
0.0
 51
0.0
 71
     0
 72
   100
 73
     1
 74
     3
 75
     0
 76
     0
 77
     0
 78
     0
281
     0
 65
     1
110
0.0
120
0.0
130
0.0
111
1.0
121
0.0
131
0.0
112
0.0
122
1.0
132
0.0
 79
     0
146
0.0
 60
     3
 61
     5
292
     1
282
     1
141
0.0
142
0.0
 63
   250
361
3F
  0
ENDTAB
  0
TABLE
  2
LTYPE
  5
5
330
0
100
AcDbSymbolTable
 70
     1
  0
LTYPE
  5
14
330
5
100
AcDbSymbolTableRecord
100
AcDbLinetypeTableRecord
  2
ByBlock
 70
     0
  3

 72
    65
 73
     0
 40
0.0
  0
LTYPE
  5
15
330
5
100
AcDbSymbolTableRecord
100
AcDbLinetypeTableRecord
  2
ByLayer
 70
     0
  3

 72
    65
 73
     0
 40
0.0
  0
LTYPE
  5
16
330
5
100
AcDbSymbolTableRecord
100
AcDbLinetypeTableRecord
  2
Continuous
 70
     0
  3
Solid line
 72
    65
 73
     0
 40
0.0
  0
ENDTAB
  0
TABLE
  2
LAYER
  5
2
330
0
100
AcDbSymbolTable
 70
     1
  0
LAYER
  5
10
330
2
100
AcDbSymbolTableRecord
100
AcDbLayerTableRecord
  2
0
 70
     0
 62
     7
  6
Continuous
370
    -3
390
F
347
3E
  0
ENDTAB
  0
TABLE
  2
STYLE
  5
3
330
0
100
AcDbSymbolTable
 70
     1
  0
STYLE
  5
11
330
3
100
AcDbSymbolTableRecord
100
AcDbTextStyleTableRecord
  2
Standard
 70
     0
 40
0.0
 41
1.0
 50
0.0
 71
     0
 42
0.2
  3
txt
  4

  0
ENDTAB
  0
TABLE
  2
VIEW
  5
6
330
0
100
AcDbSymbolTable
 70
     0
  0
ENDTAB
  0
TABLE
  2
UCS
  5
7
330
0
100
AcDbSymbolTable
 70
     0
  0
ENDTAB
  0
TABLE
  2
APPID
  5
9
330
0
100
AcDbSymbolTable
 70
     1
  0
APPID
  5
12
330
9
100
AcDbSymbolTableRecord
100
AcDbRegAppTableRecord
  2
ACAD
 70
     0
  0
ENDTAB
  0
TABLE
  2
DIMSTYLE
  5
A
330
0
100
AcDbSymbolTable
 70
     1
100
AcDbDimStyleTable
  0
DIMSTYLE
105
27
330
A
100
AcDbSymbolTableRecord
100
AcDbDimStyleTableRecord
  2
Standard
 70
     0
178
     0
340
11
  0
ENDTAB
  0
TABLE
  2
BLOCK_RECORD
  5
1
330
0
100
AcDbSymbolTable
 70
    12
  0
BLOCK_RECORD
  5
1F
330
1
100
AcDbSymbolTableRecord
100
AcDbBlockTableRecord
  2
*Model_Space
340
22
 70
     0
280
     1
281
     0
  0
BLOCK_RECORD
  5
1B
330
1
100
AcDbSymbolTableRecord
100
AcDbBlockTableRecord
  2
*Paper_Space
340
1E
 70
     0
280
     1
281
     0
  0
BLOCK_RECORD
  5
23
330
1
100
AcDbSymbolTableRecord
100
AcDbBlockTableRecord
  2
*Paper_Space0
340
26
 70
     0
280
     1
281
     0
  0
BLOCK_RECORD
  5
40
330
1
100
AcDbSymbolTableRecord
100
AcDbBlockTableRecord
  2
block 2
340
0
102
{BLKREFS
331
41
102
}
 70
     0
280
     1
281
     0
  0
BLOCK_RECORD
  5
45
330
1
100
AcDbSymbolTableRecord
100
AcDbBlockTableRecord
  2
block 3
340
0
102
{BLKREFS
331
46
102
}
 70
     0
280
     1
281
     0
  0
BLOCK_RECORD
  5
50
330
1
100
AcDbSymbolTableRecord
100
AcDbBlockTableRecord
  2
block 4
340
0
102
{BLKREFS
331
51
102
}
 70
     0
280
     1
281
     0
  0
BLOCK_RECORD
  5
55
330
1
100
AcDbSymbolTableRecord
100
AcDbBlockTableRecord
  2
block 5
340
0
102
{BLKREFS
331
56
102
}
 70
     0
280
     1
281
     0
  0
BLOCK_RECORD
  5
5A
330
1
100
AcDbSymbolTableRecord
100
AcDbBlockTableRecord
  2
block 6
340
0
102
{BLKREFS
331
5B
102
}
 70
     0
280
     1
281
     0
  0
BLOCK_RECORD
  5
5F
330
1
100
AcDbSymbolTableRecord
100
AcDbBlockTableRecord
  2
block 7
340
0
102
{BLKREFS
331
60
102
}
 70
     0
280
     1
281
     0
  0
BLOCK_RECORD
  5
64
330
1
100
AcDbSymbolTableRecord
100
AcDbBlockTableRecord
  2
block 8
340
0
102
{BLKREFS
331
65
102
}
 70
     0
280
     1
281
     0
  0
BLOCK_RECORD
  5
69
330
1
100
AcDbSymbolTableRecord
100
AcDbBlockTableRecord
  2
block 9
340
0
102
{BLKREFS
331
6A
102
}
 70
     0
280
     1
281
     0
  0
BLOCK_RECORD
  5
6E
330
1
100
AcDbSymbolTableRecord
100
AcDbBlockTableRecord
  2
block 10
340
0
102
{BLKREFS
331
6F
102
}
 70
     0
280
     1
281
     0
  0
BLOCK_RECORD
  5
73
330
1
100
AcDbSymbolTableRecord
100
AcDbBlockTableRecord
  2
block 11
340
0
102
{BLKREFS
331
74
102
}
 70
     0
280
     1
281
     0
  0
BLOCK_RECORD
  5
78
330
1
100
AcDbSymbolTableRecord
100
AcDbBlockTableRecord
  2
block 12
340
0
102
{BLKREFS
331
79
102
}
 70
     0
280
     1
281
     0
  0
ENDTAB
  0
ENDSEC
  0
SECTION
  2
BLOCKS
  0
BLOCK
  5
20
330
1F
100
AcDbEntity
  8
0
100
AcDbBlockBegin
  2
*Model_Space
 70
     0
 10
0.0
 20
0.0
 30
0.0
  3
*Model_Space
  1

  0
ENDBLK
  5
21
330
1F
100
AcDbEntity
  8
0
100
AcDbBlockEnd
  0
BLOCK
  5
1C
330
1B
100
AcDbEntity
 67
     1
  8
0
100
AcDbBlockBegin
  2
*Paper_Space
 70
     0
 10
0.0
 20
0.0
 30
0.0
  3
*Paper_Space
  1

  0
ENDBLK
  5
1D
330
1B
100
AcDbEntity
 67
     1
  8
0
100
AcDbBlockEnd
  0
BLOCK
  5
24
330
23
100
AcDbEntity
  8
0
100
AcDbBlockBegin
  2
*Paper_Space0
 70
     0
 10
0.0
 20
0.0
 30
0.0
  3
*Paper_Space0
  1

  0
ENDBLK
  5
25
330
23
100
AcDbEntity
  8
0
100
AcDbBlockEnd
  0
BLOCK
  5
42
330
40
100
AcDbEntity
  8
0
100
AcDbBlockBegin
  2
block 2
 70
     0
 10
0.0
 20
0.0
 30
0.0
  3
block 2
  1

  0
SPLINE
  5
44
330
40
100
AcDbEntity
  8
0
 62
     7
420
 16777215
370
    25
100
AcDbSpline
210
0.0
220
0.0
230
1.0
 70
    11
 71
     3
 72
    29
 73
    25
 74
     0
 42
0.0000000001
 43
0.0000000001
 12
1.0
 22
0.0
 32
0.0
 13
1.0
 23
0.0
 33
0.0
 40
0.0
 40
0.0
 40
0.0
 40
0.0
 40
1.0
 40
1.0
 40
1.0
 40
2.0
 40
2.0
 40
2.0
 40
3.0
 40
3.0
 40
3.0
 40
4.0
 40
4.0
 40
4.0
 40
5.0
 40
5.0
 40
5.0
 40
6.0
 40
6.0
 40
6.0
 40
7.0
 40
7.0
 40
7.0
 40
8.0
 40
8.0
 40
8.0
 40
8.0
 10
1123.988438053323
 20
480.2155948113007
 30
0.0
 10
1123.988438053323
 20
477.4541710628367
 30
0.0
 10
1121.749861803037
 20
475.2155948125508
 30
0.0
 10
1118.988438054572
 20
475.2155948125508
 30
0.0
 10
1118.988438054572
 20
475.2155948125508
 30
0.0
 10
801.0115614654275
 20
475.2155948125508
 30
0.0
 10
801.0115614654275
 20
475.2155948125508
 30
0.0
 10
798.2501377169634
 20
475.2155948125508
 30
0.0
 10
796.0115614666774
 20
477.4541710628367
 30
0.0
 10
796.0115614666774
 20
480.2155948113007
 30
0.0
 10
796.0115614666774
 20
480.2155948113007
 30
0.0
 10
796.0115614666774
 20
599.7844049186992
 30
0.0
 10
796.0115614666774
 20
599.7844049186992
 30
0.0
 10
796.0115614666774
 20
602.5458286671633
 30
0.0
 10
798.2501377169634
 20
604.7844049174493
 30
0.0
 10
801.0115614654275
 20
604.7844049174493
 30
0.0
 10
801.0115614654275
 20
604.7844049174493
 30
0.0
 10
1118.988438054572
 20
604.7844049174493
 30
0.0
 10
1118.988438054572
 20
604.7844049174493
 30
0.0
 10
1121.749861803037
 20
604.7844049174493
 30
0.0
 10
1123.988438053323
 20
602.5458286671633
 30
0.0
 10
1123.988438053323
 20
599.7844049186992
 30
0.0
 10
1123.988438053323
 20
599.7844049186992
 30
0.0
 10
1123.988438053323
 20
480.2155948113007
 30
0.0
 10
1123.988438053323
 20
480.2155948113007
 30
0.0
  0
ENDBLK
  5
43
330
40
100
AcDbEntity
  8
0
100
AcDbBlockEnd
  0
BLOCK
  5
47
330
45
100
AcDbEntity
  8
0
100
AcDbBlockBegin
  2
block 3
 70
     0
 10
0.0
 20
0.0
 30
0.0
  3
block 3
  1

  0
POLYLINE
  5
49
330
45
100
AcDbEntity
  8
0
 62
     7
420
 16777215
370
    25
100
AcDb2dPolyline
 66
     1
 10
0.0
 20
0.0
 30
0.0
  0
VERTEX
  5
4A
330
49
100
AcDbEntity
  8
0
 62
     7
420
 16777215
370
    25
100
AcDbVertex
100
AcDb2dVertex
 10
805.5365614642958
 20
486.7405948096691
 30
0.0
  0
VERTEX
  5
4B
330
49
100
AcDbEntity
  8
0
 62
     7
420
 16777215
370
    25
100
AcDbVertex
100
AcDb2dVertex
 10
1114.463438055704
 20
486.7405948096691
 30
0.0
  0
VERTEX
  5
4C
330
49
100
AcDbEntity
  8
0
 62
     7
420
 16777215
370
    25
100
AcDbVertex
100
AcDb2dVertex
 10
1114.463438055704
 20
593.2594049203309
 30
0.0
  0
VERTEX
  5
4D
330
49
100
AcDbEntity
  8
0
 62
     7
420
 16777215
370
    25
100
AcDbVertex
100
AcDb2dVertex
 10
805.5365614642958
 20
593.2594049203309
 30
0.0
  0
VERTEX
  5
4E
330
49
100
AcDbEntity
  8
0
 62
     7
420
 16777215
370
    25
100
AcDbVertex
100
AcDb2dVertex
 10
805.5365614642958
 20
486.7405948096691
 30
0.0
  0
SEQEND
  5
4F
330
49
100
AcDbEntity
  8
0
 62
     7
420
 16777215
370
    25
  0
ENDBLK
  5
48
330
45
100
AcDbEntity
  8
0
100
AcDbBlockEnd
  0
BLOCK
  5
52
330
50
100
AcDbEntity
  8
0
100
AcDbBlockBegin
  2
block 4
 70
     0
 10
0.0
 20
0.0
 30
0.0
  3
block 4
  1

  0
SPLINE
  5
54
330
50
100
AcDbEntity
  8
0
 62
     7
420
 16777215
370
    25
100
AcDbSpline
210
0.0
220
0.0
230
1.0
 70
    11
 71
     3
 72
    20
 73
    16
 74
     0
 42
0.0000000001
 43
0.0000000001
 12
1.0
 22
0.0
 32
0.0
 13
1.0
 23
0.0
 33
0.0
 40
0.0
 40
0.0
 40
0.0
 40
0.0
 40
1.0
 40
1.0
 40
1.0
 40
2.0
 40
2.0
 40
2.0
 40
3.0
 40
3.0
 40
3.0
 40
4.0
 40
4.0
 40
4.0
 40
5.0
 40
5.0
 40
5.0
 40
5.0
 10
905.4557806064761
 20
483.7405948104191
 30
0.0
 10
905.4557806064761
 20
484.5966361724432
 30
0.0
 10
906.1497392440646
 20
485.2905948100327
 30
0.0
 10
907.0057806060887
 20
485.2905948100327
 30
0.0
 10
907.8618219681119
 20
485.2905948100327
 30
0.0
 10
908.5557806057005
 20
484.5966361724432
 30
0.0
 10
908.5557806057014
 20
483.7405948104191
 30
0.0
 10
908.5557806057005
 20
482.884553448395
 30
0.0
 10
907.8618219681119
 20
482.1905948108073
 30
0.0
 10
907.0057806060887
 20
482.1905948108073
 30
0.0
 10
906.1497392440646
 20
482.1905948108073
 30
0.0
 10
905.4557806064761
 20
482.884553448395
 30
0.0
 10
905.4557806064761
 20
483.7405948104191
 30
0.0
 10
905.4557806064761
 20
483.7405948104191
 30
0.0
 10
905.4557806064761
 20
483.7405948104191
 30
0.0
 10
905.4557806064761
 20
483.7405948104191
 30
0.0
  0
ENDBLK
  5
53
330
50
100
AcDbEntity
  8
0
100
AcDbBlockEnd
  0
BLOCK
  5
57
330
55
100
AcDbEntity
  8
0
100
AcDbBlockBegin
  2
block 5
 70
     0
 10
0.0
 20
0.0
 30
0.0
  3
block 5
  1

  0
SPLINE
  5
59
330
55
100
AcDbEntity
  8
0
 62
     7
420
 16777215
370
    25
100
AcDbSpline
210
0.0
220
0.0
230
1.0
 70
    11
 71
     3
 72
    20
 73
    16
 74
     0
 42
0.0000000001
 43
0.0000000001
 12
1.0
 22
0.0
 32
0.0
 13
1.0
 23
0.0
 33
0.0
 40
0.0
 40
0.0
 40
0.0
 40
0.0
 40
1.0
 40
1.0
 40
1.0
 40
2.0
 40
2.0
 40
2.0
 40
3.0
 40
3.0
 40
3.0
 40
4.0
 40
4.0
 40
4.0
 40
5.0
 40
5.0
 40
5.0
 40
5.0
 10
1011.444218914299
 20
596.2594049195809
 30
0.0
 10
1011.444218914299
 20
597.1154462816049
 30
0.0
 10
1012.138177551887
 20
597.8094049191935
 30
0.0
 10
1012.994218913911
 20
597.8094049191935
 30
0.0
 10
1013.850260275935
 20
597.8094049191935
 30
0.0
 10
1014.544218913523
 20
597.1154462816049
 30
0.0
 10
1014.544218913523
 20
596.2594049195809
 30
0.0
 10
1014.544218913523
 20
595.4033635575568
 30
0.0
 10
1013.850260275935
 20
594.7094049199682
 30
0.0
 10
1012.994218913911
 20
594.7094049199682
 30
0.0
 10
1012.138177551887
 20
594.7094049199682
 30
0.0
 10
1011.444218914299
 20
595.4033635575568
 30
0.0
 10
1011.444218914299
 20
596.2594049195809
 30
0.0
 10
1011.444218914299
 20
596.2594049195809
 30
0.0
 10
1011.444218914299
 20
596.2594049195809
 30
0.0
 10
1011.444218914299
 20
596.2594049195809
 30
0.0
  0
ENDBLK
  5
58
330
55
100
AcDbEntity
  8
0
100
AcDbBlockEnd
  0
BLOCK
  5
5C
330
5A
100
AcDbEntity
  8
0
100
AcDbBlockBegin
  2
block 6
 70
     0
 10
0.0
 20
0.0
 30
0.0
  3
block 6
  1

  0
SPLINE
  5
5E
330
5A
100
AcDbEntity
  8
0
 62
     7
420
 16777215
370
    25
100
AcDbSpline
210
0.0
220
0.0
230
1.0
 70
    11
 71
     3
 72
    20
 73
    16
 74
     0
 42
0.0000000001
 43
0.0000000001
 12
1.0
 22
0.0
 32
0.0
 13
1.0
 23
0.0
 33
0.0
 40
0.0
 40
0.0
 40
0.0
 40
0.0
 40
1.0
 40
1.0
 40
1.0
 40
2.0
 40
2.0
 40
2.0
 40
3.0
 40
3.0
 40
3.0
 40
4.0
 40
4.0
 40
4.0
 40
5.0
 40
5.0
 40
5.0
 40
5.0
 10
905.4557806064761
 20
596.2594049195809
 30
0.0
 10
905.4557806064761
 20
597.1154462816049
 30
0.0
 10
906.1497392440646
 20
597.8094049191935
 30
0.0
 10
907.0057806060887
 20
597.8094049191935
 30
0.0
 10
907.8618219681119
 20
597.8094049191935
 30
0.0
 10
908.5557806057005
 20
597.1154462816049
 30
0.0
 10
908.5557806057014
 20
596.2594049195809
 30
0.0
 10
908.5557806057005
 20
595.4033635575568
 30
0.0
 10
907.8618219681119
 20
594.7094049199682
 30
0.0
 10
907.0057806060887
 20
594.7094049199682
 30
0.0
 10
906.1497392440646
 20
594.7094049199682
 30
0.0
 10
905.4557806064761
 20
595.4033635575568
 30
0.0
 10
905.4557806064761
 20
596.2594049195809
 30
0.0
 10
905.4557806064761
 20
596.2594049195809
 30
0.0
 10
905.4557806064761
 20
596.2594049195809
 30
0.0
 10
905.4557806064761
 20
596.2594049195809
 30
0.0
  0
ENDBLK
  5
5D
330
5A
100
AcDbEntity
  8
0
100
AcDbBlockEnd
  0
BLOCK
  5
61
330
5F
100
AcDbEntity
  8
0
100
AcDbBlockBegin
  2
block 7
 70
     0
 10
0.0
 20
0.0
 30
0.0
  3
block 7
  1

  0
SPLINE
  5
63
330
5F
100
AcDbEntity
  8
0
 62
     7
420
 16777215
370
    25
100
AcDbSpline
210
0.0
220
0.0
230
1.0
 70
    11
 71
     3
 72
    20
 73
    16
 74
     0
 42
0.0000000001
 43
0.0000000001
 12
1.0
 22
0.0
 32
0.0
 13
1.0
 23
0.0
 33
0.0
 40
0.0
 40
0.0
 40
0.0
 40
0.0
 40
1.0
 40
1.0
 40
1.0
 40
2.0
 40
2.0
 40
2.0
 40
3.0
 40
3.0
 40
3.0
 40
4.0
 40
4.0
 40
4.0
 40
5.0
 40
5.0
 40
5.0
 40
5.0
 10
1011.444218914299
 20
483.7405948104191
 30
0.0
 10
1011.444218914299
 20
484.5966361724432
 30
0.0
 10
1012.138177551887
 20
485.2905948100327
 30
0.0
 10
1012.994218913911
 20
485.2905948100327
 30
0.0
 10
1013.850260275935
 20
485.2905948100327
 30
0.0
 10
1014.544218913523
 20
484.5966361724432
 30
0.0
 10
1014.544218913523
 20
483.7405948104191
 30
0.0
 10
1014.544218913523
 20
482.884553448395
 30
0.0
 10
1013.850260275935
 20
482.1905948108073
 30
0.0
 10
1012.994218913911
 20
482.1905948108073
 30
0.0
 10
1012.138177551887
 20
482.1905948108073
 30
0.0
 10
1011.444218914299
 20
482.884553448395
 30
0.0
 10
1011.444218914299
 20
483.7405948104191
 30
0.0
 10
1011.444218914299
 20
483.7405948104191
 30
0.0
 10
1011.444218914299
 20
483.7405948104191
 30
0.0
 10
1011.444218914299
 20
483.7405948104191
 30
0.0
  0
ENDBLK
  5
62
330
5F
100
AcDbEntity
  8
0
100
AcDbBlockEnd
  0
BLOCK
  5
66
330
64
100
AcDbEntity
  8
0
100
AcDbBlockBegin
  2
block 8
 70
     0
 10
0.0
 20
0.0
 30
0.0
  3
block 8
  1

  0
SPLINE
  5
68
330
64
100
AcDbEntity
  8
0
 62
     7
420
 16777215
370
    25
100
AcDbSpline
210
0.0
220
0.0
230
1.0
 70
    11
 71
     3
 72
    20
 73
    16
 74
     0
 42
0.0000000001
 43
0.0000000001
 12
1.0
 22
0.0
 32
0.0
 13
1.0
 23
0.0
 33
0.0
 40
0.0
 40
0.0
 40
0.0
 40
0.0
 40
1.0
 40
1.0
 40
1.0
 40
2.0
 40
2.0
 40
2.0
 40
3.0
 40
3.0
 40
3.0
 40
4.0
 40
4.0
 40
4.0
 40
5.0
 40
5.0
 40
5.0
 40
5.0
 10
803.9865614646832
 20
483.7405948104191
 30
0.0
 10
803.9865614646832
 20
484.5966361724432
 30
0.0
 10
804.6805201022718
 20
485.2905948100327
 30
0.0
 10
805.5365614642958
 20
485.2905948100327
 30
0.0
 10
806.39260282632
 20
485.2905948100327
 30
0.0
 10
807.0865614639085
 20
484.5966361724432
 30
0.0
 10
807.0865614639085
 20
483.7405948104191
 30
0.0
 10
807.0865614639085
 20
482.884553448395
 30
0.0
 10
806.39260282632
 20
482.1905948108073
 30
0.0
 10
805.5365614642958
 20
482.1905948108073
 30
0.0
 10
804.6805201022718
 20
482.1905948108073
 30
0.0
 10
803.9865614646832
 20
482.884553448395
 30
0.0
 10
803.9865614646832
 20
483.7405948104191
 30
0.0
 10
803.9865614646832
 20
483.7405948104191
 30
0.0
 10
803.9865614646832
 20
483.7405948104191
 30
0.0
 10
803.9865614646832
 20
483.7405948104191
 30
0.0
  0
ENDBLK
  5
67
330
64
100
AcDbEntity
  8
0
100
AcDbBlockEnd
  0
BLOCK
  5
6B
330
69
100
AcDbEntity
  8
0
100
AcDbBlockBegin
  2
block 9
 70
     0
 10
0.0
 20
0.0
 30
0.0
  3
block 9
  1

  0
SPLINE
  5
6D
330
69
100
AcDbEntity
  8
0
 62
     7
420
 16777215
370
    25
100
AcDbSpline
210
0.0
220
0.0
230
1.0
 70
    11
 71
     3
 72
    20
 73
    16
 74
     0
 42
0.0000000001
 43
0.0000000001
 12
1.0
 22
0.0
 32
0.0
 13
1.0
 23
0.0
 33
0.0
 40
0.0
 40
0.0
 40
0.0
 40
0.0
 40
1.0
 40
1.0
 40
1.0
 40
2.0
 40
2.0
 40
2.0
 40
3.0
 40
3.0
 40
3.0
 40
4.0
 40
4.0
 40
4.0
 40
5.0
 40
5.0
 40
5.0
 40
5.0
 10
1112.913438056091
 20
596.2594049195809
 30
0.0
 10
1112.913438056091
 20
597.1154462816049
 30
0.0
 10
1113.60739669368
 20
597.8094049191935
 30
0.0
 10
1114.463438055704
 20
597.8094049191935
 30
0.0
 10
1115.319479417728
 20
597.8094049191935
 30
0.0
 10
1116.013438055316
 20
597.1154462816049
 30
0.0
 10
1116.013438055316
 20
596.2594049195809
 30
0.0
 10
1116.013438055316
 20
595.4033635575568
 30
0.0
 10
1115.319479417728
 20
594.7094049199682
 30
0.0
 10
1114.463438055704
 20
594.7094049199682
 30
0.0
 10
1113.60739669368
 20
594.7094049199682
 30
0.0
 10
1112.913438056091
 20
595.4033635575568
 30
0.0
 10
1112.913438056091
 20
596.2594049195809
 30
0.0
 10
1112.913438056091
 20
596.2594049195809
 30
0.0
 10
1112.913438056091
 20
596.2594049195809
 30
0.0
 10
1112.913438056091
 20
596.2594049195809
 30
0.0
  0
ENDBLK
  5
6C
330
69
100
AcDbEntity
  8
0
100
AcDbBlockEnd
  0
BLOCK
  5
70
330
6E
100
AcDbEntity
  8
0
100
AcDbBlockBegin
  2
block 10
 70
     0
 10
0.0
 20
0.0
 30
0.0
  3
block 10
  1

  0
SPLINE
  5
72
330
6E
100
AcDbEntity
  8
0
 62
     7
420
 16777215
370
    25
100
AcDbSpline
210
0.0
220
0.0
230
1.0
 70
    11
 71
     3
 72
    20
 73
    16
 74
     0
 42
0.0000000001
 43
0.0000000001
 12
1.0
 22
0.0
 32
0.0
 13
1.0
 23
0.0
 33
0.0
 40
0.0
 40
0.0
 40
0.0
 40
0.0
 40
1.0
 40
1.0
 40
1.0
 40
2.0
 40
2.0
 40
2.0
 40
3.0
 40
3.0
 40
3.0
 40
4.0
 40
4.0
 40
4.0
 40
5.0
 40
5.0
 40
5.0
 40
5.0
 10
803.9865614646832
 20
596.2594049195809
 30
0.0
 10
803.9865614646832
 20
597.1154462816049
 30
0.0
 10
804.6805201022718
 20
597.8094049191935
 30
0.0
 10
805.5365614642958
 20
597.8094049191935
 30
0.0
 10
806.39260282632
 20
597.8094049191935
 30
0.0
 10
807.0865614639085
 20
597.1154462816049
 30
0.0
 10
807.0865614639085
 20
596.2594049195809
 30
0.0
 10
807.0865614639085
 20
595.4033635575568
 30
0.0
 10
806.39260282632
 20
594.7094049199682
 30
0.0
 10
805.5365614642958
 20
594.7094049199682
 30
0.0
 10
804.6805201022718
 20
594.7094049199682
 30
0.0
 10
803.9865614646832
 20
595.4033635575568
 30
0.0
 10
803.9865614646832
 20
596.2594049195809
 30
0.0
 10
803.9865614646832
 20
596.2594049195809
 30
0.0
 10
803.9865614646832
 20
596.2594049195809
 30
0.0
 10
803.9865614646832
 20
596.2594049195809
 30
0.0
  0
ENDBLK
  5
71
330
6E
100
AcDbEntity
  8
0
100
AcDbBlockEnd
  0
BLOCK
  5
75
330
73
100
AcDbEntity
  8
0
100
AcDbBlockBegin
  2
block 11
 70
     0
 10
0.0
 20
0.0
 30
0.0
  3
block 11
  1

  0
SPLINE
  5
77
330
73
100
AcDbEntity
  8
0
 62
     7
420
 16777215
370
    25
100
AcDbSpline
210
0.0
220
0.0
230
1.0
 70
    11
 71
     3
 72
    20
 73
    16
 74
     0
 42
0.0000000001
 43
0.0000000001
 12
1.0
 22
0.0
 32
0.0
 13
1.0
 23
0.0
 33
0.0
 40
0.0
 40
0.0
 40
0.0
 40
0.0
 40
1.0
 40
1.0
 40
1.0
 40
2.0
 40
2.0
 40
2.0
 40
3.0
 40
3.0
 40
3.0
 40
4.0
 40
4.0
 40
4.0
 40
5.0
 40
5.0
 40
5.0
 40
5.0
 10
1112.913438056091
 20
483.7405948104191
 30
0.0
 10
1112.913438056091
 20
484.5966361724432
 30
0.0
 10
1113.60739669368
 20
485.2905948100327
 30
0.0
 10
1114.463438055704
 20
485.2905948100327
 30
0.0
 10
1115.319479417728
 20
485.2905948100327
 30
0.0
 10
1116.013438055316
 20
484.5966361724432
 30
0.0
 10
1116.013438055316
 20
483.7405948104191
 30
0.0
 10
1116.013438055316
 20
482.884553448395
 30
0.0
 10
1115.319479417728
 20
482.1905948108073
 30
0.0
 10
1114.463438055704
 20
482.1905948108073
 30
0.0
 10
1113.60739669368
 20
482.1905948108073
 30
0.0
 10
1112.913438056091
 20
482.884553448395
 30
0.0
 10
1112.913438056091
 20
483.7405948104191
 30
0.0
 10
1112.913438056091
 20
483.7405948104191
 30
0.0
 10
1112.913438056091
 20
483.7405948104191
 30
0.0
 10
1112.913438056091
 20
483.7405948104191
 30
0.0
  0
ENDBLK
  5
76
330
73
100
AcDbEntity
  8
0
100
AcDbBlockEnd
  0
BLOCK
  5
7A
330
78
100
AcDbEntity
  8
0
100
AcDbBlockBegin
  2
block 12
 70
     0
 10
0.0
 20
0.0
 30
0.0
  3
block 12
  1

  0
POLYLINE
  5
7C
330
78
100
AcDbEntity
  8
0
 62
   240
420
 15539236
370
    35
100
AcDb2dPolyline
 66
     1
 10
0.0
 20
0.0
 30
0.0
  0
VERTEX
  5
7D
330
7C
100
AcDbEntity
  8
0
 62
   240
420
 15539236
370
    35
100
AcDbVertex
100
AcDb2dVertex
 10
807.9653318292586
 20
610.8945310972764
 30
0.0
  0
VERTEX
  5
7E
330
7C
100
AcDbEntity
  8
0
 62
   240
420
 15539236
370
    35
100
AcDbVertex
100
AcDb2dVertex
 10
807.9653318292586
 20
619.4843748451289
 30
0.0
  0
VERTEX
  5
7F
330
7C
100
AcDbEntity
  8
0
 62
   240
420
 15539236
370
    35
100
AcDbVertex
100
AcDb2dVertex
 10
809.1020505789745
 20
619.4843748451289
 30
0.0
  0
VERTEX
  5
80
330
7C
100
AcDbEntity
  8
0
 62
   240
420
 15539236
370
    35
100
AcDbVertex
100
AcDb2dVertex
 10
809.1020505789745
 20
611.908202972023
 30
0.0
  0
VERTEX
  5
81
330
7C
100
AcDbEntity
  8
0
 62
   240
420
 15539236
370
    35
100
AcDbVertex
100
AcDb2dVertex
 10
813.3325193279169
 20
611.908202972023
 30
0.0
  0
VERTEX
  5
82
330
7C
100
AcDbEntity
  8
0
 62
   240
420
 15539236
370
    35
100
AcDbVertex
100
AcDb2dVertex
 10
813.3325193279169
 20
610.8945310972764
 30
0.0
  0
VERTEX
  5
83
330
7C
100
AcDbEntity
  8
0
 62
   240
420
 15539236
370
    35
100
AcDbVertex
100
AcDb2dVertex
 10
807.9653318292586
 20
610.8945310972764
 30
0.0
  0
SEQEND
  5
84
330
7C
100
AcDbEntity
  8
0
 62
   240
420
 15539236
370
    35
  0
HATCH
  5
85
330
78
100
AcDbEntity
  8
0
 62
   240
420
 15539236
100
AcDbHatch
 10
0.0
 20
0.0
 30
0.0
210
0.0
220
0.0
230
1.0
  2
SOLID
 70
     1
 71
     0
 91
        1
 92
        1
 93
        6
 72
     1
 10
807.9653318292586
 20
610.8945310972764
 11
807.9653318292586
 21
619.4843748451289
 72
     1
 10
807.9653318292586
 20
619.4843748451289
 11
809.1020505789745
 21
619.4843748451289
 72
     1
 10
809.1020505789745
 20
619.4843748451289
 11
809.1020505789745
 21
611.908202972023
 72
     1
 10
809.1020505789745
 20
611.908202972023
 11
813.3325193279169
 21
611.908202972023
 72
     1
 10
813.3325193279169
 20
611.908202972023
 11
813.3325193279169
 21
610.8945310972764
 72
     1
 10
813.3325193279169
 20
610.8945310972764
 11
807.9653318292586
 21
610.8945310972764
 97
        0
 75
     2
 76
     1
 98
        0
  0
POLYLINE
  5
86
330
78
100
AcDbEntity
  8
0
 62
   240
420
 15539236
370
    35
100
AcDb2dPolyline
 66
     1
 10
0.0
 20
0.0
 30
0.0
  0
VERTEX
  5
87
330
86
100
AcDbEntity
  8
0
 62
   240
420
 15539236
370
    35
100
AcDbVertex
100
AcDb2dVertex
 10
817.6391599518402
 20
610.8945310972764
 30
0.0
  0
VERTEX
  5
88
330
86
100
AcDbEntity
  8
0
 62
   240
420
 15539236
370
    35
100
AcDbVertex
100
AcDb2dVertex
 10
817.6391599518402
 20
612.9511717217622
 30
0.0
  0
VERTEX
  5
89
330
86
100
AcDbEntity
  8
0
 62
   240
420
 15539236
370
    35
100
AcDbVertex
100
AcDb2dVertex
 10
813.9125974527718
 20
612.9511717217622
 30
0.0
  0
VERTEX
  5
8A
330
86
100
AcDbEntity
  8
0
 62
   240
420
 15539236
370
    35
100
AcDbVertex
100
AcDb2dVertex
 10
813.9125974527718
 20
613.9179685965205
 30
0.0
  0
VERTEX
  5
8B
330
86
100
AcDbEntity
  8
0
 62
   240
420
 15539236
370
    35
100
AcDbVertex
100
AcDb2dVertex
 10
817.8325193267918
 20
619.4843748451289
 30
0.0
  0
VERTEX
  5
8C
330
86
100
AcDbEntity
  8
0
 62
   240
420
 15539236
370
    35
100
AcDbVertex
100
AcDb2dVertex
 10
818.6938474515765
 20
619.4843748451289
 30
0.0
  0
VERTEX
  5
8D
330
86
100
AcDbEntity
  8
0
 62
   240
420
 15539236
370
    35
100
AcDbVertex
100
AcDb2dVertex
 10
818.6938474515765
 20
613.9179685965205
 30
0.0
  0
VERTEX
  5
8E
330
86
100
AcDbEntity
  8
0
 62
   240
420
 15539236
370
    35
100
AcDbVertex
100
AcDb2dVertex
 10
819.8540037012865
 20
613.9179685965205
 30
0.0
  0
VERTEX
  5
8F
330
86
100
AcDbEntity
  8
0
 62
   240
420
 15539236
370
    35
100
AcDbVertex
100
AcDb2dVertex
 10
819.8540037012865
 20
612.9511717217622
 30
0.0
  0
VERTEX
  5
90
330
86
100
AcDbEntity
  8
0
 62
   240
420
 15539236
370
    35
100
AcDbVertex
100
AcDb2dVertex
 10
818.6938474515765
 20
612.9511717217622
 30
0.0
  0
VERTEX
  5
91
330
86
100
AcDbEntity
  8
0
 62
   240
420
 15539236
370
    35
100
AcDbVertex
100
AcDb2dVertex
 10
818.6938474515765
 20
610.8945310972764
 30
0.0
  0
VERTEX
  5
92
330
86
100
AcDbEntity
  8
0
 62
   240
420
 15539236
370
    35
100
AcDbVertex
100
AcDb2dVertex
 10
817.6391599518402
 20
610.8945310972764
 30
0.0
  0
SEQEND
  5
93
330
86
100
AcDbEntity
  8
0
 62
   240
420
 15539236
370
    35
  0
POLYLINE
  5
94
330
78
100
AcDbEntity
  8
0
 62
   240
420
 15539236
370
    35
100
AcDb2dPolyline
 66
     1
 10
0.0
 20
0.0
 30
0.0
  0
VERTEX
  5
95
330
94
100
AcDbEntity
  8
0
 62
   240
420
 15539236
370
    35
100
AcDbVertex
100
AcDb2dVertex
 10
817.6391599518402
 20
613.9179685965205
 30
0.0
  0
VERTEX
  5
96
330
94
100
AcDbEntity
  8
0
 62
   240
420
 15539236
370
    35
100
AcDbVertex
100
AcDb2dVertex
 10
817.6391599518402
 20
617.7910154705522
 30
0.0
  0
VERTEX
  5
97
330
94
100
AcDbEntity
  8
0
 62
   240
420
 15539236
370
    35
100
AcDbVertex
100
AcDb2dVertex
 10
814.9497068275125
 20
613.9179685965205
 30
0.0
  0
VERTEX
  5
98
330
94
100
AcDbEntity
  8
0
 62
   240
420
 15539236
370
    35
100
AcDbVertex
100
AcDb2dVertex
 10
817.6391599518402
 20
613.9179685965205
 30
0.0
  0
SEQEND
  5
99
330
94
100
AcDbEntity
  8
0
 62
   240
420
 15539236
370
    35
  0
HATCH
  5
9A
330
78
100
AcDbEntity
  8
0
 62
   240
420
 15539236
100
AcDbHatch
 10
0.0
 20
0.0
 30
0.0
210
0.0
220
0.0
230
1.0
  2
SOLID
 70
     1
 71
     0
 91
        2
 92
        1
 93
       11
 72
     1
 10
817.6391599518402
 20
610.8945310972764
 11
817.6391599518402
 21
612.9511717217622
 72
     1
 10
817.6391599518402
 20
612.9511717217622
 11
813.9125974527718
 21
612.9511717217622
 72
     1
 10
813.9125974527718
 20
612.9511717217622
 11
813.9125974527718
 21
613.9179685965205
 72
     1
 10
813.9125974527718
 20
613.9179685965205
 11
817.8325193267918
 21
619.4843748451289
 72
     1
 10
817.8325193267918
 20
619.4843748451289
 11
818.6938474515765
 21
619.4843748451289
 72
     1
 10
818.6938474515765
 20
619.4843748451289
 11
818.6938474515765
 21
613.9179685965205
 72
     1
 10
818.6938474515765
 20
613.9179685965205
 11
819.8540037012865
 21
613.9179685965205
 72
     1
 10
819.8540037012865
 20
613.9179685965205
 11
819.8540037012865
 21
612.9511717217622
 72
     1
 10
819.8540037012865
 20
612.9511717217622
 11
818.6938474515765
 21
612.9511717217622
 72
     1
 10
818.6938474515765
 20
612.9511717217622
 11
818.6938474515765
 21
610.8945310972764
 72
     1
 10
818.6938474515765
 20
610.8945310972764
 11
817.6391599518402
 21
610.8945310972764
 97
        0
 92
        1
 93
        3
 72
     1
 10
817.6391599518402
 20
613.9179685965205
 11
817.6391599518402
 21
617.7910154705522
 72
     1
 10
817.6391599518402
 20
617.7910154705522
 11
814.9497068275125
 21
613.9179685965205
 72
     1
 10
814.9497068275125
 20
613.9179685965205
 11
817.6391599518402
 21
613.9179685965205
 97
        0
 75
     2
 76
     1
 98
        0
  0
SPLINE
  5
9B
330
78
100
AcDbEntity
  8
0
 62
   240
420
 15539236
370
    35
100
AcDbSpline
210
0.0
220
0.0
230
1.0
 70
    11
 71
     3
 72
   110
 73
   106
 74
     0
 42
0.0000000001
 43
0.0000000001
 12
1.0
 22
0.0
 32
0.0
 13
1.0
 23
0.0
 33
0.0
 40
0.0
 40
0.0
 40
0.0
 40
0.0
 40
1.0
 40
1.0
 40
1.0
 40
2.0
 40
2.0
 40
2.0
 40
3.0
 40
3.0
 40
3.0
 40
4.0
 40
4.0
 40
4.0
 40
5.0
 40
5.0
 40
5.0
 40
6.0
 40
6.0
 40
6.0
 40
7.0
 40
7.0
 40
7.0
 40
8.0
 40
8.0
 40
8.0
 40
9.0
 40
9.0
 40
9.0
 40
10.0
 40
10.0
 40
10.0
 40
11.0
 40
11.0
 40
11.0
 40
12.0
 40
12.0
 40
12.0
 40
13.0
 40
13.0
 40
13.0
 40
14.0
 40
14.0
 40
14.0
 40
15.0
 40
15.0
 40
15.0
 40
16.0
 40
16.0
 40
16.0
 40
17.0
 40
17.0
 40
17.0
 40
18.0
 40
18.0
 40
18.0
 40
19.0
 40
19.0
 40
19.0
 40
20.0
 40
20.0
 40
20.0
 40
21.0
 40
21.0
 40
21.0
 40
22.0
 40
22.0
 40
22.0
 40
23.0
 40
23.0
 40
23.0
 40
24.0
 40
24.0
 40
24.0
 40
25.0
 40
25.0
 40
25.0
 40
26.0
 40
26.0
 40
26.0
 40
27.0
 40
27.0
 40
27.0
 40
28.0
 40
28.0
 40
28.0
 40
29.0
 40
29.0
 40
29.0
 40
30.0
 40
30.0
 40
30.0
 40
31.0
 40
31.0
 40
31.0
 40
32.0
 40
32.0
 40
32.0
 40
33.0
 40
33.0
 40
33.0
 40
34.0
 40
34.0
 40
34.0
 40
35.0
 40
35.0
 40
35.0
 40
35.0
 10
824.3071287001732
 20
613.6542967215864
 30
0.0
 10
824.3071287001732
 20
613.6542967215864
 30
0.0
 10
825.3793943249051
 20
613.748046721563
 30
0.0
 10
825.3793943249051
 20
613.748046721563
 30
0.0
 10
825.4301755748925
 20
613.3183592216704
 30
0.0
 10
825.5483396373629
 20
612.9658201592586
 30
0.0
 10
825.7338865123165
 20
612.6904295343273
 30
0.0
 10
825.9194333872701
 20
612.4150389093962
 30
0.0
 10
826.2075193246981
 20
612.1923826594519
 30
0.0
 10
826.5981443246004
 20
612.0224607844943
 30
0.0
 10
826.9887693245028
 20
611.8525389095369
 30
0.0
 10
827.4282224493929
 20
611.7675779720581
 30
0.0
 10
827.9165036992708
 20
611.7675779720581
 30
0.0
 10
828.3500974491625
 20
611.7675779720581
 30
0.0
 10
828.7329099490668
 20
611.832031097042
 30
0.0
 10
829.0649411989838
 20
611.9609373470098
 30
0.0
 10
829.3969724489008
 20
612.0898435969775
 30
0.0
 10
829.6440427613389
 20
612.2666014094333
 30
0.0
 10
829.8061521362985
 20
612.4912107843771
 30
0.0
 10
829.9682615112579
 20
612.7158201593211
 30
0.0
 10
830.0493161987376
 20
612.9609373467598
 30
0.0
 10
830.0493161987376
 20
613.2265623466933
 30
0.0
 10
830.0493161987376
 20
613.496093596626
 30
0.0
 10
829.9711911987572
 20
613.7314451590671
 30
0.0
 10
829.8149411987962
 20
613.9326170340169
 30
0.0
 10
829.6586911988353
 20
614.1337889089665
 30
0.0
 10
829.4008786988998
 20
614.3027342214243
 30
0.0
 10
829.0415036989896
 20
614.4394529713901
 30
0.0
 10
828.8110349490472
 20
614.5292967213677
 30
0.0
 10
828.3012693241747
 20
614.6689451588328
 30
0.0
 10
827.5122068243719
 20
614.8583982837854
 30
0.0
 10
826.7231443245691
 20
615.047851408738
 30
0.0
 10
826.1704099497074
 20
615.2265623461933
 30
0.0
 10
825.8540036997865
 20
615.3945310961514
 30
0.0
 10
825.4438474498891
 20
615.6093748460977
 30
0.0
 10
825.1381833874655
 20
615.875976408531
 30
0.0
 10
824.9370115125157
 20
616.1943357834514
 30
0.0
 10
824.7358396375661
 20
616.5126951583718
 30
0.0
 10
824.6352537000912
 20
616.8691404707827
 30
0.0
 10
824.6352537000912
 20
617.2636717206841
 30
0.0
 10
824.6352537000912
 20
617.6972654705756
 30
0.0
 10
824.7583005750604
 20
618.1025389079743
 30
0.0
 10
825.0043943249989
 20
618.4794920328801
 30
0.0
 10
825.2504880749374
 20
618.8564451577859
 30
0.0
 10
825.6098630748476
 20
619.1425779702143
 30
0.0
 10
826.0825193247293
 20
619.3378904701655
 30
0.0
 10
826.5551755746112
 20
619.5332029701167
 30
0.0
 10
827.0805661994798
 20
619.6308592200922
 30
0.0
 10
827.6586911993353
 20
619.6308592200922
 30
0.0
 10
828.2954099491761
 20
619.6308592200922
 30
0.0
 10
828.8569333865357
 20
619.5283201576179
 30
0.0
 10
829.3432615114142
 20
619.3232420326692
 30
0.0
 10
829.8295896362926
 20
619.1181639077205
 30
0.0
 10
830.2036130736991
 20
618.8164060952959
 30
0.0
 10
830.4653318236336
 20
618.4179685953955
 30
0.0
 10
830.7270505735682
 20
618.0195310954952
 30
0.0
 10
830.8676755735331
 20
617.5683592206079
 30
0.0
 10
830.8872068235282
 20
617.0644529707339
 30
0.0
 10
830.8872068235282
 20
617.0644529707339
 30
0.0
 10
829.7973630738006
 20
616.9824217207544
 30
0.0
 10
829.7973630738006
 20
616.9824217207544
 30
0.0
 10
829.7387693238153
 20
617.5253904706186
 30
0.0
 10
829.5405271363649
 20
617.9355467205161
 30
0.0
 10
829.2026365114493
 20
618.2128904704467
 30
0.0
 10
828.8647458865338
 20
618.4902342203774
 30
0.0
 10
828.3657224491585
 20
618.6289060953428
 30
0.0
 10
827.7055661993236
 20
618.6289060953428
 30
0.0
 10
827.0180661994955
 20
618.6289060953428
 30
0.0
 10
826.5170896371208
 20
618.5029295328743
 30
0.0
 10
826.2026365121993
 20
618.2509764079373
 30
0.0
 10
825.888183387278
 20
617.9990232830003
 30
0.0
 10
825.7309568248172
 20
617.6953123455762
 30
0.0
 10
825.7309568248172
 20
617.339843595665
 30
0.0
 10
825.7309568248172
 20
617.0312498457422
 30
0.0
 10
825.8422849497894
 20
616.7773435958056
 30
0.0
 10
826.0649411997338
 20
616.5781248458554
 30
0.0
 10
826.2836911996791
 20
616.3789060959052
 30
0.0
 10
826.8549802620363
 20
616.1748045334563
 30
0.0
 10
827.7788083868053
 20
615.9658201585086
 30
0.0
 10
828.7026365115743
 20
615.7568357835607
 30
0.0
 10
829.3364255739159
 20
615.5742185961064
 30
0.0
 10
829.68017557383
 20
615.4179685961454
 30
0.0
 10
830.1801755737049
 20
615.1874998462031
 30
0.0
 10
830.5493161986127
 20
614.8955076587761
 30
0.0
 10
830.7875974485531
 20
614.5419920338645
 30
0.0
 10
831.0258786984936
 20
614.1884764089529
 30
0.0
 10
831.1450193234638
 20
613.7812498465547
 30
0.0
 10
831.1450193234638
 20
613.3203123466699
 30
0.0
 10
831.1450193234638
 20
612.8632810967841
 30
0.0
 10
831.0141599484964
 20
612.4326170343918
 30
0.0
 10
830.7524411985619
 20
612.0283201594929
 30
0.0
 10
830.4907224486273
 20
611.6240232845939
 30
0.0
 10
830.1147458862213
 20
611.3095701596726
 30
0.0
 10
829.6245115113438
 20
611.0849607847288
 30
0.0
 10
829.1342771364664
 20
610.8603514097849
 30
0.0
 10
828.5825193241044
 20
610.748046722313
 30
0.0
 10
827.9692380742576
 20
610.748046722313
 30
0.0
 10
827.191894324452
 20
610.748046722313
 30
0.0
 10
826.5405271371149
 20
610.8613279722847
 30
0.0
 10
826.0151365122462
 20
611.087890472228
 30
0.0
 10
825.4897458873776
 20
611.3144529721714
 30
0.0
 10
825.0776365124806
 20
611.6552732845862
 30
0.0
 10
824.7788083875553
 20
612.1103514094724
 30
0.0
 10
824.47998026263
 20
612.5654295343586
 30
0.0
 10
824.3227537001693
 20
613.08007797173
 30
0.0
 10
824.3071287001732
 20
613.6542967215864
 30
0.0
  0
HATCH
  5
9C
330
78
100
AcDbEntity
  8
0
 62
   240
420
 15539236
100
AcDbHatch
 10
0.0
 20
0.0
 30
0.0
210
0.0
220
0.0
230
1.0
  2
SOLID
 70
     1
 71
     0
 91
        1
 92
        1
 93
        1
 72
     4
 94
        3
 73
     0
 74
     1
 95
      110
 96
      106
 40
0.0
 40
0.0
 40
0.0
 40
0.0
 40
1.0
 40
1.0
 40
1.0
 40
2.0
 40
2.0
 40
2.0
 40
3.0
 40
3.0
 40
3.0
 40
4.0
 40
4.0
 40
4.0
 40
5.0
 40
5.0
 40
5.0
 40
6.0
 40
6.0
 40
6.0
 40
7.0
 40
7.0
 40
7.0
 40
8.0
 40
8.0
 40
8.0
 40
9.0
 40
9.0
 40
9.0
 40
10.0
 40
10.0
 40
10.0
 40
11.0
 40
11.0
 40
11.0
 40
12.0
 40
12.0
 40
12.0
 40
13.0
 40
13.0
 40
13.0
 40
14.0
 40
14.0
 40
14.0
 40
15.0
 40
15.0
 40
15.0
 40
16.0
 40
16.0
 40
16.0
 40
17.0
 40
17.0
 40
17.0
 40
18.0
 40
18.0
 40
18.0
 40
19.0
 40
19.0
 40
19.0
 40
20.0
 40
20.0
 40
20.0
 40
21.0
 40
21.0
 40
21.0
 40
22.0
 40
22.0
 40
22.0
 40
23.0
 40
23.0
 40
23.0
 40
24.0
 40
24.0
 40
24.0
 40
25.0
 40
25.0
 40
25.0
 40
26.0
 40
26.0
 40
26.0
 40
27.0
 40
27.0
 40
27.0
 40
28.0
 40
28.0
 40
28.0
 40
29.0
 40
29.0
 40
29.0
 40
30.0
 40
30.0
 40
30.0
 40
31.0
 40
31.0
 40
31.0
 40
32.0
 40
32.0
 40
32.0
 40
33.0
 40
33.0
 40
33.0
 40
34.0
 40
34.0
 40
34.0
 40
35.0
 40
35.0
 40
35.0
 40
35.0
 10
824.3071287001732
 20
613.6542967215864
 10
824.3071287001732
 20
613.6542967215864
 10
825.3793943249051
 20
613.748046721563
 10
825.3793943249051
 20
613.748046721563
 10
825.4301755748925
 20
613.3183592216704
 10
825.5483396373629
 20
612.9658201592586
 10
825.7338865123165
 20
612.6904295343273
 10
825.9194333872701
 20
612.4150389093962
 10
826.2075193246981
 20
612.1923826594519
 10
826.5981443246004
 20
612.0224607844943
 10
826.9887693245028
 20
611.8525389095369
 10
827.4282224493929
 20
611.7675779720581
 10
827.9165036992708
 20
611.7675779720581
 10
828.3500974491625
 20
611.7675779720581
 10
828.7329099490668
 20
611.832031097042
 10
829.0649411989838
 20
611.9609373470098
 10
829.3969724489008
 20
612.0898435969775
 10
829.6440427613389
 20
612.2666014094333
 10
829.8061521362985
 20
612.4912107843771
 10
829.9682615112579
 20
612.7158201593211
 10
830.0493161987376
 20
612.9609373467598
 10
830.0493161987376
 20
613.2265623466933
 10
830.0493161987376
 20
613.496093596626
 10
829.9711911987572
 20
613.7314451590671
 10
829.8149411987962
 20
613.9326170340169
 10
829.6586911988353
 20
614.1337889089665
 10
829.4008786988998
 20
614.3027342214243
 10
829.0415036989896
 20
614.4394529713901
 10
828.8110349490472
 20
614.5292967213677
 10
828.3012693241747
 20
614.6689451588328
 10
827.5122068243719
 20
614.8583982837854
 10
826.7231443245691
 20
615.047851408738
 10
826.1704099497074
 20
615.2265623461933
 10
825.8540036997865
 20
615.3945310961514
 10
825.4438474498891
 20
615.6093748460977
 10
825.1381833874655
 20
615.875976408531
 10
824.9370115125157
 20
616.1943357834514
 10
824.7358396375661
 20
616.5126951583718
 10
824.6352537000912
 20
616.8691404707827
 10
824.6352537000912
 20
617.2636717206841
 10
824.6352537000912
 20
617.6972654705756
 10
824.7583005750604
 20
618.1025389079743
 10
825.0043943249989
 20
618.4794920328801
 10
825.2504880749374
 20
618.8564451577859
 10
825.6098630748476
 20
619.1425779702143
 10
826.0825193247293
 20
619.3378904701655
 10
826.5551755746112
 20
619.5332029701167
 10
827.0805661994798
 20
619.6308592200922
 10
827.6586911993353
 20
619.6308592200922
 10
828.2954099491761
 20
619.6308592200922
 10
828.8569333865357
 20
619.5283201576179
 10
829.3432615114142
 20
619.3232420326692
 10
829.8295896362926
 20
619.1181639077205
 10
830.2036130736991
 20
618.8164060952959
 10
830.4653318236336
 20
618.4179685953955
 10
830.7270505735682
 20
618.0195310954952
 10
830.8676755735331
 20
617.5683592206079
 10
830.8872068235282
 20
617.0644529707339
 10
830.8872068235282
 20
617.0644529707339
 10
829.7973630738006
 20
616.9824217207544
 10
829.7973630738006
 20
616.9824217207544
 10
829.7387693238153
 20
617.5253904706186
 10
829.5405271363649
 20
617.9355467205161
 10
829.2026365114493
 20
618.2128904704467
 10
828.8647458865338
 20
618.4902342203774
 10
828.3657224491585
 20
618.6289060953428
 10
827.7055661993236
 20
618.6289060953428
 10
827.0180661994955
 20
618.6289060953428
 10
826.5170896371208
 20
618.5029295328743
 10
826.2026365121993
 20
618.2509764079373
 10
825.888183387278
 20
617.9990232830003
 10
825.7309568248172
 20
617.6953123455762
 10
825.7309568248172
 20
617.339843595665
 10
825.7309568248172
 20
617.0312498457422
 10
825.8422849497894
 20
616.7773435958056
 10
826.0649411997338
 20
616.5781248458554
 10
826.2836911996791
 20
616.3789060959052
 10
826.8549802620363
 20
616.1748045334563
 10
827.7788083868053
 20
615.9658201585086
 10
828.7026365115743
 20
615.7568357835607
 10
829.3364255739159
 20
615.5742185961064
 10
829.68017557383
 20
615.4179685961454
 10
830.1801755737049
 20
615.1874998462031
 10
830.5493161986127
 20
614.8955076587761
 10
830.7875974485531
 20
614.5419920338645
 10
831.0258786984936
 20
614.1884764089529
 10
831.1450193234638
 20
613.7812498465547
 10
831.1450193234638
 20
613.3203123466699
 10
831.1450193234638
 20
612.8632810967841
 10
831.0141599484964
 20
612.4326170343918
 10
830.7524411985619
 20
612.0283201594929
 10
830.4907224486273
 20
611.6240232845939
 10
830.1147458862213
 20
611.3095701596726
 10
829.6245115113438
 20
611.0849607847288
 10
829.1342771364664
 20
610.8603514097849
 10
828.5825193241044
 20
610.748046722313
 10
827.9692380742576
 20
610.748046722313
 10
827.191894324452
 20
610.748046722313
 10
826.5405271371149
 20
610.8613279722847
 10
826.0151365122462
 20
611.087890472228
 10
825.4897458873776
 20
611.3144529721714
 10
825.0776365124806
 20
611.6552732845862
 10
824.7788083875553
 20
612.1103514094724
 10
824.47998026263
 20
612.5654295343586
 10
824.3227537001693
 20
613.08007797173
 10
824.3071287001732
 20
613.6542967215864
 97
        0
 97
        0
 75
     2
 76
     1
 98
        0
  0
SPLINE
  5
9D
330
78
100
AcDbEntity
  8
0
 62
   240
420
 15539236
370
    35
100
AcDbSpline
210
0.0
220
0.0
230
1.0
 70
    11
 71
     3
 72
    65
 73
    61
 74
     0
 42
0.0000000001
 43
0.0000000001
 12
1.0
 22
0.0
 32
0.0
 13
1.0
 23
0.0
 33
0.0
 40
0.0
 40
0.0
 40
0.0
 40
0.0
 40
1.0
 40
1.0
 40
1.0
 40
2.0
 40
2.0
 40
2.0
 40
3.0
 40
3.0
 40
3.0
 40
4.0
 40
4.0
 40
4.0
 40
5.0
 40
5.0
 40
5.0
 40
6.0
 40
6.0
 40
6.0
 40
7.0
 40
7.0
 40
7.0
 40
8.0
 40
8.0
 40
8.0
 40
9.0
 40
9.0
 40
9.0
 40
10.0
 40
10.0
 40
10.0
 40
11.0
 40
11.0
 40
11.0
 40
12.0
 40
12.0
 40
12.0
 40
13.0
 40
13.0
 40
13.0
 40
14.0
 40
14.0
 40
14.0
 40
15.0
 40
15.0
 40
15.0
 40
16.0
 40
16.0
 40
16.0
 40
17.0
 40
17.0
 40
17.0
 40
18.0
 40
18.0
 40
18.0
 40
19.0
 40
19.0
 40
19.0
 40
20.0
 40
20.0
 40
20.0
 40
20.0
 10
834.8657224475336
 20
611.8378904720405
 30
0.0
 10
834.8657224475336
 20
611.8378904720405
 30
0.0
 10
835.0180661974955
 20
610.9062498472734
 30
0.0
 10
835.0180661974955
 20
610.9062498472734
 30
0.0
 10
834.7211911975697
 20
610.843749847289
 30
0.0
 10
834.4555661976361
 20
610.8124998472969
 30
0.0
 10
834.2211911976947
 20
610.8124998472969
 30
0.0
 10
833.8383786977904
 20
610.8124998472969
 30
0.0
 10
833.5415036978646
 20
610.8730467222817
 30
0.0
 10
833.3305661979174
 20
610.9941404722515
 30
0.0
 10
833.11962869797
 20
611.1152342222211
 30
0.0
 10
832.9711911980072
 20
611.2744139096814
 30
0.0
 10
832.8852536980287
 20
611.471679534632
 30
0.0
 10
832.7993161980502
 20
611.6689451595828
 30
0.0
 10
832.7563474480609
 20
612.083984221979
 30
0.0
 10
832.7563474480609
 20
612.7167967218207
 30
0.0
 10
832.7563474480609
 20
612.7167967218207
 30
0.0
 10
832.7563474480609
 20
616.2968748459258
 30
0.0
 10
832.7563474480609
 20
616.2968748459258
 30
0.0
 10
832.7563474480609
 20
616.2968748459258
 30
0.0
 10
831.9829099482542
 20
616.2968748459258
 30
0.0
 10
831.9829099482542
 20
616.2968748459258
 30
0.0
 10
831.9829099482542
 20
616.2968748459258
 30
0.0
 10
831.9829099482542
 20
617.1171873457207
 30
0.0
 10
831.9829099482542
 20
617.1171873457207
 30
0.0
 10
831.9829099482542
 20
617.1171873457207
 30
0.0
 10
832.7563474480609
 20
617.1171873457207
 30
0.0
 10
832.7563474480609
 20
617.1171873457207
 30
0.0
 10
832.7563474480609
 20
617.1171873457207
 30
0.0
 10
832.7563474480609
 20
618.6582029703354
 30
0.0
 10
832.7563474480609
 20
618.6582029703354
 30
0.0
 10
832.7563474480609
 20
618.6582029703354
 30
0.0
 10
833.8051755727987
 20
619.2910154701773
 30
0.0
 10
833.8051755727987
 20
619.2910154701773
 30
0.0
 10
833.8051755727987
 20
619.2910154701773
 30
0.0
 10
833.8051755727987
 20
617.1171873457207
 30
0.0
 10
833.8051755727987
 20
617.1171873457207
 30
0.0
 10
833.8051755727987
 20
617.1171873457207
 30
0.0
 10
834.8657224475336
 20
617.1171873457207
 30
0.0
 10
834.8657224475336
 20
617.1171873457207
 30
0.0
 10
834.8657224475336
 20
617.1171873457207
 30
0.0
 10
834.8657224475336
 20
616.2968748459258
 30
0.0
 10
834.8657224475336
 20
616.2968748459258
 30
0.0
 10
834.8657224475336
 20
616.2968748459258
 30
0.0
 10
833.8051755727987
 20
616.2968748459258
 30
0.0
 10
833.8051755727987
 20
616.2968748459258
 30
0.0
 10
833.8051755727987
 20
616.2968748459258
 30
0.0
 10
833.8051755727987
 20
612.6582029718354
 30
0.0
 10
833.8051755727987
 20
612.6582029718354
 30
0.0
 10
833.8051755727987
 20
612.3574217219107
 30
0.0
 10
833.823730260294
 20
612.164062346959
 30
0.0
 10
833.8608396352847
 20
612.0781248469805
 30
0.0
 10
833.8979490102755
 20
611.992187347002
 30
0.0
 10
833.9584958852604
 20
611.923827972019
 30
0.0
 10
834.0424802602394
 20
611.8730467220317
 30
0.0
 10
834.1264646352183
 20
611.8222654720444
 30
0.0
 10
834.2465818226883
 20
611.7968748470507
 30
0.0
 10
834.4028318226493
 20
611.7968748470507
 30
0.0
 10
834.52001932262
 20
611.7968748470507
 30
0.0
 10
834.6743161975814
 20
611.8105467220473
 30
0.0
 10
834.8657224475336
 20
611.8378904720405
 30
0.0
  0
HATCH
  5
9E
330
78
100
AcDbEntity
  8
0
 62
   240
420
 15539236
100
AcDbHatch
 10
0.0
 20
0.0
 30
0.0
210
0.0
220
0.0
230
1.0
  2
SOLID
 70
     1
 71
     0
 91
        1
 92
        1
 93
        1
 72
     4
 94
        3
 73
     0
 74
     1
 95
       65
 96
       61
 40
0.0
 40
0.0
 40
0.0
 40
0.0
 40
1.0
 40
1.0
 40
1.0
 40
2.0
 40
2.0
 40
2.0
 40
3.0
 40
3.0
 40
3.0
 40
4.0
 40
4.0
 40
4.0
 40
5.0
 40
5.0
 40
5.0
 40
6.0
 40
6.0
 40
6.0
 40
7.0
 40
7.0
 40
7.0
 40
8.0
 40
8.0
 40
8.0
 40
9.0
 40
9.0
 40
9.0
 40
10.0
 40
10.0
 40
10.0
 40
11.0
 40
11.0
 40
11.0
 40
12.0
 40
12.0
 40
12.0
 40
13.0
 40
13.0
 40
13.0
 40
14.0
 40
14.0
 40
14.0
 40
15.0
 40
15.0
 40
15.0
 40
16.0
 40
16.0
 40
16.0
 40
17.0
 40
17.0
 40
17.0
 40
18.0
 40
18.0
 40
18.0
 40
19.0
 40
19.0
 40
19.0
 40
20.0
 40
20.0
 40
20.0
 40
20.0
 10
834.8657224475336
 20
611.8378904720405
 10
834.8657224475336
 20
611.8378904720405
 10
835.0180661974955
 20
610.9062498472734
 10
835.0180661974955
 20
610.9062498472734
 10
834.7211911975697
 20
610.843749847289
 10
834.4555661976361
 20
610.8124998472969
 10
834.2211911976947
 20
610.8124998472969
 10
833.8383786977904
 20
610.8124998472969
 10
833.5415036978646
 20
610.8730467222817
 10
833.3305661979174
 20
610.9941404722515
 10
833.11962869797
 20
611.1152342222211
 10
832.9711911980072
 20
611.2744139096814
 10
832.8852536980287
 20
611.471679534632
 10
832.7993161980502
 20
611.6689451595828
 10
832.7563474480609
 20
612.083984221979
 10
832.7563474480609
 20
612.7167967218207
 10
832.7563474480609
 20
612.7167967218207
 10
832.7563474480609
 20
616.2968748459258
 10
832.7563474480609
 20
616.2968748459258
 10
832.7563474480609
 20
616.2968748459258
 10
831.9829099482542
 20
616.2968748459258
 10
831.9829099482542
 20
616.2968748459258
 10
831.9829099482542
 20
616.2968748459258
 10
831.9829099482542
 20
617.1171873457207
 10
831.9829099482542
 20
617.1171873457207
 10
831.9829099482542
 20
617.1171873457207
 10
832.7563474480609
 20
617.1171873457207
 10
832.7563474480609
 20
617.1171873457207
 10
832.7563474480609
 20
617.1171873457207
 10
832.7563474480609
 20
618.6582029703354
 10
832.7563474480609
 20
618.6582029703354
 10
832.7563474480609
 20
618.6582029703354
 10
833.8051755727987
 20
619.2910154701773
 10
833.8051755727987
 20
619.2910154701773
 10
833.8051755727987
 20
619.2910154701773
 10
833.8051755727987
 20
617.1171873457207
 10
833.8051755727987
 20
617.1171873457207
 10
833.8051755727987
 20
617.1171873457207
 10
834.8657224475336
 20
617.1171873457207
 10
834.8657224475336
 20
617.1171873457207
 10
834.8657224475336
 20
617.1171873457207
 10
834.8657224475336
 20
616.2968748459258
 10
834.8657224475336
 20
616.2968748459258
 10
834.8657224475336
 20
616.2968748459258
 10
833.8051755727987
 20
616.2968748459258
 10
833.8051755727987
 20
616.2968748459258
 10
833.8051755727987
 20
616.2968748459258
 10
833.8051755727987
 20
612.6582029718354
 10
833.8051755727987
 20
612.6582029718354
 10
833.8051755727987
 20
612.3574217219107
 10
833.823730260294
 20
612.164062346959
 10
833.8608396352847
 20
612.0781248469805
 10
833.8979490102755
 20
611.992187347002
 10
833.9584958852604
 20
611.923827972019
 10
834.0424802602394
 20
611.8730467220317
 10
834.1264646352183
 20
611.8222654720444
 10
834.2465818226883
 20
611.7968748470507
 10
834.4028318226493
 20
611.7968748470507
 10
834.52001932262
 20
611.7968748470507
 10
834.6743161975814
 20
611.8105467220473
 10
834.8657224475336
 20
611.8378904720405
 97
        0
 97
        0
 75
     2
 76
     1
 98
        0
  0
SPLINE
  5
9F
330
78
100
AcDbEntity
  8
0
 62
   240
420
 15539236
370
    35
100
AcDbSpline
210
0.0
220
0.0
230
1.0
 70
    11
 71
     3
 72
    50
 73
    46
 74
     0
 42
0.0000000001
 43
0.0000000001
 12
1.0
 22
0.0
 32
0.0
 13
1.0
 23
0.0
 33
0.0
 40
0.0
 40
0.0
 40
0.0
 40
0.0
 40
1.0
 40
1.0
 40
1.0
 40
2.0
 40
2.0
 40
2.0
 40
3.0
 40
3.0
 40
3.0
 40
4.0
 40
4.0
 40
4.0
 40
5.0
 40
5.0
 40
5.0
 40
6.0
 40
6.0
 40
6.0
 40
7.0
 40
7.0
 40
7.0
 40
8.0
 40
8.0
 40
8.0
 40
9.0
 40
9.0
 40
9.0
 40
10.0
 40
10.0
 40
10.0
 40
11.0
 40
11.0
 40
11.0
 40
12.0
 40
12.0
 40
12.0
 40
13.0
 40
13.0
 40
13.0
 40
14.0
 40
14.0
 40
14.0
 40
15.0
 40
15.0
 40
15.0
 40
15.0
 10
840.1567380712108
 20
612.8984373467754
 30
0.0
 10
840.1567380712108
 20
612.8984373467754
 30
0.0
 10
841.2465818209383
 20
612.763671721809
 30
0.0
 10
841.2465818209383
 20
612.763671721809
 30
0.0
 10
841.0747068209813
 20
612.1269529719682
 30
0.0
 10
840.7563474460609
 20
611.6328123470918
 30
0.0
 10
840.2915036961771
 20
611.2812498471797
 30
0.0
 10
839.8266599462933
 20
610.9296873472675
 30
0.0
 10
839.2329099464417
 20
610.7539060973115
 30
0.0
 10
838.5102536966224
 20
610.7539060973115
 30
0.0
 10
837.60009744685
 20
610.7539060973115
 30
0.0
 10
836.8784177595304
 20
611.0341795347415
 30
0.0
 10
836.3452146346636
 20
611.5947264096013
 30
0.0
 10
835.812011509797
 20
612.1552732844611
 30
0.0
 10
835.5454099473636
 20
612.9414060967646
 30
0.0
 10
835.5454099473636
 20
613.9531248465117
 30
0.0
 10
835.5454099473636
 20
614.99999984625
 30
0.0
 10
835.8149411972962
 20
615.8124998460469
 30
0.0
 10
836.3540036971615
 20
616.3906248459024
 30
0.0
 10
836.8930661970268
 20
616.9687498457578
 30
0.0
 10
837.5922849468519
 20
617.2578123456856
 30
0.0
 10
838.451659946637
 20
617.2578123456856
 30
0.0
 10
839.283691196429
 20
617.2578123456856
 30
0.0
 10
839.9633786962592
 20
616.9746092207563
 30
0.0
 10
840.4907224461273
 20
616.408202970898
 30
0.0
 10
841.0180661959955
 20
615.8417967210395
 30
0.0
 10
841.2817380709296
 20
615.0449217212388
 30
0.0
 10
841.2817380709296
 20
614.0175779714956
 30
0.0
 10
841.2817380709296
 20
613.9550779715112
 30
0.0
 10
841.27978494593
 20
613.8613279715347
 30
0.0
 10
841.275878695931
 20
613.7363279715659
 30
0.0
 10
841.275878695931
 20
613.7363279715659
 30
0.0
 10
836.6352536970911
 20
613.7363279715659
 30
0.0
 10
836.6352536970911
 20
613.7363279715659
 30
0.0
 10
836.6743161970815
 20
613.0527342217368
 30
0.0
 10
836.867675572033
 20
612.5292967218677
 30
0.0
 10
837.2153318219462
 20
612.1660154719585
 30
0.0
 10
837.5629880718592
 20
611.8027342220493
 30
0.0
 10
837.9965818217509
 20
611.6210935970947
 30
0.0
 10
838.5161130716209
 20
611.6210935970947
 30
0.0
 10
838.9028318215243
 20
611.6210935970947
 30
0.0
 10
839.2329099464417
 20
611.7226560970694
 30
0.0
 10
839.5063474463734
 20
611.9257810970186
 30
0.0
 10
839.7797849463051
 20
612.1289060969677
 30
0.0
 10
839.9965818212509
 20
612.4531248468867
 30
0.0
 10
840.1567380712108
 20
612.8984373467754
 30
0.0
  0
SPLINE
  5
A0
330
78
100
AcDbEntity
  8
0
 62
   240
420
 15539236
370
    35
100
AcDbSpline
210
0.0
220
0.0
230
1.0
 70
    11
 71
     3
 72
    20
 73
    16
 74
     0
 42
0.0000000001
 43
0.0000000001
 12
1.0
 22
0.0
 32
0.0
 13
1.0
 23
0.0
 33
0.0
 40
0.0
 40
0.0
 40
0.0
 40
0.0
 40
1.0
 40
1.0
 40
1.0
 40
2.0
 40
2.0
 40
2.0
 40
3.0
 40
3.0
 40
3.0
 40
4.0
 40
4.0
 40
4.0
 40
5.0
 40
5.0
 40
5.0
 40
5.0
 10
836.6938474470766
 20
614.603515471349
 30
0.0
 10
836.6938474470766
 20
614.603515471349
 30
0.0
 10
840.1684568212079
 20
614.603515471349
 30
0.0
 10
840.1684568212079
 20
614.603515471349
 30
0.0
 10
840.1215818212196
 20
615.1269529712182
 30
0.0
 10
839.9887693212528
 20
615.5195310961201
 30
0.0
 10
839.7700193213075
 20
615.7812498460547
 30
0.0
 10
839.4340818213915
 20
616.1874998459531
 30
0.0
 10
838.9985349465004
 20
616.3906248459024
 30
0.0
 10
838.4633786966341
 20
616.3906248459024
 30
0.0
 10
837.9790036967553
 20
616.3906248459024
 30
0.0
 10
837.571777134357
 20
616.2285154709429
 30
0.0
 10
837.2416990094396
 20
615.9042967210239
 30
0.0
 10
836.9116208845221
 20
615.580077971105
 30
0.0
 10
836.7290036970677
 20
615.1464842212133
 30
0.0
 10
836.6938474470766
 20
614.603515471349
 30
0.0
  0
HATCH
  5
A1
330
78
100
AcDbEntity
  8
0
 62
   240
420
 15539236
100
AcDbHatch
 10
0.0
 20
0.0
 30
0.0
210
0.0
220
0.0
230
1.0
  2
SOLID
 70
     1
 71
     0
 91
        2
 92
        1
 93
        1
 72
     4
 94
        3
 73
     0
 74
     1
 95
       50
 96
       46
 40
0.0
 40
0.0
 40
0.0
 40
0.0
 40
1.0
 40
1.0
 40
1.0
 40
2.0
 40
2.0
 40
2.0
 40
3.0
 40
3.0
 40
3.0
 40
4.0
 40
4.0
 40
4.0
 40
5.0
 40
5.0
 40
5.0
 40
6.0
 40
6.0
 40
6.0
 40
7.0
 40
7.0
 40
7.0
 40
8.0
 40
8.0
 40
8.0
 40
9.0
 40
9.0
 40
9.0
 40
10.0
 40
10.0
 40
10.0
 40
11.0
 40
11.0
 40
11.0
 40
12.0
 40
12.0
 40
12.0
 40
13.0
 40
13.0
 40
13.0
 40
14.0
 40
14.0
 40
14.0
 40
15.0
 40
15.0
 40
15.0
 40
15.0
 10
840.1567380712108
 20
612.8984373467754
 10
840.1567380712108
 20
612.8984373467754
 10
841.2465818209383
 20
612.763671721809
 10
841.2465818209383
 20
612.763671721809
 10
841.0747068209813
 20
612.1269529719682
 10
840.7563474460609
 20
611.6328123470918
 10
840.2915036961771
 20
611.2812498471797
 10
839.8266599462933
 20
610.9296873472675
 10
839.2329099464417
 20
610.7539060973115
 10
838.5102536966224
 20
610.7539060973115
 10
837.60009744685
 20
610.7539060973115
 10
836.8784177595304
 20
611.0341795347415
 10
836.3452146346636
 20
611.5947264096013
 10
835.812011509797
 20
612.1552732844611
 10
835.5454099473636
 20
612.9414060967646
 10
835.5454099473636
 20
613.9531248465117
 10
835.5454099473636
 20
614.99999984625
 10
835.8149411972962
 20
615.8124998460469
 10
836.3540036971615
 20
616.3906248459024
 10
836.8930661970268
 20
616.9687498457578
 10
837.5922849468519
 20
617.2578123456856
 10
838.451659946637
 20
617.2578123456856
 10
839.283691196429
 20
617.2578123456856
 10
839.9633786962592
 20
616.9746092207563
 10
840.4907224461273
 20
616.408202970898
 10
841.0180661959955
 20
615.8417967210395
 10
841.2817380709296
 20
615.0449217212388
 10
841.2817380709296
 20
614.0175779714956
 10
841.2817380709296
 20
613.9550779715112
 10
841.27978494593
 20
613.8613279715347
 10
841.275878695931
 20
613.7363279715659
 10
841.275878695931
 20
613.7363279715659
 10
836.6352536970911
 20
613.7363279715659
 10
836.6352536970911
 20
613.7363279715659
 10
836.6743161970815
 20
613.0527342217368
 10
836.867675572033
 20
612.5292967218677
 10
837.2153318219462
 20
612.1660154719585
 10
837.5629880718592
 20
611.8027342220493
 10
837.9965818217509
 20
611.6210935970947
 10
838.5161130716209
 20
611.6210935970947
 10
838.9028318215243
 20
611.6210935970947
 10
839.2329099464417
 20
611.7226560970694
 10
839.5063474463734
 20
611.9257810970186
 10
839.7797849463051
 20
612.1289060969677
 10
839.9965818212509
 20
612.4531248468867
 10
840.1567380712108
 20
612.8984373467754
 97
        0
 97
        0
 92
        1
 93
        1
 72
     4
 94
        3
 73
     0
 74
     1
 95
       20
 96
       16
 40
0.0
 40
0.0
 40
0.0
 40
0.0
 40
1.0
 40
1.0
 40
1.0
 40
2.0
 40
2.0
 40
2.0
 40
3.0
 40
3.0
 40
3.0
 40
4.0
 40
4.0
 40
4.0
 40
5.0
 40
5.0
 40
5.0
 40
5.0
 10
836.6938474470766
 20
614.603515471349
 10
836.6938474470766
 20
614.603515471349
 10
840.1684568212079
 20
614.603515471349
 10
840.1684568212079
 20
614.603515471349
 10
840.1215818212196
 20
615.1269529712182
 10
839.9887693212528
 20
615.5195310961201
 10
839.7700193213075
 20
615.7812498460547
 10
839.4340818213915
 20
616.1874998459531
 10
838.9985349465004
 20
616.3906248459024
 10
838.4633786966341
 20
616.3906248459024
 10
837.9790036967553
 20
616.3906248459024
 10
837.571777134357
 20
616.2285154709429
 10
837.2416990094396
 20
615.9042967210239
 10
836.9116208845221
 20
615.580077971105
 10
836.7290036970677
 20
615.1464842212133
 10
836.6938474470766
 20
614.603515471349
 97
        0
 97
        0
 75
     2
 76
     1
 98
        0
  0
SPLINE
  5
A2
330
78
100
AcDbEntity
  8
0
 62
   240
420
 15539236
370
    35
100
AcDbSpline
210
0.0
220
0.0
230
1.0
 70
    11
 71
     3
 72
    50
 73
    46
 74
     0
 42
0.0000000001
 43
0.0000000001
 12
1.0
 22
0.0
 32
0.0
 13
1.0
 23
0.0
 33
0.0
 40
0.0
 40
0.0
 40
0.0
 40
0.0
 40
1.0
 40
1.0
 40
1.0
 40
2.0
 40
2.0
 40
2.0
 40
3.0
 40
3.0
 40
3.0
 40
4.0
 40
4.0
 40
4.0
 40
5.0
 40
5.0
 40
5.0
 40
6.0
 40
6.0
 40
6.0
 40
7.0
 40
7.0
 40
7.0
 40
8.0
 40
8.0
 40
8.0
 40
9.0
 40
9.0
 40
9.0
 40
10.0
 40
10.0
 40
10.0
 40
11.0
 40
11.0
 40
11.0
 40
12.0
 40
12.0
 40
12.0
 40
13.0
 40
13.0
 40
13.0
 40
14.0
 40
14.0
 40
14.0
 40
15.0
 40
15.0
 40
15.0
 40
15.0
 10
842.5708005706073
 20
608.5097654728726
 30
0.0
 10
842.5708005706073
 20
608.5097654728726
 30
0.0
 10
842.5708005706073
 20
617.1171873457207
 30
0.0
 10
842.5708005706073
 20
617.1171873457207
 30
0.0
 10
842.5708005706073
 20
617.1171873457207
 30
0.0
 10
843.531738070367
 20
617.1171873457207
 30
0.0
 10
843.531738070367
 20
617.1171873457207
 30
0.0
 10
843.531738070367
 20
617.1171873457207
 30
0.0
 10
843.531738070367
 20
616.3085935959228
 30
0.0
 10
843.531738070367
 20
616.3085935959228
 30
0.0
 10
843.7583005703104
 20
616.6249998458437
 30
0.0
 10
844.0141599452464
 20
616.8623045332844
 30
0.0
 10
844.2993161951752
 20
617.0205076582448
 30
0.0
 10
844.5844724451039
 20
617.1787107832054
 30
0.0
 10
844.9301755700175
 20
617.2578123456856
 30
0.0
 10
845.3364255699158
 20
617.2578123456856
 30
0.0
 10
845.867675569783
 20
617.2578123456856
 30
0.0
 10
846.3364255696658
 20
617.1210935957197
 30
0.0
 10
846.7426755695643
 20
616.8476560957881
 30
0.0
 10
847.1489255694628
 20
616.5742185958565
 30
0.0
 10
847.455566194386
 20
616.1884764084529
 30
0.0
 10
847.6625974443343
 20
615.6904295335773
 30
0.0
 10
847.8696286942826
 20
615.192382658702
 30
0.0
 10
847.9731443192567
 20
614.6464842213384
 30
0.0
 10
847.9731443192567
 20
614.0527342214868
 30
0.0
 10
847.9731443192567
 20
613.416015471646
 30
0.0
 10
847.8588865067852
 20
612.8427732842893
 30
0.0
 10
847.6303708818424
 20
612.3330076594167
 30
0.0
 10
847.4018552568995
 20
611.8232420345441
 30
0.0
 10
847.0698240069826
 20
611.4326170346418
 30
0.0
 10
846.6342771320914
 20
611.1611326597097
 30
0.0
 10
846.1987302572003
 20
610.8896482847775
 30
0.0
 10
845.7407224448148
 20
610.7539060973115
 30
0.0
 10
845.2602536949349
 20
610.7539060973115
 30
0.0
 10
844.9086911950228
 20
610.7539060973115
 30
0.0
 10
844.5932615076017
 20
610.828124847293
 30
0.0
 10
844.3139646326715
 20
610.9765623472558
 30
0.0
 10
844.0346677577413
 20
611.1249998472188
 30
0.0
 10
843.8051755702987
 20
611.3124998471718
 30
0.0
 10
843.6254880703436
 20
611.5390623471152
 30
0.0
 10
843.6254880703436
 20
611.5390623471152
 30
0.0
 10
843.6254880703436
 20
608.5097654728726
 30
0.0
 10
843.6254880703436
 20
608.5097654728726
 30
0.0
 10
843.6254880703436
 20
608.5097654728726
 30
0.0
 10
842.5708005706073
 20
608.5097654728726
 30
0.0
 10
842.5708005706073
 20
608.5097654728726
 30
0.0
  0
SPLINE
  5
A3
330
78
100
AcDbEntity
  8
0
 62
   240
420
 15539236
370
    35
100
AcDbSpline
210
0.0
220
0.0
230
1.0
 70
    11
 71
     3
 72
    29
 73
    25
 74
     0
 42
0.0000000001
 43
0.0000000001
 12
1.0
 22
0.0
 32
0.0
 13
1.0
 23
0.0
 33
0.0
 40
0.0
 40
0.0
 40
0.0
 40
0.0
 40
1.0
 40
1.0
 40
1.0
 40
2.0
 40
2.0
 40
2.0
 40
3.0
 40
3.0
 40
3.0
 40
4.0
 40
4.0
 40
4.0
 40
5.0
 40
5.0
 40
5.0
 40
6.0
 40
6.0
 40
6.0
 40
7.0
 40
7.0
 40
7.0
 40
8.0
 40
8.0
 40
8.0
 40
8.0
 10
843.5258786953685
 20
613.9707029715073
 30
0.0
 10
843.5258786953685
 20
613.1699217217075
 30
0.0
 10
843.687988070328
 20
612.5781248468554
 30
0.0
 10
844.0122068202469
 20
612.1953123469511
 30
0.0
 10
844.3364255701658
 20
611.8124998470469
 30
0.0
 10
844.7290036950677
 20
611.6210935970947
 30
0.0
 10
845.1899411949526
 20
611.6210935970947
 30
0.0
 10
845.6586911948353
 20
611.6210935970947
 30
0.0
 10
846.060058382235
 20
611.8193357845452
 30
0.0
 10
846.3940427571515
 20
612.215820159446
 30
0.0
 10
846.728027132068
 20
612.6123045343469
 30
0.0
 10
846.8950193195262
 20
613.2265623466933
 30
0.0
 10
846.8950193195262
 20
614.0585935964854
 30
0.0
 10
846.8950193195262
 20
614.8515623462871
 30
0.0
 10
846.731933382067
 20
615.4453123461386
 30
0.0
 10
846.4057615071486
 20
615.83984359604
 30
0.0
 10
846.0795896322301
 20
616.2343748459414
 30
0.0
 10
845.6899411948275
 20
616.431640470892
 30
0.0
 10
845.2368161949407
 20
616.431640470892
 30
0.0
 10
844.787597445053
 20
616.431640470892
 30
0.0
 10
844.3901365076524
 20
616.2216795334446
 30
0.0
 10
844.0444333827389
 20
615.8017576585496
 30
0.0
 10
843.6987302578253
 20
615.3818357836545
 30
0.0
 10
843.5258786953685
 20
614.7714842213071
 30
0.0
 10
843.5258786953685
 20
613.9707029715073
 30
0.0
  0
HATCH
  5
A4
330
78
100
AcDbEntity
  8
0
 62
   240
420
 15539236
100
AcDbHatch
 10
0.0
 20
0.0
 30
0.0
210
0.0
220
0.0
230
1.0
  2
SOLID
 70
     1
 71
     0
 91
        2
 92
        1
 93
        1
 72
     4
 94
        3
 73
     0
 74
     1
 95
       50
 96
       46
 40
0.0
 40
0.0
 40
0.0
 40
0.0
 40
1.0
 40
1.0
 40
1.0
 40
2.0
 40
2.0
 40
2.0
 40
3.0
 40
3.0
 40
3.0
 40
4.0
 40
4.0
 40
4.0
 40
5.0
 40
5.0
 40
5.0
 40
6.0
 40
6.0
 40
6.0
 40
7.0
 40
7.0
 40
7.0
 40
8.0
 40
8.0
 40
8.0
 40
9.0
 40
9.0
 40
9.0
 40
10.0
 40
10.0
 40
10.0
 40
11.0
 40
11.0
 40
11.0
 40
12.0
 40
12.0
 40
12.0
 40
13.0
 40
13.0
 40
13.0
 40
14.0
 40
14.0
 40
14.0
 40
15.0
 40
15.0
 40
15.0
 40
15.0
 10
842.5708005706073
 20
608.5097654728726
 10
842.5708005706073
 20
608.5097654728726
 10
842.5708005706073
 20
617.1171873457207
 10
842.5708005706073
 20
617.1171873457207
 10
842.5708005706073
 20
617.1171873457207
 10
843.531738070367
 20
617.1171873457207
 10
843.531738070367
 20
617.1171873457207
 10
843.531738070367
 20
617.1171873457207
 10
843.531738070367
 20
616.3085935959228
 10
843.531738070367
 20
616.3085935959228
 10
843.7583005703104
 20
616.6249998458437
 10
844.0141599452464
 20
616.8623045332844
 10
844.2993161951752
 20
617.0205076582448
 10
844.5844724451039
 20
617.1787107832054
 10
844.9301755700175
 20
617.2578123456856
 10
845.3364255699158
 20
617.2578123456856
 10
845.867675569783
 20
617.2578123456856
 10
846.3364255696658
 20
617.1210935957197
 10
846.7426755695643
 20
616.8476560957881
 10
847.1489255694628
 20
616.5742185958565
 10
847.455566194386
 20
616.1884764084529
 10
847.6625974443343
 20
615.6904295335773
 10
847.8696286942826
 20
615.192382658702
 10
847.9731443192567
 20
614.6464842213384
 10
847.9731443192567
 20
614.0527342214868
 10
847.9731443192567
 20
613.416015471646
 10
847.8588865067852
 20
612.8427732842893
 10
847.6303708818424
 20
612.3330076594167
 10
847.4018552568995
 20
611.8232420345441
 10
847.0698240069826
 20
611.4326170346418
 10
846.6342771320914
 20
611.1611326597097
 10
846.1987302572003
 20
610.8896482847775
 10
845.7407224448148
 20
610.7539060973115
 10
845.2602536949349
 20
610.7539060973115
 10
844.9086911950228
 20
610.7539060973115
 10
844.5932615076017
 20
610.828124847293
 10
844.3139646326715
 20
610.9765623472558
 10
844.0346677577413
 20
611.1249998472188
 10
843.8051755702987
 20
611.3124998471718
 10
843.6254880703436
 20
611.5390623471152
 10
843.6254880703436
 20
611.5390623471152
 10
843.6254880703436
 20
608.5097654728726
 10
843.6254880703436
 20
608.5097654728726
 10
843.6254880703436
 20
608.5097654728726
 10
842.5708005706073
 20
608.5097654728726
 10
842.5708005706073
 20
608.5097654728726
 97
        0
 97
        0
 92
        1
 93
        1
 72
     4
 94
        3
 73
     0
 74
     1
 95
       29
 96
       25
 40
0.0
 40
0.0
 40
0.0
 40
0.0
 40
1.0
 40
1.0
 40
1.0
 40
2.0
 40
2.0
 40
2.0
 40
3.0
 40
3.0
 40
3.0
 40
4.0
 40
4.0
 40
4.0
 40
5.0
 40
5.0
 40
5.0
 40
6.0
 40
6.0
 40
6.0
 40
7.0
 40
7.0
 40
7.0
 40
8.0
 40
8.0
 40
8.0
 40
8.0
 10
843.5258786953685
 20
613.9707029715073
 10
843.5258786953685
 20
613.1699217217075
 10
843.687988070328
 20
612.5781248468554
 10
844.0122068202469
 20
612.1953123469511
 10
844.3364255701658
 20
611.8124998470469
 10
844.7290036950677
 20
611.6210935970947
 10
845.1899411949526
 20
611.6210935970947
 10
845.6586911948353
 20
611.6210935970947
 10
846.060058382235
 20
611.8193357845452
 10
846.3940427571515
 20
612.215820159446
 10
846.728027132068
 20
612.6123045343469
 10
846.8950193195262
 20
613.2265623466933
 10
846.8950193195262
 20
614.0585935964854
 10
846.8950193195262
 20
614.8515623462871
 10
846.731933382067
 20
615.4453123461386
 10
846.4057615071486
 20
615.83984359604
 10
846.0795896322301
 20
616.2343748459414
 10
845.6899411948275
 20
616.431640470892
 10
845.2368161949407
 20
616.431640470892
 10
844.787597445053
 20
616.431640470892
 10
844.3901365076524
 20
616.2216795334446
 10
844.0444333827389
 20
615.8017576585496
 10
843.6987302578253
 20
615.3818357836545
 10
843.5258786953685
 20
614.7714842213071
 10
843.5258786953685
 20
613.9707029715073
 97
        0
 97
        0
 75
     2
 76
     1
 98
        0
  0
SPLINE
  5
A5
330
78
100
AcDbEntity
  8
0
 62
   240
420
 15539236
370
    35
100
AcDbSpline
210
0.0
220
0.0
230
1.0
 70
    11
 71
     3
 72
    50
 73
    46
 74
     0
 42
0.0000000001
 43
0.0000000001
 12
1.0
 22
0.0
 32
0.0
 13
1.0
 23
0.0
 33
0.0
 40
0.0
 40
0.0
 40
0.0
 40
0.0
 40
1.0
 40
1.0
 40
1.0
 40
2.0
 40
2.0
 40
2.0
 40
3.0
 40
3.0
 40
3.0
 40
4.0
 40
4.0
 40
4.0
 40
5.0
 40
5.0
 40
5.0
 40
6.0
 40
6.0
 40
6.0
 40
7.0
 40
7.0
 40
7.0
 40
8.0
 40
8.0
 40
8.0
 40
9.0
 40
9.0
 40
9.0
 40
10.0
 40
10.0
 40
10.0
 40
11.0
 40
11.0
 40
11.0
 40
12.0
 40
12.0
 40
12.0
 40
13.0
 40
13.0
 40
13.0
 40
14.0
 40
14.0
 40
14.0
 40
15.0
 40
15.0
 40
15.0
 40
15.0
 10
849.2446286939388
 20
608.5097654728726
 30
0.0
 10
849.2446286939388
 20
608.5097654728726
 30
0.0
 10
849.2446286939388
 20
617.1171873457207
 30
0.0
 10
849.2446286939388
 20
617.1171873457207
 30
0.0
 10
849.2446286939388
 20
617.1171873457207
 30
0.0
 10
850.2055661936986
 20
617.1171873457207
 30
0.0
 10
850.2055661936986
 20
617.1171873457207
 30
0.0
 10
850.2055661936986
 20
617.1171873457207
 30
0.0
 10
850.2055661936986
 20
616.3085935959228
 30
0.0
 10
850.2055661936986
 20
616.3085935959228
 30
0.0
 10
850.432128693642
 20
616.6249998458437
 30
0.0
 10
850.687988068578
 20
616.8623045332844
 30
0.0
 10
850.9731443185067
 20
617.0205076582448
 30
0.0
 10
851.2583005684354
 20
617.1787107832054
 30
0.0
 10
851.604003693349
 20
617.2578123456856
 30
0.0
 10
852.0102536932474
 20
617.2578123456856
 30
0.0
 10
852.5415036931146
 20
617.2578123456856
 30
0.0
 10
853.0102536929974
 20
617.1210935957197
 30
0.0
 10
853.4165036928958
 20
616.8476560957881
 30
0.0
 10
853.8227536927943
 20
616.5742185958565
 30
0.0
 10
854.1293943177176
 20
616.1884764084529
 30
0.0
 10
854.3364255676659
 20
615.6904295335773
 30
0.0
 10
854.5434568176141
 20
615.192382658702
 30
0.0
 10
854.6469724425882
 20
614.6464842213384
 30
0.0
 10
854.6469724425882
 20
614.0527342214868
 30
0.0
 10
854.6469724425882
 20
613.416015471646
 30
0.0
 10
854.5327146301169
 20
612.8427732842893
 30
0.0
 10
854.3041990051739
 20
612.3330076594167
 30
0.0
 10
854.0756833802311
 20
611.8232420345441
 30
0.0
 10
853.7436521303141
 20
611.4326170346418
 30
0.0
 10
853.3081052554229
 20
611.1611326597097
 30
0.0
 10
852.8725583805318
 20
610.8896482847775
 30
0.0
 10
852.4145505681463
 20
610.7539060973115
 30
0.0
 10
851.9340818182665
 20
610.7539060973115
 30
0.0
 10
851.5825193183543
 20
610.7539060973115
 30
0.0
 10
851.2670896309332
 20
610.828124847293
 30
0.0
 10
850.987792756003
 20
610.9765623472558
 30
0.0
 10
850.7084958810728
 20
611.1249998472188
 30
0.0
 10
850.4790036936303
 20
611.3124998471718
 30
0.0
 10
850.2993161936752
 20
611.5390623471152
 30
0.0
 10
850.2993161936752
 20
611.5390623471152
 30
0.0
 10
850.2993161936752
 20
608.5097654728726
 30
0.0
 10
850.2993161936752
 20
608.5097654728726
 30
0.0
 10
850.2993161936752
 20
608.5097654728726
 30
0.0
 10
849.2446286939388
 20
608.5097654728726
 30
0.0
 10
849.2446286939388
 20
608.5097654728726
 30
0.0
  0
SPLINE
  5
A6
330
78
100
AcDbEntity
  8
0
 62
   240
420
 15539236
370
    35
100
AcDbSpline
210
0.0
220
0.0
230
1.0
 70
    11
 71
     3
 72
    29
 73
    25
 74
     0
 42
0.0000000001
 43
0.0000000001
 12
1.0
 22
0.0
 32
0.0
 13
1.0
 23
0.0
 33
0.0
 40
0.0
 40
0.0
 40
0.0
 40
0.0
 40
1.0
 40
1.0
 40
1.0
 40
2.0
 40
2.0
 40
2.0
 40
3.0
 40
3.0
 40
3.0
 40
4.0
 40
4.0
 40
4.0
 40
5.0
 40
5.0
 40
5.0
 40
6.0
 40
6.0
 40
6.0
 40
7.0
 40
7.0
 40
7.0
 40
8.0
 40
8.0
 40
8.0
 40
8.0
 10
850.1997068187001
 20
613.9707029715073
 30
0.0
 10
850.1997068187001
 20
613.1699217217075
 30
0.0
 10
850.3618161936595
 20
612.5781248468554
 30
0.0
 10
850.6860349435784
 20
612.1953123469511
 30
0.0
 10
851.0102536934975
 20
611.8124998470469
 30
0.0
 10
851.4028318183992
 20
611.6210935970947
 30
0.0
 10
851.8637693182841
 20
611.6210935970947
 30
0.0
 10
852.3325193181669
 20
611.6210935970947
 30
0.0
 10
852.7338865055665
 20
611.8193357845452
 30
0.0
 10
853.067870880483
 20
612.215820159446
 30
0.0
 10
853.4018552553995
 20
612.6123045343469
 30
0.0
 10
853.5688474428578
 20
613.2265623466933
 30
0.0
 10
853.5688474428578
 20
614.0585935964854
 30
0.0
 10
853.5688474428578
 20
614.8515623462871
 30
0.0
 10
853.4057615053986
 20
615.4453123461386
 30
0.0
 10
853.0795896304801
 20
615.83984359604
 30
0.0
 10
852.7534177555616
 20
616.2343748459414
 30
0.0
 10
852.363769318159
 20
616.431640470892
 30
0.0
 10
851.9106443182724
 20
616.431640470892
 30
0.0
 10
851.4614255683846
 20
616.431640470892
 30
0.0
 10
851.063964630984
 20
616.2216795334446
 30
0.0
 10
850.7182615060705
 20
615.8017576585496
 30
0.0
 10
850.3725583811569
 20
615.3818357836545
 30
0.0
 10
850.1997068187001
 20
614.7714842213071
 30
0.0
 10
850.1997068187001
 20
613.9707029715073
 30
0.0
  0
HATCH
  5
A7
330
78
100
AcDbEntity
  8
0
 62
   240
420
 15539236
100
AcDbHatch
 10
0.0
 20
0.0
 30
0.0
210
0.0
220
0.0
230
1.0
  2
SOLID
 70
     1
 71
     0
 91
        2
 92
        1
 93
        1
 72
     4
 94
        3
 73
     0
 74
     1
 95
       50
 96
       46
 40
0.0
 40
0.0
 40
0.0
 40
0.0
 40
1.0
 40
1.0
 40
1.0
 40
2.0
 40
2.0
 40
2.0
 40
3.0
 40
3.0
 40
3.0
 40
4.0
 40
4.0
 40
4.0
 40
5.0
 40
5.0
 40
5.0
 40
6.0
 40
6.0
 40
6.0
 40
7.0
 40
7.0
 40
7.0
 40
8.0
 40
8.0
 40
8.0
 40
9.0
 40
9.0
 40
9.0
 40
10.0
 40
10.0
 40
10.0
 40
11.0
 40
11.0
 40
11.0
 40
12.0
 40
12.0
 40
12.0
 40
13.0
 40
13.0
 40
13.0
 40
14.0
 40
14.0
 40
14.0
 40
15.0
 40
15.0
 40
15.0
 40
15.0
 10
849.2446286939388
 20
608.5097654728726
 10
849.2446286939388
 20
608.5097654728726
 10
849.2446286939388
 20
617.1171873457207
 10
849.2446286939388
 20
617.1171873457207
 10
849.2446286939388
 20
617.1171873457207
 10
850.2055661936986
 20
617.1171873457207
 10
850.2055661936986
 20
617.1171873457207
 10
850.2055661936986
 20
617.1171873457207
 10
850.2055661936986
 20
616.3085935959228
 10
850.2055661936986
 20
616.3085935959228
 10
850.432128693642
 20
616.6249998458437
 10
850.687988068578
 20
616.8623045332844
 10
850.9731443185067
 20
617.0205076582448
 10
851.2583005684354
 20
617.1787107832054
 10
851.604003693349
 20
617.2578123456856
 10
852.0102536932474
 20
617.2578123456856
 10
852.5415036931146
 20
617.2578123456856
 10
853.0102536929974
 20
617.1210935957197
 10
853.4165036928958
 20
616.8476560957881
 10
853.8227536927943
 20
616.5742185958565
 10
854.1293943177176
 20
616.1884764084529
 10
854.3364255676659
 20
615.6904295335773
 10
854.5434568176141
 20
615.192382658702
 10
854.6469724425882
 20
614.6464842213384
 10
854.6469724425882
 20
614.0527342214868
 10
854.6469724425882
 20
613.416015471646
 10
854.5327146301169
 20
612.8427732842893
 10
854.3041990051739
 20
612.3330076594167
 10
854.0756833802311
 20
611.8232420345441
 10
853.7436521303141
 20
611.4326170346418
 10
853.3081052554229
 20
611.1611326597097
 10
852.8725583805318
 20
610.8896482847775
 10
852.4145505681463
 20
610.7539060973115
 10
851.9340818182665
 20
610.7539060973115
 10
851.5825193183543
 20
610.7539060973115
 10
851.2670896309332
 20
610.828124847293
 10
850.987792756003
 20
610.9765623472558
 10
850.7084958810728
 20
611.1249998472188
 10
850.4790036936303
 20
611.3124998471718
 10
850.2993161936752
 20
611.5390623471152
 10
850.2993161936752
 20
611.5390623471152
 10
850.2993161936752
 20
608.5097654728726
 10
850.2993161936752
 20
608.5097654728726
 10
850.2993161936752
 20
608.5097654728726
 10
849.2446286939388
 20
608.5097654728726
 10
849.2446286939388
 20
608.5097654728726
 97
        0
 97
        0
 92
        1
 93
        1
 72
     4
 94
        3
 73
     0
 74
     1
 95
       29
 96
       25
 40
0.0
 40
0.0
 40
0.0
 40
0.0
 40
1.0
 40
1.0
 40
1.0
 40
2.0
 40
2.0
 40
2.0
 40
3.0
 40
3.0
 40
3.0
 40
4.0
 40
4.0
 40
4.0
 40
5.0
 40
5.0
 40
5.0
 40
6.0
 40
6.0
 40
6.0
 40
7.0
 40
7.0
 40
7.0
 40
8.0
 40
8.0
 40
8.0
 40
8.0
 10
850.1997068187001
 20
613.9707029715073
 10
850.1997068187001
 20
613.1699217217075
 10
850.3618161936595
 20
612.5781248468554
 10
850.6860349435784
 20
612.1953123469511
 10
851.0102536934975
 20
611.8124998470469
 10
851.4028318183992
 20
611.6210935970947
 10
851.8637693182841
 20
611.6210935970947
 10
852.3325193181669
 20
611.6210935970947
 10
852.7338865055665
 20
611.8193357845452
 10
853.067870880483
 20
612.215820159446
 10
853.4018552553995
 20
612.6123045343469
 10
853.5688474428578
 20
613.2265623466933
 10
853.5688474428578
 20
614.0585935964854
 10
853.5688474428578
 20
614.8515623462871
 10
853.4057615053986
 20
615.4453123461386
 10
853.0795896304801
 20
615.83984359604
 10
852.7534177555616
 20
616.2343748459414
 10
852.363769318159
 20
616.431640470892
 10
851.9106443182724
 20
616.431640470892
 10
851.4614255683846
 20
616.431640470892
 10
851.063964630984
 20
616.2216795334446
 10
850.7182615060705
 20
615.8017576585496
 10
850.3725583811569
 20
615.3818357836545
 10
850.1997068187001
 20
614.7714842213071
 10
850.1997068187001
 20
613.9707029715073
 97
        0
 97
        0
 75
     2
 76
     1
 98
        0
  0
SPLINE
  5
A8
330
78
100
AcDbEntity
  8
0
 62
   240
420
 15539236
370
    35
100
AcDbSpline
210
0.0
220
0.0
230
1.0
 70
    11
 71
     3
 72
    50
 73
    46
 74
     0
 42
0.0000000001
 43
0.0000000001
 12
1.0
 22
0.0
 32
0.0
 13
1.0
 23
0.0
 33
0.0
 40
0.0
 40
0.0
 40
0.0
 40
0.0
 40
1.0
 40
1.0
 40
1.0
 40
2.0
 40
2.0
 40
2.0
 40
3.0
 40
3.0
 40
3.0
 40
4.0
 40
4.0
 40
4.0
 40
5.0
 40
5.0
 40
5.0
 40
6.0
 40
6.0
 40
6.0
 40
7.0
 40
7.0
 40
7.0
 40
8.0
 40
8.0
 40
8.0
 40
9.0
 40
9.0
 40
9.0
 40
10.0
 40
10.0
 40
10.0
 40
11.0
 40
11.0
 40
11.0
 40
12.0
 40
12.0
 40
12.0
 40
13.0
 40
13.0
 40
13.0
 40
14.0
 40
14.0
 40
14.0
 40
15.0
 40
15.0
 40
15.0
 40
15.0
 10
860.1782224412054
 20
612.8984373467754
 30
0.0
 10
860.1782224412054
 20
612.8984373467754
 30
0.0
 10
861.2680661909329
 20
612.763671721809
 30
0.0
 10
861.2680661909329
 20
612.763671721809
 30
0.0
 10
861.0961911909759
 20
612.1269529719682
 30
0.0
 10
860.7778318160555
 20
611.6328123470918
 30
0.0
 10
860.3129880661718
 20
611.2812498471797
 30
0.0
 10
859.848144316288
 20
610.9296873472675
 30
0.0
 10
859.2543943164363
 20
610.7539060973115
 30
0.0
 10
858.5317380666171
 20
610.7539060973115
 30
0.0
 10
857.6215818168446
 20
610.7539060973115
 30
0.0
 10
856.899902129525
 20
611.0341795347415
 30
0.0
 10
856.3666990046584
 20
611.5947264096013
 30
0.0
 10
855.8334958797916
 20
612.1552732844611
 30
0.0
 10
855.5668943173582
 20
612.9414060967646
 30
0.0
 10
855.5668943173582
 20
613.9531248465117
 30
0.0
 10
855.5668943173582
 20
614.99999984625
 30
0.0
 10
855.8364255672909
 20
615.8124998460469
 30
0.0
 10
856.3754880671561
 20
616.3906248459024
 30
0.0
 10
856.9145505670214
 20
616.9687498457578
 30
0.0
 10
857.6137693168465
 20
617.2578123456856
 30
0.0
 10
858.4731443166316
 20
617.2578123456856
 30
0.0
 10
859.3051755664237
 20
617.2578123456856
 30
0.0
 10
859.9848630662538
 20
616.9746092207563
 30
0.0
 10
860.5122068161219
 20
616.408202970898
 30
0.0
 10
861.0395505659901
 20
615.8417967210395
 30
0.0
 10
861.3032224409242
 20
615.0449217212388
 30
0.0
 10
861.3032224409242
 20
614.0175779714956
 30
0.0
 10
861.3032224409242
 20
613.9550779715112
 30
0.0
 10
861.3012693159246
 20
613.8613279715347
 30
0.0
 10
861.2973630659257
 20
613.7363279715659
 30
0.0
 10
861.2973630659257
 20
613.7363279715659
 30
0.0
 10
856.6567380670858
 20
613.7363279715659
 30
0.0
 10
856.6567380670858
 20
613.7363279715659
 30
0.0
 10
856.695800567076
 20
613.0527342217368
 30
0.0
 10
856.8891599420277
 20
612.5292967218677
 30
0.0
 10
857.2368161919408
 20
612.1660154719585
 30
0.0
 10
857.5844724418539
 20
611.8027342220493
 30
0.0
 10
858.0180661917454
 20
611.6210935970947
 30
0.0
 10
858.5375974416156
 20
611.6210935970947
 30
0.0
 10
858.9243161915189
 20
611.6210935970947
 30
0.0
 10
859.2543943164363
 20
611.7226560970694
 30
0.0
 10
859.527831816368
 20
611.9257810970186
 30
0.0
 10
859.8012693162997
 20
612.1289060969677
 30
0.0
 10
860.0180661912455
 20
612.4531248468867
 30
0.0
 10
860.1782224412054
 20
612.8984373467754
 30
0.0
  0
SPLINE
  5
A9
330
78
100
AcDbEntity
  8
0
 62
   240
420
 15539236
370
    35
100
AcDbSpline
210
0.0
220
0.0
230
1.0
 70
    11
 71
     3
 72
    20
 73
    16
 74
     0
 42
0.0000000001
 43
0.0000000001
 12
1.0
 22
0.0
 32
0.0
 13
1.0
 23
0.0
 33
0.0
 40
0.0
 40
0.0
 40
0.0
 40
0.0
 40
1.0
 40
1.0
 40
1.0
 40
2.0
 40
2.0
 40
2.0
 40
3.0
 40
3.0
 40
3.0
 40
4.0
 40
4.0
 40
4.0
 40
5.0
 40
5.0
 40
5.0
 40
5.0
 10
856.7153318170712
 20
614.603515471349
 30
0.0
 10
856.7153318170712
 20
614.603515471349
 30
0.0
 10
860.1899411912025
 20
614.603515471349
 30
0.0
 10
860.1899411912025
 20
614.603515471349
 30
0.0
 10
860.1430661912142
 20
615.1269529712182
 30
0.0
 10
860.0102536912474
 20
615.5195310961201
 30
0.0
 10
859.7915036913021
 20
615.7812498460547
 30
0.0
 10
859.4555661913861
 20
616.1874998459531
 30
0.0
 10
859.020019316495
 20
616.3906248459024
 30
0.0
 10
858.4848630666288
 20
616.3906248459024
 30
0.0
 10
858.0004880667499
 20
616.3906248459024
 30
0.0
 10
857.5932615043516
 20
616.2285154709429
 30
0.0
 10
857.2631833794342
 20
615.9042967210239
 30
0.0
 10
856.9331052545167
 20
615.580077971105
 30
0.0
 10
856.7504880670624
 20
615.1464842212133
 30
0.0
 10
856.7153318170712
 20
614.603515471349
 30
0.0
  0
HATCH
  5
AA
330
78
100
AcDbEntity
  8
0
 62
   240
420
 15539236
100
AcDbHatch
 10
0.0
 20
0.0
 30
0.0
210
0.0
220
0.0
230
1.0
  2
SOLID
 70
     1
 71
     0
 91
        2
 92
        1
 93
        1
 72
     4
 94
        3
 73
     0
 74
     1
 95
       50
 96
       46
 40
0.0
 40
0.0
 40
0.0
 40
0.0
 40
1.0
 40
1.0
 40
1.0
 40
2.0
 40
2.0
 40
2.0
 40
3.0
 40
3.0
 40
3.0
 40
4.0
 40
4.0
 40
4.0
 40
5.0
 40
5.0
 40
5.0
 40
6.0
 40
6.0
 40
6.0
 40
7.0
 40
7.0
 40
7.0
 40
8.0
 40
8.0
 40
8.0
 40
9.0
 40
9.0
 40
9.0
 40
10.0
 40
10.0
 40
10.0
 40
11.0
 40
11.0
 40
11.0
 40
12.0
 40
12.0
 40
12.0
 40
13.0
 40
13.0
 40
13.0
 40
14.0
 40
14.0
 40
14.0
 40
15.0
 40
15.0
 40
15.0
 40
15.0
 10
860.1782224412054
 20
612.8984373467754
 10
860.1782224412054
 20
612.8984373467754
 10
861.2680661909329
 20
612.763671721809
 10
861.2680661909329
 20
612.763671721809
 10
861.0961911909759
 20
612.1269529719682
 10
860.7778318160555
 20
611.6328123470918
 10
860.3129880661718
 20
611.2812498471797
 10
859.848144316288
 20
610.9296873472675
 10
859.2543943164363
 20
610.7539060973115
 10
858.5317380666171
 20
610.7539060973115
 10
857.6215818168446
 20
610.7539060973115
 10
856.899902129525
 20
611.0341795347415
 10
856.3666990046584
 20
611.5947264096013
 10
855.8334958797916
 20
612.1552732844611
 10
855.5668943173582
 20
612.9414060967646
 10
855.5668943173582
 20
613.9531248465117
 10
855.5668943173582
 20
614.99999984625
 10
855.8364255672909
 20
615.8124998460469
 10
856.3754880671561
 20
616.3906248459024
 10
856.9145505670214
 20
616.9687498457578
 10
857.6137693168465
 20
617.2578123456856
 10
858.4731443166316
 20
617.2578123456856
 10
859.3051755664237
 20
617.2578123456856
 10
859.9848630662538
 20
616.9746092207563
 10
860.5122068161219
 20
616.408202970898
 10
861.0395505659901
 20
615.8417967210395
 10
861.3032224409242
 20
615.0449217212388
 10
861.3032224409242
 20
614.0175779714956
 10
861.3032224409242
 20
613.9550779715112
 10
861.3012693159246
 20
613.8613279715347
 10
861.2973630659257
 20
613.7363279715659
 10
861.2973630659257
 20
613.7363279715659
 10
856.6567380670858
 20
613.7363279715659
 10
856.6567380670858
 20
613.7363279715659
 10
856.695800567076
 20
613.0527342217368
 10
856.8891599420277
 20
612.5292967218677
 10
857.2368161919408
 20
612.1660154719585
 10
857.5844724418539
 20
611.8027342220493
 10
858.0180661917454
 20
611.6210935970947
 10
858.5375974416156
 20
611.6210935970947
 10
858.9243161915189
 20
611.6210935970947
 10
859.2543943164363
 20
611.7226560970694
 10
859.527831816368
 20
611.9257810970186
 10
859.8012693162997
 20
612.1289060969677
 10
860.0180661912455
 20
612.4531248468867
 10
860.1782224412054
 20
612.8984373467754
 97
        0
 97
        0
 92
        1
 93
        1
 72
     4
 94
        3
 73
     0
 74
     1
 95
       20
 96
       16
 40
0.0
 40
0.0
 40
0.0
 40
0.0
 40
1.0
 40
1.0
 40
1.0
 40
2.0
 40
2.0
 40
2.0
 40
3.0
 40
3.0
 40
3.0
 40
4.0
 40
4.0
 40
4.0
 40
5.0
 40
5.0
 40
5.0
 40
5.0
 10
856.7153318170712
 20
614.603515471349
 10
856.7153318170712
 20
614.603515471349
 10
860.1899411912025
 20
614.603515471349
 10
860.1899411912025
 20
614.603515471349
 10
860.1430661912142
 20
615.1269529712182
 10
860.0102536912474
 20
615.5195310961201
 10
859.7915036913021
 20
615.7812498460547
 10
859.4555661913861
 20
616.1874998459531
 10
859.020019316495
 20
616.3906248459024
 10
858.4848630666288
 20
616.3906248459024
 10
858.0004880667499
 20
616.3906248459024
 10
857.5932615043516
 20
616.2285154709429
 10
857.2631833794342
 20
615.9042967210239
 10
856.9331052545167
 20
615.580077971105
 10
856.7504880670624
 20
615.1464842212133
 10
856.7153318170712
 20
614.603515471349
 97
        0
 97
        0
 75
     2
 76
     1
 98
        0
  0
SPLINE
  5
AB
330
78
100
AcDbEntity
  8
0
 62
   240
420
 15539236
370
    35
100
AcDbSpline
210
0.0
220
0.0
230
1.0
 70
    11
 71
     3
 72
    47
 73
    43
 74
     0
 42
0.0000000001
 43
0.0000000001
 12
1.0
 22
0.0
 32
0.0
 13
1.0
 23
0.0
 33
0.0
 40
0.0
 40
0.0
 40
0.0
 40
0.0
 40
1.0
 40
1.0
 40
1.0
 40
2.0
 40
2.0
 40
2.0
 40
3.0
 40
3.0
 40
3.0
 40
4.0
 40
4.0
 40
4.0
 40
5.0
 40
5.0
 40
5.0
 40
6.0
 40
6.0
 40
6.0
 40
7.0
 40
7.0
 40
7.0
 40
8.0
 40
8.0
 40
8.0
 40
9.0
 40
9.0
 40
9.0
 40
10.0
 40
10.0
 40
10.0
 40
11.0
 40
11.0
 40
11.0
 40
12.0
 40
12.0
 40
12.0
 40
13.0
 40
13.0
 40
13.0
 40
14.0
 40
14.0
 40
14.0
 40
14.0
 10
866.6293943145927
 20
610.8945310972764
 30
0.0
 10
866.6293943145927
 20
610.8945310972764
 30
0.0
 10
866.6293943145927
 20
611.6796873470801
 30
0.0
 10
866.6293943145927
 20
611.6796873470801
 30
0.0
 10
866.2348630646912
 20
611.0624998472343
 30
0.0
 10
865.6547849398363
 20
610.7539060973115
 30
0.0
 10
864.8891599400276
 20
610.7539060973115
 30
0.0
 10
864.3930661901517
 20
610.7539060973115
 30
0.0
 10
863.9370115027657
 20
610.8906248472773
 30
0.0
 10
863.5209958778697
 20
611.164062347209
 30
0.0
 10
863.1049802529737
 20
611.4374998471407
 30
0.0
 10
862.7827146280544
 20
611.8193357845452
 30
0.0
 10
862.5541990031114
 20
612.3095701594226
 30
0.0
 10
862.3256833781686
 20
612.7998045343
 30
0.0
 10
862.2114255656971
 20
613.3632810966592
 30
0.0
 10
862.2114255656971
 20
613.9999998465
 30
0.0
 10
862.2114255656971
 20
614.6210935963447
 30
0.0
 10
862.3149411906712
 20
615.1845701587039
 30
0.0
 10
862.5219724406195
 20
615.6904295335773
 30
0.0
 10
862.7290036905678
 20
616.1962889084509
 30
0.0
 10
863.0395505654901
 20
616.583984220854
 30
0.0
 10
863.4536130653865
 20
616.8535154707866
 30
0.0
 10
863.8676755652831
 20
617.1230467207192
 30
0.0
 10
864.3305661901674
 20
617.2578123456856
 30
0.0
 10
864.8422849400395
 20
617.2578123456856
 30
0.0
 10
865.2172849399457
 20
617.2578123456856
 30
0.0
 10
865.5512693148621
 20
617.1787107832054
 30
0.0
 10
865.8442380647889
 20
617.0205076582448
 30
0.0
 10
866.1372068147157
 20
616.8623045332844
 30
0.0
 10
866.3754880646561
 20
616.6562498458359
 30
0.0
 10
866.5590818146102
 20
616.4023435958994
 30
0.0
 10
866.5590818146102
 20
616.4023435958994
 30
0.0
 10
866.5590818146102
 20
619.4843748451289
 30
0.0
 10
866.5590818146102
 20
619.4843748451289
 30
0.0
 10
866.5590818146102
 20
619.4843748451289
 30
0.0
 10
867.607909939348
 20
619.4843748451289
 30
0.0
 10
867.607909939348
 20
619.4843748451289
 30
0.0
 10
867.607909939348
 20
619.4843748451289
 30
0.0
 10
867.607909939348
 20
610.8945310972764
 30
0.0
 10
867.607909939348
 20
610.8945310972764
 30
0.0
 10
867.607909939348
 20
610.8945310972764
 30
0.0
 10
866.6293943145927
 20
610.8945310972764
 30
0.0
 10
866.6293943145927
 20
610.8945310972764
 30
0.0
  0
SPLINE
  5
AC
330
78
100
AcDbEntity
  8
0
 62
   240
420
 15539236
370
    35
100
AcDbSpline
210
0.0
220
0.0
230
1.0
 70
    11
 71
     3
 72
    29
 73
    25
 74
     0
 42
0.0000000001
 43
0.0000000001
 12
1.0
 22
0.0
 32
0.0
 13
1.0
 23
0.0
 33
0.0
 40
0.0
 40
0.0
 40
0.0
 40
0.0
 40
1.0
 40
1.0
 40
1.0
 40
2.0
 40
2.0
 40
2.0
 40
3.0
 40
3.0
 40
3.0
 40
4.0
 40
4.0
 40
4.0
 40
5.0
 40
5.0
 40
5.0
 40
6.0
 40
6.0
 40
6.0
 40
7.0
 40
7.0
 40
7.0
 40
8.0
 40
8.0
 40
8.0
 40
8.0
 10
863.2954099404261
 20
613.9999998465
 30
0.0
 10
863.2954099404261
 20
613.2031248466992
 30
0.0
 10
863.4633786903842
 20
612.6074217218481
 30
0.0
 10
863.7993161903001
 20
612.2128904719468
 30
0.0
 10
864.1352536902161
 20
611.8183592220454
 30
0.0
 10
864.531738065117
 20
611.6210935970947
 30
0.0
 10
864.9887693150027
 20
611.6210935970947
 30
0.0
 10
865.4497068148876
 20
611.6210935970947
 30
0.0
 10
865.8413083772897
 20
611.8095701595475
 30
0.0
 10
866.1635740022091
 20
612.1865232844533
 30
0.0
 10
866.4858396271285
 20
612.5634764093592
 30
0.0
 10
866.6469724395882
 20
613.1386717217154
 30
0.0
 10
866.6469724395882
 20
613.912109221522
 30
0.0
 10
866.6469724395882
 20
614.763671721309
 30
0.0
 10
866.4829099396293
 20
615.3886717211528
 30
0.0
 10
866.1547849397112
 20
615.7871092210532
 30
0.0
 10
865.8266599397933
 20
616.1855467209537
 30
0.0
 10
865.4223630648944
 20
616.3847654709037
 30
0.0
 10
864.9418943150146
 20
616.3847654709037
 30
0.0
 10
864.4731443151317
 20
616.3847654709037
 30
0.0
 10
864.0815427527295
 20
616.1933592209516
 30
0.0
 10
863.7670896278082
 20
615.8105467210473
 30
0.0
 10
863.4526365028868
 20
615.427734221143
 30
0.0
 10
863.2954099404261
 20
614.8242185962939
 30
0.0
 10
863.2954099404261
 20
613.9999998465
 30
0.0
  0
HATCH
  5
AD
330
78
100
AcDbEntity
  8
0
 62
   240
420
 15539236
100
AcDbHatch
 10
0.0
 20
0.0
 30
0.0
210
0.0
220
0.0
230
1.0
  2
SOLID
 70
     1
 71
     0
 91
        2
 92
        1
 93
        1
 72
     4
 94
        3
 73
     0
 74
     1
 95
       47
 96
       43
 40
0.0
 40
0.0
 40
0.0
 40
0.0
 40
1.0
 40
1.0
 40
1.0
 40
2.0
 40
2.0
 40
2.0
 40
3.0
 40
3.0
 40
3.0
 40
4.0
 40
4.0
 40
4.0
 40
5.0
 40
5.0
 40
5.0
 40
6.0
 40
6.0
 40
6.0
 40
7.0
 40
7.0
 40
7.0
 40
8.0
 40
8.0
 40
8.0
 40
9.0
 40
9.0
 40
9.0
 40
10.0
 40
10.0
 40
10.0
 40
11.0
 40
11.0
 40
11.0
 40
12.0
 40
12.0
 40
12.0
 40
13.0
 40
13.0
 40
13.0
 40
14.0
 40
14.0
 40
14.0
 40
14.0
 10
866.6293943145927
 20
610.8945310972764
 10
866.6293943145927
 20
610.8945310972764
 10
866.6293943145927
 20
611.6796873470801
 10
866.6293943145927
 20
611.6796873470801
 10
866.2348630646912
 20
611.0624998472343
 10
865.6547849398363
 20
610.7539060973115
 10
864.8891599400276
 20
610.7539060973115
 10
864.3930661901517
 20
610.7539060973115
 10
863.9370115027657
 20
610.8906248472773
 10
863.5209958778697
 20
611.164062347209
 10
863.1049802529737
 20
611.4374998471407
 10
862.7827146280544
 20
611.8193357845452
 10
862.5541990031114
 20
612.3095701594226
 10
862.3256833781686
 20
612.7998045343
 10
862.2114255656971
 20
613.3632810966592
 10
862.2114255656971
 20
613.9999998465
 10
862.2114255656971
 20
614.6210935963447
 10
862.3149411906712
 20
615.1845701587039
 10
862.5219724406195
 20
615.6904295335773
 10
862.7290036905678
 20
616.1962889084509
 10
863.0395505654901
 20
616.583984220854
 10
863.4536130653865
 20
616.8535154707866
 10
863.8676755652831
 20
617.1230467207192
 10
864.3305661901674
 20
617.2578123456856
 10
864.8422849400395
 20
617.2578123456856
 10
865.2172849399457
 20
617.2578123456856
 10
865.5512693148621
 20
617.1787107832054
 10
865.8442380647889
 20
617.0205076582448
 10
866.1372068147157
 20
616.8623045332844
 10
866.3754880646561
 20
616.6562498458359
 10
866.5590818146102
 20
616.4023435958994
 10
866.5590818146102
 20
616.4023435958994
 10
866.5590818146102
 20
619.4843748451289
 10
866.5590818146102
 20
619.4843748451289
 10
866.5590818146102
 20
619.4843748451289
 10
867.607909939348
 20
619.4843748451289
 10
867.607909939348
 20
619.4843748451289
 10
867.607909939348
 20
619.4843748451289
 10
867.607909939348
 20
610.8945310972764
 10
867.607909939348
 20
610.8945310972764
 10
867.607909939348
 20
610.8945310972764
 10
866.6293943145927
 20
610.8945310972764
 10
866.6293943145927
 20
610.8945310972764
 97
        0
 97
        0
 92
        1
 93
        1
 72
     4
 94
        3
 73
     0
 74
     1
 95
       29
 96
       25
 40
0.0
 40
0.0
 40
0.0
 40
0.0
 40
1.0
 40
1.0
 40
1.0
 40
2.0
 40
2.0
 40
2.0
 40
3.0
 40
3.0
 40
3.0
 40
4.0
 40
4.0
 40
4.0
 40
5.0
 40
5.0
 40
5.0
 40
6.0
 40
6.0
 40
6.0
 40
7.0
 40
7.0
 40
7.0
 40
8.0
 40
8.0
 40
8.0
 40
8.0
 10
863.2954099404261
 20
613.9999998465
 10
863.2954099404261
 20
613.2031248466992
 10
863.4633786903842
 20
612.6074217218481
 10
863.7993161903001
 20
612.2128904719468
 10
864.1352536902161
 20
611.8183592220454
 10
864.531738065117
 20
611.6210935970947
 10
864.9887693150027
 20
611.6210935970947
 10
865.4497068148876
 20
611.6210935970947
 10
865.8413083772897
 20
611.8095701595475
 10
866.1635740022091
 20
612.1865232844533
 10
866.4858396271285
 20
612.5634764093592
 10
866.6469724395882
 20
613.1386717217154
 10
866.6469724395882
 20
613.912109221522
 10
866.6469724395882
 20
614.763671721309
 10
866.4829099396293
 20
615.3886717211528
 10
866.1547849397112
 20
615.7871092210532
 10
865.8266599397933
 20
616.1855467209537
 10
865.4223630648944
 20
616.3847654709037
 10
864.9418943150146
 20
616.3847654709037
 10
864.4731443151317
 20
616.3847654709037
 10
864.0815427527295
 20
616.1933592209516
 10
863.7670896278082
 20
615.8105467210473
 10
863.4526365028868
 20
615.427734221143
 10
863.2954099404261
 20
614.8242185962939
 10
863.2954099404261
 20
613.9999998465
 97
        0
 97
        0
 75
     2
 76
     1
 98
        0
  0
POLYLINE
  5
AE
330
78
100
AcDbEntity
  8
0
 62
   240
420
 15539236
370
    35
100
AcDb2dPolyline
 66
     1
 10
0.0
 20
0.0
 30
0.0
  0
VERTEX
  5
AF
330
AE
100
AcDbEntity
  8
0
 62
   240
420
 15539236
370
    35
100
AcDbVertex
100
AcDb2dVertex
 10
881.9106443107723
 20
619.0273435952431
 30
0.0
  0
VERTEX
  5
B0
330
AE
100
AcDbEntity
  8
0
 62
   240
420
 15539236
370
    35
100
AcDbVertex
100
AcDb2dVertex
 10
877.7504880618123
 20
610.7128904723218
 30
0.0
  0
VERTEX
  5
B1
330
AE
100
AcDbEntity
  8
0
 62
   240
420
 15539236
370
    35
100
AcDbVertex
100
AcDb2dVertex
 10
873.5903318128524
 20
619.0273435952431
 30
0.0
  0
VERTEX
  5
B2
330
AE
100
AcDbEntity
  8
0
 62
   240
420
 15539236
370
    35
100
AcDbVertex
100
AcDb2dVertex
 10
881.9106443107723
 20
619.0273435952431
 30
0.0
  0
SEQEND
  5
B3
330
AE
100
AcDbEntity
  8
0
 62
   240
420
 15539236
370
    35
  0
HATCH
  5
B4
330
78
100
AcDbEntity
  8
0
 62
   240
420
 15539236
100
AcDbHatch
 10
0.0
 20
0.0
 30
0.0
210
0.0
220
0.0
230
1.0
  2
SOLID
 70
     1
 71
     0
 91
        1
 92
        1
 93
        3
 72
     1
 10
881.9106443107723
 20
619.0273435952431
 11
877.7504880618123
 21
610.7128904723218
 72
     1
 10
877.7504880618123
 20
610.7128904723218
 11
873.5903318128524
 21
619.0273435952431
 72
     1
 10
873.5903318128524
 20
619.0273435952431
 11
881.9106443107723
 21
619.0273435952431
 97
        0
 75
     2
 76
     1
 98
        0
  0
ENDBLK
  5
7B
330
78
100
AcDbEntity
  8
0
100
AcDbBlockEnd
  0
ENDSEC
  0
SECTION
  2
ENTITIES
  0
INSERT
  5
41
330
1F
100
AcDbEntity
  8
0
100
AcDbBlockReference
  2
block 2
 10
0.0
 20
0.0
 30
0.0
  0
INSERT
  5
46
330
1F
100
AcDbEntity
  8
0
100
AcDbBlockReference
  2
block 3
 10
0.0
 20
0.0
 30
0.0
  0
INSERT
  5
51
330
1F
100
AcDbEntity
  8
0
100
AcDbBlockReference
  2
block 4
 10
0.0
 20
0.0
 30
0.0
  0
INSERT
  5
56
330
1F
100
AcDbEntity
  8
0
100
AcDbBlockReference
  2
block 5
 10
0.0
 20
0.0
 30
0.0
  0
INSERT
  5
5B
330
1F
100
AcDbEntity
  8
0
100
AcDbBlockReference
  2
block 6
 10
0.0
 20
0.0
 30
0.0
  0
INSERT
  5
60
330
1F
100
AcDbEntity
  8
0
100
AcDbBlockReference
  2
block 7
 10
0.0
 20
0.0
 30
0.0
  0
INSERT
  5
65
330
1F
100
AcDbEntity
  8
0
100
AcDbBlockReference
  2
block 8
 10
0.0
 20
0.0
 30
0.0
  0
INSERT
  5
6A
330
1F
100
AcDbEntity
  8
0
100
AcDbBlockReference
  2
block 9
 10
0.0
 20
0.0
 30
0.0
  0
INSERT
  5
6F
330
1F
100
AcDbEntity
  8
0
100
AcDbBlockReference
  2
block 10
 10
0.0
 20
0.0
 30
0.0
  0
INSERT
  5
74
330
1F
100
AcDbEntity
  8
0
100
AcDbBlockReference
  2
block 11
 10
0.0
 20
0.0
 30
0.0
  0
INSERT
  5
79
330
1F
100
AcDbEntity
  8
0
100
AcDbBlockReference
  2
block 12
 10
0.0
 20
0.0
 30
0.0
  0
ENDSEC
  0
SECTION
  2
OBJECTS
  0
DICTIONARY
  5
C
330
0
100
AcDbDictionary
281
     1
  3
ACAD_GROUP
350
D
  3
ACAD_LAYOUT
350
1A
  3
ACAD_MATERIAL
350
3B
  3
ACAD_MLEADERSTYLE
350
B6
  3
ACAD_MLINESTYLE
350
17
  3
ACAD_PLOTSETTINGS
350
19
  3
ACAD_PLOTSTYLENAME
350
E
  3
ACAD_TABLESTYLE
350
B5
  3
ACAD_VISUALSTYLE
350
2A
  0
SUN
  5
3F
330
29
100
AcDbSun
 90
        1
290
     0
 63
     7
421
 16777215
 40
1.0
291
     1
 91
  2455826
 92
 54000000
292
     0
 70
     2
 71
   256
280
     1
  0
DICTIONARY
  5
D
102
{ACAD_REACTORS
330
C
102
}
330
C
100
AcDbDictionary
281
     1
  0
DICTIONARY
  5
1A
102
{ACAD_REACTORS
330
C
102
}
330
C
100
AcDbDictionary
281
     1
  3
Layout1
350
1E
  3
Layout2
350
26
  3
Model
350
22
  0
DICTIONARY
  5
3B
102
{ACAD_REACTORS
330
C
102
}
330
C
100
AcDbDictionary
281
     1
  3
ByBlock
350
3D
  3
ByLayer
350
3C
  3
Global
350
3E
  0
DICTIONARY
  5
B6
102
{ACAD_REACTORS
330
C
102
}
330
C
100
AcDbDictionary
281
     1
  0
DICTIONARY
  5
17
102
{ACAD_REACTORS
330
C
102
}
330
C
100
AcDbDictionary
281
     1
  3
Standard
350
18
  0
DICTIONARY
  5
19
102
{ACAD_REACTORS
330
C
102
}
330
C
100
AcDbDictionary
281
     1
  0
ACDBDICTIONARYWDFLT
  5
E
102
{ACAD_REACTORS
330
C
102
}
330
C
100
AcDbDictionary
281
     1
  3
Normal
350
F
100
AcDbDictionaryWithDefault
340
F
  0
DICTIONARY
  5
B5
102
{ACAD_REACTORS
330
C
102
}
330
C
100
AcDbDictionary
281
     1
  0
DICTIONARY
  5
2A
102
{ACAD_REACTORS
330
C
102
}
330
C
100
AcDbDictionary
281
     1
  3
2dWireframe
350
2F
  3
3D Hidden
350
31
  3
3dWireframe
350
30
  3
Basic
350
32
  3
Brighten
350
36
  3
ColorChange
350
3A
  3
Conceptual
350
34
  3
Dim
350
35
  3
Facepattern
350
39
  3
Flat
350
2B
  3
FlatWithEdges
350
2C
  3
Gouraud
350
2D
  3
GouraudWithEdges
350
2E
  3
Linepattern
350
38
  3
Realistic
350
33
  3
Thicken
350
37
  0
LAYOUT
  5
1E
102
{ACAD_REACTORS
330
1A
102
}
330
1A
100
AcDbPlotSettings
  1

  2
none_device
  4

  6

 40
0.0
 41
0.0
 42
0.0
 43
0.0
 44
0.0
 45
0.0
 46
0.0
 47
0.0
 48
0.0
 49
0.0
140
0.0
141
0.0
142
1.0
143
1.0
 70
   688
 72
     0
 73
     0
 74
     5
  7

 75
    16
 76
     0
 77
     2
 78
   300
147
1.0
148
0.0
149
0.0
100
AcDbLayout
  1
Layout1
 70
     1
 71
     1
 10
0.0
 20
0.0
 11
12.0
 21
9.0
 12
0.0
 22
0.0
 32
0.0
 14
1.000000000000000E+20
 24
1.000000000000000E+20
 34
1.000000000000000E+20
 15
-1.000000000000000E+20
 25
-1.000000000000000E+20
 35
-1.000000000000000E+20
146
0.0
 13
0.0
 23
0.0
 33
0.0
 16
1.0
 26
0.0
 36
0.0
 17
0.0
 27
1.0
 37
0.0
 76
     0
330
1B
  0
LAYOUT
  5
26
102
{ACAD_REACTORS
330
1A
102
}
330
1A
100
AcDbPlotSettings
  1

  2
none_device
  4

  6

 40
0.0
 41
0.0
 42
0.0
 43
0.0
 44
0.0
 45
0.0
 46
0.0
 47
0.0
 48
0.0
 49
0.0
140
0.0
141
0.0
142
1.0
143
1.0
 70
   688
 72
     0
 73
     0
 74
     5
  7

 75
    16
 76
     0
 77
     2
 78
   300
147
1.0
148
0.0
149
0.0
100
AcDbLayout
  1
Layout2
 70
     1
 71
     2
 10
0.0
 20
0.0
 11
0.0
 21
0.0
 12
0.0
 22
0.0
 32
0.0
 14
0.0
 24
0.0
 34
0.0
 15
0.0
 25
0.0
 35
0.0
146
0.0
 13
0.0
 23
0.0
 33
0.0
 16
1.0
 26
0.0
 36
0.0
 17
0.0
 27
1.0
 37
0.0
 76
     0
330
23
  0
LAYOUT
  5
22
102
{ACAD_REACTORS
330
1A
102
}
330
1A
100
AcDbPlotSettings
  1

  2
none_device
  4

  6

 40
0.0
 41
0.0
 42
0.0
 43
0.0
 44
0.0
 45
0.0
 46
0.0
 47
0.0
 48
0.0
 49
0.0
140
0.0
141
0.0
142
1.0
143
1.0
 70
  1712
 72
     0
 73
     0
 74
     0
  7

 75
     0
 76
     0
 77
     2
 78
   300
147
1.0
148
0.0
149
0.0
100
AcDbLayout
  1
Model
 70
     1
 71
     0
 10
0.0
 20
0.0
 11
12.0
 21
9.0
 12
0.0
 22
0.0
 32
0.0
 14
1.000000000000000E+20
 24
1.000000000000000E+20
 34
1.000000000000000E+20
 15
-1.000000000000000E+20
 25
-1.000000000000000E+20
 35
-1.000000000000000E+20
146
0.0
 13
0.0
 23
0.0
 33
0.0
 16
1.0
 26
0.0
 36
0.0
 17
0.0
 27
1.0
 37
0.0
 76
     0
330
1F
331
29
  0
MATERIAL
  5
3D
102
{ACAD_REACTORS
330
3B
102
}
330
3B
100
AcDbMaterial
  1
ByBlock
 72
     1
 94
      127
  0
MATERIAL
  5
3C
102
{ACAD_REACTORS
330
3B
102
}
330
3B
100
AcDbMaterial
  1
ByLayer
 72
     1
 94
      127
  0
MATERIAL
  5
3E
102
{ACAD_REACTORS
330
3B
102
}
330
3B
100
AcDbMaterial
  1
Global
 72
     1
 94
      127
  0
MLINESTYLE
  5
18
102
{ACAD_REACTORS
330
17
102
}
330
17
100
AcDbMlineStyle
  2
Standard
 70
     0
  3

 62
   256
 51
90.0
 52
90.0
 71
     2
 49
0.5
 62
   256
  6
BYLAYER
 49
-0.5
 62
   256
  6
BYLAYER
  0
ACDBPLACEHOLDER
  5
F
102
{ACAD_REACTORS
330
E
102
}
330
E
  0
VISUALSTYLE
  5
2F
102
{ACAD_REACTORS
330
2A
102
}
330
2A
100
AcDbVisualStyle
  2
2dWireframe
 70
     4
177
     2
291
     0
 71
     0
176
     1
 72
     2
176
     1
 73
     0
176
     1
 90
        0
176
     1
 40
-0.6
176
     1
 41
-30.0
176
     1
 62
     5
 63
     7
421
 16777215
176
     1
 74
     1
176
     1
 91
        4
176
     1
 64
     7
176
     1
 65
   257
176
     1
 75
     1
176
     1
175
     1
176
     1
 42
1.0
176
     1
 92
        0
176
     1
 66
   257
176
     1
 43
1.0
176
     1
 76
     1
176
     1
 77
     6
176
     1
 78
     2
176
     1
 67
     7
176
     1
 79
     5
176
     1
170
     0
176
     1
171
     0
176
     1
290
     0
176
     1
 93
        1
176
     1
 44
0.0
176
     1
173
     0
176
     1
  0
VISUALSTYLE
  5
31
102
{ACAD_REACTORS
330
2A
102
}
330
2A
100
AcDbVisualStyle
  2
3D Hidden
 70
     6
177
     2
291
     0
 71
     1
176
     1
 72
     2
176
     1
 73
     2
176
     1
 90
        0
176
     1
 40
-0.6
176
     1
 41
-30.0
176
     1
 62
     5
 63
     7
421
 16777215
176
     1
 74
     2
176
     1
 91
        2
176
     1
 64
     7
176
     1
 65
   257
176
     1
 75
     2
176
     1
175
     1
176
     1
 42
40.0
176
     1
 92
        0
176
     1
 66
   257
176
     1
 43
1.0
176
     1
 76
     1
176
     1
 77
     6
176
     1
 78
     2
176
     1
 67
     7
176
     1
 79
     3
176
     1
170
     0
176
     1
171
     0
176
     1
290
     0
176
     1
 93
        1
176
     1
 44
0.0
176
     1
173
     0
176
     1
  0
VISUALSTYLE
  5
30
102
{ACAD_REACTORS
330
2A
102
}
330
2A
100
AcDbVisualStyle
  2
3dWireframe
 70
     5
177
     2
291
     0
 71
     0
176
     1
 72
     2
176
     1
 73
     0
176
     1
 90
        0
176
     1
 40
-0.6
176
     1
 41
-30.0
176
     1
 62
     5
 63
     7
421
 16777215
176
     1
 74
     1
176
     1
 91
        4
176
     1
 64
     7
176
     1
 65
   257
176
     1
 75
     1
176
     1
175
     1
176
     1
 42
1.0
176
     1
 92
        0
176
     1
 66
   257
176
     1
 43
1.0
176
     1
 76
     1
176
     1
 77
     6
176
     1
 78
     2
176
     1
 67
     7
176
     1
 79
     5
176
     1
170
     0
176
     1
171
     0
176
     1
290
     0
176
     1
 93
        1
176
     1
 44
0.0
176
     1
173
     0
176
     1
  0
VISUALSTYLE
  5
32
102
{ACAD_REACTORS
330
2A
102
}
330
2A
100
AcDbVisualStyle
  2
Basic
 70
     7
177
     2
291
     1
 71
     1
176
     1
 72
     0
176
     1
 73
     1
176
     1
 90
        0
176
     1
 40
-0.6
176
     1
 41
-30.0
176
     1
 62
     5
 63
     7
421
 16777215
176
     1
 74
     0
176
     1
 91
        4
176
     1
 64
     7
176
     1
 65
   257
176
     1
 75
     1
176
     1
175
     1
176
     1
 42
1.0
176
     1
 92
        8
176
     1
 66
     7
176
     1
 43
1.0
176
     1
 76
     1
176
     1
 77
     6
176
     1
 78
     2
176
     1
 67
     7
176
     1
 79
     5
176
     1
170
     0
176
     1
171
     0
176
     1
290
     0
176
     1
 93
        1
176
     1
 44
0.0
176
     1
173
     0
176
     1
  0
VISUALSTYLE
  5
36
102
{ACAD_REACTORS
330
2A
102
}
330
2A
100
AcDbVisualStyle
  2
Brighten
 70
    12
177
     2
291
     1
 71
     2
176
     1
 72
     2
176
     1
 73
     0
176
     1
 90
        0
176
     1
 40
-0.6
176
     1
 41
-30.0
176
     1
 62
     5
 63
     7
421
 16777215
176
     1
 74
     1
176
     1
 91
        4
176
     1
 64
     7
176
     1
 65
   257
176
     1
 75
     1
176
     1
175
     1
176
     1
 42
1.0
176
     1
 92
        8
176
     1
 66
     7
176
     1
 43
1.0
176
     1
 76
     1
176
     1
 77
     6
176
     1
 78
     2
176
     1
 67
     7
176
     1
 79
     5
176
     1
170
     0
176
     1
171
     0
176
     1
290
     0
176
     1
 93
        1
176
     1
 44
50.0
176
     1
173
     0
176
     1
  0
VISUALSTYLE
  5
3A
102
{ACAD_REACTORS
330
2A
102
}
330
2A
100
AcDbVisualStyle
  2
ColorChange
 70
    16
177
     2
291
     1
 71
     2
176
     1
 72
     2
176
     1
 73
     3
176
     1
 90
        0
176
     1
 40
-0.6
176
     1
 41
-30.0
176
     1
 62
     5
 63
     8
421
  8421504
176
     1
 74
     1
176
     1
 91
        4
176
     1
 64
     7
176
     1
 65
   257
176
     1
 75
     1
176
     1
175
     1
176
     1
 42
1.0
176
     1
 92
        8
176
     1
 66
     8
424
  8421504
176
     1
 43
1.0
176
     1
 76
     1
176
     1
 77
     6
176
     1
 78
     2
176
     1
 67
     7
176
     1
 79
     5
176
     1
170
     0
176
     1
171
     0
176
     1
290
     0
176
     1
 93
        1
176
     1
 44
0.0
176
     1
173
     0
176
     1
  0
VISUALSTYLE
  5
34
102
{ACAD_REACTORS
330
2A
102
}
330
2A
100
AcDbVisualStyle
  2
Conceptual
 70
     9
177
     2
291
     0
 71
     3
176
     1
 72
     2
176
     1
 73
     0
176
     1
 90
        0
176
     1
 40
-0.6
176
     1
 41
-30.0
176
     1
 62
     5
 63
     7
421
 16777215
176
     1
 74
     2
176
     1
 91
        2
176
     1
 64
     7
176
     1
 65
   257
176
     1
 75
     1
176
     1
175
     1
176
     1
 42
40.0
176
     1
 92
        8
176
     1
 66
     7
176
     1
 43
1.0
176
     1
 76
     1
176
     1
 77
     6
176
     1
 78
     2
176
     1
 67
     7
176
     1
 79
     3
176
     1
170
     0
176
     1
171
     0
176
     1
290
     0
176
     1
 93
        1
176
     1
 44
0.0
176
     1
173
     0
176
     1
  0
VISUALSTYLE
  5
35
102
{ACAD_REACTORS
330
2A
102
}
330
2A
100
AcDbVisualStyle
  2
Dim
 70
    11
177
     2
291
     1
 71
     2
176
     1
 72
     2
176
     1
 73
     0
176
     1
 90
        0
176
     1
 40
-0.6
176
     1
 41
-30.0
176
     1
 62
     5
 63
     7
421
 16777215
176
     1
 74
     1
176
     1
 91
        4
176
     1
 64
     7
176
     1
 65
   257
176
     1
 75
     1
176
     1
175
     1
176
     1
 42
1.0
176
     1
 92
        8
176
     1
 66
     7
176
     1
 43
1.0
176
     1
 76
     1
176
     1
 77
     6
176
     1
 78
     2
176
     1
 67
     7
176
     1
 79
     5
176
     1
170
     0
176
     1
171
     0
176
     1
290
     0
176
     1
 93
        1
176
     1
 44
-50.0
176
     1
173
     0
176
     1
  0
VISUALSTYLE
  5
39
102
{ACAD_REACTORS
330
2A
102
}
330
2A
100
AcDbVisualStyle
  2
Facepattern
 70
    15
177
     2
291
     1
 71
     2
176
     1
 72
     2
176
     1
 73
     0
176
     1
 90
        0
176
     1
 40
-0.6
176
     1
 41
-30.0
176
     1
 62
     5
 63
     7
421
 16777215
176
     1
 74
     1
176
     1
 91
        4
176
     1
 64
     7
176
     1
 65
   257
176
     1
 75
     1
176
     1
175
     1
176
     1
 42
1.0
176
     1
 92
        8
176
     1
 66
     7
176
     1
 43
1.0
176
     1
 76
     1
176
     1
 77
     6
176
     1
 78
     2
176
     1
 67
     7
176
     1
 79
     5
176
     1
170
     0
176
     1
171
     0
176
     1
290
     0
176
     1
 93
        1
176
     1
 44
0.0
176
     1
173
     0
176
     1
  0
VISUALSTYLE
  5
2B
102
{ACAD_REACTORS
330
2A
102
}
330
2A
100
AcDbVisualStyle
  2
Flat
 70
     0
177
     2
291
     1
 71
     2
176
     1
 72
     1
176
     1
 73
     1
176
     1
 90
        2
176
     1
 40
-0.6
176
     1
 41
30.0
176
     1
 62
     5
 63
     7
421
 16777215
176
     1
 74
     0
176
     1
 91
        4
176
     1
 64
     7
176
     1
 65
   257
176
     1
 75
     1
176
     1
175
     1
176
     1
 42
1.0
176
     1
 92
        8
176
     1
 66
     7
176
     1
 43
1.0
176
     1
 76
     1
176
     1
 77
     6
176
     1
 78
     2
176
     1
 67
     7
176
     1
 79
     5
176
     1
170
     0
176
     1
171
     0
176
     1
290
     0
176
     1
 93
       13
176
     1
 44
0.0
176
     1
173
     0
176
     1
  0
VISUALSTYLE
  5
2C
102
{ACAD_REACTORS
330
2A
102
}
330
2A
100
AcDbVisualStyle
  2
FlatWithEdges
 70
     1
177
     2
291
     1
 71
     2
176
     1
 72
     1
176
     1
 73
     1
176
     1
 90
        2
176
     1
 40
-0.6
176
     1
 41
30.0
176
     1
 62
     5
 63
     7
421
 16777215
176
     1
 74
     1
176
     1
 91
        4
176
     1
 64
     7
176
     1
 65
   257
176
     1
 75
     1
176
     1
175
     1
176
     1
 42
1.0
176
     1
 92
        0
176
     1
 66
   257
176
     1
 43
1.0
176
     1
 76
     1
176
     1
 77
     6
176
     1
 78
     2
176
     1
 67
     7
176
     1
 79
     5
176
     1
170
     0
176
     1
171
     0
176
     1
290
     0
176
     1
 93
       13
176
     1
 44
0.0
176
     1
173
     0
176
     1
  0
VISUALSTYLE
  5
2D
102
{ACAD_REACTORS
330
2A
102
}
330
2A
100
AcDbVisualStyle
  2
Gouraud
 70
     2
177
     2
291
     1
 71
     2
176
     1
 72
     2
176
     1
 73
     1
176
     1
 90
        2
176
     1
 40
-0.6
176
     1
 41
30.0
176
     1
 62
     5
 63
     7
421
 16777215
176
     1
 74
     0
176
     1
 91
        4
176
     1
 64
     7
176
     1
 65
   257
176
     1
 75
     1
176
     1
175
     1
176
     1
 42
1.0
176
     1
 92
        0
176
     1
 66
     7
176
     1
 43
1.0
176
     1
 76
     1
176
     1
 77
     6
176
     1
 78
     2
176
     1
 67
     7
176
     1
 79
     5
176
     1
170
     0
176
     1
171
     0
176
     1
290
     0
176
     1
 93
       13
176
     1
 44
0.0
176
     1
173
     0
176
     1
  0
VISUALSTYLE
  5
2E
102
{ACAD_REACTORS
330
2A
102
}
330
2A
100
AcDbVisualStyle
  2
GouraudWithEdges
 70
     3
177
     2
291
     1
 71
     2
176
     1
 72
     2
176
     1
 73
     1
176
     1
 90
        2
176
     1
 40
-0.6
176
     1
 41
30.0
176
     1
 62
     5
 63
     7
421
 16777215
176
     1
 74
     1
176
     1
 91
        4
176
     1
 64
     7
176
     1
 65
   257
176
     1
 75
     1
176
     1
175
     1
176
     1
 42
1.0
176
     1
 92
        0
176
     1
 66
   257
176
     1
 43
1.0
176
     1
 76
     1
176
     1
 77
     6
176
     1
 78
     2
176
     1
 67
     7
176
     1
 79
     5
176
     1
170
     0
176
     1
171
     0
176
     1
290
     0
176
     1
 93
       13
176
     1
 44
0.0
176
     1
173
     0
176
     1
  0
VISUALSTYLE
  5
38
102
{ACAD_REACTORS
330
2A
102
}
330
2A
100
AcDbVisualStyle
  2
Linepattern
 70
    14
177
     2
291
     1
 71
     2
176
     1
 72
     2
176
     1
 73
     0
176
     1
 90
        0
176
     1
 40
-0.6
176
     1
 41
-30.0
176
     1
 62
     5
 63
     7
421
 16777215
176
     1
 74
     1
176
     1
 91
        4
176
     1
 64
     7
176
     1
 65
   257
176
     1
 75
     7
176
     1
175
     7
176
     1
 42
1.0
176
     1
 92
        8
176
     1
 66
     7
176
     1
 43
1.0
176
     1
 76
     1
176
     1
 77
     6
176
     1
 78
     2
176
     1
 67
     7
176
     1
 79
     5
176
     1
170
     0
176
     1
171
     0
176
     1
290
     0
176
     1
 93
        1
176
     1
 44
0.0
176
     1
173
     0
176
     1
  0
VISUALSTYLE
  5
33
102
{ACAD_REACTORS
330
2A
102
}
330
2A
100
AcDbVisualStyle
  2
Realistic
 70
     8
177
     2
291
     0
 71
     2
176
     1
 72
     2
176
     1
 73
     0
176
     1
 90
        0
176
     1
 40
-0.6
176
     1
 41
-30.0
176
     1
 62
     5
 63
     7
421
 16777215
176
     1
 74
     1
176
     1
 91
        0
176
     1
 64
     7
176
     1
 65
   257
176
     1
 75
     1
176
     1
175
     1
176
     1
 42
1.0
176
     1
 92
        8
176
     1
 66
     8
424
  7895160
176
     1
 43
1.0
176
     1
 76
     1
176
     1
 77
     6
176
     1
 78
     2
176
     1
 67
     7
176
     1
 79
     5
176
     1
170
     0
176
     1
171
     0
176
     1
290
     0
176
     1
 93
       13
176
     1
 44
0.0
176
     1
173
     0
176
     1
  0
VISUALSTYLE
  5
37
102
{ACAD_REACTORS
330
2A
102
}
330
2A
100
AcDbVisualStyle
  2
Thicken
 70
    13
177
     2
291
     1
 71
     2
176
     1
 72
     2
176
     1
 73
     0
176
     1
 90
        0
176
     1
 40
-0.6
176
     1
 41
-30.0
176
     1
 62
     5
 63
     7
421
 16777215
176
     1
 74
     1
176
     1
 91
        4
176
     1
 64
     7
176
     1
 65
   257
176
     1
 75
     1
176
     1
175
     1
176
     1
 42
1.0
176
     1
 92
       12
176
     1
 66
     7
176
     1
 43
1.0
176
     1
 76
     1
176
     1
 77
     6
176
     1
 78
     2
176
     1
 67
     7
176
     1
 79
     5
176
     1
170
     0
176
     1
171
     0
176
     1
290
     0
176
     1
 93
        1
176
     1
 44
0.0
176
     1
173
     0
176
     1
  0
ENDSEC
  0
EOF
