  0
SECTION
  2
HEADER
  9
$ACADVER
  1
AC1024
  9
$ACADMAINTVER
 70
     6
  9
$DWGCODEPAGE
  3
ANSI_1252
  9
$INSBASE
 10
0.0
 20
0.0
 30
0.0
  9
$EXTMIN
 10
1.000000000000000E+20
 20
1.000000000000000E+20
 30
1.000000000000000E+20
  9
$EXTMAX
 10
-1.000000000000000E+20
 20
-1.000000000000000E+20
 30
-1.000000000000000E+20
  9
$LIMMIN
 10
0.0
 20
0.0
  9
$LIMMAX
 10
12.0
 20
9.0
  9
$ORTHOMODE
 70
     0
  9
$REGENMODE
 70
     1
  9
$FILLMODE
 70
     1
  9
$QTEXTMODE
 70
     0
  9
$MIRRTEXT
 70
     1
  9
$LTSCALE
 40
1.0
  9
$ATTMODE
 70
     1
  9
$TEXTSIZE
 40
0.2
  9
$TRACEWID
 40
0.05
  9
$TEXTSTYLE
  7
Standard
  9
$CLAYER
  8
0
  9
$CELTYPE
  6
ByLayer
  9
$CECOLOR
 62
   256
  9
$CELTSCALE
 40
1.0
  9
$DISPSILH
 70
     0
  9
$DIMSCALE
 40
1.0
  9
$DIMASZ
 40
0.18
  9
$DIMEXO
 40
0.0625
  9
$DIMDLI
 40
0.38
  9
$DIMRND
 40
0.0
  9
$DIMDLE
 40
0.0
  9
$DIMEXE
 40
0.18
  9
$DIMTP
 40
0.0
  9
$DIMTM
 40
0.0
  9
$DIMTXT
 40
0.18
  9
$DIMCEN
 40
0.09
  9
$DIMTSZ
 40
0.0
  9
$DIMTOL
 70
     0
  9
$DIMLIM
 70
     0
  9
$DIMTIH
 70
     1
  9
$DIMTOH
 70
     1
  9
$DIMSE1
 70
     0
  9
$DIMSE2
 70
     0
  9
$DIMTAD
 70
     0
  9
$DIMZIN
 70
     0
  9
$DIMBLK
  1

  9
$DIMASO
 70
     1
  9
$DIMSHO
 70
     1
  9
$DIMPOST
  1

  9
$DIMAPOST
  1

  9
$DIMALT
 70
     0
  9
$DIMALTD
 70
     2
  9
$DIMALTF
 40
25.4
  9
$DIMLFAC
 40
1.0
  9
$DIMTOFL
 70
     0
  9
$DIMTVP
 40
0.0
  9
$DIMTIX
 70
     0
  9
$DIMSOXD
 70
     0
  9
$DIMSAH
 70
     0
  9
$DIMBLK1
  1

  9
$DIMBLK2
  1

  9
$DIMSTYLE
  2
Standard
  9
$DIMCLRD
 70
     0
  9
$DIMCLRE
 70
     0
  9
$DIMCLRT
 70
     0
  9
$DIMTFAC
 40
1.0
  9
$DIMGAP
 40
0.09
  9
$DIMJUST
 70
     0
  9
$DIMSD1
 70
     0
  9
$DIMSD2
 70
     0
  9
$DIMTOLJ
 70
     1
  9
$DIMTZIN
 70
     0
  9
$DIMALTZ
 70
     0
  9
$DIMALTTZ
 70
     0
  9
$DIMUPT
 70
     0
  9
$DIMDEC
 70
     4
  9
$DIMTDEC
 70
     4
  9
$DIMALTU
 70
     2
  9
$DIMALTTD
 70
     2
  9
$DIMTXSTY
  7
Standard
  9
$DIMAUNIT
 70
     0
  9
$DIMADEC
 70
     0
  9
$DIMALTRND
 40
0.0
  9
$DIMAZIN
 70
     0
  9
$DIMDSEP
 70
    46
  9
$DIMATFIT
 70
     3
  9
$DIMFRAC
 70
     0
  9
$DIMLDRBLK
  1

  9
$DIMLUNIT
 70
     2
  9
$DIMLWD
 70
    -2
  9
$DIMLWE
 70
    -2
  9
$DIMTMOVE
 70
     0
  9
$DIMFXL
 40
1.0
  9
$DIMFXLON
 70
     0
  9
$DIMJOGANG
 40
0.7853981633974483
  9
$DIMTFILL
 70
     0
  9
$DIMTFILLCLR
 70
     0
  9
$DIMARCSYM
 70
     0
  9
$DIMLTYPE
  6

  9
$DIMLTEX1
  6

  9
$DIMLTEX2
  6

  9
$DIMTXTDIRECTION
 70
     0
  9
$LUNITS
 70
     2
  9
$LUPREC
 70
     4
  9
$SKETCHINC
 40
0.1
  9
$FILLETRAD
 40
0.5
  9
$AUNITS
 70
     0
  9
$AUPREC
 70
     0
  9
$MENU
  1
.
  9
$ELEVATION
 40
0.0
  9
$PELEVATION
 40
0.0
  9
$THICKNESS
 40
0.0
  9
$LIMCHECK
 70
     0
  9
$CHAMFERA
 40
0.5
  9
$CHAMFERB
 40
0.5
  9
$CHAMFERC
 40
1.0
  9
$CHAMFERD
 40
0.0
  9
$SKPOLY
 70
     0
  9
$TDCREATE
 40
2459171.952437488
  9
$TDUCREATE
 40
2459172.285770822
  9
$TDUPDATE
 40
2459171.952437523
  9
$TDUUPDATE
 40
2459172.285770856
  9
$TDINDWG
 40
0.0000000116
  9
$TDUSRTIMER
 40
0.0000000116
  9
$USRTIMER
 70
     1
  9
$ANGBASE
 50
0.0
  9
$ANGDIR
 70
     0
  9
$PDMODE
 70
     0
  9
$PDSIZE
 40
0.0
  9
$PLINEWID
 40
0.0
  9
$SPLFRAME
 70
     0
  9
$SPLINETYPE
 70
     6
  9
$SPLINESEGS
 70
     8
  9
$HANDSEED
  5
BC
  9
$SURFTAB1
 70
     6
  9
$SURFTAB2
 70
     6
  9
$SURFTYPE
 70
     6
  9
$SURFU
 70
     6
  9
$SURFV
 70
     6
  9
$UCSBASE
  2

  9
$UCSNAME
  2

  9
$UCSORG
 10
0.0
 20
0.0
 30
0.0
  9
$UCSXDIR
 10
1.0
 20
0.0
 30
0.0
  9
$UCSYDIR
 10
0.0
 20
1.0
 30
0.0
  9
$UCSORTHOREF
  2

  9
$UCSORTHOVIEW
 70
     0
  9
$UCSORGTOP
 10
0.0
 20
0.0
 30
0.0
  9
$UCSORGBOTTOM
 10
0.0
 20
0.0
 30
0.0
  9
$UCSORGLEFT
 10
0.0
 20
0.0
 30
0.0
  9
$UCSORGRIGHT
 10
0.0
 20
0.0
 30
0.0
  9
$UCSORGFRONT
 10
0.0
 20
0.0
 30
0.0
  9
$UCSORGBACK
 10
0.0
 20
0.0
 30
0.0
  9
$PUCSBASE
  2

  9
$PUCSNAME
  2

  9
$PUCSORG
 10
0.0
 20
0.0
 30
0.0
  9
$PUCSXDIR
 10
1.0
 20
0.0
 30
0.0
  9
$PUCSYDIR
 10
0.0
 20
1.0
 30
0.0
  9
$PUCSORTHOREF
  2

  9
$PUCSORTHOVIEW
 70
     0
  9
$PUCSORGTOP
 10
0.0
 20
0.0
 30
0.0
  9
$PUCSORGBOTTOM
 10
0.0
 20
0.0
 30
0.0
  9
$PUCSORGLEFT
 10
0.0
 20
0.0
 30
0.0
  9
$PUCSORGRIGHT
 10
0.0
 20
0.0
 30
0.0
  9
$PUCSORGFRONT
 10
0.0
 20
0.0
 30
0.0
  9
$PUCSORGBACK
 10
0.0
 20
0.0
 30
0.0
  9
$USERI1
 70
     0
  9
$USERI2
 70
     0
  9
$USERI3
 70
     0
  9
$USERI4
 70
     0
  9
$USERI5
 70
     0
  9
$USERR1
 40
0.0
  9
$USERR2
 40
0.0
  9
$USERR3
 40
0.0
  9
$USERR4
 40
0.0
  9
$USERR5
 40
0.0
  9
$WORLDVIEW
 70
     1
  9
$SHADEDGE
 70
     3
  9
$SHADEDIF
 70
    70
  9
$TILEMODE
 70
     1
  9
$MAXACTVP
 70
    64
  9
$PINSBASE
 10
0.0
 20
0.0
 30
0.0
  9
$PLIMCHECK
 70
     0
  9
$PEXTMIN
 10
1.000000000000000E+20
 20
1.000000000000000E+20
 30
1.000000000000000E+20
  9
$PEXTMAX
 10
-1.000000000000000E+20
 20
-1.000000000000000E+20
 30
-1.000000000000000E+20
  9
$PLIMMIN
 10
0.0
 20
0.0
  9
$PLIMMAX
 10
12.0
 20
9.0
  9
$UNITMODE
 70
     0
  9
$VISRETAIN
 70
     1
  9
$PLINEGEN
 70
     0
  9
$PSLTSCALE
 70
     1
  9
$TREEDEPTH
 70
  3020
  9
$CMLSTYLE
  2
Standard
  9
$CMLJUST
 70
     0
  9
$CMLSCALE
 40
1.0
  9
$PROXYGRAPHICS
 70
     1
  9
$MEASUREMENT
 70
     0
  9
$CELWEIGHT
370
    -1
  9
$ENDCAPS
280
     0
  9
$JOINSTYLE
280
     0
  9
$LWDISPLAY
290
     1
  9
$INSUNITS
 70
     4
  9
$HYPERLINKBASE
  1

  9
$STYLESHEET
  1

  9
$XEDIT
290
     1
  9
$CEPSNTYPE
380
     0
  9
$PSTYLEMODE
290
     1
  9
$FINGERPRINTGUID
  2
{EF5628C9-7C7A-4ED0-91BC-A8534819CE4C}
  9
$VERSIONGUID
  2
{FAEB1C32-E019-11D5-929B-00C0DF256EC4}
  9
$EXTNAMES
290
     1
  9
$PSVPSCALE
 40
0.0
  9
$OLESTARTUP
290
     0
  9
$SORTENTS
280
   127
  9
$INDEXCTL
280
     0
  9
$HIDETEXT
280
     1
  9
$XCLIPFRAME
280
     2
  9
$HALOGAP
280
     0
  9
$OBSCOLOR
 70
   257
  9
$OBSLTYPE
280
     0
  9
$INTERSECTIONDISPLAY
280
     0
  9
$INTERSECTIONCOLOR
 70
   257
  9
$DIMASSOC
280
     2
  9
$PROJECTNAME
  1

  9
$CAMERADISPLAY
290
     0
  9
$LENSLENGTH
 40
50.0
  9
$CAMERAHEIGHT
 40
0.0
  9
$STEPSPERSEC
 40
2.0
  9
$STEPSIZE
 40
6.0
  9
$3DDWFPREC
 40
2.0
  9
$PSOLWIDTH
 40
0.25
  9
$PSOLHEIGHT
 40
4.0
  9
$LOFTANG1
 40
1.570796326794897
  9
$LOFTANG2
 40
1.570796326794897
  9
$LOFTMAG1
 40
0.0
  9
$LOFTMAG2
 40
0.0
  9
$LOFTPARAM
 70
     7
  9
$LOFTNORMALS
280
     1
  9
$LATITUDE
 40
37.795
  9
$LONGITUDE
 40
-122.394
  9
$NORTHDIRECTION
 40
0.0
  9
$TIMEZONE
 70
 -8000
  9
$LIGHTGLYPHDISPLAY
280
     1
  9
$TILEMODELIGHTSYNCH
280
     1
  9
$CMATERIAL
347
3C
  9
$SOLIDHIST
280
     1
  9
$SHOWHIST
280
     1
  9
$DWFFRAME
280
     2
  9
$DGNFRAME
280
     2
  9
$REALWORLDSCALE
290
     1
  9
$INTERFERECOLOR
 62
   256
  9
$CSHADOW
280
     0
  9
$SHADOWPLANELOCATION
 40
0.0
  0
ENDSEC
  0
SECTION
  2
CLASSES
  0
CLASS
  1
ACDBDICTIONARYWDFLT
  2
AcDbDictionaryWithDefault
  3
ObjectDBX Classes
 90
        0
 91
        4
280
     0
281
     0
  0
CLASS
  1
VISUALSTYLE
  2
AcDbVisualStyle
  3
ObjectDBX Classes
 90
     4095
 91
        4
280
     0
281
     0
  0
CLASS
  1
MATERIAL
  2
AcDbMaterial
  3
ObjectDBX Classes
 90
     1153
 91
        4
280
     0
281
     0
  0
CLASS
  1
SUN
  2
AcDbSun
  3
SCENEOE
 90
     1024
 91
        4
280
     0
281
     0
  0
ENDSEC
  0
SECTION
  2
TABLES
  0
TABLE
  2
VPORT
  5
8
330
0
100
AcDbSymbolTable
 70
     1
  0
VPORT
  5
29
330
8
100
AcDbSymbolTableRecord
100
AcDbViewportTableRecord
  2
*Active
 70
     0
 10
0.0
 20
0.0
 11
1.0
 21
1.0
 12
0.0
 22
0.0
 13
0.0
 23
0.0
 14
0.5
 24
0.5
 15
0.5
 25
0.5
 16
0.0
 26
0.0
 36
1.0
 17
959.99999976
 27
539.999999865
 37
0.0
 40
1079.99999973
 41
1.777777777777778
 42
50.0
 43
0.0
 44
0.0
 50
0.0
 51
0.0
 71
     0
 72
   100
 73
     1
 74
     3
 75
     0
 76
     0
 77
     0
 78
     0
281
     0
 65
     1
110
0.0
120
0.0
130
0.0
111
1.0
121
0.0
131
0.0
112
0.0
122
1.0
132
0.0
 79
     0
146
0.0
 60
     3
 61
     5
292
     1
282
     1
141
0.0
142
0.0
 63
   250
361
3F
  0
ENDTAB
  0
TABLE
  2
LTYPE
  5
5
330
0
100
AcDbSymbolTable
 70
     1
  0
LTYPE
  5
14
330
5
100
AcDbSymbolTableRecord
100
AcDbLinetypeTableRecord
  2
ByBlock
 70
     0
  3

 72
    65
 73
     0
 40
0.0
  0
LTYPE
  5
15
330
5
100
AcDbSymbolTableRecord
100
AcDbLinetypeTableRecord
  2
ByLayer
 70
     0
  3

 72
    65
 73
     0
 40
0.0
  0
LTYPE
  5
16
330
5
100
AcDbSymbolTableRecord
100
AcDbLinetypeTableRecord
  2
Continuous
 70
     0
  3
Solid line
 72
    65
 73
     0
 40
0.0
  0
ENDTAB
  0
TABLE
  2
LAYER
  5
2
330
0
100
AcDbSymbolTable
 70
     1
  0
LAYER
  5
10
330
2
100
AcDbSymbolTableRecord
100
AcDbLayerTableRecord
  2
0
 70
     0
 62
     7
  6
Continuous
370
    -3
390
F
347
3E
  0
ENDTAB
  0
TABLE
  2
STYLE
  5
3
330
0
100
AcDbSymbolTable
 70
     1
  0
STYLE
  5
11
330
3
100
AcDbSymbolTableRecord
100
AcDbTextStyleTableRecord
  2
Standard
 70
     0
 40
0.0
 41
1.0
 50
0.0
 71
     0
 42
0.2
  3
txt
  4

  0
ENDTAB
  0
TABLE
  2
VIEW
  5
6
330
0
100
AcDbSymbolTable
 70
     0
  0
ENDTAB
  0
TABLE
  2
UCS
  5
7
330
0
100
AcDbSymbolTable
 70
     0
  0
ENDTAB
  0
TABLE
  2
APPID
  5
9
330
0
100
AcDbSymbolTable
 70
     1
  0
APPID
  5
12
330
9
100
AcDbSymbolTableRecord
100
AcDbRegAppTableRecord
  2
ACAD
 70
     0
  0
ENDTAB
  0
TABLE
  2
DIMSTYLE
  5
A
330
0
100
AcDbSymbolTable
 70
     1
100
AcDbDimStyleTable
  0
DIMSTYLE
105
27
330
A
100
AcDbSymbolTableRecord
100
AcDbDimStyleTableRecord
  2
Standard
 70
     0
178
     0
340
11
  0
ENDTAB
  0
TABLE
  2
BLOCK_RECORD
  5
1
330
0
100
AcDbSymbolTable
 70
    18
  0
BLOCK_RECORD
  5
1F
330
1
100
AcDbSymbolTableRecord
100
AcDbBlockTableRecord
  2
*Model_Space
340
22
 70
     0
280
     1
281
     0
  0
BLOCK_RECORD
  5
1B
330
1
100
AcDbSymbolTableRecord
100
AcDbBlockTableRecord
  2
*Paper_Space
340
1E
 70
     0
280
     1
281
     0
  0
BLOCK_RECORD
  5
23
330
1
100
AcDbSymbolTableRecord
100
AcDbBlockTableRecord
  2
*Paper_Space0
340
26
 70
     0
280
     1
281
     0
  0
BLOCK_RECORD
  5
40
330
1
100
AcDbSymbolTableRecord
100
AcDbBlockTableRecord
  2
block 2
340
0
102
{BLKREFS
331
41
102
}
 70
     0
280
     1
281
     0
  0
BLOCK_RECORD
  5
45
330
1
100
AcDbSymbolTableRecord
100
AcDbBlockTableRecord
  2
block 3
340
0
102
{BLKREFS
331
46
102
}
 70
     0
280
     1
281
     0
  0
BLOCK_RECORD
  5
4A
330
1
100
AcDbSymbolTableRecord
100
AcDbBlockTableRecord
  2
block 4
340
0
102
{BLKREFS
331
4B
102
}
 70
     0
280
     1
281
     0
  0
BLOCK_RECORD
  5
4F
330
1
100
AcDbSymbolTableRecord
100
AcDbBlockTableRecord
  2
block 5
340
0
102
{BLKREFS
331
50
102
}
 70
     0
280
     1
281
     0
  0
BLOCK_RECORD
  5
54
330
1
100
AcDbSymbolTableRecord
100
AcDbBlockTableRecord
  2
block 6
340
0
102
{BLKREFS
331
55
102
}
 70
     0
280
     1
281
     0
  0
BLOCK_RECORD
  5
59
330
1
100
AcDbSymbolTableRecord
100
AcDbBlockTableRecord
  2
block 7
340
0
102
{BLKREFS
331
5A
102
}
 70
     0
280
     1
281
     0
  0
BLOCK_RECORD
  5
5E
330
1
100
AcDbSymbolTableRecord
100
AcDbBlockTableRecord
  2
block 8
340
0
102
{BLKREFS
331
5F
102
}
 70
     0
280
     1
281
     0
  0
BLOCK_RECORD
  5
63
330
1
100
AcDbSymbolTableRecord
100
AcDbBlockTableRecord
  2
block 9
340
0
102
{BLKREFS
331
64
102
}
 70
     0
280
     1
281
     0
  0
BLOCK_RECORD
  5
68
330
1
100
AcDbSymbolTableRecord
100
AcDbBlockTableRecord
  2
block 10
340
0
102
{BLKREFS
331
69
102
}
 70
     0
280
     1
281
     0
  0
BLOCK_RECORD
  5
6D
330
1
100
AcDbSymbolTableRecord
100
AcDbBlockTableRecord
  2
block 11
340
0
102
{BLKREFS
331
6E
102
}
 70
     0
280
     1
281
     0
  0
BLOCK_RECORD
  5
72
330
1
100
AcDbSymbolTableRecord
100
AcDbBlockTableRecord
  2
block 12
340
0
102
{BLKREFS
331
73
102
}
 70
     0
280
     1
281
     0
  0
BLOCK_RECORD
  5
77
330
1
100
AcDbSymbolTableRecord
100
AcDbBlockTableRecord
  2
block 13
340
0
102
{BLKREFS
331
78
102
}
 70
     0
280
     1
281
     0
  0
BLOCK_RECORD
  5
7C
330
1
100
AcDbSymbolTableRecord
100
AcDbBlockTableRecord
  2
block 14
340
0
102
{BLKREFS
331
7D
102
}
 70
     0
280
     1
281
     0
  0
BLOCK_RECORD
  5
81
330
1
100
AcDbSymbolTableRecord
100
AcDbBlockTableRecord
  2
block 15
340
0
102
{BLKREFS
331
82
102
}
 70
     0
280
     1
281
     0
  0
BLOCK_RECORD
  5
86
330
1
100
AcDbSymbolTableRecord
100
AcDbBlockTableRecord
  2
block 16
340
0
102
{BLKREFS
331
87
102
}
 70
     0
280
     1
281
     0
  0
BLOCK_RECORD
  5
8B
330
1
100
AcDbSymbolTableRecord
100
AcDbBlockTableRecord
  2
block 17
340
0
102
{BLKREFS
331
8C
102
}
 70
     0
280
     1
281
     0
  0
BLOCK_RECORD
  5
90
330
1
100
AcDbSymbolTableRecord
100
AcDbBlockTableRecord
  2
block 18
340
0
102
{BLKREFS
331
91
102
}
 70
     0
280
     1
281
     0
  0
ENDTAB
  0
ENDSEC
  0
SECTION
  2
BLOCKS
  0
BLOCK
  5
20
330
1F
100
AcDbEntity
  8
0
100
AcDbBlockBegin
  2
*Model_Space
 70
     0
 10
0.0
 20
0.0
 30
0.0
  3
*Model_Space
  1

  0
ENDBLK
  5
21
330
1F
100
AcDbEntity
  8
0
100
AcDbBlockEnd
  0
BLOCK
  5
1C
330
1B
100
AcDbEntity
 67
     1
  8
0
100
AcDbBlockBegin
  2
*Paper_Space
 70
     0
 10
0.0
 20
0.0
 30
0.0
  3
*Paper_Space
  1

  0
ENDBLK
  5
1D
330
1B
100
AcDbEntity
 67
     1
  8
0
100
AcDbBlockEnd
  0
BLOCK
  5
24
330
23
100
AcDbEntity
  8
0
100
AcDbBlockBegin
  2
*Paper_Space0
 70
     0
 10
0.0
 20
0.0
 30
0.0
  3
*Paper_Space0
  1

  0
ENDBLK
  5
25
330
23
100
AcDbEntity
  8
0
100
AcDbBlockEnd
  0
BLOCK
  5
42
330
40
100
AcDbEntity
  8
0
100
AcDbBlockBegin
  2
block 2
 70
     0
 10
0.0
 20
0.0
 30
0.0
  3
block 2
  1

  0
SPLINE
  5
44
330
40
100
AcDbEntity
  8
0
 62
     7
420
 16777215
370
    25
100
AcDbSpline
210
0.0
220
0.0
230
1.0
 70
    11
 71
     3
 72
    41
 73
    37
 74
     0
 42
0.0000000001
 43
0.0000000001
 12
1.0
 22
0.0
 32
0.0
 13
1.0
 23
0.0
 33
0.0
 40
0.0
 40
0.0
 40
0.0
 40
0.0
 40
1.0
 40
1.0
 40
1.0
 40
2.0
 40
2.0
 40
2.0
 40
3.0
 40
3.0
 40
3.0
 40
4.0
 40
4.0
 40
4.0
 40
5.0
 40
5.0
 40
5.0
 40
6.0
 40
6.0
 40
6.0
 40
7.0
 40
7.0
 40
7.0
 40
8.0
 40
8.0
 40
8.0
 40
9.0
 40
9.0
 40
9.0
 40
10.0
 40
10.0
 40
10.0
 40
11.0
 40
11.0
 40
11.0
 40
12.0
 40
12.0
 40
12.0
 40
12.0
 10
800.0115614631509
 20
484.2155948175057
 30
0.0
 10
800.0115614630272
 20
481.4541710690418
 30
0.0
 10
802.2501377132113
 20
479.2155948186575
 30
0.0
 10
805.0115614616753
 20
479.2155948185302
 30
0.0
 10
805.0115614616753
 20
479.2155948185302
 30
0.0
 10
960.0008646335546
 20
479.2155948115744
 30
0.0
 10
960.0008646335546
 20
479.2155948115744
 30
0.0
 10
960.0008646335546
 20
479.2155948115744
 30
0.0
 10
960.0008646340511
 20
490.240594808816
 30
0.0
 10
960.0008646340511
 20
490.240594808816
 30
0.0
 10
960.0008646340511
 20
490.240594808816
 30
0.0
 10
972.1108978451449
 20
490.2405948082739
 30
0.0
 10
972.1108978451449
 20
490.2405948082739
 30
0.0
 10
972.1108978451449
 20
490.2405948082739
 30
0.0
 10
972.1108978446501
 20
479.2155948110287
 30
0.0
 10
972.1108978446501
 20
479.2155948110287
 30
0.0
 10
972.1108978446501
 20
479.2155948110287
 30
0.0
 10
1115.988438052572
 20
479.2155948045713
 30
0.0
 10
1115.988438052572
 20
479.2155948045713
 30
0.0
 10
1118.749861801036
 20
479.2155948044476
 30
0.0
 10
1120.98843805142
 20
481.4541710546317
 30
0.0
 10
1120.988438051546
 20
484.2155948030957
 30
0.0
 10
1120.988438051546
 20
484.2155948030957
 30
0.0
 10
1120.988438056601
 20
596.7844049122442
 30
0.0
 10
1120.988438056601
 20
596.7844049122442
 30
0.0
 10
1120.988438056725
 20
599.5458286607083
 30
0.0
 10
1118.749861806537
 20
601.7844049110943
 30
0.0
 10
1115.988438058073
 20
601.7844049112189
 30
0.0
 10
1115.988438058073
 20
601.7844049112189
 30
0.0
 10
805.0115614671796
 20
601.7844049251805
 30
0.0
 10
805.0115614671796
 20
601.7844049251805
 30
0.0
 10
802.2501377187156
 20
601.7844049253042
 30
0.0
 10
800.0115614683277
 20
599.5458286751192
 30
0.0
 10
800.011561468204
 20
596.7844049266552
 30
0.0
 10
800.011561468204
 20
596.7844049266552
 30
0.0
 10
800.0115614631509
 20
484.2155948175057
 30
0.0
 10
800.0115614631509
 20
484.2155948175057
 30
0.0
  0
ENDBLK
  5
43
330
40
100
AcDbEntity
  8
0
100
AcDbBlockEnd
  0
BLOCK
  5
47
330
45
100
AcDbEntity
  8
0
100
AcDbBlockBegin
  2
block 3
 70
     0
 10
0.0
 20
0.0
 30
0.0
  3
block 3
  1

  0
SPLINE
  5
49
330
45
100
AcDbEntity
  8
0
 62
     7
420
 16777215
370
    25
100
AcDbSpline
210
0.0
220
0.0
230
1.0
 70
    11
 71
     3
 72
    20
 73
    16
 74
     0
 42
0.0000000001
 43
0.0000000001
 12
1.0
 22
0.0
 32
0.0
 13
1.0
 23
0.0
 33
0.0
 40
0.0
 40
0.0
 40
0.0
 40
0.0
 40
1.0
 40
1.0
 40
1.0
 40
2.0
 40
2.0
 40
2.0
 40
3.0
 40
3.0
 40
3.0
 40
4.0
 40
4.0
 40
4.0
 40
5.0
 40
5.0
 40
5.0
 40
5.0
 10
1093.449938060958
 20
494.2155948078008
 30
0.0
 10
1093.449938060958
 20
495.3477785446701
 30
0.0
 10
1094.367754323574
 20
496.2655948072875
 30
0.0
 10
1095.499938060445
 20
496.2655948072875
 30
0.0
 10
1096.632121797315
 20
496.2655948072875
 30
0.0
 10
1097.549938059932
 20
495.3477785446701
 30
0.0
 10
1097.549938059932
 20
494.2155948078008
 30
0.0
 10
1097.549938059932
 20
493.0834110709313
 30
0.0
 10
1096.632121797315
 20
492.1655948083122
 30
0.0
 10
1095.499938060445
 20
492.1655948083122
 30
0.0
 10
1094.367754323574
 20
492.1655948083122
 30
0.0
 10
1093.449938060958
 20
493.0834110709313
 30
0.0
 10
1093.449938060958
 20
494.2155948078008
 30
0.0
 10
1093.449938060958
 20
494.2155948078008
 30
0.0
 10
1093.449938060958
 20
494.2155948078008
 30
0.0
 10
1093.449938060958
 20
494.2155948078008
 30
0.0
  0
ENDBLK
  5
48
330
45
100
AcDbEntity
  8
0
100
AcDbBlockEnd
  0
BLOCK
  5
4C
330
4A
100
AcDbEntity
  8
0
100
AcDbBlockBegin
  2
block 4
 70
     0
 10
0.0
 20
0.0
 30
0.0
  3
block 4
  1

  0
SPLINE
  5
4E
330
4A
100
AcDbEntity
  8
0
 62
     7
420
 16777215
370
    25
100
AcDbSpline
210
0.0
220
0.0
230
1.0
 70
    11
 71
     3
 72
    20
 73
    16
 74
     0
 42
0.0000000001
 43
0.0000000001
 12
1.0
 22
0.0
 32
0.0
 13
1.0
 23
0.0
 33
0.0
 40
0.0
 40
0.0
 40
0.0
 40
0.0
 40
1.0
 40
1.0
 40
1.0
 40
2.0
 40
2.0
 40
2.0
 40
3.0
 40
3.0
 40
3.0
 40
4.0
 40
4.0
 40
4.0
 40
5.0
 40
5.0
 40
5.0
 40
5.0
 10
823.4499381284575
 20
494.2155948078008
 30
0.0
 10
823.4499381284575
 20
495.3477785446701
 30
0.0
 10
824.3677543910749
 20
496.2655948072875
 30
0.0
 10
825.4999381279451
 20
496.2655948072875
 30
0.0
 10
826.6321218648155
 20
496.2655948072875
 30
0.0
 10
827.5499381274328
 20
495.3477785446701
 30
0.0
 10
827.5499381274328
 20
494.2155948078008
 30
0.0
 10
827.5499381274328
 20
493.0834110709313
 30
0.0
 10
826.6321218648155
 20
492.1655948083122
 30
0.0
 10
825.4999381279451
 20
492.1655948083122
 30
0.0
 10
824.3677543910749
 20
492.1655948083122
 30
0.0
 10
823.4499381284575
 20
493.0834110709313
 30
0.0
 10
823.4499381284575
 20
494.2155948078008
 30
0.0
 10
823.4499381284575
 20
494.2155948078008
 30
0.0
 10
823.4499381284575
 20
494.2155948078008
 30
0.0
 10
823.4499381284575
 20
494.2155948078008
 30
0.0
  0
ENDBLK
  5
4D
330
4A
100
AcDbEntity
  8
0
100
AcDbBlockEnd
  0
BLOCK
  5
51
330
4F
100
AcDbEntity
  8
0
100
AcDbBlockBegin
  2
block 5
 70
     0
 10
0.0
 20
0.0
 30
0.0
  3
block 5
  1

  0
SPLINE
  5
53
330
4F
100
AcDbEntity
  8
0
 62
     7
420
 16777215
370
    25
100
AcDbSpline
210
0.0
220
0.0
230
1.0
 70
    11
 71
     3
 72
    20
 73
    16
 74
     0
 42
0.0000000001
 43
0.0000000001
 12
1.0
 22
0.0
 32
0.0
 13
1.0
 23
0.0
 33
0.0
 40
0.0
 40
0.0
 40
0.0
 40
0.0
 40
1.0
 40
1.0
 40
1.0
 40
2.0
 40
2.0
 40
2.0
 40
3.0
 40
3.0
 40
3.0
 40
4.0
 40
4.0
 40
4.0
 40
5.0
 40
5.0
 40
5.0
 40
5.0
 10
962.1246348831602
 20
569.662374025875
 30
0.0
 10
962.1246348831602
 20
570.9740503063957
 30
0.0
 10
963.1879586020467
 20
572.0373740252812
 30
0.0
 10
964.4996348825665
 20
572.0373740252812
 30
0.0
 10
965.811311163088
 20
572.0373740252812
 30
0.0
 10
966.8746348819727
 20
570.9740503063957
 30
0.0
 10
966.8746348819727
 20
569.662374025875
 30
0.0
 10
966.8746348819727
 20
568.3506977453552
 30
0.0
 10
965.811311163088
 20
567.2873740264688
 30
0.0
 10
964.4996348825665
 20
567.2873740264688
 30
0.0
 10
963.1879586020467
 20
567.2873740264688
 30
0.0
 10
962.1246348831602
 20
568.3506977453552
 30
0.0
 10
962.1246348831602
 20
569.662374025875
 30
0.0
 10
962.1246348831602
 20
569.662374025875
 30
0.0
 10
962.1246348831602
 20
569.662374025875
 30
0.0
 10
962.1246348831602
 20
569.662374025875
 30
0.0
  0
ENDBLK
  5
52
330
4F
100
AcDbEntity
  8
0
100
AcDbBlockEnd
  0
BLOCK
  5
56
330
54
100
AcDbEntity
  8
0
100
AcDbBlockBegin
  2
block 6
 70
     0
 10
0.0
 20
0.0
 30
0.0
  3
block 6
  1

  0
SPLINE
  5
58
330
54
100
AcDbEntity
  8
0
 62
     7
420
 16777215
370
    25
100
AcDbSpline
210
0.0
220
0.0
230
1.0
 70
    11
 71
     3
 72
    20
 73
    16
 74
     0
 42
0.0000000001
 43
0.0000000001
 12
1.0
 22
0.0
 32
0.0
 13
1.0
 23
0.0
 33
0.0
 40
0.0
 40
0.0
 40
0.0
 40
0.0
 40
1.0
 40
1.0
 40
1.0
 40
2.0
 40
2.0
 40
2.0
 40
3.0
 40
3.0
 40
3.0
 40
4.0
 40
4.0
 40
4.0
 40
5.0
 40
5.0
 40
5.0
 40
5.0
 10
1019.449938079458
 20
509.2155948040507
 30
0.0
 10
1019.449938079458
 20
509.7954937912277
 30
0.0
 10
1019.920039092018
 20
510.2655948037875
 30
0.0
 10
1020.499938079195
 20
510.2655948037875
 30
0.0
 10
1021.079837066372
 20
510.2655948037875
 30
0.0
 10
1021.549938078932
 20
509.7954937912277
 30
0.0
 10
1021.549938078932
 20
509.2155948040507
 30
0.0
 10
1021.549938078932
 20
508.6356958168737
 30
0.0
 10
1021.079837066372
 20
508.1655948043121
 30
0.0
 10
1020.499938079195
 20
508.1655948043121
 30
0.0
 10
1019.920039092018
 20
508.1655948043121
 30
0.0
 10
1019.449938079458
 20
508.6356958168737
 30
0.0
 10
1019.449938079458
 20
509.2155948040507
 30
0.0
 10
1019.449938079458
 20
509.2155948040507
 30
0.0
 10
1019.449938079458
 20
509.2155948040507
 30
0.0
 10
1019.449938079458
 20
509.2155948040507
 30
0.0
  0
ENDBLK
  5
57
330
54
100
AcDbEntity
  8
0
100
AcDbBlockEnd
  0
BLOCK
  5
5B
330
59
100
AcDbEntity
  8
0
100
AcDbBlockBegin
  2
block 7
 70
     0
 10
0.0
 20
0.0
 30
0.0
  3
block 7
  1

  0
SPLINE
  5
5D
330
59
100
AcDbEntity
  8
0
 62
     7
420
 16777215
370
    25
100
AcDbSpline
210
0.0
220
0.0
230
1.0
 70
    11
 71
     3
 72
    20
 73
    16
 74
     0
 42
0.0000000001
 43
0.0000000001
 12
1.0
 22
0.0
 32
0.0
 13
1.0
 23
0.0
 33
0.0
 40
0.0
 40
0.0
 40
0.0
 40
0.0
 40
1.0
 40
1.0
 40
1.0
 40
2.0
 40
2.0
 40
2.0
 40
3.0
 40
3.0
 40
3.0
 40
4.0
 40
4.0
 40
4.0
 40
5.0
 40
5.0
 40
5.0
 40
5.0
 10
899.4499381094575
 20
509.2155948040507
 30
0.0
 10
899.4499381094575
 20
509.7954937912277
 30
0.0
 10
899.9200391220182
 20
510.2655948037875
 30
0.0
 10
900.4999381091952
 20
510.2655948037875
 30
0.0
 10
901.0798370963721
 20
510.2655948037875
 30
0.0
 10
901.5499381089329
 20
509.7954937912277
 30
0.0
 10
901.5499381089329
 20
509.2155948040507
 30
0.0
 10
901.5499381089329
 20
508.6356958168737
 30
0.0
 10
901.0798370963721
 20
508.1655948043121
 30
0.0
 10
900.4999381091952
 20
508.1655948043121
 30
0.0
 10
899.9200391220182
 20
508.1655948043121
 30
0.0
 10
899.4499381094575
 20
508.6356958168737
 30
0.0
 10
899.4499381094575
 20
509.2155948040507
 30
0.0
 10
899.4499381094575
 20
509.2155948040507
 30
0.0
 10
899.4499381094575
 20
509.2155948040507
 30
0.0
 10
899.4499381094575
 20
509.2155948040507
 30
0.0
  0
ENDBLK
  5
5C
330
59
100
AcDbEntity
  8
0
100
AcDbBlockEnd
  0
BLOCK
  5
60
330
5E
100
AcDbEntity
  8
0
100
AcDbBlockBegin
  2
block 8
 70
     0
 10
0.0
 20
0.0
 30
0.0
  3
block 8
  1

  0
SPLINE
  5
62
330
5E
100
AcDbEntity
  8
0
 62
     7
420
 16777215
370
    25
100
AcDbSpline
210
0.0
220
0.0
230
1.0
 70
    11
 71
     3
 72
    20
 73
    16
 74
     0
 42
0.0000000001
 43
0.0000000001
 12
1.0
 22
0.0
 32
0.0
 13
1.0
 23
0.0
 33
0.0
 40
0.0
 40
0.0
 40
0.0
 40
0.0
 40
1.0
 40
1.0
 40
1.0
 40
2.0
 40
2.0
 40
2.0
 40
3.0
 40
3.0
 40
3.0
 40
4.0
 40
4.0
 40
4.0
 40
5.0
 40
5.0
 40
5.0
 40
5.0
 10
1079.449938064458
 20
509.2155948040507
 30
0.0
 10
1079.449938064458
 20
509.7954937912277
 30
0.0
 10
1079.920039077018
 20
510.2655948037875
 30
0.0
 10
1080.499938064195
 20
510.2655948037875
 30
0.0
 10
1081.079837051372
 20
510.2655948037875
 30
0.0
 10
1081.549938063932
 20
509.7954937912277
 30
0.0
 10
1081.549938063932
 20
509.2155948040507
 30
0.0
 10
1081.549938063932
 20
508.6356958168737
 30
0.0
 10
1081.079837051372
 20
508.1655948043121
 30
0.0
 10
1080.499938064195
 20
508.1655948043121
 30
0.0
 10
1079.920039077018
 20
508.1655948043121
 30
0.0
 10
1079.449938064458
 20
508.6356958168737
 30
0.0
 10
1079.449938064458
 20
509.2155948040507
 30
0.0
 10
1079.449938064458
 20
509.2155948040507
 30
0.0
 10
1079.449938064458
 20
509.2155948040507
 30
0.0
 10
1079.449938064458
 20
509.2155948040507
 30
0.0
  0
ENDBLK
  5
61
330
5E
100
AcDbEntity
  8
0
100
AcDbBlockEnd
  0
BLOCK
  5
65
330
63
100
AcDbEntity
  8
0
100
AcDbBlockBegin
  2
block 9
 70
     0
 10
0.0
 20
0.0
 30
0.0
  3
block 9
  1

  0
SPLINE
  5
67
330
63
100
AcDbEntity
  8
0
 62
     7
420
 16777215
370
    25
100
AcDbSpline
210
0.0
220
0.0
230
1.0
 70
    11
 71
     3
 72
    20
 73
    16
 74
     0
 42
0.0000000001
 43
0.0000000001
 12
1.0
 22
0.0
 32
0.0
 13
1.0
 23
0.0
 33
0.0
 40
0.0
 40
0.0
 40
0.0
 40
0.0
 40
1.0
 40
1.0
 40
1.0
 40
2.0
 40
2.0
 40
2.0
 40
3.0
 40
3.0
 40
3.0
 40
4.0
 40
4.0
 40
4.0
 40
5.0
 40
5.0
 40
5.0
 40
5.0
 10
839.4499381244575
 20
509.2155948040507
 30
0.0
 10
839.4499381244575
 20
509.7954937912277
 30
0.0
 10
839.9200391370182
 20
510.2655948037875
 30
0.0
 10
840.4999381241952
 20
510.2655948037875
 30
0.0
 10
841.0798371113722
 20
510.2655948037875
 30
0.0
 10
841.5499381239329
 20
509.7954937912277
 30
0.0
 10
841.5499381239329
 20
509.2155948040507
 30
0.0
 10
841.5499381239329
 20
508.6356958168737
 30
0.0
 10
841.0798371113722
 20
508.1655948043121
 30
0.0
 10
840.4999381241952
 20
508.1655948043121
 30
0.0
 10
839.9200391370182
 20
508.1655948043121
 30
0.0
 10
839.4499381244575
 20
508.6356958168737
 30
0.0
 10
839.4499381244575
 20
509.2155948040507
 30
0.0
 10
839.4499381244575
 20
509.2155948040507
 30
0.0
 10
839.4499381244575
 20
509.2155948040507
 30
0.0
 10
839.4499381244575
 20
509.2155948040507
 30
0.0
  0
ENDBLK
  5
66
330
63
100
AcDbEntity
  8
0
100
AcDbBlockEnd
  0
BLOCK
  5
6A
330
68
100
AcDbEntity
  8
0
100
AcDbBlockBegin
  2
block 10
 70
     0
 10
0.0
 20
0.0
 30
0.0
  3
block 10
  1

  0
SPLINE
  5
6C
330
68
100
AcDbEntity
  8
0
 62
     7
420
 16777215
370
    25
100
AcDbSpline
210
0.0
220
0.0
230
1.0
 70
    11
 71
     3
 72
    20
 73
    16
 74
     0
 42
0.0000000001
 43
0.0000000001
 12
1.0
 22
0.0
 32
0.0
 13
1.0
 23
0.0
 33
0.0
 40
0.0
 40
0.0
 40
0.0
 40
0.0
 40
1.0
 40
1.0
 40
1.0
 40
2.0
 40
2.0
 40
2.0
 40
3.0
 40
3.0
 40
3.0
 40
4.0
 40
4.0
 40
4.0
 40
5.0
 40
5.0
 40
5.0
 40
5.0
 10
906.455780606226
 20
484.2405948102941
 30
0.0
 10
906.455780606226
 20
484.8204937974711
 30
0.0
 10
906.9258816187868
 20
485.2905948100309
 30
0.0
 10
907.5057806059638
 20
485.2905948100309
 30
0.0
 10
908.0856795931406
 20
485.2905948100309
 30
0.0
 10
908.5557806057014
 20
484.8204937974711
 30
0.0
 10
908.5557806057014
 20
484.2405948102941
 30
0.0
 10
908.5557806057014
 20
483.6606958231172
 30
0.0
 10
908.0856795931406
 20
483.1905948105573
 30
0.0
 10
907.5057806059638
 20
483.1905948105573
 30
0.0
 10
906.9258816187868
 20
483.1905948105573
 30
0.0
 10
906.455780606226
 20
483.6606958231172
 30
0.0
 10
906.455780606226
 20
484.2405948102941
 30
0.0
 10
906.455780606226
 20
484.2405948102941
 30
0.0
 10
906.455780606226
 20
484.2405948102941
 30
0.0
 10
906.455780606226
 20
484.2405948102941
 30
0.0
  0
ENDBLK
  5
6B
330
68
100
AcDbEntity
  8
0
100
AcDbBlockEnd
  0
BLOCK
  5
6F
330
6D
100
AcDbEntity
  8
0
100
AcDbBlockBegin
  2
block 11
 70
     0
 10
0.0
 20
0.0
 30
0.0
  3
block 11
  1

  0
SPLINE
  5
71
330
6D
100
AcDbEntity
  8
0
 62
     7
420
 16777215
370
    25
100
AcDbSpline
210
0.0
220
0.0
230
1.0
 70
    11
 71
     3
 72
    20
 73
    16
 74
     0
 42
0.0000000001
 43
0.0000000001
 12
1.0
 22
0.0
 32
0.0
 13
1.0
 23
0.0
 33
0.0
 40
0.0
 40
0.0
 40
0.0
 40
0.0
 40
1.0
 40
1.0
 40
1.0
 40
2.0
 40
2.0
 40
2.0
 40
3.0
 40
3.0
 40
3.0
 40
4.0
 40
4.0
 40
4.0
 40
5.0
 40
5.0
 40
5.0
 40
5.0
 10
1012.444218914049
 20
596.7594049194558
 30
0.0
 10
1012.444218914049
 20
597.3393039066328
 30
0.0
 10
1012.914319926609
 20
597.8094049191926
 30
0.0
 10
1013.494218913786
 20
597.8094049191926
 30
0.0
 10
1014.074117900963
 20
597.8094049191926
 30
0.0
 10
1014.544218913525
 20
597.3393039066328
 30
0.0
 10
1014.544218913525
 20
596.7594049194558
 30
0.0
 10
1014.544218913525
 20
596.179505932278
 30
0.0
 10
1014.074117900963
 20
595.7094049197182
 30
0.0
 10
1013.494218913786
 20
595.7094049197182
 30
0.0
 10
1012.914319926609
 20
595.7094049197182
 30
0.0
 10
1012.444218914049
 20
596.179505932278
 30
0.0
 10
1012.444218914049
 20
596.7594049194558
 30
0.0
 10
1012.444218914049
 20
596.7594049194558
 30
0.0
 10
1012.444218914049
 20
596.7594049194558
 30
0.0
 10
1012.444218914049
 20
596.7594049194558
 30
0.0
  0
ENDBLK
  5
70
330
6D
100
AcDbEntity
  8
0
100
AcDbBlockEnd
  0
BLOCK
  5
74
330
72
100
AcDbEntity
  8
0
100
AcDbBlockBegin
  2
block 12
 70
     0
 10
0.0
 20
0.0
 30
0.0
  3
block 12
  1

  0
SPLINE
  5
76
330
72
100
AcDbEntity
  8
0
 62
     7
420
 16777215
370
    25
100
AcDbSpline
210
0.0
220
0.0
230
1.0
 70
    11
 71
     3
 72
    20
 73
    16
 74
     0
 42
0.0000000001
 43
0.0000000001
 12
1.0
 22
0.0
 32
0.0
 13
1.0
 23
0.0
 33
0.0
 40
0.0
 40
0.0
 40
0.0
 40
0.0
 40
1.0
 40
1.0
 40
1.0
 40
2.0
 40
2.0
 40
2.0
 40
3.0
 40
3.0
 40
3.0
 40
4.0
 40
4.0
 40
4.0
 40
5.0
 40
5.0
 40
5.0
 40
5.0
 10
906.455780606226
 20
596.7594049194558
 30
0.0
 10
906.455780606226
 20
597.3393039066328
 30
0.0
 10
906.9258816187868
 20
597.8094049191926
 30
0.0
 10
907.5057806059638
 20
597.8094049191926
 30
0.0
 10
908.0856795931406
 20
597.8094049191926
 30
0.0
 10
908.5557806057014
 20
597.3393039066328
 30
0.0
 10
908.5557806057014
 20
596.7594049194558
 30
0.0
 10
908.5557806057014
 20
596.179505932278
 30
0.0
 10
908.0856795931406
 20
595.7094049197182
 30
0.0
 10
907.5057806059638
 20
595.7094049197182
 30
0.0
 10
906.9258816187868
 20
595.7094049197182
 30
0.0
 10
906.455780606226
 20
596.179505932278
 30
0.0
 10
906.455780606226
 20
596.7594049194558
 30
0.0
 10
906.455780606226
 20
596.7594049194558
 30
0.0
 10
906.455780606226
 20
596.7594049194558
 30
0.0
 10
906.455780606226
 20
596.7594049194558
 30
0.0
  0
ENDBLK
  5
75
330
72
100
AcDbEntity
  8
0
100
AcDbBlockEnd
  0
BLOCK
  5
79
330
77
100
AcDbEntity
  8
0
100
AcDbBlockBegin
  2
block 13
 70
     0
 10
0.0
 20
0.0
 30
0.0
  3
block 13
  1

  0
SPLINE
  5
7B
330
77
100
AcDbEntity
  8
0
 62
     7
420
 16777215
370
    25
100
AcDbSpline
210
0.0
220
0.0
230
1.0
 70
    11
 71
     3
 72
    20
 73
    16
 74
     0
 42
0.0000000001
 43
0.0000000001
 12
1.0
 22
0.0
 32
0.0
 13
1.0
 23
0.0
 33
0.0
 40
0.0
 40
0.0
 40
0.0
 40
0.0
 40
1.0
 40
1.0
 40
1.0
 40
2.0
 40
2.0
 40
2.0
 40
3.0
 40
3.0
 40
3.0
 40
4.0
 40
4.0
 40
4.0
 40
5.0
 40
5.0
 40
5.0
 40
5.0
 10
1012.444218914049
 20
484.2405948102941
 30
0.0
 10
1012.444218914049
 20
484.8204937974711
 30
0.0
 10
1012.914319926609
 20
485.2905948100309
 30
0.0
 10
1013.494218913786
 20
485.2905948100309
 30
0.0
 10
1014.074117900963
 20
485.2905948100309
 30
0.0
 10
1014.544218913525
 20
484.8204937974711
 30
0.0
 10
1014.544218913525
 20
484.2405948102941
 30
0.0
 10
1014.544218913525
 20
483.6606958231172
 30
0.0
 10
1014.074117900963
 20
483.1905948105573
 30
0.0
 10
1013.494218913786
 20
483.1905948105573
 30
0.0
 10
1012.914319926609
 20
483.1905948105573
 30
0.0
 10
1012.444218914049
 20
483.6606958231172
 30
0.0
 10
1012.444218914049
 20
484.2405948102941
 30
0.0
 10
1012.444218914049
 20
484.2405948102941
 30
0.0
 10
1012.444218914049
 20
484.2405948102941
 30
0.0
 10
1012.444218914049
 20
484.2405948102941
 30
0.0
  0
ENDBLK
  5
7A
330
77
100
AcDbEntity
  8
0
100
AcDbBlockEnd
  0
BLOCK
  5
7E
330
7C
100
AcDbEntity
  8
0
100
AcDbBlockBegin
  2
block 14
 70
     0
 10
0.0
 20
0.0
 30
0.0
  3
block 14
  1

  0
SPLINE
  5
80
330
7C
100
AcDbEntity
  8
0
 62
     7
420
 16777215
370
    25
100
AcDbSpline
210
0.0
220
0.0
230
1.0
 70
    11
 71
     3
 72
    20
 73
    16
 74
     0
 42
0.0000000001
 43
0.0000000001
 12
1.0
 22
0.0
 32
0.0
 13
1.0
 23
0.0
 33
0.0
 40
0.0
 40
0.0
 40
0.0
 40
0.0
 40
1.0
 40
1.0
 40
1.0
 40
2.0
 40
2.0
 40
2.0
 40
3.0
 40
3.0
 40
3.0
 40
4.0
 40
4.0
 40
4.0
 40
5.0
 40
5.0
 40
5.0
 40
5.0
 10
804.9865614644341
 20
484.2405948102941
 30
0.0
 10
804.9865614644341
 20
484.8204937974711
 30
0.0
 10
805.4566624769939
 20
485.2905948100309
 30
0.0
 10
806.0365614641709
 20
485.2905948100309
 30
0.0
 10
806.6164604513486
 20
485.2905948100309
 30
0.0
 10
807.0865614639085
 20
484.8204937974711
 30
0.0
 10
807.0865614639085
 20
484.2405948102941
 30
0.0
 10
807.0865614639085
 20
483.6606958231172
 30
0.0
 10
806.6164604513486
 20
483.1905948105573
 30
0.0
 10
806.0365614641709
 20
483.1905948105573
 30
0.0
 10
805.4566624769939
 20
483.1905948105573
 30
0.0
 10
804.9865614644341
 20
483.6606958231172
 30
0.0
 10
804.9865614644341
 20
484.2405948102941
 30
0.0
 10
804.9865614644341
 20
484.2405948102941
 30
0.0
 10
804.9865614644341
 20
484.2405948102941
 30
0.0
 10
804.9865614644341
 20
484.2405948102941
 30
0.0
  0
ENDBLK
  5
7F
330
7C
100
AcDbEntity
  8
0
100
AcDbBlockEnd
  0
BLOCK
  5
83
330
81
100
AcDbEntity
  8
0
100
AcDbBlockBegin
  2
block 15
 70
     0
 10
0.0
 20
0.0
 30
0.0
  3
block 15
  1

  0
SPLINE
  5
85
330
81
100
AcDbEntity
  8
0
 62
     7
420
 16777215
370
    25
100
AcDbSpline
210
0.0
220
0.0
230
1.0
 70
    11
 71
     3
 72
    20
 73
    16
 74
     0
 42
0.0000000001
 43
0.0000000001
 12
1.0
 22
0.0
 32
0.0
 13
1.0
 23
0.0
 33
0.0
 40
0.0
 40
0.0
 40
0.0
 40
0.0
 40
1.0
 40
1.0
 40
1.0
 40
2.0
 40
2.0
 40
2.0
 40
3.0
 40
3.0
 40
3.0
 40
4.0
 40
4.0
 40
4.0
 40
5.0
 40
5.0
 40
5.0
 40
5.0
 10
1113.913438055842
 20
596.7594049194558
 30
0.0
 10
1113.913438055842
 20
597.3393039066328
 30
0.0
 10
1114.383539068402
 20
597.8094049191926
 30
0.0
 10
1114.963438055579
 20
597.8094049191926
 30
0.0
 10
1115.543337042756
 20
597.8094049191926
 30
0.0
 10
1116.013438055316
 20
597.3393039066328
 30
0.0
 10
1116.013438055316
 20
596.7594049194558
 30
0.0
 10
1116.013438055316
 20
596.179505932278
 30
0.0
 10
1115.543337042756
 20
595.7094049197182
 30
0.0
 10
1114.963438055579
 20
595.7094049197182
 30
0.0
 10
1114.383539068402
 20
595.7094049197182
 30
0.0
 10
1113.913438055842
 20
596.179505932278
 30
0.0
 10
1113.913438055842
 20
596.7594049194558
 30
0.0
 10
1113.913438055842
 20
596.7594049194558
 30
0.0
 10
1113.913438055842
 20
596.7594049194558
 30
0.0
 10
1113.913438055842
 20
596.7594049194558
 30
0.0
  0
ENDBLK
  5
84
330
81
100
AcDbEntity
  8
0
100
AcDbBlockEnd
  0
BLOCK
  5
88
330
86
100
AcDbEntity
  8
0
100
AcDbBlockBegin
  2
block 16
 70
     0
 10
0.0
 20
0.0
 30
0.0
  3
block 16
  1

  0
SPLINE
  5
8A
330
86
100
AcDbEntity
  8
0
 62
     7
420
 16777215
370
    25
100
AcDbSpline
210
0.0
220
0.0
230
1.0
 70
    11
 71
     3
 72
    20
 73
    16
 74
     0
 42
0.0000000001
 43
0.0000000001
 12
1.0
 22
0.0
 32
0.0
 13
1.0
 23
0.0
 33
0.0
 40
0.0
 40
0.0
 40
0.0
 40
0.0
 40
1.0
 40
1.0
 40
1.0
 40
2.0
 40
2.0
 40
2.0
 40
3.0
 40
3.0
 40
3.0
 40
4.0
 40
4.0
 40
4.0
 40
5.0
 40
5.0
 40
5.0
 40
5.0
 10
804.9865614644341
 20
596.7594049194558
 30
0.0
 10
804.9865614644341
 20
597.3393039066328
 30
0.0
 10
805.4566624769939
 20
597.8094049191926
 30
0.0
 10
806.0365614641709
 20
597.8094049191926
 30
0.0
 10
806.6164604513486
 20
597.8094049191926
 30
0.0
 10
807.0865614639085
 20
597.3393039066328
 30
0.0
 10
807.0865614639085
 20
596.7594049194558
 30
0.0
 10
807.0865614639085
 20
596.179505932278
 30
0.0
 10
806.6164604513486
 20
595.7094049197182
 30
0.0
 10
806.0365614641709
 20
595.7094049197182
 30
0.0
 10
805.4566624769939
 20
595.7094049197182
 30
0.0
 10
804.9865614644341
 20
596.179505932278
 30
0.0
 10
804.9865614644341
 20
596.7594049194558
 30
0.0
 10
804.9865614644341
 20
596.7594049194558
 30
0.0
 10
804.9865614644341
 20
596.7594049194558
 30
0.0
 10
804.9865614644341
 20
596.7594049194558
 30
0.0
  0
ENDBLK
  5
89
330
86
100
AcDbEntity
  8
0
100
AcDbBlockEnd
  0
BLOCK
  5
8D
330
8B
100
AcDbEntity
  8
0
100
AcDbBlockBegin
  2
block 17
 70
     0
 10
0.0
 20
0.0
 30
0.0
  3
block 17
  1

  0
SPLINE
  5
8F
330
8B
100
AcDbEntity
  8
0
 62
     7
420
 16777215
370
    25
100
AcDbSpline
210
0.0
220
0.0
230
1.0
 70
    11
 71
     3
 72
    20
 73
    16
 74
     0
 42
0.0000000001
 43
0.0000000001
 12
1.0
 22
0.0
 32
0.0
 13
1.0
 23
0.0
 33
0.0
 40
0.0
 40
0.0
 40
0.0
 40
0.0
 40
1.0
 40
1.0
 40
1.0
 40
2.0
 40
2.0
 40
2.0
 40
3.0
 40
3.0
 40
3.0
 40
4.0
 40
4.0
 40
4.0
 40
5.0
 40
5.0
 40
5.0
 40
5.0
 10
1113.913438055842
 20
484.2405948102941
 30
0.0
 10
1113.913438055842
 20
484.8204937974711
 30
0.0
 10
1114.383539068402
 20
485.2905948100309
 30
0.0
 10
1114.963438055579
 20
485.2905948100309
 30
0.0
 10
1115.543337042756
 20
485.2905948100309
 30
0.0
 10
1116.013438055316
 20
484.8204937974711
 30
0.0
 10
1116.013438055316
 20
484.2405948102941
 30
0.0
 10
1116.013438055316
 20
483.6606958231172
 30
0.0
 10
1115.543337042756
 20
483.1905948105573
 30
0.0
 10
1114.963438055579
 20
483.1905948105573
 30
0.0
 10
1114.383539068402
 20
483.1905948105573
 30
0.0
 10
1113.913438055842
 20
483.6606958231172
 30
0.0
 10
1113.913438055842
 20
484.2405948102941
 30
0.0
 10
1113.913438055842
 20
484.2405948102941
 30
0.0
 10
1113.913438055842
 20
484.2405948102941
 30
0.0
 10
1113.913438055842
 20
484.2405948102941
 30
0.0
  0
ENDBLK
  5
8E
330
8B
100
AcDbEntity
  8
0
100
AcDbBlockEnd
  0
BLOCK
  5
92
330
90
100
AcDbEntity
  8
0
100
AcDbBlockBegin
  2
block 18
 70
     0
 10
0.0
 20
0.0
 30
0.0
  3
block 18
  1

  0
POLYLINE
  5
94
330
90
100
AcDbEntity
  8
0
 62
   240
420
 15539236
370
    35
100
AcDb2dPolyline
 66
     1
 10
0.0
 20
0.0
 30
0.0
  0
VERTEX
  5
95
330
94
100
AcDbEntity
  8
0
 62
   240
420
 15539236
370
    35
100
AcDbVertex
100
AcDb2dVertex
 10
812.1210935469697
 20
607.8740232855315
 30
0.0
  0
VERTEX
  5
96
330
94
100
AcDbEntity
  8
0
 62
   240
420
 15539236
370
    35
100
AcDbVertex
100
AcDb2dVertex
 10
812.1210935469697
 20
616.4638670333841
 30
0.0
  0
VERTEX
  5
97
330
94
100
AcDbEntity
  8
0
 62
   240
420
 15539236
370
    35
100
AcDbVertex
100
AcDb2dVertex
 10
813.2578122966855
 20
616.4638670333841
 30
0.0
  0
VERTEX
  5
98
330
94
100
AcDbEntity
  8
0
 62
   240
420
 15539236
370
    35
100
AcDbVertex
100
AcDb2dVertex
 10
813.2578122966855
 20
608.8876951602781
 30
0.0
  0
VERTEX
  5
99
330
94
100
AcDbEntity
  8
0
 62
   240
420
 15539236
370
    35
100
AcDbVertex
100
AcDb2dVertex
 10
817.4882810456279
 20
608.8876951602781
 30
0.0
  0
VERTEX
  5
9A
330
94
100
AcDbEntity
  8
0
 62
   240
420
 15539236
370
    35
100
AcDbVertex
100
AcDb2dVertex
 10
817.4882810456279
 20
607.8740232855315
 30
0.0
  0
VERTEX
  5
9B
330
94
100
AcDbEntity
  8
0
 62
   240
420
 15539236
370
    35
100
AcDbVertex
100
AcDb2dVertex
 10
812.1210935469697
 20
607.8740232855315
 30
0.0
  0
SEQEND
  5
9C
330
94
100
AcDbEntity
  8
0
 62
   240
420
 15539236
370
    35
  0
HATCH
  5
9D
330
90
100
AcDbEntity
  8
0
 62
   240
420
 15539236
100
AcDbHatch
 10
0.0
 20
0.0
 30
0.0
210
0.0
220
0.0
230
1.0
  2
SOLID
 70
     1
 71
     0
 91
        1
 92
        1
 93
        6
 72
     1
 10
812.1210935469697
 20
607.8740232855315
 11
812.1210935469697
 21
616.4638670333841
 72
     1
 10
812.1210935469697
 20
616.4638670333841
 11
813.2578122966855
 21
616.4638670333841
 72
     1
 10
813.2578122966855
 20
616.4638670333841
 11
813.2578122966855
 21
608.8876951602781
 72
     1
 10
813.2578122966855
 20
608.8876951602781
 11
817.4882810456279
 21
608.8876951602781
 72
     1
 10
817.4882810456279
 20
608.8876951602781
 11
817.4882810456279
 21
607.8740232855315
 72
     1
 10
817.4882810456279
 20
607.8740232855315
 11
812.1210935469697
 21
607.8740232855315
 97
        0
 75
     2
 76
     1
 98
        0
  0
SPLINE
  5
9E
330
90
100
AcDbEntity
  8
0
 62
   240
420
 15539236
370
    35
100
AcDbSpline
210
0.0
220
0.0
230
1.0
 70
    11
 71
     3
 72
    38
 73
    34
 74
     0
 42
0.0000000001
 43
0.0000000001
 12
1.0
 22
0.0
 32
0.0
 13
1.0
 23
0.0
 33
0.0
 40
0.0
 40
0.0
 40
0.0
 40
0.0
 40
1.0
 40
1.0
 40
1.0
 40
2.0
 40
2.0
 40
2.0
 40
3.0
 40
3.0
 40
3.0
 40
4.0
 40
4.0
 40
4.0
 40
5.0
 40
5.0
 40
5.0
 40
6.0
 40
6.0
 40
6.0
 40
7.0
 40
7.0
 40
7.0
 40
8.0
 40
8.0
 40
8.0
 40
9.0
 40
9.0
 40
9.0
 40
10.0
 40
10.0
 40
10.0
 40
11.0
 40
11.0
 40
11.0
 40
11.0
 10
818.4843747953789
 20
615.3388670336652
 30
0.0
 10
818.4843747953789
 20
615.3388670336652
 30
0.0
 10
818.4843747953789
 20
616.3525389084118
 30
0.0
 10
818.4843747953789
 20
616.3525389084118
 30
0.0
 10
818.4843747953789
 20
616.3525389084118
 30
0.0
 10
824.0449216689888
 20
616.3525389084118
 30
0.0
 10
824.0449216689888
 20
616.3525389084118
 30
0.0
 10
824.0449216689888
 20
616.3525389084118
 30
0.0
 10
824.0449216689888
 20
615.5322264086169
 30
0.0
 10
824.0449216689888
 20
615.5322264086169
 30
0.0
 10
823.4980466691254
 20
614.9501951587624
 30
0.0
 10
822.9560544817609
 20
614.1767576589558
 30
0.0
 10
822.4189451068952
 20
613.211913909197
 30
0.0
 10
821.8818357320296
 20
612.2470701594382
 30
0.0
 10
821.4667966696333
 20
611.2548826596862
 30
0.0
 10
821.1738279197066
 20
610.2353514099411
 30
0.0
 10
820.9628904197592
 20
609.5166014101209
 30
0.0
 10
820.828124794793
 20
608.7294920353177
 30
0.0
 10
820.7695310448076
 20
607.8740232855315
 30
0.0
 10
820.7695310448076
 20
607.8740232855315
 30
0.0
 10
819.6855466700786
 20
607.8740232855315
 30
0.0
 10
819.6855466700786
 20
607.8740232855315
 30
0.0
 10
819.6972654200757
 20
608.5498045353626
 30
0.0
 10
819.8300779200424
 20
609.3662107851584
 30
0.0
 10
820.083984169979
 20
610.3232420349192
 30
0.0
 10
820.3378904199155
 20
611.2802732846799
 30
0.0
 10
820.7021482323245
 20
612.2031248469492
 30
0.0
 10
821.1767576072058
 20
613.0917967217271
 30
0.0
 10
821.6513669820871
 20
613.9804685965049
 30
0.0
 10
822.1562497944609
 20
614.7294920338176
 30
0.0
 10
822.6914060443271
 20
615.3388670336652
 30
0.0
 10
822.6914060443271
 20
615.3388670336652
 30
0.0
 10
818.4843747953789
 20
615.3388670336652
 30
0.0
 10
818.4843747953789
 20
615.3388670336652
 30
0.0
  0
HATCH
  5
9F
330
90
100
AcDbEntity
  8
0
 62
   240
420
 15539236
100
AcDbHatch
 10
0.0
 20
0.0
 30
0.0
210
0.0
220
0.0
230
1.0
  2
SOLID
 70
     1
 71
     0
 91
        1
 92
        1
 93
        1
 72
     4
 94
        3
 73
     0
 74
     1
 95
       38
 96
       34
 40
0.0
 40
0.0
 40
0.0
 40
0.0
 40
1.0
 40
1.0
 40
1.0
 40
2.0
 40
2.0
 40
2.0
 40
3.0
 40
3.0
 40
3.0
 40
4.0
 40
4.0
 40
4.0
 40
5.0
 40
5.0
 40
5.0
 40
6.0
 40
6.0
 40
6.0
 40
7.0
 40
7.0
 40
7.0
 40
8.0
 40
8.0
 40
8.0
 40
9.0
 40
9.0
 40
9.0
 40
10.0
 40
10.0
 40
10.0
 40
11.0
 40
11.0
 40
11.0
 40
11.0
 10
818.4843747953789
 20
615.3388670336652
 10
818.4843747953789
 20
615.3388670336652
 10
818.4843747953789
 20
616.3525389084118
 10
818.4843747953789
 20
616.3525389084118
 10
818.4843747953789
 20
616.3525389084118
 10
824.0449216689888
 20
616.3525389084118
 10
824.0449216689888
 20
616.3525389084118
 10
824.0449216689888
 20
616.3525389084118
 10
824.0449216689888
 20
615.5322264086169
 10
824.0449216689888
 20
615.5322264086169
 10
823.4980466691254
 20
614.9501951587624
 10
822.9560544817609
 20
614.1767576589558
 10
822.4189451068952
 20
613.211913909197
 10
821.8818357320296
 20
612.2470701594382
 10
821.4667966696333
 20
611.2548826596862
 10
821.1738279197066
 20
610.2353514099411
 10
820.9628904197592
 20
609.5166014101209
 10
820.828124794793
 20
608.7294920353177
 10
820.7695310448076
 20
607.8740232855315
 10
820.7695310448076
 20
607.8740232855315
 10
819.6855466700786
 20
607.8740232855315
 10
819.6855466700786
 20
607.8740232855315
 10
819.6972654200757
 20
608.5498045353626
 10
819.8300779200424
 20
609.3662107851584
 10
820.083984169979
 20
610.3232420349192
 10
820.3378904199155
 20
611.2802732846799
 10
820.7021482323245
 20
612.2031248469492
 10
821.1767576072058
 20
613.0917967217271
 10
821.6513669820871
 20
613.9804685965049
 10
822.1562497944609
 20
614.7294920338176
 10
822.6914060443271
 20
615.3388670336652
 10
822.6914060443271
 20
615.3388670336652
 10
818.4843747953789
 20
615.3388670336652
 10
818.4843747953789
 20
615.3388670336652
 97
        0
 97
        0
 75
     2
 76
     1
 98
        0
  0
SPLINE
  5
A0
330
90
100
AcDbEntity
  8
0
 62
   240
420
 15539236
370
    35
100
AcDbSpline
210
0.0
220
0.0
230
1.0
 70
    11
 71
     3
 72
   110
 73
   106
 74
     0
 42
0.0000000001
 43
0.0000000001
 12
1.0
 22
0.0
 32
0.0
 13
1.0
 23
0.0
 33
0.0
 40
0.0
 40
0.0
 40
0.0
 40
0.0
 40
1.0
 40
1.0
 40
1.0
 40
2.0
 40
2.0
 40
2.0
 40
3.0
 40
3.0
 40
3.0
 40
4.0
 40
4.0
 40
4.0
 40
5.0
 40
5.0
 40
5.0
 40
6.0
 40
6.0
 40
6.0
 40
7.0
 40
7.0
 40
7.0
 40
8.0
 40
8.0
 40
8.0
 40
9.0
 40
9.0
 40
9.0
 40
10.0
 40
10.0
 40
10.0
 40
11.0
 40
11.0
 40
11.0
 40
12.0
 40
12.0
 40
12.0
 40
13.0
 40
13.0
 40
13.0
 40
14.0
 40
14.0
 40
14.0
 40
15.0
 40
15.0
 40
15.0
 40
16.0
 40
16.0
 40
16.0
 40
17.0
 40
17.0
 40
17.0
 40
18.0
 40
18.0
 40
18.0
 40
19.0
 40
19.0
 40
19.0
 40
20.0
 40
20.0
 40
20.0
 40
21.0
 40
21.0
 40
21.0
 40
22.0
 40
22.0
 40
22.0
 40
23.0
 40
23.0
 40
23.0
 40
24.0
 40
24.0
 40
24.0
 40
25.0
 40
25.0
 40
25.0
 40
26.0
 40
26.0
 40
26.0
 40
27.0
 40
27.0
 40
27.0
 40
28.0
 40
28.0
 40
28.0
 40
29.0
 40
29.0
 40
29.0
 40
30.0
 40
30.0
 40
30.0
 40
31.0
 40
31.0
 40
31.0
 40
32.0
 40
32.0
 40
32.0
 40
33.0
 40
33.0
 40
33.0
 40
34.0
 40
34.0
 40
34.0
 40
35.0
 40
35.0
 40
35.0
 40
35.0
 10
828.4628904178843
 20
610.6337889098415
 30
0.0
 10
828.4628904178843
 20
610.6337889098415
 30
0.0
 10
829.5351560426162
 20
610.7275389098181
 30
0.0
 10
829.5351560426162
 20
610.7275389098181
 30
0.0
 10
829.5859372926035
 20
610.2978514099256
 30
0.0
 10
829.7041013550739
 20
609.9453123475137
 30
0.0
 10
829.8896482300275
 20
609.6699217225826
 30
0.0
 10
830.0751951049812
 20
609.3945310976513
 30
0.0
 10
830.3632810424092
 20
609.171874847707
 30
0.0
 10
830.7539060423115
 20
609.0019529727495
 30
0.0
 10
831.1445310422139
 20
608.832031097792
 30
0.0
 10
831.583984167104
 20
608.7470701603132
 30
0.0
 10
832.072265416982
 20
608.7470701603132
 30
0.0
 10
832.5058591668735
 20
608.7470701603132
 30
0.0
 10
832.8886716667778
 20
608.8115232852971
 30
0.0
 10
833.2207029166948
 20
608.9404295352649
 30
0.0
 10
833.5527341666118
 20
609.0693357852326
 30
0.0
 10
833.7998044790501
 20
609.2460935976885
 30
0.0
 10
833.9619138540095
 20
609.4707029726324
 30
0.0
 10
834.124023228969
 20
609.6953123475762
 30
0.0
 10
834.2050779164487
 20
609.9404295350149
 30
0.0
 10
834.2050779164487
 20
610.2060545349485
 30
0.0
 10
834.2050779164487
 20
610.4755857848811
 30
0.0
 10
834.1269529164682
 20
610.7109373473222
 30
0.0
 10
833.9707029165073
 20
610.912109222272
 30
0.0
 10
833.8144529165463
 20
611.1132810972217
 30
0.0
 10
833.5566404166108
 20
611.2822264096794
 30
0.0
 10
833.1972654167007
 20
611.4189451596452
 30
0.0
 10
832.9667966667582
 20
611.5087889096228
 30
0.0
 10
832.4570310418857
 20
611.6484373470879
 30
0.0
 10
831.667968542083
 20
611.8378904720405
 30
0.0
 10
830.8789060422803
 20
612.0273435969932
 30
0.0
 10
830.3261716674184
 20
612.2060545344485
 30
0.0
 10
830.0097654174975
 20
612.3740232844065
 30
0.0
 10
829.5996091676001
 20
612.5888670343528
 30
0.0
 10
829.2939451051765
 20
612.8554685967861
 30
0.0
 10
829.0927732302268
 20
613.1738279717065
 30
0.0
 10
828.8916013552771
 20
613.4921873466269
 30
0.0
 10
828.7910154178022
 20
613.8486326590378
 30
0.0
 10
828.7910154178022
 20
614.2431639089392
 30
0.0
 10
828.7910154178022
 20
614.6767576588308
 30
0.0
 10
828.9140622927715
 20
615.0820310962295
 30
0.0
 10
829.1601560427099
 20
615.4589842211352
 30
0.0
 10
829.4062497926484
 20
615.835937346041
 30
0.0
 10
829.7656247925586
 20
616.1220701584695
 30
0.0
 10
830.2382810424405
 20
616.3173826584207
 30
0.0
 10
830.7109372923222
 20
616.5126951583718
 30
0.0
 10
831.2363279171909
 20
616.6103514083474
 30
0.0
 10
831.8144529170464
 20
616.6103514083474
 30
0.0
 10
832.4511716668871
 20
616.6103514083474
 30
0.0
 10
833.0126951042469
 20
616.507812345873
 30
0.0
 10
833.4990232291252
 20
616.3027342209243
 30
0.0
 10
833.9853513540037
 20
616.0976560959756
 30
0.0
 10
834.3593747914101
 20
615.795898283551
 30
0.0
 10
834.6210935413447
 20
615.3974607836507
 30
0.0
 10
834.8828122912793
 20
614.9990232837503
 30
0.0
 10
835.0234372912441
 20
614.547851408863
 30
0.0
 10
835.0429685412392
 20
614.043945158989
 30
0.0
 10
835.0429685412392
 20
614.043945158989
 30
0.0
 10
833.9531247915118
 20
613.9619139090095
 30
0.0
 10
833.9531247915118
 20
613.9619139090095
 30
0.0
 10
833.8945310415263
 20
614.5048826588737
 30
0.0
 10
833.6962888540759
 20
614.9150389087712
 30
0.0
 10
833.3583982291603
 20
615.192382658702
 30
0.0
 10
833.0205076042448
 20
615.4697264086326
 30
0.0
 10
832.5214841668696
 20
615.6083982835979
 30
0.0
 10
831.8613279170346
 20
615.6083982835979
 30
0.0
 10
831.1738279172065
 20
615.6083982835979
 30
0.0
 10
830.6728513548318
 20
615.4824217211294
 30
0.0
 10
830.3583982299103
 20
615.2304685961924
 30
0.0
 10
830.043945104989
 20
614.9785154712554
 30
0.0
 10
829.8867185425283
 20
614.6748045338313
 30
0.0
 10
829.8867185425283
 20
614.3193357839201
 30
0.0
 10
829.8867185425283
 20
614.0107420339973
 30
0.0
 10
829.9980466675005
 20
613.7568357840607
 30
0.0
 10
830.2207029174448
 20
613.5576170341105
 30
0.0
 10
830.4394529173901
 20
613.3583982841604
 30
0.0
 10
831.0107419797473
 20
613.1542967217114
 30
0.0
 10
831.9345701045163
 20
612.9453123467637
 30
0.0
 10
832.8583982292854
 20
612.7363279718159
 30
0.0
 10
833.4921872916269
 20
612.5537107843616
 30
0.0
 10
833.835937291541
 20
612.3974607844007
 30
0.0
 10
834.335937291416
 20
612.1669920344582
 30
0.0
 10
834.7050779163237
 20
611.8749998470313
 30
0.0
 10
834.9433591662641
 20
611.5214842221196
 30
0.0
 10
835.1816404162046
 20
611.167968597208
 30
0.0
 10
835.3007810411748
 20
610.7607420348098
 30
0.0
 10
835.3007810411748
 20
610.299804534925
 30
0.0
 10
835.3007810411748
 20
609.8427732850392
 30
0.0
 10
835.1699216662075
 20
609.4121092226469
 30
0.0
 10
834.9082029162729
 20
609.0078123477481
 30
0.0
 10
834.6464841663384
 20
608.6035154728492
 30
0.0
 10
834.2705076039324
 20
608.2890623479277
 30
0.0
 10
833.780273229055
 20
608.0644529729839
 30
0.0
 10
833.2900388541775
 20
607.83984359804
 30
0.0
 10
832.7382810418154
 20
607.7275389105681
 30
0.0
 10
832.1249997919688
 20
607.7275389105681
 30
0.0
 10
831.3476560421631
 20
607.7275389105681
 30
0.0
 10
830.6962888548259
 20
607.8408201605398
 30
0.0
 10
830.1708982299573
 20
608.0673826604832
 30
0.0
 10
829.6455076050886
 20
608.2939451604265
 30
0.0
 10
829.2333982301916
 20
608.6347654728413
 30
0.0
 10
828.9345701052663
 20
609.0898435977275
 30
0.0
 10
828.6357419803411
 20
609.5449217226137
 30
0.0
 10
828.4785154178803
 20
610.0595701599851
 30
0.0
 10
828.4628904178843
 20
610.6337889098415
 30
0.0
  0
HATCH
  5
A1
330
90
100
AcDbEntity
  8
0
 62
   240
420
 15539236
100
AcDbHatch
 10
0.0
 20
0.0
 30
0.0
210
0.0
220
0.0
230
1.0
  2
SOLID
 70
     1
 71
     0
 91
        1
 92
        1
 93
        1
 72
     4
 94
        3
 73
     0
 74
     1
 95
      110
 96
      106
 40
0.0
 40
0.0
 40
0.0
 40
0.0
 40
1.0
 40
1.0
 40
1.0
 40
2.0
 40
2.0
 40
2.0
 40
3.0
 40
3.0
 40
3.0
 40
4.0
 40
4.0
 40
4.0
 40
5.0
 40
5.0
 40
5.0
 40
6.0
 40
6.0
 40
6.0
 40
7.0
 40
7.0
 40
7.0
 40
8.0
 40
8.0
 40
8.0
 40
9.0
 40
9.0
 40
9.0
 40
10.0
 40
10.0
 40
10.0
 40
11.0
 40
11.0
 40
11.0
 40
12.0
 40
12.0
 40
12.0
 40
13.0
 40
13.0
 40
13.0
 40
14.0
 40
14.0
 40
14.0
 40
15.0
 40
15.0
 40
15.0
 40
16.0
 40
16.0
 40
16.0
 40
17.0
 40
17.0
 40
17.0
 40
18.0
 40
18.0
 40
18.0
 40
19.0
 40
19.0
 40
19.0
 40
20.0
 40
20.0
 40
20.0
 40
21.0
 40
21.0
 40
21.0
 40
22.0
 40
22.0
 40
22.0
 40
23.0
 40
23.0
 40
23.0
 40
24.0
 40
24.0
 40
24.0
 40
25.0
 40
25.0
 40
25.0
 40
26.0
 40
26.0
 40
26.0
 40
27.0
 40
27.0
 40
27.0
 40
28.0
 40
28.0
 40
28.0
 40
29.0
 40
29.0
 40
29.0
 40
30.0
 40
30.0
 40
30.0
 40
31.0
 40
31.0
 40
31.0
 40
32.0
 40
32.0
 40
32.0
 40
33.0
 40
33.0
 40
33.0
 40
34.0
 40
34.0
 40
34.0
 40
35.0
 40
35.0
 40
35.0
 40
35.0
 10
828.4628904178843
 20
610.6337889098415
 10
828.4628904178843
 20
610.6337889098415
 10
829.5351560426162
 20
610.7275389098181
 10
829.5351560426162
 20
610.7275389098181
 10
829.5859372926035
 20
610.2978514099256
 10
829.7041013550739
 20
609.9453123475137
 10
829.8896482300275
 20
609.6699217225826
 10
830.0751951049812
 20
609.3945310976513
 10
830.3632810424092
 20
609.171874847707
 10
830.7539060423115
 20
609.0019529727495
 10
831.1445310422139
 20
608.832031097792
 10
831.583984167104
 20
608.7470701603132
 10
832.072265416982
 20
608.7470701603132
 10
832.5058591668735
 20
608.7470701603132
 10
832.8886716667778
 20
608.8115232852971
 10
833.2207029166948
 20
608.9404295352649
 10
833.5527341666118
 20
609.0693357852326
 10
833.7998044790501
 20
609.2460935976885
 10
833.9619138540095
 20
609.4707029726324
 10
834.124023228969
 20
609.6953123475762
 10
834.2050779164487
 20
609.9404295350149
 10
834.2050779164487
 20
610.2060545349485
 10
834.2050779164487
 20
610.4755857848811
 10
834.1269529164682
 20
610.7109373473222
 10
833.9707029165073
 20
610.912109222272
 10
833.8144529165463
 20
611.1132810972217
 10
833.5566404166108
 20
611.2822264096794
 10
833.1972654167007
 20
611.4189451596452
 10
832.9667966667582
 20
611.5087889096228
 10
832.4570310418857
 20
611.6484373470879
 10
831.667968542083
 20
611.8378904720405
 10
830.8789060422803
 20
612.0273435969932
 10
830.3261716674184
 20
612.2060545344485
 10
830.0097654174975
 20
612.3740232844065
 10
829.5996091676001
 20
612.5888670343528
 10
829.2939451051765
 20
612.8554685967861
 10
829.0927732302268
 20
613.1738279717065
 10
828.8916013552771
 20
613.4921873466269
 10
828.7910154178022
 20
613.8486326590378
 10
828.7910154178022
 20
614.2431639089392
 10
828.7910154178022
 20
614.6767576588308
 10
828.9140622927715
 20
615.0820310962295
 10
829.1601560427099
 20
615.4589842211352
 10
829.4062497926484
 20
615.835937346041
 10
829.7656247925586
 20
616.1220701584695
 10
830.2382810424405
 20
616.3173826584207
 10
830.7109372923222
 20
616.5126951583718
 10
831.2363279171909
 20
616.6103514083474
 10
831.8144529170464
 20
616.6103514083474
 10
832.4511716668871
 20
616.6103514083474
 10
833.0126951042469
 20
616.507812345873
 10
833.4990232291252
 20
616.3027342209243
 10
833.9853513540037
 20
616.0976560959756
 10
834.3593747914101
 20
615.795898283551
 10
834.6210935413447
 20
615.3974607836507
 10
834.8828122912793
 20
614.9990232837503
 10
835.0234372912441
 20
614.547851408863
 10
835.0429685412392
 20
614.043945158989
 10
835.0429685412392
 20
614.043945158989
 10
833.9531247915118
 20
613.9619139090095
 10
833.9531247915118
 20
613.9619139090095
 10
833.8945310415263
 20
614.5048826588737
 10
833.6962888540759
 20
614.9150389087712
 10
833.3583982291603
 20
615.192382658702
 10
833.0205076042448
 20
615.4697264086326
 10
832.5214841668696
 20
615.6083982835979
 10
831.8613279170346
 20
615.6083982835979
 10
831.1738279172065
 20
615.6083982835979
 10
830.6728513548318
 20
615.4824217211294
 10
830.3583982299103
 20
615.2304685961924
 10
830.043945104989
 20
614.9785154712554
 10
829.8867185425283
 20
614.6748045338313
 10
829.8867185425283
 20
614.3193357839201
 10
829.8867185425283
 20
614.0107420339973
 10
829.9980466675005
 20
613.7568357840607
 10
830.2207029174448
 20
613.5576170341105
 10
830.4394529173901
 20
613.3583982841604
 10
831.0107419797473
 20
613.1542967217114
 10
831.9345701045163
 20
612.9453123467637
 10
832.8583982292854
 20
612.7363279718159
 10
833.4921872916269
 20
612.5537107843616
 10
833.835937291541
 20
612.3974607844007
 10
834.335937291416
 20
612.1669920344582
 10
834.7050779163237
 20
611.8749998470313
 10
834.9433591662641
 20
611.5214842221196
 10
835.1816404162046
 20
611.167968597208
 10
835.3007810411748
 20
610.7607420348098
 10
835.3007810411748
 20
610.299804534925
 10
835.3007810411748
 20
609.8427732850392
 10
835.1699216662075
 20
609.4121092226469
 10
834.9082029162729
 20
609.0078123477481
 10
834.6464841663384
 20
608.6035154728492
 10
834.2705076039324
 20
608.2890623479277
 10
833.780273229055
 20
608.0644529729839
 10
833.2900388541775
 20
607.83984359804
 10
832.7382810418154
 20
607.7275389105681
 10
832.1249997919688
 20
607.7275389105681
 10
831.3476560421631
 20
607.7275389105681
 10
830.6962888548259
 20
607.8408201605398
 10
830.1708982299573
 20
608.0673826604832
 10
829.6455076050886
 20
608.2939451604265
 10
829.2333982301916
 20
608.6347654728413
 10
828.9345701052663
 20
609.0898435977275
 10
828.6357419803411
 20
609.5449217226137
 10
828.4785154178803
 20
610.0595701599851
 10
828.4628904178843
 20
610.6337889098415
 97
        0
 97
        0
 75
     2
 76
     1
 98
        0
  0
SPLINE
  5
A2
330
90
100
AcDbEntity
  8
0
 62
   240
420
 15539236
370
    35
100
AcDbSpline
210
0.0
220
0.0
230
1.0
 70
    11
 71
     3
 72
    65
 73
    61
 74
     0
 42
0.0000000001
 43
0.0000000001
 12
1.0
 22
0.0
 32
0.0
 13
1.0
 23
0.0
 33
0.0
 40
0.0
 40
0.0
 40
0.0
 40
0.0
 40
1.0
 40
1.0
 40
1.0
 40
2.0
 40
2.0
 40
2.0
 40
3.0
 40
3.0
 40
3.0
 40
4.0
 40
4.0
 40
4.0
 40
5.0
 40
5.0
 40
5.0
 40
6.0
 40
6.0
 40
6.0
 40
7.0
 40
7.0
 40
7.0
 40
8.0
 40
8.0
 40
8.0
 40
9.0
 40
9.0
 40
9.0
 40
10.0
 40
10.0
 40
10.0
 40
11.0
 40
11.0
 40
11.0
 40
12.0
 40
12.0
 40
12.0
 40
13.0
 40
13.0
 40
13.0
 40
14.0
 40
14.0
 40
14.0
 40
15.0
 40
15.0
 40
15.0
 40
16.0
 40
16.0
 40
16.0
 40
17.0
 40
17.0
 40
17.0
 40
18.0
 40
18.0
 40
18.0
 40
19.0
 40
19.0
 40
19.0
 40
20.0
 40
20.0
 40
20.0
 40
20.0
 10
839.0214841652446
 20
608.8173826602956
 30
0.0
 10
839.0214841652446
 20
608.8173826602956
 30
0.0
 10
839.1738279152065
 20
607.8857420355286
 30
0.0
 10
839.1738279152065
 20
607.8857420355286
 30
0.0
 10
838.8769529152808
 20
607.8232420355441
 30
0.0
 10
838.6113279153471
 20
607.791992035552
 30
0.0
 10
838.3769529154057
 20
607.791992035552
 30
0.0
 10
837.9941404155014
 20
607.791992035552
 30
0.0
 10
837.6972654155757
 20
607.8525389105369
 30
0.0
 10
837.4863279156284
 20
607.9736326605066
 30
0.0
 10
837.2753904156812
 20
608.0947264104763
 30
0.0
 10
837.1269529157182
 20
608.2539060979365
 30
0.0
 10
837.0410154157397
 20
608.4511717228872
 30
0.0
 10
836.9550779157612
 20
608.6484373478379
 30
0.0
 10
836.912109165772
 20
609.0634764102341
 30
0.0
 10
836.912109165772
 20
609.696288910076
 30
0.0
 10
836.912109165772
 20
609.696288910076
 30
0.0
 10
836.912109165772
 20
613.2763670341809
 30
0.0
 10
836.912109165772
 20
613.2763670341809
 30
0.0
 10
836.912109165772
 20
613.2763670341809
 30
0.0
 10
836.1386716659653
 20
613.2763670341809
 30
0.0
 10
836.1386716659653
 20
613.2763670341809
 30
0.0
 10
836.1386716659653
 20
613.2763670341809
 30
0.0
 10
836.1386716659653
 20
614.0966795339758
 30
0.0
 10
836.1386716659653
 20
614.0966795339758
 30
0.0
 10
836.1386716659653
 20
614.0966795339758
 30
0.0
 10
836.912109165772
 20
614.0966795339758
 30
0.0
 10
836.912109165772
 20
614.0966795339758
 30
0.0
 10
836.912109165772
 20
614.0966795339758
 30
0.0
 10
836.912109165772
 20
615.6376951585905
 30
0.0
 10
836.912109165772
 20
615.6376951585905
 30
0.0
 10
836.912109165772
 20
615.6376951585905
 30
0.0
 10
837.9609372905097
 20
616.2705076584324
 30
0.0
 10
837.9609372905097
 20
616.2705076584324
 30
0.0
 10
837.9609372905097
 20
616.2705076584324
 30
0.0
 10
837.9609372905097
 20
614.0966795339758
 30
0.0
 10
837.9609372905097
 20
614.0966795339758
 30
0.0
 10
837.9609372905097
 20
614.0966795339758
 30
0.0
 10
839.0214841652446
 20
614.0966795339758
 30
0.0
 10
839.0214841652446
 20
614.0966795339758
 30
0.0
 10
839.0214841652446
 20
614.0966795339758
 30
0.0
 10
839.0214841652446
 20
613.2763670341809
 30
0.0
 10
839.0214841652446
 20
613.2763670341809
 30
0.0
 10
839.0214841652446
 20
613.2763670341809
 30
0.0
 10
837.9609372905097
 20
613.2763670341809
 30
0.0
 10
837.9609372905097
 20
613.2763670341809
 30
0.0
 10
837.9609372905097
 20
613.2763670341809
 30
0.0
 10
837.9609372905097
 20
609.6376951600905
 30
0.0
 10
837.9609372905097
 20
609.6376951600905
 30
0.0
 10
837.9609372905097
 20
609.3369139101658
 30
0.0
 10
837.9794919780051
 20
609.1435545352141
 30
0.0
 10
838.0166013529958
 20
609.0576170352356
 30
0.0
 10
838.0537107279865
 20
608.9716795352571
 30
0.0
 10
838.1142576029714
 20
608.9033201602741
 30
0.0
 10
838.1982419779504
 20
608.8525389102869
 30
0.0
 10
838.2822263529295
 20
608.8017576602996
 30
0.0
 10
838.4023435403994
 20
608.776367035306
 30
0.0
 10
838.5585935403603
 20
608.776367035306
 30
0.0
 10
838.675781040331
 20
608.776367035306
 30
0.0
 10
838.8300779152925
 20
608.7900389103024
 30
0.0
 10
839.0214841652446
 20
608.8173826602956
 30
0.0
  0
HATCH
  5
A3
330
90
100
AcDbEntity
  8
0
 62
   240
420
 15539236
100
AcDbHatch
 10
0.0
 20
0.0
 30
0.0
210
0.0
220
0.0
230
1.0
  2
SOLID
 70
     1
 71
     0
 91
        1
 92
        1
 93
        1
 72
     4
 94
        3
 73
     0
 74
     1
 95
       65
 96
       61
 40
0.0
 40
0.0
 40
0.0
 40
0.0
 40
1.0
 40
1.0
 40
1.0
 40
2.0
 40
2.0
 40
2.0
 40
3.0
 40
3.0
 40
3.0
 40
4.0
 40
4.0
 40
4.0
 40
5.0
 40
5.0
 40
5.0
 40
6.0
 40
6.0
 40
6.0
 40
7.0
 40
7.0
 40
7.0
 40
8.0
 40
8.0
 40
8.0
 40
9.0
 40
9.0
 40
9.0
 40
10.0
 40
10.0
 40
10.0
 40
11.0
 40
11.0
 40
11.0
 40
12.0
 40
12.0
 40
12.0
 40
13.0
 40
13.0
 40
13.0
 40
14.0
 40
14.0
 40
14.0
 40
15.0
 40
15.0
 40
15.0
 40
16.0
 40
16.0
 40
16.0
 40
17.0
 40
17.0
 40
17.0
 40
18.0
 40
18.0
 40
18.0
 40
19.0
 40
19.0
 40
19.0
 40
20.0
 40
20.0
 40
20.0
 40
20.0
 10
839.0214841652446
 20
608.8173826602956
 10
839.0214841652446
 20
608.8173826602956
 10
839.1738279152065
 20
607.8857420355286
 10
839.1738279152065
 20
607.8857420355286
 10
838.8769529152808
 20
607.8232420355441
 10
838.6113279153471
 20
607.791992035552
 10
838.3769529154057
 20
607.791992035552
 10
837.9941404155014
 20
607.791992035552
 10
837.6972654155757
 20
607.8525389105369
 10
837.4863279156284
 20
607.9736326605066
 10
837.2753904156812
 20
608.0947264104763
 10
837.1269529157182
 20
608.2539060979365
 10
837.0410154157397
 20
608.4511717228872
 10
836.9550779157612
 20
608.6484373478379
 10
836.912109165772
 20
609.0634764102341
 10
836.912109165772
 20
609.696288910076
 10
836.912109165772
 20
609.696288910076
 10
836.912109165772
 20
613.2763670341809
 10
836.912109165772
 20
613.2763670341809
 10
836.912109165772
 20
613.2763670341809
 10
836.1386716659653
 20
613.2763670341809
 10
836.1386716659653
 20
613.2763670341809
 10
836.1386716659653
 20
613.2763670341809
 10
836.1386716659653
 20
614.0966795339758
 10
836.1386716659653
 20
614.0966795339758
 10
836.1386716659653
 20
614.0966795339758
 10
836.912109165772
 20
614.0966795339758
 10
836.912109165772
 20
614.0966795339758
 10
836.912109165772
 20
614.0966795339758
 10
836.912109165772
 20
615.6376951585905
 10
836.912109165772
 20
615.6376951585905
 10
836.912109165772
 20
615.6376951585905
 10
837.9609372905097
 20
616.2705076584324
 10
837.9609372905097
 20
616.2705076584324
 10
837.9609372905097
 20
616.2705076584324
 10
837.9609372905097
 20
614.0966795339758
 10
837.9609372905097
 20
614.0966795339758
 10
837.9609372905097
 20
614.0966795339758
 10
839.0214841652446
 20
614.0966795339758
 10
839.0214841652446
 20
614.0966795339758
 10
839.0214841652446
 20
614.0966795339758
 10
839.0214841652446
 20
613.2763670341809
 10
839.0214841652446
 20
613.2763670341809
 10
839.0214841652446
 20
613.2763670341809
 10
837.9609372905097
 20
613.2763670341809
 10
837.9609372905097
 20
613.2763670341809
 10
837.9609372905097
 20
613.2763670341809
 10
837.9609372905097
 20
609.6376951600905
 10
837.9609372905097
 20
609.6376951600905
 10
837.9609372905097
 20
609.3369139101658
 10
837.9794919780051
 20
609.1435545352141
 10
838.0166013529958
 20
609.0576170352356
 10
838.0537107279865
 20
608.9716795352571
 10
838.1142576029714
 20
608.9033201602741
 10
838.1982419779504
 20
608.8525389102869
 10
838.2822263529295
 20
608.8017576602996
 10
838.4023435403994
 20
608.776367035306
 10
838.5585935403603
 20
608.776367035306
 10
838.675781040331
 20
608.776367035306
 10
838.8300779152925
 20
608.7900389103024
 10
839.0214841652446
 20
608.8173826602956
 97
        0
 97
        0
 75
     2
 76
     1
 98
        0
  0
SPLINE
  5
A4
330
90
100
AcDbEntity
  8
0
 62
   240
420
 15539236
370
    35
100
AcDbSpline
210
0.0
220
0.0
230
1.0
 70
    11
 71
     3
 72
    50
 73
    46
 74
     0
 42
0.0000000001
 43
0.0000000001
 12
1.0
 22
0.0
 32
0.0
 13
1.0
 23
0.0
 33
0.0
 40
0.0
 40
0.0
 40
0.0
 40
0.0
 40
1.0
 40
1.0
 40
1.0
 40
2.0
 40
2.0
 40
2.0
 40
3.0
 40
3.0
 40
3.0
 40
4.0
 40
4.0
 40
4.0
 40
5.0
 40
5.0
 40
5.0
 40
6.0
 40
6.0
 40
6.0
 40
7.0
 40
7.0
 40
7.0
 40
8.0
 40
8.0
 40
8.0
 40
9.0
 40
9.0
 40
9.0
 40
10.0
 40
10.0
 40
10.0
 40
11.0
 40
11.0
 40
11.0
 40
12.0
 40
12.0
 40
12.0
 40
13.0
 40
13.0
 40
13.0
 40
14.0
 40
14.0
 40
14.0
 40
15.0
 40
15.0
 40
15.0
 40
15.0
 10
844.3124997889219
 20
609.8779295350305
 30
0.0
 10
844.3124997889219
 20
609.8779295350305
 30
0.0
 10
845.4023435386493
 20
609.7431639100641
 30
0.0
 10
845.4023435386493
 20
609.7431639100641
 30
0.0
 10
845.2304685386923
 20
609.1064451602234
 30
0.0
 10
844.9121091637719
 20
608.6123045353469
 30
0.0
 10
844.4472654138882
 20
608.2607420354348
 30
0.0
 10
843.9824216640044
 20
607.9091795355226
 30
0.0
 10
843.3886716641529
 20
607.7333982855666
 30
0.0
 10
842.6660154143335
 20
607.7333982855666
 30
0.0
 10
841.755859164561
 20
607.7333982855666
 30
0.0
 10
841.0341794772414
 20
608.0136717229966
 30
0.0
 10
840.5009763523748
 20
608.5742185978564
 30
0.0
 10
839.967773227508
 20
609.1347654727163
 30
0.0
 10
839.7011716650746
 20
609.9208982850198
 30
0.0
 10
839.7011716650746
 20
610.9326170347668
 30
0.0
 10
839.7011716650746
 20
611.9794920345051
 30
0.0
 10
839.9707029150073
 20
612.791992034302
 30
0.0
 10
840.5097654148725
 20
613.3701170341575
 30
0.0
 10
841.0488279147378
 20
613.9482420340129
 30
0.0
 10
841.7480466645629
 20
614.2373045339407
 30
0.0
 10
842.6074216643482
 20
614.2373045339407
 30
0.0
 10
843.4394529141401
 20
614.2373045339407
 30
0.0
 10
844.1191404139702
 20
613.9541014090115
 30
0.0
 10
844.6464841638384
 20
613.387695159153
 30
0.0
 10
845.1738279137065
 20
612.8212889092947
 30
0.0
 10
845.4374997886406
 20
612.0244139094939
 30
0.0
 10
845.4374997886406
 20
610.9970701597507
 30
0.0
 10
845.4374997886406
 20
610.9345701597664
 30
0.0
 10
845.435546663641
 20
610.8408201597898
 30
0.0
 10
845.4316404136421
 20
610.7158201598211
 30
0.0
 10
845.4316404136421
 20
610.7158201598211
 30
0.0
 10
840.7910154148022
 20
610.7158201598211
 30
0.0
 10
840.7910154148022
 20
610.7158201598211
 30
0.0
 10
840.8300779147925
 20
610.032226409992
 30
0.0
 10
841.0234372897442
 20
609.5087889101228
 30
0.0
 10
841.3710935396572
 20
609.1455076602136
 30
0.0
 10
841.7187497895703
 20
608.7822264103045
 30
0.0
 10
842.1523435394619
 20
608.6005857853498
 30
0.0
 10
842.671874789332
 20
608.6005857853498
 30
0.0
 10
843.0585935392353
 20
608.6005857853498
 30
0.0
 10
843.3886716641529
 20
608.7021482853245
 30
0.0
 10
843.6621091640844
 20
608.9052732852737
 30
0.0
 10
843.9355466640161
 20
609.1083982852228
 30
0.0
 10
844.1523435389619
 20
609.4326170351418
 30
0.0
 10
844.3124997889219
 20
609.8779295350305
 30
0.0
  0
SPLINE
  5
A5
330
90
100
AcDbEntity
  8
0
 62
   240
420
 15539236
370
    35
100
AcDbSpline
210
0.0
220
0.0
230
1.0
 70
    11
 71
     3
 72
    20
 73
    16
 74
     0
 42
0.0000000001
 43
0.0000000001
 12
1.0
 22
0.0
 32
0.0
 13
1.0
 23
0.0
 33
0.0
 40
0.0
 40
0.0
 40
0.0
 40
0.0
 40
1.0
 40
1.0
 40
1.0
 40
2.0
 40
2.0
 40
2.0
 40
3.0
 40
3.0
 40
3.0
 40
4.0
 40
4.0
 40
4.0
 40
5.0
 40
5.0
 40
5.0
 40
5.0
 10
840.8496091647876
 20
611.5830076596043
 30
0.0
 10
840.8496091647876
 20
611.5830076596043
 30
0.0
 10
844.3242185389189
 20
611.5830076596043
 30
0.0
 10
844.3242185389189
 20
611.5830076596043
 30
0.0
 10
844.2773435389306
 20
612.1064451594734
 30
0.0
 10
844.1445310389638
 20
612.4990232843752
 30
0.0
 10
843.9257810390185
 20
612.7607420343098
 30
0.0
 10
843.5898435391025
 20
613.1669920342082
 30
0.0
 10
843.1542966642114
 20
613.3701170341575
 30
0.0
 10
842.6191404143452
 20
613.3701170341575
 30
0.0
 10
842.1347654144663
 20
613.3701170341575
 30
0.0
 10
841.727538852068
 20
613.208007659198
 30
0.0
 10
841.3974607271506
 20
612.883788909279
 30
0.0
 10
841.0673826022331
 20
612.5595701593601
 30
0.0
 10
840.8847654147788
 20
612.1259764094685
 30
0.0
 10
840.8496091647876
 20
611.5830076596043
 30
0.0
  0
HATCH
  5
A6
330
90
100
AcDbEntity
  8
0
 62
   240
420
 15539236
100
AcDbHatch
 10
0.0
 20
0.0
 30
0.0
210
0.0
220
0.0
230
1.0
  2
SOLID
 70
     1
 71
     0
 91
        2
 92
        1
 93
        1
 72
     4
 94
        3
 73
     0
 74
     1
 95
       50
 96
       46
 40
0.0
 40
0.0
 40
0.0
 40
0.0
 40
1.0
 40
1.0
 40
1.0
 40
2.0
 40
2.0
 40
2.0
 40
3.0
 40
3.0
 40
3.0
 40
4.0
 40
4.0
 40
4.0
 40
5.0
 40
5.0
 40
5.0
 40
6.0
 40
6.0
 40
6.0
 40
7.0
 40
7.0
 40
7.0
 40
8.0
 40
8.0
 40
8.0
 40
9.0
 40
9.0
 40
9.0
 40
10.0
 40
10.0
 40
10.0
 40
11.0
 40
11.0
 40
11.0
 40
12.0
 40
12.0
 40
12.0
 40
13.0
 40
13.0
 40
13.0
 40
14.0
 40
14.0
 40
14.0
 40
15.0
 40
15.0
 40
15.0
 40
15.0
 10
844.3124997889219
 20
609.8779295350305
 10
844.3124997889219
 20
609.8779295350305
 10
845.4023435386493
 20
609.7431639100641
 10
845.4023435386493
 20
609.7431639100641
 10
845.2304685386923
 20
609.1064451602234
 10
844.9121091637719
 20
608.6123045353469
 10
844.4472654138882
 20
608.2607420354348
 10
843.9824216640044
 20
607.9091795355226
 10
843.3886716641529
 20
607.7333982855666
 10
842.6660154143335
 20
607.7333982855666
 10
841.755859164561
 20
607.7333982855666
 10
841.0341794772414
 20
608.0136717229966
 10
840.5009763523748
 20
608.5742185978564
 10
839.967773227508
 20
609.1347654727163
 10
839.7011716650746
 20
609.9208982850198
 10
839.7011716650746
 20
610.9326170347668
 10
839.7011716650746
 20
611.9794920345051
 10
839.9707029150073
 20
612.791992034302
 10
840.5097654148725
 20
613.3701170341575
 10
841.0488279147378
 20
613.9482420340129
 10
841.7480466645629
 20
614.2373045339407
 10
842.6074216643482
 20
614.2373045339407
 10
843.4394529141401
 20
614.2373045339407
 10
844.1191404139702
 20
613.9541014090115
 10
844.6464841638384
 20
613.387695159153
 10
845.1738279137065
 20
612.8212889092947
 10
845.4374997886406
 20
612.0244139094939
 10
845.4374997886406
 20
610.9970701597507
 10
845.4374997886406
 20
610.9345701597664
 10
845.435546663641
 20
610.8408201597898
 10
845.4316404136421
 20
610.7158201598211
 10
845.4316404136421
 20
610.7158201598211
 10
840.7910154148022
 20
610.7158201598211
 10
840.7910154148022
 20
610.7158201598211
 10
840.8300779147925
 20
610.032226409992
 10
841.0234372897442
 20
609.5087889101228
 10
841.3710935396572
 20
609.1455076602136
 10
841.7187497895703
 20
608.7822264103045
 10
842.1523435394619
 20
608.6005857853498
 10
842.671874789332
 20
608.6005857853498
 10
843.0585935392353
 20
608.6005857853498
 10
843.3886716641529
 20
608.7021482853245
 10
843.6621091640844
 20
608.9052732852737
 10
843.9355466640161
 20
609.1083982852228
 10
844.1523435389619
 20
609.4326170351418
 10
844.3124997889219
 20
609.8779295350305
 97
        0
 97
        0
 92
        1
 93
        1
 72
     4
 94
        3
 73
     0
 74
     1
 95
       20
 96
       16
 40
0.0
 40
0.0
 40
0.0
 40
0.0
 40
1.0
 40
1.0
 40
1.0
 40
2.0
 40
2.0
 40
2.0
 40
3.0
 40
3.0
 40
3.0
 40
4.0
 40
4.0
 40
4.0
 40
5.0
 40
5.0
 40
5.0
 40
5.0
 10
840.8496091647876
 20
611.5830076596043
 10
840.8496091647876
 20
611.5830076596043
 10
844.3242185389189
 20
611.5830076596043
 10
844.3242185389189
 20
611.5830076596043
 10
844.2773435389306
 20
612.1064451594734
 10
844.1445310389638
 20
612.4990232843752
 10
843.9257810390185
 20
612.7607420343098
 10
843.5898435391025
 20
613.1669920342082
 10
843.1542966642114
 20
613.3701170341575
 10
842.6191404143452
 20
613.3701170341575
 10
842.1347654144663
 20
613.3701170341575
 10
841.727538852068
 20
613.208007659198
 10
841.3974607271506
 20
612.883788909279
 10
841.0673826022331
 20
612.5595701593601
 10
840.8847654147788
 20
612.1259764094685
 10
840.8496091647876
 20
611.5830076596043
 97
        0
 97
        0
 75
     2
 76
     1
 98
        0
  0
SPLINE
  5
A7
330
90
100
AcDbEntity
  8
0
 62
   240
420
 15539236
370
    35
100
AcDbSpline
210
0.0
220
0.0
230
1.0
 70
    11
 71
     3
 72
    50
 73
    46
 74
     0
 42
0.0000000001
 43
0.0000000001
 12
1.0
 22
0.0
 32
0.0
 13
1.0
 23
0.0
 33
0.0
 40
0.0
 40
0.0
 40
0.0
 40
0.0
 40
1.0
 40
1.0
 40
1.0
 40
2.0
 40
2.0
 40
2.0
 40
3.0
 40
3.0
 40
3.0
 40
4.0
 40
4.0
 40
4.0
 40
5.0
 40
5.0
 40
5.0
 40
6.0
 40
6.0
 40
6.0
 40
7.0
 40
7.0
 40
7.0
 40
8.0
 40
8.0
 40
8.0
 40
9.0
 40
9.0
 40
9.0
 40
10.0
 40
10.0
 40
10.0
 40
11.0
 40
11.0
 40
11.0
 40
12.0
 40
12.0
 40
12.0
 40
13.0
 40
13.0
 40
13.0
 40
14.0
 40
14.0
 40
14.0
 40
15.0
 40
15.0
 40
15.0
 40
15.0
 10
846.7265622883183
 20
605.4892576611277
 30
0.0
 10
846.7265622883183
 20
605.4892576611277
 30
0.0
 10
846.7265622883183
 20
614.0966795339758
 30
0.0
 10
846.7265622883183
 20
614.0966795339758
 30
0.0
 10
846.7265622883183
 20
614.0966795339758
 30
0.0
 10
847.6874997880781
 20
614.0966795339758
 30
0.0
 10
847.6874997880781
 20
614.0966795339758
 30
0.0
 10
847.6874997880781
 20
614.0966795339758
 30
0.0
 10
847.6874997880781
 20
613.288085784178
 30
0.0
 10
847.6874997880781
 20
613.288085784178
 30
0.0
 10
847.9140622880215
 20
613.6044920340988
 30
0.0
 10
848.1699216629574
 20
613.8417967215396
 30
0.0
 10
848.4550779128862
 20
613.9999998465
 30
0.0
 10
848.7402341628149
 20
614.1582029714605
 30
0.0
 10
849.0859372877285
 20
614.2373045339407
 30
0.0
 10
849.492187287627
 20
614.2373045339407
 30
0.0
 10
850.0234372874942
 20
614.2373045339407
 30
0.0
 10
850.492187287377
 20
614.1005857839748
 30
0.0
 10
850.8984372872753
 20
613.8271482840432
 30
0.0
 10
851.3046872871738
 20
613.5537107841116
 30
0.0
 10
851.6113279120972
 20
613.167968596708
 30
0.0
 10
851.8183591620453
 20
612.6699217218325
 30
0.0
 10
852.0253904119936
 20
612.171874846957
 30
0.0
 10
852.1289060369678
 20
611.6259764095935
 30
0.0
 10
852.1289060369678
 20
611.032226409742
 30
0.0
 10
852.1289060369678
 20
610.3955076599011
 30
0.0
 10
852.0146482244963
 20
609.8222654725445
 30
0.0
 10
851.7861325995534
 20
609.3124998476719
 30
0.0
 10
851.5576169746106
 20
608.8027342227994
 30
0.0
 10
851.2255857246936
 20
608.412109222897
 30
0.0
 10
850.7900388498025
 20
608.1406248479649
 30
0.0
 10
850.3544919749114
 20
607.8691404730328
 30
0.0
 10
849.8964841625259
 20
607.7333982855666
 30
0.0
 10
849.416015412646
 20
607.7333982855666
 30
0.0
 10
849.0644529127338
 20
607.7333982855666
 30
0.0
 10
848.7490232253127
 20
607.8076170355481
 30
0.0
 10
848.4697263503825
 20
607.9560545355109
 30
0.0
 10
848.1904294754523
 20
608.1044920354739
 30
0.0
 10
847.9609372880097
 20
608.291992035427
 30
0.0
 10
847.7812497880547
 20
608.5185545353703
 30
0.0
 10
847.7812497880547
 20
608.5185545353703
 30
0.0
 10
847.7812497880547
 20
605.4892576611277
 30
0.0
 10
847.7812497880547
 20
605.4892576611277
 30
0.0
 10
847.7812497880547
 20
605.4892576611277
 30
0.0
 10
846.7265622883183
 20
605.4892576611277
 30
0.0
 10
846.7265622883183
 20
605.4892576611277
 30
0.0
  0
SPLINE
  5
A8
330
90
100
AcDbEntity
  8
0
 62
   240
420
 15539236
370
    35
100
AcDbSpline
210
0.0
220
0.0
230
1.0
 70
    11
 71
     3
 72
    29
 73
    25
 74
     0
 42
0.0000000001
 43
0.0000000001
 12
1.0
 22
0.0
 32
0.0
 13
1.0
 23
0.0
 33
0.0
 40
0.0
 40
0.0
 40
0.0
 40
0.0
 40
1.0
 40
1.0
 40
1.0
 40
2.0
 40
2.0
 40
2.0
 40
3.0
 40
3.0
 40
3.0
 40
4.0
 40
4.0
 40
4.0
 40
5.0
 40
5.0
 40
5.0
 40
6.0
 40
6.0
 40
6.0
 40
7.0
 40
7.0
 40
7.0
 40
8.0
 40
8.0
 40
8.0
 40
8.0
 10
847.6816404130795
 20
610.9501951597624
 30
0.0
 10
847.6816404130795
 20
610.1494139099626
 30
0.0
 10
847.8437497880391
 20
609.5576170351106
 30
0.0
 10
848.167968537958
 20
609.1748045352062
 30
0.0
 10
848.492187287877
 20
608.791992035302
 30
0.0
 10
848.8847654127788
 20
608.6005857853498
 30
0.0
 10
849.3457029126636
 20
608.6005857853498
 30
0.0
 10
849.8144529125464
 20
608.6005857853498
 30
0.0
 10
850.215820099946
 20
608.7988279728003
 30
0.0
 10
850.5498044748625
 20
609.1953123477011
 30
0.0
 10
850.8837888497791
 20
609.591796722602
 30
0.0
 10
851.0507810372372
 20
610.2060545349485
 30
0.0
 10
851.0507810372372
 20
611.0380857847405
 30
0.0
 10
851.0507810372372
 20
611.8310545345422
 30
0.0
 10
850.887695099778
 20
612.4248045343938
 30
0.0
 10
850.5615232248596
 20
612.8193357842952
 30
0.0
 10
850.2353513499412
 20
613.2138670341965
 30
0.0
 10
849.8457029125385
 20
613.4111326591473
 30
0.0
 10
849.3925779126519
 20
613.4111326591473
 30
0.0
 10
848.9433591627642
 20
613.4111326591473
 30
0.0
 10
848.5458982253635
 20
613.2011717216997
 30
0.0
 10
848.20019510045
 20
612.7812498468047
 30
0.0
 10
847.8544919755363
 20
612.3613279719096
 30
0.0
 10
847.6816404130795
 20
611.7509764095622
 30
0.0
 10
847.6816404130795
 20
610.9501951597624
 30
0.0
  0
HATCH
  5
A9
330
90
100
AcDbEntity
  8
0
 62
   240
420
 15539236
100
AcDbHatch
 10
0.0
 20
0.0
 30
0.0
210
0.0
220
0.0
230
1.0
  2
SOLID
 70
     1
 71
     0
 91
        2
 92
        1
 93
        1
 72
     4
 94
        3
 73
     0
 74
     1
 95
       50
 96
       46
 40
0.0
 40
0.0
 40
0.0
 40
0.0
 40
1.0
 40
1.0
 40
1.0
 40
2.0
 40
2.0
 40
2.0
 40
3.0
 40
3.0
 40
3.0
 40
4.0
 40
4.0
 40
4.0
 40
5.0
 40
5.0
 40
5.0
 40
6.0
 40
6.0
 40
6.0
 40
7.0
 40
7.0
 40
7.0
 40
8.0
 40
8.0
 40
8.0
 40
9.0
 40
9.0
 40
9.0
 40
10.0
 40
10.0
 40
10.0
 40
11.0
 40
11.0
 40
11.0
 40
12.0
 40
12.0
 40
12.0
 40
13.0
 40
13.0
 40
13.0
 40
14.0
 40
14.0
 40
14.0
 40
15.0
 40
15.0
 40
15.0
 40
15.0
 10
846.7265622883183
 20
605.4892576611277
 10
846.7265622883183
 20
605.4892576611277
 10
846.7265622883183
 20
614.0966795339758
 10
846.7265622883183
 20
614.0966795339758
 10
846.7265622883183
 20
614.0966795339758
 10
847.6874997880781
 20
614.0966795339758
 10
847.6874997880781
 20
614.0966795339758
 10
847.6874997880781
 20
614.0966795339758
 10
847.6874997880781
 20
613.288085784178
 10
847.6874997880781
 20
613.288085784178
 10
847.9140622880215
 20
613.6044920340988
 10
848.1699216629574
 20
613.8417967215396
 10
848.4550779128862
 20
613.9999998465
 10
848.7402341628149
 20
614.1582029714605
 10
849.0859372877285
 20
614.2373045339407
 10
849.492187287627
 20
614.2373045339407
 10
850.0234372874942
 20
614.2373045339407
 10
850.492187287377
 20
614.1005857839748
 10
850.8984372872753
 20
613.8271482840432
 10
851.3046872871738
 20
613.5537107841116
 10
851.6113279120972
 20
613.167968596708
 10
851.8183591620453
 20
612.6699217218325
 10
852.0253904119936
 20
612.171874846957
 10
852.1289060369678
 20
611.6259764095935
 10
852.1289060369678
 20
611.032226409742
 10
852.1289060369678
 20
610.3955076599011
 10
852.0146482244963
 20
609.8222654725445
 10
851.7861325995534
 20
609.3124998476719
 10
851.5576169746106
 20
608.8027342227994
 10
851.2255857246936
 20
608.412109222897
 10
850.7900388498025
 20
608.1406248479649
 10
850.3544919749114
 20
607.8691404730328
 10
849.8964841625259
 20
607.7333982855666
 10
849.416015412646
 20
607.7333982855666
 10
849.0644529127338
 20
607.7333982855666
 10
848.7490232253127
 20
607.8076170355481
 10
848.4697263503825
 20
607.9560545355109
 10
848.1904294754523
 20
608.1044920354739
 10
847.9609372880097
 20
608.291992035427
 10
847.7812497880547
 20
608.5185545353703
 10
847.7812497880547
 20
608.5185545353703
 10
847.7812497880547
 20
605.4892576611277
 10
847.7812497880547
 20
605.4892576611277
 10
847.7812497880547
 20
605.4892576611277
 10
846.7265622883183
 20
605.4892576611277
 10
846.7265622883183
 20
605.4892576611277
 97
        0
 97
        0
 92
        1
 93
        1
 72
     4
 94
        3
 73
     0
 74
     1
 95
       29
 96
       25
 40
0.0
 40
0.0
 40
0.0
 40
0.0
 40
1.0
 40
1.0
 40
1.0
 40
2.0
 40
2.0
 40
2.0
 40
3.0
 40
3.0
 40
3.0
 40
4.0
 40
4.0
 40
4.0
 40
5.0
 40
5.0
 40
5.0
 40
6.0
 40
6.0
 40
6.0
 40
7.0
 40
7.0
 40
7.0
 40
8.0
 40
8.0
 40
8.0
 40
8.0
 10
847.6816404130795
 20
610.9501951597624
 10
847.6816404130795
 20
610.1494139099626
 10
847.8437497880391
 20
609.5576170351106
 10
848.167968537958
 20
609.1748045352062
 10
848.492187287877
 20
608.791992035302
 10
848.8847654127788
 20
608.6005857853498
 10
849.3457029126636
 20
608.6005857853498
 10
849.8144529125464
 20
608.6005857853498
 10
850.215820099946
 20
608.7988279728003
 10
850.5498044748625
 20
609.1953123477011
 10
850.8837888497791
 20
609.591796722602
 10
851.0507810372372
 20
610.2060545349485
 10
851.0507810372372
 20
611.0380857847405
 10
851.0507810372372
 20
611.8310545345422
 10
850.887695099778
 20
612.4248045343938
 10
850.5615232248596
 20
612.8193357842952
 10
850.2353513499412
 20
613.2138670341965
 10
849.8457029125385
 20
613.4111326591473
 10
849.3925779126519
 20
613.4111326591473
 10
848.9433591627642
 20
613.4111326591473
 10
848.5458982253635
 20
613.2011717216997
 10
848.20019510045
 20
612.7812498468047
 10
847.8544919755363
 20
612.3613279719096
 10
847.6816404130795
 20
611.7509764095622
 10
847.6816404130795
 20
610.9501951597624
 97
        0
 97
        0
 75
     2
 76
     1
 98
        0
  0
SPLINE
  5
AA
330
90
100
AcDbEntity
  8
0
 62
   240
420
 15539236
370
    35
100
AcDbSpline
210
0.0
220
0.0
230
1.0
 70
    11
 71
     3
 72
    50
 73
    46
 74
     0
 42
0.0000000001
 43
0.0000000001
 12
1.0
 22
0.0
 32
0.0
 13
1.0
 23
0.0
 33
0.0
 40
0.0
 40
0.0
 40
0.0
 40
0.0
 40
1.0
 40
1.0
 40
1.0
 40
2.0
 40
2.0
 40
2.0
 40
3.0
 40
3.0
 40
3.0
 40
4.0
 40
4.0
 40
4.0
 40
5.0
 40
5.0
 40
5.0
 40
6.0
 40
6.0
 40
6.0
 40
7.0
 40
7.0
 40
7.0
 40
8.0
 40
8.0
 40
8.0
 40
9.0
 40
9.0
 40
9.0
 40
10.0
 40
10.0
 40
10.0
 40
11.0
 40
11.0
 40
11.0
 40
12.0
 40
12.0
 40
12.0
 40
13.0
 40
13.0
 40
13.0
 40
14.0
 40
14.0
 40
14.0
 40
15.0
 40
15.0
 40
15.0
 40
15.0
 10
853.4003904116499
 20
605.4892576611277
 30
0.0
 10
853.4003904116499
 20
605.4892576611277
 30
0.0
 10
853.4003904116499
 20
614.0966795339758
 30
0.0
 10
853.4003904116499
 20
614.0966795339758
 30
0.0
 10
853.4003904116499
 20
614.0966795339758
 30
0.0
 10
854.3613279114096
 20
614.0966795339758
 30
0.0
 10
854.3613279114096
 20
614.0966795339758
 30
0.0
 10
854.3613279114096
 20
614.0966795339758
 30
0.0
 10
854.3613279114096
 20
613.288085784178
 30
0.0
 10
854.3613279114096
 20
613.288085784178
 30
0.0
 10
854.587890411353
 20
613.6044920340988
 30
0.0
 10
854.8437497862891
 20
613.8417967215396
 30
0.0
 10
855.1289060362177
 20
613.9999998465
 30
0.0
 10
855.4140622861464
 20
614.1582029714605
 30
0.0
 10
855.75976541106
 20
614.2373045339407
 30
0.0
 10
856.1660154109585
 20
614.2373045339407
 30
0.0
 10
856.6972654108257
 20
614.2373045339407
 30
0.0
 10
857.1660154107085
 20
614.1005857839748
 30
0.0
 10
857.5722654106069
 20
613.8271482840432
 30
0.0
 10
857.9785154105053
 20
613.5537107841116
 30
0.0
 10
858.2851560354287
 20
613.167968596708
 30
0.0
 10
858.492187285377
 20
612.6699217218325
 30
0.0
 10
858.6992185353251
 20
612.171874846957
 30
0.0
 10
858.8027341602993
 20
611.6259764095935
 30
0.0
 10
858.8027341602993
 20
611.032226409742
 30
0.0
 10
858.8027341602993
 20
610.3955076599011
 30
0.0
 10
858.6884763478279
 20
609.8222654725445
 30
0.0
 10
858.459960722885
 20
609.3124998476719
 30
0.0
 10
858.2314450979421
 20
608.8027342227994
 30
0.0
 10
857.8994138480251
 20
608.412109222897
 30
0.0
 10
857.463866973134
 20
608.1406248479649
 30
0.0
 10
857.028320098243
 20
607.8691404730328
 30
0.0
 10
856.5703122858574
 20
607.7333982855666
 30
0.0
 10
856.0898435359775
 20
607.7333982855666
 30
0.0
 10
855.7382810360654
 20
607.7333982855666
 30
0.0
 10
855.4228513486443
 20
607.8076170355481
 30
0.0
 10
855.1435544737141
 20
607.9560545355109
 30
0.0
 10
854.8642575987839
 20
608.1044920354739
 30
0.0
 10
854.6347654113413
 20
608.291992035427
 30
0.0
 10
854.4550779113862
 20
608.5185545353703
 30
0.0
 10
854.4550779113862
 20
608.5185545353703
 30
0.0
 10
854.4550779113862
 20
605.4892576611277
 30
0.0
 10
854.4550779113862
 20
605.4892576611277
 30
0.0
 10
854.4550779113862
 20
605.4892576611277
 30
0.0
 10
853.4003904116499
 20
605.4892576611277
 30
0.0
 10
853.4003904116499
 20
605.4892576611277
 30
0.0
  0
SPLINE
  5
AB
330
90
100
AcDbEntity
  8
0
 62
   240
420
 15539236
370
    35
100
AcDbSpline
210
0.0
220
0.0
230
1.0
 70
    11
 71
     3
 72
    29
 73
    25
 74
     0
 42
0.0000000001
 43
0.0000000001
 12
1.0
 22
0.0
 32
0.0
 13
1.0
 23
0.0
 33
0.0
 40
0.0
 40
0.0
 40
0.0
 40
0.0
 40
1.0
 40
1.0
 40
1.0
 40
2.0
 40
2.0
 40
2.0
 40
3.0
 40
3.0
 40
3.0
 40
4.0
 40
4.0
 40
4.0
 40
5.0
 40
5.0
 40
5.0
 40
6.0
 40
6.0
 40
6.0
 40
7.0
 40
7.0
 40
7.0
 40
8.0
 40
8.0
 40
8.0
 40
8.0
 10
854.3554685364111
 20
610.9501951597624
 30
0.0
 10
854.3554685364111
 20
610.1494139099626
 30
0.0
 10
854.5175779113706
 20
609.5576170351106
 30
0.0
 10
854.8417966612895
 20
609.1748045352062
 30
0.0
 10
855.1660154112085
 20
608.791992035302
 30
0.0
 10
855.5585935361104
 20
608.6005857853498
 30
0.0
 10
856.0195310359951
 20
608.6005857853498
 30
0.0
 10
856.4882810358779
 20
608.6005857853498
 30
0.0
 10
856.8896482232776
 20
608.7988279728003
 30
0.0
 10
857.2236325981941
 20
609.1953123477011
 30
0.0
 10
857.5576169731106
 20
609.591796722602
 30
0.0
 10
857.7246091605688
 20
610.2060545349485
 30
0.0
 10
857.7246091605688
 20
611.0380857847405
 30
0.0
 10
857.7246091605688
 20
611.8310545345422
 30
0.0
 10
857.5615232231096
 20
612.4248045343938
 30
0.0
 10
857.2353513481911
 20
612.8193357842952
 30
0.0
 10
856.9091794732727
 20
613.2138670341965
 30
0.0
 10
856.51953103587
 20
613.4111326591473
 30
0.0
 10
856.0664060359834
 20
613.4111326591473
 30
0.0
 10
855.6171872860957
 20
613.4111326591473
 30
0.0
 10
855.2197263486951
 20
613.2011717216997
 30
0.0
 10
854.8740232237815
 20
612.7812498468047
 30
0.0
 10
854.5283200988679
 20
612.3613279719096
 30
0.0
 10
854.3554685364111
 20
611.7509764095622
 30
0.0
 10
854.3554685364111
 20
610.9501951597624
 30
0.0
  0
HATCH
  5
AC
330
90
100
AcDbEntity
  8
0
 62
   240
420
 15539236
100
AcDbHatch
 10
0.0
 20
0.0
 30
0.0
210
0.0
220
0.0
230
1.0
  2
SOLID
 70
     1
 71
     0
 91
        2
 92
        1
 93
        1
 72
     4
 94
        3
 73
     0
 74
     1
 95
       50
 96
       46
 40
0.0
 40
0.0
 40
0.0
 40
0.0
 40
1.0
 40
1.0
 40
1.0
 40
2.0
 40
2.0
 40
2.0
 40
3.0
 40
3.0
 40
3.0
 40
4.0
 40
4.0
 40
4.0
 40
5.0
 40
5.0
 40
5.0
 40
6.0
 40
6.0
 40
6.0
 40
7.0
 40
7.0
 40
7.0
 40
8.0
 40
8.0
 40
8.0
 40
9.0
 40
9.0
 40
9.0
 40
10.0
 40
10.0
 40
10.0
 40
11.0
 40
11.0
 40
11.0
 40
12.0
 40
12.0
 40
12.0
 40
13.0
 40
13.0
 40
13.0
 40
14.0
 40
14.0
 40
14.0
 40
15.0
 40
15.0
 40
15.0
 40
15.0
 10
853.4003904116499
 20
605.4892576611277
 10
853.4003904116499
 20
605.4892576611277
 10
853.4003904116499
 20
614.0966795339758
 10
853.4003904116499
 20
614.0966795339758
 10
853.4003904116499
 20
614.0966795339758
 10
854.3613279114096
 20
614.0966795339758
 10
854.3613279114096
 20
614.0966795339758
 10
854.3613279114096
 20
614.0966795339758
 10
854.3613279114096
 20
613.288085784178
 10
854.3613279114096
 20
613.288085784178
 10
854.587890411353
 20
613.6044920340988
 10
854.8437497862891
 20
613.8417967215396
 10
855.1289060362177
 20
613.9999998465
 10
855.4140622861464
 20
614.1582029714605
 10
855.75976541106
 20
614.2373045339407
 10
856.1660154109585
 20
614.2373045339407
 10
856.6972654108257
 20
614.2373045339407
 10
857.1660154107085
 20
614.1005857839748
 10
857.5722654106069
 20
613.8271482840432
 10
857.9785154105053
 20
613.5537107841116
 10
858.2851560354287
 20
613.167968596708
 10
858.492187285377
 20
612.6699217218325
 10
858.6992185353251
 20
612.171874846957
 10
858.8027341602993
 20
611.6259764095935
 10
858.8027341602993
 20
611.032226409742
 10
858.8027341602993
 20
610.3955076599011
 10
858.6884763478279
 20
609.8222654725445
 10
858.459960722885
 20
609.3124998476719
 10
858.2314450979421
 20
608.8027342227994
 10
857.8994138480251
 20
608.412109222897
 10
857.463866973134
 20
608.1406248479649
 10
857.028320098243
 20
607.8691404730328
 10
856.5703122858574
 20
607.7333982855666
 10
856.0898435359775
 20
607.7333982855666
 10
855.7382810360654
 20
607.7333982855666
 10
855.4228513486443
 20
607.8076170355481
 10
855.1435544737141
 20
607.9560545355109
 10
854.8642575987839
 20
608.1044920354739
 10
854.6347654113413
 20
608.291992035427
 10
854.4550779113862
 20
608.5185545353703
 10
854.4550779113862
 20
608.5185545353703
 10
854.4550779113862
 20
605.4892576611277
 10
854.4550779113862
 20
605.4892576611277
 10
854.4550779113862
 20
605.4892576611277
 10
853.4003904116499
 20
605.4892576611277
 10
853.4003904116499
 20
605.4892576611277
 97
        0
 97
        0
 92
        1
 93
        1
 72
     4
 94
        3
 73
     0
 74
     1
 95
       29
 96
       25
 40
0.0
 40
0.0
 40
0.0
 40
0.0
 40
1.0
 40
1.0
 40
1.0
 40
2.0
 40
2.0
 40
2.0
 40
3.0
 40
3.0
 40
3.0
 40
4.0
 40
4.0
 40
4.0
 40
5.0
 40
5.0
 40
5.0
 40
6.0
 40
6.0
 40
6.0
 40
7.0
 40
7.0
 40
7.0
 40
8.0
 40
8.0
 40
8.0
 40
8.0
 10
854.3554685364111
 20
610.9501951597624
 10
854.3554685364111
 20
610.1494139099626
 10
854.5175779113706
 20
609.5576170351106
 10
854.8417966612895
 20
609.1748045352062
 10
855.1660154112085
 20
608.791992035302
 10
855.5585935361104
 20
608.6005857853498
 10
856.0195310359951
 20
608.6005857853498
 10
856.4882810358779
 20
608.6005857853498
 10
856.8896482232776
 20
608.7988279728003
 10
857.2236325981941
 20
609.1953123477011
 10
857.5576169731106
 20
609.591796722602
 10
857.7246091605688
 20
610.2060545349485
 10
857.7246091605688
 20
611.0380857847405
 10
857.7246091605688
 20
611.8310545345422
 10
857.5615232231096
 20
612.4248045343938
 10
857.2353513481911
 20
612.8193357842952
 10
856.9091794732727
 20
613.2138670341965
 10
856.51953103587
 20
613.4111326591473
 10
856.0664060359834
 20
613.4111326591473
 10
855.6171872860957
 20
613.4111326591473
 10
855.2197263486951
 20
613.2011717216997
 10
854.8740232237815
 20
612.7812498468047
 10
854.5283200988679
 20
612.3613279719096
 10
854.3554685364111
 20
611.7509764095622
 10
854.3554685364111
 20
610.9501951597624
 97
        0
 97
        0
 75
     2
 76
     1
 98
        0
  0
SPLINE
  5
AD
330
90
100
AcDbEntity
  8
0
 62
   240
420
 15539236
370
    35
100
AcDbSpline
210
0.0
220
0.0
230
1.0
 70
    11
 71
     3
 72
    50
 73
    46
 74
     0
 42
0.0000000001
 43
0.0000000001
 12
1.0
 22
0.0
 32
0.0
 13
1.0
 23
0.0
 33
0.0
 40
0.0
 40
0.0
 40
0.0
 40
0.0
 40
1.0
 40
1.0
 40
1.0
 40
2.0
 40
2.0
 40
2.0
 40
3.0
 40
3.0
 40
3.0
 40
4.0
 40
4.0
 40
4.0
 40
5.0
 40
5.0
 40
5.0
 40
6.0
 40
6.0
 40
6.0
 40
7.0
 40
7.0
 40
7.0
 40
8.0
 40
8.0
 40
8.0
 40
9.0
 40
9.0
 40
9.0
 40
10.0
 40
10.0
 40
10.0
 40
11.0
 40
11.0
 40
11.0
 40
12.0
 40
12.0
 40
12.0
 40
13.0
 40
13.0
 40
13.0
 40
14.0
 40
14.0
 40
14.0
 40
15.0
 40
15.0
 40
15.0
 40
15.0
 10
864.3339841589165
 20
609.8779295350305
 30
0.0
 10
864.3339841589165
 20
609.8779295350305
 30
0.0
 10
865.4238279086441
 20
609.7431639100641
 30
0.0
 10
865.4238279086441
 20
609.7431639100641
 30
0.0
 10
865.251952908687
 20
609.1064451602234
 30
0.0
 10
864.9335935337666
 20
608.6123045353469
 30
0.0
 10
864.4687497838828
 20
608.2607420354348
 30
0.0
 10
864.003906033999
 20
607.9091795355226
 30
0.0
 10
863.4101560341475
 20
607.7333982855666
 30
0.0
 10
862.6874997843281
 20
607.7333982855666
 30
0.0
 10
861.7773435345556
 20
607.7333982855666
 30
0.0
 10
861.055663847236
 20
608.0136717229966
 30
0.0
 10
860.5224607223694
 20
608.5742185978564
 30
0.0
 10
859.9892575975026
 20
609.1347654727163
 30
0.0
 10
859.7226560350693
 20
609.9208982850198
 30
0.0
 10
859.7226560350693
 20
610.9326170347668
 30
0.0
 10
859.7226560350693
 20
611.9794920345051
 30
0.0
 10
859.9921872850019
 20
612.791992034302
 30
0.0
 10
860.5312497848672
 20
613.3701170341575
 30
0.0
 10
861.0703122847324
 20
613.9482420340129
 30
0.0
 10
861.7695310345576
 20
614.2373045339407
 30
0.0
 10
862.6289060343428
 20
614.2373045339407
 30
0.0
 10
863.4609372841347
 20
614.2373045339407
 30
0.0
 10
864.1406247839649
 20
613.9541014090115
 30
0.0
 10
864.667968533833
 20
613.387695159153
 30
0.0
 10
865.1953122837011
 20
612.8212889092947
 30
0.0
 10
865.4589841586352
 20
612.0244139094939
 30
0.0
 10
865.4589841586352
 20
610.9970701597507
 30
0.0
 10
865.4589841586352
 20
610.9345701597664
 30
0.0
 10
865.4570310336358
 20
610.8408201597898
 30
0.0
 10
865.4531247836367
 20
610.7158201598211
 30
0.0
 10
865.4531247836367
 20
610.7158201598211
 30
0.0
 10
860.8124997847968
 20
610.7158201598211
 30
0.0
 10
860.8124997847968
 20
610.7158201598211
 30
0.0
 10
860.8515622847871
 20
610.032226409992
 30
0.0
 10
861.0449216597387
 20
609.5087889101228
 30
0.0
 10
861.3925779096519
 20
609.1455076602136
 30
0.0
 10
861.7402341595649
 20
608.7822264103045
 30
0.0
 10
862.1738279094566
 20
608.6005857853498
 30
0.0
 10
862.6933591593266
 20
608.6005857853498
 30
0.0
 10
863.08007790923
 20
608.6005857853498
 30
0.0
 10
863.4101560341475
 20
608.7021482853245
 30
0.0
 10
863.6835935340791
 20
608.9052732852737
 30
0.0
 10
863.9570310340107
 20
609.1083982852228
 30
0.0
 10
864.1738279089565
 20
609.4326170351418
 30
0.0
 10
864.3339841589165
 20
609.8779295350305
 30
0.0
  0
SPLINE
  5
AE
330
90
100
AcDbEntity
  8
0
 62
   240
420
 15539236
370
    35
100
AcDbSpline
210
0.0
220
0.0
230
1.0
 70
    11
 71
     3
 72
    20
 73
    16
 74
     0
 42
0.0000000001
 43
0.0000000001
 12
1.0
 22
0.0
 32
0.0
 13
1.0
 23
0.0
 33
0.0
 40
0.0
 40
0.0
 40
0.0
 40
0.0
 40
1.0
 40
1.0
 40
1.0
 40
2.0
 40
2.0
 40
2.0
 40
3.0
 40
3.0
 40
3.0
 40
4.0
 40
4.0
 40
4.0
 40
5.0
 40
5.0
 40
5.0
 40
5.0
 10
860.8710935347822
 20
611.5830076596043
 30
0.0
 10
860.8710935347822
 20
611.5830076596043
 30
0.0
 10
864.3457029089136
 20
611.5830076596043
 30
0.0
 10
864.3457029089136
 20
611.5830076596043
 30
0.0
 10
864.2988279089253
 20
612.1064451594734
 30
0.0
 10
864.1660154089585
 20
612.4990232843752
 30
0.0
 10
863.9472654090132
 20
612.7607420343098
 30
0.0
 10
863.6113279090971
 20
613.1669920342082
 30
0.0
 10
863.175781034206
 20
613.3701170341575
 30
0.0
 10
862.6406247843398
 20
613.3701170341575
 30
0.0
 10
862.1562497844609
 20
613.3701170341575
 30
0.0
 10
861.7490232220628
 20
613.208007659198
 30
0.0
 10
861.4189450971453
 20
612.883788909279
 30
0.0
 10
861.0888669722277
 20
612.5595701593601
 30
0.0
 10
860.9062497847734
 20
612.1259764094685
 30
0.0
 10
860.8710935347822
 20
611.5830076596043
 30
0.0
  0
HATCH
  5
AF
330
90
100
AcDbEntity
  8
0
 62
   240
420
 15539236
100
AcDbHatch
 10
0.0
 20
0.0
 30
0.0
210
0.0
220
0.0
230
1.0
  2
SOLID
 70
     1
 71
     0
 91
        2
 92
        1
 93
        1
 72
     4
 94
        3
 73
     0
 74
     1
 95
       50
 96
       46
 40
0.0
 40
0.0
 40
0.0
 40
0.0
 40
1.0
 40
1.0
 40
1.0
 40
2.0
 40
2.0
 40
2.0
 40
3.0
 40
3.0
 40
3.0
 40
4.0
 40
4.0
 40
4.0
 40
5.0
 40
5.0
 40
5.0
 40
6.0
 40
6.0
 40
6.0
 40
7.0
 40
7.0
 40
7.0
 40
8.0
 40
8.0
 40
8.0
 40
9.0
 40
9.0
 40
9.0
 40
10.0
 40
10.0
 40
10.0
 40
11.0
 40
11.0
 40
11.0
 40
12.0
 40
12.0
 40
12.0
 40
13.0
 40
13.0
 40
13.0
 40
14.0
 40
14.0
 40
14.0
 40
15.0
 40
15.0
 40
15.0
 40
15.0
 10
864.3339841589165
 20
609.8779295350305
 10
864.3339841589165
 20
609.8779295350305
 10
865.4238279086441
 20
609.7431639100641
 10
865.4238279086441
 20
609.7431639100641
 10
865.251952908687
 20
609.1064451602234
 10
864.9335935337666
 20
608.6123045353469
 10
864.4687497838828
 20
608.2607420354348
 10
864.003906033999
 20
607.9091795355226
 10
863.4101560341475
 20
607.7333982855666
 10
862.6874997843281
 20
607.7333982855666
 10
861.7773435345556
 20
607.7333982855666
 10
861.055663847236
 20
608.0136717229966
 10
860.5224607223694
 20
608.5742185978564
 10
859.9892575975026
 20
609.1347654727163
 10
859.7226560350693
 20
609.9208982850198
 10
859.7226560350693
 20
610.9326170347668
 10
859.7226560350693
 20
611.9794920345051
 10
859.9921872850019
 20
612.791992034302
 10
860.5312497848672
 20
613.3701170341575
 10
861.0703122847324
 20
613.9482420340129
 10
861.7695310345576
 20
614.2373045339407
 10
862.6289060343428
 20
614.2373045339407
 10
863.4609372841347
 20
614.2373045339407
 10
864.1406247839649
 20
613.9541014090115
 10
864.667968533833
 20
613.387695159153
 10
865.1953122837011
 20
612.8212889092947
 10
865.4589841586352
 20
612.0244139094939
 10
865.4589841586352
 20
610.9970701597507
 10
865.4589841586352
 20
610.9345701597664
 10
865.4570310336358
 20
610.8408201597898
 10
865.4531247836367
 20
610.7158201598211
 10
865.4531247836367
 20
610.7158201598211
 10
860.8124997847968
 20
610.7158201598211
 10
860.8124997847968
 20
610.7158201598211
 10
860.8515622847871
 20
610.032226409992
 10
861.0449216597387
 20
609.5087889101228
 10
861.3925779096519
 20
609.1455076602136
 10
861.7402341595649
 20
608.7822264103045
 10
862.1738279094566
 20
608.6005857853498
 10
862.6933591593266
 20
608.6005857853498
 10
863.08007790923
 20
608.6005857853498
 10
863.4101560341475
 20
608.7021482853245
 10
863.6835935340791
 20
608.9052732852737
 10
863.9570310340107
 20
609.1083982852228
 10
864.1738279089565
 20
609.4326170351418
 10
864.3339841589165
 20
609.8779295350305
 97
        0
 97
        0
 92
        1
 93
        1
 72
     4
 94
        3
 73
     0
 74
     1
 95
       20
 96
       16
 40
0.0
 40
0.0
 40
0.0
 40
0.0
 40
1.0
 40
1.0
 40
1.0
 40
2.0
 40
2.0
 40
2.0
 40
3.0
 40
3.0
 40
3.0
 40
4.0
 40
4.0
 40
4.0
 40
5.0
 40
5.0
 40
5.0
 40
5.0
 10
860.8710935347822
 20
611.5830076596043
 10
860.8710935347822
 20
611.5830076596043
 10
864.3457029089136
 20
611.5830076596043
 10
864.3457029089136
 20
611.5830076596043
 10
864.2988279089253
 20
612.1064451594734
 10
864.1660154089585
 20
612.4990232843752
 10
863.9472654090132
 20
612.7607420343098
 10
863.6113279090971
 20
613.1669920342082
 10
863.175781034206
 20
613.3701170341575
 10
862.6406247843398
 20
613.3701170341575
 10
862.1562497844609
 20
613.3701170341575
 10
861.7490232220628
 20
613.208007659198
 10
861.4189450971453
 20
612.883788909279
 10
861.0888669722277
 20
612.5595701593601
 10
860.9062497847734
 20
612.1259764094685
 10
860.8710935347822
 20
611.5830076596043
 97
        0
 97
        0
 75
     2
 76
     1
 98
        0
  0
SPLINE
  5
B0
330
90
100
AcDbEntity
  8
0
 62
   240
420
 15539236
370
    35
100
AcDbSpline
210
0.0
220
0.0
230
1.0
 70
    11
 71
     3
 72
    47
 73
    43
 74
     0
 42
0.0000000001
 43
0.0000000001
 12
1.0
 22
0.0
 32
0.0
 13
1.0
 23
0.0
 33
0.0
 40
0.0
 40
0.0
 40
0.0
 40
0.0
 40
1.0
 40
1.0
 40
1.0
 40
2.0
 40
2.0
 40
2.0
 40
3.0
 40
3.0
 40
3.0
 40
4.0
 40
4.0
 40
4.0
 40
5.0
 40
5.0
 40
5.0
 40
6.0
 40
6.0
 40
6.0
 40
7.0
 40
7.0
 40
7.0
 40
8.0
 40
8.0
 40
8.0
 40
9.0
 40
9.0
 40
9.0
 40
10.0
 40
10.0
 40
10.0
 40
11.0
 40
11.0
 40
11.0
 40
12.0
 40
12.0
 40
12.0
 40
13.0
 40
13.0
 40
13.0
 40
14.0
 40
14.0
 40
14.0
 40
14.0
 10
870.7851560323037
 20
607.8740232855315
 30
0.0
 10
870.7851560323037
 20
607.8740232855315
 30
0.0
 10
870.7851560323037
 20
608.6591795353352
 30
0.0
 10
870.7851560323037
 20
608.6591795353352
 30
0.0
 10
870.3906247824024
 20
608.0419920354894
 30
0.0
 10
869.8105466575473
 20
607.7333982855666
 30
0.0
 10
869.0449216577388
 20
607.7333982855666
 30
0.0
 10
868.5488279078628
 20
607.7333982855666
 30
0.0
 10
868.0927732204768
 20
607.8701170355324
 30
0.0
 10
867.6767575955807
 20
608.1435545354641
 30
0.0
 10
867.2607419706848
 20
608.4169920353958
 30
0.0
 10
866.9384763457654
 20
608.7988279728003
 30
0.0
 10
866.7099607208224
 20
609.2890623476777
 30
0.0
 10
866.4814450958796
 20
609.7792967225552
 30
0.0
 10
866.3671872834082
 20
610.3427732849143
 30
0.0
 10
866.3671872834082
 20
610.9794920347551
 30
0.0
 10
866.3671872834082
 20
611.6005857845998
 30
0.0
 10
866.4707029083823
 20
612.164062346959
 30
0.0
 10
866.6777341583305
 20
612.6699217218325
 30
0.0
 10
866.8847654082788
 20
613.175781096706
 30
0.0
 10
867.1953122832011
 20
613.5634764091092
 30
0.0
 10
867.6093747830977
 20
613.8330076590418
 30
0.0
 10
868.0234372829941
 20
614.1025389089743
 30
0.0
 10
868.4863279078784
 20
614.2373045339407
 30
0.0
 10
868.9980466577505
 20
614.2373045339407
 30
0.0
 10
869.3730466576567
 20
614.2373045339407
 30
0.0
 10
869.7070310325732
 20
614.1582029714605
 30
0.0
 10
869.9999997825
 20
613.9999998465
 30
0.0
 10
870.2929685324267
 20
613.8417967215396
 30
0.0
 10
870.5312497823671
 20
613.6357420340911
 30
0.0
 10
870.7148435323213
 20
613.3818357841545
 30
0.0
 10
870.7148435323213
 20
613.3818357841545
 30
0.0
 10
870.7148435323213
 20
616.4638670333841
 30
0.0
 10
870.7148435323213
 20
616.4638670333841
 30
0.0
 10
870.7148435323213
 20
616.4638670333841
 30
0.0
 10
871.763671657059
 20
616.4638670333841
 30
0.0
 10
871.763671657059
 20
616.4638670333841
 30
0.0
 10
871.763671657059
 20
616.4638670333841
 30
0.0
 10
871.763671657059
 20
607.8740232855315
 30
0.0
 10
871.763671657059
 20
607.8740232855315
 30
0.0
 10
871.763671657059
 20
607.8740232855315
 30
0.0
 10
870.7851560323037
 20
607.8740232855315
 30
0.0
 10
870.7851560323037
 20
607.8740232855315
 30
0.0
  0
SPLINE
  5
B1
330
90
100
AcDbEntity
  8
0
 62
   240
420
 15539236
370
    35
100
AcDbSpline
210
0.0
220
0.0
230
1.0
 70
    11
 71
     3
 72
    29
 73
    25
 74
     0
 42
0.0000000001
 43
0.0000000001
 12
1.0
 22
0.0
 32
0.0
 13
1.0
 23
0.0
 33
0.0
 40
0.0
 40
0.0
 40
0.0
 40
0.0
 40
1.0
 40
1.0
 40
1.0
 40
2.0
 40
2.0
 40
2.0
 40
3.0
 40
3.0
 40
3.0
 40
4.0
 40
4.0
 40
4.0
 40
5.0
 40
5.0
 40
5.0
 40
6.0
 40
6.0
 40
6.0
 40
7.0
 40
7.0
 40
7.0
 40
8.0
 40
8.0
 40
8.0
 40
8.0
 10
867.4511716581372
 20
610.9794920347551
 30
0.0
 10
867.4511716581372
 20
610.1826170349543
 30
0.0
 10
867.6191404080952
 20
609.5869139101032
 30
0.0
 10
867.9550779080112
 20
609.1923826602019
 30
0.0
 10
868.2910154079273
 20
608.7978514103005
 30
0.0
 10
868.6874997828281
 20
608.6005857853498
 30
0.0
 10
869.1445310327139
 20
608.6005857853498
 30
0.0
 10
869.6054685325986
 20
608.6005857853498
 30
0.0
 10
869.9970700950007
 20
608.7890623478028
 30
0.0
 10
870.3193357199201
 20
609.1660154727085
 30
0.0
 10
870.6416013448396
 20
609.5429685976143
 30
0.0
 10
870.8027341572993
 20
610.1181639099705
 30
0.0
 10
870.8027341572993
 20
610.8916014097771
 30
0.0
 10
870.8027341572993
 20
611.7431639095641
 30
0.0
 10
870.6386716573403
 20
612.3681639094079
 30
0.0
 10
870.3105466574224
 20
612.7666014093084
 30
0.0
 10
869.9824216575043
 20
613.1650389092088
 30
0.0
 10
869.5781247826054
 20
613.364257659159
 30
0.0
 10
869.0976560327256
 20
613.364257659159
 30
0.0
 10
868.6289060328428
 20
613.364257659159
 30
0.0
 10
868.2373044704407
 20
613.1728514092068
 30
0.0
 10
867.9228513455192
 20
612.7900389093024
 30
0.0
 10
867.6083982205979
 20
612.4072264093982
 30
0.0
 10
867.4511716581372
 20
611.803710784549
 30
0.0
 10
867.4511716581372
 20
610.9794920347551
 30
0.0
  0
HATCH
  5
B2
330
90
100
AcDbEntity
  8
0
 62
   240
420
 15539236
100
AcDbHatch
 10
0.0
 20
0.0
 30
0.0
210
0.0
220
0.0
230
1.0
  2
SOLID
 70
     1
 71
     0
 91
        2
 92
        1
 93
        1
 72
     4
 94
        3
 73
     0
 74
     1
 95
       47
 96
       43
 40
0.0
 40
0.0
 40
0.0
 40
0.0
 40
1.0
 40
1.0
 40
1.0
 40
2.0
 40
2.0
 40
2.0
 40
3.0
 40
3.0
 40
3.0
 40
4.0
 40
4.0
 40
4.0
 40
5.0
 40
5.0
 40
5.0
 40
6.0
 40
6.0
 40
6.0
 40
7.0
 40
7.0
 40
7.0
 40
8.0
 40
8.0
 40
8.0
 40
9.0
 40
9.0
 40
9.0
 40
10.0
 40
10.0
 40
10.0
 40
11.0
 40
11.0
 40
11.0
 40
12.0
 40
12.0
 40
12.0
 40
13.0
 40
13.0
 40
13.0
 40
14.0
 40
14.0
 40
14.0
 40
14.0
 10
870.7851560323037
 20
607.8740232855315
 10
870.7851560323037
 20
607.8740232855315
 10
870.7851560323037
 20
608.6591795353352
 10
870.7851560323037
 20
608.6591795353352
 10
870.3906247824024
 20
608.0419920354894
 10
869.8105466575473
 20
607.7333982855666
 10
869.0449216577388
 20
607.7333982855666
 10
868.5488279078628
 20
607.7333982855666
 10
868.0927732204768
 20
607.8701170355324
 10
867.6767575955807
 20
608.1435545354641
 10
867.2607419706848
 20
608.4169920353958
 10
866.9384763457654
 20
608.7988279728003
 10
866.7099607208224
 20
609.2890623476777
 10
866.4814450958796
 20
609.7792967225552
 10
866.3671872834082
 20
610.3427732849143
 10
866.3671872834082
 20
610.9794920347551
 10
866.3671872834082
 20
611.6005857845998
 10
866.4707029083823
 20
612.164062346959
 10
866.6777341583305
 20
612.6699217218325
 10
866.8847654082788
 20
613.175781096706
 10
867.1953122832011
 20
613.5634764091092
 10
867.6093747830977
 20
613.8330076590418
 10
868.0234372829941
 20
614.1025389089743
 10
868.4863279078784
 20
614.2373045339407
 10
868.9980466577505
 20
614.2373045339407
 10
869.3730466576567
 20
614.2373045339407
 10
869.7070310325732
 20
614.1582029714605
 10
869.9999997825
 20
613.9999998465
 10
870.2929685324267
 20
613.8417967215396
 10
870.5312497823671
 20
613.6357420340911
 10
870.7148435323213
 20
613.3818357841545
 10
870.7148435323213
 20
613.3818357841545
 10
870.7148435323213
 20
616.4638670333841
 10
870.7148435323213
 20
616.4638670333841
 10
870.7148435323213
 20
616.4638670333841
 10
871.763671657059
 20
616.4638670333841
 10
871.763671657059
 20
616.4638670333841
 10
871.763671657059
 20
616.4638670333841
 10
871.763671657059
 20
607.8740232855315
 10
871.763671657059
 20
607.8740232855315
 10
871.763671657059
 20
607.8740232855315
 10
870.7851560323037
 20
607.8740232855315
 10
870.7851560323037
 20
607.8740232855315
 97
        0
 97
        0
 92
        1
 93
        1
 72
     4
 94
        3
 73
     0
 74
     1
 95
       29
 96
       25
 40
0.0
 40
0.0
 40
0.0
 40
0.0
 40
1.0
 40
1.0
 40
1.0
 40
2.0
 40
2.0
 40
2.0
 40
3.0
 40
3.0
 40
3.0
 40
4.0
 40
4.0
 40
4.0
 40
5.0
 40
5.0
 40
5.0
 40
6.0
 40
6.0
 40
6.0
 40
7.0
 40
7.0
 40
7.0
 40
8.0
 40
8.0
 40
8.0
 40
8.0
 10
867.4511716581372
 20
610.9794920347551
 10
867.4511716581372
 20
610.1826170349543
 10
867.6191404080952
 20
609.5869139101032
 10
867.9550779080112
 20
609.1923826602019
 10
868.2910154079273
 20
608.7978514103005
 10
868.6874997828281
 20
608.6005857853498
 10
869.1445310327139
 20
608.6005857853498
 10
869.6054685325986
 20
608.6005857853498
 10
869.9970700950007
 20
608.7890623478028
 10
870.3193357199201
 20
609.1660154727085
 10
870.6416013448396
 20
609.5429685976143
 10
870.8027341572993
 20
610.1181639099705
 10
870.8027341572993
 20
610.8916014097771
 10
870.8027341572993
 20
611.7431639095641
 10
870.6386716573403
 20
612.3681639094079
 10
870.3105466574224
 20
612.7666014093084
 10
869.9824216575043
 20
613.1650389092088
 10
869.5781247826054
 20
613.364257659159
 10
869.0976560327256
 20
613.364257659159
 10
868.6289060328428
 20
613.364257659159
 10
868.2373044704407
 20
613.1728514092068
 10
867.9228513455192
 20
612.7900389093024
 10
867.6083982205979
 20
612.4072264093982
 10
867.4511716581372
 20
611.803710784549
 10
867.4511716581372
 20
610.9794920347551
 97
        0
 97
        0
 75
     2
 76
     1
 98
        0
  0
POLYLINE
  5
B3
330
90
100
AcDbEntity
  8
0
 62
   240
420
 15539236
370
    35
100
AcDb2dPolyline
 66
     1
 10
0.0
 20
0.0
 30
0.0
  0
VERTEX
  5
B4
330
B3
100
AcDbEntity
  8
0
 62
   240
420
 15539236
370
    35
100
AcDbVertex
100
AcDb2dVertex
 10
886.0664060284834
 20
616.0068357834983
 30
0.0
  0
VERTEX
  5
B5
330
B3
100
AcDbEntity
  8
0
 62
   240
420
 15539236
370
    35
100
AcDbVertex
100
AcDb2dVertex
 10
881.9062497795234
 20
607.6923826605769
 30
0.0
  0
VERTEX
  5
B6
330
B3
100
AcDbEntity
  8
0
 62
   240
420
 15539236
370
    35
100
AcDbVertex
100
AcDb2dVertex
 10
877.7460935305635
 20
616.0068357834983
 30
0.0
  0
VERTEX
  5
B7
330
B3
100
AcDbEntity
  8
0
 62
   240
420
 15539236
370
    35
100
AcDbVertex
100
AcDb2dVertex
 10
886.0664060284834
 20
616.0068357834983
 30
0.0
  0
SEQEND
  5
B8
330
B3
100
AcDbEntity
  8
0
 62
   240
420
 15539236
370
    35
  0
HATCH
  5
B9
330
90
100
AcDbEntity
  8
0
 62
   240
420
 15539236
100
AcDbHatch
 10
0.0
 20
0.0
 30
0.0
210
0.0
220
0.0
230
1.0
  2
SOLID
 70
     1
 71
     0
 91
        1
 92
        1
 93
        3
 72
     1
 10
886.0664060284834
 20
616.0068357834983
 11
881.9062497795234
 21
607.6923826605769
 72
     1
 10
881.9062497795234
 20
607.6923826605769
 11
877.7460935305635
 21
616.0068357834983
 72
     1
 10
877.7460935305635
 20
616.0068357834983
 11
886.0664060284834
 21
616.0068357834983
 97
        0
 75
     2
 76
     1
 98
        0
  0
ENDBLK
  5
93
330
90
100
AcDbEntity
  8
0
100
AcDbBlockEnd
  0
ENDSEC
  0
SECTION
  2
ENTITIES
  0
INSERT
  5
41
330
1F
100
AcDbEntity
  8
0
100
AcDbBlockReference
  2
block 2
 10
0.0
 20
0.0
 30
0.0
  0
INSERT
  5
46
330
1F
100
AcDbEntity
  8
0
100
AcDbBlockReference
  2
block 3
 10
0.0
 20
0.0
 30
0.0
  0
INSERT
  5
4B
330
1F
100
AcDbEntity
  8
0
100
AcDbBlockReference
  2
block 4
 10
0.0
 20
0.0
 30
0.0
  0
INSERT
  5
50
330
1F
100
AcDbEntity
  8
0
100
AcDbBlockReference
  2
block 5
 10
0.0
 20
0.0
 30
0.0
  0
INSERT
  5
55
330
1F
100
AcDbEntity
  8
0
100
AcDbBlockReference
  2
block 6
 10
0.0
 20
0.0
 30
0.0
  0
INSERT
  5
5A
330
1F
100
AcDbEntity
  8
0
100
AcDbBlockReference
  2
block 7
 10
0.0
 20
0.0
 30
0.0
  0
INSERT
  5
5F
330
1F
100
AcDbEntity
  8
0
100
AcDbBlockReference
  2
block 8
 10
0.0
 20
0.0
 30
0.0
  0
INSERT
  5
64
330
1F
100
AcDbEntity
  8
0
100
AcDbBlockReference
  2
block 9
 10
0.0
 20
0.0
 30
0.0
  0
INSERT
  5
69
330
1F
100
AcDbEntity
  8
0
100
AcDbBlockReference
  2
block 10
 10
0.0
 20
0.0
 30
0.0
  0
INSERT
  5
6E
330
1F
100
AcDbEntity
  8
0
100
AcDbBlockReference
  2
block 11
 10
0.0
 20
0.0
 30
0.0
  0
INSERT
  5
73
330
1F
100
AcDbEntity
  8
0
100
AcDbBlockReference
  2
block 12
 10
0.0
 20
0.0
 30
0.0
  0
INSERT
  5
78
330
1F
100
AcDbEntity
  8
0
100
AcDbBlockReference
  2
block 13
 10
0.0
 20
0.0
 30
0.0
  0
INSERT
  5
7D
330
1F
100
AcDbEntity
  8
0
100
AcDbBlockReference
  2
block 14
 10
0.0
 20
0.0
 30
0.0
  0
INSERT
  5
82
330
1F
100
AcDbEntity
  8
0
100
AcDbBlockReference
  2
block 15
 10
0.0
 20
0.0
 30
0.0
  0
INSERT
  5
87
330
1F
100
AcDbEntity
  8
0
100
AcDbBlockReference
  2
block 16
 10
0.0
 20
0.0
 30
0.0
  0
INSERT
  5
8C
330
1F
100
AcDbEntity
  8
0
100
AcDbBlockReference
  2
block 17
 10
0.0
 20
0.0
 30
0.0
  0
INSERT
  5
91
330
1F
100
AcDbEntity
  8
0
100
AcDbBlockReference
  2
block 18
 10
0.0
 20
0.0
 30
0.0
  0
ENDSEC
  0
SECTION
  2
OBJECTS
  0
DICTIONARY
  5
C
330
0
100
AcDbDictionary
281
     1
  3
ACAD_GROUP
350
D
  3
ACAD_LAYOUT
350
1A
  3
ACAD_MATERIAL
350
3B
  3
ACAD_MLEADERSTYLE
350
BB
  3
ACAD_MLINESTYLE
350
17
  3
ACAD_PLOTSETTINGS
350
19
  3
ACAD_PLOTSTYLENAME
350
E
  3
ACAD_TABLESTYLE
350
BA
  3
ACAD_VISUALSTYLE
350
2A
  0
SUN
  5
3F
330
29
100
AcDbSun
 90
        1
290
     0
 63
     7
421
 16777215
 40
1.0
291
     1
 91
  2455826
 92
 54000000
292
     0
 70
     2
 71
   256
280
     1
  0
DICTIONARY
  5
D
102
{ACAD_REACTORS
330
C
102
}
330
C
100
AcDbDictionary
281
     1
  0
DICTIONARY
  5
1A
102
{ACAD_REACTORS
330
C
102
}
330
C
100
AcDbDictionary
281
     1
  3
Layout1
350
1E
  3
Layout2
350
26
  3
Model
350
22
  0
DICTIONARY
  5
3B
102
{ACAD_REACTORS
330
C
102
}
330
C
100
AcDbDictionary
281
     1
  3
ByBlock
350
3D
  3
ByLayer
350
3C
  3
Global
350
3E
  0
DICTIONARY
  5
BB
102
{ACAD_REACTORS
330
C
102
}
330
C
100
AcDbDictionary
281
     1
  0
DICTIONARY
  5
17
102
{ACAD_REACTORS
330
C
102
}
330
C
100
AcDbDictionary
281
     1
  3
Standard
350
18
  0
DICTIONARY
  5
19
102
{ACAD_REACTORS
330
C
102
}
330
C
100
AcDbDictionary
281
     1
  0
ACDBDICTIONARYWDFLT
  5
E
102
{ACAD_REACTORS
330
C
102
}
330
C
100
AcDbDictionary
281
     1
  3
Normal
350
F
100
AcDbDictionaryWithDefault
340
F
  0
DICTIONARY
  5
BA
102
{ACAD_REACTORS
330
C
102
}
330
C
100
AcDbDictionary
281
     1
  0
DICTIONARY
  5
2A
102
{ACAD_REACTORS
330
C
102
}
330
C
100
AcDbDictionary
281
     1
  3
2dWireframe
350
2F
  3
3D Hidden
350
31
  3
3dWireframe
350
30
  3
Basic
350
32
  3
Brighten
350
36
  3
ColorChange
350
3A
  3
Conceptual
350
34
  3
Dim
350
35
  3
Facepattern
350
39
  3
Flat
350
2B
  3
FlatWithEdges
350
2C
  3
Gouraud
350
2D
  3
GouraudWithEdges
350
2E
  3
Linepattern
350
38
  3
Realistic
350
33
  3
Thicken
350
37
  0
LAYOUT
  5
1E
102
{ACAD_REACTORS
330
1A
102
}
330
1A
100
AcDbPlotSettings
  1

  2
none_device
  4

  6

 40
0.0
 41
0.0
 42
0.0
 43
0.0
 44
0.0
 45
0.0
 46
0.0
 47
0.0
 48
0.0
 49
0.0
140
0.0
141
0.0
142
1.0
143
1.0
 70
   688
 72
     0
 73
     0
 74
     5
  7

 75
    16
 76
     0
 77
     2
 78
   300
147
1.0
148
0.0
149
0.0
100
AcDbLayout
  1
Layout1
 70
     1
 71
     1
 10
0.0
 20
0.0
 11
12.0
 21
9.0
 12
0.0
 22
0.0
 32
0.0
 14
1.000000000000000E+20
 24
1.000000000000000E+20
 34
1.000000000000000E+20
 15
-1.000000000000000E+20
 25
-1.000000000000000E+20
 35
-1.000000000000000E+20
146
0.0
 13
0.0
 23
0.0
 33
0.0
 16
1.0
 26
0.0
 36
0.0
 17
0.0
 27
1.0
 37
0.0
 76
     0
330
1B
  0
LAYOUT
  5
26
102
{ACAD_REACTORS
330
1A
102
}
330
1A
100
AcDbPlotSettings
  1

  2
none_device
  4

  6

 40
0.0
 41
0.0
 42
0.0
 43
0.0
 44
0.0
 45
0.0
 46
0.0
 47
0.0
 48
0.0
 49
0.0
140
0.0
141
0.0
142
1.0
143
1.0
 70
   688
 72
     0
 73
     0
 74
     5
  7

 75
    16
 76
     0
 77
     2
 78
   300
147
1.0
148
0.0
149
0.0
100
AcDbLayout
  1
Layout2
 70
     1
 71
     2
 10
0.0
 20
0.0
 11
0.0
 21
0.0
 12
0.0
 22
0.0
 32
0.0
 14
0.0
 24
0.0
 34
0.0
 15
0.0
 25
0.0
 35
0.0
146
0.0
 13
0.0
 23
0.0
 33
0.0
 16
1.0
 26
0.0
 36
0.0
 17
0.0
 27
1.0
 37
0.0
 76
     0
330
23
  0
LAYOUT
  5
22
102
{ACAD_REACTORS
330
1A
102
}
330
1A
100
AcDbPlotSettings
  1

  2
none_device
  4

  6

 40
0.0
 41
0.0
 42
0.0
 43
0.0
 44
0.0
 45
0.0
 46
0.0
 47
0.0
 48
0.0
 49
0.0
140
0.0
141
0.0
142
1.0
143
1.0
 70
  1712
 72
     0
 73
     0
 74
     0
  7

 75
     0
 76
     0
 77
     2
 78
   300
147
1.0
148
0.0
149
0.0
100
AcDbLayout
  1
Model
 70
     1
 71
     0
 10
0.0
 20
0.0
 11
12.0
 21
9.0
 12
0.0
 22
0.0
 32
0.0
 14
1.000000000000000E+20
 24
1.000000000000000E+20
 34
1.000000000000000E+20
 15
-1.000000000000000E+20
 25
-1.000000000000000E+20
 35
-1.000000000000000E+20
146
0.0
 13
0.0
 23
0.0
 33
0.0
 16
1.0
 26
0.0
 36
0.0
 17
0.0
 27
1.0
 37
0.0
 76
     0
330
1F
331
29
  0
MATERIAL
  5
3D
102
{ACAD_REACTORS
330
3B
102
}
330
3B
100
AcDbMaterial
  1
ByBlock
 72
     1
 94
      127
  0
MATERIAL
  5
3C
102
{ACAD_REACTORS
330
3B
102
}
330
3B
100
AcDbMaterial
  1
ByLayer
 72
     1
 94
      127
  0
MATERIAL
  5
3E
102
{ACAD_REACTORS
330
3B
102
}
330
3B
100
AcDbMaterial
  1
Global
 72
     1
 94
      127
  0
MLINESTYLE
  5
18
102
{ACAD_REACTORS
330
17
102
}
330
17
100
AcDbMlineStyle
  2
Standard
 70
     0
  3

 62
   256
 51
90.0
 52
90.0
 71
     2
 49
0.5
 62
   256
  6
BYLAYER
 49
-0.5
 62
   256
  6
BYLAYER
  0
ACDBPLACEHOLDER
  5
F
102
{ACAD_REACTORS
330
E
102
}
330
E
  0
VISUALSTYLE
  5
2F
102
{ACAD_REACTORS
330
2A
102
}
330
2A
100
AcDbVisualStyle
  2
2dWireframe
 70
     4
177
     2
291
     0
 71
     0
176
     1
 72
     2
176
     1
 73
     0
176
     1
 90
        0
176
     1
 40
-0.6
176
     1
 41
-30.0
176
     1
 62
     5
 63
     7
421
 16777215
176
     1
 74
     1
176
     1
 91
        4
176
     1
 64
     7
176
     1
 65
   257
176
     1
 75
     1
176
     1
175
     1
176
     1
 42
1.0
176
     1
 92
        0
176
     1
 66
   257
176
     1
 43
1.0
176
     1
 76
     1
176
     1
 77
     6
176
     1
 78
     2
176
     1
 67
     7
176
     1
 79
     5
176
     1
170
     0
176
     1
171
     0
176
     1
290
     0
176
     1
 93
        1
176
     1
 44
0.0
176
     1
173
     0
176
     1
  0
VISUALSTYLE
  5
31
102
{ACAD_REACTORS
330
2A
102
}
330
2A
100
AcDbVisualStyle
  2
3D Hidden
 70
     6
177
     2
291
     0
 71
     1
176
     1
 72
     2
176
     1
 73
     2
176
     1
 90
        0
176
     1
 40
-0.6
176
     1
 41
-30.0
176
     1
 62
     5
 63
     7
421
 16777215
176
     1
 74
     2
176
     1
 91
        2
176
     1
 64
     7
176
     1
 65
   257
176
     1
 75
     2
176
     1
175
     1
176
     1
 42
40.0
176
     1
 92
        0
176
     1
 66
   257
176
     1
 43
1.0
176
     1
 76
     1
176
     1
 77
     6
176
     1
 78
     2
176
     1
 67
     7
176
     1
 79
     3
176
     1
170
     0
176
     1
171
     0
176
     1
290
     0
176
     1
 93
        1
176
     1
 44
0.0
176
     1
173
     0
176
     1
  0
VISUALSTYLE
  5
30
102
{ACAD_REACTORS
330
2A
102
}
330
2A
100
AcDbVisualStyle
  2
3dWireframe
 70
     5
177
     2
291
     0
 71
     0
176
     1
 72
     2
176
     1
 73
     0
176
     1
 90
        0
176
     1
 40
-0.6
176
     1
 41
-30.0
176
     1
 62
     5
 63
     7
421
 16777215
176
     1
 74
     1
176
     1
 91
        4
176
     1
 64
     7
176
     1
 65
   257
176
     1
 75
     1
176
     1
175
     1
176
     1
 42
1.0
176
     1
 92
        0
176
     1
 66
   257
176
     1
 43
1.0
176
     1
 76
     1
176
     1
 77
     6
176
     1
 78
     2
176
     1
 67
     7
176
     1
 79
     5
176
     1
170
     0
176
     1
171
     0
176
     1
290
     0
176
     1
 93
        1
176
     1
 44
0.0
176
     1
173
     0
176
     1
  0
VISUALSTYLE
  5
32
102
{ACAD_REACTORS
330
2A
102
}
330
2A
100
AcDbVisualStyle
  2
Basic
 70
     7
177
     2
291
     1
 71
     1
176
     1
 72
     0
176
     1
 73
     1
176
     1
 90
        0
176
     1
 40
-0.6
176
     1
 41
-30.0
176
     1
 62
     5
 63
     7
421
 16777215
176
     1
 74
     0
176
     1
 91
        4
176
     1
 64
     7
176
     1
 65
   257
176
     1
 75
     1
176
     1
175
     1
176
     1
 42
1.0
176
     1
 92
        8
176
     1
 66
     7
176
     1
 43
1.0
176
     1
 76
     1
176
     1
 77
     6
176
     1
 78
     2
176
     1
 67
     7
176
     1
 79
     5
176
     1
170
     0
176
     1
171
     0
176
     1
290
     0
176
     1
 93
        1
176
     1
 44
0.0
176
     1
173
     0
176
     1
  0
VISUALSTYLE
  5
36
102
{ACAD_REACTORS
330
2A
102
}
330
2A
100
AcDbVisualStyle
  2
Brighten
 70
    12
177
     2
291
     1
 71
     2
176
     1
 72
     2
176
     1
 73
     0
176
     1
 90
        0
176
     1
 40
-0.6
176
     1
 41
-30.0
176
     1
 62
     5
 63
     7
421
 16777215
176
     1
 74
     1
176
     1
 91
        4
176
     1
 64
     7
176
     1
 65
   257
176
     1
 75
     1
176
     1
175
     1
176
     1
 42
1.0
176
     1
 92
        8
176
     1
 66
     7
176
     1
 43
1.0
176
     1
 76
     1
176
     1
 77
     6
176
     1
 78
     2
176
     1
 67
     7
176
     1
 79
     5
176
     1
170
     0
176
     1
171
     0
176
     1
290
     0
176
     1
 93
        1
176
     1
 44
50.0
176
     1
173
     0
176
     1
  0
VISUALSTYLE
  5
3A
102
{ACAD_REACTORS
330
2A
102
}
330
2A
100
AcDbVisualStyle
  2
ColorChange
 70
    16
177
     2
291
     1
 71
     2
176
     1
 72
     2
176
     1
 73
     3
176
     1
 90
        0
176
     1
 40
-0.6
176
     1
 41
-30.0
176
     1
 62
     5
 63
     8
421
  8421504
176
     1
 74
     1
176
     1
 91
        4
176
     1
 64
     7
176
     1
 65
   257
176
     1
 75
     1
176
     1
175
     1
176
     1
 42
1.0
176
     1
 92
        8
176
     1
 66
     8
424
  8421504
176
     1
 43
1.0
176
     1
 76
     1
176
     1
 77
     6
176
     1
 78
     2
176
     1
 67
     7
176
     1
 79
     5
176
     1
170
     0
176
     1
171
     0
176
     1
290
     0
176
     1
 93
        1
176
     1
 44
0.0
176
     1
173
     0
176
     1
  0
VISUALSTYLE
  5
34
102
{ACAD_REACTORS
330
2A
102
}
330
2A
100
AcDbVisualStyle
  2
Conceptual
 70
     9
177
     2
291
     0
 71
     3
176
     1
 72
     2
176
     1
 73
     0
176
     1
 90
        0
176
     1
 40
-0.6
176
     1
 41
-30.0
176
     1
 62
     5
 63
     7
421
 16777215
176
     1
 74
     2
176
     1
 91
        2
176
     1
 64
     7
176
     1
 65
   257
176
     1
 75
     1
176
     1
175
     1
176
     1
 42
40.0
176
     1
 92
        8
176
     1
 66
     7
176
     1
 43
1.0
176
     1
 76
     1
176
     1
 77
     6
176
     1
 78
     2
176
     1
 67
     7
176
     1
 79
     3
176
     1
170
     0
176
     1
171
     0
176
     1
290
     0
176
     1
 93
        1
176
     1
 44
0.0
176
     1
173
     0
176
     1
  0
VISUALSTYLE
  5
35
102
{ACAD_REACTORS
330
2A
102
}
330
2A
100
AcDbVisualStyle
  2
Dim
 70
    11
177
     2
291
     1
 71
     2
176
     1
 72
     2
176
     1
 73
     0
176
     1
 90
        0
176
     1
 40
-0.6
176
     1
 41
-30.0
176
     1
 62
     5
 63
     7
421
 16777215
176
     1
 74
     1
176
     1
 91
        4
176
     1
 64
     7
176
     1
 65
   257
176
     1
 75
     1
176
     1
175
     1
176
     1
 42
1.0
176
     1
 92
        8
176
     1
 66
     7
176
     1
 43
1.0
176
     1
 76
     1
176
     1
 77
     6
176
     1
 78
     2
176
     1
 67
     7
176
     1
 79
     5
176
     1
170
     0
176
     1
171
     0
176
     1
290
     0
176
     1
 93
        1
176
     1
 44
-50.0
176
     1
173
     0
176
     1
  0
VISUALSTYLE
  5
39
102
{ACAD_REACTORS
330
2A
102
}
330
2A
100
AcDbVisualStyle
  2
Facepattern
 70
    15
177
     2
291
     1
 71
     2
176
     1
 72
     2
176
     1
 73
     0
176
     1
 90
        0
176
     1
 40
-0.6
176
     1
 41
-30.0
176
     1
 62
     5
 63
     7
421
 16777215
176
     1
 74
     1
176
     1
 91
        4
176
     1
 64
     7
176
     1
 65
   257
176
     1
 75
     1
176
     1
175
     1
176
     1
 42
1.0
176
     1
 92
        8
176
     1
 66
     7
176
     1
 43
1.0
176
     1
 76
     1
176
     1
 77
     6
176
     1
 78
     2
176
     1
 67
     7
176
     1
 79
     5
176
     1
170
     0
176
     1
171
     0
176
     1
290
     0
176
     1
 93
        1
176
     1
 44
0.0
176
     1
173
     0
176
     1
  0
VISUALSTYLE
  5
2B
102
{ACAD_REACTORS
330
2A
102
}
330
2A
100
AcDbVisualStyle
  2
Flat
 70
     0
177
     2
291
     1
 71
     2
176
     1
 72
     1
176
     1
 73
     1
176
     1
 90
        2
176
     1
 40
-0.6
176
     1
 41
30.0
176
     1
 62
     5
 63
     7
421
 16777215
176
     1
 74
     0
176
     1
 91
        4
176
     1
 64
     7
176
     1
 65
   257
176
     1
 75
     1
176
     1
175
     1
176
     1
 42
1.0
176
     1
 92
        8
176
     1
 66
     7
176
     1
 43
1.0
176
     1
 76
     1
176
     1
 77
     6
176
     1
 78
     2
176
     1
 67
     7
176
     1
 79
     5
176
     1
170
     0
176
     1
171
     0
176
     1
290
     0
176
     1
 93
       13
176
     1
 44
0.0
176
     1
173
     0
176
     1
  0
VISUALSTYLE
  5
2C
102
{ACAD_REACTORS
330
2A
102
}
330
2A
100
AcDbVisualStyle
  2
FlatWithEdges
 70
     1
177
     2
291
     1
 71
     2
176
     1
 72
     1
176
     1
 73
     1
176
     1
 90
        2
176
     1
 40
-0.6
176
     1
 41
30.0
176
     1
 62
     5
 63
     7
421
 16777215
176
     1
 74
     1
176
     1
 91
        4
176
     1
 64
     7
176
     1
 65
   257
176
     1
 75
     1
176
     1
175
     1
176
     1
 42
1.0
176
     1
 92
        0
176
     1
 66
   257
176
     1
 43
1.0
176
     1
 76
     1
176
     1
 77
     6
176
     1
 78
     2
176
     1
 67
     7
176
     1
 79
     5
176
     1
170
     0
176
     1
171
     0
176
     1
290
     0
176
     1
 93
       13
176
     1
 44
0.0
176
     1
173
     0
176
     1
  0
VISUALSTYLE
  5
2D
102
{ACAD_REACTORS
330
2A
102
}
330
2A
100
AcDbVisualStyle
  2
Gouraud
 70
     2
177
     2
291
     1
 71
     2
176
     1
 72
     2
176
     1
 73
     1
176
     1
 90
        2
176
     1
 40
-0.6
176
     1
 41
30.0
176
     1
 62
     5
 63
     7
421
 16777215
176
     1
 74
     0
176
     1
 91
        4
176
     1
 64
     7
176
     1
 65
   257
176
     1
 75
     1
176
     1
175
     1
176
     1
 42
1.0
176
     1
 92
        0
176
     1
 66
     7
176
     1
 43
1.0
176
     1
 76
     1
176
     1
 77
     6
176
     1
 78
     2
176
     1
 67
     7
176
     1
 79
     5
176
     1
170
     0
176
     1
171
     0
176
     1
290
     0
176
     1
 93
       13
176
     1
 44
0.0
176
     1
173
     0
176
     1
  0
VISUALSTYLE
  5
2E
102
{ACAD_REACTORS
330
2A
102
}
330
2A
100
AcDbVisualStyle
  2
GouraudWithEdges
 70
     3
177
     2
291
     1
 71
     2
176
     1
 72
     2
176
     1
 73
     1
176
     1
 90
        2
176
     1
 40
-0.6
176
     1
 41
30.0
176
     1
 62
     5
 63
     7
421
 16777215
176
     1
 74
     1
176
     1
 91
        4
176
     1
 64
     7
176
     1
 65
   257
176
     1
 75
     1
176
     1
175
     1
176
     1
 42
1.0
176
     1
 92
        0
176
     1
 66
   257
176
     1
 43
1.0
176
     1
 76
     1
176
     1
 77
     6
176
     1
 78
     2
176
     1
 67
     7
176
     1
 79
     5
176
     1
170
     0
176
     1
171
     0
176
     1
290
     0
176
     1
 93
       13
176
     1
 44
0.0
176
     1
173
     0
176
     1
  0
VISUALSTYLE
  5
38
102
{ACAD_REACTORS
330
2A
102
}
330
2A
100
AcDbVisualStyle
  2
Linepattern
 70
    14
177
     2
291
     1
 71
     2
176
     1
 72
     2
176
     1
 73
     0
176
     1
 90
        0
176
     1
 40
-0.6
176
     1
 41
-30.0
176
     1
 62
     5
 63
     7
421
 16777215
176
     1
 74
     1
176
     1
 91
        4
176
     1
 64
     7
176
     1
 65
   257
176
     1
 75
     7
176
     1
175
     7
176
     1
 42
1.0
176
     1
 92
        8
176
     1
 66
     7
176
     1
 43
1.0
176
     1
 76
     1
176
     1
 77
     6
176
     1
 78
     2
176
     1
 67
     7
176
     1
 79
     5
176
     1
170
     0
176
     1
171
     0
176
     1
290
     0
176
     1
 93
        1
176
     1
 44
0.0
176
     1
173
     0
176
     1
  0
VISUALSTYLE
  5
33
102
{ACAD_REACTORS
330
2A
102
}
330
2A
100
AcDbVisualStyle
  2
Realistic
 70
     8
177
     2
291
     0
 71
     2
176
     1
 72
     2
176
     1
 73
     0
176
     1
 90
        0
176
     1
 40
-0.6
176
     1
 41
-30.0
176
     1
 62
     5
 63
     7
421
 16777215
176
     1
 74
     1
176
     1
 91
        0
176
     1
 64
     7
176
     1
 65
   257
176
     1
 75
     1
176
     1
175
     1
176
     1
 42
1.0
176
     1
 92
        8
176
     1
 66
     8
424
  7895160
176
     1
 43
1.0
176
     1
 76
     1
176
     1
 77
     6
176
     1
 78
     2
176
     1
 67
     7
176
     1
 79
     5
176
     1
170
     0
176
     1
171
     0
176
     1
290
     0
176
     1
 93
       13
176
     1
 44
0.0
176
     1
173
     0
176
     1
  0
VISUALSTYLE
  5
37
102
{ACAD_REACTORS
330
2A
102
}
330
2A
100
AcDbVisualStyle
  2
Thicken
 70
    13
177
     2
291
     1
 71
     2
176
     1
 72
     2
176
     1
 73
     0
176
     1
 90
        0
176
     1
 40
-0.6
176
     1
 41
-30.0
176
     1
 62
     5
 63
     7
421
 16777215
176
     1
 74
     1
176
     1
 91
        4
176
     1
 64
     7
176
     1
 65
   257
176
     1
 75
     1
176
     1
175
     1
176
     1
 42
1.0
176
     1
 92
       12
176
     1
 66
     7
176
     1
 43
1.0
176
     1
 76
     1
176
     1
 77
     6
176
     1
 78
     2
176
     1
 67
     7
176
     1
 79
     5
176
     1
170
     0
176
     1
171
     0
176
     1
290
     0
176
     1
 93
        1
176
     1
 44
0.0
176
     1
173
     0
176
     1
  0
ENDSEC
  0
EOF
