  0
SECTION
  2
HEADER
  9
$ACADVER
  1
AC1024
  9
$ACADMAINTVER
 70
     6
  9
$DWGCODEPAGE
  3
ANSI_1252
  9
$INSBASE
 10
0.0
 20
0.0
 30
0.0
  9
$EXTMIN
 10
1.000000000000000E+20
 20
1.000000000000000E+20
 30
1.000000000000000E+20
  9
$EXTMAX
 10
-1.000000000000000E+20
 20
-1.000000000000000E+20
 30
-1.000000000000000E+20
  9
$LIMMIN
 10
0.0
 20
0.0
  9
$LIMMAX
 10
12.0
 20
9.0
  9
$ORTHOMODE
 70
     0
  9
$REGENMODE
 70
     1
  9
$FILLMODE
 70
     1
  9
$QTEXTMODE
 70
     0
  9
$MIRRTEXT
 70
     1
  9
$LTSCALE
 40
1.0
  9
$ATTMODE
 70
     1
  9
$TEXTSIZE
 40
0.2
  9
$TRACEWID
 40
0.05
  9
$TEXTSTYLE
  7
Standard
  9
$CLAYER
  8
0
  9
$CELTYPE
  6
ByLayer
  9
$CECOLOR
 62
   256
  9
$CELTSCALE
 40
1.0
  9
$DISPSILH
 70
     0
  9
$DIMSCALE
 40
1.0
  9
$DIMASZ
 40
0.18
  9
$DIMEXO
 40
0.0625
  9
$DIMDLI
 40
0.38
  9
$DIMRND
 40
0.0
  9
$DIMDLE
 40
0.0
  9
$DIMEXE
 40
0.18
  9
$DIMTP
 40
0.0
  9
$DIMTM
 40
0.0
  9
$DIMTXT
 40
0.18
  9
$DIMCEN
 40
0.09
  9
$DIMTSZ
 40
0.0
  9
$DIMTOL
 70
     0
  9
$DIMLIM
 70
     0
  9
$DIMTIH
 70
     1
  9
$DIMTOH
 70
     1
  9
$DIMSE1
 70
     0
  9
$DIMSE2
 70
     0
  9
$DIMTAD
 70
     0
  9
$DIMZIN
 70
     0
  9
$DIMBLK
  1

  9
$DIMASO
 70
     1
  9
$DIMSHO
 70
     1
  9
$DIMPOST
  1

  9
$DIMAPOST
  1

  9
$DIMALT
 70
     0
  9
$DIMALTD
 70
     2
  9
$DIMALTF
 40
25.4
  9
$DIMLFAC
 40
1.0
  9
$DIMTOFL
 70
     0
  9
$DIMTVP
 40
0.0
  9
$DIMTIX
 70
     0
  9
$DIMSOXD
 70
     0
  9
$DIMSAH
 70
     0
  9
$DIMBLK1
  1

  9
$DIMBLK2
  1

  9
$DIMSTYLE
  2
Standard
  9
$DIMCLRD
 70
     0
  9
$DIMCLRE
 70
     0
  9
$DIMCLRT
 70
     0
  9
$DIMTFAC
 40
1.0
  9
$DIMGAP
 40
0.09
  9
$DIMJUST
 70
     0
  9
$DIMSD1
 70
     0
  9
$DIMSD2
 70
     0
  9
$DIMTOLJ
 70
     1
  9
$DIMTZIN
 70
     0
  9
$DIMALTZ
 70
     0
  9
$DIMALTTZ
 70
     0
  9
$DIMUPT
 70
     0
  9
$DIMDEC
 70
     4
  9
$DIMTDEC
 70
     4
  9
$DIMALTU
 70
     2
  9
$DIMALTTD
 70
     2
  9
$DIMTXSTY
  7
Standard
  9
$DIMAUNIT
 70
     0
  9
$DIMADEC
 70
     0
  9
$DIMALTRND
 40
0.0
  9
$DIMAZIN
 70
     0
  9
$DIMDSEP
 70
    46
  9
$DIMATFIT
 70
     3
  9
$DIMFRAC
 70
     0
  9
$DIMLDRBLK
  1

  9
$DIMLUNIT
 70
     2
  9
$DIMLWD
 70
    -2
  9
$DIMLWE
 70
    -2
  9
$DIMTMOVE
 70
     0
  9
$DIMFXL
 40
1.0
  9
$DIMFXLON
 70
     0
  9
$DIMJOGANG
 40
0.7853981633974483
  9
$DIMTFILL
 70
     0
  9
$DIMTFILLCLR
 70
     0
  9
$DIMARCSYM
 70
     0
  9
$DIMLTYPE
  6

  9
$DIMLTEX1
  6

  9
$DIMLTEX2
  6

  9
$DIMTXTDIRECTION
 70
     0
  9
$LUNITS
 70
     2
  9
$LUPREC
 70
     4
  9
$SKETCHINC
 40
0.1
  9
$FILLETRAD
 40
0.5
  9
$AUNITS
 70
     0
  9
$AUPREC
 70
     0
  9
$MENU
  1
.
  9
$ELEVATION
 40
0.0
  9
$PELEVATION
 40
0.0
  9
$THICKNESS
 40
0.0
  9
$LIMCHECK
 70
     0
  9
$CHAMFERA
 40
0.5
  9
$CHAMFERB
 40
0.5
  9
$CHAMFERC
 40
1.0
  9
$CHAMFERD
 40
0.0
  9
$SKPOLY
 70
     0
  9
$TDCREATE
 40
2459171.942966065
  9
$TDUCREATE
 40
2459172.276299398
  9
$TDUPDATE
 40
2459171.942966088
  9
$TDUUPDATE
 40
2459172.276299421
  9
$TDINDWG
 40
0.0000000116
  9
$TDUSRTIMER
 40
0.0000000116
  9
$USRTIMER
 70
     1
  9
$ANGBASE
 50
0.0
  9
$ANGDIR
 70
     0
  9
$PDMODE
 70
     0
  9
$PDSIZE
 40
0.0
  9
$PLINEWID
 40
0.0
  9
$SPLFRAME
 70
     0
  9
$SPLINETYPE
 70
     6
  9
$SPLINESEGS
 70
     8
  9
$HANDSEED
  5
A6
  9
$SURFTAB1
 70
     6
  9
$SURFTAB2
 70
     6
  9
$SURFTYPE
 70
     6
  9
$SURFU
 70
     6
  9
$SURFV
 70
     6
  9
$UCSBASE
  2

  9
$UCSNAME
  2

  9
$UCSORG
 10
0.0
 20
0.0
 30
0.0
  9
$UCSXDIR
 10
1.0
 20
0.0
 30
0.0
  9
$UCSYDIR
 10
0.0
 20
1.0
 30
0.0
  9
$UCSORTHOREF
  2

  9
$UCSORTHOVIEW
 70
     0
  9
$UCSORGTOP
 10
0.0
 20
0.0
 30
0.0
  9
$UCSORGBOTTOM
 10
0.0
 20
0.0
 30
0.0
  9
$UCSORGLEFT
 10
0.0
 20
0.0
 30
0.0
  9
$UCSORGRIGHT
 10
0.0
 20
0.0
 30
0.0
  9
$UCSORGFRONT
 10
0.0
 20
0.0
 30
0.0
  9
$UCSORGBACK
 10
0.0
 20
0.0
 30
0.0
  9
$PUCSBASE
  2

  9
$PUCSNAME
  2

  9
$PUCSORG
 10
0.0
 20
0.0
 30
0.0
  9
$PUCSXDIR
 10
1.0
 20
0.0
 30
0.0
  9
$PUCSYDIR
 10
0.0
 20
1.0
 30
0.0
  9
$PUCSORTHOREF
  2

  9
$PUCSORTHOVIEW
 70
     0
  9
$PUCSORGTOP
 10
0.0
 20
0.0
 30
0.0
  9
$PUCSORGBOTTOM
 10
0.0
 20
0.0
 30
0.0
  9
$PUCSORGLEFT
 10
0.0
 20
0.0
 30
0.0
  9
$PUCSORGRIGHT
 10
0.0
 20
0.0
 30
0.0
  9
$PUCSORGFRONT
 10
0.0
 20
0.0
 30
0.0
  9
$PUCSORGBACK
 10
0.0
 20
0.0
 30
0.0
  9
$USERI1
 70
     0
  9
$USERI2
 70
     0
  9
$USERI3
 70
     0
  9
$USERI4
 70
     0
  9
$USERI5
 70
     0
  9
$USERR1
 40
0.0
  9
$USERR2
 40
0.0
  9
$USERR3
 40
0.0
  9
$USERR4
 40
0.0
  9
$USERR5
 40
0.0
  9
$WORLDVIEW
 70
     1
  9
$SHADEDGE
 70
     3
  9
$SHADEDIF
 70
    70
  9
$TILEMODE
 70
     1
  9
$MAXACTVP
 70
    64
  9
$PINSBASE
 10
0.0
 20
0.0
 30
0.0
  9
$PLIMCHECK
 70
     0
  9
$PEXTMIN
 10
1.000000000000000E+20
 20
1.000000000000000E+20
 30
1.000000000000000E+20
  9
$PEXTMAX
 10
-1.000000000000000E+20
 20
-1.000000000000000E+20
 30
-1.000000000000000E+20
  9
$PLIMMIN
 10
0.0
 20
0.0
  9
$PLIMMAX
 10
12.0
 20
9.0
  9
$UNITMODE
 70
     0
  9
$VISRETAIN
 70
     1
  9
$PLINEGEN
 70
     0
  9
$PSLTSCALE
 70
     1
  9
$TREEDEPTH
 70
  3020
  9
$CMLSTYLE
  2
Standard
  9
$CMLJUST
 70
     0
  9
$CMLSCALE
 40
1.0
  9
$PROXYGRAPHICS
 70
     1
  9
$MEASUREMENT
 70
     0
  9
$CELWEIGHT
370
    -1
  9
$ENDCAPS
280
     0
  9
$JOINSTYLE
280
     0
  9
$LWDISPLAY
290
     1
  9
$INSUNITS
 70
     4
  9
$HYPERLINKBASE
  1

  9
$STYLESHEET
  1

  9
$XEDIT
290
     1
  9
$CEPSNTYPE
380
     0
  9
$PSTYLEMODE
290
     1
  9
$FINGERPRINTGUID
  2
{25E9C6B3-B3AA-4B29-A47B-07E93D8ABC45}
  9
$VERSIONGUID
  2
{FAEB1C32-E019-11D5-929B-00C0DF256EC4}
  9
$EXTNAMES
290
     1
  9
$PSVPSCALE
 40
0.0
  9
$OLESTARTUP
290
     0
  9
$SORTENTS
280
   127
  9
$INDEXCTL
280
     0
  9
$HIDETEXT
280
     1
  9
$XCLIPFRAME
280
     2
  9
$HALOGAP
280
     0
  9
$OBSCOLOR
 70
   257
  9
$OBSLTYPE
280
     0
  9
$INTERSECTIONDISPLAY
280
     0
  9
$INTERSECTIONCOLOR
 70
   257
  9
$DIMASSOC
280
     2
  9
$PROJECTNAME
  1

  9
$CAMERADISPLAY
290
     0
  9
$LENSLENGTH
 40
50.0
  9
$CAMERAHEIGHT
 40
0.0
  9
$STEPSPERSEC
 40
2.0
  9
$STEPSIZE
 40
6.0
  9
$3DDWFPREC
 40
2.0
  9
$PSOLWIDTH
 40
0.25
  9
$PSOLHEIGHT
 40
4.0
  9
$LOFTANG1
 40
1.570796326794897
  9
$LOFTANG2
 40
1.570796326794897
  9
$LOFTMAG1
 40
0.0
  9
$LOFTMAG2
 40
0.0
  9
$LOFTPARAM
 70
     7
  9
$LOFTNORMALS
280
     1
  9
$LATITUDE
 40
37.795
  9
$LONGITUDE
 40
-122.394
  9
$NORTHDIRECTION
 40
0.0
  9
$TIMEZONE
 70
 -8000
  9
$LIGHTGLYPHDISPLAY
280
     1
  9
$TILEMODELIGHTSYNCH
280
     1
  9
$CMATERIAL
347
3C
  9
$SOLIDHIST
280
     1
  9
$SHOWHIST
280
     1
  9
$DWFFRAME
280
     2
  9
$DGNFRAME
280
     2
  9
$REALWORLDSCALE
290
     1
  9
$INTERFERECOLOR
 62
   256
  9
$CSHADOW
280
     0
  9
$SHADOWPLANELOCATION
 40
0.0
  0
ENDSEC
  0
SECTION
  2
CLASSES
  0
CLASS
  1
ACDBDICTIONARYWDFLT
  2
AcDbDictionaryWithDefault
  3
ObjectDBX Classes
 90
        0
 91
        4
280
     0
281
     0
  0
CLASS
  1
VISUALSTYLE
  2
AcDbVisualStyle
  3
ObjectDBX Classes
 90
     4095
 91
        4
280
     0
281
     0
  0
CLASS
  1
MATERIAL
  2
AcDbMaterial
  3
ObjectDBX Classes
 90
     1153
 91
        4
280
     0
281
     0
  0
CLASS
  1
SUN
  2
AcDbSun
  3
SCENEOE
 90
     1024
 91
        4
280
     0
281
     0
  0
ENDSEC
  0
SECTION
  2
TABLES
  0
TABLE
  2
VPORT
  5
8
330
0
100
AcDbSymbolTable
 70
     1
  0
VPORT
  5
29
330
8
100
AcDbSymbolTableRecord
100
AcDbViewportTableRecord
  2
*Active
 70
     0
 10
0.0
 20
0.0
 11
1.0
 21
1.0
 12
0.0
 22
0.0
 13
0.0
 23
0.0
 14
0.5
 24
0.5
 15
0.5
 25
0.5
 16
0.0
 26
0.0
 36
1.0
 17
959.99999976
 27
539.999999865
 37
0.0
 40
1079.99999973
 41
1.777777777777778
 42
50.0
 43
0.0
 44
0.0
 50
0.0
 51
0.0
 71
     0
 72
   100
 73
     1
 74
     3
 75
     0
 76
     0
 77
     0
 78
     0
281
     0
 65
     1
110
0.0
120
0.0
130
0.0
111
1.0
121
0.0
131
0.0
112
0.0
122
1.0
132
0.0
 79
     0
146
0.0
 60
     3
 61
     5
292
     1
282
     1
141
0.0
142
0.0
 63
   250
361
3F
  0
ENDTAB
  0
TABLE
  2
LTYPE
  5
5
330
0
100
AcDbSymbolTable
 70
     1
  0
LTYPE
  5
14
330
5
100
AcDbSymbolTableRecord
100
AcDbLinetypeTableRecord
  2
ByBlock
 70
     0
  3

 72
    65
 73
     0
 40
0.0
  0
LTYPE
  5
15
330
5
100
AcDbSymbolTableRecord
100
AcDbLinetypeTableRecord
  2
ByLayer
 70
     0
  3

 72
    65
 73
     0
 40
0.0
  0
LTYPE
  5
16
330
5
100
AcDbSymbolTableRecord
100
AcDbLinetypeTableRecord
  2
Continuous
 70
     0
  3
Solid line
 72
    65
 73
     0
 40
0.0
  0
ENDTAB
  0
TABLE
  2
LAYER
  5
2
330
0
100
AcDbSymbolTable
 70
     1
  0
LAYER
  5
10
330
2
100
AcDbSymbolTableRecord
100
AcDbLayerTableRecord
  2
0
 70
     0
 62
     7
  6
Continuous
370
    -3
390
F
347
3E
  0
ENDTAB
  0
TABLE
  2
STYLE
  5
3
330
0
100
AcDbSymbolTable
 70
     1
  0
STYLE
  5
11
330
3
100
AcDbSymbolTableRecord
100
AcDbTextStyleTableRecord
  2
Standard
 70
     0
 40
0.0
 41
1.0
 50
0.0
 71
     0
 42
0.2
  3
txt
  4

  0
ENDTAB
  0
TABLE
  2
VIEW
  5
6
330
0
100
AcDbSymbolTable
 70
     0
  0
ENDTAB
  0
TABLE
  2
UCS
  5
7
330
0
100
AcDbSymbolTable
 70
     0
  0
ENDTAB
  0
TABLE
  2
APPID
  5
9
330
0
100
AcDbSymbolTable
 70
     1
  0
APPID
  5
12
330
9
100
AcDbSymbolTableRecord
100
AcDbRegAppTableRecord
  2
ACAD
 70
     0
  0
ENDTAB
  0
TABLE
  2
DIMSTYLE
  5
A
330
0
100
AcDbSymbolTable
 70
     1
100
AcDbDimStyleTable
  0
DIMSTYLE
105
27
330
A
100
AcDbSymbolTableRecord
100
AcDbDimStyleTableRecord
  2
Standard
 70
     0
178
     0
340
11
  0
ENDTAB
  0
TABLE
  2
BLOCK_RECORD
  5
1
330
0
100
AcDbSymbolTable
 70
    11
  0
BLOCK_RECORD
  5
1F
330
1
100
AcDbSymbolTableRecord
100
AcDbBlockTableRecord
  2
*Model_Space
340
22
 70
     0
280
     1
281
     0
  0
BLOCK_RECORD
  5
1B
330
1
100
AcDbSymbolTableRecord
100
AcDbBlockTableRecord
  2
*Paper_Space
340
1E
 70
     0
280
     1
281
     0
  0
BLOCK_RECORD
  5
23
330
1
100
AcDbSymbolTableRecord
100
AcDbBlockTableRecord
  2
*Paper_Space0
340
26
 70
     0
280
     1
281
     0
  0
BLOCK_RECORD
  5
40
330
1
100
AcDbSymbolTableRecord
100
AcDbBlockTableRecord
  2
block 2
340
0
102
{BLKREFS
331
41
102
}
 70
     0
280
     1
281
     0
  0
BLOCK_RECORD
  5
45
330
1
100
AcDbSymbolTableRecord
100
AcDbBlockTableRecord
  2
block 3
340
0
102
{BLKREFS
331
46
102
}
 70
     0
280
     1
281
     0
  0
BLOCK_RECORD
  5
4A
330
1
100
AcDbSymbolTableRecord
100
AcDbBlockTableRecord
  2
block 4
340
0
102
{BLKREFS
331
4B
102
}
 70
     0
280
     1
281
     0
  0
BLOCK_RECORD
  5
4F
330
1
100
AcDbSymbolTableRecord
100
AcDbBlockTableRecord
  2
block 5
340
0
102
{BLKREFS
331
50
102
}
 70
     0
280
     1
281
     0
  0
BLOCK_RECORD
  5
54
330
1
100
AcDbSymbolTableRecord
100
AcDbBlockTableRecord
  2
block 6
340
0
102
{BLKREFS
331
55
102
}
 70
     0
280
     1
281
     0
  0
BLOCK_RECORD
  5
59
330
1
100
AcDbSymbolTableRecord
100
AcDbBlockTableRecord
  2
block 7
340
0
102
{BLKREFS
331
5A
102
}
 70
     0
280
     1
281
     0
  0
BLOCK_RECORD
  5
5E
330
1
100
AcDbSymbolTableRecord
100
AcDbBlockTableRecord
  2
block 8
340
0
102
{BLKREFS
331
5F
102
}
 70
     0
280
     1
281
     0
  0
BLOCK_RECORD
  5
63
330
1
100
AcDbSymbolTableRecord
100
AcDbBlockTableRecord
  2
block 9
340
0
102
{BLKREFS
331
64
102
}
 70
     0
280
     1
281
     0
  0
BLOCK_RECORD
  5
68
330
1
100
AcDbSymbolTableRecord
100
AcDbBlockTableRecord
  2
block 10
340
0
102
{BLKREFS
331
69
102
}
 70
     0
280
     1
281
     0
  0
BLOCK_RECORD
  5
6D
330
1
100
AcDbSymbolTableRecord
100
AcDbBlockTableRecord
  2
block 11
340
0
102
{BLKREFS
331
6E
102
}
 70
     0
280
     1
281
     0
  0
ENDTAB
  0
ENDSEC
  0
SECTION
  2
BLOCKS
  0
BLOCK
  5
20
330
1F
100
AcDbEntity
  8
0
100
AcDbBlockBegin
  2
*Model_Space
 70
     0
 10
0.0
 20
0.0
 30
0.0
  3
*Model_Space
  1

  0
ENDBLK
  5
21
330
1F
100
AcDbEntity
  8
0
100
AcDbBlockEnd
  0
BLOCK
  5
1C
330
1B
100
AcDbEntity
 67
     1
  8
0
100
AcDbBlockBegin
  2
*Paper_Space
 70
     0
 10
0.0
 20
0.0
 30
0.0
  3
*Paper_Space
  1

  0
ENDBLK
  5
1D
330
1B
100
AcDbEntity
 67
     1
  8
0
100
AcDbBlockEnd
  0
BLOCK
  5
24
330
23
100
AcDbEntity
  8
0
100
AcDbBlockBegin
  2
*Paper_Space0
 70
     0
 10
0.0
 20
0.0
 30
0.0
  3
*Paper_Space0
  1

  0
ENDBLK
  5
25
330
23
100
AcDbEntity
  8
0
100
AcDbBlockEnd
  0
BLOCK
  5
42
330
40
100
AcDbEntity
  8
0
100
AcDbBlockBegin
  2
block 2
 70
     0
 10
0.0
 20
0.0
 30
0.0
  3
block 2
  1

  0
SPLINE
  5
44
330
40
100
AcDbEntity
  8
0
 62
     7
420
 16777215
370
    25
100
AcDbSpline
210
0.0
220
0.0
230
1.0
 70
    11
 71
     3
 72
    53
 73
    49
 74
     0
 42
0.0000000001
 43
0.0000000001
 12
1.0
 22
0.0
 32
0.0
 13
1.0
 23
0.0
 33
0.0
 40
0.0
 40
0.0
 40
0.0
 40
0.0
 40
1.0
 40
1.0
 40
1.0
 40
2.0
 40
2.0
 40
2.0
 40
3.0
 40
3.0
 40
3.0
 40
4.0
 40
4.0
 40
4.0
 40
5.0
 40
5.0
 40
5.0
 40
6.0
 40
6.0
 40
6.0
 40
7.0
 40
7.0
 40
7.0
 40
8.0
 40
8.0
 40
8.0
 40
9.0
 40
9.0
 40
9.0
 40
10.0
 40
10.0
 40
10.0
 40
11.0
 40
11.0
 40
11.0
 40
12.0
 40
12.0
 40
12.0
 40
13.0
 40
13.0
 40
13.0
 40
14.0
 40
14.0
 40
14.0
 40
15.0
 40
15.0
 40
15.0
 40
16.0
 40
16.0
 40
16.0
 40
16.0
 10
971.6108978451335
 20
486.7405948091489
 30
0.0
 10
971.6108978451335
 20
486.7405948091489
 30
0.0
 10
971.610897844797
 20
479.2155948110287
 30
0.0
 10
971.610897844797
 20
479.2155948110287
 30
0.0
 10
971.610897844797
 20
479.2155948110287
 30
0.0
 10
1114.988438052844
 20
479.2155948045931
 30
0.0
 10
1114.988438052844
 20
479.2155948045931
 30
0.0
 10
1117.749861801308
 20
479.2155948044694
 30
0.0
 10
1119.988438051692
 20
481.4541710546536
 30
0.0
 10
1119.988438051818
 20
484.2155948031175
 30
0.0
 10
1119.988438051818
 20
484.2155948031175
 30
0.0
 10
1119.988438056826
 20
595.784404912516
 30
0.0
 10
1119.988438056826
 20
595.784404912516
 30
0.0
 10
1119.988438056951
 20
598.5458286609801
 30
0.0
 10
1117.749861806765
 20
600.7844049113661
 30
0.0
 10
1114.988438058301
 20
600.7844049114907
 30
0.0
 10
1114.988438058301
 20
600.7844049114907
 30
0.0
 10
805.011561467156
 20
600.7844049254069
 30
0.0
 10
805.011561467156
 20
600.7844049254069
 30
0.0
 10
802.2501377186919
 20
600.7844049255315
 30
0.0
 10
800.0115614683059
 20
598.5458286753455
 30
0.0
 10
800.0115614681822
 20
595.7844049268815
 30
0.0
 10
800.0115614681822
 20
595.7844049268815
 30
0.0
 10
800.0115614631727
 20
484.2155948174839
 30
0.0
 10
800.0115614631727
 20
484.2155948174839
 30
0.0
 10
800.011561463049
 20
481.4541710690199
 30
0.0
 10
802.2501377132331
 20
479.215594818632
 30
0.0
 10
805.0115614616972
 20
479.2155948185084
 30
0.0
 10
805.0115614616972
 20
479.2155948185084
 30
0.0
 10
959.5008646337031
 20
479.2155948115744
 30
0.0
 10
959.5008646337031
 20
479.2155948115744
 30
0.0
 10
959.5008646337031
 20
479.2155948115744
 30
0.0
 10
959.5008646340415
 20
486.7405948096909
 30
0.0
 10
959.5008646340415
 20
486.7405948096909
 30
0.0
 10
959.5008646340415
 20
486.7405948096909
 30
0.0
 10
805.5365614619038
 20
486.7405948166031
 30
0.0
 10
805.5365614619038
 20
486.7405948166031
 30
0.0
 10
805.5365614619038
 20
486.7405948166031
 30
0.0
 10
805.536561466686
 20
593.2594049272658
 30
0.0
 10
805.536561466686
 20
593.2594049272658
 30
0.0
 10
805.536561466686
 20
593.2594049272658
 30
0.0
 10
1114.463438058096
 20
593.259404913396
 30
0.0
 10
1114.463438058096
 20
593.259404913396
 30
0.0
 10
1114.463438058096
 20
593.259404913396
 30
0.0
 10
1114.463438053312
 20
486.7405948027351
 30
0.0
 10
1114.463438053312
 20
486.7405948027351
 30
0.0
 10
1114.463438053312
 20
486.7405948027351
 30
0.0
 10
971.6108978451335
 20
486.7405948091489
 30
0.0
 10
971.6108978451335
 20
486.7405948091489
 30
0.0
  0
ENDBLK
  5
43
330
40
100
AcDbEntity
  8
0
100
AcDbBlockEnd
  0
BLOCK
  5
47
330
45
100
AcDbEntity
  8
0
100
AcDbBlockBegin
  2
block 3
 70
     0
 10
0.0
 20
0.0
 30
0.0
  3
block 3
  1

  0
SPLINE
  5
49
330
45
100
AcDbEntity
  8
0
 62
     7
420
 16777215
370
    25
100
AcDbSpline
210
0.0
220
0.0
230
1.0
 70
    11
 71
     3
 72
    20
 73
    16
 74
     0
 42
0.0000000001
 43
0.0000000001
 12
1.0
 22
0.0
 32
0.0
 13
1.0
 23
0.0
 33
0.0
 40
0.0
 40
0.0
 40
0.0
 40
0.0
 40
1.0
 40
1.0
 40
1.0
 40
2.0
 40
2.0
 40
2.0
 40
3.0
 40
3.0
 40
3.0
 40
4.0
 40
4.0
 40
4.0
 40
5.0
 40
5.0
 40
5.0
 40
5.0
 10
905.4557806064761
 20
483.7405948104191
 30
0.0
 10
905.4557806064761
 20
484.5966361724432
 30
0.0
 10
906.1497392440646
 20
485.2905948100327
 30
0.0
 10
907.0057806060887
 20
485.2905948100327
 30
0.0
 10
907.8618219681119
 20
485.2905948100327
 30
0.0
 10
908.5557806057005
 20
484.5966361724432
 30
0.0
 10
908.5557806057014
 20
483.7405948104191
 30
0.0
 10
908.5557806057005
 20
482.884553448395
 30
0.0
 10
907.8618219681119
 20
482.1905948108073
 30
0.0
 10
907.0057806060887
 20
482.1905948108073
 30
0.0
 10
906.1497392440646
 20
482.1905948108073
 30
0.0
 10
905.4557806064761
 20
482.884553448395
 30
0.0
 10
905.4557806064761
 20
483.7405948104191
 30
0.0
 10
905.4557806064761
 20
483.7405948104191
 30
0.0
 10
905.4557806064761
 20
483.7405948104191
 30
0.0
 10
905.4557806064761
 20
483.7405948104191
 30
0.0
  0
ENDBLK
  5
48
330
45
100
AcDbEntity
  8
0
100
AcDbBlockEnd
  0
BLOCK
  5
4C
330
4A
100
AcDbEntity
  8
0
100
AcDbBlockBegin
  2
block 4
 70
     0
 10
0.0
 20
0.0
 30
0.0
  3
block 4
  1

  0
SPLINE
  5
4E
330
4A
100
AcDbEntity
  8
0
 62
     7
420
 16777215
370
    25
100
AcDbSpline
210
0.0
220
0.0
230
1.0
 70
    11
 71
     3
 72
    20
 73
    16
 74
     0
 42
0.0000000001
 43
0.0000000001
 12
1.0
 22
0.0
 32
0.0
 13
1.0
 23
0.0
 33
0.0
 40
0.0
 40
0.0
 40
0.0
 40
0.0
 40
1.0
 40
1.0
 40
1.0
 40
2.0
 40
2.0
 40
2.0
 40
3.0
 40
3.0
 40
3.0
 40
4.0
 40
4.0
 40
4.0
 40
5.0
 40
5.0
 40
5.0
 40
5.0
 10
1011.444218914299
 20
596.2594049195809
 30
0.0
 10
1011.444218914299
 20
597.1154462816049
 30
0.0
 10
1012.138177551887
 20
597.8094049191935
 30
0.0
 10
1012.994218913911
 20
597.8094049191935
 30
0.0
 10
1013.850260275935
 20
597.8094049191935
 30
0.0
 10
1014.544218913523
 20
597.1154462816049
 30
0.0
 10
1014.544218913523
 20
596.2594049195809
 30
0.0
 10
1014.544218913523
 20
595.4033635575568
 30
0.0
 10
1013.850260275935
 20
594.7094049199682
 30
0.0
 10
1012.994218913911
 20
594.7094049199682
 30
0.0
 10
1012.138177551887
 20
594.7094049199682
 30
0.0
 10
1011.444218914299
 20
595.4033635575568
 30
0.0
 10
1011.444218914299
 20
596.2594049195809
 30
0.0
 10
1011.444218914299
 20
596.2594049195809
 30
0.0
 10
1011.444218914299
 20
596.2594049195809
 30
0.0
 10
1011.444218914299
 20
596.2594049195809
 30
0.0
  0
ENDBLK
  5
4D
330
4A
100
AcDbEntity
  8
0
100
AcDbBlockEnd
  0
BLOCK
  5
51
330
4F
100
AcDbEntity
  8
0
100
AcDbBlockBegin
  2
block 5
 70
     0
 10
0.0
 20
0.0
 30
0.0
  3
block 5
  1

  0
SPLINE
  5
53
330
4F
100
AcDbEntity
  8
0
 62
     7
420
 16777215
370
    25
100
AcDbSpline
210
0.0
220
0.0
230
1.0
 70
    11
 71
     3
 72
    20
 73
    16
 74
     0
 42
0.0000000001
 43
0.0000000001
 12
1.0
 22
0.0
 32
0.0
 13
1.0
 23
0.0
 33
0.0
 40
0.0
 40
0.0
 40
0.0
 40
0.0
 40
1.0
 40
1.0
 40
1.0
 40
2.0
 40
2.0
 40
2.0
 40
3.0
 40
3.0
 40
3.0
 40
4.0
 40
4.0
 40
4.0
 40
5.0
 40
5.0
 40
5.0
 40
5.0
 10
905.4557806064761
 20
596.2594049195809
 30
0.0
 10
905.4557806064761
 20
597.1154462816049
 30
0.0
 10
906.1497392440646
 20
597.8094049191935
 30
0.0
 10
907.0057806060887
 20
597.8094049191935
 30
0.0
 10
907.8618219681119
 20
597.8094049191935
 30
0.0
 10
908.5557806057005
 20
597.1154462816049
 30
0.0
 10
908.5557806057014
 20
596.2594049195809
 30
0.0
 10
908.5557806057005
 20
595.4033635575568
 30
0.0
 10
907.8618219681119
 20
594.7094049199682
 30
0.0
 10
907.0057806060887
 20
594.7094049199682
 30
0.0
 10
906.1497392440646
 20
594.7094049199682
 30
0.0
 10
905.4557806064761
 20
595.4033635575568
 30
0.0
 10
905.4557806064761
 20
596.2594049195809
 30
0.0
 10
905.4557806064761
 20
596.2594049195809
 30
0.0
 10
905.4557806064761
 20
596.2594049195809
 30
0.0
 10
905.4557806064761
 20
596.2594049195809
 30
0.0
  0
ENDBLK
  5
52
330
4F
100
AcDbEntity
  8
0
100
AcDbBlockEnd
  0
BLOCK
  5
56
330
54
100
AcDbEntity
  8
0
100
AcDbBlockBegin
  2
block 6
 70
     0
 10
0.0
 20
0.0
 30
0.0
  3
block 6
  1

  0
SPLINE
  5
58
330
54
100
AcDbEntity
  8
0
 62
     7
420
 16777215
370
    25
100
AcDbSpline
210
0.0
220
0.0
230
1.0
 70
    11
 71
     3
 72
    20
 73
    16
 74
     0
 42
0.0000000001
 43
0.0000000001
 12
1.0
 22
0.0
 32
0.0
 13
1.0
 23
0.0
 33
0.0
 40
0.0
 40
0.0
 40
0.0
 40
0.0
 40
1.0
 40
1.0
 40
1.0
 40
2.0
 40
2.0
 40
2.0
 40
3.0
 40
3.0
 40
3.0
 40
4.0
 40
4.0
 40
4.0
 40
5.0
 40
5.0
 40
5.0
 40
5.0
 10
1011.444218914299
 20
483.7405948104191
 30
0.0
 10
1011.444218914299
 20
484.5966361724432
 30
0.0
 10
1012.138177551887
 20
485.2905948100327
 30
0.0
 10
1012.994218913911
 20
485.2905948100327
 30
0.0
 10
1013.850260275935
 20
485.2905948100327
 30
0.0
 10
1014.544218913523
 20
484.5966361724432
 30
0.0
 10
1014.544218913523
 20
483.7405948104191
 30
0.0
 10
1014.544218913523
 20
482.884553448395
 30
0.0
 10
1013.850260275935
 20
482.1905948108073
 30
0.0
 10
1012.994218913911
 20
482.1905948108073
 30
0.0
 10
1012.138177551887
 20
482.1905948108073
 30
0.0
 10
1011.444218914299
 20
482.884553448395
 30
0.0
 10
1011.444218914299
 20
483.7405948104191
 30
0.0
 10
1011.444218914299
 20
483.7405948104191
 30
0.0
 10
1011.444218914299
 20
483.7405948104191
 30
0.0
 10
1011.444218914299
 20
483.7405948104191
 30
0.0
  0
ENDBLK
  5
57
330
54
100
AcDbEntity
  8
0
100
AcDbBlockEnd
  0
BLOCK
  5
5B
330
59
100
AcDbEntity
  8
0
100
AcDbBlockBegin
  2
block 7
 70
     0
 10
0.0
 20
0.0
 30
0.0
  3
block 7
  1

  0
SPLINE
  5
5D
330
59
100
AcDbEntity
  8
0
 62
     7
420
 16777215
370
    25
100
AcDbSpline
210
0.0
220
0.0
230
1.0
 70
    11
 71
     3
 72
    20
 73
    16
 74
     0
 42
0.0000000001
 43
0.0000000001
 12
1.0
 22
0.0
 32
0.0
 13
1.0
 23
0.0
 33
0.0
 40
0.0
 40
0.0
 40
0.0
 40
0.0
 40
1.0
 40
1.0
 40
1.0
 40
2.0
 40
2.0
 40
2.0
 40
3.0
 40
3.0
 40
3.0
 40
4.0
 40
4.0
 40
4.0
 40
5.0
 40
5.0
 40
5.0
 40
5.0
 10
803.9865614646832
 20
483.7405948104191
 30
0.0
 10
803.9865614646832
 20
484.5966361724432
 30
0.0
 10
804.6805201022718
 20
485.2905948100327
 30
0.0
 10
805.5365614642958
 20
485.2905948100327
 30
0.0
 10
806.39260282632
 20
485.2905948100327
 30
0.0
 10
807.0865614639085
 20
484.5966361724432
 30
0.0
 10
807.0865614639085
 20
483.7405948104191
 30
0.0
 10
807.0865614639085
 20
482.884553448395
 30
0.0
 10
806.39260282632
 20
482.1905948108073
 30
0.0
 10
805.5365614642958
 20
482.1905948108073
 30
0.0
 10
804.6805201022718
 20
482.1905948108073
 30
0.0
 10
803.9865614646832
 20
482.884553448395
 30
0.0
 10
803.9865614646832
 20
483.7405948104191
 30
0.0
 10
803.9865614646832
 20
483.7405948104191
 30
0.0
 10
803.9865614646832
 20
483.7405948104191
 30
0.0
 10
803.9865614646832
 20
483.7405948104191
 30
0.0
  0
ENDBLK
  5
5C
330
59
100
AcDbEntity
  8
0
100
AcDbBlockEnd
  0
BLOCK
  5
60
330
5E
100
AcDbEntity
  8
0
100
AcDbBlockBegin
  2
block 8
 70
     0
 10
0.0
 20
0.0
 30
0.0
  3
block 8
  1

  0
SPLINE
  5
62
330
5E
100
AcDbEntity
  8
0
 62
     7
420
 16777215
370
    25
100
AcDbSpline
210
0.0
220
0.0
230
1.0
 70
    11
 71
     3
 72
    20
 73
    16
 74
     0
 42
0.0000000001
 43
0.0000000001
 12
1.0
 22
0.0
 32
0.0
 13
1.0
 23
0.0
 33
0.0
 40
0.0
 40
0.0
 40
0.0
 40
0.0
 40
1.0
 40
1.0
 40
1.0
 40
2.0
 40
2.0
 40
2.0
 40
3.0
 40
3.0
 40
3.0
 40
4.0
 40
4.0
 40
4.0
 40
5.0
 40
5.0
 40
5.0
 40
5.0
 10
1112.913438056091
 20
596.2594049195809
 30
0.0
 10
1112.913438056091
 20
597.1154462816049
 30
0.0
 10
1113.60739669368
 20
597.8094049191935
 30
0.0
 10
1114.463438055704
 20
597.8094049191935
 30
0.0
 10
1115.319479417728
 20
597.8094049191935
 30
0.0
 10
1116.013438055316
 20
597.1154462816049
 30
0.0
 10
1116.013438055316
 20
596.2594049195809
 30
0.0
 10
1116.013438055316
 20
595.4033635575568
 30
0.0
 10
1115.319479417728
 20
594.7094049199682
 30
0.0
 10
1114.463438055704
 20
594.7094049199682
 30
0.0
 10
1113.60739669368
 20
594.7094049199682
 30
0.0
 10
1112.913438056091
 20
595.4033635575568
 30
0.0
 10
1112.913438056091
 20
596.2594049195809
 30
0.0
 10
1112.913438056091
 20
596.2594049195809
 30
0.0
 10
1112.913438056091
 20
596.2594049195809
 30
0.0
 10
1112.913438056091
 20
596.2594049195809
 30
0.0
  0
ENDBLK
  5
61
330
5E
100
AcDbEntity
  8
0
100
AcDbBlockEnd
  0
BLOCK
  5
65
330
63
100
AcDbEntity
  8
0
100
AcDbBlockBegin
  2
block 9
 70
     0
 10
0.0
 20
0.0
 30
0.0
  3
block 9
  1

  0
SPLINE
  5
67
330
63
100
AcDbEntity
  8
0
 62
     7
420
 16777215
370
    25
100
AcDbSpline
210
0.0
220
0.0
230
1.0
 70
    11
 71
     3
 72
    20
 73
    16
 74
     0
 42
0.0000000001
 43
0.0000000001
 12
1.0
 22
0.0
 32
0.0
 13
1.0
 23
0.0
 33
0.0
 40
0.0
 40
0.0
 40
0.0
 40
0.0
 40
1.0
 40
1.0
 40
1.0
 40
2.0
 40
2.0
 40
2.0
 40
3.0
 40
3.0
 40
3.0
 40
4.0
 40
4.0
 40
4.0
 40
5.0
 40
5.0
 40
5.0
 40
5.0
 10
803.9865614646832
 20
596.2594049195809
 30
0.0
 10
803.9865614646832
 20
597.1154462816049
 30
0.0
 10
804.6805201022718
 20
597.8094049191935
 30
0.0
 10
805.5365614642958
 20
597.8094049191935
 30
0.0
 10
806.39260282632
 20
597.8094049191935
 30
0.0
 10
807.0865614639085
 20
597.1154462816049
 30
0.0
 10
807.0865614639085
 20
596.2594049195809
 30
0.0
 10
807.0865614639085
 20
595.4033635575568
 30
0.0
 10
806.39260282632
 20
594.7094049199682
 30
0.0
 10
805.5365614642958
 20
594.7094049199682
 30
0.0
 10
804.6805201022718
 20
594.7094049199682
 30
0.0
 10
803.9865614646832
 20
595.4033635575568
 30
0.0
 10
803.9865614646832
 20
596.2594049195809
 30
0.0
 10
803.9865614646832
 20
596.2594049195809
 30
0.0
 10
803.9865614646832
 20
596.2594049195809
 30
0.0
 10
803.9865614646832
 20
596.2594049195809
 30
0.0
  0
ENDBLK
  5
66
330
63
100
AcDbEntity
  8
0
100
AcDbBlockEnd
  0
BLOCK
  5
6A
330
68
100
AcDbEntity
  8
0
100
AcDbBlockBegin
  2
block 10
 70
     0
 10
0.0
 20
0.0
 30
0.0
  3
block 10
  1

  0
SPLINE
  5
6C
330
68
100
AcDbEntity
  8
0
 62
     7
420
 16777215
370
    25
100
AcDbSpline
210
0.0
220
0.0
230
1.0
 70
    11
 71
     3
 72
    20
 73
    16
 74
     0
 42
0.0000000001
 43
0.0000000001
 12
1.0
 22
0.0
 32
0.0
 13
1.0
 23
0.0
 33
0.0
 40
0.0
 40
0.0
 40
0.0
 40
0.0
 40
1.0
 40
1.0
 40
1.0
 40
2.0
 40
2.0
 40
2.0
 40
3.0
 40
3.0
 40
3.0
 40
4.0
 40
4.0
 40
4.0
 40
5.0
 40
5.0
 40
5.0
 40
5.0
 10
1112.913438056091
 20
483.7405948104191
 30
0.0
 10
1112.913438056091
 20
484.5966361724432
 30
0.0
 10
1113.60739669368
 20
485.2905948100327
 30
0.0
 10
1114.463438055704
 20
485.2905948100327
 30
0.0
 10
1115.319479417728
 20
485.2905948100327
 30
0.0
 10
1116.013438055316
 20
484.5966361724432
 30
0.0
 10
1116.013438055316
 20
483.7405948104191
 30
0.0
 10
1116.013438055316
 20
482.884553448395
 30
0.0
 10
1115.319479417728
 20
482.1905948108073
 30
0.0
 10
1114.463438055704
 20
482.1905948108073
 30
0.0
 10
1113.60739669368
 20
482.1905948108073
 30
0.0
 10
1112.913438056091
 20
482.884553448395
 30
0.0
 10
1112.913438056091
 20
483.7405948104191
 30
0.0
 10
1112.913438056091
 20
483.7405948104191
 30
0.0
 10
1112.913438056091
 20
483.7405948104191
 30
0.0
 10
1112.913438056091
 20
483.7405948104191
 30
0.0
  0
ENDBLK
  5
6B
330
68
100
AcDbEntity
  8
0
100
AcDbBlockEnd
  0
BLOCK
  5
6F
330
6D
100
AcDbEntity
  8
0
100
AcDbBlockBegin
  2
block 11
 70
     0
 10
0.0
 20
0.0
 30
0.0
  3
block 11
  1

  0
POLYLINE
  5
71
330
6D
100
AcDbEntity
  8
0
 62
   240
420
 15539236
370
    35
100
AcDb2dPolyline
 66
     1
 10
0.0
 20
0.0
 30
0.0
  0
VERTEX
  5
72
330
71
100
AcDbEntity
  8
0
 62
   240
420
 15539236
370
    35
100
AcDbVertex
100
AcDb2dVertex
 10
807.9653318292586
 20
606.7773435983056
 30
0.0
  0
VERTEX
  5
73
330
71
100
AcDbEntity
  8
0
 62
   240
420
 15539236
370
    35
100
AcDbVertex
100
AcDb2dVertex
 10
807.9653318292586
 20
615.3671873461582
 30
0.0
  0
VERTEX
  5
74
330
71
100
AcDbEntity
  8
0
 62
   240
420
 15539236
370
    35
100
AcDbVertex
100
AcDb2dVertex
 10
809.1020505789745
 20
615.3671873461582
 30
0.0
  0
VERTEX
  5
75
330
71
100
AcDbEntity
  8
0
 62
   240
420
 15539236
370
    35
100
AcDbVertex
100
AcDb2dVertex
 10
809.1020505789745
 20
607.7910154730522
 30
0.0
  0
VERTEX
  5
76
330
71
100
AcDbEntity
  8
0
 62
   240
420
 15539236
370
    35
100
AcDbVertex
100
AcDb2dVertex
 10
813.3325193279169
 20
607.7910154730522
 30
0.0
  0
VERTEX
  5
77
330
71
100
AcDbEntity
  8
0
 62
   240
420
 15539236
370
    35
100
AcDbVertex
100
AcDb2dVertex
 10
813.3325193279169
 20
606.7773435983056
 30
0.0
  0
VERTEX
  5
78
330
71
100
AcDbEntity
  8
0
 62
   240
420
 15539236
370
    35
100
AcDbVertex
100
AcDb2dVertex
 10
807.9653318292586
 20
606.7773435983056
 30
0.0
  0
SEQEND
  5
79
330
71
100
AcDbEntity
  8
0
 62
   240
420
 15539236
370
    35
  0
HATCH
  5
7A
330
6D
100
AcDbEntity
  8
0
 62
   240
420
 15539236
100
AcDbHatch
 10
0.0
 20
0.0
 30
0.0
210
0.0
220
0.0
230
1.0
  2
SOLID
 70
     1
 71
     0
 91
        1
 92
        1
 93
        6
 72
     1
 10
807.9653318292586
 20
606.7773435983056
 11
807.9653318292586
 21
615.3671873461582
 72
     1
 10
807.9653318292586
 20
615.3671873461582
 11
809.1020505789745
 21
615.3671873461582
 72
     1
 10
809.1020505789745
 20
615.3671873461582
 11
809.1020505789745
 21
607.7910154730522
 72
     1
 10
809.1020505789745
 20
607.7910154730522
 11
813.3325193279169
 21
607.7910154730522
 72
     1
 10
813.3325193279169
 20
607.7910154730522
 11
813.3325193279169
 21
606.7773435983056
 72
     1
 10
813.3325193279169
 20
606.7773435983056
 11
807.9653318292586
 21
606.7773435983056
 97
        0
 75
     2
 76
     1
 98
        0
  0
SPLINE
  5
7B
330
6D
100
AcDbEntity
  8
0
 62
   240
420
 15539236
370
    35
100
AcDbSpline
210
0.0
220
0.0
230
1.0
 70
    11
 71
     3
 72
    62
 73
    58
 74
     0
 42
0.0000000001
 43
0.0000000001
 12
1.0
 22
0.0
 32
0.0
 13
1.0
 23
0.0
 33
0.0
 40
0.0
 40
0.0
 40
0.0
 40
0.0
 40
1.0
 40
1.0
 40
1.0
 40
2.0
 40
2.0
 40
2.0
 40
3.0
 40
3.0
 40
3.0
 40
4.0
 40
4.0
 40
4.0
 40
5.0
 40
5.0
 40
5.0
 40
6.0
 40
6.0
 40
6.0
 40
7.0
 40
7.0
 40
7.0
 40
8.0
 40
8.0
 40
8.0
 40
9.0
 40
9.0
 40
9.0
 40
10.0
 40
10.0
 40
10.0
 40
11.0
 40
11.0
 40
11.0
 40
12.0
 40
12.0
 40
12.0
 40
13.0
 40
13.0
 40
13.0
 40
14.0
 40
14.0
 40
14.0
 40
15.0
 40
15.0
 40
15.0
 40
16.0
 40
16.0
 40
16.0
 40
17.0
 40
17.0
 40
17.0
 40
18.0
 40
18.0
 40
18.0
 40
19.0
 40
19.0
 40
19.0
 40
19.0
 10
819.7309568263172
 20
613.2636717216841
 30
0.0
 10
819.7309568263172
 20
613.2636717216841
 30
0.0
 10
818.6821287015795
 20
613.1816404717046
 30
0.0
 10
818.6821287015795
 20
613.1816404717046
 30
0.0
 10
818.5883787016029
 20
613.5957029716011
 30
0.0
 10
818.4555662016361
 20
613.8964842215258
 30
0.0
 10
818.2836912016791
 20
614.083984221479
 30
0.0
 10
817.9985349517503
 20
614.3847654714039
 30
0.0
 10
817.6469724518382
 20
614.5351560963662
 30
0.0
 10
817.2290037019427
 20
614.5351560963662
 30
0.0
 10
816.8930662020267
 20
614.5351560963662
 30
0.0
 10
816.5981443271005
 20
614.4414060963896
 30
0.0
 10
816.3442380771639
 20
614.2539060964365
 30
0.0
 10
816.0122068272469
 20
614.0117185964971
 30
0.0
 10
815.7504880773124
 20
613.6582029715854
 30
0.0
 10
815.5590818273602
 20
613.1933592217016
 30
0.0
 10
815.367675577408
 20
612.7285154718179
 30
0.0
 10
815.2680662024329
 20
612.0664060969834
 30
0.0
 10
815.260253702435
 20
611.2070310971982
 30
0.0
 10
815.5141599523714
 20
611.5937498471015
 30
0.0
 10
815.8247068272938
 20
611.8808592220298
 30
0.0
 10
816.191894327202
 20
612.0683592219829
 30
0.0
 10
816.5590818271102
 20
612.255859221936
 30
0.0
 10
816.943847452014
 20
612.3496092219126
 30
0.0
 10
817.3461912019135
 20
612.3496092219126
 30
0.0
 10
818.0493162017376
 20
612.3496092219126
 30
0.0
 10
818.647949014088
 20
612.0908201594773
 30
0.0
 10
819.1420896389644
 20
611.5732420346067
 30
0.0
 10
819.636230263841
 20
611.055663909736
 30
0.0
 10
819.8833005762791
 20
610.3867185974033
 30
0.0
 10
819.8833005762791
 20
609.5664060976084
 30
0.0
 10
819.8833005762791
 20
609.0273435977432
 30
0.0
 10
819.7670896388082
 20
608.5263670353684
 30
0.0
 10
819.5346677638663
 20
608.0634764104841
 30
0.0
 10
819.3022458889244
 20
607.6005857855998
 30
0.0
 10
818.9829099515042
 20
607.2460935981885
 30
0.0
 10
818.5766599516058
 20
606.99999984825
 30
0.0
 10
818.1704099517074
 20
606.7539060983115
 30
0.0
 10
817.7094724518226
 20
606.6308592233423
 30
0.0
 10
817.1938474519516
 20
606.6308592233423
 30
0.0
 10
816.3149412021712
 20
606.6308592233423
 30
0.0
 10
815.5981443273505
 20
606.9541014107615
 30
0.0
 10
815.0434568274891
 20
607.6005857855998
 30
0.0
 10
814.4887693276278
 20
608.2470701604382
 30
0.0
 10
814.2114255776971
 20
609.3124998476719
 30
0.0
 10
814.2114255776971
 20
610.7968748473007
 30
0.0
 10
814.2114255776971
 20
612.4570310968858
 30
0.0
 10
814.5180662026205
 20
613.6640623465839
 30
0.0
 10
815.1313474524671
 20
614.4179685963954
 30
0.0
 10
815.6665037023333
 20
615.0742185962314
 30
0.0
 10
816.3872068271531
 20
615.4023435961494
 30
0.0
 10
817.2934568269267
 20
615.4023435961494
 30
0.0
 10
817.9692380767576
 20
615.4023435961494
 30
0.0
 10
818.5229490141193
 20
615.2128904711967
 30
0.0
 10
818.9545896390114
 20
614.8339842212915
 30
0.0
 10
819.3862302639034
 20
614.4550779713862
 30
0.0
 10
819.6450193263387
 20
613.9316404715171
 30
0.0
 10
819.7309568263172
 20
613.2636717216841
 30
0.0
  0
SPLINE
  5
7C
330
6D
100
AcDbEntity
  8
0
 62
   240
420
 15539236
370
    35
100
AcDbSpline
210
0.0
220
0.0
230
1.0
 70
    11
 71
     3
 72
    32
 73
    28
 74
     0
 42
0.0000000001
 43
0.0000000001
 12
1.0
 22
0.0
 32
0.0
 13
1.0
 23
0.0
 33
0.0
 40
0.0
 40
0.0
 40
0.0
 40
0.0
 40
1.0
 40
1.0
 40
1.0
 40
2.0
 40
2.0
 40
2.0
 40
3.0
 40
3.0
 40
3.0
 40
4.0
 40
4.0
 40
4.0
 40
5.0
 40
5.0
 40
5.0
 40
6.0
 40
6.0
 40
6.0
 40
7.0
 40
7.0
 40
7.0
 40
8.0
 40
8.0
 40
8.0
 40
9.0
 40
9.0
 40
9.0
 40
9.0
 10
815.4243162023939
 20
609.5605467226098
 30
0.0
 10
815.4243162023939
 20
609.1972654727007
 30
0.0
 10
815.5014646398746
 20
608.8496092227875
 30
0.0
 10
815.6557615148361
 20
608.5175779728706
 30
0.0
 10
815.8100583897975
 20
608.1855467229536
 30
0.0
 10
816.0258787022435
 20
607.9326170355168
 30
0.0
 10
816.3032224521742
 20
607.7587889105603
 30
0.0
 10
816.5805662021048
 20
607.5849607856037
 30
0.0
 10
816.8715818270321
 20
607.4980467231255
 30
0.0
 10
817.1762693269559
 20
607.4980467231255
 30
0.0
 10
817.6215818268446
 20
607.4980467231255
 30
0.0
 10
818.0043943267489
 20
607.6777342230805
 30
0.0
 10
818.3247068266688
 20
608.0371092229907
 30
0.0
 10
818.6450193265887
 20
608.3964842229009
 30
0.0
 10
818.8051755765487
 20
608.8847654727788
 30
0.0
 10
818.8051755765487
 20
609.5019529726245
 30
0.0
 10
818.8051755765487
 20
610.095702972476
 30
0.0
 10
818.6469724515882
 20
610.5634764098592
 30
0.0
 10
818.3305662016674
 20
610.9052732847737
 30
0.0
 10
818.0141599517465
 20
611.2470701596882
 30
0.0
 10
817.6157224518461
 20
611.4179685971455
 30
0.0
 10
817.1352537019661
 20
611.4179685971455
 30
0.0
 10
816.6586912020853
 20
611.4179685971455
 30
0.0
 10
816.2543943271863
 20
611.2470701596882
 30
0.0
 10
815.9223630772694
 20
610.9052732847737
 30
0.0
 10
815.5903318273524
 20
610.5634764098592
 30
0.0
 10
815.4243162023939
 20
610.1152342224711
 30
0.0
 10
815.4243162023939
 20
609.5605467226098
 30
0.0
  0
HATCH
  5
7D
330
6D
100
AcDbEntity
  8
0
 62
   240
420
 15539236
100
AcDbHatch
 10
0.0
 20
0.0
 30
0.0
210
0.0
220
0.0
230
1.0
  2
SOLID
 70
     1
 71
     0
 91
        2
 92
        1
 93
        1
 72
     4
 94
        3
 73
     0
 74
     1
 95
       62
 96
       58
 40
0.0
 40
0.0
 40
0.0
 40
0.0
 40
1.0
 40
1.0
 40
1.0
 40
2.0
 40
2.0
 40
2.0
 40
3.0
 40
3.0
 40
3.0
 40
4.0
 40
4.0
 40
4.0
 40
5.0
 40
5.0
 40
5.0
 40
6.0
 40
6.0
 40
6.0
 40
7.0
 40
7.0
 40
7.0
 40
8.0
 40
8.0
 40
8.0
 40
9.0
 40
9.0
 40
9.0
 40
10.0
 40
10.0
 40
10.0
 40
11.0
 40
11.0
 40
11.0
 40
12.0
 40
12.0
 40
12.0
 40
13.0
 40
13.0
 40
13.0
 40
14.0
 40
14.0
 40
14.0
 40
15.0
 40
15.0
 40
15.0
 40
16.0
 40
16.0
 40
16.0
 40
17.0
 40
17.0
 40
17.0
 40
18.0
 40
18.0
 40
18.0
 40
19.0
 40
19.0
 40
19.0
 40
19.0
 10
819.7309568263172
 20
613.2636717216841
 10
819.7309568263172
 20
613.2636717216841
 10
818.6821287015795
 20
613.1816404717046
 10
818.6821287015795
 20
613.1816404717046
 10
818.5883787016029
 20
613.5957029716011
 10
818.4555662016361
 20
613.8964842215258
 10
818.2836912016791
 20
614.083984221479
 10
817.9985349517503
 20
614.3847654714039
 10
817.6469724518382
 20
614.5351560963662
 10
817.2290037019427
 20
614.5351560963662
 10
816.8930662020267
 20
614.5351560963662
 10
816.5981443271005
 20
614.4414060963896
 10
816.3442380771639
 20
614.2539060964365
 10
816.0122068272469
 20
614.0117185964971
 10
815.7504880773124
 20
613.6582029715854
 10
815.5590818273602
 20
613.1933592217016
 10
815.367675577408
 20
612.7285154718179
 10
815.2680662024329
 20
612.0664060969834
 10
815.260253702435
 20
611.2070310971982
 10
815.5141599523714
 20
611.5937498471015
 10
815.8247068272938
 20
611.8808592220298
 10
816.191894327202
 20
612.0683592219829
 10
816.5590818271102
 20
612.255859221936
 10
816.943847452014
 20
612.3496092219126
 10
817.3461912019135
 20
612.3496092219126
 10
818.0493162017376
 20
612.3496092219126
 10
818.647949014088
 20
612.0908201594773
 10
819.1420896389644
 20
611.5732420346067
 10
819.636230263841
 20
611.055663909736
 10
819.8833005762791
 20
610.3867185974033
 10
819.8833005762791
 20
609.5664060976084
 10
819.8833005762791
 20
609.0273435977432
 10
819.7670896388082
 20
608.5263670353684
 10
819.5346677638663
 20
608.0634764104841
 10
819.3022458889244
 20
607.6005857855998
 10
818.9829099515042
 20
607.2460935981885
 10
818.5766599516058
 20
606.99999984825
 10
818.1704099517074
 20
606.7539060983115
 10
817.7094724518226
 20
606.6308592233423
 10
817.1938474519516
 20
606.6308592233423
 10
816.3149412021712
 20
606.6308592233423
 10
815.5981443273505
 20
606.9541014107615
 10
815.0434568274891
 20
607.6005857855998
 10
814.4887693276278
 20
608.2470701604382
 10
814.2114255776971
 20
609.3124998476719
 10
814.2114255776971
 20
610.7968748473007
 10
814.2114255776971
 20
612.4570310968858
 10
814.5180662026205
 20
613.6640623465839
 10
815.1313474524671
 20
614.4179685963954
 10
815.6665037023333
 20
615.0742185962314
 10
816.3872068271531
 20
615.4023435961494
 10
817.2934568269267
 20
615.4023435961494
 10
817.9692380767576
 20
615.4023435961494
 10
818.5229490141193
 20
615.2128904711967
 10
818.9545896390114
 20
614.8339842212915
 10
819.3862302639034
 20
614.4550779713862
 10
819.6450193263387
 20
613.9316404715171
 10
819.7309568263172
 20
613.2636717216841
 97
        0
 97
        0
 92
        1
 93
        1
 72
     4
 94
        3
 73
     0
 74
     1
 95
       32
 96
       28
 40
0.0
 40
0.0
 40
0.0
 40
0.0
 40
1.0
 40
1.0
 40
1.0
 40
2.0
 40
2.0
 40
2.0
 40
3.0
 40
3.0
 40
3.0
 40
4.0
 40
4.0
 40
4.0
 40
5.0
 40
5.0
 40
5.0
 40
6.0
 40
6.0
 40
6.0
 40
7.0
 40
7.0
 40
7.0
 40
8.0
 40
8.0
 40
8.0
 40
9.0
 40
9.0
 40
9.0
 40
9.0
 10
815.4243162023939
 20
609.5605467226098
 10
815.4243162023939
 20
609.1972654727007
 10
815.5014646398746
 20
608.8496092227875
 10
815.6557615148361
 20
608.5175779728706
 10
815.8100583897975
 20
608.1855467229536
 10
816.0258787022435
 20
607.9326170355168
 10
816.3032224521742
 20
607.7587889105603
 10
816.5805662021048
 20
607.5849607856037
 10
816.8715818270321
 20
607.4980467231255
 10
817.1762693269559
 20
607.4980467231255
 10
817.6215818268446
 20
607.4980467231255
 10
818.0043943267489
 20
607.6777342230805
 10
818.3247068266688
 20
608.0371092229907
 10
818.6450193265887
 20
608.3964842229009
 10
818.8051755765487
 20
608.8847654727788
 10
818.8051755765487
 20
609.5019529726245
 10
818.8051755765487
 20
610.095702972476
 10
818.6469724515882
 20
610.5634764098592
 10
818.3305662016674
 20
610.9052732847737
 10
818.0141599517465
 20
611.2470701596882
 10
817.6157224518461
 20
611.4179685971455
 10
817.1352537019661
 20
611.4179685971455
 10
816.6586912020853
 20
611.4179685971455
 10
816.2543943271863
 20
611.2470701596882
 10
815.9223630772694
 20
610.9052732847737
 10
815.5903318273524
 20
610.5634764098592
 10
815.4243162023939
 20
610.1152342224711
 10
815.4243162023939
 20
609.5605467226098
 97
        0
 97
        0
 75
     2
 76
     1
 98
        0
  0
SPLINE
  5
7E
330
6D
100
AcDbEntity
  8
0
 62
   240
420
 15539236
370
    35
100
AcDbSpline
210
0.0
220
0.0
230
1.0
 70
    11
 71
     3
 72
   110
 73
   106
 74
     0
 42
0.0000000001
 43
0.0000000001
 12
1.0
 22
0.0
 32
0.0
 13
1.0
 23
0.0
 33
0.0
 40
0.0
 40
0.0
 40
0.0
 40
0.0
 40
1.0
 40
1.0
 40
1.0
 40
2.0
 40
2.0
 40
2.0
 40
3.0
 40
3.0
 40
3.0
 40
4.0
 40
4.0
 40
4.0
 40
5.0
 40
5.0
 40
5.0
 40
6.0
 40
6.0
 40
6.0
 40
7.0
 40
7.0
 40
7.0
 40
8.0
 40
8.0
 40
8.0
 40
9.0
 40
9.0
 40
9.0
 40
10.0
 40
10.0
 40
10.0
 40
11.0
 40
11.0
 40
11.0
 40
12.0
 40
12.0
 40
12.0
 40
13.0
 40
13.0
 40
13.0
 40
14.0
 40
14.0
 40
14.0
 40
15.0
 40
15.0
 40
15.0
 40
16.0
 40
16.0
 40
16.0
 40
17.0
 40
17.0
 40
17.0
 40
18.0
 40
18.0
 40
18.0
 40
19.0
 40
19.0
 40
19.0
 40
20.0
 40
20.0
 40
20.0
 40
21.0
 40
21.0
 40
21.0
 40
22.0
 40
22.0
 40
22.0
 40
23.0
 40
23.0
 40
23.0
 40
24.0
 40
24.0
 40
24.0
 40
25.0
 40
25.0
 40
25.0
 40
26.0
 40
26.0
 40
26.0
 40
27.0
 40
27.0
 40
27.0
 40
28.0
 40
28.0
 40
28.0
 40
29.0
 40
29.0
 40
29.0
 40
30.0
 40
30.0
 40
30.0
 40
31.0
 40
31.0
 40
31.0
 40
32.0
 40
32.0
 40
32.0
 40
33.0
 40
33.0
 40
33.0
 40
34.0
 40
34.0
 40
34.0
 40
35.0
 40
35.0
 40
35.0
 40
35.0
 10
824.3071287001732
 20
609.5371092226158
 30
0.0
 10
824.3071287001732
 20
609.5371092226158
 30
0.0
 10
825.3793943249051
 20
609.6308592225922
 30
0.0
 10
825.3793943249051
 20
609.6308592225922
 30
0.0
 10
825.4301755748925
 20
609.2011717226997
 30
0.0
 10
825.5483396373629
 20
608.8486326602879
 30
0.0
 10
825.7338865123165
 20
608.5732420353567
 30
0.0
 10
825.9194333872701
 20
608.2978514104256
 30
0.0
 10
826.2075193246981
 20
608.0751951604811
 30
0.0
 10
826.5981443246004
 20
607.9052732855237
 30
0.0
 10
826.9887693245028
 20
607.7353514105662
 30
0.0
 10
827.4282224493929
 20
607.6503904730874
 30
0.0
 10
827.9165036992708
 20
607.6503904730874
 30
0.0
 10
828.3500974491625
 20
607.6503904730874
 30
0.0
 10
828.7329099490668
 20
607.7148435980713
 30
0.0
 10
829.0649411989838
 20
607.843749848039
 30
0.0
 10
829.3969724489008
 20
607.9726560980068
 30
0.0
 10
829.6440427613389
 20
608.1494139104626
 30
0.0
 10
829.8061521362985
 20
608.3740232854065
 30
0.0
 10
829.9682615112579
 20
608.5986326603503
 30
0.0
 10
830.0493161987376
 20
608.843749847789
 30
0.0
 10
830.0493161987376
 20
609.1093748477226
 30
0.0
 10
830.0493161987376
 20
609.3789060976553
 30
0.0
 10
829.9711911987572
 20
609.6142576600964
 30
0.0
 10
829.8149411987962
 20
609.8154295350462
 30
0.0
 10
829.6586911988353
 20
610.0166014099958
 30
0.0
 10
829.4008786988998
 20
610.1855467224536
 30
0.0
 10
829.0415036989896
 20
610.3222654724194
 30
0.0
 10
828.8110349490472
 20
610.4121092223969
 30
0.0
 10
828.3012693241747
 20
610.551757659862
 30
0.0
 10
827.5122068243719
 20
610.7412107848147
 30
0.0
 10
826.7231443245691
 20
610.9306639097673
 30
0.0
 10
826.1704099497074
 20
611.1093748472226
 30
0.0
 10
825.8540036997865
 20
611.2773435971807
 30
0.0
 10
825.4438474498891
 20
611.4921873471269
 30
0.0
 10
825.1381833874655
 20
611.7587889095603
 30
0.0
 10
824.9370115125157
 20
612.0771482844807
 30
0.0
 10
824.7358396375661
 20
612.3955076594011
 30
0.0
 10
824.6352537000912
 20
612.751952971812
 30
0.0
 10
824.6352537000912
 20
613.1464842217134
 30
0.0
 10
824.6352537000912
 20
613.580077971605
 30
0.0
 10
824.7583005750604
 20
613.9853514090037
 30
0.0
 10
825.0043943249989
 20
614.3623045339094
 30
0.0
 10
825.2504880749374
 20
614.7392576588152
 30
0.0
 10
825.6098630748476
 20
615.0253904712437
 30
0.0
 10
826.0825193247293
 20
615.2207029711948
 30
0.0
 10
826.5551755746112
 20
615.416015471146
 30
0.0
 10
827.0805661994798
 20
615.5136717211216
 30
0.0
 10
827.6586911993353
 20
615.5136717211216
 30
0.0
 10
828.2954099491761
 20
615.5136717211216
 30
0.0
 10
828.8569333865357
 20
615.4111326586471
 30
0.0
 10
829.3432615114142
 20
615.2060545336984
 30
0.0
 10
829.8295896362926
 20
615.0009764087497
 30
0.0
 10
830.2036130736991
 20
614.6992185963252
 30
0.0
 10
830.4653318236336
 20
614.3007810964248
 30
0.0
 10
830.7270505735682
 20
613.9023435965244
 30
0.0
 10
830.8676755735331
 20
613.4511717216371
 30
0.0
 10
830.8872068235282
 20
612.9472654717632
 30
0.0
 10
830.8872068235282
 20
612.9472654717632
 30
0.0
 10
829.7973630738006
 20
612.8652342217837
 30
0.0
 10
829.7973630738006
 20
612.8652342217837
 30
0.0
 10
829.7387693238153
 20
613.4082029716479
 30
0.0
 10
829.5405271363649
 20
613.8183592215454
 30
0.0
 10
829.2026365114493
 20
614.095702971476
 30
0.0
 10
828.8647458865338
 20
614.3730467214067
 30
0.0
 10
828.3657224491585
 20
614.511718596372
 30
0.0
 10
827.7055661993236
 20
614.511718596372
 30
0.0
 10
827.0180661994955
 20
614.511718596372
 30
0.0
 10
826.5170896371208
 20
614.3857420339035
 30
0.0
 10
826.2026365121993
 20
614.1337889089665
 30
0.0
 10
825.888183387278
 20
613.8818357840295
 30
0.0
 10
825.7309568248172
 20
613.5781248466054
 30
0.0
 10
825.7309568248172
 20
613.2226560966943
 30
0.0
 10
825.7309568248172
 20
612.9140623467715
 30
0.0
 10
825.8422849497894
 20
612.660156096835
 30
0.0
 10
826.0649411997338
 20
612.4609373468847
 30
0.0
 10
826.2836911996791
 20
612.2617185969345
 30
0.0
 10
826.8549802620363
 20
612.0576170344856
 30
0.0
 10
827.7788083868053
 20
611.8486326595379
 30
0.0
 10
828.7026365115743
 20
611.6396482845901
 30
0.0
 10
829.3364255739159
 20
611.4570310971358
 30
0.0
 10
829.68017557383
 20
611.3007810971748
 30
0.0
 10
830.1801755737049
 20
611.0703123472324
 30
0.0
 10
830.5493161986127
 20
610.7783201598054
 30
0.0
 10
830.7875974485531
 20
610.4248045348938
 30
0.0
 10
831.0258786984936
 20
610.0712889099822
 30
0.0
 10
831.1450193234638
 20
609.6640623475839
 30
0.0
 10
831.1450193234638
 20
609.2031248476992
 30
0.0
 10
831.1450193234638
 20
608.7460935978135
 30
0.0
 10
831.0141599484964
 20
608.3154295354211
 30
0.0
 10
830.7524411985619
 20
607.9111326605222
 30
0.0
 10
830.4907224486273
 20
607.5068357856233
 30
0.0
 10
830.1147458862213
 20
607.1923826607019
 30
0.0
 10
829.6245115113438
 20
606.9677732857581
 30
0.0
 10
829.1342771364664
 20
606.7431639108142
 30
0.0
 10
828.5825193241044
 20
606.6308592233423
 30
0.0
 10
827.9692380742576
 20
606.6308592233423
 30
0.0
 10
827.191894324452
 20
606.6308592233423
 30
0.0
 10
826.5405271371149
 20
606.7441404733139
 30
0.0
 10
826.0151365122462
 20
606.9707029732573
 30
0.0
 10
825.4897458873776
 20
607.1972654732007
 30
0.0
 10
825.0776365124806
 20
607.5380857856155
 30
0.0
 10
824.7788083875553
 20
607.9931639105017
 30
0.0
 10
824.47998026263
 20
608.4482420353879
 30
0.0
 10
824.3227537001693
 20
608.9628904727592
 30
0.0
 10
824.3071287001732
 20
609.5371092226158
 30
0.0
  0
HATCH
  5
7F
330
6D
100
AcDbEntity
  8
0
 62
   240
420
 15539236
100
AcDbHatch
 10
0.0
 20
0.0
 30
0.0
210
0.0
220
0.0
230
1.0
  2
SOLID
 70
     1
 71
     0
 91
        1
 92
        1
 93
        1
 72
     4
 94
        3
 73
     0
 74
     1
 95
      110
 96
      106
 40
0.0
 40
0.0
 40
0.0
 40
0.0
 40
1.0
 40
1.0
 40
1.0
 40
2.0
 40
2.0
 40
2.0
 40
3.0
 40
3.0
 40
3.0
 40
4.0
 40
4.0
 40
4.0
 40
5.0
 40
5.0
 40
5.0
 40
6.0
 40
6.0
 40
6.0
 40
7.0
 40
7.0
 40
7.0
 40
8.0
 40
8.0
 40
8.0
 40
9.0
 40
9.0
 40
9.0
 40
10.0
 40
10.0
 40
10.0
 40
11.0
 40
11.0
 40
11.0
 40
12.0
 40
12.0
 40
12.0
 40
13.0
 40
13.0
 40
13.0
 40
14.0
 40
14.0
 40
14.0
 40
15.0
 40
15.0
 40
15.0
 40
16.0
 40
16.0
 40
16.0
 40
17.0
 40
17.0
 40
17.0
 40
18.0
 40
18.0
 40
18.0
 40
19.0
 40
19.0
 40
19.0
 40
20.0
 40
20.0
 40
20.0
 40
21.0
 40
21.0
 40
21.0
 40
22.0
 40
22.0
 40
22.0
 40
23.0
 40
23.0
 40
23.0
 40
24.0
 40
24.0
 40
24.0
 40
25.0
 40
25.0
 40
25.0
 40
26.0
 40
26.0
 40
26.0
 40
27.0
 40
27.0
 40
27.0
 40
28.0
 40
28.0
 40
28.0
 40
29.0
 40
29.0
 40
29.0
 40
30.0
 40
30.0
 40
30.0
 40
31.0
 40
31.0
 40
31.0
 40
32.0
 40
32.0
 40
32.0
 40
33.0
 40
33.0
 40
33.0
 40
34.0
 40
34.0
 40
34.0
 40
35.0
 40
35.0
 40
35.0
 40
35.0
 10
824.3071287001732
 20
609.5371092226158
 10
824.3071287001732
 20
609.5371092226158
 10
825.3793943249051
 20
609.6308592225922
 10
825.3793943249051
 20
609.6308592225922
 10
825.4301755748925
 20
609.2011717226997
 10
825.5483396373629
 20
608.8486326602879
 10
825.7338865123165
 20
608.5732420353567
 10
825.9194333872701
 20
608.2978514104256
 10
826.2075193246981
 20
608.0751951604811
 10
826.5981443246004
 20
607.9052732855237
 10
826.9887693245028
 20
607.7353514105662
 10
827.4282224493929
 20
607.6503904730874
 10
827.9165036992708
 20
607.6503904730874
 10
828.3500974491625
 20
607.6503904730874
 10
828.7329099490668
 20
607.7148435980713
 10
829.0649411989838
 20
607.843749848039
 10
829.3969724489008
 20
607.9726560980068
 10
829.6440427613389
 20
608.1494139104626
 10
829.8061521362985
 20
608.3740232854065
 10
829.9682615112579
 20
608.5986326603503
 10
830.0493161987376
 20
608.843749847789
 10
830.0493161987376
 20
609.1093748477226
 10
830.0493161987376
 20
609.3789060976553
 10
829.9711911987572
 20
609.6142576600964
 10
829.8149411987962
 20
609.8154295350462
 10
829.6586911988353
 20
610.0166014099958
 10
829.4008786988998
 20
610.1855467224536
 10
829.0415036989896
 20
610.3222654724194
 10
828.8110349490472
 20
610.4121092223969
 10
828.3012693241747
 20
610.551757659862
 10
827.5122068243719
 20
610.7412107848147
 10
826.7231443245691
 20
610.9306639097673
 10
826.1704099497074
 20
611.1093748472226
 10
825.8540036997865
 20
611.2773435971807
 10
825.4438474498891
 20
611.4921873471269
 10
825.1381833874655
 20
611.7587889095603
 10
824.9370115125157
 20
612.0771482844807
 10
824.7358396375661
 20
612.3955076594011
 10
824.6352537000912
 20
612.751952971812
 10
824.6352537000912
 20
613.1464842217134
 10
824.6352537000912
 20
613.580077971605
 10
824.7583005750604
 20
613.9853514090037
 10
825.0043943249989
 20
614.3623045339094
 10
825.2504880749374
 20
614.7392576588152
 10
825.6098630748476
 20
615.0253904712437
 10
826.0825193247293
 20
615.2207029711948
 10
826.5551755746112
 20
615.416015471146
 10
827.0805661994798
 20
615.5136717211216
 10
827.6586911993353
 20
615.5136717211216
 10
828.2954099491761
 20
615.5136717211216
 10
828.8569333865357
 20
615.4111326586471
 10
829.3432615114142
 20
615.2060545336984
 10
829.8295896362926
 20
615.0009764087497
 10
830.2036130736991
 20
614.6992185963252
 10
830.4653318236336
 20
614.3007810964248
 10
830.7270505735682
 20
613.9023435965244
 10
830.8676755735331
 20
613.4511717216371
 10
830.8872068235282
 20
612.9472654717632
 10
830.8872068235282
 20
612.9472654717632
 10
829.7973630738006
 20
612.8652342217837
 10
829.7973630738006
 20
612.8652342217837
 10
829.7387693238153
 20
613.4082029716479
 10
829.5405271363649
 20
613.8183592215454
 10
829.2026365114493
 20
614.095702971476
 10
828.8647458865338
 20
614.3730467214067
 10
828.3657224491585
 20
614.511718596372
 10
827.7055661993236
 20
614.511718596372
 10
827.0180661994955
 20
614.511718596372
 10
826.5170896371208
 20
614.3857420339035
 10
826.2026365121993
 20
614.1337889089665
 10
825.888183387278
 20
613.8818357840295
 10
825.7309568248172
 20
613.5781248466054
 10
825.7309568248172
 20
613.2226560966943
 10
825.7309568248172
 20
612.9140623467715
 10
825.8422849497894
 20
612.660156096835
 10
826.0649411997338
 20
612.4609373468847
 10
826.2836911996791
 20
612.2617185969345
 10
826.8549802620363
 20
612.0576170344856
 10
827.7788083868053
 20
611.8486326595379
 10
828.7026365115743
 20
611.6396482845901
 10
829.3364255739159
 20
611.4570310971358
 10
829.68017557383
 20
611.3007810971748
 10
830.1801755737049
 20
611.0703123472324
 10
830.5493161986127
 20
610.7783201598054
 10
830.7875974485531
 20
610.4248045348938
 10
831.0258786984936
 20
610.0712889099822
 10
831.1450193234638
 20
609.6640623475839
 10
831.1450193234638
 20
609.2031248476992
 10
831.1450193234638
 20
608.7460935978135
 10
831.0141599484964
 20
608.3154295354211
 10
830.7524411985619
 20
607.9111326605222
 10
830.4907224486273
 20
607.5068357856233
 10
830.1147458862213
 20
607.1923826607019
 10
829.6245115113438
 20
606.9677732857581
 10
829.1342771364664
 20
606.7431639108142
 10
828.5825193241044
 20
606.6308592233423
 10
827.9692380742576
 20
606.6308592233423
 10
827.191894324452
 20
606.6308592233423
 10
826.5405271371149
 20
606.7441404733139
 10
826.0151365122462
 20
606.9707029732573
 10
825.4897458873776
 20
607.1972654732007
 10
825.0776365124806
 20
607.5380857856155
 10
824.7788083875553
 20
607.9931639105017
 10
824.47998026263
 20
608.4482420353879
 10
824.3227537001693
 20
608.9628904727592
 10
824.3071287001732
 20
609.5371092226158
 97
        0
 97
        0
 75
     2
 76
     1
 98
        0
  0
SPLINE
  5
80
330
6D
100
AcDbEntity
  8
0
 62
   240
420
 15539236
370
    35
100
AcDbSpline
210
0.0
220
0.0
230
1.0
 70
    11
 71
     3
 72
    65
 73
    61
 74
     0
 42
0.0000000001
 43
0.0000000001
 12
1.0
 22
0.0
 32
0.0
 13
1.0
 23
0.0
 33
0.0
 40
0.0
 40
0.0
 40
0.0
 40
0.0
 40
1.0
 40
1.0
 40
1.0
 40
2.0
 40
2.0
 40
2.0
 40
3.0
 40
3.0
 40
3.0
 40
4.0
 40
4.0
 40
4.0
 40
5.0
 40
5.0
 40
5.0
 40
6.0
 40
6.0
 40
6.0
 40
7.0
 40
7.0
 40
7.0
 40
8.0
 40
8.0
 40
8.0
 40
9.0
 40
9.0
 40
9.0
 40
10.0
 40
10.0
 40
10.0
 40
11.0
 40
11.0
 40
11.0
 40
12.0
 40
12.0
 40
12.0
 40
13.0
 40
13.0
 40
13.0
 40
14.0
 40
14.0
 40
14.0
 40
15.0
 40
15.0
 40
15.0
 40
16.0
 40
16.0
 40
16.0
 40
17.0
 40
17.0
 40
17.0
 40
18.0
 40
18.0
 40
18.0
 40
19.0
 40
19.0
 40
19.0
 40
20.0
 40
20.0
 40
20.0
 40
20.0
 10
834.8657224475336
 20
607.7207029730698
 30
0.0
 10
834.8657224475336
 20
607.7207029730698
 30
0.0
 10
835.0180661974955
 20
606.7890623483028
 30
0.0
 10
835.0180661974955
 20
606.7890623483028
 30
0.0
 10
834.7211911975697
 20
606.7265623483183
 30
0.0
 10
834.4555661976361
 20
606.6953123483262
 30
0.0
 10
834.2211911976947
 20
606.6953123483262
 30
0.0
 10
833.8383786977904
 20
606.6953123483262
 30
0.0
 10
833.5415036978646
 20
606.7558592233111
 30
0.0
 10
833.3305661979174
 20
606.8769529732807
 30
0.0
 10
833.11962869797
 20
606.9980467232505
 30
0.0
 10
832.9711911980072
 20
607.1572264107107
 30
0.0
 10
832.8852536980287
 20
607.3544920356613
 30
0.0
 10
832.7993161980502
 20
607.551757660612
 30
0.0
 10
832.7563474480609
 20
607.9667967230083
 30
0.0
 10
832.7563474480609
 20
608.5996092228501
 30
0.0
 10
832.7563474480609
 20
608.5996092228501
 30
0.0
 10
832.7563474480609
 20
612.1796873469551
 30
0.0
 10
832.7563474480609
 20
612.1796873469551
 30
0.0
 10
832.7563474480609
 20
612.1796873469551
 30
0.0
 10
831.9829099482542
 20
612.1796873469551
 30
0.0
 10
831.9829099482542
 20
612.1796873469551
 30
0.0
 10
831.9829099482542
 20
612.1796873469551
 30
0.0
 10
831.9829099482542
 20
612.99999984675
 30
0.0
 10
831.9829099482542
 20
612.99999984675
 30
0.0
 10
831.9829099482542
 20
612.99999984675
 30
0.0
 10
832.7563474480609
 20
612.99999984675
 30
0.0
 10
832.7563474480609
 20
612.99999984675
 30
0.0
 10
832.7563474480609
 20
612.99999984675
 30
0.0
 10
832.7563474480609
 20
614.5410154713647
 30
0.0
 10
832.7563474480609
 20
614.5410154713647
 30
0.0
 10
832.7563474480609
 20
614.5410154713647
 30
0.0
 10
833.8051755727987
 20
615.1738279712065
 30
0.0
 10
833.8051755727987
 20
615.1738279712065
 30
0.0
 10
833.8051755727987
 20
615.1738279712065
 30
0.0
 10
833.8051755727987
 20
612.99999984675
 30
0.0
 10
833.8051755727987
 20
612.99999984675
 30
0.0
 10
833.8051755727987
 20
612.99999984675
 30
0.0
 10
834.8657224475336
 20
612.99999984675
 30
0.0
 10
834.8657224475336
 20
612.99999984675
 30
0.0
 10
834.8657224475336
 20
612.99999984675
 30
0.0
 10
834.8657224475336
 20
612.1796873469551
 30
0.0
 10
834.8657224475336
 20
612.1796873469551
 30
0.0
 10
834.8657224475336
 20
612.1796873469551
 30
0.0
 10
833.8051755727987
 20
612.1796873469551
 30
0.0
 10
833.8051755727987
 20
612.1796873469551
 30
0.0
 10
833.8051755727987
 20
612.1796873469551
 30
0.0
 10
833.8051755727987
 20
608.5410154728647
 30
0.0
 10
833.8051755727987
 20
608.5410154728647
 30
0.0
 10
833.8051755727987
 20
608.2402342229399
 30
0.0
 10
833.823730260294
 20
608.0468748479883
 30
0.0
 10
833.8608396352847
 20
607.9609373480098
 30
0.0
 10
833.8979490102755
 20
607.8749998480313
 30
0.0
 10
833.9584958852604
 20
607.8066404730483
 30
0.0
 10
834.0424802602394
 20
607.7558592230611
 30
0.0
 10
834.1264646352183
 20
607.7050779730737
 30
0.0
 10
834.2465818226883
 20
607.67968734808
 30
0.0
 10
834.4028318226493
 20
607.67968734808
 30
0.0
 10
834.52001932262
 20
607.67968734808
 30
0.0
 10
834.6743161975814
 20
607.6933592230766
 30
0.0
 10
834.8657224475336
 20
607.7207029730698
 30
0.0
  0
HATCH
  5
81
330
6D
100
AcDbEntity
  8
0
 62
   240
420
 15539236
100
AcDbHatch
 10
0.0
 20
0.0
 30
0.0
210
0.0
220
0.0
230
1.0
  2
SOLID
 70
     1
 71
     0
 91
        1
 92
        1
 93
        1
 72
     4
 94
        3
 73
     0
 74
     1
 95
       65
 96
       61
 40
0.0
 40
0.0
 40
0.0
 40
0.0
 40
1.0
 40
1.0
 40
1.0
 40
2.0
 40
2.0
 40
2.0
 40
3.0
 40
3.0
 40
3.0
 40
4.0
 40
4.0
 40
4.0
 40
5.0
 40
5.0
 40
5.0
 40
6.0
 40
6.0
 40
6.0
 40
7.0
 40
7.0
 40
7.0
 40
8.0
 40
8.0
 40
8.0
 40
9.0
 40
9.0
 40
9.0
 40
10.0
 40
10.0
 40
10.0
 40
11.0
 40
11.0
 40
11.0
 40
12.0
 40
12.0
 40
12.0
 40
13.0
 40
13.0
 40
13.0
 40
14.0
 40
14.0
 40
14.0
 40
15.0
 40
15.0
 40
15.0
 40
16.0
 40
16.0
 40
16.0
 40
17.0
 40
17.0
 40
17.0
 40
18.0
 40
18.0
 40
18.0
 40
19.0
 40
19.0
 40
19.0
 40
20.0
 40
20.0
 40
20.0
 40
20.0
 10
834.8657224475336
 20
607.7207029730698
 10
834.8657224475336
 20
607.7207029730698
 10
835.0180661974955
 20
606.7890623483028
 10
835.0180661974955
 20
606.7890623483028
 10
834.7211911975697
 20
606.7265623483183
 10
834.4555661976361
 20
606.6953123483262
 10
834.2211911976947
 20
606.6953123483262
 10
833.8383786977904
 20
606.6953123483262
 10
833.5415036978646
 20
606.7558592233111
 10
833.3305661979174
 20
606.8769529732807
 10
833.11962869797
 20
606.9980467232505
 10
832.9711911980072
 20
607.1572264107107
 10
832.8852536980287
 20
607.3544920356613
 10
832.7993161980502
 20
607.551757660612
 10
832.7563474480609
 20
607.9667967230083
 10
832.7563474480609
 20
608.5996092228501
 10
832.7563474480609
 20
608.5996092228501
 10
832.7563474480609
 20
612.1796873469551
 10
832.7563474480609
 20
612.1796873469551
 10
832.7563474480609
 20
612.1796873469551
 10
831.9829099482542
 20
612.1796873469551
 10
831.9829099482542
 20
612.1796873469551
 10
831.9829099482542
 20
612.1796873469551
 10
831.9829099482542
 20
612.99999984675
 10
831.9829099482542
 20
612.99999984675
 10
831.9829099482542
 20
612.99999984675
 10
832.7563474480609
 20
612.99999984675
 10
832.7563474480609
 20
612.99999984675
 10
832.7563474480609
 20
612.99999984675
 10
832.7563474480609
 20
614.5410154713647
 10
832.7563474480609
 20
614.5410154713647
 10
832.7563474480609
 20
614.5410154713647
 10
833.8051755727987
 20
615.1738279712065
 10
833.8051755727987
 20
615.1738279712065
 10
833.8051755727987
 20
615.1738279712065
 10
833.8051755727987
 20
612.99999984675
 10
833.8051755727987
 20
612.99999984675
 10
833.8051755727987
 20
612.99999984675
 10
834.8657224475336
 20
612.99999984675
 10
834.8657224475336
 20
612.99999984675
 10
834.8657224475336
 20
612.99999984675
 10
834.8657224475336
 20
612.1796873469551
 10
834.8657224475336
 20
612.1796873469551
 10
834.8657224475336
 20
612.1796873469551
 10
833.8051755727987
 20
612.1796873469551
 10
833.8051755727987
 20
612.1796873469551
 10
833.8051755727987
 20
612.1796873469551
 10
833.8051755727987
 20
608.5410154728647
 10
833.8051755727987
 20
608.5410154728647
 10
833.8051755727987
 20
608.2402342229399
 10
833.823730260294
 20
608.0468748479883
 10
833.8608396352847
 20
607.9609373480098
 10
833.8979490102755
 20
607.8749998480313
 10
833.9584958852604
 20
607.8066404730483
 10
834.0424802602394
 20
607.7558592230611
 10
834.1264646352183
 20
607.7050779730737
 10
834.2465818226883
 20
607.67968734808
 10
834.4028318226493
 20
607.67968734808
 10
834.52001932262
 20
607.67968734808
 10
834.6743161975814
 20
607.6933592230766
 10
834.8657224475336
 20
607.7207029730698
 97
        0
 97
        0
 75
     2
 76
     1
 98
        0
  0
SPLINE
  5
82
330
6D
100
AcDbEntity
  8
0
 62
   240
420
 15539236
370
    35
100
AcDbSpline
210
0.0
220
0.0
230
1.0
 70
    11
 71
     3
 72
    44
 73
    40
 74
     0
 42
0.0000000001
 43
0.0000000001
 12
1.0
 22
0.0
 32
0.0
 13
1.0
 23
0.0
 33
0.0
 40
0.0
 40
0.0
 40
0.0
 40
0.0
 40
1.0
 40
1.0
 40
1.0
 40
2.0
 40
2.0
 40
2.0
 40
3.0
 40
3.0
 40
3.0
 40
4.0
 40
4.0
 40
4.0
 40
5.0
 40
5.0
 40
5.0
 40
6.0
 40
6.0
 40
6.0
 40
7.0
 40
7.0
 40
7.0
 40
8.0
 40
8.0
 40
8.0
 40
9.0
 40
9.0
 40
9.0
 40
10.0
 40
10.0
 40
10.0
 40
11.0
 40
11.0
 40
11.0
 40
12.0
 40
12.0
 40
12.0
 40
13.0
 40
13.0
 40
13.0
 40
13.0
 10
835.8852536972787
 20
606.7773435983056
 30
0.0
 10
835.8852536972787
 20
606.7773435983056
 30
0.0
 10
835.8852536972787
 20
612.99999984675
 30
0.0
 10
835.8852536972787
 20
612.99999984675
 30
0.0
 10
835.8852536972787
 20
612.99999984675
 30
0.0
 10
836.8344724470413
 20
612.99999984675
 30
0.0
 10
836.8344724470413
 20
612.99999984675
 30
0.0
 10
836.8344724470413
 20
612.99999984675
 30
0.0
 10
836.8344724470413
 20
612.0566404719858
 30
0.0
 10
836.8344724470413
 20
612.0566404719858
 30
0.0
 10
837.0766599469808
 20
612.4980467218754
 30
0.0
 10
837.3002927594249
 20
612.7890623468027
 30
0.0
 10
837.5053708843736
 20
612.9296873467675
 30
0.0
 10
837.7104490093224
 20
613.0703123467324
 30
0.0
 10
837.936034946766
 20
613.1406248467148
 30
0.0
 10
838.1821286967045
 20
613.1406248467148
 30
0.0
 10
838.5375974466156
 20
613.1406248467148
 30
0.0
 10
838.8989255715253
 20
613.0273435967432
 30
0.0
 10
839.2661130714334
 20
612.8007810967998
 30
0.0
 10
839.2661130714334
 20
612.8007810967998
 30
0.0
 10
838.9028318215243
 20
611.8222654720444
 30
0.0
 10
838.9028318215243
 20
611.8222654720444
 30
0.0
 10
838.6450193215887
 20
611.9746092220063
 30
0.0
 10
838.3872068216532
 20
612.0507810969873
 30
0.0
 10
838.1293943217177
 20
612.0507810969873
 30
0.0
 10
837.8989255717753
 20
612.0507810969873
 30
0.0
 10
837.691894321827
 20
611.9814451595046
 30
0.0
 10
837.508300571873
 20
611.8427732845392
 30
0.0
 10
837.3247068219188
 20
611.7041014095739
 30
0.0
 10
837.1938474469515
 20
611.511718597122
 30
0.0
 10
837.1157224469711
 20
611.2656248471836
 30
0.0
 10
836.9985349470004
 20
610.8906248472773
 30
0.0
 10
836.939941197015
 20
610.4804685973799
 30
0.0
 10
836.939941197015
 20
610.0351560974912
 30
0.0
 10
836.939941197015
 20
610.0351560974912
 30
0.0
 10
836.939941197015
 20
606.7773435983056
 30
0.0
 10
836.939941197015
 20
606.7773435983056
 30
0.0
 10
836.939941197015
 20
606.7773435983056
 30
0.0
 10
835.8852536972787
 20
606.7773435983056
 30
0.0
 10
835.8852536972787
 20
606.7773435983056
 30
0.0
  0
HATCH
  5
83
330
6D
100
AcDbEntity
  8
0
 62
   240
420
 15539236
100
AcDbHatch
 10
0.0
 20
0.0
 30
0.0
210
0.0
220
0.0
230
1.0
  2
SOLID
 70
     1
 71
     0
 91
        1
 92
        1
 93
        1
 72
     4
 94
        3
 73
     0
 74
     1
 95
       44
 96
       40
 40
0.0
 40
0.0
 40
0.0
 40
0.0
 40
1.0
 40
1.0
 40
1.0
 40
2.0
 40
2.0
 40
2.0
 40
3.0
 40
3.0
 40
3.0
 40
4.0
 40
4.0
 40
4.0
 40
5.0
 40
5.0
 40
5.0
 40
6.0
 40
6.0
 40
6.0
 40
7.0
 40
7.0
 40
7.0
 40
8.0
 40
8.0
 40
8.0
 40
9.0
 40
9.0
 40
9.0
 40
10.0
 40
10.0
 40
10.0
 40
11.0
 40
11.0
 40
11.0
 40
12.0
 40
12.0
 40
12.0
 40
13.0
 40
13.0
 40
13.0
 40
13.0
 10
835.8852536972787
 20
606.7773435983056
 10
835.8852536972787
 20
606.7773435983056
 10
835.8852536972787
 20
612.99999984675
 10
835.8852536972787
 20
612.99999984675
 10
835.8852536972787
 20
612.99999984675
 10
836.8344724470413
 20
612.99999984675
 10
836.8344724470413
 20
612.99999984675
 10
836.8344724470413
 20
612.99999984675
 10
836.8344724470413
 20
612.0566404719858
 10
836.8344724470413
 20
612.0566404719858
 10
837.0766599469808
 20
612.4980467218754
 10
837.3002927594249
 20
612.7890623468027
 10
837.5053708843736
 20
612.9296873467675
 10
837.7104490093224
 20
613.0703123467324
 10
837.936034946766
 20
613.1406248467148
 10
838.1821286967045
 20
613.1406248467148
 10
838.5375974466156
 20
613.1406248467148
 10
838.8989255715253
 20
613.0273435967432
 10
839.2661130714334
 20
612.8007810967998
 10
839.2661130714334
 20
612.8007810967998
 10
838.9028318215243
 20
611.8222654720444
 10
838.9028318215243
 20
611.8222654720444
 10
838.6450193215887
 20
611.9746092220063
 10
838.3872068216532
 20
612.0507810969873
 10
838.1293943217177
 20
612.0507810969873
 10
837.8989255717753
 20
612.0507810969873
 10
837.691894321827
 20
611.9814451595046
 10
837.508300571873
 20
611.8427732845392
 10
837.3247068219188
 20
611.7041014095739
 10
837.1938474469515
 20
611.511718597122
 10
837.1157224469711
 20
611.2656248471836
 10
836.9985349470004
 20
610.8906248472773
 10
836.939941197015
 20
610.4804685973799
 10
836.939941197015
 20
610.0351560974912
 10
836.939941197015
 20
610.0351560974912
 10
836.939941197015
 20
606.7773435983056
 10
836.939941197015
 20
606.7773435983056
 10
836.939941197015
 20
606.7773435983056
 10
835.8852536972787
 20
606.7773435983056
 10
835.8852536972787
 20
606.7773435983056
 97
        0
 97
        0
 75
     2
 76
     1
 98
        0
  0
SPLINE
  5
84
330
6D
100
AcDbEntity
  8
0
 62
   240
420
 15539236
370
    35
100
AcDbSpline
210
0.0
220
0.0
230
1.0
 70
    11
 71
     3
 72
    86
 73
    82
 74
     0
 42
0.0000000001
 43
0.0000000001
 12
1.0
 22
0.0
 32
0.0
 13
1.0
 23
0.0
 33
0.0
 40
0.0
 40
0.0
 40
0.0
 40
0.0
 40
1.0
 40
1.0
 40
1.0
 40
2.0
 40
2.0
 40
2.0
 40
3.0
 40
3.0
 40
3.0
 40
4.0
 40
4.0
 40
4.0
 40
5.0
 40
5.0
 40
5.0
 40
6.0
 40
6.0
 40
6.0
 40
7.0
 40
7.0
 40
7.0
 40
8.0
 40
8.0
 40
8.0
 40
9.0
 40
9.0
 40
9.0
 40
10.0
 40
10.0
 40
10.0
 40
11.0
 40
11.0
 40
11.0
 40
12.0
 40
12.0
 40
12.0
 40
13.0
 40
13.0
 40
13.0
 40
14.0
 40
14.0
 40
14.0
 40
15.0
 40
15.0
 40
15.0
 40
16.0
 40
16.0
 40
16.0
 40
17.0
 40
17.0
 40
17.0
 40
18.0
 40
18.0
 40
18.0
 40
19.0
 40
19.0
 40
19.0
 40
20.0
 40
20.0
 40
20.0
 40
21.0
 40
21.0
 40
21.0
 40
22.0
 40
22.0
 40
22.0
 40
23.0
 40
23.0
 40
23.0
 40
24.0
 40
24.0
 40
24.0
 40
25.0
 40
25.0
 40
25.0
 40
26.0
 40
26.0
 40
26.0
 40
27.0
 40
27.0
 40
27.0
 40
27.0
 10
843.9536130702616
 20
607.5449217231137
 30
0.0
 10
843.5629880703592
 20
607.2128904731968
 30
0.0
 10
843.1870115079532
 20
606.9785154732554
 30
0.0
 10
842.8256833830436
 20
606.8417967232896
 30
0.0
 10
842.4643552581339
 20
606.7050779733237
 30
0.0
 10
842.0766599457309
 20
606.6367185983408
 30
0.0
 10
841.6625974458343
 20
606.6367185983408
 30
0.0
 10
840.9790036960052
 20
606.6367185983408
 30
0.0
 10
840.4536130711366
 20
606.803710785799
 30
0.0
 10
840.0864255712283
 20
607.1376951607156
 30
0.0
 10
839.7192380713202
 20
607.4716795356321
 30
0.0
 10
839.535644321366
 20
607.8984373480254
 30
0.0
 10
839.535644321366
 20
608.4179685978955
 30
0.0
 10
839.535644321366
 20
608.7226560978194
 30
0.0
 10
839.6049802588487
 20
609.0009764102498
 30
0.0
 10
839.7436521338141
 20
609.2529295351868
 30
0.0
 10
839.8823240087794
 20
609.5048826601237
 30
0.0
 10
840.063964633734
 20
609.7070310975732
 30
0.0
 10
840.2885740086779
 20
609.8593748475352
 30
0.0
 10
840.5131833836217
 20
610.0117185974971
 30
0.0
 10
840.7661130710585
 20
610.1269529724683
 30
0.0
 10
841.0473630709881
 20
610.2050779724487
 30
0.0
 10
841.2543943209364
 20
610.259765472435
 30
0.0
 10
841.5668943208583
 20
610.3124998474219
 30
0.0
 10
841.9848630707538
 20
610.3632810974092
 30
0.0
 10
842.8364255705409
 20
610.4648435973838
 30
0.0
 10
843.4633786953841
 20
610.5859373473535
 30
0.0
 10
843.8657224452835
 20
610.7265623473183
 30
0.0
 10
843.8696286952826
 20
610.8710935972822
 30
0.0
 10
843.8715818202821
 20
610.9628904722592
 30
0.0
 10
843.8715818202821
 20
611.0019529722495
 30
0.0
 10
843.8715818202821
 20
611.431640472142
 30
0.0
 10
843.771972445307
 20
611.7343748470664
 30
0.0
 10
843.5727536953568
 20
611.9101560970224
 30
0.0
 10
843.3032224454241
 20
612.1484373469629
 30
0.0
 10
842.9028318205243
 20
612.2675779719331
 30
0.0
 10
842.3715818206571
 20
612.2675779719331
 30
0.0
 10
841.8754880707811
 20
612.2675779719331
 30
0.0
 10
841.5092771333726
 20
612.1806639094548
 30
0.0
 10
841.2729490084317
 20
612.0068357844983
 30
0.0
 10
841.0366208834909
 20
611.8330076595417
 30
0.0
 10
840.8618161960345
 20
611.5253904721186
 30
0.0
 10
840.7485349460628
 20
611.083984222229
 30
0.0
 10
840.7485349460628
 20
611.083984222229
 30
0.0
 10
839.7172849463207
 20
611.2246092221939
 30
0.0
 10
839.7172849463207
 20
611.2246092221939
 30
0.0
 10
839.8110349462972
 20
611.6660154720835
 30
0.0
 10
839.9653318212587
 20
612.0224607844943
 30
0.0
 10
840.1801755712049
 20
612.2939451594265
 30
0.0
 10
840.3950193211513
 20
612.5654295343586
 30
0.0
 10
840.7055661960736
 20
612.7744139093064
 30
0.0
 10
841.111816195972
 20
612.9208982842698
 30
0.0
 10
841.5180661958705
 20
613.0673826592331
 30
0.0
 10
841.9887693207528
 20
613.1406248467148
 30
0.0
 10
842.523925570619
 20
613.1406248467148
 30
0.0
 10
843.0551755704862
 20
613.1406248467148
 30
0.0
 10
843.4868161953783
 20
613.0781248467305
 30
0.0
 10
843.8188474452953
 20
612.9531248467617
 30
0.0
 10
844.1508786952122
 20
612.828124846793
 30
0.0
 10
844.3950193201513
 20
612.6708982843322
 30
0.0
 10
844.5512693201122
 20
612.4814451593796
 30
0.0
 10
844.7075193200731
 20
612.291992034427
 30
0.0
 10
844.8168943200458
 20
612.0527342219868
 30
0.0
 10
844.8793943200301
 20
611.763671722059
 30
0.0
 10
844.9145505700213
 20
611.5839842221039
 30
0.0
 10
844.9321286950169
 20
611.259765472185
 30
0.0
 10
844.9321286950169
 20
610.7910154723022
 30
0.0
 10
844.9321286950169
 20
610.7910154723022
 30
0.0
 10
844.9321286950169
 20
609.3847654726538
 30
0.0
 10
844.9321286950169
 20
609.3847654726538
 30
0.0
 10
844.9321286950169
 20
608.404296722899
 30
0.0
 10
844.9545896325113
 20
607.7841795355539
 30
0.0
 10
844.9995115075001
 20
607.5244139106189
 30
0.0
 10
845.0444333824888
 20
607.2646482856838
 30
0.0
 10
845.1333005699667
 20
607.015624848246
 30
0.0
 10
845.2661130699335
 20
606.7773435983056
 30
0.0
 10
845.2661130699335
 20
606.7773435983056
 30
0.0
 10
844.1645505702088
 20
606.7773435983056
 30
0.0
 10
844.1645505702088
 20
606.7773435983056
 30
0.0
 10
844.0551755702362
 20
606.9960935982509
 30
0.0
 10
843.9848630702538
 20
607.251952973187
 30
0.0
 10
843.9536130702616
 20
607.5449217231137
 30
0.0
  0
SPLINE
  5
85
330
6D
100
AcDbEntity
  8
0
 62
   240
420
 15539236
370
    35
100
AcDbSpline
210
0.0
220
0.0
230
1.0
 70
    11
 71
     3
 72
    35
 73
    31
 74
     0
 42
0.0000000001
 43
0.0000000001
 12
1.0
 22
0.0
 32
0.0
 13
1.0
 23
0.0
 33
0.0
 40
0.0
 40
0.0
 40
0.0
 40
0.0
 40
1.0
 40
1.0
 40
1.0
 40
2.0
 40
2.0
 40
2.0
 40
3.0
 40
3.0
 40
3.0
 40
4.0
 40
4.0
 40
4.0
 40
5.0
 40
5.0
 40
5.0
 40
6.0
 40
6.0
 40
6.0
 40
7.0
 40
7.0
 40
7.0
 40
8.0
 40
8.0
 40
8.0
 40
9.0
 40
9.0
 40
9.0
 40
10.0
 40
10.0
 40
10.0
 40
10.0
 10
843.8657224452835
 20
609.9003904725249
 30
0.0
 10
843.4829099453792
 20
609.7441404725639
 30
0.0
 10
842.9086911955228
 20
609.6113279725971
 30
0.0
 10
842.1430661957143
 20
609.5019529726245
 30
0.0
 10
841.7094724458226
 20
609.4394529726401
 30
0.0
 10
841.4028318208992
 20
609.3691404726577
 30
0.0
 10
841.2231443209442
 20
609.2910154726773
 30
0.0
 10
841.0434568209891
 20
609.2128904726968
 30
0.0
 10
840.9047849460238
 20
609.0986326602253
 30
0.0
 10
840.8071286960482
 20
608.948242035263
 30
0.0
 10
840.7094724460726
 20
608.7978514103005
 30
0.0
 10
840.6606443210849
 20
608.6308592228422
 30
0.0
 10
840.6606443210849
 20
608.4472654728881
 30
0.0
 10
840.6606443210849
 20
608.1660154729585
 30
0.0
 10
840.7670896335582
 20
607.9316404730171
 30
0.0
 10
840.979980258505
 20
607.7441404730639
 30
0.0
 10
841.1928708834517
 20
607.5566404731109
 30
0.0
 10
841.5043943208739
 20
607.4628904731343
 30
0.0
 10
841.9145505707713
 20
607.4628904731343
 30
0.0
 10
842.3208005706698
 20
607.4628904731343
 30
0.0
 10
842.6821286955794
 20
607.551757660612
 30
0.0
 10
842.9985349455003
 20
607.7294920355677
 30
0.0
 10
843.3149411954213
 20
607.9072264105232
 30
0.0
 10
843.5473630703632
 20
608.1503904729624
 30
0.0
 10
843.695800570326
 20
608.4589842228852
 30
0.0
 10
843.8090818202977
 20
608.6972654728256
 30
0.0
 10
843.8657224452835
 20
609.0488279727377
 30
0.0
 10
843.8657224452835
 20
609.5136717226216
 30
0.0
 10
843.8657224452835
 20
609.5136717226216
 30
0.0
 10
843.8657224452835
 20
609.9003904725249
 30
0.0
 10
843.8657224452835
 20
609.9003904725249
 30
0.0
  0
HATCH
  5
86
330
6D
100
AcDbEntity
  8
0
 62
   240
420
 15539236
100
AcDbHatch
 10
0.0
 20
0.0
 30
0.0
210
0.0
220
0.0
230
1.0
  2
SOLID
 70
     1
 71
     0
 91
        2
 92
        1
 93
        1
 72
     4
 94
        3
 73
     0
 74
     1
 95
       86
 96
       82
 40
0.0
 40
0.0
 40
0.0
 40
0.0
 40
1.0
 40
1.0
 40
1.0
 40
2.0
 40
2.0
 40
2.0
 40
3.0
 40
3.0
 40
3.0
 40
4.0
 40
4.0
 40
4.0
 40
5.0
 40
5.0
 40
5.0
 40
6.0
 40
6.0
 40
6.0
 40
7.0
 40
7.0
 40
7.0
 40
8.0
 40
8.0
 40
8.0
 40
9.0
 40
9.0
 40
9.0
 40
10.0
 40
10.0
 40
10.0
 40
11.0
 40
11.0
 40
11.0
 40
12.0
 40
12.0
 40
12.0
 40
13.0
 40
13.0
 40
13.0
 40
14.0
 40
14.0
 40
14.0
 40
15.0
 40
15.0
 40
15.0
 40
16.0
 40
16.0
 40
16.0
 40
17.0
 40
17.0
 40
17.0
 40
18.0
 40
18.0
 40
18.0
 40
19.0
 40
19.0
 40
19.0
 40
20.0
 40
20.0
 40
20.0
 40
21.0
 40
21.0
 40
21.0
 40
22.0
 40
22.0
 40
22.0
 40
23.0
 40
23.0
 40
23.0
 40
24.0
 40
24.0
 40
24.0
 40
25.0
 40
25.0
 40
25.0
 40
26.0
 40
26.0
 40
26.0
 40
27.0
 40
27.0
 40
27.0
 40
27.0
 10
843.9536130702616
 20
607.5449217231137
 10
843.5629880703592
 20
607.2128904731968
 10
843.1870115079532
 20
606.9785154732554
 10
842.8256833830436
 20
606.8417967232896
 10
842.4643552581339
 20
606.7050779733237
 10
842.0766599457309
 20
606.6367185983408
 10
841.6625974458343
 20
606.6367185983408
 10
840.9790036960052
 20
606.6367185983408
 10
840.4536130711366
 20
606.803710785799
 10
840.0864255712283
 20
607.1376951607156
 10
839.7192380713202
 20
607.4716795356321
 10
839.535644321366
 20
607.8984373480254
 10
839.535644321366
 20
608.4179685978955
 10
839.535644321366
 20
608.7226560978194
 10
839.6049802588487
 20
609.0009764102498
 10
839.7436521338141
 20
609.2529295351868
 10
839.8823240087794
 20
609.5048826601237
 10
840.063964633734
 20
609.7070310975732
 10
840.2885740086779
 20
609.8593748475352
 10
840.5131833836217
 20
610.0117185974971
 10
840.7661130710585
 20
610.1269529724683
 10
841.0473630709881
 20
610.2050779724487
 10
841.2543943209364
 20
610.259765472435
 10
841.5668943208583
 20
610.3124998474219
 10
841.9848630707538
 20
610.3632810974092
 10
842.8364255705409
 20
610.4648435973838
 10
843.4633786953841
 20
610.5859373473535
 10
843.8657224452835
 20
610.7265623473183
 10
843.8696286952826
 20
610.8710935972822
 10
843.8715818202821
 20
610.9628904722592
 10
843.8715818202821
 20
611.0019529722495
 10
843.8715818202821
 20
611.431640472142
 10
843.771972445307
 20
611.7343748470664
 10
843.5727536953568
 20
611.9101560970224
 10
843.3032224454241
 20
612.1484373469629
 10
842.9028318205243
 20
612.2675779719331
 10
842.3715818206571
 20
612.2675779719331
 10
841.8754880707811
 20
612.2675779719331
 10
841.5092771333726
 20
612.1806639094548
 10
841.2729490084317
 20
612.0068357844983
 10
841.0366208834909
 20
611.8330076595417
 10
840.8618161960345
 20
611.5253904721186
 10
840.7485349460628
 20
611.083984222229
 10
840.7485349460628
 20
611.083984222229
 10
839.7172849463207
 20
611.2246092221939
 10
839.7172849463207
 20
611.2246092221939
 10
839.8110349462972
 20
611.6660154720835
 10
839.9653318212587
 20
612.0224607844943
 10
840.1801755712049
 20
612.2939451594265
 10
840.3950193211513
 20
612.5654295343586
 10
840.7055661960736
 20
612.7744139093064
 10
841.111816195972
 20
612.9208982842698
 10
841.5180661958705
 20
613.0673826592331
 10
841.9887693207528
 20
613.1406248467148
 10
842.523925570619
 20
613.1406248467148
 10
843.0551755704862
 20
613.1406248467148
 10
843.4868161953783
 20
613.0781248467305
 10
843.8188474452953
 20
612.9531248467617
 10
844.1508786952122
 20
612.828124846793
 10
844.3950193201513
 20
612.6708982843322
 10
844.5512693201122
 20
612.4814451593796
 10
844.7075193200731
 20
612.291992034427
 10
844.8168943200458
 20
612.0527342219868
 10
844.8793943200301
 20
611.763671722059
 10
844.9145505700213
 20
611.5839842221039
 10
844.9321286950169
 20
611.259765472185
 10
844.9321286950169
 20
610.7910154723022
 10
844.9321286950169
 20
610.7910154723022
 10
844.9321286950169
 20
609.3847654726538
 10
844.9321286950169
 20
609.3847654726538
 10
844.9321286950169
 20
608.404296722899
 10
844.9545896325113
 20
607.7841795355539
 10
844.9995115075001
 20
607.5244139106189
 10
845.0444333824888
 20
607.2646482856838
 10
845.1333005699667
 20
607.015624848246
 10
845.2661130699335
 20
606.7773435983056
 10
845.2661130699335
 20
606.7773435983056
 10
844.1645505702088
 20
606.7773435983056
 10
844.1645505702088
 20
606.7773435983056
 10
844.0551755702362
 20
606.9960935982509
 10
843.9848630702538
 20
607.251952973187
 10
843.9536130702616
 20
607.5449217231137
 97
        0
 97
        0
 92
        1
 93
        1
 72
     4
 94
        3
 73
     0
 74
     1
 95
       35
 96
       31
 40
0.0
 40
0.0
 40
0.0
 40
0.0
 40
1.0
 40
1.0
 40
1.0
 40
2.0
 40
2.0
 40
2.0
 40
3.0
 40
3.0
 40
3.0
 40
4.0
 40
4.0
 40
4.0
 40
5.0
 40
5.0
 40
5.0
 40
6.0
 40
6.0
 40
6.0
 40
7.0
 40
7.0
 40
7.0
 40
8.0
 40
8.0
 40
8.0
 40
9.0
 40
9.0
 40
9.0
 40
10.0
 40
10.0
 40
10.0
 40
10.0
 10
843.8657224452835
 20
609.9003904725249
 10
843.4829099453792
 20
609.7441404725639
 10
842.9086911955228
 20
609.6113279725971
 10
842.1430661957143
 20
609.5019529726245
 10
841.7094724458226
 20
609.4394529726401
 10
841.4028318208992
 20
609.3691404726577
 10
841.2231443209442
 20
609.2910154726773
 10
841.0434568209891
 20
609.2128904726968
 10
840.9047849460238
 20
609.0986326602253
 10
840.8071286960482
 20
608.948242035263
 10
840.7094724460726
 20
608.7978514103005
 10
840.6606443210849
 20
608.6308592228422
 10
840.6606443210849
 20
608.4472654728881
 10
840.6606443210849
 20
608.1660154729585
 10
840.7670896335582
 20
607.9316404730171
 10
840.979980258505
 20
607.7441404730639
 10
841.1928708834517
 20
607.5566404731109
 10
841.5043943208739
 20
607.4628904731343
 10
841.9145505707713
 20
607.4628904731343
 10
842.3208005706698
 20
607.4628904731343
 10
842.6821286955794
 20
607.551757660612
 10
842.9985349455003
 20
607.7294920355677
 10
843.3149411954213
 20
607.9072264105232
 10
843.5473630703632
 20
608.1503904729624
 10
843.695800570326
 20
608.4589842228852
 10
843.8090818202977
 20
608.6972654728256
 10
843.8657224452835
 20
609.0488279727377
 10
843.8657224452835
 20
609.5136717226216
 10
843.8657224452835
 20
609.5136717226216
 10
843.8657224452835
 20
609.9003904725249
 10
843.8657224452835
 20
609.9003904725249
 97
        0
 97
        0
 75
     2
 76
     1
 98
        0
  0
POLYLINE
  5
87
330
6D
100
AcDbEntity
  8
0
 62
   240
420
 15539236
370
    35
100
AcDb2dPolyline
 66
     1
 10
0.0
 20
0.0
 30
0.0
  0
VERTEX
  5
88
330
87
100
AcDbEntity
  8
0
 62
   240
420
 15539236
370
    35
100
AcDbVertex
100
AcDb2dVertex
 10
846.5727536946068
 20
614.1542967214614
 30
0.0
  0
VERTEX
  5
89
330
87
100
AcDbEntity
  8
0
 62
   240
420
 15539236
370
    35
100
AcDbVertex
100
AcDb2dVertex
 10
846.5727536946068
 20
615.3671873461582
 30
0.0
  0
VERTEX
  5
8A
330
87
100
AcDbEntity
  8
0
 62
   240
420
 15539236
370
    35
100
AcDbVertex
100
AcDb2dVertex
 10
847.6274411943431
 20
615.3671873461582
 30
0.0
  0
VERTEX
  5
8B
330
87
100
AcDbEntity
  8
0
 62
   240
420
 15539236
370
    35
100
AcDbVertex
100
AcDb2dVertex
 10
847.6274411943431
 20
614.1542967214614
 30
0.0
  0
VERTEX
  5
8C
330
87
100
AcDbEntity
  8
0
 62
   240
420
 15539236
370
    35
100
AcDbVertex
100
AcDb2dVertex
 10
846.5727536946068
 20
614.1542967214614
 30
0.0
  0
SEQEND
  5
8D
330
87
100
AcDbEntity
  8
0
 62
   240
420
 15539236
370
    35
  0
POLYLINE
  5
8E
330
6D
100
AcDbEntity
  8
0
 62
   240
420
 15539236
370
    35
100
AcDb2dPolyline
 66
     1
 10
0.0
 20
0.0
 30
0.0
  0
VERTEX
  5
8F
330
8E
100
AcDbEntity
  8
0
 62
   240
420
 15539236
370
    35
100
AcDbVertex
100
AcDb2dVertex
 10
846.5727536946068
 20
606.7773435983056
 30
0.0
  0
VERTEX
  5
90
330
8E
100
AcDbEntity
  8
0
 62
   240
420
 15539236
370
    35
100
AcDbVertex
100
AcDb2dVertex
 10
846.5727536946068
 20
612.99999984675
 30
0.0
  0
VERTEX
  5
91
330
8E
100
AcDbEntity
  8
0
 62
   240
420
 15539236
370
    35
100
AcDbVertex
100
AcDb2dVertex
 10
847.6274411943431
 20
612.99999984675
 30
0.0
  0
VERTEX
  5
92
330
8E
100
AcDbEntity
  8
0
 62
   240
420
 15539236
370
    35
100
AcDbVertex
100
AcDb2dVertex
 10
847.6274411943431
 20
606.7773435983056
 30
0.0
  0
VERTEX
  5
93
330
8E
100
AcDbEntity
  8
0
 62
   240
420
 15539236
370
    35
100
AcDbVertex
100
AcDb2dVertex
 10
846.5727536946068
 20
606.7773435983056
 30
0.0
  0
SEQEND
  5
94
330
8E
100
AcDbEntity
  8
0
 62
   240
420
 15539236
370
    35
  0
HATCH
  5
95
330
6D
100
AcDbEntity
  8
0
 62
   240
420
 15539236
100
AcDbHatch
 10
0.0
 20
0.0
 30
0.0
210
0.0
220
0.0
230
1.0
  2
SOLID
 70
     1
 71
     0
 91
        2
 92
        1
 93
        4
 72
     1
 10
846.5727536946068
 20
614.1542967214614
 11
846.5727536946068
 21
615.3671873461582
 72
     1
 10
846.5727536946068
 20
615.3671873461582
 11
847.6274411943431
 21
615.3671873461582
 72
     1
 10
847.6274411943431
 20
615.3671873461582
 11
847.6274411943431
 21
614.1542967214614
 72
     1
 10
847.6274411943431
 20
614.1542967214614
 11
846.5727536946068
 21
614.1542967214614
 97
        0
 92
        1
 93
        4
 72
     1
 10
846.5727536946068
 20
606.7773435983056
 11
846.5727536946068
 21
612.99999984675
 72
     1
 10
846.5727536946068
 20
612.99999984675
 11
847.6274411943431
 21
612.99999984675
 72
     1
 10
847.6274411943431
 20
612.99999984675
 11
847.6274411943431
 21
606.7773435983056
 72
     1
 10
847.6274411943431
 20
606.7773435983056
 11
846.5727536946068
 21
606.7773435983056
 97
        0
 75
     2
 76
     1
 98
        0
  0
SPLINE
  5
96
330
6D
100
AcDbEntity
  8
0
 62
   240
420
 15539236
370
    35
100
AcDbSpline
210
0.0
220
0.0
230
1.0
 70
    11
 71
     3
 72
    68
 73
    64
 74
     0
 42
0.0000000001
 43
0.0000000001
 12
1.0
 22
0.0
 32
0.0
 13
1.0
 23
0.0
 33
0.0
 40
0.0
 40
0.0
 40
0.0
 40
0.0
 40
1.0
 40
1.0
 40
1.0
 40
2.0
 40
2.0
 40
2.0
 40
3.0
 40
3.0
 40
3.0
 40
4.0
 40
4.0
 40
4.0
 40
5.0
 40
5.0
 40
5.0
 40
6.0
 40
6.0
 40
6.0
 40
7.0
 40
7.0
 40
7.0
 40
8.0
 40
8.0
 40
8.0
 40
9.0
 40
9.0
 40
9.0
 40
10.0
 40
10.0
 40
10.0
 40
11.0
 40
11.0
 40
11.0
 40
12.0
 40
12.0
 40
12.0
 40
13.0
 40
13.0
 40
13.0
 40
14.0
 40
14.0
 40
14.0
 40
15.0
 40
15.0
 40
15.0
 40
16.0
 40
16.0
 40
16.0
 40
17.0
 40
17.0
 40
17.0
 40
18.0
 40
18.0
 40
18.0
 40
19.0
 40
19.0
 40
19.0
 40
20.0
 40
20.0
 40
20.0
 40
21.0
 40
21.0
 40
21.0
 40
21.0
 10
849.0395505689901
 20
606.2617185984345
 30
0.0
 10
849.0395505689901
 20
606.2617185984345
 30
0.0
 10
850.0649411937337
 20
606.1093748484726
 30
0.0
 10
850.0649411937337
 20
606.1093748484726
 30
0.0
 10
850.107909943723
 20
605.7929685985517
 30
0.0
 10
850.2270505686932
 20
605.5624998486094
 30
0.0
 10
850.4223630686444
 20
605.4179685986455
 30
0.0
 10
850.684081818579
 20
605.2226560986943
 30
0.0
 10
851.0415036934896
 20
605.1249998487187
 30
0.0
 10
851.4946286933763
 20
605.1249998487187
 30
0.0
 10
851.9829099432543
 20
605.1249998487187
 30
0.0
 10
852.35986306816
 20
605.2226560986943
 30
0.0
 10
852.6254880680937
 20
605.4179685986455
 30
0.0
 10
852.8911130680272
 20
605.6132810985966
 30
0.0
 10
853.0708005679822
 20
605.8867185985283
 30
0.0
 10
853.1645505679588
 20
606.2382810984404
 30
0.0
 10
853.2192380679452
 20
606.4531248483867
 30
0.0
 10
853.2446286929388
 20
606.9042967232739
 30
0.0
 10
853.2407224429398
 20
607.591796723102
 30
0.0
 10
852.779784943055
 20
607.0488279732377
 30
0.0
 10
852.2055661931986
 20
606.7773435983056
 30
0.0
 10
851.5180661933705
 20
606.7773435983056
 30
0.0
 10
850.6625974435843
 20
606.7773435983056
 30
0.0
 10
850.0004880687499
 20
607.0859373482285
 30
0.0
 10
849.5317380688671
 20
607.7031248480743
 30
0.0
 10
849.0629880689843
 20
608.3203123479199
 30
0.0
 10
848.8286130690428
 20
609.0605467227349
 30
0.0
 10
848.8286130690428
 20
609.923827972519
 30
0.0
 10
848.8286130690428
 20
610.5175779723706
 30
0.0
 10
848.936034944016
 20
611.0654295347337
 30
0.0
 10
849.1508786939622
 20
611.5673826596081
 30
0.0
 10
849.3657224439086
 20
612.0693357844826
 30
0.0
 10
849.6772458813307
 20
612.4570310968858
 30
0.0
 10
850.0854490062286
 20
612.7304685968173
 30
0.0
 10
850.4936521311266
 20
613.003906096749
 30
0.0
 10
850.9731443185067
 20
613.1406248467148
 30
0.0
 10
851.523925568369
 20
613.1406248467148
 30
0.0
 10
852.2583005681854
 20
613.1406248467148
 30
0.0
 10
852.8637693180341
 20
612.843749846789
 30
0.0
 10
853.340331817915
 20
612.2499998469375
 30
0.0
 10
853.340331817915
 20
612.2499998469375
 30
0.0
 10
853.340331817915
 20
612.99999984675
 30
0.0
 10
853.340331817915
 20
612.99999984675
 30
0.0
 10
853.340331817915
 20
612.99999984675
 30
0.0
 10
854.3129880676718
 20
612.99999984675
 30
0.0
 10
854.3129880676718
 20
612.99999984675
 30
0.0
 10
854.3129880676718
 20
612.99999984675
 30
0.0
 10
854.3129880676718
 20
607.6210935980947
 30
0.0
 10
854.3129880676718
 20
607.6210935980947
 30
0.0
 10
854.3129880676718
 20
606.6523435983369
 30
0.0
 10
854.2143552551964
 20
605.9658201610085
 30
0.0
 10
854.0170896302457
 20
605.5615232861096
 30
0.0
 10
853.819824005295
 20
605.1572264112107
 30
0.0
 10
853.5073240053731
 20
604.8378904737905
 30
0.0
 10
853.0795896304801
 20
604.6035154738491
 30
0.0
 10
852.6518552555871
 20
604.3691404739077
 30
0.0
 10
852.1254880682186
 20
604.251952973937
 30
0.0
 10
851.5004880683748
 20
604.251952973937
 30
0.0
 10
850.7583005685605
 20
604.251952973937
 30
0.0
 10
850.1586911937103
 20
604.4189451613953
 30
0.0
 10
849.7016599438246
 20
604.7529295363117
 30
0.0
 10
849.2446286939388
 20
605.0869139112283
 30
0.0
 10
849.023925568994
 20
605.5898435986026
 30
0.0
 10
849.0395505689901
 20
606.2617185984345
 30
0.0
  0
SPLINE
  5
97
330
6D
100
AcDbEntity
  8
0
 62
   240
420
 15539236
370
    35
100
AcDbSpline
210
0.0
220
0.0
230
1.0
 70
    11
 71
     3
 72
    29
 73
    25
 74
     0
 42
0.0000000001
 43
0.0000000001
 12
1.0
 22
0.0
 32
0.0
 13
1.0
 23
0.0
 33
0.0
 40
0.0
 40
0.0
 40
0.0
 40
0.0
 40
1.0
 40
1.0
 40
1.0
 40
2.0
 40
2.0
 40
2.0
 40
3.0
 40
3.0
 40
3.0
 40
4.0
 40
4.0
 40
4.0
 40
5.0
 40
5.0
 40
5.0
 40
6.0
 40
6.0
 40
6.0
 40
7.0
 40
7.0
 40
7.0
 40
8.0
 40
8.0
 40
8.0
 40
8.0
 10
849.9125974437718
 20
609.9999998475
 30
0.0
 10
849.9125974437718
 20
609.1835935977041
 30
0.0
 10
850.0747068187313
 20
608.587890472853
 30
0.0
 10
850.3989255686503
 20
608.2128904729468
 30
0.0
 10
850.7231443185692
 20
607.8378904730405
 30
0.0
 10
851.1293943184677
 20
607.6503904730874
 30
0.0
 10
851.6176755683456
 20
607.6503904730874
 30
0.0
 10
852.1020505682245
 20
607.6503904730874
 30
0.0
 10
852.5083005681229
 20
607.8369139105407
 30
0.0
 10
852.8364255680409
 20
608.2099607854475
 30
0.0
 10
853.1645505679588
 20
608.5830076603543
 30
0.0
 10
853.3286130679178
 20
609.167968597708
 30
0.0
 10
853.3286130679178
 20
609.9648435975088
 30
0.0
 10
853.3286130679178
 20
610.7265623473183
 30
0.0
 10
853.1596677554601
 20
611.3007810971748
 30
0.0
 10
852.8217771305445
 20
611.6874998470781
 30
0.0
 10
852.483886505629
 20
612.0742185969814
 30
0.0
 10
852.0766599432308
 20
612.2675779719331
 30
0.0
 10
851.6000974433499
 20
612.2675779719331
 30
0.0
 10
851.1313474434671
 20
612.2675779719331
 30
0.0
 10
850.7329099435667
 20
612.0771482844807
 30
0.0
 10
850.4047849436488
 20
611.696288909576
 30
0.0
 10
850.0766599437309
 20
611.3154295346711
 30
0.0
 10
849.9125974437718
 20
610.7499998473124
 30
0.0
 10
849.9125974437718
 20
609.9999998475
 30
0.0
  0
HATCH
  5
98
330
6D
100
AcDbEntity
  8
0
 62
   240
420
 15539236
100
AcDbHatch
 10
0.0
 20
0.0
 30
0.0
210
0.0
220
0.0
230
1.0
  2
SOLID
 70
     1
 71
     0
 91
        2
 92
        1
 93
        1
 72
     4
 94
        3
 73
     0
 74
     1
 95
       68
 96
       64
 40
0.0
 40
0.0
 40
0.0
 40
0.0
 40
1.0
 40
1.0
 40
1.0
 40
2.0
 40
2.0
 40
2.0
 40
3.0
 40
3.0
 40
3.0
 40
4.0
 40
4.0
 40
4.0
 40
5.0
 40
5.0
 40
5.0
 40
6.0
 40
6.0
 40
6.0
 40
7.0
 40
7.0
 40
7.0
 40
8.0
 40
8.0
 40
8.0
 40
9.0
 40
9.0
 40
9.0
 40
10.0
 40
10.0
 40
10.0
 40
11.0
 40
11.0
 40
11.0
 40
12.0
 40
12.0
 40
12.0
 40
13.0
 40
13.0
 40
13.0
 40
14.0
 40
14.0
 40
14.0
 40
15.0
 40
15.0
 40
15.0
 40
16.0
 40
16.0
 40
16.0
 40
17.0
 40
17.0
 40
17.0
 40
18.0
 40
18.0
 40
18.0
 40
19.0
 40
19.0
 40
19.0
 40
20.0
 40
20.0
 40
20.0
 40
21.0
 40
21.0
 40
21.0
 40
21.0
 10
849.0395505689901
 20
606.2617185984345
 10
849.0395505689901
 20
606.2617185984345
 10
850.0649411937337
 20
606.1093748484726
 10
850.0649411937337
 20
606.1093748484726
 10
850.107909943723
 20
605.7929685985517
 10
850.2270505686932
 20
605.5624998486094
 10
850.4223630686444
 20
605.4179685986455
 10
850.684081818579
 20
605.2226560986943
 10
851.0415036934896
 20
605.1249998487187
 10
851.4946286933763
 20
605.1249998487187
 10
851.9829099432543
 20
605.1249998487187
 10
852.35986306816
 20
605.2226560986943
 10
852.6254880680937
 20
605.4179685986455
 10
852.8911130680272
 20
605.6132810985966
 10
853.0708005679822
 20
605.8867185985283
 10
853.1645505679588
 20
606.2382810984404
 10
853.2192380679452
 20
606.4531248483867
 10
853.2446286929388
 20
606.9042967232739
 10
853.2407224429398
 20
607.591796723102
 10
852.779784943055
 20
607.0488279732377
 10
852.2055661931986
 20
606.7773435983056
 10
851.5180661933705
 20
606.7773435983056
 10
850.6625974435843
 20
606.7773435983056
 10
850.0004880687499
 20
607.0859373482285
 10
849.5317380688671
 20
607.7031248480743
 10
849.0629880689843
 20
608.3203123479199
 10
848.8286130690428
 20
609.0605467227349
 10
848.8286130690428
 20
609.923827972519
 10
848.8286130690428
 20
610.5175779723706
 10
848.936034944016
 20
611.0654295347337
 10
849.1508786939622
 20
611.5673826596081
 10
849.3657224439086
 20
612.0693357844826
 10
849.6772458813307
 20
612.4570310968858
 10
850.0854490062286
 20
612.7304685968173
 10
850.4936521311266
 20
613.003906096749
 10
850.9731443185067
 20
613.1406248467148
 10
851.523925568369
 20
613.1406248467148
 10
852.2583005681854
 20
613.1406248467148
 10
852.8637693180341
 20
612.843749846789
 10
853.340331817915
 20
612.2499998469375
 10
853.340331817915
 20
612.2499998469375
 10
853.340331817915
 20
612.99999984675
 10
853.340331817915
 20
612.99999984675
 10
853.340331817915
 20
612.99999984675
 10
854.3129880676718
 20
612.99999984675
 10
854.3129880676718
 20
612.99999984675
 10
854.3129880676718
 20
612.99999984675
 10
854.3129880676718
 20
607.6210935980947
 10
854.3129880676718
 20
607.6210935980947
 10
854.3129880676718
 20
606.6523435983369
 10
854.2143552551964
 20
605.9658201610085
 10
854.0170896302457
 20
605.5615232861096
 10
853.819824005295
 20
605.1572264112107
 10
853.5073240053731
 20
604.8378904737905
 10
853.0795896304801
 20
604.6035154738491
 10
852.6518552555871
 20
604.3691404739077
 10
852.1254880682186
 20
604.251952973937
 10
851.5004880683748
 20
604.251952973937
 10
850.7583005685605
 20
604.251952973937
 10
850.1586911937103
 20
604.4189451613953
 10
849.7016599438246
 20
604.7529295363117
 10
849.2446286939388
 20
605.0869139112283
 10
849.023925568994
 20
605.5898435986026
 10
849.0395505689901
 20
606.2617185984345
 97
        0
 97
        0
 92
        1
 93
        1
 72
     4
 94
        3
 73
     0
 74
     1
 95
       29
 96
       25
 40
0.0
 40
0.0
 40
0.0
 40
0.0
 40
1.0
 40
1.0
 40
1.0
 40
2.0
 40
2.0
 40
2.0
 40
3.0
 40
3.0
 40
3.0
 40
4.0
 40
4.0
 40
4.0
 40
5.0
 40
5.0
 40
5.0
 40
6.0
 40
6.0
 40
6.0
 40
7.0
 40
7.0
 40
7.0
 40
8.0
 40
8.0
 40
8.0
 40
8.0
 10
849.9125974437718
 20
609.9999998475
 10
849.9125974437718
 20
609.1835935977041
 10
850.0747068187313
 20
608.587890472853
 10
850.3989255686503
 20
608.2128904729468
 10
850.7231443185692
 20
607.8378904730405
 10
851.1293943184677
 20
607.6503904730874
 10
851.6176755683456
 20
607.6503904730874
 10
852.1020505682245
 20
607.6503904730874
 10
852.5083005681229
 20
607.8369139105407
 10
852.8364255680409
 20
608.2099607854475
 10
853.1645505679588
 20
608.5830076603543
 10
853.3286130679178
 20
609.167968597708
 10
853.3286130679178
 20
609.9648435975088
 10
853.3286130679178
 20
610.7265623473183
 10
853.1596677554601
 20
611.3007810971748
 10
852.8217771305445
 20
611.6874998470781
 10
852.483886505629
 20
612.0742185969814
 10
852.0766599432308
 20
612.2675779719331
 10
851.6000974433499
 20
612.2675779719331
 10
851.1313474434671
 20
612.2675779719331
 10
850.7329099435667
 20
612.0771482844807
 10
850.4047849436488
 20
611.696288909576
 10
850.0766599437309
 20
611.3154295346711
 10
849.9125974437718
 20
610.7499998473124
 10
849.9125974437718
 20
609.9999998475
 97
        0
 97
        0
 75
     2
 76
     1
 98
        0
  0
SPLINE
  5
99
330
6D
100
AcDbEntity
  8
0
 62
   240
420
 15539236
370
    35
100
AcDbSpline
210
0.0
220
0.0
230
1.0
 70
    11
 71
     3
 72
    56
 73
    52
 74
     0
 42
0.0000000001
 43
0.0000000001
 12
1.0
 22
0.0
 32
0.0
 13
1.0
 23
0.0
 33
0.0
 40
0.0
 40
0.0
 40
0.0
 40
0.0
 40
1.0
 40
1.0
 40
1.0
 40
2.0
 40
2.0
 40
2.0
 40
3.0
 40
3.0
 40
3.0
 40
4.0
 40
4.0
 40
4.0
 40
5.0
 40
5.0
 40
5.0
 40
6.0
 40
6.0
 40
6.0
 40
7.0
 40
7.0
 40
7.0
 40
8.0
 40
8.0
 40
8.0
 40
9.0
 40
9.0
 40
9.0
 40
10.0
 40
10.0
 40
10.0
 40
11.0
 40
11.0
 40
11.0
 40
12.0
 40
12.0
 40
12.0
 40
13.0
 40
13.0
 40
13.0
 40
14.0
 40
14.0
 40
14.0
 40
15.0
 40
15.0
 40
15.0
 40
16.0
 40
16.0
 40
16.0
 40
17.0
 40
17.0
 40
17.0
 40
17.0
 10
855.9067380672733
 20
606.7773435983056
 30
0.0
 10
855.9067380672733
 20
606.7773435983056
 30
0.0
 10
855.9067380672733
 20
615.3671873461582
 30
0.0
 10
855.9067380672733
 20
615.3671873461582
 30
0.0
 10
855.9067380672733
 20
615.3671873461582
 30
0.0
 10
856.9614255670097
 20
615.3671873461582
 30
0.0
 10
856.9614255670097
 20
615.3671873461582
 30
0.0
 10
856.9614255670097
 20
615.3671873461582
 30
0.0
 10
856.9614255670097
 20
612.2851560969287
 30
0.0
 10
856.9614255670097
 20
612.2851560969287
 30
0.0
 10
857.4536130668865
 20
612.8554685967861
 30
0.0
 10
858.0747068167314
 20
613.1406248467148
 30
0.0
 10
858.8247068165438
 20
613.1406248467148
 30
0.0
 10
859.2856443164286
 20
613.1406248467148
 30
0.0
 10
859.6860349413284
 20
613.0498045342375
 30
0.0
 10
860.0258786912435
 20
612.868163909283
 30
0.0
 10
860.3657224411586
 20
612.6865232843284
 30
0.0
 10
860.6088865035978
 20
612.4355467218911
 30
0.0
 10
860.7553708785612
 20
612.1152342219711
 30
0.0
 10
860.9018552535246
 20
611.7949217220513
 30
0.0
 10
860.9750974410063
 20
611.3300779721675
 30
0.0
 10
860.9750974410063
 20
610.7207029723198
 30
0.0
 10
860.9750974410063
 20
610.7207029723198
 30
0.0
 10
860.9750974410063
 20
606.7773435983056
 30
0.0
 10
860.9750974410063
 20
606.7773435983056
 30
0.0
 10
860.9750974410063
 20
606.7773435983056
 30
0.0
 10
859.9204099412699
 20
606.7773435983056
 30
0.0
 10
859.9204099412699
 20
606.7773435983056
 30
0.0
 10
859.9204099412699
 20
606.7773435983056
 30
0.0
 10
859.9204099412699
 20
610.7207029723198
 30
0.0
 10
859.9204099412699
 20
610.7207029723198
 30
0.0
 10
859.9204099412699
 20
611.248046722188
 30
0.0
 10
859.8061521287984
 20
611.631835784592
 30
0.0
 10
859.5776365038556
 20
611.872070159532
 30
0.0
 10
859.3491208789127
 20
612.112304534472
 30
0.0
 10
859.0258786914935
 20
612.2324217219419
 30
0.0
 10
858.607909941598
 20
612.2324217219419
 30
0.0
 10
858.2954099416761
 20
612.2324217219419
 30
0.0
 10
858.0014646292497
 20
612.1513670344622
 30
0.0
 10
857.7260740043184
 20
611.9892576595026
 30
0.0
 10
857.4506833793873
 20
611.8271482845432
 30
0.0
 10
857.2543943169363
 20
611.6074217220981
 30
0.0
 10
857.1372068169657
 20
611.3300779721675
 30
0.0
 10
857.020019316995
 20
611.0527342222368
 30
0.0
 10
856.9614255670097
 20
610.6699217223326
 30
0.0
 10
856.9614255670097
 20
610.1816404724545
 30
0.0
 10
856.9614255670097
 20
610.1816404724545
 30
0.0
 10
856.9614255670097
 20
606.7773435983056
 30
0.0
 10
856.9614255670097
 20
606.7773435983056
 30
0.0
 10
856.9614255670097
 20
606.7773435983056
 30
0.0
 10
855.9067380672733
 20
606.7773435983056
 30
0.0
 10
855.9067380672733
 20
606.7773435983056
 30
0.0
  0
HATCH
  5
9A
330
6D
100
AcDbEntity
  8
0
 62
   240
420
 15539236
100
AcDbHatch
 10
0.0
 20
0.0
 30
0.0
210
0.0
220
0.0
230
1.0
  2
SOLID
 70
     1
 71
     0
 91
        1
 92
        1
 93
        1
 72
     4
 94
        3
 73
     0
 74
     1
 95
       56
 96
       52
 40
0.0
 40
0.0
 40
0.0
 40
0.0
 40
1.0
 40
1.0
 40
1.0
 40
2.0
 40
2.0
 40
2.0
 40
3.0
 40
3.0
 40
3.0
 40
4.0
 40
4.0
 40
4.0
 40
5.0
 40
5.0
 40
5.0
 40
6.0
 40
6.0
 40
6.0
 40
7.0
 40
7.0
 40
7.0
 40
8.0
 40
8.0
 40
8.0
 40
9.0
 40
9.0
 40
9.0
 40
10.0
 40
10.0
 40
10.0
 40
11.0
 40
11.0
 40
11.0
 40
12.0
 40
12.0
 40
12.0
 40
13.0
 40
13.0
 40
13.0
 40
14.0
 40
14.0
 40
14.0
 40
15.0
 40
15.0
 40
15.0
 40
16.0
 40
16.0
 40
16.0
 40
17.0
 40
17.0
 40
17.0
 40
17.0
 10
855.9067380672733
 20
606.7773435983056
 10
855.9067380672733
 20
606.7773435983056
 10
855.9067380672733
 20
615.3671873461582
 10
855.9067380672733
 20
615.3671873461582
 10
855.9067380672733
 20
615.3671873461582
 10
856.9614255670097
 20
615.3671873461582
 10
856.9614255670097
 20
615.3671873461582
 10
856.9614255670097
 20
615.3671873461582
 10
856.9614255670097
 20
612.2851560969287
 10
856.9614255670097
 20
612.2851560969287
 10
857.4536130668865
 20
612.8554685967861
 10
858.0747068167314
 20
613.1406248467148
 10
858.8247068165438
 20
613.1406248467148
 10
859.2856443164286
 20
613.1406248467148
 10
859.6860349413284
 20
613.0498045342375
 10
860.0258786912435
 20
612.868163909283
 10
860.3657224411586
 20
612.6865232843284
 10
860.6088865035978
 20
612.4355467218911
 10
860.7553708785612
 20
612.1152342219711
 10
860.9018552535246
 20
611.7949217220513
 10
860.9750974410063
 20
611.3300779721675
 10
860.9750974410063
 20
610.7207029723198
 10
860.9750974410063
 20
610.7207029723198
 10
860.9750974410063
 20
606.7773435983056
 10
860.9750974410063
 20
606.7773435983056
 10
860.9750974410063
 20
606.7773435983056
 10
859.9204099412699
 20
606.7773435983056
 10
859.9204099412699
 20
606.7773435983056
 10
859.9204099412699
 20
606.7773435983056
 10
859.9204099412699
 20
610.7207029723198
 10
859.9204099412699
 20
610.7207029723198
 10
859.9204099412699
 20
611.248046722188
 10
859.8061521287984
 20
611.631835784592
 10
859.5776365038556
 20
611.872070159532
 10
859.3491208789127
 20
612.112304534472
 10
859.0258786914935
 20
612.2324217219419
 10
858.607909941598
 20
612.2324217219419
 10
858.2954099416761
 20
612.2324217219419
 10
858.0014646292497
 20
612.1513670344622
 10
857.7260740043184
 20
611.9892576595026
 10
857.4506833793873
 20
611.8271482845432
 10
857.2543943169363
 20
611.6074217220981
 10
857.1372068169657
 20
611.3300779721675
 10
857.020019316995
 20
611.0527342222368
 10
856.9614255670097
 20
610.6699217223326
 10
856.9614255670097
 20
610.1816404724545
 10
856.9614255670097
 20
610.1816404724545
 10
856.9614255670097
 20
606.7773435983056
 10
856.9614255670097
 20
606.7773435983056
 10
856.9614255670097
 20
606.7773435983056
 10
855.9067380672733
 20
606.7773435983056
 10
855.9067380672733
 20
606.7773435983056
 97
        0
 97
        0
 75
     2
 76
     1
 98
        0
  0
SPLINE
  5
9B
330
6D
100
AcDbEntity
  8
0
 62
   240
420
 15539236
370
    35
100
AcDbSpline
210
0.0
220
0.0
230
1.0
 70
    11
 71
     3
 72
    65
 73
    61
 74
     0
 42
0.0000000001
 43
0.0000000001
 12
1.0
 22
0.0
 32
0.0
 13
1.0
 23
0.0
 33
0.0
 40
0.0
 40
0.0
 40
0.0
 40
0.0
 40
1.0
 40
1.0
 40
1.0
 40
2.0
 40
2.0
 40
2.0
 40
3.0
 40
3.0
 40
3.0
 40
4.0
 40
4.0
 40
4.0
 40
5.0
 40
5.0
 40
5.0
 40
6.0
 40
6.0
 40
6.0
 40
7.0
 40
7.0
 40
7.0
 40
8.0
 40
8.0
 40
8.0
 40
9.0
 40
9.0
 40
9.0
 40
10.0
 40
10.0
 40
10.0
 40
11.0
 40
11.0
 40
11.0
 40
12.0
 40
12.0
 40
12.0
 40
13.0
 40
13.0
 40
13.0
 40
14.0
 40
14.0
 40
14.0
 40
15.0
 40
15.0
 40
15.0
 40
16.0
 40
16.0
 40
16.0
 40
17.0
 40
17.0
 40
17.0
 40
18.0
 40
18.0
 40
18.0
 40
19.0
 40
19.0
 40
19.0
 40
20.0
 40
20.0
 40
20.0
 40
20.0
 10
864.8833005650291
 20
607.7207029730698
 30
0.0
 10
864.8833005650291
 20
607.7207029730698
 30
0.0
 10
865.035644314991
 20
606.7890623483028
 30
0.0
 10
865.035644314991
 20
606.7890623483028
 30
0.0
 10
864.7387693150653
 20
606.7265623483183
 30
0.0
 10
864.4731443151317
 20
606.6953123483262
 30
0.0
 10
864.2387693151903
 20
606.6953123483262
 30
0.0
 10
863.855956815286
 20
606.6953123483262
 30
0.0
 10
863.5590818153602
 20
606.7558592233111
 30
0.0
 10
863.3481443154129
 20
606.8769529732807
 30
0.0
 10
863.1372068154657
 20
606.9980467232505
 30
0.0
 10
862.9887693155027
 20
607.1572264107107
 30
0.0
 10
862.9028318155242
 20
607.3544920356613
 30
0.0
 10
862.8168943155457
 20
607.551757660612
 30
0.0
 10
862.7739255655565
 20
607.9667967230083
 30
0.0
 10
862.7739255655565
 20
608.5996092228501
 30
0.0
 10
862.7739255655565
 20
608.5996092228501
 30
0.0
 10
862.7739255655565
 20
612.1796873469551
 30
0.0
 10
862.7739255655565
 20
612.1796873469551
 30
0.0
 10
862.7739255655565
 20
612.1796873469551
 30
0.0
 10
862.0004880657499
 20
612.1796873469551
 30
0.0
 10
862.0004880657499
 20
612.1796873469551
 30
0.0
 10
862.0004880657499
 20
612.1796873469551
 30
0.0
 10
862.0004880657499
 20
612.99999984675
 30
0.0
 10
862.0004880657499
 20
612.99999984675
 30
0.0
 10
862.0004880657499
 20
612.99999984675
 30
0.0
 10
862.7739255655565
 20
612.99999984675
 30
0.0
 10
862.7739255655565
 20
612.99999984675
 30
0.0
 10
862.7739255655565
 20
612.99999984675
 30
0.0
 10
862.7739255655565
 20
614.5410154713647
 30
0.0
 10
862.7739255655565
 20
614.5410154713647
 30
0.0
 10
862.7739255655565
 20
614.5410154713647
 30
0.0
 10
863.8227536902943
 20
615.1738279712065
 30
0.0
 10
863.8227536902943
 20
615.1738279712065
 30
0.0
 10
863.8227536902943
 20
615.1738279712065
 30
0.0
 10
863.8227536902943
 20
612.99999984675
 30
0.0
 10
863.8227536902943
 20
612.99999984675
 30
0.0
 10
863.8227536902943
 20
612.99999984675
 30
0.0
 10
864.8833005650291
 20
612.99999984675
 30
0.0
 10
864.8833005650291
 20
612.99999984675
 30
0.0
 10
864.8833005650291
 20
612.99999984675
 30
0.0
 10
864.8833005650291
 20
612.1796873469551
 30
0.0
 10
864.8833005650291
 20
612.1796873469551
 30
0.0
 10
864.8833005650291
 20
612.1796873469551
 30
0.0
 10
863.8227536902943
 20
612.1796873469551
 30
0.0
 10
863.8227536902943
 20
612.1796873469551
 30
0.0
 10
863.8227536902943
 20
612.1796873469551
 30
0.0
 10
863.8227536902943
 20
608.5410154728647
 30
0.0
 10
863.8227536902943
 20
608.5410154728647
 30
0.0
 10
863.8227536902943
 20
608.2402342229399
 30
0.0
 10
863.8413083777897
 20
608.0468748479883
 30
0.0
 10
863.8784177527804
 20
607.9609373480098
 30
0.0
 10
863.9155271277712
 20
607.8749998480313
 30
0.0
 10
863.9760740027559
 20
607.8066404730483
 30
0.0
 10
864.060058377735
 20
607.7558592230611
 30
0.0
 10
864.144042752714
 20
607.7050779730737
 30
0.0
 10
864.264159940184
 20
607.67968734808
 30
0.0
 10
864.4204099401449
 20
607.67968734808
 30
0.0
 10
864.5375974401156
 20
607.67968734808
 30
0.0
 10
864.691894315077
 20
607.6933592230766
 30
0.0
 10
864.8833005650291
 20
607.7207029730698
 30
0.0
  0
HATCH
  5
9C
330
6D
100
AcDbEntity
  8
0
 62
   240
420
 15539236
100
AcDbHatch
 10
0.0
 20
0.0
 30
0.0
210
0.0
220
0.0
230
1.0
  2
SOLID
 70
     1
 71
     0
 91
        1
 92
        1
 93
        1
 72
     4
 94
        3
 73
     0
 74
     1
 95
       65
 96
       61
 40
0.0
 40
0.0
 40
0.0
 40
0.0
 40
1.0
 40
1.0
 40
1.0
 40
2.0
 40
2.0
 40
2.0
 40
3.0
 40
3.0
 40
3.0
 40
4.0
 40
4.0
 40
4.0
 40
5.0
 40
5.0
 40
5.0
 40
6.0
 40
6.0
 40
6.0
 40
7.0
 40
7.0
 40
7.0
 40
8.0
 40
8.0
 40
8.0
 40
9.0
 40
9.0
 40
9.0
 40
10.0
 40
10.0
 40
10.0
 40
11.0
 40
11.0
 40
11.0
 40
12.0
 40
12.0
 40
12.0
 40
13.0
 40
13.0
 40
13.0
 40
14.0
 40
14.0
 40
14.0
 40
15.0
 40
15.0
 40
15.0
 40
16.0
 40
16.0
 40
16.0
 40
17.0
 40
17.0
 40
17.0
 40
18.0
 40
18.0
 40
18.0
 40
19.0
 40
19.0
 40
19.0
 40
20.0
 40
20.0
 40
20.0
 40
20.0
 10
864.8833005650291
 20
607.7207029730698
 10
864.8833005650291
 20
607.7207029730698
 10
865.035644314991
 20
606.7890623483028
 10
865.035644314991
 20
606.7890623483028
 10
864.7387693150653
 20
606.7265623483183
 10
864.4731443151317
 20
606.6953123483262
 10
864.2387693151903
 20
606.6953123483262
 10
863.855956815286
 20
606.6953123483262
 10
863.5590818153602
 20
606.7558592233111
 10
863.3481443154129
 20
606.8769529732807
 10
863.1372068154657
 20
606.9980467232505
 10
862.9887693155027
 20
607.1572264107107
 10
862.9028318155242
 20
607.3544920356613
 10
862.8168943155457
 20
607.551757660612
 10
862.7739255655565
 20
607.9667967230083
 10
862.7739255655565
 20
608.5996092228501
 10
862.7739255655565
 20
608.5996092228501
 10
862.7739255655565
 20
612.1796873469551
 10
862.7739255655565
 20
612.1796873469551
 10
862.7739255655565
 20
612.1796873469551
 10
862.0004880657499
 20
612.1796873469551
 10
862.0004880657499
 20
612.1796873469551
 10
862.0004880657499
 20
612.1796873469551
 10
862.0004880657499
 20
612.99999984675
 10
862.0004880657499
 20
612.99999984675
 10
862.0004880657499
 20
612.99999984675
 10
862.7739255655565
 20
612.99999984675
 10
862.7739255655565
 20
612.99999984675
 10
862.7739255655565
 20
612.99999984675
 10
862.7739255655565
 20
614.5410154713647
 10
862.7739255655565
 20
614.5410154713647
 10
862.7739255655565
 20
614.5410154713647
 10
863.8227536902943
 20
615.1738279712065
 10
863.8227536902943
 20
615.1738279712065
 10
863.8227536902943
 20
615.1738279712065
 10
863.8227536902943
 20
612.99999984675
 10
863.8227536902943
 20
612.99999984675
 10
863.8227536902943
 20
612.99999984675
 10
864.8833005650291
 20
612.99999984675
 10
864.8833005650291
 20
612.99999984675
 10
864.8833005650291
 20
612.99999984675
 10
864.8833005650291
 20
612.1796873469551
 10
864.8833005650291
 20
612.1796873469551
 10
864.8833005650291
 20
612.1796873469551
 10
863.8227536902943
 20
612.1796873469551
 10
863.8227536902943
 20
612.1796873469551
 10
863.8227536902943
 20
612.1796873469551
 10
863.8227536902943
 20
608.5410154728647
 10
863.8227536902943
 20
608.5410154728647
 10
863.8227536902943
 20
608.2402342229399
 10
863.8413083777897
 20
608.0468748479883
 10
863.8784177527804
 20
607.9609373480098
 10
863.9155271277712
 20
607.8749998480313
 10
863.9760740027559
 20
607.8066404730483
 10
864.060058377735
 20
607.7558592230611
 10
864.144042752714
 20
607.7050779730737
 10
864.264159940184
 20
607.67968734808
 10
864.4204099401449
 20
607.67968734808
 10
864.5375974401156
 20
607.67968734808
 10
864.691894315077
 20
607.6933592230766
 10
864.8833005650291
 20
607.7207029730698
 97
        0
 97
        0
 75
     2
 76
     1
 98
        0
  0
POLYLINE
  5
9D
330
6D
100
AcDbEntity
  8
0
 62
   240
420
 15539236
370
    35
100
AcDb2dPolyline
 66
     1
 10
0.0
 20
0.0
 30
0.0
  0
VERTEX
  5
9E
330
9D
100
AcDbEntity
  8
0
 62
   240
420
 15539236
370
    35
100
AcDbVertex
100
AcDb2dVertex
 10
878.5590818116102
 20
614.9101560962724
 30
0.0
  0
VERTEX
  5
9F
330
9D
100
AcDbEntity
  8
0
 62
   240
420
 15539236
370
    35
100
AcDbVertex
100
AcDb2dVertex
 10
874.3989255626502
 20
606.5957029733511
 30
0.0
  0
VERTEX
  5
A0
330
9D
100
AcDbEntity
  8
0
 62
   240
420
 15539236
370
    35
100
AcDbVertex
100
AcDb2dVertex
 10
870.2387693136903
 20
614.9101560962724
 30
0.0
  0
VERTEX
  5
A1
330
9D
100
AcDbEntity
  8
0
 62
   240
420
 15539236
370
    35
100
AcDbVertex
100
AcDb2dVertex
 10
878.5590818116102
 20
614.9101560962724
 30
0.0
  0
SEQEND
  5
A2
330
9D
100
AcDbEntity
  8
0
 62
   240
420
 15539236
370
    35
  0
HATCH
  5
A3
330
6D
100
AcDbEntity
  8
0
 62
   240
420
 15539236
100
AcDbHatch
 10
0.0
 20
0.0
 30
0.0
210
0.0
220
0.0
230
1.0
  2
SOLID
 70
     1
 71
     0
 91
        1
 92
        1
 93
        3
 72
     1
 10
878.5590818116102
 20
614.9101560962724
 11
874.3989255626502
 21
606.5957029733511
 72
     1
 10
874.3989255626502
 20
606.5957029733511
 11
870.2387693136903
 21
614.9101560962724
 72
     1
 10
870.2387693136903
 20
614.9101560962724
 11
878.5590818116102
 21
614.9101560962724
 97
        0
 75
     2
 76
     1
 98
        0
  0
ENDBLK
  5
70
330
6D
100
AcDbEntity
  8
0
100
AcDbBlockEnd
  0
ENDSEC
  0
SECTION
  2
ENTITIES
  0
INSERT
  5
41
330
1F
100
AcDbEntity
  8
0
100
AcDbBlockReference
  2
block 2
 10
0.0
 20
0.0
 30
0.0
  0
INSERT
  5
46
330
1F
100
AcDbEntity
  8
0
100
AcDbBlockReference
  2
block 3
 10
0.0
 20
0.0
 30
0.0
  0
INSERT
  5
4B
330
1F
100
AcDbEntity
  8
0
100
AcDbBlockReference
  2
block 4
 10
0.0
 20
0.0
 30
0.0
  0
INSERT
  5
50
330
1F
100
AcDbEntity
  8
0
100
AcDbBlockReference
  2
block 5
 10
0.0
 20
0.0
 30
0.0
  0
INSERT
  5
55
330
1F
100
AcDbEntity
  8
0
100
AcDbBlockReference
  2
block 6
 10
0.0
 20
0.0
 30
0.0
  0
INSERT
  5
5A
330
1F
100
AcDbEntity
  8
0
100
AcDbBlockReference
  2
block 7
 10
0.0
 20
0.0
 30
0.0
  0
INSERT
  5
5F
330
1F
100
AcDbEntity
  8
0
100
AcDbBlockReference
  2
block 8
 10
0.0
 20
0.0
 30
0.0
  0
INSERT
  5
64
330
1F
100
AcDbEntity
  8
0
100
AcDbBlockReference
  2
block 9
 10
0.0
 20
0.0
 30
0.0
  0
INSERT
  5
69
330
1F
100
AcDbEntity
  8
0
100
AcDbBlockReference
  2
block 10
 10
0.0
 20
0.0
 30
0.0
  0
INSERT
  5
6E
330
1F
100
AcDbEntity
  8
0
100
AcDbBlockReference
  2
block 11
 10
0.0
 20
0.0
 30
0.0
  0
ENDSEC
  0
SECTION
  2
OBJECTS
  0
DICTIONARY
  5
C
330
0
100
AcDbDictionary
281
     1
  3
ACAD_GROUP
350
D
  3
ACAD_LAYOUT
350
1A
  3
ACAD_MATERIAL
350
3B
  3
ACAD_MLEADERSTYLE
350
A5
  3
ACAD_MLINESTYLE
350
17
  3
ACAD_PLOTSETTINGS
350
19
  3
ACAD_PLOTSTYLENAME
350
E
  3
ACAD_TABLESTYLE
350
A4
  3
ACAD_VISUALSTYLE
350
2A
  0
SUN
  5
3F
330
29
100
AcDbSun
 90
        1
290
     0
 63
     7
421
 16777215
 40
1.0
291
     1
 91
  2455826
 92
 54000000
292
     0
 70
     2
 71
   256
280
     1
  0
DICTIONARY
  5
D
102
{ACAD_REACTORS
330
C
102
}
330
C
100
AcDbDictionary
281
     1
  0
DICTIONARY
  5
1A
102
{ACAD_REACTORS
330
C
102
}
330
C
100
AcDbDictionary
281
     1
  3
Layout1
350
1E
  3
Layout2
350
26
  3
Model
350
22
  0
DICTIONARY
  5
3B
102
{ACAD_REACTORS
330
C
102
}
330
C
100
AcDbDictionary
281
     1
  3
ByBlock
350
3D
  3
ByLayer
350
3C
  3
Global
350
3E
  0
DICTIONARY
  5
A5
102
{ACAD_REACTORS
330
C
102
}
330
C
100
AcDbDictionary
281
     1
  0
DICTIONARY
  5
17
102
{ACAD_REACTORS
330
C
102
}
330
C
100
AcDbDictionary
281
     1
  3
Standard
350
18
  0
DICTIONARY
  5
19
102
{ACAD_REACTORS
330
C
102
}
330
C
100
AcDbDictionary
281
     1
  0
ACDBDICTIONARYWDFLT
  5
E
102
{ACAD_REACTORS
330
C
102
}
330
C
100
AcDbDictionary
281
     1
  3
Normal
350
F
100
AcDbDictionaryWithDefault
340
F
  0
DICTIONARY
  5
A4
102
{ACAD_REACTORS
330
C
102
}
330
C
100
AcDbDictionary
281
     1
  0
DICTIONARY
  5
2A
102
{ACAD_REACTORS
330
C
102
}
330
C
100
AcDbDictionary
281
     1
  3
2dWireframe
350
2F
  3
3D Hidden
350
31
  3
3dWireframe
350
30
  3
Basic
350
32
  3
Brighten
350
36
  3
ColorChange
350
3A
  3
Conceptual
350
34
  3
Dim
350
35
  3
Facepattern
350
39
  3
Flat
350
2B
  3
FlatWithEdges
350
2C
  3
Gouraud
350
2D
  3
GouraudWithEdges
350
2E
  3
Linepattern
350
38
  3
Realistic
350
33
  3
Thicken
350
37
  0
LAYOUT
  5
1E
102
{ACAD_REACTORS
330
1A
102
}
330
1A
100
AcDbPlotSettings
  1

  2
none_device
  4

  6

 40
0.0
 41
0.0
 42
0.0
 43
0.0
 44
0.0
 45
0.0
 46
0.0
 47
0.0
 48
0.0
 49
0.0
140
0.0
141
0.0
142
1.0
143
1.0
 70
   688
 72
     0
 73
     0
 74
     5
  7

 75
    16
 76
     0
 77
     2
 78
   300
147
1.0
148
0.0
149
0.0
100
AcDbLayout
  1
Layout1
 70
     1
 71
     1
 10
0.0
 20
0.0
 11
12.0
 21
9.0
 12
0.0
 22
0.0
 32
0.0
 14
1.000000000000000E+20
 24
1.000000000000000E+20
 34
1.000000000000000E+20
 15
-1.000000000000000E+20
 25
-1.000000000000000E+20
 35
-1.000000000000000E+20
146
0.0
 13
0.0
 23
0.0
 33
0.0
 16
1.0
 26
0.0
 36
0.0
 17
0.0
 27
1.0
 37
0.0
 76
     0
330
1B
  0
LAYOUT
  5
26
102
{ACAD_REACTORS
330
1A
102
}
330
1A
100
AcDbPlotSettings
  1

  2
none_device
  4

  6

 40
0.0
 41
0.0
 42
0.0
 43
0.0
 44
0.0
 45
0.0
 46
0.0
 47
0.0
 48
0.0
 49
0.0
140
0.0
141
0.0
142
1.0
143
1.0
 70
   688
 72
     0
 73
     0
 74
     5
  7

 75
    16
 76
     0
 77
     2
 78
   300
147
1.0
148
0.0
149
0.0
100
AcDbLayout
  1
Layout2
 70
     1
 71
     2
 10
0.0
 20
0.0
 11
0.0
 21
0.0
 12
0.0
 22
0.0
 32
0.0
 14
0.0
 24
0.0
 34
0.0
 15
0.0
 25
0.0
 35
0.0
146
0.0
 13
0.0
 23
0.0
 33
0.0
 16
1.0
 26
0.0
 36
0.0
 17
0.0
 27
1.0
 37
0.0
 76
     0
330
23
  0
LAYOUT
  5
22
102
{ACAD_REACTORS
330
1A
102
}
330
1A
100
AcDbPlotSettings
  1

  2
none_device
  4

  6

 40
0.0
 41
0.0
 42
0.0
 43
0.0
 44
0.0
 45
0.0
 46
0.0
 47
0.0
 48
0.0
 49
0.0
140
0.0
141
0.0
142
1.0
143
1.0
 70
  1712
 72
     0
 73
     0
 74
     0
  7

 75
     0
 76
     0
 77
     2
 78
   300
147
1.0
148
0.0
149
0.0
100
AcDbLayout
  1
Model
 70
     1
 71
     0
 10
0.0
 20
0.0
 11
12.0
 21
9.0
 12
0.0
 22
0.0
 32
0.0
 14
1.000000000000000E+20
 24
1.000000000000000E+20
 34
1.000000000000000E+20
 15
-1.000000000000000E+20
 25
-1.000000000000000E+20
 35
-1.000000000000000E+20
146
0.0
 13
0.0
 23
0.0
 33
0.0
 16
1.0
 26
0.0
 36
0.0
 17
0.0
 27
1.0
 37
0.0
 76
     0
330
1F
331
29
  0
MATERIAL
  5
3D
102
{ACAD_REACTORS
330
3B
102
}
330
3B
100
AcDbMaterial
  1
ByBlock
 72
     1
 94
      127
  0
MATERIAL
  5
3C
102
{ACAD_REACTORS
330
3B
102
}
330
3B
100
AcDbMaterial
  1
ByLayer
 72
     1
 94
      127
  0
MATERIAL
  5
3E
102
{ACAD_REACTORS
330
3B
102
}
330
3B
100
AcDbMaterial
  1
Global
 72
     1
 94
      127
  0
MLINESTYLE
  5
18
102
{ACAD_REACTORS
330
17
102
}
330
17
100
AcDbMlineStyle
  2
Standard
 70
     0
  3

 62
   256
 51
90.0
 52
90.0
 71
     2
 49
0.5
 62
   256
  6
BYLAYER
 49
-0.5
 62
   256
  6
BYLAYER
  0
ACDBPLACEHOLDER
  5
F
102
{ACAD_REACTORS
330
E
102
}
330
E
  0
VISUALSTYLE
  5
2F
102
{ACAD_REACTORS
330
2A
102
}
330
2A
100
AcDbVisualStyle
  2
2dWireframe
 70
     4
177
     2
291
     0
 71
     0
176
     1
 72
     2
176
     1
 73
     0
176
     1
 90
        0
176
     1
 40
-0.6
176
     1
 41
-30.0
176
     1
 62
     5
 63
     7
421
 16777215
176
     1
 74
     1
176
     1
 91
        4
176
     1
 64
     7
176
     1
 65
   257
176
     1
 75
     1
176
     1
175
     1
176
     1
 42
1.0
176
     1
 92
        0
176
     1
 66
   257
176
     1
 43
1.0
176
     1
 76
     1
176
     1
 77
     6
176
     1
 78
     2
176
     1
 67
     7
176
     1
 79
     5
176
     1
170
     0
176
     1
171
     0
176
     1
290
     0
176
     1
 93
        1
176
     1
 44
0.0
176
     1
173
     0
176
     1
  0
VISUALSTYLE
  5
31
102
{ACAD_REACTORS
330
2A
102
}
330
2A
100
AcDbVisualStyle
  2
3D Hidden
 70
     6
177
     2
291
     0
 71
     1
176
     1
 72
     2
176
     1
 73
     2
176
     1
 90
        0
176
     1
 40
-0.6
176
     1
 41
-30.0
176
     1
 62
     5
 63
     7
421
 16777215
176
     1
 74
     2
176
     1
 91
        2
176
     1
 64
     7
176
     1
 65
   257
176
     1
 75
     2
176
     1
175
     1
176
     1
 42
40.0
176
     1
 92
        0
176
     1
 66
   257
176
     1
 43
1.0
176
     1
 76
     1
176
     1
 77
     6
176
     1
 78
     2
176
     1
 67
     7
176
     1
 79
     3
176
     1
170
     0
176
     1
171
     0
176
     1
290
     0
176
     1
 93
        1
176
     1
 44
0.0
176
     1
173
     0
176
     1
  0
VISUALSTYLE
  5
30
102
{ACAD_REACTORS
330
2A
102
}
330
2A
100
AcDbVisualStyle
  2
3dWireframe
 70
     5
177
     2
291
     0
 71
     0
176
     1
 72
     2
176
     1
 73
     0
176
     1
 90
        0
176
     1
 40
-0.6
176
     1
 41
-30.0
176
     1
 62
     5
 63
     7
421
 16777215
176
     1
 74
     1
176
     1
 91
        4
176
     1
 64
     7
176
     1
 65
   257
176
     1
 75
     1
176
     1
175
     1
176
     1
 42
1.0
176
     1
 92
        0
176
     1
 66
   257
176
     1
 43
1.0
176
     1
 76
     1
176
     1
 77
     6
176
     1
 78
     2
176
     1
 67
     7
176
     1
 79
     5
176
     1
170
     0
176
     1
171
     0
176
     1
290
     0
176
     1
 93
        1
176
     1
 44
0.0
176
     1
173
     0
176
     1
  0
VISUALSTYLE
  5
32
102
{ACAD_REACTORS
330
2A
102
}
330
2A
100
AcDbVisualStyle
  2
Basic
 70
     7
177
     2
291
     1
 71
     1
176
     1
 72
     0
176
     1
 73
     1
176
     1
 90
        0
176
     1
 40
-0.6
176
     1
 41
-30.0
176
     1
 62
     5
 63
     7
421
 16777215
176
     1
 74
     0
176
     1
 91
        4
176
     1
 64
     7
176
     1
 65
   257
176
     1
 75
     1
176
     1
175
     1
176
     1
 42
1.0
176
     1
 92
        8
176
     1
 66
     7
176
     1
 43
1.0
176
     1
 76
     1
176
     1
 77
     6
176
     1
 78
     2
176
     1
 67
     7
176
     1
 79
     5
176
     1
170
     0
176
     1
171
     0
176
     1
290
     0
176
     1
 93
        1
176
     1
 44
0.0
176
     1
173
     0
176
     1
  0
VISUALSTYLE
  5
36
102
{ACAD_REACTORS
330
2A
102
}
330
2A
100
AcDbVisualStyle
  2
Brighten
 70
    12
177
     2
291
     1
 71
     2
176
     1
 72
     2
176
     1
 73
     0
176
     1
 90
        0
176
     1
 40
-0.6
176
     1
 41
-30.0
176
     1
 62
     5
 63
     7
421
 16777215
176
     1
 74
     1
176
     1
 91
        4
176
     1
 64
     7
176
     1
 65
   257
176
     1
 75
     1
176
     1
175
     1
176
     1
 42
1.0
176
     1
 92
        8
176
     1
 66
     7
176
     1
 43
1.0
176
     1
 76
     1
176
     1
 77
     6
176
     1
 78
     2
176
     1
 67
     7
176
     1
 79
     5
176
     1
170
     0
176
     1
171
     0
176
     1
290
     0
176
     1
 93
        1
176
     1
 44
50.0
176
     1
173
     0
176
     1
  0
VISUALSTYLE
  5
3A
102
{ACAD_REACTORS
330
2A
102
}
330
2A
100
AcDbVisualStyle
  2
ColorChange
 70
    16
177
     2
291
     1
 71
     2
176
     1
 72
     2
176
     1
 73
     3
176
     1
 90
        0
176
     1
 40
-0.6
176
     1
 41
-30.0
176
     1
 62
     5
 63
     8
421
  8421504
176
     1
 74
     1
176
     1
 91
        4
176
     1
 64
     7
176
     1
 65
   257
176
     1
 75
     1
176
     1
175
     1
176
     1
 42
1.0
176
     1
 92
        8
176
     1
 66
     8
424
  8421504
176
     1
 43
1.0
176
     1
 76
     1
176
     1
 77
     6
176
     1
 78
     2
176
     1
 67
     7
176
     1
 79
     5
176
     1
170
     0
176
     1
171
     0
176
     1
290
     0
176
     1
 93
        1
176
     1
 44
0.0
176
     1
173
     0
176
     1
  0
VISUALSTYLE
  5
34
102
{ACAD_REACTORS
330
2A
102
}
330
2A
100
AcDbVisualStyle
  2
Conceptual
 70
     9
177
     2
291
     0
 71
     3
176
     1
 72
     2
176
     1
 73
     0
176
     1
 90
        0
176
     1
 40
-0.6
176
     1
 41
-30.0
176
     1
 62
     5
 63
     7
421
 16777215
176
     1
 74
     2
176
     1
 91
        2
176
     1
 64
     7
176
     1
 65
   257
176
     1
 75
     1
176
     1
175
     1
176
     1
 42
40.0
176
     1
 92
        8
176
     1
 66
     7
176
     1
 43
1.0
176
     1
 76
     1
176
     1
 77
     6
176
     1
 78
     2
176
     1
 67
     7
176
     1
 79
     3
176
     1
170
     0
176
     1
171
     0
176
     1
290
     0
176
     1
 93
        1
176
     1
 44
0.0
176
     1
173
     0
176
     1
  0
VISUALSTYLE
  5
35
102
{ACAD_REACTORS
330
2A
102
}
330
2A
100
AcDbVisualStyle
  2
Dim
 70
    11
177
     2
291
     1
 71
     2
176
     1
 72
     2
176
     1
 73
     0
176
     1
 90
        0
176
     1
 40
-0.6
176
     1
 41
-30.0
176
     1
 62
     5
 63
     7
421
 16777215
176
     1
 74
     1
176
     1
 91
        4
176
     1
 64
     7
176
     1
 65
   257
176
     1
 75
     1
176
     1
175
     1
176
     1
 42
1.0
176
     1
 92
        8
176
     1
 66
     7
176
     1
 43
1.0
176
     1
 76
     1
176
     1
 77
     6
176
     1
 78
     2
176
     1
 67
     7
176
     1
 79
     5
176
     1
170
     0
176
     1
171
     0
176
     1
290
     0
176
     1
 93
        1
176
     1
 44
-50.0
176
     1
173
     0
176
     1
  0
VISUALSTYLE
  5
39
102
{ACAD_REACTORS
330
2A
102
}
330
2A
100
AcDbVisualStyle
  2
Facepattern
 70
    15
177
     2
291
     1
 71
     2
176
     1
 72
     2
176
     1
 73
     0
176
     1
 90
        0
176
     1
 40
-0.6
176
     1
 41
-30.0
176
     1
 62
     5
 63
     7
421
 16777215
176
     1
 74
     1
176
     1
 91
        4
176
     1
 64
     7
176
     1
 65
   257
176
     1
 75
     1
176
     1
175
     1
176
     1
 42
1.0
176
     1
 92
        8
176
     1
 66
     7
176
     1
 43
1.0
176
     1
 76
     1
176
     1
 77
     6
176
     1
 78
     2
176
     1
 67
     7
176
     1
 79
     5
176
     1
170
     0
176
     1
171
     0
176
     1
290
     0
176
     1
 93
        1
176
     1
 44
0.0
176
     1
173
     0
176
     1
  0
VISUALSTYLE
  5
2B
102
{ACAD_REACTORS
330
2A
102
}
330
2A
100
AcDbVisualStyle
  2
Flat
 70
     0
177
     2
291
     1
 71
     2
176
     1
 72
     1
176
     1
 73
     1
176
     1
 90
        2
176
     1
 40
-0.6
176
     1
 41
30.0
176
     1
 62
     5
 63
     7
421
 16777215
176
     1
 74
     0
176
     1
 91
        4
176
     1
 64
     7
176
     1
 65
   257
176
     1
 75
     1
176
     1
175
     1
176
     1
 42
1.0
176
     1
 92
        8
176
     1
 66
     7
176
     1
 43
1.0
176
     1
 76
     1
176
     1
 77
     6
176
     1
 78
     2
176
     1
 67
     7
176
     1
 79
     5
176
     1
170
     0
176
     1
171
     0
176
     1
290
     0
176
     1
 93
       13
176
     1
 44
0.0
176
     1
173
     0
176
     1
  0
VISUALSTYLE
  5
2C
102
{ACAD_REACTORS
330
2A
102
}
330
2A
100
AcDbVisualStyle
  2
FlatWithEdges
 70
     1
177
     2
291
     1
 71
     2
176
     1
 72
     1
176
     1
 73
     1
176
     1
 90
        2
176
     1
 40
-0.6
176
     1
 41
30.0
176
     1
 62
     5
 63
     7
421
 16777215
176
     1
 74
     1
176
     1
 91
        4
176
     1
 64
     7
176
     1
 65
   257
176
     1
 75
     1
176
     1
175
     1
176
     1
 42
1.0
176
     1
 92
        0
176
     1
 66
   257
176
     1
 43
1.0
176
     1
 76
     1
176
     1
 77
     6
176
     1
 78
     2
176
     1
 67
     7
176
     1
 79
     5
176
     1
170
     0
176
     1
171
     0
176
     1
290
     0
176
     1
 93
       13
176
     1
 44
0.0
176
     1
173
     0
176
     1
  0
VISUALSTYLE
  5
2D
102
{ACAD_REACTORS
330
2A
102
}
330
2A
100
AcDbVisualStyle
  2
Gouraud
 70
     2
177
     2
291
     1
 71
     2
176
     1
 72
     2
176
     1
 73
     1
176
     1
 90
        2
176
     1
 40
-0.6
176
     1
 41
30.0
176
     1
 62
     5
 63
     7
421
 16777215
176
     1
 74
     0
176
     1
 91
        4
176
     1
 64
     7
176
     1
 65
   257
176
     1
 75
     1
176
     1
175
     1
176
     1
 42
1.0
176
     1
 92
        0
176
     1
 66
     7
176
     1
 43
1.0
176
     1
 76
     1
176
     1
 77
     6
176
     1
 78
     2
176
     1
 67
     7
176
     1
 79
     5
176
     1
170
     0
176
     1
171
     0
176
     1
290
     0
176
     1
 93
       13
176
     1
 44
0.0
176
     1
173
     0
176
     1
  0
VISUALSTYLE
  5
2E
102
{ACAD_REACTORS
330
2A
102
}
330
2A
100
AcDbVisualStyle
  2
GouraudWithEdges
 70
     3
177
     2
291
     1
 71
     2
176
     1
 72
     2
176
     1
 73
     1
176
     1
 90
        2
176
     1
 40
-0.6
176
     1
 41
30.0
176
     1
 62
     5
 63
     7
421
 16777215
176
     1
 74
     1
176
     1
 91
        4
176
     1
 64
     7
176
     1
 65
   257
176
     1
 75
     1
176
     1
175
     1
176
     1
 42
1.0
176
     1
 92
        0
176
     1
 66
   257
176
     1
 43
1.0
176
     1
 76
     1
176
     1
 77
     6
176
     1
 78
     2
176
     1
 67
     7
176
     1
 79
     5
176
     1
170
     0
176
     1
171
     0
176
     1
290
     0
176
     1
 93
       13
176
     1
 44
0.0
176
     1
173
     0
176
     1
  0
VISUALSTYLE
  5
38
102
{ACAD_REACTORS
330
2A
102
}
330
2A
100
AcDbVisualStyle
  2
Linepattern
 70
    14
177
     2
291
     1
 71
     2
176
     1
 72
     2
176
     1
 73
     0
176
     1
 90
        0
176
     1
 40
-0.6
176
     1
 41
-30.0
176
     1
 62
     5
 63
     7
421
 16777215
176
     1
 74
     1
176
     1
 91
        4
176
     1
 64
     7
176
     1
 65
   257
176
     1
 75
     7
176
     1
175
     7
176
     1
 42
1.0
176
     1
 92
        8
176
     1
 66
     7
176
     1
 43
1.0
176
     1
 76
     1
176
     1
 77
     6
176
     1
 78
     2
176
     1
 67
     7
176
     1
 79
     5
176
     1
170
     0
176
     1
171
     0
176
     1
290
     0
176
     1
 93
        1
176
     1
 44
0.0
176
     1
173
     0
176
     1
  0
VISUALSTYLE
  5
33
102
{ACAD_REACTORS
330
2A
102
}
330
2A
100
AcDbVisualStyle
  2
Realistic
 70
     8
177
     2
291
     0
 71
     2
176
     1
 72
     2
176
     1
 73
     0
176
     1
 90
        0
176
     1
 40
-0.6
176
     1
 41
-30.0
176
     1
 62
     5
 63
     7
421
 16777215
176
     1
 74
     1
176
     1
 91
        0
176
     1
 64
     7
176
     1
 65
   257
176
     1
 75
     1
176
     1
175
     1
176
     1
 42
1.0
176
     1
 92
        8
176
     1
 66
     8
424
  7895160
176
     1
 43
1.0
176
     1
 76
     1
176
     1
 77
     6
176
     1
 78
     2
176
     1
 67
     7
176
     1
 79
     5
176
     1
170
     0
176
     1
171
     0
176
     1
290
     0
176
     1
 93
       13
176
     1
 44
0.0
176
     1
173
     0
176
     1
  0
VISUALSTYLE
  5
37
102
{ACAD_REACTORS
330
2A
102
}
330
2A
100
AcDbVisualStyle
  2
Thicken
 70
    13
177
     2
291
     1
 71
     2
176
     1
 72
     2
176
     1
 73
     0
176
     1
 90
        0
176
     1
 40
-0.6
176
     1
 41
-30.0
176
     1
 62
     5
 63
     7
421
 16777215
176
     1
 74
     1
176
     1
 91
        4
176
     1
 64
     7
176
     1
 65
   257
176
     1
 75
     1
176
     1
175
     1
176
     1
 42
1.0
176
     1
 92
       12
176
     1
 66
     7
176
     1
 43
1.0
176
     1
 76
     1
176
     1
 77
     6
176
     1
 78
     2
176
     1
 67
     7
176
     1
 79
     5
176
     1
170
     0
176
     1
171
     0
176
     1
290
     0
176
     1
 93
        1
176
     1
 44
0.0
176
     1
173
     0
176
     1
  0
ENDSEC
  0
EOF
