0
SECTION
2
HEADER
9
$INSUNITS
70
4
9
$ACADVER
1
AC1014
9
$HANDSEED
5
FFFF
0
ENDSEC
0
SECTION
2
TABLES
0
TABLE
2
VPORT
5
8
100
AcDbSymbolTable
0
ENDTAB
0
TABLE
2
LTYPE
5
5
100
AcDbSymbolTable
0
LTYPE
5
14
100
AcDbSymbolTableRecord
100
AcDbLinetypeTableRecord
2
BYBLOCK
70
0
0
LTYPE
5
15
100
AcDbSymbolTableRecord
100
AcDbLinetypeTableRecord
2
BYLAYER
70
0
0
ENDTAB
0
TABLE
2
LAYER
5
2
100
AcDbSymbolTable
70
2
0
LAYER
5
50
100
AcDbSymbolTableRecord
100
AcDbLayerTableRecord
2
0
70
0
6
CONTINUOUS
0
ENDTAB
0
TABLE
2
STYLE
5
3
100
AcDbSymbolTable
70
1
0
STYLE
5
11
100
AcDbSymbolTableRecord
100
AcDbTextStyleTableRecord
2
STANDARD
70
0
0
ENDTAB
0
TABLE
2
VIEW
5
6
100
AcDbSymbolTable
70
0
0
ENDTAB
0
TABLE
2
UCS
5
7
100
AcDbSymbolTable
70
0
0
ENDTAB
0
TABLE
2
APPID
5
9
100
AcDbSymbolTable
70
2
0
APPID
5
12
100
AcDbSymbolTableRecord
100
AcDbRegAppTableRecord
2
ACAD
70
0
0
ENDTAB
0
TABLE
2
DIMSTYLE
5
A
100
AcDbSymbolTable
70
1
0
ENDTAB
0
TABLE
2
BLOCK_RECORD
5
1
100
AcDbSymbolTable
70
1
0
BLOCK_RECORD
5
1F
100
AcDbSymbolTableRecord
100
AcDbBlockTableRecord
2
*MODEL_SPACE
0
BLOCK_RECORD
5
1B
100
AcDbSymbolTableRecord
100
AcDbBlockTableRecord
2
*PAPER_SPACE
0
ENDTAB
0
ENDSEC
0
SECTION
2
BLOCKS
0
BLOCK
5
20
100
AcDbEntity
100
AcDbBlockBegin
2
*MODEL_SPACE
0
ENDBLK
5
21
100
AcDbEntity
100
AcDbBlockEnd
0
BLOCK
5
1C
100
AcDbEntity
100
AcDbBlockBegin
2
*PAPER_SPACE
0
ENDBLK
5
1D
100
AcDbEntity
100
AcDbBlockEnd
0
ENDSEC
0
SECTION
2
ENTITIES
0
LWPOLYLINE
5
100
100
AcDbEntity
8
0
100
AcDbPolyline
90
8
70
1
43
0.0
10
-300.5125000000001
20
100.4875
10
-300.5125000000001
20
80.487499999999983
10
-281.46250000000003
20
80.487499999999983
10
-281.46250000000003
20
61.437500000000007
10
-261.46249999999998
20
61.437500000000007
10
-261.46249999999998
20
80.487499999999983
10
-242.41250000000002
20
80.487499999999983
10
-242.41250000000002
20
100.4875
0
LWPOLYLINE
5
101
100
AcDbEntity
8
0
100
AcDbPolyline
90
4
70
1
43
0.0
10
-290.63441570257061
20
61.191057067822612
10
-304.63441570257049
20
61.191057067822612
10
-304.63441570257049
20
21.191057067822605
10
-290.63441570257061
20
21.191057067822605
0
LWPOLYLINE
5
102
100
AcDbEntity
8
0
100
AcDbPolyline
90
8
70
1
43
0.0
10
6.0018032106278696
20
-8.5562792369364953
42
-0.41421356237309503
10
1.0018032106278696
20
-13.556279236936495
10
-308.97507345801205
20
-13.556279236936462
42
-0.41421356237309503
10
-313.97507345801199
20
-8.5562792369364971
10
-313.97507345801199
20
103.01253090035456
42
-0.41421356237309503
10
-308.97507345801199
20
108.01253090035456
10
1.0018032106278683
20
108.01253090035456
42
-0.41421356237309503
10
6.0018032106278687
20
103.01253090035456
0
LWPOLYLINE
5
103
100
AcDbEntity
8
0
100
AcDbPolyline
90
8
70
1
43
0.0
10
-286.22500000000002
20
-0.47500000000000098
10
0.4768032106278669
20
-0.47499999999997655
10
0.47680321062784969
20
95.724999999999994
10
-238.59999999999999
20
95.724999999999994
10
-238.59999999999999
20
76.674999999999983
10
-257.65000000000003
20
76.674999999999983
10
-257.65000000000003
20
57.624999999999993
10
-286.22500000000002
20
57.624999999999993
0
CIRCLE
5
104
100
AcDbEntity
8
0
100
AcDbCircle
10
-206.98085429085199
20
-9.0312792369364896
30
0
40
1.5500000000000114
210
0
220
0
230
1
0
CIRCLE
5
105
100
AcDbEntity
8
0
100
AcDbCircle
10
-100.99241595653208
20
103.48753090035457
30
0
40
1.5499999999999936
210
0
220
0
230
1
0
CIRCLE
5
106
100
AcDbEntity
8
0
100
AcDbCircle
10
-206.98085429085199
20
103.48753090035457
30
0
40
1.5500000000000114
210
0
220
0
230
1
0
CIRCLE
5
107
100
AcDbEntity
8
0
100
AcDbCircle
10
-100.99241595653208
20
-9.0312792369364985
30
0
40
1.5499999999999936
210
0
220
0
230
1
0
CIRCLE
5
108
100
AcDbEntity
8
0
100
AcDbCircle
10
-308.45007345801196
20
-9.0312792369364825
30
0
40
1.5500000000000114
210
0
220
0
230
1
0
CIRCLE
5
109
100
AcDbEntity
8
0
100
AcDbCircle
10
0.47680321062784969
20
103.48753090035457
30
0
40
1.5500000000000003
210
0
220
0
230
1
0
CIRCLE
5
110
100
AcDbEntity
8
0
100
AcDbCircle
10
-308.45007345801196
20
103.48753090035457
30
0
40
1.5500000000000114
210
0
220
0
230
1
0
CIRCLE
5
111
100
AcDbEntity
8
0
100
AcDbCircle
10
0.47680321062784981
20
-9.0312792369364878
30
0
40
1.5500000000000003
210
0
220
0
230
1
0
CIRCLE
5
112
100
AcDbEntity
8
0
100
AcDbCircle
10
-297.65623814634819
20
9.5123374383393529
30
0
40
8.4999999999999787
210
0
220
0
230
1
0
ENDSEC
0
SECTION
2
OBJECTS
0
DICTIONARY
5
C
100
AcDbDictionary
3
ACAD_GROUP
350
D
3
ACAD_MLINESTYLE
350
17
0
DICTIONARY
5
D
100
AcDbDictionary
0
DICTIONARY
5
1A
330
C
100
AcDbDictionary
0
DICTIONARY
5
17
100
AcDbDictionary
0
ENDSEC
0
EOF
