  0
SECTION
  2
HEADER
  9
$ACADVER
  1
AC1024
  9
$ACADMAINTVER
 70
     6
  9
$DWGCODEPAGE
  3
ANSI_1252
  9
$INSBASE
 10
0.0
 20
0.0
 30
0.0
  9
$EXTMIN
 10
1.000000000000000E+20
 20
1.000000000000000E+20
 30
1.000000000000000E+20
  9
$EXTMAX
 10
-1.000000000000000E+20
 20
-1.000000000000000E+20
 30
-1.000000000000000E+20
  9
$LIMMIN
 10
0.0
 20
0.0
  9
$LIMMAX
 10
12.0
 20
9.0
  9
$ORTHOMODE
 70
     0
  9
$REGENMODE
 70
     1
  9
$FILLMODE
 70
     1
  9
$QTEXTMODE
 70
     0
  9
$MIRRTEXT
 70
     1
  9
$LTSCALE
 40
1.0
  9
$ATTMODE
 70
     1
  9
$TEXTSIZE
 40
0.2
  9
$TRACEWID
 40
0.05
  9
$TEXTSTYLE
  7
Standard
  9
$CLAYER
  8
0
  9
$CELTYPE
  6
ByLayer
  9
$CECOLOR
 62
   256
  9
$CELTSCALE
 40
1.0
  9
$DISPSILH
 70
     0
  9
$DIMSCALE
 40
1.0
  9
$DIMASZ
 40
0.18
  9
$DIMEXO
 40
0.0625
  9
$DIMDLI
 40
0.38
  9
$DIMRND
 40
0.0
  9
$DIMDLE
 40
0.0
  9
$DIMEXE
 40
0.18
  9
$DIMTP
 40
0.0
  9
$DIMTM
 40
0.0
  9
$DIMTXT
 40
0.18
  9
$DIMCEN
 40
0.09
  9
$DIMTSZ
 40
0.0
  9
$DIMTOL
 70
     0
  9
$DIMLIM
 70
     0
  9
$DIMTIH
 70
     1
  9
$DIMTOH
 70
     1
  9
$DIMSE1
 70
     0
  9
$DIMSE2
 70
     0
  9
$DIMTAD
 70
     0
  9
$DIMZIN
 70
     0
  9
$DIMBLK
  1

  9
$DIMASO
 70
     1
  9
$DIMSHO
 70
     1
  9
$DIMPOST
  1

  9
$DIMAPOST
  1

  9
$DIMALT
 70
     0
  9
$DIMALTD
 70
     2
  9
$DIMALTF
 40
25.4
  9
$DIMLFAC
 40
1.0
  9
$DIMTOFL
 70
     0
  9
$DIMTVP
 40
0.0
  9
$DIMTIX
 70
     0
  9
$DIMSOXD
 70
     0
  9
$DIMSAH
 70
     0
  9
$DIMBLK1
  1

  9
$DIMBLK2
  1

  9
$DIMSTYLE
  2
Standard
  9
$DIMCLRD
 70
     0
  9
$DIMCLRE
 70
     0
  9
$DIMCLRT
 70
     0
  9
$DIMTFAC
 40
1.0
  9
$DIMGAP
 40
0.09
  9
$DIMJUST
 70
     0
  9
$DIMSD1
 70
     0
  9
$DIMSD2
 70
     0
  9
$DIMTOLJ
 70
     1
  9
$DIMTZIN
 70
     0
  9
$DIMALTZ
 70
     0
  9
$DIMALTTZ
 70
     0
  9
$DIMUPT
 70
     0
  9
$DIMDEC
 70
     4
  9
$DIMTDEC
 70
     4
  9
$DIMALTU
 70
     2
  9
$DIMALTTD
 70
     2
  9
$DIMTXSTY
  7
Standard
  9
$DIMAUNIT
 70
     0
  9
$DIMADEC
 70
     0
  9
$DIMALTRND
 40
0.0
  9
$DIMAZIN
 70
     0
  9
$DIMDSEP
 70
    46
  9
$DIMATFIT
 70
     3
  9
$DIMFRAC
 70
     0
  9
$DIMLDRBLK
  1

  9
$DIMLUNIT
 70
     2
  9
$DIMLWD
 70
    -2
  9
$DIMLWE
 70
    -2
  9
$DIMTMOVE
 70
     0
  9
$DIMFXL
 40
1.0
  9
$DIMFXLON
 70
     0
  9
$DIMJOGANG
 40
0.7853981633974483
  9
$DIMTFILL
 70
     0
  9
$DIMTFILLCLR
 70
     0
  9
$DIMARCSYM
 70
     0
  9
$DIMLTYPE
  6

  9
$DIMLTEX1
  6

  9
$DIMLTEX2
  6

  9
$DIMTXTDIRECTION
 70
     0
  9
$LUNITS
 70
     2
  9
$LUPREC
 70
     4
  9
$SKETCHINC
 40
0.1
  9
$FILLETRAD
 40
0.5
  9
$AUNITS
 70
     0
  9
$AUPREC
 70
     0
  9
$MENU
  1
.
  9
$ELEVATION
 40
0.0
  9
$PELEVATION
 40
0.0
  9
$THICKNESS
 40
0.0
  9
$LIMCHECK
 70
     0
  9
$CHAMFERA
 40
0.5
  9
$CHAMFERB
 40
0.5
  9
$CHAMFERC
 40
1.0
  9
$CHAMFERD
 40
0.0
  9
$SKPOLY
 70
     0
  9
$TDCREATE
 40
2459171.895898368
  9
$TDUCREATE
 40
2459172.229231701
  9
$TDUPDATE
 40
2459171.895898403
  9
$TDUUPDATE
 40
2459172.229231736
  9
$TDINDWG
 40
0.0000000116
  9
$TDUSRTIMER
 40
0.0000000116
  9
$USRTIMER
 70
     1
  9
$ANGBASE
 50
0.0
  9
$ANGDIR
 70
     0
  9
$PDMODE
 70
     0
  9
$PDSIZE
 40
0.0
  9
$PLINEWID
 40
0.0
  9
$SPLFRAME
 70
     0
  9
$SPLINETYPE
 70
     6
  9
$SPLINESEGS
 70
     8
  9
$HANDSEED
  5
CA
  9
$SURFTAB1
 70
     6
  9
$SURFTAB2
 70
     6
  9
$SURFTYPE
 70
     6
  9
$SURFU
 70
     6
  9
$SURFV
 70
     6
  9
$UCSBASE
  2

  9
$UCSNAME
  2

  9
$UCSORG
 10
0.0
 20
0.0
 30
0.0
  9
$UCSXDIR
 10
1.0
 20
0.0
 30
0.0
  9
$UCSYDIR
 10
0.0
 20
1.0
 30
0.0
  9
$UCSORTHOREF
  2

  9
$UCSORTHOVIEW
 70
     0
  9
$UCSORGTOP
 10
0.0
 20
0.0
 30
0.0
  9
$UCSORGBOTTOM
 10
0.0
 20
0.0
 30
0.0
  9
$UCSORGLEFT
 10
0.0
 20
0.0
 30
0.0
  9
$UCSORGRIGHT
 10
0.0
 20
0.0
 30
0.0
  9
$UCSORGFRONT
 10
0.0
 20
0.0
 30
0.0
  9
$UCSORGBACK
 10
0.0
 20
0.0
 30
0.0
  9
$PUCSBASE
  2

  9
$PUCSNAME
  2

  9
$PUCSORG
 10
0.0
 20
0.0
 30
0.0
  9
$PUCSXDIR
 10
1.0
 20
0.0
 30
0.0
  9
$PUCSYDIR
 10
0.0
 20
1.0
 30
0.0
  9
$PUCSORTHOREF
  2

  9
$PUCSORTHOVIEW
 70
     0
  9
$PUCSORGTOP
 10
0.0
 20
0.0
 30
0.0
  9
$PUCSORGBOTTOM
 10
0.0
 20
0.0
 30
0.0
  9
$PUCSORGLEFT
 10
0.0
 20
0.0
 30
0.0
  9
$PUCSORGRIGHT
 10
0.0
 20
0.0
 30
0.0
  9
$PUCSORGFRONT
 10
0.0
 20
0.0
 30
0.0
  9
$PUCSORGBACK
 10
0.0
 20
0.0
 30
0.0
  9
$USERI1
 70
     0
  9
$USERI2
 70
     0
  9
$USERI3
 70
     0
  9
$USERI4
 70
     0
  9
$USERI5
 70
     0
  9
$USERR1
 40
0.0
  9
$USERR2
 40
0.0
  9
$USERR3
 40
0.0
  9
$USERR4
 40
0.0
  9
$USERR5
 40
0.0
  9
$WORLDVIEW
 70
     1
  9
$SHADEDGE
 70
     3
  9
$SHADEDIF
 70
    70
  9
$TILEMODE
 70
     1
  9
$MAXACTVP
 70
    64
  9
$PINSBASE
 10
0.0
 20
0.0
 30
0.0
  9
$PLIMCHECK
 70
     0
  9
$PEXTMIN
 10
1.000000000000000E+20
 20
1.000000000000000E+20
 30
1.000000000000000E+20
  9
$PEXTMAX
 10
-1.000000000000000E+20
 20
-1.000000000000000E+20
 30
-1.000000000000000E+20
  9
$PLIMMIN
 10
0.0
 20
0.0
  9
$PLIMMAX
 10
12.0
 20
9.0
  9
$UNITMODE
 70
     0
  9
$VISRETAIN
 70
     1
  9
$PLINEGEN
 70
     0
  9
$PSLTSCALE
 70
     1
  9
$TREEDEPTH
 70
  3020
  9
$CMLSTYLE
  2
Standard
  9
$CMLJUST
 70
     0
  9
$CMLSCALE
 40
1.0
  9
$PROXYGRAPHICS
 70
     1
  9
$MEASUREMENT
 70
     0
  9
$CELWEIGHT
370
    -1
  9
$ENDCAPS
280
     0
  9
$JOINSTYLE
280
     0
  9
$LWDISPLAY
290
     1
  9
$INSUNITS
 70
     4
  9
$HYPERLINKBASE
  1

  9
$STYLESHEET
  1

  9
$XEDIT
290
     1
  9
$CEPSNTYPE
380
     0
  9
$PSTYLEMODE
290
     1
  9
$FINGERPRINTGUID
  2
{770CC54D-2F21-4311-A766-52485CB04388}
  9
$VERSIONGUID
  2
{FAEB1C32-E019-11D5-929B-00C0DF256EC4}
  9
$EXTNAMES
290
     1
  9
$PSVPSCALE
 40
0.0
  9
$OLESTARTUP
290
     0
  9
$SORTENTS
280
   127
  9
$INDEXCTL
280
     0
  9
$HIDETEXT
280
     1
  9
$XCLIPFRAME
280
     2
  9
$HALOGAP
280
     0
  9
$OBSCOLOR
 70
   257
  9
$OBSLTYPE
280
     0
  9
$INTERSECTIONDISPLAY
280
     0
  9
$INTERSECTIONCOLOR
 70
   257
  9
$DIMASSOC
280
     2
  9
$PROJECTNAME
  1

  9
$CAMERADISPLAY
290
     0
  9
$LENSLENGTH
 40
50.0
  9
$CAMERAHEIGHT
 40
0.0
  9
$STEPSPERSEC
 40
2.0
  9
$STEPSIZE
 40
6.0
  9
$3DDWFPREC
 40
2.0
  9
$PSOLWIDTH
 40
0.25
  9
$PSOLHEIGHT
 40
4.0
  9
$LOFTANG1
 40
1.570796326794897
  9
$LOFTANG2
 40
1.570796326794897
  9
$LOFTMAG1
 40
0.0
  9
$LOFTMAG2
 40
0.0
  9
$LOFTPARAM
 70
     7
  9
$LOFTNORMALS
280
     1
  9
$LATITUDE
 40
37.795
  9
$LONGITUDE
 40
-122.394
  9
$NORTHDIRECTION
 40
0.0
  9
$TIMEZONE
 70
 -8000
  9
$LIGHTGLYPHDISPLAY
280
     1
  9
$TILEMODELIGHTSYNCH
280
     1
  9
$CMATERIAL
347
3C
  9
$SOLIDHIST
280
     1
  9
$SHOWHIST
280
     1
  9
$DWFFRAME
280
     2
  9
$DGNFRAME
280
     2
  9
$REALWORLDSCALE
290
     1
  9
$INTERFERECOLOR
 62
   256
  9
$CSHADOW
280
     0
  9
$SHADOWPLANELOCATION
 40
0.0
  0
ENDSEC
  0
SECTION
  2
CLASSES
  0
CLASS
  1
ACDBDICTIONARYWDFLT
  2
AcDbDictionaryWithDefault
  3
ObjectDBX Classes
 90
        0
 91
        4
280
     0
281
     0
  0
CLASS
  1
VISUALSTYLE
  2
AcDbVisualStyle
  3
ObjectDBX Classes
 90
     4095
 91
        4
280
     0
281
     0
  0
CLASS
  1
MATERIAL
  2
AcDbMaterial
  3
ObjectDBX Classes
 90
     1153
 91
        4
280
     0
281
     0
  0
CLASS
  1
SUN
  2
AcDbSun
  3
SCENEOE
 90
     1024
 91
        4
280
     0
281
     0
  0
ENDSEC
  0
SECTION
  2
TABLES
  0
TABLE
  2
VPORT
  5
8
330
0
100
AcDbSymbolTable
 70
     1
  0
VPORT
  5
29
330
8
100
AcDbSymbolTableRecord
100
AcDbViewportTableRecord
  2
*Active
 70
     0
 10
0.0
 20
0.0
 11
1.0
 21
1.0
 12
0.0
 22
0.0
 13
0.0
 23
0.0
 14
0.5
 24
0.5
 15
0.5
 25
0.5
 16
0.0
 26
0.0
 36
1.0
 17
959.99999976
 27
539.999999865
 37
0.0
 40
1079.99999973
 41
1.777777777777778
 42
50.0
 43
0.0
 44
0.0
 50
0.0
 51
0.0
 71
     0
 72
   100
 73
     1
 74
     3
 75
     0
 76
     0
 77
     0
 78
     0
281
     0
 65
     1
110
0.0
120
0.0
130
0.0
111
1.0
121
0.0
131
0.0
112
0.0
122
1.0
132
0.0
 79
     0
146
0.0
 60
     3
 61
     5
292
     1
282
     1
141
0.0
142
0.0
 63
   250
361
3F
  0
ENDTAB
  0
TABLE
  2
LTYPE
  5
5
330
0
100
AcDbSymbolTable
 70
     1
  0
LTYPE
  5
14
330
5
100
AcDbSymbolTableRecord
100
AcDbLinetypeTableRecord
  2
ByBlock
 70
     0
  3

 72
    65
 73
     0
 40
0.0
  0
LTYPE
  5
15
330
5
100
AcDbSymbolTableRecord
100
AcDbLinetypeTableRecord
  2
ByLayer
 70
     0
  3

 72
    65
 73
     0
 40
0.0
  0
LTYPE
  5
16
330
5
100
AcDbSymbolTableRecord
100
AcDbLinetypeTableRecord
  2
Continuous
 70
     0
  3
Solid line
 72
    65
 73
     0
 40
0.0
  0
ENDTAB
  0
TABLE
  2
LAYER
  5
2
330
0
100
AcDbSymbolTable
 70
     1
  0
LAYER
  5
10
330
2
100
AcDbSymbolTableRecord
100
AcDbLayerTableRecord
  2
0
 70
     0
 62
     7
  6
Continuous
370
    -3
390
F
347
3E
  0
ENDTAB
  0
TABLE
  2
STYLE
  5
3
330
0
100
AcDbSymbolTable
 70
     1
  0
STYLE
  5
11
330
3
100
AcDbSymbolTableRecord
100
AcDbTextStyleTableRecord
  2
Standard
 70
     0
 40
0.0
 41
1.0
 50
0.0
 71
     0
 42
0.2
  3
txt
  4

  0
ENDTAB
  0
TABLE
  2
VIEW
  5
6
330
0
100
AcDbSymbolTable
 70
     0
  0
ENDTAB
  0
TABLE
  2
UCS
  5
7
330
0
100
AcDbSymbolTable
 70
     0
  0
ENDTAB
  0
TABLE
  2
APPID
  5
9
330
0
100
AcDbSymbolTable
 70
     1
  0
APPID
  5
12
330
9
100
AcDbSymbolTableRecord
100
AcDbRegAppTableRecord
  2
ACAD
 70
     0
  0
ENDTAB
  0
TABLE
  2
DIMSTYLE
  5
A
330
0
100
AcDbSymbolTable
 70
     1
100
AcDbDimStyleTable
  0
DIMSTYLE
105
27
330
A
100
AcDbSymbolTableRecord
100
AcDbDimStyleTableRecord
  2
Standard
 70
     0
178
     0
340
11
  0
ENDTAB
  0
TABLE
  2
BLOCK_RECORD
  5
1
330
0
100
AcDbSymbolTable
 70
    15
  0
BLOCK_RECORD
  5
1F
330
1
100
AcDbSymbolTableRecord
100
AcDbBlockTableRecord
  2
*Model_Space
340
22
 70
     0
280
     1
281
     0
  0
BLOCK_RECORD
  5
1B
330
1
100
AcDbSymbolTableRecord
100
AcDbBlockTableRecord
  2
*Paper_Space
340
1E
 70
     0
280
     1
281
     0
  0
BLOCK_RECORD
  5
23
330
1
100
AcDbSymbolTableRecord
100
AcDbBlockTableRecord
  2
*Paper_Space0
340
26
 70
     0
280
     1
281
     0
  0
BLOCK_RECORD
  5
40
330
1
100
AcDbSymbolTableRecord
100
AcDbBlockTableRecord
  2
block 2
340
0
102
{BLKREFS
331
41
102
}
 70
     0
280
     1
281
     0
  0
BLOCK_RECORD
  5
4F
330
1
100
AcDbSymbolTableRecord
100
AcDbBlockTableRecord
  2
block 3
340
0
102
{BLKREFS
331
50
102
}
 70
     0
280
     1
281
     0
  0
BLOCK_RECORD
  5
5A
330
1
100
AcDbSymbolTableRecord
100
AcDbBlockTableRecord
  2
block 4
340
0
102
{BLKREFS
331
5B
102
}
 70
     0
280
     1
281
     0
  0
BLOCK_RECORD
  5
5F
330
1
100
AcDbSymbolTableRecord
100
AcDbBlockTableRecord
  2
block 5
340
0
102
{BLKREFS
331
60
102
}
 70
     0
280
     1
281
     0
  0
BLOCK_RECORD
  5
6E
330
1
100
AcDbSymbolTableRecord
100
AcDbBlockTableRecord
  2
block 6
340
0
102
{BLKREFS
331
6F
102
}
 70
     0
280
     1
281
     0
  0
BLOCK_RECORD
  5
73
330
1
100
AcDbSymbolTableRecord
100
AcDbBlockTableRecord
  2
block 7
340
0
102
{BLKREFS
331
74
102
}
 70
     0
280
     1
281
     0
  0
BLOCK_RECORD
  5
78
330
1
100
AcDbSymbolTableRecord
100
AcDbBlockTableRecord
  2
block 8
340
0
102
{BLKREFS
331
79
102
}
 70
     0
280
     1
281
     0
  0
BLOCK_RECORD
  5
7D
330
1
100
AcDbSymbolTableRecord
100
AcDbBlockTableRecord
  2
block 9
340
0
102
{BLKREFS
331
7E
102
}
 70
     0
280
     1
281
     0
  0
BLOCK_RECORD
  5
82
330
1
100
AcDbSymbolTableRecord
100
AcDbBlockTableRecord
  2
block 10
340
0
102
{BLKREFS
331
83
102
}
 70
     0
280
     1
281
     0
  0
BLOCK_RECORD
  5
87
330
1
100
AcDbSymbolTableRecord
100
AcDbBlockTableRecord
  2
block 11
340
0
102
{BLKREFS
331
88
102
}
 70
     0
280
     1
281
     0
  0
BLOCK_RECORD
  5
8C
330
1
100
AcDbSymbolTableRecord
100
AcDbBlockTableRecord
  2
block 12
340
0
102
{BLKREFS
331
8D
102
}
 70
     0
280
     1
281
     0
  0
BLOCK_RECORD
  5
91
330
1
100
AcDbSymbolTableRecord
100
AcDbBlockTableRecord
  2
block 13
340
0
102
{BLKREFS
331
92
102
}
 70
     0
280
     1
281
     0
  0
BLOCK_RECORD
  5
96
330
1
100
AcDbSymbolTableRecord
100
AcDbBlockTableRecord
  2
block 14
340
0
102
{BLKREFS
331
97
102
}
 70
     0
280
     1
281
     0
  0
BLOCK_RECORD
  5
9B
330
1
100
AcDbSymbolTableRecord
100
AcDbBlockTableRecord
  2
block 15
340
0
102
{BLKREFS
331
9C
102
}
 70
     0
280
     1
281
     0
  0
ENDTAB
  0
ENDSEC
  0
SECTION
  2
BLOCKS
  0
BLOCK
  5
20
330
1F
100
AcDbEntity
  8
0
100
AcDbBlockBegin
  2
*Model_Space
 70
     0
 10
0.0
 20
0.0
 30
0.0
  3
*Model_Space
  1

  0
ENDBLK
  5
21
330
1F
100
AcDbEntity
  8
0
100
AcDbBlockEnd
  0
BLOCK
  5
1C
330
1B
100
AcDbEntity
 67
     1
  8
0
100
AcDbBlockBegin
  2
*Paper_Space
 70
     0
 10
0.0
 20
0.0
 30
0.0
  3
*Paper_Space
  1

  0
ENDBLK
  5
1D
330
1B
100
AcDbEntity
 67
     1
  8
0
100
AcDbBlockEnd
  0
BLOCK
  5
24
330
23
100
AcDbEntity
  8
0
100
AcDbBlockBegin
  2
*Paper_Space0
 70
     0
 10
0.0
 20
0.0
 30
0.0
  3
*Paper_Space0
  1

  0
ENDBLK
  5
25
330
23
100
AcDbEntity
  8
0
100
AcDbBlockEnd
  0
BLOCK
  5
42
330
40
100
AcDbEntity
  8
0
100
AcDbBlockBegin
  2
block 2
 70
     0
 10
0.0
 20
0.0
 30
0.0
  3
block 2
  1

  0
POLYLINE
  5
44
330
40
100
AcDbEntity
  8
0
 62
     7
420
 16777215
370
    25
100
AcDb2dPolyline
 66
     1
 10
0.0
 20
0.0
 30
0.0
  0
VERTEX
  5
45
330
44
100
AcDbEntity
  8
0
 62
     7
420
 16777215
370
    25
100
AcDbVertex
100
AcDb2dVertex
 10
813.4741349203231
 20
593.2593740199765
 30
0.0
  0
VERTEX
  5
46
330
44
100
AcDbEntity
  8
0
 62
     7
420
 16777215
370
    25
100
AcDbVertex
100
AcDb2dVertex
 10
813.4741349203231
 20
573.2593740249764
 30
0.0
  0
VERTEX
  5
47
330
44
100
AcDbEntity
  8
0
 62
     7
420
 16777215
370
    25
100
AcDbVertex
100
AcDb2dVertex
 10
832.5241349155608
 20
573.2593740249764
 30
0.0
  0
VERTEX
  5
48
330
44
100
AcDbEntity
  8
0
 62
     7
420
 16777215
370
    25
100
AcDbVertex
100
AcDb2dVertex
 10
832.5241349155608
 20
554.2093740297388
 30
0.0
  0
VERTEX
  5
49
330
44
100
AcDbEntity
  8
0
 62
     7
420
 16777215
370
    25
100
AcDbVertex
100
AcDb2dVertex
 10
852.5241349105607
 20
554.2093740297388
 30
0.0
  0
VERTEX
  5
4A
330
44
100
AcDbEntity
  8
0
 62
     7
420
 16777215
370
    25
100
AcDbVertex
100
AcDb2dVertex
 10
852.5241349105607
 20
573.2593740249764
 30
0.0
  0
VERTEX
  5
4B
330
44
100
AcDbEntity
  8
0
 62
     7
420
 16777215
370
    25
100
AcDbVertex
100
AcDb2dVertex
 10
871.5741349057985
 20
573.2593740249764
 30
0.0
  0
VERTEX
  5
4C
330
44
100
AcDbEntity
  8
0
 62
     7
420
 16777215
370
    25
100
AcDbVertex
100
AcDb2dVertex
 10
871.5741349057985
 20
593.2593740199765
 30
0.0
  0
VERTEX
  5
4D
330
44
100
AcDbEntity
  8
0
 62
     7
420
 16777215
370
    25
100
AcDbVertex
100
AcDb2dVertex
 10
813.4741349203231
 20
593.2593740199765
 30
0.0
  0
SEQEND
  5
4E
330
44
100
AcDbEntity
  8
0
 62
     7
420
 16777215
370
    25
  0
ENDBLK
  5
43
330
40
100
AcDbEntity
  8
0
100
AcDbBlockEnd
  0
BLOCK
  5
51
330
4F
100
AcDbEntity
  8
0
100
AcDbBlockBegin
  2
block 3
 70
     0
 10
0.0
 20
0.0
 30
0.0
  3
block 3
  1

  0
POLYLINE
  5
53
330
4F
100
AcDbEntity
  8
0
 62
     7
420
 16777215
370
    25
100
AcDb2dPolyline
 66
     1
 10
0.0
 20
0.0
 30
0.0
  0
VERTEX
  5
54
330
53
100
AcDbEntity
  8
0
 62
     7
420
 16777215
370
    25
100
AcDbVertex
100
AcDb2dVertex
 10
823.3522192152838
 20
553.9629310976233
 30
0.0
  0
VERTEX
  5
55
330
53
100
AcDbEntity
  8
0
 62
     7
420
 16777215
370
    25
100
AcDbVertex
100
AcDb2dVertex
 10
809.3522192187838
 20
553.9629310976233
 30
0.0
  0
VERTEX
  5
56
330
53
100
AcDbEntity
  8
0
 62
     7
420
 16777215
370
    25
100
AcDbVertex
100
AcDb2dVertex
 10
809.3522192187838
 20
513.9629311076231
 30
0.0
  0
VERTEX
  5
57
330
53
100
AcDbEntity
  8
0
 62
     7
420
 16777215
370
    25
100
AcDbVertex
100
AcDb2dVertex
 10
823.3522192152828
 20
513.9629311076231
 30
0.0
  0
VERTEX
  5
58
330
53
100
AcDbEntity
  8
0
 62
     7
420
 16777215
370
    25
100
AcDbVertex
100
AcDb2dVertex
 10
823.3522192152838
 20
553.9629310976233
 30
0.0
  0
SEQEND
  5
59
330
53
100
AcDbEntity
  8
0
 62
     7
420
 16777215
370
    25
  0
ENDBLK
  5
52
330
4F
100
AcDbEntity
  8
0
100
AcDbBlockEnd
  0
BLOCK
  5
5C
330
5A
100
AcDbEntity
  8
0
100
AcDbBlockBegin
  2
block 4
 70
     0
 10
0.0
 20
0.0
 30
0.0
  3
block 4
  1

  0
SPLINE
  5
5E
330
5A
100
AcDbEntity
  8
0
 62
     7
420
 16777215
370
    25
100
AcDbSpline
210
0.0
220
0.0
230
1.0
 70
    11
 71
     3
 72
    29
 73
    25
 74
     0
 42
0.0000000001
 43
0.0000000001
 12
1.0
 22
0.0
 32
0.0
 13
1.0
 23
0.0
 33
0.0
 40
0.0
 40
0.0
 40
0.0
 40
0.0
 40
1.0
 40
1.0
 40
1.0
 40
2.0
 40
2.0
 40
2.0
 40
3.0
 40
3.0
 40
3.0
 40
4.0
 40
4.0
 40
4.0
 40
5.0
 40
5.0
 40
5.0
 40
6.0
 40
6.0
 40
6.0
 40
7.0
 40
7.0
 40
7.0
 40
8.0
 40
8.0
 40
8.0
 40
8.0
 10
1119.988438054323
 20
484.2155948103007
 30
0.0
 10
1119.988438054323
 20
481.4541710618367
 30
0.0
 10
1117.749861804037
 20
479.2155948115507
 30
0.0
 10
1114.988438055572
 20
479.2155948115507
 30
0.0
 10
1114.988438055572
 20
479.2155948115507
 30
0.0
 10
805.0115614644275
 20
479.2155948115507
 30
0.0
 10
805.0115614644275
 20
479.2155948115507
 30
0.0
 10
802.2501377159634
 20
479.2155948115507
 30
0.0
 10
800.0115614656775
 20
481.4541710618367
 30
0.0
 10
800.0115614656775
 20
484.2155948103007
 30
0.0
 10
800.0115614656775
 20
484.2155948103007
 30
0.0
 10
800.0115614656775
 20
595.7844049196992
 30
0.0
 10
800.0115614656775
 20
595.7844049196992
 30
0.0
 10
800.0115614656775
 20
598.5458286681633
 30
0.0
 10
802.2501377159634
 20
600.7844049184492
 30
0.0
 10
805.0115614644275
 20
600.7844049184492
 30
0.0
 10
805.0115614644275
 20
600.7844049184492
 30
0.0
 10
1114.988438055572
 20
600.7844049184492
 30
0.0
 10
1114.988438055572
 20
600.7844049184492
 30
0.0
 10
1117.749861804037
 20
600.7844049184492
 30
0.0
 10
1119.988438054323
 20
598.5458286681633
 30
0.0
 10
1119.988438054323
 20
595.7844049196992
 30
0.0
 10
1119.988438054323
 20
595.7844049196992
 30
0.0
 10
1119.988438054323
 20
484.2155948103007
 30
0.0
 10
1119.988438054323
 20
484.2155948103007
 30
0.0
  0
ENDBLK
  5
5D
330
5A
100
AcDbEntity
  8
0
100
AcDbBlockEnd
  0
BLOCK
  5
61
330
5F
100
AcDbEntity
  8
0
100
AcDbBlockBegin
  2
block 5
 70
     0
 10
0.0
 20
0.0
 30
0.0
  3
block 5
  1

  0
POLYLINE
  5
63
330
5F
100
AcDbEntity
  8
0
 62
     7
420
 16777215
370
    25
100
AcDb2dPolyline
 66
     1
 10
0.0
 20
0.0
 30
0.0
  0
VERTEX
  5
64
330
63
100
AcDbEntity
  8
0
 62
     7
420
 16777215
370
    25
100
AcDbVertex
100
AcDb2dVertex
 10
827.7616349167516
 20
492.2968740452165
 30
0.0
  0
VERTEX
  5
65
330
63
100
AcDbEntity
  8
0
 62
     7
420
 16777215
370
    25
100
AcDbVertex
100
AcDb2dVertex
 10
1114.463438055704
 20
492.2968740452165
 30
0.0
  0
VERTEX
  5
66
330
63
100
AcDbEntity
  8
0
 62
     7
420
 16777215
370
    25
100
AcDbVertex
100
AcDb2dVertex
 10
1114.463438055704
 20
588.4968740211673
 30
0.0
  0
VERTEX
  5
67
330
63
100
AcDbEntity
  8
0
 62
     7
420
 16777215
370
    25
100
AcDbVertex
100
AcDb2dVertex
 10
875.3866349048453
 20
588.4968740211673
 30
0.0
  0
VERTEX
  5
68
330
63
100
AcDbEntity
  8
0
 62
     7
420
 16777215
370
    25
100
AcDbVertex
100
AcDb2dVertex
 10
875.3866349048453
 20
569.4468740259296
 30
0.0
  0
VERTEX
  5
69
330
63
100
AcDbEntity
  8
0
 62
     7
420
 16777215
370
    25
100
AcDbVertex
100
AcDb2dVertex
 10
856.3366349096077
 20
569.4468740259296
 30
0.0
  0
VERTEX
  5
6A
330
63
100
AcDbEntity
  8
0
 62
     7
420
 16777215
370
    25
100
AcDbVertex
100
AcDb2dVertex
 10
856.3366349096077
 20
550.3968740306918
 30
0.0
  0
VERTEX
  5
6B
330
63
100
AcDbEntity
  8
0
 62
     7
420
 16777215
370
    25
100
AcDbVertex
100
AcDb2dVertex
 10
827.7616349167516
 20
550.3968740306918
 30
0.0
  0
VERTEX
  5
6C
330
63
100
AcDbEntity
  8
0
 62
     7
420
 16777215
370
    25
100
AcDbVertex
100
AcDb2dVertex
 10
827.7616349167516
 20
492.2968740452165
 30
0.0
  0
SEQEND
  5
6D
330
63
100
AcDbEntity
  8
0
 62
     7
420
 16777215
370
    25
  0
ENDBLK
  5
62
330
5F
100
AcDbEntity
  8
0
100
AcDbBlockEnd
  0
BLOCK
  5
70
330
6E
100
AcDbEntity
  8
0
100
AcDbBlockBegin
  2
block 6
 70
     0
 10
0.0
 20
0.0
 30
0.0
  3
block 6
  1

  0
SPLINE
  5
72
330
6E
100
AcDbEntity
  8
0
 62
     7
420
 16777215
370
    25
100
AcDbSpline
210
0.0
220
0.0
230
1.0
 70
    11
 71
     3
 72
    20
 73
    16
 74
     0
 42
0.0000000001
 43
0.0000000001
 12
1.0
 22
0.0
 32
0.0
 13
1.0
 23
0.0
 33
0.0
 40
0.0
 40
0.0
 40
0.0
 40
0.0
 40
1.0
 40
1.0
 40
1.0
 40
2.0
 40
2.0
 40
2.0
 40
3.0
 40
3.0
 40
3.0
 40
4.0
 40
4.0
 40
4.0
 40
5.0
 40
5.0
 40
5.0
 40
5.0
 10
905.4557806064761
 20
483.7405948104191
 30
0.0
 10
905.4557806064761
 20
484.5966361724432
 30
0.0
 10
906.1497392440646
 20
485.2905948100327
 30
0.0
 10
907.0057806060887
 20
485.2905948100327
 30
0.0
 10
907.8618219681119
 20
485.2905948100327
 30
0.0
 10
908.5557806057005
 20
484.5966361724432
 30
0.0
 10
908.5557806057014
 20
483.7405948104191
 30
0.0
 10
908.5557806057005
 20
482.884553448395
 30
0.0
 10
907.8618219681119
 20
482.1905948108073
 30
0.0
 10
907.0057806060887
 20
482.1905948108073
 30
0.0
 10
906.1497392440646
 20
482.1905948108073
 30
0.0
 10
905.4557806064761
 20
482.884553448395
 30
0.0
 10
905.4557806064761
 20
483.7405948104191
 30
0.0
 10
905.4557806064761
 20
483.7405948104191
 30
0.0
 10
905.4557806064761
 20
483.7405948104191
 30
0.0
 10
905.4557806064761
 20
483.7405948104191
 30
0.0
  0
ENDBLK
  5
71
330
6E
100
AcDbEntity
  8
0
100
AcDbBlockEnd
  0
BLOCK
  5
75
330
73
100
AcDbEntity
  8
0
100
AcDbBlockBegin
  2
block 7
 70
     0
 10
0.0
 20
0.0
 30
0.0
  3
block 7
  1

  0
SPLINE
  5
77
330
73
100
AcDbEntity
  8
0
 62
     7
420
 16777215
370
    25
100
AcDbSpline
210
0.0
220
0.0
230
1.0
 70
    11
 71
     3
 72
    20
 73
    16
 74
     0
 42
0.0000000001
 43
0.0000000001
 12
1.0
 22
0.0
 32
0.0
 13
1.0
 23
0.0
 33
0.0
 40
0.0
 40
0.0
 40
0.0
 40
0.0
 40
1.0
 40
1.0
 40
1.0
 40
2.0
 40
2.0
 40
2.0
 40
3.0
 40
3.0
 40
3.0
 40
4.0
 40
4.0
 40
4.0
 40
5.0
 40
5.0
 40
5.0
 40
5.0
 10
1011.444218914299
 20
596.2594049195809
 30
0.0
 10
1011.444218914299
 20
597.1154462816049
 30
0.0
 10
1012.138177551887
 20
597.8094049191935
 30
0.0
 10
1012.994218913911
 20
597.8094049191935
 30
0.0
 10
1013.850260275935
 20
597.8094049191935
 30
0.0
 10
1014.544218913523
 20
597.1154462816049
 30
0.0
 10
1014.544218913523
 20
596.2594049195809
 30
0.0
 10
1014.544218913523
 20
595.4033635575568
 30
0.0
 10
1013.850260275935
 20
594.7094049199682
 30
0.0
 10
1012.994218913911
 20
594.7094049199682
 30
0.0
 10
1012.138177551887
 20
594.7094049199682
 30
0.0
 10
1011.444218914299
 20
595.4033635575568
 30
0.0
 10
1011.444218914299
 20
596.2594049195809
 30
0.0
 10
1011.444218914299
 20
596.2594049195809
 30
0.0
 10
1011.444218914299
 20
596.2594049195809
 30
0.0
 10
1011.444218914299
 20
596.2594049195809
 30
0.0
  0
ENDBLK
  5
76
330
73
100
AcDbEntity
  8
0
100
AcDbBlockEnd
  0
BLOCK
  5
7A
330
78
100
AcDbEntity
  8
0
100
AcDbBlockBegin
  2
block 8
 70
     0
 10
0.0
 20
0.0
 30
0.0
  3
block 8
  1

  0
SPLINE
  5
7C
330
78
100
AcDbEntity
  8
0
 62
     7
420
 16777215
370
    25
100
AcDbSpline
210
0.0
220
0.0
230
1.0
 70
    11
 71
     3
 72
    20
 73
    16
 74
     0
 42
0.0000000001
 43
0.0000000001
 12
1.0
 22
0.0
 32
0.0
 13
1.0
 23
0.0
 33
0.0
 40
0.0
 40
0.0
 40
0.0
 40
0.0
 40
1.0
 40
1.0
 40
1.0
 40
2.0
 40
2.0
 40
2.0
 40
3.0
 40
3.0
 40
3.0
 40
4.0
 40
4.0
 40
4.0
 40
5.0
 40
5.0
 40
5.0
 40
5.0
 10
905.4557806064761
 20
596.2594049195809
 30
0.0
 10
905.4557806064761
 20
597.1154462816049
 30
0.0
 10
906.1497392440646
 20
597.8094049191935
 30
0.0
 10
907.0057806060887
 20
597.8094049191935
 30
0.0
 10
907.8618219681119
 20
597.8094049191935
 30
0.0
 10
908.5557806057005
 20
597.1154462816049
 30
0.0
 10
908.5557806057014
 20
596.2594049195809
 30
0.0
 10
908.5557806057005
 20
595.4033635575568
 30
0.0
 10
907.8618219681119
 20
594.7094049199682
 30
0.0
 10
907.0057806060887
 20
594.7094049199682
 30
0.0
 10
906.1497392440646
 20
594.7094049199682
 30
0.0
 10
905.4557806064761
 20
595.4033635575568
 30
0.0
 10
905.4557806064761
 20
596.2594049195809
 30
0.0
 10
905.4557806064761
 20
596.2594049195809
 30
0.0
 10
905.4557806064761
 20
596.2594049195809
 30
0.0
 10
905.4557806064761
 20
596.2594049195809
 30
0.0
  0
ENDBLK
  5
7B
330
78
100
AcDbEntity
  8
0
100
AcDbBlockEnd
  0
BLOCK
  5
7F
330
7D
100
AcDbEntity
  8
0
100
AcDbBlockBegin
  2
block 9
 70
     0
 10
0.0
 20
0.0
 30
0.0
  3
block 9
  1

  0
SPLINE
  5
81
330
7D
100
AcDbEntity
  8
0
 62
     7
420
 16777215
370
    25
100
AcDbSpline
210
0.0
220
0.0
230
1.0
 70
    11
 71
     3
 72
    20
 73
    16
 74
     0
 42
0.0000000001
 43
0.0000000001
 12
1.0
 22
0.0
 32
0.0
 13
1.0
 23
0.0
 33
0.0
 40
0.0
 40
0.0
 40
0.0
 40
0.0
 40
1.0
 40
1.0
 40
1.0
 40
2.0
 40
2.0
 40
2.0
 40
3.0
 40
3.0
 40
3.0
 40
4.0
 40
4.0
 40
4.0
 40
5.0
 40
5.0
 40
5.0
 40
5.0
 10
1011.444218914299
 20
483.7405948104191
 30
0.0
 10
1011.444218914299
 20
484.5966361724432
 30
0.0
 10
1012.138177551887
 20
485.2905948100327
 30
0.0
 10
1012.994218913911
 20
485.2905948100327
 30
0.0
 10
1013.850260275935
 20
485.2905948100327
 30
0.0
 10
1014.544218913523
 20
484.5966361724432
 30
0.0
 10
1014.544218913523
 20
483.7405948104191
 30
0.0
 10
1014.544218913523
 20
482.884553448395
 30
0.0
 10
1013.850260275935
 20
482.1905948108073
 30
0.0
 10
1012.994218913911
 20
482.1905948108073
 30
0.0
 10
1012.138177551887
 20
482.1905948108073
 30
0.0
 10
1011.444218914299
 20
482.884553448395
 30
0.0
 10
1011.444218914299
 20
483.7405948104191
 30
0.0
 10
1011.444218914299
 20
483.7405948104191
 30
0.0
 10
1011.444218914299
 20
483.7405948104191
 30
0.0
 10
1011.444218914299
 20
483.7405948104191
 30
0.0
  0
ENDBLK
  5
80
330
7D
100
AcDbEntity
  8
0
100
AcDbBlockEnd
  0
BLOCK
  5
84
330
82
100
AcDbEntity
  8
0
100
AcDbBlockBegin
  2
block 10
 70
     0
 10
0.0
 20
0.0
 30
0.0
  3
block 10
  1

  0
SPLINE
  5
86
330
82
100
AcDbEntity
  8
0
 62
     7
420
 16777215
370
    25
100
AcDbSpline
210
0.0
220
0.0
230
1.0
 70
    11
 71
     3
 72
    20
 73
    16
 74
     0
 42
0.0000000001
 43
0.0000000001
 12
1.0
 22
0.0
 32
0.0
 13
1.0
 23
0.0
 33
0.0
 40
0.0
 40
0.0
 40
0.0
 40
0.0
 40
1.0
 40
1.0
 40
1.0
 40
2.0
 40
2.0
 40
2.0
 40
3.0
 40
3.0
 40
3.0
 40
4.0
 40
4.0
 40
4.0
 40
5.0
 40
5.0
 40
5.0
 40
5.0
 10
803.9865614646832
 20
483.7405948104191
 30
0.0
 10
803.9865614646832
 20
484.5966361724432
 30
0.0
 10
804.6805201022718
 20
485.2905948100327
 30
0.0
 10
805.5365614642958
 20
485.2905948100327
 30
0.0
 10
806.39260282632
 20
485.2905948100327
 30
0.0
 10
807.0865614639085
 20
484.5966361724432
 30
0.0
 10
807.0865614639085
 20
483.7405948104191
 30
0.0
 10
807.0865614639085
 20
482.884553448395
 30
0.0
 10
806.39260282632
 20
482.1905948108073
 30
0.0
 10
805.5365614642958
 20
482.1905948108073
 30
0.0
 10
804.6805201022718
 20
482.1905948108073
 30
0.0
 10
803.9865614646832
 20
482.884553448395
 30
0.0
 10
803.9865614646832
 20
483.7405948104191
 30
0.0
 10
803.9865614646832
 20
483.7405948104191
 30
0.0
 10
803.9865614646832
 20
483.7405948104191
 30
0.0
 10
803.9865614646832
 20
483.7405948104191
 30
0.0
  0
ENDBLK
  5
85
330
82
100
AcDbEntity
  8
0
100
AcDbBlockEnd
  0
BLOCK
  5
89
330
87
100
AcDbEntity
  8
0
100
AcDbBlockBegin
  2
block 11
 70
     0
 10
0.0
 20
0.0
 30
0.0
  3
block 11
  1

  0
SPLINE
  5
8B
330
87
100
AcDbEntity
  8
0
 62
     7
420
 16777215
370
    25
100
AcDbSpline
210
0.0
220
0.0
230
1.0
 70
    11
 71
     3
 72
    20
 73
    16
 74
     0
 42
0.0000000001
 43
0.0000000001
 12
1.0
 22
0.0
 32
0.0
 13
1.0
 23
0.0
 33
0.0
 40
0.0
 40
0.0
 40
0.0
 40
0.0
 40
1.0
 40
1.0
 40
1.0
 40
2.0
 40
2.0
 40
2.0
 40
3.0
 40
3.0
 40
3.0
 40
4.0
 40
4.0
 40
4.0
 40
5.0
 40
5.0
 40
5.0
 40
5.0
 10
1112.913438056091
 20
596.2594049195809
 30
0.0
 10
1112.913438056091
 20
597.1154462816049
 30
0.0
 10
1113.60739669368
 20
597.8094049191935
 30
0.0
 10
1114.463438055704
 20
597.8094049191935
 30
0.0
 10
1115.319479417728
 20
597.8094049191935
 30
0.0
 10
1116.013438055316
 20
597.1154462816049
 30
0.0
 10
1116.013438055316
 20
596.2594049195809
 30
0.0
 10
1116.013438055316
 20
595.4033635575568
 30
0.0
 10
1115.319479417728
 20
594.7094049199682
 30
0.0
 10
1114.463438055704
 20
594.7094049199682
 30
0.0
 10
1113.60739669368
 20
594.7094049199682
 30
0.0
 10
1112.913438056091
 20
595.4033635575568
 30
0.0
 10
1112.913438056091
 20
596.2594049195809
 30
0.0
 10
1112.913438056091
 20
596.2594049195809
 30
0.0
 10
1112.913438056091
 20
596.2594049195809
 30
0.0
 10
1112.913438056091
 20
596.2594049195809
 30
0.0
  0
ENDBLK
  5
8A
330
87
100
AcDbEntity
  8
0
100
AcDbBlockEnd
  0
BLOCK
  5
8E
330
8C
100
AcDbEntity
  8
0
100
AcDbBlockBegin
  2
block 12
 70
     0
 10
0.0
 20
0.0
 30
0.0
  3
block 12
  1

  0
SPLINE
  5
90
330
8C
100
AcDbEntity
  8
0
 62
     7
420
 16777215
370
    25
100
AcDbSpline
210
0.0
220
0.0
230
1.0
 70
    11
 71
     3
 72
    20
 73
    16
 74
     0
 42
0.0000000001
 43
0.0000000001
 12
1.0
 22
0.0
 32
0.0
 13
1.0
 23
0.0
 33
0.0
 40
0.0
 40
0.0
 40
0.0
 40
0.0
 40
1.0
 40
1.0
 40
1.0
 40
2.0
 40
2.0
 40
2.0
 40
3.0
 40
3.0
 40
3.0
 40
4.0
 40
4.0
 40
4.0
 40
5.0
 40
5.0
 40
5.0
 40
5.0
 10
803.9865614646832
 20
596.2594049195809
 30
0.0
 10
803.9865614646832
 20
597.1154462816049
 30
0.0
 10
804.6805201022718
 20
597.8094049191935
 30
0.0
 10
805.5365614642958
 20
597.8094049191935
 30
0.0
 10
806.39260282632
 20
597.8094049191935
 30
0.0
 10
807.0865614639085
 20
597.1154462816049
 30
0.0
 10
807.0865614639085
 20
596.2594049195809
 30
0.0
 10
807.0865614639085
 20
595.4033635575568
 30
0.0
 10
806.39260282632
 20
594.7094049199682
 30
0.0
 10
805.5365614642958
 20
594.7094049199682
 30
0.0
 10
804.6805201022718
 20
594.7094049199682
 30
0.0
 10
803.9865614646832
 20
595.4033635575568
 30
0.0
 10
803.9865614646832
 20
596.2594049195809
 30
0.0
 10
803.9865614646832
 20
596.2594049195809
 30
0.0
 10
803.9865614646832
 20
596.2594049195809
 30
0.0
 10
803.9865614646832
 20
596.2594049195809
 30
0.0
  0
ENDBLK
  5
8F
330
8C
100
AcDbEntity
  8
0
100
AcDbBlockEnd
  0
BLOCK
  5
93
330
91
100
AcDbEntity
  8
0
100
AcDbBlockBegin
  2
block 13
 70
     0
 10
0.0
 20
0.0
 30
0.0
  3
block 13
  1

  0
SPLINE
  5
95
330
91
100
AcDbEntity
  8
0
 62
     7
420
 16777215
370
    25
100
AcDbSpline
210
0.0
220
0.0
230
1.0
 70
    11
 71
     3
 72
    20
 73
    16
 74
     0
 42
0.0000000001
 43
0.0000000001
 12
1.0
 22
0.0
 32
0.0
 13
1.0
 23
0.0
 33
0.0
 40
0.0
 40
0.0
 40
0.0
 40
0.0
 40
1.0
 40
1.0
 40
1.0
 40
2.0
 40
2.0
 40
2.0
 40
3.0
 40
3.0
 40
3.0
 40
4.0
 40
4.0
 40
4.0
 40
5.0
 40
5.0
 40
5.0
 40
5.0
 10
1112.913438056091
 20
483.7405948104191
 30
0.0
 10
1112.913438056091
 20
484.5966361724432
 30
0.0
 10
1113.60739669368
 20
485.2905948100327
 30
0.0
 10
1114.463438055704
 20
485.2905948100327
 30
0.0
 10
1115.319479417728
 20
485.2905948100327
 30
0.0
 10
1116.013438055316
 20
484.5966361724432
 30
0.0
 10
1116.013438055316
 20
483.7405948104191
 30
0.0
 10
1116.013438055316
 20
482.884553448395
 30
0.0
 10
1115.319479417728
 20
482.1905948108073
 30
0.0
 10
1114.463438055704
 20
482.1905948108073
 30
0.0
 10
1113.60739669368
 20
482.1905948108073
 30
0.0
 10
1112.913438056091
 20
482.884553448395
 30
0.0
 10
1112.913438056091
 20
483.7405948104191
 30
0.0
 10
1112.913438056091
 20
483.7405948104191
 30
0.0
 10
1112.913438056091
 20
483.7405948104191
 30
0.0
 10
1112.913438056091
 20
483.7405948104191
 30
0.0
  0
ENDBLK
  5
94
330
91
100
AcDbEntity
  8
0
100
AcDbBlockEnd
  0
BLOCK
  5
98
330
96
100
AcDbEntity
  8
0
100
AcDbBlockBegin
  2
block 14
 70
     0
 10
0.0
 20
0.0
 30
0.0
  3
block 14
  1

  0
SPLINE
  5
9A
330
96
100
AcDbEntity
  8
0
 62
     7
420
 16777215
370
    25
100
AcDbSpline
210
0.0
220
0.0
230
1.0
 70
    11
 71
     3
 72
    20
 73
    16
 74
     0
 42
0.0000000001
 43
0.0000000001
 12
1.0
 22
0.0
 32
0.0
 13
1.0
 23
0.0
 33
0.0
 40
0.0
 40
0.0
 40
0.0
 40
0.0
 40
1.0
 40
1.0
 40
1.0
 40
2.0
 40
2.0
 40
2.0
 40
3.0
 40
3.0
 40
3.0
 40
4.0
 40
4.0
 40
4.0
 40
5.0
 40
5.0
 40
5.0
 40
5.0
 10
807.8303967753866
 20
502.2842114810584
 30
0.0
 10
807.8303967753866
 20
506.9786318534468
 30
0.0
 10
811.6359764008731
 20
510.7842114789334
 30
0.0
 10
816.3303967732616
 20
510.7842114789334
 30
0.0
 10
821.0248171456491
 20
510.7842114789334
 30
0.0
 10
824.8303967711366
 20
506.9786318534468
 30
0.0
 10
824.8303967711366
 20
502.2842114810584
 30
0.0
 10
824.8303967711366
 20
497.5897911086718
 30
0.0
 10
821.0248171456491
 20
493.7842114831834
 30
0.0
 10
816.3303967732616
 20
493.7842114831834
 30
0.0
 10
811.6359764008731
 20
493.7842114831834
 30
0.0
 10
807.8303967753866
 20
497.5897911086718
 30
0.0
 10
807.8303967753866
 20
502.2842114810584
 30
0.0
 10
807.8303967753866
 20
502.2842114810584
 30
0.0
 10
807.8303967753866
 20
502.2842114810584
 30
0.0
 10
807.8303967753866
 20
502.2842114810584
 30
0.0
  0
ENDBLK
  5
99
330
96
100
AcDbEntity
  8
0
100
AcDbBlockEnd
  0
BLOCK
  5
9D
330
9B
100
AcDbEntity
  8
0
100
AcDbBlockBegin
  2
block 15
 70
     0
 10
0.0
 20
0.0
 30
0.0
  3
block 15
  1

  0
SPLINE
  5
9F
330
9B
100
AcDbEntity
  8
0
 62
   240
420
 15539236
370
    35
100
AcDbSpline
210
0.0
220
0.0
230
1.0
 70
    11
 71
     3
 72
    71
 73
    67
 74
     0
 42
0.0000000001
 43
0.0000000001
 12
1.0
 22
0.0
 32
0.0
 13
1.0
 23
0.0
 33
0.0
 40
0.0
 40
0.0
 40
0.0
 40
0.0
 40
1.0
 40
1.0
 40
1.0
 40
2.0
 40
2.0
 40
2.0
 40
3.0
 40
3.0
 40
3.0
 40
4.0
 40
4.0
 40
4.0
 40
5.0
 40
5.0
 40
5.0
 40
6.0
 40
6.0
 40
6.0
 40
7.0
 40
7.0
 40
7.0
 40
8.0
 40
8.0
 40
8.0
 40
9.0
 40
9.0
 40
9.0
 40
10.0
 40
10.0
 40
10.0
 40
11.0
 40
11.0
 40
11.0
 40
12.0
 40
12.0
 40
12.0
 40
13.0
 40
13.0
 40
13.0
 40
14.0
 40
14.0
 40
14.0
 40
15.0
 40
15.0
 40
15.0
 40
16.0
 40
16.0
 40
16.0
 40
17.0
 40
17.0
 40
17.0
 40
18.0
 40
18.0
 40
18.0
 40
19.0
 40
19.0
 40
19.0
 40
20.0
 40
20.0
 40
20.0
 40
21.0
 40
21.0
 40
21.0
 40
22.0
 40
22.0
 40
22.0
 40
22.0
 10
811.5830076096042
 20
606.0854490672286
 30
0.0
 10
811.5830076096042
 20
606.0854490672286
 30
0.0
 10
809.5317380788671
 20
614.1689451589577
 30
0.0
 10
809.5317380788671
 20
614.1689451589577
 30
0.0
 10
809.5317380788671
 20
614.1689451589577
 30
0.0
 10
810.6352537035912
 20
614.1689451589577
 30
0.0
 10
810.6352537035912
 20
614.1689451589577
 30
0.0
 10
810.6352537035912
 20
614.1689451589577
 30
0.0
 10
811.5947263596013
 20
610.0791014099802
 30
0.0
 10
811.5947263596013
 20
610.0791014099802
 30
0.0
 10
811.8344724532914
 20
609.071777191482
 30
0.0
 10
812.0507810469873
 20
608.0644529729839
 30
0.0
 10
812.1943357344514
 20
607.2846678169288
 30
0.0
 10
812.1943357344514
 20
607.2846678169288
 30
0.0
 10
812.2182615156954
 20
607.2846678169288
 30
0.0
 10
812.2182615156954
 20
607.2846678169288
 30
0.0
 10
812.3505857344123
 20
608.0883787542278
 30
0.0
 10
812.6020505780995
 20
609.047851410238
 30
0.0
 10
812.8779294842805
 20
610.0913084412272
 30
0.0
 10
812.8779294842805
 20
610.0913084412272
 30
0.0
 10
813.9575193277606
 20
614.1689451589577
 30
0.0
 10
813.9575193277606
 20
614.1689451589577
 30
0.0
 10
813.9575193277606
 20
614.1689451589577
 30
0.0
 10
815.0488279212378
 20
614.1689451589577
 30
0.0
 10
815.0488279212378
 20
614.1689451589577
 30
0.0
 10
815.0488279212378
 20
614.1689451589577
 30
0.0
 10
816.0322263584919
 20
610.0673826599832
 30
0.0
 10
816.0322263584919
 20
610.0673826599832
 30
0.0
 10
816.260253702185
 20
609.107910003973
 30
0.0
 10
816.476074014631
 20
608.1484373479628
 30
0.0
 10
816.596191202101
 20
607.2968748481758
 30
0.0
 10
816.596191202101
 20
607.2968748481758
 30
0.0
 10
816.6201169833449
 20
607.2968748481758
 30
0.0
 10
816.6201169833449
 20
607.2968748481758
 30
0.0
 10
816.788085733303
 20
608.184081879204
 30
0.0
 10
817.015624795746
 20
609.083984222729
 30
0.0
 10
817.267577920683
 20
610.0913084412272
 30
0.0
 10
817.267577920683
 20
610.0913084412272
 30
0.0
 10
818.3349607329162
 20
614.1689451589577
 30
0.0
 10
818.3349607329162
 20
614.1689451589577
 30
0.0
 10
818.3349607329162
 20
614.1689451589577
 30
0.0
 10
819.4023435451494
 20
614.1689451589577
 30
0.0
 10
819.4023435451494
 20
614.1689451589577
 30
0.0
 10
819.4023435451494
 20
614.1689451589577
 30
0.0
 10
817.111816201972
 20
606.0854490672286
 30
0.0
 10
817.111816201972
 20
606.0854490672286
 30
0.0
 10
817.111816201972
 20
606.0854490672286
 30
0.0
 10
816.0205076084949
 20
606.0854490672286
 30
0.0
 10
816.0205076084949
 20
606.0854490672286
 30
0.0
 10
816.0205076084949
 20
606.0854490672286
 30
0.0
 10
815.0009763587498
 20
610.2949217224262
 30
0.0
 10
815.0009763587498
 20
610.2949217224262
 30
0.0
 10
814.7490232338127
 20
611.3266600034183
 30
0.0
 10
814.5810544838547
 20
612.1181639094705
 30
0.0
 10
814.4731443276316
 20
612.9335935967666
 30
0.0
 10
814.4731443276316
 20
612.9335935967666
 30
0.0
 10
814.4492185463877
 20
612.9335935967666
 30
0.0
 10
814.4492185463877
 20
612.9335935967666
 30
0.0
 10
814.3051755776737
 20
612.1303709407174
 30
0.0
 10
814.1254880777186
 20
611.3383787534154
 30
0.0
 10
813.8256833902935
 20
610.2949217224262
 30
0.0
 10
813.8256833902935
 20
610.2949217224262
 30
0.0
 10
812.6743162030814
 20
606.0854490672286
 30
0.0
 10
812.6743162030814
 20
606.0854490672286
 30
0.0
 10
812.6743162030814
 20
606.0854490672286
 30
0.0
 10
811.5830076096042
 20
606.0854490672286
 30
0.0
 10
811.5830076096042
 20
606.0854490672286
 30
0.0
  0
HATCH
  5
A0
330
9B
100
AcDbEntity
  8
0
 62
   240
420
 15539236
100
AcDbHatch
 10
0.0
 20
0.0
 30
0.0
210
0.0
220
0.0
230
1.0
  2
SOLID
 70
     1
 71
     0
 91
        1
 92
        1
 93
        1
 72
     4
 94
        3
 73
     0
 74
     1
 95
       71
 96
       67
 40
0.0
 40
0.0
 40
0.0
 40
0.0
 40
1.0
 40
1.0
 40
1.0
 40
2.0
 40
2.0
 40
2.0
 40
3.0
 40
3.0
 40
3.0
 40
4.0
 40
4.0
 40
4.0
 40
5.0
 40
5.0
 40
5.0
 40
6.0
 40
6.0
 40
6.0
 40
7.0
 40
7.0
 40
7.0
 40
8.0
 40
8.0
 40
8.0
 40
9.0
 40
9.0
 40
9.0
 40
10.0
 40
10.0
 40
10.0
 40
11.0
 40
11.0
 40
11.0
 40
12.0
 40
12.0
 40
12.0
 40
13.0
 40
13.0
 40
13.0
 40
14.0
 40
14.0
 40
14.0
 40
15.0
 40
15.0
 40
15.0
 40
16.0
 40
16.0
 40
16.0
 40
17.0
 40
17.0
 40
17.0
 40
18.0
 40
18.0
 40
18.0
 40
19.0
 40
19.0
 40
19.0
 40
20.0
 40
20.0
 40
20.0
 40
21.0
 40
21.0
 40
21.0
 40
22.0
 40
22.0
 40
22.0
 40
22.0
 10
811.5830076096042
 20
606.0854490672286
 10
811.5830076096042
 20
606.0854490672286
 10
809.5317380788671
 20
614.1689451589577
 10
809.5317380788671
 20
614.1689451589577
 10
809.5317380788671
 20
614.1689451589577
 10
810.6352537035912
 20
614.1689451589577
 10
810.6352537035912
 20
614.1689451589577
 10
810.6352537035912
 20
614.1689451589577
 10
811.5947263596013
 20
610.0791014099802
 10
811.5947263596013
 20
610.0791014099802
 10
811.8344724532914
 20
609.071777191482
 10
812.0507810469873
 20
608.0644529729839
 10
812.1943357344514
 20
607.2846678169288
 10
812.1943357344514
 20
607.2846678169288
 10
812.2182615156954
 20
607.2846678169288
 10
812.2182615156954
 20
607.2846678169288
 10
812.3505857344123
 20
608.0883787542278
 10
812.6020505780995
 20
609.047851410238
 10
812.8779294842805
 20
610.0913084412272
 10
812.8779294842805
 20
610.0913084412272
 10
813.9575193277606
 20
614.1689451589577
 10
813.9575193277606
 20
614.1689451589577
 10
813.9575193277606
 20
614.1689451589577
 10
815.0488279212378
 20
614.1689451589577
 10
815.0488279212378
 20
614.1689451589577
 10
815.0488279212378
 20
614.1689451589577
 10
816.0322263584919
 20
610.0673826599832
 10
816.0322263584919
 20
610.0673826599832
 10
816.260253702185
 20
609.107910003973
 10
816.476074014631
 20
608.1484373479628
 10
816.596191202101
 20
607.2968748481758
 10
816.596191202101
 20
607.2968748481758
 10
816.6201169833449
 20
607.2968748481758
 10
816.6201169833449
 20
607.2968748481758
 10
816.788085733303
 20
608.184081879204
 10
817.015624795746
 20
609.083984222729
 10
817.267577920683
 20
610.0913084412272
 10
817.267577920683
 20
610.0913084412272
 10
818.3349607329162
 20
614.1689451589577
 10
818.3349607329162
 20
614.1689451589577
 10
818.3349607329162
 20
614.1689451589577
 10
819.4023435451494
 20
614.1689451589577
 10
819.4023435451494
 20
614.1689451589577
 10
819.4023435451494
 20
614.1689451589577
 10
817.111816201972
 20
606.0854490672286
 10
817.111816201972
 20
606.0854490672286
 10
817.111816201972
 20
606.0854490672286
 10
816.0205076084949
 20
606.0854490672286
 10
816.0205076084949
 20
606.0854490672286
 10
816.0205076084949
 20
606.0854490672286
 10
815.0009763587498
 20
610.2949217224262
 10
815.0009763587498
 20
610.2949217224262
 10
814.7490232338127
 20
611.3266600034183
 10
814.5810544838547
 20
612.1181639094705
 10
814.4731443276316
 20
612.9335935967666
 10
814.4731443276316
 20
612.9335935967666
 10
814.4492185463877
 20
612.9335935967666
 10
814.4492185463877
 20
612.9335935967666
 10
814.3051755776737
 20
612.1303709407174
 10
814.1254880777186
 20
611.3383787534154
 10
813.8256833902935
 20
610.2949217224262
 10
813.8256833902935
 20
610.2949217224262
 10
812.6743162030814
 20
606.0854490672286
 10
812.6743162030814
 20
606.0854490672286
 10
812.6743162030814
 20
606.0854490672286
 10
811.5830076096042
 20
606.0854490672286
 10
811.5830076096042
 20
606.0854490672286
 97
        0
 97
        0
 75
     2
 76
     1
 98
        0
  0
SPLINE
  5
A1
330
9B
100
AcDbEntity
  8
0
 62
   240
420
 15539236
370
    35
100
AcDbSpline
210
0.0
220
0.0
230
1.0
 70
    11
 71
     3
 72
    47
 73
    43
 74
     0
 42
0.0000000001
 43
0.0000000001
 12
1.0
 22
0.0
 32
0.0
 13
1.0
 23
0.0
 33
0.0
 40
0.0
 40
0.0
 40
0.0
 40
0.0
 40
1.0
 40
1.0
 40
1.0
 40
2.0
 40
2.0
 40
2.0
 40
3.0
 40
3.0
 40
3.0
 40
4.0
 40
4.0
 40
4.0
 40
5.0
 40
5.0
 40
5.0
 40
6.0
 40
6.0
 40
6.0
 40
7.0
 40
7.0
 40
7.0
 40
8.0
 40
8.0
 40
8.0
 40
9.0
 40
9.0
 40
9.0
 40
10.0
 40
10.0
 40
10.0
 40
11.0
 40
11.0
 40
11.0
 40
12.0
 40
12.0
 40
12.0
 40
13.0
 40
13.0
 40
13.0
 40
14.0
 40
14.0
 40
14.0
 40
14.0
 10
820.4155271386461
 20
614.1689451589577
 30
0.0
 10
820.4155271386461
 20
614.1689451589577
 30
0.0
 10
821.4589841696352
 20
614.1689451589577
 30
0.0
 10
821.4589841696352
 20
614.1689451589577
 30
0.0
 10
821.4589841696352
 20
614.1689451589577
 30
0.0
 10
821.4589841696352
 20
610.2709959411823
 30
0.0
 10
821.4589841696352
 20
610.2709959411823
 30
0.0
 10
821.4589841696352
 20
610.2709959411823
 30
0.0
 10
821.4946287008763
 20
610.2709959411823
 30
0.0
 10
821.4946287008763
 20
610.2709959411823
 30
0.0
 10
821.7104490133223
 20
610.5830076598543
 30
0.0
 10
821.9267576070183
 20
610.8706053160323
 30
0.0
 10
822.1303708882174
 20
611.1347654722163
 30
0.0
 10
822.1303708882174
 20
611.1347654722163
 30
0.0
 10
824.6010740125997
 20
614.1689451589577
 30
0.0
 10
824.6010740125997
 20
614.1689451589577
 30
0.0
 10
824.6010740125997
 20
614.1689451589577
 30
0.0
 10
825.8964841685258
 20
614.1689451589577
 30
0.0
 10
825.8964841685258
 20
614.1689451589577
 30
0.0
 10
825.8964841685258
 20
614.1689451589577
 30
0.0
 10
822.9702146380074
 20
610.7387693785653
 30
0.0
 10
822.9702146380074
 20
610.7387693785653
 30
0.0
 10
822.9702146380074
 20
610.7387693785653
 30
0.0
 10
826.1245115122189
 20
606.0854490672286
 30
0.0
 10
826.1245115122189
 20
606.0854490672286
 30
0.0
 10
826.1245115122189
 20
606.0854490672286
 30
0.0
 10
824.8891599500276
 20
606.0854490672286
 30
0.0
 10
824.8891599500276
 20
606.0854490672286
 30
0.0
 10
824.8891599500276
 20
606.0854490672286
 30
0.0
 10
822.2265622944434
 20
610.0551756287362
 30
0.0
 10
822.2265622944434
 20
610.0551756287362
 30
0.0
 10
822.2265622944434
 20
610.0551756287362
 30
0.0
 10
821.4589841696352
 20
609.167968597708
 30
0.0
 10
821.4589841696352
 20
609.167968597708
 30
0.0
 10
821.4589841696352
 20
609.167968597708
 30
0.0
 10
821.4589841696352
 20
606.0854490672286
 30
0.0
 10
821.4589841696352
 20
606.0854490672286
 30
0.0
 10
821.4589841696352
 20
606.0854490672286
 30
0.0
 10
820.4155271386461
 20
606.0854490672286
 30
0.0
 10
820.4155271386461
 20
606.0854490672286
 30
0.0
 10
820.4155271386461
 20
606.0854490672286
 30
0.0
 10
820.4155271386461
 20
614.1689451589577
 30
0.0
 10
820.4155271386461
 20
614.1689451589577
 30
0.0
  0
HATCH
  5
A2
330
9B
100
AcDbEntity
  8
0
 62
   240
420
 15539236
100
AcDbHatch
 10
0.0
 20
0.0
 30
0.0
210
0.0
220
0.0
230
1.0
  2
SOLID
 70
     1
 71
     0
 91
        1
 92
        1
 93
        1
 72
     4
 94
        3
 73
     0
 74
     1
 95
       47
 96
       43
 40
0.0
 40
0.0
 40
0.0
 40
0.0
 40
1.0
 40
1.0
 40
1.0
 40
2.0
 40
2.0
 40
2.0
 40
3.0
 40
3.0
 40
3.0
 40
4.0
 40
4.0
 40
4.0
 40
5.0
 40
5.0
 40
5.0
 40
6.0
 40
6.0
 40
6.0
 40
7.0
 40
7.0
 40
7.0
 40
8.0
 40
8.0
 40
8.0
 40
9.0
 40
9.0
 40
9.0
 40
10.0
 40
10.0
 40
10.0
 40
11.0
 40
11.0
 40
11.0
 40
12.0
 40
12.0
 40
12.0
 40
13.0
 40
13.0
 40
13.0
 40
14.0
 40
14.0
 40
14.0
 40
14.0
 10
820.4155271386461
 20
614.1689451589577
 10
820.4155271386461
 20
614.1689451589577
 10
821.4589841696352
 20
614.1689451589577
 10
821.4589841696352
 20
614.1689451589577
 10
821.4589841696352
 20
614.1689451589577
 10
821.4589841696352
 20
610.2709959411823
 10
821.4589841696352
 20
610.2709959411823
 10
821.4589841696352
 20
610.2709959411823
 10
821.4946287008763
 20
610.2709959411823
 10
821.4946287008763
 20
610.2709959411823
 10
821.7104490133223
 20
610.5830076598543
 10
821.9267576070183
 20
610.8706053160323
 10
822.1303708882174
 20
611.1347654722163
 10
822.1303708882174
 20
611.1347654722163
 10
824.6010740125997
 20
614.1689451589577
 10
824.6010740125997
 20
614.1689451589577
 10
824.6010740125997
 20
614.1689451589577
 10
825.8964841685258
 20
614.1689451589577
 10
825.8964841685258
 20
614.1689451589577
 10
825.8964841685258
 20
614.1689451589577
 10
822.9702146380074
 20
610.7387693785653
 10
822.9702146380074
 20
610.7387693785653
 10
822.9702146380074
 20
610.7387693785653
 10
826.1245115122189
 20
606.0854490672286
 10
826.1245115122189
 20
606.0854490672286
 10
826.1245115122189
 20
606.0854490672286
 10
824.8891599500276
 20
606.0854490672286
 10
824.8891599500276
 20
606.0854490672286
 10
824.8891599500276
 20
606.0854490672286
 10
822.2265622944434
 20
610.0551756287362
 10
822.2265622944434
 20
610.0551756287362
 10
822.2265622944434
 20
610.0551756287362
 10
821.4589841696352
 20
609.167968597708
 10
821.4589841696352
 20
609.167968597708
 10
821.4589841696352
 20
609.167968597708
 10
821.4589841696352
 20
606.0854490672286
 10
821.4589841696352
 20
606.0854490672286
 10
821.4589841696352
 20
606.0854490672286
 10
820.4155271386461
 20
606.0854490672286
 10
820.4155271386461
 20
606.0854490672286
 10
820.4155271386461
 20
606.0854490672286
 10
820.4155271386461
 20
614.1689451589577
 10
820.4155271386461
 20
614.1689451589577
 97
        0
 97
        0
 75
     2
 76
     1
 98
        0
  0
POLYLINE
  5
A3
330
9B
100
AcDbEntity
  8
0
 62
   240
420
 15539236
370
    35
100
AcDb2dPolyline
 66
     1
 10
0.0
 20
0.0
 30
0.0
  0
VERTEX
  5
A4
330
A3
100
AcDbEntity
  8
0
 62
   240
420
 15539236
370
    35
100
AcDbVertex
100
AcDb2dVertex
 10
829.4633786988842
 20
614.1689451589577
 30
0.0
  0
VERTEX
  5
A5
330
A3
100
AcDbEntity
  8
0
 62
   240
420
 15539236
370
    35
100
AcDbVertex
100
AcDb2dVertex
 10
830.5068357298733
 20
614.1689451589577
 30
0.0
  0
VERTEX
  5
A6
330
A3
100
AcDbEntity
  8
0
 62
   240
420
 15539236
370
    35
100
AcDbVertex
100
AcDb2dVertex
 10
830.5068357298733
 20
606.9609373482598
 30
0.0
  0
VERTEX
  5
A7
330
A3
100
AcDbEntity
  8
0
 62
   240
420
 15539236
370
    35
100
AcDbVertex
100
AcDb2dVertex
 10
833.9609372915097
 20
606.9609373482598
 30
0.0
  0
VERTEX
  5
A8
330
A3
100
AcDbEntity
  8
0
 62
   240
420
 15539236
370
    35
100
AcDbVertex
100
AcDb2dVertex
 10
833.9609372915097
 20
606.0854490672286
 30
0.0
  0
VERTEX
  5
A9
330
A3
100
AcDbEntity
  8
0
 62
   240
420
 15539236
370
    35
100
AcDbVertex
100
AcDb2dVertex
 10
829.4633786988842
 20
606.0854490672286
 30
0.0
  0
VERTEX
  5
AA
330
A3
100
AcDbEntity
  8
0
 62
   240
420
 15539236
370
    35
100
AcDbVertex
100
AcDb2dVertex
 10
829.4633786988842
 20
614.1689451589577
 30
0.0
  0
SEQEND
  5
AB
330
A3
100
AcDbEntity
  8
0
 62
   240
420
 15539236
370
    35
  0
HATCH
  5
AC
330
9B
100
AcDbEntity
  8
0
 62
   240
420
 15539236
100
AcDbHatch
 10
0.0
 20
0.0
 30
0.0
210
0.0
220
0.0
230
1.0
  2
SOLID
 70
     1
 71
     0
 91
        1
 92
        1
 93
        6
 72
     1
 10
829.4633786988842
 20
614.1689451589577
 11
830.5068357298733
 21
614.1689451589577
 72
     1
 10
830.5068357298733
 20
614.1689451589577
 11
830.5068357298733
 21
606.9609373482598
 72
     1
 10
830.5068357298733
 20
606.9609373482598
 11
833.9609372915097
 21
606.9609373482598
 72
     1
 10
833.9609372915097
 20
606.9609373482598
 11
833.9609372915097
 21
606.0854490672286
 72
     1
 10
833.9609372915097
 20
606.0854490672286
 11
829.4633786988842
 21
606.0854490672286
 72
     1
 10
829.4633786988842
 20
606.0854490672286
 11
829.4633786988842
 21
614.1689451589577
 97
        0
 75
     2
 76
     1
 98
        0
  0
SPLINE
  5
AD
330
9B
100
AcDbEntity
  8
0
 62
   240
420
 15539236
370
    35
100
AcDbSpline
210
0.0
220
0.0
230
1.0
 70
    11
 71
     3
 72
    59
 73
    55
 74
     0
 42
0.0000000001
 43
0.0000000001
 12
1.0
 22
0.0
 32
0.0
 13
1.0
 23
0.0
 33
0.0
 40
0.0
 40
0.0
 40
0.0
 40
0.0
 40
1.0
 40
1.0
 40
1.0
 40
2.0
 40
2.0
 40
2.0
 40
3.0
 40
3.0
 40
3.0
 40
4.0
 40
4.0
 40
4.0
 40
5.0
 40
5.0
 40
5.0
 40
6.0
 40
6.0
 40
6.0
 40
7.0
 40
7.0
 40
7.0
 40
8.0
 40
8.0
 40
8.0
 40
9.0
 40
9.0
 40
9.0
 40
10.0
 40
10.0
 40
10.0
 40
11.0
 40
11.0
 40
11.0
 40
12.0
 40
12.0
 40
12.0
 40
13.0
 40
13.0
 40
13.0
 40
14.0
 40
14.0
 40
14.0
 40
15.0
 40
15.0
 40
15.0
 40
16.0
 40
16.0
 40
16.0
 40
17.0
 40
17.0
 40
17.0
 40
18.0
 40
18.0
 40
18.0
 40
18.0
 10
835.0068357287482
 20
607.2968748481758
 30
0.0
 10
835.3066404161733
 20
607.1049803169738
 30
0.0
 10
836.0024411972494
 20
606.8051756295487
 30
0.0
 10
836.7338865095666
 20
606.8051756295487
 30
0.0
 10
838.0893552592277
 20
606.8051756295487
 30
0.0
 10
838.5087888528728
 20
607.6684568793329
 30
0.0
 10
838.4970701028757
 20
608.3164060979209
 30
0.0
 10
838.4848630716288
 20
609.407714691398
 30
0.0
 10
837.5014646343747
 20
609.8754881287812
 30
0.0
 10
836.4819333846295
 20
609.8754881287812
 30
0.0
 10
836.4819333846295
 20
609.8754881287812
 30
0.0
 10
835.8945310410263
 20
609.8754881287812
 30
0.0
 10
835.8945310410263
 20
609.8754881287812
 30
0.0
 10
835.8945310410263
 20
609.8754881287812
 30
0.0
 10
835.8945310410263
 20
610.6669920348332
 30
0.0
 10
835.8945310410263
 20
610.6669920348332
 30
0.0
 10
835.8945310410263
 20
610.6669920348332
 30
0.0
 10
836.4819333846295
 20
610.6669920348332
 30
0.0
 10
836.4819333846295
 20
610.6669920348332
 30
0.0
 10
837.2495115094376
 20
610.6669920348332
 30
0.0
 10
838.2211911966947
 20
611.0624998472343
 30
0.0
 10
838.2211911966947
 20
611.9863279720034
 30
0.0
 10
838.2211911966947
 20
612.6098631280976
 30
0.0
 10
837.8251951030437
 20
613.1616209404596
 30
0.0
 10
836.8540036970364
 20
613.1616209404596
 30
0.0
 10
836.2299802596925
 20
613.1616209404596
 30
0.0
 10
835.6303708848424
 20
612.8857420342786
 30
0.0
 10
835.2949216661763
 20
612.6459959405885
 30
0.0
 10
835.2949216661763
 20
612.6459959405885
 30
0.0
 10
835.0190427599953
 20
613.4135740653966
 30
0.0
 10
835.0190427599953
 20
613.4135740653966
 30
0.0
 10
835.4267576036433
 20
613.7133787528217
 30
0.0
 10
836.2182615096954
 20
614.0131834402467
 30
0.0
 10
837.0576169782356
 20
614.0131834402467
 30
0.0
 10
838.5927732278518
 20
614.0131834402467
 30
0.0
 10
839.2885740089279
 20
613.1015623467246
 30
0.0
 10
839.2885740089279
 20
612.1542967219614
 30
0.0
 10
839.2885740089279
 20
611.3505857846624
 30
0.0
 10
838.8085935402978
 20
610.6669920348332
 30
0.0
 10
837.8491208842877
 20
610.3193357849201
 30
0.0
 10
837.8491208842877
 20
610.3193357849201
 30
0.0
 10
837.8491208842877
 20
610.2949217224262
 30
0.0
 10
837.8491208842877
 20
610.2949217224262
 30
0.0
 10
838.8085935402978
 20
610.1030271912242
 30
0.0
 10
839.5883786963528
 20
609.3837889101541
 30
0.0
 10
839.5883786963528
 20
608.2924803166769
 30
0.0
 10
839.5883786963528
 20
607.0449217232388
 30
0.0
 10
838.6166990090958
 20
605.9536131297616
 30
0.0
 10
836.7460935408135
 20
605.9536131297616
 30
0.0
 10
835.8706052597823
 20
605.9536131297616
 30
0.0
 10
835.1030271349742
 20
606.2294920359426
 30
0.0
 10
834.7192380725702
 20
606.4814451608796
 30
0.0
 10
834.7192380725702
 20
606.4814451608796
 30
0.0
 10
835.0068357287482
 20
607.2968748481758
 30
0.0
 10
835.0068357287482
 20
607.2968748481758
 30
0.0
  0
HATCH
  5
AE
330
9B
100
AcDbEntity
  8
0
 62
   240
420
 15539236
100
AcDbHatch
 10
0.0
 20
0.0
 30
0.0
210
0.0
220
0.0
230
1.0
  2
SOLID
 70
     1
 71
     0
 91
        1
 92
        1
 93
        1
 72
     4
 94
        3
 73
     0
 74
     1
 95
       59
 96
       55
 40
0.0
 40
0.0
 40
0.0
 40
0.0
 40
1.0
 40
1.0
 40
1.0
 40
2.0
 40
2.0
 40
2.0
 40
3.0
 40
3.0
 40
3.0
 40
4.0
 40
4.0
 40
4.0
 40
5.0
 40
5.0
 40
5.0
 40
6.0
 40
6.0
 40
6.0
 40
7.0
 40
7.0
 40
7.0
 40
8.0
 40
8.0
 40
8.0
 40
9.0
 40
9.0
 40
9.0
 40
10.0
 40
10.0
 40
10.0
 40
11.0
 40
11.0
 40
11.0
 40
12.0
 40
12.0
 40
12.0
 40
13.0
 40
13.0
 40
13.0
 40
14.0
 40
14.0
 40
14.0
 40
15.0
 40
15.0
 40
15.0
 40
16.0
 40
16.0
 40
16.0
 40
17.0
 40
17.0
 40
17.0
 40
18.0
 40
18.0
 40
18.0
 40
18.0
 10
835.0068357287482
 20
607.2968748481758
 10
835.3066404161733
 20
607.1049803169738
 10
836.0024411972494
 20
606.8051756295487
 10
836.7338865095666
 20
606.8051756295487
 10
838.0893552592277
 20
606.8051756295487
 10
838.5087888528728
 20
607.6684568793329
 10
838.4970701028757
 20
608.3164060979209
 10
838.4848630716288
 20
609.407714691398
 10
837.5014646343747
 20
609.8754881287812
 10
836.4819333846295
 20
609.8754881287812
 10
836.4819333846295
 20
609.8754881287812
 10
835.8945310410263
 20
609.8754881287812
 10
835.8945310410263
 20
609.8754881287812
 10
835.8945310410263
 20
609.8754881287812
 10
835.8945310410263
 20
610.6669920348332
 10
835.8945310410263
 20
610.6669920348332
 10
835.8945310410263
 20
610.6669920348332
 10
836.4819333846295
 20
610.6669920348332
 10
836.4819333846295
 20
610.6669920348332
 10
837.2495115094376
 20
610.6669920348332
 10
838.2211911966947
 20
611.0624998472343
 10
838.2211911966947
 20
611.9863279720034
 10
838.2211911966947
 20
612.6098631280976
 10
837.8251951030437
 20
613.1616209404596
 10
836.8540036970364
 20
613.1616209404596
 10
836.2299802596925
 20
613.1616209404596
 10
835.6303708848424
 20
612.8857420342786
 10
835.2949216661763
 20
612.6459959405885
 10
835.2949216661763
 20
612.6459959405885
 10
835.0190427599953
 20
613.4135740653966
 10
835.0190427599953
 20
613.4135740653966
 10
835.4267576036433
 20
613.7133787528217
 10
836.2182615096954
 20
614.0131834402467
 10
837.0576169782356
 20
614.0131834402467
 10
838.5927732278518
 20
614.0131834402467
 10
839.2885740089279
 20
613.1015623467246
 10
839.2885740089279
 20
612.1542967219614
 10
839.2885740089279
 20
611.3505857846624
 10
838.8085935402978
 20
610.6669920348332
 10
837.8491208842877
 20
610.3193357849201
 10
837.8491208842877
 20
610.3193357849201
 10
837.8491208842877
 20
610.2949217224262
 10
837.8491208842877
 20
610.2949217224262
 10
838.8085935402978
 20
610.1030271912242
 10
839.5883786963528
 20
609.3837889101541
 10
839.5883786963528
 20
608.2924803166769
 10
839.5883786963528
 20
607.0449217232388
 10
838.6166990090958
 20
605.9536131297616
 10
836.7460935408135
 20
605.9536131297616
 10
835.8706052597823
 20
605.9536131297616
 10
835.1030271349742
 20
606.2294920359426
 10
834.7192380725702
 20
606.4814451608796
 10
834.7192380725702
 20
606.4814451608796
 10
835.0068357287482
 20
607.2968748481758
 10
835.0068357287482
 20
607.2968748481758
 97
        0
 97
        0
 75
     2
 76
     1
 98
        0
  0
SPLINE
  5
AF
330
9B
100
AcDbEntity
  8
0
 62
   240
420
 15539236
370
    35
100
AcDbSpline
210
0.0
220
0.0
230
1.0
 70
    11
 71
     3
 72
    47
 73
    43
 74
     0
 42
0.0000000001
 43
0.0000000001
 12
1.0
 22
0.0
 32
0.0
 13
1.0
 23
0.0
 33
0.0
 40
0.0
 40
0.0
 40
0.0
 40
0.0
 40
1.0
 40
1.0
 40
1.0
 40
2.0
 40
2.0
 40
2.0
 40
3.0
 40
3.0
 40
3.0
 40
4.0
 40
4.0
 40
4.0
 40
5.0
 40
5.0
 40
5.0
 40
6.0
 40
6.0
 40
6.0
 40
7.0
 40
7.0
 40
7.0
 40
8.0
 40
8.0
 40
8.0
 40
9.0
 40
9.0
 40
9.0
 40
10.0
 40
10.0
 40
10.0
 40
11.0
 40
11.0
 40
11.0
 40
12.0
 40
12.0
 40
12.0
 40
13.0
 40
13.0
 40
13.0
 40
14.0
 40
14.0
 40
14.0
 40
14.0
 10
843.6831052578292
 20
607.3569334419108
 30
0.0
 10
844.1508786952122
 20
607.0688475044827
 30
0.0
 10
844.8344724450413
 20
606.8291014107928
 30
0.0
 10
845.5541990073614
 20
606.8291014107928
 30
0.0
 10
846.6215818195946
 20
606.8291014107928
 30
0.0
 10
847.2451169756887
 20
607.3925779731518
 30
0.0
 10
847.2451169756887
 20
608.2084959416978
 30
0.0
 10
847.2451169756887
 20
608.963867035259
 30
0.0
 10
846.8134763507966
 20
609.3955076601511
 30
0.0
 10
845.7221677573194
 20
609.8154295350462
 30
0.0
 10
844.4028318201492
 20
610.2832029724292
 30
0.0
 10
843.5874021328532
 20
610.9667967222583
 30
0.0
 10
843.5874021328532
 20
612.1059568782235
 30
0.0
 10
843.5874021328532
 20
613.3652342216586
 30
0.0
 10
844.6303708825924
 20
614.3007810964248
 30
0.0
 10
846.2016599446996
 20
614.3007810964248
 30
0.0
 10
847.0292966632427
 20
614.3007810964248
 30
0.0
 10
847.6289060380927
 20
614.1088865652227
 30
0.0
 10
847.9887693192528
 20
613.9052732840237
 30
0.0
 10
847.9887693192528
 20
613.9052732840237
 30
0.0
 10
847.7006833818248
 20
613.0537107842366
 30
0.0
 10
847.7006833818248
 20
613.0537107842366
 30
0.0
 10
847.4370115068907
 20
613.1977537529506
 30
0.0
 10
846.8974607257757
 20
613.4374998466407
 30
0.0
 10
846.1655271322086
 20
613.4374998466407
 30
0.0
 10
845.0624997887344
 20
613.4374998466407
 30
0.0
 10
844.6425779138393
 20
612.7778318780555
 30
0.0
 10
844.6425779138393
 20
612.2260740656935
 30
0.0
 10
844.6425779138393
 20
611.4707029721324
 30
0.0
 10
845.1342771324664
 20
611.0986326597254
 30
0.0
 10
846.2495115071875
 20
610.6669920348332
 30
0.0
 10
847.6166990068458
 20
610.1391600037152
 30
0.0
 10
848.3124997879219
 20
609.4794920351301
 30
0.0
 10
848.3124997879219
 20
608.2924803166769
 30
0.0
 10
848.3124997879219
 20
607.0449217232388
 30
0.0
 10
847.3891599444026
 20
605.9653318797587
 30
0.0
 10
845.4819333823795
 20
605.9653318797587
 30
0.0
 10
844.7026365075743
 20
605.9653318797587
 30
0.0
 10
843.8510740077872
 20
606.1933592234517
 30
0.0
 10
843.4194333828951
 20
606.4814451608796
 30
0.0
 10
843.4194333828951
 20
606.4814451608796
 30
0.0
 10
843.6831052578292
 20
607.3569334419108
 30
0.0
 10
843.6831052578292
 20
607.3569334419108
 30
0.0
  0
HATCH
  5
B0
330
9B
100
AcDbEntity
  8
0
 62
   240
420
 15539236
100
AcDbHatch
 10
0.0
 20
0.0
 30
0.0
210
0.0
220
0.0
230
1.0
  2
SOLID
 70
     1
 71
     0
 91
        1
 92
        1
 93
        1
 72
     4
 94
        3
 73
     0
 74
     1
 95
       47
 96
       43
 40
0.0
 40
0.0
 40
0.0
 40
0.0
 40
1.0
 40
1.0
 40
1.0
 40
2.0
 40
2.0
 40
2.0
 40
3.0
 40
3.0
 40
3.0
 40
4.0
 40
4.0
 40
4.0
 40
5.0
 40
5.0
 40
5.0
 40
6.0
 40
6.0
 40
6.0
 40
7.0
 40
7.0
 40
7.0
 40
8.0
 40
8.0
 40
8.0
 40
9.0
 40
9.0
 40
9.0
 40
10.0
 40
10.0
 40
10.0
 40
11.0
 40
11.0
 40
11.0
 40
12.0
 40
12.0
 40
12.0
 40
13.0
 40
13.0
 40
13.0
 40
14.0
 40
14.0
 40
14.0
 40
14.0
 10
843.6831052578292
 20
607.3569334419108
 10
844.1508786952122
 20
607.0688475044827
 10
844.8344724450413
 20
606.8291014107928
 10
845.5541990073614
 20
606.8291014107928
 10
846.6215818195946
 20
606.8291014107928
 10
847.2451169756887
 20
607.3925779731518
 10
847.2451169756887
 20
608.2084959416978
 10
847.2451169756887
 20
608.963867035259
 10
846.8134763507966
 20
609.3955076601511
 10
845.7221677573194
 20
609.8154295350462
 10
844.4028318201492
 20
610.2832029724292
 10
843.5874021328532
 20
610.9667967222583
 10
843.5874021328532
 20
612.1059568782235
 10
843.5874021328532
 20
613.3652342216586
 10
844.6303708825924
 20
614.3007810964248
 10
846.2016599446996
 20
614.3007810964248
 10
847.0292966632427
 20
614.3007810964248
 10
847.6289060380927
 20
614.1088865652227
 10
847.9887693192528
 20
613.9052732840237
 10
847.9887693192528
 20
613.9052732840237
 10
847.7006833818248
 20
613.0537107842366
 10
847.7006833818248
 20
613.0537107842366
 10
847.4370115068907
 20
613.1977537529506
 10
846.8974607257757
 20
613.4374998466407
 10
846.1655271322086
 20
613.4374998466407
 10
845.0624997887344
 20
613.4374998466407
 10
844.6425779138393
 20
612.7778318780555
 10
844.6425779138393
 20
612.2260740656935
 10
844.6425779138393
 20
611.4707029721324
 10
845.1342771324664
 20
611.0986326597254
 10
846.2495115071875
 20
610.6669920348332
 10
847.6166990068458
 20
610.1391600037152
 10
848.3124997879219
 20
609.4794920351301
 10
848.3124997879219
 20
608.2924803166769
 10
848.3124997879219
 20
607.0449217232388
 10
847.3891599444026
 20
605.9653318797587
 10
845.4819333823795
 20
605.9653318797587
 10
844.7026365075743
 20
605.9653318797587
 10
843.8510740077872
 20
606.1933592234517
 10
843.4194333828951
 20
606.4814451608796
 10
843.4194333828951
 20
606.4814451608796
 10
843.6831052578292
 20
607.3569334419108
 10
843.6831052578292
 20
607.3569334419108
 97
        0
 97
        0
 75
     2
 76
     1
 98
        0
  0
SPLINE
  5
B1
330
9B
100
AcDbEntity
  8
0
 62
   240
420
 15539236
370
    35
100
AcDbSpline
210
0.0
220
0.0
230
1.0
 70
    11
 71
     3
 72
    56
 73
    52
 74
     0
 42
0.0000000001
 43
0.0000000001
 12
1.0
 22
0.0
 32
0.0
 13
1.0
 23
0.0
 33
0.0
 40
0.0
 40
0.0
 40
0.0
 40
0.0
 40
1.0
 40
1.0
 40
1.0
 40
2.0
 40
2.0
 40
2.0
 40
3.0
 40
3.0
 40
3.0
 40
4.0
 40
4.0
 40
4.0
 40
5.0
 40
5.0
 40
5.0
 40
6.0
 40
6.0
 40
6.0
 40
7.0
 40
7.0
 40
7.0
 40
8.0
 40
8.0
 40
8.0
 40
9.0
 40
9.0
 40
9.0
 40
10.0
 40
10.0
 40
10.0
 40
11.0
 40
11.0
 40
11.0
 40
12.0
 40
12.0
 40
12.0
 40
13.0
 40
13.0
 40
13.0
 40
14.0
 40
14.0
 40
14.0
 40
15.0
 40
15.0
 40
15.0
 40
16.0
 40
16.0
 40
16.0
 40
17.0
 40
17.0
 40
17.0
 40
17.0
 10
850.9423825997644
 20
613.5571287528606
 30
0.0
 10
850.9423825997644
 20
613.5571287528606
 30
0.0
 10
850.9423825997644
 20
611.8901365657774
 30
0.0
 10
850.9423825997644
 20
611.8901365657774
 30
0.0
 10
850.9423825997644
 20
611.8901365657774
 30
0.0
 10
852.4536130681366
 20
611.8901365657774
 30
0.0
 10
852.4536130681366
 20
611.8901365657774
 30
0.0
 10
852.4536130681366
 20
611.8901365657774
 30
0.0
 10
852.4536130681366
 20
611.0869139097283
 30
0.0
 10
852.4536130681366
 20
611.0869139097283
 30
0.0
 10
852.4536130681366
 20
611.0869139097283
 30
0.0
 10
850.9423825997644
 20
611.0869139097283
 30
0.0
 10
850.9423825997644
 20
611.0869139097283
 30
0.0
 10
850.9423825997644
 20
611.0869139097283
 30
0.0
 10
850.9423825997644
 20
607.9565428167608
 30
0.0
 10
850.9423825997644
 20
607.9565428167608
 30
0.0
 10
850.9423825997644
 20
607.2368162544408
 30
0.0
 10
851.1459958809635
 20
606.8291014107928
 30
0.0
 10
851.7338865058165
 20
606.8291014107928
 30
0.0
 10
852.0097654119976
 20
606.8291014107928
 30
0.0
 10
852.2133786931967
 20
606.8652342232837
 30
0.0
 10
852.3452146306637
 20
606.9008787545248
 30
0.0
 10
852.3452146306637
 20
606.9008787545248
 30
0.0
 10
852.3935544744016
 20
606.1093748484726
 30
0.0
 10
852.3935544744016
 20
606.1093748484726
 30
0.0
 10
852.1894529119526
 20
606.0253904734936
 30
0.0
 10
851.8657224432835
 20
605.9653318797587
 30
0.0
 10
851.4580075996355
 20
605.9653318797587
 30
0.0
 10
850.9663083810084
 20
605.9653318797587
 30
0.0
 10
850.5703122873574
 20
606.1215818797195
 30
0.0
 10
850.3183591624204
 20
606.4091795358977
 30
0.0
 10
850.0185544749953
 20
606.7211912545697
 30
0.0
 10
849.9106443187724
 20
607.2368162544408
 30
0.0
 10
849.9106443187724
 20
607.9204100042699
 30
0.0
 10
849.9106443187724
 20
607.9204100042699
 30
0.0
 10
849.9106443187724
 20
611.0869139097283
 30
0.0
 10
849.9106443187724
 20
611.0869139097283
 30
0.0
 10
849.9106443187724
 20
611.0869139097283
 30
0.0
 10
849.0112302564971
 20
611.0869139097283
 30
0.0
 10
849.0112302564971
 20
611.0869139097283
 30
0.0
 10
849.0112302564971
 20
611.0869139097283
 30
0.0
 10
849.0112302564971
 20
611.8901365657774
 30
0.0
 10
849.0112302564971
 20
611.8901365657774
 30
0.0
 10
849.0112302564971
 20
611.8901365657774
 30
0.0
 10
849.9106443187724
 20
611.8901365657774
 30
0.0
 10
849.9106443187724
 20
611.8901365657774
 30
0.0
 10
849.9106443187724
 20
611.8901365657774
 30
0.0
 10
849.9106443187724
 20
613.2817381279295
 30
0.0
 10
849.9106443187724
 20
613.2817381279295
 30
0.0
 10
849.9106443187724
 20
613.2817381279295
 30
0.0
 10
850.9423825997644
 20
613.5571287528606
 30
0.0
 10
850.9423825997644
 20
613.5571287528606
 30
0.0
  0
HATCH
  5
B2
330
9B
100
AcDbEntity
  8
0
 62
   240
420
 15539236
100
AcDbHatch
 10
0.0
 20
0.0
 30
0.0
210
0.0
220
0.0
230
1.0
  2
SOLID
 70
     1
 71
     0
 91
        1
 92
        1
 93
        1
 72
     4
 94
        3
 73
     0
 74
     1
 95
       56
 96
       52
 40
0.0
 40
0.0
 40
0.0
 40
0.0
 40
1.0
 40
1.0
 40
1.0
 40
2.0
 40
2.0
 40
2.0
 40
3.0
 40
3.0
 40
3.0
 40
4.0
 40
4.0
 40
4.0
 40
5.0
 40
5.0
 40
5.0
 40
6.0
 40
6.0
 40
6.0
 40
7.0
 40
7.0
 40
7.0
 40
8.0
 40
8.0
 40
8.0
 40
9.0
 40
9.0
 40
9.0
 40
10.0
 40
10.0
 40
10.0
 40
11.0
 40
11.0
 40
11.0
 40
12.0
 40
12.0
 40
12.0
 40
13.0
 40
13.0
 40
13.0
 40
14.0
 40
14.0
 40
14.0
 40
15.0
 40
15.0
 40
15.0
 40
16.0
 40
16.0
 40
16.0
 40
17.0
 40
17.0
 40
17.0
 40
17.0
 10
850.9423825997644
 20
613.5571287528606
 10
850.9423825997644
 20
613.5571287528606
 10
850.9423825997644
 20
611.8901365657774
 10
850.9423825997644
 20
611.8901365657774
 10
850.9423825997644
 20
611.8901365657774
 10
852.4536130681366
 20
611.8901365657774
 10
852.4536130681366
 20
611.8901365657774
 10
852.4536130681366
 20
611.8901365657774
 10
852.4536130681366
 20
611.0869139097283
 10
852.4536130681366
 20
611.0869139097283
 10
852.4536130681366
 20
611.0869139097283
 10
850.9423825997644
 20
611.0869139097283
 10
850.9423825997644
 20
611.0869139097283
 10
850.9423825997644
 20
611.0869139097283
 10
850.9423825997644
 20
607.9565428167608
 10
850.9423825997644
 20
607.9565428167608
 10
850.9423825997644
 20
607.2368162544408
 10
851.1459958809635
 20
606.8291014107928
 10
851.7338865058165
 20
606.8291014107928
 10
852.0097654119976
 20
606.8291014107928
 10
852.2133786931967
 20
606.8652342232837
 10
852.3452146306637
 20
606.9008787545248
 10
852.3452146306637
 20
606.9008787545248
 10
852.3935544744016
 20
606.1093748484726
 10
852.3935544744016
 20
606.1093748484726
 10
852.1894529119526
 20
606.0253904734936
 10
851.8657224432835
 20
605.9653318797587
 10
851.4580075996355
 20
605.9653318797587
 10
850.9663083810084
 20
605.9653318797587
 10
850.5703122873574
 20
606.1215818797195
 10
850.3183591624204
 20
606.4091795358977
 10
850.0185544749953
 20
606.7211912545697
 10
849.9106443187724
 20
607.2368162544408
 10
849.9106443187724
 20
607.9204100042699
 10
849.9106443187724
 20
607.9204100042699
 10
849.9106443187724
 20
611.0869139097283
 10
849.9106443187724
 20
611.0869139097283
 10
849.9106443187724
 20
611.0869139097283
 10
849.0112302564971
 20
611.0869139097283
 10
849.0112302564971
 20
611.0869139097283
 10
849.0112302564971
 20
611.0869139097283
 10
849.0112302564971
 20
611.8901365657774
 10
849.0112302564971
 20
611.8901365657774
 10
849.0112302564971
 20
611.8901365657774
 10
849.9106443187724
 20
611.8901365657774
 10
849.9106443187724
 20
611.8901365657774
 10
849.9106443187724
 20
611.8901365657774
 10
849.9106443187724
 20
613.2817381279295
 10
849.9106443187724
 20
613.2817381279295
 10
849.9106443187724
 20
613.2817381279295
 10
850.9423825997644
 20
613.5571287528606
 10
850.9423825997644
 20
613.5571287528606
 97
        0
 97
        0
 75
     2
 76
     1
 98
        0
  0
SPLINE
  5
B3
330
9B
100
AcDbEntity
  8
0
 62
   240
420
 15539236
370
    35
100
AcDbSpline
210
0.0
220
0.0
230
1.0
 70
    11
 71
     3
 72
    44
 73
    40
 74
     0
 42
0.0000000001
 43
0.0000000001
 12
1.0
 22
0.0
 32
0.0
 13
1.0
 23
0.0
 33
0.0
 40
0.0
 40
0.0
 40
0.0
 40
0.0
 40
1.0
 40
1.0
 40
1.0
 40
2.0
 40
2.0
 40
2.0
 40
3.0
 40
3.0
 40
3.0
 40
4.0
 40
4.0
 40
4.0
 40
5.0
 40
5.0
 40
5.0
 40
6.0
 40
6.0
 40
6.0
 40
7.0
 40
7.0
 40
7.0
 40
8.0
 40
8.0
 40
8.0
 40
9.0
 40
9.0
 40
9.0
 40
10.0
 40
10.0
 40
10.0
 40
11.0
 40
11.0
 40
11.0
 40
12.0
 40
12.0
 40
12.0
 40
13.0
 40
13.0
 40
13.0
 40
13.0
 10
853.6425779115893
 20
610.0791014099802
 30
0.0
 10
853.6425779115893
 20
610.7626951598094
 30
0.0
 10
853.6303708803424
 20
611.3505857846624
 30
0.0
 10
853.5947263491013
 20
611.8901365657774
 30
0.0
 10
853.5947263491013
 20
611.8901365657774
 30
0.0
 10
854.5180661926205
 20
611.8901365657774
 30
0.0
 10
854.5180661926205
 20
611.8901365657774
 30
0.0
 10
854.5180661926205
 20
611.8901365657774
 30
0.0
 10
854.5541990051114
 20
610.7509764098122
 30
0.0
 10
854.5541990051114
 20
610.7509764098122
 30
0.0
 10
854.5541990051114
 20
610.7509764098122
 30
0.0
 10
854.6020505675995
 20
610.7509764098122
 30
0.0
 10
854.6020505675995
 20
610.7509764098122
 30
0.0
 10
854.8657224425335
 20
611.5302732846175
 30
0.0
 10
855.5014646298746
 20
612.0219725032445
 30
0.0
 10
856.2089841609477
 20
612.0219725032445
 30
0.0
 10
856.3291013484177
 20
612.0219725032445
 30
0.0
 10
856.4130857233968
 20
612.0102537532474
 30
0.0
 10
856.5092771296227
 20
611.9863279720034
 30
0.0
 10
856.5092771296227
 20
611.9863279720034
 30
0.0
 10
856.5092771296227
 20
610.9907225035023
 30
0.0
 10
856.5092771296227
 20
610.9907225035023
 30
0.0
 10
856.4008786921497
 20
611.0146482847463
 30
0.0
 10
856.2929685359268
 20
611.0268553159933
 30
0.0
 10
856.1494138484626
 20
611.0268553159933
 30
0.0
 10
855.4057615048986
 20
611.0268553159933
 30
0.0
 10
854.8779294737805
 20
610.4628904723843
 30
0.0
 10
854.7338865050665
 20
609.6713865663321
 30
0.0
 10
854.7099607238225
 20
609.5273435976181
 30
0.0
 10
854.6860349425784
 20
609.35986312891
 30
0.0
 10
854.6860349425784
 20
609.1796873477051
 30
0.0
 10
854.6860349425784
 20
609.1796873477051
 30
0.0
 10
854.6860349425784
 20
606.0854490672286
 30
0.0
 10
854.6860349425784
 20
606.0854490672286
 30
0.0
 10
854.6860349425784
 20
606.0854490672286
 30
0.0
 10
853.6425779115893
 20
606.0854490672286
 30
0.0
 10
853.6425779115893
 20
606.0854490672286
 30
0.0
 10
853.6425779115893
 20
606.0854490672286
 30
0.0
 10
853.6425779115893
 20
610.0791014099802
 30
0.0
 10
853.6425779115893
 20
610.0791014099802
 30
0.0
  0
HATCH
  5
B4
330
9B
100
AcDbEntity
  8
0
 62
   240
420
 15539236
100
AcDbHatch
 10
0.0
 20
0.0
 30
0.0
210
0.0
220
0.0
230
1.0
  2
SOLID
 70
     1
 71
     0
 91
        1
 92
        1
 93
        1
 72
     4
 94
        3
 73
     0
 74
     1
 95
       44
 96
       40
 40
0.0
 40
0.0
 40
0.0
 40
0.0
 40
1.0
 40
1.0
 40
1.0
 40
2.0
 40
2.0
 40
2.0
 40
3.0
 40
3.0
 40
3.0
 40
4.0
 40
4.0
 40
4.0
 40
5.0
 40
5.0
 40
5.0
 40
6.0
 40
6.0
 40
6.0
 40
7.0
 40
7.0
 40
7.0
 40
8.0
 40
8.0
 40
8.0
 40
9.0
 40
9.0
 40
9.0
 40
10.0
 40
10.0
 40
10.0
 40
11.0
 40
11.0
 40
11.0
 40
12.0
 40
12.0
 40
12.0
 40
13.0
 40
13.0
 40
13.0
 40
13.0
 10
853.6425779115893
 20
610.0791014099802
 10
853.6425779115893
 20
610.7626951598094
 10
853.6303708803424
 20
611.3505857846624
 10
853.5947263491013
 20
611.8901365657774
 10
853.5947263491013
 20
611.8901365657774
 10
854.5180661926205
 20
611.8901365657774
 10
854.5180661926205
 20
611.8901365657774
 10
854.5180661926205
 20
611.8901365657774
 10
854.5541990051114
 20
610.7509764098122
 10
854.5541990051114
 20
610.7509764098122
 10
854.5541990051114
 20
610.7509764098122
 10
854.6020505675995
 20
610.7509764098122
 10
854.6020505675995
 20
610.7509764098122
 10
854.8657224425335
 20
611.5302732846175
 10
855.5014646298746
 20
612.0219725032445
 10
856.2089841609477
 20
612.0219725032445
 10
856.3291013484177
 20
612.0219725032445
 10
856.4130857233968
 20
612.0102537532474
 10
856.5092771296227
 20
611.9863279720034
 10
856.5092771296227
 20
611.9863279720034
 10
856.5092771296227
 20
610.9907225035023
 10
856.5092771296227
 20
610.9907225035023
 10
856.4008786921497
 20
611.0146482847463
 10
856.2929685359268
 20
611.0268553159933
 10
856.1494138484626
 20
611.0268553159933
 10
855.4057615048986
 20
611.0268553159933
 10
854.8779294737805
 20
610.4628904723843
 10
854.7338865050665
 20
609.6713865663321
 10
854.7099607238225
 20
609.5273435976181
 10
854.6860349425784
 20
609.35986312891
 10
854.6860349425784
 20
609.1796873477051
 10
854.6860349425784
 20
609.1796873477051
 10
854.6860349425784
 20
606.0854490672286
 10
854.6860349425784
 20
606.0854490672286
 10
854.6860349425784
 20
606.0854490672286
 10
853.6425779115893
 20
606.0854490672286
 10
853.6425779115893
 20
606.0854490672286
 10
853.6425779115893
 20
606.0854490672286
 10
853.6425779115893
 20
610.0791014099802
 10
853.6425779115893
 20
610.0791014099802
 97
        0
 97
        0
 75
     2
 76
     1
 98
        0
  0
SPLINE
  5
B5
330
9B
100
AcDbEntity
  8
0
 62
   240
420
 15539236
370
    35
100
AcDbSpline
210
0.0
220
0.0
230
1.0
 70
    11
 71
     3
 72
    47
 73
    43
 74
     0
 42
0.0000000001
 43
0.0000000001
 12
1.0
 22
0.0
 32
0.0
 13
1.0
 23
0.0
 33
0.0
 40
0.0
 40
0.0
 40
0.0
 40
0.0
 40
1.0
 40
1.0
 40
1.0
 40
2.0
 40
2.0
 40
2.0
 40
3.0
 40
3.0
 40
3.0
 40
4.0
 40
4.0
 40
4.0
 40
5.0
 40
5.0
 40
5.0
 40
6.0
 40
6.0
 40
6.0
 40
7.0
 40
7.0
 40
7.0
 40
8.0
 40
8.0
 40
8.0
 40
9.0
 40
9.0
 40
9.0
 40
10.0
 40
10.0
 40
10.0
 40
11.0
 40
11.0
 40
11.0
 40
12.0
 40
12.0
 40
12.0
 40
13.0
 40
13.0
 40
13.0
 40
14.0
 40
14.0
 40
14.0
 40
14.0
 10
860.7211911910697
 20
606.0854490672286
 30
0.0
 10
860.7211911910697
 20
606.0854490672286
 30
0.0
 10
860.6372068160907
 20
606.8168943795457
 30
0.0
 10
860.6372068160907
 20
606.8168943795457
 30
0.0
 10
860.6372068160907
 20
606.8168943795457
 30
0.0
 10
860.6010740035997
 20
606.8168943795457
 30
0.0
 10
860.6010740035997
 20
606.8168943795457
 30
0.0
 10
860.2773435349307
 20
606.3613279734096
 30
0.0
 10
859.6538083788365
 20
605.9536131297616
 30
0.0
 10
858.8261716602934
 20
605.9536131297616
 30
0.0
 10
857.6508786918373
 20
605.9536131297616
 30
0.0
 10
857.0512693169871
 20
606.7812498483047
 30
0.0
 10
857.0512693169871
 20
607.6206053168448
 30
0.0
 10
857.0512693169871
 20
609.023925628994
 30
0.0
 10
858.2983396291754
 20
609.7915037538021
 30
0.0
 10
860.5410154098647
 20
609.7792967225552
 30
0.0
 10
860.5410154098647
 20
609.7792967225552
 30
0.0
 10
860.5410154098647
 20
609.8994139100251
 30
0.0
 10
860.5410154098647
 20
609.8994139100251
 30
0.0
 10
860.5410154098647
 20
610.3789060974052
 30
0.0
 10
860.4091794723977
 20
611.2426756284393
 30
0.0
 10
859.2221677539444
 20
611.2426756284393
 30
0.0
 10
858.6821286915795
 20
611.2426756284393
 30
0.0
 10
858.1186521292203
 20
611.0747068784813
 30
0.0
 10
857.7109372855723
 20
610.8110350035472
 30
0.0
 10
857.7109372855723
 20
610.8110350035472
 30
0.0
 10
857.4707029106323
 20
611.5063475033734
 30
0.0
 10
857.4707029106323
 20
611.5063475033734
 30
0.0
 10
857.9506833792623
 20
611.8183592220454
 30
0.0
 10
858.6459958790884
 20
612.0219725032445
 30
0.0
 10
859.3779294726555
 20
612.0219725032445
 30
0.0
 10
861.1528318159618
 20
612.0219725032445
 30
0.0
 10
861.5844724408539
 20
610.8110350035472
 30
0.0
 10
861.5844724408539
 20
609.6474607850881
 30
0.0
 10
861.5844724408539
 20
609.6474607850881
 30
0.0
 10
861.5844724408539
 20
607.4765623481309
 30
0.0
 10
861.5844724408539
 20
607.4765623481309
 30
0.0
 10
861.5844724408539
 20
606.9731443795067
 30
0.0
 10
861.6083982220979
 20
606.4814451608796
 30
0.0
 10
861.6806638470798
 20
606.0854490672286
 30
0.0
 10
861.6806638470798
 20
606.0854490672286
 30
0.0
 10
860.7211911910697
 20
606.0854490672286
 30
0.0
 10
860.7211911910697
 20
606.0854490672286
 30
0.0
  0
SPLINE
  5
B6
330
9B
100
AcDbEntity
  8
0
 62
   240
420
 15539236
370
    35
100
AcDbSpline
210
0.0
220
0.0
230
1.0
 70
    11
 71
     3
 72
    20
 73
    16
 74
     0
 42
0.0000000001
 43
0.0000000001
 12
1.0
 22
0.0
 32
0.0
 13
1.0
 23
0.0
 33
0.0
 40
0.0
 40
0.0
 40
0.0
 40
0.0
 40
1.0
 40
1.0
 40
1.0
 40
2.0
 40
2.0
 40
2.0
 40
3.0
 40
3.0
 40
3.0
 40
4.0
 40
4.0
 40
4.0
 40
5.0
 40
5.0
 40
5.0
 40
5.0
 10
860.5649411911088
 20
609.047851410238
 30
0.0
 10
859.4135740038965
 20
609.071777191482
 30
0.0
 10
858.1064450979734
 20
608.8676756290331
 30
0.0
 10
858.1064450979734
 20
607.7407225043148
 30
0.0
 10
858.1064450979734
 20
607.0571287544857
 30
0.0
 10
858.5624997853594
 20
606.7329100045667
 30
0.0
 10
859.1020505664744
 20
606.7329100045667
 30
0.0
 10
859.8574216600356
 20
606.7329100045667
 30
0.0
 10
860.3374021286656
 20
607.2128904731968
 30
0.0
 10
860.5053708786237
 20
607.7045896918238
 30
0.0
 10
860.5410154098647
 20
607.8124998480469
 30
0.0
 10
860.5649411911088
 20
607.9326170355168
 30
0.0
 10
860.5649411911088
 20
608.0405271917399
 30
0.0
 10
860.5649411911088
 20
608.0405271917399
 30
0.0
 10
860.5649411911088
 20
609.047851410238
 30
0.0
 10
860.5649411911088
 20
609.047851410238
 30
0.0
  0
HATCH
  5
B7
330
9B
100
AcDbEntity
  8
0
 62
   240
420
 15539236
100
AcDbHatch
 10
0.0
 20
0.0
 30
0.0
210
0.0
220
0.0
230
1.0
  2
SOLID
 70
     1
 71
     0
 91
        2
 92
        1
 93
        1
 72
     4
 94
        3
 73
     0
 74
     1
 95
       47
 96
       43
 40
0.0
 40
0.0
 40
0.0
 40
0.0
 40
1.0
 40
1.0
 40
1.0
 40
2.0
 40
2.0
 40
2.0
 40
3.0
 40
3.0
 40
3.0
 40
4.0
 40
4.0
 40
4.0
 40
5.0
 40
5.0
 40
5.0
 40
6.0
 40
6.0
 40
6.0
 40
7.0
 40
7.0
 40
7.0
 40
8.0
 40
8.0
 40
8.0
 40
9.0
 40
9.0
 40
9.0
 40
10.0
 40
10.0
 40
10.0
 40
11.0
 40
11.0
 40
11.0
 40
12.0
 40
12.0
 40
12.0
 40
13.0
 40
13.0
 40
13.0
 40
14.0
 40
14.0
 40
14.0
 40
14.0
 10
860.7211911910697
 20
606.0854490672286
 10
860.7211911910697
 20
606.0854490672286
 10
860.6372068160907
 20
606.8168943795457
 10
860.6372068160907
 20
606.8168943795457
 10
860.6372068160907
 20
606.8168943795457
 10
860.6010740035997
 20
606.8168943795457
 10
860.6010740035997
 20
606.8168943795457
 10
860.2773435349307
 20
606.3613279734096
 10
859.6538083788365
 20
605.9536131297616
 10
858.8261716602934
 20
605.9536131297616
 10
857.6508786918373
 20
605.9536131297616
 10
857.0512693169871
 20
606.7812498483047
 10
857.0512693169871
 20
607.6206053168448
 10
857.0512693169871
 20
609.023925628994
 10
858.2983396291754
 20
609.7915037538021
 10
860.5410154098647
 20
609.7792967225552
 10
860.5410154098647
 20
609.7792967225552
 10
860.5410154098647
 20
609.8994139100251
 10
860.5410154098647
 20
609.8994139100251
 10
860.5410154098647
 20
610.3789060974052
 10
860.4091794723977
 20
611.2426756284393
 10
859.2221677539444
 20
611.2426756284393
 10
858.6821286915795
 20
611.2426756284393
 10
858.1186521292203
 20
611.0747068784813
 10
857.7109372855723
 20
610.8110350035472
 10
857.7109372855723
 20
610.8110350035472
 10
857.4707029106323
 20
611.5063475033734
 10
857.4707029106323
 20
611.5063475033734
 10
857.9506833792623
 20
611.8183592220454
 10
858.6459958790884
 20
612.0219725032445
 10
859.3779294726555
 20
612.0219725032445
 10
861.1528318159618
 20
612.0219725032445
 10
861.5844724408539
 20
610.8110350035472
 10
861.5844724408539
 20
609.6474607850881
 10
861.5844724408539
 20
609.6474607850881
 10
861.5844724408539
 20
607.4765623481309
 10
861.5844724408539
 20
607.4765623481309
 10
861.5844724408539
 20
606.9731443795067
 10
861.6083982220979
 20
606.4814451608796
 10
861.6806638470798
 20
606.0854490672286
 10
861.6806638470798
 20
606.0854490672286
 10
860.7211911910697
 20
606.0854490672286
 10
860.7211911910697
 20
606.0854490672286
 97
        0
 97
        0
 92
        1
 93
        1
 72
     4
 94
        3
 73
     0
 74
     1
 95
       20
 96
       16
 40
0.0
 40
0.0
 40
0.0
 40
0.0
 40
1.0
 40
1.0
 40
1.0
 40
2.0
 40
2.0
 40
2.0
 40
3.0
 40
3.0
 40
3.0
 40
4.0
 40
4.0
 40
4.0
 40
5.0
 40
5.0
 40
5.0
 40
5.0
 10
860.5649411911088
 20
609.047851410238
 10
859.4135740038965
 20
609.071777191482
 10
858.1064450979734
 20
608.8676756290331
 10
858.1064450979734
 20
607.7407225043148
 10
858.1064450979734
 20
607.0571287544857
 10
858.5624997853594
 20
606.7329100045667
 10
859.1020505664744
 20
606.7329100045667
 10
859.8574216600356
 20
606.7329100045667
 10
860.3374021286656
 20
607.2128904731968
 10
860.5053708786237
 20
607.7045896918238
 10
860.5410154098647
 20
607.8124998480469
 10
860.5649411911088
 20
607.9326170355168
 10
860.5649411911088
 20
608.0405271917399
 10
860.5649411911088
 20
608.0405271917399
 10
860.5649411911088
 20
609.047851410238
 10
860.5649411911088
 20
609.047851410238
 97
        0
 97
        0
 75
     2
 76
     1
 98
        0
  0
SPLINE
  5
B8
330
9B
100
AcDbEntity
  8
0
 62
   240
420
 15539236
370
    35
100
AcDbSpline
210
0.0
220
0.0
230
1.0
 70
    11
 71
     3
 72
    17
 73
    13
 74
     0
 42
0.0000000001
 43
0.0000000001
 12
1.0
 22
0.0
 32
0.0
 13
1.0
 23
0.0
 33
0.0
 40
0.0
 40
0.0
 40
0.0
 40
0.0
 40
1.0
 40
1.0
 40
1.0
 40
2.0
 40
2.0
 40
2.0
 40
3.0
 40
3.0
 40
3.0
 40
4.0
 40
4.0
 40
4.0
 40
4.0
 10
864.4663083776334
 20
613.5214842216196
 30
0.0
 10
864.4785154088803
 20
613.1616209404596
 30
0.0
 10
864.2143552526964
 20
612.8735350030316
 30
0.0
 10
863.7949216590513
 20
612.8735350030316
 30
0.0
 10
863.4228513466443
 20
612.8735350030316
 30
0.0
 10
863.1591794717102
 20
613.1616209404596
 30
0.0
 10
863.1591794717102
 20
613.5214842216196
 30
0.0
 10
863.1591794717102
 20
613.8930662527767
 30
0.0
 10
863.4350583778912
 20
614.1811521902047
 30
0.0
 10
863.8188474402953
 20
614.1811521902047
 30
0.0
 10
864.2143552526964
 20
614.1811521902047
 30
0.0
 10
864.4663083776334
 20
613.8930662527767
 30
0.0
 10
864.4663083776334
 20
613.5214842216196
 30
0.0
  0
POLYLINE
  5
B9
330
9B
100
AcDbEntity
  8
0
 62
   240
420
 15539236
370
    35
100
AcDb2dPolyline
 66
     1
 10
0.0
 20
0.0
 30
0.0
  0
VERTEX
  5
BA
330
B9
100
AcDbEntity
  8
0
 62
   240
420
 15539236
370
    35
100
AcDbVertex
100
AcDb2dVertex
 10
863.2910154091772
 20
606.0854490672286
 30
0.0
  0
VERTEX
  5
BB
330
B9
100
AcDbEntity
  8
0
 62
   240
420
 15539236
370
    35
100
AcDbVertex
100
AcDb2dVertex
 10
863.2910154091772
 20
611.8901365657774
 30
0.0
  0
VERTEX
  5
BC
330
B9
100
AcDbEntity
  8
0
 62
   240
420
 15539236
370
    35
100
AcDbVertex
100
AcDb2dVertex
 10
864.3466794714133
 20
611.8901365657774
 30
0.0
  0
VERTEX
  5
BD
330
B9
100
AcDbEntity
  8
0
 62
   240
420
 15539236
370
    35
100
AcDbVertex
100
AcDb2dVertex
 10
864.3466794714133
 20
606.0854490672286
 30
0.0
  0
VERTEX
  5
BE
330
B9
100
AcDbEntity
  8
0
 62
   240
420
 15539236
370
    35
100
AcDbVertex
100
AcDb2dVertex
 10
863.2910154091772
 20
606.0854490672286
 30
0.0
  0
SEQEND
  5
BF
330
B9
100
AcDbEntity
  8
0
 62
   240
420
 15539236
370
    35
  0
HATCH
  5
C0
330
9B
100
AcDbEntity
  8
0
 62
   240
420
 15539236
100
AcDbHatch
 10
0.0
 20
0.0
 30
0.0
210
0.0
220
0.0
230
1.0
  2
SOLID
 70
     1
 71
     0
 91
        2
 92
        1
 93
        1
 72
     4
 94
        3
 73
     0
 74
     1
 95
       17
 96
       13
 40
0.0
 40
0.0
 40
0.0
 40
0.0
 40
1.0
 40
1.0
 40
1.0
 40
2.0
 40
2.0
 40
2.0
 40
3.0
 40
3.0
 40
3.0
 40
4.0
 40
4.0
 40
4.0
 40
4.0
 10
864.4663083776334
 20
613.5214842216196
 10
864.4785154088803
 20
613.1616209404596
 10
864.2143552526964
 20
612.8735350030316
 10
863.7949216590513
 20
612.8735350030316
 10
863.4228513466443
 20
612.8735350030316
 10
863.1591794717102
 20
613.1616209404596
 10
863.1591794717102
 20
613.5214842216196
 10
863.1591794717102
 20
613.8930662527767
 10
863.4350583778912
 20
614.1811521902047
 10
863.8188474402953
 20
614.1811521902047
 10
864.2143552526964
 20
614.1811521902047
 10
864.4663083776334
 20
613.8930662527767
 10
864.4663083776334
 20
613.5214842216196
 97
        0
 97
        0
 92
        1
 93
        4
 72
     1
 10
863.2910154091772
 20
606.0854490672286
 11
863.2910154091772
 21
611.8901365657774
 72
     1
 10
863.2910154091772
 20
611.8901365657774
 11
864.3466794714133
 21
611.8901365657774
 72
     1
 10
864.3466794714133
 20
611.8901365657774
 11
864.3466794714133
 21
606.0854490672286
 72
     1
 10
864.3466794714133
 20
606.0854490672286
 11
863.2910154091772
 21
606.0854490672286
 97
        0
 75
     2
 76
     1
 98
        0
  0
SPLINE
  5
C1
330
9B
100
AcDbEntity
  8
0
 62
   240
420
 15539236
370
    35
100
AcDbSpline
210
0.0
220
0.0
230
1.0
 70
    11
 71
     3
 72
    56
 73
    52
 74
     0
 42
0.0000000001
 43
0.0000000001
 12
1.0
 22
0.0
 32
0.0
 13
1.0
 23
0.0
 33
0.0
 40
0.0
 40
0.0
 40
0.0
 40
0.0
 40
1.0
 40
1.0
 40
1.0
 40
2.0
 40
2.0
 40
2.0
 40
3.0
 40
3.0
 40
3.0
 40
4.0
 40
4.0
 40
4.0
 40
5.0
 40
5.0
 40
5.0
 40
6.0
 40
6.0
 40
6.0
 40
7.0
 40
7.0
 40
7.0
 40
8.0
 40
8.0
 40
8.0
 40
9.0
 40
9.0
 40
9.0
 40
10.0
 40
10.0
 40
10.0
 40
11.0
 40
11.0
 40
11.0
 40
12.0
 40
12.0
 40
12.0
 40
13.0
 40
13.0
 40
13.0
 40
14.0
 40
14.0
 40
14.0
 40
15.0
 40
15.0
 40
15.0
 40
16.0
 40
16.0
 40
16.0
 40
17.0
 40
17.0
 40
17.0
 40
17.0
 10
871.1000974384749
 20
611.8901365657774
 30
0.0
 10
871.075683375981
 20
611.4707029721324
 30
0.0
 10
871.0517575947371
 20
611.0029295347492
 30
0.0
 10
871.0517575947371
 20
610.2949217224262
 30
0.0
 10
871.0517575947371
 20
610.2949217224262
 30
0.0
 10
871.0517575947371
 20
606.9248045357688
 30
0.0
 10
871.0517575947371
 20
606.9248045357688
 30
0.0
 10
871.0517575947371
 20
605.5937498486015
 30
0.0
 10
870.788085719803
 20
604.7783201613054
 30
0.0
 10
870.2246091574439
 20
604.2744139114313
 30
0.0
 10
869.6606443138348
 20
603.7465818803133
 30
0.0
 10
868.8452146265387
 20
603.5786131303553
 30
0.0
 10
868.1137693142215
 20
603.5786131303553
 30
0.0
 10
867.4179685331455
 20
603.5786131303553
 30
0.0
 10
866.6503904083373
 20
603.7465818803133
 30
0.0
 10
866.1826169709543
 20
604.0585935989853
 30
0.0
 10
866.1826169709543
 20
604.0585935989853
 30
0.0
 10
866.4462888458884
 20
604.8623045362845
 30
0.0
 10
866.4462888458884
 20
604.8623045362845
 30
0.0
 10
866.8300779082924
 20
604.6220701613445
 30
0.0
 10
867.4301755643925
 20
604.4062498488984
 30
0.0
 10
868.1494138454626
 20
604.4062498488984
 30
0.0
 10
869.2290036889427
 20
604.4062498488984
 30
0.0
 10
870.0205075949949
 20
604.9702146925074
 30
0.0
 10
870.0205075949949
 20
606.4331053171417
 30
0.0
 10
870.0205075949949
 20
606.4331053171417
 30
0.0
 10
870.0205075949949
 20
607.0810545357298
 30
0.0
 10
870.0205075949949
 20
607.0810545357298
 30
0.0
 10
870.0205075949949
 20
607.0810545357298
 30
0.0
 10
869.9965818137508
 20
607.0810545357298
 30
0.0
 10
869.9965818137508
 20
607.0810545357298
 30
0.0
 10
869.6728513450818
 20
606.5410154733647
 30
0.0
 10
869.0488279077377
 20
606.1093748484726
 30
0.0
 10
868.1494138454626
 20
606.1093748484726
 30
0.0
 10
866.7104490020723
 20
606.1093748484726
 30
0.0
 10
865.6787107210803
 20
607.3325193794169
 30
0.0
 10
865.6787107210803
 20
608.939941254015
 30
0.0
 10
865.6787107210803
 20
610.9067381285233
 30
0.0
 10
866.9624021270093
 20
612.0219725032445
 30
0.0
 10
868.2934568141766
 20
612.0219725032445
 30
0.0
 10
869.3007810326748
 20
612.0219725032445
 30
0.0
 10
869.8525388450369
 20
611.4946287533763
 30
0.0
 10
870.1044919699739
 20
611.0146482847463
 30
0.0
 10
870.1044919699739
 20
611.0146482847463
 30
0.0
 10
870.1284177512179
 20
611.0146482847463
 30
0.0
 10
870.1284177512179
 20
611.0146482847463
 30
0.0
 10
870.1284177512179
 20
611.0146482847463
 30
0.0
 10
870.1762693137059
 20
611.8901365657774
 30
0.0
 10
870.1762693137059
 20
611.8901365657774
 30
0.0
 10
870.1762693137059
 20
611.8901365657774
 30
0.0
 10
871.1000974384749
 20
611.8901365657774
 30
0.0
 10
871.1000974384749
 20
611.8901365657774
 30
0.0
  0
SPLINE
  5
C2
330
9B
100
AcDbEntity
  8
0
 62
   240
420
 15539236
370
    35
100
AcDbSpline
210
0.0
220
0.0
230
1.0
 70
    11
 71
     3
 72
    26
 73
    22
 74
     0
 42
0.0000000001
 43
0.0000000001
 12
1.0
 22
0.0
 32
0.0
 13
1.0
 23
0.0
 33
0.0
 40
0.0
 40
0.0
 40
0.0
 40
0.0
 40
1.0
 40
1.0
 40
1.0
 40
2.0
 40
2.0
 40
2.0
 40
3.0
 40
3.0
 40
3.0
 40
4.0
 40
4.0
 40
4.0
 40
5.0
 40
5.0
 40
5.0
 40
6.0
 40
6.0
 40
6.0
 40
7.0
 40
7.0
 40
7.0
 40
7.0
 10
870.0083005637479
 20
609.5996092226001
 30
0.0
 10
870.0083005637479
 20
609.7792967225552
 30
0.0
 10
869.9965818137508
 20
609.935546722516
 30
0.0
 10
869.9487302512628
 20
610.0791014099802
 30
0.0
 10
869.7568357200607
 20
610.6909178160772
 30
0.0
 10
869.2407224389398
 20
611.1948240659513
 30
0.0
 10
868.4731443141317
 20
611.1948240659513
 30
0.0
 10
867.4658200956335
 20
611.1948240659513
 30
0.0
 10
866.7460935333135
 20
610.3432615661642
 30
0.0
 10
866.7460935333135
 20
608.99999984775
 30
0.0
 10
866.7460935333135
 20
607.8603514105349
 30
0.0
 10
867.3217771269195
 20
606.9130857857717
 30
0.0
 10
868.4614255641346
 20
606.9130857857717
 30
0.0
 10
869.1088865014727
 20
606.9130857857717
 30
0.0
 10
869.6967771263257
 20
607.3208006294198
 30
0.0
 10
869.9243161887689
 20
607.992187348002
 30
0.0
 10
869.9843747825039
 20
608.1723631292069
 30
0.0
 10
870.0083005637479
 20
608.375976410406
 30
0.0
 10
870.0083005637479
 20
608.556152191611
 30
0.0
 10
870.0083005637479
 20
608.556152191611
 30
0.0
 10
870.0083005637479
 20
609.5996092226001
 30
0.0
 10
870.0083005637479
 20
609.5996092226001
 30
0.0
  0
HATCH
  5
C3
330
9B
100
AcDbEntity
  8
0
 62
   240
420
 15539236
100
AcDbHatch
 10
0.0
 20
0.0
 30
0.0
210
0.0
220
0.0
230
1.0
  2
SOLID
 70
     1
 71
     0
 91
        2
 92
        1
 93
        1
 72
     4
 94
        3
 73
     0
 74
     1
 95
       56
 96
       52
 40
0.0
 40
0.0
 40
0.0
 40
0.0
 40
1.0
 40
1.0
 40
1.0
 40
2.0
 40
2.0
 40
2.0
 40
3.0
 40
3.0
 40
3.0
 40
4.0
 40
4.0
 40
4.0
 40
5.0
 40
5.0
 40
5.0
 40
6.0
 40
6.0
 40
6.0
 40
7.0
 40
7.0
 40
7.0
 40
8.0
 40
8.0
 40
8.0
 40
9.0
 40
9.0
 40
9.0
 40
10.0
 40
10.0
 40
10.0
 40
11.0
 40
11.0
 40
11.0
 40
12.0
 40
12.0
 40
12.0
 40
13.0
 40
13.0
 40
13.0
 40
14.0
 40
14.0
 40
14.0
 40
15.0
 40
15.0
 40
15.0
 40
16.0
 40
16.0
 40
16.0
 40
17.0
 40
17.0
 40
17.0
 40
17.0
 10
871.1000974384749
 20
611.8901365657774
 10
871.075683375981
 20
611.4707029721324
 10
871.0517575947371
 20
611.0029295347492
 10
871.0517575947371
 20
610.2949217224262
 10
871.0517575947371
 20
610.2949217224262
 10
871.0517575947371
 20
606.9248045357688
 10
871.0517575947371
 20
606.9248045357688
 10
871.0517575947371
 20
605.5937498486015
 10
870.788085719803
 20
604.7783201613054
 10
870.2246091574439
 20
604.2744139114313
 10
869.6606443138348
 20
603.7465818803133
 10
868.8452146265387
 20
603.5786131303553
 10
868.1137693142215
 20
603.5786131303553
 10
867.4179685331455
 20
603.5786131303553
 10
866.6503904083373
 20
603.7465818803133
 10
866.1826169709543
 20
604.0585935989853
 10
866.1826169709543
 20
604.0585935989853
 10
866.4462888458884
 20
604.8623045362845
 10
866.4462888458884
 20
604.8623045362845
 10
866.8300779082924
 20
604.6220701613445
 10
867.4301755643925
 20
604.4062498488984
 10
868.1494138454626
 20
604.4062498488984
 10
869.2290036889427
 20
604.4062498488984
 10
870.0205075949949
 20
604.9702146925074
 10
870.0205075949949
 20
606.4331053171417
 10
870.0205075949949
 20
606.4331053171417
 10
870.0205075949949
 20
607.0810545357298
 10
870.0205075949949
 20
607.0810545357298
 10
870.0205075949949
 20
607.0810545357298
 10
869.9965818137508
 20
607.0810545357298
 10
869.9965818137508
 20
607.0810545357298
 10
869.6728513450818
 20
606.5410154733647
 10
869.0488279077377
 20
606.1093748484726
 10
868.1494138454626
 20
606.1093748484726
 10
866.7104490020723
 20
606.1093748484726
 10
865.6787107210803
 20
607.3325193794169
 10
865.6787107210803
 20
608.939941254015
 10
865.6787107210803
 20
610.9067381285233
 10
866.9624021270093
 20
612.0219725032445
 10
868.2934568141766
 20
612.0219725032445
 10
869.3007810326748
 20
612.0219725032445
 10
869.8525388450369
 20
611.4946287533763
 10
870.1044919699739
 20
611.0146482847463
 10
870.1044919699739
 20
611.0146482847463
 10
870.1284177512179
 20
611.0146482847463
 10
870.1284177512179
 20
611.0146482847463
 10
870.1284177512179
 20
611.0146482847463
 10
870.1762693137059
 20
611.8901365657774
 10
870.1762693137059
 20
611.8901365657774
 10
870.1762693137059
 20
611.8901365657774
 10
871.1000974384749
 20
611.8901365657774
 10
871.1000974384749
 20
611.8901365657774
 97
        0
 97
        0
 92
        1
 93
        1
 72
     4
 94
        3
 73
     0
 74
     1
 95
       26
 96
       22
 40
0.0
 40
0.0
 40
0.0
 40
0.0
 40
1.0
 40
1.0
 40
1.0
 40
2.0
 40
2.0
 40
2.0
 40
3.0
 40
3.0
 40
3.0
 40
4.0
 40
4.0
 40
4.0
 40
5.0
 40
5.0
 40
5.0
 40
6.0
 40
6.0
 40
6.0
 40
7.0
 40
7.0
 40
7.0
 40
7.0
 10
870.0083005637479
 20
609.5996092226001
 10
870.0083005637479
 20
609.7792967225552
 10
869.9965818137508
 20
609.935546722516
 10
869.9487302512628
 20
610.0791014099802
 10
869.7568357200607
 20
610.6909178160772
 10
869.2407224389398
 20
611.1948240659513
 10
868.4731443141317
 20
611.1948240659513
 10
867.4658200956335
 20
611.1948240659513
 10
866.7460935333135
 20
610.3432615661642
 10
866.7460935333135
 20
608.99999984775
 10
866.7460935333135
 20
607.8603514105349
 10
867.3217771269195
 20
606.9130857857717
 10
868.4614255641346
 20
606.9130857857717
 10
869.1088865014727
 20
606.9130857857717
 10
869.6967771263257
 20
607.3208006294198
 10
869.9243161887689
 20
607.992187348002
 10
869.9843747825039
 20
608.1723631292069
 10
870.0083005637479
 20
608.375976410406
 10
870.0083005637479
 20
608.556152191611
 10
870.0083005637479
 20
608.556152191611
 10
870.0083005637479
 20
609.5996092226001
 10
870.0083005637479
 20
609.5996092226001
 97
        0
 97
        0
 75
     2
 76
     1
 98
        0
  0
SPLINE
  5
C4
330
9B
100
AcDbEntity
  8
0
 62
   240
420
 15539236
370
    35
100
AcDbSpline
210
0.0
220
0.0
230
1.0
 70
    11
 71
     3
 72
    50
 73
    46
 74
     0
 42
0.0000000001
 43
0.0000000001
 12
1.0
 22
0.0
 32
0.0
 13
1.0
 23
0.0
 33
0.0
 40
0.0
 40
0.0
 40
0.0
 40
0.0
 40
1.0
 40
1.0
 40
1.0
 40
2.0
 40
2.0
 40
2.0
 40
3.0
 40
3.0
 40
3.0
 40
4.0
 40
4.0
 40
4.0
 40
5.0
 40
5.0
 40
5.0
 40
6.0
 40
6.0
 40
6.0
 40
7.0
 40
7.0
 40
7.0
 40
8.0
 40
8.0
 40
8.0
 40
9.0
 40
9.0
 40
9.0
 40
10.0
 40
10.0
 40
10.0
 40
11.0
 40
11.0
 40
11.0
 40
12.0
 40
12.0
 40
12.0
 40
13.0
 40
13.0
 40
13.0
 40
14.0
 40
14.0
 40
14.0
 40
15.0
 40
15.0
 40
15.0
 40
15.0
 10
872.8066404067984
 20
614.6005857838499
 30
0.0
 10
872.8066404067984
 20
614.6005857838499
 30
0.0
 10
873.8623044690344
 20
614.6005857838499
 30
0.0
 10
873.8623044690344
 20
614.6005857838499
 30
0.0
 10
873.8623044690344
 20
614.6005857838499
 30
0.0
 10
873.8623044690344
 20
610.9790037535053
 30
0.0
 10
873.8623044690344
 20
610.9790037535053
 30
0.0
 10
873.8623044690344
 20
610.9790037535053
 30
0.0
 10
873.8862302502785
 20
610.9790037535053
 30
0.0
 10
873.8862302502785
 20
610.9790037535053
 30
0.0
 10
874.0541990002364
 20
611.2788084409303
 30
0.0
 10
874.3178708751706
 20
611.5424803158644
 30
0.0
 10
874.6416013438396
 20
611.7221678158195
 30
0.0
 10
874.9536130625115
 20
611.9023435970244
 30
0.0
 10
875.3251950936686
 20
612.0219725032445
 30
0.0
 10
875.7211911873197
 20
612.0219725032445
 30
0.0
 10
876.5004880621249
 20
612.0219725032445
 30
0.0
 10
877.7480466555629
 20
611.5424803158644
 30
0.0
 10
877.7480466555629
 20
609.5395506288651
 30
0.0
 10
877.7480466555629
 20
609.5395506288651
 30
0.0
 10
877.7480466555629
 20
606.0854490672286
 30
0.0
 10
877.7480466555629
 20
606.0854490672286
 30
0.0
 10
877.7480466555629
 20
606.0854490672286
 30
0.0
 10
876.6923825933269
 20
606.0854490672286
 30
0.0
 10
876.6923825933269
 20
606.0854490672286
 30
0.0
 10
876.6923825933269
 20
606.0854490672286
 30
0.0
 10
876.6923825933269
 20
609.4194334413951
 30
0.0
 10
876.6923825933269
 20
609.4194334413951
 30
0.0
 10
876.6923825933269
 20
610.3549803161612
 30
0.0
 10
876.3447263434138
 20
611.1464842222134
 30
0.0
 10
875.3491208749127
 20
611.1464842222134
 30
0.0
 10
874.6655271250836
 20
611.1464842222134
 30
0.0
 10
874.1259763439684
 20
610.6669920348332
 30
0.0
 10
873.9340818127664
 20
610.0913084412272
 30
0.0
 10
873.8740232190315
 20
609.9472654725132
 30
0.0
 10
873.8623044690344
 20
609.7915037538021
 30
0.0
 10
873.8623044690344
 20
609.5874021913531
 30
0.0
 10
873.8623044690344
 20
609.5874021913531
 30
0.0
 10
873.8623044690344
 20
606.0854490672286
 30
0.0
 10
873.8623044690344
 20
606.0854490672286
 30
0.0
 10
873.8623044690344
 20
606.0854490672286
 30
0.0
 10
872.8066404067984
 20
606.0854490672286
 30
0.0
 10
872.8066404067984
 20
606.0854490672286
 30
0.0
 10
872.8066404067984
 20
606.0854490672286
 30
0.0
 10
872.8066404067984
 20
614.6005857838499
 30
0.0
 10
872.8066404067984
 20
614.6005857838499
 30
0.0
  0
HATCH
  5
C5
330
9B
100
AcDbEntity
  8
0
 62
   240
420
 15539236
100
AcDbHatch
 10
0.0
 20
0.0
 30
0.0
210
0.0
220
0.0
230
1.0
  2
SOLID
 70
     1
 71
     0
 91
        1
 92
        1
 93
        1
 72
     4
 94
        3
 73
     0
 74
     1
 95
       50
 96
       46
 40
0.0
 40
0.0
 40
0.0
 40
0.0
 40
1.0
 40
1.0
 40
1.0
 40
2.0
 40
2.0
 40
2.0
 40
3.0
 40
3.0
 40
3.0
 40
4.0
 40
4.0
 40
4.0
 40
5.0
 40
5.0
 40
5.0
 40
6.0
 40
6.0
 40
6.0
 40
7.0
 40
7.0
 40
7.0
 40
8.0
 40
8.0
 40
8.0
 40
9.0
 40
9.0
 40
9.0
 40
10.0
 40
10.0
 40
10.0
 40
11.0
 40
11.0
 40
11.0
 40
12.0
 40
12.0
 40
12.0
 40
13.0
 40
13.0
 40
13.0
 40
14.0
 40
14.0
 40
14.0
 40
15.0
 40
15.0
 40
15.0
 40
15.0
 10
872.8066404067984
 20
614.6005857838499
 10
872.8066404067984
 20
614.6005857838499
 10
873.8623044690344
 20
614.6005857838499
 10
873.8623044690344
 20
614.6005857838499
 10
873.8623044690344
 20
614.6005857838499
 10
873.8623044690344
 20
610.9790037535053
 10
873.8623044690344
 20
610.9790037535053
 10
873.8623044690344
 20
610.9790037535053
 10
873.8862302502785
 20
610.9790037535053
 10
873.8862302502785
 20
610.9790037535053
 10
874.0541990002364
 20
611.2788084409303
 10
874.3178708751706
 20
611.5424803158644
 10
874.6416013438396
 20
611.7221678158195
 10
874.9536130625115
 20
611.9023435970244
 10
875.3251950936686
 20
612.0219725032445
 10
875.7211911873197
 20
612.0219725032445
 10
876.5004880621249
 20
612.0219725032445
 10
877.7480466555629
 20
611.5424803158644
 10
877.7480466555629
 20
609.5395506288651
 10
877.7480466555629
 20
609.5395506288651
 10
877.7480466555629
 20
606.0854490672286
 10
877.7480466555629
 20
606.0854490672286
 10
877.7480466555629
 20
606.0854490672286
 10
876.6923825933269
 20
606.0854490672286
 10
876.6923825933269
 20
606.0854490672286
 10
876.6923825933269
 20
606.0854490672286
 10
876.6923825933269
 20
609.4194334413951
 10
876.6923825933269
 20
609.4194334413951
 10
876.6923825933269
 20
610.3549803161612
 10
876.3447263434138
 20
611.1464842222134
 10
875.3491208749127
 20
611.1464842222134
 10
874.6655271250836
 20
611.1464842222134
 10
874.1259763439684
 20
610.6669920348332
 10
873.9340818127664
 20
610.0913084412272
 10
873.8740232190315
 20
609.9472654725132
 10
873.8623044690344
 20
609.7915037538021
 10
873.8623044690344
 20
609.5874021913531
 10
873.8623044690344
 20
609.5874021913531
 10
873.8623044690344
 20
606.0854490672286
 10
873.8623044690344
 20
606.0854490672286
 10
873.8623044690344
 20
606.0854490672286
 10
872.8066404067984
 20
606.0854490672286
 10
872.8066404067984
 20
606.0854490672286
 10
872.8066404067984
 20
606.0854490672286
 10
872.8066404067984
 20
614.6005857838499
 10
872.8066404067984
 20
614.6005857838499
 97
        0
 97
        0
 75
     2
 76
     1
 98
        0
  0
SPLINE
  5
C6
330
9B
100
AcDbEntity
  8
0
 62
   240
420
 15539236
370
    35
100
AcDbSpline
210
0.0
220
0.0
230
1.0
 70
    11
 71
     3
 72
    56
 73
    52
 74
     0
 42
0.0000000001
 43
0.0000000001
 12
1.0
 22
0.0
 32
0.0
 13
1.0
 23
0.0
 33
0.0
 40
0.0
 40
0.0
 40
0.0
 40
0.0
 40
1.0
 40
1.0
 40
1.0
 40
2.0
 40
2.0
 40
2.0
 40
3.0
 40
3.0
 40
3.0
 40
4.0
 40
4.0
 40
4.0
 40
5.0
 40
5.0
 40
5.0
 40
6.0
 40
6.0
 40
6.0
 40
7.0
 40
7.0
 40
7.0
 40
8.0
 40
8.0
 40
8.0
 40
9.0
 40
9.0
 40
9.0
 40
10.0
 40
10.0
 40
10.0
 40
11.0
 40
11.0
 40
11.0
 40
12.0
 40
12.0
 40
12.0
 40
13.0
 40
13.0
 40
13.0
 40
14.0
 40
14.0
 40
14.0
 40
15.0
 40
15.0
 40
15.0
 40
16.0
 40
16.0
 40
16.0
 40
17.0
 40
17.0
 40
17.0
 40
17.0
 10
880.6899411860775
 20
613.5571287528606
 30
0.0
 10
880.6899411860775
 20
613.5571287528606
 30
0.0
 10
880.6899411860775
 20
611.8901365657774
 30
0.0
 10
880.6899411860775
 20
611.8901365657774
 30
0.0
 10
880.6899411860775
 20
611.8901365657774
 30
0.0
 10
882.2011716544497
 20
611.8901365657774
 30
0.0
 10
882.2011716544497
 20
611.8901365657774
 30
0.0
 10
882.2011716544497
 20
611.8901365657774
 30
0.0
 10
882.2011716544497
 20
611.0869139097283
 30
0.0
 10
882.2011716544497
 20
611.0869139097283
 30
0.0
 10
882.2011716544497
 20
611.0869139097283
 30
0.0
 10
880.6899411860775
 20
611.0869139097283
 30
0.0
 10
880.6899411860775
 20
611.0869139097283
 30
0.0
 10
880.6899411860775
 20
611.0869139097283
 30
0.0
 10
880.6899411860775
 20
607.9565428167608
 30
0.0
 10
880.6899411860775
 20
607.9565428167608
 30
0.0
 10
880.6899411860775
 20
607.2368162544408
 30
0.0
 10
880.8935544672765
 20
606.8291014107928
 30
0.0
 10
881.4814450921297
 20
606.8291014107928
 30
0.0
 10
881.7573239983107
 20
606.8291014107928
 30
0.0
 10
881.9609372795097
 20
606.8652342232837
 30
0.0
 10
882.0932614982266
 20
606.9008787545248
 30
0.0
 10
882.0932614982266
 20
606.9008787545248
 30
0.0
 10
882.1411130607147
 20
606.1093748484726
 30
0.0
 10
882.1411130607147
 20
606.1093748484726
 30
0.0
 10
881.9370114982657
 20
606.0253904734936
 30
0.0
 10
881.6132810295967
 20
605.9653318797587
 30
0.0
 10
881.2055661859486
 20
605.9653318797587
 30
0.0
 10
880.7138669673216
 20
605.9653318797587
 30
0.0
 10
880.3178708736705
 20
606.1215818797195
 30
0.0
 10
880.0659177487335
 20
606.4091795358977
 30
0.0
 10
879.7661130613085
 20
606.7211912545697
 30
0.0
 10
879.6582029050854
 20
607.2368162544408
 30
0.0
 10
879.6582029050854
 20
607.9204100042699
 30
0.0
 10
879.6582029050854
 20
607.9204100042699
 30
0.0
 10
879.6582029050854
 20
611.0869139097283
 30
0.0
 10
879.6582029050854
 20
611.0869139097283
 30
0.0
 10
879.6582029050854
 20
611.0869139097283
 30
0.0
 10
878.7587888428103
 20
611.0869139097283
 30
0.0
 10
878.7587888428103
 20
611.0869139097283
 30
0.0
 10
878.7587888428103
 20
611.0869139097283
 30
0.0
 10
878.7587888428103
 20
611.8901365657774
 30
0.0
 10
878.7587888428103
 20
611.8901365657774
 30
0.0
 10
878.7587888428103
 20
611.8901365657774
 30
0.0
 10
879.6582029050854
 20
611.8901365657774
 30
0.0
 10
879.6582029050854
 20
611.8901365657774
 30
0.0
 10
879.6582029050854
 20
611.8901365657774
 30
0.0
 10
879.6582029050854
 20
613.2817381279295
 30
0.0
 10
879.6582029050854
 20
613.2817381279295
 30
0.0
 10
879.6582029050854
 20
613.2817381279295
 30
0.0
 10
880.6899411860775
 20
613.5571287528606
 30
0.0
 10
880.6899411860775
 20
613.5571287528606
 30
0.0
  0
HATCH
  5
C7
330
9B
100
AcDbEntity
  8
0
 62
   240
420
 15539236
100
AcDbHatch
 10
0.0
 20
0.0
 30
0.0
210
0.0
220
0.0
230
1.0
  2
SOLID
 70
     1
 71
     0
 91
        1
 92
        1
 93
        1
 72
     4
 94
        3
 73
     0
 74
     1
 95
       56
 96
       52
 40
0.0
 40
0.0
 40
0.0
 40
0.0
 40
1.0
 40
1.0
 40
1.0
 40
2.0
 40
2.0
 40
2.0
 40
3.0
 40
3.0
 40
3.0
 40
4.0
 40
4.0
 40
4.0
 40
5.0
 40
5.0
 40
5.0
 40
6.0
 40
6.0
 40
6.0
 40
7.0
 40
7.0
 40
7.0
 40
8.0
 40
8.0
 40
8.0
 40
9.0
 40
9.0
 40
9.0
 40
10.0
 40
10.0
 40
10.0
 40
11.0
 40
11.0
 40
11.0
 40
12.0
 40
12.0
 40
12.0
 40
13.0
 40
13.0
 40
13.0
 40
14.0
 40
14.0
 40
14.0
 40
15.0
 40
15.0
 40
15.0
 40
16.0
 40
16.0
 40
16.0
 40
17.0
 40
17.0
 40
17.0
 40
17.0
 10
880.6899411860775
 20
613.5571287528606
 10
880.6899411860775
 20
613.5571287528606
 10
880.6899411860775
 20
611.8901365657774
 10
880.6899411860775
 20
611.8901365657774
 10
880.6899411860775
 20
611.8901365657774
 10
882.2011716544497
 20
611.8901365657774
 10
882.2011716544497
 20
611.8901365657774
 10
882.2011716544497
 20
611.8901365657774
 10
882.2011716544497
 20
611.0869139097283
 10
882.2011716544497
 20
611.0869139097283
 10
882.2011716544497
 20
611.0869139097283
 10
880.6899411860775
 20
611.0869139097283
 10
880.6899411860775
 20
611.0869139097283
 10
880.6899411860775
 20
611.0869139097283
 10
880.6899411860775
 20
607.9565428167608
 10
880.6899411860775
 20
607.9565428167608
 10
880.6899411860775
 20
607.2368162544408
 10
880.8935544672765
 20
606.8291014107928
 10
881.4814450921297
 20
606.8291014107928
 10
881.7573239983107
 20
606.8291014107928
 10
881.9609372795097
 20
606.8652342232837
 10
882.0932614982266
 20
606.9008787545248
 10
882.0932614982266
 20
606.9008787545248
 10
882.1411130607147
 20
606.1093748484726
 10
882.1411130607147
 20
606.1093748484726
 10
881.9370114982657
 20
606.0253904734936
 10
881.6132810295967
 20
605.9653318797587
 10
881.2055661859486
 20
605.9653318797587
 10
880.7138669673216
 20
605.9653318797587
 10
880.3178708736705
 20
606.1215818797195
 10
880.0659177487335
 20
606.4091795358977
 10
879.7661130613085
 20
606.7211912545697
 10
879.6582029050854
 20
607.2368162544408
 10
879.6582029050854
 20
607.9204100042699
 10
879.6582029050854
 20
607.9204100042699
 10
879.6582029050854
 20
611.0869139097283
 10
879.6582029050854
 20
611.0869139097283
 10
879.6582029050854
 20
611.0869139097283
 10
878.7587888428103
 20
611.0869139097283
 10
878.7587888428103
 20
611.0869139097283
 10
878.7587888428103
 20
611.0869139097283
 10
878.7587888428103
 20
611.8901365657774
 10
878.7587888428103
 20
611.8901365657774
 10
878.7587888428103
 20
611.8901365657774
 10
879.6582029050854
 20
611.8901365657774
 10
879.6582029050854
 20
611.8901365657774
 10
879.6582029050854
 20
611.8901365657774
 10
879.6582029050854
 20
613.2817381279295
 10
879.6582029050854
 20
613.2817381279295
 10
879.6582029050854
 20
613.2817381279295
 10
880.6899411860775
 20
613.5571287528606
 10
880.6899411860775
 20
613.5571287528606
 97
        0
 97
        0
 75
     2
 76
     1
 98
        0
  0
ENDBLK
  5
9E
330
9B
100
AcDbEntity
  8
0
100
AcDbBlockEnd
  0
ENDSEC
  0
SECTION
  2
ENTITIES
  0
INSERT
  5
41
330
1F
100
AcDbEntity
  8
0
100
AcDbBlockReference
  2
block 2
 10
0.0
 20
0.0
 30
0.0
  0
INSERT
  5
50
330
1F
100
AcDbEntity
  8
0
100
AcDbBlockReference
  2
block 3
 10
0.0
 20
0.0
 30
0.0
  0
INSERT
  5
5B
330
1F
100
AcDbEntity
  8
0
100
AcDbBlockReference
  2
block 4
 10
0.0
 20
0.0
 30
0.0
  0
INSERT
  5
60
330
1F
100
AcDbEntity
  8
0
100
AcDbBlockReference
  2
block 5
 10
0.0
 20
0.0
 30
0.0
  0
INSERT
  5
6F
330
1F
100
AcDbEntity
  8
0
100
AcDbBlockReference
  2
block 6
 10
0.0
 20
0.0
 30
0.0
  0
INSERT
  5
74
330
1F
100
AcDbEntity
  8
0
100
AcDbBlockReference
  2
block 7
 10
0.0
 20
0.0
 30
0.0
  0
INSERT
  5
79
330
1F
100
AcDbEntity
  8
0
100
AcDbBlockReference
  2
block 8
 10
0.0
 20
0.0
 30
0.0
  0
INSERT
  5
7E
330
1F
100
AcDbEntity
  8
0
100
AcDbBlockReference
  2
block 9
 10
0.0
 20
0.0
 30
0.0
  0
INSERT
  5
83
330
1F
100
AcDbEntity
  8
0
100
AcDbBlockReference
  2
block 10
 10
0.0
 20
0.0
 30
0.0
  0
INSERT
  5
88
330
1F
100
AcDbEntity
  8
0
100
AcDbBlockReference
  2
block 11
 10
0.0
 20
0.0
 30
0.0
  0
INSERT
  5
8D
330
1F
100
AcDbEntity
  8
0
100
AcDbBlockReference
  2
block 12
 10
0.0
 20
0.0
 30
0.0
  0
INSERT
  5
92
330
1F
100
AcDbEntity
  8
0
100
AcDbBlockReference
  2
block 13
 10
0.0
 20
0.0
 30
0.0
  0
INSERT
  5
97
330
1F
100
AcDbEntity
  8
0
100
AcDbBlockReference
  2
block 14
 10
0.0
 20
0.0
 30
0.0
  0
INSERT
  5
9C
330
1F
100
AcDbEntity
  8
0
100
AcDbBlockReference
  2
block 15
 10
0.0
 20
0.0
 30
0.0
  0
ENDSEC
  0
SECTION
  2
OBJECTS
  0
DICTIONARY
  5
C
330
0
100
AcDbDictionary
281
     1
  3
ACAD_GROUP
350
D
  3
ACAD_LAYOUT
350
1A
  3
ACAD_MATERIAL
350
3B
  3
ACAD_MLEADERSTYLE
350
C9
  3
ACAD_MLINESTYLE
350
17
  3
ACAD_PLOTSETTINGS
350
19
  3
ACAD_PLOTSTYLENAME
350
E
  3
ACAD_TABLESTYLE
350
C8
  3
ACAD_VISUALSTYLE
350
2A
  0
SUN
  5
3F
330
29
100
AcDbSun
 90
        1
290
     0
 63
     7
421
 16777215
 40
1.0
291
     1
 91
  2455826
 92
 54000000
292
     0
 70
     2
 71
   256
280
     1
  0
DICTIONARY
  5
D
102
{ACAD_REACTORS
330
C
102
}
330
C
100
AcDbDictionary
281
     1
  0
DICTIONARY
  5
1A
102
{ACAD_REACTORS
330
C
102
}
330
C
100
AcDbDictionary
281
     1
  3
Layout1
350
1E
  3
Layout2
350
26
  3
Model
350
22
  0
DICTIONARY
  5
3B
102
{ACAD_REACTORS
330
C
102
}
330
C
100
AcDbDictionary
281
     1
  3
ByBlock
350
3D
  3
ByLayer
350
3C
  3
Global
350
3E
  0
DICTIONARY
  5
C9
102
{ACAD_REACTORS
330
C
102
}
330
C
100
AcDbDictionary
281
     1
  0
DICTIONARY
  5
17
102
{ACAD_REACTORS
330
C
102
}
330
C
100
AcDbDictionary
281
     1
  3
Standard
350
18
  0
DICTIONARY
  5
19
102
{ACAD_REACTORS
330
C
102
}
330
C
100
AcDbDictionary
281
     1
  0
ACDBDICTIONARYWDFLT
  5
E
102
{ACAD_REACTORS
330
C
102
}
330
C
100
AcDbDictionary
281
     1
  3
Normal
350
F
100
AcDbDictionaryWithDefault
340
F
  0
DICTIONARY
  5
C8
102
{ACAD_REACTORS
330
C
102
}
330
C
100
AcDbDictionary
281
     1
  0
DICTIONARY
  5
2A
102
{ACAD_REACTORS
330
C
102
}
330
C
100
AcDbDictionary
281
     1
  3
2dWireframe
350
2F
  3
3D Hidden
350
31
  3
3dWireframe
350
30
  3
Basic
350
32
  3
Brighten
350
36
  3
ColorChange
350
3A
  3
Conceptual
350
34
  3
Dim
350
35
  3
Facepattern
350
39
  3
Flat
350
2B
  3
FlatWithEdges
350
2C
  3
Gouraud
350
2D
  3
GouraudWithEdges
350
2E
  3
Linepattern
350
38
  3
Realistic
350
33
  3
Thicken
350
37
  0
LAYOUT
  5
1E
102
{ACAD_REACTORS
330
1A
102
}
330
1A
100
AcDbPlotSettings
  1

  2
none_device
  4

  6

 40
0.0
 41
0.0
 42
0.0
 43
0.0
 44
0.0
 45
0.0
 46
0.0
 47
0.0
 48
0.0
 49
0.0
140
0.0
141
0.0
142
1.0
143
1.0
 70
   688
 72
     0
 73
     0
 74
     5
  7

 75
    16
 76
     0
 77
     2
 78
   300
147
1.0
148
0.0
149
0.0
100
AcDbLayout
  1
Layout1
 70
     1
 71
     1
 10
0.0
 20
0.0
 11
12.0
 21
9.0
 12
0.0
 22
0.0
 32
0.0
 14
1.000000000000000E+20
 24
1.000000000000000E+20
 34
1.000000000000000E+20
 15
-1.000000000000000E+20
 25
-1.000000000000000E+20
 35
-1.000000000000000E+20
146
0.0
 13
0.0
 23
0.0
 33
0.0
 16
1.0
 26
0.0
 36
0.0
 17
0.0
 27
1.0
 37
0.0
 76
     0
330
1B
  0
LAYOUT
  5
26
102
{ACAD_REACTORS
330
1A
102
}
330
1A
100
AcDbPlotSettings
  1

  2
none_device
  4

  6

 40
0.0
 41
0.0
 42
0.0
 43
0.0
 44
0.0
 45
0.0
 46
0.0
 47
0.0
 48
0.0
 49
0.0
140
0.0
141
0.0
142
1.0
143
1.0
 70
   688
 72
     0
 73
     0
 74
     5
  7

 75
    16
 76
     0
 77
     2
 78
   300
147
1.0
148
0.0
149
0.0
100
AcDbLayout
  1
Layout2
 70
     1
 71
     2
 10
0.0
 20
0.0
 11
0.0
 21
0.0
 12
0.0
 22
0.0
 32
0.0
 14
0.0
 24
0.0
 34
0.0
 15
0.0
 25
0.0
 35
0.0
146
0.0
 13
0.0
 23
0.0
 33
0.0
 16
1.0
 26
0.0
 36
0.0
 17
0.0
 27
1.0
 37
0.0
 76
     0
330
23
  0
LAYOUT
  5
22
102
{ACAD_REACTORS
330
1A
102
}
330
1A
100
AcDbPlotSettings
  1

  2
none_device
  4

  6

 40
0.0
 41
0.0
 42
0.0
 43
0.0
 44
0.0
 45
0.0
 46
0.0
 47
0.0
 48
0.0
 49
0.0
140
0.0
141
0.0
142
1.0
143
1.0
 70
  1712
 72
     0
 73
     0
 74
     0
  7

 75
     0
 76
     0
 77
     2
 78
   300
147
1.0
148
0.0
149
0.0
100
AcDbLayout
  1
Model
 70
     1
 71
     0
 10
0.0
 20
0.0
 11
12.0
 21
9.0
 12
0.0
 22
0.0
 32
0.0
 14
1.000000000000000E+20
 24
1.000000000000000E+20
 34
1.000000000000000E+20
 15
-1.000000000000000E+20
 25
-1.000000000000000E+20
 35
-1.000000000000000E+20
146
0.0
 13
0.0
 23
0.0
 33
0.0
 16
1.0
 26
0.0
 36
0.0
 17
0.0
 27
1.0
 37
0.0
 76
     0
330
1F
331
29
  0
MATERIAL
  5
3D
102
{ACAD_REACTORS
330
3B
102
}
330
3B
100
AcDbMaterial
  1
ByBlock
 72
     1
 94
      127
  0
MATERIAL
  5
3C
102
{ACAD_REACTORS
330
3B
102
}
330
3B
100
AcDbMaterial
  1
ByLayer
 72
     1
 94
      127
  0
MATERIAL
  5
3E
102
{ACAD_REACTORS
330
3B
102
}
330
3B
100
AcDbMaterial
  1
Global
 72
     1
 94
      127
  0
MLINESTYLE
  5
18
102
{ACAD_REACTORS
330
17
102
}
330
17
100
AcDbMlineStyle
  2
Standard
 70
     0
  3

 62
   256
 51
90.0
 52
90.0
 71
     2
 49
0.5
 62
   256
  6
BYLAYER
 49
-0.5
 62
   256
  6
BYLAYER
  0
ACDBPLACEHOLDER
  5
F
102
{ACAD_REACTORS
330
E
102
}
330
E
  0
VISUALSTYLE
  5
2F
102
{ACAD_REACTORS
330
2A
102
}
330
2A
100
AcDbVisualStyle
  2
2dWireframe
 70
     4
177
     2
291
     0
 71
     0
176
     1
 72
     2
176
     1
 73
     0
176
     1
 90
        0
176
     1
 40
-0.6
176
     1
 41
-30.0
176
     1
 62
     5
 63
     7
421
 16777215
176
     1
 74
     1
176
     1
 91
        4
176
     1
 64
     7
176
     1
 65
   257
176
     1
 75
     1
176
     1
175
     1
176
     1
 42
1.0
176
     1
 92
        0
176
     1
 66
   257
176
     1
 43
1.0
176
     1
 76
     1
176
     1
 77
     6
176
     1
 78
     2
176
     1
 67
     7
176
     1
 79
     5
176
     1
170
     0
176
     1
171
     0
176
     1
290
     0
176
     1
 93
        1
176
     1
 44
0.0
176
     1
173
     0
176
     1
  0
VISUALSTYLE
  5
31
102
{ACAD_REACTORS
330
2A
102
}
330
2A
100
AcDbVisualStyle
  2
3D Hidden
 70
     6
177
     2
291
     0
 71
     1
176
     1
 72
     2
176
     1
 73
     2
176
     1
 90
        0
176
     1
 40
-0.6
176
     1
 41
-30.0
176
     1
 62
     5
 63
     7
421
 16777215
176
     1
 74
     2
176
     1
 91
        2
176
     1
 64
     7
176
     1
 65
   257
176
     1
 75
     2
176
     1
175
     1
176
     1
 42
40.0
176
     1
 92
        0
176
     1
 66
   257
176
     1
 43
1.0
176
     1
 76
     1
176
     1
 77
     6
176
     1
 78
     2
176
     1
 67
     7
176
     1
 79
     3
176
     1
170
     0
176
     1
171
     0
176
     1
290
     0
176
     1
 93
        1
176
     1
 44
0.0
176
     1
173
     0
176
     1
  0
VISUALSTYLE
  5
30
102
{ACAD_REACTORS
330
2A
102
}
330
2A
100
AcDbVisualStyle
  2
3dWireframe
 70
     5
177
     2
291
     0
 71
     0
176
     1
 72
     2
176
     1
 73
     0
176
     1
 90
        0
176
     1
 40
-0.6
176
     1
 41
-30.0
176
     1
 62
     5
 63
     7
421
 16777215
176
     1
 74
     1
176
     1
 91
        4
176
     1
 64
     7
176
     1
 65
   257
176
     1
 75
     1
176
     1
175
     1
176
     1
 42
1.0
176
     1
 92
        0
176
     1
 66
   257
176
     1
 43
1.0
176
     1
 76
     1
176
     1
 77
     6
176
     1
 78
     2
176
     1
 67
     7
176
     1
 79
     5
176
     1
170
     0
176
     1
171
     0
176
     1
290
     0
176
     1
 93
        1
176
     1
 44
0.0
176
     1
173
     0
176
     1
  0
VISUALSTYLE
  5
32
102
{ACAD_REACTORS
330
2A
102
}
330
2A
100
AcDbVisualStyle
  2
Basic
 70
     7
177
     2
291
     1
 71
     1
176
     1
 72
     0
176
     1
 73
     1
176
     1
 90
        0
176
     1
 40
-0.6
176
     1
 41
-30.0
176
     1
 62
     5
 63
     7
421
 16777215
176
     1
 74
     0
176
     1
 91
        4
176
     1
 64
     7
176
     1
 65
   257
176
     1
 75
     1
176
     1
175
     1
176
     1
 42
1.0
176
     1
 92
        8
176
     1
 66
     7
176
     1
 43
1.0
176
     1
 76
     1
176
     1
 77
     6
176
     1
 78
     2
176
     1
 67
     7
176
     1
 79
     5
176
     1
170
     0
176
     1
171
     0
176
     1
290
     0
176
     1
 93
        1
176
     1
 44
0.0
176
     1
173
     0
176
     1
  0
VISUALSTYLE
  5
36
102
{ACAD_REACTORS
330
2A
102
}
330
2A
100
AcDbVisualStyle
  2
Brighten
 70
    12
177
     2
291
     1
 71
     2
176
     1
 72
     2
176
     1
 73
     0
176
     1
 90
        0
176
     1
 40
-0.6
176
     1
 41
-30.0
176
     1
 62
     5
 63
     7
421
 16777215
176
     1
 74
     1
176
     1
 91
        4
176
     1
 64
     7
176
     1
 65
   257
176
     1
 75
     1
176
     1
175
     1
176
     1
 42
1.0
176
     1
 92
        8
176
     1
 66
     7
176
     1
 43
1.0
176
     1
 76
     1
176
     1
 77
     6
176
     1
 78
     2
176
     1
 67
     7
176
     1
 79
     5
176
     1
170
     0
176
     1
171
     0
176
     1
290
     0
176
     1
 93
        1
176
     1
 44
50.0
176
     1
173
     0
176
     1
  0
VISUALSTYLE
  5
3A
102
{ACAD_REACTORS
330
2A
102
}
330
2A
100
AcDbVisualStyle
  2
ColorChange
 70
    16
177
     2
291
     1
 71
     2
176
     1
 72
     2
176
     1
 73
     3
176
     1
 90
        0
176
     1
 40
-0.6
176
     1
 41
-30.0
176
     1
 62
     5
 63
     8
421
  8421504
176
     1
 74
     1
176
     1
 91
        4
176
     1
 64
     7
176
     1
 65
   257
176
     1
 75
     1
176
     1
175
     1
176
     1
 42
1.0
176
     1
 92
        8
176
     1
 66
     8
424
  8421504
176
     1
 43
1.0
176
     1
 76
     1
176
     1
 77
     6
176
     1
 78
     2
176
     1
 67
     7
176
     1
 79
     5
176
     1
170
     0
176
     1
171
     0
176
     1
290
     0
176
     1
 93
        1
176
     1
 44
0.0
176
     1
173
     0
176
     1
  0
VISUALSTYLE
  5
34
102
{ACAD_REACTORS
330
2A
102
}
330
2A
100
AcDbVisualStyle
  2
Conceptual
 70
     9
177
     2
291
     0
 71
     3
176
     1
 72
     2
176
     1
 73
     0
176
     1
 90
        0
176
     1
 40
-0.6
176
     1
 41
-30.0
176
     1
 62
     5
 63
     7
421
 16777215
176
     1
 74
     2
176
     1
 91
        2
176
     1
 64
     7
176
     1
 65
   257
176
     1
 75
     1
176
     1
175
     1
176
     1
 42
40.0
176
     1
 92
        8
176
     1
 66
     7
176
     1
 43
1.0
176
     1
 76
     1
176
     1
 77
     6
176
     1
 78
     2
176
     1
 67
     7
176
     1
 79
     3
176
     1
170
     0
176
     1
171
     0
176
     1
290
     0
176
     1
 93
        1
176
     1
 44
0.0
176
     1
173
     0
176
     1
  0
VISUALSTYLE
  5
35
102
{ACAD_REACTORS
330
2A
102
}
330
2A
100
AcDbVisualStyle
  2
Dim
 70
    11
177
     2
291
     1
 71
     2
176
     1
 72
     2
176
     1
 73
     0
176
     1
 90
        0
176
     1
 40
-0.6
176
     1
 41
-30.0
176
     1
 62
     5
 63
     7
421
 16777215
176
     1
 74
     1
176
     1
 91
        4
176
     1
 64
     7
176
     1
 65
   257
176
     1
 75
     1
176
     1
175
     1
176
     1
 42
1.0
176
     1
 92
        8
176
     1
 66
     7
176
     1
 43
1.0
176
     1
 76
     1
176
     1
 77
     6
176
     1
 78
     2
176
     1
 67
     7
176
     1
 79
     5
176
     1
170
     0
176
     1
171
     0
176
     1
290
     0
176
     1
 93
        1
176
     1
 44
-50.0
176
     1
173
     0
176
     1
  0
VISUALSTYLE
  5
39
102
{ACAD_REACTORS
330
2A
102
}
330
2A
100
AcDbVisualStyle
  2
Facepattern
 70
    15
177
     2
291
     1
 71
     2
176
     1
 72
     2
176
     1
 73
     0
176
     1
 90
        0
176
     1
 40
-0.6
176
     1
 41
-30.0
176
     1
 62
     5
 63
     7
421
 16777215
176
     1
 74
     1
176
     1
 91
        4
176
     1
 64
     7
176
     1
 65
   257
176
     1
 75
     1
176
     1
175
     1
176
     1
 42
1.0
176
     1
 92
        8
176
     1
 66
     7
176
     1
 43
1.0
176
     1
 76
     1
176
     1
 77
     6
176
     1
 78
     2
176
     1
 67
     7
176
     1
 79
     5
176
     1
170
     0
176
     1
171
     0
176
     1
290
     0
176
     1
 93
        1
176
     1
 44
0.0
176
     1
173
     0
176
     1
  0
VISUALSTYLE
  5
2B
102
{ACAD_REACTORS
330
2A
102
}
330
2A
100
AcDbVisualStyle
  2
Flat
 70
     0
177
     2
291
     1
 71
     2
176
     1
 72
     1
176
     1
 73
     1
176
     1
 90
        2
176
     1
 40
-0.6
176
     1
 41
30.0
176
     1
 62
     5
 63
     7
421
 16777215
176
     1
 74
     0
176
     1
 91
        4
176
     1
 64
     7
176
     1
 65
   257
176
     1
 75
     1
176
     1
175
     1
176
     1
 42
1.0
176
     1
 92
        8
176
     1
 66
     7
176
     1
 43
1.0
176
     1
 76
     1
176
     1
 77
     6
176
     1
 78
     2
176
     1
 67
     7
176
     1
 79
     5
176
     1
170
     0
176
     1
171
     0
176
     1
290
     0
176
     1
 93
       13
176
     1
 44
0.0
176
     1
173
     0
176
     1
  0
VISUALSTYLE
  5
2C
102
{ACAD_REACTORS
330
2A
102
}
330
2A
100
AcDbVisualStyle
  2
FlatWithEdges
 70
     1
177
     2
291
     1
 71
     2
176
     1
 72
     1
176
     1
 73
     1
176
     1
 90
        2
176
     1
 40
-0.6
176
     1
 41
30.0
176
     1
 62
     5
 63
     7
421
 16777215
176
     1
 74
     1
176
     1
 91
        4
176
     1
 64
     7
176
     1
 65
   257
176
     1
 75
     1
176
     1
175
     1
176
     1
 42
1.0
176
     1
 92
        0
176
     1
 66
   257
176
     1
 43
1.0
176
     1
 76
     1
176
     1
 77
     6
176
     1
 78
     2
176
     1
 67
     7
176
     1
 79
     5
176
     1
170
     0
176
     1
171
     0
176
     1
290
     0
176
     1
 93
       13
176
     1
 44
0.0
176
     1
173
     0
176
     1
  0
VISUALSTYLE
  5
2D
102
{ACAD_REACTORS
330
2A
102
}
330
2A
100
AcDbVisualStyle
  2
Gouraud
 70
     2
177
     2
291
     1
 71
     2
176
     1
 72
     2
176
     1
 73
     1
176
     1
 90
        2
176
     1
 40
-0.6
176
     1
 41
30.0
176
     1
 62
     5
 63
     7
421
 16777215
176
     1
 74
     0
176
     1
 91
        4
176
     1
 64
     7
176
     1
 65
   257
176
     1
 75
     1
176
     1
175
     1
176
     1
 42
1.0
176
     1
 92
        0
176
     1
 66
     7
176
     1
 43
1.0
176
     1
 76
     1
176
     1
 77
     6
176
     1
 78
     2
176
     1
 67
     7
176
     1
 79
     5
176
     1
170
     0
176
     1
171
     0
176
     1
290
     0
176
     1
 93
       13
176
     1
 44
0.0
176
     1
173
     0
176
     1
  0
VISUALSTYLE
  5
2E
102
{ACAD_REACTORS
330
2A
102
}
330
2A
100
AcDbVisualStyle
  2
GouraudWithEdges
 70
     3
177
     2
291
     1
 71
     2
176
     1
 72
     2
176
     1
 73
     1
176
     1
 90
        2
176
     1
 40
-0.6
176
     1
 41
30.0
176
     1
 62
     5
 63
     7
421
 16777215
176
     1
 74
     1
176
     1
 91
        4
176
     1
 64
     7
176
     1
 65
   257
176
     1
 75
     1
176
     1
175
     1
176
     1
 42
1.0
176
     1
 92
        0
176
     1
 66
   257
176
     1
 43
1.0
176
     1
 76
     1
176
     1
 77
     6
176
     1
 78
     2
176
     1
 67
     7
176
     1
 79
     5
176
     1
170
     0
176
     1
171
     0
176
     1
290
     0
176
     1
 93
       13
176
     1
 44
0.0
176
     1
173
     0
176
     1
  0
VISUALSTYLE
  5
38
102
{ACAD_REACTORS
330
2A
102
}
330
2A
100
AcDbVisualStyle
  2
Linepattern
 70
    14
177
     2
291
     1
 71
     2
176
     1
 72
     2
176
     1
 73
     0
176
     1
 90
        0
176
     1
 40
-0.6
176
     1
 41
-30.0
176
     1
 62
     5
 63
     7
421
 16777215
176
     1
 74
     1
176
     1
 91
        4
176
     1
 64
     7
176
     1
 65
   257
176
     1
 75
     7
176
     1
175
     7
176
     1
 42
1.0
176
     1
 92
        8
176
     1
 66
     7
176
     1
 43
1.0
176
     1
 76
     1
176
     1
 77
     6
176
     1
 78
     2
176
     1
 67
     7
176
     1
 79
     5
176
     1
170
     0
176
     1
171
     0
176
     1
290
     0
176
     1
 93
        1
176
     1
 44
0.0
176
     1
173
     0
176
     1
  0
VISUALSTYLE
  5
33
102
{ACAD_REACTORS
330
2A
102
}
330
2A
100
AcDbVisualStyle
  2
Realistic
 70
     8
177
     2
291
     0
 71
     2
176
     1
 72
     2
176
     1
 73
     0
176
     1
 90
        0
176
     1
 40
-0.6
176
     1
 41
-30.0
176
     1
 62
     5
 63
     7
421
 16777215
176
     1
 74
     1
176
     1
 91
        0
176
     1
 64
     7
176
     1
 65
   257
176
     1
 75
     1
176
     1
175
     1
176
     1
 42
1.0
176
     1
 92
        8
176
     1
 66
     8
424
  7895160
176
     1
 43
1.0
176
     1
 76
     1
176
     1
 77
     6
176
     1
 78
     2
176
     1
 67
     7
176
     1
 79
     5
176
     1
170
     0
176
     1
171
     0
176
     1
290
     0
176
     1
 93
       13
176
     1
 44
0.0
176
     1
173
     0
176
     1
  0
VISUALSTYLE
  5
37
102
{ACAD_REACTORS
330
2A
102
}
330
2A
100
AcDbVisualStyle
  2
Thicken
 70
    13
177
     2
291
     1
 71
     2
176
     1
 72
     2
176
     1
 73
     0
176
     1
 90
        0
176
     1
 40
-0.6
176
     1
 41
-30.0
176
     1
 62
     5
 63
     7
421
 16777215
176
     1
 74
     1
176
     1
 91
        4
176
     1
 64
     7
176
     1
 65
   257
176
     1
 75
     1
176
     1
175
     1
176
     1
 42
1.0
176
     1
 92
       12
176
     1
 66
     7
176
     1
 43
1.0
176
     1
 76
     1
176
     1
 77
     6
176
     1
 78
     2
176
     1
 67
     7
176
     1
 79
     5
176
     1
170
     0
176
     1
171
     0
176
     1
290
     0
176
     1
 93
        1
176
     1
 44
0.0
176
     1
173
     0
176
     1
  0
ENDSEC
  0
EOF
