  0
SECTION
  2
HEADER
  9
$ACADVER
  1
AC1024
  9
$ACADMAINTVER
 70
     6
  9
$DWGCODEPAGE
  3
ANSI_1252
  9
$INSBASE
 10
0.0
 20
0.0
 30
0.0
  9
$EXTMIN
 10
1.000000000000000E+20
 20
1.000000000000000E+20
 30
1.000000000000000E+20
  9
$EXTMAX
 10
-1.000000000000000E+20
 20
-1.000000000000000E+20
 30
-1.000000000000000E+20
  9
$LIMMIN
 10
0.0
 20
0.0
  9
$LIMMAX
 10
12.0
 20
9.0
  9
$ORTHOMODE
 70
     0
  9
$REGENMODE
 70
     1
  9
$FILLMODE
 70
     1
  9
$QTEXTMODE
 70
     0
  9
$MIRRTEXT
 70
     1
  9
$LTSCALE
 40
1.0
  9
$ATTMODE
 70
     1
  9
$TEXTSIZE
 40
0.2
  9
$TRACEWID
 40
0.05
  9
$TEXTSTYLE
  7
Standard
  9
$CLAYER
  8
0
  9
$CELTYPE
  6
ByLayer
  9
$CECOLOR
 62
   256
  9
$CELTSCALE
 40
1.0
  9
$DISPSILH
 70
     0
  9
$DIMSCALE
 40
1.0
  9
$DIMASZ
 40
0.18
  9
$DIMEXO
 40
0.0625
  9
$DIMDLI
 40
0.38
  9
$DIMRND
 40
0.0
  9
$DIMDLE
 40
0.0
  9
$DIMEXE
 40
0.18
  9
$DIMTP
 40
0.0
  9
$DIMTM
 40
0.0
  9
$DIMTXT
 40
0.18
  9
$DIMCEN
 40
0.09
  9
$DIMTSZ
 40
0.0
  9
$DIMTOL
 70
     0
  9
$DIMLIM
 70
     0
  9
$DIMTIH
 70
     1
  9
$DIMTOH
 70
     1
  9
$DIMSE1
 70
     0
  9
$DIMSE2
 70
     0
  9
$DIMTAD
 70
     0
  9
$DIMZIN
 70
     0
  9
$DIMBLK
  1

  9
$DIMASO
 70
     1
  9
$DIMSHO
 70
     1
  9
$DIMPOST
  1

  9
$DIMAPOST
  1

  9
$DIMALT
 70
     0
  9
$DIMALTD
 70
     2
  9
$DIMALTF
 40
25.4
  9
$DIMLFAC
 40
1.0
  9
$DIMTOFL
 70
     0
  9
$DIMTVP
 40
0.0
  9
$DIMTIX
 70
     0
  9
$DIMSOXD
 70
     0
  9
$DIMSAH
 70
     0
  9
$DIMBLK1
  1

  9
$DIMBLK2
  1

  9
$DIMSTYLE
  2
Standard
  9
$DIMCLRD
 70
     0
  9
$DIMCLRE
 70
     0
  9
$DIMCLRT
 70
     0
  9
$DIMTFAC
 40
1.0
  9
$DIMGAP
 40
0.09
  9
$DIMJUST
 70
     0
  9
$DIMSD1
 70
     0
  9
$DIMSD2
 70
     0
  9
$DIMTOLJ
 70
     1
  9
$DIMTZIN
 70
     0
  9
$DIMALTZ
 70
     0
  9
$DIMALTTZ
 70
     0
  9
$DIMUPT
 70
     0
  9
$DIMDEC
 70
     4
  9
$DIMTDEC
 70
     4
  9
$DIMALTU
 70
     2
  9
$DIMALTTD
 70
     2
  9
$DIMTXSTY
  7
Standard
  9
$DIMAUNIT
 70
     0
  9
$DIMADEC
 70
     0
  9
$DIMALTRND
 40
0.0
  9
$DIMAZIN
 70
     0
  9
$DIMDSEP
 70
    46
  9
$DIMATFIT
 70
     3
  9
$DIMFRAC
 70
     0
  9
$DIMLDRBLK
  1

  9
$DIMLUNIT
 70
     2
  9
$DIMLWD
 70
    -2
  9
$DIMLWE
 70
    -2
  9
$DIMTMOVE
 70
     0
  9
$DIMFXL
 40
1.0
  9
$DIMFXLON
 70
     0
  9
$DIMJOGANG
 40
0.7853981633974483
  9
$DIMTFILL
 70
     0
  9
$DIMTFILLCLR
 70
     0
  9
$DIMARCSYM
 70
     0
  9
$DIMLTYPE
  6

  9
$DIMLTEX1
  6

  9
$DIMLTEX2
  6

  9
$DIMTXTDIRECTION
 70
     0
  9
$LUNITS
 70
     2
  9
$LUPREC
 70
     4
  9
$SKETCHINC
 40
0.1
  9
$FILLETRAD
 40
0.5
  9
$AUNITS
 70
     0
  9
$AUPREC
 70
     0
  9
$MENU
  1
.
  9
$ELEVATION
 40
0.0
  9
$PELEVATION
 40
0.0
  9
$THICKNESS
 40
0.0
  9
$LIMCHECK
 70
     0
  9
$CHAMFERA
 40
0.5
  9
$CHAMFERB
 40
0.5
  9
$CHAMFERC
 40
1.0
  9
$CHAMFERD
 40
0.0
  9
$SKPOLY
 70
     0
  9
$TDCREATE
 40
2459171.807796377
  9
$TDUCREATE
 40
2459172.141129711
  9
$TDUPDATE
 40
2459171.807796401
  9
$TDUUPDATE
 40
2459172.141129734
  9
$TDINDWG
 40
0.0000000116
  9
$TDUSRTIMER
 40
0.0000000116
  9
$USRTIMER
 70
     1
  9
$ANGBASE
 50
0.0
  9
$ANGDIR
 70
     0
  9
$PDMODE
 70
     0
  9
$PDSIZE
 40
0.0
  9
$PLINEWID
 40
0.0
  9
$SPLFRAME
 70
     0
  9
$SPLINETYPE
 70
     6
  9
$SPLINESEGS
 70
     8
  9
$HANDSEED
  5
CA
  9
$SURFTAB1
 70
     6
  9
$SURFTAB2
 70
     6
  9
$SURFTYPE
 70
     6
  9
$SURFU
 70
     6
  9
$SURFV
 70
     6
  9
$UCSBASE
  2

  9
$UCSNAME
  2

  9
$UCSORG
 10
0.0
 20
0.0
 30
0.0
  9
$UCSXDIR
 10
1.0
 20
0.0
 30
0.0
  9
$UCSYDIR
 10
0.0
 20
1.0
 30
0.0
  9
$UCSORTHOREF
  2

  9
$UCSORTHOVIEW
 70
     0
  9
$UCSORGTOP
 10
0.0
 20
0.0
 30
0.0
  9
$UCSORGBOTTOM
 10
0.0
 20
0.0
 30
0.0
  9
$UCSORGLEFT
 10
0.0
 20
0.0
 30
0.0
  9
$UCSORGRIGHT
 10
0.0
 20
0.0
 30
0.0
  9
$UCSORGFRONT
 10
0.0
 20
0.0
 30
0.0
  9
$UCSORGBACK
 10
0.0
 20
0.0
 30
0.0
  9
$PUCSBASE
  2

  9
$PUCSNAME
  2

  9
$PUCSORG
 10
0.0
 20
0.0
 30
0.0
  9
$PUCSXDIR
 10
1.0
 20
0.0
 30
0.0
  9
$PUCSYDIR
 10
0.0
 20
1.0
 30
0.0
  9
$PUCSORTHOREF
  2

  9
$PUCSORTHOVIEW
 70
     0
  9
$PUCSORGTOP
 10
0.0
 20
0.0
 30
0.0
  9
$PUCSORGBOTTOM
 10
0.0
 20
0.0
 30
0.0
  9
$PUCSORGLEFT
 10
0.0
 20
0.0
 30
0.0
  9
$PUCSORGRIGHT
 10
0.0
 20
0.0
 30
0.0
  9
$PUCSORGFRONT
 10
0.0
 20
0.0
 30
0.0
  9
$PUCSORGBACK
 10
0.0
 20
0.0
 30
0.0
  9
$USERI1
 70
     0
  9
$USERI2
 70
     0
  9
$USERI3
 70
     0
  9
$USERI4
 70
     0
  9
$USERI5
 70
     0
  9
$USERR1
 40
0.0
  9
$USERR2
 40
0.0
  9
$USERR3
 40
0.0
  9
$USERR4
 40
0.0
  9
$USERR5
 40
0.0
  9
$WORLDVIEW
 70
     1
  9
$SHADEDGE
 70
     3
  9
$SHADEDIF
 70
    70
  9
$TILEMODE
 70
     1
  9
$MAXACTVP
 70
    64
  9
$PINSBASE
 10
0.0
 20
0.0
 30
0.0
  9
$PLIMCHECK
 70
     0
  9
$PEXTMIN
 10
1.000000000000000E+20
 20
1.000000000000000E+20
 30
1.000000000000000E+20
  9
$PEXTMAX
 10
-1.000000000000000E+20
 20
-1.000000000000000E+20
 30
-1.000000000000000E+20
  9
$PLIMMIN
 10
0.0
 20
0.0
  9
$PLIMMAX
 10
12.0
 20
9.0
  9
$UNITMODE
 70
     0
  9
$VISRETAIN
 70
     1
  9
$PLINEGEN
 70
     0
  9
$PSLTSCALE
 70
     1
  9
$TREEDEPTH
 70
  3020
  9
$CMLSTYLE
  2
Standard
  9
$CMLJUST
 70
     0
  9
$CMLSCALE
 40
1.0
  9
$PROXYGRAPHICS
 70
     1
  9
$MEASUREMENT
 70
     0
  9
$CELWEIGHT
370
    -1
  9
$ENDCAPS
280
     0
  9
$JOINSTYLE
280
     0
  9
$LWDISPLAY
290
     1
  9
$INSUNITS
 70
     4
  9
$HYPERLINKBASE
  1

  9
$STYLESHEET
  1

  9
$XEDIT
290
     1
  9
$CEPSNTYPE
380
     0
  9
$PSTYLEMODE
290
     1
  9
$FINGERPRINTGUID
  2
{C640950F-EEF1-4535-A64B-873AA78F3B43}
  9
$VERSIONGUID
  2
{FAEB1C32-E019-11D5-929B-00C0DF256EC4}
  9
$EXTNAMES
290
     1
  9
$PSVPSCALE
 40
0.0
  9
$OLESTARTUP
290
     0
  9
$SORTENTS
280
   127
  9
$INDEXCTL
280
     0
  9
$HIDETEXT
280
     1
  9
$XCLIPFRAME
280
     2
  9
$HALOGAP
280
     0
  9
$OBSCOLOR
 70
   257
  9
$OBSLTYPE
280
     0
  9
$INTERSECTIONDISPLAY
280
     0
  9
$INTERSECTIONCOLOR
 70
   257
  9
$DIMASSOC
280
     2
  9
$PROJECTNAME
  1

  9
$CAMERADISPLAY
290
     0
  9
$LENSLENGTH
 40
50.0
  9
$CAMERAHEIGHT
 40
0.0
  9
$STEPSPERSEC
 40
2.0
  9
$STEPSIZE
 40
6.0
  9
$3DDWFPREC
 40
2.0
  9
$PSOLWIDTH
 40
0.25
  9
$PSOLHEIGHT
 40
4.0
  9
$LOFTANG1
 40
1.570796326794897
  9
$LOFTANG2
 40
1.570796326794897
  9
$LOFTMAG1
 40
0.0
  9
$LOFTMAG2
 40
0.0
  9
$LOFTPARAM
 70
     7
  9
$LOFTNORMALS
280
     1
  9
$LATITUDE
 40
37.795
  9
$LONGITUDE
 40
-122.394
  9
$NORTHDIRECTION
 40
0.0
  9
$TIMEZONE
 70
 -8000
  9
$LIGHTGLYPHDISPLAY
280
     1
  9
$TILEMODELIGHTSYNCH
280
     1
  9
$CMATERIAL
347
3C
  9
$SOLIDHIST
280
     1
  9
$SHOWHIST
280
     1
  9
$DWFFRAME
280
     2
  9
$DGNFRAME
280
     2
  9
$REALWORLDSCALE
290
     1
  9
$INTERFERECOLOR
 62
   256
  9
$CSHADOW
280
     0
  9
$SHADOWPLANELOCATION
 40
0.0
  0
ENDSEC
  0
SECTION
  2
CLASSES
  0
CLASS
  1
ACDBDICTIONARYWDFLT
  2
AcDbDictionaryWithDefault
  3
ObjectDBX Classes
 90
        0
 91
        4
280
     0
281
     0
  0
CLASS
  1
VISUALSTYLE
  2
AcDbVisualStyle
  3
ObjectDBX Classes
 90
     4095
 91
        4
280
     0
281
     0
  0
CLASS
  1
MATERIAL
  2
AcDbMaterial
  3
ObjectDBX Classes
 90
     1153
 91
        4
280
     0
281
     0
  0
CLASS
  1
SUN
  2
AcDbSun
  3
SCENEOE
 90
     1024
 91
        4
280
     0
281
     0
  0
ENDSEC
  0
SECTION
  2
TABLES
  0
TABLE
  2
VPORT
  5
8
330
0
100
AcDbSymbolTable
 70
     1
  0
VPORT
  5
29
330
8
100
AcDbSymbolTableRecord
100
AcDbViewportTableRecord
  2
*Active
 70
     0
 10
0.0
 20
0.0
 11
1.0
 21
1.0
 12
0.0
 22
0.0
 13
0.0
 23
0.0
 14
0.5
 24
0.5
 15
0.5
 25
0.5
 16
0.0
 26
0.0
 36
1.0
 17
959.99999976
 27
539.999999865
 37
0.0
 40
1079.99999973
 41
1.777777777777778
 42
50.0
 43
0.0
 44
0.0
 50
0.0
 51
0.0
 71
     0
 72
   100
 73
     1
 74
     3
 75
     0
 76
     0
 77
     0
 78
     0
281
     0
 65
     1
110
0.0
120
0.0
130
0.0
111
1.0
121
0.0
131
0.0
112
0.0
122
1.0
132
0.0
 79
     0
146
0.0
 60
     3
 61
     5
292
     1
282
     1
141
0.0
142
0.0
 63
   250
361
3F
  0
ENDTAB
  0
TABLE
  2
LTYPE
  5
5
330
0
100
AcDbSymbolTable
 70
     1
  0
LTYPE
  5
14
330
5
100
AcDbSymbolTableRecord
100
AcDbLinetypeTableRecord
  2
ByBlock
 70
     0
  3

 72
    65
 73
     0
 40
0.0
  0
LTYPE
  5
15
330
5
100
AcDbSymbolTableRecord
100
AcDbLinetypeTableRecord
  2
ByLayer
 70
     0
  3

 72
    65
 73
     0
 40
0.0
  0
LTYPE
  5
16
330
5
100
AcDbSymbolTableRecord
100
AcDbLinetypeTableRecord
  2
Continuous
 70
     0
  3
Solid line
 72
    65
 73
     0
 40
0.0
  0
ENDTAB
  0
TABLE
  2
LAYER
  5
2
330
0
100
AcDbSymbolTable
 70
     1
  0
LAYER
  5
10
330
2
100
AcDbSymbolTableRecord
100
AcDbLayerTableRecord
  2
0
 70
     0
 62
     7
  6
Continuous
370
    -3
390
F
347
3E
  0
ENDTAB
  0
TABLE
  2
STYLE
  5
3
330
0
100
AcDbSymbolTable
 70
     1
  0
STYLE
  5
11
330
3
100
AcDbSymbolTableRecord
100
AcDbTextStyleTableRecord
  2
Standard
 70
     0
 40
0.0
 41
1.0
 50
0.0
 71
     0
 42
0.2
  3
txt
  4

  0
ENDTAB
  0
TABLE
  2
VIEW
  5
6
330
0
100
AcDbSymbolTable
 70
     0
  0
ENDTAB
  0
TABLE
  2
UCS
  5
7
330
0
100
AcDbSymbolTable
 70
     0
  0
ENDTAB
  0
TABLE
  2
APPID
  5
9
330
0
100
AcDbSymbolTable
 70
     1
  0
APPID
  5
12
330
9
100
AcDbSymbolTableRecord
100
AcDbRegAppTableRecord
  2
ACAD
 70
     0
  0
ENDTAB
  0
TABLE
  2
DIMSTYLE
  5
A
330
0
100
AcDbSymbolTable
 70
     1
100
AcDbDimStyleTable
  0
DIMSTYLE
105
27
330
A
100
AcDbSymbolTableRecord
100
AcDbDimStyleTableRecord
  2
Standard
 70
     0
178
     0
340
11
  0
ENDTAB
  0
TABLE
  2
BLOCK_RECORD
  5
1
330
0
100
AcDbSymbolTable
 70
    15
  0
BLOCK_RECORD
  5
1F
330
1
100
AcDbSymbolTableRecord
100
AcDbBlockTableRecord
  2
*Model_Space
340
22
 70
     0
280
     1
281
     0
  0
BLOCK_RECORD
  5
1B
330
1
100
AcDbSymbolTableRecord
100
AcDbBlockTableRecord
  2
*Paper_Space
340
1E
 70
     0
280
     1
281
     0
  0
BLOCK_RECORD
  5
23
330
1
100
AcDbSymbolTableRecord
100
AcDbBlockTableRecord
  2
*Paper_Space0
340
26
 70
     0
280
     1
281
     0
  0
BLOCK_RECORD
  5
40
330
1
100
AcDbSymbolTableRecord
100
AcDbBlockTableRecord
  2
block 2
340
0
102
{BLKREFS
331
41
102
}
 70
     0
280
     1
281
     0
  0
BLOCK_RECORD
  5
4F
330
1
100
AcDbSymbolTableRecord
100
AcDbBlockTableRecord
  2
block 3
340
0
102
{BLKREFS
331
50
102
}
 70
     0
280
     1
281
     0
  0
BLOCK_RECORD
  5
54
330
1
100
AcDbSymbolTableRecord
100
AcDbBlockTableRecord
  2
block 4
340
0
102
{BLKREFS
331
55
102
}
 70
     0
280
     1
281
     0
  0
BLOCK_RECORD
  5
5F
330
1
100
AcDbSymbolTableRecord
100
AcDbBlockTableRecord
  2
block 5
340
0
102
{BLKREFS
331
60
102
}
 70
     0
280
     1
281
     0
  0
BLOCK_RECORD
  5
64
330
1
100
AcDbSymbolTableRecord
100
AcDbBlockTableRecord
  2
block 6
340
0
102
{BLKREFS
331
65
102
}
 70
     0
280
     1
281
     0
  0
BLOCK_RECORD
  5
69
330
1
100
AcDbSymbolTableRecord
100
AcDbBlockTableRecord
  2
block 7
340
0
102
{BLKREFS
331
6A
102
}
 70
     0
280
     1
281
     0
  0
BLOCK_RECORD
  5
6E
330
1
100
AcDbSymbolTableRecord
100
AcDbBlockTableRecord
  2
block 8
340
0
102
{BLKREFS
331
6F
102
}
 70
     0
280
     1
281
     0
  0
BLOCK_RECORD
  5
73
330
1
100
AcDbSymbolTableRecord
100
AcDbBlockTableRecord
  2
block 9
340
0
102
{BLKREFS
331
74
102
}
 70
     0
280
     1
281
     0
  0
BLOCK_RECORD
  5
78
330
1
100
AcDbSymbolTableRecord
100
AcDbBlockTableRecord
  2
block 10
340
0
102
{BLKREFS
331
79
102
}
 70
     0
280
     1
281
     0
  0
BLOCK_RECORD
  5
7D
330
1
100
AcDbSymbolTableRecord
100
AcDbBlockTableRecord
  2
block 11
340
0
102
{BLKREFS
331
7E
102
}
 70
     0
280
     1
281
     0
  0
BLOCK_RECORD
  5
82
330
1
100
AcDbSymbolTableRecord
100
AcDbBlockTableRecord
  2
block 12
340
0
102
{BLKREFS
331
83
102
}
 70
     0
280
     1
281
     0
  0
BLOCK_RECORD
  5
87
330
1
100
AcDbSymbolTableRecord
100
AcDbBlockTableRecord
  2
block 13
340
0
102
{BLKREFS
331
88
102
}
 70
     0
280
     1
281
     0
  0
BLOCK_RECORD
  5
8C
330
1
100
AcDbSymbolTableRecord
100
AcDbBlockTableRecord
  2
block 14
340
0
102
{BLKREFS
331
8D
102
}
 70
     0
280
     1
281
     0
  0
BLOCK_RECORD
  5
91
330
1
100
AcDbSymbolTableRecord
100
AcDbBlockTableRecord
  2
block 15
340
0
102
{BLKREFS
331
92
102
}
 70
     0
280
     1
281
     0
  0
ENDTAB
  0
ENDSEC
  0
SECTION
  2
BLOCKS
  0
BLOCK
  5
20
330
1F
100
AcDbEntity
  8
0
100
AcDbBlockBegin
  2
*Model_Space
 70
     0
 10
0.0
 20
0.0
 30
0.0
  3
*Model_Space
  1

  0
ENDBLK
  5
21
330
1F
100
AcDbEntity
  8
0
100
AcDbBlockEnd
  0
BLOCK
  5
1C
330
1B
100
AcDbEntity
 67
     1
  8
0
100
AcDbBlockBegin
  2
*Paper_Space
 70
     0
 10
0.0
 20
0.0
 30
0.0
  3
*Paper_Space
  1

  0
ENDBLK
  5
1D
330
1B
100
AcDbEntity
 67
     1
  8
0
100
AcDbBlockEnd
  0
BLOCK
  5
24
330
23
100
AcDbEntity
  8
0
100
AcDbBlockBegin
  2
*Paper_Space0
 70
     0
 10
0.0
 20
0.0
 30
0.0
  3
*Paper_Space0
  1

  0
ENDBLK
  5
25
330
23
100
AcDbEntity
  8
0
100
AcDbBlockEnd
  0
BLOCK
  5
42
330
40
100
AcDbEntity
  8
0
100
AcDbBlockBegin
  2
block 2
 70
     0
 10
0.0
 20
0.0
 30
0.0
  3
block 2
  1

  0
POLYLINE
  5
44
330
40
100
AcDbEntity
  8
0
 62
     7
420
 16777215
370
    25
100
AcDb2dPolyline
 66
     1
 10
0.0
 20
0.0
 30
0.0
  0
VERTEX
  5
45
330
44
100
AcDbEntity
  8
0
 62
     7
420
 16777215
370
    25
100
AcDbVertex
100
AcDb2dVertex
 10
827.7616349167516
 20
492.2968740452165
 30
0.0
  0
VERTEX
  5
46
330
44
100
AcDbEntity
  8
0
 62
     7
420
 16777215
370
    25
100
AcDbVertex
100
AcDb2dVertex
 10
1114.463438055704
 20
492.2968740452165
 30
0.0
  0
VERTEX
  5
47
330
44
100
AcDbEntity
  8
0
 62
     7
420
 16777215
370
    25
100
AcDbVertex
100
AcDb2dVertex
 10
1114.463438055704
 20
588.4968740211673
 30
0.0
  0
VERTEX
  5
48
330
44
100
AcDbEntity
  8
0
 62
     7
420
 16777215
370
    25
100
AcDbVertex
100
AcDb2dVertex
 10
875.3866349048453
 20
588.4968740211673
 30
0.0
  0
VERTEX
  5
49
330
44
100
AcDbEntity
  8
0
 62
     7
420
 16777215
370
    25
100
AcDbVertex
100
AcDb2dVertex
 10
875.3866349048453
 20
569.4468740259296
 30
0.0
  0
VERTEX
  5
4A
330
44
100
AcDbEntity
  8
0
 62
     7
420
 16777215
370
    25
100
AcDbVertex
100
AcDb2dVertex
 10
856.3366349096077
 20
569.4468740259296
 30
0.0
  0
VERTEX
  5
4B
330
44
100
AcDbEntity
  8
0
 62
     7
420
 16777215
370
    25
100
AcDbVertex
100
AcDb2dVertex
 10
856.3366349096077
 20
550.3968740306918
 30
0.0
  0
VERTEX
  5
4C
330
44
100
AcDbEntity
  8
0
 62
     7
420
 16777215
370
    25
100
AcDbVertex
100
AcDb2dVertex
 10
827.7616349167516
 20
550.3968740306918
 30
0.0
  0
VERTEX
  5
4D
330
44
100
AcDbEntity
  8
0
 62
     7
420
 16777215
370
    25
100
AcDbVertex
100
AcDb2dVertex
 10
827.7616349167516
 20
492.2968740452165
 30
0.0
  0
SEQEND
  5
4E
330
44
100
AcDbEntity
  8
0
 62
     7
420
 16777215
370
    25
  0
ENDBLK
  5
43
330
40
100
AcDbEntity
  8
0
100
AcDbBlockEnd
  0
BLOCK
  5
51
330
4F
100
AcDbEntity
  8
0
100
AcDbBlockBegin
  2
block 3
 70
     0
 10
0.0
 20
0.0
 30
0.0
  3
block 3
  1

  0
SPLINE
  5
53
330
4F
100
AcDbEntity
  8
0
 62
     7
420
 16777215
370
    25
100
AcDbSpline
210
0.0
220
0.0
230
1.0
 70
    11
 71
     3
 72
    32
 73
    28
 74
     0
 42
0.0000000001
 43
0.0000000001
 12
1.0
 22
0.0
 32
0.0
 13
1.0
 23
0.0
 33
0.0
 40
0.0
 40
0.0
 40
0.0
 40
0.0
 40
1.0
 40
1.0
 40
1.0
 40
2.0
 40
2.0
 40
2.0
 40
3.0
 40
3.0
 40
3.0
 40
4.0
 40
4.0
 40
4.0
 40
5.0
 40
5.0
 40
5.0
 40
6.0
 40
6.0
 40
6.0
 40
7.0
 40
7.0
 40
7.0
 40
8.0
 40
8.0
 40
8.0
 40
9.0
 40
9.0
 40
9.0
 40
9.0
 10
813.4741349203231
 20
593.2594049203309
 30
0.0
 10
813.4741349203231
 20
593.2594049203309
 30
0.0
 10
813.4741349203231
 20
573.2593740249764
 30
0.0
 10
813.4741349203231
 20
573.2593740249764
 30
0.0
 10
813.4741349203231
 20
573.2593740249764
 30
0.0
 10
832.5241349155608
 20
573.2593740249764
 30
0.0
 10
832.5241349155608
 20
573.2593740249764
 30
0.0
 10
832.5241349155608
 20
573.2593740249764
 30
0.0
 10
832.5241349155608
 20
554.2093740297388
 30
0.0
 10
832.5241349155608
 20
554.2093740297388
 30
0.0
 10
832.5241349155608
 20
554.2093740297388
 30
0.0
 10
852.5241349105607
 20
554.2093740297388
 30
0.0
 10
852.5241349105607
 20
554.2093740297388
 30
0.0
 10
852.5241349105607
 20
554.2093740297388
 30
0.0
 10
852.5241349105607
 20
573.2593740249764
 30
0.0
 10
852.5241349105607
 20
573.2593740249764
 30
0.0
 10
852.5241349105607
 20
573.2593740249764
 30
0.0
 10
871.5741349057985
 20
573.2593740249764
 30
0.0
 10
871.5741349057985
 20
573.2593740249764
 30
0.0
 10
871.5741349057985
 20
573.2593740249764
 30
0.0
 10
871.5741349057985
 20
593.2593740199765
 30
0.0
 10
871.5741349057985
 20
593.2593740199765
 30
0.0
 10
871.5741349057985
 20
593.2593740199765
 30
0.0
 10
814.5115614591657
 20
593.2593740199765
 30
0.0
 10
814.5115614591657
 20
593.2593740199765
 30
0.0
 10
814.5115614591657
 20
593.2594049203309
 30
0.0
 10
813.4741349203231
 20
593.2594049203309
 30
0.0
 10
813.4741349203231
 20
593.2594049203309
 30
0.0
  0
ENDBLK
  5
52
330
4F
100
AcDbEntity
  8
0
100
AcDbBlockEnd
  0
BLOCK
  5
56
330
54
100
AcDbEntity
  8
0
100
AcDbBlockBegin
  2
block 4
 70
     0
 10
0.0
 20
0.0
 30
0.0
  3
block 4
  1

  0
POLYLINE
  5
58
330
54
100
AcDbEntity
  8
0
 62
     7
420
 16777215
370
    25
100
AcDb2dPolyline
 66
     1
 10
0.0
 20
0.0
 30
0.0
  0
VERTEX
  5
59
330
58
100
AcDbEntity
  8
0
 62
     7
420
 16777215
370
    25
100
AcDbVertex
100
AcDb2dVertex
 10
812.5522192179836
 20
520.6529311059494
 30
0.0
  0
VERTEX
  5
5A
330
58
100
AcDbEntity
  8
0
 62
     7
420
 16777215
370
    25
100
AcDbVertex
100
AcDb2dVertex
 10
820.152219216083
 20
520.6529311059494
 30
0.0
  0
VERTEX
  5
5B
330
58
100
AcDbEntity
  8
0
 62
     7
420
 16777215
370
    25
100
AcDbVertex
100
AcDb2dVertex
 10
820.152219216083
 20
544.9529310998755
 30
0.0
  0
VERTEX
  5
5C
330
58
100
AcDbEntity
  8
0
 62
     7
420
 16777215
370
    25
100
AcDbVertex
100
AcDb2dVertex
 10
812.5522192179836
 20
544.9529310998755
 30
0.0
  0
VERTEX
  5
5D
330
58
100
AcDbEntity
  8
0
 62
     7
420
 16777215
370
    25
100
AcDbVertex
100
AcDb2dVertex
 10
812.5522192179836
 20
520.6529311059494
 30
0.0
  0
SEQEND
  5
5E
330
58
100
AcDbEntity
  8
0
 62
     7
420
 16777215
370
    25
  0
ENDBLK
  5
57
330
54
100
AcDbEntity
  8
0
100
AcDbBlockEnd
  0
BLOCK
  5
61
330
5F
100
AcDbEntity
  8
0
100
AcDbBlockBegin
  2
block 5
 70
     0
 10
0.0
 20
0.0
 30
0.0
  3
block 5
  1

  0
SPLINE
  5
63
330
5F
100
AcDbEntity
  8
0
 62
     7
420
 16777215
370
    25
100
AcDbSpline
210
0.0
220
0.0
230
1.0
 70
    11
 71
     3
 72
    29
 73
    25
 74
     0
 42
0.0000000001
 43
0.0000000001
 12
1.0
 22
0.0
 32
0.0
 13
1.0
 23
0.0
 33
0.0
 40
0.0
 40
0.0
 40
0.0
 40
0.0
 40
1.0
 40
1.0
 40
1.0
 40
2.0
 40
2.0
 40
2.0
 40
3.0
 40
3.0
 40
3.0
 40
4.0
 40
4.0
 40
4.0
 40
5.0
 40
5.0
 40
5.0
 40
6.0
 40
6.0
 40
6.0
 40
7.0
 40
7.0
 40
7.0
 40
8.0
 40
8.0
 40
8.0
 40
8.0
 10
1119.988438054323
 20
484.2155948103007
 30
0.0
 10
1119.988438054323
 20
481.4541710618367
 30
0.0
 10
1117.749861804037
 20
479.2155948115507
 30
0.0
 10
1114.988438055572
 20
479.2155948115507
 30
0.0
 10
1114.988438055572
 20
479.2155948115507
 30
0.0
 10
805.0115614644275
 20
479.2155948115507
 30
0.0
 10
805.0115614644275
 20
479.2155948115507
 30
0.0
 10
802.2501377159634
 20
479.2155948115507
 30
0.0
 10
800.0115614656775
 20
481.4541710618367
 30
0.0
 10
800.0115614656775
 20
484.2155948103007
 30
0.0
 10
800.0115614656775
 20
484.2155948103007
 30
0.0
 10
800.0115614656775
 20
595.7844049196992
 30
0.0
 10
800.0115614656775
 20
595.7844049196992
 30
0.0
 10
800.0115614656775
 20
598.5458286681633
 30
0.0
 10
802.2501377159634
 20
600.7844049184492
 30
0.0
 10
805.0115614644275
 20
600.7844049184492
 30
0.0
 10
805.0115614644275
 20
600.7844049184492
 30
0.0
 10
1114.988438055572
 20
600.7844049184492
 30
0.0
 10
1114.988438055572
 20
600.7844049184492
 30
0.0
 10
1117.749861804037
 20
600.7844049184492
 30
0.0
 10
1119.988438054323
 20
598.5458286681633
 30
0.0
 10
1119.988438054323
 20
595.7844049196992
 30
0.0
 10
1119.988438054323
 20
595.7844049196992
 30
0.0
 10
1119.988438054323
 20
484.2155948103007
 30
0.0
 10
1119.988438054323
 20
484.2155948103007
 30
0.0
  0
ENDBLK
  5
62
330
5F
100
AcDbEntity
  8
0
100
AcDbBlockEnd
  0
BLOCK
  5
66
330
64
100
AcDbEntity
  8
0
100
AcDbBlockBegin
  2
block 6
 70
     0
 10
0.0
 20
0.0
 30
0.0
  3
block 6
  1

  0
SPLINE
  5
68
330
64
100
AcDbEntity
  8
0
 62
     7
420
 16777215
370
    25
100
AcDbSpline
210
0.0
220
0.0
230
1.0
 70
    11
 71
     3
 72
    20
 73
    16
 74
     0
 42
0.0000000001
 43
0.0000000001
 12
1.0
 22
0.0
 32
0.0
 13
1.0
 23
0.0
 33
0.0
 40
0.0
 40
0.0
 40
0.0
 40
0.0
 40
1.0
 40
1.0
 40
1.0
 40
2.0
 40
2.0
 40
2.0
 40
3.0
 40
3.0
 40
3.0
 40
4.0
 40
4.0
 40
4.0
 40
5.0
 40
5.0
 40
5.0
 40
5.0
 10
905.955780606351
 20
596.2594049195809
 30
0.0
 10
905.955780606351
 20
596.8393039067578
 30
0.0
 10
906.4258816189108
 20
597.3094049193186
 30
0.0
 10
907.0057806060887
 20
597.3094049193186
 30
0.0
 10
907.5856795932657
 20
597.3094049193186
 30
0.0
 10
908.0557806058255
 20
596.8393039067578
 30
0.0
 10
908.0557806058255
 20
596.2594049195809
 30
0.0
 10
908.0557806058255
 20
595.6795059324039
 30
0.0
 10
907.5856795932657
 20
595.2094049198432
 30
0.0
 10
907.0057806060887
 20
595.2094049198432
 30
0.0
 10
906.4258816189108
 20
595.2094049198432
 30
0.0
 10
905.955780606351
 20
595.6795059324039
 30
0.0
 10
905.955780606351
 20
596.2594049195809
 30
0.0
 10
905.955780606351
 20
596.2594049195809
 30
0.0
 10
905.955780606351
 20
596.2594049195809
 30
0.0
 10
905.955780606351
 20
596.2594049195809
 30
0.0
  0
ENDBLK
  5
67
330
64
100
AcDbEntity
  8
0
100
AcDbBlockEnd
  0
BLOCK
  5
6B
330
69
100
AcDbEntity
  8
0
100
AcDbBlockBegin
  2
block 7
 70
     0
 10
0.0
 20
0.0
 30
0.0
  3
block 7
  1

  0
SPLINE
  5
6D
330
69
100
AcDbEntity
  8
0
 62
     7
420
 16777215
370
    25
100
AcDbSpline
210
0.0
220
0.0
230
1.0
 70
    11
 71
     3
 72
    20
 73
    16
 74
     0
 42
0.0000000001
 43
0.0000000001
 12
1.0
 22
0.0
 32
0.0
 13
1.0
 23
0.0
 33
0.0
 40
0.0
 40
0.0
 40
0.0
 40
0.0
 40
1.0
 40
1.0
 40
1.0
 40
2.0
 40
2.0
 40
2.0
 40
3.0
 40
3.0
 40
3.0
 40
4.0
 40
4.0
 40
4.0
 40
5.0
 40
5.0
 40
5.0
 40
5.0
 10
1011.944218914174
 20
483.7405948104191
 30
0.0
 10
1011.944218914174
 20
484.3204937975961
 30
0.0
 10
1012.414319926734
 20
484.7905948101577
 30
0.0
 10
1012.994218913911
 20
484.7905948101577
 30
0.0
 10
1013.574117901088
 20
484.7905948101577
 30
0.0
 10
1014.044218913648
 20
484.3204937975961
 30
0.0
 10
1014.044218913648
 20
483.7405948104191
 30
0.0
 10
1014.044218913648
 20
483.1606958232422
 30
0.0
 10
1013.574117901088
 20
482.6905948106823
 30
0.0
 10
1012.994218913911
 20
482.6905948106823
 30
0.0
 10
1012.414319926734
 20
482.6905948106823
 30
0.0
 10
1011.944218914174
 20
483.1606958232422
 30
0.0
 10
1011.944218914174
 20
483.7405948104191
 30
0.0
 10
1011.944218914174
 20
483.7405948104191
 30
0.0
 10
1011.944218914174
 20
483.7405948104191
 30
0.0
 10
1011.944218914174
 20
483.7405948104191
 30
0.0
  0
ENDBLK
  5
6C
330
69
100
AcDbEntity
  8
0
100
AcDbBlockEnd
  0
BLOCK
  5
70
330
6E
100
AcDbEntity
  8
0
100
AcDbBlockBegin
  2
block 8
 70
     0
 10
0.0
 20
0.0
 30
0.0
  3
block 8
  1

  0
SPLINE
  5
72
330
6E
100
AcDbEntity
  8
0
 62
     7
420
 16777215
370
    25
100
AcDbSpline
210
0.0
220
0.0
230
1.0
 70
    11
 71
     3
 72
    20
 73
    16
 74
     0
 42
0.0000000001
 43
0.0000000001
 12
1.0
 22
0.0
 32
0.0
 13
1.0
 23
0.0
 33
0.0
 40
0.0
 40
0.0
 40
0.0
 40
0.0
 40
1.0
 40
1.0
 40
1.0
 40
2.0
 40
2.0
 40
2.0
 40
3.0
 40
3.0
 40
3.0
 40
4.0
 40
4.0
 40
4.0
 40
5.0
 40
5.0
 40
5.0
 40
5.0
 10
905.955780606351
 20
483.7405948104191
 30
0.0
 10
905.955780606351
 20
484.3204937975961
 30
0.0
 10
906.4258816189108
 20
484.7905948101577
 30
0.0
 10
907.0057806060887
 20
484.7905948101577
 30
0.0
 10
907.5856795932657
 20
484.7905948101577
 30
0.0
 10
908.0557806058255
 20
484.3204937975961
 30
0.0
 10
908.0557806058255
 20
483.7405948104191
 30
0.0
 10
908.0557806058255
 20
483.1606958232422
 30
0.0
 10
907.5856795932657
 20
482.6905948106823
 30
0.0
 10
907.0057806060887
 20
482.6905948106823
 30
0.0
 10
906.4258816189108
 20
482.6905948106823
 30
0.0
 10
905.955780606351
 20
483.1606958232422
 30
0.0
 10
905.955780606351
 20
483.7405948104191
 30
0.0
 10
905.955780606351
 20
483.7405948104191
 30
0.0
 10
905.955780606351
 20
483.7405948104191
 30
0.0
 10
905.955780606351
 20
483.7405948104191
 30
0.0
  0
ENDBLK
  5
71
330
6E
100
AcDbEntity
  8
0
100
AcDbBlockEnd
  0
BLOCK
  5
75
330
73
100
AcDbEntity
  8
0
100
AcDbBlockBegin
  2
block 9
 70
     0
 10
0.0
 20
0.0
 30
0.0
  3
block 9
  1

  0
SPLINE
  5
77
330
73
100
AcDbEntity
  8
0
 62
     7
420
 16777215
370
    25
100
AcDbSpline
210
0.0
220
0.0
230
1.0
 70
    11
 71
     3
 72
    20
 73
    16
 74
     0
 42
0.0000000001
 43
0.0000000001
 12
1.0
 22
0.0
 32
0.0
 13
1.0
 23
0.0
 33
0.0
 40
0.0
 40
0.0
 40
0.0
 40
0.0
 40
1.0
 40
1.0
 40
1.0
 40
2.0
 40
2.0
 40
2.0
 40
3.0
 40
3.0
 40
3.0
 40
4.0
 40
4.0
 40
4.0
 40
5.0
 40
5.0
 40
5.0
 40
5.0
 10
1011.944218914174
 20
596.2594049195809
 30
0.0
 10
1011.944218914174
 20
596.8393039067578
 30
0.0
 10
1012.414319926734
 20
597.3094049193186
 30
0.0
 10
1012.994218913911
 20
597.3094049193186
 30
0.0
 10
1013.574117901088
 20
597.3094049193186
 30
0.0
 10
1014.044218913648
 20
596.8393039067578
 30
0.0
 10
1014.044218913648
 20
596.2594049195809
 30
0.0
 10
1014.044218913648
 20
595.6795059324039
 30
0.0
 10
1013.574117901088
 20
595.2094049198432
 30
0.0
 10
1012.994218913911
 20
595.2094049198432
 30
0.0
 10
1012.414319926734
 20
595.2094049198432
 30
0.0
 10
1011.944218914174
 20
595.6795059324039
 30
0.0
 10
1011.944218914174
 20
596.2594049195809
 30
0.0
 10
1011.944218914174
 20
596.2594049195809
 30
0.0
 10
1011.944218914174
 20
596.2594049195809
 30
0.0
 10
1011.944218914174
 20
596.2594049195809
 30
0.0
  0
ENDBLK
  5
76
330
73
100
AcDbEntity
  8
0
100
AcDbBlockEnd
  0
BLOCK
  5
7A
330
78
100
AcDbEntity
  8
0
100
AcDbBlockBegin
  2
block 10
 70
     0
 10
0.0
 20
0.0
 30
0.0
  3
block 10
  1

  0
SPLINE
  5
7C
330
78
100
AcDbEntity
  8
0
 62
     7
420
 16777215
370
    25
100
AcDbSpline
210
0.0
220
0.0
230
1.0
 70
    11
 71
     3
 72
    20
 73
    16
 74
     0
 42
0.0000000001
 43
0.0000000001
 12
1.0
 22
0.0
 32
0.0
 13
1.0
 23
0.0
 33
0.0
 40
0.0
 40
0.0
 40
0.0
 40
0.0
 40
1.0
 40
1.0
 40
1.0
 40
2.0
 40
2.0
 40
2.0
 40
3.0
 40
3.0
 40
3.0
 40
4.0
 40
4.0
 40
4.0
 40
5.0
 40
5.0
 40
5.0
 40
5.0
 10
804.4865614645581
 20
596.2594049195809
 30
0.0
 10
804.4865614645581
 20
596.8393039067578
 30
0.0
 10
804.9566624771188
 20
597.3094049193186
 30
0.0
 10
805.5365614642958
 20
597.3094049193186
 30
0.0
 10
806.1164604514728
 20
597.3094049193186
 30
0.0
 10
806.5865614640335
 20
596.8393039067578
 30
0.0
 10
806.5865614640335
 20
596.2594049195809
 30
0.0
 10
806.5865614640335
 20
595.6795059324039
 30
0.0
 10
806.1164604514728
 20
595.2094049198432
 30
0.0
 10
805.5365614642958
 20
595.2094049198432
 30
0.0
 10
804.9566624771188
 20
595.2094049198432
 30
0.0
 10
804.4865614645581
 20
595.6795059324039
 30
0.0
 10
804.4865614645581
 20
596.2594049195809
 30
0.0
 10
804.4865614645581
 20
596.2594049195809
 30
0.0
 10
804.4865614645581
 20
596.2594049195809
 30
0.0
 10
804.4865614645581
 20
596.2594049195809
 30
0.0
  0
ENDBLK
  5
7B
330
78
100
AcDbEntity
  8
0
100
AcDbBlockEnd
  0
BLOCK
  5
7F
330
7D
100
AcDbEntity
  8
0
100
AcDbBlockBegin
  2
block 11
 70
     0
 10
0.0
 20
0.0
 30
0.0
  3
block 11
  1

  0
SPLINE
  5
81
330
7D
100
AcDbEntity
  8
0
 62
     7
420
 16777215
370
    25
100
AcDbSpline
210
0.0
220
0.0
230
1.0
 70
    11
 71
     3
 72
    20
 73
    16
 74
     0
 42
0.0000000001
 43
0.0000000001
 12
1.0
 22
0.0
 32
0.0
 13
1.0
 23
0.0
 33
0.0
 40
0.0
 40
0.0
 40
0.0
 40
0.0
 40
1.0
 40
1.0
 40
1.0
 40
2.0
 40
2.0
 40
2.0
 40
3.0
 40
3.0
 40
3.0
 40
4.0
 40
4.0
 40
4.0
 40
5.0
 40
5.0
 40
5.0
 40
5.0
 10
1113.413438055966
 20
483.7405948104191
 30
0.0
 10
1113.413438055966
 20
484.3204937975961
 30
0.0
 10
1113.883539068527
 20
484.7905948101577
 30
0.0
 10
1114.463438055704
 20
484.7905948101577
 30
0.0
 10
1115.043337042881
 20
484.7905948101577
 30
0.0
 10
1115.513438055441
 20
484.3204937975961
 30
0.0
 10
1115.513438055441
 20
483.7405948104191
 30
0.0
 10
1115.513438055441
 20
483.1606958232422
 30
0.0
 10
1115.043337042881
 20
482.6905948106823
 30
0.0
 10
1114.463438055704
 20
482.6905948106823
 30
0.0
 10
1113.883539068527
 20
482.6905948106823
 30
0.0
 10
1113.413438055966
 20
483.1606958232422
 30
0.0
 10
1113.413438055966
 20
483.7405948104191
 30
0.0
 10
1113.413438055966
 20
483.7405948104191
 30
0.0
 10
1113.413438055966
 20
483.7405948104191
 30
0.0
 10
1113.413438055966
 20
483.7405948104191
 30
0.0
  0
ENDBLK
  5
80
330
7D
100
AcDbEntity
  8
0
100
AcDbBlockEnd
  0
BLOCK
  5
84
330
82
100
AcDbEntity
  8
0
100
AcDbBlockBegin
  2
block 12
 70
     0
 10
0.0
 20
0.0
 30
0.0
  3
block 12
  1

  0
SPLINE
  5
86
330
82
100
AcDbEntity
  8
0
 62
     7
420
 16777215
370
    25
100
AcDbSpline
210
0.0
220
0.0
230
1.0
 70
    11
 71
     3
 72
    20
 73
    16
 74
     0
 42
0.0000000001
 43
0.0000000001
 12
1.0
 22
0.0
 32
0.0
 13
1.0
 23
0.0
 33
0.0
 40
0.0
 40
0.0
 40
0.0
 40
0.0
 40
1.0
 40
1.0
 40
1.0
 40
2.0
 40
2.0
 40
2.0
 40
3.0
 40
3.0
 40
3.0
 40
4.0
 40
4.0
 40
4.0
 40
5.0
 40
5.0
 40
5.0
 40
5.0
 10
804.4865614645581
 20
483.7405948104191
 30
0.0
 10
804.4865614645581
 20
484.3204937975961
 30
0.0
 10
804.9566624771188
 20
484.7905948101577
 30
0.0
 10
805.5365614642958
 20
484.7905948101577
 30
0.0
 10
806.1164604514728
 20
484.7905948101577
 30
0.0
 10
806.5865614640335
 20
484.3204937975961
 30
0.0
 10
806.5865614640335
 20
483.7405948104191
 30
0.0
 10
806.5865614640335
 20
483.1606958232422
 30
0.0
 10
806.1164604514728
 20
482.6905948106823
 30
0.0
 10
805.5365614642958
 20
482.6905948106823
 30
0.0
 10
804.9566624771188
 20
482.6905948106823
 30
0.0
 10
804.4865614645581
 20
483.1606958232422
 30
0.0
 10
804.4865614645581
 20
483.7405948104191
 30
0.0
 10
804.4865614645581
 20
483.7405948104191
 30
0.0
 10
804.4865614645581
 20
483.7405948104191
 30
0.0
 10
804.4865614645581
 20
483.7405948104191
 30
0.0
  0
ENDBLK
  5
85
330
82
100
AcDbEntity
  8
0
100
AcDbBlockEnd
  0
BLOCK
  5
89
330
87
100
AcDbEntity
  8
0
100
AcDbBlockBegin
  2
block 13
 70
     0
 10
0.0
 20
0.0
 30
0.0
  3
block 13
  1

  0
SPLINE
  5
8B
330
87
100
AcDbEntity
  8
0
 62
     7
420
 16777215
370
    25
100
AcDbSpline
210
0.0
220
0.0
230
1.0
 70
    11
 71
     3
 72
    20
 73
    16
 74
     0
 42
0.0000000001
 43
0.0000000001
 12
1.0
 22
0.0
 32
0.0
 13
1.0
 23
0.0
 33
0.0
 40
0.0
 40
0.0
 40
0.0
 40
0.0
 40
1.0
 40
1.0
 40
1.0
 40
2.0
 40
2.0
 40
2.0
 40
3.0
 40
3.0
 40
3.0
 40
4.0
 40
4.0
 40
4.0
 40
5.0
 40
5.0
 40
5.0
 40
5.0
 10
1113.413438055966
 20
596.2594049195809
 30
0.0
 10
1113.413438055966
 20
596.8393039067578
 30
0.0
 10
1113.883539068527
 20
597.3094049193186
 30
0.0
 10
1114.463438055704
 20
597.3094049193186
 30
0.0
 10
1115.043337042881
 20
597.3094049193186
 30
0.0
 10
1115.513438055441
 20
596.8393039067578
 30
0.0
 10
1115.513438055441
 20
596.2594049195809
 30
0.0
 10
1115.513438055441
 20
595.6795059324039
 30
0.0
 10
1115.043337042881
 20
595.2094049198432
 30
0.0
 10
1114.463438055704
 20
595.2094049198432
 30
0.0
 10
1113.883539068527
 20
595.2094049198432
 30
0.0
 10
1113.413438055966
 20
595.6795059324039
 30
0.0
 10
1113.413438055966
 20
596.2594049195809
 30
0.0
 10
1113.413438055966
 20
596.2594049195809
 30
0.0
 10
1113.413438055966
 20
596.2594049195809
 30
0.0
 10
1113.413438055966
 20
596.2594049195809
 30
0.0
  0
ENDBLK
  5
8A
330
87
100
AcDbEntity
  8
0
100
AcDbBlockEnd
  0
BLOCK
  5
8E
330
8C
100
AcDbEntity
  8
0
100
AcDbBlockBegin
  2
block 14
 70
     0
 10
0.0
 20
0.0
 30
0.0
  3
block 14
  1

  0
SPLINE
  5
90
330
8C
100
AcDbEntity
  8
0
 62
     7
420
 16777215
370
    25
100
AcDbSpline
210
0.0
220
0.0
230
1.0
 70
    11
 71
     3
 72
    20
 73
    16
 74
     0
 42
0.0000000001
 43
0.0000000001
 12
1.0
 22
0.0
 32
0.0
 13
1.0
 23
0.0
 33
0.0
 40
0.0
 40
0.0
 40
0.0
 40
0.0
 40
1.0
 40
1.0
 40
1.0
 40
2.0
 40
2.0
 40
2.0
 40
3.0
 40
3.0
 40
3.0
 40
4.0
 40
4.0
 40
4.0
 40
5.0
 40
5.0
 40
5.0
 40
5.0
 10
807.8303967753866
 20
502.2842114810584
 30
0.0
 10
807.8303967753866
 20
506.9786318534468
 30
0.0
 10
811.6359764008731
 20
510.7842114789334
 30
0.0
 10
816.3303967732616
 20
510.7842114789334
 30
0.0
 10
821.0248171456491
 20
510.7842114789334
 30
0.0
 10
824.8303967711366
 20
506.9786318534468
 30
0.0
 10
824.8303967711366
 20
502.2842114810584
 30
0.0
 10
824.8303967711366
 20
497.5897911086718
 30
0.0
 10
821.0248171456491
 20
493.7842114831834
 30
0.0
 10
816.3303967732616
 20
493.7842114831834
 30
0.0
 10
811.6359764008731
 20
493.7842114831834
 30
0.0
 10
807.8303967753866
 20
497.5897911086718
 30
0.0
 10
807.8303967753866
 20
502.2842114810584
 30
0.0
 10
807.8303967753866
 20
502.2842114810584
 30
0.0
 10
807.8303967753866
 20
502.2842114810584
 30
0.0
 10
807.8303967753866
 20
502.2842114810584
 30
0.0
  0
ENDBLK
  5
8F
330
8C
100
AcDbEntity
  8
0
100
AcDbBlockEnd
  0
BLOCK
  5
93
330
91
100
AcDbEntity
  8
0
100
AcDbBlockBegin
  2
block 15
 70
     0
 10
0.0
 20
0.0
 30
0.0
  3
block 15
  1

  0
SPLINE
  5
95
330
91
100
AcDbEntity
  8
0
 62
   240
420
 15539236
370
    35
100
AcDbSpline
210
0.0
220
0.0
230
1.0
 70
    11
 71
     3
 72
    71
 73
    67
 74
     0
 42
0.0000000001
 43
0.0000000001
 12
1.0
 22
0.0
 32
0.0
 13
1.0
 23
0.0
 33
0.0
 40
0.0
 40
0.0
 40
0.0
 40
0.0
 40
1.0
 40
1.0
 40
1.0
 40
2.0
 40
2.0
 40
2.0
 40
3.0
 40
3.0
 40
3.0
 40
4.0
 40
4.0
 40
4.0
 40
5.0
 40
5.0
 40
5.0
 40
6.0
 40
6.0
 40
6.0
 40
7.0
 40
7.0
 40
7.0
 40
8.0
 40
8.0
 40
8.0
 40
9.0
 40
9.0
 40
9.0
 40
10.0
 40
10.0
 40
10.0
 40
11.0
 40
11.0
 40
11.0
 40
12.0
 40
12.0
 40
12.0
 40
13.0
 40
13.0
 40
13.0
 40
14.0
 40
14.0
 40
14.0
 40
15.0
 40
15.0
 40
15.0
 40
16.0
 40
16.0
 40
16.0
 40
17.0
 40
17.0
 40
17.0
 40
18.0
 40
18.0
 40
18.0
 40
19.0
 40
19.0
 40
19.0
 40
20.0
 40
20.0
 40
20.0
 40
21.0
 40
21.0
 40
21.0
 40
22.0
 40
22.0
 40
22.0
 40
22.0
 10
808.8173826102957
 20
605.4921873486269
 30
0.0
 10
808.8173826102957
 20
605.4921873486269
 30
0.0
 10
806.7661130795584
 20
613.5756834403561
 30
0.0
 10
806.7661130795584
 20
613.5756834403561
 30
0.0
 10
806.7661130795584
 20
613.5756834403561
 30
0.0
 10
807.8696287042826
 20
613.5756834403561
 30
0.0
 10
807.8696287042826
 20
613.5756834403561
 30
0.0
 10
807.8696287042826
 20
613.5756834403561
 30
0.0
 10
808.8291013602927
 20
609.4858396913785
 30
0.0
 10
808.8291013602927
 20
609.4858396913785
 30
0.0
 10
809.0688474539828
 20
608.4785154728803
 30
0.0
 10
809.2851560476787
 20
607.4711912543822
 30
0.0
 10
809.4287107351428
 20
606.6914060983271
 30
0.0
 10
809.4287107351428
 20
606.6914060983271
 30
0.0
 10
809.4526365163869
 20
606.6914060983271
 30
0.0
 10
809.4526365163869
 20
606.6914060983271
 30
0.0
 10
809.5849607351038
 20
607.4951170356262
 30
0.0
 10
809.8364255787909
 20
608.4545896916363
 30
0.0
 10
810.1123044849719
 20
609.4980467226255
 30
0.0
 10
810.1123044849719
 20
609.4980467226255
 30
0.0
 10
811.191894328452
 20
613.5756834403561
 30
0.0
 10
811.191894328452
 20
613.5756834403561
 30
0.0
 10
811.191894328452
 20
613.5756834403561
 30
0.0
 10
812.2832029219292
 20
613.5756834403561
 30
0.0
 10
812.2832029219292
 20
613.5756834403561
 30
0.0
 10
812.2832029219292
 20
613.5756834403561
 30
0.0
 10
813.2666013591834
 20
609.4741209413814
 30
0.0
 10
813.2666013591834
 20
609.4741209413814
 30
0.0
 10
813.4946287028763
 20
608.5146482853713
 30
0.0
 10
813.7104490153224
 20
607.5551756293612
 30
0.0
 10
813.8305662027924
 20
606.7036131295741
 30
0.0
 10
813.8305662027924
 20
606.7036131295741
 30
0.0
 10
813.8544919840364
 20
606.7036131295741
 30
0.0
 10
813.8544919840364
 20
606.7036131295741
 30
0.0
 10
814.0224607339944
 20
607.5908201606023
 30
0.0
 10
814.2499997964375
 20
608.4907225041273
 30
0.0
 10
814.5019529213745
 20
609.4980467226255
 30
0.0
 10
814.5019529213745
 20
609.4980467226255
 30
0.0
 10
815.5693357336077
 20
613.5756834403561
 30
0.0
 10
815.5693357336077
 20
613.5756834403561
 30
0.0
 10
815.5693357336077
 20
613.5756834403561
 30
0.0
 10
816.6367185458408
 20
613.5756834403561
 30
0.0
 10
816.6367185458408
 20
613.5756834403561
 30
0.0
 10
816.6367185458408
 20
613.5756834403561
 30
0.0
 10
814.3461912026635
 20
605.4921873486269
 30
0.0
 10
814.3461912026635
 20
605.4921873486269
 30
0.0
 10
814.3461912026635
 20
605.4921873486269
 30
0.0
 10
813.2548826091862
 20
605.4921873486269
 30
0.0
 10
813.2548826091862
 20
605.4921873486269
 30
0.0
 10
813.2548826091862
 20
605.4921873486269
 30
0.0
 10
812.2353513594411
 20
609.7016600038246
 30
0.0
 10
812.2353513594411
 20
609.7016600038246
 30
0.0
 10
811.9833982345041
 20
610.7333982848166
 30
0.0
 10
811.8154294845461
 20
611.5249021908687
 30
0.0
 10
811.7075193283231
 20
612.3403318781649
 30
0.0
 10
811.7075193283231
 20
612.3403318781649
 30
0.0
 10
811.6835935470791
 20
612.3403318781649
 30
0.0
 10
811.6835935470791
 20
612.3403318781649
 30
0.0
 10
811.5395505783652
 20
611.5371092221158
 30
0.0
 10
811.3598630784101
 20
610.7451170348137
 30
0.0
 10
811.060058390985
 20
609.7016600038246
 30
0.0
 10
811.060058390985
 20
609.7016600038246
 30
0.0
 10
809.9086912037728
 20
605.4921873486269
 30
0.0
 10
809.9086912037728
 20
605.4921873486269
 30
0.0
 10
809.9086912037728
 20
605.4921873486269
 30
0.0
 10
808.8173826102957
 20
605.4921873486269
 30
0.0
 10
808.8173826102957
 20
605.4921873486269
 30
0.0
  0
HATCH
  5
96
330
91
100
AcDbEntity
  8
0
 62
   240
420
 15539236
100
AcDbHatch
 10
0.0
 20
0.0
 30
0.0
210
0.0
220
0.0
230
1.0
  2
SOLID
 70
     1
 71
     0
 91
        1
 92
        1
 93
        1
 72
     4
 94
        3
 73
     0
 74
     1
 95
       71
 96
       67
 40
0.0
 40
0.0
 40
0.0
 40
0.0
 40
1.0
 40
1.0
 40
1.0
 40
2.0
 40
2.0
 40
2.0
 40
3.0
 40
3.0
 40
3.0
 40
4.0
 40
4.0
 40
4.0
 40
5.0
 40
5.0
 40
5.0
 40
6.0
 40
6.0
 40
6.0
 40
7.0
 40
7.0
 40
7.0
 40
8.0
 40
8.0
 40
8.0
 40
9.0
 40
9.0
 40
9.0
 40
10.0
 40
10.0
 40
10.0
 40
11.0
 40
11.0
 40
11.0
 40
12.0
 40
12.0
 40
12.0
 40
13.0
 40
13.0
 40
13.0
 40
14.0
 40
14.0
 40
14.0
 40
15.0
 40
15.0
 40
15.0
 40
16.0
 40
16.0
 40
16.0
 40
17.0
 40
17.0
 40
17.0
 40
18.0
 40
18.0
 40
18.0
 40
19.0
 40
19.0
 40
19.0
 40
20.0
 40
20.0
 40
20.0
 40
21.0
 40
21.0
 40
21.0
 40
22.0
 40
22.0
 40
22.0
 40
22.0
 10
808.8173826102957
 20
605.4921873486269
 10
808.8173826102957
 20
605.4921873486269
 10
806.7661130795584
 20
613.5756834403561
 10
806.7661130795584
 20
613.5756834403561
 10
806.7661130795584
 20
613.5756834403561
 10
807.8696287042826
 20
613.5756834403561
 10
807.8696287042826
 20
613.5756834403561
 10
807.8696287042826
 20
613.5756834403561
 10
808.8291013602927
 20
609.4858396913785
 10
808.8291013602927
 20
609.4858396913785
 10
809.0688474539828
 20
608.4785154728803
 10
809.2851560476787
 20
607.4711912543822
 10
809.4287107351428
 20
606.6914060983271
 10
809.4287107351428
 20
606.6914060983271
 10
809.4526365163869
 20
606.6914060983271
 10
809.4526365163869
 20
606.6914060983271
 10
809.5849607351038
 20
607.4951170356262
 10
809.8364255787909
 20
608.4545896916363
 10
810.1123044849719
 20
609.4980467226255
 10
810.1123044849719
 20
609.4980467226255
 10
811.191894328452
 20
613.5756834403561
 10
811.191894328452
 20
613.5756834403561
 10
811.191894328452
 20
613.5756834403561
 10
812.2832029219292
 20
613.5756834403561
 10
812.2832029219292
 20
613.5756834403561
 10
812.2832029219292
 20
613.5756834403561
 10
813.2666013591834
 20
609.4741209413814
 10
813.2666013591834
 20
609.4741209413814
 10
813.4946287028763
 20
608.5146482853713
 10
813.7104490153224
 20
607.5551756293612
 10
813.8305662027924
 20
606.7036131295741
 10
813.8305662027924
 20
606.7036131295741
 10
813.8544919840364
 20
606.7036131295741
 10
813.8544919840364
 20
606.7036131295741
 10
814.0224607339944
 20
607.5908201606023
 10
814.2499997964375
 20
608.4907225041273
 10
814.5019529213745
 20
609.4980467226255
 10
814.5019529213745
 20
609.4980467226255
 10
815.5693357336077
 20
613.5756834403561
 10
815.5693357336077
 20
613.5756834403561
 10
815.5693357336077
 20
613.5756834403561
 10
816.6367185458408
 20
613.5756834403561
 10
816.6367185458408
 20
613.5756834403561
 10
816.6367185458408
 20
613.5756834403561
 10
814.3461912026635
 20
605.4921873486269
 10
814.3461912026635
 20
605.4921873486269
 10
814.3461912026635
 20
605.4921873486269
 10
813.2548826091862
 20
605.4921873486269
 10
813.2548826091862
 20
605.4921873486269
 10
813.2548826091862
 20
605.4921873486269
 10
812.2353513594411
 20
609.7016600038246
 10
812.2353513594411
 20
609.7016600038246
 10
811.9833982345041
 20
610.7333982848166
 10
811.8154294845461
 20
611.5249021908687
 10
811.7075193283231
 20
612.3403318781649
 10
811.7075193283231
 20
612.3403318781649
 10
811.6835935470791
 20
612.3403318781649
 10
811.6835935470791
 20
612.3403318781649
 10
811.5395505783652
 20
611.5371092221158
 10
811.3598630784101
 20
610.7451170348137
 10
811.060058390985
 20
609.7016600038246
 10
811.060058390985
 20
609.7016600038246
 10
809.9086912037728
 20
605.4921873486269
 10
809.9086912037728
 20
605.4921873486269
 10
809.9086912037728
 20
605.4921873486269
 10
808.8173826102957
 20
605.4921873486269
 10
808.8173826102957
 20
605.4921873486269
 97
        0
 97
        0
 75
     2
 76
     1
 98
        0
  0
SPLINE
  5
97
330
91
100
AcDbEntity
  8
0
 62
   240
420
 15539236
370
    35
100
AcDbSpline
210
0.0
220
0.0
230
1.0
 70
    11
 71
     3
 72
    47
 73
    43
 74
     0
 42
0.0000000001
 43
0.0000000001
 12
1.0
 22
0.0
 32
0.0
 13
1.0
 23
0.0
 33
0.0
 40
0.0
 40
0.0
 40
0.0
 40
0.0
 40
1.0
 40
1.0
 40
1.0
 40
2.0
 40
2.0
 40
2.0
 40
3.0
 40
3.0
 40
3.0
 40
4.0
 40
4.0
 40
4.0
 40
5.0
 40
5.0
 40
5.0
 40
6.0
 40
6.0
 40
6.0
 40
7.0
 40
7.0
 40
7.0
 40
8.0
 40
8.0
 40
8.0
 40
9.0
 40
9.0
 40
9.0
 40
10.0
 40
10.0
 40
10.0
 40
11.0
 40
11.0
 40
11.0
 40
12.0
 40
12.0
 40
12.0
 40
13.0
 40
13.0
 40
13.0
 40
14.0
 40
14.0
 40
14.0
 40
14.0
 10
817.6499021393375
 20
613.5756834403561
 30
0.0
 10
817.6499021393375
 20
613.5756834403561
 30
0.0
 10
818.6933591703266
 20
613.5756834403561
 30
0.0
 10
818.6933591703266
 20
613.5756834403561
 30
0.0
 10
818.6933591703266
 20
613.5756834403561
 30
0.0
 10
818.6933591703266
 20
609.6777342225805
 30
0.0
 10
818.6933591703266
 20
609.6777342225805
 30
0.0
 10
818.6933591703266
 20
609.6777342225805
 30
0.0
 10
818.7290037015678
 20
609.6777342225805
 30
0.0
 10
818.7290037015678
 20
609.6777342225805
 30
0.0
 10
818.9448240140138
 20
609.9897459412525
 30
0.0
 10
819.1611326077096
 20
610.2773435974307
 30
0.0
 10
819.3647458889088
 20
610.5415037536146
 30
0.0
 10
819.3647458889088
 20
610.5415037536146
 30
0.0
 10
821.8354490132912
 20
613.5756834403561
 30
0.0
 10
821.8354490132912
 20
613.5756834403561
 30
0.0
 10
821.8354490132912
 20
613.5756834403561
 30
0.0
 10
823.1308591692173
 20
613.5756834403561
 30
0.0
 10
823.1308591692173
 20
613.5756834403561
 30
0.0
 10
823.1308591692173
 20
613.5756834403561
 30
0.0
 10
820.2045896386988
 20
610.1455076599636
 30
0.0
 10
820.2045896386988
 20
610.1455076599636
 30
0.0
 10
820.2045896386988
 20
610.1455076599636
 30
0.0
 10
823.3588865129103
 20
605.4921873486269
 30
0.0
 10
823.3588865129103
 20
605.4921873486269
 30
0.0
 10
823.3588865129103
 20
605.4921873486269
 30
0.0
 10
822.1235349507191
 20
605.4921873486269
 30
0.0
 10
822.1235349507191
 20
605.4921873486269
 30
0.0
 10
822.1235349507191
 20
605.4921873486269
 30
0.0
 10
819.4609372951347
 20
609.4619139101345
 30
0.0
 10
819.4609372951347
 20
609.4619139101345
 30
0.0
 10
819.4609372951347
 20
609.4619139101345
 30
0.0
 10
818.6933591703266
 20
608.5747068791063
 30
0.0
 10
818.6933591703266
 20
608.5747068791063
 30
0.0
 10
818.6933591703266
 20
608.5747068791063
 30
0.0
 10
818.6933591703266
 20
605.4921873486269
 30
0.0
 10
818.6933591703266
 20
605.4921873486269
 30
0.0
 10
818.6933591703266
 20
605.4921873486269
 30
0.0
 10
817.6499021393375
 20
605.4921873486269
 30
0.0
 10
817.6499021393375
 20
605.4921873486269
 30
0.0
 10
817.6499021393375
 20
605.4921873486269
 30
0.0
 10
817.6499021393375
 20
613.5756834403561
 30
0.0
 10
817.6499021393375
 20
613.5756834403561
 30
0.0
  0
HATCH
  5
98
330
91
100
AcDbEntity
  8
0
 62
   240
420
 15539236
100
AcDbHatch
 10
0.0
 20
0.0
 30
0.0
210
0.0
220
0.0
230
1.0
  2
SOLID
 70
     1
 71
     0
 91
        1
 92
        1
 93
        1
 72
     4
 94
        3
 73
     0
 74
     1
 95
       47
 96
       43
 40
0.0
 40
0.0
 40
0.0
 40
0.0
 40
1.0
 40
1.0
 40
1.0
 40
2.0
 40
2.0
 40
2.0
 40
3.0
 40
3.0
 40
3.0
 40
4.0
 40
4.0
 40
4.0
 40
5.0
 40
5.0
 40
5.0
 40
6.0
 40
6.0
 40
6.0
 40
7.0
 40
7.0
 40
7.0
 40
8.0
 40
8.0
 40
8.0
 40
9.0
 40
9.0
 40
9.0
 40
10.0
 40
10.0
 40
10.0
 40
11.0
 40
11.0
 40
11.0
 40
12.0
 40
12.0
 40
12.0
 40
13.0
 40
13.0
 40
13.0
 40
14.0
 40
14.0
 40
14.0
 40
14.0
 10
817.6499021393375
 20
613.5756834403561
 10
817.6499021393375
 20
613.5756834403561
 10
818.6933591703266
 20
613.5756834403561
 10
818.6933591703266
 20
613.5756834403561
 10
818.6933591703266
 20
613.5756834403561
 10
818.6933591703266
 20
609.6777342225805
 10
818.6933591703266
 20
609.6777342225805
 10
818.6933591703266
 20
609.6777342225805
 10
818.7290037015678
 20
609.6777342225805
 10
818.7290037015678
 20
609.6777342225805
 10
818.9448240140138
 20
609.9897459412525
 10
819.1611326077096
 20
610.2773435974307
 10
819.3647458889088
 20
610.5415037536146
 10
819.3647458889088
 20
610.5415037536146
 10
821.8354490132912
 20
613.5756834403561
 10
821.8354490132912
 20
613.5756834403561
 10
821.8354490132912
 20
613.5756834403561
 10
823.1308591692173
 20
613.5756834403561
 10
823.1308591692173
 20
613.5756834403561
 10
823.1308591692173
 20
613.5756834403561
 10
820.2045896386988
 20
610.1455076599636
 10
820.2045896386988
 20
610.1455076599636
 10
820.2045896386988
 20
610.1455076599636
 10
823.3588865129103
 20
605.4921873486269
 10
823.3588865129103
 20
605.4921873486269
 10
823.3588865129103
 20
605.4921873486269
 10
822.1235349507191
 20
605.4921873486269
 10
822.1235349507191
 20
605.4921873486269
 10
822.1235349507191
 20
605.4921873486269
 10
819.4609372951347
 20
609.4619139101345
 10
819.4609372951347
 20
609.4619139101345
 10
819.4609372951347
 20
609.4619139101345
 10
818.6933591703266
 20
608.5747068791063
 10
818.6933591703266
 20
608.5747068791063
 10
818.6933591703266
 20
608.5747068791063
 10
818.6933591703266
 20
605.4921873486269
 10
818.6933591703266
 20
605.4921873486269
 10
818.6933591703266
 20
605.4921873486269
 10
817.6499021393375
 20
605.4921873486269
 10
817.6499021393375
 20
605.4921873486269
 10
817.6499021393375
 20
605.4921873486269
 10
817.6499021393375
 20
613.5756834403561
 10
817.6499021393375
 20
613.5756834403561
 97
        0
 97
        0
 75
     2
 76
     1
 98
        0
  0
POLYLINE
  5
99
330
91
100
AcDbEntity
  8
0
 62
   240
420
 15539236
370
    35
100
AcDb2dPolyline
 66
     1
 10
0.0
 20
0.0
 30
0.0
  0
VERTEX
  5
9A
330
99
100
AcDbEntity
  8
0
 62
   240
420
 15539236
370
    35
100
AcDbVertex
100
AcDb2dVertex
 10
826.6977536995755
 20
613.5756834403561
 30
0.0
  0
VERTEX
  5
9B
330
99
100
AcDbEntity
  8
0
 62
   240
420
 15539236
370
    35
100
AcDbVertex
100
AcDb2dVertex
 10
827.7412107305647
 20
613.5756834403561
 30
0.0
  0
VERTEX
  5
9C
330
99
100
AcDbEntity
  8
0
 62
   240
420
 15539236
370
    35
100
AcDbVertex
100
AcDb2dVertex
 10
827.7412107305647
 20
606.367675629658
 30
0.0
  0
VERTEX
  5
9D
330
99
100
AcDbEntity
  8
0
 62
   240
420
 15539236
370
    35
100
AcDbVertex
100
AcDb2dVertex
 10
831.1953122922012
 20
606.367675629658
 30
0.0
  0
VERTEX
  5
9E
330
99
100
AcDbEntity
  8
0
 62
   240
420
 15539236
370
    35
100
AcDbVertex
100
AcDb2dVertex
 10
831.1953122922012
 20
605.4921873486269
 30
0.0
  0
VERTEX
  5
9F
330
99
100
AcDbEntity
  8
0
 62
   240
420
 15539236
370
    35
100
AcDbVertex
100
AcDb2dVertex
 10
826.6977536995755
 20
605.4921873486269
 30
0.0
  0
VERTEX
  5
A0
330
99
100
AcDbEntity
  8
0
 62
   240
420
 15539236
370
    35
100
AcDbVertex
100
AcDb2dVertex
 10
826.6977536995755
 20
613.5756834403561
 30
0.0
  0
SEQEND
  5
A1
330
99
100
AcDbEntity
  8
0
 62
   240
420
 15539236
370
    35
  0
HATCH
  5
A2
330
91
100
AcDbEntity
  8
0
 62
   240
420
 15539236
100
AcDbHatch
 10
0.0
 20
0.0
 30
0.0
210
0.0
220
0.0
230
1.0
  2
SOLID
 70
     1
 71
     0
 91
        1
 92
        1
 93
        6
 72
     1
 10
826.6977536995755
 20
613.5756834403561
 11
827.7412107305647
 21
613.5756834403561
 72
     1
 10
827.7412107305647
 20
613.5756834403561
 11
827.7412107305647
 21
606.367675629658
 72
     1
 10
827.7412107305647
 20
606.367675629658
 11
831.1953122922012
 21
606.367675629658
 72
     1
 10
831.1953122922012
 20
606.367675629658
 11
831.1953122922012
 21
605.4921873486269
 72
     1
 10
831.1953122922012
 20
605.4921873486269
 11
826.6977536995755
 21
605.4921873486269
 72
     1
 10
826.6977536995755
 20
605.4921873486269
 11
826.6977536995755
 21
613.5756834403561
 97
        0
 75
     2
 76
     1
 98
        0
  0
POLYLINE
  5
A3
330
91
100
AcDbEntity
  8
0
 62
   240
420
 15539236
370
    35
100
AcDb2dPolyline
 66
     1
 10
0.0
 20
0.0
 30
0.0
  0
VERTEX
  5
A4
330
A3
100
AcDbEntity
  8
0
 62
   240
420
 15539236
370
    35
100
AcDbVertex
100
AcDb2dVertex
 10
834.2802732289299
 20
612.3046873469239
 30
0.0
  0
VERTEX
  5
A5
330
A3
100
AcDbEntity
  8
0
 62
   240
420
 15539236
370
    35
100
AcDbVertex
100
AcDb2dVertex
 10
834.2563474476859
 20
612.3046873469239
 30
0.0
  0
VERTEX
  5
A6
330
A3
100
AcDbEntity
  8
0
 62
   240
420
 15539236
370
    35
100
AcDbVertex
100
AcDb2dVertex
 10
832.9008786980247
 20
611.5727537533568
 30
0.0
  0
VERTEX
  5
A7
330
A3
100
AcDbEntity
  8
0
 62
   240
420
 15539236
370
    35
100
AcDbVertex
100
AcDb2dVertex
 10
832.6967771355758
 20
612.3764646906559
 30
0.0
  0
VERTEX
  5
A8
330
A3
100
AcDbEntity
  8
0
 62
   240
420
 15539236
370
    35
100
AcDbVertex
100
AcDb2dVertex
 10
834.39990213515
 20
613.288085784178
 30
0.0
  0
VERTEX
  5
A9
330
A3
100
AcDbEntity
  8
0
 62
   240
420
 15539236
370
    35
100
AcDbVertex
100
AcDb2dVertex
 10
835.299804478675
 20
613.288085784178
 30
0.0
  0
VERTEX
  5
AA
330
A3
100
AcDbEntity
  8
0
 62
   240
420
 15539236
370
    35
100
AcDbVertex
100
AcDb2dVertex
 10
835.299804478675
 20
605.4921873486269
 30
0.0
  0
VERTEX
  5
AB
330
A3
100
AcDbEntity
  8
0
 62
   240
420
 15539236
370
    35
100
AcDbVertex
100
AcDb2dVertex
 10
834.2802732289299
 20
605.4921873486269
 30
0.0
  0
VERTEX
  5
AC
330
A3
100
AcDbEntity
  8
0
 62
   240
420
 15539236
370
    35
100
AcDbVertex
100
AcDb2dVertex
 10
834.2802732289299
 20
612.3046873469239
 30
0.0
  0
SEQEND
  5
AD
330
A3
100
AcDbEntity
  8
0
 62
   240
420
 15539236
370
    35
  0
HATCH
  5
AE
330
91
100
AcDbEntity
  8
0
 62
   240
420
 15539236
100
AcDbHatch
 10
0.0
 20
0.0
 30
0.0
210
0.0
220
0.0
230
1.0
  2
SOLID
 70
     1
 71
     0
 91
        1
 92
        1
 93
        8
 72
     1
 10
834.2802732289299
 20
612.3046873469239
 11
834.2563474476859
 21
612.3046873469239
 72
     1
 10
834.2563474476859
 20
612.3046873469239
 11
832.9008786980247
 21
611.5727537533568
 72
     1
 10
832.9008786980247
 20
611.5727537533568
 11
832.6967771355758
 21
612.3764646906559
 72
     1
 10
832.6967771355758
 20
612.3764646906559
 11
834.39990213515
 21
613.288085784178
 72
     1
 10
834.39990213515
 20
613.288085784178
 11
835.299804478675
 21
613.288085784178
 72
     1
 10
835.299804478675
 20
613.288085784178
 11
835.299804478675
 21
605.4921873486269
 72
     1
 10
835.299804478675
 20
605.4921873486269
 11
834.2802732289299
 21
605.4921873486269
 72
     1
 10
834.2802732289299
 20
605.4921873486269
 11
834.2802732289299
 21
612.3046873469239
 97
        0
 75
     2
 76
     1
 98
        0
  0
SPLINE
  5
AF
330
91
100
AcDbEntity
  8
0
 62
   240
420
 15539236
370
    35
100
AcDbSpline
210
0.0
220
0.0
230
1.0
 70
    11
 71
     3
 72
    47
 73
    43
 74
     0
 42
0.0000000001
 43
0.0000000001
 12
1.0
 22
0.0
 32
0.0
 13
1.0
 23
0.0
 33
0.0
 40
0.0
 40
0.0
 40
0.0
 40
0.0
 40
1.0
 40
1.0
 40
1.0
 40
2.0
 40
2.0
 40
2.0
 40
3.0
 40
3.0
 40
3.0
 40
4.0
 40
4.0
 40
4.0
 40
5.0
 40
5.0
 40
5.0
 40
6.0
 40
6.0
 40
6.0
 40
7.0
 40
7.0
 40
7.0
 40
8.0
 40
8.0
 40
8.0
 40
9.0
 40
9.0
 40
9.0
 40
10.0
 40
10.0
 40
10.0
 40
11.0
 40
11.0
 40
11.0
 40
12.0
 40
12.0
 40
12.0
 40
13.0
 40
13.0
 40
13.0
 40
14.0
 40
14.0
 40
14.0
 40
14.0
 10
840.9174802585206
 20
606.763671723309
 30
0.0
 10
841.3852536959037
 20
606.4755857858811
 30
0.0
 10
842.0688474457328
 20
606.235839692191
 30
0.0
 10
842.7885740080528
 20
606.235839692191
 30
0.0
 10
843.855956820286
 20
606.235839692191
 30
0.0
 10
844.4794919763801
 20
606.7993162545501
 30
0.0
 10
844.4794919763801
 20
607.6152342230962
 30
0.0
 10
844.4794919763801
 20
608.3706053166574
 30
0.0
 10
844.047851351488
 20
608.8022459415495
 30
0.0
 10
842.9565427580109
 20
609.2221678164444
 30
0.0
 10
841.6372068208407
 20
609.6899412538276
 30
0.0
 10
840.8217771335445
 20
610.3735350036566
 30
0.0
 10
840.8217771335445
 20
611.5126951596218
 30
0.0
 10
840.8217771335445
 20
612.771972503057
 30
0.0
 10
841.8647458832838
 20
613.7075193778231
 30
0.0
 10
843.4360349453909
 20
613.7075193778231
 30
0.0
 10
844.263671663934
 20
613.7075193778231
 30
0.0
 10
844.8632810387842
 20
613.5156248466211
 30
0.0
 10
845.2231443199441
 20
613.312011565422
 30
0.0
 10
845.2231443199441
 20
613.312011565422
 30
0.0
 10
844.9350583825162
 20
612.4604490656349
 30
0.0
 10
844.9350583825162
 20
612.4604490656349
 30
0.0
 10
844.6713865075822
 20
612.6044920343488
 30
0.0
 10
844.131835726467
 20
612.8442381280389
 30
0.0
 10
843.3999021329
 20
612.8442381280389
 30
0.0
 10
842.2968747894257
 20
612.8442381280389
 30
0.0
 10
841.8769529145308
 20
612.1845701594539
 30
0.0
 10
841.8769529145308
 20
611.6328123470918
 30
0.0
 10
841.8769529145308
 20
610.8774412535306
 30
0.0
 10
842.3686521331579
 20
610.5053709411236
 30
0.0
 10
843.483886507879
 20
610.0737303162316
 30
0.0
 10
844.8510740075372
 20
609.5458982851135
 30
0.0
 10
845.5468747886133
 20
608.8862303165284
 30
0.0
 10
845.5468747886133
 20
607.6992185980752
 30
0.0
 10
845.5468747886133
 20
606.4516600046371
 30
0.0
 10
844.6235349450941
 20
605.372070161157
 30
0.0
 10
842.7163083830709
 20
605.372070161157
 30
0.0
 10
841.9370115082658
 20
605.372070161157
 30
0.0
 10
841.0854490084786
 20
605.6000975048499
 30
0.0
 10
840.6538083835866
 20
605.888183442278
 30
0.0
 10
840.6538083835866
 20
605.888183442278
 30
0.0
 10
840.9174802585206
 20
606.763671723309
 30
0.0
 10
840.9174802585206
 20
606.763671723309
 30
0.0
  0
HATCH
  5
B0
330
91
100
AcDbEntity
  8
0
 62
   240
420
 15539236
100
AcDbHatch
 10
0.0
 20
0.0
 30
0.0
210
0.0
220
0.0
230
1.0
  2
SOLID
 70
     1
 71
     0
 91
        1
 92
        1
 93
        1
 72
     4
 94
        3
 73
     0
 74
     1
 95
       47
 96
       43
 40
0.0
 40
0.0
 40
0.0
 40
0.0
 40
1.0
 40
1.0
 40
1.0
 40
2.0
 40
2.0
 40
2.0
 40
3.0
 40
3.0
 40
3.0
 40
4.0
 40
4.0
 40
4.0
 40
5.0
 40
5.0
 40
5.0
 40
6.0
 40
6.0
 40
6.0
 40
7.0
 40
7.0
 40
7.0
 40
8.0
 40
8.0
 40
8.0
 40
9.0
 40
9.0
 40
9.0
 40
10.0
 40
10.0
 40
10.0
 40
11.0
 40
11.0
 40
11.0
 40
12.0
 40
12.0
 40
12.0
 40
13.0
 40
13.0
 40
13.0
 40
14.0
 40
14.0
 40
14.0
 40
14.0
 10
840.9174802585206
 20
606.763671723309
 10
841.3852536959037
 20
606.4755857858811
 10
842.0688474457328
 20
606.235839692191
 10
842.7885740080528
 20
606.235839692191
 10
843.855956820286
 20
606.235839692191
 10
844.4794919763801
 20
606.7993162545501
 10
844.4794919763801
 20
607.6152342230962
 10
844.4794919763801
 20
608.3706053166574
 10
844.047851351488
 20
608.8022459415495
 10
842.9565427580109
 20
609.2221678164444
 10
841.6372068208407
 20
609.6899412538276
 10
840.8217771335445
 20
610.3735350036566
 10
840.8217771335445
 20
611.5126951596218
 10
840.8217771335445
 20
612.771972503057
 10
841.8647458832838
 20
613.7075193778231
 10
843.4360349453909
 20
613.7075193778231
 10
844.263671663934
 20
613.7075193778231
 10
844.8632810387842
 20
613.5156248466211
 10
845.2231443199441
 20
613.312011565422
 10
845.2231443199441
 20
613.312011565422
 10
844.9350583825162
 20
612.4604490656349
 10
844.9350583825162
 20
612.4604490656349
 10
844.6713865075822
 20
612.6044920343488
 10
844.131835726467
 20
612.8442381280389
 10
843.3999021329
 20
612.8442381280389
 10
842.2968747894257
 20
612.8442381280389
 10
841.8769529145308
 20
612.1845701594539
 10
841.8769529145308
 20
611.6328123470918
 10
841.8769529145308
 20
610.8774412535306
 10
842.3686521331579
 20
610.5053709411236
 10
843.483886507879
 20
610.0737303162316
 10
844.8510740075372
 20
609.5458982851135
 10
845.5468747886133
 20
608.8862303165284
 10
845.5468747886133
 20
607.6992185980752
 10
845.5468747886133
 20
606.4516600046371
 10
844.6235349450941
 20
605.372070161157
 10
842.7163083830709
 20
605.372070161157
 10
841.9370115082658
 20
605.372070161157
 10
841.0854490084786
 20
605.6000975048499
 10
840.6538083835866
 20
605.888183442278
 10
840.6538083835866
 20
605.888183442278
 10
840.9174802585206
 20
606.763671723309
 10
840.9174802585206
 20
606.763671723309
 97
        0
 97
        0
 75
     2
 76
     1
 98
        0
  0
SPLINE
  5
B1
330
91
100
AcDbEntity
  8
0
 62
   240
420
 15539236
370
    35
100
AcDbSpline
210
0.0
220
0.0
230
1.0
 70
    11
 71
     3
 72
    56
 73
    52
 74
     0
 42
0.0000000001
 43
0.0000000001
 12
1.0
 22
0.0
 32
0.0
 13
1.0
 23
0.0
 33
0.0
 40
0.0
 40
0.0
 40
0.0
 40
0.0
 40
1.0
 40
1.0
 40
1.0
 40
2.0
 40
2.0
 40
2.0
 40
3.0
 40
3.0
 40
3.0
 40
4.0
 40
4.0
 40
4.0
 40
5.0
 40
5.0
 40
5.0
 40
6.0
 40
6.0
 40
6.0
 40
7.0
 40
7.0
 40
7.0
 40
8.0
 40
8.0
 40
8.0
 40
9.0
 40
9.0
 40
9.0
 40
10.0
 40
10.0
 40
10.0
 40
11.0
 40
11.0
 40
11.0
 40
12.0
 40
12.0
 40
12.0
 40
13.0
 40
13.0
 40
13.0
 40
14.0
 40
14.0
 40
14.0
 40
15.0
 40
15.0
 40
15.0
 40
16.0
 40
16.0
 40
16.0
 40
17.0
 40
17.0
 40
17.0
 40
17.0
 10
848.1767576004557
 20
612.963867034259
 30
0.0
 10
848.1767576004557
 20
612.963867034259
 30
0.0
 10
848.1767576004557
 20
611.2968748471758
 30
0.0
 10
848.1767576004557
 20
611.2968748471758
 30
0.0
 10
848.1767576004557
 20
611.2968748471758
 30
0.0
 10
849.687988068828
 20
611.2968748471758
 30
0.0
 10
849.687988068828
 20
611.2968748471758
 30
0.0
 10
849.687988068828
 20
611.2968748471758
 30
0.0
 10
849.687988068828
 20
610.4936521911266
 30
0.0
 10
849.687988068828
 20
610.4936521911266
 30
0.0
 10
849.687988068828
 20
610.4936521911266
 30
0.0
 10
848.1767576004557
 20
610.4936521911266
 30
0.0
 10
848.1767576004557
 20
610.4936521911266
 30
0.0
 10
848.1767576004557
 20
610.4936521911266
 30
0.0
 10
848.1767576004557
 20
607.3632810981592
 30
0.0
 10
848.1767576004557
 20
607.3632810981592
 30
0.0
 10
848.1767576004557
 20
606.6435545358391
 30
0.0
 10
848.3803708816549
 20
606.235839692191
 30
0.0
 10
848.9682615065079
 20
606.235839692191
 30
0.0
 10
849.2441404126889
 20
606.235839692191
 30
0.0
 10
849.447753693888
 20
606.271972504682
 30
0.0
 10
849.5795896313551
 20
606.307617035923
 30
0.0
 10
849.5795896313551
 20
606.307617035923
 30
0.0
 10
849.627929475093
 20
605.516113129871
 30
0.0
 10
849.627929475093
 20
605.516113129871
 30
0.0
 10
849.423827912644
 20
605.432128754892
 30
0.0
 10
849.100097443975
 20
605.372070161157
 30
0.0
 10
848.6923826003269
 20
605.372070161157
 30
0.0
 10
848.2006833816998
 20
605.372070161157
 30
0.0
 10
847.8046872880489
 20
605.5283201611179
 30
0.0
 10
847.5527341631118
 20
605.815917817296
 30
0.0
 10
847.2529294756868
 20
606.127929535968
 30
0.0
 10
847.1450193194637
 20
606.6435545358391
 30
0.0
 10
847.1450193194637
 20
607.3271482856682
 30
0.0
 10
847.1450193194637
 20
607.3271482856682
 30
0.0
 10
847.1450193194637
 20
610.4936521911266
 30
0.0
 10
847.1450193194637
 20
610.4936521911266
 30
0.0
 10
847.1450193194637
 20
610.4936521911266
 30
0.0
 10
846.2456052571886
 20
610.4936521911266
 30
0.0
 10
846.2456052571886
 20
610.4936521911266
 30
0.0
 10
846.2456052571886
 20
610.4936521911266
 30
0.0
 10
846.2456052571886
 20
611.2968748471758
 30
0.0
 10
846.2456052571886
 20
611.2968748471758
 30
0.0
 10
846.2456052571886
 20
611.2968748471758
 30
0.0
 10
847.1450193194637
 20
611.2968748471758
 30
0.0
 10
847.1450193194637
 20
611.2968748471758
 30
0.0
 10
847.1450193194637
 20
611.2968748471758
 30
0.0
 10
847.1450193194637
 20
612.6884764093279
 30
0.0
 10
847.1450193194637
 20
612.6884764093279
 30
0.0
 10
847.1450193194637
 20
612.6884764093279
 30
0.0
 10
848.1767576004557
 20
612.963867034259
 30
0.0
 10
848.1767576004557
 20
612.963867034259
 30
0.0
  0
HATCH
  5
B2
330
91
100
AcDbEntity
  8
0
 62
   240
420
 15539236
100
AcDbHatch
 10
0.0
 20
0.0
 30
0.0
210
0.0
220
0.0
230
1.0
  2
SOLID
 70
     1
 71
     0
 91
        1
 92
        1
 93
        1
 72
     4
 94
        3
 73
     0
 74
     1
 95
       56
 96
       52
 40
0.0
 40
0.0
 40
0.0
 40
0.0
 40
1.0
 40
1.0
 40
1.0
 40
2.0
 40
2.0
 40
2.0
 40
3.0
 40
3.0
 40
3.0
 40
4.0
 40
4.0
 40
4.0
 40
5.0
 40
5.0
 40
5.0
 40
6.0
 40
6.0
 40
6.0
 40
7.0
 40
7.0
 40
7.0
 40
8.0
 40
8.0
 40
8.0
 40
9.0
 40
9.0
 40
9.0
 40
10.0
 40
10.0
 40
10.0
 40
11.0
 40
11.0
 40
11.0
 40
12.0
 40
12.0
 40
12.0
 40
13.0
 40
13.0
 40
13.0
 40
14.0
 40
14.0
 40
14.0
 40
15.0
 40
15.0
 40
15.0
 40
16.0
 40
16.0
 40
16.0
 40
17.0
 40
17.0
 40
17.0
 40
17.0
 10
848.1767576004557
 20
612.963867034259
 10
848.1767576004557
 20
612.963867034259
 10
848.1767576004557
 20
611.2968748471758
 10
848.1767576004557
 20
611.2968748471758
 10
848.1767576004557
 20
611.2968748471758
 10
849.687988068828
 20
611.2968748471758
 10
849.687988068828
 20
611.2968748471758
 10
849.687988068828
 20
611.2968748471758
 10
849.687988068828
 20
610.4936521911266
 10
849.687988068828
 20
610.4936521911266
 10
849.687988068828
 20
610.4936521911266
 10
848.1767576004557
 20
610.4936521911266
 10
848.1767576004557
 20
610.4936521911266
 10
848.1767576004557
 20
610.4936521911266
 10
848.1767576004557
 20
607.3632810981592
 10
848.1767576004557
 20
607.3632810981592
 10
848.1767576004557
 20
606.6435545358391
 10
848.3803708816549
 20
606.235839692191
 10
848.9682615065079
 20
606.235839692191
 10
849.2441404126889
 20
606.235839692191
 10
849.447753693888
 20
606.271972504682
 10
849.5795896313551
 20
606.307617035923
 10
849.5795896313551
 20
606.307617035923
 10
849.627929475093
 20
605.516113129871
 10
849.627929475093
 20
605.516113129871
 10
849.423827912644
 20
605.432128754892
 10
849.100097443975
 20
605.372070161157
 10
848.6923826003269
 20
605.372070161157
 10
848.2006833816998
 20
605.372070161157
 10
847.8046872880489
 20
605.5283201611179
 10
847.5527341631118
 20
605.815917817296
 10
847.2529294756868
 20
606.127929535968
 10
847.1450193194637
 20
606.6435545358391
 10
847.1450193194637
 20
607.3271482856682
 10
847.1450193194637
 20
607.3271482856682
 10
847.1450193194637
 20
610.4936521911266
 10
847.1450193194637
 20
610.4936521911266
 10
847.1450193194637
 20
610.4936521911266
 10
846.2456052571886
 20
610.4936521911266
 10
846.2456052571886
 20
610.4936521911266
 10
846.2456052571886
 20
610.4936521911266
 10
846.2456052571886
 20
611.2968748471758
 10
846.2456052571886
 20
611.2968748471758
 10
846.2456052571886
 20
611.2968748471758
 10
847.1450193194637
 20
611.2968748471758
 10
847.1450193194637
 20
611.2968748471758
 10
847.1450193194637
 20
611.2968748471758
 10
847.1450193194637
 20
612.6884764093279
 10
847.1450193194637
 20
612.6884764093279
 10
847.1450193194637
 20
612.6884764093279
 10
848.1767576004557
 20
612.963867034259
 10
848.1767576004557
 20
612.963867034259
 97
        0
 97
        0
 75
     2
 76
     1
 98
        0
  0
SPLINE
  5
B3
330
91
100
AcDbEntity
  8
0
 62
   240
420
 15539236
370
    35
100
AcDbSpline
210
0.0
220
0.0
230
1.0
 70
    11
 71
     3
 72
    44
 73
    40
 74
     0
 42
0.0000000001
 43
0.0000000001
 12
1.0
 22
0.0
 32
0.0
 13
1.0
 23
0.0
 33
0.0
 40
0.0
 40
0.0
 40
0.0
 40
0.0
 40
1.0
 40
1.0
 40
1.0
 40
2.0
 40
2.0
 40
2.0
 40
3.0
 40
3.0
 40
3.0
 40
4.0
 40
4.0
 40
4.0
 40
5.0
 40
5.0
 40
5.0
 40
6.0
 40
6.0
 40
6.0
 40
7.0
 40
7.0
 40
7.0
 40
8.0
 40
8.0
 40
8.0
 40
9.0
 40
9.0
 40
9.0
 40
10.0
 40
10.0
 40
10.0
 40
11.0
 40
11.0
 40
11.0
 40
12.0
 40
12.0
 40
12.0
 40
13.0
 40
13.0
 40
13.0
 40
13.0
 10
850.8769529122808
 20
609.4858396913785
 30
0.0
 10
850.8769529122808
 20
610.1694334412076
 30
0.0
 10
850.8647458810337
 20
610.7573240660606
 30
0.0
 10
850.8291013497927
 20
611.2968748471758
 30
0.0
 10
850.8291013497927
 20
611.2968748471758
 30
0.0
 10
851.7524411933118
 20
611.2968748471758
 30
0.0
 10
851.7524411933118
 20
611.2968748471758
 30
0.0
 10
851.7524411933118
 20
611.2968748471758
 30
0.0
 10
851.7885740058028
 20
610.1577146912106
 30
0.0
 10
851.7885740058028
 20
610.1577146912106
 30
0.0
 10
851.7885740058028
 20
610.1577146912106
 30
0.0
 10
851.8364255682909
 20
610.1577146912106
 30
0.0
 10
851.8364255682909
 20
610.1577146912106
 30
0.0
 10
852.100097443225
 20
610.9370115660157
 30
0.0
 10
852.735839630566
 20
611.4287107846428
 30
0.0
 10
853.4433591616391
 20
611.4287107846428
 30
0.0
 10
853.5634763491091
 20
611.4287107846428
 30
0.0
 10
853.6474607240881
 20
611.4169920346458
 30
0.0
 10
853.7436521303141
 20
611.3930662534017
 30
0.0
 10
853.7436521303141
 20
611.3930662534017
 30
0.0
 10
853.7436521303141
 20
610.3974607849007
 30
0.0
 10
853.7436521303141
 20
610.3974607849007
 30
0.0
 10
853.6352536928412
 20
610.4213865661446
 30
0.0
 10
853.5273435366181
 20
610.4335935973916
 30
0.0
 10
853.383788849154
 20
610.4335935973916
 30
0.0
 10
852.6401365055899
 20
610.4335935973916
 30
0.0
 10
852.1123044744719
 20
609.8696287537825
 30
0.0
 10
851.9682615057579
 20
609.0781248477305
 30
0.0
 10
851.9443357245138
 20
608.9340818790165
 30
0.0
 10
851.9204099432699
 20
608.7666014103083
 30
0.0
 10
851.9204099432699
 20
608.5864256291034
 30
0.0
 10
851.9204099432699
 20
608.5864256291034
 30
0.0
 10
851.9204099432699
 20
605.4921873486269
 30
0.0
 10
851.9204099432699
 20
605.4921873486269
 30
0.0
 10
851.9204099432699
 20
605.4921873486269
 30
0.0
 10
850.8769529122808
 20
605.4921873486269
 30
0.0
 10
850.8769529122808
 20
605.4921873486269
 30
0.0
 10
850.8769529122808
 20
605.4921873486269
 30
0.0
 10
850.8769529122808
 20
609.4858396913785
 30
0.0
 10
850.8769529122808
 20
609.4858396913785
 30
0.0
  0
HATCH
  5
B4
330
91
100
AcDbEntity
  8
0
 62
   240
420
 15539236
100
AcDbHatch
 10
0.0
 20
0.0
 30
0.0
210
0.0
220
0.0
230
1.0
  2
SOLID
 70
     1
 71
     0
 91
        1
 92
        1
 93
        1
 72
     4
 94
        3
 73
     0
 74
     1
 95
       44
 96
       40
 40
0.0
 40
0.0
 40
0.0
 40
0.0
 40
1.0
 40
1.0
 40
1.0
 40
2.0
 40
2.0
 40
2.0
 40
3.0
 40
3.0
 40
3.0
 40
4.0
 40
4.0
 40
4.0
 40
5.0
 40
5.0
 40
5.0
 40
6.0
 40
6.0
 40
6.0
 40
7.0
 40
7.0
 40
7.0
 40
8.0
 40
8.0
 40
8.0
 40
9.0
 40
9.0
 40
9.0
 40
10.0
 40
10.0
 40
10.0
 40
11.0
 40
11.0
 40
11.0
 40
12.0
 40
12.0
 40
12.0
 40
13.0
 40
13.0
 40
13.0
 40
13.0
 10
850.8769529122808
 20
609.4858396913785
 10
850.8769529122808
 20
610.1694334412076
 10
850.8647458810337
 20
610.7573240660606
 10
850.8291013497927
 20
611.2968748471758
 10
850.8291013497927
 20
611.2968748471758
 10
851.7524411933118
 20
611.2968748471758
 10
851.7524411933118
 20
611.2968748471758
 10
851.7524411933118
 20
611.2968748471758
 10
851.7885740058028
 20
610.1577146912106
 10
851.7885740058028
 20
610.1577146912106
 10
851.7885740058028
 20
610.1577146912106
 10
851.8364255682909
 20
610.1577146912106
 10
851.8364255682909
 20
610.1577146912106
 10
852.100097443225
 20
610.9370115660157
 10
852.735839630566
 20
611.4287107846428
 10
853.4433591616391
 20
611.4287107846428
 10
853.5634763491091
 20
611.4287107846428
 10
853.6474607240881
 20
611.4169920346458
 10
853.7436521303141
 20
611.3930662534017
 10
853.7436521303141
 20
611.3930662534017
 10
853.7436521303141
 20
610.3974607849007
 10
853.7436521303141
 20
610.3974607849007
 10
853.6352536928412
 20
610.4213865661446
 10
853.5273435366181
 20
610.4335935973916
 10
853.383788849154
 20
610.4335935973916
 10
852.6401365055899
 20
610.4335935973916
 10
852.1123044744719
 20
609.8696287537825
 10
851.9682615057579
 20
609.0781248477305
 10
851.9443357245138
 20
608.9340818790165
 10
851.9204099432699
 20
608.7666014103083
 10
851.9204099432699
 20
608.5864256291034
 10
851.9204099432699
 20
608.5864256291034
 10
851.9204099432699
 20
605.4921873486269
 10
851.9204099432699
 20
605.4921873486269
 10
851.9204099432699
 20
605.4921873486269
 10
850.8769529122808
 20
605.4921873486269
 10
850.8769529122808
 20
605.4921873486269
 10
850.8769529122808
 20
605.4921873486269
 10
850.8769529122808
 20
609.4858396913785
 10
850.8769529122808
 20
609.4858396913785
 97
        0
 97
        0
 75
     2
 76
     1
 98
        0
  0
SPLINE
  5
B5
330
91
100
AcDbEntity
  8
0
 62
   240
420
 15539236
370
    35
100
AcDbSpline
210
0.0
220
0.0
230
1.0
 70
    11
 71
     3
 72
    47
 73
    43
 74
     0
 42
0.0000000001
 43
0.0000000001
 12
1.0
 22
0.0
 32
0.0
 13
1.0
 23
0.0
 33
0.0
 40
0.0
 40
0.0
 40
0.0
 40
0.0
 40
1.0
 40
1.0
 40
1.0
 40
2.0
 40
2.0
 40
2.0
 40
3.0
 40
3.0
 40
3.0
 40
4.0
 40
4.0
 40
4.0
 40
5.0
 40
5.0
 40
5.0
 40
6.0
 40
6.0
 40
6.0
 40
7.0
 40
7.0
 40
7.0
 40
8.0
 40
8.0
 40
8.0
 40
9.0
 40
9.0
 40
9.0
 40
10.0
 40
10.0
 40
10.0
 40
11.0
 40
11.0
 40
11.0
 40
12.0
 40
12.0
 40
12.0
 40
13.0
 40
13.0
 40
13.0
 40
14.0
 40
14.0
 40
14.0
 40
14.0
 10
857.9555661917611
 20
605.4921873486269
 30
0.0
 10
857.9555661917611
 20
605.4921873486269
 30
0.0
 10
857.871581816782
 20
606.2236326609441
 30
0.0
 10
857.871581816782
 20
606.2236326609441
 30
0.0
 10
857.871581816782
 20
606.2236326609441
 30
0.0
 10
857.8354490042911
 20
606.2236326609441
 30
0.0
 10
857.8354490042911
 20
606.2236326609441
 30
0.0
 10
857.5117185356221
 20
605.768066254808
 30
0.0
 10
856.888183379528
 20
605.3603514111599
 30
0.0
 10
856.0605466609849
 20
605.3603514111599
 30
0.0
 10
854.8852536925286
 20
605.3603514111599
 30
0.0
 10
854.2856443176786
 20
606.187988129703
 30
0.0
 10
854.2856443176786
 20
607.0273435982432
 30
0.0
 10
854.2856443176786
 20
608.4306639103924
 30
0.0
 10
855.5327146298669
 20
609.1982420352005
 30
0.0
 10
857.7753904105562
 20
609.1860350039535
 30
0.0
 10
857.7753904105562
 20
609.1860350039535
 30
0.0
 10
857.7753904105562
 20
609.3061521914234
 30
0.0
 10
857.7753904105562
 20
609.3061521914234
 30
0.0
 10
857.7753904105562
 20
609.7856443788036
 30
0.0
 10
857.6435544730891
 20
610.6494139098377
 30
0.0
 10
856.4565427546358
 20
610.6494139098377
 30
0.0
 10
855.9165036922709
 20
610.6494139098377
 30
0.0
 10
855.3530271299118
 20
610.4814451598796
 30
0.0
 10
854.9453122862636
 20
610.2177732849456
 30
0.0
 10
854.9453122862636
 20
610.2177732849456
 30
0.0
 10
854.7050779113238
 20
610.9130857847717
 30
0.0
 10
854.7050779113238
 20
610.9130857847717
 30
0.0
 10
855.1850583799537
 20
611.2250975034437
 30
0.0
 10
855.8803708797799
 20
611.4287107846428
 30
0.0
 10
856.6123044733469
 20
611.4287107846428
 30
0.0
 10
858.3872068166531
 20
611.4287107846428
 30
0.0
 10
858.8188474415452
 20
610.2177732849456
 30
0.0
 10
858.8188474415452
 20
609.0541990664865
 30
0.0
 10
858.8188474415452
 20
609.0541990664865
 30
0.0
 10
858.8188474415452
 20
606.8833006295291
 30
0.0
 10
858.8188474415452
 20
606.8833006295291
 30
0.0
 10
858.8188474415452
 20
606.379882660905
 30
0.0
 10
858.8427732227893
 20
605.888183442278
 30
0.0
 10
858.9150388477713
 20
605.4921873486269
 30
0.0
 10
858.9150388477713
 20
605.4921873486269
 30
0.0
 10
857.9555661917611
 20
605.4921873486269
 30
0.0
 10
857.9555661917611
 20
605.4921873486269
 30
0.0
  0
SPLINE
  5
B6
330
91
100
AcDbEntity
  8
0
 62
   240
420
 15539236
370
    35
100
AcDbSpline
210
0.0
220
0.0
230
1.0
 70
    11
 71
     3
 72
    20
 73
    16
 74
     0
 42
0.0000000001
 43
0.0000000001
 12
1.0
 22
0.0
 32
0.0
 13
1.0
 23
0.0
 33
0.0
 40
0.0
 40
0.0
 40
0.0
 40
0.0
 40
1.0
 40
1.0
 40
1.0
 40
2.0
 40
2.0
 40
2.0
 40
3.0
 40
3.0
 40
3.0
 40
4.0
 40
4.0
 40
4.0
 40
5.0
 40
5.0
 40
5.0
 40
5.0
 10
857.7993161918001
 20
608.4545896916363
 30
0.0
 10
856.647949004588
 20
608.4785154728803
 30
0.0
 10
855.3408200986647
 20
608.2744139104313
 30
0.0
 10
855.3408200986647
 20
607.1474607857132
 30
0.0
 10
855.3408200986647
 20
606.463867035884
 30
0.0
 10
855.7968747860508
 20
606.1396482859651
 30
0.0
 10
856.3364255671659
 20
606.1396482859651
 30
0.0
 10
857.091796660727
 20
606.1396482859651
 30
0.0
 10
857.5717771293571
 20
606.619628754595
 30
0.0
 10
857.739745879315
 20
607.1113279732222
 30
0.0
 10
857.7753904105562
 20
607.2192381294452
 30
0.0
 10
857.7993161918001
 20
607.3393553169152
 30
0.0
 10
857.7993161918001
 20
607.4472654731381
 30
0.0
 10
857.7993161918001
 20
607.4472654731381
 30
0.0
 10
857.7993161918001
 20
608.4545896916363
 30
0.0
 10
857.7993161918001
 20
608.4545896916363
 30
0.0
  0
HATCH
  5
B7
330
91
100
AcDbEntity
  8
0
 62
   240
420
 15539236
100
AcDbHatch
 10
0.0
 20
0.0
 30
0.0
210
0.0
220
0.0
230
1.0
  2
SOLID
 70
     1
 71
     0
 91
        2
 92
        1
 93
        1
 72
     4
 94
        3
 73
     0
 74
     1
 95
       47
 96
       43
 40
0.0
 40
0.0
 40
0.0
 40
0.0
 40
1.0
 40
1.0
 40
1.0
 40
2.0
 40
2.0
 40
2.0
 40
3.0
 40
3.0
 40
3.0
 40
4.0
 40
4.0
 40
4.0
 40
5.0
 40
5.0
 40
5.0
 40
6.0
 40
6.0
 40
6.0
 40
7.0
 40
7.0
 40
7.0
 40
8.0
 40
8.0
 40
8.0
 40
9.0
 40
9.0
 40
9.0
 40
10.0
 40
10.0
 40
10.0
 40
11.0
 40
11.0
 40
11.0
 40
12.0
 40
12.0
 40
12.0
 40
13.0
 40
13.0
 40
13.0
 40
14.0
 40
14.0
 40
14.0
 40
14.0
 10
857.9555661917611
 20
605.4921873486269
 10
857.9555661917611
 20
605.4921873486269
 10
857.871581816782
 20
606.2236326609441
 10
857.871581816782
 20
606.2236326609441
 10
857.871581816782
 20
606.2236326609441
 10
857.8354490042911
 20
606.2236326609441
 10
857.8354490042911
 20
606.2236326609441
 10
857.5117185356221
 20
605.768066254808
 10
856.888183379528
 20
605.3603514111599
 10
856.0605466609849
 20
605.3603514111599
 10
854.8852536925286
 20
605.3603514111599
 10
854.2856443176786
 20
606.187988129703
 10
854.2856443176786
 20
607.0273435982432
 10
854.2856443176786
 20
608.4306639103924
 10
855.5327146298669
 20
609.1982420352005
 10
857.7753904105562
 20
609.1860350039535
 10
857.7753904105562
 20
609.1860350039535
 10
857.7753904105562
 20
609.3061521914234
 10
857.7753904105562
 20
609.3061521914234
 10
857.7753904105562
 20
609.7856443788036
 10
857.6435544730891
 20
610.6494139098377
 10
856.4565427546358
 20
610.6494139098377
 10
855.9165036922709
 20
610.6494139098377
 10
855.3530271299118
 20
610.4814451598796
 10
854.9453122862636
 20
610.2177732849456
 10
854.9453122862636
 20
610.2177732849456
 10
854.7050779113238
 20
610.9130857847717
 10
854.7050779113238
 20
610.9130857847717
 10
855.1850583799537
 20
611.2250975034437
 10
855.8803708797799
 20
611.4287107846428
 10
856.6123044733469
 20
611.4287107846428
 10
858.3872068166531
 20
611.4287107846428
 10
858.8188474415452
 20
610.2177732849456
 10
858.8188474415452
 20
609.0541990664865
 10
858.8188474415452
 20
609.0541990664865
 10
858.8188474415452
 20
606.8833006295291
 10
858.8188474415452
 20
606.8833006295291
 10
858.8188474415452
 20
606.379882660905
 10
858.8427732227893
 20
605.888183442278
 10
858.9150388477713
 20
605.4921873486269
 10
858.9150388477713
 20
605.4921873486269
 10
857.9555661917611
 20
605.4921873486269
 10
857.9555661917611
 20
605.4921873486269
 97
        0
 97
        0
 92
        1
 93
        1
 72
     4
 94
        3
 73
     0
 74
     1
 95
       20
 96
       16
 40
0.0
 40
0.0
 40
0.0
 40
0.0
 40
1.0
 40
1.0
 40
1.0
 40
2.0
 40
2.0
 40
2.0
 40
3.0
 40
3.0
 40
3.0
 40
4.0
 40
4.0
 40
4.0
 40
5.0
 40
5.0
 40
5.0
 40
5.0
 10
857.7993161918001
 20
608.4545896916363
 10
856.647949004588
 20
608.4785154728803
 10
855.3408200986647
 20
608.2744139104313
 10
855.3408200986647
 20
607.1474607857132
 10
855.3408200986647
 20
606.463867035884
 10
855.7968747860508
 20
606.1396482859651
 10
856.3364255671659
 20
606.1396482859651
 10
857.091796660727
 20
606.1396482859651
 10
857.5717771293571
 20
606.619628754595
 10
857.739745879315
 20
607.1113279732222
 10
857.7753904105562
 20
607.2192381294452
 10
857.7993161918001
 20
607.3393553169152
 10
857.7993161918001
 20
607.4472654731381
 10
857.7993161918001
 20
607.4472654731381
 10
857.7993161918001
 20
608.4545896916363
 10
857.7993161918001
 20
608.4545896916363
 97
        0
 97
        0
 75
     2
 76
     1
 98
        0
  0
SPLINE
  5
B8
330
91
100
AcDbEntity
  8
0
 62
   240
420
 15539236
370
    35
100
AcDbSpline
210
0.0
220
0.0
230
1.0
 70
    11
 71
     3
 72
    17
 73
    13
 74
     0
 42
0.0000000001
 43
0.0000000001
 12
1.0
 22
0.0
 32
0.0
 13
1.0
 23
0.0
 33
0.0
 40
0.0
 40
0.0
 40
0.0
 40
0.0
 40
1.0
 40
1.0
 40
1.0
 40
2.0
 40
2.0
 40
2.0
 40
3.0
 40
3.0
 40
3.0
 40
4.0
 40
4.0
 40
4.0
 40
4.0
 10
861.7006833783248
 20
612.9282225030179
 30
0.0
 10
861.7128904095717
 20
612.5683592218579
 30
0.0
 10
861.4487302533878
 20
612.2802732844299
 30
0.0
 10
861.0292966597426
 20
612.2802732844299
 30
0.0
 10
860.6572263473357
 20
612.2802732844299
 30
0.0
 10
860.3935544724015
 20
612.5683592218579
 30
0.0
 10
860.3935544724015
 20
612.9282225030179
 30
0.0
 10
860.3935544724015
 20
613.299804534175
 30
0.0
 10
860.6694333785827
 20
613.587890471603
 30
0.0
 10
861.0532224409867
 20
613.587890471603
 30
0.0
 10
861.4487302533878
 20
613.587890471603
 30
0.0
 10
861.7006833783248
 20
613.299804534175
 30
0.0
 10
861.7006833783248
 20
612.9282225030179
 30
0.0
  0
POLYLINE
  5
B9
330
91
100
AcDbEntity
  8
0
 62
   240
420
 15539236
370
    35
100
AcDb2dPolyline
 66
     1
 10
0.0
 20
0.0
 30
0.0
  0
VERTEX
  5
BA
330
B9
100
AcDbEntity
  8
0
 62
   240
420
 15539236
370
    35
100
AcDbVertex
100
AcDb2dVertex
 10
860.5253904098686
 20
605.4921873486269
 30
0.0
  0
VERTEX
  5
BB
330
B9
100
AcDbEntity
  8
0
 62
   240
420
 15539236
370
    35
100
AcDbVertex
100
AcDb2dVertex
 10
860.5253904098686
 20
611.2968748471758
 30
0.0
  0
VERTEX
  5
BC
330
B9
100
AcDbEntity
  8
0
 62
   240
420
 15539236
370
    35
100
AcDbVertex
100
AcDb2dVertex
 10
861.5810544721047
 20
611.2968748471758
 30
0.0
  0
VERTEX
  5
BD
330
B9
100
AcDbEntity
  8
0
 62
   240
420
 15539236
370
    35
100
AcDbVertex
100
AcDb2dVertex
 10
861.5810544721047
 20
605.4921873486269
 30
0.0
  0
VERTEX
  5
BE
330
B9
100
AcDbEntity
  8
0
 62
   240
420
 15539236
370
    35
100
AcDbVertex
100
AcDb2dVertex
 10
860.5253904098686
 20
605.4921873486269
 30
0.0
  0
SEQEND
  5
BF
330
B9
100
AcDbEntity
  8
0
 62
   240
420
 15539236
370
    35
  0
HATCH
  5
C0
330
91
100
AcDbEntity
  8
0
 62
   240
420
 15539236
100
AcDbHatch
 10
0.0
 20
0.0
 30
0.0
210
0.0
220
0.0
230
1.0
  2
SOLID
 70
     1
 71
     0
 91
        2
 92
        1
 93
        1
 72
     4
 94
        3
 73
     0
 74
     1
 95
       17
 96
       13
 40
0.0
 40
0.0
 40
0.0
 40
0.0
 40
1.0
 40
1.0
 40
1.0
 40
2.0
 40
2.0
 40
2.0
 40
3.0
 40
3.0
 40
3.0
 40
4.0
 40
4.0
 40
4.0
 40
4.0
 10
861.7006833783248
 20
612.9282225030179
 10
861.7128904095717
 20
612.5683592218579
 10
861.4487302533878
 20
612.2802732844299
 10
861.0292966597426
 20
612.2802732844299
 10
860.6572263473357
 20
612.2802732844299
 10
860.3935544724015
 20
612.5683592218579
 10
860.3935544724015
 20
612.9282225030179
 10
860.3935544724015
 20
613.299804534175
 10
860.6694333785827
 20
613.587890471603
 10
861.0532224409867
 20
613.587890471603
 10
861.4487302533878
 20
613.587890471603
 10
861.7006833783248
 20
613.299804534175
 10
861.7006833783248
 20
612.9282225030179
 97
        0
 97
        0
 92
        1
 93
        4
 72
     1
 10
860.5253904098686
 20
605.4921873486269
 11
860.5253904098686
 21
611.2968748471758
 72
     1
 10
860.5253904098686
 20
611.2968748471758
 11
861.5810544721047
 21
611.2968748471758
 72
     1
 10
861.5810544721047
 20
611.2968748471758
 11
861.5810544721047
 21
605.4921873486269
 72
     1
 10
861.5810544721047
 20
605.4921873486269
 11
860.5253904098686
 21
605.4921873486269
 97
        0
 75
     2
 76
     1
 98
        0
  0
SPLINE
  5
C1
330
91
100
AcDbEntity
  8
0
 62
   240
420
 15539236
370
    35
100
AcDbSpline
210
0.0
220
0.0
230
1.0
 70
    11
 71
     3
 72
    56
 73
    52
 74
     0
 42
0.0000000001
 43
0.0000000001
 12
1.0
 22
0.0
 32
0.0
 13
1.0
 23
0.0
 33
0.0
 40
0.0
 40
0.0
 40
0.0
 40
0.0
 40
1.0
 40
1.0
 40
1.0
 40
2.0
 40
2.0
 40
2.0
 40
3.0
 40
3.0
 40
3.0
 40
4.0
 40
4.0
 40
4.0
 40
5.0
 40
5.0
 40
5.0
 40
6.0
 40
6.0
 40
6.0
 40
7.0
 40
7.0
 40
7.0
 40
8.0
 40
8.0
 40
8.0
 40
9.0
 40
9.0
 40
9.0
 40
10.0
 40
10.0
 40
10.0
 40
11.0
 40
11.0
 40
11.0
 40
12.0
 40
12.0
 40
12.0
 40
13.0
 40
13.0
 40
13.0
 40
14.0
 40
14.0
 40
14.0
 40
15.0
 40
15.0
 40
15.0
 40
16.0
 40
16.0
 40
16.0
 40
17.0
 40
17.0
 40
17.0
 40
17.0
 10
868.3344724391663
 20
611.2968748471758
 30
0.0
 10
868.3100583766725
 20
610.8774412535306
 30
0.0
 10
868.2861325954284
 20
610.4096678161476
 30
0.0
 10
868.2861325954284
 20
609.7016600038246
 30
0.0
 10
868.2861325954284
 20
609.7016600038246
 30
0.0
 10
868.2861325954284
 20
606.3315428171671
 30
0.0
 10
868.2861325954284
 20
606.3315428171671
 30
0.0
 10
868.2861325954284
 20
605.0004881299999
 30
0.0
 10
868.0224607204943
 20
604.1850584427037
 30
0.0
 10
867.4589841581352
 20
603.6811521928297
 30
0.0
 10
866.8950193145263
 20
603.1533201617117
 30
0.0
 10
866.0795896272301
 20
602.9853514117536
 30
0.0
 10
865.3481443149129
 20
602.9853514117536
 30
0.0
 10
864.6523435338369
 20
602.9853514117536
 30
0.0
 10
863.8847654090288
 20
603.1533201617117
 30
0.0
 10
863.4169919716458
 20
603.4653318803837
 30
0.0
 10
863.4169919716458
 20
603.4653318803837
 30
0.0
 10
863.6806638465798
 20
604.2690428176827
 30
0.0
 10
863.6806638465798
 20
604.2690428176827
 30
0.0
 10
864.0644529089839
 20
604.0288084427427
 30
0.0
 10
864.6645505650838
 20
603.8129881302967
 30
0.0
 10
865.3837888461541
 20
603.8129881302967
 30
0.0
 10
866.4633786896342
 20
603.8129881302967
 30
0.0
 10
867.2548825956862
 20
604.3769529739058
 30
0.0
 10
867.2548825956862
 20
605.83984359854
 30
0.0
 10
867.2548825956862
 20
605.83984359854
 30
0.0
 10
867.2548825956862
 20
606.487792817128
 30
0.0
 10
867.2548825956862
 20
606.487792817128
 30
0.0
 10
867.2548825956862
 20
606.487792817128
 30
0.0
 10
867.2309568144423
 20
606.487792817128
 30
0.0
 10
867.2309568144423
 20
606.487792817128
 30
0.0
 10
866.9072263457732
 20
605.9477537547631
 30
0.0
 10
866.2832029084292
 20
605.516113129871
 30
0.0
 10
865.3837888461541
 20
605.516113129871
 30
0.0
 10
863.9448240027638
 20
605.516113129871
 30
0.0
 10
862.9130857217717
 20
606.7392576608152
 30
0.0
 10
862.9130857217717
 20
608.3466795354133
 30
0.0
 10
862.9130857217717
 20
610.3134764099216
 30
0.0
 10
864.1967771277008
 20
611.4287107846428
 30
0.0
 10
865.527831814868
 20
611.4287107846428
 30
0.0
 10
866.5351560333662
 20
611.4287107846428
 30
0.0
 10
867.0869138457283
 20
610.9013670347747
 30
0.0
 10
867.3388669706653
 20
610.4213865661446
 30
0.0
 10
867.3388669706653
 20
610.4213865661446
 30
0.0
 10
867.3627927519093
 20
610.4213865661446
 30
0.0
 10
867.3627927519093
 20
610.4213865661446
 30
0.0
 10
867.3627927519093
 20
610.4213865661446
 30
0.0
 10
867.4106443143974
 20
611.2968748471758
 30
0.0
 10
867.4106443143974
 20
611.2968748471758
 30
0.0
 10
867.4106443143974
 20
611.2968748471758
 30
0.0
 10
868.3344724391663
 20
611.2968748471758
 30
0.0
 10
868.3344724391663
 20
611.2968748471758
 30
0.0
  0
SPLINE
  5
C2
330
91
100
AcDbEntity
  8
0
 62
   240
420
 15539236
370
    35
100
AcDbSpline
210
0.0
220
0.0
230
1.0
 70
    11
 71
     3
 72
    26
 73
    22
 74
     0
 42
0.0000000001
 43
0.0000000001
 12
1.0
 22
0.0
 32
0.0
 13
1.0
 23
0.0
 33
0.0
 40
0.0
 40
0.0
 40
0.0
 40
0.0
 40
1.0
 40
1.0
 40
1.0
 40
2.0
 40
2.0
 40
2.0
 40
3.0
 40
3.0
 40
3.0
 40
4.0
 40
4.0
 40
4.0
 40
5.0
 40
5.0
 40
5.0
 40
6.0
 40
6.0
 40
6.0
 40
7.0
 40
7.0
 40
7.0
 40
7.0
 10
867.2426755644393
 20
609.0063475039984
 30
0.0
 10
867.2426755644393
 20
609.1860350039535
 30
0.0
 10
867.2309568144423
 20
609.3422850039144
 30
0.0
 10
867.1831052519542
 20
609.4858396913785
 30
0.0
 10
866.9912107207522
 20
610.0976560974756
 30
0.0
 10
866.4750974396312
 20
610.6015623473496
 30
0.0
 10
865.7075193148231
 20
610.6015623473496
 30
0.0
 10
864.7001950963249
 20
610.6015623473496
 30
0.0
 10
863.9804685340049
 20
609.7499998475624
 30
0.0
 10
863.9804685340049
 20
608.4067381291483
 30
0.0
 10
863.9804685340049
 20
607.2670896919332
 30
0.0
 10
864.556152127611
 20
606.31982406717
 30
0.0
 10
865.6958005648261
 20
606.31982406717
 30
0.0
 10
866.3432615021642
 20
606.31982406717
 30
0.0
 10
866.9311521270172
 20
606.7275389108181
 30
0.0
 10
867.1586911894603
 20
607.3989256294003
 30
0.0
 10
867.2187497831953
 20
607.5791014106052
 30
0.0
 10
867.2426755644393
 20
607.7827146918044
 30
0.0
 10
867.2426755644393
 20
607.9628904730092
 30
0.0
 10
867.2426755644393
 20
607.9628904730092
 30
0.0
 10
867.2426755644393
 20
609.0063475039984
 30
0.0
 10
867.2426755644393
 20
609.0063475039984
 30
0.0
  0
HATCH
  5
C3
330
91
100
AcDbEntity
  8
0
 62
   240
420
 15539236
100
AcDbHatch
 10
0.0
 20
0.0
 30
0.0
210
0.0
220
0.0
230
1.0
  2
SOLID
 70
     1
 71
     0
 91
        2
 92
        1
 93
        1
 72
     4
 94
        3
 73
     0
 74
     1
 95
       56
 96
       52
 40
0.0
 40
0.0
 40
0.0
 40
0.0
 40
1.0
 40
1.0
 40
1.0
 40
2.0
 40
2.0
 40
2.0
 40
3.0
 40
3.0
 40
3.0
 40
4.0
 40
4.0
 40
4.0
 40
5.0
 40
5.0
 40
5.0
 40
6.0
 40
6.0
 40
6.0
 40
7.0
 40
7.0
 40
7.0
 40
8.0
 40
8.0
 40
8.0
 40
9.0
 40
9.0
 40
9.0
 40
10.0
 40
10.0
 40
10.0
 40
11.0
 40
11.0
 40
11.0
 40
12.0
 40
12.0
 40
12.0
 40
13.0
 40
13.0
 40
13.0
 40
14.0
 40
14.0
 40
14.0
 40
15.0
 40
15.0
 40
15.0
 40
16.0
 40
16.0
 40
16.0
 40
17.0
 40
17.0
 40
17.0
 40
17.0
 10
868.3344724391663
 20
611.2968748471758
 10
868.3100583766725
 20
610.8774412535306
 10
868.2861325954284
 20
610.4096678161476
 10
868.2861325954284
 20
609.7016600038246
 10
868.2861325954284
 20
609.7016600038246
 10
868.2861325954284
 20
606.3315428171671
 10
868.2861325954284
 20
606.3315428171671
 10
868.2861325954284
 20
605.0004881299999
 10
868.0224607204943
 20
604.1850584427037
 10
867.4589841581352
 20
603.6811521928297
 10
866.8950193145263
 20
603.1533201617117
 10
866.0795896272301
 20
602.9853514117536
 10
865.3481443149129
 20
602.9853514117536
 10
864.6523435338369
 20
602.9853514117536
 10
863.8847654090288
 20
603.1533201617117
 10
863.4169919716458
 20
603.4653318803837
 10
863.4169919716458
 20
603.4653318803837
 10
863.6806638465798
 20
604.2690428176827
 10
863.6806638465798
 20
604.2690428176827
 10
864.0644529089839
 20
604.0288084427427
 10
864.6645505650838
 20
603.8129881302967
 10
865.3837888461541
 20
603.8129881302967
 10
866.4633786896342
 20
603.8129881302967
 10
867.2548825956862
 20
604.3769529739058
 10
867.2548825956862
 20
605.83984359854
 10
867.2548825956862
 20
605.83984359854
 10
867.2548825956862
 20
606.487792817128
 10
867.2548825956862
 20
606.487792817128
 10
867.2548825956862
 20
606.487792817128
 10
867.2309568144423
 20
606.487792817128
 10
867.2309568144423
 20
606.487792817128
 10
866.9072263457732
 20
605.9477537547631
 10
866.2832029084292
 20
605.516113129871
 10
865.3837888461541
 20
605.516113129871
 10
863.9448240027638
 20
605.516113129871
 10
862.9130857217717
 20
606.7392576608152
 10
862.9130857217717
 20
608.3466795354133
 10
862.9130857217717
 20
610.3134764099216
 10
864.1967771277008
 20
611.4287107846428
 10
865.527831814868
 20
611.4287107846428
 10
866.5351560333662
 20
611.4287107846428
 10
867.0869138457283
 20
610.9013670347747
 10
867.3388669706653
 20
610.4213865661446
 10
867.3388669706653
 20
610.4213865661446
 10
867.3627927519093
 20
610.4213865661446
 10
867.3627927519093
 20
610.4213865661446
 10
867.3627927519093
 20
610.4213865661446
 10
867.4106443143974
 20
611.2968748471758
 10
867.4106443143974
 20
611.2968748471758
 10
867.4106443143974
 20
611.2968748471758
 10
868.3344724391663
 20
611.2968748471758
 10
868.3344724391663
 20
611.2968748471758
 97
        0
 97
        0
 92
        1
 93
        1
 72
     4
 94
        3
 73
     0
 74
     1
 95
       26
 96
       22
 40
0.0
 40
0.0
 40
0.0
 40
0.0
 40
1.0
 40
1.0
 40
1.0
 40
2.0
 40
2.0
 40
2.0
 40
3.0
 40
3.0
 40
3.0
 40
4.0
 40
4.0
 40
4.0
 40
5.0
 40
5.0
 40
5.0
 40
6.0
 40
6.0
 40
6.0
 40
7.0
 40
7.0
 40
7.0
 40
7.0
 10
867.2426755644393
 20
609.0063475039984
 10
867.2426755644393
 20
609.1860350039535
 10
867.2309568144423
 20
609.3422850039144
 10
867.1831052519542
 20
609.4858396913785
 10
866.9912107207522
 20
610.0976560974756
 10
866.4750974396312
 20
610.6015623473496
 10
865.7075193148231
 20
610.6015623473496
 10
864.7001950963249
 20
610.6015623473496
 10
863.9804685340049
 20
609.7499998475624
 10
863.9804685340049
 20
608.4067381291483
 10
863.9804685340049
 20
607.2670896919332
 10
864.556152127611
 20
606.31982406717
 10
865.6958005648261
 20
606.31982406717
 10
866.3432615021642
 20
606.31982406717
 10
866.9311521270172
 20
606.7275389108181
 10
867.1586911894603
 20
607.3989256294003
 10
867.2187497831953
 20
607.5791014106052
 10
867.2426755644393
 20
607.7827146918044
 10
867.2426755644393
 20
607.9628904730092
 10
867.2426755644393
 20
607.9628904730092
 10
867.2426755644393
 20
609.0063475039984
 10
867.2426755644393
 20
609.0063475039984
 97
        0
 97
        0
 75
     2
 76
     1
 98
        0
  0
SPLINE
  5
C4
330
91
100
AcDbEntity
  8
0
 62
   240
420
 15539236
370
    35
100
AcDbSpline
210
0.0
220
0.0
230
1.0
 70
    11
 71
     3
 72
    50
 73
    46
 74
     0
 42
0.0000000001
 43
0.0000000001
 12
1.0
 22
0.0
 32
0.0
 13
1.0
 23
0.0
 33
0.0
 40
0.0
 40
0.0
 40
0.0
 40
0.0
 40
1.0
 40
1.0
 40
1.0
 40
2.0
 40
2.0
 40
2.0
 40
3.0
 40
3.0
 40
3.0
 40
4.0
 40
4.0
 40
4.0
 40
5.0
 40
5.0
 40
5.0
 40
6.0
 40
6.0
 40
6.0
 40
7.0
 40
7.0
 40
7.0
 40
8.0
 40
8.0
 40
8.0
 40
9.0
 40
9.0
 40
9.0
 40
10.0
 40
10.0
 40
10.0
 40
11.0
 40
11.0
 40
11.0
 40
12.0
 40
12.0
 40
12.0
 40
13.0
 40
13.0
 40
13.0
 40
14.0
 40
14.0
 40
14.0
 40
15.0
 40
15.0
 40
15.0
 40
15.0
 10
870.0410154074897
 20
614.0073240652482
 30
0.0
 10
870.0410154074897
 20
614.0073240652482
 30
0.0
 10
871.0966794697258
 20
614.0073240652482
 30
0.0
 10
871.0966794697258
 20
614.0073240652482
 30
0.0
 10
871.0966794697258
 20
614.0073240652482
 30
0.0
 10
871.0966794697258
 20
610.3857420349035
 30
0.0
 10
871.0966794697258
 20
610.3857420349035
 30
0.0
 10
871.0966794697258
 20
610.3857420349035
 30
0.0
 10
871.1206052509698
 20
610.3857420349035
 30
0.0
 10
871.1206052509698
 20
610.3857420349035
 30
0.0
 10
871.2885740009278
 20
610.6855467223286
 30
0.0
 10
871.5522458758619
 20
610.9492185972626
 30
0.0
 10
871.875976344531
 20
611.1289060972177
 30
0.0
 10
872.187988063203
 20
611.3090818784227
 30
0.0
 10
872.5595700943601
 20
611.4287107846428
 30
0.0
 10
872.9555661880111
 20
611.4287107846428
 30
0.0
 10
873.7348630628163
 20
611.4287107846428
 30
0.0
 10
874.9824216562544
 20
610.9492185972626
 30
0.0
 10
874.9824216562544
 20
608.9462889102634
 30
0.0
 10
874.9824216562544
 20
608.9462889102634
 30
0.0
 10
874.9824216562544
 20
605.4921873486269
 30
0.0
 10
874.9824216562544
 20
605.4921873486269
 30
0.0
 10
874.9824216562544
 20
605.4921873486269
 30
0.0
 10
873.9267575940183
 20
605.4921873486269
 30
0.0
 10
873.9267575940183
 20
605.4921873486269
 30
0.0
 10
873.9267575940183
 20
605.4921873486269
 30
0.0
 10
873.9267575940183
 20
608.8261717227934
 30
0.0
 10
873.9267575940183
 20
608.8261717227934
 30
0.0
 10
873.9267575940183
 20
609.7617185975596
 30
0.0
 10
873.5791013441052
 20
610.5532225036117
 30
0.0
 10
872.5834958756041
 20
610.5532225036117
 30
0.0
 10
871.899902125775
 20
610.5532225036117
 30
0.0
 10
871.3603513446599
 20
610.0737303162316
 30
0.0
 10
871.1684568134579
 20
609.4980467226255
 30
0.0
 10
871.1083982197229
 20
609.3540037539115
 30
0.0
 10
871.0966794697258
 20
609.1982420352005
 30
0.0
 10
871.0966794697258
 20
608.9941404727515
 30
0.0
 10
871.0966794697258
 20
608.9941404727515
 30
0.0
 10
871.0966794697258
 20
605.4921873486269
 30
0.0
 10
871.0966794697258
 20
605.4921873486269
 30
0.0
 10
871.0966794697258
 20
605.4921873486269
 30
0.0
 10
870.0410154074897
 20
605.4921873486269
 30
0.0
 10
870.0410154074897
 20
605.4921873486269
 30
0.0
 10
870.0410154074897
 20
605.4921873486269
 30
0.0
 10
870.0410154074897
 20
614.0073240652482
 30
0.0
 10
870.0410154074897
 20
614.0073240652482
 30
0.0
  0
HATCH
  5
C5
330
91
100
AcDbEntity
  8
0
 62
   240
420
 15539236
100
AcDbHatch
 10
0.0
 20
0.0
 30
0.0
210
0.0
220
0.0
230
1.0
  2
SOLID
 70
     1
 71
     0
 91
        1
 92
        1
 93
        1
 72
     4
 94
        3
 73
     0
 74
     1
 95
       50
 96
       46
 40
0.0
 40
0.0
 40
0.0
 40
0.0
 40
1.0
 40
1.0
 40
1.0
 40
2.0
 40
2.0
 40
2.0
 40
3.0
 40
3.0
 40
3.0
 40
4.0
 40
4.0
 40
4.0
 40
5.0
 40
5.0
 40
5.0
 40
6.0
 40
6.0
 40
6.0
 40
7.0
 40
7.0
 40
7.0
 40
8.0
 40
8.0
 40
8.0
 40
9.0
 40
9.0
 40
9.0
 40
10.0
 40
10.0
 40
10.0
 40
11.0
 40
11.0
 40
11.0
 40
12.0
 40
12.0
 40
12.0
 40
13.0
 40
13.0
 40
13.0
 40
14.0
 40
14.0
 40
14.0
 40
15.0
 40
15.0
 40
15.0
 40
15.0
 10
870.0410154074897
 20
614.0073240652482
 10
870.0410154074897
 20
614.0073240652482
 10
871.0966794697258
 20
614.0073240652482
 10
871.0966794697258
 20
614.0073240652482
 10
871.0966794697258
 20
614.0073240652482
 10
871.0966794697258
 20
610.3857420349035
 10
871.0966794697258
 20
610.3857420349035
 10
871.0966794697258
 20
610.3857420349035
 10
871.1206052509698
 20
610.3857420349035
 10
871.1206052509698
 20
610.3857420349035
 10
871.2885740009278
 20
610.6855467223286
 10
871.5522458758619
 20
610.9492185972626
 10
871.875976344531
 20
611.1289060972177
 10
872.187988063203
 20
611.3090818784227
 10
872.5595700943601
 20
611.4287107846428
 10
872.9555661880111
 20
611.4287107846428
 10
873.7348630628163
 20
611.4287107846428
 10
874.9824216562544
 20
610.9492185972626
 10
874.9824216562544
 20
608.9462889102634
 10
874.9824216562544
 20
608.9462889102634
 10
874.9824216562544
 20
605.4921873486269
 10
874.9824216562544
 20
605.4921873486269
 10
874.9824216562544
 20
605.4921873486269
 10
873.9267575940183
 20
605.4921873486269
 10
873.9267575940183
 20
605.4921873486269
 10
873.9267575940183
 20
605.4921873486269
 10
873.9267575940183
 20
608.8261717227934
 10
873.9267575940183
 20
608.8261717227934
 10
873.9267575940183
 20
609.7617185975596
 10
873.5791013441052
 20
610.5532225036117
 10
872.5834958756041
 20
610.5532225036117
 10
871.899902125775
 20
610.5532225036117
 10
871.3603513446599
 20
610.0737303162316
 10
871.1684568134579
 20
609.4980467226255
 10
871.1083982197229
 20
609.3540037539115
 10
871.0966794697258
 20
609.1982420352005
 10
871.0966794697258
 20
608.9941404727515
 10
871.0966794697258
 20
608.9941404727515
 10
871.0966794697258
 20
605.4921873486269
 10
871.0966794697258
 20
605.4921873486269
 10
871.0966794697258
 20
605.4921873486269
 10
870.0410154074897
 20
605.4921873486269
 10
870.0410154074897
 20
605.4921873486269
 10
870.0410154074897
 20
605.4921873486269
 10
870.0410154074897
 20
614.0073240652482
 10
870.0410154074897
 20
614.0073240652482
 97
        0
 97
        0
 75
     2
 76
     1
 98
        0
  0
SPLINE
  5
C6
330
91
100
AcDbEntity
  8
0
 62
   240
420
 15539236
370
    35
100
AcDbSpline
210
0.0
220
0.0
230
1.0
 70
    11
 71
     3
 72
    56
 73
    52
 74
     0
 42
0.0000000001
 43
0.0000000001
 12
1.0
 22
0.0
 32
0.0
 13
1.0
 23
0.0
 33
0.0
 40
0.0
 40
0.0
 40
0.0
 40
0.0
 40
1.0
 40
1.0
 40
1.0
 40
2.0
 40
2.0
 40
2.0
 40
3.0
 40
3.0
 40
3.0
 40
4.0
 40
4.0
 40
4.0
 40
5.0
 40
5.0
 40
5.0
 40
6.0
 40
6.0
 40
6.0
 40
7.0
 40
7.0
 40
7.0
 40
8.0
 40
8.0
 40
8.0
 40
9.0
 40
9.0
 40
9.0
 40
10.0
 40
10.0
 40
10.0
 40
11.0
 40
11.0
 40
11.0
 40
12.0
 40
12.0
 40
12.0
 40
13.0
 40
13.0
 40
13.0
 40
14.0
 40
14.0
 40
14.0
 40
15.0
 40
15.0
 40
15.0
 40
16.0
 40
16.0
 40
16.0
 40
17.0
 40
17.0
 40
17.0
 40
17.0
 10
877.9243161867689
 20
612.963867034259
 30
0.0
 10
877.9243161867689
 20
612.963867034259
 30
0.0
 10
877.9243161867689
 20
611.2968748471758
 30
0.0
 10
877.9243161867689
 20
611.2968748471758
 30
0.0
 10
877.9243161867689
 20
611.2968748471758
 30
0.0
 10
879.4355466551411
 20
611.2968748471758
 30
0.0
 10
879.4355466551411
 20
611.2968748471758
 30
0.0
 10
879.4355466551411
 20
611.2968748471758
 30
0.0
 10
879.4355466551411
 20
610.4936521911266
 30
0.0
 10
879.4355466551411
 20
610.4936521911266
 30
0.0
 10
879.4355466551411
 20
610.4936521911266
 30
0.0
 10
877.9243161867689
 20
610.4936521911266
 30
0.0
 10
877.9243161867689
 20
610.4936521911266
 30
0.0
 10
877.9243161867689
 20
610.4936521911266
 30
0.0
 10
877.9243161867689
 20
607.3632810981592
 30
0.0
 10
877.9243161867689
 20
607.3632810981592
 30
0.0
 10
877.9243161867689
 20
606.6435545358391
 30
0.0
 10
878.127929467968
 20
606.235839692191
 30
0.0
 10
878.715820092821
 20
606.235839692191
 30
0.0
 10
878.9916989990021
 20
606.235839692191
 30
0.0
 10
879.1953122802012
 20
606.271972504682
 30
0.0
 10
879.3276364989181
 20
606.307617035923
 30
0.0
 10
879.3276364989181
 20
606.307617035923
 30
0.0
 10
879.3754880614061
 20
605.516113129871
 30
0.0
 10
879.3754880614061
 20
605.516113129871
 30
0.0
 10
879.1713864989572
 20
605.432128754892
 30
0.0
 10
878.847656030288
 20
605.372070161157
 30
0.0
 10
878.43994118664
 20
605.372070161157
 30
0.0
 10
877.9482419680129
 20
605.372070161157
 30
0.0
 10
877.5522458743619
 20
605.5283201611179
 30
0.0
 10
877.3002927494249
 20
605.815917817296
 30
0.0
 10
877.0004880619998
 20
606.127929535968
 30
0.0
 10
876.8925779057769
 20
606.6435545358391
 30
0.0
 10
876.8925779057769
 20
607.3271482856682
 30
0.0
 10
876.8925779057769
 20
607.3271482856682
 30
0.0
 10
876.8925779057769
 20
610.4936521911266
 30
0.0
 10
876.8925779057769
 20
610.4936521911266
 30
0.0
 10
876.8925779057769
 20
610.4936521911266
 30
0.0
 10
875.9931638435017
 20
610.4936521911266
 30
0.0
 10
875.9931638435017
 20
610.4936521911266
 30
0.0
 10
875.9931638435017
 20
610.4936521911266
 30
0.0
 10
875.9931638435017
 20
611.2968748471758
 30
0.0
 10
875.9931638435017
 20
611.2968748471758
 30
0.0
 10
875.9931638435017
 20
611.2968748471758
 30
0.0
 10
876.8925779057769
 20
611.2968748471758
 30
0.0
 10
876.8925779057769
 20
611.2968748471758
 30
0.0
 10
876.8925779057769
 20
611.2968748471758
 30
0.0
 10
876.8925779057769
 20
612.6884764093279
 30
0.0
 10
876.8925779057769
 20
612.6884764093279
 30
0.0
 10
876.8925779057769
 20
612.6884764093279
 30
0.0
 10
877.9243161867689
 20
612.963867034259
 30
0.0
 10
877.9243161867689
 20
612.963867034259
 30
0.0
  0
HATCH
  5
C7
330
91
100
AcDbEntity
  8
0
 62
   240
420
 15539236
100
AcDbHatch
 10
0.0
 20
0.0
 30
0.0
210
0.0
220
0.0
230
1.0
  2
SOLID
 70
     1
 71
     0
 91
        1
 92
        1
 93
        1
 72
     4
 94
        3
 73
     0
 74
     1
 95
       56
 96
       52
 40
0.0
 40
0.0
 40
0.0
 40
0.0
 40
1.0
 40
1.0
 40
1.0
 40
2.0
 40
2.0
 40
2.0
 40
3.0
 40
3.0
 40
3.0
 40
4.0
 40
4.0
 40
4.0
 40
5.0
 40
5.0
 40
5.0
 40
6.0
 40
6.0
 40
6.0
 40
7.0
 40
7.0
 40
7.0
 40
8.0
 40
8.0
 40
8.0
 40
9.0
 40
9.0
 40
9.0
 40
10.0
 40
10.0
 40
10.0
 40
11.0
 40
11.0
 40
11.0
 40
12.0
 40
12.0
 40
12.0
 40
13.0
 40
13.0
 40
13.0
 40
14.0
 40
14.0
 40
14.0
 40
15.0
 40
15.0
 40
15.0
 40
16.0
 40
16.0
 40
16.0
 40
17.0
 40
17.0
 40
17.0
 40
17.0
 10
877.9243161867689
 20
612.963867034259
 10
877.9243161867689
 20
612.963867034259
 10
877.9243161867689
 20
611.2968748471758
 10
877.9243161867689
 20
611.2968748471758
 10
877.9243161867689
 20
611.2968748471758
 10
879.4355466551411
 20
611.2968748471758
 10
879.4355466551411
 20
611.2968748471758
 10
879.4355466551411
 20
611.2968748471758
 10
879.4355466551411
 20
610.4936521911266
 10
879.4355466551411
 20
610.4936521911266
 10
879.4355466551411
 20
610.4936521911266
 10
877.9243161867689
 20
610.4936521911266
 10
877.9243161867689
 20
610.4936521911266
 10
877.9243161867689
 20
610.4936521911266
 10
877.9243161867689
 20
607.3632810981592
 10
877.9243161867689
 20
607.3632810981592
 10
877.9243161867689
 20
606.6435545358391
 10
878.127929467968
 20
606.235839692191
 10
878.715820092821
 20
606.235839692191
 10
878.9916989990021
 20
606.235839692191
 10
879.1953122802012
 20
606.271972504682
 10
879.3276364989181
 20
606.307617035923
 10
879.3276364989181
 20
606.307617035923
 10
879.3754880614061
 20
605.516113129871
 10
879.3754880614061
 20
605.516113129871
 10
879.1713864989572
 20
605.432128754892
 10
878.847656030288
 20
605.372070161157
 10
878.43994118664
 20
605.372070161157
 10
877.9482419680129
 20
605.372070161157
 10
877.5522458743619
 20
605.5283201611179
 10
877.3002927494249
 20
605.815917817296
 10
877.0004880619998
 20
606.127929535968
 10
876.8925779057769
 20
606.6435545358391
 10
876.8925779057769
 20
607.3271482856682
 10
876.8925779057769
 20
607.3271482856682
 10
876.8925779057769
 20
610.4936521911266
 10
876.8925779057769
 20
610.4936521911266
 10
876.8925779057769
 20
610.4936521911266
 10
875.9931638435017
 20
610.4936521911266
 10
875.9931638435017
 20
610.4936521911266
 10
875.9931638435017
 20
610.4936521911266
 10
875.9931638435017
 20
611.2968748471758
 10
875.9931638435017
 20
611.2968748471758
 10
875.9931638435017
 20
611.2968748471758
 10
876.8925779057769
 20
611.2968748471758
 10
876.8925779057769
 20
611.2968748471758
 10
876.8925779057769
 20
611.2968748471758
 10
876.8925779057769
 20
612.6884764093279
 10
876.8925779057769
 20
612.6884764093279
 10
876.8925779057769
 20
612.6884764093279
 10
877.9243161867689
 20
612.963867034259
 10
877.9243161867689
 20
612.963867034259
 97
        0
 97
        0
 75
     2
 76
     1
 98
        0
  0
ENDBLK
  5
94
330
91
100
AcDbEntity
  8
0
100
AcDbBlockEnd
  0
ENDSEC
  0
SECTION
  2
ENTITIES
  0
INSERT
  5
41
330
1F
100
AcDbEntity
  8
0
100
AcDbBlockReference
  2
block 2
 10
0.0
 20
0.0
 30
0.0
  0
INSERT
  5
50
330
1F
100
AcDbEntity
  8
0
100
AcDbBlockReference
  2
block 3
 10
0.0
 20
0.0
 30
0.0
  0
INSERT
  5
55
330
1F
100
AcDbEntity
  8
0
100
AcDbBlockReference
  2
block 4
 10
0.0
 20
0.0
 30
0.0
  0
INSERT
  5
60
330
1F
100
AcDbEntity
  8
0
100
AcDbBlockReference
  2
block 5
 10
0.0
 20
0.0
 30
0.0
  0
INSERT
  5
65
330
1F
100
AcDbEntity
  8
0
100
AcDbBlockReference
  2
block 6
 10
0.0
 20
0.0
 30
0.0
  0
INSERT
  5
6A
330
1F
100
AcDbEntity
  8
0
100
AcDbBlockReference
  2
block 7
 10
0.0
 20
0.0
 30
0.0
  0
INSERT
  5
6F
330
1F
100
AcDbEntity
  8
0
100
AcDbBlockReference
  2
block 8
 10
0.0
 20
0.0
 30
0.0
  0
INSERT
  5
74
330
1F
100
AcDbEntity
  8
0
100
AcDbBlockReference
  2
block 9
 10
0.0
 20
0.0
 30
0.0
  0
INSERT
  5
79
330
1F
100
AcDbEntity
  8
0
100
AcDbBlockReference
  2
block 10
 10
0.0
 20
0.0
 30
0.0
  0
INSERT
  5
7E
330
1F
100
AcDbEntity
  8
0
100
AcDbBlockReference
  2
block 11
 10
0.0
 20
0.0
 30
0.0
  0
INSERT
  5
83
330
1F
100
AcDbEntity
  8
0
100
AcDbBlockReference
  2
block 12
 10
0.0
 20
0.0
 30
0.0
  0
INSERT
  5
88
330
1F
100
AcDbEntity
  8
0
100
AcDbBlockReference
  2
block 13
 10
0.0
 20
0.0
 30
0.0
  0
INSERT
  5
8D
330
1F
100
AcDbEntity
  8
0
100
AcDbBlockReference
  2
block 14
 10
0.0
 20
0.0
 30
0.0
  0
INSERT
  5
92
330
1F
100
AcDbEntity
  8
0
100
AcDbBlockReference
  2
block 15
 10
0.0
 20
0.0
 30
0.0
  0
ENDSEC
  0
SECTION
  2
OBJECTS
  0
DICTIONARY
  5
C
330
0
100
AcDbDictionary
281
     1
  3
ACAD_GROUP
350
D
  3
ACAD_LAYOUT
350
1A
  3
ACAD_MATERIAL
350
3B
  3
ACAD_MLEADERSTYLE
350
C9
  3
ACAD_MLINESTYLE
350
17
  3
ACAD_PLOTSETTINGS
350
19
  3
ACAD_PLOTSTYLENAME
350
E
  3
ACAD_TABLESTYLE
350
C8
  3
ACAD_VISUALSTYLE
350
2A
  0
SUN
  5
3F
330
29
100
AcDbSun
 90
        1
290
     0
 63
     7
421
 16777215
 40
1.0
291
     1
 91
  2455826
 92
 54000000
292
     0
 70
     2
 71
   256
280
     1
  0
DICTIONARY
  5
D
102
{ACAD_REACTORS
330
C
102
}
330
C
100
AcDbDictionary
281
     1
  0
DICTIONARY
  5
1A
102
{ACAD_REACTORS
330
C
102
}
330
C
100
AcDbDictionary
281
     1
  3
Layout1
350
1E
  3
Layout2
350
26
  3
Model
350
22
  0
DICTIONARY
  5
3B
102
{ACAD_REACTORS
330
C
102
}
330
C
100
AcDbDictionary
281
     1
  3
ByBlock
350
3D
  3
ByLayer
350
3C
  3
Global
350
3E
  0
DICTIONARY
  5
C9
102
{ACAD_REACTORS
330
C
102
}
330
C
100
AcDbDictionary
281
     1
  0
DICTIONARY
  5
17
102
{ACAD_REACTORS
330
C
102
}
330
C
100
AcDbDictionary
281
     1
  3
Standard
350
18
  0
DICTIONARY
  5
19
102
{ACAD_REACTORS
330
C
102
}
330
C
100
AcDbDictionary
281
     1
  0
ACDBDICTIONARYWDFLT
  5
E
102
{ACAD_REACTORS
330
C
102
}
330
C
100
AcDbDictionary
281
     1
  3
Normal
350
F
100
AcDbDictionaryWithDefault
340
F
  0
DICTIONARY
  5
C8
102
{ACAD_REACTORS
330
C
102
}
330
C
100
AcDbDictionary
281
     1
  0
DICTIONARY
  5
2A
102
{ACAD_REACTORS
330
C
102
}
330
C
100
AcDbDictionary
281
     1
  3
2dWireframe
350
2F
  3
3D Hidden
350
31
  3
3dWireframe
350
30
  3
Basic
350
32
  3
Brighten
350
36
  3
ColorChange
350
3A
  3
Conceptual
350
34
  3
Dim
350
35
  3
Facepattern
350
39
  3
Flat
350
2B
  3
FlatWithEdges
350
2C
  3
Gouraud
350
2D
  3
GouraudWithEdges
350
2E
  3
Linepattern
350
38
  3
Realistic
350
33
  3
Thicken
350
37
  0
LAYOUT
  5
1E
102
{ACAD_REACTORS
330
1A
102
}
330
1A
100
AcDbPlotSettings
  1

  2
none_device
  4

  6

 40
0.0
 41
0.0
 42
0.0
 43
0.0
 44
0.0
 45
0.0
 46
0.0
 47
0.0
 48
0.0
 49
0.0
140
0.0
141
0.0
142
1.0
143
1.0
 70
   688
 72
     0
 73
     0
 74
     5
  7

 75
    16
 76
     0
 77
     2
 78
   300
147
1.0
148
0.0
149
0.0
100
AcDbLayout
  1
Layout1
 70
     1
 71
     1
 10
0.0
 20
0.0
 11
12.0
 21
9.0
 12
0.0
 22
0.0
 32
0.0
 14
1.000000000000000E+20
 24
1.000000000000000E+20
 34
1.000000000000000E+20
 15
-1.000000000000000E+20
 25
-1.000000000000000E+20
 35
-1.000000000000000E+20
146
0.0
 13
0.0
 23
0.0
 33
0.0
 16
1.0
 26
0.0
 36
0.0
 17
0.0
 27
1.0
 37
0.0
 76
     0
330
1B
  0
LAYOUT
  5
26
102
{ACAD_REACTORS
330
1A
102
}
330
1A
100
AcDbPlotSettings
  1

  2
none_device
  4

  6

 40
0.0
 41
0.0
 42
0.0
 43
0.0
 44
0.0
 45
0.0
 46
0.0
 47
0.0
 48
0.0
 49
0.0
140
0.0
141
0.0
142
1.0
143
1.0
 70
   688
 72
     0
 73
     0
 74
     5
  7

 75
    16
 76
     0
 77
     2
 78
   300
147
1.0
148
0.0
149
0.0
100
AcDbLayout
  1
Layout2
 70
     1
 71
     2
 10
0.0
 20
0.0
 11
0.0
 21
0.0
 12
0.0
 22
0.0
 32
0.0
 14
0.0
 24
0.0
 34
0.0
 15
0.0
 25
0.0
 35
0.0
146
0.0
 13
0.0
 23
0.0
 33
0.0
 16
1.0
 26
0.0
 36
0.0
 17
0.0
 27
1.0
 37
0.0
 76
     0
330
23
  0
LAYOUT
  5
22
102
{ACAD_REACTORS
330
1A
102
}
330
1A
100
AcDbPlotSettings
  1

  2
none_device
  4

  6

 40
0.0
 41
0.0
 42
0.0
 43
0.0
 44
0.0
 45
0.0
 46
0.0
 47
0.0
 48
0.0
 49
0.0
140
0.0
141
0.0
142
1.0
143
1.0
 70
  1712
 72
     0
 73
     0
 74
     0
  7

 75
     0
 76
     0
 77
     2
 78
   300
147
1.0
148
0.0
149
0.0
100
AcDbLayout
  1
Model
 70
     1
 71
     0
 10
0.0
 20
0.0
 11
12.0
 21
9.0
 12
0.0
 22
0.0
 32
0.0
 14
1.000000000000000E+20
 24
1.000000000000000E+20
 34
1.000000000000000E+20
 15
-1.000000000000000E+20
 25
-1.000000000000000E+20
 35
-1.000000000000000E+20
146
0.0
 13
0.0
 23
0.0
 33
0.0
 16
1.0
 26
0.0
 36
0.0
 17
0.0
 27
1.0
 37
0.0
 76
     0
330
1F
331
29
  0
MATERIAL
  5
3D
102
{ACAD_REACTORS
330
3B
102
}
330
3B
100
AcDbMaterial
  1
ByBlock
 72
     1
 94
      127
  0
MATERIAL
  5
3C
102
{ACAD_REACTORS
330
3B
102
}
330
3B
100
AcDbMaterial
  1
ByLayer
 72
     1
 94
      127
  0
MATERIAL
  5
3E
102
{ACAD_REACTORS
330
3B
102
}
330
3B
100
AcDbMaterial
  1
Global
 72
     1
 94
      127
  0
MLINESTYLE
  5
18
102
{ACAD_REACTORS
330
17
102
}
330
17
100
AcDbMlineStyle
  2
Standard
 70
     0
  3

 62
   256
 51
90.0
 52
90.0
 71
     2
 49
0.5
 62
   256
  6
BYLAYER
 49
-0.5
 62
   256
  6
BYLAYER
  0
ACDBPLACEHOLDER
  5
F
102
{ACAD_REACTORS
330
E
102
}
330
E
  0
VISUALSTYLE
  5
2F
102
{ACAD_REACTORS
330
2A
102
}
330
2A
100
AcDbVisualStyle
  2
2dWireframe
 70
     4
177
     2
291
     0
 71
     0
176
     1
 72
     2
176
     1
 73
     0
176
     1
 90
        0
176
     1
 40
-0.6
176
     1
 41
-30.0
176
     1
 62
     5
 63
     7
421
 16777215
176
     1
 74
     1
176
     1
 91
        4
176
     1
 64
     7
176
     1
 65
   257
176
     1
 75
     1
176
     1
175
     1
176
     1
 42
1.0
176
     1
 92
        0
176
     1
 66
   257
176
     1
 43
1.0
176
     1
 76
     1
176
     1
 77
     6
176
     1
 78
     2
176
     1
 67
     7
176
     1
 79
     5
176
     1
170
     0
176
     1
171
     0
176
     1
290
     0
176
     1
 93
        1
176
     1
 44
0.0
176
     1
173
     0
176
     1
  0
VISUALSTYLE
  5
31
102
{ACAD_REACTORS
330
2A
102
}
330
2A
100
AcDbVisualStyle
  2
3D Hidden
 70
     6
177
     2
291
     0
 71
     1
176
     1
 72
     2
176
     1
 73
     2
176
     1
 90
        0
176
     1
 40
-0.6
176
     1
 41
-30.0
176
     1
 62
     5
 63
     7
421
 16777215
176
     1
 74
     2
176
     1
 91
        2
176
     1
 64
     7
176
     1
 65
   257
176
     1
 75
     2
176
     1
175
     1
176
     1
 42
40.0
176
     1
 92
        0
176
     1
 66
   257
176
     1
 43
1.0
176
     1
 76
     1
176
     1
 77
     6
176
     1
 78
     2
176
     1
 67
     7
176
     1
 79
     3
176
     1
170
     0
176
     1
171
     0
176
     1
290
     0
176
     1
 93
        1
176
     1
 44
0.0
176
     1
173
     0
176
     1
  0
VISUALSTYLE
  5
30
102
{ACAD_REACTORS
330
2A
102
}
330
2A
100
AcDbVisualStyle
  2
3dWireframe
 70
     5
177
     2
291
     0
 71
     0
176
     1
 72
     2
176
     1
 73
     0
176
     1
 90
        0
176
     1
 40
-0.6
176
     1
 41
-30.0
176
     1
 62
     5
 63
     7
421
 16777215
176
     1
 74
     1
176
     1
 91
        4
176
     1
 64
     7
176
     1
 65
   257
176
     1
 75
     1
176
     1
175
     1
176
     1
 42
1.0
176
     1
 92
        0
176
     1
 66
   257
176
     1
 43
1.0
176
     1
 76
     1
176
     1
 77
     6
176
     1
 78
     2
176
     1
 67
     7
176
     1
 79
     5
176
     1
170
     0
176
     1
171
     0
176
     1
290
     0
176
     1
 93
        1
176
     1
 44
0.0
176
     1
173
     0
176
     1
  0
VISUALSTYLE
  5
32
102
{ACAD_REACTORS
330
2A
102
}
330
2A
100
AcDbVisualStyle
  2
Basic
 70
     7
177
     2
291
     1
 71
     1
176
     1
 72
     0
176
     1
 73
     1
176
     1
 90
        0
176
     1
 40
-0.6
176
     1
 41
-30.0
176
     1
 62
     5
 63
     7
421
 16777215
176
     1
 74
     0
176
     1
 91
        4
176
     1
 64
     7
176
     1
 65
   257
176
     1
 75
     1
176
     1
175
     1
176
     1
 42
1.0
176
     1
 92
        8
176
     1
 66
     7
176
     1
 43
1.0
176
     1
 76
     1
176
     1
 77
     6
176
     1
 78
     2
176
     1
 67
     7
176
     1
 79
     5
176
     1
170
     0
176
     1
171
     0
176
     1
290
     0
176
     1
 93
        1
176
     1
 44
0.0
176
     1
173
     0
176
     1
  0
VISUALSTYLE
  5
36
102
{ACAD_REACTORS
330
2A
102
}
330
2A
100
AcDbVisualStyle
  2
Brighten
 70
    12
177
     2
291
     1
 71
     2
176
     1
 72
     2
176
     1
 73
     0
176
     1
 90
        0
176
     1
 40
-0.6
176
     1
 41
-30.0
176
     1
 62
     5
 63
     7
421
 16777215
176
     1
 74
     1
176
     1
 91
        4
176
     1
 64
     7
176
     1
 65
   257
176
     1
 75
     1
176
     1
175
     1
176
     1
 42
1.0
176
     1
 92
        8
176
     1
 66
     7
176
     1
 43
1.0
176
     1
 76
     1
176
     1
 77
     6
176
     1
 78
     2
176
     1
 67
     7
176
     1
 79
     5
176
     1
170
     0
176
     1
171
     0
176
     1
290
     0
176
     1
 93
        1
176
     1
 44
50.0
176
     1
173
     0
176
     1
  0
VISUALSTYLE
  5
3A
102
{ACAD_REACTORS
330
2A
102
}
330
2A
100
AcDbVisualStyle
  2
ColorChange
 70
    16
177
     2
291
     1
 71
     2
176
     1
 72
     2
176
     1
 73
     3
176
     1
 90
        0
176
     1
 40
-0.6
176
     1
 41
-30.0
176
     1
 62
     5
 63
     8
421
  8421504
176
     1
 74
     1
176
     1
 91
        4
176
     1
 64
     7
176
     1
 65
   257
176
     1
 75
     1
176
     1
175
     1
176
     1
 42
1.0
176
     1
 92
        8
176
     1
 66
     8
424
  8421504
176
     1
 43
1.0
176
     1
 76
     1
176
     1
 77
     6
176
     1
 78
     2
176
     1
 67
     7
176
     1
 79
     5
176
     1
170
     0
176
     1
171
     0
176
     1
290
     0
176
     1
 93
        1
176
     1
 44
0.0
176
     1
173
     0
176
     1
  0
VISUALSTYLE
  5
34
102
{ACAD_REACTORS
330
2A
102
}
330
2A
100
AcDbVisualStyle
  2
Conceptual
 70
     9
177
     2
291
     0
 71
     3
176
     1
 72
     2
176
     1
 73
     0
176
     1
 90
        0
176
     1
 40
-0.6
176
     1
 41
-30.0
176
     1
 62
     5
 63
     7
421
 16777215
176
     1
 74
     2
176
     1
 91
        2
176
     1
 64
     7
176
     1
 65
   257
176
     1
 75
     1
176
     1
175
     1
176
     1
 42
40.0
176
     1
 92
        8
176
     1
 66
     7
176
     1
 43
1.0
176
     1
 76
     1
176
     1
 77
     6
176
     1
 78
     2
176
     1
 67
     7
176
     1
 79
     3
176
     1
170
     0
176
     1
171
     0
176
     1
290
     0
176
     1
 93
        1
176
     1
 44
0.0
176
     1
173
     0
176
     1
  0
VISUALSTYLE
  5
35
102
{ACAD_REACTORS
330
2A
102
}
330
2A
100
AcDbVisualStyle
  2
Dim
 70
    11
177
     2
291
     1
 71
     2
176
     1
 72
     2
176
     1
 73
     0
176
     1
 90
        0
176
     1
 40
-0.6
176
     1
 41
-30.0
176
     1
 62
     5
 63
     7
421
 16777215
176
     1
 74
     1
176
     1
 91
        4
176
     1
 64
     7
176
     1
 65
   257
176
     1
 75
     1
176
     1
175
     1
176
     1
 42
1.0
176
     1
 92
        8
176
     1
 66
     7
176
     1
 43
1.0
176
     1
 76
     1
176
     1
 77
     6
176
     1
 78
     2
176
     1
 67
     7
176
     1
 79
     5
176
     1
170
     0
176
     1
171
     0
176
     1
290
     0
176
     1
 93
        1
176
     1
 44
-50.0
176
     1
173
     0
176
     1
  0
VISUALSTYLE
  5
39
102
{ACAD_REACTORS
330
2A
102
}
330
2A
100
AcDbVisualStyle
  2
Facepattern
 70
    15
177
     2
291
     1
 71
     2
176
     1
 72
     2
176
     1
 73
     0
176
     1
 90
        0
176
     1
 40
-0.6
176
     1
 41
-30.0
176
     1
 62
     5
 63
     7
421
 16777215
176
     1
 74
     1
176
     1
 91
        4
176
     1
 64
     7
176
     1
 65
   257
176
     1
 75
     1
176
     1
175
     1
176
     1
 42
1.0
176
     1
 92
        8
176
     1
 66
     7
176
     1
 43
1.0
176
     1
 76
     1
176
     1
 77
     6
176
     1
 78
     2
176
     1
 67
     7
176
     1
 79
     5
176
     1
170
     0
176
     1
171
     0
176
     1
290
     0
176
     1
 93
        1
176
     1
 44
0.0
176
     1
173
     0
176
     1
  0
VISUALSTYLE
  5
2B
102
{ACAD_REACTORS
330
2A
102
}
330
2A
100
AcDbVisualStyle
  2
Flat
 70
     0
177
     2
291
     1
 71
     2
176
     1
 72
     1
176
     1
 73
     1
176
     1
 90
        2
176
     1
 40
-0.6
176
     1
 41
30.0
176
     1
 62
     5
 63
     7
421
 16777215
176
     1
 74
     0
176
     1
 91
        4
176
     1
 64
     7
176
     1
 65
   257
176
     1
 75
     1
176
     1
175
     1
176
     1
 42
1.0
176
     1
 92
        8
176
     1
 66
     7
176
     1
 43
1.0
176
     1
 76
     1
176
     1
 77
     6
176
     1
 78
     2
176
     1
 67
     7
176
     1
 79
     5
176
     1
170
     0
176
     1
171
     0
176
     1
290
     0
176
     1
 93
       13
176
     1
 44
0.0
176
     1
173
     0
176
     1
  0
VISUALSTYLE
  5
2C
102
{ACAD_REACTORS
330
2A
102
}
330
2A
100
AcDbVisualStyle
  2
FlatWithEdges
 70
     1
177
     2
291
     1
 71
     2
176
     1
 72
     1
176
     1
 73
     1
176
     1
 90
        2
176
     1
 40
-0.6
176
     1
 41
30.0
176
     1
 62
     5
 63
     7
421
 16777215
176
     1
 74
     1
176
     1
 91
        4
176
     1
 64
     7
176
     1
 65
   257
176
     1
 75
     1
176
     1
175
     1
176
     1
 42
1.0
176
     1
 92
        0
176
     1
 66
   257
176
     1
 43
1.0
176
     1
 76
     1
176
     1
 77
     6
176
     1
 78
     2
176
     1
 67
     7
176
     1
 79
     5
176
     1
170
     0
176
     1
171
     0
176
     1
290
     0
176
     1
 93
       13
176
     1
 44
0.0
176
     1
173
     0
176
     1
  0
VISUALSTYLE
  5
2D
102
{ACAD_REACTORS
330
2A
102
}
330
2A
100
AcDbVisualStyle
  2
Gouraud
 70
     2
177
     2
291
     1
 71
     2
176
     1
 72
     2
176
     1
 73
     1
176
     1
 90
        2
176
     1
 40
-0.6
176
     1
 41
30.0
176
     1
 62
     5
 63
     7
421
 16777215
176
     1
 74
     0
176
     1
 91
        4
176
     1
 64
     7
176
     1
 65
   257
176
     1
 75
     1
176
     1
175
     1
176
     1
 42
1.0
176
     1
 92
        0
176
     1
 66
     7
176
     1
 43
1.0
176
     1
 76
     1
176
     1
 77
     6
176
     1
 78
     2
176
     1
 67
     7
176
     1
 79
     5
176
     1
170
     0
176
     1
171
     0
176
     1
290
     0
176
     1
 93
       13
176
     1
 44
0.0
176
     1
173
     0
176
     1
  0
VISUALSTYLE
  5
2E
102
{ACAD_REACTORS
330
2A
102
}
330
2A
100
AcDbVisualStyle
  2
GouraudWithEdges
 70
     3
177
     2
291
     1
 71
     2
176
     1
 72
     2
176
     1
 73
     1
176
     1
 90
        2
176
     1
 40
-0.6
176
     1
 41
30.0
176
     1
 62
     5
 63
     7
421
 16777215
176
     1
 74
     1
176
     1
 91
        4
176
     1
 64
     7
176
     1
 65
   257
176
     1
 75
     1
176
     1
175
     1
176
     1
 42
1.0
176
     1
 92
        0
176
     1
 66
   257
176
     1
 43
1.0
176
     1
 76
     1
176
     1
 77
     6
176
     1
 78
     2
176
     1
 67
     7
176
     1
 79
     5
176
     1
170
     0
176
     1
171
     0
176
     1
290
     0
176
     1
 93
       13
176
     1
 44
0.0
176
     1
173
     0
176
     1
  0
VISUALSTYLE
  5
38
102
{ACAD_REACTORS
330
2A
102
}
330
2A
100
AcDbVisualStyle
  2
Linepattern
 70
    14
177
     2
291
     1
 71
     2
176
     1
 72
     2
176
     1
 73
     0
176
     1
 90
        0
176
     1
 40
-0.6
176
     1
 41
-30.0
176
     1
 62
     5
 63
     7
421
 16777215
176
     1
 74
     1
176
     1
 91
        4
176
     1
 64
     7
176
     1
 65
   257
176
     1
 75
     7
176
     1
175
     7
176
     1
 42
1.0
176
     1
 92
        8
176
     1
 66
     7
176
     1
 43
1.0
176
     1
 76
     1
176
     1
 77
     6
176
     1
 78
     2
176
     1
 67
     7
176
     1
 79
     5
176
     1
170
     0
176
     1
171
     0
176
     1
290
     0
176
     1
 93
        1
176
     1
 44
0.0
176
     1
173
     0
176
     1
  0
VISUALSTYLE
  5
33
102
{ACAD_REACTORS
330
2A
102
}
330
2A
100
AcDbVisualStyle
  2
Realistic
 70
     8
177
     2
291
     0
 71
     2
176
     1
 72
     2
176
     1
 73
     0
176
     1
 90
        0
176
     1
 40
-0.6
176
     1
 41
-30.0
176
     1
 62
     5
 63
     7
421
 16777215
176
     1
 74
     1
176
     1
 91
        0
176
     1
 64
     7
176
     1
 65
   257
176
     1
 75
     1
176
     1
175
     1
176
     1
 42
1.0
176
     1
 92
        8
176
     1
 66
     8
424
  7895160
176
     1
 43
1.0
176
     1
 76
     1
176
     1
 77
     6
176
     1
 78
     2
176
     1
 67
     7
176
     1
 79
     5
176
     1
170
     0
176
     1
171
     0
176
     1
290
     0
176
     1
 93
       13
176
     1
 44
0.0
176
     1
173
     0
176
     1
  0
VISUALSTYLE
  5
37
102
{ACAD_REACTORS
330
2A
102
}
330
2A
100
AcDbVisualStyle
  2
Thicken
 70
    13
177
     2
291
     1
 71
     2
176
     1
 72
     2
176
     1
 73
     0
176
     1
 90
        0
176
     1
 40
-0.6
176
     1
 41
-30.0
176
     1
 62
     5
 63
     7
421
 16777215
176
     1
 74
     1
176
     1
 91
        4
176
     1
 64
     7
176
     1
 65
   257
176
     1
 75
     1
176
     1
175
     1
176
     1
 42
1.0
176
     1
 92
       12
176
     1
 66
     7
176
     1
 43
1.0
176
     1
 76
     1
176
     1
 77
     6
176
     1
 78
     2
176
     1
 67
     7
176
     1
 79
     5
176
     1
170
     0
176
     1
171
     0
176
     1
290
     0
176
     1
 93
        1
176
     1
 44
0.0
176
     1
173
     0
176
     1
  0
ENDSEC
  0
EOF
